<?xml version="1.0" standalone="no"?>
<svg width="567.429" height="413.846" viewBox="0 0 567.429 413.846" xmlns="http://www.w3.org/2000/svg" shape-rendering="crispEdges">
<title>
figures/chi2zoomin_5PMTnpefilelist20.svg
</title>
<desc>
Creator: ROOT Version 6.18/04
CreationDate: Fri Nov  1 14:05:07 2019</desc>
<defs>
</defs>
<rect x="0.5" y="0" width="566.929" height="413.346" fill="white"/>
<rect x="57.1929" y="41.3346" width="453.543" height="330.677" fill="white"/>
<rect x="57.1929" y="41.3346" width="453.543" height="330.677" fill="none" stroke="black"/>
<path d="M57.1929,372.012h 453.543" fill="none" stroke="black"/>
<path d="M91.4203,41.3346v 330.677" fill="none" stroke="black" stroke-dasharray=" 1, 2"/>
<path d="M136.419,41.3346v 330.677" fill="none" stroke="black" stroke-dasharray=" 1, 2"/>
<path d="M181.418,41.3346v 330.677" fill="none" stroke="black" stroke-dasharray=" 1, 2"/>
<path d="M226.417,41.3346v 330.677" fill="none" stroke="black" stroke-dasharray=" 1, 2"/>
<path d="M271.416,41.3346v 330.677" fill="none" stroke="black" stroke-dasharray=" 1, 2"/>
<path d="M316.415,41.3346v 330.677" fill="none" stroke="black" stroke-dasharray=" 1, 2"/>
<path d="M361.414,41.3346v 330.677" fill="none" stroke="black" stroke-dasharray=" 1, 2"/>
<path d="M406.412,41.3346v 330.677" fill="none" stroke="black" stroke-dasharray=" 1, 2"/>
<path d="M451.411,41.3346v 330.677" fill="none" stroke="black" stroke-dasharray=" 1, 2"/>
<path d="M496.41,41.3346v 330.677" fill="none" stroke="black" stroke-dasharray=" 1, 2"/>
<path d="M91.4203,41.3346v 330.677" fill="none" stroke="black" stroke-dasharray=" 1, 2"/>
<path d="M496.41,41.3346v 330.677" fill="none" stroke="black" stroke-dasharray=" 1, 2"/>
<path d="M57.1929,372.012v -330.677" fill="none" stroke="black"/>
<path d="M57.1929,372.012h 453.543" fill="none" stroke="black"/>
<path d="M91.4203,362.091v 9.92031" fill="none" stroke="black"/>
<path d="M102.67,367.052v 4.96016" fill="none" stroke="black"/>
<path d="M113.92,367.052v 4.96016" fill="none" stroke="black"/>
<path d="M125.169,367.052v 4.96016" fill="none" stroke="black"/>
<path d="M136.419,362.091v 9.92031" fill="none" stroke="black"/>
<path d="M147.669,367.052v 4.96016" fill="none" stroke="black"/>
<path d="M158.919,367.052v 4.96016" fill="none" stroke="black"/>
<path d="M170.168,367.052v 4.96016" fill="none" stroke="black"/>
<path d="M181.418,362.091v 9.92031" fill="none" stroke="black"/>
<path d="M192.668,367.052v 4.96016" fill="none" stroke="black"/>
<path d="M203.918,367.052v 4.96016" fill="none" stroke="black"/>
<path d="M215.167,367.052v 4.96016" fill="none" stroke="black"/>
<path d="M226.417,362.091v 9.92031" fill="none" stroke="black"/>
<path d="M237.667,367.052v 4.96016" fill="none" stroke="black"/>
<path d="M248.916,367.052v 4.96016" fill="none" stroke="black"/>
<path d="M260.166,367.052v 4.96016" fill="none" stroke="black"/>
<path d="M271.416,362.091v 9.92031" fill="none" stroke="black"/>
<path d="M282.666,367.052v 4.96016" fill="none" stroke="black"/>
<path d="M293.915,367.052v 4.96016" fill="none" stroke="black"/>
<path d="M305.165,367.052v 4.96016" fill="none" stroke="black"/>
<path d="M316.415,362.091v 9.92031" fill="none" stroke="black"/>
<path d="M327.664,367.052v 4.96016" fill="none" stroke="black"/>
<path d="M338.914,367.052v 4.96016" fill="none" stroke="black"/>
<path d="M350.164,367.052v 4.96016" fill="none" stroke="black"/>
<path d="M361.414,362.091v 9.92031" fill="none" stroke="black"/>
<path d="M372.663,367.052v 4.96016" fill="none" stroke="black"/>
<path d="M383.913,367.052v 4.96016" fill="none" stroke="black"/>
<path d="M395.163,367.052v 4.96016" fill="none" stroke="black"/>
<path d="M406.412,362.091v 9.92031" fill="none" stroke="black"/>
<path d="M417.662,367.052v 4.96016" fill="none" stroke="black"/>
<path d="M428.912,367.052v 4.96016" fill="none" stroke="black"/>
<path d="M440.162,367.052v 4.96016" fill="none" stroke="black"/>
<path d="M451.411,362.091v 9.92031" fill="none" stroke="black"/>
<path d="M462.661,367.052v 4.96016" fill="none" stroke="black"/>
<path d="M473.911,367.052v 4.96016" fill="none" stroke="black"/>
<path d="M485.16,367.052v 4.96016" fill="none" stroke="black"/>
<path d="M496.41,362.091v 9.92031" fill="none" stroke="black"/>
<path d="M91.4203,362.091v 9.92031" fill="none" stroke="black"/>
<path d="M80.1706,367.052v 4.96016" fill="none" stroke="black"/>
<path d="M68.9209,367.052v 4.96016" fill="none" stroke="black"/>
<path d="M57.6712,367.052v 4.96016" fill="none" stroke="black"/>
<path d="M496.41,362.091v 9.92031" fill="none" stroke="black"/>
<path d="M507.66,367.052v 4.96016" fill="none" stroke="black"/>
<text xml:space="preserve" x="74.4473" y="385.379" fill="black" font-size="13.7726" font-family="Helvetica">1.014</text>
<text xml:space="preserve" x="119.479" y="385.379" fill="black" font-size="13.7726" font-family="Helvetica">1.016</text>
<text xml:space="preserve" x="164.511" y="385.379" fill="black" font-size="13.7726" font-family="Helvetica">1.018</text>
<text xml:space="preserve" x="213.335" y="385.379" fill="black" font-size="13.7726" font-family="Helvetica">1.02</text>
<text xml:space="preserve" x="254.575" y="385.379" fill="black" font-size="13.7726" font-family="Helvetica">1.022</text>
<text xml:space="preserve" x="299.607" y="385.379" fill="black" font-size="13.7726" font-family="Helvetica">1.024</text>
<text xml:space="preserve" x="344.639" y="385.379" fill="black" font-size="13.7726" font-family="Helvetica">1.026</text>
<text xml:space="preserve" x="389.671" y="385.379" fill="black" font-size="13.7726" font-family="Helvetica">1.028</text>
<text xml:space="preserve" x="438.495" y="385.379" fill="black" font-size="13.7726" font-family="Helvetica">1.03</text>
<text xml:space="preserve" x="479.735" y="385.379" fill="black" font-size="13.7726" font-family="Helvetica">1.032</text>
<text xml:space="preserve" x="413.372" y="400.074" fill="black" font-size="13.7726" font-family="Helvetica">calibration factor</text>
<path d="M57.1929,372.012v -330.677" fill="none" stroke="black"/>
<path d="M70.7992,360.583h -13.6063" fill="none" stroke="black"/>
<path d="M63.9961,353.969h -6.80315" fill="none" stroke="black"/>
<path d="M63.9961,347.356h -6.80315" fill="none" stroke="black"/>
<path d="M63.9961,340.742h -6.80315" fill="none" stroke="black"/>
<path d="M63.9961,334.128h -6.80315" fill="none" stroke="black"/>
<path d="M70.7992,327.515h -13.6063" fill="none" stroke="black"/>
<path d="M63.9961,320.901h -6.80315" fill="none" stroke="black"/>
<path d="M63.9961,314.288h -6.80315" fill="none" stroke="black"/>
<path d="M63.9961,307.674h -6.80315" fill="none" stroke="black"/>
<path d="M63.9961,301.061h -6.80315" fill="none" stroke="black"/>
<path d="M70.7992,294.447h -13.6063" fill="none" stroke="black"/>
<path d="M63.9961,287.834h -6.80315" fill="none" stroke="black"/>
<path d="M63.9961,281.22h -6.80315" fill="none" stroke="black"/>
<path d="M63.9961,274.607h -6.80315" fill="none" stroke="black"/>
<path d="M63.9961,267.993h -6.80315" fill="none" stroke="black"/>
<path d="M70.7992,261.38h -13.6063" fill="none" stroke="black"/>
<path d="M63.9961,254.766h -6.80315" fill="none" stroke="black"/>
<path d="M63.9961,248.152h -6.80315" fill="none" stroke="black"/>
<path d="M63.9961,241.539h -6.80315" fill="none" stroke="black"/>
<path d="M63.9961,234.925h -6.80315" fill="none" stroke="black"/>
<path d="M70.7992,228.312h -13.6063" fill="none" stroke="black"/>
<path d="M63.9961,221.698h -6.80315" fill="none" stroke="black"/>
<path d="M63.9961,215.085h -6.80315" fill="none" stroke="black"/>
<path d="M63.9961,208.471h -6.80315" fill="none" stroke="black"/>
<path d="M63.9961,201.858h -6.80315" fill="none" stroke="black"/>
<path d="M70.7992,195.244h -13.6063" fill="none" stroke="black"/>
<path d="M63.9961,188.631h -6.80315" fill="none" stroke="black"/>
<path d="M63.9961,182.017h -6.80315" fill="none" stroke="black"/>
<path d="M63.9961,175.403h -6.80315" fill="none" stroke="black"/>
<path d="M63.9961,168.79h -6.80315" fill="none" stroke="black"/>
<path d="M70.7992,162.176h -13.6063" fill="none" stroke="black"/>
<path d="M63.9961,155.563h -6.80315" fill="none" stroke="black"/>
<path d="M63.9961,148.949h -6.80315" fill="none" stroke="black"/>
<path d="M63.9961,142.336h -6.80315" fill="none" stroke="black"/>
<path d="M63.9961,135.722h -6.80315" fill="none" stroke="black"/>
<path d="M70.7992,129.109h -13.6063" fill="none" stroke="black"/>
<path d="M63.9961,122.495h -6.80315" fill="none" stroke="black"/>
<path d="M63.9961,115.882h -6.80315" fill="none" stroke="black"/>
<path d="M63.9961,109.268h -6.80315" fill="none" stroke="black"/>
<path d="M63.9961,102.655h -6.80315" fill="none" stroke="black"/>
<path d="M70.7992,96.041h -13.6063" fill="none" stroke="black"/>
<path d="M63.9961,89.4275h -6.80315" fill="none" stroke="black"/>
<path d="M63.9961,82.8139h -6.80315" fill="none" stroke="black"/>
<path d="M63.9961,76.2004h -6.80315" fill="none" stroke="black"/>
<path d="M63.9961,69.5868h -6.80315" fill="none" stroke="black"/>
<path d="M70.7992,62.9733h -13.6063" fill="none" stroke="black"/>
<path d="M70.7992,360.583h -13.6063" fill="none" stroke="black"/>
<path d="M63.9961,367.196h -6.80315" fill="none" stroke="black"/>
<path d="M70.7992,62.9733h -13.6063" fill="none" stroke="black"/>
<path d="M63.9961,56.3597h -6.80315" fill="none" stroke="black"/>
<path d="M63.9961,49.7462h -6.80315" fill="none" stroke="black"/>
<path d="M63.9961,43.1327h -6.80315" fill="none" stroke="black"/>
<text xml:space="preserve" x="24.6751" y="364.996" fill="black" font-size="13.7726" font-family="Helvetica">2464</text>
<text xml:space="preserve" x="24.6751" y="331.815" fill="black" font-size="13.7726" font-family="Helvetica">2465</text>
<text xml:space="preserve" x="24.6751" y="299.107" fill="black" font-size="13.7726" font-family="Helvetica">2466</text>
<text xml:space="preserve" x="24.6751" y="265.926" fill="black" font-size="13.7726" font-family="Helvetica">2467</text>
<text xml:space="preserve" x="24.6751" y="232.744" fill="black" font-size="13.7726" font-family="Helvetica">2468</text>
<text xml:space="preserve" x="25.1491" y="199.563" fill="black" font-size="13.7726" font-family="Helvetica">2469</text>
<text xml:space="preserve" x="25.1491" y="166.855" fill="black" font-size="13.7726" font-family="Helvetica">2470</text>
<text xml:space="preserve" x="27.0452" y="134.148" fill="black" font-size="13.7726" font-family="Helvetica">2471</text>
<text xml:space="preserve" x="24.6751" y="100.966" fill="black" font-size="13.7726" font-family="Helvetica">2472</text>
<text xml:space="preserve" x="25.1491" y="67.311" fill="black" font-size="13.7726" font-family="Helvetica">2473</text>
<g transform="rotate(-90,7.61032,45.98)">
<text xml:space="preserve" x="7.61032" y="45.98" fill="black" font-size="9.34839" font-family="Helvetica">2</text>
</g>
<g transform="rotate(-90,11.8765,50.2462)">
<text xml:space="preserve" x="11.8765" y="50.2462" fill="black" font-size="13.7726" font-family="Helvetica"> </text>
</g>
<g transform="rotate(-90,11.8765,57.3565)">
<text xml:space="preserve" x="11.8765" y="57.3565" fill="black" font-size="13.7726" font-family="Times">&#0967;</text>
</g>
<g stroke="black" stroke-width="1" fill="none">
<line x1="58.025" y1="227.888" x2="61.8172" y2="227.888"/><line x1="59.9211" y1="225.992" x2="59.9211" y2="229.784"/><line x1="58.025" y1="225.992" x2="61.8172" y2="229.784"/><line x1="58.025" y1="229.784" x2="61.8172" y2="225.992"/>
<line x1="62.5249" y1="229.383" x2="66.3171" y2="229.383"/><line x1="64.421" y1="227.487" x2="64.421" y2="231.279"/><line x1="62.5249" y1="227.487" x2="66.3171" y2="231.279"/><line x1="62.5249" y1="231.279" x2="66.3171" y2="227.487"/>
<line x1="67.0248" y1="295.892" x2="70.817" y2="295.892"/><line x1="68.9209" y1="293.996" x2="68.9209" y2="297.788"/><line x1="67.0248" y1="293.996" x2="70.817" y2="297.788"/><line x1="67.0248" y1="297.788" x2="70.817" y2="293.996"/>
<line x1="71.5247" y1="295.892" x2="75.3169" y2="295.892"/><line x1="73.4208" y1="293.996" x2="73.4208" y2="297.788"/><line x1="71.5247" y1="293.996" x2="75.3169" y2="297.788"/><line x1="71.5247" y1="297.788" x2="75.3169" y2="293.996"/>
<line x1="76.0246" y1="295.892" x2="79.8167" y2="295.892"/><line x1="77.9207" y1="293.996" x2="77.9207" y2="297.788"/><line x1="76.0246" y1="293.996" x2="79.8167" y2="297.788"/><line x1="76.0246" y1="297.788" x2="79.8167" y2="293.996"/>
<line x1="80.5245" y1="297.857" x2="84.3166" y2="297.857"/><line x1="82.4205" y1="295.96" x2="82.4205" y2="299.753"/><line x1="80.5245" y1="295.96" x2="84.3166" y2="299.753"/><line x1="80.5245" y1="299.753" x2="84.3166" y2="295.96"/>
<line x1="85.0244" y1="297.857" x2="88.8165" y2="297.857"/><line x1="86.9204" y1="295.96" x2="86.9204" y2="299.753"/><line x1="85.0244" y1="295.96" x2="88.8165" y2="299.753"/><line x1="85.0244" y1="299.753" x2="88.8165" y2="295.96"/>
<line x1="89.5242" y1="297.857" x2="93.3164" y2="297.857"/><line x1="91.4203" y1="295.96" x2="91.4203" y2="299.753"/><line x1="89.5242" y1="295.96" x2="93.3164" y2="299.753"/><line x1="89.5242" y1="299.753" x2="93.3164" y2="295.96"/>
<line x1="94.0241" y1="297.857" x2="97.8163" y2="297.857"/><line x1="95.9202" y1="295.96" x2="95.9202" y2="299.753"/><line x1="94.0241" y1="295.96" x2="97.8163" y2="299.753"/><line x1="94.0241" y1="299.753" x2="97.8163" y2="295.96"/>
<line x1="98.524" y1="297.857" x2="102.316" y2="297.857"/><line x1="100.42" y1="295.96" x2="100.42" y2="299.753"/><line x1="98.524" y1="295.96" x2="102.316" y2="299.753"/><line x1="98.524" y1="299.753" x2="102.316" y2="295.96"/>
<line x1="103.024" y1="297.857" x2="106.816" y2="297.857"/><line x1="104.92" y1="295.96" x2="104.92" y2="299.753"/><line x1="103.024" y1="295.96" x2="106.816" y2="299.753"/><line x1="103.024" y1="299.753" x2="106.816" y2="295.96"/>
<line x1="107.524" y1="297.857" x2="111.316" y2="297.857"/><line x1="109.42" y1="295.96" x2="109.42" y2="299.753"/><line x1="107.524" y1="295.96" x2="111.316" y2="299.753"/><line x1="107.524" y1="299.753" x2="111.316" y2="295.96"/>
<line x1="112.024" y1="297.838" x2="115.816" y2="297.838"/><line x1="113.92" y1="295.942" x2="113.92" y2="299.734"/><line x1="112.024" y1="295.942" x2="115.816" y2="299.734"/><line x1="112.024" y1="299.734" x2="115.816" y2="295.942"/>
<line x1="116.524" y1="297.838" x2="120.316" y2="297.838"/><line x1="118.42" y1="295.942" x2="118.42" y2="299.734"/><line x1="116.524" y1="295.942" x2="120.316" y2="299.734"/><line x1="116.524" y1="299.734" x2="120.316" y2="295.942"/>
<line x1="121.023" y1="297.838" x2="124.816" y2="297.838"/><line x1="122.92" y1="295.942" x2="122.92" y2="299.734"/><line x1="121.023" y1="295.942" x2="124.816" y2="299.734"/><line x1="121.023" y1="299.734" x2="124.816" y2="295.942"/>
<line x1="125.523" y1="297.838" x2="129.316" y2="297.838"/><line x1="127.419" y1="295.942" x2="127.419" y2="299.734"/><line x1="125.523" y1="295.942" x2="129.316" y2="299.734"/><line x1="125.523" y1="299.734" x2="129.316" y2="295.942"/>
<line x1="130.023" y1="297.838" x2="133.815" y2="297.838"/><line x1="131.919" y1="295.942" x2="131.919" y2="299.734"/><line x1="130.023" y1="295.942" x2="133.815" y2="299.734"/><line x1="130.023" y1="299.734" x2="133.815" y2="295.942"/>
<line x1="134.523" y1="299.332" x2="138.315" y2="299.332"/><line x1="136.419" y1="297.436" x2="136.419" y2="301.228"/><line x1="134.523" y1="297.436" x2="138.315" y2="301.228"/><line x1="134.523" y1="301.228" x2="138.315" y2="297.436"/>
<line x1="139.023" y1="299.332" x2="142.815" y2="299.332"/><line x1="140.919" y1="297.436" x2="140.919" y2="301.228"/><line x1="139.023" y1="297.436" x2="142.815" y2="301.228"/><line x1="139.023" y1="301.228" x2="142.815" y2="297.436"/>
<line x1="143.523" y1="299.332" x2="147.315" y2="299.332"/><line x1="145.419" y1="297.436" x2="145.419" y2="301.228"/><line x1="143.523" y1="297.436" x2="147.315" y2="301.228"/><line x1="143.523" y1="301.228" x2="147.315" y2="297.436"/>
<line x1="148.023" y1="299.332" x2="151.815" y2="299.332"/><line x1="149.919" y1="297.436" x2="149.919" y2="301.228"/><line x1="148.023" y1="297.436" x2="151.815" y2="301.228"/><line x1="148.023" y1="301.228" x2="151.815" y2="297.436"/>
<line x1="152.523" y1="299.332" x2="156.315" y2="299.332"/><line x1="154.419" y1="297.436" x2="154.419" y2="301.228"/><line x1="152.523" y1="297.436" x2="156.315" y2="301.228"/><line x1="152.523" y1="301.228" x2="156.315" y2="297.436"/>
<line x1="157.023" y1="299.332" x2="160.815" y2="299.332"/><line x1="158.919" y1="297.436" x2="158.919" y2="301.228"/><line x1="157.023" y1="297.436" x2="160.815" y2="301.228"/><line x1="157.023" y1="301.228" x2="160.815" y2="297.436"/>
<line x1="161.522" y1="299.332" x2="165.315" y2="299.332"/><line x1="163.419" y1="297.436" x2="163.419" y2="301.228"/><line x1="161.522" y1="297.436" x2="165.315" y2="301.228"/><line x1="161.522" y1="301.228" x2="165.315" y2="297.436"/>
<line x1="166.022" y1="299.332" x2="169.814" y2="299.332"/><line x1="167.918" y1="297.436" x2="167.918" y2="301.228"/><line x1="166.022" y1="297.436" x2="169.814" y2="301.228"/><line x1="166.022" y1="301.228" x2="169.814" y2="297.436"/>
<line x1="170.522" y1="300.813" x2="174.314" y2="300.813"/><line x1="172.418" y1="298.917" x2="172.418" y2="302.709"/><line x1="170.522" y1="298.917" x2="174.314" y2="302.709"/><line x1="170.522" y1="302.709" x2="174.314" y2="298.917"/>
<line x1="175.022" y1="300.813" x2="178.814" y2="300.813"/><line x1="176.918" y1="298.917" x2="176.918" y2="302.709"/><line x1="175.022" y1="298.917" x2="178.814" y2="302.709"/><line x1="175.022" y1="302.709" x2="178.814" y2="298.917"/>
<line x1="179.522" y1="300.813" x2="183.314" y2="300.813"/><line x1="181.418" y1="298.917" x2="181.418" y2="302.709"/><line x1="179.522" y1="298.917" x2="183.314" y2="302.709"/><line x1="179.522" y1="302.709" x2="183.314" y2="298.917"/>
<line x1="184.022" y1="300.813" x2="187.814" y2="300.813"/><line x1="185.918" y1="298.917" x2="185.918" y2="302.709"/><line x1="184.022" y1="298.917" x2="187.814" y2="302.709"/><line x1="184.022" y1="302.709" x2="187.814" y2="298.917"/>
<line x1="188.522" y1="300.813" x2="192.314" y2="300.813"/><line x1="190.418" y1="298.917" x2="190.418" y2="302.709"/><line x1="188.522" y1="298.917" x2="192.314" y2="302.709"/><line x1="188.522" y1="302.709" x2="192.314" y2="298.917"/>
<line x1="193.022" y1="300.813" x2="196.814" y2="300.813"/><line x1="194.918" y1="298.917" x2="194.918" y2="302.709"/><line x1="193.022" y1="298.917" x2="196.814" y2="302.709"/><line x1="193.022" y1="302.709" x2="196.814" y2="298.917"/>
<line x1="197.522" y1="300.626" x2="201.314" y2="300.626"/><line x1="199.418" y1="298.73" x2="199.418" y2="302.522"/><line x1="197.522" y1="298.73" x2="201.314" y2="302.522"/><line x1="197.522" y1="302.522" x2="201.314" y2="298.73"/>
<line x1="202.021" y1="300.626" x2="205.814" y2="300.626"/><line x1="203.918" y1="298.73" x2="203.918" y2="302.522"/><line x1="202.021" y1="298.73" x2="205.814" y2="302.522"/><line x1="202.021" y1="302.522" x2="205.814" y2="298.73"/>
<line x1="206.521" y1="300.626" x2="210.313" y2="300.626"/><line x1="208.417" y1="298.73" x2="208.417" y2="302.522"/><line x1="206.521" y1="298.73" x2="210.313" y2="302.522"/><line x1="206.521" y1="302.522" x2="210.313" y2="298.73"/>
<line x1="211.021" y1="300.626" x2="214.813" y2="300.626"/><line x1="212.917" y1="298.73" x2="212.917" y2="302.522"/><line x1="211.021" y1="298.73" x2="214.813" y2="302.522"/><line x1="211.021" y1="302.522" x2="214.813" y2="298.73"/>
<line x1="215.521" y1="300.626" x2="219.313" y2="300.626"/><line x1="217.417" y1="298.73" x2="217.417" y2="302.522"/><line x1="215.521" y1="298.73" x2="219.313" y2="302.522"/><line x1="215.521" y1="302.522" x2="219.313" y2="298.73"/>
<line x1="220.021" y1="300.626" x2="223.813" y2="300.626"/><line x1="221.917" y1="298.73" x2="221.917" y2="302.522"/><line x1="220.021" y1="298.73" x2="223.813" y2="302.522"/><line x1="220.021" y1="302.522" x2="223.813" y2="298.73"/>
<line x1="224.521" y1="300.27" x2="228.313" y2="300.27"/><line x1="226.417" y1="298.374" x2="226.417" y2="302.166"/><line x1="224.521" y1="298.374" x2="228.313" y2="302.166"/><line x1="224.521" y1="302.166" x2="228.313" y2="298.374"/>
<line x1="229.021" y1="300.27" x2="232.813" y2="300.27"/><line x1="230.917" y1="298.374" x2="230.917" y2="302.166"/><line x1="229.021" y1="298.374" x2="232.813" y2="302.166"/><line x1="229.021" y1="302.166" x2="232.813" y2="298.374"/>
<line x1="233.521" y1="301.757" x2="237.313" y2="301.757"/><line x1="235.417" y1="299.861" x2="235.417" y2="303.654"/><line x1="233.521" y1="299.861" x2="237.313" y2="303.654"/><line x1="233.521" y1="303.654" x2="237.313" y2="299.861"/>
<line x1="238.021" y1="301.757" x2="241.813" y2="301.757"/><line x1="239.917" y1="299.861" x2="239.917" y2="303.654"/><line x1="238.021" y1="299.861" x2="241.813" y2="303.654"/><line x1="238.021" y1="303.654" x2="241.813" y2="299.861"/>
<line x1="242.52" y1="303.062" x2="246.313" y2="303.062"/><line x1="244.416" y1="301.166" x2="244.416" y2="304.958"/><line x1="242.52" y1="301.166" x2="246.313" y2="304.958"/><line x1="242.52" y1="304.958" x2="246.313" y2="301.166"/>
<line x1="247.02" y1="303.062" x2="250.812" y2="303.062"/><line x1="248.916" y1="301.166" x2="248.916" y2="304.958"/><line x1="247.02" y1="301.166" x2="250.812" y2="304.958"/><line x1="247.02" y1="304.958" x2="250.812" y2="301.166"/>
<line x1="251.52" y1="303.062" x2="255.312" y2="303.062"/><line x1="253.416" y1="301.166" x2="253.416" y2="304.958"/><line x1="251.52" y1="301.166" x2="255.312" y2="304.958"/><line x1="251.52" y1="304.958" x2="255.312" y2="301.166"/>
<line x1="256.02" y1="303.062" x2="259.812" y2="303.062"/><line x1="257.916" y1="301.166" x2="257.916" y2="304.958"/><line x1="256.02" y1="301.166" x2="259.812" y2="304.958"/><line x1="256.02" y1="304.958" x2="259.812" y2="301.166"/>
<line x1="260.52" y1="304.183" x2="264.312" y2="304.183"/><line x1="262.416" y1="302.287" x2="262.416" y2="306.079"/><line x1="260.52" y1="302.287" x2="264.312" y2="306.079"/><line x1="260.52" y1="306.079" x2="264.312" y2="302.287"/>
<line x1="265.02" y1="304.183" x2="268.812" y2="304.183"/><line x1="266.916" y1="302.287" x2="266.916" y2="306.079"/><line x1="265.02" y1="302.287" x2="268.812" y2="306.079"/><line x1="265.02" y1="306.079" x2="268.812" y2="302.287"/>
<line x1="269.52" y1="304.183" x2="273.312" y2="304.183"/><line x1="271.416" y1="302.287" x2="271.416" y2="306.079"/><line x1="269.52" y1="302.287" x2="273.312" y2="306.079"/><line x1="269.52" y1="306.079" x2="273.312" y2="302.287"/>
<line x1="274.02" y1="305.121" x2="277.812" y2="305.121"/><line x1="275.916" y1="303.225" x2="275.916" y2="307.017"/><line x1="274.02" y1="303.225" x2="277.812" y2="307.017"/><line x1="274.02" y1="307.017" x2="277.812" y2="303.225"/>
<line x1="278.52" y1="305.121" x2="282.312" y2="305.121"/><line x1="280.416" y1="303.225" x2="280.416" y2="307.017"/><line x1="278.52" y1="303.225" x2="282.312" y2="307.017"/><line x1="278.52" y1="307.017" x2="282.312" y2="303.225"/>
<line x1="283.019" y1="305.876" x2="286.812" y2="305.876"/><line x1="284.915" y1="303.98" x2="284.915" y2="307.772"/><line x1="283.019" y1="303.98" x2="286.812" y2="307.772"/><line x1="283.019" y1="307.772" x2="286.812" y2="303.98"/>
<line x1="287.519" y1="305.876" x2="291.311" y2="305.876"/><line x1="289.415" y1="303.98" x2="289.415" y2="307.772"/><line x1="287.519" y1="303.98" x2="291.311" y2="307.772"/><line x1="287.519" y1="307.772" x2="291.311" y2="303.98"/>
<line x1="292.019" y1="305.876" x2="295.811" y2="305.876"/><line x1="293.915" y1="303.98" x2="293.915" y2="307.772"/><line x1="292.019" y1="303.98" x2="295.811" y2="307.772"/><line x1="292.019" y1="307.772" x2="295.811" y2="303.98"/>
<line x1="296.519" y1="305.876" x2="300.311" y2="305.876"/><line x1="298.415" y1="303.98" x2="298.415" y2="307.772"/><line x1="296.519" y1="303.98" x2="300.311" y2="307.772"/><line x1="296.519" y1="307.772" x2="300.311" y2="303.98"/>
<line x1="301.019" y1="305.646" x2="304.811" y2="305.646"/><line x1="302.915" y1="303.75" x2="302.915" y2="307.542"/><line x1="301.019" y1="303.75" x2="304.811" y2="307.542"/><line x1="301.019" y1="307.542" x2="304.811" y2="303.75"/>
<line x1="305.519" y1="305.646" x2="309.311" y2="305.646"/><line x1="307.415" y1="303.75" x2="307.415" y2="307.542"/><line x1="305.519" y1="303.75" x2="309.311" y2="307.542"/><line x1="305.519" y1="307.542" x2="309.311" y2="303.75"/>
<line x1="310.019" y1="305.646" x2="313.811" y2="305.646"/><line x1="311.915" y1="303.75" x2="311.915" y2="307.542"/><line x1="310.019" y1="303.75" x2="313.811" y2="307.542"/><line x1="310.019" y1="307.542" x2="313.811" y2="303.75"/>
<line x1="314.519" y1="305.646" x2="318.311" y2="305.646"/><line x1="316.415" y1="303.75" x2="316.415" y2="307.542"/><line x1="314.519" y1="303.75" x2="318.311" y2="307.542"/><line x1="314.519" y1="307.542" x2="318.311" y2="303.75"/>
<line x1="319.018" y1="305.646" x2="322.811" y2="305.646"/><line x1="320.915" y1="303.75" x2="320.915" y2="307.542"/><line x1="319.018" y1="303.75" x2="322.811" y2="307.542"/><line x1="319.018" y1="307.542" x2="322.811" y2="303.75"/>
<line x1="323.518" y1="305.646" x2="327.311" y2="305.646"/><line x1="325.414" y1="303.75" x2="325.414" y2="307.542"/><line x1="323.518" y1="303.75" x2="327.311" y2="307.542"/><line x1="323.518" y1="307.542" x2="327.311" y2="303.75"/>
<line x1="328.018" y1="305.646" x2="331.81" y2="305.646"/><line x1="329.914" y1="303.75" x2="329.914" y2="307.542"/><line x1="328.018" y1="303.75" x2="331.81" y2="307.542"/><line x1="328.018" y1="307.542" x2="331.81" y2="303.75"/>
<line x1="332.518" y1="305.646" x2="336.31" y2="305.646"/><line x1="334.414" y1="303.75" x2="334.414" y2="307.542"/><line x1="332.518" y1="303.75" x2="336.31" y2="307.542"/><line x1="332.518" y1="307.542" x2="336.31" y2="303.75"/>
<line x1="337.018" y1="305.247" x2="340.81" y2="305.247"/><line x1="338.914" y1="303.351" x2="338.914" y2="307.143"/><line x1="337.018" y1="303.351" x2="340.81" y2="307.143"/><line x1="337.018" y1="307.143" x2="340.81" y2="303.351"/>
<line x1="341.518" y1="305.247" x2="345.31" y2="305.247"/><line x1="343.414" y1="303.351" x2="343.414" y2="307.143"/><line x1="341.518" y1="303.351" x2="345.31" y2="307.143"/><line x1="341.518" y1="307.143" x2="345.31" y2="303.351"/>
<line x1="346.018" y1="305.247" x2="349.81" y2="305.247"/><line x1="347.914" y1="303.351" x2="347.914" y2="307.143"/><line x1="346.018" y1="303.351" x2="349.81" y2="307.143"/><line x1="346.018" y1="307.143" x2="349.81" y2="303.351"/>
<line x1="350.518" y1="304.679" x2="354.31" y2="304.679"/><line x1="352.414" y1="302.783" x2="352.414" y2="306.575"/><line x1="350.518" y1="302.783" x2="354.31" y2="306.575"/><line x1="350.518" y1="306.575" x2="354.31" y2="302.783"/>
<line x1="355.018" y1="304.679" x2="358.81" y2="304.679"/><line x1="356.914" y1="302.783" x2="356.914" y2="306.575"/><line x1="355.018" y1="302.783" x2="358.81" y2="306.575"/><line x1="355.018" y1="306.575" x2="358.81" y2="302.783"/>
<line x1="359.517" y1="304.679" x2="363.31" y2="304.679"/><line x1="361.414" y1="302.783" x2="361.414" y2="306.575"/><line x1="359.517" y1="302.783" x2="363.31" y2="306.575"/><line x1="359.517" y1="306.575" x2="363.31" y2="302.783"/>
<line x1="364.017" y1="304.679" x2="367.81" y2="304.679"/><line x1="365.913" y1="302.783" x2="365.913" y2="306.575"/><line x1="364.017" y1="302.783" x2="367.81" y2="306.575"/><line x1="364.017" y1="306.575" x2="367.81" y2="302.783"/>
<line x1="368.517" y1="304.679" x2="372.309" y2="304.679"/><line x1="370.413" y1="302.783" x2="370.413" y2="306.575"/><line x1="368.517" y1="302.783" x2="372.309" y2="306.575"/><line x1="368.517" y1="306.575" x2="372.309" y2="302.783"/>
<line x1="373.017" y1="304.679" x2="376.809" y2="304.679"/><line x1="374.913" y1="302.783" x2="374.913" y2="306.575"/><line x1="373.017" y1="302.783" x2="376.809" y2="306.575"/><line x1="373.017" y1="306.575" x2="376.809" y2="302.783"/>
<line x1="377.517" y1="304.679" x2="381.309" y2="304.679"/><line x1="379.413" y1="302.783" x2="379.413" y2="306.575"/><line x1="377.517" y1="302.783" x2="381.309" y2="306.575"/><line x1="377.517" y1="306.575" x2="381.309" y2="302.783"/>
<line x1="382.017" y1="304.679" x2="385.809" y2="304.679"/><line x1="383.913" y1="302.783" x2="383.913" y2="306.575"/><line x1="382.017" y1="302.783" x2="385.809" y2="306.575"/><line x1="382.017" y1="306.575" x2="385.809" y2="302.783"/>
<line x1="386.517" y1="304.679" x2="390.309" y2="304.679"/><line x1="388.413" y1="302.783" x2="388.413" y2="306.575"/><line x1="386.517" y1="302.783" x2="390.309" y2="306.575"/><line x1="386.517" y1="306.575" x2="390.309" y2="302.783"/>
<line x1="391.017" y1="304.679" x2="394.809" y2="304.679"/><line x1="392.913" y1="302.783" x2="392.913" y2="306.575"/><line x1="391.017" y1="302.783" x2="394.809" y2="306.575"/><line x1="391.017" y1="306.575" x2="394.809" y2="302.783"/>
<line x1="395.517" y1="303.943" x2="399.309" y2="303.943"/><line x1="397.413" y1="302.047" x2="397.413" y2="305.84"/><line x1="395.517" y1="302.047" x2="399.309" y2="305.84"/><line x1="395.517" y1="305.84" x2="399.309" y2="302.047"/>
<line x1="400.016" y1="303.943" x2="403.809" y2="303.943"/><line x1="401.913" y1="302.047" x2="401.913" y2="305.84"/><line x1="400.016" y1="302.047" x2="403.809" y2="305.84"/><line x1="400.016" y1="305.84" x2="403.809" y2="302.047"/>
<line x1="404.516" y1="303.943" x2="408.309" y2="303.943"/><line x1="406.412" y1="302.047" x2="406.412" y2="305.84"/><line x1="404.516" y1="302.047" x2="408.309" y2="305.84"/><line x1="404.516" y1="305.84" x2="408.309" y2="302.047"/>
<line x1="409.016" y1="303.943" x2="412.808" y2="303.943"/><line x1="410.912" y1="302.047" x2="410.912" y2="305.84"/><line x1="409.016" y1="302.047" x2="412.808" y2="305.84"/><line x1="409.016" y1="305.84" x2="412.808" y2="302.047"/>
<line x1="413.516" y1="303.943" x2="417.308" y2="303.943"/><line x1="415.412" y1="302.047" x2="415.412" y2="305.84"/><line x1="413.516" y1="302.047" x2="417.308" y2="305.84"/><line x1="413.516" y1="305.84" x2="417.308" y2="302.047"/>
<line x1="418.016" y1="303.943" x2="421.808" y2="303.943"/><line x1="419.912" y1="302.047" x2="419.912" y2="305.84"/><line x1="418.016" y1="302.047" x2="421.808" y2="305.84"/><line x1="418.016" y1="305.84" x2="421.808" y2="302.047"/>
<line x1="422.516" y1="303.943" x2="426.308" y2="303.943"/><line x1="424.412" y1="302.047" x2="424.412" y2="305.84"/><line x1="422.516" y1="302.047" x2="426.308" y2="305.84"/><line x1="422.516" y1="305.84" x2="426.308" y2="302.047"/>
<line x1="427.016" y1="303.943" x2="430.808" y2="303.943"/><line x1="428.912" y1="302.047" x2="428.912" y2="305.84"/><line x1="427.016" y1="302.047" x2="430.808" y2="305.84"/><line x1="427.016" y1="305.84" x2="430.808" y2="302.047"/>
<line x1="431.516" y1="303.943" x2="435.308" y2="303.943"/><line x1="433.412" y1="302.047" x2="433.412" y2="305.84"/><line x1="431.516" y1="302.047" x2="435.308" y2="305.84"/><line x1="431.516" y1="305.84" x2="435.308" y2="302.047"/>
<line x1="436.016" y1="303.039" x2="439.808" y2="303.039"/><line x1="437.912" y1="301.143" x2="437.912" y2="304.935"/><line x1="436.016" y1="301.143" x2="439.808" y2="304.935"/><line x1="436.016" y1="304.935" x2="439.808" y2="301.143"/>
<line x1="440.515" y1="303.039" x2="444.308" y2="303.039"/><line x1="442.412" y1="301.143" x2="442.412" y2="304.935"/><line x1="440.515" y1="301.143" x2="444.308" y2="304.935"/><line x1="440.515" y1="304.935" x2="444.308" y2="301.143"/>
<line x1="445.015" y1="301.966" x2="448.808" y2="301.966"/><line x1="446.911" y1="300.07" x2="446.911" y2="303.862"/><line x1="445.015" y1="300.07" x2="448.808" y2="303.862"/><line x1="445.015" y1="303.862" x2="448.808" y2="300.07"/>
<line x1="449.515" y1="301.966" x2="453.307" y2="301.966"/><line x1="451.411" y1="300.07" x2="451.411" y2="303.862"/><line x1="449.515" y1="300.07" x2="453.307" y2="303.862"/><line x1="449.515" y1="303.862" x2="453.307" y2="300.07"/>
<line x1="454.015" y1="301.966" x2="457.807" y2="301.966"/><line x1="455.911" y1="300.07" x2="455.911" y2="303.862"/><line x1="454.015" y1="300.07" x2="457.807" y2="303.862"/><line x1="454.015" y1="303.862" x2="457.807" y2="300.07"/>
<line x1="458.515" y1="301.966" x2="462.307" y2="301.966"/><line x1="460.411" y1="300.07" x2="460.411" y2="303.862"/><line x1="458.515" y1="300.07" x2="462.307" y2="303.862"/><line x1="458.515" y1="303.862" x2="462.307" y2="300.07"/>
<line x1="463.015" y1="301.966" x2="466.807" y2="301.966"/><line x1="464.911" y1="300.07" x2="464.911" y2="303.862"/><line x1="463.015" y1="300.07" x2="466.807" y2="303.862"/><line x1="463.015" y1="303.862" x2="466.807" y2="300.07"/>
<line x1="467.515" y1="301.966" x2="471.307" y2="301.966"/><line x1="469.411" y1="300.07" x2="469.411" y2="303.862"/><line x1="467.515" y1="300.07" x2="471.307" y2="303.862"/><line x1="467.515" y1="303.862" x2="471.307" y2="300.07"/>
<line x1="472.015" y1="301.966" x2="475.807" y2="301.966"/><line x1="473.911" y1="300.07" x2="473.911" y2="303.862"/><line x1="472.015" y1="300.07" x2="475.807" y2="303.862"/><line x1="472.015" y1="303.862" x2="475.807" y2="300.07"/>
<line x1="476.515" y1="301.966" x2="480.307" y2="301.966"/><line x1="478.411" y1="300.07" x2="478.411" y2="303.862"/><line x1="476.515" y1="300.07" x2="480.307" y2="303.862"/><line x1="476.515" y1="303.862" x2="480.307" y2="300.07"/>
<line x1="481.014" y1="302.891" x2="484.807" y2="302.891"/><line x1="482.911" y1="300.995" x2="482.911" y2="304.787"/><line x1="481.014" y1="300.995" x2="484.807" y2="304.787"/><line x1="481.014" y1="304.787" x2="484.807" y2="300.995"/>
<line x1="485.514" y1="302.891" x2="489.307" y2="302.891"/><line x1="487.41" y1="300.995" x2="487.41" y2="304.787"/><line x1="485.514" y1="300.995" x2="489.307" y2="304.787"/><line x1="485.514" y1="304.787" x2="489.307" y2="300.995"/>
<line x1="490.014" y1="302.891" x2="493.806" y2="302.891"/><line x1="491.91" y1="300.995" x2="491.91" y2="304.787"/><line x1="490.014" y1="300.995" x2="493.806" y2="304.787"/><line x1="490.014" y1="304.787" x2="493.806" y2="300.995"/>
<line x1="494.514" y1="303.632" x2="498.306" y2="303.632"/><line x1="496.41" y1="301.736" x2="496.41" y2="305.528"/><line x1="494.514" y1="301.736" x2="498.306" y2="305.528"/><line x1="494.514" y1="305.528" x2="498.306" y2="301.736"/>
<line x1="499.014" y1="303.632" x2="502.806" y2="303.632"/><line x1="500.91" y1="301.736" x2="500.91" y2="305.528"/><line x1="499.014" y1="301.736" x2="502.806" y2="305.528"/><line x1="499.014" y1="305.528" x2="502.806" y2="301.736"/>
<line x1="503.514" y1="303.632" x2="507.306" y2="303.632"/><line x1="505.41" y1="301.736" x2="505.41" y2="305.528"/><line x1="503.514" y1="301.736" x2="507.306" y2="305.528"/><line x1="503.514" y1="305.528" x2="507.306" y2="301.736"/>
<line x1="508.014" y1="303.632" x2="511.806" y2="303.632"/><line x1="509.91" y1="301.736" x2="509.91" y2="305.528"/><line x1="508.014" y1="301.736" x2="511.806" y2="305.528"/><line x1="508.014" y1="305.528" x2="511.806" y2="301.736"/>
</g>
<path d="M0.5,272.809h 566.929" fill="none" stroke="#0000ff"/></svg>
