<?xml version="1.0" standalone="no"?>
<svg width="567.429" height="413.846" viewBox="0 0 567.429 413.846" xmlns="http://www.w3.org/2000/svg" shape-rendering="crispEdges">
<title>
figures/chi2zoomin_6PMTnpefilelist20.svg
</title>
<desc>
Creator: ROOT Version 6.18/04
CreationDate: Fri Nov  1 14:05:12 2019</desc>
<defs>
</defs>
<rect x="0.5" y="0" width="566.929" height="413.346" fill="white"/>
<rect x="57.1929" y="41.3346" width="453.543" height="330.677" fill="white"/>
<rect x="57.1929" y="41.3346" width="453.543" height="330.677" fill="none" stroke="black"/>
<path d="M57.1929,372.012h 453.543" fill="none" stroke="black"/>
<path d="M87.6517,41.3346v 330.677" fill="none" stroke="black" stroke-dasharray=" 1, 2"/>
<path d="M132.121,41.3346v 330.677" fill="none" stroke="black" stroke-dasharray=" 1, 2"/>
<path d="M176.591,41.3346v 330.677" fill="none" stroke="black" stroke-dasharray=" 1, 2"/>
<path d="M221.06,41.3346v 330.677" fill="none" stroke="black" stroke-dasharray=" 1, 2"/>
<path d="M265.53,41.3346v 330.677" fill="none" stroke="black" stroke-dasharray=" 1, 2"/>
<path d="M309.999,41.3346v 330.677" fill="none" stroke="black" stroke-dasharray=" 1, 2"/>
<path d="M354.469,41.3346v 330.677" fill="none" stroke="black" stroke-dasharray=" 1, 2"/>
<path d="M398.938,41.3346v 330.677" fill="none" stroke="black" stroke-dasharray=" 1, 2"/>
<path d="M443.407,41.3346v 330.677" fill="none" stroke="black" stroke-dasharray=" 1, 2"/>
<path d="M487.877,41.3346v 330.677" fill="none" stroke="black" stroke-dasharray=" 1, 2"/>
<path d="M87.6517,41.3346v 330.677" fill="none" stroke="black" stroke-dasharray=" 1, 2"/>
<path d="M487.877,41.3346v 330.677" fill="none" stroke="black" stroke-dasharray=" 1, 2"/>
<path d="M57.1929,372.012v -330.677" fill="none" stroke="black"/>
<path d="M57.1929,372.012h 453.543" fill="none" stroke="black"/>
<path d="M87.6517,362.091v 9.92031" fill="none" stroke="black"/>
<path d="M98.769,367.052v 4.96016" fill="none" stroke="black"/>
<path d="M109.886,367.052v 4.96016" fill="none" stroke="black"/>
<path d="M121.004,367.052v 4.96016" fill="none" stroke="black"/>
<path d="M132.121,362.091v 9.92031" fill="none" stroke="black"/>
<path d="M143.239,367.052v 4.96016" fill="none" stroke="black"/>
<path d="M154.356,367.052v 4.96016" fill="none" stroke="black"/>
<path d="M165.473,367.052v 4.96016" fill="none" stroke="black"/>
<path d="M176.591,362.091v 9.92031" fill="none" stroke="black"/>
<path d="M187.708,367.052v 4.96016" fill="none" stroke="black"/>
<path d="M198.825,367.052v 4.96016" fill="none" stroke="black"/>
<path d="M209.943,367.052v 4.96016" fill="none" stroke="black"/>
<path d="M221.06,362.091v 9.92031" fill="none" stroke="black"/>
<path d="M232.177,367.052v 4.96016" fill="none" stroke="black"/>
<path d="M243.295,367.052v 4.96016" fill="none" stroke="black"/>
<path d="M254.412,367.052v 4.96016" fill="none" stroke="black"/>
<path d="M265.53,362.091v 9.92031" fill="none" stroke="black"/>
<path d="M276.647,367.052v 4.96016" fill="none" stroke="black"/>
<path d="M287.764,367.052v 4.96016" fill="none" stroke="black"/>
<path d="M298.882,367.052v 4.96016" fill="none" stroke="black"/>
<path d="M309.999,362.091v 9.92031" fill="none" stroke="black"/>
<path d="M321.116,367.052v 4.96016" fill="none" stroke="black"/>
<path d="M332.234,367.052v 4.96016" fill="none" stroke="black"/>
<path d="M343.351,367.052v 4.96016" fill="none" stroke="black"/>
<path d="M354.469,362.091v 9.92031" fill="none" stroke="black"/>
<path d="M365.586,367.052v 4.96016" fill="none" stroke="black"/>
<path d="M376.703,367.052v 4.96016" fill="none" stroke="black"/>
<path d="M387.821,367.052v 4.96016" fill="none" stroke="black"/>
<path d="M398.938,362.091v 9.92031" fill="none" stroke="black"/>
<path d="M410.055,367.052v 4.96016" fill="none" stroke="black"/>
<path d="M421.173,367.052v 4.96016" fill="none" stroke="black"/>
<path d="M432.29,367.052v 4.96016" fill="none" stroke="black"/>
<path d="M443.407,362.091v 9.92031" fill="none" stroke="black"/>
<path d="M454.525,367.052v 4.96016" fill="none" stroke="black"/>
<path d="M465.642,367.052v 4.96016" fill="none" stroke="black"/>
<path d="M476.76,367.052v 4.96016" fill="none" stroke="black"/>
<path d="M487.877,362.091v 9.92031" fill="none" stroke="black"/>
<path d="M87.6517,362.091v 9.92031" fill="none" stroke="black"/>
<path d="M76.5343,367.052v 4.96016" fill="none" stroke="black"/>
<path d="M65.4169,367.052v 4.96016" fill="none" stroke="black"/>
<path d="M487.877,362.091v 9.92031" fill="none" stroke="black"/>
<path d="M498.994,367.052v 4.96016" fill="none" stroke="black"/>
<path d="M510.112,367.052v 4.96016" fill="none" stroke="black"/>
<text xml:space="preserve" x="79.1875" y="385.379" fill="black" font-size="13.7726" font-family="Helvetica">1.1</text>
<text xml:space="preserve" x="115.213" y="385.379" fill="black" font-size="13.7726" font-family="Helvetica">1.102</text>
<text xml:space="preserve" x="159.771" y="385.379" fill="black" font-size="13.7726" font-family="Helvetica">1.104</text>
<text xml:space="preserve" x="204.329" y="385.379" fill="black" font-size="13.7726" font-family="Helvetica">1.106</text>
<text xml:space="preserve" x="248.887" y="385.379" fill="black" font-size="13.7726" font-family="Helvetica">1.108</text>
<text xml:space="preserve" x="297.711" y="385.379" fill="black" font-size="13.7726" font-family="Helvetica">1.11</text>
<text xml:space="preserve" x="337.529" y="385.379" fill="black" font-size="13.7726" font-family="Helvetica">1.112</text>
<text xml:space="preserve" x="382.087" y="385.379" fill="black" font-size="13.7726" font-family="Helvetica">1.114</text>
<text xml:space="preserve" x="426.645" y="385.379" fill="black" font-size="13.7726" font-family="Helvetica">1.116</text>
<text xml:space="preserve" x="471.203" y="385.379" fill="black" font-size="13.7726" font-family="Helvetica">1.118</text>
<text xml:space="preserve" x="413.372" y="400.074" fill="black" font-size="13.7726" font-family="Helvetica">calibration factor</text>
<path d="M57.1929,372.012v -330.677" fill="none" stroke="black"/>
<path d="M70.7992,339.373h -13.6063" fill="none" stroke="black"/>
<path d="M63.9961,332.759h -6.80315" fill="none" stroke="black"/>
<path d="M63.9961,326.146h -6.80315" fill="none" stroke="black"/>
<path d="M63.9961,319.532h -6.80315" fill="none" stroke="black"/>
<path d="M63.9961,312.919h -6.80315" fill="none" stroke="black"/>
<path d="M70.7992,306.305h -13.6063" fill="none" stroke="black"/>
<path d="M63.9961,299.692h -6.80315" fill="none" stroke="black"/>
<path d="M63.9961,293.078h -6.80315" fill="none" stroke="black"/>
<path d="M63.9961,286.465h -6.80315" fill="none" stroke="black"/>
<path d="M63.9961,279.851h -6.80315" fill="none" stroke="black"/>
<path d="M70.7992,273.238h -13.6063" fill="none" stroke="black"/>
<path d="M63.9961,266.624h -6.80315" fill="none" stroke="black"/>
<path d="M63.9961,260.01h -6.80315" fill="none" stroke="black"/>
<path d="M63.9961,253.397h -6.80315" fill="none" stroke="black"/>
<path d="M63.9961,246.783h -6.80315" fill="none" stroke="black"/>
<path d="M70.7992,240.17h -13.6063" fill="none" stroke="black"/>
<path d="M63.9961,233.556h -6.80315" fill="none" stroke="black"/>
<path d="M63.9961,226.943h -6.80315" fill="none" stroke="black"/>
<path d="M63.9961,220.329h -6.80315" fill="none" stroke="black"/>
<path d="M63.9961,213.716h -6.80315" fill="none" stroke="black"/>
<path d="M70.7992,207.102h -13.6063" fill="none" stroke="black"/>
<path d="M63.9961,200.489h -6.80315" fill="none" stroke="black"/>
<path d="M63.9961,193.875h -6.80315" fill="none" stroke="black"/>
<path d="M63.9961,187.262h -6.80315" fill="none" stroke="black"/>
<path d="M63.9961,180.648h -6.80315" fill="none" stroke="black"/>
<path d="M70.7992,174.034h -13.6063" fill="none" stroke="black"/>
<path d="M63.9961,167.421h -6.80315" fill="none" stroke="black"/>
<path d="M63.9961,160.807h -6.80315" fill="none" stroke="black"/>
<path d="M63.9961,154.194h -6.80315" fill="none" stroke="black"/>
<path d="M63.9961,147.58h -6.80315" fill="none" stroke="black"/>
<path d="M70.7992,140.967h -13.6063" fill="none" stroke="black"/>
<path d="M63.9961,134.353h -6.80315" fill="none" stroke="black"/>
<path d="M63.9961,127.74h -6.80315" fill="none" stroke="black"/>
<path d="M63.9961,121.126h -6.80315" fill="none" stroke="black"/>
<path d="M63.9961,114.513h -6.80315" fill="none" stroke="black"/>
<path d="M70.7992,107.899h -13.6063" fill="none" stroke="black"/>
<path d="M63.9961,101.285h -6.80315" fill="none" stroke="black"/>
<path d="M63.9961,94.6719h -6.80315" fill="none" stroke="black"/>
<path d="M63.9961,88.0584h -6.80315" fill="none" stroke="black"/>
<path d="M63.9961,81.4449h -6.80315" fill="none" stroke="black"/>
<path d="M70.7992,74.8313h -13.6063" fill="none" stroke="black"/>
<path d="M63.9961,68.2178h -6.80315" fill="none" stroke="black"/>
<path d="M63.9961,61.6042h -6.80315" fill="none" stroke="black"/>
<path d="M63.9961,54.9907h -6.80315" fill="none" stroke="black"/>
<path d="M63.9961,48.3772h -6.80315" fill="none" stroke="black"/>
<path d="M70.7992,41.7636h -13.6063" fill="none" stroke="black"/>
<path d="M70.7992,339.373h -13.6063" fill="none" stroke="black"/>
<path d="M63.9961,345.987h -6.80315" fill="none" stroke="black"/>
<path d="M63.9961,352.6h -6.80315" fill="none" stroke="black"/>
<path d="M63.9961,359.214h -6.80315" fill="none" stroke="black"/>
<path d="M63.9961,365.827h -6.80315" fill="none" stroke="black"/>
<path d="M70.7992,41.7636h -13.6063" fill="none" stroke="black"/>
<text xml:space="preserve" x="34.6295" y="343.665" fill="black" font-size="13.7726" font-family="Helvetica">181</text>
<text xml:space="preserve" x="32.2594" y="310.958" fill="black" font-size="13.7726" font-family="Helvetica">182</text>
<text xml:space="preserve" x="32.2594" y="277.776" fill="black" font-size="13.7726" font-family="Helvetica">183</text>
<text xml:space="preserve" x="32.2594" y="244.595" fill="black" font-size="13.7726" font-family="Helvetica">184</text>
<text xml:space="preserve" x="32.2594" y="211.413" fill="black" font-size="13.7726" font-family="Helvetica">185</text>
<text xml:space="preserve" x="32.2594" y="178.706" fill="black" font-size="13.7726" font-family="Helvetica">186</text>
<text xml:space="preserve" x="32.2594" y="145.524" fill="black" font-size="13.7726" font-family="Helvetica">187</text>
<text xml:space="preserve" x="32.2594" y="112.343" fill="black" font-size="13.7726" font-family="Helvetica">188</text>
<text xml:space="preserve" x="32.2594" y="79.1615" fill="black" font-size="13.7726" font-family="Helvetica">189</text>
<text xml:space="preserve" x="32.2594" y="46.4541" fill="black" font-size="13.7726" font-family="Helvetica">190</text>
<g transform="rotate(-90,15.1947,45.98)">
<text xml:space="preserve" x="15.1947" y="45.98" fill="black" font-size="9.34839" font-family="Helvetica">2</text>
</g>
<g transform="rotate(-90,19.4608,50.2462)">
<text xml:space="preserve" x="19.4608" y="50.2462" fill="black" font-size="13.7726" font-family="Helvetica"> </text>
</g>
<g transform="rotate(-90,19.4608,57.3565)">
<text xml:space="preserve" x="19.4608" y="57.3565" fill="black" font-size="13.7726" font-family="Times">&#0967;</text>
</g>
<g stroke="black" stroke-width="1" fill="none">
<line x1="121.331" y1="66.4389" x2="125.123" y2="66.4389"/><line x1="123.227" y1="64.5428" x2="123.227" y2="68.335"/><line x1="121.331" y1="64.5428" x2="125.123" y2="68.335"/><line x1="121.331" y1="68.335" x2="125.123" y2="64.5428"/>
</g>
<g stroke="black" stroke-width="1" fill="none">
<line x1="130.225" y1="75.6009" x2="134.017" y2="75.6009"/><line x1="132.121" y1="73.7048" x2="132.121" y2="77.497"/><line x1="130.225" y1="73.7048" x2="134.017" y2="77.497"/><line x1="130.225" y1="77.497" x2="134.017" y2="73.7048"/>
<line x1="134.672" y1="73.1809" x2="138.464" y2="73.1809"/><line x1="136.568" y1="71.2848" x2="136.568" y2="75.0769"/><line x1="134.672" y1="71.2848" x2="138.464" y2="75.0769"/><line x1="134.672" y1="75.0769" x2="138.464" y2="71.2848"/>
</g>
<g stroke="black" stroke-width="1" fill="none">
<line x1="143.566" y1="84.2485" x2="147.358" y2="84.2485"/><line x1="145.462" y1="82.3525" x2="145.462" y2="86.1446"/><line x1="143.566" y1="82.3525" x2="147.358" y2="86.1446"/><line x1="143.566" y1="86.1446" x2="147.358" y2="82.3525"/>
</g>
<g stroke="black" stroke-width="1" fill="none">
<line x1="161.354" y1="51.4947" x2="165.146" y2="51.4947"/><line x1="163.25" y1="49.5986" x2="163.25" y2="53.3908"/><line x1="161.354" y1="49.5986" x2="165.146" y2="53.3908"/><line x1="161.354" y1="53.3908" x2="165.146" y2="49.5986"/>
<line x1="165.801" y1="113.88" x2="169.593" y2="113.88"/><line x1="167.697" y1="111.984" x2="167.697" y2="115.776"/><line x1="165.801" y1="111.984" x2="169.593" y2="115.776"/><line x1="165.801" y1="115.776" x2="169.593" y2="111.984"/>
<line x1="170.248" y1="114.904" x2="174.04" y2="114.904"/><line x1="172.144" y1="113.008" x2="172.144" y2="116.8"/><line x1="170.248" y1="113.008" x2="174.04" y2="116.8"/><line x1="170.248" y1="116.8" x2="174.04" y2="113.008"/>
<line x1="174.695" y1="138.161" x2="178.487" y2="138.161"/><line x1="176.591" y1="136.265" x2="176.591" y2="140.057"/><line x1="174.695" y1="136.265" x2="178.487" y2="140.057"/><line x1="174.695" y1="140.057" x2="178.487" y2="136.265"/>
<line x1="179.141" y1="209.194" x2="182.934" y2="209.194"/><line x1="181.038" y1="207.298" x2="181.038" y2="211.09"/><line x1="179.141" y1="207.298" x2="182.934" y2="211.09"/><line x1="179.141" y1="211.09" x2="182.934" y2="207.298"/>
<line x1="183.588" y1="275.854" x2="187.381" y2="275.854"/><line x1="185.485" y1="273.958" x2="185.485" y2="277.751"/><line x1="183.588" y1="273.958" x2="187.381" y2="277.751"/><line x1="183.588" y1="277.751" x2="187.381" y2="273.958"/>
<line x1="188.035" y1="242.925" x2="191.828" y2="242.925"/><line x1="189.931" y1="241.029" x2="189.931" y2="244.821"/><line x1="188.035" y1="241.029" x2="191.828" y2="244.821"/><line x1="188.035" y1="244.821" x2="191.828" y2="241.029"/>
<line x1="192.482" y1="237.896" x2="196.274" y2="237.896"/><line x1="194.378" y1="236" x2="194.378" y2="239.792"/><line x1="192.482" y1="236" x2="196.274" y2="239.792"/><line x1="192.482" y1="239.792" x2="196.274" y2="236"/>
<line x1="196.929" y1="215.632" x2="200.721" y2="215.632"/><line x1="198.825" y1="213.736" x2="198.825" y2="217.528"/><line x1="196.929" y1="213.736" x2="200.721" y2="217.528"/><line x1="196.929" y1="217.528" x2="200.721" y2="213.736"/>
<line x1="201.376" y1="190.446" x2="205.168" y2="190.446"/><line x1="203.272" y1="188.55" x2="203.272" y2="192.342"/><line x1="201.376" y1="188.55" x2="205.168" y2="192.342"/><line x1="201.376" y1="192.342" x2="205.168" y2="188.55"/>
<line x1="205.823" y1="197.164" x2="209.615" y2="197.164"/><line x1="207.719" y1="195.268" x2="207.719" y2="199.06"/><line x1="205.823" y1="195.268" x2="209.615" y2="199.06"/><line x1="205.823" y1="199.06" x2="209.615" y2="195.268"/>
<line x1="210.27" y1="159.614" x2="214.062" y2="159.614"/><line x1="212.166" y1="157.718" x2="212.166" y2="161.51"/><line x1="210.27" y1="157.718" x2="214.062" y2="161.51"/><line x1="210.27" y1="161.51" x2="214.062" y2="157.718"/>
<line x1="214.717" y1="179.323" x2="218.509" y2="179.323"/><line x1="216.613" y1="177.427" x2="216.613" y2="181.219"/><line x1="214.717" y1="177.427" x2="218.509" y2="181.219"/><line x1="214.717" y1="181.219" x2="218.509" y2="177.427"/>
<line x1="219.164" y1="224.459" x2="222.956" y2="224.459"/><line x1="221.06" y1="222.563" x2="221.06" y2="226.355"/><line x1="219.164" y1="222.563" x2="222.956" y2="226.355"/><line x1="219.164" y1="226.355" x2="222.956" y2="222.563"/>
<line x1="223.611" y1="265.925" x2="227.403" y2="265.925"/><line x1="225.507" y1="264.029" x2="225.507" y2="267.822"/><line x1="223.611" y1="264.029" x2="227.403" y2="267.822"/><line x1="223.611" y1="267.822" x2="227.403" y2="264.029"/>
<line x1="228.058" y1="291.204" x2="231.85" y2="291.204"/><line x1="229.954" y1="289.308" x2="229.954" y2="293.1"/><line x1="228.058" y1="289.308" x2="231.85" y2="293.1"/><line x1="228.058" y1="293.1" x2="231.85" y2="289.308"/>
<line x1="232.505" y1="258.247" x2="236.297" y2="258.247"/><line x1="234.401" y1="256.351" x2="234.401" y2="260.143"/><line x1="232.505" y1="256.351" x2="236.297" y2="260.143"/><line x1="232.505" y1="260.143" x2="236.297" y2="256.351"/>
<line x1="236.952" y1="175.368" x2="240.744" y2="175.368"/><line x1="238.848" y1="173.472" x2="238.848" y2="177.264"/><line x1="236.952" y1="173.472" x2="240.744" y2="177.264"/><line x1="236.952" y1="177.264" x2="240.744" y2="173.472"/>
<line x1="241.399" y1="166.921" x2="245.191" y2="166.921"/><line x1="243.295" y1="165.025" x2="243.295" y2="168.817"/><line x1="241.399" y1="165.025" x2="245.191" y2="168.817"/><line x1="241.399" y1="168.817" x2="245.191" y2="165.025"/>
<line x1="245.846" y1="157.796" x2="249.638" y2="157.796"/><line x1="247.742" y1="155.9" x2="247.742" y2="159.692"/><line x1="245.846" y1="155.9" x2="249.638" y2="159.692"/><line x1="245.846" y1="159.692" x2="249.638" y2="155.9"/>
<line x1="250.293" y1="218.834" x2="254.085" y2="218.834"/><line x1="252.189" y1="216.938" x2="252.189" y2="220.73"/><line x1="250.293" y1="216.938" x2="254.085" y2="220.73"/><line x1="250.293" y1="220.73" x2="254.085" y2="216.938"/>
<line x1="254.74" y1="217.277" x2="258.532" y2="217.277"/><line x1="256.636" y1="215.381" x2="256.636" y2="219.173"/><line x1="254.74" y1="215.381" x2="258.532" y2="219.173"/><line x1="254.74" y1="219.173" x2="258.532" y2="215.381"/>
<line x1="259.187" y1="192.799" x2="262.979" y2="192.799"/><line x1="261.083" y1="190.903" x2="261.083" y2="194.695"/><line x1="259.187" y1="190.903" x2="262.979" y2="194.695"/><line x1="259.187" y1="194.695" x2="262.979" y2="190.903"/>
<line x1="263.633" y1="187.044" x2="267.426" y2="187.044"/><line x1="265.53" y1="185.147" x2="265.53" y2="188.94"/><line x1="263.633" y1="185.147" x2="267.426" y2="188.94"/><line x1="263.633" y1="188.94" x2="267.426" y2="185.147"/>
<line x1="268.08" y1="242.883" x2="271.873" y2="242.883"/><line x1="269.977" y1="240.987" x2="269.977" y2="244.779"/><line x1="268.08" y1="240.987" x2="271.873" y2="244.779"/><line x1="268.08" y1="244.779" x2="271.873" y2="240.987"/>
<line x1="272.527" y1="231.171" x2="276.32" y2="231.171"/><line x1="274.423" y1="229.275" x2="274.423" y2="233.067"/><line x1="272.527" y1="229.275" x2="276.32" y2="233.067"/><line x1="272.527" y1="233.067" x2="276.32" y2="229.275"/>
<line x1="276.974" y1="255.334" x2="280.766" y2="255.334"/><line x1="278.87" y1="253.438" x2="278.87" y2="257.23"/><line x1="276.974" y1="253.438" x2="280.766" y2="257.23"/><line x1="276.974" y1="257.23" x2="280.766" y2="253.438"/>
<line x1="281.421" y1="305.876" x2="285.213" y2="305.876"/><line x1="283.317" y1="303.98" x2="283.317" y2="307.772"/><line x1="281.421" y1="303.98" x2="285.213" y2="307.772"/><line x1="281.421" y1="307.772" x2="285.213" y2="303.98"/>
<line x1="285.868" y1="246.603" x2="289.66" y2="246.603"/><line x1="287.764" y1="244.707" x2="287.764" y2="248.499"/><line x1="285.868" y1="244.707" x2="289.66" y2="248.499"/><line x1="285.868" y1="248.499" x2="289.66" y2="244.707"/>
<line x1="290.315" y1="208.311" x2="294.107" y2="208.311"/><line x1="292.211" y1="206.415" x2="292.211" y2="210.207"/><line x1="290.315" y1="206.415" x2="294.107" y2="210.207"/><line x1="290.315" y1="210.207" x2="294.107" y2="206.415"/>
<line x1="294.762" y1="148.254" x2="298.554" y2="148.254"/><line x1="296.658" y1="146.358" x2="296.658" y2="150.15"/><line x1="294.762" y1="146.358" x2="298.554" y2="150.15"/><line x1="294.762" y1="150.15" x2="298.554" y2="146.358"/>
<line x1="299.209" y1="171.411" x2="303.001" y2="171.411"/><line x1="301.105" y1="169.515" x2="301.105" y2="173.307"/><line x1="299.209" y1="169.515" x2="303.001" y2="173.307"/><line x1="299.209" y1="173.307" x2="303.001" y2="169.515"/>
<line x1="303.656" y1="131.961" x2="307.448" y2="131.961"/><line x1="305.552" y1="130.065" x2="305.552" y2="133.857"/><line x1="303.656" y1="130.065" x2="307.448" y2="133.857"/><line x1="303.656" y1="133.857" x2="307.448" y2="130.065"/>
<line x1="308.103" y1="84.6018" x2="311.895" y2="84.6018"/><line x1="309.999" y1="82.7057" x2="309.999" y2="86.4979"/><line x1="308.103" y1="82.7057" x2="311.895" y2="86.4979"/><line x1="308.103" y1="86.4979" x2="311.895" y2="82.7057"/>
<line x1="312.55" y1="117.375" x2="316.342" y2="117.375"/><line x1="314.446" y1="115.479" x2="314.446" y2="119.271"/><line x1="312.55" y1="115.479" x2="316.342" y2="119.271"/><line x1="312.55" y1="119.271" x2="316.342" y2="115.479"/>
<line x1="316.997" y1="106.455" x2="320.789" y2="106.455"/><line x1="318.893" y1="104.559" x2="318.893" y2="108.351"/><line x1="316.997" y1="104.559" x2="320.789" y2="108.351"/><line x1="316.997" y1="108.351" x2="320.789" y2="104.559"/>
<line x1="321.444" y1="168.287" x2="325.236" y2="168.287"/><line x1="323.34" y1="166.391" x2="323.34" y2="170.183"/><line x1="321.444" y1="166.391" x2="325.236" y2="170.183"/><line x1="321.444" y1="170.183" x2="325.236" y2="166.391"/>
<line x1="325.891" y1="139.606" x2="329.683" y2="139.606"/><line x1="327.787" y1="137.71" x2="327.787" y2="141.502"/><line x1="325.891" y1="137.71" x2="329.683" y2="141.502"/><line x1="325.891" y1="141.502" x2="329.683" y2="137.71"/>
<line x1="330.338" y1="106.759" x2="334.13" y2="106.759"/><line x1="332.234" y1="104.863" x2="332.234" y2="108.655"/><line x1="330.338" y1="104.863" x2="334.13" y2="108.655"/><line x1="330.338" y1="108.655" x2="334.13" y2="104.863"/>
<line x1="334.785" y1="156.068" x2="338.577" y2="156.068"/><line x1="336.681" y1="154.172" x2="336.681" y2="157.965"/><line x1="334.785" y1="154.172" x2="338.577" y2="157.965"/><line x1="334.785" y1="157.965" x2="338.577" y2="154.172"/>
<line x1="339.232" y1="209.367" x2="343.024" y2="209.367"/><line x1="341.128" y1="207.471" x2="341.128" y2="211.263"/><line x1="339.232" y1="207.471" x2="343.024" y2="211.263"/><line x1="339.232" y1="211.263" x2="343.024" y2="207.471"/>
<line x1="343.679" y1="168.519" x2="347.471" y2="168.519"/><line x1="345.575" y1="166.623" x2="345.575" y2="170.415"/><line x1="343.679" y1="166.623" x2="347.471" y2="170.415"/><line x1="343.679" y1="170.415" x2="347.471" y2="166.623"/>
<line x1="348.125" y1="177.89" x2="351.918" y2="177.89"/><line x1="350.022" y1="175.994" x2="350.022" y2="179.786"/><line x1="348.125" y1="175.994" x2="351.918" y2="179.786"/><line x1="348.125" y1="179.786" x2="351.918" y2="175.994"/>
<line x1="352.572" y1="115.1" x2="356.365" y2="115.1"/><line x1="354.469" y1="113.204" x2="354.469" y2="116.997"/><line x1="352.572" y1="113.204" x2="356.365" y2="116.997"/><line x1="352.572" y1="116.997" x2="356.365" y2="113.204"/>
<line x1="357.019" y1="98.2439" x2="360.812" y2="98.2439"/><line x1="358.915" y1="96.3478" x2="358.915" y2="100.14"/><line x1="357.019" y1="96.3478" x2="360.812" y2="100.14"/><line x1="357.019" y1="100.14" x2="360.812" y2="96.3478"/>
<line x1="361.466" y1="118.498" x2="365.259" y2="118.498"/><line x1="363.362" y1="116.601" x2="363.362" y2="120.394"/><line x1="361.466" y1="116.601" x2="365.259" y2="120.394"/><line x1="361.466" y1="120.394" x2="365.259" y2="116.601"/>
<line x1="365.913" y1="55.9137" x2="369.705" y2="55.9137"/><line x1="367.809" y1="54.0176" x2="367.809" y2="57.8097"/><line x1="365.913" y1="54.0176" x2="369.705" y2="57.8097"/><line x1="365.913" y1="57.8097" x2="369.705" y2="54.0176"/>
<line x1="370.36" y1="62.3276" x2="374.152" y2="62.3276"/><line x1="372.256" y1="60.4315" x2="372.256" y2="64.2237"/><line x1="370.36" y1="60.4315" x2="374.152" y2="64.2237"/><line x1="370.36" y1="64.2237" x2="374.152" y2="60.4315"/>
</g>
<path d="M0.5,272.809h 566.929" fill="none" stroke="#0000ff"/></svg>
