<?xml version="1.0" standalone="no"?>
<svg width="567.429" height="413.846" viewBox="0 0 567.429 413.846" xmlns="http://www.w3.org/2000/svg" shape-rendering="crispEdges">
<title>
figures/chi2zoomin_7PMTnpefilelist20.svg
</title>
<desc>
Creator: ROOT Version 6.18/04
CreationDate: Fri Nov  1 14:05:18 2019</desc>
<defs>
</defs>
<rect x="0.5" y="0" width="566.929" height="413.346" fill="white"/>
<rect x="57.1929" y="41.3346" width="453.543" height="330.677" fill="white"/>
<rect x="57.1929" y="41.3346" width="453.543" height="330.677" fill="none" stroke="black"/>
<path d="M57.1929,372.012h 453.543" fill="none" stroke="black"/>
<path d="M71.0439,41.3346v 330.677" fill="none" stroke="black" stroke-dasharray=" 1, 2"/>
<path d="M115.513,41.3346v 330.677" fill="none" stroke="black" stroke-dasharray=" 1, 2"/>
<path d="M159.983,41.3346v 330.677" fill="none" stroke="black" stroke-dasharray=" 1, 2"/>
<path d="M204.452,41.3346v 330.677" fill="none" stroke="black" stroke-dasharray=" 1, 2"/>
<path d="M248.922,41.3346v 330.677" fill="none" stroke="black" stroke-dasharray=" 1, 2"/>
<path d="M293.391,41.3346v 330.677" fill="none" stroke="black" stroke-dasharray=" 1, 2"/>
<path d="M337.861,41.3346v 330.677" fill="none" stroke="black" stroke-dasharray=" 1, 2"/>
<path d="M382.33,41.3346v 330.677" fill="none" stroke="black" stroke-dasharray=" 1, 2"/>
<path d="M426.8,41.3346v 330.677" fill="none" stroke="black" stroke-dasharray=" 1, 2"/>
<path d="M471.269,41.3346v 330.677" fill="none" stroke="black" stroke-dasharray=" 1, 2"/>
<path d="M71.0439,41.3346v 330.677" fill="none" stroke="black" stroke-dasharray=" 1, 2"/>
<path d="M471.269,41.3346v 330.677" fill="none" stroke="black" stroke-dasharray=" 1, 2"/>
<path d="M57.1929,372.012v -330.677" fill="none" stroke="black"/>
<path d="M57.1929,372.012h 453.543" fill="none" stroke="black"/>
<path d="M71.0439,362.091v 9.92031" fill="none" stroke="black"/>
<path d="M82.1613,367.052v 4.96016" fill="none" stroke="black"/>
<path d="M93.2786,367.052v 4.96016" fill="none" stroke="black"/>
<path d="M104.396,367.052v 4.96016" fill="none" stroke="black"/>
<path d="M115.513,362.091v 9.92031" fill="none" stroke="black"/>
<path d="M126.631,367.052v 4.96016" fill="none" stroke="black"/>
<path d="M137.748,367.052v 4.96016" fill="none" stroke="black"/>
<path d="M148.865,367.052v 4.96016" fill="none" stroke="black"/>
<path d="M159.983,362.091v 9.92031" fill="none" stroke="black"/>
<path d="M171.1,367.052v 4.96016" fill="none" stroke="black"/>
<path d="M182.218,367.052v 4.96016" fill="none" stroke="black"/>
<path d="M193.335,367.052v 4.96016" fill="none" stroke="black"/>
<path d="M204.452,362.091v 9.92031" fill="none" stroke="black"/>
<path d="M215.57,367.052v 4.96016" fill="none" stroke="black"/>
<path d="M226.687,367.052v 4.96016" fill="none" stroke="black"/>
<path d="M237.804,367.052v 4.96016" fill="none" stroke="black"/>
<path d="M248.922,362.091v 9.92031" fill="none" stroke="black"/>
<path d="M260.039,367.052v 4.96016" fill="none" stroke="black"/>
<path d="M271.157,367.052v 4.96016" fill="none" stroke="black"/>
<path d="M282.274,367.052v 4.96016" fill="none" stroke="black"/>
<path d="M293.391,362.091v 9.92031" fill="none" stroke="black"/>
<path d="M304.509,367.052v 4.96016" fill="none" stroke="black"/>
<path d="M315.626,367.052v 4.96016" fill="none" stroke="black"/>
<path d="M326.743,367.052v 4.96016" fill="none" stroke="black"/>
<path d="M337.861,362.091v 9.92031" fill="none" stroke="black"/>
<path d="M348.978,367.052v 4.96016" fill="none" stroke="black"/>
<path d="M360.096,367.052v 4.96016" fill="none" stroke="black"/>
<path d="M371.213,367.052v 4.96016" fill="none" stroke="black"/>
<path d="M382.33,362.091v 9.92031" fill="none" stroke="black"/>
<path d="M393.448,367.052v 4.96016" fill="none" stroke="black"/>
<path d="M404.565,367.052v 4.96016" fill="none" stroke="black"/>
<path d="M415.682,367.052v 4.96016" fill="none" stroke="black"/>
<path d="M426.8,362.091v 9.92031" fill="none" stroke="black"/>
<path d="M437.917,367.052v 4.96016" fill="none" stroke="black"/>
<path d="M449.034,367.052v 4.96016" fill="none" stroke="black"/>
<path d="M460.152,367.052v 4.96016" fill="none" stroke="black"/>
<path d="M471.269,362.091v 9.92031" fill="none" stroke="black"/>
<path d="M71.0439,362.091v 9.92031" fill="none" stroke="black"/>
<path d="M59.9265,367.052v 4.96016" fill="none" stroke="black"/>
<path d="M471.269,362.091v 9.92031" fill="none" stroke="black"/>
<path d="M482.387,367.052v 4.96016" fill="none" stroke="black"/>
<path d="M493.504,367.052v 4.96016" fill="none" stroke="black"/>
<path d="M504.621,367.052v 4.96016" fill="none" stroke="black"/>
<text xml:space="preserve" x="57.8565" y="385.379" fill="black" font-size="13.7726" font-family="Helvetica">0.83</text>
<text xml:space="preserve" x="98.6224" y="385.379" fill="black" font-size="13.7726" font-family="Helvetica">0.832</text>
<text xml:space="preserve" x="143.18" y="385.379" fill="black" font-size="13.7726" font-family="Helvetica">0.834</text>
<text xml:space="preserve" x="187.738" y="385.379" fill="black" font-size="13.7726" font-family="Helvetica">0.836</text>
<text xml:space="preserve" x="232.296" y="385.379" fill="black" font-size="13.7726" font-family="Helvetica">0.838</text>
<text xml:space="preserve" x="280.172" y="385.379" fill="black" font-size="13.7726" font-family="Helvetica">0.84</text>
<text xml:space="preserve" x="320.938" y="385.379" fill="black" font-size="13.7726" font-family="Helvetica">0.842</text>
<text xml:space="preserve" x="365.496" y="385.379" fill="black" font-size="13.7726" font-family="Helvetica">0.844</text>
<text xml:space="preserve" x="410.054" y="385.379" fill="black" font-size="13.7726" font-family="Helvetica">0.846</text>
<text xml:space="preserve" x="454.612" y="385.379" fill="black" font-size="13.7726" font-family="Helvetica">0.848</text>
<text xml:space="preserve" x="413.372" y="400.074" fill="black" font-size="13.7726" font-family="Helvetica">calibration factor</text>
<path d="M57.1929,372.012v -330.677" fill="none" stroke="black"/>
<path d="M70.7992,352.807h -13.6063" fill="none" stroke="black"/>
<path d="M63.9961,346.194h -6.80315" fill="none" stroke="black"/>
<path d="M63.9961,339.58h -6.80315" fill="none" stroke="black"/>
<path d="M63.9961,332.967h -6.80315" fill="none" stroke="black"/>
<path d="M63.9961,326.353h -6.80315" fill="none" stroke="black"/>
<path d="M70.7992,319.74h -13.6063" fill="none" stroke="black"/>
<path d="M63.9961,313.126h -6.80315" fill="none" stroke="black"/>
<path d="M63.9961,306.513h -6.80315" fill="none" stroke="black"/>
<path d="M63.9961,299.899h -6.80315" fill="none" stroke="black"/>
<path d="M63.9961,293.285h -6.80315" fill="none" stroke="black"/>
<path d="M70.7992,286.672h -13.6063" fill="none" stroke="black"/>
<path d="M63.9961,280.058h -6.80315" fill="none" stroke="black"/>
<path d="M63.9961,273.445h -6.80315" fill="none" stroke="black"/>
<path d="M63.9961,266.831h -6.80315" fill="none" stroke="black"/>
<path d="M63.9961,260.218h -6.80315" fill="none" stroke="black"/>
<path d="M70.7992,253.604h -13.6063" fill="none" stroke="black"/>
<path d="M63.9961,246.991h -6.80315" fill="none" stroke="black"/>
<path d="M63.9961,240.377h -6.80315" fill="none" stroke="black"/>
<path d="M63.9961,233.764h -6.80315" fill="none" stroke="black"/>
<path d="M63.9961,227.15h -6.80315" fill="none" stroke="black"/>
<path d="M70.7992,220.536h -13.6063" fill="none" stroke="black"/>
<path d="M63.9961,213.923h -6.80315" fill="none" stroke="black"/>
<path d="M63.9961,207.309h -6.80315" fill="none" stroke="black"/>
<path d="M63.9961,200.696h -6.80315" fill="none" stroke="black"/>
<path d="M63.9961,194.082h -6.80315" fill="none" stroke="black"/>
<path d="M70.7992,187.469h -13.6063" fill="none" stroke="black"/>
<path d="M63.9961,180.855h -6.80315" fill="none" stroke="black"/>
<path d="M63.9961,174.242h -6.80315" fill="none" stroke="black"/>
<path d="M63.9961,167.628h -6.80315" fill="none" stroke="black"/>
<path d="M63.9961,161.015h -6.80315" fill="none" stroke="black"/>
<path d="M70.7992,154.401h -13.6063" fill="none" stroke="black"/>
<path d="M63.9961,147.788h -6.80315" fill="none" stroke="black"/>
<path d="M63.9961,141.174h -6.80315" fill="none" stroke="black"/>
<path d="M63.9961,134.56h -6.80315" fill="none" stroke="black"/>
<path d="M63.9961,127.947h -6.80315" fill="none" stroke="black"/>
<path d="M70.7992,121.333h -13.6063" fill="none" stroke="black"/>
<path d="M63.9961,114.72h -6.80315" fill="none" stroke="black"/>
<path d="M63.9961,108.106h -6.80315" fill="none" stroke="black"/>
<path d="M63.9961,101.493h -6.80315" fill="none" stroke="black"/>
<path d="M63.9961,94.8792h -6.80315" fill="none" stroke="black"/>
<path d="M70.7992,88.2657h -13.6063" fill="none" stroke="black"/>
<path d="M63.9961,81.6521h -6.80315" fill="none" stroke="black"/>
<path d="M63.9961,75.0386h -6.80315" fill="none" stroke="black"/>
<path d="M63.9961,68.425h -6.80315" fill="none" stroke="black"/>
<path d="M63.9961,61.8115h -6.80315" fill="none" stroke="black"/>
<path d="M70.7992,55.1979h -13.6063" fill="none" stroke="black"/>
<path d="M70.7992,352.807h -13.6063" fill="none" stroke="black"/>
<path d="M63.9961,359.421h -6.80315" fill="none" stroke="black"/>
<path d="M63.9961,366.034h -6.80315" fill="none" stroke="black"/>
<path d="M70.7992,55.1979h -13.6063" fill="none" stroke="black"/>
<path d="M63.9961,48.5844h -6.80315" fill="none" stroke="black"/>
<path d="M63.9961,41.9709h -6.80315" fill="none" stroke="black"/>
<text xml:space="preserve" x="32.2594" y="357.412" fill="black" font-size="13.7726" font-family="Helvetica">260</text>
<text xml:space="preserve" x="34.6295" y="324.23" fill="black" font-size="13.7726" font-family="Helvetica">261</text>
<text xml:space="preserve" x="32.2594" y="291.049" fill="black" font-size="13.7726" font-family="Helvetica">262</text>
<text xml:space="preserve" x="32.2594" y="258.341" fill="black" font-size="13.7726" font-family="Helvetica">263</text>
<text xml:space="preserve" x="32.2594" y="225.16" fill="black" font-size="13.7726" font-family="Helvetica">264</text>
<text xml:space="preserve" x="32.2594" y="191.979" fill="black" font-size="13.7726" font-family="Helvetica">265</text>
<text xml:space="preserve" x="32.2594" y="158.797" fill="black" font-size="13.7726" font-family="Helvetica">266</text>
<text xml:space="preserve" x="32.2594" y="125.616" fill="black" font-size="13.7726" font-family="Helvetica">267</text>
<text xml:space="preserve" x="32.2594" y="92.9081" fill="black" font-size="13.7726" font-family="Helvetica">268</text>
<text xml:space="preserve" x="32.2594" y="59.7266" fill="black" font-size="13.7726" font-family="Helvetica">269</text>
<g transform="rotate(-90,15.1947,45.98)">
<text xml:space="preserve" x="15.1947" y="45.98" fill="black" font-size="9.34839" font-family="Helvetica">2</text>
</g>
<g transform="rotate(-90,19.4608,50.2462)">
<text xml:space="preserve" x="19.4608" y="50.2462" fill="black" font-size="13.7726" font-family="Helvetica"> </text>
</g>
<g transform="rotate(-90,19.4608,57.3565)">
<text xml:space="preserve" x="19.4608" y="57.3565" fill="black" font-size="13.7726" font-family="Times">&#0967;</text>
</g>
<g stroke="black" stroke-width="1" fill="none">
<line x1="229.238" y1="55.5765" x2="233.03" y2="55.5765"/><line x1="231.134" y1="53.6804" x2="231.134" y2="57.4726"/><line x1="229.238" y1="53.6804" x2="233.03" y2="57.4726"/><line x1="229.238" y1="57.4726" x2="233.03" y2="53.6804"/>
<line x1="233.685" y1="87.9846" x2="237.477" y2="87.9846"/><line x1="235.581" y1="86.0885" x2="235.581" y2="89.8807"/><line x1="233.685" y1="86.0885" x2="237.477" y2="89.8807"/><line x1="233.685" y1="89.8807" x2="237.477" y2="86.0885"/>
<line x1="238.132" y1="66.1887" x2="241.924" y2="66.1887"/><line x1="240.028" y1="64.2926" x2="240.028" y2="68.0848"/><line x1="238.132" y1="64.2926" x2="241.924" y2="68.0848"/><line x1="238.132" y1="68.0848" x2="241.924" y2="64.2926"/>
<line x1="242.579" y1="105.268" x2="246.371" y2="105.268"/><line x1="244.475" y1="103.372" x2="244.475" y2="107.164"/><line x1="242.579" y1="103.372" x2="246.371" y2="107.164"/><line x1="242.579" y1="107.164" x2="246.371" y2="103.372"/>
<line x1="247.026" y1="165.699" x2="250.818" y2="165.699"/><line x1="248.922" y1="163.802" x2="248.922" y2="167.595"/><line x1="247.026" y1="163.802" x2="250.818" y2="167.595"/><line x1="247.026" y1="167.595" x2="250.818" y2="163.802"/>
<line x1="251.473" y1="247.387" x2="255.265" y2="247.387"/><line x1="253.369" y1="245.491" x2="253.369" y2="249.283"/><line x1="251.473" y1="245.491" x2="255.265" y2="249.283"/><line x1="251.473" y1="249.283" x2="255.265" y2="245.491"/>
<line x1="255.92" y1="214.527" x2="259.712" y2="214.527"/><line x1="257.816" y1="212.63" x2="257.816" y2="216.423"/><line x1="255.92" y1="212.63" x2="259.712" y2="216.423"/><line x1="255.92" y1="216.423" x2="259.712" y2="212.63"/>
<line x1="260.367" y1="247.954" x2="264.159" y2="247.954"/><line x1="262.263" y1="246.058" x2="262.263" y2="249.85"/><line x1="260.367" y1="246.058" x2="264.159" y2="249.85"/><line x1="260.367" y1="249.85" x2="264.159" y2="246.058"/>
<line x1="264.814" y1="269.516" x2="268.606" y2="269.516"/><line x1="266.71" y1="267.62" x2="266.71" y2="271.412"/><line x1="264.814" y1="267.62" x2="268.606" y2="271.412"/><line x1="264.814" y1="271.412" x2="268.606" y2="267.62"/>
<line x1="269.26" y1="264.472" x2="273.053" y2="264.472"/><line x1="271.157" y1="262.576" x2="271.157" y2="266.368"/><line x1="269.26" y1="262.576" x2="273.053" y2="266.368"/><line x1="269.26" y1="266.368" x2="273.053" y2="262.576"/>
<line x1="273.707" y1="273.904" x2="277.5" y2="273.904"/><line x1="275.604" y1="272.008" x2="275.604" y2="275.8"/><line x1="273.707" y1="272.008" x2="277.5" y2="275.8"/><line x1="273.707" y1="275.8" x2="277.5" y2="272.008"/>
<line x1="278.154" y1="304.977" x2="281.947" y2="304.977"/><line x1="280.05" y1="303.081" x2="280.05" y2="306.874"/><line x1="278.154" y1="303.081" x2="281.947" y2="306.874"/><line x1="278.154" y1="306.874" x2="281.947" y2="303.081"/>
<line x1="282.601" y1="305.876" x2="286.393" y2="305.876"/><line x1="284.497" y1="303.98" x2="284.497" y2="307.772"/><line x1="282.601" y1="303.98" x2="286.393" y2="307.772"/><line x1="282.601" y1="307.772" x2="286.393" y2="303.98"/>
<line x1="287.048" y1="273.488" x2="290.84" y2="273.488"/><line x1="288.944" y1="271.592" x2="288.944" y2="275.385"/><line x1="287.048" y1="271.592" x2="290.84" y2="275.385"/><line x1="287.048" y1="275.385" x2="290.84" y2="271.592"/>
<line x1="291.495" y1="249.064" x2="295.287" y2="249.064"/><line x1="293.391" y1="247.168" x2="293.391" y2="250.96"/><line x1="291.495" y1="247.168" x2="295.287" y2="250.96"/><line x1="291.495" y1="250.96" x2="295.287" y2="247.168"/>
<line x1="295.942" y1="243.45" x2="299.734" y2="243.45"/><line x1="297.838" y1="241.554" x2="297.838" y2="245.346"/><line x1="295.942" y1="241.554" x2="299.734" y2="245.346"/><line x1="295.942" y1="245.346" x2="299.734" y2="241.554"/>
<line x1="300.389" y1="227.523" x2="304.181" y2="227.523"/><line x1="302.285" y1="225.627" x2="302.285" y2="229.419"/><line x1="300.389" y1="225.627" x2="304.181" y2="229.419"/><line x1="300.389" y1="229.419" x2="304.181" y2="225.627"/>
<line x1="304.836" y1="211.163" x2="308.628" y2="211.163"/><line x1="306.732" y1="209.267" x2="306.732" y2="213.059"/><line x1="304.836" y1="209.267" x2="308.628" y2="213.059"/><line x1="304.836" y1="213.059" x2="308.628" y2="209.267"/>
<line x1="309.283" y1="168.09" x2="313.075" y2="168.09"/><line x1="311.179" y1="166.194" x2="311.179" y2="169.987"/><line x1="309.283" y1="166.194" x2="313.075" y2="169.987"/><line x1="309.283" y1="169.987" x2="313.075" y2="166.194"/>
<line x1="313.73" y1="201.945" x2="317.522" y2="201.945"/><line x1="315.626" y1="200.049" x2="315.626" y2="203.841"/><line x1="313.73" y1="200.049" x2="317.522" y2="203.841"/><line x1="313.73" y1="203.841" x2="317.522" y2="200.049"/>
<line x1="318.177" y1="206.176" x2="321.969" y2="206.176"/><line x1="320.073" y1="204.28" x2="320.073" y2="208.072"/><line x1="318.177" y1="204.28" x2="321.969" y2="208.072"/><line x1="318.177" y1="208.072" x2="321.969" y2="204.28"/>
<line x1="322.624" y1="172.916" x2="326.416" y2="172.916"/><line x1="324.52" y1="171.02" x2="324.52" y2="174.812"/><line x1="322.624" y1="171.02" x2="326.416" y2="174.812"/><line x1="322.624" y1="174.812" x2="326.416" y2="171.02"/>
<line x1="327.071" y1="181.333" x2="330.863" y2="181.333"/><line x1="328.967" y1="179.437" x2="328.967" y2="183.229"/><line x1="327.071" y1="179.437" x2="330.863" y2="183.229"/><line x1="327.071" y1="183.229" x2="330.863" y2="179.437"/>
<line x1="331.518" y1="188.09" x2="335.31" y2="188.09"/><line x1="333.414" y1="186.194" x2="333.414" y2="189.987"/><line x1="331.518" y1="186.194" x2="335.31" y2="189.987"/><line x1="331.518" y1="189.987" x2="335.31" y2="186.194"/>
<line x1="335.965" y1="175.176" x2="339.757" y2="175.176"/><line x1="337.861" y1="173.28" x2="337.861" y2="177.072"/><line x1="335.965" y1="173.28" x2="339.757" y2="177.072"/><line x1="335.965" y1="177.072" x2="339.757" y2="173.28"/>
<line x1="340.412" y1="116.273" x2="344.204" y2="116.273"/><line x1="342.308" y1="114.377" x2="342.308" y2="118.169"/><line x1="340.412" y1="114.377" x2="344.204" y2="118.169"/><line x1="340.412" y1="118.169" x2="344.204" y2="114.377"/>
<line x1="344.859" y1="177.787" x2="348.651" y2="177.787"/><line x1="346.755" y1="175.891" x2="346.755" y2="179.683"/><line x1="344.859" y1="175.891" x2="348.651" y2="179.683"/><line x1="344.859" y1="179.683" x2="348.651" y2="175.891"/>
<line x1="349.306" y1="215.928" x2="353.098" y2="215.928"/><line x1="351.202" y1="214.032" x2="351.202" y2="217.824"/><line x1="349.306" y1="214.032" x2="353.098" y2="217.824"/><line x1="349.306" y1="217.824" x2="353.098" y2="214.032"/>
<line x1="353.752" y1="154.592" x2="357.545" y2="154.592"/><line x1="355.649" y1="152.696" x2="355.649" y2="156.488"/><line x1="353.752" y1="152.696" x2="357.545" y2="156.488"/><line x1="353.752" y1="156.488" x2="357.545" y2="152.696"/>
<line x1="358.199" y1="68.6412" x2="361.992" y2="68.6412"/><line x1="360.096" y1="66.7451" x2="360.096" y2="70.5373"/><line x1="358.199" y1="66.7451" x2="361.992" y2="70.5373"/><line x1="358.199" y1="70.5373" x2="361.992" y2="66.7451"/>
<line x1="362.646" y1="85.2286" x2="366.439" y2="85.2286"/><line x1="364.542" y1="83.3325" x2="364.542" y2="87.1247"/><line x1="362.646" y1="83.3325" x2="366.439" y2="87.1247"/><line x1="362.646" y1="87.1247" x2="366.439" y2="83.3325"/>
</g>
<path d="M0.5,272.809h 566.929" fill="none" stroke="#0000ff"/></svg>
