<?xml version="1.0" standalone="no"?>
<svg width="567.429" height="413.846" viewBox="0 0 567.429 413.846" xmlns="http://www.w3.org/2000/svg" shape-rendering="crispEdges">
<title>
figures/chi2zoomin_2PMTnpefilelist20.svg
</title>
<desc>
Creator: ROOT Version 6.18/04
CreationDate: Fri Nov  1 14:04:51 2019</desc>
<defs>
</defs>
<rect x="0.5" y="0" width="566.929" height="413.346" fill="white"/>
<rect x="57.1929" y="41.3346" width="453.543" height="330.677" fill="white"/>
<rect x="57.1929" y="41.3346" width="453.543" height="330.677" fill="none" stroke="black"/>
<path d="M57.1929,372.012h 453.543" fill="none" stroke="black"/>
<path d="M86.5563,41.3346v 330.677" fill="none" stroke="black" stroke-dasharray=" 1, 2"/>
<path d="M131.555,41.3346v 330.677" fill="none" stroke="black" stroke-dasharray=" 1, 2"/>
<path d="M176.554,41.3346v 330.677" fill="none" stroke="black" stroke-dasharray=" 1, 2"/>
<path d="M221.553,41.3346v 330.677" fill="none" stroke="black" stroke-dasharray=" 1, 2"/>
<path d="M266.552,41.3346v 330.677" fill="none" stroke="black" stroke-dasharray=" 1, 2"/>
<path d="M311.551,41.3346v 330.677" fill="none" stroke="black" stroke-dasharray=" 1, 2"/>
<path d="M356.55,41.3346v 330.677" fill="none" stroke="black" stroke-dasharray=" 1, 2"/>
<path d="M401.548,41.3346v 330.677" fill="none" stroke="black" stroke-dasharray=" 1, 2"/>
<path d="M446.547,41.3346v 330.677" fill="none" stroke="black" stroke-dasharray=" 1, 2"/>
<path d="M491.546,41.3346v 330.677" fill="none" stroke="black" stroke-dasharray=" 1, 2"/>
<path d="M86.5563,41.3346v 330.677" fill="none" stroke="black" stroke-dasharray=" 1, 2"/>
<path d="M491.546,41.3346v 330.677" fill="none" stroke="black" stroke-dasharray=" 1, 2"/>
<path d="M57.1929,372.012v -330.677" fill="none" stroke="black"/>
<path d="M57.1929,372.012h 453.543" fill="none" stroke="black"/>
<path d="M86.5563,362.091v 9.92031" fill="none" stroke="black"/>
<path d="M97.806,367.052v 4.96016" fill="none" stroke="black"/>
<path d="M109.056,367.052v 4.96016" fill="none" stroke="black"/>
<path d="M120.305,367.052v 4.96016" fill="none" stroke="black"/>
<path d="M131.555,362.091v 9.92031" fill="none" stroke="black"/>
<path d="M142.805,367.052v 4.96016" fill="none" stroke="black"/>
<path d="M154.055,367.052v 4.96016" fill="none" stroke="black"/>
<path d="M165.304,367.052v 4.96016" fill="none" stroke="black"/>
<path d="M176.554,362.091v 9.92031" fill="none" stroke="black"/>
<path d="M187.804,367.052v 4.96016" fill="none" stroke="black"/>
<path d="M199.053,367.052v 4.96016" fill="none" stroke="black"/>
<path d="M210.303,367.052v 4.96016" fill="none" stroke="black"/>
<path d="M221.553,362.091v 9.92031" fill="none" stroke="black"/>
<path d="M232.803,367.052v 4.96016" fill="none" stroke="black"/>
<path d="M244.052,367.052v 4.96016" fill="none" stroke="black"/>
<path d="M255.302,367.052v 4.96016" fill="none" stroke="black"/>
<path d="M266.552,362.091v 9.92031" fill="none" stroke="black"/>
<path d="M277.802,367.052v 4.96016" fill="none" stroke="black"/>
<path d="M289.051,367.052v 4.96016" fill="none" stroke="black"/>
<path d="M300.301,367.052v 4.96016" fill="none" stroke="black"/>
<path d="M311.551,362.091v 9.92031" fill="none" stroke="black"/>
<path d="M322.8,367.052v 4.96016" fill="none" stroke="black"/>
<path d="M334.05,367.052v 4.96016" fill="none" stroke="black"/>
<path d="M345.3,367.052v 4.96016" fill="none" stroke="black"/>
<path d="M356.55,362.091v 9.92031" fill="none" stroke="black"/>
<path d="M367.799,367.052v 4.96016" fill="none" stroke="black"/>
<path d="M379.049,367.052v 4.96016" fill="none" stroke="black"/>
<path d="M390.299,367.052v 4.96016" fill="none" stroke="black"/>
<path d="M401.548,362.091v 9.92031" fill="none" stroke="black"/>
<path d="M412.798,367.052v 4.96016" fill="none" stroke="black"/>
<path d="M424.048,367.052v 4.96016" fill="none" stroke="black"/>
<path d="M435.298,367.052v 4.96016" fill="none" stroke="black"/>
<path d="M446.547,362.091v 9.92031" fill="none" stroke="black"/>
<path d="M457.797,367.052v 4.96016" fill="none" stroke="black"/>
<path d="M469.047,367.052v 4.96016" fill="none" stroke="black"/>
<path d="M480.296,367.052v 4.96016" fill="none" stroke="black"/>
<path d="M491.546,362.091v 9.92031" fill="none" stroke="black"/>
<path d="M86.5563,362.091v 9.92031" fill="none" stroke="black"/>
<path d="M75.3066,367.052v 4.96016" fill="none" stroke="black"/>
<path d="M64.0569,367.052v 4.96016" fill="none" stroke="black"/>
<path d="M491.546,362.091v 9.92031" fill="none" stroke="black"/>
<path d="M502.796,367.052v 4.96016" fill="none" stroke="black"/>
<text xml:space="preserve" x="69.7071" y="385.379" fill="black" font-size="13.7726" font-family="Helvetica">0.452</text>
<text xml:space="preserve" x="114.739" y="385.379" fill="black" font-size="13.7726" font-family="Helvetica">0.454</text>
<text xml:space="preserve" x="159.771" y="385.379" fill="black" font-size="13.7726" font-family="Helvetica">0.456</text>
<text xml:space="preserve" x="204.803" y="385.379" fill="black" font-size="13.7726" font-family="Helvetica">0.458</text>
<text xml:space="preserve" x="253.627" y="385.379" fill="black" font-size="13.7726" font-family="Helvetica">0.46</text>
<text xml:space="preserve" x="294.867" y="385.379" fill="black" font-size="13.7726" font-family="Helvetica">0.462</text>
<text xml:space="preserve" x="339.899" y="385.379" fill="black" font-size="13.7726" font-family="Helvetica">0.464</text>
<text xml:space="preserve" x="384.931" y="385.379" fill="black" font-size="13.7726" font-family="Helvetica">0.466</text>
<text xml:space="preserve" x="429.489" y="385.379" fill="black" font-size="13.7726" font-family="Helvetica">0.468</text>
<text xml:space="preserve" x="478.313" y="385.379" fill="black" font-size="13.7726" font-family="Helvetica">0.47</text>
<text xml:space="preserve" x="413.372" y="400.074" fill="black" font-size="13.7726" font-family="Helvetica">calibration factor</text>
<path d="M57.1929,372.012v -330.677" fill="none" stroke="black"/>
<path d="M70.7992,352.631h -13.6063" fill="none" stroke="black"/>
<path d="M63.9961,346.017h -6.80315" fill="none" stroke="black"/>
<path d="M63.9961,339.404h -6.80315" fill="none" stroke="black"/>
<path d="M63.9961,332.79h -6.80315" fill="none" stroke="black"/>
<path d="M63.9961,326.177h -6.80315" fill="none" stroke="black"/>
<path d="M70.7992,319.563h -13.6063" fill="none" stroke="black"/>
<path d="M63.9961,312.95h -6.80315" fill="none" stroke="black"/>
<path d="M63.9961,306.336h -6.80315" fill="none" stroke="black"/>
<path d="M63.9961,299.722h -6.80315" fill="none" stroke="black"/>
<path d="M63.9961,293.109h -6.80315" fill="none" stroke="black"/>
<path d="M70.7992,286.495h -13.6063" fill="none" stroke="black"/>
<path d="M63.9961,279.882h -6.80315" fill="none" stroke="black"/>
<path d="M63.9961,273.268h -6.80315" fill="none" stroke="black"/>
<path d="M63.9961,266.655h -6.80315" fill="none" stroke="black"/>
<path d="M63.9961,260.041h -6.80315" fill="none" stroke="black"/>
<path d="M70.7992,253.428h -13.6063" fill="none" stroke="black"/>
<path d="M63.9961,246.814h -6.80315" fill="none" stroke="black"/>
<path d="M63.9961,240.201h -6.80315" fill="none" stroke="black"/>
<path d="M63.9961,233.587h -6.80315" fill="none" stroke="black"/>
<path d="M63.9961,226.973h -6.80315" fill="none" stroke="black"/>
<path d="M70.7992,220.36h -13.6063" fill="none" stroke="black"/>
<path d="M63.9961,213.746h -6.80315" fill="none" stroke="black"/>
<path d="M63.9961,207.133h -6.80315" fill="none" stroke="black"/>
<path d="M63.9961,200.519h -6.80315" fill="none" stroke="black"/>
<path d="M63.9961,193.906h -6.80315" fill="none" stroke="black"/>
<path d="M70.7992,187.292h -13.6063" fill="none" stroke="black"/>
<path d="M63.9961,180.679h -6.80315" fill="none" stroke="black"/>
<path d="M63.9961,174.065h -6.80315" fill="none" stroke="black"/>
<path d="M63.9961,167.452h -6.80315" fill="none" stroke="black"/>
<path d="M63.9961,160.838h -6.80315" fill="none" stroke="black"/>
<path d="M70.7992,154.225h -13.6063" fill="none" stroke="black"/>
<path d="M63.9961,147.611h -6.80315" fill="none" stroke="black"/>
<path d="M63.9961,140.997h -6.80315" fill="none" stroke="black"/>
<path d="M63.9961,134.384h -6.80315" fill="none" stroke="black"/>
<path d="M63.9961,127.77h -6.80315" fill="none" stroke="black"/>
<path d="M70.7992,121.157h -13.6063" fill="none" stroke="black"/>
<path d="M63.9961,114.543h -6.80315" fill="none" stroke="black"/>
<path d="M63.9961,107.93h -6.80315" fill="none" stroke="black"/>
<path d="M63.9961,101.316h -6.80315" fill="none" stroke="black"/>
<path d="M63.9961,94.7027h -6.80315" fill="none" stroke="black"/>
<path d="M70.7992,88.0891h -13.6063" fill="none" stroke="black"/>
<path d="M63.9961,81.4756h -6.80315" fill="none" stroke="black"/>
<path d="M63.9961,74.8621h -6.80315" fill="none" stroke="black"/>
<path d="M63.9961,68.2485h -6.80315" fill="none" stroke="black"/>
<path d="M63.9961,61.635h -6.80315" fill="none" stroke="black"/>
<path d="M70.7992,55.0214h -13.6063" fill="none" stroke="black"/>
<path d="M70.7992,352.631h -13.6063" fill="none" stroke="black"/>
<path d="M63.9961,359.244h -6.80315" fill="none" stroke="black"/>
<path d="M63.9961,365.858h -6.80315" fill="none" stroke="black"/>
<path d="M70.7992,55.0214h -13.6063" fill="none" stroke="black"/>
<path d="M63.9961,48.4079h -6.80315" fill="none" stroke="black"/>
<path d="M63.9961,41.7943h -6.80315" fill="none" stroke="black"/>
<text xml:space="preserve" x="24.6751" y="356.938" fill="black" font-size="13.7726" font-family="Helvetica">2282</text>
<text xml:space="preserve" x="25.1491" y="324.23" fill="black" font-size="13.7726" font-family="Helvetica">2283</text>
<text xml:space="preserve" x="24.6751" y="291.049" fill="black" font-size="13.7726" font-family="Helvetica">2284</text>
<text xml:space="preserve" x="24.6751" y="257.867" fill="black" font-size="13.7726" font-family="Helvetica">2285</text>
<text xml:space="preserve" x="24.6751" y="224.686" fill="black" font-size="13.7726" font-family="Helvetica">2286</text>
<text xml:space="preserve" x="24.6751" y="191.979" fill="black" font-size="13.7726" font-family="Helvetica">2287</text>
<text xml:space="preserve" x="24.6751" y="158.797" fill="black" font-size="13.7726" font-family="Helvetica">2288</text>
<text xml:space="preserve" x="25.1491" y="125.616" fill="black" font-size="13.7726" font-family="Helvetica">2289</text>
<text xml:space="preserve" x="25.1491" y="92.4341" fill="black" font-size="13.7726" font-family="Helvetica">2290</text>
<text xml:space="preserve" x="27.0452" y="59.7266" fill="black" font-size="13.7726" font-family="Helvetica">2291</text>
<g transform="rotate(-90,7.61032,45.98)">
<text xml:space="preserve" x="7.61032" y="45.98" fill="black" font-size="9.34839" font-family="Helvetica">2</text>
</g>
<g transform="rotate(-90,11.8765,50.2462)">
<text xml:space="preserve" x="11.8765" y="50.2462" fill="black" font-size="13.7726" font-family="Helvetica"> </text>
</g>
<g transform="rotate(-90,11.8765,57.3565)">
<text xml:space="preserve" x="11.8765" y="57.3565" fill="black" font-size="13.7726" font-family="Times">&#0967;</text>
</g>
<g stroke="black" stroke-width="1" fill="none">
<line x1="242.156" y1="147.306" x2="245.948" y2="147.306"/><line x1="244.052" y1="145.41" x2="244.052" y2="149.202"/><line x1="242.156" y1="145.41" x2="245.948" y2="149.202"/><line x1="242.156" y1="149.202" x2="245.948" y2="145.41"/>
</g>
<g stroke="black" stroke-width="1" fill="none">
<line x1="273.655" y1="66.8387" x2="277.448" y2="66.8387"/><line x1="275.552" y1="64.9426" x2="275.552" y2="68.7348"/><line x1="273.655" y1="64.9426" x2="277.448" y2="68.7348"/><line x1="273.655" y1="68.7348" x2="277.448" y2="64.9426"/>
<line x1="278.155" y1="174.577" x2="281.948" y2="174.577"/><line x1="280.051" y1="172.681" x2="280.051" y2="176.473"/><line x1="278.155" y1="172.681" x2="281.948" y2="176.473"/><line x1="278.155" y1="176.473" x2="281.948" y2="172.681"/>
<line x1="282.655" y1="305.876" x2="286.447" y2="305.876"/><line x1="284.551" y1="303.98" x2="284.551" y2="307.772"/><line x1="282.655" y1="303.98" x2="286.447" y2="307.772"/><line x1="282.655" y1="307.772" x2="286.447" y2="303.98"/>
<line x1="287.155" y1="287.229" x2="290.947" y2="287.229"/><line x1="289.051" y1="285.333" x2="289.051" y2="289.125"/><line x1="287.155" y1="285.333" x2="290.947" y2="289.125"/><line x1="287.155" y1="289.125" x2="290.947" y2="285.333"/>
<line x1="291.655" y1="169.799" x2="295.447" y2="169.799"/><line x1="293.551" y1="167.902" x2="293.551" y2="171.695"/><line x1="291.655" y1="167.902" x2="295.447" y2="171.695"/><line x1="291.655" y1="171.695" x2="295.447" y2="167.902"/>
<line x1="296.155" y1="83.1795" x2="299.947" y2="83.1795"/><line x1="298.051" y1="81.2834" x2="298.051" y2="85.0756"/><line x1="296.155" y1="81.2834" x2="299.947" y2="85.0756"/><line x1="296.155" y1="85.0756" x2="299.947" y2="81.2834"/>
</g>
<path d="M0.5,272.809h 566.929" fill="none" stroke="#0000ff"/></svg>
