<?xml version="1.0" standalone="no"?>
<svg width="567.429" height="413.846" viewBox="0 0 567.429 413.846" xmlns="http://www.w3.org/2000/svg" shape-rendering="crispEdges">
<title>
figures/chi2_2PMTnpedata190929-02.svg
</title>
<desc>
Creator: ROOT Version 6.18/02
CreationDate: Sun Sep 29 23:47:32 2019</desc>
<defs>
</defs>
<rect x="0.5" y="0" width="566.929" height="413.346" fill="white"/>
<rect x="57.1929" y="41.3346" width="453.543" height="330.677" fill="white"/>
<rect x="57.1929" y="41.3346" width="453.543" height="330.677" fill="none" stroke="black"/>
<path d="M57.1929,372.012h 453.543" fill="none" stroke="black"/>
<path d="M92.2193,41.3346v 330.677" fill="none" stroke="black" stroke-dasharray=" 1, 2"/>
<path d="M137.542,41.3346v 330.677" fill="none" stroke="black" stroke-dasharray=" 1, 2"/>
<path d="M182.864,41.3346v 330.677" fill="none" stroke="black" stroke-dasharray=" 1, 2"/>
<path d="M228.187,41.3346v 330.677" fill="none" stroke="black" stroke-dasharray=" 1, 2"/>
<path d="M273.51,41.3346v 330.677" fill="none" stroke="black" stroke-dasharray=" 1, 2"/>
<path d="M318.832,41.3346v 330.677" fill="none" stroke="black" stroke-dasharray=" 1, 2"/>
<path d="M364.155,41.3346v 330.677" fill="none" stroke="black" stroke-dasharray=" 1, 2"/>
<path d="M409.478,41.3346v 330.677" fill="none" stroke="black" stroke-dasharray=" 1, 2"/>
<path d="M454.8,41.3346v 330.677" fill="none" stroke="black" stroke-dasharray=" 1, 2"/>
<path d="M500.123,41.3346v 330.677" fill="none" stroke="black" stroke-dasharray=" 1, 2"/>
<path d="M92.2193,41.3346v 330.677" fill="none" stroke="black" stroke-dasharray=" 1, 2"/>
<path d="M500.123,41.3346v 330.677" fill="none" stroke="black" stroke-dasharray=" 1, 2"/>
<path d="M57.1929,372.012v -330.677" fill="none" stroke="black"/>
<path d="M510.736,337.734h -453.543" fill="none" stroke="black" stroke-dasharray=" 1, 2"/>
<path d="M510.736,274.748h -453.543" fill="none" stroke="black" stroke-dasharray=" 1, 2"/>
<path d="M510.736,211.761h -453.543" fill="none" stroke="black" stroke-dasharray=" 1, 2"/>
<path d="M510.736,148.775h -453.543" fill="none" stroke="black" stroke-dasharray=" 1, 2"/>
<path d="M510.736,85.7892h -453.543" fill="none" stroke="black" stroke-dasharray=" 1, 2"/>
<path d="M510.736,337.734h -453.543" fill="none" stroke="black" stroke-dasharray=" 1, 2"/>
<path d="M510.736,85.7892h -453.543" fill="none" stroke="black" stroke-dasharray=" 1, 2"/>
<path d="M57.1929,372.012h 453.543" fill="none" stroke="black"/>
<path d="M92.2193,362.091v 9.92031" fill="none" stroke="black"/>
<path d="M103.55,367.052v 4.96016" fill="none" stroke="black"/>
<path d="M114.881,367.052v 4.96016" fill="none" stroke="black"/>
<path d="M126.211,367.052v 4.96016" fill="none" stroke="black"/>
<path d="M137.542,362.091v 9.92031" fill="none" stroke="black"/>
<path d="M148.873,367.052v 4.96016" fill="none" stroke="black"/>
<path d="M160.203,367.052v 4.96016" fill="none" stroke="black"/>
<path d="M171.534,367.052v 4.96016" fill="none" stroke="black"/>
<path d="M182.864,362.091v 9.92031" fill="none" stroke="black"/>
<path d="M194.195,367.052v 4.96016" fill="none" stroke="black"/>
<path d="M205.526,367.052v 4.96016" fill="none" stroke="black"/>
<path d="M216.856,367.052v 4.96016" fill="none" stroke="black"/>
<path d="M228.187,362.091v 9.92031" fill="none" stroke="black"/>
<path d="M239.518,367.052v 4.96016" fill="none" stroke="black"/>
<path d="M250.848,367.052v 4.96016" fill="none" stroke="black"/>
<path d="M262.179,367.052v 4.96016" fill="none" stroke="black"/>
<path d="M273.51,362.091v 9.92031" fill="none" stroke="black"/>
<path d="M284.84,367.052v 4.96016" fill="none" stroke="black"/>
<path d="M296.171,367.052v 4.96016" fill="none" stroke="black"/>
<path d="M307.502,367.052v 4.96016" fill="none" stroke="black"/>
<path d="M318.832,362.091v 9.92031" fill="none" stroke="black"/>
<path d="M330.163,367.052v 4.96016" fill="none" stroke="black"/>
<path d="M341.494,367.052v 4.96016" fill="none" stroke="black"/>
<path d="M352.824,367.052v 4.96016" fill="none" stroke="black"/>
<path d="M364.155,362.091v 9.92031" fill="none" stroke="black"/>
<path d="M375.486,367.052v 4.96016" fill="none" stroke="black"/>
<path d="M386.816,367.052v 4.96016" fill="none" stroke="black"/>
<path d="M398.147,367.052v 4.96016" fill="none" stroke="black"/>
<path d="M409.478,362.091v 9.92031" fill="none" stroke="black"/>
<path d="M420.808,367.052v 4.96016" fill="none" stroke="black"/>
<path d="M432.139,367.052v 4.96016" fill="none" stroke="black"/>
<path d="M443.469,367.052v 4.96016" fill="none" stroke="black"/>
<path d="M454.8,362.091v 9.92031" fill="none" stroke="black"/>
<path d="M466.131,367.052v 4.96016" fill="none" stroke="black"/>
<path d="M477.461,367.052v 4.96016" fill="none" stroke="black"/>
<path d="M488.792,367.052v 4.96016" fill="none" stroke="black"/>
<path d="M500.123,362.091v 9.92031" fill="none" stroke="black"/>
<path d="M92.2193,362.091v 9.92031" fill="none" stroke="black"/>
<path d="M80.8886,367.052v 4.96016" fill="none" stroke="black"/>
<path d="M69.558,367.052v 4.96016" fill="none" stroke="black"/>
<path d="M58.2273,367.052v 4.96016" fill="none" stroke="black"/>
<path d="M500.123,362.091v 9.92031" fill="none" stroke="black"/>
<text xml:space="preserve" x="79.1875" y="385.379" fill="black" font-size="13.7726" font-family="Helvetica">0.38</text>
<text xml:space="preserve" x="128.486" y="385.379" fill="black" font-size="13.7726" font-family="Helvetica">0.4</text>
<text xml:space="preserve" x="169.726" y="385.379" fill="black" font-size="13.7726" font-family="Helvetica">0.42</text>
<text xml:space="preserve" x="215.232" y="385.379" fill="black" font-size="13.7726" font-family="Helvetica">0.44</text>
<text xml:space="preserve" x="260.264" y="385.379" fill="black" font-size="13.7726" font-family="Helvetica">0.46</text>
<text xml:space="preserve" x="305.77" y="385.379" fill="black" font-size="13.7726" font-family="Helvetica">0.48</text>
<text xml:space="preserve" x="355.068" y="385.379" fill="black" font-size="13.7726" font-family="Helvetica">0.5</text>
<text xml:space="preserve" x="396.308" y="385.379" fill="black" font-size="13.7726" font-family="Helvetica">0.52</text>
<text xml:space="preserve" x="441.814" y="385.379" fill="black" font-size="13.7726" font-family="Helvetica">0.54</text>
<text xml:space="preserve" x="487.32" y="385.379" fill="black" font-size="13.7726" font-family="Helvetica">0.56</text>
<text xml:space="preserve" x="413.372" y="400.074" fill="black" font-size="13.7726" font-family="Helvetica">calibration factor</text>
<path d="M57.1929,372.012v -330.677" fill="none" stroke="black"/>
<path d="M70.7992,337.734h -13.6063" fill="none" stroke="black"/>
<path d="M63.9961,321.987h -6.80315" fill="none" stroke="black"/>
<path d="M63.9961,306.241h -6.80315" fill="none" stroke="black"/>
<path d="M63.9961,290.494h -6.80315" fill="none" stroke="black"/>
<path d="M70.7992,274.748h -13.6063" fill="none" stroke="black"/>
<path d="M63.9961,259.001h -6.80315" fill="none" stroke="black"/>
<path d="M63.9961,243.254h -6.80315" fill="none" stroke="black"/>
<path d="M63.9961,227.508h -6.80315" fill="none" stroke="black"/>
<path d="M70.7992,211.761h -13.6063" fill="none" stroke="black"/>
<path d="M63.9961,196.015h -6.80315" fill="none" stroke="black"/>
<path d="M63.9961,180.268h -6.80315" fill="none" stroke="black"/>
<path d="M63.9961,164.522h -6.80315" fill="none" stroke="black"/>
<path d="M70.7992,148.775h -13.6063" fill="none" stroke="black"/>
<path d="M63.9961,133.029h -6.80315" fill="none" stroke="black"/>
<path d="M63.9961,117.282h -6.80315" fill="none" stroke="black"/>
<path d="M63.9961,101.536h -6.80315" fill="none" stroke="black"/>
<path d="M70.7992,85.7892h -13.6063" fill="none" stroke="black"/>
<path d="M70.7992,337.734h -13.6063" fill="none" stroke="black"/>
<path d="M63.9961,353.48h -6.80315" fill="none" stroke="black"/>
<path d="M63.9961,369.227h -6.80315" fill="none" stroke="black"/>
<path d="M70.7992,85.7892h -13.6063" fill="none" stroke="black"/>
<path d="M63.9961,70.0427h -6.80315" fill="none" stroke="black"/>
<path d="M63.9961,54.2962h -6.80315" fill="none" stroke="black"/>
<text xml:space="preserve" x="25.1491" y="342.243" fill="black" font-size="13.7726" font-family="Helvetica">1700</text>
<text xml:space="preserve" x="25.1491" y="279.198" fill="black" font-size="13.7726" font-family="Helvetica">1720</text>
<text xml:space="preserve" x="25.1491" y="216.154" fill="black" font-size="13.7726" font-family="Helvetica">1740</text>
<text xml:space="preserve" x="25.1491" y="153.109" fill="black" font-size="13.7726" font-family="Helvetica">1760</text>
<text xml:space="preserve" x="25.1491" y="90.064" fill="black" font-size="13.7726" font-family="Helvetica">1780</text>
<g transform="rotate(-90,8.08434,45.98)">
<text xml:space="preserve" x="8.08434" y="45.98" fill="black" font-size="9.34839" font-family="Helvetica">2</text>
</g>
<g transform="rotate(-90,12.3505,50.2462)">
<text xml:space="preserve" x="12.3505" y="50.2462" fill="black" font-size="13.7726" font-family="Helvetica"> </text>
</g>
<g transform="rotate(-90,12.3505,57.3565)">
<text xml:space="preserve" x="12.3505" y="57.3565" fill="black" font-size="13.7726" font-family="Times">&#0967;</text>
</g>
<g stroke="black" stroke-width="1" fill="none">
<line x1="204.989" y1="42.6266" x2="208.782" y2="42.6266"/><line x1="206.885" y1="40.7306" x2="206.885" y2="44.5227"/><line x1="204.989" y1="40.7306" x2="208.782" y2="44.5227"/><line x1="204.989" y1="44.5227" x2="208.782" y2="40.7306"/>
<line x1="205.443" y1="48.2216" x2="209.235" y2="48.2216"/><line x1="207.339" y1="46.3255" x2="207.339" y2="50.1177"/><line x1="205.443" y1="46.3255" x2="209.235" y2="50.1177"/><line x1="205.443" y1="50.1177" x2="209.235" y2="46.3255"/>
<line x1="205.896" y1="52.3419" x2="209.688" y2="52.3419"/><line x1="207.792" y1="50.4458" x2="207.792" y2="54.2379"/><line x1="205.896" y1="50.4458" x2="209.688" y2="54.2379"/><line x1="205.896" y1="54.2379" x2="209.688" y2="50.4458"/>
<line x1="206.349" y1="54.5561" x2="210.141" y2="54.5561"/><line x1="208.245" y1="52.66" x2="208.245" y2="56.4522"/><line x1="206.349" y1="52.66" x2="210.141" y2="56.4522"/><line x1="206.349" y1="56.4522" x2="210.141" y2="52.66"/>
<line x1="206.802" y1="67.8488" x2="210.594" y2="67.8488"/><line x1="208.698" y1="65.9527" x2="208.698" y2="69.7449"/><line x1="206.802" y1="65.9527" x2="210.594" y2="69.7449"/><line x1="206.802" y1="69.7449" x2="210.594" y2="65.9527"/>
<line x1="207.256" y1="74.9646" x2="211.048" y2="74.9646"/><line x1="209.152" y1="73.0685" x2="209.152" y2="76.8607"/><line x1="207.256" y1="73.0685" x2="211.048" y2="76.8607"/><line x1="207.256" y1="76.8607" x2="211.048" y2="73.0685"/>
<line x1="207.709" y1="74.6013" x2="211.501" y2="74.6013"/><line x1="209.605" y1="72.7052" x2="209.605" y2="76.4974"/><line x1="207.709" y1="72.7052" x2="211.501" y2="76.4974"/><line x1="207.709" y1="76.4974" x2="211.501" y2="72.7052"/>
<line x1="208.162" y1="82.5905" x2="211.954" y2="82.5905"/><line x1="210.058" y1="80.6944" x2="210.058" y2="84.4866"/><line x1="208.162" y1="80.6944" x2="211.954" y2="84.4866"/><line x1="208.162" y1="84.4866" x2="211.954" y2="80.6944"/>
<line x1="208.615" y1="92.687" x2="212.407" y2="92.687"/><line x1="210.511" y1="90.7909" x2="210.511" y2="94.5831"/><line x1="208.615" y1="90.7909" x2="212.407" y2="94.5831"/><line x1="208.615" y1="94.5831" x2="212.407" y2="90.7909"/>
<line x1="209.068" y1="93.1509" x2="212.861" y2="93.1509"/><line x1="210.964" y1="91.2548" x2="210.964" y2="95.047"/><line x1="209.068" y1="91.2548" x2="212.861" y2="95.047"/><line x1="209.068" y1="95.047" x2="212.861" y2="91.2548"/>
<line x1="209.522" y1="94.8442" x2="213.314" y2="94.8442"/><line x1="211.418" y1="92.9481" x2="211.418" y2="96.7403"/><line x1="209.522" y1="92.9481" x2="213.314" y2="96.7403"/><line x1="209.522" y1="96.7403" x2="213.314" y2="92.9481"/>
<line x1="209.975" y1="89.4899" x2="213.767" y2="89.4899"/><line x1="211.871" y1="87.5938" x2="211.871" y2="91.386"/><line x1="209.975" y1="87.5938" x2="213.767" y2="91.386"/><line x1="209.975" y1="91.386" x2="213.767" y2="87.5938"/>
<line x1="210.428" y1="95.8566" x2="214.22" y2="95.8566"/><line x1="212.324" y1="93.9605" x2="212.324" y2="97.7527"/><line x1="210.428" y1="93.9605" x2="214.22" y2="97.7527"/><line x1="210.428" y1="97.7527" x2="214.22" y2="93.9605"/>
<line x1="210.881" y1="96.249" x2="214.673" y2="96.249"/><line x1="212.777" y1="94.3529" x2="212.777" y2="98.1451"/><line x1="210.881" y1="94.3529" x2="214.673" y2="98.1451"/><line x1="210.881" y1="98.1451" x2="214.673" y2="94.3529"/>
<line x1="211.335" y1="102.681" x2="215.127" y2="102.681"/><line x1="213.231" y1="100.785" x2="213.231" y2="104.577"/><line x1="211.335" y1="100.785" x2="215.127" y2="104.577"/><line x1="211.335" y1="104.577" x2="215.127" y2="100.785"/>
<line x1="211.788" y1="106.286" x2="215.58" y2="106.286"/><line x1="213.684" y1="104.39" x2="213.684" y2="108.182"/><line x1="211.788" y1="104.39" x2="215.58" y2="108.182"/><line x1="211.788" y1="108.182" x2="215.58" y2="104.39"/>
<line x1="212.241" y1="98.0065" x2="216.033" y2="98.0065"/><line x1="214.137" y1="96.1104" x2="214.137" y2="99.9025"/><line x1="212.241" y1="96.1104" x2="216.033" y2="99.9025"/><line x1="212.241" y1="99.9025" x2="216.033" y2="96.1104"/>
<line x1="212.694" y1="102.505" x2="216.486" y2="102.505"/><line x1="214.59" y1="100.609" x2="214.59" y2="104.401"/><line x1="212.694" y1="100.609" x2="216.486" y2="104.401"/><line x1="212.694" y1="104.401" x2="216.486" y2="100.609"/>
<line x1="213.147" y1="101.915" x2="216.94" y2="101.915"/><line x1="215.044" y1="100.019" x2="215.044" y2="103.811"/><line x1="213.147" y1="100.019" x2="216.94" y2="103.811"/><line x1="213.147" y1="103.811" x2="216.94" y2="100.019"/>
<line x1="213.601" y1="98.5856" x2="217.393" y2="98.5856"/><line x1="215.497" y1="96.6895" x2="215.497" y2="100.482"/><line x1="213.601" y1="96.6895" x2="217.393" y2="100.482"/><line x1="213.601" y1="100.482" x2="217.393" y2="96.6895"/>
<line x1="214.054" y1="99.5194" x2="217.846" y2="99.5194"/><line x1="215.95" y1="97.6233" x2="215.95" y2="101.415"/><line x1="214.054" y1="97.6233" x2="217.846" y2="101.415"/><line x1="214.054" y1="101.415" x2="217.846" y2="97.6233"/>
<line x1="214.507" y1="104.181" x2="218.299" y2="104.181"/><line x1="216.403" y1="102.285" x2="216.403" y2="106.077"/><line x1="214.507" y1="102.285" x2="218.299" y2="106.077"/><line x1="214.507" y1="106.077" x2="218.299" y2="102.285"/>
<line x1="214.96" y1="113.843" x2="218.753" y2="113.843"/><line x1="216.856" y1="111.947" x2="216.856" y2="115.739"/><line x1="214.96" y1="111.947" x2="218.753" y2="115.739"/><line x1="214.96" y1="115.739" x2="218.753" y2="111.947"/>
<line x1="215.414" y1="121.229" x2="219.206" y2="121.229"/><line x1="217.31" y1="119.333" x2="217.31" y2="123.125"/><line x1="215.414" y1="119.333" x2="219.206" y2="123.125"/><line x1="215.414" y1="123.125" x2="219.206" y2="119.333"/>
<line x1="215.867" y1="131.357" x2="219.659" y2="131.357"/><line x1="217.763" y1="129.461" x2="217.763" y2="133.253"/><line x1="215.867" y1="129.461" x2="219.659" y2="133.253"/><line x1="215.867" y1="133.253" x2="219.659" y2="129.461"/>
<line x1="216.32" y1="140.894" x2="220.112" y2="140.894"/><line x1="218.216" y1="138.998" x2="218.216" y2="142.79"/><line x1="216.32" y1="138.998" x2="220.112" y2="142.79"/><line x1="216.32" y1="142.79" x2="220.112" y2="138.998"/>
<line x1="216.773" y1="140.571" x2="220.565" y2="140.571"/><line x1="218.669" y1="138.675" x2="218.669" y2="142.467"/><line x1="216.773" y1="138.675" x2="220.565" y2="142.467"/><line x1="216.773" y1="142.467" x2="220.565" y2="138.675"/>
<line x1="217.226" y1="141.585" x2="221.019" y2="141.585"/><line x1="219.123" y1="139.689" x2="219.123" y2="143.481"/><line x1="217.226" y1="139.689" x2="221.019" y2="143.481"/><line x1="217.226" y1="143.481" x2="221.019" y2="139.689"/>
<line x1="217.68" y1="150.858" x2="221.472" y2="150.858"/><line x1="219.576" y1="148.962" x2="219.576" y2="152.754"/><line x1="217.68" y1="148.962" x2="221.472" y2="152.754"/><line x1="217.68" y1="152.754" x2="221.472" y2="148.962"/>
<line x1="218.133" y1="153.617" x2="221.925" y2="153.617"/><line x1="220.029" y1="151.721" x2="220.029" y2="155.513"/><line x1="218.133" y1="151.721" x2="221.925" y2="155.513"/><line x1="218.133" y1="155.513" x2="221.925" y2="151.721"/>
<line x1="218.586" y1="151.768" x2="222.378" y2="151.768"/><line x1="220.482" y1="149.872" x2="220.482" y2="153.664"/><line x1="218.586" y1="149.872" x2="222.378" y2="153.664"/><line x1="218.586" y1="153.664" x2="222.378" y2="149.872"/>
<line x1="219.039" y1="152.296" x2="222.832" y2="152.296"/><line x1="220.935" y1="150.4" x2="220.935" y2="154.192"/><line x1="219.039" y1="150.4" x2="222.832" y2="154.192"/><line x1="219.039" y1="154.192" x2="222.832" y2="150.4"/>
<line x1="219.493" y1="159.574" x2="223.285" y2="159.574"/><line x1="221.389" y1="157.678" x2="221.389" y2="161.471"/><line x1="219.493" y1="157.678" x2="223.285" y2="161.471"/><line x1="219.493" y1="161.471" x2="223.285" y2="157.678"/>
<line x1="219.946" y1="158.905" x2="223.738" y2="158.905"/><line x1="221.842" y1="157.009" x2="221.842" y2="160.801"/><line x1="219.946" y1="157.009" x2="223.738" y2="160.801"/><line x1="219.946" y1="160.801" x2="223.738" y2="157.009"/>
<line x1="220.399" y1="161.872" x2="224.191" y2="161.872"/><line x1="222.295" y1="159.976" x2="222.295" y2="163.768"/><line x1="220.399" y1="159.976" x2="224.191" y2="163.768"/><line x1="220.399" y1="163.768" x2="224.191" y2="159.976"/>
<line x1="220.852" y1="164.585" x2="224.644" y2="164.585"/><line x1="222.748" y1="162.689" x2="222.748" y2="166.481"/><line x1="220.852" y1="162.689" x2="224.644" y2="166.481"/><line x1="220.852" y1="166.481" x2="224.644" y2="162.689"/>
<line x1="221.306" y1="173.519" x2="225.098" y2="173.519"/><line x1="223.202" y1="171.623" x2="223.202" y2="175.415"/><line x1="221.306" y1="171.623" x2="225.098" y2="175.415"/><line x1="221.306" y1="175.415" x2="225.098" y2="171.623"/>
<line x1="221.759" y1="168.666" x2="225.551" y2="168.666"/><line x1="223.655" y1="166.77" x2="223.655" y2="170.562"/><line x1="221.759" y1="166.77" x2="225.551" y2="170.562"/><line x1="221.759" y1="170.562" x2="225.551" y2="166.77"/>
<line x1="222.212" y1="169.822" x2="226.004" y2="169.822"/><line x1="224.108" y1="167.926" x2="224.108" y2="171.718"/><line x1="222.212" y1="167.926" x2="226.004" y2="171.718"/><line x1="222.212" y1="171.718" x2="226.004" y2="167.926"/>
<line x1="222.665" y1="170.864" x2="226.457" y2="170.864"/><line x1="224.561" y1="168.968" x2="224.561" y2="172.76"/><line x1="222.665" y1="168.968" x2="226.457" y2="172.76"/><line x1="222.665" y1="172.76" x2="226.457" y2="168.968"/>
<line x1="223.118" y1="177.836" x2="226.911" y2="177.836"/><line x1="225.014" y1="175.94" x2="225.014" y2="179.732"/><line x1="223.118" y1="175.94" x2="226.911" y2="179.732"/><line x1="223.118" y1="179.732" x2="226.911" y2="175.94"/>
<line x1="223.572" y1="185.038" x2="227.364" y2="185.038"/><line x1="225.468" y1="183.142" x2="225.468" y2="186.934"/><line x1="223.572" y1="183.142" x2="227.364" y2="186.934"/><line x1="223.572" y1="186.934" x2="227.364" y2="183.142"/>
<line x1="224.025" y1="184.153" x2="227.817" y2="184.153"/><line x1="225.921" y1="182.257" x2="225.921" y2="186.049"/><line x1="224.025" y1="182.257" x2="227.817" y2="186.049"/><line x1="224.025" y1="186.049" x2="227.817" y2="182.257"/>
<line x1="224.478" y1="185.599" x2="228.27" y2="185.599"/><line x1="226.374" y1="183.703" x2="226.374" y2="187.495"/><line x1="224.478" y1="183.703" x2="228.27" y2="187.495"/><line x1="224.478" y1="187.495" x2="228.27" y2="183.703"/>
<line x1="224.931" y1="189.576" x2="228.723" y2="189.576"/><line x1="226.827" y1="187.68" x2="226.827" y2="191.472"/><line x1="224.931" y1="187.68" x2="228.723" y2="191.472"/><line x1="224.931" y1="191.472" x2="228.723" y2="187.68"/>
<line x1="225.385" y1="196.633" x2="229.177" y2="196.633"/><line x1="227.281" y1="194.737" x2="227.281" y2="198.529"/><line x1="225.385" y1="194.737" x2="229.177" y2="198.529"/><line x1="225.385" y1="198.529" x2="229.177" y2="194.737"/>
<line x1="225.838" y1="205.555" x2="229.63" y2="205.555"/><line x1="227.734" y1="203.659" x2="227.734" y2="207.451"/><line x1="225.838" y1="203.659" x2="229.63" y2="207.451"/><line x1="225.838" y1="207.451" x2="229.63" y2="203.659"/>
<line x1="226.291" y1="200.97" x2="230.083" y2="200.97"/><line x1="228.187" y1="199.074" x2="228.187" y2="202.866"/><line x1="226.291" y1="199.074" x2="230.083" y2="202.866"/><line x1="226.291" y1="202.866" x2="230.083" y2="199.074"/>
<line x1="226.744" y1="196.836" x2="230.536" y2="196.836"/><line x1="228.64" y1="194.94" x2="228.64" y2="198.732"/><line x1="226.744" y1="194.94" x2="230.536" y2="198.732"/><line x1="226.744" y1="198.732" x2="230.536" y2="194.94"/>
<line x1="227.197" y1="193.294" x2="230.99" y2="193.294"/><line x1="229.094" y1="191.398" x2="229.094" y2="195.19"/><line x1="227.197" y1="191.398" x2="230.99" y2="195.19"/><line x1="227.197" y1="195.19" x2="230.99" y2="191.398"/>
<line x1="227.651" y1="197.986" x2="231.443" y2="197.986"/><line x1="229.547" y1="196.09" x2="229.547" y2="199.882"/><line x1="227.651" y1="196.09" x2="231.443" y2="199.882"/><line x1="227.651" y1="199.882" x2="231.443" y2="196.09"/>
<line x1="228.104" y1="195.258" x2="231.896" y2="195.258"/><line x1="230" y1="193.361" x2="230" y2="197.154"/><line x1="228.104" y1="193.361" x2="231.896" y2="197.154"/><line x1="228.104" y1="197.154" x2="231.896" y2="193.361"/>
<line x1="228.557" y1="198.286" x2="232.349" y2="198.286"/><line x1="230.453" y1="196.39" x2="230.453" y2="200.182"/><line x1="228.557" y1="196.39" x2="232.349" y2="200.182"/><line x1="228.557" y1="200.182" x2="232.349" y2="196.39"/>
<line x1="229.01" y1="205.804" x2="232.803" y2="205.804"/><line x1="230.906" y1="203.908" x2="230.906" y2="207.7"/><line x1="229.01" y1="203.908" x2="232.803" y2="207.7"/><line x1="229.01" y1="207.7" x2="232.803" y2="203.908"/>
<line x1="229.464" y1="210.098" x2="233.256" y2="210.098"/><line x1="231.36" y1="208.202" x2="231.36" y2="211.994"/><line x1="229.464" y1="208.202" x2="233.256" y2="211.994"/><line x1="229.464" y1="211.994" x2="233.256" y2="208.202"/>
<line x1="229.917" y1="206.964" x2="233.709" y2="206.964"/><line x1="231.813" y1="205.068" x2="231.813" y2="208.86"/><line x1="229.917" y1="205.068" x2="233.709" y2="208.86"/><line x1="229.917" y1="208.86" x2="233.709" y2="205.068"/>
<line x1="230.37" y1="205.944" x2="234.162" y2="205.944"/><line x1="232.266" y1="204.048" x2="232.266" y2="207.84"/><line x1="230.37" y1="204.048" x2="234.162" y2="207.84"/><line x1="230.37" y1="207.84" x2="234.162" y2="204.048"/>
<line x1="230.823" y1="210.393" x2="234.615" y2="210.393"/><line x1="232.719" y1="208.497" x2="232.719" y2="212.289"/><line x1="230.823" y1="208.497" x2="234.615" y2="212.289"/><line x1="230.823" y1="212.289" x2="234.615" y2="208.497"/>
<line x1="231.276" y1="212.439" x2="235.069" y2="212.439"/><line x1="233.173" y1="210.543" x2="233.173" y2="214.335"/><line x1="231.276" y1="210.543" x2="235.069" y2="214.335"/><line x1="231.276" y1="214.335" x2="235.069" y2="210.543"/>
<line x1="231.73" y1="213.921" x2="235.522" y2="213.921"/><line x1="233.626" y1="212.024" x2="233.626" y2="215.817"/><line x1="231.73" y1="212.024" x2="235.522" y2="215.817"/><line x1="231.73" y1="215.817" x2="235.522" y2="212.024"/>
<line x1="232.183" y1="225.26" x2="235.975" y2="225.26"/><line x1="234.079" y1="223.364" x2="234.079" y2="227.156"/><line x1="232.183" y1="223.364" x2="235.975" y2="227.156"/><line x1="232.183" y1="227.156" x2="235.975" y2="223.364"/>
<line x1="232.636" y1="222.875" x2="236.428" y2="222.875"/><line x1="234.532" y1="220.979" x2="234.532" y2="224.771"/><line x1="232.636" y1="220.979" x2="236.428" y2="224.771"/><line x1="232.636" y1="224.771" x2="236.428" y2="220.979"/>
<line x1="233.089" y1="221.515" x2="236.882" y2="221.515"/><line x1="234.985" y1="219.619" x2="234.985" y2="223.411"/><line x1="233.089" y1="219.619" x2="236.882" y2="223.411"/><line x1="233.089" y1="223.411" x2="236.882" y2="219.619"/>
<line x1="233.543" y1="216.992" x2="237.335" y2="216.992"/><line x1="235.439" y1="215.096" x2="235.439" y2="218.888"/><line x1="233.543" y1="215.096" x2="237.335" y2="218.888"/><line x1="233.543" y1="218.888" x2="237.335" y2="215.096"/>
<line x1="233.996" y1="222.15" x2="237.788" y2="222.15"/><line x1="235.892" y1="220.254" x2="235.892" y2="224.046"/><line x1="233.996" y1="220.254" x2="237.788" y2="224.046"/><line x1="233.996" y1="224.046" x2="237.788" y2="220.254"/>
<line x1="234.449" y1="229.373" x2="238.241" y2="229.373"/><line x1="236.345" y1="227.477" x2="236.345" y2="231.269"/><line x1="234.449" y1="227.477" x2="238.241" y2="231.269"/><line x1="234.449" y1="231.269" x2="238.241" y2="227.477"/>
<line x1="234.902" y1="234.099" x2="238.694" y2="234.099"/><line x1="236.798" y1="232.203" x2="236.798" y2="235.995"/><line x1="234.902" y1="232.203" x2="238.694" y2="235.995"/><line x1="234.902" y1="235.995" x2="238.694" y2="232.203"/>
<line x1="235.356" y1="230.639" x2="239.148" y2="230.639"/><line x1="237.252" y1="228.743" x2="237.252" y2="232.535"/><line x1="235.356" y1="228.743" x2="239.148" y2="232.535"/><line x1="235.356" y1="232.535" x2="239.148" y2="228.743"/>
<line x1="235.809" y1="227.146" x2="239.601" y2="227.146"/><line x1="237.705" y1="225.25" x2="237.705" y2="229.042"/><line x1="235.809" y1="225.25" x2="239.601" y2="229.042"/><line x1="235.809" y1="229.042" x2="239.601" y2="225.25"/>
<line x1="236.262" y1="227.611" x2="240.054" y2="227.611"/><line x1="238.158" y1="225.715" x2="238.158" y2="229.507"/><line x1="236.262" y1="225.715" x2="240.054" y2="229.507"/><line x1="236.262" y1="229.507" x2="240.054" y2="225.715"/>
<line x1="236.715" y1="228.903" x2="240.507" y2="228.903"/><line x1="238.611" y1="227.007" x2="238.611" y2="230.799"/><line x1="236.715" y1="227.007" x2="240.507" y2="230.799"/><line x1="236.715" y1="230.799" x2="240.507" y2="227.007"/>
<line x1="237.168" y1="232.111" x2="240.961" y2="232.111"/><line x1="239.065" y1="230.215" x2="239.065" y2="234.007"/><line x1="237.168" y1="230.215" x2="240.961" y2="234.007"/><line x1="237.168" y1="234.007" x2="240.961" y2="230.215"/>
<line x1="237.622" y1="227.486" x2="241.414" y2="227.486"/><line x1="239.518" y1="225.59" x2="239.518" y2="229.382"/><line x1="237.622" y1="225.59" x2="241.414" y2="229.382"/><line x1="237.622" y1="229.382" x2="241.414" y2="225.59"/>
<line x1="238.075" y1="218.53" x2="241.867" y2="218.53"/><line x1="239.971" y1="216.634" x2="239.971" y2="220.426"/><line x1="238.075" y1="216.634" x2="241.867" y2="220.426"/><line x1="238.075" y1="220.426" x2="241.867" y2="216.634"/>
<line x1="238.528" y1="221.78" x2="242.32" y2="221.78"/><line x1="240.424" y1="219.884" x2="240.424" y2="223.676"/><line x1="238.528" y1="219.884" x2="242.32" y2="223.676"/><line x1="238.528" y1="223.676" x2="242.32" y2="219.884"/>
<line x1="238.981" y1="222.886" x2="242.773" y2="222.886"/><line x1="240.877" y1="220.99" x2="240.877" y2="224.782"/><line x1="238.981" y1="220.99" x2="242.773" y2="224.782"/><line x1="238.981" y1="224.782" x2="242.773" y2="220.99"/>
<line x1="239.435" y1="229.454" x2="243.227" y2="229.454"/><line x1="241.331" y1="227.558" x2="241.331" y2="231.35"/><line x1="239.435" y1="227.558" x2="243.227" y2="231.35"/><line x1="239.435" y1="231.35" x2="243.227" y2="227.558"/>
<line x1="239.888" y1="234.941" x2="243.68" y2="234.941"/><line x1="241.784" y1="233.045" x2="241.784" y2="236.837"/><line x1="239.888" y1="233.045" x2="243.68" y2="236.837"/><line x1="239.888" y1="236.837" x2="243.68" y2="233.045"/>
<line x1="240.341" y1="241.892" x2="244.133" y2="241.892"/><line x1="242.237" y1="239.996" x2="242.237" y2="243.788"/><line x1="240.341" y1="239.996" x2="244.133" y2="243.788"/><line x1="240.341" y1="243.788" x2="244.133" y2="239.996"/>
<line x1="240.794" y1="239.422" x2="244.586" y2="239.422"/><line x1="242.69" y1="237.526" x2="242.69" y2="241.318"/><line x1="240.794" y1="237.526" x2="244.586" y2="241.318"/><line x1="240.794" y1="241.318" x2="244.586" y2="237.526"/>
<line x1="241.247" y1="235.901" x2="245.04" y2="235.901"/><line x1="243.144" y1="234.005" x2="243.144" y2="237.798"/><line x1="241.247" y1="234.005" x2="245.04" y2="237.798"/><line x1="241.247" y1="237.798" x2="245.04" y2="234.005"/>
<line x1="241.701" y1="237.938" x2="245.493" y2="237.938"/><line x1="243.597" y1="236.042" x2="243.597" y2="239.834"/><line x1="241.701" y1="236.042" x2="245.493" y2="239.834"/><line x1="241.701" y1="239.834" x2="245.493" y2="236.042"/>
<line x1="242.154" y1="234.823" x2="245.946" y2="234.823"/><line x1="244.05" y1="232.927" x2="244.05" y2="236.719"/><line x1="242.154" y1="232.927" x2="245.946" y2="236.719"/><line x1="242.154" y1="236.719" x2="245.946" y2="232.927"/>
<line x1="242.607" y1="232.219" x2="246.399" y2="232.219"/><line x1="244.503" y1="230.323" x2="244.503" y2="234.115"/><line x1="242.607" y1="230.323" x2="246.399" y2="234.115"/><line x1="242.607" y1="234.115" x2="246.399" y2="230.323"/>
<line x1="243.06" y1="233.13" x2="246.853" y2="233.13"/><line x1="244.956" y1="231.234" x2="244.956" y2="235.026"/><line x1="243.06" y1="231.234" x2="246.853" y2="235.026"/><line x1="243.06" y1="235.026" x2="246.853" y2="231.234"/>
<line x1="243.514" y1="245.868" x2="247.306" y2="245.868"/><line x1="245.41" y1="243.972" x2="245.41" y2="247.764"/><line x1="243.514" y1="243.972" x2="247.306" y2="247.764"/><line x1="243.514" y1="247.764" x2="247.306" y2="243.972"/>
<line x1="243.967" y1="250.684" x2="247.759" y2="250.684"/><line x1="245.863" y1="248.788" x2="245.863" y2="252.58"/><line x1="243.967" y1="248.788" x2="247.759" y2="252.58"/><line x1="243.967" y1="252.58" x2="247.759" y2="248.788"/>
<line x1="244.42" y1="257.231" x2="248.212" y2="257.231"/><line x1="246.316" y1="255.335" x2="246.316" y2="259.127"/><line x1="244.42" y1="255.335" x2="248.212" y2="259.127"/><line x1="244.42" y1="259.127" x2="248.212" y2="255.335"/>
<line x1="244.873" y1="262.636" x2="248.665" y2="262.636"/><line x1="246.769" y1="260.74" x2="246.769" y2="264.532"/><line x1="244.873" y1="260.74" x2="248.665" y2="264.532"/><line x1="244.873" y1="264.532" x2="248.665" y2="260.74"/>
<line x1="245.326" y1="252.079" x2="249.119" y2="252.079"/><line x1="247.223" y1="250.183" x2="247.223" y2="253.976"/><line x1="245.326" y1="250.183" x2="249.119" y2="253.976"/><line x1="245.326" y1="253.976" x2="249.119" y2="250.183"/>
<line x1="245.78" y1="256.89" x2="249.572" y2="256.89"/><line x1="247.676" y1="254.994" x2="247.676" y2="258.786"/><line x1="245.78" y1="254.994" x2="249.572" y2="258.786"/><line x1="245.78" y1="258.786" x2="249.572" y2="254.994"/>
<line x1="246.233" y1="251.268" x2="250.025" y2="251.268"/><line x1="248.129" y1="249.372" x2="248.129" y2="253.164"/><line x1="246.233" y1="249.372" x2="250.025" y2="253.164"/><line x1="246.233" y1="253.164" x2="250.025" y2="249.372"/>
<line x1="246.686" y1="256.036" x2="250.478" y2="256.036"/><line x1="248.582" y1="254.14" x2="248.582" y2="257.932"/><line x1="246.686" y1="254.14" x2="250.478" y2="257.932"/><line x1="246.686" y1="257.932" x2="250.478" y2="254.14"/>
<line x1="247.139" y1="263.187" x2="250.932" y2="263.187"/><line x1="249.035" y1="261.291" x2="249.035" y2="265.083"/><line x1="247.139" y1="261.291" x2="250.932" y2="265.083"/><line x1="247.139" y1="265.083" x2="250.932" y2="261.291"/>
<line x1="247.593" y1="266.987" x2="251.385" y2="266.987"/><line x1="249.489" y1="265.091" x2="249.489" y2="268.883"/><line x1="247.593" y1="265.091" x2="251.385" y2="268.883"/><line x1="247.593" y1="268.883" x2="251.385" y2="265.091"/>
<line x1="248.046" y1="268.66" x2="251.838" y2="268.66"/><line x1="249.942" y1="266.764" x2="249.942" y2="270.556"/><line x1="248.046" y1="266.764" x2="251.838" y2="270.556"/><line x1="248.046" y1="270.556" x2="251.838" y2="266.764"/>
<line x1="248.499" y1="275.349" x2="252.291" y2="275.349"/><line x1="250.395" y1="273.453" x2="250.395" y2="277.245"/><line x1="248.499" y1="273.453" x2="252.291" y2="277.245"/><line x1="248.499" y1="277.245" x2="252.291" y2="273.453"/>
<line x1="248.952" y1="275.642" x2="252.744" y2="275.642"/><line x1="250.848" y1="273.746" x2="250.848" y2="277.538"/><line x1="248.952" y1="273.746" x2="252.744" y2="277.538"/><line x1="248.952" y1="277.538" x2="252.744" y2="273.746"/>
<line x1="249.406" y1="283.615" x2="253.198" y2="283.615"/><line x1="251.302" y1="281.719" x2="251.302" y2="285.511"/><line x1="249.406" y1="281.719" x2="253.198" y2="285.511"/><line x1="249.406" y1="285.511" x2="253.198" y2="281.719"/>
<line x1="249.859" y1="279.281" x2="253.651" y2="279.281"/><line x1="251.755" y1="277.385" x2="251.755" y2="281.177"/><line x1="249.859" y1="277.385" x2="253.651" y2="281.177"/><line x1="249.859" y1="281.177" x2="253.651" y2="277.385"/>
<line x1="250.312" y1="280.353" x2="254.104" y2="280.353"/><line x1="252.208" y1="278.457" x2="252.208" y2="282.249"/><line x1="250.312" y1="278.457" x2="254.104" y2="282.249"/><line x1="250.312" y1="282.249" x2="254.104" y2="278.457"/>
<line x1="250.765" y1="273.176" x2="254.557" y2="273.176"/><line x1="252.661" y1="271.28" x2="252.661" y2="275.072"/><line x1="250.765" y1="271.28" x2="254.557" y2="275.072"/><line x1="250.765" y1="275.072" x2="254.557" y2="271.28"/>
<line x1="251.218" y1="275.608" x2="255.011" y2="275.608"/><line x1="253.115" y1="273.712" x2="253.115" y2="277.504"/><line x1="251.218" y1="273.712" x2="255.011" y2="277.504"/><line x1="251.218" y1="277.504" x2="255.011" y2="273.712"/>
<line x1="251.672" y1="279.825" x2="255.464" y2="279.825"/><line x1="253.568" y1="277.929" x2="253.568" y2="281.721"/><line x1="251.672" y1="277.929" x2="255.464" y2="281.721"/><line x1="251.672" y1="281.721" x2="255.464" y2="277.929"/>
<line x1="252.125" y1="287.762" x2="255.917" y2="287.762"/><line x1="254.021" y1="285.865" x2="254.021" y2="289.658"/><line x1="252.125" y1="285.865" x2="255.917" y2="289.658"/><line x1="252.125" y1="289.658" x2="255.917" y2="285.865"/>
<line x1="252.578" y1="278.931" x2="256.37" y2="278.931"/><line x1="254.474" y1="277.035" x2="254.474" y2="280.827"/><line x1="252.578" y1="277.035" x2="256.37" y2="280.827"/><line x1="252.578" y1="280.827" x2="256.37" y2="277.035"/>
<line x1="253.031" y1="284.782" x2="256.824" y2="284.782"/><line x1="254.927" y1="282.886" x2="254.927" y2="286.678"/><line x1="253.031" y1="282.886" x2="256.824" y2="286.678"/><line x1="253.031" y1="286.678" x2="256.824" y2="282.886"/>
<line x1="253.485" y1="276.718" x2="257.277" y2="276.718"/><line x1="255.381" y1="274.821" x2="255.381" y2="278.614"/><line x1="253.485" y1="274.821" x2="257.277" y2="278.614"/><line x1="253.485" y1="278.614" x2="257.277" y2="274.821"/>
<line x1="253.938" y1="282.779" x2="257.73" y2="282.779"/><line x1="255.834" y1="280.883" x2="255.834" y2="284.675"/><line x1="253.938" y1="280.883" x2="257.73" y2="284.675"/><line x1="253.938" y1="284.675" x2="257.73" y2="280.883"/>
<line x1="254.391" y1="289.516" x2="258.183" y2="289.516"/><line x1="256.287" y1="287.62" x2="256.287" y2="291.412"/><line x1="254.391" y1="287.62" x2="258.183" y2="291.412"/><line x1="254.391" y1="291.412" x2="258.183" y2="287.62"/>
<line x1="254.844" y1="301.921" x2="258.636" y2="301.921"/><line x1="256.74" y1="300.025" x2="256.74" y2="303.817"/><line x1="254.844" y1="300.025" x2="258.636" y2="303.817"/><line x1="254.844" y1="303.817" x2="258.636" y2="300.025"/>
<line x1="255.297" y1="302.801" x2="259.09" y2="302.801"/><line x1="257.194" y1="300.905" x2="257.194" y2="304.697"/><line x1="255.297" y1="300.905" x2="259.09" y2="304.697"/><line x1="255.297" y1="304.697" x2="259.09" y2="300.905"/>
<line x1="255.751" y1="298.388" x2="259.543" y2="298.388"/><line x1="257.647" y1="296.492" x2="257.647" y2="300.284"/><line x1="255.751" y1="296.492" x2="259.543" y2="300.284"/><line x1="255.751" y1="300.284" x2="259.543" y2="296.492"/>
<line x1="256.204" y1="308.129" x2="259.996" y2="308.129"/><line x1="258.1" y1="306.233" x2="258.1" y2="310.025"/><line x1="256.204" y1="306.233" x2="259.996" y2="310.025"/><line x1="256.204" y1="310.025" x2="259.996" y2="306.233"/>
<line x1="256.657" y1="318.418" x2="260.449" y2="318.418"/><line x1="258.553" y1="316.522" x2="258.553" y2="320.314"/><line x1="256.657" y1="316.522" x2="260.449" y2="320.314"/><line x1="256.657" y1="320.314" x2="260.449" y2="316.522"/>
<line x1="257.11" y1="314.912" x2="260.903" y2="314.912"/><line x1="259.006" y1="313.016" x2="259.006" y2="316.808"/><line x1="257.11" y1="313.016" x2="260.903" y2="316.808"/><line x1="257.11" y1="316.808" x2="260.903" y2="313.016"/>
<line x1="257.564" y1="315.62" x2="261.356" y2="315.62"/><line x1="259.46" y1="313.724" x2="259.46" y2="317.516"/><line x1="257.564" y1="313.724" x2="261.356" y2="317.516"/><line x1="257.564" y1="317.516" x2="261.356" y2="313.724"/>
<line x1="258.017" y1="325.138" x2="261.809" y2="325.138"/><line x1="259.913" y1="323.242" x2="259.913" y2="327.034"/><line x1="258.017" y1="323.242" x2="261.809" y2="327.034"/><line x1="258.017" y1="327.034" x2="261.809" y2="323.242"/>
<line x1="258.47" y1="332.904" x2="262.262" y2="332.904"/><line x1="260.366" y1="331.007" x2="260.366" y2="334.8"/><line x1="258.47" y1="331.007" x2="262.262" y2="334.8"/><line x1="258.47" y1="334.8" x2="262.262" y2="331.007"/>
<line x1="258.923" y1="338.719" x2="262.715" y2="338.719"/><line x1="260.819" y1="336.823" x2="260.819" y2="340.615"/><line x1="258.923" y1="336.823" x2="262.715" y2="340.615"/><line x1="258.923" y1="340.615" x2="262.715" y2="336.823"/>
<line x1="259.376" y1="340.646" x2="263.169" y2="340.646"/><line x1="261.273" y1="338.75" x2="261.273" y2="342.542"/><line x1="259.376" y1="338.75" x2="263.169" y2="342.542"/><line x1="259.376" y1="342.542" x2="263.169" y2="338.75"/>
<line x1="259.83" y1="338.518" x2="263.622" y2="338.518"/><line x1="261.726" y1="336.622" x2="261.726" y2="340.414"/><line x1="259.83" y1="336.622" x2="263.622" y2="340.414"/><line x1="259.83" y1="340.414" x2="263.622" y2="336.622"/>
<line x1="260.283" y1="339.038" x2="264.075" y2="339.038"/><line x1="262.179" y1="337.142" x2="262.179" y2="340.934"/><line x1="260.283" y1="337.142" x2="264.075" y2="340.934"/><line x1="260.283" y1="340.934" x2="264.075" y2="337.142"/>
<line x1="260.736" y1="341.665" x2="264.528" y2="341.665"/><line x1="262.632" y1="339.769" x2="262.632" y2="343.561"/><line x1="260.736" y1="339.769" x2="264.528" y2="343.561"/><line x1="260.736" y1="343.561" x2="264.528" y2="339.769"/>
<line x1="261.189" y1="349.498" x2="264.982" y2="349.498"/><line x1="263.085" y1="347.602" x2="263.085" y2="351.394"/><line x1="261.189" y1="347.602" x2="264.982" y2="351.394"/><line x1="261.189" y1="351.394" x2="264.982" y2="347.602"/>
<line x1="261.643" y1="339.219" x2="265.435" y2="339.219"/><line x1="263.539" y1="337.323" x2="263.539" y2="341.115"/><line x1="261.643" y1="337.323" x2="265.435" y2="341.115"/><line x1="261.643" y1="341.115" x2="265.435" y2="337.323"/>
<line x1="262.096" y1="328.495" x2="265.888" y2="328.495"/><line x1="263.992" y1="326.599" x2="263.992" y2="330.391"/><line x1="262.096" y1="326.599" x2="265.888" y2="330.391"/><line x1="262.096" y1="330.391" x2="265.888" y2="326.599"/>
<line x1="262.549" y1="324.788" x2="266.341" y2="324.788"/><line x1="264.445" y1="322.892" x2="264.445" y2="326.684"/><line x1="262.549" y1="322.892" x2="266.341" y2="326.684"/><line x1="262.549" y1="326.684" x2="266.341" y2="322.892"/>
<line x1="263.002" y1="325.477" x2="266.794" y2="325.477"/><line x1="264.898" y1="323.58" x2="264.898" y2="327.373"/><line x1="263.002" y1="323.58" x2="266.794" y2="327.373"/><line x1="263.002" y1="327.373" x2="266.794" y2="323.58"/>
<line x1="263.456" y1="317.94" x2="267.248" y2="317.94"/><line x1="265.352" y1="316.044" x2="265.352" y2="319.836"/><line x1="263.456" y1="316.044" x2="267.248" y2="319.836"/><line x1="263.456" y1="319.836" x2="267.248" y2="316.044"/>
<line x1="263.909" y1="313.335" x2="267.701" y2="313.335"/><line x1="265.805" y1="311.439" x2="265.805" y2="315.231"/><line x1="263.909" y1="311.439" x2="267.701" y2="315.231"/><line x1="263.909" y1="315.231" x2="267.701" y2="311.439"/>
<line x1="264.362" y1="308.134" x2="268.154" y2="308.134"/><line x1="266.258" y1="306.238" x2="266.258" y2="310.03"/><line x1="264.362" y1="306.238" x2="268.154" y2="310.03"/><line x1="264.362" y1="310.03" x2="268.154" y2="306.238"/>
<line x1="264.815" y1="307.024" x2="268.607" y2="307.024"/><line x1="266.711" y1="305.128" x2="266.711" y2="308.92"/><line x1="264.815" y1="305.128" x2="268.607" y2="308.92"/><line x1="264.815" y1="308.92" x2="268.607" y2="305.128"/>
<line x1="265.268" y1="307.024" x2="269.061" y2="307.024"/><line x1="267.165" y1="305.127" x2="267.165" y2="308.92"/><line x1="265.268" y1="305.127" x2="269.061" y2="308.92"/><line x1="265.268" y1="308.92" x2="269.061" y2="305.127"/>
<line x1="265.722" y1="302.866" x2="269.514" y2="302.866"/><line x1="267.618" y1="300.97" x2="267.618" y2="304.762"/><line x1="265.722" y1="300.97" x2="269.514" y2="304.762"/><line x1="265.722" y1="304.762" x2="269.514" y2="300.97"/>
<line x1="266.175" y1="305.153" x2="269.967" y2="305.153"/><line x1="268.071" y1="303.257" x2="268.071" y2="307.049"/><line x1="266.175" y1="303.257" x2="269.967" y2="307.049"/><line x1="266.175" y1="307.049" x2="269.967" y2="303.257"/>
<line x1="266.628" y1="310.345" x2="270.42" y2="310.345"/><line x1="268.524" y1="308.449" x2="268.524" y2="312.241"/><line x1="266.628" y1="308.449" x2="270.42" y2="312.241"/><line x1="266.628" y1="312.241" x2="270.42" y2="308.449"/>
<line x1="267.081" y1="315.762" x2="270.874" y2="315.762"/><line x1="268.977" y1="313.866" x2="268.977" y2="317.658"/><line x1="267.081" y1="313.866" x2="270.874" y2="317.658"/><line x1="267.081" y1="317.658" x2="270.874" y2="313.866"/>
<line x1="267.535" y1="317.034" x2="271.327" y2="317.034"/><line x1="269.431" y1="315.138" x2="269.431" y2="318.93"/><line x1="267.535" y1="315.138" x2="271.327" y2="318.93"/><line x1="267.535" y1="318.93" x2="271.327" y2="315.138"/>
<line x1="267.988" y1="321.874" x2="271.78" y2="321.874"/><line x1="269.884" y1="319.978" x2="269.884" y2="323.771"/><line x1="267.988" y1="319.978" x2="271.78" y2="323.771"/><line x1="267.988" y1="323.771" x2="271.78" y2="319.978"/>
<line x1="268.441" y1="313.148" x2="272.233" y2="313.148"/><line x1="270.337" y1="311.252" x2="270.337" y2="315.044"/><line x1="268.441" y1="311.252" x2="272.233" y2="315.044"/><line x1="268.441" y1="315.044" x2="272.233" y2="311.252"/>
<line x1="268.894" y1="322.235" x2="272.686" y2="322.235"/><line x1="270.79" y1="320.338" x2="270.79" y2="324.131"/><line x1="268.894" y1="320.338" x2="272.686" y2="324.131"/><line x1="268.894" y1="324.131" x2="272.686" y2="320.338"/>
<line x1="269.347" y1="323.648" x2="273.14" y2="323.648"/><line x1="271.244" y1="321.752" x2="271.244" y2="325.544"/><line x1="269.347" y1="321.752" x2="273.14" y2="325.544"/><line x1="269.347" y1="325.544" x2="273.14" y2="321.752"/>
<line x1="269.801" y1="317.876" x2="273.593" y2="317.876"/><line x1="271.697" y1="315.98" x2="271.697" y2="319.772"/><line x1="269.801" y1="315.98" x2="273.593" y2="319.772"/><line x1="269.801" y1="319.772" x2="273.593" y2="315.98"/>
<line x1="270.254" y1="306.289" x2="274.046" y2="306.289"/><line x1="272.15" y1="304.393" x2="272.15" y2="308.185"/><line x1="270.254" y1="304.393" x2="274.046" y2="308.185"/><line x1="270.254" y1="308.185" x2="274.046" y2="304.393"/>
<line x1="270.707" y1="299.22" x2="274.499" y2="299.22"/><line x1="272.603" y1="297.324" x2="272.603" y2="301.116"/><line x1="270.707" y1="297.324" x2="274.499" y2="301.116"/><line x1="270.707" y1="301.116" x2="274.499" y2="297.324"/>
<line x1="271.16" y1="311.81" x2="274.953" y2="311.81"/><line x1="273.056" y1="309.914" x2="273.056" y2="313.706"/><line x1="271.16" y1="309.914" x2="274.953" y2="313.706"/><line x1="271.16" y1="313.706" x2="274.953" y2="309.914"/>
<line x1="271.614" y1="311.927" x2="275.406" y2="311.927"/><line x1="273.51" y1="310.031" x2="273.51" y2="313.823"/><line x1="271.614" y1="310.031" x2="275.406" y2="313.823"/><line x1="271.614" y1="313.823" x2="275.406" y2="310.031"/>
<line x1="272.067" y1="318.873" x2="275.859" y2="318.873"/><line x1="273.963" y1="316.977" x2="273.963" y2="320.769"/><line x1="272.067" y1="316.977" x2="275.859" y2="320.769"/><line x1="272.067" y1="320.769" x2="275.859" y2="316.977"/>
<line x1="272.52" y1="319.308" x2="276.312" y2="319.308"/><line x1="274.416" y1="317.412" x2="274.416" y2="321.204"/><line x1="272.52" y1="317.412" x2="276.312" y2="321.204"/><line x1="272.52" y1="321.204" x2="276.312" y2="317.412"/>
<line x1="272.973" y1="320.637" x2="276.765" y2="320.637"/><line x1="274.869" y1="318.741" x2="274.869" y2="322.533"/><line x1="272.973" y1="318.741" x2="276.765" y2="322.533"/><line x1="272.973" y1="322.533" x2="276.765" y2="318.741"/>
<line x1="273.427" y1="322.917" x2="277.219" y2="322.917"/><line x1="275.323" y1="321.021" x2="275.323" y2="324.813"/><line x1="273.427" y1="321.021" x2="277.219" y2="324.813"/><line x1="273.427" y1="324.813" x2="277.219" y2="321.021"/>
<line x1="273.88" y1="320.413" x2="277.672" y2="320.413"/><line x1="275.776" y1="318.517" x2="275.776" y2="322.309"/><line x1="273.88" y1="318.517" x2="277.672" y2="322.309"/><line x1="273.88" y1="322.309" x2="277.672" y2="318.517"/>
<line x1="274.333" y1="319.821" x2="278.125" y2="319.821"/><line x1="276.229" y1="317.924" x2="276.229" y2="321.717"/><line x1="274.333" y1="317.924" x2="278.125" y2="321.717"/><line x1="274.333" y1="321.717" x2="278.125" y2="317.924"/>
<line x1="274.786" y1="321.099" x2="278.578" y2="321.099"/><line x1="276.682" y1="319.203" x2="276.682" y2="322.995"/><line x1="274.786" y1="319.203" x2="278.578" y2="322.995"/><line x1="274.786" y1="322.995" x2="278.578" y2="319.203"/>
<line x1="275.239" y1="320.097" x2="279.032" y2="320.097"/><line x1="277.135" y1="318.201" x2="277.135" y2="321.993"/><line x1="275.239" y1="318.201" x2="279.032" y2="321.993"/><line x1="275.239" y1="321.993" x2="279.032" y2="318.201"/>
<line x1="275.693" y1="321.069" x2="279.485" y2="321.069"/><line x1="277.589" y1="319.173" x2="277.589" y2="322.965"/><line x1="275.693" y1="319.173" x2="279.485" y2="322.965"/><line x1="275.693" y1="322.965" x2="279.485" y2="319.173"/>
<line x1="276.146" y1="322.6" x2="279.938" y2="322.6"/><line x1="278.042" y1="320.704" x2="278.042" y2="324.496"/><line x1="276.146" y1="320.704" x2="279.938" y2="324.496"/><line x1="276.146" y1="324.496" x2="279.938" y2="320.704"/>
<line x1="276.599" y1="324.336" x2="280.391" y2="324.336"/><line x1="278.495" y1="322.44" x2="278.495" y2="326.232"/><line x1="276.599" y1="322.44" x2="280.391" y2="326.232"/><line x1="276.599" y1="326.232" x2="280.391" y2="322.44"/>
<line x1="277.052" y1="328.082" x2="280.844" y2="328.082"/><line x1="278.948" y1="326.186" x2="278.948" y2="329.978"/><line x1="277.052" y1="326.186" x2="280.844" y2="329.978"/><line x1="277.052" y1="329.978" x2="280.844" y2="326.186"/>
<line x1="277.506" y1="333.824" x2="281.298" y2="333.824"/><line x1="279.402" y1="331.928" x2="279.402" y2="335.72"/><line x1="277.506" y1="331.928" x2="281.298" y2="335.72"/><line x1="277.506" y1="335.72" x2="281.298" y2="331.928"/>
<line x1="277.959" y1="339.463" x2="281.751" y2="339.463"/><line x1="279.855" y1="337.567" x2="279.855" y2="341.359"/><line x1="277.959" y1="337.567" x2="281.751" y2="341.359"/><line x1="277.959" y1="341.359" x2="281.751" y2="337.567"/>
<line x1="278.412" y1="339.361" x2="282.204" y2="339.361"/><line x1="280.308" y1="337.465" x2="280.308" y2="341.257"/><line x1="278.412" y1="337.465" x2="282.204" y2="341.257"/><line x1="278.412" y1="341.257" x2="282.204" y2="337.465"/>
<line x1="278.865" y1="347.19" x2="282.657" y2="347.19"/><line x1="280.761" y1="345.293" x2="280.761" y2="349.086"/><line x1="278.865" y1="345.293" x2="282.657" y2="349.086"/><line x1="278.865" y1="349.086" x2="282.657" y2="345.293"/>
<line x1="279.318" y1="334.832" x2="283.111" y2="334.832"/><line x1="281.215" y1="332.936" x2="281.215" y2="336.728"/><line x1="279.318" y1="332.936" x2="283.111" y2="336.728"/><line x1="279.318" y1="336.728" x2="283.111" y2="332.936"/>
<line x1="279.772" y1="339.181" x2="283.564" y2="339.181"/><line x1="281.668" y1="337.285" x2="281.668" y2="341.077"/><line x1="279.772" y1="337.285" x2="283.564" y2="341.077"/><line x1="279.772" y1="341.077" x2="283.564" y2="337.285"/>
<line x1="280.225" y1="342.747" x2="284.017" y2="342.747"/><line x1="282.121" y1="340.851" x2="282.121" y2="344.643"/><line x1="280.225" y1="340.851" x2="284.017" y2="344.643"/><line x1="280.225" y1="344.643" x2="284.017" y2="340.851"/>
<line x1="280.678" y1="343.046" x2="284.47" y2="343.046"/><line x1="282.574" y1="341.149" x2="282.574" y2="344.942"/><line x1="280.678" y1="341.149" x2="284.47" y2="344.942"/><line x1="280.678" y1="344.942" x2="284.47" y2="341.149"/>
<line x1="281.131" y1="340.881" x2="284.924" y2="340.881"/><line x1="283.027" y1="338.985" x2="283.027" y2="342.777"/><line x1="281.131" y1="338.985" x2="284.924" y2="342.777"/><line x1="281.131" y1="342.777" x2="284.924" y2="338.985"/>
<line x1="281.585" y1="348.495" x2="285.377" y2="348.495"/><line x1="283.481" y1="346.599" x2="283.481" y2="350.391"/><line x1="281.585" y1="346.599" x2="285.377" y2="350.391"/><line x1="281.585" y1="350.391" x2="285.377" y2="346.599"/>
<line x1="282.038" y1="356.265" x2="285.83" y2="356.265"/><line x1="283.934" y1="354.369" x2="283.934" y2="358.161"/><line x1="282.038" y1="354.369" x2="285.83" y2="358.161"/><line x1="282.038" y1="358.161" x2="285.83" y2="354.369"/>
<line x1="282.491" y1="346.765" x2="286.283" y2="346.765"/><line x1="284.387" y1="344.869" x2="284.387" y2="348.661"/><line x1="282.491" y1="344.869" x2="286.283" y2="348.661"/><line x1="282.491" y1="348.661" x2="286.283" y2="344.869"/>
<line x1="282.944" y1="348.523" x2="286.736" y2="348.523"/><line x1="284.84" y1="346.627" x2="284.84" y2="350.419"/><line x1="282.944" y1="346.627" x2="286.736" y2="350.419"/><line x1="282.944" y1="350.419" x2="286.736" y2="346.627"/>
<line x1="283.397" y1="344.182" x2="287.19" y2="344.182"/><line x1="285.294" y1="342.286" x2="285.294" y2="346.078"/><line x1="283.397" y1="342.286" x2="287.19" y2="346.078"/><line x1="283.397" y1="346.078" x2="287.19" y2="342.286"/>
<line x1="283.851" y1="346.731" x2="287.643" y2="346.731"/><line x1="285.747" y1="344.835" x2="285.747" y2="348.628"/><line x1="283.851" y1="344.835" x2="287.643" y2="348.628"/><line x1="283.851" y1="348.628" x2="287.643" y2="344.835"/>
<line x1="284.304" y1="347.582" x2="288.096" y2="347.582"/><line x1="286.2" y1="345.686" x2="286.2" y2="349.478"/><line x1="284.304" y1="345.686" x2="288.096" y2="349.478"/><line x1="284.304" y1="349.478" x2="288.096" y2="345.686"/>
<line x1="284.757" y1="345.049" x2="288.549" y2="345.049"/><line x1="286.653" y1="343.153" x2="286.653" y2="346.945"/><line x1="284.757" y1="343.153" x2="288.549" y2="346.945"/><line x1="284.757" y1="346.945" x2="288.549" y2="343.153"/>
<line x1="285.21" y1="342.418" x2="289.003" y2="342.418"/><line x1="287.106" y1="340.522" x2="287.106" y2="344.314"/><line x1="285.21" y1="340.522" x2="289.003" y2="344.314"/><line x1="285.21" y1="344.314" x2="289.003" y2="340.522"/>
<line x1="285.664" y1="341.92" x2="289.456" y2="341.92"/><line x1="287.56" y1="340.024" x2="287.56" y2="343.816"/><line x1="285.664" y1="340.024" x2="289.456" y2="343.816"/><line x1="285.664" y1="343.816" x2="289.456" y2="340.024"/>
<line x1="286.117" y1="338.711" x2="289.909" y2="338.711"/><line x1="288.013" y1="336.815" x2="288.013" y2="340.607"/><line x1="286.117" y1="336.815" x2="289.909" y2="340.607"/><line x1="286.117" y1="340.607" x2="289.909" y2="336.815"/>
<line x1="286.57" y1="343.661" x2="290.362" y2="343.661"/><line x1="288.466" y1="341.765" x2="288.466" y2="345.557"/><line x1="286.57" y1="341.765" x2="290.362" y2="345.557"/><line x1="286.57" y1="345.557" x2="290.362" y2="341.765"/>
<line x1="287.023" y1="350.967" x2="290.815" y2="350.967"/><line x1="288.919" y1="349.071" x2="288.919" y2="352.863"/><line x1="287.023" y1="349.071" x2="290.815" y2="352.863"/><line x1="287.023" y1="352.863" x2="290.815" y2="349.071"/>
<line x1="287.477" y1="353.344" x2="291.269" y2="353.344"/><line x1="289.373" y1="351.448" x2="289.373" y2="355.24"/><line x1="287.477" y1="351.448" x2="291.269" y2="355.24"/><line x1="287.477" y1="355.24" x2="291.269" y2="351.448"/>
<line x1="287.93" y1="350.176" x2="291.722" y2="350.176"/><line x1="289.826" y1="348.28" x2="289.826" y2="352.072"/><line x1="287.93" y1="348.28" x2="291.722" y2="352.072"/><line x1="287.93" y1="352.072" x2="291.722" y2="348.28"/>
<line x1="288.383" y1="347.689" x2="292.175" y2="347.689"/><line x1="290.279" y1="345.793" x2="290.279" y2="349.585"/><line x1="288.383" y1="345.793" x2="292.175" y2="349.585"/><line x1="288.383" y1="349.585" x2="292.175" y2="345.793"/>
<line x1="288.836" y1="341.905" x2="292.628" y2="341.905"/><line x1="290.732" y1="340.009" x2="290.732" y2="343.801"/><line x1="288.836" y1="340.009" x2="292.628" y2="343.801"/><line x1="288.836" y1="343.801" x2="292.628" y2="340.009"/>
<line x1="289.289" y1="338.43" x2="293.082" y2="338.43"/><line x1="291.186" y1="336.534" x2="291.186" y2="340.326"/><line x1="289.289" y1="336.534" x2="293.082" y2="340.326"/><line x1="289.289" y1="340.326" x2="293.082" y2="336.534"/>
<line x1="289.743" y1="340.605" x2="293.535" y2="340.605"/><line x1="291.639" y1="338.709" x2="291.639" y2="342.501"/><line x1="289.743" y1="338.709" x2="293.535" y2="342.501"/><line x1="289.743" y1="342.501" x2="293.535" y2="338.709"/>
<line x1="290.196" y1="328.806" x2="293.988" y2="328.806"/><line x1="292.092" y1="326.909" x2="292.092" y2="330.702"/><line x1="290.196" y1="326.909" x2="293.988" y2="330.702"/><line x1="290.196" y1="330.702" x2="293.988" y2="326.909"/>
<line x1="290.649" y1="322.848" x2="294.441" y2="322.848"/><line x1="292.545" y1="320.952" x2="292.545" y2="324.745"/><line x1="290.649" y1="320.952" x2="294.441" y2="324.745"/><line x1="290.649" y1="324.745" x2="294.441" y2="320.952"/>
<line x1="291.102" y1="325.006" x2="294.895" y2="325.006"/><line x1="292.998" y1="323.11" x2="292.998" y2="326.902"/><line x1="291.102" y1="323.11" x2="294.895" y2="326.902"/><line x1="291.102" y1="326.902" x2="294.895" y2="323.11"/>
<line x1="291.556" y1="324.689" x2="295.348" y2="324.689"/><line x1="293.452" y1="322.793" x2="293.452" y2="326.585"/><line x1="291.556" y1="322.793" x2="295.348" y2="326.585"/><line x1="291.556" y1="326.585" x2="295.348" y2="322.793"/>
<line x1="292.009" y1="320.389" x2="295.801" y2="320.389"/><line x1="293.905" y1="318.493" x2="293.905" y2="322.285"/><line x1="292.009" y1="318.493" x2="295.801" y2="322.285"/><line x1="292.009" y1="322.285" x2="295.801" y2="318.493"/>
<line x1="292.462" y1="323.321" x2="296.254" y2="323.321"/><line x1="294.358" y1="321.425" x2="294.358" y2="325.217"/><line x1="292.462" y1="321.425" x2="296.254" y2="325.217"/><line x1="292.462" y1="325.217" x2="296.254" y2="321.425"/>
<line x1="292.915" y1="314.7" x2="296.707" y2="314.7"/><line x1="294.811" y1="312.804" x2="294.811" y2="316.596"/><line x1="292.915" y1="312.804" x2="296.707" y2="316.596"/><line x1="292.915" y1="316.596" x2="296.707" y2="312.804"/>
<line x1="293.368" y1="308.121" x2="297.161" y2="308.121"/><line x1="295.265" y1="306.224" x2="295.265" y2="310.017"/><line x1="293.368" y1="306.224" x2="297.161" y2="310.017"/><line x1="293.368" y1="310.017" x2="297.161" y2="306.224"/>
<line x1="293.822" y1="305.624" x2="297.614" y2="305.624"/><line x1="295.718" y1="303.728" x2="295.718" y2="307.521"/><line x1="293.822" y1="303.728" x2="297.614" y2="307.521"/><line x1="293.822" y1="307.521" x2="297.614" y2="303.728"/>
<line x1="294.275" y1="302.854" x2="298.067" y2="302.854"/><line x1="296.171" y1="300.958" x2="296.171" y2="304.75"/><line x1="294.275" y1="300.958" x2="298.067" y2="304.75"/><line x1="294.275" y1="304.75" x2="298.067" y2="300.958"/>
<line x1="294.728" y1="302.882" x2="298.52" y2="302.882"/><line x1="296.624" y1="300.986" x2="296.624" y2="304.778"/><line x1="294.728" y1="300.986" x2="298.52" y2="304.778"/><line x1="294.728" y1="304.778" x2="298.52" y2="300.986"/>
<line x1="295.181" y1="295.699" x2="298.974" y2="295.699"/><line x1="297.077" y1="293.803" x2="297.077" y2="297.595"/><line x1="295.181" y1="293.803" x2="298.974" y2="297.595"/><line x1="295.181" y1="297.595" x2="298.974" y2="293.803"/>
<line x1="295.635" y1="297.642" x2="299.427" y2="297.642"/><line x1="297.531" y1="295.746" x2="297.531" y2="299.538"/><line x1="295.635" y1="295.746" x2="299.427" y2="299.538"/><line x1="295.635" y1="299.538" x2="299.427" y2="295.746"/>
<line x1="296.088" y1="296.159" x2="299.88" y2="296.159"/><line x1="297.984" y1="294.263" x2="297.984" y2="298.055"/><line x1="296.088" y1="294.263" x2="299.88" y2="298.055"/><line x1="296.088" y1="298.055" x2="299.88" y2="294.263"/>
<line x1="296.541" y1="302.776" x2="300.333" y2="302.776"/><line x1="298.437" y1="300.88" x2="298.437" y2="304.673"/><line x1="296.541" y1="300.88" x2="300.333" y2="304.673"/><line x1="296.541" y1="304.673" x2="300.333" y2="300.88"/>
<line x1="296.994" y1="301.141" x2="300.786" y2="301.141"/><line x1="298.89" y1="299.245" x2="298.89" y2="303.037"/><line x1="296.994" y1="299.245" x2="300.786" y2="303.037"/><line x1="296.994" y1="303.037" x2="300.786" y2="299.245"/>
<line x1="297.448" y1="291.227" x2="301.24" y2="291.227"/><line x1="299.344" y1="289.331" x2="299.344" y2="293.123"/><line x1="297.448" y1="289.331" x2="301.24" y2="293.123"/><line x1="297.448" y1="293.123" x2="301.24" y2="289.331"/>
<line x1="297.901" y1="291.733" x2="301.693" y2="291.733"/><line x1="299.797" y1="289.837" x2="299.797" y2="293.629"/><line x1="297.901" y1="289.837" x2="301.693" y2="293.629"/><line x1="297.901" y1="293.629" x2="301.693" y2="289.837"/>
<line x1="298.354" y1="290.209" x2="302.146" y2="290.209"/><line x1="300.25" y1="288.313" x2="300.25" y2="292.105"/><line x1="298.354" y1="288.313" x2="302.146" y2="292.105"/><line x1="298.354" y1="292.105" x2="302.146" y2="288.313"/>
<line x1="298.807" y1="294.833" x2="302.599" y2="294.833"/><line x1="300.703" y1="292.937" x2="300.703" y2="296.729"/><line x1="298.807" y1="292.937" x2="302.599" y2="296.729"/><line x1="298.807" y1="296.729" x2="302.599" y2="292.937"/>
<line x1="299.26" y1="305.212" x2="303.053" y2="305.212"/><line x1="301.156" y1="303.316" x2="301.156" y2="307.108"/><line x1="299.26" y1="303.316" x2="303.053" y2="307.108"/><line x1="299.26" y1="307.108" x2="303.053" y2="303.316"/>
<line x1="299.714" y1="302.309" x2="303.506" y2="302.309"/><line x1="301.61" y1="300.413" x2="301.61" y2="304.205"/><line x1="299.714" y1="300.413" x2="303.506" y2="304.205"/><line x1="299.714" y1="304.205" x2="303.506" y2="300.413"/>
<line x1="300.167" y1="302.365" x2="303.959" y2="302.365"/><line x1="302.063" y1="300.469" x2="302.063" y2="304.261"/><line x1="300.167" y1="300.469" x2="303.959" y2="304.261"/><line x1="300.167" y1="304.261" x2="303.959" y2="300.469"/>
<line x1="300.62" y1="302.786" x2="304.412" y2="302.786"/><line x1="302.516" y1="300.89" x2="302.516" y2="304.682"/><line x1="300.62" y1="300.89" x2="304.412" y2="304.682"/><line x1="300.62" y1="304.682" x2="304.412" y2="300.89"/>
<line x1="301.073" y1="306.333" x2="304.865" y2="306.333"/><line x1="302.969" y1="304.437" x2="302.969" y2="308.229"/><line x1="301.073" y1="304.437" x2="304.865" y2="308.229"/><line x1="301.073" y1="308.229" x2="304.865" y2="304.437"/>
<line x1="301.527" y1="309.078" x2="305.319" y2="309.078"/><line x1="303.423" y1="307.182" x2="303.423" y2="310.974"/><line x1="301.527" y1="307.182" x2="305.319" y2="310.974"/><line x1="301.527" y1="310.974" x2="305.319" y2="307.182"/>
<line x1="301.98" y1="308.904" x2="305.772" y2="308.904"/><line x1="303.876" y1="307.008" x2="303.876" y2="310.8"/><line x1="301.98" y1="307.008" x2="305.772" y2="310.8"/><line x1="301.98" y1="310.8" x2="305.772" y2="307.008"/>
<line x1="302.433" y1="317.59" x2="306.225" y2="317.59"/><line x1="304.329" y1="315.694" x2="304.329" y2="319.487"/><line x1="302.433" y1="315.694" x2="306.225" y2="319.487"/><line x1="302.433" y1="319.487" x2="306.225" y2="315.694"/>
<line x1="302.886" y1="322.685" x2="306.678" y2="322.685"/><line x1="304.782" y1="320.789" x2="304.782" y2="324.581"/><line x1="302.886" y1="320.789" x2="306.678" y2="324.581"/><line x1="302.886" y1="324.581" x2="306.678" y2="320.789"/>
<line x1="303.339" y1="316.394" x2="307.132" y2="316.394"/><line x1="305.236" y1="314.497" x2="305.236" y2="318.29"/><line x1="303.339" y1="314.497" x2="307.132" y2="318.29"/><line x1="303.339" y1="318.29" x2="307.132" y2="314.497"/>
<line x1="303.793" y1="314.256" x2="307.585" y2="314.256"/><line x1="305.689" y1="312.36" x2="305.689" y2="316.152"/><line x1="303.793" y1="312.36" x2="307.585" y2="316.152"/><line x1="303.793" y1="316.152" x2="307.585" y2="312.36"/>
<line x1="304.246" y1="314.657" x2="308.038" y2="314.657"/><line x1="306.142" y1="312.761" x2="306.142" y2="316.553"/><line x1="304.246" y1="312.761" x2="308.038" y2="316.553"/><line x1="304.246" y1="316.553" x2="308.038" y2="312.761"/>
<line x1="304.699" y1="318.521" x2="308.491" y2="318.521"/><line x1="306.595" y1="316.625" x2="306.595" y2="320.417"/><line x1="304.699" y1="316.625" x2="308.491" y2="320.417"/><line x1="304.699" y1="320.417" x2="308.491" y2="316.625"/>
<line x1="305.152" y1="322.325" x2="308.945" y2="322.325"/><line x1="307.048" y1="320.429" x2="307.048" y2="324.221"/><line x1="305.152" y1="320.429" x2="308.945" y2="324.221"/><line x1="305.152" y1="324.221" x2="308.945" y2="320.429"/>
<line x1="305.606" y1="323.373" x2="309.398" y2="323.373"/><line x1="307.502" y1="321.477" x2="307.502" y2="325.269"/><line x1="305.606" y1="321.477" x2="309.398" y2="325.269"/><line x1="305.606" y1="325.269" x2="309.398" y2="321.477"/>
<line x1="306.059" y1="320.57" x2="309.851" y2="320.57"/><line x1="307.955" y1="318.674" x2="307.955" y2="322.466"/><line x1="306.059" y1="318.674" x2="309.851" y2="322.466"/><line x1="306.059" y1="322.466" x2="309.851" y2="318.674"/>
<line x1="306.512" y1="323.324" x2="310.304" y2="323.324"/><line x1="308.408" y1="321.428" x2="308.408" y2="325.22"/><line x1="306.512" y1="321.428" x2="310.304" y2="325.22"/><line x1="306.512" y1="325.22" x2="310.304" y2="321.428"/>
<line x1="306.965" y1="328.367" x2="310.757" y2="328.367"/><line x1="308.861" y1="326.471" x2="308.861" y2="330.263"/><line x1="306.965" y1="326.471" x2="310.757" y2="330.263"/><line x1="306.965" y1="330.263" x2="310.757" y2="326.471"/>
<line x1="307.418" y1="322.673" x2="311.211" y2="322.673"/><line x1="309.315" y1="320.777" x2="309.315" y2="324.569"/><line x1="307.418" y1="320.777" x2="311.211" y2="324.569"/><line x1="307.418" y1="324.569" x2="311.211" y2="320.777"/>
<line x1="307.872" y1="323.437" x2="311.664" y2="323.437"/><line x1="309.768" y1="321.541" x2="309.768" y2="325.333"/><line x1="307.872" y1="321.541" x2="311.664" y2="325.333"/><line x1="307.872" y1="325.333" x2="311.664" y2="321.541"/>
<line x1="308.325" y1="326.057" x2="312.117" y2="326.057"/><line x1="310.221" y1="324.161" x2="310.221" y2="327.953"/><line x1="308.325" y1="324.161" x2="312.117" y2="327.953"/><line x1="308.325" y1="327.953" x2="312.117" y2="324.161"/>
<line x1="308.778" y1="324.547" x2="312.57" y2="324.547"/><line x1="310.674" y1="322.651" x2="310.674" y2="326.443"/><line x1="308.778" y1="322.651" x2="312.57" y2="326.443"/><line x1="308.778" y1="326.443" x2="312.57" y2="322.651"/>
<line x1="309.231" y1="323.491" x2="313.024" y2="323.491"/><line x1="311.127" y1="321.595" x2="311.127" y2="325.387"/><line x1="309.231" y1="321.595" x2="313.024" y2="325.387"/><line x1="309.231" y1="325.387" x2="313.024" y2="321.595"/>
<line x1="309.685" y1="321.935" x2="313.477" y2="321.935"/><line x1="311.581" y1="320.038" x2="311.581" y2="323.831"/><line x1="309.685" y1="320.038" x2="313.477" y2="323.831"/><line x1="309.685" y1="323.831" x2="313.477" y2="320.038"/>
<line x1="310.138" y1="323.308" x2="313.93" y2="323.308"/><line x1="312.034" y1="321.412" x2="312.034" y2="325.204"/><line x1="310.138" y1="321.412" x2="313.93" y2="325.204"/><line x1="310.138" y1="325.204" x2="313.93" y2="321.412"/>
<line x1="310.591" y1="319.236" x2="314.383" y2="319.236"/><line x1="312.487" y1="317.34" x2="312.487" y2="321.132"/><line x1="310.591" y1="317.34" x2="314.383" y2="321.132"/><line x1="310.591" y1="321.132" x2="314.383" y2="317.34"/>
<line x1="311.044" y1="301.791" x2="314.836" y2="301.791"/><line x1="312.94" y1="299.895" x2="312.94" y2="303.688"/><line x1="311.044" y1="299.895" x2="314.836" y2="303.688"/><line x1="311.044" y1="303.688" x2="314.836" y2="299.895"/>
<line x1="311.497" y1="302.866" x2="315.29" y2="302.866"/><line x1="313.394" y1="300.97" x2="313.394" y2="304.762"/><line x1="311.497" y1="300.97" x2="315.29" y2="304.762"/><line x1="311.497" y1="304.762" x2="315.29" y2="300.97"/>
<line x1="311.951" y1="309.8" x2="315.743" y2="309.8"/><line x1="313.847" y1="307.904" x2="313.847" y2="311.696"/><line x1="311.951" y1="307.904" x2="315.743" y2="311.696"/><line x1="311.951" y1="311.696" x2="315.743" y2="307.904"/>
<line x1="312.404" y1="307.463" x2="316.196" y2="307.463"/><line x1="314.3" y1="305.567" x2="314.3" y2="309.359"/><line x1="312.404" y1="305.567" x2="316.196" y2="309.359"/><line x1="312.404" y1="309.359" x2="316.196" y2="305.567"/>
<line x1="312.857" y1="310.057" x2="316.649" y2="310.057"/><line x1="314.753" y1="308.161" x2="314.753" y2="311.953"/><line x1="312.857" y1="308.161" x2="316.649" y2="311.953"/><line x1="312.857" y1="311.953" x2="316.649" y2="308.161"/>
<line x1="313.31" y1="305.556" x2="317.103" y2="305.556"/><line x1="315.206" y1="303.66" x2="315.206" y2="307.452"/><line x1="313.31" y1="303.66" x2="317.103" y2="307.452"/><line x1="313.31" y1="307.452" x2="317.103" y2="303.66"/>
<line x1="313.764" y1="304.935" x2="317.556" y2="304.935"/><line x1="315.66" y1="303.039" x2="315.66" y2="306.831"/><line x1="313.764" y1="303.039" x2="317.556" y2="306.831"/><line x1="313.764" y1="306.831" x2="317.556" y2="303.039"/>
<line x1="314.217" y1="310.628" x2="318.009" y2="310.628"/><line x1="316.113" y1="308.732" x2="316.113" y2="312.524"/><line x1="314.217" y1="308.732" x2="318.009" y2="312.524"/><line x1="314.217" y1="312.524" x2="318.009" y2="308.732"/>
<line x1="314.67" y1="306.164" x2="318.462" y2="306.164"/><line x1="316.566" y1="304.268" x2="316.566" y2="308.06"/><line x1="314.67" y1="304.268" x2="318.462" y2="308.06"/><line x1="314.67" y1="308.06" x2="318.462" y2="304.268"/>
<line x1="315.123" y1="306.426" x2="318.915" y2="306.426"/><line x1="317.019" y1="304.53" x2="317.019" y2="308.322"/><line x1="315.123" y1="304.53" x2="318.915" y2="308.322"/><line x1="315.123" y1="308.322" x2="318.915" y2="304.53"/>
<line x1="315.577" y1="307.322" x2="319.369" y2="307.322"/><line x1="317.473" y1="305.426" x2="317.473" y2="309.218"/><line x1="315.577" y1="305.426" x2="319.369" y2="309.218"/><line x1="315.577" y1="309.218" x2="319.369" y2="305.426"/>
<line x1="316.03" y1="304.702" x2="319.822" y2="304.702"/><line x1="317.926" y1="302.806" x2="317.926" y2="306.598"/><line x1="316.03" y1="302.806" x2="319.822" y2="306.598"/><line x1="316.03" y1="306.598" x2="319.822" y2="302.806"/>
<line x1="316.483" y1="299.426" x2="320.275" y2="299.426"/><line x1="318.379" y1="297.53" x2="318.379" y2="301.322"/><line x1="316.483" y1="297.53" x2="320.275" y2="301.322"/><line x1="316.483" y1="301.322" x2="320.275" y2="297.53"/>
<line x1="316.936" y1="292.699" x2="320.728" y2="292.699"/><line x1="318.832" y1="290.803" x2="318.832" y2="294.595"/><line x1="316.936" y1="290.803" x2="320.728" y2="294.595"/><line x1="316.936" y1="294.595" x2="320.728" y2="290.803"/>
<line x1="317.389" y1="287.163" x2="321.182" y2="287.163"/><line x1="319.286" y1="285.267" x2="319.286" y2="289.059"/><line x1="317.389" y1="285.267" x2="321.182" y2="289.059"/><line x1="317.389" y1="289.059" x2="321.182" y2="285.267"/>
<line x1="317.843" y1="287.271" x2="321.635" y2="287.271"/><line x1="319.739" y1="285.375" x2="319.739" y2="289.167"/><line x1="317.843" y1="285.375" x2="321.635" y2="289.167"/><line x1="317.843" y1="289.167" x2="321.635" y2="285.375"/>
<line x1="318.296" y1="284.589" x2="322.088" y2="284.589"/><line x1="320.192" y1="282.693" x2="320.192" y2="286.485"/><line x1="318.296" y1="282.693" x2="322.088" y2="286.485"/><line x1="318.296" y1="286.485" x2="322.088" y2="282.693"/>
<line x1="318.749" y1="281.189" x2="322.541" y2="281.189"/><line x1="320.645" y1="279.293" x2="320.645" y2="283.085"/><line x1="318.749" y1="279.293" x2="322.541" y2="283.085"/><line x1="318.749" y1="283.085" x2="322.541" y2="279.293"/>
<line x1="319.202" y1="276.119" x2="322.995" y2="276.119"/><line x1="321.098" y1="274.223" x2="321.098" y2="278.015"/><line x1="319.202" y1="274.223" x2="322.995" y2="278.015"/><line x1="319.202" y1="278.015" x2="322.995" y2="274.223"/>
<line x1="319.656" y1="276.868" x2="323.448" y2="276.868"/><line x1="321.552" y1="274.972" x2="321.552" y2="278.764"/><line x1="319.656" y1="274.972" x2="323.448" y2="278.764"/><line x1="319.656" y1="278.764" x2="323.448" y2="274.972"/>
<line x1="320.109" y1="276.806" x2="323.901" y2="276.806"/><line x1="322.005" y1="274.91" x2="322.005" y2="278.702"/><line x1="320.109" y1="274.91" x2="323.901" y2="278.702"/><line x1="320.109" y1="278.702" x2="323.901" y2="274.91"/>
<line x1="320.562" y1="280.156" x2="324.354" y2="280.156"/><line x1="322.458" y1="278.26" x2="322.458" y2="282.052"/><line x1="320.562" y1="278.26" x2="324.354" y2="282.052"/><line x1="320.562" y1="282.052" x2="324.354" y2="278.26"/>
<line x1="321.015" y1="283.529" x2="324.807" y2="283.529"/><line x1="322.911" y1="281.633" x2="322.911" y2="285.425"/><line x1="321.015" y1="281.633" x2="324.807" y2="285.425"/><line x1="321.015" y1="285.425" x2="324.807" y2="281.633"/>
<line x1="321.468" y1="281.304" x2="325.261" y2="281.304"/><line x1="323.365" y1="279.408" x2="323.365" y2="283.2"/><line x1="321.468" y1="279.408" x2="325.261" y2="283.2"/><line x1="321.468" y1="283.2" x2="325.261" y2="279.408"/>
<line x1="321.922" y1="282.188" x2="325.714" y2="282.188"/><line x1="323.818" y1="280.292" x2="323.818" y2="284.084"/><line x1="321.922" y1="280.292" x2="325.714" y2="284.084"/><line x1="321.922" y1="284.084" x2="325.714" y2="280.292"/>
<line x1="322.375" y1="264.916" x2="326.167" y2="264.916"/><line x1="324.271" y1="263.02" x2="324.271" y2="266.812"/><line x1="322.375" y1="263.02" x2="326.167" y2="266.812"/><line x1="322.375" y1="266.812" x2="326.167" y2="263.02"/>
<line x1="322.828" y1="259.666" x2="326.62" y2="259.666"/><line x1="324.724" y1="257.77" x2="324.724" y2="261.563"/><line x1="322.828" y1="257.77" x2="326.62" y2="261.563"/><line x1="322.828" y1="261.563" x2="326.62" y2="257.77"/>
<line x1="323.281" y1="261.04" x2="327.074" y2="261.04"/><line x1="325.177" y1="259.144" x2="325.177" y2="262.936"/><line x1="323.281" y1="259.144" x2="327.074" y2="262.936"/><line x1="323.281" y1="262.936" x2="327.074" y2="259.144"/>
<line x1="323.735" y1="265.719" x2="327.527" y2="265.719"/><line x1="325.631" y1="263.823" x2="325.631" y2="267.615"/><line x1="323.735" y1="263.823" x2="327.527" y2="267.615"/><line x1="323.735" y1="267.615" x2="327.527" y2="263.823"/>
<line x1="324.188" y1="265.496" x2="327.98" y2="265.496"/><line x1="326.084" y1="263.599" x2="326.084" y2="267.392"/><line x1="324.188" y1="263.599" x2="327.98" y2="267.392"/><line x1="324.188" y1="267.392" x2="327.98" y2="263.599"/>
<line x1="324.641" y1="259.81" x2="328.433" y2="259.81"/><line x1="326.537" y1="257.914" x2="326.537" y2="261.706"/><line x1="324.641" y1="257.914" x2="328.433" y2="261.706"/><line x1="324.641" y1="261.706" x2="328.433" y2="257.914"/>
<line x1="325.094" y1="257.841" x2="328.886" y2="257.841"/><line x1="326.99" y1="255.945" x2="326.99" y2="259.737"/><line x1="325.094" y1="255.945" x2="328.886" y2="259.737"/><line x1="325.094" y1="259.737" x2="328.886" y2="255.945"/>
<line x1="325.548" y1="251.494" x2="329.34" y2="251.494"/><line x1="327.444" y1="249.598" x2="327.444" y2="253.391"/><line x1="325.548" y1="249.598" x2="329.34" y2="253.391"/><line x1="325.548" y1="253.391" x2="329.34" y2="249.598"/>
<line x1="326.001" y1="241.868" x2="329.793" y2="241.868"/><line x1="327.897" y1="239.972" x2="327.897" y2="243.764"/><line x1="326.001" y1="239.972" x2="329.793" y2="243.764"/><line x1="326.001" y1="243.764" x2="329.793" y2="239.972"/>
<line x1="326.454" y1="242.347" x2="330.246" y2="242.347"/><line x1="328.35" y1="240.451" x2="328.35" y2="244.243"/><line x1="326.454" y1="240.451" x2="330.246" y2="244.243"/><line x1="326.454" y1="244.243" x2="330.246" y2="240.451"/>
<line x1="326.907" y1="245.323" x2="330.699" y2="245.323"/><line x1="328.803" y1="243.427" x2="328.803" y2="247.219"/><line x1="326.907" y1="243.427" x2="330.699" y2="247.219"/><line x1="326.907" y1="247.219" x2="330.699" y2="243.427"/>
<line x1="327.36" y1="239.614" x2="331.153" y2="239.614"/><line x1="329.257" y1="237.718" x2="329.257" y2="241.51"/><line x1="327.36" y1="237.718" x2="331.153" y2="241.51"/><line x1="327.36" y1="241.51" x2="331.153" y2="237.718"/>
<line x1="327.814" y1="240.107" x2="331.606" y2="240.107"/><line x1="329.71" y1="238.211" x2="329.71" y2="242.004"/><line x1="327.814" y1="238.211" x2="331.606" y2="242.004"/><line x1="327.814" y1="242.004" x2="331.606" y2="238.211"/>
<line x1="328.267" y1="225.982" x2="332.059" y2="225.982"/><line x1="330.163" y1="224.085" x2="330.163" y2="227.878"/><line x1="328.267" y1="224.085" x2="332.059" y2="227.878"/><line x1="328.267" y1="227.878" x2="332.059" y2="224.085"/>
<line x1="328.72" y1="230.263" x2="332.512" y2="230.263"/><line x1="330.616" y1="228.367" x2="330.616" y2="232.16"/><line x1="328.72" y1="228.367" x2="332.512" y2="232.16"/><line x1="328.72" y1="232.16" x2="332.512" y2="228.367"/>
<line x1="329.173" y1="223.449" x2="332.965" y2="223.449"/><line x1="331.069" y1="221.553" x2="331.069" y2="225.345"/><line x1="329.173" y1="221.553" x2="332.965" y2="225.345"/><line x1="329.173" y1="225.345" x2="332.965" y2="221.553"/>
<line x1="329.627" y1="224.465" x2="333.419" y2="224.465"/><line x1="331.523" y1="222.569" x2="331.523" y2="226.361"/><line x1="329.627" y1="222.569" x2="333.419" y2="226.361"/><line x1="329.627" y1="226.361" x2="333.419" y2="222.569"/>
<line x1="330.08" y1="228.393" x2="333.872" y2="228.393"/><line x1="331.976" y1="226.497" x2="331.976" y2="230.289"/><line x1="330.08" y1="226.497" x2="333.872" y2="230.289"/><line x1="330.08" y1="230.289" x2="333.872" y2="226.497"/>
<line x1="330.533" y1="225.809" x2="334.325" y2="225.809"/><line x1="332.429" y1="223.912" x2="332.429" y2="227.705"/><line x1="330.533" y1="223.912" x2="334.325" y2="227.705"/><line x1="330.533" y1="227.705" x2="334.325" y2="223.912"/>
<line x1="330.986" y1="222.168" x2="334.778" y2="222.168"/><line x1="332.882" y1="220.272" x2="332.882" y2="224.064"/><line x1="330.986" y1="220.272" x2="334.778" y2="224.064"/><line x1="330.986" y1="224.064" x2="334.778" y2="220.272"/>
<line x1="331.439" y1="221.698" x2="335.232" y2="221.698"/><line x1="333.336" y1="219.802" x2="333.336" y2="223.594"/><line x1="331.439" y1="219.802" x2="335.232" y2="223.594"/><line x1="331.439" y1="223.594" x2="335.232" y2="219.802"/>
<line x1="331.893" y1="223.239" x2="335.685" y2="223.239"/><line x1="333.789" y1="221.343" x2="333.789" y2="225.135"/><line x1="331.893" y1="221.343" x2="335.685" y2="225.135"/><line x1="331.893" y1="225.135" x2="335.685" y2="221.343"/>
<line x1="332.346" y1="213.679" x2="336.138" y2="213.679"/><line x1="334.242" y1="211.783" x2="334.242" y2="215.575"/><line x1="332.346" y1="211.783" x2="336.138" y2="215.575"/><line x1="332.346" y1="215.575" x2="336.138" y2="211.783"/>
<line x1="332.799" y1="216.729" x2="336.591" y2="216.729"/><line x1="334.695" y1="214.832" x2="334.695" y2="218.625"/><line x1="332.799" y1="214.832" x2="336.591" y2="218.625"/><line x1="332.799" y1="218.625" x2="336.591" y2="214.832"/>
<line x1="333.252" y1="218.985" x2="337.045" y2="218.985"/><line x1="335.148" y1="217.089" x2="335.148" y2="220.881"/><line x1="333.252" y1="217.089" x2="337.045" y2="220.881"/><line x1="333.252" y1="220.881" x2="337.045" y2="217.089"/>
<line x1="333.706" y1="215.162" x2="337.498" y2="215.162"/><line x1="335.602" y1="213.266" x2="335.602" y2="217.059"/><line x1="333.706" y1="213.266" x2="337.498" y2="217.059"/><line x1="333.706" y1="217.059" x2="337.498" y2="213.266"/>
<line x1="334.159" y1="204.648" x2="337.951" y2="204.648"/><line x1="336.055" y1="202.752" x2="336.055" y2="206.544"/><line x1="334.159" y1="202.752" x2="337.951" y2="206.544"/><line x1="334.159" y1="206.544" x2="337.951" y2="202.752"/>
<line x1="334.612" y1="200.314" x2="338.404" y2="200.314"/><line x1="336.508" y1="198.418" x2="336.508" y2="202.21"/><line x1="334.612" y1="198.418" x2="338.404" y2="202.21"/><line x1="334.612" y1="202.21" x2="338.404" y2="198.418"/>
<line x1="335.065" y1="190.201" x2="338.857" y2="190.201"/><line x1="336.961" y1="188.305" x2="336.961" y2="192.097"/><line x1="335.065" y1="188.305" x2="338.857" y2="192.097"/><line x1="335.065" y1="192.097" x2="338.857" y2="188.305"/>
<line x1="335.518" y1="191.804" x2="339.311" y2="191.804"/><line x1="337.415" y1="189.908" x2="337.415" y2="193.7"/><line x1="335.518" y1="189.908" x2="339.311" y2="193.7"/><line x1="335.518" y1="193.7" x2="339.311" y2="189.908"/>
<line x1="335.972" y1="190.873" x2="339.764" y2="190.873"/><line x1="337.868" y1="188.977" x2="337.868" y2="192.769"/><line x1="335.972" y1="188.977" x2="339.764" y2="192.769"/><line x1="335.972" y1="192.769" x2="339.764" y2="188.977"/>
<line x1="336.425" y1="188.874" x2="340.217" y2="188.874"/><line x1="338.321" y1="186.978" x2="338.321" y2="190.77"/><line x1="336.425" y1="186.978" x2="340.217" y2="190.77"/><line x1="336.425" y1="190.77" x2="340.217" y2="186.978"/>
<line x1="336.878" y1="191.966" x2="340.67" y2="191.966"/><line x1="338.774" y1="190.069" x2="338.774" y2="193.862"/><line x1="336.878" y1="190.069" x2="340.67" y2="193.862"/><line x1="336.878" y1="193.862" x2="340.67" y2="190.069"/>
<line x1="337.331" y1="186.108" x2="341.124" y2="186.108"/><line x1="339.227" y1="184.212" x2="339.227" y2="188.004"/><line x1="337.331" y1="184.212" x2="341.124" y2="188.004"/><line x1="337.331" y1="188.004" x2="341.124" y2="184.212"/>
<line x1="337.785" y1="187.461" x2="341.577" y2="187.461"/><line x1="339.681" y1="185.565" x2="339.681" y2="189.357"/><line x1="337.785" y1="185.565" x2="341.577" y2="189.357"/><line x1="337.785" y1="189.357" x2="341.577" y2="185.565"/>
<line x1="338.238" y1="180.309" x2="342.03" y2="180.309"/><line x1="340.134" y1="178.413" x2="340.134" y2="182.205"/><line x1="338.238" y1="178.413" x2="342.03" y2="182.205"/><line x1="338.238" y1="182.205" x2="342.03" y2="178.413"/>
<line x1="338.691" y1="180.679" x2="342.483" y2="180.679"/><line x1="340.587" y1="178.783" x2="340.587" y2="182.575"/><line x1="338.691" y1="178.783" x2="342.483" y2="182.575"/><line x1="338.691" y1="182.575" x2="342.483" y2="178.783"/>
<line x1="339.144" y1="174.741" x2="342.936" y2="174.741"/><line x1="341.04" y1="172.845" x2="341.04" y2="176.638"/><line x1="339.144" y1="172.845" x2="342.936" y2="176.638"/><line x1="339.144" y1="176.638" x2="342.936" y2="172.845"/>
<line x1="339.598" y1="178.743" x2="343.39" y2="178.743"/><line x1="341.494" y1="176.847" x2="341.494" y2="180.639"/><line x1="339.598" y1="176.847" x2="343.39" y2="180.639"/><line x1="339.598" y1="180.639" x2="343.39" y2="176.847"/>
<line x1="340.051" y1="175.911" x2="343.843" y2="175.911"/><line x1="341.947" y1="174.015" x2="341.947" y2="177.807"/><line x1="340.051" y1="174.015" x2="343.843" y2="177.807"/><line x1="340.051" y1="177.807" x2="343.843" y2="174.015"/>
<line x1="340.504" y1="170.595" x2="344.296" y2="170.595"/><line x1="342.4" y1="168.699" x2="342.4" y2="172.491"/><line x1="340.504" y1="168.699" x2="344.296" y2="172.491"/><line x1="340.504" y1="172.491" x2="344.296" y2="168.699"/>
<line x1="340.957" y1="177.768" x2="344.749" y2="177.768"/><line x1="342.853" y1="175.872" x2="342.853" y2="179.664"/><line x1="340.957" y1="175.872" x2="344.749" y2="179.664"/><line x1="340.957" y1="179.664" x2="344.749" y2="175.872"/>
<line x1="341.41" y1="186.927" x2="345.203" y2="186.927"/><line x1="343.307" y1="185.031" x2="343.307" y2="188.824"/><line x1="341.41" y1="185.031" x2="345.203" y2="188.824"/><line x1="341.41" y1="188.824" x2="345.203" y2="185.031"/>
<line x1="341.864" y1="179.929" x2="345.656" y2="179.929"/><line x1="343.76" y1="178.033" x2="343.76" y2="181.825"/><line x1="341.864" y1="178.033" x2="345.656" y2="181.825"/><line x1="341.864" y1="181.825" x2="345.656" y2="178.033"/>
<line x1="342.317" y1="175.657" x2="346.109" y2="175.657"/><line x1="344.213" y1="173.761" x2="344.213" y2="177.553"/><line x1="342.317" y1="173.761" x2="346.109" y2="177.553"/><line x1="342.317" y1="177.553" x2="346.109" y2="173.761"/>
<line x1="342.77" y1="173.782" x2="346.562" y2="173.782"/><line x1="344.666" y1="171.886" x2="344.666" y2="175.678"/><line x1="342.77" y1="171.886" x2="346.562" y2="175.678"/><line x1="342.77" y1="175.678" x2="346.562" y2="171.886"/>
<line x1="343.223" y1="165.989" x2="347.016" y2="165.989"/><line x1="345.119" y1="164.093" x2="345.119" y2="167.885"/><line x1="343.223" y1="164.093" x2="347.016" y2="167.885"/><line x1="343.223" y1="167.885" x2="347.016" y2="164.093"/>
<line x1="343.677" y1="167.921" x2="347.469" y2="167.921"/><line x1="345.573" y1="166.024" x2="345.573" y2="169.817"/><line x1="343.677" y1="166.024" x2="347.469" y2="169.817"/><line x1="343.677" y1="169.817" x2="347.469" y2="166.024"/>
<line x1="344.13" y1="166.519" x2="347.922" y2="166.519"/><line x1="346.026" y1="164.623" x2="346.026" y2="168.415"/><line x1="344.13" y1="164.623" x2="347.922" y2="168.415"/><line x1="344.13" y1="168.415" x2="347.922" y2="164.623"/>
<line x1="344.583" y1="158.618" x2="348.375" y2="158.618"/><line x1="346.479" y1="156.722" x2="346.479" y2="160.514"/><line x1="344.583" y1="156.722" x2="348.375" y2="160.514"/><line x1="344.583" y1="160.514" x2="348.375" y2="156.722"/>
<line x1="345.036" y1="156.48" x2="348.828" y2="156.48"/><line x1="346.932" y1="154.584" x2="346.932" y2="158.376"/><line x1="345.036" y1="154.584" x2="348.828" y2="158.376"/><line x1="345.036" y1="158.376" x2="348.828" y2="154.584"/>
<line x1="345.489" y1="154.039" x2="349.282" y2="154.039"/><line x1="347.386" y1="152.143" x2="347.386" y2="155.936"/><line x1="345.489" y1="152.143" x2="349.282" y2="155.936"/><line x1="345.489" y1="155.936" x2="349.282" y2="152.143"/>
<line x1="345.943" y1="156.879" x2="349.735" y2="156.879"/><line x1="347.839" y1="154.983" x2="347.839" y2="158.775"/><line x1="345.943" y1="154.983" x2="349.735" y2="158.775"/><line x1="345.943" y1="158.775" x2="349.735" y2="154.983"/>
<line x1="346.396" y1="160.702" x2="350.188" y2="160.702"/><line x1="348.292" y1="158.806" x2="348.292" y2="162.598"/><line x1="346.396" y1="158.806" x2="350.188" y2="162.598"/><line x1="346.396" y1="162.598" x2="350.188" y2="158.806"/>
<line x1="346.849" y1="156.769" x2="350.641" y2="156.769"/><line x1="348.745" y1="154.873" x2="348.745" y2="158.665"/><line x1="346.849" y1="154.873" x2="350.641" y2="158.665"/><line x1="346.849" y1="158.665" x2="350.641" y2="154.873"/>
<line x1="347.302" y1="158.002" x2="351.095" y2="158.002"/><line x1="349.198" y1="156.106" x2="349.198" y2="159.899"/><line x1="347.302" y1="156.106" x2="351.095" y2="159.899"/><line x1="347.302" y1="159.899" x2="351.095" y2="156.106"/>
<line x1="347.756" y1="152.293" x2="351.548" y2="152.293"/><line x1="349.652" y1="150.397" x2="349.652" y2="154.19"/><line x1="347.756" y1="150.397" x2="351.548" y2="154.19"/><line x1="347.756" y1="154.19" x2="351.548" y2="150.397"/>
<line x1="348.209" y1="150.573" x2="352.001" y2="150.573"/><line x1="350.105" y1="148.677" x2="350.105" y2="152.47"/><line x1="348.209" y1="148.677" x2="352.001" y2="152.47"/><line x1="348.209" y1="152.47" x2="352.001" y2="148.677"/>
<line x1="348.662" y1="140.893" x2="352.454" y2="140.893"/><line x1="350.558" y1="138.997" x2="350.558" y2="142.789"/><line x1="348.662" y1="138.997" x2="352.454" y2="142.789"/><line x1="348.662" y1="142.789" x2="352.454" y2="138.997"/>
<line x1="349.115" y1="136.749" x2="352.907" y2="136.749"/><line x1="351.011" y1="134.853" x2="351.011" y2="138.645"/><line x1="349.115" y1="134.853" x2="352.907" y2="138.645"/><line x1="349.115" y1="138.645" x2="352.907" y2="134.853"/>
<line x1="349.568" y1="138.096" x2="353.361" y2="138.096"/><line x1="351.465" y1="136.2" x2="351.465" y2="139.992"/><line x1="349.568" y1="136.2" x2="353.361" y2="139.992"/><line x1="349.568" y1="139.992" x2="353.361" y2="136.2"/>
<line x1="350.022" y1="130.378" x2="353.814" y2="130.378"/><line x1="351.918" y1="128.482" x2="351.918" y2="132.274"/><line x1="350.022" y1="128.482" x2="353.814" y2="132.274"/><line x1="350.022" y1="132.274" x2="353.814" y2="128.482"/>
<line x1="350.475" y1="126.536" x2="354.267" y2="126.536"/><line x1="352.371" y1="124.64" x2="352.371" y2="128.432"/><line x1="350.475" y1="124.64" x2="354.267" y2="128.432"/><line x1="350.475" y1="128.432" x2="354.267" y2="124.64"/>
<line x1="350.928" y1="122.001" x2="354.72" y2="122.001"/><line x1="352.824" y1="120.105" x2="352.824" y2="123.897"/><line x1="350.928" y1="120.105" x2="354.72" y2="123.897"/><line x1="350.928" y1="123.897" x2="354.72" y2="120.105"/>
<line x1="351.381" y1="117.568" x2="355.174" y2="117.568"/><line x1="353.277" y1="115.672" x2="353.277" y2="119.464"/><line x1="351.381" y1="115.672" x2="355.174" y2="119.464"/><line x1="351.381" y1="119.464" x2="355.174" y2="115.672"/>
<line x1="351.835" y1="113.671" x2="355.627" y2="113.671"/><line x1="353.731" y1="111.775" x2="353.731" y2="115.567"/><line x1="351.835" y1="111.775" x2="355.627" y2="115.567"/><line x1="351.835" y1="115.567" x2="355.627" y2="111.775"/>
<line x1="352.288" y1="114.408" x2="356.08" y2="114.408"/><line x1="354.184" y1="112.512" x2="354.184" y2="116.304"/><line x1="352.288" y1="112.512" x2="356.08" y2="116.304"/><line x1="352.288" y1="116.304" x2="356.08" y2="112.512"/>
<line x1="352.741" y1="108.446" x2="356.533" y2="108.446"/><line x1="354.637" y1="106.55" x2="354.637" y2="110.342"/><line x1="352.741" y1="106.55" x2="356.533" y2="110.342"/><line x1="352.741" y1="110.342" x2="356.533" y2="106.55"/>
<line x1="353.194" y1="105.712" x2="356.986" y2="105.712"/><line x1="355.09" y1="103.815" x2="355.09" y2="107.608"/><line x1="353.194" y1="103.815" x2="356.986" y2="107.608"/><line x1="353.194" y1="107.608" x2="356.986" y2="103.815"/>
<line x1="353.648" y1="101.239" x2="357.44" y2="101.239"/><line x1="355.544" y1="99.3426" x2="355.544" y2="103.135"/><line x1="353.648" y1="99.3426" x2="357.44" y2="103.135"/><line x1="353.648" y1="103.135" x2="357.44" y2="99.3426"/>
<line x1="354.101" y1="98.9384" x2="357.893" y2="98.9384"/><line x1="355.997" y1="97.0423" x2="355.997" y2="100.834"/><line x1="354.101" y1="97.0423" x2="357.893" y2="100.834"/><line x1="354.101" y1="100.834" x2="357.893" y2="97.0423"/>
<line x1="354.554" y1="87.667" x2="358.346" y2="87.667"/><line x1="356.45" y1="85.7709" x2="356.45" y2="89.5631"/><line x1="354.554" y1="85.7709" x2="358.346" y2="89.5631"/><line x1="354.554" y1="89.5631" x2="358.346" y2="85.7709"/>
<line x1="355.007" y1="87.8151" x2="358.799" y2="87.8151"/><line x1="356.903" y1="85.9191" x2="356.903" y2="89.7112"/><line x1="355.007" y1="85.9191" x2="358.799" y2="89.7112"/><line x1="355.007" y1="89.7112" x2="358.799" y2="85.9191"/>
<line x1="355.46" y1="78.7435" x2="359.253" y2="78.7435"/><line x1="357.357" y1="76.8475" x2="357.357" y2="80.6396"/><line x1="355.46" y1="76.8475" x2="359.253" y2="80.6396"/><line x1="355.46" y1="80.6396" x2="359.253" y2="76.8475"/>
<line x1="355.914" y1="68.0461" x2="359.706" y2="68.0461"/><line x1="357.81" y1="66.15" x2="357.81" y2="69.9422"/><line x1="355.914" y1="66.15" x2="359.706" y2="69.9422"/><line x1="355.914" y1="69.9422" x2="359.706" y2="66.15"/>
<line x1="356.367" y1="67.7785" x2="360.159" y2="67.7785"/><line x1="358.263" y1="65.8825" x2="358.263" y2="69.6746"/><line x1="356.367" y1="65.8825" x2="360.159" y2="69.6746"/><line x1="356.367" y1="69.6746" x2="360.159" y2="65.8825"/>
<line x1="356.82" y1="57.5683" x2="360.612" y2="57.5683"/><line x1="358.716" y1="55.6722" x2="358.716" y2="59.4643"/><line x1="356.82" y1="55.6722" x2="360.612" y2="59.4643"/><line x1="356.82" y1="59.4643" x2="360.612" y2="55.6722"/>
<line x1="357.273" y1="43.0698" x2="361.065" y2="43.0698"/><line x1="359.169" y1="41.1737" x2="359.169" y2="44.9659"/><line x1="357.273" y1="41.1737" x2="361.065" y2="44.9659"/><line x1="357.273" y1="44.9659" x2="361.065" y2="41.1737"/>
</g>
<path d="M170.627,353.116h 226.613" fill="none" stroke="#0000ff"/>
<path d="M283.934,372.012v -47.2396" fill="none" stroke="#ff0000"/>
<rect x="57.1929" y="330.677" width="113.386" height="41.3346" fill="white"/>
<path d="M57.1929,372.012h 113.386" fill="none" stroke="black"/>
<path d="M170.579,372.012v -41.3346" fill="none" stroke="black"/>
<path d="M170.579,330.677h -113.386" fill="none" stroke="black"/>
<path d="M57.1929,330.677v 41.3346" fill="none" stroke="black"/>
<text xml:space="preserve" x="85.3498" y="354.568" fill="black" font-size="12.0704" font-family="Helvetica">#p.e of PMTs2</text>
<path d="M61.4449,351.344h 19.8425" fill="none" stroke="black"/></svg>
