<?xml version="1.0" standalone="no"?>
<svg width="567.429" height="413.846" viewBox="0 0 567.429 413.846" xmlns="http://www.w3.org/2000/svg" shape-rendering="crispEdges">
<title>
figures/chi2_3PMTnpedata190929-01.svg
</title>
<desc>
Creator: ROOT Version 6.18/02
CreationDate: Sun Sep 29 20:53:55 2019</desc>
<defs>
</defs>
<rect x="0.5" y="0" width="566.929" height="413.346" fill="white"/>
<rect x="57.1929" y="41.3346" width="453.543" height="330.677" fill="white"/>
<rect x="57.1929" y="41.3346" width="453.543" height="330.677" fill="none" stroke="black"/>
<path d="M57.1929,372.012h 453.543" fill="none" stroke="black"/>
<path d="M71.2473,41.3346v 330.677" fill="none" stroke="black" stroke-dasharray=" 1, 2"/>
<path d="M116.516,41.3346v 330.677" fill="none" stroke="black" stroke-dasharray=" 1, 2"/>
<path d="M161.784,41.3346v 330.677" fill="none" stroke="black" stroke-dasharray=" 1, 2"/>
<path d="M207.052,41.3346v 330.677" fill="none" stroke="black" stroke-dasharray=" 1, 2"/>
<path d="M252.321,41.3346v 330.677" fill="none" stroke="black" stroke-dasharray=" 1, 2"/>
<path d="M297.589,41.3346v 330.677" fill="none" stroke="black" stroke-dasharray=" 1, 2"/>
<path d="M342.857,41.3346v 330.677" fill="none" stroke="black" stroke-dasharray=" 1, 2"/>
<path d="M388.126,41.3346v 330.677" fill="none" stroke="black" stroke-dasharray=" 1, 2"/>
<path d="M433.394,41.3346v 330.677" fill="none" stroke="black" stroke-dasharray=" 1, 2"/>
<path d="M478.662,41.3346v 330.677" fill="none" stroke="black" stroke-dasharray=" 1, 2"/>
<path d="M71.2473,41.3346v 330.677" fill="none" stroke="black" stroke-dasharray=" 1, 2"/>
<path d="M478.662,41.3346v 330.677" fill="none" stroke="black" stroke-dasharray=" 1, 2"/>
<path d="M57.1929,372.012v -330.677" fill="none" stroke="black"/>
<path d="M510.736,368.811h -453.543" fill="none" stroke="black" stroke-dasharray=" 1, 2"/>
<path d="M510.736,305.824h -453.543" fill="none" stroke="black" stroke-dasharray=" 1, 2"/>
<path d="M510.736,242.838h -453.543" fill="none" stroke="black" stroke-dasharray=" 1, 2"/>
<path d="M510.736,179.852h -453.543" fill="none" stroke="black" stroke-dasharray=" 1, 2"/>
<path d="M510.736,116.866h -453.543" fill="none" stroke="black" stroke-dasharray=" 1, 2"/>
<path d="M510.736,53.8801h -453.543" fill="none" stroke="black" stroke-dasharray=" 1, 2"/>
<path d="M510.736,368.811h -453.543" fill="none" stroke="black" stroke-dasharray=" 1, 2"/>
<path d="M510.736,53.8801h -453.543" fill="none" stroke="black" stroke-dasharray=" 1, 2"/>
<path d="M57.1929,372.012h 453.543" fill="none" stroke="black"/>
<path d="M71.2473,362.091v 9.92031" fill="none" stroke="black"/>
<path d="M82.5644,367.052v 4.96016" fill="none" stroke="black"/>
<path d="M93.8815,367.052v 4.96016" fill="none" stroke="black"/>
<path d="M105.199,367.052v 4.96016" fill="none" stroke="black"/>
<path d="M116.516,362.091v 9.92031" fill="none" stroke="black"/>
<path d="M127.833,367.052v 4.96016" fill="none" stroke="black"/>
<path d="M139.15,367.052v 4.96016" fill="none" stroke="black"/>
<path d="M150.467,367.052v 4.96016" fill="none" stroke="black"/>
<path d="M161.784,362.091v 9.92031" fill="none" stroke="black"/>
<path d="M173.101,367.052v 4.96016" fill="none" stroke="black"/>
<path d="M184.418,367.052v 4.96016" fill="none" stroke="black"/>
<path d="M195.735,367.052v 4.96016" fill="none" stroke="black"/>
<path d="M207.052,362.091v 9.92031" fill="none" stroke="black"/>
<path d="M218.369,367.052v 4.96016" fill="none" stroke="black"/>
<path d="M229.686,367.052v 4.96016" fill="none" stroke="black"/>
<path d="M241.004,367.052v 4.96016" fill="none" stroke="black"/>
<path d="M252.321,362.091v 9.92031" fill="none" stroke="black"/>
<path d="M263.638,367.052v 4.96016" fill="none" stroke="black"/>
<path d="M274.955,367.052v 4.96016" fill="none" stroke="black"/>
<path d="M286.272,367.052v 4.96016" fill="none" stroke="black"/>
<path d="M297.589,362.091v 9.92031" fill="none" stroke="black"/>
<path d="M308.906,367.052v 4.96016" fill="none" stroke="black"/>
<path d="M320.223,367.052v 4.96016" fill="none" stroke="black"/>
<path d="M331.54,367.052v 4.96016" fill="none" stroke="black"/>
<path d="M342.857,362.091v 9.92031" fill="none" stroke="black"/>
<path d="M354.174,367.052v 4.96016" fill="none" stroke="black"/>
<path d="M365.491,367.052v 4.96016" fill="none" stroke="black"/>
<path d="M376.809,367.052v 4.96016" fill="none" stroke="black"/>
<path d="M388.126,362.091v 9.92031" fill="none" stroke="black"/>
<path d="M399.443,367.052v 4.96016" fill="none" stroke="black"/>
<path d="M410.76,367.052v 4.96016" fill="none" stroke="black"/>
<path d="M422.077,367.052v 4.96016" fill="none" stroke="black"/>
<path d="M433.394,362.091v 9.92031" fill="none" stroke="black"/>
<path d="M444.711,367.052v 4.96016" fill="none" stroke="black"/>
<path d="M456.028,367.052v 4.96016" fill="none" stroke="black"/>
<path d="M467.345,367.052v 4.96016" fill="none" stroke="black"/>
<path d="M478.662,362.091v 9.92031" fill="none" stroke="black"/>
<path d="M71.2473,362.091v 9.92031" fill="none" stroke="black"/>
<path d="M59.9303,367.052v 4.96016" fill="none" stroke="black"/>
<path d="M478.662,362.091v 9.92031" fill="none" stroke="black"/>
<path d="M489.979,367.052v 4.96016" fill="none" stroke="black"/>
<path d="M501.296,367.052v 4.96016" fill="none" stroke="black"/>
<text xml:space="preserve" x="62.1227" y="385.379" fill="black" font-size="13.7726" font-family="Helvetica">0.7</text>
<text xml:space="preserve" x="103.363" y="385.379" fill="black" font-size="13.7726" font-family="Helvetica">0.72</text>
<text xml:space="preserve" x="148.869" y="385.379" fill="black" font-size="13.7726" font-family="Helvetica">0.74</text>
<text xml:space="preserve" x="193.901" y="385.379" fill="black" font-size="13.7726" font-family="Helvetica">0.76</text>
<text xml:space="preserve" x="239.407" y="385.379" fill="black" font-size="13.7726" font-family="Helvetica">0.78</text>
<text xml:space="preserve" x="288.231" y="385.379" fill="black" font-size="13.7726" font-family="Helvetica">0.8</text>
<text xml:space="preserve" x="329.945" y="385.379" fill="black" font-size="13.7726" font-family="Helvetica">0.82</text>
<text xml:space="preserve" x="374.977" y="385.379" fill="black" font-size="13.7726" font-family="Helvetica">0.84</text>
<text xml:space="preserve" x="420.483" y="385.379" fill="black" font-size="13.7726" font-family="Helvetica">0.86</text>
<text xml:space="preserve" x="465.515" y="385.379" fill="black" font-size="13.7726" font-family="Helvetica">0.88</text>
<text xml:space="preserve" x="413.372" y="400.074" fill="black" font-size="13.7726" font-family="Helvetica">calibration factor</text>
<path d="M57.1929,372.012v -330.677" fill="none" stroke="black"/>
<path d="M70.7992,368.811h -13.6063" fill="none" stroke="black"/>
<path d="M63.9961,353.064h -6.80315" fill="none" stroke="black"/>
<path d="M63.9961,337.318h -6.80315" fill="none" stroke="black"/>
<path d="M63.9961,321.571h -6.80315" fill="none" stroke="black"/>
<path d="M70.7992,305.824h -13.6063" fill="none" stroke="black"/>
<path d="M63.9961,290.078h -6.80315" fill="none" stroke="black"/>
<path d="M63.9961,274.331h -6.80315" fill="none" stroke="black"/>
<path d="M63.9961,258.585h -6.80315" fill="none" stroke="black"/>
<path d="M70.7992,242.838h -13.6063" fill="none" stroke="black"/>
<path d="M63.9961,227.092h -6.80315" fill="none" stroke="black"/>
<path d="M63.9961,211.345h -6.80315" fill="none" stroke="black"/>
<path d="M63.9961,195.599h -6.80315" fill="none" stroke="black"/>
<path d="M70.7992,179.852h -13.6063" fill="none" stroke="black"/>
<path d="M63.9961,164.106h -6.80315" fill="none" stroke="black"/>
<path d="M63.9961,148.359h -6.80315" fill="none" stroke="black"/>
<path d="M63.9961,132.613h -6.80315" fill="none" stroke="black"/>
<path d="M70.7992,116.866h -13.6063" fill="none" stroke="black"/>
<path d="M63.9961,101.12h -6.80315" fill="none" stroke="black"/>
<path d="M63.9961,85.3731h -6.80315" fill="none" stroke="black"/>
<path d="M63.9961,69.6266h -6.80315" fill="none" stroke="black"/>
<path d="M70.7992,53.8801h -13.6063" fill="none" stroke="black"/>
<path d="M70.7992,368.811h -13.6063" fill="none" stroke="black"/>
<path d="M70.7992,53.8801h -13.6063" fill="none" stroke="black"/>
<text xml:space="preserve" x="25.1491" y="373.529" fill="black" font-size="13.7726" font-family="Helvetica">1960</text>
<text xml:space="preserve" x="25.1491" y="310.484" fill="black" font-size="13.7726" font-family="Helvetica">1980</text>
<text xml:space="preserve" x="25.1491" y="247.439" fill="black" font-size="13.7726" font-family="Helvetica">2000</text>
<text xml:space="preserve" x="25.1491" y="184.394" fill="black" font-size="13.7726" font-family="Helvetica">2020</text>
<text xml:space="preserve" x="25.1491" y="121.349" fill="black" font-size="13.7726" font-family="Helvetica">2040</text>
<text xml:space="preserve" x="25.1491" y="58.3046" fill="black" font-size="13.7726" font-family="Helvetica">2060</text>
<g transform="rotate(-90,8.08434,45.98)">
<text xml:space="preserve" x="8.08434" y="45.98" fill="black" font-size="9.34839" font-family="Helvetica">2</text>
</g>
<g transform="rotate(-90,12.3505,50.2462)">
<text xml:space="preserve" x="12.3505" y="50.2462" fill="black" font-size="13.7726" font-family="Helvetica"> </text>
</g>
<g transform="rotate(-90,12.3505,57.3565)">
<text xml:space="preserve" x="12.3505" y="57.3565" fill="black" font-size="13.7726" font-family="Times">&#0967;</text>
</g>
<g stroke="black" stroke-width="1" fill="none">
<line x1="208.778" y1="43.0323" x2="212.57" y2="43.0323"/><line x1="210.674" y1="41.1362" x2="210.674" y2="44.9284"/><line x1="208.778" y1="41.1362" x2="212.57" y2="44.9284"/><line x1="208.778" y1="44.9284" x2="212.57" y2="41.1362"/>
<line x1="209.23" y1="49.51" x2="213.023" y2="49.51"/><line x1="211.126" y1="47.6139" x2="211.126" y2="51.4061"/><line x1="209.23" y1="47.6139" x2="213.023" y2="51.4061"/><line x1="209.23" y1="51.4061" x2="213.023" y2="47.6139"/>
<line x1="209.683" y1="56.8661" x2="213.475" y2="56.8661"/><line x1="211.579" y1="54.97" x2="211.579" y2="58.7622"/><line x1="209.683" y1="54.97" x2="213.475" y2="58.7622"/><line x1="209.683" y1="58.7622" x2="213.475" y2="54.97"/>
<line x1="210.136" y1="61.6328" x2="213.928" y2="61.6328"/><line x1="212.032" y1="59.7368" x2="212.032" y2="63.5289"/><line x1="210.136" y1="59.7368" x2="213.928" y2="63.5289"/><line x1="210.136" y1="63.5289" x2="213.928" y2="59.7368"/>
<line x1="210.588" y1="69.2698" x2="214.381" y2="69.2698"/><line x1="212.485" y1="67.3737" x2="212.485" y2="71.1659"/><line x1="210.588" y1="67.3737" x2="214.381" y2="71.1659"/><line x1="210.588" y1="71.1659" x2="214.381" y2="67.3737"/>
<line x1="211.041" y1="66.7388" x2="214.833" y2="66.7388"/><line x1="212.937" y1="64.8427" x2="212.937" y2="68.6349"/><line x1="211.041" y1="64.8427" x2="214.833" y2="68.6349"/><line x1="211.041" y1="68.6349" x2="214.833" y2="64.8427"/>
<line x1="211.494" y1="74.0456" x2="215.286" y2="74.0456"/><line x1="213.39" y1="72.1495" x2="213.39" y2="75.9417"/><line x1="211.494" y1="72.1495" x2="215.286" y2="75.9417"/><line x1="211.494" y1="75.9417" x2="215.286" y2="72.1495"/>
<line x1="211.946" y1="77.9213" x2="215.739" y2="77.9213"/><line x1="213.843" y1="76.0252" x2="213.843" y2="79.8174"/><line x1="211.946" y1="76.0252" x2="215.739" y2="79.8174"/><line x1="211.946" y1="79.8174" x2="215.739" y2="76.0252"/>
<line x1="212.399" y1="79.7485" x2="216.191" y2="79.7485"/><line x1="214.295" y1="77.8525" x2="214.295" y2="81.6446"/><line x1="212.399" y1="77.8525" x2="216.191" y2="81.6446"/><line x1="212.399" y1="81.6446" x2="216.191" y2="77.8525"/>
<line x1="212.852" y1="85.248" x2="216.644" y2="85.248"/><line x1="214.748" y1="83.3519" x2="214.748" y2="87.1441"/><line x1="212.852" y1="83.3519" x2="216.644" y2="87.1441"/><line x1="212.852" y1="87.1441" x2="216.644" y2="83.3519"/>
<line x1="213.305" y1="85.5868" x2="217.097" y2="85.5868"/><line x1="215.201" y1="83.6908" x2="215.201" y2="87.4829"/><line x1="213.305" y1="83.6908" x2="217.097" y2="87.4829"/><line x1="213.305" y1="87.4829" x2="217.097" y2="83.6908"/>
<line x1="213.757" y1="83.7626" x2="217.549" y2="83.7626"/><line x1="215.653" y1="81.8665" x2="215.653" y2="85.6586"/><line x1="213.757" y1="81.8665" x2="217.549" y2="85.6586"/><line x1="213.757" y1="85.6586" x2="217.549" y2="81.8665"/>
<line x1="214.21" y1="88.341" x2="218.002" y2="88.341"/><line x1="216.106" y1="86.4449" x2="216.106" y2="90.2371"/><line x1="214.21" y1="86.4449" x2="218.002" y2="90.2371"/><line x1="214.21" y1="90.2371" x2="218.002" y2="86.4449"/>
<line x1="214.663" y1="88.814" x2="218.455" y2="88.814"/><line x1="216.559" y1="86.9179" x2="216.559" y2="90.71"/><line x1="214.663" y1="86.9179" x2="218.455" y2="90.71"/><line x1="214.663" y1="90.71" x2="218.455" y2="86.9179"/>
<line x1="215.115" y1="90.0122" x2="218.907" y2="90.0122"/><line x1="217.011" y1="88.1161" x2="217.011" y2="91.9083"/><line x1="215.115" y1="88.1161" x2="218.907" y2="91.9083"/><line x1="215.115" y1="91.9083" x2="218.907" y2="88.1161"/>
<line x1="215.568" y1="98.4732" x2="219.36" y2="98.4732"/><line x1="217.464" y1="96.5771" x2="217.464" y2="100.369"/><line x1="215.568" y1="96.5771" x2="219.36" y2="100.369"/><line x1="215.568" y1="100.369" x2="219.36" y2="96.5771"/>
<line x1="216.021" y1="107.54" x2="219.813" y2="107.54"/><line x1="217.917" y1="105.643" x2="217.917" y2="109.436"/><line x1="216.021" y1="105.643" x2="219.813" y2="109.436"/><line x1="216.021" y1="109.436" x2="219.813" y2="105.643"/>
<line x1="216.473" y1="112.123" x2="220.265" y2="112.123"/><line x1="218.369" y1="110.226" x2="218.369" y2="114.019"/><line x1="216.473" y1="110.226" x2="220.265" y2="114.019"/><line x1="216.473" y1="114.019" x2="220.265" y2="110.226"/>
<line x1="216.926" y1="114.446" x2="220.718" y2="114.446"/><line x1="218.822" y1="112.55" x2="218.822" y2="116.342"/><line x1="216.926" y1="112.55" x2="220.718" y2="116.342"/><line x1="216.926" y1="116.342" x2="220.718" y2="112.55"/>
<line x1="217.379" y1="114.598" x2="221.171" y2="114.598"/><line x1="219.275" y1="112.702" x2="219.275" y2="116.494"/><line x1="217.379" y1="112.702" x2="221.171" y2="116.494"/><line x1="217.379" y1="116.494" x2="221.171" y2="112.702"/>
<line x1="217.831" y1="116.915" x2="221.624" y2="116.915"/><line x1="219.727" y1="115.019" x2="219.727" y2="118.811"/><line x1="217.831" y1="115.019" x2="221.624" y2="118.811"/><line x1="217.831" y1="118.811" x2="221.624" y2="115.019"/>
<line x1="218.284" y1="116.485" x2="222.076" y2="116.485"/><line x1="220.18" y1="114.589" x2="220.18" y2="118.381"/><line x1="218.284" y1="114.589" x2="222.076" y2="118.381"/><line x1="218.284" y1="118.381" x2="222.076" y2="114.589"/>
<line x1="218.737" y1="115.03" x2="222.529" y2="115.03"/><line x1="220.633" y1="113.134" x2="220.633" y2="116.926"/><line x1="218.737" y1="113.134" x2="222.529" y2="116.926"/><line x1="218.737" y1="116.926" x2="222.529" y2="113.134"/>
<line x1="219.189" y1="112.089" x2="222.982" y2="112.089"/><line x1="221.086" y1="110.193" x2="221.086" y2="113.985"/><line x1="219.189" y1="110.193" x2="222.982" y2="113.985"/><line x1="219.189" y1="113.985" x2="222.982" y2="110.193"/>
<line x1="219.642" y1="104.517" x2="223.434" y2="104.517"/><line x1="221.538" y1="102.621" x2="221.538" y2="106.413"/><line x1="219.642" y1="102.621" x2="223.434" y2="106.413"/><line x1="219.642" y1="106.413" x2="223.434" y2="102.621"/>
<line x1="220.095" y1="114.261" x2="223.887" y2="114.261"/><line x1="221.991" y1="112.365" x2="221.991" y2="116.157"/><line x1="220.095" y1="112.365" x2="223.887" y2="116.157"/><line x1="220.095" y1="116.157" x2="223.887" y2="112.365"/>
<line x1="220.547" y1="113.959" x2="224.34" y2="113.959"/><line x1="222.444" y1="112.063" x2="222.444" y2="115.855"/><line x1="220.547" y1="112.063" x2="224.34" y2="115.855"/><line x1="220.547" y1="115.855" x2="224.34" y2="112.063"/>
<line x1="221" y1="129.094" x2="224.792" y2="129.094"/><line x1="222.896" y1="127.198" x2="222.896" y2="130.99"/><line x1="221" y1="127.198" x2="224.792" y2="130.99"/><line x1="221" y1="130.99" x2="224.792" y2="127.198"/>
<line x1="221.453" y1="133.785" x2="225.245" y2="133.785"/><line x1="223.349" y1="131.889" x2="223.349" y2="135.681"/><line x1="221.453" y1="131.889" x2="225.245" y2="135.681"/><line x1="221.453" y1="135.681" x2="225.245" y2="131.889"/>
<line x1="221.906" y1="135.562" x2="225.698" y2="135.562"/><line x1="223.802" y1="133.666" x2="223.802" y2="137.458"/><line x1="221.906" y1="133.666" x2="225.698" y2="137.458"/><line x1="221.906" y1="137.458" x2="225.698" y2="133.666"/>
<line x1="222.358" y1="129.548" x2="226.15" y2="129.548"/><line x1="224.254" y1="127.652" x2="224.254" y2="131.445"/><line x1="222.358" y1="127.652" x2="226.15" y2="131.445"/><line x1="222.358" y1="131.445" x2="226.15" y2="127.652"/>
<line x1="222.811" y1="124.473" x2="226.603" y2="124.473"/><line x1="224.707" y1="122.577" x2="224.707" y2="126.369"/><line x1="222.811" y1="122.577" x2="226.603" y2="126.369"/><line x1="222.811" y1="126.369" x2="226.603" y2="122.577"/>
<line x1="223.264" y1="124.936" x2="227.056" y2="124.936"/><line x1="225.16" y1="123.04" x2="225.16" y2="126.832"/><line x1="223.264" y1="123.04" x2="227.056" y2="126.832"/><line x1="223.264" y1="126.832" x2="227.056" y2="123.04"/>
<line x1="223.716" y1="136.185" x2="227.508" y2="136.185"/><line x1="225.612" y1="134.289" x2="225.612" y2="138.081"/><line x1="223.716" y1="134.289" x2="227.508" y2="138.081"/><line x1="223.716" y1="138.081" x2="227.508" y2="134.289"/>
<line x1="224.169" y1="134.968" x2="227.961" y2="134.968"/><line x1="226.065" y1="133.072" x2="226.065" y2="136.864"/><line x1="224.169" y1="133.072" x2="227.961" y2="136.864"/><line x1="224.169" y1="136.864" x2="227.961" y2="133.072"/>
<line x1="224.622" y1="134.603" x2="228.414" y2="134.603"/><line x1="226.518" y1="132.707" x2="226.518" y2="136.499"/><line x1="224.622" y1="132.707" x2="228.414" y2="136.499"/><line x1="224.622" y1="136.499" x2="228.414" y2="132.707"/>
<line x1="225.074" y1="140.013" x2="228.866" y2="140.013"/><line x1="226.97" y1="138.117" x2="226.97" y2="141.909"/><line x1="225.074" y1="138.117" x2="228.866" y2="141.909"/><line x1="225.074" y1="141.909" x2="228.866" y2="138.117"/>
<line x1="225.527" y1="138.693" x2="229.319" y2="138.693"/><line x1="227.423" y1="136.797" x2="227.423" y2="140.589"/><line x1="225.527" y1="136.797" x2="229.319" y2="140.589"/><line x1="225.527" y1="140.589" x2="229.319" y2="136.797"/>
<line x1="225.98" y1="136.137" x2="229.772" y2="136.137"/><line x1="227.876" y1="134.241" x2="227.876" y2="138.033"/><line x1="225.98" y1="134.241" x2="229.772" y2="138.033"/><line x1="225.98" y1="138.033" x2="229.772" y2="134.241"/>
<line x1="226.432" y1="137.942" x2="230.225" y2="137.942"/><line x1="228.328" y1="136.046" x2="228.328" y2="139.838"/><line x1="226.432" y1="136.046" x2="230.225" y2="139.838"/><line x1="226.432" y1="139.838" x2="230.225" y2="136.046"/>
<line x1="226.885" y1="145.071" x2="230.677" y2="145.071"/><line x1="228.781" y1="143.175" x2="228.781" y2="146.967"/><line x1="226.885" y1="143.175" x2="230.677" y2="146.967"/><line x1="226.885" y1="146.967" x2="230.677" y2="143.175"/>
<line x1="227.338" y1="146.051" x2="231.13" y2="146.051"/><line x1="229.234" y1="144.155" x2="229.234" y2="147.947"/><line x1="227.338" y1="144.155" x2="231.13" y2="147.947"/><line x1="227.338" y1="147.947" x2="231.13" y2="144.155"/>
<line x1="227.79" y1="155.265" x2="231.583" y2="155.265"/><line x1="229.686" y1="153.369" x2="229.686" y2="157.161"/><line x1="227.79" y1="153.369" x2="231.583" y2="157.161"/><line x1="227.79" y1="157.161" x2="231.583" y2="153.369"/>
<line x1="228.243" y1="156.346" x2="232.035" y2="156.346"/><line x1="230.139" y1="154.45" x2="230.139" y2="158.242"/><line x1="228.243" y1="154.45" x2="232.035" y2="158.242"/><line x1="228.243" y1="158.242" x2="232.035" y2="154.45"/>
<line x1="228.696" y1="162.522" x2="232.488" y2="162.522"/><line x1="230.592" y1="160.626" x2="230.592" y2="164.418"/><line x1="228.696" y1="160.626" x2="232.488" y2="164.418"/><line x1="228.696" y1="164.418" x2="232.488" y2="160.626"/>
<line x1="229.148" y1="164.105" x2="232.941" y2="164.105"/><line x1="231.045" y1="162.209" x2="231.045" y2="166.001"/><line x1="229.148" y1="162.209" x2="232.941" y2="166.001"/><line x1="229.148" y1="166.001" x2="232.941" y2="162.209"/>
<line x1="229.601" y1="165.722" x2="233.393" y2="165.722"/><line x1="231.497" y1="163.826" x2="231.497" y2="167.618"/><line x1="229.601" y1="163.826" x2="233.393" y2="167.618"/><line x1="229.601" y1="167.618" x2="233.393" y2="163.826"/>
<line x1="230.054" y1="171.232" x2="233.846" y2="171.232"/><line x1="231.95" y1="169.336" x2="231.95" y2="173.128"/><line x1="230.054" y1="169.336" x2="233.846" y2="173.128"/><line x1="230.054" y1="173.128" x2="233.846" y2="169.336"/>
<line x1="230.507" y1="171.172" x2="234.299" y2="171.172"/><line x1="232.403" y1="169.276" x2="232.403" y2="173.069"/><line x1="230.507" y1="169.276" x2="234.299" y2="173.069"/><line x1="230.507" y1="173.069" x2="234.299" y2="169.276"/>
<line x1="230.959" y1="177.97" x2="234.751" y2="177.97"/><line x1="232.855" y1="176.074" x2="232.855" y2="179.866"/><line x1="230.959" y1="176.074" x2="234.751" y2="179.866"/><line x1="230.959" y1="179.866" x2="234.751" y2="176.074"/>
<line x1="231.412" y1="165.642" x2="235.204" y2="165.642"/><line x1="233.308" y1="163.746" x2="233.308" y2="167.538"/><line x1="231.412" y1="163.746" x2="235.204" y2="167.538"/><line x1="231.412" y1="167.538" x2="235.204" y2="163.746"/>
<line x1="231.865" y1="163.319" x2="235.657" y2="163.319"/><line x1="233.761" y1="161.423" x2="233.761" y2="165.215"/><line x1="231.865" y1="161.423" x2="235.657" y2="165.215"/><line x1="231.865" y1="165.215" x2="235.657" y2="161.423"/>
<line x1="232.317" y1="173.478" x2="236.109" y2="173.478"/><line x1="234.213" y1="171.582" x2="234.213" y2="175.374"/><line x1="232.317" y1="171.582" x2="236.109" y2="175.374"/><line x1="232.317" y1="175.374" x2="236.109" y2="171.582"/>
<line x1="232.77" y1="165.923" x2="236.562" y2="165.923"/><line x1="234.666" y1="164.027" x2="234.666" y2="167.819"/><line x1="232.77" y1="164.027" x2="236.562" y2="167.819"/><line x1="232.77" y1="167.819" x2="236.562" y2="164.027"/>
<line x1="233.223" y1="165.62" x2="237.015" y2="165.62"/><line x1="235.119" y1="163.724" x2="235.119" y2="167.516"/><line x1="233.223" y1="163.724" x2="237.015" y2="167.516"/><line x1="233.223" y1="167.516" x2="237.015" y2="163.724"/>
<line x1="233.675" y1="164.655" x2="237.467" y2="164.655"/><line x1="235.571" y1="162.759" x2="235.571" y2="166.551"/><line x1="233.675" y1="162.759" x2="237.467" y2="166.551"/><line x1="233.675" y1="166.551" x2="237.467" y2="162.759"/>
<line x1="234.128" y1="161.689" x2="237.92" y2="161.689"/><line x1="236.024" y1="159.793" x2="236.024" y2="163.585"/><line x1="234.128" y1="159.793" x2="237.92" y2="163.585"/><line x1="234.128" y1="163.585" x2="237.92" y2="159.793"/>
<line x1="234.581" y1="165.173" x2="238.373" y2="165.173"/><line x1="236.477" y1="163.277" x2="236.477" y2="167.069"/><line x1="234.581" y1="163.277" x2="238.373" y2="167.069"/><line x1="234.581" y1="167.069" x2="238.373" y2="163.277"/>
<line x1="235.033" y1="165.774" x2="238.826" y2="165.774"/><line x1="236.929" y1="163.878" x2="236.929" y2="167.67"/><line x1="235.033" y1="163.878" x2="238.826" y2="167.67"/><line x1="235.033" y1="167.67" x2="238.826" y2="163.878"/>
<line x1="235.486" y1="173.224" x2="239.278" y2="173.224"/><line x1="237.382" y1="171.328" x2="237.382" y2="175.12"/><line x1="235.486" y1="171.328" x2="239.278" y2="175.12"/><line x1="235.486" y1="175.12" x2="239.278" y2="171.328"/>
<line x1="235.939" y1="182.455" x2="239.731" y2="182.455"/><line x1="237.835" y1="180.559" x2="237.835" y2="184.351"/><line x1="235.939" y1="180.559" x2="239.731" y2="184.351"/><line x1="235.939" y1="184.351" x2="239.731" y2="180.559"/>
<line x1="236.391" y1="192.892" x2="240.184" y2="192.892"/><line x1="238.287" y1="190.996" x2="238.287" y2="194.788"/><line x1="236.391" y1="190.996" x2="240.184" y2="194.788"/><line x1="236.391" y1="194.788" x2="240.184" y2="190.996"/>
<line x1="236.844" y1="195.304" x2="240.636" y2="195.304"/><line x1="238.74" y1="193.408" x2="238.74" y2="197.2"/><line x1="236.844" y1="193.408" x2="240.636" y2="197.2"/><line x1="236.844" y1="197.2" x2="240.636" y2="193.408"/>
<line x1="237.297" y1="197.049" x2="241.089" y2="197.049"/><line x1="239.193" y1="195.153" x2="239.193" y2="198.945"/><line x1="237.297" y1="195.153" x2="241.089" y2="198.945"/><line x1="237.297" y1="198.945" x2="241.089" y2="195.153"/>
<line x1="237.749" y1="197.586" x2="241.542" y2="197.586"/><line x1="239.646" y1="195.69" x2="239.646" y2="199.482"/><line x1="237.749" y1="195.69" x2="241.542" y2="199.482"/><line x1="237.749" y1="199.482" x2="241.542" y2="195.69"/>
<line x1="238.202" y1="203.183" x2="241.994" y2="203.183"/><line x1="240.098" y1="201.287" x2="240.098" y2="205.08"/><line x1="238.202" y1="201.287" x2="241.994" y2="205.08"/><line x1="238.202" y1="205.08" x2="241.994" y2="201.287"/>
<line x1="238.655" y1="199.127" x2="242.447" y2="199.127"/><line x1="240.551" y1="197.23" x2="240.551" y2="201.023"/><line x1="238.655" y1="197.23" x2="242.447" y2="201.023"/><line x1="238.655" y1="201.023" x2="242.447" y2="197.23"/>
<line x1="239.107" y1="203.254" x2="242.9" y2="203.254"/><line x1="241.004" y1="201.358" x2="241.004" y2="205.15"/><line x1="239.107" y1="201.358" x2="242.9" y2="205.15"/><line x1="239.107" y1="205.15" x2="242.9" y2="201.358"/>
<line x1="239.56" y1="196.894" x2="243.352" y2="196.894"/><line x1="241.456" y1="194.998" x2="241.456" y2="198.79"/><line x1="239.56" y1="194.998" x2="243.352" y2="198.79"/><line x1="239.56" y1="198.79" x2="243.352" y2="194.998"/>
<line x1="240.013" y1="194.06" x2="243.805" y2="194.06"/><line x1="241.909" y1="192.163" x2="241.909" y2="195.956"/><line x1="240.013" y1="192.163" x2="243.805" y2="195.956"/><line x1="240.013" y1="195.956" x2="243.805" y2="192.163"/>
<line x1="240.466" y1="195.166" x2="244.258" y2="195.166"/><line x1="242.362" y1="193.27" x2="242.362" y2="197.062"/><line x1="240.466" y1="193.27" x2="244.258" y2="197.062"/><line x1="240.466" y1="197.062" x2="244.258" y2="193.27"/>
<line x1="240.918" y1="199.152" x2="244.71" y2="199.152"/><line x1="242.814" y1="197.255" x2="242.814" y2="201.048"/><line x1="240.918" y1="197.255" x2="244.71" y2="201.048"/><line x1="240.918" y1="201.048" x2="244.71" y2="197.255"/>
<line x1="241.371" y1="195.274" x2="245.163" y2="195.274"/><line x1="243.267" y1="193.378" x2="243.267" y2="197.17"/><line x1="241.371" y1="193.378" x2="245.163" y2="197.17"/><line x1="241.371" y1="197.17" x2="245.163" y2="193.378"/>
<line x1="241.824" y1="205.788" x2="245.616" y2="205.788"/><line x1="243.72" y1="203.891" x2="243.72" y2="207.684"/><line x1="241.824" y1="203.891" x2="245.616" y2="207.684"/><line x1="241.824" y1="207.684" x2="245.616" y2="203.891"/>
<line x1="242.276" y1="210.43" x2="246.068" y2="210.43"/><line x1="244.172" y1="208.533" x2="244.172" y2="212.326"/><line x1="242.276" y1="208.533" x2="246.068" y2="212.326"/><line x1="242.276" y1="212.326" x2="246.068" y2="208.533"/>
<line x1="242.729" y1="212.02" x2="246.521" y2="212.02"/><line x1="244.625" y1="210.124" x2="244.625" y2="213.916"/><line x1="242.729" y1="210.124" x2="246.521" y2="213.916"/><line x1="242.729" y1="213.916" x2="246.521" y2="210.124"/>
<line x1="243.182" y1="219.998" x2="246.974" y2="219.998"/><line x1="245.078" y1="218.102" x2="245.078" y2="221.894"/><line x1="243.182" y1="218.102" x2="246.974" y2="221.894"/><line x1="243.182" y1="221.894" x2="246.974" y2="218.102"/>
<line x1="243.634" y1="232.612" x2="247.426" y2="232.612"/><line x1="245.53" y1="230.716" x2="245.53" y2="234.508"/><line x1="243.634" y1="230.716" x2="247.426" y2="234.508"/><line x1="243.634" y1="234.508" x2="247.426" y2="230.716"/>
<line x1="244.087" y1="236.071" x2="247.879" y2="236.071"/><line x1="245.983" y1="234.174" x2="245.983" y2="237.967"/><line x1="244.087" y1="234.174" x2="247.879" y2="237.967"/><line x1="244.087" y1="237.967" x2="247.879" y2="234.174"/>
<line x1="244.54" y1="238.91" x2="248.332" y2="238.91"/><line x1="246.436" y1="237.014" x2="246.436" y2="240.806"/><line x1="244.54" y1="237.014" x2="248.332" y2="240.806"/><line x1="244.54" y1="240.806" x2="248.332" y2="237.014"/>
<line x1="244.992" y1="240.896" x2="248.785" y2="240.896"/><line x1="246.888" y1="239" x2="246.888" y2="242.793"/><line x1="244.992" y1="239" x2="248.785" y2="242.793"/><line x1="244.992" y1="242.793" x2="248.785" y2="239"/>
<line x1="245.445" y1="252.486" x2="249.237" y2="252.486"/><line x1="247.341" y1="250.59" x2="247.341" y2="254.383"/><line x1="245.445" y1="250.59" x2="249.237" y2="254.383"/><line x1="245.445" y1="254.383" x2="249.237" y2="250.59"/>
<line x1="245.898" y1="260.699" x2="249.69" y2="260.699"/><line x1="247.794" y1="258.803" x2="247.794" y2="262.595"/><line x1="245.898" y1="258.803" x2="249.69" y2="262.595"/><line x1="245.898" y1="262.595" x2="249.69" y2="258.803"/>
<line x1="246.35" y1="266.186" x2="250.143" y2="266.186"/><line x1="248.247" y1="264.29" x2="248.247" y2="268.082"/><line x1="246.35" y1="264.29" x2="250.143" y2="268.082"/><line x1="246.35" y1="268.082" x2="250.143" y2="264.29"/>
<line x1="246.803" y1="263.372" x2="250.595" y2="263.372"/><line x1="248.699" y1="261.476" x2="248.699" y2="265.268"/><line x1="246.803" y1="261.476" x2="250.595" y2="265.268"/><line x1="246.803" y1="265.268" x2="250.595" y2="261.476"/>
<line x1="247.256" y1="263.581" x2="251.048" y2="263.581"/><line x1="249.152" y1="261.685" x2="249.152" y2="265.477"/><line x1="247.256" y1="261.685" x2="251.048" y2="265.477"/><line x1="247.256" y1="265.477" x2="251.048" y2="261.685"/>
<line x1="247.708" y1="262.549" x2="251.501" y2="262.549"/><line x1="249.605" y1="260.653" x2="249.605" y2="264.445"/><line x1="247.708" y1="260.653" x2="251.501" y2="264.445"/><line x1="247.708" y1="264.445" x2="251.501" y2="260.653"/>
<line x1="248.161" y1="265.936" x2="251.953" y2="265.936"/><line x1="250.057" y1="264.04" x2="250.057" y2="267.832"/><line x1="248.161" y1="264.04" x2="251.953" y2="267.832"/><line x1="248.161" y1="267.832" x2="251.953" y2="264.04"/>
<line x1="248.614" y1="268.116" x2="252.406" y2="268.116"/><line x1="250.51" y1="266.22" x2="250.51" y2="270.012"/><line x1="248.614" y1="266.22" x2="252.406" y2="270.012"/><line x1="248.614" y1="270.012" x2="252.406" y2="266.22"/>
<line x1="249.067" y1="269.893" x2="252.859" y2="269.893"/><line x1="250.963" y1="267.997" x2="250.963" y2="271.789"/><line x1="249.067" y1="267.997" x2="252.859" y2="271.789"/><line x1="249.067" y1="271.789" x2="252.859" y2="267.997"/>
<line x1="249.519" y1="271.507" x2="253.311" y2="271.507"/><line x1="251.415" y1="269.611" x2="251.415" y2="273.403"/><line x1="249.519" y1="269.611" x2="253.311" y2="273.403"/><line x1="249.519" y1="273.403" x2="253.311" y2="269.611"/>
<line x1="249.972" y1="275.797" x2="253.764" y2="275.797"/><line x1="251.868" y1="273.901" x2="251.868" y2="277.693"/><line x1="249.972" y1="273.901" x2="253.764" y2="277.693"/><line x1="249.972" y1="277.693" x2="253.764" y2="273.901"/>
<line x1="250.425" y1="277.721" x2="254.217" y2="277.721"/><line x1="252.321" y1="275.825" x2="252.321" y2="279.617"/><line x1="250.425" y1="275.825" x2="254.217" y2="279.617"/><line x1="250.425" y1="279.617" x2="254.217" y2="275.825"/>
<line x1="250.877" y1="283.416" x2="254.669" y2="283.416"/><line x1="252.773" y1="281.52" x2="252.773" y2="285.312"/><line x1="250.877" y1="281.52" x2="254.669" y2="285.312"/><line x1="250.877" y1="285.312" x2="254.669" y2="281.52"/>
<line x1="251.33" y1="284.667" x2="255.122" y2="284.667"/><line x1="253.226" y1="282.771" x2="253.226" y2="286.563"/><line x1="251.33" y1="282.771" x2="255.122" y2="286.563"/><line x1="251.33" y1="286.563" x2="255.122" y2="282.771"/>
<line x1="251.783" y1="284.327" x2="255.575" y2="284.327"/><line x1="253.679" y1="282.431" x2="253.679" y2="286.223"/><line x1="251.783" y1="282.431" x2="255.575" y2="286.223"/><line x1="251.783" y1="286.223" x2="255.575" y2="282.431"/>
<line x1="252.235" y1="282.094" x2="256.027" y2="282.094"/><line x1="254.131" y1="280.198" x2="254.131" y2="283.99"/><line x1="252.235" y1="280.198" x2="256.027" y2="283.99"/><line x1="252.235" y1="283.99" x2="256.027" y2="280.198"/>
<line x1="252.688" y1="284.736" x2="256.48" y2="284.736"/><line x1="254.584" y1="282.839" x2="254.584" y2="286.632"/><line x1="252.688" y1="282.839" x2="256.48" y2="286.632"/><line x1="252.688" y1="286.632" x2="256.48" y2="282.839"/>
<line x1="253.141" y1="286.22" x2="256.933" y2="286.22"/><line x1="255.037" y1="284.324" x2="255.037" y2="288.116"/><line x1="253.141" y1="284.324" x2="256.933" y2="288.116"/><line x1="253.141" y1="288.116" x2="256.933" y2="284.324"/>
<line x1="253.593" y1="302.402" x2="257.386" y2="302.402"/><line x1="255.489" y1="300.506" x2="255.489" y2="304.298"/><line x1="253.593" y1="300.506" x2="257.386" y2="304.298"/><line x1="253.593" y1="304.298" x2="257.386" y2="300.506"/>
<line x1="254.046" y1="301.743" x2="257.838" y2="301.743"/><line x1="255.942" y1="299.847" x2="255.942" y2="303.639"/><line x1="254.046" y1="299.847" x2="257.838" y2="303.639"/><line x1="254.046" y1="303.639" x2="257.838" y2="299.847"/>
<line x1="254.499" y1="307.063" x2="258.291" y2="307.063"/><line x1="256.395" y1="305.167" x2="256.395" y2="308.959"/><line x1="254.499" y1="305.167" x2="258.291" y2="308.959"/><line x1="254.499" y1="308.959" x2="258.291" y2="305.167"/>
<line x1="254.951" y1="302.08" x2="258.744" y2="302.08"/><line x1="256.848" y1="300.184" x2="256.848" y2="303.976"/><line x1="254.951" y1="300.184" x2="258.744" y2="303.976"/><line x1="254.951" y1="303.976" x2="258.744" y2="300.184"/>
<line x1="255.404" y1="304.801" x2="259.196" y2="304.801"/><line x1="257.3" y1="302.905" x2="257.3" y2="306.697"/><line x1="255.404" y1="302.905" x2="259.196" y2="306.697"/><line x1="255.404" y1="306.697" x2="259.196" y2="302.905"/>
<line x1="255.857" y1="304.465" x2="259.649" y2="304.465"/><line x1="257.753" y1="302.569" x2="257.753" y2="306.361"/><line x1="255.857" y1="302.569" x2="259.649" y2="306.361"/><line x1="255.857" y1="306.361" x2="259.649" y2="302.569"/>
<line x1="256.309" y1="308.156" x2="260.102" y2="308.156"/><line x1="258.206" y1="306.26" x2="258.206" y2="310.052"/><line x1="256.309" y1="306.26" x2="260.102" y2="310.052"/><line x1="256.309" y1="310.052" x2="260.102" y2="306.26"/>
<line x1="256.762" y1="310.389" x2="260.554" y2="310.389"/><line x1="258.658" y1="308.493" x2="258.658" y2="312.285"/><line x1="256.762" y1="308.493" x2="260.554" y2="312.285"/><line x1="256.762" y1="312.285" x2="260.554" y2="308.493"/>
<line x1="257.215" y1="307.071" x2="261.007" y2="307.071"/><line x1="259.111" y1="305.175" x2="259.111" y2="308.967"/><line x1="257.215" y1="305.175" x2="261.007" y2="308.967"/><line x1="257.215" y1="308.967" x2="261.007" y2="305.175"/>
<line x1="257.668" y1="309.634" x2="261.46" y2="309.634"/><line x1="259.564" y1="307.738" x2="259.564" y2="311.53"/><line x1="257.668" y1="307.738" x2="261.46" y2="311.53"/><line x1="257.668" y1="311.53" x2="261.46" y2="307.738"/>
<line x1="258.12" y1="311.594" x2="261.912" y2="311.594"/><line x1="260.016" y1="309.698" x2="260.016" y2="313.49"/><line x1="258.12" y1="309.698" x2="261.912" y2="313.49"/><line x1="258.12" y1="313.49" x2="261.912" y2="309.698"/>
<line x1="258.573" y1="310.008" x2="262.365" y2="310.008"/><line x1="260.469" y1="308.112" x2="260.469" y2="311.904"/><line x1="258.573" y1="308.112" x2="262.365" y2="311.904"/><line x1="258.573" y1="311.904" x2="262.365" y2="308.112"/>
<line x1="259.026" y1="304.169" x2="262.818" y2="304.169"/><line x1="260.922" y1="302.273" x2="260.922" y2="306.065"/><line x1="259.026" y1="302.273" x2="262.818" y2="306.065"/><line x1="259.026" y1="306.065" x2="262.818" y2="302.273"/>
<line x1="259.478" y1="300.274" x2="263.27" y2="300.274"/><line x1="261.374" y1="298.378" x2="261.374" y2="302.17"/><line x1="259.478" y1="298.378" x2="263.27" y2="302.17"/><line x1="259.478" y1="302.17" x2="263.27" y2="298.378"/>
<line x1="259.931" y1="307.312" x2="263.723" y2="307.312"/><line x1="261.827" y1="305.416" x2="261.827" y2="309.208"/><line x1="259.931" y1="305.416" x2="263.723" y2="309.208"/><line x1="259.931" y1="309.208" x2="263.723" y2="305.416"/>
<line x1="260.384" y1="303.847" x2="264.176" y2="303.847"/><line x1="262.28" y1="301.951" x2="262.28" y2="305.743"/><line x1="260.384" y1="301.951" x2="264.176" y2="305.743"/><line x1="260.384" y1="305.743" x2="264.176" y2="301.951"/>
<line x1="260.836" y1="300.451" x2="264.628" y2="300.451"/><line x1="262.732" y1="298.555" x2="262.732" y2="302.347"/><line x1="260.836" y1="298.555" x2="264.628" y2="302.347"/><line x1="260.836" y1="302.347" x2="264.628" y2="298.555"/>
<line x1="261.289" y1="289.569" x2="265.081" y2="289.569"/><line x1="263.185" y1="287.673" x2="263.185" y2="291.465"/><line x1="261.289" y1="287.673" x2="265.081" y2="291.465"/><line x1="261.289" y1="291.465" x2="265.081" y2="287.673"/>
<line x1="261.742" y1="302.002" x2="265.534" y2="302.002"/><line x1="263.638" y1="300.105" x2="263.638" y2="303.898"/><line x1="261.742" y1="300.105" x2="265.534" y2="303.898"/><line x1="261.742" y1="303.898" x2="265.534" y2="300.105"/>
<line x1="262.194" y1="306.755" x2="265.987" y2="306.755"/><line x1="264.09" y1="304.859" x2="264.09" y2="308.651"/><line x1="262.194" y1="304.859" x2="265.987" y2="308.651"/><line x1="262.194" y1="308.651" x2="265.987" y2="304.859"/>
<line x1="262.647" y1="305.441" x2="266.439" y2="305.441"/><line x1="264.543" y1="303.544" x2="264.543" y2="307.337"/><line x1="262.647" y1="303.544" x2="266.439" y2="307.337"/><line x1="262.647" y1="307.337" x2="266.439" y2="303.544"/>
<line x1="263.1" y1="308.906" x2="266.892" y2="308.906"/><line x1="264.996" y1="307.01" x2="264.996" y2="310.802"/><line x1="263.1" y1="307.01" x2="266.892" y2="310.802"/><line x1="263.1" y1="310.802" x2="266.892" y2="307.01"/>
<line x1="263.552" y1="310.213" x2="267.345" y2="310.213"/><line x1="265.448" y1="308.317" x2="265.448" y2="312.109"/><line x1="263.552" y1="308.317" x2="267.345" y2="312.109"/><line x1="263.552" y1="312.109" x2="267.345" y2="308.317"/>
<line x1="264.005" y1="304.298" x2="267.797" y2="304.298"/><line x1="265.901" y1="302.402" x2="265.901" y2="306.194"/><line x1="264.005" y1="302.402" x2="267.797" y2="306.194"/><line x1="264.005" y1="306.194" x2="267.797" y2="302.402"/>
<line x1="264.458" y1="309.723" x2="268.25" y2="309.723"/><line x1="266.354" y1="307.827" x2="266.354" y2="311.619"/><line x1="264.458" y1="307.827" x2="268.25" y2="311.619"/><line x1="264.458" y1="311.619" x2="268.25" y2="307.827"/>
<line x1="264.91" y1="314.472" x2="268.703" y2="314.472"/><line x1="266.807" y1="312.576" x2="266.807" y2="316.368"/><line x1="264.91" y1="312.576" x2="268.703" y2="316.368"/><line x1="264.91" y1="316.368" x2="268.703" y2="312.576"/>
<line x1="265.363" y1="314.897" x2="269.155" y2="314.897"/><line x1="267.259" y1="313" x2="267.259" y2="316.793"/><line x1="265.363" y1="313" x2="269.155" y2="316.793"/><line x1="265.363" y1="316.793" x2="269.155" y2="313"/>
<line x1="265.816" y1="311.427" x2="269.608" y2="311.427"/><line x1="267.712" y1="309.531" x2="267.712" y2="313.323"/><line x1="265.816" y1="309.531" x2="269.608" y2="313.323"/><line x1="265.816" y1="313.323" x2="269.608" y2="309.531"/>
<line x1="266.268" y1="310.739" x2="270.061" y2="310.739"/><line x1="268.165" y1="308.843" x2="268.165" y2="312.635"/><line x1="266.268" y1="308.843" x2="270.061" y2="312.635"/><line x1="266.268" y1="312.635" x2="270.061" y2="308.843"/>
<line x1="266.721" y1="317.01" x2="270.513" y2="317.01"/><line x1="268.617" y1="315.114" x2="268.617" y2="318.906"/><line x1="266.721" y1="315.114" x2="270.513" y2="318.906"/><line x1="266.721" y1="318.906" x2="270.513" y2="315.114"/>
<line x1="267.174" y1="323.316" x2="270.966" y2="323.316"/><line x1="269.07" y1="321.419" x2="269.07" y2="325.212"/><line x1="267.174" y1="321.419" x2="270.966" y2="325.212"/><line x1="267.174" y1="325.212" x2="270.966" y2="321.419"/>
<line x1="267.627" y1="322.336" x2="271.419" y2="322.336"/><line x1="269.523" y1="320.44" x2="269.523" y2="324.232"/><line x1="267.627" y1="320.44" x2="271.419" y2="324.232"/><line x1="267.627" y1="324.232" x2="271.419" y2="320.44"/>
<line x1="268.079" y1="325.701" x2="271.871" y2="325.701"/><line x1="269.975" y1="323.805" x2="269.975" y2="327.597"/><line x1="268.079" y1="323.805" x2="271.871" y2="327.597"/><line x1="268.079" y1="327.597" x2="271.871" y2="323.805"/>
<line x1="268.532" y1="328.447" x2="272.324" y2="328.447"/><line x1="270.428" y1="326.551" x2="270.428" y2="330.343"/><line x1="268.532" y1="326.551" x2="272.324" y2="330.343"/><line x1="268.532" y1="330.343" x2="272.324" y2="326.551"/>
<line x1="268.985" y1="339.963" x2="272.777" y2="339.963"/><line x1="270.881" y1="338.067" x2="270.881" y2="341.859"/><line x1="268.985" y1="338.067" x2="272.777" y2="341.859"/><line x1="268.985" y1="341.859" x2="272.777" y2="338.067"/>
<line x1="269.437" y1="335.376" x2="273.229" y2="335.376"/><line x1="271.333" y1="333.48" x2="271.333" y2="337.272"/><line x1="269.437" y1="333.48" x2="273.229" y2="337.272"/><line x1="269.437" y1="337.272" x2="273.229" y2="333.48"/>
<line x1="269.89" y1="335.035" x2="273.682" y2="335.035"/><line x1="271.786" y1="333.139" x2="271.786" y2="336.931"/><line x1="269.89" y1="333.139" x2="273.682" y2="336.931"/><line x1="269.89" y1="336.931" x2="273.682" y2="333.139"/>
<line x1="270.343" y1="329.992" x2="274.135" y2="329.992"/><line x1="272.239" y1="328.096" x2="272.239" y2="331.888"/><line x1="270.343" y1="328.096" x2="274.135" y2="331.888"/><line x1="270.343" y1="331.888" x2="274.135" y2="328.096"/>
<line x1="270.795" y1="327.476" x2="274.587" y2="327.476"/><line x1="272.691" y1="325.58" x2="272.691" y2="329.372"/><line x1="270.795" y1="325.58" x2="274.587" y2="329.372"/><line x1="270.795" y1="329.372" x2="274.587" y2="325.58"/>
<line x1="271.248" y1="332.298" x2="275.04" y2="332.298"/><line x1="273.144" y1="330.402" x2="273.144" y2="334.194"/><line x1="271.248" y1="330.402" x2="275.04" y2="334.194"/><line x1="271.248" y1="334.194" x2="275.04" y2="330.402"/>
<line x1="271.701" y1="339.332" x2="275.493" y2="339.332"/><line x1="273.597" y1="337.436" x2="273.597" y2="341.228"/><line x1="271.701" y1="337.436" x2="275.493" y2="341.228"/><line x1="271.701" y1="341.228" x2="275.493" y2="337.436"/>
<line x1="272.153" y1="334.976" x2="275.946" y2="334.976"/><line x1="274.049" y1="333.08" x2="274.049" y2="336.872"/><line x1="272.153" y1="333.08" x2="275.946" y2="336.872"/><line x1="272.153" y1="336.872" x2="275.946" y2="333.08"/>
<line x1="272.606" y1="337.997" x2="276.398" y2="337.997"/><line x1="274.502" y1="336.101" x2="274.502" y2="339.893"/><line x1="272.606" y1="336.101" x2="276.398" y2="339.893"/><line x1="272.606" y1="339.893" x2="276.398" y2="336.101"/>
<line x1="273.059" y1="336.169" x2="276.851" y2="336.169"/><line x1="274.955" y1="334.273" x2="274.955" y2="338.066"/><line x1="273.059" y1="334.273" x2="276.851" y2="338.066"/><line x1="273.059" y1="338.066" x2="276.851" y2="334.273"/>
<line x1="273.511" y1="337.421" x2="277.304" y2="337.421"/><line x1="275.408" y1="335.525" x2="275.408" y2="339.317"/><line x1="273.511" y1="335.525" x2="277.304" y2="339.317"/><line x1="273.511" y1="339.317" x2="277.304" y2="335.525"/>
<line x1="273.964" y1="335.578" x2="277.756" y2="335.578"/><line x1="275.86" y1="333.682" x2="275.86" y2="337.474"/><line x1="273.964" y1="333.682" x2="277.756" y2="337.474"/><line x1="273.964" y1="337.474" x2="277.756" y2="333.682"/>
<line x1="274.417" y1="333.752" x2="278.209" y2="333.752"/><line x1="276.313" y1="331.856" x2="276.313" y2="335.649"/><line x1="274.417" y1="331.856" x2="278.209" y2="335.649"/><line x1="274.417" y1="335.649" x2="278.209" y2="331.856"/>
<line x1="274.869" y1="335.206" x2="278.662" y2="335.206"/><line x1="276.766" y1="333.31" x2="276.766" y2="337.102"/><line x1="274.869" y1="333.31" x2="278.662" y2="337.102"/><line x1="274.869" y1="337.102" x2="278.662" y2="333.31"/>
<line x1="275.322" y1="338.817" x2="279.114" y2="338.817"/><line x1="277.218" y1="336.921" x2="277.218" y2="340.713"/><line x1="275.322" y1="336.921" x2="279.114" y2="340.713"/><line x1="275.322" y1="340.713" x2="279.114" y2="336.921"/>
<line x1="275.775" y1="332.523" x2="279.567" y2="332.523"/><line x1="277.671" y1="330.627" x2="277.671" y2="334.419"/><line x1="275.775" y1="330.627" x2="279.567" y2="334.419"/><line x1="275.775" y1="334.419" x2="279.567" y2="330.627"/>
<line x1="276.228" y1="331.446" x2="280.02" y2="331.446"/><line x1="278.124" y1="329.55" x2="278.124" y2="333.342"/><line x1="276.228" y1="329.55" x2="280.02" y2="333.342"/><line x1="276.228" y1="333.342" x2="280.02" y2="329.55"/>
<line x1="276.68" y1="336.399" x2="280.472" y2="336.399"/><line x1="278.576" y1="334.503" x2="278.576" y2="338.295"/><line x1="276.68" y1="334.503" x2="280.472" y2="338.295"/><line x1="276.68" y1="338.295" x2="280.472" y2="334.503"/>
<line x1="277.133" y1="331.433" x2="280.925" y2="331.433"/><line x1="279.029" y1="329.537" x2="279.029" y2="333.329"/><line x1="277.133" y1="329.537" x2="280.925" y2="333.329"/><line x1="277.133" y1="333.329" x2="280.925" y2="329.537"/>
<line x1="277.586" y1="334.947" x2="281.378" y2="334.947"/><line x1="279.482" y1="333.051" x2="279.482" y2="336.843"/><line x1="277.586" y1="333.051" x2="281.378" y2="336.843"/><line x1="277.586" y1="336.843" x2="281.378" y2="333.051"/>
<line x1="278.038" y1="337.173" x2="281.83" y2="337.173"/><line x1="279.934" y1="335.277" x2="279.934" y2="339.069"/><line x1="278.038" y1="335.277" x2="281.83" y2="339.069"/><line x1="278.038" y1="339.069" x2="281.83" y2="335.277"/>
<line x1="278.491" y1="341.301" x2="282.283" y2="341.301"/><line x1="280.387" y1="339.405" x2="280.387" y2="343.198"/><line x1="278.491" y1="339.405" x2="282.283" y2="343.198"/><line x1="278.491" y1="343.198" x2="282.283" y2="339.405"/>
<line x1="278.944" y1="339.073" x2="282.736" y2="339.073"/><line x1="280.84" y1="337.177" x2="280.84" y2="340.969"/><line x1="278.944" y1="337.177" x2="282.736" y2="340.969"/><line x1="278.944" y1="340.969" x2="282.736" y2="337.177"/>
<line x1="279.396" y1="344.032" x2="283.188" y2="344.032"/><line x1="281.292" y1="342.136" x2="281.292" y2="345.928"/><line x1="279.396" y1="342.136" x2="283.188" y2="345.928"/><line x1="279.396" y1="345.928" x2="283.188" y2="342.136"/>
<line x1="279.849" y1="348.849" x2="283.641" y2="348.849"/><line x1="281.745" y1="346.953" x2="281.745" y2="350.745"/><line x1="279.849" y1="346.953" x2="283.641" y2="350.745"/><line x1="279.849" y1="350.745" x2="283.641" y2="346.953"/>
<line x1="280.302" y1="339.85" x2="284.094" y2="339.85"/><line x1="282.198" y1="337.954" x2="282.198" y2="341.746"/><line x1="280.302" y1="337.954" x2="284.094" y2="341.746"/><line x1="280.302" y1="341.746" x2="284.094" y2="337.954"/>
<line x1="280.754" y1="349.161" x2="284.547" y2="349.161"/><line x1="282.65" y1="347.265" x2="282.65" y2="351.057"/><line x1="280.754" y1="347.265" x2="284.547" y2="351.057"/><line x1="280.754" y1="351.057" x2="284.547" y2="347.265"/>
<line x1="281.207" y1="343.557" x2="284.999" y2="343.557"/><line x1="283.103" y1="341.661" x2="283.103" y2="345.453"/><line x1="281.207" y1="341.661" x2="284.999" y2="345.453"/><line x1="281.207" y1="345.453" x2="284.999" y2="341.661"/>
<line x1="281.66" y1="346.115" x2="285.452" y2="346.115"/><line x1="283.556" y1="344.219" x2="283.556" y2="348.012"/><line x1="281.66" y1="344.219" x2="285.452" y2="348.012"/><line x1="281.66" y1="348.012" x2="285.452" y2="344.219"/>
<line x1="282.112" y1="356.265" x2="285.905" y2="356.265"/><line x1="284.008" y1="354.369" x2="284.008" y2="358.161"/><line x1="282.112" y1="354.369" x2="285.905" y2="358.161"/><line x1="282.112" y1="358.161" x2="285.905" y2="354.369"/>
<line x1="282.565" y1="344.63" x2="286.357" y2="344.63"/><line x1="284.461" y1="342.734" x2="284.461" y2="346.526"/><line x1="282.565" y1="342.734" x2="286.357" y2="346.526"/><line x1="282.565" y1="346.526" x2="286.357" y2="342.734"/>
<line x1="283.018" y1="345.166" x2="286.81" y2="345.166"/><line x1="284.914" y1="343.27" x2="284.914" y2="347.062"/><line x1="283.018" y1="343.27" x2="286.81" y2="347.062"/><line x1="283.018" y1="347.062" x2="286.81" y2="343.27"/>
<line x1="283.47" y1="345.841" x2="287.263" y2="345.841"/><line x1="285.367" y1="343.945" x2="285.367" y2="347.737"/><line x1="283.47" y1="343.945" x2="287.263" y2="347.737"/><line x1="283.47" y1="347.737" x2="287.263" y2="343.945"/>
<line x1="283.923" y1="339.61" x2="287.715" y2="339.61"/><line x1="285.819" y1="337.714" x2="285.819" y2="341.506"/><line x1="283.923" y1="337.714" x2="287.715" y2="341.506"/><line x1="283.923" y1="341.506" x2="287.715" y2="337.714"/>
<line x1="284.376" y1="330.36" x2="288.168" y2="330.36"/><line x1="286.272" y1="328.464" x2="286.272" y2="332.256"/><line x1="284.376" y1="328.464" x2="288.168" y2="332.256"/><line x1="284.376" y1="332.256" x2="288.168" y2="328.464"/>
<line x1="284.828" y1="329.905" x2="288.621" y2="329.905"/><line x1="286.725" y1="328.009" x2="286.725" y2="331.801"/><line x1="284.828" y1="328.009" x2="288.621" y2="331.801"/><line x1="284.828" y1="331.801" x2="288.621" y2="328.009"/>
<line x1="285.281" y1="335.51" x2="289.073" y2="335.51"/><line x1="287.177" y1="333.614" x2="287.177" y2="337.406"/><line x1="285.281" y1="333.614" x2="289.073" y2="337.406"/><line x1="285.281" y1="337.406" x2="289.073" y2="333.614"/>
<line x1="285.734" y1="338.86" x2="289.526" y2="338.86"/><line x1="287.63" y1="336.964" x2="287.63" y2="340.757"/><line x1="285.734" y1="336.964" x2="289.526" y2="340.757"/><line x1="285.734" y1="340.757" x2="289.526" y2="336.964"/>
<line x1="286.187" y1="337.485" x2="289.979" y2="337.485"/><line x1="288.083" y1="335.588" x2="288.083" y2="339.381"/><line x1="286.187" y1="335.588" x2="289.979" y2="339.381"/><line x1="286.187" y1="339.381" x2="289.979" y2="335.588"/>
<line x1="286.639" y1="340.421" x2="290.431" y2="340.421"/><line x1="288.535" y1="338.525" x2="288.535" y2="342.317"/><line x1="286.639" y1="338.525" x2="290.431" y2="342.317"/><line x1="286.639" y1="342.317" x2="290.431" y2="338.525"/>
<line x1="287.092" y1="345.025" x2="290.884" y2="345.025"/><line x1="288.988" y1="343.129" x2="288.988" y2="346.921"/><line x1="287.092" y1="343.129" x2="290.884" y2="346.921"/><line x1="287.092" y1="346.921" x2="290.884" y2="343.129"/>
<line x1="287.545" y1="347.019" x2="291.337" y2="347.019"/><line x1="289.441" y1="345.122" x2="289.441" y2="348.915"/><line x1="287.545" y1="345.122" x2="291.337" y2="348.915"/><line x1="287.545" y1="348.915" x2="291.337" y2="345.122"/>
<line x1="287.997" y1="342.532" x2="291.789" y2="342.532"/><line x1="289.893" y1="340.636" x2="289.893" y2="344.428"/><line x1="287.997" y1="340.636" x2="291.789" y2="344.428"/><line x1="287.997" y1="344.428" x2="291.789" y2="340.636"/>
<line x1="288.45" y1="344.4" x2="292.242" y2="344.4"/><line x1="290.346" y1="342.503" x2="290.346" y2="346.296"/><line x1="288.45" y1="342.503" x2="292.242" y2="346.296"/><line x1="288.45" y1="346.296" x2="292.242" y2="342.503"/>
<line x1="288.903" y1="343.506" x2="292.695" y2="343.506"/><line x1="290.799" y1="341.609" x2="290.799" y2="345.402"/><line x1="288.903" y1="341.609" x2="292.695" y2="345.402"/><line x1="288.903" y1="345.402" x2="292.695" y2="341.609"/>
<line x1="289.355" y1="348.078" x2="293.147" y2="348.078"/><line x1="291.251" y1="346.182" x2="291.251" y2="349.974"/><line x1="289.355" y1="346.182" x2="293.147" y2="349.974"/><line x1="289.355" y1="349.974" x2="293.147" y2="346.182"/>
<line x1="289.808" y1="345.948" x2="293.6" y2="345.948"/><line x1="291.704" y1="344.052" x2="291.704" y2="347.844"/><line x1="289.808" y1="344.052" x2="293.6" y2="347.844"/><line x1="289.808" y1="347.844" x2="293.6" y2="344.052"/>
<line x1="290.261" y1="348.551" x2="294.053" y2="348.551"/><line x1="292.157" y1="346.655" x2="292.157" y2="350.447"/><line x1="290.261" y1="346.655" x2="294.053" y2="350.447"/><line x1="290.261" y1="350.447" x2="294.053" y2="346.655"/>
<line x1="290.713" y1="344.967" x2="294.506" y2="344.967"/><line x1="292.609" y1="343.071" x2="292.609" y2="346.863"/><line x1="290.713" y1="343.071" x2="294.506" y2="346.863"/><line x1="290.713" y1="346.863" x2="294.506" y2="343.071"/>
<line x1="291.166" y1="351.368" x2="294.958" y2="351.368"/><line x1="293.062" y1="349.472" x2="293.062" y2="353.264"/><line x1="291.166" y1="349.472" x2="294.958" y2="353.264"/><line x1="291.166" y1="353.264" x2="294.958" y2="349.472"/>
<line x1="291.619" y1="347.579" x2="295.411" y2="347.579"/><line x1="293.515" y1="345.683" x2="293.515" y2="349.475"/><line x1="291.619" y1="345.683" x2="295.411" y2="349.475"/><line x1="291.619" y1="349.475" x2="295.411" y2="345.683"/>
<line x1="292.071" y1="335.776" x2="295.864" y2="335.776"/><line x1="293.968" y1="333.88" x2="293.968" y2="337.672"/><line x1="292.071" y1="333.88" x2="295.864" y2="337.672"/><line x1="292.071" y1="337.672" x2="295.864" y2="333.88"/>
<line x1="292.524" y1="332.01" x2="296.316" y2="332.01"/><line x1="294.42" y1="330.114" x2="294.42" y2="333.907"/><line x1="292.524" y1="330.114" x2="296.316" y2="333.907"/><line x1="292.524" y1="333.907" x2="296.316" y2="330.114"/>
<line x1="292.977" y1="323.174" x2="296.769" y2="323.174"/><line x1="294.873" y1="321.277" x2="294.873" y2="325.07"/><line x1="292.977" y1="321.277" x2="296.769" y2="325.07"/><line x1="292.977" y1="325.07" x2="296.769" y2="321.277"/>
<line x1="293.429" y1="326.317" x2="297.222" y2="326.317"/><line x1="295.326" y1="324.421" x2="295.326" y2="328.214"/><line x1="293.429" y1="324.421" x2="297.222" y2="328.214"/><line x1="293.429" y1="328.214" x2="297.222" y2="324.421"/>
<line x1="293.882" y1="328.678" x2="297.674" y2="328.678"/><line x1="295.778" y1="326.782" x2="295.778" y2="330.574"/><line x1="293.882" y1="326.782" x2="297.674" y2="330.574"/><line x1="293.882" y1="330.574" x2="297.674" y2="326.782"/>
<line x1="294.335" y1="326.005" x2="298.127" y2="326.005"/><line x1="296.231" y1="324.109" x2="296.231" y2="327.901"/><line x1="294.335" y1="324.109" x2="298.127" y2="327.901"/><line x1="294.335" y1="327.901" x2="298.127" y2="324.109"/>
<line x1="294.788" y1="328.275" x2="298.58" y2="328.275"/><line x1="296.684" y1="326.379" x2="296.684" y2="330.171"/><line x1="294.788" y1="326.379" x2="298.58" y2="330.171"/><line x1="294.788" y1="330.171" x2="298.58" y2="326.379"/>
<line x1="295.24" y1="330.502" x2="299.032" y2="330.502"/><line x1="297.136" y1="328.606" x2="297.136" y2="332.398"/><line x1="295.24" y1="328.606" x2="299.032" y2="332.398"/><line x1="295.24" y1="332.398" x2="299.032" y2="328.606"/>
<line x1="295.693" y1="332.115" x2="299.485" y2="332.115"/><line x1="297.589" y1="330.219" x2="297.589" y2="334.011"/><line x1="295.693" y1="330.219" x2="299.485" y2="334.011"/><line x1="295.693" y1="334.011" x2="299.485" y2="330.219"/>
<line x1="296.146" y1="332.138" x2="299.938" y2="332.138"/><line x1="298.042" y1="330.242" x2="298.042" y2="334.034"/><line x1="296.146" y1="330.242" x2="299.938" y2="334.034"/><line x1="296.146" y1="334.034" x2="299.938" y2="330.242"/>
<line x1="296.598" y1="320.185" x2="300.39" y2="320.185"/><line x1="298.494" y1="318.289" x2="298.494" y2="322.081"/><line x1="296.598" y1="318.289" x2="300.39" y2="322.081"/><line x1="296.598" y1="322.081" x2="300.39" y2="318.289"/>
<line x1="297.051" y1="315.512" x2="300.843" y2="315.512"/><line x1="298.947" y1="313.615" x2="298.947" y2="317.408"/><line x1="297.051" y1="313.615" x2="300.843" y2="317.408"/><line x1="297.051" y1="317.408" x2="300.843" y2="313.615"/>
<line x1="297.504" y1="313.017" x2="301.296" y2="313.017"/><line x1="299.4" y1="311.121" x2="299.4" y2="314.913"/><line x1="297.504" y1="311.121" x2="301.296" y2="314.913"/><line x1="297.504" y1="314.913" x2="301.296" y2="311.121"/>
<line x1="297.956" y1="310.206" x2="301.748" y2="310.206"/><line x1="299.852" y1="308.309" x2="299.852" y2="312.102"/><line x1="297.956" y1="308.309" x2="301.748" y2="312.102"/><line x1="297.956" y1="312.102" x2="301.748" y2="308.309"/>
<line x1="298.409" y1="310.83" x2="302.201" y2="310.83"/><line x1="300.305" y1="308.934" x2="300.305" y2="312.726"/><line x1="298.409" y1="308.934" x2="302.201" y2="312.726"/><line x1="298.409" y1="312.726" x2="302.201" y2="308.934"/>
<line x1="298.862" y1="306.081" x2="302.654" y2="306.081"/><line x1="300.758" y1="304.185" x2="300.758" y2="307.977"/><line x1="298.862" y1="304.185" x2="302.654" y2="307.977"/><line x1="298.862" y1="307.977" x2="302.654" y2="304.185"/>
<line x1="299.314" y1="309.53" x2="303.107" y2="309.53"/><line x1="301.21" y1="307.634" x2="301.21" y2="311.426"/><line x1="299.314" y1="307.634" x2="303.107" y2="311.426"/><line x1="299.314" y1="311.426" x2="303.107" y2="307.634"/>
<line x1="299.767" y1="312.05" x2="303.559" y2="312.05"/><line x1="301.663" y1="310.154" x2="301.663" y2="313.946"/><line x1="299.767" y1="310.154" x2="303.559" y2="313.946"/><line x1="299.767" y1="313.946" x2="303.559" y2="310.154"/>
<line x1="300.22" y1="293.679" x2="304.012" y2="293.679"/><line x1="302.116" y1="291.783" x2="302.116" y2="295.575"/><line x1="300.22" y1="291.783" x2="304.012" y2="295.575"/><line x1="300.22" y1="295.575" x2="304.012" y2="291.783"/>
<line x1="300.672" y1="286.906" x2="304.465" y2="286.906"/><line x1="302.569" y1="285.01" x2="302.569" y2="288.802"/><line x1="300.672" y1="285.01" x2="304.465" y2="288.802"/><line x1="300.672" y1="288.802" x2="304.465" y2="285.01"/>
<line x1="301.125" y1="288.295" x2="304.917" y2="288.295"/><line x1="303.021" y1="286.399" x2="303.021" y2="290.191"/><line x1="301.125" y1="286.399" x2="304.917" y2="290.191"/><line x1="301.125" y1="290.191" x2="304.917" y2="286.399"/>
<line x1="301.578" y1="289.151" x2="305.37" y2="289.151"/><line x1="303.474" y1="287.255" x2="303.474" y2="291.047"/><line x1="301.578" y1="287.255" x2="305.37" y2="291.047"/><line x1="301.578" y1="291.047" x2="305.37" y2="287.255"/>
<line x1="302.03" y1="277.85" x2="305.823" y2="277.85"/><line x1="303.927" y1="275.954" x2="303.927" y2="279.746"/><line x1="302.03" y1="275.954" x2="305.823" y2="279.746"/><line x1="302.03" y1="279.746" x2="305.823" y2="275.954"/>
<line x1="302.483" y1="284.125" x2="306.275" y2="284.125"/><line x1="304.379" y1="282.229" x2="304.379" y2="286.022"/><line x1="302.483" y1="282.229" x2="306.275" y2="286.022"/><line x1="302.483" y1="286.022" x2="306.275" y2="282.229"/>
<line x1="302.936" y1="287.737" x2="306.728" y2="287.737"/><line x1="304.832" y1="285.841" x2="304.832" y2="289.633"/><line x1="302.936" y1="285.841" x2="306.728" y2="289.633"/><line x1="302.936" y1="289.633" x2="306.728" y2="285.841"/>
<line x1="303.389" y1="286.93" x2="307.181" y2="286.93"/><line x1="305.285" y1="285.034" x2="305.285" y2="288.826"/><line x1="303.389" y1="285.034" x2="307.181" y2="288.826"/><line x1="303.389" y1="288.826" x2="307.181" y2="285.034"/>
<line x1="303.841" y1="282.137" x2="307.633" y2="282.137"/><line x1="305.737" y1="280.241" x2="305.737" y2="284.033"/><line x1="303.841" y1="280.241" x2="307.633" y2="284.033"/><line x1="303.841" y1="284.033" x2="307.633" y2="280.241"/>
<line x1="304.294" y1="273.027" x2="308.086" y2="273.027"/><line x1="306.19" y1="271.131" x2="306.19" y2="274.924"/><line x1="304.294" y1="271.131" x2="308.086" y2="274.924"/><line x1="304.294" y1="274.924" x2="308.086" y2="271.131"/>
<line x1="304.747" y1="275.854" x2="308.539" y2="275.854"/><line x1="306.643" y1="273.958" x2="306.643" y2="277.75"/><line x1="304.747" y1="273.958" x2="308.539" y2="277.75"/><line x1="304.747" y1="277.75" x2="308.539" y2="273.958"/>
<line x1="305.199" y1="287.91" x2="308.991" y2="287.91"/><line x1="307.095" y1="286.014" x2="307.095" y2="289.806"/><line x1="305.199" y1="286.014" x2="308.991" y2="289.806"/><line x1="305.199" y1="289.806" x2="308.991" y2="286.014"/>
<line x1="305.652" y1="288.239" x2="309.444" y2="288.239"/><line x1="307.548" y1="286.343" x2="307.548" y2="290.135"/><line x1="305.652" y1="286.343" x2="309.444" y2="290.135"/><line x1="305.652" y1="290.135" x2="309.444" y2="286.343"/>
<line x1="306.105" y1="278.924" x2="309.897" y2="278.924"/><line x1="308.001" y1="277.028" x2="308.001" y2="280.82"/><line x1="306.105" y1="277.028" x2="309.897" y2="280.82"/><line x1="306.105" y1="280.82" x2="309.897" y2="277.028"/>
<line x1="306.557" y1="275.446" x2="310.349" y2="275.446"/><line x1="308.453" y1="273.55" x2="308.453" y2="277.342"/><line x1="306.557" y1="273.55" x2="310.349" y2="277.342"/><line x1="306.557" y1="277.342" x2="310.349" y2="273.55"/>
<line x1="307.01" y1="275.361" x2="310.802" y2="275.361"/><line x1="308.906" y1="273.465" x2="308.906" y2="277.257"/><line x1="307.01" y1="273.465" x2="310.802" y2="277.257"/><line x1="307.01" y1="277.257" x2="310.802" y2="273.465"/>
<line x1="307.463" y1="277.534" x2="311.255" y2="277.534"/><line x1="309.359" y1="275.638" x2="309.359" y2="279.43"/><line x1="307.463" y1="275.638" x2="311.255" y2="279.43"/><line x1="307.463" y1="279.43" x2="311.255" y2="275.638"/>
<line x1="307.915" y1="272.75" x2="311.708" y2="272.75"/><line x1="309.811" y1="270.854" x2="309.811" y2="274.646"/><line x1="307.915" y1="270.854" x2="311.708" y2="274.646"/><line x1="307.915" y1="274.646" x2="311.708" y2="270.854"/>
<line x1="308.368" y1="267.912" x2="312.16" y2="267.912"/><line x1="310.264" y1="266.016" x2="310.264" y2="269.808"/><line x1="308.368" y1="266.016" x2="312.16" y2="269.808"/><line x1="308.368" y1="269.808" x2="312.16" y2="266.016"/>
<line x1="308.821" y1="259.366" x2="312.613" y2="259.366"/><line x1="310.717" y1="257.47" x2="310.717" y2="261.263"/><line x1="308.821" y1="257.47" x2="312.613" y2="261.263"/><line x1="308.821" y1="261.263" x2="312.613" y2="257.47"/>
<line x1="309.273" y1="260.845" x2="313.066" y2="260.845"/><line x1="311.169" y1="258.949" x2="311.169" y2="262.741"/><line x1="309.273" y1="258.949" x2="313.066" y2="262.741"/><line x1="309.273" y1="262.741" x2="313.066" y2="258.949"/>
<line x1="309.726" y1="260.715" x2="313.518" y2="260.715"/><line x1="311.622" y1="258.818" x2="311.622" y2="262.611"/><line x1="309.726" y1="258.818" x2="313.518" y2="262.611"/><line x1="309.726" y1="262.611" x2="313.518" y2="258.818"/>
<line x1="310.179" y1="261.433" x2="313.971" y2="261.433"/><line x1="312.075" y1="259.536" x2="312.075" y2="263.329"/><line x1="310.179" y1="259.536" x2="313.971" y2="263.329"/><line x1="310.179" y1="263.329" x2="313.971" y2="259.536"/>
<line x1="310.631" y1="257.36" x2="314.424" y2="257.36"/><line x1="312.528" y1="255.464" x2="312.528" y2="259.256"/><line x1="310.631" y1="255.464" x2="314.424" y2="259.256"/><line x1="310.631" y1="259.256" x2="314.424" y2="255.464"/>
<line x1="311.084" y1="257.878" x2="314.876" y2="257.878"/><line x1="312.98" y1="255.982" x2="312.98" y2="259.774"/><line x1="311.084" y1="255.982" x2="314.876" y2="259.774"/><line x1="311.084" y1="259.774" x2="314.876" y2="255.982"/>
<line x1="311.537" y1="251.809" x2="315.329" y2="251.809"/><line x1="313.433" y1="249.913" x2="313.433" y2="253.705"/><line x1="311.537" y1="249.913" x2="315.329" y2="253.705"/><line x1="311.537" y1="253.705" x2="315.329" y2="249.913"/>
<line x1="311.99" y1="245.792" x2="315.782" y2="245.792"/><line x1="313.886" y1="243.896" x2="313.886" y2="247.688"/><line x1="311.99" y1="243.896" x2="315.782" y2="247.688"/><line x1="311.99" y1="247.688" x2="315.782" y2="243.896"/>
<line x1="312.442" y1="243.04" x2="316.234" y2="243.04"/><line x1="314.338" y1="241.144" x2="314.338" y2="244.936"/><line x1="312.442" y1="241.144" x2="316.234" y2="244.936"/><line x1="312.442" y1="244.936" x2="316.234" y2="241.144"/>
<line x1="312.895" y1="249.287" x2="316.687" y2="249.287"/><line x1="314.791" y1="247.391" x2="314.791" y2="251.183"/><line x1="312.895" y1="247.391" x2="316.687" y2="251.183"/><line x1="312.895" y1="251.183" x2="316.687" y2="247.391"/>
<line x1="313.348" y1="241.642" x2="317.14" y2="241.642"/><line x1="315.244" y1="239.746" x2="315.244" y2="243.538"/><line x1="313.348" y1="239.746" x2="317.14" y2="243.538"/><line x1="313.348" y1="243.538" x2="317.14" y2="239.746"/>
<line x1="313.8" y1="241.671" x2="317.592" y2="241.671"/><line x1="315.696" y1="239.775" x2="315.696" y2="243.567"/><line x1="313.8" y1="239.775" x2="317.592" y2="243.567"/><line x1="313.8" y1="243.567" x2="317.592" y2="239.775"/>
<line x1="314.253" y1="234.852" x2="318.045" y2="234.852"/><line x1="316.149" y1="232.956" x2="316.149" y2="236.748"/><line x1="314.253" y1="232.956" x2="318.045" y2="236.748"/><line x1="314.253" y1="236.748" x2="318.045" y2="232.956"/>
<line x1="314.706" y1="236.31" x2="318.498" y2="236.31"/><line x1="316.602" y1="234.414" x2="316.602" y2="238.206"/><line x1="314.706" y1="234.414" x2="318.498" y2="238.206"/><line x1="314.706" y1="238.206" x2="318.498" y2="234.414"/>
<line x1="315.158" y1="234.292" x2="318.95" y2="234.292"/><line x1="317.054" y1="232.396" x2="317.054" y2="236.188"/><line x1="315.158" y1="232.396" x2="318.95" y2="236.188"/><line x1="315.158" y1="236.188" x2="318.95" y2="232.396"/>
<line x1="315.611" y1="226.571" x2="319.403" y2="226.571"/><line x1="317.507" y1="224.675" x2="317.507" y2="228.467"/><line x1="315.611" y1="224.675" x2="319.403" y2="228.467"/><line x1="315.611" y1="228.467" x2="319.403" y2="224.675"/>
<line x1="316.064" y1="220.827" x2="319.856" y2="220.827"/><line x1="317.96" y1="218.931" x2="317.96" y2="222.723"/><line x1="316.064" y1="218.931" x2="319.856" y2="222.723"/><line x1="316.064" y1="222.723" x2="319.856" y2="218.931"/>
<line x1="316.516" y1="219.445" x2="320.309" y2="219.445"/><line x1="318.412" y1="217.549" x2="318.412" y2="221.341"/><line x1="316.516" y1="217.549" x2="320.309" y2="221.341"/><line x1="316.516" y1="221.341" x2="320.309" y2="217.549"/>
<line x1="316.969" y1="215.211" x2="320.761" y2="215.211"/><line x1="318.865" y1="213.315" x2="318.865" y2="217.107"/><line x1="316.969" y1="213.315" x2="320.761" y2="217.107"/><line x1="316.969" y1="217.107" x2="320.761" y2="213.315"/>
<line x1="317.422" y1="213.609" x2="321.214" y2="213.609"/><line x1="319.318" y1="211.713" x2="319.318" y2="215.505"/><line x1="317.422" y1="211.713" x2="321.214" y2="215.505"/><line x1="317.422" y1="215.505" x2="321.214" y2="211.713"/>
<line x1="317.874" y1="211.546" x2="321.667" y2="211.546"/><line x1="319.77" y1="209.65" x2="319.77" y2="213.442"/><line x1="317.874" y1="209.65" x2="321.667" y2="213.442"/><line x1="317.874" y1="213.442" x2="321.667" y2="209.65"/>
<line x1="318.327" y1="186.72" x2="322.119" y2="186.72"/><line x1="320.223" y1="184.824" x2="320.223" y2="188.616"/><line x1="318.327" y1="184.824" x2="322.119" y2="188.616"/><line x1="318.327" y1="188.616" x2="322.119" y2="184.824"/>
<line x1="318.78" y1="178.758" x2="322.572" y2="178.758"/><line x1="320.676" y1="176.862" x2="320.676" y2="180.654"/><line x1="318.78" y1="176.862" x2="322.572" y2="180.654"/><line x1="318.78" y1="180.654" x2="322.572" y2="176.862"/>
<line x1="319.232" y1="180.979" x2="323.025" y2="180.979"/><line x1="321.129" y1="179.083" x2="321.129" y2="182.875"/><line x1="319.232" y1="179.083" x2="323.025" y2="182.875"/><line x1="319.232" y1="182.875" x2="323.025" y2="179.083"/>
<line x1="319.685" y1="172.725" x2="323.477" y2="172.725"/><line x1="321.581" y1="170.829" x2="321.581" y2="174.621"/><line x1="319.685" y1="170.829" x2="323.477" y2="174.621"/><line x1="319.685" y1="174.621" x2="323.477" y2="170.829"/>
<line x1="320.138" y1="177.454" x2="323.93" y2="177.454"/><line x1="322.034" y1="175.558" x2="322.034" y2="179.35"/><line x1="320.138" y1="175.558" x2="323.93" y2="179.35"/><line x1="320.138" y1="179.35" x2="323.93" y2="175.558"/>
<line x1="320.59" y1="171.233" x2="324.383" y2="171.233"/><line x1="322.487" y1="169.337" x2="322.487" y2="173.129"/><line x1="320.59" y1="169.337" x2="324.383" y2="173.129"/><line x1="320.59" y1="173.129" x2="324.383" y2="169.337"/>
<line x1="321.043" y1="172.424" x2="324.835" y2="172.424"/><line x1="322.939" y1="170.528" x2="322.939" y2="174.32"/><line x1="321.043" y1="170.528" x2="324.835" y2="174.32"/><line x1="321.043" y1="174.32" x2="324.835" y2="170.528"/>
<line x1="321.496" y1="163.134" x2="325.288" y2="163.134"/><line x1="323.392" y1="161.238" x2="323.392" y2="165.03"/><line x1="321.496" y1="161.238" x2="325.288" y2="165.03"/><line x1="321.496" y1="165.03" x2="325.288" y2="161.238"/>
<line x1="321.949" y1="163.472" x2="325.741" y2="163.472"/><line x1="323.845" y1="161.576" x2="323.845" y2="165.368"/><line x1="321.949" y1="161.576" x2="325.741" y2="165.368"/><line x1="321.949" y1="165.368" x2="325.741" y2="161.576"/>
<line x1="322.401" y1="157.072" x2="326.193" y2="157.072"/><line x1="324.297" y1="155.176" x2="324.297" y2="158.968"/><line x1="322.401" y1="155.176" x2="326.193" y2="158.968"/><line x1="322.401" y1="158.968" x2="326.193" y2="155.176"/>
<line x1="322.854" y1="151.05" x2="326.646" y2="151.05"/><line x1="324.75" y1="149.154" x2="324.75" y2="152.946"/><line x1="322.854" y1="149.154" x2="326.646" y2="152.946"/><line x1="322.854" y1="152.946" x2="326.646" y2="149.154"/>
<line x1="323.307" y1="147.791" x2="327.099" y2="147.791"/><line x1="325.203" y1="145.895" x2="325.203" y2="149.688"/><line x1="323.307" y1="145.895" x2="327.099" y2="149.688"/><line x1="323.307" y1="149.688" x2="327.099" y2="145.895"/>
<line x1="323.759" y1="145.655" x2="327.551" y2="145.655"/><line x1="325.655" y1="143.759" x2="325.655" y2="147.551"/><line x1="323.759" y1="143.759" x2="327.551" y2="147.551"/><line x1="323.759" y1="147.551" x2="327.551" y2="143.759"/>
<line x1="324.212" y1="144.947" x2="328.004" y2="144.947"/><line x1="326.108" y1="143.05" x2="326.108" y2="146.843"/><line x1="324.212" y1="143.05" x2="328.004" y2="146.843"/><line x1="324.212" y1="146.843" x2="328.004" y2="143.05"/>
<line x1="324.665" y1="139.134" x2="328.457" y2="139.134"/><line x1="326.561" y1="137.238" x2="326.561" y2="141.03"/><line x1="324.665" y1="137.238" x2="328.457" y2="141.03"/><line x1="324.665" y1="141.03" x2="328.457" y2="137.238"/>
<line x1="325.117" y1="136.821" x2="328.909" y2="136.821"/><line x1="327.013" y1="134.925" x2="327.013" y2="138.717"/><line x1="325.117" y1="134.925" x2="328.909" y2="138.717"/><line x1="325.117" y1="138.717" x2="328.909" y2="134.925"/>
<line x1="325.57" y1="136.076" x2="329.362" y2="136.076"/><line x1="327.466" y1="134.18" x2="327.466" y2="137.972"/><line x1="325.57" y1="134.18" x2="329.362" y2="137.972"/><line x1="325.57" y1="137.972" x2="329.362" y2="134.18"/>
<line x1="326.023" y1="136.254" x2="329.815" y2="136.254"/><line x1="327.919" y1="134.358" x2="327.919" y2="138.15"/><line x1="326.023" y1="134.358" x2="329.815" y2="138.15"/><line x1="326.023" y1="138.15" x2="329.815" y2="134.358"/>
<line x1="326.475" y1="146.493" x2="330.268" y2="146.493"/><line x1="328.371" y1="144.597" x2="328.371" y2="148.389"/><line x1="326.475" y1="144.597" x2="330.268" y2="148.389"/><line x1="326.475" y1="148.389" x2="330.268" y2="144.597"/>
<line x1="326.928" y1="139.393" x2="330.72" y2="139.393"/><line x1="328.824" y1="137.497" x2="328.824" y2="141.289"/><line x1="326.928" y1="137.497" x2="330.72" y2="141.289"/><line x1="326.928" y1="141.289" x2="330.72" y2="137.497"/>
<line x1="327.381" y1="141.657" x2="331.173" y2="141.657"/><line x1="329.277" y1="139.761" x2="329.277" y2="143.553"/><line x1="327.381" y1="139.761" x2="331.173" y2="143.553"/><line x1="327.381" y1="143.553" x2="331.173" y2="139.761"/>
<line x1="327.833" y1="139.372" x2="331.626" y2="139.372"/><line x1="329.729" y1="137.476" x2="329.729" y2="141.268"/><line x1="327.833" y1="137.476" x2="331.626" y2="141.268"/><line x1="327.833" y1="141.268" x2="331.626" y2="137.476"/>
<line x1="328.286" y1="135.716" x2="332.078" y2="135.716"/><line x1="330.182" y1="133.82" x2="330.182" y2="137.612"/><line x1="328.286" y1="133.82" x2="332.078" y2="137.612"/><line x1="328.286" y1="137.612" x2="332.078" y2="133.82"/>
<line x1="328.739" y1="129.701" x2="332.531" y2="129.701"/><line x1="330.635" y1="127.805" x2="330.635" y2="131.597"/><line x1="328.739" y1="127.805" x2="332.531" y2="131.597"/><line x1="328.739" y1="131.597" x2="332.531" y2="127.805"/>
<line x1="329.191" y1="130.573" x2="332.984" y2="130.573"/><line x1="331.088" y1="128.677" x2="331.088" y2="132.469"/><line x1="329.191" y1="128.677" x2="332.984" y2="132.469"/><line x1="329.191" y1="132.469" x2="332.984" y2="128.677"/>
<line x1="329.644" y1="125.654" x2="333.436" y2="125.654"/><line x1="331.54" y1="123.758" x2="331.54" y2="127.55"/><line x1="329.644" y1="123.758" x2="333.436" y2="127.55"/><line x1="329.644" y1="127.55" x2="333.436" y2="123.758"/>
<line x1="330.097" y1="115.29" x2="333.889" y2="115.29"/><line x1="331.993" y1="113.394" x2="331.993" y2="117.187"/><line x1="330.097" y1="113.394" x2="333.889" y2="117.187"/><line x1="330.097" y1="117.187" x2="333.889" y2="113.394"/>
<line x1="330.549" y1="112.515" x2="334.342" y2="112.515"/><line x1="332.446" y1="110.619" x2="332.446" y2="114.411"/><line x1="330.549" y1="110.619" x2="334.342" y2="114.411"/><line x1="330.549" y1="114.411" x2="334.342" y2="110.619"/>
<line x1="331.002" y1="112.559" x2="334.794" y2="112.559"/><line x1="332.898" y1="110.663" x2="332.898" y2="114.455"/><line x1="331.002" y1="110.663" x2="334.794" y2="114.455"/><line x1="331.002" y1="114.455" x2="334.794" y2="110.663"/>
<line x1="331.455" y1="108.948" x2="335.247" y2="108.948"/><line x1="333.351" y1="107.052" x2="333.351" y2="110.844"/><line x1="331.455" y1="107.052" x2="335.247" y2="110.844"/><line x1="331.455" y1="110.844" x2="335.247" y2="107.052"/>
<line x1="331.908" y1="103.833" x2="335.7" y2="103.833"/><line x1="333.804" y1="101.937" x2="333.804" y2="105.729"/><line x1="331.908" y1="101.937" x2="335.7" y2="105.729"/><line x1="331.908" y1="105.729" x2="335.7" y2="101.937"/>
<line x1="332.36" y1="92.6167" x2="336.152" y2="92.6167"/><line x1="334.256" y1="90.7207" x2="334.256" y2="94.5128"/><line x1="332.36" y1="90.7207" x2="336.152" y2="94.5128"/><line x1="332.36" y1="94.5128" x2="336.152" y2="90.7207"/>
<line x1="332.813" y1="87.3156" x2="336.605" y2="87.3156"/><line x1="334.709" y1="85.4195" x2="334.709" y2="89.2117"/><line x1="332.813" y1="85.4195" x2="336.605" y2="89.2117"/><line x1="332.813" y1="89.2117" x2="336.605" y2="85.4195"/>
<line x1="333.266" y1="86.3297" x2="337.058" y2="86.3297"/><line x1="335.162" y1="84.4336" x2="335.162" y2="88.2258"/><line x1="333.266" y1="84.4336" x2="337.058" y2="88.2258"/><line x1="333.266" y1="88.2258" x2="337.058" y2="84.4336"/>
<line x1="333.718" y1="80.0316" x2="337.51" y2="80.0316"/><line x1="335.614" y1="78.1355" x2="335.614" y2="81.9277"/><line x1="333.718" y1="78.1355" x2="337.51" y2="81.9277"/><line x1="333.718" y1="81.9277" x2="337.51" y2="78.1355"/>
<line x1="334.171" y1="74.2526" x2="337.963" y2="74.2526"/><line x1="336.067" y1="72.3565" x2="336.067" y2="76.1487"/><line x1="334.171" y1="72.3565" x2="337.963" y2="76.1487"/><line x1="334.171" y1="76.1487" x2="337.963" y2="72.3565"/>
<line x1="334.624" y1="63.5463" x2="338.416" y2="63.5463"/><line x1="336.52" y1="61.6502" x2="336.52" y2="65.4424"/><line x1="334.624" y1="61.6502" x2="338.416" y2="65.4424"/><line x1="334.624" y1="65.4424" x2="338.416" y2="61.6502"/>
<line x1="335.076" y1="65.0462" x2="338.869" y2="65.0462"/><line x1="336.972" y1="63.1501" x2="336.972" y2="66.9423"/><line x1="335.076" y1="63.1501" x2="338.869" y2="66.9423"/><line x1="335.076" y1="66.9423" x2="338.869" y2="63.1501"/>
<line x1="335.529" y1="67.7432" x2="339.321" y2="67.7432"/><line x1="337.425" y1="65.8471" x2="337.425" y2="69.6393"/><line x1="335.529" y1="65.8471" x2="339.321" y2="69.6393"/><line x1="335.529" y1="69.6393" x2="339.321" y2="65.8471"/>
<line x1="335.982" y1="65.7142" x2="339.774" y2="65.7142"/><line x1="337.878" y1="63.8181" x2="337.878" y2="67.6103"/><line x1="335.982" y1="63.8181" x2="339.774" y2="67.6103"/><line x1="335.982" y1="67.6103" x2="339.774" y2="63.8181"/>
<line x1="336.434" y1="63.9695" x2="340.227" y2="63.9695"/><line x1="338.33" y1="62.0734" x2="338.33" y2="65.8656"/><line x1="336.434" y1="62.0734" x2="340.227" y2="65.8656"/><line x1="336.434" y1="65.8656" x2="340.227" y2="62.0734"/>
<line x1="336.887" y1="57.4364" x2="340.679" y2="57.4364"/><line x1="338.783" y1="55.5403" x2="338.783" y2="59.3324"/><line x1="336.887" y1="55.5403" x2="340.679" y2="59.3324"/><line x1="336.887" y1="59.3324" x2="340.679" y2="55.5403"/>
<line x1="337.34" y1="53.0611" x2="341.132" y2="53.0611"/><line x1="339.236" y1="51.165" x2="339.236" y2="54.9571"/><line x1="337.34" y1="51.165" x2="341.132" y2="54.9571"/><line x1="337.34" y1="54.9571" x2="341.132" y2="51.165"/>
</g>
<path d="M170.838,353.116h 226.342" fill="none" stroke="#0000ff"/>
<path d="M284.008,372.012v -47.2396" fill="none" stroke="#ff0000"/>
<rect x="57.1929" y="330.677" width="113.386" height="41.3346" fill="white"/>
<path d="M57.1929,372.012h 113.386" fill="none" stroke="black"/>
<path d="M170.579,372.012v -41.3346" fill="none" stroke="black"/>
<path d="M170.579,330.677h -113.386" fill="none" stroke="black"/>
<path d="M57.1929,330.677v 41.3346" fill="none" stroke="black"/>
<text xml:space="preserve" x="85.3498" y="354.568" fill="black" font-size="12.0704" font-family="Helvetica">#p.e of PMTs3</text>
<path d="M61.4449,351.344h 19.8425" fill="none" stroke="black"/></svg>
