<?xml version="1.0" standalone="no"?>
<svg width="567.429" height="413.846" viewBox="0 0 567.429 413.846" xmlns="http://www.w3.org/2000/svg" shape-rendering="crispEdges">
<title>
figures/chi2_7PMTnpedata190929-01.svg
</title>
<desc>
Creator: ROOT Version 6.18/02
CreationDate: Sun Sep 29 20:55:24 2019</desc>
<defs>
</defs>
<rect x="0.5" y="0" width="566.929" height="413.346" fill="white"/>
<rect x="57.1929" y="41.3346" width="453.543" height="330.677" fill="white"/>
<rect x="57.1929" y="41.3346" width="453.543" height="330.677" fill="none" stroke="black"/>
<path d="M57.1929,372.012h 453.543" fill="none" stroke="black"/>
<path d="M59.3138,41.3346v 330.677" fill="none" stroke="black" stroke-dasharray=" 1, 2"/>
<path d="M104.636,41.3346v 330.677" fill="none" stroke="black" stroke-dasharray=" 1, 2"/>
<path d="M149.959,41.3346v 330.677" fill="none" stroke="black" stroke-dasharray=" 1, 2"/>
<path d="M195.282,41.3346v 330.677" fill="none" stroke="black" stroke-dasharray=" 1, 2"/>
<path d="M240.604,41.3346v 330.677" fill="none" stroke="black" stroke-dasharray=" 1, 2"/>
<path d="M285.927,41.3346v 330.677" fill="none" stroke="black" stroke-dasharray=" 1, 2"/>
<path d="M331.249,41.3346v 330.677" fill="none" stroke="black" stroke-dasharray=" 1, 2"/>
<path d="M376.572,41.3346v 330.677" fill="none" stroke="black" stroke-dasharray=" 1, 2"/>
<path d="M421.895,41.3346v 330.677" fill="none" stroke="black" stroke-dasharray=" 1, 2"/>
<path d="M467.217,41.3346v 330.677" fill="none" stroke="black" stroke-dasharray=" 1, 2"/>
<path d="M59.3138,41.3346v 330.677" fill="none" stroke="black" stroke-dasharray=" 1, 2"/>
<path d="M467.217,41.3346v 330.677" fill="none" stroke="black" stroke-dasharray=" 1, 2"/>
<path d="M57.1929,372.012v -330.677" fill="none" stroke="black"/>
<path d="M510.736,323.216h -453.543" fill="none" stroke="black" stroke-dasharray=" 1, 2"/>
<path d="M510.736,260.23h -453.543" fill="none" stroke="black" stroke-dasharray=" 1, 2"/>
<path d="M510.736,197.244h -453.543" fill="none" stroke="black" stroke-dasharray=" 1, 2"/>
<path d="M510.736,134.257h -453.543" fill="none" stroke="black" stroke-dasharray=" 1, 2"/>
<path d="M510.736,71.2713h -453.543" fill="none" stroke="black" stroke-dasharray=" 1, 2"/>
<path d="M510.736,323.216h -453.543" fill="none" stroke="black" stroke-dasharray=" 1, 2"/>
<path d="M510.736,71.2713h -453.543" fill="none" stroke="black" stroke-dasharray=" 1, 2"/>
<path d="M57.1929,372.012h 453.543" fill="none" stroke="black"/>
<path d="M59.3138,362.091v 9.92031" fill="none" stroke="black"/>
<path d="M70.6445,367.052v 4.96016" fill="none" stroke="black"/>
<path d="M81.9751,367.052v 4.96016" fill="none" stroke="black"/>
<path d="M93.3058,367.052v 4.96016" fill="none" stroke="black"/>
<path d="M104.636,362.091v 9.92031" fill="none" stroke="black"/>
<path d="M115.967,367.052v 4.96016" fill="none" stroke="black"/>
<path d="M127.298,367.052v 4.96016" fill="none" stroke="black"/>
<path d="M138.628,367.052v 4.96016" fill="none" stroke="black"/>
<path d="M149.959,362.091v 9.92031" fill="none" stroke="black"/>
<path d="M161.29,367.052v 4.96016" fill="none" stroke="black"/>
<path d="M172.62,367.052v 4.96016" fill="none" stroke="black"/>
<path d="M183.951,367.052v 4.96016" fill="none" stroke="black"/>
<path d="M195.282,362.091v 9.92031" fill="none" stroke="black"/>
<path d="M206.612,367.052v 4.96016" fill="none" stroke="black"/>
<path d="M217.943,367.052v 4.96016" fill="none" stroke="black"/>
<path d="M229.274,367.052v 4.96016" fill="none" stroke="black"/>
<path d="M240.604,362.091v 9.92031" fill="none" stroke="black"/>
<path d="M251.935,367.052v 4.96016" fill="none" stroke="black"/>
<path d="M263.266,367.052v 4.96016" fill="none" stroke="black"/>
<path d="M274.596,367.052v 4.96016" fill="none" stroke="black"/>
<path d="M285.927,362.091v 9.92031" fill="none" stroke="black"/>
<path d="M297.258,367.052v 4.96016" fill="none" stroke="black"/>
<path d="M308.588,367.052v 4.96016" fill="none" stroke="black"/>
<path d="M319.919,367.052v 4.96016" fill="none" stroke="black"/>
<path d="M331.249,362.091v 9.92031" fill="none" stroke="black"/>
<path d="M342.58,367.052v 4.96016" fill="none" stroke="black"/>
<path d="M353.911,367.052v 4.96016" fill="none" stroke="black"/>
<path d="M365.241,367.052v 4.96016" fill="none" stroke="black"/>
<path d="M376.572,362.091v 9.92031" fill="none" stroke="black"/>
<path d="M387.903,367.052v 4.96016" fill="none" stroke="black"/>
<path d="M399.233,367.052v 4.96016" fill="none" stroke="black"/>
<path d="M410.564,367.052v 4.96016" fill="none" stroke="black"/>
<path d="M421.895,362.091v 9.92031" fill="none" stroke="black"/>
<path d="M433.225,367.052v 4.96016" fill="none" stroke="black"/>
<path d="M444.556,367.052v 4.96016" fill="none" stroke="black"/>
<path d="M455.887,367.052v 4.96016" fill="none" stroke="black"/>
<path d="M467.217,362.091v 9.92031" fill="none" stroke="black"/>
<path d="M59.3138,362.091v 9.92031" fill="none" stroke="black"/>
<path d="M467.217,362.091v 9.92031" fill="none" stroke="black"/>
<path d="M478.548,367.052v 4.96016" fill="none" stroke="black"/>
<path d="M489.879,367.052v 4.96016" fill="none" stroke="black"/>
<path d="M501.209,367.052v 4.96016" fill="none" stroke="black"/>
<text xml:space="preserve" x="46.48" y="385.379" fill="black" font-size="13.7726" font-family="Helvetica">0.76</text>
<text xml:space="preserve" x="91.512" y="385.379" fill="black" font-size="13.7726" font-family="Helvetica">0.78</text>
<text xml:space="preserve" x="140.81" y="385.379" fill="black" font-size="13.7726" font-family="Helvetica">0.8</text>
<text xml:space="preserve" x="182.05" y="385.379" fill="black" font-size="13.7726" font-family="Helvetica">0.82</text>
<text xml:space="preserve" x="227.556" y="385.379" fill="black" font-size="13.7726" font-family="Helvetica">0.84</text>
<text xml:space="preserve" x="273.062" y="385.379" fill="black" font-size="13.7726" font-family="Helvetica">0.86</text>
<text xml:space="preserve" x="318.094" y="385.379" fill="black" font-size="13.7726" font-family="Helvetica">0.88</text>
<text xml:space="preserve" x="367.392" y="385.379" fill="black" font-size="13.7726" font-family="Helvetica">0.9</text>
<text xml:space="preserve" x="408.632" y="385.379" fill="black" font-size="13.7726" font-family="Helvetica">0.92</text>
<text xml:space="preserve" x="454.138" y="385.379" fill="black" font-size="13.7726" font-family="Helvetica">0.94</text>
<text xml:space="preserve" x="413.372" y="400.074" fill="black" font-size="13.7726" font-family="Helvetica">calibration factor</text>
<path d="M57.1929,372.012v -330.677" fill="none" stroke="black"/>
<path d="M70.7992,323.216h -13.6063" fill="none" stroke="black"/>
<path d="M63.9961,307.469h -6.80315" fill="none" stroke="black"/>
<path d="M63.9961,291.723h -6.80315" fill="none" stroke="black"/>
<path d="M63.9961,275.976h -6.80315" fill="none" stroke="black"/>
<path d="M70.7992,260.23h -13.6063" fill="none" stroke="black"/>
<path d="M63.9961,244.483h -6.80315" fill="none" stroke="black"/>
<path d="M63.9961,228.737h -6.80315" fill="none" stroke="black"/>
<path d="M63.9961,212.99h -6.80315" fill="none" stroke="black"/>
<path d="M70.7992,197.244h -13.6063" fill="none" stroke="black"/>
<path d="M63.9961,181.497h -6.80315" fill="none" stroke="black"/>
<path d="M63.9961,165.75h -6.80315" fill="none" stroke="black"/>
<path d="M63.9961,150.004h -6.80315" fill="none" stroke="black"/>
<path d="M70.7992,134.257h -13.6063" fill="none" stroke="black"/>
<path d="M63.9961,118.511h -6.80315" fill="none" stroke="black"/>
<path d="M63.9961,102.764h -6.80315" fill="none" stroke="black"/>
<path d="M63.9961,87.0179h -6.80315" fill="none" stroke="black"/>
<path d="M70.7992,71.2713h -13.6063" fill="none" stroke="black"/>
<path d="M70.7992,323.216h -13.6063" fill="none" stroke="black"/>
<path d="M63.9961,338.962h -6.80315" fill="none" stroke="black"/>
<path d="M63.9961,354.709h -6.80315" fill="none" stroke="black"/>
<path d="M63.9961,370.455h -6.80315" fill="none" stroke="black"/>
<path d="M70.7992,71.2713h -13.6063" fill="none" stroke="black"/>
<path d="M63.9961,55.5248h -6.80315" fill="none" stroke="black"/>
<text xml:space="preserve" x="25.1491" y="327.549" fill="black" font-size="13.7726" font-family="Helvetica">1820</text>
<text xml:space="preserve" x="25.1491" y="264.504" fill="black" font-size="13.7726" font-family="Helvetica">1840</text>
<text xml:space="preserve" x="25.1491" y="201.933" fill="black" font-size="13.7726" font-family="Helvetica">1860</text>
<text xml:space="preserve" x="25.1491" y="138.888" fill="black" font-size="13.7726" font-family="Helvetica">1880</text>
<text xml:space="preserve" x="25.1491" y="75.8434" fill="black" font-size="13.7726" font-family="Helvetica">1900</text>
<g transform="rotate(-90,8.08434,45.98)">
<text xml:space="preserve" x="8.08434" y="45.98" fill="black" font-size="9.34839" font-family="Helvetica">2</text>
</g>
<g transform="rotate(-90,12.3505,50.2462)">
<text xml:space="preserve" x="12.3505" y="50.2462" fill="black" font-size="13.7726" font-family="Helvetica"> </text>
</g>
<g transform="rotate(-90,12.3505,57.3565)">
<text xml:space="preserve" x="12.3505" y="57.3565" fill="black" font-size="13.7726" font-family="Times">&#0967;</text>
</g>
<g stroke="black" stroke-width="1" fill="none">
<line x1="209.248" y1="41.72" x2="213.041" y2="41.72"/><line x1="211.145" y1="39.8239" x2="211.145" y2="43.6161"/><line x1="209.248" y1="39.8239" x2="213.041" y2="43.6161"/><line x1="209.248" y1="43.6161" x2="213.041" y2="39.8239"/>
<line x1="209.702" y1="45.2821" x2="213.494" y2="45.2821"/><line x1="211.598" y1="43.386" x2="211.598" y2="47.1782"/><line x1="209.702" y1="43.386" x2="213.494" y2="47.1782"/><line x1="209.702" y1="47.1782" x2="213.494" y2="43.386"/>
<line x1="210.155" y1="44.1188" x2="213.947" y2="44.1188"/><line x1="212.051" y1="42.2227" x2="212.051" y2="46.0149"/><line x1="210.155" y1="42.2227" x2="213.947" y2="46.0149"/><line x1="210.155" y1="46.0149" x2="213.947" y2="42.2227"/>
<line x1="210.608" y1="51.308" x2="214.4" y2="51.308"/><line x1="212.504" y1="49.4119" x2="212.504" y2="53.2041"/><line x1="210.608" y1="49.4119" x2="214.4" y2="53.2041"/><line x1="210.608" y1="53.2041" x2="214.4" y2="49.4119"/>
<line x1="211.061" y1="56.8287" x2="214.854" y2="56.8287"/><line x1="212.957" y1="54.9326" x2="212.957" y2="58.7248"/><line x1="211.061" y1="54.9326" x2="214.854" y2="58.7248"/><line x1="211.061" y1="58.7248" x2="214.854" y2="54.9326"/>
<line x1="211.515" y1="55.9074" x2="215.307" y2="55.9074"/><line x1="213.411" y1="54.0114" x2="213.411" y2="57.8035"/><line x1="211.515" y1="54.0114" x2="215.307" y2="57.8035"/><line x1="211.515" y1="57.8035" x2="215.307" y2="54.0114"/>
<line x1="211.968" y1="49.7555" x2="215.76" y2="49.7555"/><line x1="213.864" y1="47.8594" x2="213.864" y2="51.6515"/><line x1="211.968" y1="47.8594" x2="215.76" y2="51.6515"/><line x1="211.968" y1="51.6515" x2="215.76" y2="47.8594"/>
<line x1="212.421" y1="47.8564" x2="216.213" y2="47.8564"/><line x1="214.317" y1="45.9603" x2="214.317" y2="49.7525"/><line x1="212.421" y1="45.9603" x2="216.213" y2="49.7525"/><line x1="212.421" y1="49.7525" x2="216.213" y2="45.9603"/>
<line x1="212.874" y1="46.027" x2="216.666" y2="46.027"/><line x1="214.77" y1="44.131" x2="214.77" y2="47.9231"/><line x1="212.874" y1="44.131" x2="216.666" y2="47.9231"/><line x1="212.874" y1="47.9231" x2="216.666" y2="44.131"/>
<line x1="213.327" y1="55.4185" x2="217.12" y2="55.4185"/><line x1="215.224" y1="53.5224" x2="215.224" y2="57.3145"/><line x1="213.327" y1="53.5224" x2="217.12" y2="57.3145"/><line x1="213.327" y1="57.3145" x2="217.12" y2="53.5224"/>
<line x1="213.781" y1="55.2716" x2="217.573" y2="55.2716"/><line x1="215.677" y1="53.3755" x2="215.677" y2="57.1677"/><line x1="213.781" y1="53.3755" x2="217.573" y2="57.1677"/><line x1="213.781" y1="57.1677" x2="217.573" y2="53.3755"/>
<line x1="214.234" y1="62.3606" x2="218.026" y2="62.3606"/><line x1="216.13" y1="60.4646" x2="216.13" y2="64.2567"/><line x1="214.234" y1="60.4646" x2="218.026" y2="64.2567"/><line x1="214.234" y1="64.2567" x2="218.026" y2="60.4646"/>
<line x1="214.687" y1="62.1583" x2="218.479" y2="62.1583"/><line x1="216.583" y1="60.2622" x2="216.583" y2="64.0544"/><line x1="214.687" y1="60.2622" x2="218.479" y2="64.0544"/><line x1="214.687" y1="64.0544" x2="218.479" y2="60.2622"/>
<line x1="215.14" y1="60.0494" x2="218.933" y2="60.0494"/><line x1="217.036" y1="58.1533" x2="217.036" y2="61.9455"/><line x1="215.14" y1="58.1533" x2="218.933" y2="61.9455"/><line x1="215.14" y1="61.9455" x2="218.933" y2="58.1533"/>
<line x1="215.594" y1="71.4702" x2="219.386" y2="71.4702"/><line x1="217.49" y1="69.5741" x2="217.49" y2="73.3663"/><line x1="215.594" y1="69.5741" x2="219.386" y2="73.3663"/><line x1="215.594" y1="73.3663" x2="219.386" y2="69.5741"/>
<line x1="216.047" y1="66.2767" x2="219.839" y2="66.2767"/><line x1="217.943" y1="64.3806" x2="217.943" y2="68.1728"/><line x1="216.047" y1="64.3806" x2="219.839" y2="68.1728"/><line x1="216.047" y1="68.1728" x2="219.839" y2="64.3806"/>
<line x1="216.5" y1="64.8494" x2="220.292" y2="64.8494"/><line x1="218.396" y1="62.9533" x2="218.396" y2="66.7455"/><line x1="216.5" y1="62.9533" x2="220.292" y2="66.7455"/><line x1="216.5" y1="66.7455" x2="220.292" y2="62.9533"/>
<line x1="216.953" y1="76.6661" x2="220.745" y2="76.6661"/><line x1="218.849" y1="74.77" x2="218.849" y2="78.5622"/><line x1="216.953" y1="74.77" x2="220.745" y2="78.5622"/><line x1="216.953" y1="78.5622" x2="220.745" y2="74.77"/>
<line x1="217.407" y1="69.5776" x2="221.199" y2="69.5776"/><line x1="219.303" y1="67.6815" x2="219.303" y2="71.4737"/><line x1="217.407" y1="67.6815" x2="221.199" y2="71.4737"/><line x1="217.407" y1="71.4737" x2="221.199" y2="67.6815"/>
<line x1="217.86" y1="75.2123" x2="221.652" y2="75.2123"/><line x1="219.756" y1="73.3162" x2="219.756" y2="77.1084"/><line x1="217.86" y1="73.3162" x2="221.652" y2="77.1084"/><line x1="217.86" y1="77.1084" x2="221.652" y2="73.3162"/>
<line x1="218.313" y1="75.1502" x2="222.105" y2="75.1502"/><line x1="220.209" y1="73.2541" x2="220.209" y2="77.0463"/><line x1="218.313" y1="73.2541" x2="222.105" y2="77.0463"/><line x1="218.313" y1="77.0463" x2="222.105" y2="73.2541"/>
<line x1="218.766" y1="78.0637" x2="222.558" y2="78.0637"/><line x1="220.662" y1="76.1677" x2="220.662" y2="79.9598"/><line x1="218.766" y1="76.1677" x2="222.558" y2="79.9598"/><line x1="218.766" y1="79.9598" x2="222.558" y2="76.1677"/>
<line x1="219.219" y1="84.443" x2="223.012" y2="84.443"/><line x1="221.116" y1="82.547" x2="221.116" y2="86.3391"/><line x1="219.219" y1="82.547" x2="223.012" y2="86.3391"/><line x1="219.219" y1="86.3391" x2="223.012" y2="82.547"/>
<line x1="219.673" y1="88.351" x2="223.465" y2="88.351"/><line x1="221.569" y1="86.4549" x2="221.569" y2="90.2471"/><line x1="219.673" y1="86.4549" x2="223.465" y2="90.2471"/><line x1="219.673" y1="90.2471" x2="223.465" y2="86.4549"/>
<line x1="220.126" y1="89.902" x2="223.918" y2="89.902"/><line x1="222.022" y1="88.0059" x2="222.022" y2="91.7981"/><line x1="220.126" y1="88.0059" x2="223.918" y2="91.7981"/><line x1="220.126" y1="91.7981" x2="223.918" y2="88.0059"/>
<line x1="220.579" y1="88.3797" x2="224.371" y2="88.3797"/><line x1="222.475" y1="86.4836" x2="222.475" y2="90.2757"/><line x1="220.579" y1="86.4836" x2="224.371" y2="90.2757"/><line x1="220.579" y1="90.2757" x2="224.371" y2="86.4836"/>
<line x1="221.032" y1="103.464" x2="224.825" y2="103.464"/><line x1="222.928" y1="101.568" x2="222.928" y2="105.36"/><line x1="221.032" y1="101.568" x2="224.825" y2="105.36"/><line x1="221.032" y1="105.36" x2="224.825" y2="101.568"/>
<line x1="221.486" y1="110.331" x2="225.278" y2="110.331"/><line x1="223.382" y1="108.435" x2="223.382" y2="112.227"/><line x1="221.486" y1="108.435" x2="225.278" y2="112.227"/><line x1="221.486" y1="112.227" x2="225.278" y2="108.435"/>
<line x1="221.939" y1="111.624" x2="225.731" y2="111.624"/><line x1="223.835" y1="109.728" x2="223.835" y2="113.52"/><line x1="221.939" y1="109.728" x2="225.731" y2="113.52"/><line x1="221.939" y1="113.52" x2="225.731" y2="109.728"/>
<line x1="222.392" y1="120.449" x2="226.184" y2="120.449"/><line x1="224.288" y1="118.553" x2="224.288" y2="122.345"/><line x1="222.392" y1="118.553" x2="226.184" y2="122.345"/><line x1="222.392" y1="122.345" x2="226.184" y2="118.553"/>
<line x1="222.845" y1="117.342" x2="226.637" y2="117.342"/><line x1="224.741" y1="115.446" x2="224.741" y2="119.238"/><line x1="222.845" y1="115.446" x2="226.637" y2="119.238"/><line x1="222.845" y1="119.238" x2="226.637" y2="115.446"/>
<line x1="223.298" y1="113.83" x2="227.091" y2="113.83"/><line x1="225.195" y1="111.934" x2="225.195" y2="115.726"/><line x1="223.298" y1="111.934" x2="227.091" y2="115.726"/><line x1="223.298" y1="115.726" x2="227.091" y2="111.934"/>
<line x1="223.752" y1="126.151" x2="227.544" y2="126.151"/><line x1="225.648" y1="124.255" x2="225.648" y2="128.047"/><line x1="223.752" y1="124.255" x2="227.544" y2="128.047"/><line x1="223.752" y1="128.047" x2="227.544" y2="124.255"/>
<line x1="224.205" y1="122.453" x2="227.997" y2="122.453"/><line x1="226.101" y1="120.556" x2="226.101" y2="124.349"/><line x1="224.205" y1="120.556" x2="227.997" y2="124.349"/><line x1="224.205" y1="124.349" x2="227.997" y2="120.556"/>
<line x1="224.658" y1="122.806" x2="228.45" y2="122.806"/><line x1="226.554" y1="120.91" x2="226.554" y2="124.703"/><line x1="224.658" y1="120.91" x2="228.45" y2="124.703"/><line x1="224.658" y1="124.703" x2="228.45" y2="120.91"/>
<line x1="225.111" y1="122.874" x2="228.904" y2="122.874"/><line x1="227.007" y1="120.978" x2="227.007" y2="124.77"/><line x1="225.111" y1="120.978" x2="228.904" y2="124.77"/><line x1="225.111" y1="124.77" x2="228.904" y2="120.978"/>
<line x1="225.565" y1="122.94" x2="229.357" y2="122.94"/><line x1="227.461" y1="121.044" x2="227.461" y2="124.836"/><line x1="225.565" y1="121.044" x2="229.357" y2="124.836"/><line x1="225.565" y1="124.836" x2="229.357" y2="121.044"/>
<line x1="226.018" y1="126.381" x2="229.81" y2="126.381"/><line x1="227.914" y1="124.485" x2="227.914" y2="128.277"/><line x1="226.018" y1="124.485" x2="229.81" y2="128.277"/><line x1="226.018" y1="128.277" x2="229.81" y2="124.485"/>
<line x1="226.471" y1="124.942" x2="230.263" y2="124.942"/><line x1="228.367" y1="123.046" x2="228.367" y2="126.838"/><line x1="226.471" y1="123.046" x2="230.263" y2="126.838"/><line x1="226.471" y1="126.838" x2="230.263" y2="123.046"/>
<line x1="226.924" y1="141.639" x2="230.716" y2="141.639"/><line x1="228.82" y1="139.742" x2="228.82" y2="143.535"/><line x1="226.924" y1="139.742" x2="230.716" y2="143.535"/><line x1="226.924" y1="143.535" x2="230.716" y2="139.742"/>
<line x1="227.378" y1="137.175" x2="231.17" y2="137.175"/><line x1="229.274" y1="135.279" x2="229.274" y2="139.071"/><line x1="227.378" y1="135.279" x2="231.17" y2="139.071"/><line x1="227.378" y1="139.071" x2="231.17" y2="135.279"/>
<line x1="227.831" y1="141.929" x2="231.623" y2="141.929"/><line x1="229.727" y1="140.033" x2="229.727" y2="143.825"/><line x1="227.831" y1="140.033" x2="231.623" y2="143.825"/><line x1="227.831" y1="143.825" x2="231.623" y2="140.033"/>
<line x1="228.284" y1="132.518" x2="232.076" y2="132.518"/><line x1="230.18" y1="130.622" x2="230.18" y2="134.414"/><line x1="228.284" y1="130.622" x2="232.076" y2="134.414"/><line x1="228.284" y1="134.414" x2="232.076" y2="130.622"/>
<line x1="228.737" y1="144.407" x2="232.529" y2="144.407"/><line x1="230.633" y1="142.511" x2="230.633" y2="146.303"/><line x1="228.737" y1="142.511" x2="232.529" y2="146.303"/><line x1="228.737" y1="146.303" x2="232.529" y2="142.511"/>
<line x1="229.19" y1="149.999" x2="232.983" y2="149.999"/><line x1="231.087" y1="148.103" x2="231.087" y2="151.895"/><line x1="229.19" y1="148.103" x2="232.983" y2="151.895"/><line x1="229.19" y1="151.895" x2="232.983" y2="148.103"/>
<line x1="229.644" y1="145.027" x2="233.436" y2="145.027"/><line x1="231.54" y1="143.131" x2="231.54" y2="146.923"/><line x1="229.644" y1="143.131" x2="233.436" y2="146.923"/><line x1="229.644" y1="146.923" x2="233.436" y2="143.131"/>
<line x1="230.097" y1="145.294" x2="233.889" y2="145.294"/><line x1="231.993" y1="143.398" x2="231.993" y2="147.19"/><line x1="230.097" y1="143.398" x2="233.889" y2="147.19"/><line x1="230.097" y1="147.19" x2="233.889" y2="143.398"/>
<line x1="230.55" y1="145.319" x2="234.342" y2="145.319"/><line x1="232.446" y1="143.422" x2="232.446" y2="147.215"/><line x1="230.55" y1="143.422" x2="234.342" y2="147.215"/><line x1="230.55" y1="147.215" x2="234.342" y2="143.422"/>
<line x1="231.003" y1="152.924" x2="234.795" y2="152.924"/><line x1="232.899" y1="151.028" x2="232.899" y2="154.82"/><line x1="231.003" y1="151.028" x2="234.795" y2="154.82"/><line x1="231.003" y1="154.82" x2="234.795" y2="151.028"/>
<line x1="231.457" y1="161.855" x2="235.249" y2="161.855"/><line x1="233.353" y1="159.959" x2="233.353" y2="163.751"/><line x1="231.457" y1="159.959" x2="235.249" y2="163.751"/><line x1="231.457" y1="163.751" x2="235.249" y2="159.959"/>
<line x1="231.91" y1="175.074" x2="235.702" y2="175.074"/><line x1="233.806" y1="173.178" x2="233.806" y2="176.97"/><line x1="231.91" y1="173.178" x2="235.702" y2="176.97"/><line x1="231.91" y1="176.97" x2="235.702" y2="173.178"/>
<line x1="232.363" y1="180.265" x2="236.155" y2="180.265"/><line x1="234.259" y1="178.369" x2="234.259" y2="182.162"/><line x1="232.363" y1="178.369" x2="236.155" y2="182.162"/><line x1="232.363" y1="182.162" x2="236.155" y2="178.369"/>
<line x1="232.816" y1="180.219" x2="236.608" y2="180.219"/><line x1="234.712" y1="178.323" x2="234.712" y2="182.115"/><line x1="232.816" y1="178.323" x2="236.608" y2="182.115"/><line x1="232.816" y1="182.115" x2="236.608" y2="178.323"/>
<line x1="233.269" y1="176.435" x2="237.062" y2="176.435"/><line x1="235.166" y1="174.539" x2="235.166" y2="178.331"/><line x1="233.269" y1="174.539" x2="237.062" y2="178.331"/><line x1="233.269" y1="178.331" x2="237.062" y2="174.539"/>
<line x1="233.723" y1="184.8" x2="237.515" y2="184.8"/><line x1="235.619" y1="182.904" x2="235.619" y2="186.696"/><line x1="233.723" y1="182.904" x2="237.515" y2="186.696"/><line x1="233.723" y1="186.696" x2="237.515" y2="182.904"/>
<line x1="234.176" y1="184.9" x2="237.968" y2="184.9"/><line x1="236.072" y1="183.004" x2="236.072" y2="186.796"/><line x1="234.176" y1="183.004" x2="237.968" y2="186.796"/><line x1="234.176" y1="186.796" x2="237.968" y2="183.004"/>
<line x1="234.629" y1="183.471" x2="238.421" y2="183.471"/><line x1="236.525" y1="181.575" x2="236.525" y2="185.367"/><line x1="234.629" y1="181.575" x2="238.421" y2="185.367"/><line x1="234.629" y1="185.367" x2="238.421" y2="181.575"/>
<line x1="235.082" y1="181.616" x2="238.875" y2="181.616"/><line x1="236.978" y1="179.72" x2="236.978" y2="183.512"/><line x1="235.082" y1="179.72" x2="238.875" y2="183.512"/><line x1="235.082" y1="183.512" x2="238.875" y2="179.72"/>
<line x1="235.536" y1="178.186" x2="239.328" y2="178.186"/><line x1="237.432" y1="176.29" x2="237.432" y2="180.082"/><line x1="235.536" y1="176.29" x2="239.328" y2="180.082"/><line x1="235.536" y1="180.082" x2="239.328" y2="176.29"/>
<line x1="235.989" y1="185.046" x2="239.781" y2="185.046"/><line x1="237.885" y1="183.15" x2="237.885" y2="186.942"/><line x1="235.989" y1="183.15" x2="239.781" y2="186.942"/><line x1="235.989" y1="186.942" x2="239.781" y2="183.15"/>
<line x1="236.442" y1="186.058" x2="240.234" y2="186.058"/><line x1="238.338" y1="184.162" x2="238.338" y2="187.954"/><line x1="236.442" y1="184.162" x2="240.234" y2="187.954"/><line x1="236.442" y1="187.954" x2="240.234" y2="184.162"/>
<line x1="236.895" y1="186.223" x2="240.687" y2="186.223"/><line x1="238.791" y1="184.326" x2="238.791" y2="188.119"/><line x1="236.895" y1="184.326" x2="240.687" y2="188.119"/><line x1="236.895" y1="188.119" x2="240.687" y2="184.326"/>
<line x1="237.348" y1="183.334" x2="241.141" y2="183.334"/><line x1="239.245" y1="181.438" x2="239.245" y2="185.23"/><line x1="237.348" y1="181.438" x2="241.141" y2="185.23"/><line x1="237.348" y1="185.23" x2="241.141" y2="181.438"/>
<line x1="237.802" y1="187.206" x2="241.594" y2="187.206"/><line x1="239.698" y1="185.31" x2="239.698" y2="189.102"/><line x1="237.802" y1="185.31" x2="241.594" y2="189.102"/><line x1="237.802" y1="189.102" x2="241.594" y2="185.31"/>
<line x1="238.255" y1="184.264" x2="242.047" y2="184.264"/><line x1="240.151" y1="182.368" x2="240.151" y2="186.16"/><line x1="238.255" y1="182.368" x2="242.047" y2="186.16"/><line x1="238.255" y1="186.16" x2="242.047" y2="182.368"/>
<line x1="238.708" y1="187.212" x2="242.5" y2="187.212"/><line x1="240.604" y1="185.316" x2="240.604" y2="189.109"/><line x1="238.708" y1="185.316" x2="242.5" y2="189.109"/><line x1="238.708" y1="189.109" x2="242.5" y2="185.316"/>
<line x1="239.161" y1="188.904" x2="242.954" y2="188.904"/><line x1="241.057" y1="187.008" x2="241.057" y2="190.8"/><line x1="239.161" y1="187.008" x2="242.954" y2="190.8"/><line x1="239.161" y1="190.8" x2="242.954" y2="187.008"/>
<line x1="239.615" y1="191.005" x2="243.407" y2="191.005"/><line x1="241.511" y1="189.109" x2="241.511" y2="192.901"/><line x1="239.615" y1="189.109" x2="243.407" y2="192.901"/><line x1="239.615" y1="192.901" x2="243.407" y2="189.109"/>
<line x1="240.068" y1="202.047" x2="243.86" y2="202.047"/><line x1="241.964" y1="200.151" x2="241.964" y2="203.943"/><line x1="240.068" y1="200.151" x2="243.86" y2="203.943"/><line x1="240.068" y1="203.943" x2="243.86" y2="200.151"/>
<line x1="240.521" y1="202.922" x2="244.313" y2="202.922"/><line x1="242.417" y1="201.026" x2="242.417" y2="204.818"/><line x1="240.521" y1="201.026" x2="244.313" y2="204.818"/><line x1="240.521" y1="204.818" x2="244.313" y2="201.026"/>
<line x1="240.974" y1="206.257" x2="244.766" y2="206.257"/><line x1="242.87" y1="204.361" x2="242.87" y2="208.153"/><line x1="240.974" y1="204.361" x2="244.766" y2="208.153"/><line x1="240.974" y1="208.153" x2="244.766" y2="204.361"/>
<line x1="241.428" y1="205.167" x2="245.22" y2="205.167"/><line x1="243.324" y1="203.27" x2="243.324" y2="207.063"/><line x1="241.428" y1="203.27" x2="245.22" y2="207.063"/><line x1="241.428" y1="207.063" x2="245.22" y2="203.27"/>
<line x1="241.881" y1="204.604" x2="245.673" y2="204.604"/><line x1="243.777" y1="202.708" x2="243.777" y2="206.5"/><line x1="241.881" y1="202.708" x2="245.673" y2="206.5"/><line x1="241.881" y1="206.5" x2="245.673" y2="202.708"/>
<line x1="242.334" y1="200.235" x2="246.126" y2="200.235"/><line x1="244.23" y1="198.339" x2="244.23" y2="202.131"/><line x1="242.334" y1="198.339" x2="246.126" y2="202.131"/><line x1="242.334" y1="202.131" x2="246.126" y2="198.339"/>
<line x1="242.787" y1="202.906" x2="246.579" y2="202.906"/><line x1="244.683" y1="201.009" x2="244.683" y2="204.802"/><line x1="242.787" y1="201.009" x2="246.579" y2="204.802"/><line x1="242.787" y1="204.802" x2="246.579" y2="201.009"/>
<line x1="243.24" y1="210.778" x2="247.033" y2="210.778"/><line x1="245.137" y1="208.882" x2="245.137" y2="212.674"/><line x1="243.24" y1="208.882" x2="247.033" y2="212.674"/><line x1="243.24" y1="212.674" x2="247.033" y2="208.882"/>
<line x1="243.694" y1="218.57" x2="247.486" y2="218.57"/><line x1="245.59" y1="216.674" x2="245.59" y2="220.466"/><line x1="243.694" y1="216.674" x2="247.486" y2="220.466"/><line x1="243.694" y1="220.466" x2="247.486" y2="216.674"/>
<line x1="244.147" y1="225.07" x2="247.939" y2="225.07"/><line x1="246.043" y1="223.174" x2="246.043" y2="226.966"/><line x1="244.147" y1="223.174" x2="247.939" y2="226.966"/><line x1="244.147" y1="226.966" x2="247.939" y2="223.174"/>
<line x1="244.6" y1="231.799" x2="248.392" y2="231.799"/><line x1="246.496" y1="229.903" x2="246.496" y2="233.695"/><line x1="244.6" y1="229.903" x2="248.392" y2="233.695"/><line x1="244.6" y1="233.695" x2="248.392" y2="229.903"/>
<line x1="245.053" y1="229.876" x2="248.845" y2="229.876"/><line x1="246.949" y1="227.979" x2="246.949" y2="231.772"/><line x1="245.053" y1="227.979" x2="248.845" y2="231.772"/><line x1="245.053" y1="231.772" x2="248.845" y2="227.979"/>
<line x1="245.507" y1="230.054" x2="249.299" y2="230.054"/><line x1="247.403" y1="228.158" x2="247.403" y2="231.95"/><line x1="245.507" y1="228.158" x2="249.299" y2="231.95"/><line x1="245.507" y1="231.95" x2="249.299" y2="228.158"/>
<line x1="245.96" y1="223.074" x2="249.752" y2="223.074"/><line x1="247.856" y1="221.178" x2="247.856" y2="224.97"/><line x1="245.96" y1="221.178" x2="249.752" y2="224.97"/><line x1="245.96" y1="224.97" x2="249.752" y2="221.178"/>
<line x1="246.413" y1="221.646" x2="250.205" y2="221.646"/><line x1="248.309" y1="219.75" x2="248.309" y2="223.542"/><line x1="246.413" y1="219.75" x2="250.205" y2="223.542"/><line x1="246.413" y1="223.542" x2="250.205" y2="219.75"/>
<line x1="246.866" y1="224.257" x2="250.658" y2="224.257"/><line x1="248.762" y1="222.361" x2="248.762" y2="226.153"/><line x1="246.866" y1="222.361" x2="250.658" y2="226.153"/><line x1="246.866" y1="226.153" x2="250.658" y2="222.361"/>
<line x1="247.319" y1="221.249" x2="251.112" y2="221.249"/><line x1="249.216" y1="219.353" x2="249.216" y2="223.145"/><line x1="247.319" y1="219.353" x2="251.112" y2="223.145"/><line x1="247.319" y1="223.145" x2="251.112" y2="219.353"/>
<line x1="247.773" y1="222.065" x2="251.565" y2="222.065"/><line x1="249.669" y1="220.169" x2="249.669" y2="223.961"/><line x1="247.773" y1="220.169" x2="251.565" y2="223.961"/><line x1="247.773" y1="223.961" x2="251.565" y2="220.169"/>
<line x1="248.226" y1="214.434" x2="252.018" y2="214.434"/><line x1="250.122" y1="212.538" x2="250.122" y2="216.33"/><line x1="248.226" y1="212.538" x2="252.018" y2="216.33"/><line x1="248.226" y1="216.33" x2="252.018" y2="212.538"/>
<line x1="248.679" y1="217.982" x2="252.471" y2="217.982"/><line x1="250.575" y1="216.086" x2="250.575" y2="219.878"/><line x1="248.679" y1="216.086" x2="252.471" y2="219.878"/><line x1="248.679" y1="219.878" x2="252.471" y2="216.086"/>
<line x1="249.132" y1="225.962" x2="252.925" y2="225.962"/><line x1="251.028" y1="224.066" x2="251.028" y2="227.858"/><line x1="249.132" y1="224.066" x2="252.925" y2="227.858"/><line x1="249.132" y1="227.858" x2="252.925" y2="224.066"/>
<line x1="249.586" y1="225.369" x2="253.378" y2="225.369"/><line x1="251.482" y1="223.473" x2="251.482" y2="227.265"/><line x1="249.586" y1="223.473" x2="253.378" y2="227.265"/><line x1="249.586" y1="227.265" x2="253.378" y2="223.473"/>
<line x1="250.039" y1="228.459" x2="253.831" y2="228.459"/><line x1="251.935" y1="226.562" x2="251.935" y2="230.355"/><line x1="250.039" y1="226.562" x2="253.831" y2="230.355"/><line x1="250.039" y1="230.355" x2="253.831" y2="226.562"/>
<line x1="250.492" y1="234.895" x2="254.284" y2="234.895"/><line x1="252.388" y1="232.998" x2="252.388" y2="236.791"/><line x1="250.492" y1="232.998" x2="254.284" y2="236.791"/><line x1="250.492" y1="236.791" x2="254.284" y2="232.998"/>
<line x1="250.945" y1="239.369" x2="254.737" y2="239.369"/><line x1="252.841" y1="237.473" x2="252.841" y2="241.265"/><line x1="250.945" y1="237.473" x2="254.737" y2="241.265"/><line x1="250.945" y1="241.265" x2="254.737" y2="237.473"/>
<line x1="251.398" y1="242.542" x2="255.191" y2="242.542"/><line x1="253.295" y1="240.646" x2="253.295" y2="244.438"/><line x1="251.398" y1="240.646" x2="255.191" y2="244.438"/><line x1="251.398" y1="244.438" x2="255.191" y2="240.646"/>
<line x1="251.852" y1="253.265" x2="255.644" y2="253.265"/><line x1="253.748" y1="251.369" x2="253.748" y2="255.161"/><line x1="251.852" y1="251.369" x2="255.644" y2="255.161"/><line x1="251.852" y1="255.161" x2="255.644" y2="251.369"/>
<line x1="252.305" y1="259.761" x2="256.097" y2="259.761"/><line x1="254.201" y1="257.865" x2="254.201" y2="261.657"/><line x1="252.305" y1="257.865" x2="256.097" y2="261.657"/><line x1="252.305" y1="261.657" x2="256.097" y2="257.865"/>
<line x1="252.758" y1="261.795" x2="256.55" y2="261.795"/><line x1="254.654" y1="259.899" x2="254.654" y2="263.691"/><line x1="252.758" y1="259.899" x2="256.55" y2="263.691"/><line x1="252.758" y1="263.691" x2="256.55" y2="259.899"/>
<line x1="253.211" y1="269.204" x2="257.004" y2="269.204"/><line x1="255.107" y1="267.308" x2="255.107" y2="271.1"/><line x1="253.211" y1="267.308" x2="257.004" y2="271.1"/><line x1="253.211" y1="271.1" x2="257.004" y2="267.308"/>
<line x1="253.665" y1="273.315" x2="257.457" y2="273.315"/><line x1="255.561" y1="271.419" x2="255.561" y2="275.211"/><line x1="253.665" y1="271.419" x2="257.457" y2="275.211"/><line x1="253.665" y1="275.211" x2="257.457" y2="271.419"/>
<line x1="254.118" y1="275.995" x2="257.91" y2="275.995"/><line x1="256.014" y1="274.099" x2="256.014" y2="277.891"/><line x1="254.118" y1="274.099" x2="257.91" y2="277.891"/><line x1="254.118" y1="277.891" x2="257.91" y2="274.099"/>
<line x1="254.571" y1="281.664" x2="258.363" y2="281.664"/><line x1="256.467" y1="279.768" x2="256.467" y2="283.56"/><line x1="254.571" y1="279.768" x2="258.363" y2="283.56"/><line x1="254.571" y1="283.56" x2="258.363" y2="279.768"/>
<line x1="255.024" y1="288.138" x2="258.816" y2="288.138"/><line x1="256.92" y1="286.242" x2="256.92" y2="290.035"/><line x1="255.024" y1="286.242" x2="258.816" y2="290.035"/><line x1="255.024" y1="290.035" x2="258.816" y2="286.242"/>
<line x1="255.478" y1="292.958" x2="259.27" y2="292.958"/><line x1="257.374" y1="291.062" x2="257.374" y2="294.854"/><line x1="255.478" y1="291.062" x2="259.27" y2="294.854"/><line x1="255.478" y1="294.854" x2="259.27" y2="291.062"/>
<line x1="255.931" y1="299.818" x2="259.723" y2="299.818"/><line x1="257.827" y1="297.922" x2="257.827" y2="301.714"/><line x1="255.931" y1="297.922" x2="259.723" y2="301.714"/><line x1="255.931" y1="301.714" x2="259.723" y2="297.922"/>
<line x1="256.384" y1="303.905" x2="260.176" y2="303.905"/><line x1="258.28" y1="302.009" x2="258.28" y2="305.802"/><line x1="256.384" y1="302.009" x2="260.176" y2="305.802"/><line x1="256.384" y1="305.802" x2="260.176" y2="302.009"/>
<line x1="256.837" y1="299.13" x2="260.629" y2="299.13"/><line x1="258.733" y1="297.234" x2="258.733" y2="301.026"/><line x1="256.837" y1="297.234" x2="260.629" y2="301.026"/><line x1="256.837" y1="301.026" x2="260.629" y2="297.234"/>
<line x1="257.29" y1="296.69" x2="261.083" y2="296.69"/><line x1="259.187" y1="294.794" x2="259.187" y2="298.586"/><line x1="257.29" y1="294.794" x2="261.083" y2="298.586"/><line x1="257.29" y1="298.586" x2="261.083" y2="294.794"/>
<line x1="257.744" y1="293.044" x2="261.536" y2="293.044"/><line x1="259.64" y1="291.148" x2="259.64" y2="294.94"/><line x1="257.744" y1="291.148" x2="261.536" y2="294.94"/><line x1="257.744" y1="294.94" x2="261.536" y2="291.148"/>
<line x1="258.197" y1="288.867" x2="261.989" y2="288.867"/><line x1="260.093" y1="286.97" x2="260.093" y2="290.763"/><line x1="258.197" y1="286.97" x2="261.989" y2="290.763"/><line x1="258.197" y1="290.763" x2="261.989" y2="286.97"/>
<line x1="258.65" y1="288.036" x2="262.442" y2="288.036"/><line x1="260.546" y1="286.14" x2="260.546" y2="289.932"/><line x1="258.65" y1="286.14" x2="262.442" y2="289.932"/><line x1="258.65" y1="289.932" x2="262.442" y2="286.14"/>
<line x1="259.103" y1="291.913" x2="262.896" y2="291.913"/><line x1="260.999" y1="290.017" x2="260.999" y2="293.809"/><line x1="259.103" y1="290.017" x2="262.896" y2="293.809"/><line x1="259.103" y1="293.809" x2="262.896" y2="290.017"/>
<line x1="259.557" y1="296.172" x2="263.349" y2="296.172"/><line x1="261.453" y1="294.276" x2="261.453" y2="298.068"/><line x1="259.557" y1="294.276" x2="263.349" y2="298.068"/><line x1="259.557" y1="298.068" x2="263.349" y2="294.276"/>
<line x1="260.01" y1="290.606" x2="263.802" y2="290.606"/><line x1="261.906" y1="288.709" x2="261.906" y2="292.502"/><line x1="260.01" y1="288.709" x2="263.802" y2="292.502"/><line x1="260.01" y1="292.502" x2="263.802" y2="288.709"/>
<line x1="260.463" y1="291.328" x2="264.255" y2="291.328"/><line x1="262.359" y1="289.432" x2="262.359" y2="293.224"/><line x1="260.463" y1="289.432" x2="264.255" y2="293.224"/><line x1="260.463" y1="293.224" x2="264.255" y2="289.432"/>
<line x1="260.916" y1="289.105" x2="264.708" y2="289.105"/><line x1="262.812" y1="287.208" x2="262.812" y2="291.001"/><line x1="260.916" y1="287.208" x2="264.708" y2="291.001"/><line x1="260.916" y1="291.001" x2="264.708" y2="287.208"/>
<line x1="261.369" y1="289.459" x2="265.162" y2="289.459"/><line x1="263.266" y1="287.563" x2="263.266" y2="291.355"/><line x1="261.369" y1="287.563" x2="265.162" y2="291.355"/><line x1="261.369" y1="291.355" x2="265.162" y2="287.563"/>
<line x1="261.823" y1="286.469" x2="265.615" y2="286.469"/><line x1="263.719" y1="284.573" x2="263.719" y2="288.365"/><line x1="261.823" y1="284.573" x2="265.615" y2="288.365"/><line x1="261.823" y1="288.365" x2="265.615" y2="284.573"/>
<line x1="262.276" y1="286.889" x2="266.068" y2="286.889"/><line x1="264.172" y1="284.993" x2="264.172" y2="288.785"/><line x1="262.276" y1="284.993" x2="266.068" y2="288.785"/><line x1="262.276" y1="288.785" x2="266.068" y2="284.993"/>
<line x1="262.729" y1="287.491" x2="266.521" y2="287.491"/><line x1="264.625" y1="285.595" x2="264.625" y2="289.387"/><line x1="262.729" y1="285.595" x2="266.521" y2="289.387"/><line x1="262.729" y1="289.387" x2="266.521" y2="285.595"/>
<line x1="263.182" y1="289.047" x2="266.975" y2="289.047"/><line x1="265.078" y1="287.151" x2="265.078" y2="290.944"/><line x1="263.182" y1="287.151" x2="266.975" y2="290.944"/><line x1="263.182" y1="290.944" x2="266.975" y2="287.151"/>
<line x1="263.636" y1="293.097" x2="267.428" y2="293.097"/><line x1="265.532" y1="291.201" x2="265.532" y2="294.993"/><line x1="263.636" y1="291.201" x2="267.428" y2="294.993"/><line x1="263.636" y1="294.993" x2="267.428" y2="291.201"/>
<line x1="264.089" y1="299.394" x2="267.881" y2="299.394"/><line x1="265.985" y1="297.498" x2="265.985" y2="301.29"/><line x1="264.089" y1="297.498" x2="267.881" y2="301.29"/><line x1="264.089" y1="301.29" x2="267.881" y2="297.498"/>
<line x1="264.542" y1="298.94" x2="268.334" y2="298.94"/><line x1="266.438" y1="297.044" x2="266.438" y2="300.836"/><line x1="264.542" y1="297.044" x2="268.334" y2="300.836"/><line x1="264.542" y1="300.836" x2="268.334" y2="297.044"/>
<line x1="264.995" y1="302.422" x2="268.787" y2="302.422"/><line x1="266.891" y1="300.526" x2="266.891" y2="304.318"/><line x1="264.995" y1="300.526" x2="268.787" y2="304.318"/><line x1="264.995" y1="304.318" x2="268.787" y2="300.526"/>
<line x1="265.448" y1="297.818" x2="269.241" y2="297.818"/><line x1="267.345" y1="295.922" x2="267.345" y2="299.714"/><line x1="265.448" y1="295.922" x2="269.241" y2="299.714"/><line x1="265.448" y1="299.714" x2="269.241" y2="295.922"/>
<line x1="265.902" y1="306.097" x2="269.694" y2="306.097"/><line x1="267.798" y1="304.201" x2="267.798" y2="307.993"/><line x1="265.902" y1="304.201" x2="269.694" y2="307.993"/><line x1="265.902" y1="307.993" x2="269.694" y2="304.201"/>
<line x1="266.355" y1="308.31" x2="270.147" y2="308.31"/><line x1="268.251" y1="306.414" x2="268.251" y2="310.206"/><line x1="266.355" y1="306.414" x2="270.147" y2="310.206"/><line x1="266.355" y1="310.206" x2="270.147" y2="306.414"/>
<line x1="266.808" y1="299.672" x2="270.6" y2="299.672"/><line x1="268.704" y1="297.776" x2="268.704" y2="301.568"/><line x1="266.808" y1="297.776" x2="270.6" y2="301.568"/><line x1="266.808" y1="301.568" x2="270.6" y2="297.776"/>
<line x1="267.261" y1="303.077" x2="271.054" y2="303.077"/><line x1="269.158" y1="301.181" x2="269.158" y2="304.973"/><line x1="267.261" y1="301.181" x2="271.054" y2="304.973"/><line x1="267.261" y1="304.973" x2="271.054" y2="301.181"/>
<line x1="267.715" y1="308.29" x2="271.507" y2="308.29"/><line x1="269.611" y1="306.394" x2="269.611" y2="310.186"/><line x1="267.715" y1="306.394" x2="271.507" y2="310.186"/><line x1="267.715" y1="310.186" x2="271.507" y2="306.394"/>
<line x1="268.168" y1="310.298" x2="271.96" y2="310.298"/><line x1="270.064" y1="308.402" x2="270.064" y2="312.194"/><line x1="268.168" y1="308.402" x2="271.96" y2="312.194"/><line x1="268.168" y1="312.194" x2="271.96" y2="308.402"/>
<line x1="268.621" y1="311.795" x2="272.413" y2="311.795"/><line x1="270.517" y1="309.899" x2="270.517" y2="313.691"/><line x1="268.621" y1="309.899" x2="272.413" y2="313.691"/><line x1="268.621" y1="313.691" x2="272.413" y2="309.899"/>
<line x1="269.074" y1="312.633" x2="272.866" y2="312.633"/><line x1="270.97" y1="310.737" x2="270.97" y2="314.529"/><line x1="269.074" y1="310.737" x2="272.866" y2="314.529"/><line x1="269.074" y1="314.529" x2="272.866" y2="310.737"/>
<line x1="269.528" y1="309.075" x2="273.32" y2="309.075"/><line x1="271.424" y1="307.179" x2="271.424" y2="310.971"/><line x1="269.528" y1="307.179" x2="273.32" y2="310.971"/><line x1="269.528" y1="310.971" x2="273.32" y2="307.179"/>
<line x1="269.981" y1="306.254" x2="273.773" y2="306.254"/><line x1="271.877" y1="304.357" x2="271.877" y2="308.15"/><line x1="269.981" y1="304.357" x2="273.773" y2="308.15"/><line x1="269.981" y1="308.15" x2="273.773" y2="304.357"/>
<line x1="270.434" y1="313.255" x2="274.226" y2="313.255"/><line x1="272.33" y1="311.359" x2="272.33" y2="315.151"/><line x1="270.434" y1="311.359" x2="274.226" y2="315.151"/><line x1="270.434" y1="315.151" x2="274.226" y2="311.359"/>
<line x1="270.887" y1="314.045" x2="274.679" y2="314.045"/><line x1="272.783" y1="312.149" x2="272.783" y2="315.941"/><line x1="270.887" y1="312.149" x2="274.679" y2="315.941"/><line x1="270.887" y1="315.941" x2="274.679" y2="312.149"/>
<line x1="271.34" y1="312.619" x2="275.133" y2="312.619"/><line x1="273.237" y1="310.723" x2="273.237" y2="314.515"/><line x1="271.34" y1="310.723" x2="275.133" y2="314.515"/><line x1="271.34" y1="314.515" x2="275.133" y2="310.723"/>
<line x1="271.794" y1="321.971" x2="275.586" y2="321.971"/><line x1="273.69" y1="320.075" x2="273.69" y2="323.867"/><line x1="271.794" y1="320.075" x2="275.586" y2="323.867"/><line x1="271.794" y1="323.867" x2="275.586" y2="320.075"/>
<line x1="272.247" y1="323.292" x2="276.039" y2="323.292"/><line x1="274.143" y1="321.395" x2="274.143" y2="325.188"/><line x1="272.247" y1="321.395" x2="276.039" y2="325.188"/><line x1="272.247" y1="325.188" x2="276.039" y2="321.395"/>
<line x1="272.7" y1="321.157" x2="276.492" y2="321.157"/><line x1="274.596" y1="319.261" x2="274.596" y2="323.053"/><line x1="272.7" y1="319.261" x2="276.492" y2="323.053"/><line x1="272.7" y1="323.053" x2="276.492" y2="319.261"/>
<line x1="273.153" y1="324.168" x2="276.946" y2="324.168"/><line x1="275.049" y1="322.272" x2="275.049" y2="326.064"/><line x1="273.153" y1="322.272" x2="276.946" y2="326.064"/><line x1="273.153" y1="326.064" x2="276.946" y2="322.272"/>
<line x1="273.607" y1="324.515" x2="277.399" y2="324.515"/><line x1="275.503" y1="322.619" x2="275.503" y2="326.411"/><line x1="273.607" y1="322.619" x2="277.399" y2="326.411"/><line x1="273.607" y1="326.411" x2="277.399" y2="322.619"/>
<line x1="274.06" y1="330.447" x2="277.852" y2="330.447"/><line x1="275.956" y1="328.55" x2="275.956" y2="332.343"/><line x1="274.06" y1="328.55" x2="277.852" y2="332.343"/><line x1="274.06" y1="332.343" x2="277.852" y2="328.55"/>
<line x1="274.513" y1="335.315" x2="278.305" y2="335.315"/><line x1="276.409" y1="333.419" x2="276.409" y2="337.211"/><line x1="274.513" y1="333.419" x2="278.305" y2="337.211"/><line x1="274.513" y1="337.211" x2="278.305" y2="333.419"/>
<line x1="274.966" y1="340.671" x2="278.758" y2="340.671"/><line x1="276.862" y1="338.775" x2="276.862" y2="342.567"/><line x1="274.966" y1="338.775" x2="278.758" y2="342.567"/><line x1="274.966" y1="342.567" x2="278.758" y2="338.775"/>
<line x1="275.419" y1="343.387" x2="279.212" y2="343.387"/><line x1="277.316" y1="341.491" x2="277.316" y2="345.283"/><line x1="275.419" y1="341.491" x2="279.212" y2="345.283"/><line x1="275.419" y1="345.283" x2="279.212" y2="341.491"/>
<line x1="275.873" y1="342.091" x2="279.665" y2="342.091"/><line x1="277.769" y1="340.195" x2="277.769" y2="343.987"/><line x1="275.873" y1="340.195" x2="279.665" y2="343.987"/><line x1="275.873" y1="343.987" x2="279.665" y2="340.195"/>
<line x1="276.326" y1="351.41" x2="280.118" y2="351.41"/><line x1="278.222" y1="349.514" x2="278.222" y2="353.306"/><line x1="276.326" y1="349.514" x2="280.118" y2="353.306"/><line x1="276.326" y1="353.306" x2="280.118" y2="349.514"/>
<line x1="276.779" y1="350.064" x2="280.571" y2="350.064"/><line x1="278.675" y1="348.168" x2="278.675" y2="351.96"/><line x1="276.779" y1="348.168" x2="280.571" y2="351.96"/><line x1="276.779" y1="351.96" x2="280.571" y2="348.168"/>
<line x1="277.232" y1="351.819" x2="281.025" y2="351.819"/><line x1="279.128" y1="349.923" x2="279.128" y2="353.715"/><line x1="277.232" y1="349.923" x2="281.025" y2="353.715"/><line x1="277.232" y1="353.715" x2="281.025" y2="349.923"/>
<line x1="277.686" y1="351.758" x2="281.478" y2="351.758"/><line x1="279.582" y1="349.861" x2="279.582" y2="353.654"/><line x1="277.686" y1="349.861" x2="281.478" y2="353.654"/><line x1="277.686" y1="353.654" x2="281.478" y2="349.861"/>
<line x1="278.139" y1="351.658" x2="281.931" y2="351.658"/><line x1="280.035" y1="349.762" x2="280.035" y2="353.554"/><line x1="278.139" y1="349.762" x2="281.931" y2="353.554"/><line x1="278.139" y1="353.554" x2="281.931" y2="349.762"/>
<line x1="278.592" y1="354.63" x2="282.384" y2="354.63"/><line x1="280.488" y1="352.733" x2="280.488" y2="356.526"/><line x1="278.592" y1="352.733" x2="282.384" y2="356.526"/><line x1="278.592" y1="356.526" x2="282.384" y2="352.733"/>
<line x1="279.045" y1="349.943" x2="282.837" y2="349.943"/><line x1="280.941" y1="348.047" x2="280.941" y2="351.84"/><line x1="279.045" y1="348.047" x2="282.837" y2="351.84"/><line x1="279.045" y1="351.84" x2="282.837" y2="348.047"/>
<line x1="279.499" y1="349.76" x2="283.291" y2="349.76"/><line x1="281.395" y1="347.864" x2="281.395" y2="351.657"/><line x1="279.499" y1="347.864" x2="283.291" y2="351.657"/><line x1="279.499" y1="351.657" x2="283.291" y2="347.864"/>
<line x1="279.952" y1="355.485" x2="283.744" y2="355.485"/><line x1="281.848" y1="353.589" x2="281.848" y2="357.381"/><line x1="279.952" y1="353.589" x2="283.744" y2="357.381"/><line x1="279.952" y1="357.381" x2="283.744" y2="353.589"/>
<line x1="280.405" y1="354.641" x2="284.197" y2="354.641"/><line x1="282.301" y1="352.745" x2="282.301" y2="356.537"/><line x1="280.405" y1="352.745" x2="284.197" y2="356.537"/><line x1="280.405" y1="356.537" x2="284.197" y2="352.745"/>
<line x1="280.858" y1="354.365" x2="284.65" y2="354.365"/><line x1="282.754" y1="352.469" x2="282.754" y2="356.261"/><line x1="280.858" y1="352.469" x2="284.65" y2="356.261"/><line x1="280.858" y1="356.261" x2="284.65" y2="352.469"/>
<line x1="281.311" y1="353.006" x2="285.104" y2="353.006"/><line x1="283.207" y1="351.11" x2="283.207" y2="354.902"/><line x1="281.311" y1="351.11" x2="285.104" y2="354.902"/><line x1="281.311" y1="354.902" x2="285.104" y2="351.11"/>
<line x1="281.765" y1="353.244" x2="285.557" y2="353.244"/><line x1="283.661" y1="351.347" x2="283.661" y2="355.14"/><line x1="281.765" y1="351.347" x2="285.557" y2="355.14"/><line x1="281.765" y1="355.14" x2="285.557" y2="351.347"/>
<line x1="282.218" y1="356.265" x2="286.01" y2="356.265"/><line x1="284.114" y1="354.369" x2="284.114" y2="358.161"/><line x1="282.218" y1="354.369" x2="286.01" y2="358.161"/><line x1="282.218" y1="358.161" x2="286.01" y2="354.369"/>
<line x1="282.671" y1="350.312" x2="286.463" y2="350.312"/><line x1="284.567" y1="348.416" x2="284.567" y2="352.208"/><line x1="282.671" y1="348.416" x2="286.463" y2="352.208"/><line x1="282.671" y1="352.208" x2="286.463" y2="348.416"/>
<line x1="283.124" y1="347.516" x2="286.916" y2="347.516"/><line x1="285.02" y1="345.62" x2="285.02" y2="349.412"/><line x1="283.124" y1="345.62" x2="286.916" y2="349.412"/><line x1="283.124" y1="349.412" x2="286.916" y2="345.62"/>
<line x1="283.578" y1="345.103" x2="287.37" y2="345.103"/><line x1="285.474" y1="343.207" x2="285.474" y2="347"/><line x1="283.578" y1="343.207" x2="287.37" y2="347"/><line x1="283.578" y1="347" x2="287.37" y2="343.207"/>
<line x1="284.031" y1="347.273" x2="287.823" y2="347.273"/><line x1="285.927" y1="345.377" x2="285.927" y2="349.169"/><line x1="284.031" y1="345.377" x2="287.823" y2="349.169"/><line x1="284.031" y1="349.169" x2="287.823" y2="345.377"/>
<line x1="284.484" y1="341.411" x2="288.276" y2="341.411"/><line x1="286.38" y1="339.515" x2="286.38" y2="343.308"/><line x1="284.484" y1="339.515" x2="288.276" y2="343.308"/><line x1="284.484" y1="343.308" x2="288.276" y2="339.515"/>
<line x1="284.937" y1="345.408" x2="288.729" y2="345.408"/><line x1="286.833" y1="343.512" x2="286.833" y2="347.304"/><line x1="284.937" y1="343.512" x2="288.729" y2="347.304"/><line x1="284.937" y1="347.304" x2="288.729" y2="343.512"/>
<line x1="285.39" y1="342.4" x2="289.183" y2="342.4"/><line x1="287.287" y1="340.504" x2="287.287" y2="344.297"/><line x1="285.39" y1="340.504" x2="289.183" y2="344.297"/><line x1="285.39" y1="344.297" x2="289.183" y2="340.504"/>
<line x1="285.844" y1="334.826" x2="289.636" y2="334.826"/><line x1="287.74" y1="332.929" x2="287.74" y2="336.722"/><line x1="285.844" y1="332.929" x2="289.636" y2="336.722"/><line x1="285.844" y1="336.722" x2="289.636" y2="332.929"/>
<line x1="286.297" y1="337.12" x2="290.089" y2="337.12"/><line x1="288.193" y1="335.223" x2="288.193" y2="339.016"/><line x1="286.297" y1="335.223" x2="290.089" y2="339.016"/><line x1="286.297" y1="339.016" x2="290.089" y2="335.223"/>
<line x1="286.75" y1="340.337" x2="290.542" y2="340.337"/><line x1="288.646" y1="338.441" x2="288.646" y2="342.233"/><line x1="286.75" y1="338.441" x2="290.542" y2="342.233"/><line x1="286.75" y1="342.233" x2="290.542" y2="338.441"/>
<line x1="287.203" y1="338.948" x2="290.996" y2="338.948"/><line x1="289.099" y1="337.052" x2="289.099" y2="340.844"/><line x1="287.203" y1="337.052" x2="290.996" y2="340.844"/><line x1="287.203" y1="340.844" x2="290.996" y2="337.052"/>
<line x1="287.657" y1="336.245" x2="291.449" y2="336.245"/><line x1="289.553" y1="334.348" x2="289.553" y2="338.141"/><line x1="287.657" y1="334.348" x2="291.449" y2="338.141"/><line x1="287.657" y1="338.141" x2="291.449" y2="334.348"/>
<line x1="288.11" y1="338.116" x2="291.902" y2="338.116"/><line x1="290.006" y1="336.219" x2="290.006" y2="340.012"/><line x1="288.11" y1="336.219" x2="291.902" y2="340.012"/><line x1="288.11" y1="340.012" x2="291.902" y2="336.219"/>
<line x1="288.563" y1="333.322" x2="292.355" y2="333.322"/><line x1="290.459" y1="331.426" x2="290.459" y2="335.218"/><line x1="288.563" y1="331.426" x2="292.355" y2="335.218"/><line x1="288.563" y1="335.218" x2="292.355" y2="331.426"/>
<line x1="289.016" y1="332.167" x2="292.808" y2="332.167"/><line x1="290.912" y1="330.271" x2="290.912" y2="334.063"/><line x1="289.016" y1="330.271" x2="292.808" y2="334.063"/><line x1="289.016" y1="334.063" x2="292.808" y2="330.271"/>
<line x1="289.469" y1="327.407" x2="293.262" y2="327.407"/><line x1="291.366" y1="325.511" x2="291.366" y2="329.303"/><line x1="289.469" y1="325.511" x2="293.262" y2="329.303"/><line x1="289.469" y1="329.303" x2="293.262" y2="325.511"/>
<line x1="289.923" y1="330.346" x2="293.715" y2="330.346"/><line x1="291.819" y1="328.45" x2="291.819" y2="332.242"/><line x1="289.923" y1="328.45" x2="293.715" y2="332.242"/><line x1="289.923" y1="332.242" x2="293.715" y2="328.45"/>
<line x1="290.376" y1="329.894" x2="294.168" y2="329.894"/><line x1="292.272" y1="327.998" x2="292.272" y2="331.79"/><line x1="290.376" y1="327.998" x2="294.168" y2="331.79"/><line x1="290.376" y1="331.79" x2="294.168" y2="327.998"/>
<line x1="290.829" y1="330.284" x2="294.621" y2="330.284"/><line x1="292.725" y1="328.388" x2="292.725" y2="332.18"/><line x1="290.829" y1="328.388" x2="294.621" y2="332.18"/><line x1="290.829" y1="332.18" x2="294.621" y2="328.388"/>
<line x1="291.282" y1="329.254" x2="295.075" y2="329.254"/><line x1="293.178" y1="327.357" x2="293.178" y2="331.15"/><line x1="291.282" y1="327.357" x2="295.075" y2="331.15"/><line x1="291.282" y1="331.15" x2="295.075" y2="327.357"/>
<line x1="291.736" y1="333.172" x2="295.528" y2="333.172"/><line x1="293.632" y1="331.276" x2="293.632" y2="335.068"/><line x1="291.736" y1="331.276" x2="295.528" y2="335.068"/><line x1="291.736" y1="335.068" x2="295.528" y2="331.276"/>
<line x1="292.189" y1="334.744" x2="295.981" y2="334.744"/><line x1="294.085" y1="332.848" x2="294.085" y2="336.64"/><line x1="292.189" y1="332.848" x2="295.981" y2="336.64"/><line x1="292.189" y1="336.64" x2="295.981" y2="332.848"/>
<line x1="292.642" y1="330.679" x2="296.434" y2="330.679"/><line x1="294.538" y1="328.782" x2="294.538" y2="332.575"/><line x1="292.642" y1="328.782" x2="296.434" y2="332.575"/><line x1="292.642" y1="332.575" x2="296.434" y2="328.782"/>
<line x1="293.095" y1="338.862" x2="296.887" y2="338.862"/><line x1="294.991" y1="336.966" x2="294.991" y2="340.758"/><line x1="293.095" y1="336.966" x2="296.887" y2="340.758"/><line x1="293.095" y1="340.758" x2="296.887" y2="336.966"/>
<line x1="293.549" y1="335.494" x2="297.341" y2="335.494"/><line x1="295.445" y1="333.597" x2="295.445" y2="337.39"/><line x1="293.549" y1="333.597" x2="297.341" y2="337.39"/><line x1="293.549" y1="337.39" x2="297.341" y2="333.597"/>
<line x1="294.002" y1="338.595" x2="297.794" y2="338.595"/><line x1="295.898" y1="336.699" x2="295.898" y2="340.491"/><line x1="294.002" y1="336.699" x2="297.794" y2="340.491"/><line x1="294.002" y1="340.491" x2="297.794" y2="336.699"/>
<line x1="294.455" y1="338.551" x2="298.247" y2="338.551"/><line x1="296.351" y1="336.654" x2="296.351" y2="340.447"/><line x1="294.455" y1="336.654" x2="298.247" y2="340.447"/><line x1="294.455" y1="340.447" x2="298.247" y2="336.654"/>
<line x1="294.908" y1="338.294" x2="298.7" y2="338.294"/><line x1="296.804" y1="336.398" x2="296.804" y2="340.191"/><line x1="294.908" y1="336.398" x2="298.7" y2="340.191"/><line x1="294.908" y1="340.191" x2="298.7" y2="336.398"/>
<line x1="295.361" y1="336.67" x2="299.154" y2="336.67"/><line x1="297.258" y1="334.774" x2="297.258" y2="338.566"/><line x1="295.361" y1="334.774" x2="299.154" y2="338.566"/><line x1="295.361" y1="338.566" x2="299.154" y2="334.774"/>
<line x1="295.815" y1="330.251" x2="299.607" y2="330.251"/><line x1="297.711" y1="328.355" x2="297.711" y2="332.147"/><line x1="295.815" y1="328.355" x2="299.607" y2="332.147"/><line x1="295.815" y1="332.147" x2="299.607" y2="328.355"/>
<line x1="296.268" y1="327.225" x2="300.06" y2="327.225"/><line x1="298.164" y1="325.329" x2="298.164" y2="329.121"/><line x1="296.268" y1="325.329" x2="300.06" y2="329.121"/><line x1="296.268" y1="329.121" x2="300.06" y2="325.329"/>
<line x1="296.721" y1="326.488" x2="300.513" y2="326.488"/><line x1="298.617" y1="324.592" x2="298.617" y2="328.384"/><line x1="296.721" y1="324.592" x2="300.513" y2="328.384"/><line x1="296.721" y1="328.384" x2="300.513" y2="324.592"/>
<line x1="297.174" y1="325.653" x2="300.966" y2="325.653"/><line x1="299.07" y1="323.757" x2="299.07" y2="327.55"/><line x1="297.174" y1="323.757" x2="300.966" y2="327.55"/><line x1="297.174" y1="327.55" x2="300.966" y2="323.757"/>
<line x1="297.628" y1="331.757" x2="301.42" y2="331.757"/><line x1="299.524" y1="329.861" x2="299.524" y2="333.653"/><line x1="297.628" y1="329.861" x2="301.42" y2="333.653"/><line x1="297.628" y1="333.653" x2="301.42" y2="329.861"/>
<line x1="298.081" y1="329.854" x2="301.873" y2="329.854"/><line x1="299.977" y1="327.958" x2="299.977" y2="331.75"/><line x1="298.081" y1="327.958" x2="301.873" y2="331.75"/><line x1="298.081" y1="331.75" x2="301.873" y2="327.958"/>
<line x1="298.534" y1="327.579" x2="302.326" y2="327.579"/><line x1="300.43" y1="325.682" x2="300.43" y2="329.475"/><line x1="298.534" y1="325.682" x2="302.326" y2="329.475"/><line x1="298.534" y1="329.475" x2="302.326" y2="325.682"/>
<line x1="298.987" y1="325.87" x2="302.779" y2="325.87"/><line x1="300.883" y1="323.974" x2="300.883" y2="327.766"/><line x1="298.987" y1="323.974" x2="302.779" y2="327.766"/><line x1="298.987" y1="327.766" x2="302.779" y2="323.974"/>
<line x1="299.44" y1="317.704" x2="303.233" y2="317.704"/><line x1="301.337" y1="315.808" x2="301.337" y2="319.6"/><line x1="299.44" y1="315.808" x2="303.233" y2="319.6"/><line x1="299.44" y1="319.6" x2="303.233" y2="315.808"/>
<line x1="299.894" y1="312.693" x2="303.686" y2="312.693"/><line x1="301.79" y1="310.797" x2="301.79" y2="314.589"/><line x1="299.894" y1="310.797" x2="303.686" y2="314.589"/><line x1="299.894" y1="314.589" x2="303.686" y2="310.797"/>
<line x1="300.347" y1="315.662" x2="304.139" y2="315.662"/><line x1="302.243" y1="313.766" x2="302.243" y2="317.558"/><line x1="300.347" y1="313.766" x2="304.139" y2="317.558"/><line x1="300.347" y1="317.558" x2="304.139" y2="313.766"/>
<line x1="300.8" y1="314.279" x2="304.592" y2="314.279"/><line x1="302.696" y1="312.382" x2="302.696" y2="316.175"/><line x1="300.8" y1="312.382" x2="304.592" y2="316.175"/><line x1="300.8" y1="316.175" x2="304.592" y2="312.382"/>
<line x1="301.253" y1="309.616" x2="305.046" y2="309.616"/><line x1="303.149" y1="307.72" x2="303.149" y2="311.512"/><line x1="301.253" y1="307.72" x2="305.046" y2="311.512"/><line x1="301.253" y1="311.512" x2="305.046" y2="307.72"/>
<line x1="301.707" y1="305.526" x2="305.499" y2="305.526"/><line x1="303.603" y1="303.63" x2="303.603" y2="307.422"/><line x1="301.707" y1="303.63" x2="305.499" y2="307.422"/><line x1="301.707" y1="307.422" x2="305.499" y2="303.63"/>
<line x1="302.16" y1="306.276" x2="305.952" y2="306.276"/><line x1="304.056" y1="304.38" x2="304.056" y2="308.172"/><line x1="302.16" y1="304.38" x2="305.952" y2="308.172"/><line x1="302.16" y1="308.172" x2="305.952" y2="304.38"/>
<line x1="302.613" y1="306.398" x2="306.405" y2="306.398"/><line x1="304.509" y1="304.502" x2="304.509" y2="308.294"/><line x1="302.613" y1="304.502" x2="306.405" y2="308.294"/><line x1="302.613" y1="308.294" x2="306.405" y2="304.502"/>
<line x1="303.066" y1="305.971" x2="306.858" y2="305.971"/><line x1="304.962" y1="304.074" x2="304.962" y2="307.867"/><line x1="303.066" y1="304.074" x2="306.858" y2="307.867"/><line x1="303.066" y1="307.867" x2="306.858" y2="304.074"/>
<line x1="303.52" y1="300.839" x2="307.312" y2="300.839"/><line x1="305.416" y1="298.943" x2="305.416" y2="302.736"/><line x1="303.52" y1="298.943" x2="307.312" y2="302.736"/><line x1="303.52" y1="302.736" x2="307.312" y2="298.943"/>
<line x1="303.973" y1="301.636" x2="307.765" y2="301.636"/><line x1="305.869" y1="299.74" x2="305.869" y2="303.533"/><line x1="303.973" y1="299.74" x2="307.765" y2="303.533"/><line x1="303.973" y1="303.533" x2="307.765" y2="299.74"/>
<line x1="304.426" y1="299.268" x2="308.218" y2="299.268"/><line x1="306.322" y1="297.372" x2="306.322" y2="301.164"/><line x1="304.426" y1="297.372" x2="308.218" y2="301.164"/><line x1="304.426" y1="301.164" x2="308.218" y2="297.372"/>
<line x1="304.879" y1="299.339" x2="308.671" y2="299.339"/><line x1="306.775" y1="297.443" x2="306.775" y2="301.235"/><line x1="304.879" y1="297.443" x2="308.671" y2="301.235"/><line x1="304.879" y1="301.235" x2="308.671" y2="297.443"/>
<line x1="305.332" y1="290.731" x2="309.125" y2="290.731"/><line x1="307.228" y1="288.835" x2="307.228" y2="292.627"/><line x1="305.332" y1="288.835" x2="309.125" y2="292.627"/><line x1="305.332" y1="292.627" x2="309.125" y2="288.835"/>
<line x1="305.786" y1="291.139" x2="309.578" y2="291.139"/><line x1="307.682" y1="289.243" x2="307.682" y2="293.035"/><line x1="305.786" y1="289.243" x2="309.578" y2="293.035"/><line x1="305.786" y1="293.035" x2="309.578" y2="289.243"/>
<line x1="306.239" y1="289.999" x2="310.031" y2="289.999"/><line x1="308.135" y1="288.103" x2="308.135" y2="291.895"/><line x1="306.239" y1="288.103" x2="310.031" y2="291.895"/><line x1="306.239" y1="291.895" x2="310.031" y2="288.103"/>
<line x1="306.692" y1="295.848" x2="310.484" y2="295.848"/><line x1="308.588" y1="293.952" x2="308.588" y2="297.744"/><line x1="306.692" y1="293.952" x2="310.484" y2="297.744"/><line x1="306.692" y1="297.744" x2="310.484" y2="293.952"/>
<line x1="307.145" y1="292.162" x2="310.937" y2="292.162"/><line x1="309.041" y1="290.266" x2="309.041" y2="294.059"/><line x1="307.145" y1="290.266" x2="310.937" y2="294.059"/><line x1="307.145" y1="294.059" x2="310.937" y2="290.266"/>
<line x1="307.599" y1="292.32" x2="311.391" y2="292.32"/><line x1="309.495" y1="290.424" x2="309.495" y2="294.216"/><line x1="307.599" y1="290.424" x2="311.391" y2="294.216"/><line x1="307.599" y1="294.216" x2="311.391" y2="290.424"/>
<line x1="308.052" y1="294.78" x2="311.844" y2="294.78"/><line x1="309.948" y1="292.884" x2="309.948" y2="296.676"/><line x1="308.052" y1="292.884" x2="311.844" y2="296.676"/><line x1="308.052" y1="296.676" x2="311.844" y2="292.884"/>
<line x1="308.505" y1="289.447" x2="312.297" y2="289.447"/><line x1="310.401" y1="287.55" x2="310.401" y2="291.343"/><line x1="308.505" y1="287.55" x2="312.297" y2="291.343"/><line x1="308.505" y1="291.343" x2="312.297" y2="287.55"/>
<line x1="308.958" y1="286.623" x2="312.75" y2="286.623"/><line x1="310.854" y1="284.727" x2="310.854" y2="288.519"/><line x1="308.958" y1="284.727" x2="312.75" y2="288.519"/><line x1="308.958" y1="288.519" x2="312.75" y2="284.727"/>
<line x1="309.411" y1="281.947" x2="313.204" y2="281.947"/><line x1="311.308" y1="280.05" x2="311.308" y2="283.843"/><line x1="309.411" y1="280.05" x2="313.204" y2="283.843"/><line x1="309.411" y1="283.843" x2="313.204" y2="280.05"/>
<line x1="309.865" y1="276.931" x2="313.657" y2="276.931"/><line x1="311.761" y1="275.035" x2="311.761" y2="278.827"/><line x1="309.865" y1="275.035" x2="313.657" y2="278.827"/><line x1="309.865" y1="278.827" x2="313.657" y2="275.035"/>
<line x1="310.318" y1="270.494" x2="314.11" y2="270.494"/><line x1="312.214" y1="268.598" x2="312.214" y2="272.39"/><line x1="310.318" y1="268.598" x2="314.11" y2="272.39"/><line x1="310.318" y1="272.39" x2="314.11" y2="268.598"/>
<line x1="310.771" y1="270.772" x2="314.563" y2="270.772"/><line x1="312.667" y1="268.876" x2="312.667" y2="272.668"/><line x1="310.771" y1="268.876" x2="314.563" y2="272.668"/><line x1="310.771" y1="272.668" x2="314.563" y2="268.876"/>
<line x1="311.224" y1="265.41" x2="315.017" y2="265.41"/><line x1="313.12" y1="263.513" x2="313.12" y2="267.306"/><line x1="311.224" y1="263.513" x2="315.017" y2="267.306"/><line x1="311.224" y1="267.306" x2="315.017" y2="263.513"/>
<line x1="311.678" y1="259.243" x2="315.47" y2="259.243"/><line x1="313.574" y1="257.347" x2="313.574" y2="261.139"/><line x1="311.678" y1="257.347" x2="315.47" y2="261.139"/><line x1="311.678" y1="261.139" x2="315.47" y2="257.347"/>
<line x1="312.131" y1="252.647" x2="315.923" y2="252.647"/><line x1="314.027" y1="250.751" x2="314.027" y2="254.543"/><line x1="312.131" y1="250.751" x2="315.923" y2="254.543"/><line x1="312.131" y1="254.543" x2="315.923" y2="250.751"/>
<line x1="312.584" y1="245.068" x2="316.376" y2="245.068"/><line x1="314.48" y1="243.171" x2="314.48" y2="246.964"/><line x1="312.584" y1="243.171" x2="316.376" y2="246.964"/><line x1="312.584" y1="246.964" x2="316.376" y2="243.171"/>
<line x1="313.037" y1="246.48" x2="316.829" y2="246.48"/><line x1="314.933" y1="244.584" x2="314.933" y2="248.376"/><line x1="313.037" y1="244.584" x2="316.829" y2="248.376"/><line x1="313.037" y1="248.376" x2="316.829" y2="244.584"/>
<line x1="313.49" y1="248.149" x2="317.283" y2="248.149"/><line x1="315.387" y1="246.253" x2="315.387" y2="250.045"/><line x1="313.49" y1="246.253" x2="317.283" y2="250.045"/><line x1="313.49" y1="250.045" x2="317.283" y2="246.253"/>
<line x1="313.944" y1="237.378" x2="317.736" y2="237.378"/><line x1="315.84" y1="235.481" x2="315.84" y2="239.274"/><line x1="313.944" y1="235.481" x2="317.736" y2="239.274"/><line x1="313.944" y1="239.274" x2="317.736" y2="235.481"/>
<line x1="314.397" y1="231.543" x2="318.189" y2="231.543"/><line x1="316.293" y1="229.647" x2="316.293" y2="233.439"/><line x1="314.397" y1="229.647" x2="318.189" y2="233.439"/><line x1="314.397" y1="233.439" x2="318.189" y2="229.647"/>
<line x1="314.85" y1="230.897" x2="318.642" y2="230.897"/><line x1="316.746" y1="229.001" x2="316.746" y2="232.794"/><line x1="314.85" y1="229.001" x2="318.642" y2="232.794"/><line x1="314.85" y1="232.794" x2="318.642" y2="229.001"/>
<line x1="315.303" y1="237.355" x2="319.096" y2="237.355"/><line x1="317.199" y1="235.459" x2="317.199" y2="239.251"/><line x1="315.303" y1="235.459" x2="319.096" y2="239.251"/><line x1="315.303" y1="239.251" x2="319.096" y2="235.459"/>
<line x1="315.757" y1="234.475" x2="319.549" y2="234.475"/><line x1="317.653" y1="232.579" x2="317.653" y2="236.371"/><line x1="315.757" y1="232.579" x2="319.549" y2="236.371"/><line x1="315.757" y1="236.371" x2="319.549" y2="232.579"/>
<line x1="316.21" y1="228.012" x2="320.002" y2="228.012"/><line x1="318.106" y1="226.116" x2="318.106" y2="229.908"/><line x1="316.21" y1="226.116" x2="320.002" y2="229.908"/><line x1="316.21" y1="229.908" x2="320.002" y2="226.116"/>
<line x1="316.663" y1="222.483" x2="320.455" y2="222.483"/><line x1="318.559" y1="220.587" x2="318.559" y2="224.379"/><line x1="316.663" y1="220.587" x2="320.455" y2="224.379"/><line x1="316.663" y1="224.379" x2="320.455" y2="220.587"/>
<line x1="317.116" y1="222.994" x2="320.908" y2="222.994"/><line x1="319.012" y1="221.098" x2="319.012" y2="224.89"/><line x1="317.116" y1="221.098" x2="320.908" y2="224.89"/><line x1="317.116" y1="224.89" x2="320.908" y2="221.098"/>
<line x1="317.569" y1="221.33" x2="321.362" y2="221.33"/><line x1="319.466" y1="219.434" x2="319.466" y2="223.226"/><line x1="317.569" y1="219.434" x2="321.362" y2="223.226"/><line x1="317.569" y1="223.226" x2="321.362" y2="219.434"/>
<line x1="318.023" y1="226.688" x2="321.815" y2="226.688"/><line x1="319.919" y1="224.792" x2="319.919" y2="228.584"/><line x1="318.023" y1="224.792" x2="321.815" y2="228.584"/><line x1="318.023" y1="228.584" x2="321.815" y2="224.792"/>
<line x1="318.476" y1="226.897" x2="322.268" y2="226.897"/><line x1="320.372" y1="225.001" x2="320.372" y2="228.793"/><line x1="318.476" y1="225.001" x2="322.268" y2="228.793"/><line x1="318.476" y1="228.793" x2="322.268" y2="225.001"/>
<line x1="318.929" y1="222.063" x2="322.721" y2="222.063"/><line x1="320.825" y1="220.167" x2="320.825" y2="223.959"/><line x1="318.929" y1="220.167" x2="322.721" y2="223.959"/><line x1="318.929" y1="223.959" x2="322.721" y2="220.167"/>
<line x1="319.382" y1="224.123" x2="323.175" y2="224.123"/><line x1="321.279" y1="222.227" x2="321.279" y2="226.019"/><line x1="319.382" y1="222.227" x2="323.175" y2="226.019"/><line x1="319.382" y1="226.019" x2="323.175" y2="222.227"/>
<line x1="319.836" y1="215.505" x2="323.628" y2="215.505"/><line x1="321.732" y1="213.609" x2="321.732" y2="217.401"/><line x1="319.836" y1="213.609" x2="323.628" y2="217.401"/><line x1="319.836" y1="217.401" x2="323.628" y2="213.609"/>
<line x1="320.289" y1="208.77" x2="324.081" y2="208.77"/><line x1="322.185" y1="206.874" x2="322.185" y2="210.666"/><line x1="320.289" y1="206.874" x2="324.081" y2="210.666"/><line x1="320.289" y1="210.666" x2="324.081" y2="206.874"/>
<line x1="320.742" y1="198.933" x2="324.534" y2="198.933"/><line x1="322.638" y1="197.037" x2="322.638" y2="200.829"/><line x1="320.742" y1="197.037" x2="324.534" y2="200.829"/><line x1="320.742" y1="200.829" x2="324.534" y2="197.037"/>
<line x1="321.195" y1="191.787" x2="324.987" y2="191.787"/><line x1="323.091" y1="189.891" x2="323.091" y2="193.683"/><line x1="321.195" y1="189.891" x2="324.987" y2="193.683"/><line x1="321.195" y1="193.683" x2="324.987" y2="189.891"/>
<line x1="321.649" y1="191.862" x2="325.441" y2="191.862"/><line x1="323.545" y1="189.966" x2="323.545" y2="193.758"/><line x1="321.649" y1="189.966" x2="325.441" y2="193.758"/><line x1="321.649" y1="193.758" x2="325.441" y2="189.966"/>
<line x1="322.102" y1="190.431" x2="325.894" y2="190.431"/><line x1="323.998" y1="188.535" x2="323.998" y2="192.327"/><line x1="322.102" y1="188.535" x2="325.894" y2="192.327"/><line x1="322.102" y1="192.327" x2="325.894" y2="188.535"/>
<line x1="322.555" y1="189.561" x2="326.347" y2="189.561"/><line x1="324.451" y1="187.664" x2="324.451" y2="191.457"/><line x1="322.555" y1="187.664" x2="326.347" y2="191.457"/><line x1="322.555" y1="191.457" x2="326.347" y2="187.664"/>
<line x1="323.008" y1="187.751" x2="326.8" y2="187.751"/><line x1="324.904" y1="185.855" x2="324.904" y2="189.647"/><line x1="323.008" y1="185.855" x2="326.8" y2="189.647"/><line x1="323.008" y1="189.647" x2="326.8" y2="185.855"/>
<line x1="323.461" y1="187.861" x2="327.254" y2="187.861"/><line x1="325.358" y1="185.965" x2="325.358" y2="189.757"/><line x1="323.461" y1="185.965" x2="327.254" y2="189.757"/><line x1="323.461" y1="189.757" x2="327.254" y2="185.965"/>
<line x1="323.915" y1="184.413" x2="327.707" y2="184.413"/><line x1="325.811" y1="182.517" x2="325.811" y2="186.309"/><line x1="323.915" y1="182.517" x2="327.707" y2="186.309"/><line x1="323.915" y1="186.309" x2="327.707" y2="182.517"/>
<line x1="324.368" y1="171.797" x2="328.16" y2="171.797"/><line x1="326.264" y1="169.901" x2="326.264" y2="173.693"/><line x1="324.368" y1="169.901" x2="328.16" y2="173.693"/><line x1="324.368" y1="173.693" x2="328.16" y2="169.901"/>
<line x1="324.821" y1="173.026" x2="328.613" y2="173.026"/><line x1="326.717" y1="171.13" x2="326.717" y2="174.922"/><line x1="324.821" y1="171.13" x2="328.613" y2="174.922"/><line x1="324.821" y1="174.922" x2="328.613" y2="171.13"/>
<line x1="325.274" y1="168.274" x2="329.066" y2="168.274"/><line x1="327.17" y1="166.378" x2="327.17" y2="170.17"/><line x1="325.274" y1="166.378" x2="329.066" y2="170.17"/><line x1="325.274" y1="170.17" x2="329.066" y2="166.378"/>
<line x1="325.728" y1="161.515" x2="329.52" y2="161.515"/><line x1="327.624" y1="159.618" x2="327.624" y2="163.411"/><line x1="325.728" y1="159.618" x2="329.52" y2="163.411"/><line x1="325.728" y1="163.411" x2="329.52" y2="159.618"/>
<line x1="326.181" y1="157.505" x2="329.973" y2="157.505"/><line x1="328.077" y1="155.609" x2="328.077" y2="159.401"/><line x1="326.181" y1="155.609" x2="329.973" y2="159.401"/><line x1="326.181" y1="159.401" x2="329.973" y2="155.609"/>
<line x1="326.634" y1="150.25" x2="330.426" y2="150.25"/><line x1="328.53" y1="148.354" x2="328.53" y2="152.147"/><line x1="326.634" y1="148.354" x2="330.426" y2="152.147"/><line x1="326.634" y1="152.147" x2="330.426" y2="148.354"/>
<line x1="327.087" y1="146.937" x2="330.879" y2="146.937"/><line x1="328.983" y1="145.041" x2="328.983" y2="148.833"/><line x1="327.087" y1="145.041" x2="330.879" y2="148.833"/><line x1="327.087" y1="148.833" x2="330.879" y2="145.041"/>
<line x1="327.54" y1="146.436" x2="331.333" y2="146.436"/><line x1="329.437" y1="144.54" x2="329.437" y2="148.333"/><line x1="327.54" y1="144.54" x2="331.333" y2="148.333"/><line x1="327.54" y1="148.333" x2="331.333" y2="144.54"/>
<line x1="327.994" y1="144.215" x2="331.786" y2="144.215"/><line x1="329.89" y1="142.318" x2="329.89" y2="146.111"/><line x1="327.994" y1="142.318" x2="331.786" y2="146.111"/><line x1="327.994" y1="146.111" x2="331.786" y2="142.318"/>
<line x1="328.447" y1="140.288" x2="332.239" y2="140.288"/><line x1="330.343" y1="138.392" x2="330.343" y2="142.184"/><line x1="328.447" y1="138.392" x2="332.239" y2="142.184"/><line x1="328.447" y1="142.184" x2="332.239" y2="138.392"/>
<line x1="328.9" y1="144.88" x2="332.692" y2="144.88"/><line x1="330.796" y1="142.984" x2="330.796" y2="146.776"/><line x1="328.9" y1="142.984" x2="332.692" y2="146.776"/><line x1="328.9" y1="146.776" x2="332.692" y2="142.984"/>
<line x1="329.353" y1="140.563" x2="333.146" y2="140.563"/><line x1="331.249" y1="138.667" x2="331.249" y2="142.459"/><line x1="329.353" y1="138.667" x2="333.146" y2="142.459"/><line x1="329.353" y1="142.459" x2="333.146" y2="138.667"/>
<line x1="329.807" y1="140.387" x2="333.599" y2="140.387"/><line x1="331.703" y1="138.491" x2="331.703" y2="142.283"/><line x1="329.807" y1="138.491" x2="333.599" y2="142.283"/><line x1="329.807" y1="142.283" x2="333.599" y2="138.491"/>
<line x1="330.26" y1="135.813" x2="334.052" y2="135.813"/><line x1="332.156" y1="133.917" x2="332.156" y2="137.709"/><line x1="330.26" y1="133.917" x2="334.052" y2="137.709"/><line x1="330.26" y1="137.709" x2="334.052" y2="133.917"/>
<line x1="330.713" y1="126.397" x2="334.505" y2="126.397"/><line x1="332.609" y1="124.501" x2="332.609" y2="128.293"/><line x1="330.713" y1="124.501" x2="334.505" y2="128.293"/><line x1="330.713" y1="128.293" x2="334.505" y2="124.501"/>
<line x1="331.166" y1="133.538" x2="334.958" y2="133.538"/><line x1="333.062" y1="131.642" x2="333.062" y2="135.434"/><line x1="331.166" y1="131.642" x2="334.958" y2="135.434"/><line x1="331.166" y1="135.434" x2="334.958" y2="131.642"/>
<line x1="331.62" y1="136.456" x2="335.412" y2="136.456"/><line x1="333.516" y1="134.56" x2="333.516" y2="138.352"/><line x1="331.62" y1="134.56" x2="335.412" y2="138.352"/><line x1="331.62" y1="138.352" x2="335.412" y2="134.56"/>
<line x1="332.073" y1="131.959" x2="335.865" y2="131.959"/><line x1="333.969" y1="130.062" x2="333.969" y2="133.855"/><line x1="332.073" y1="130.062" x2="335.865" y2="133.855"/><line x1="332.073" y1="133.855" x2="335.865" y2="130.062"/>
<line x1="332.526" y1="125.95" x2="336.318" y2="125.95"/><line x1="334.422" y1="124.054" x2="334.422" y2="127.846"/><line x1="332.526" y1="124.054" x2="336.318" y2="127.846"/><line x1="332.526" y1="127.846" x2="336.318" y2="124.054"/>
<line x1="332.979" y1="126.644" x2="336.771" y2="126.644"/><line x1="334.875" y1="124.748" x2="334.875" y2="128.54"/><line x1="332.979" y1="124.748" x2="336.771" y2="128.54"/><line x1="332.979" y1="128.54" x2="336.771" y2="124.748"/>
<line x1="333.432" y1="128.881" x2="337.225" y2="128.881"/><line x1="335.328" y1="126.985" x2="335.328" y2="130.777"/><line x1="333.432" y1="126.985" x2="337.225" y2="130.777"/><line x1="333.432" y1="130.777" x2="337.225" y2="126.985"/>
<line x1="333.886" y1="118.253" x2="337.678" y2="118.253"/><line x1="335.782" y1="116.357" x2="335.782" y2="120.149"/><line x1="333.886" y1="116.357" x2="337.678" y2="120.149"/><line x1="333.886" y1="120.149" x2="337.678" y2="116.357"/>
<line x1="334.339" y1="111.099" x2="338.131" y2="111.099"/><line x1="336.235" y1="109.203" x2="336.235" y2="112.995"/><line x1="334.339" y1="109.203" x2="338.131" y2="112.995"/><line x1="334.339" y1="112.995" x2="338.131" y2="109.203"/>
<line x1="334.792" y1="105.825" x2="338.584" y2="105.825"/><line x1="336.688" y1="103.929" x2="336.688" y2="107.721"/><line x1="334.792" y1="103.929" x2="338.584" y2="107.721"/><line x1="334.792" y1="107.721" x2="338.584" y2="103.929"/>
<line x1="335.245" y1="110.45" x2="339.037" y2="110.45"/><line x1="337.141" y1="108.554" x2="337.141" y2="112.346"/><line x1="335.245" y1="108.554" x2="339.037" y2="112.346"/><line x1="335.245" y1="112.346" x2="339.037" y2="108.554"/>
<line x1="335.699" y1="108.158" x2="339.491" y2="108.158"/><line x1="337.595" y1="106.262" x2="337.595" y2="110.054"/><line x1="335.699" y1="106.262" x2="339.491" y2="110.054"/><line x1="335.699" y1="110.054" x2="339.491" y2="106.262"/>
<line x1="336.152" y1="108.461" x2="339.944" y2="108.461"/><line x1="338.048" y1="106.565" x2="338.048" y2="110.357"/><line x1="336.152" y1="106.565" x2="339.944" y2="110.357"/><line x1="336.152" y1="110.357" x2="339.944" y2="106.565"/>
<line x1="336.605" y1="103.748" x2="340.397" y2="103.748"/><line x1="338.501" y1="101.851" x2="338.501" y2="105.644"/><line x1="336.605" y1="101.851" x2="340.397" y2="105.644"/><line x1="336.605" y1="105.644" x2="340.397" y2="101.851"/>
<line x1="337.058" y1="93.3108" x2="340.85" y2="93.3108"/><line x1="338.954" y1="91.4147" x2="338.954" y2="95.2069"/><line x1="337.058" y1="91.4147" x2="340.85" y2="95.2069"/><line x1="337.058" y1="95.2069" x2="340.85" y2="91.4147"/>
<line x1="337.511" y1="90.4693" x2="341.304" y2="90.4693"/><line x1="339.408" y1="88.5732" x2="339.408" y2="92.3654"/><line x1="337.511" y1="88.5732" x2="341.304" y2="92.3654"/><line x1="337.511" y1="92.3654" x2="341.304" y2="88.5732"/>
<line x1="337.965" y1="77.0131" x2="341.757" y2="77.0131"/><line x1="339.861" y1="75.117" x2="339.861" y2="78.9091"/><line x1="337.965" y1="75.117" x2="341.757" y2="78.9091"/><line x1="337.965" y1="78.9091" x2="341.757" y2="75.117"/>
<line x1="338.418" y1="76.2933" x2="342.21" y2="76.2933"/><line x1="340.314" y1="74.3972" x2="340.314" y2="78.1894"/><line x1="338.418" y1="74.3972" x2="342.21" y2="78.1894"/><line x1="338.418" y1="78.1894" x2="342.21" y2="74.3972"/>
<line x1="338.871" y1="71.7983" x2="342.663" y2="71.7983"/><line x1="340.767" y1="69.9022" x2="340.767" y2="73.6944"/><line x1="338.871" y1="69.9022" x2="342.663" y2="73.6944"/><line x1="338.871" y1="73.6944" x2="342.663" y2="69.9022"/>
<line x1="339.324" y1="67.3176" x2="343.117" y2="67.3176"/><line x1="341.22" y1="65.4215" x2="341.22" y2="69.2137"/><line x1="339.324" y1="65.4215" x2="343.117" y2="69.2137"/><line x1="339.324" y1="69.2137" x2="343.117" y2="65.4215"/>
<line x1="339.778" y1="72.0929" x2="343.57" y2="72.0929"/><line x1="341.674" y1="70.1968" x2="341.674" y2="73.989"/><line x1="339.778" y1="70.1968" x2="343.57" y2="73.989"/><line x1="339.778" y1="73.989" x2="343.57" y2="70.1968"/>
<line x1="340.231" y1="69.1923" x2="344.023" y2="69.1923"/><line x1="342.127" y1="67.2962" x2="342.127" y2="71.0884"/><line x1="340.231" y1="67.2962" x2="344.023" y2="71.0884"/><line x1="340.231" y1="71.0884" x2="344.023" y2="67.2962"/>
<line x1="340.684" y1="77.5063" x2="344.476" y2="77.5063"/><line x1="342.58" y1="75.6102" x2="342.58" y2="79.4024"/><line x1="340.684" y1="75.6102" x2="344.476" y2="79.4024"/><line x1="340.684" y1="79.4024" x2="344.476" y2="75.6102"/>
<line x1="341.137" y1="79.8949" x2="344.929" y2="79.8949"/><line x1="343.033" y1="77.9988" x2="343.033" y2="81.791"/><line x1="341.137" y1="77.9988" x2="344.929" y2="81.791"/><line x1="341.137" y1="81.791" x2="344.929" y2="77.9988"/>
<line x1="341.59" y1="70.4641" x2="345.383" y2="70.4641"/><line x1="343.487" y1="68.568" x2="343.487" y2="72.3602"/><line x1="341.59" y1="68.568" x2="345.383" y2="72.3602"/><line x1="341.59" y1="72.3602" x2="345.383" y2="68.568"/>
<line x1="342.044" y1="68.4098" x2="345.836" y2="68.4098"/><line x1="343.94" y1="66.5137" x2="343.94" y2="70.3058"/><line x1="342.044" y1="66.5137" x2="345.836" y2="70.3058"/><line x1="342.044" y1="70.3058" x2="345.836" y2="66.5137"/>
<line x1="342.497" y1="69.5992" x2="346.289" y2="69.5992"/><line x1="344.393" y1="67.7032" x2="344.393" y2="71.4953"/><line x1="342.497" y1="67.7032" x2="346.289" y2="71.4953"/><line x1="342.497" y1="71.4953" x2="346.289" y2="67.7032"/>
<line x1="342.95" y1="57.5783" x2="346.742" y2="57.5783"/><line x1="344.846" y1="55.6822" x2="344.846" y2="59.4744"/><line x1="342.95" y1="55.6822" x2="346.742" y2="59.4744"/><line x1="342.95" y1="59.4744" x2="346.742" y2="55.6822"/>
<line x1="343.403" y1="52.7585" x2="347.196" y2="52.7585"/><line x1="345.299" y1="50.8624" x2="345.299" y2="54.6545"/><line x1="343.403" y1="50.8624" x2="347.196" y2="54.6545"/><line x1="343.403" y1="54.6545" x2="347.196" y2="50.8624"/>
<line x1="343.857" y1="47" x2="347.649" y2="47"/><line x1="345.753" y1="45.1039" x2="345.753" y2="48.896"/><line x1="343.857" y1="45.1039" x2="347.649" y2="48.896"/><line x1="343.857" y1="48.896" x2="347.649" y2="45.1039"/>
<line x1="344.31" y1="46.2322" x2="348.102" y2="46.2322"/><line x1="346.206" y1="44.3361" x2="346.206" y2="48.1283"/><line x1="344.31" y1="44.3361" x2="348.102" y2="48.1283"/><line x1="344.31" y1="48.1283" x2="348.102" y2="44.3361"/>
<line x1="344.763" y1="47.4004" x2="348.555" y2="47.4004"/><line x1="346.659" y1="45.5044" x2="346.659" y2="49.2965"/><line x1="344.763" y1="45.5044" x2="348.555" y2="49.2965"/><line x1="344.763" y1="49.2965" x2="348.555" y2="45.5044"/>
<line x1="345.216" y1="44.4678" x2="349.008" y2="44.4678"/><line x1="347.112" y1="42.5717" x2="347.112" y2="46.3639"/><line x1="345.216" y1="42.5717" x2="349.008" y2="46.3639"/><line x1="345.216" y1="46.3639" x2="349.008" y2="42.5717"/>
</g>
<g stroke="black" stroke-width="1" fill="none">
<line x1="346.123" y1="42.7588" x2="349.915" y2="42.7588"/><line x1="348.019" y1="40.8627" x2="348.019" y2="44.6549"/><line x1="346.123" y1="40.8627" x2="349.915" y2="44.6549"/><line x1="346.123" y1="44.6549" x2="349.915" y2="40.8627"/>
<line x1="346.576" y1="44.5173" x2="350.368" y2="44.5173"/><line x1="348.472" y1="42.6212" x2="348.472" y2="46.4134"/><line x1="346.576" y1="42.6212" x2="350.368" y2="46.4134"/><line x1="346.576" y1="46.4134" x2="350.368" y2="42.6212"/>
<line x1="347.029" y1="44.1257" x2="350.821" y2="44.1257"/><line x1="348.925" y1="42.2296" x2="348.925" y2="46.0218"/><line x1="347.029" y1="42.2296" x2="350.821" y2="46.0218"/><line x1="347.029" y1="46.0218" x2="350.821" y2="42.2296"/>
<line x1="347.482" y1="44.268" x2="351.275" y2="44.268"/><line x1="349.379" y1="42.3719" x2="349.379" y2="46.1641"/><line x1="347.482" y1="42.3719" x2="351.275" y2="46.1641"/><line x1="347.482" y1="46.1641" x2="351.275" y2="42.3719"/>
</g>
<path d="M170.807,353.116h 226.613" fill="none" stroke="#0000ff"/>
<path d="M284.114,372.012v -47.2396" fill="none" stroke="#ff0000"/>
<rect x="57.1929" y="330.677" width="113.386" height="41.3346" fill="white"/>
<path d="M57.1929,372.012h 113.386" fill="none" stroke="black"/>
<path d="M170.579,372.012v -41.3346" fill="none" stroke="black"/>
<path d="M170.579,330.677h -113.386" fill="none" stroke="black"/>
<path d="M57.1929,330.677v 41.3346" fill="none" stroke="black"/>
<text xml:space="preserve" x="85.3498" y="354.568" fill="black" font-size="12.046" font-family="Helvetica">#p.e of PMTs7</text>
<path d="M61.4449,351.344h 19.8425" fill="none" stroke="black"/></svg>
