<?xml version="1.0" standalone="no"?>
<svg width="567.429" height="413.846" viewBox="0 0 567.429 413.846" xmlns="http://www.w3.org/2000/svg" shape-rendering="crispEdges">
<title>
figures/PMTnperes0PMTnpedata190929-01.svg
</title>
<desc>
Creator: ROOT Version 6.18/02
CreationDate: Sun Sep 29 20:52:23 2019</desc>
<defs>
</defs>
<rect x="0.5" y="0" width="566.929" height="413.346" fill="white"/>
<rect x="0.5" y="0" width="566.929" height="276.942" fill="white"/>
<rect x="57.1929" y="27.6942" width="453.543" height="249.245" fill="white"/>
<rect x="57.1929" y="27.6942" width="453.543" height="249.245" fill="none" stroke="black"/>
<rect x="57.1929" y="27.6942" width="453.543" height="249.245" fill="white"/>
<rect x="57.1929" y="27.6942" width="453.543" height="249.245" fill="none" stroke="black"/>
<path d="M57.1929,44.5974h 9.07087v 26.4681h 9.07087v 0.91803h 9.07087v 0.222183h 9.07087v 2.26668h 9.07087v 3.51928h 9.07087v 4.76191h 9.07087v 5.1178h 9.07087v 5.37755h 9.07087v 6.29825h 9.07087v 5.03522h 9.07087v 5.2828h 9.07087v 5.52349h 9.07087v
 3.54548h 9.07087v 4.40302h 9.07087v 5.44074h 9.07087v 2.33746h 9.07087v 5.37107h 9.07087v 3.03726h 9.07087v 2.06718h 9.07087v 2.65968h 9.07087v 2.18162h 9.07087v 4.37916h 9.07087v 2.07616h 9.07087v 3.17384h 9.07087v 0.163391h 9.07087v 6.11901h
 9.07087v 2.29306h 9.07087v 3.97131h 9.07087v -0.144811h 9.07087v 7.11183h 9.07087v -2.28097h 9.07087v -2.22678h 9.07087v 2.40794h 9.07087v 3.98352h 18.1417v 2.5499h 9.07087v 2.89084h 9.07087v -1.88372h 9.07087v 0.521692h 9.07087v 2.51693h 9.07087v
 2.18234h 9.07087v 2.06338h 9.07087v -3.02573h 9.07087v 1.62852h 9.07087v 3.67817h 9.07087v -0.397243h 9.07087v 0.397243h 9.07087v 5.44074h 18.1417" fill="none" stroke="#ff0000" stroke-width="2"/>
<rect x="283.965" y="27.6942" width="113.386" height="55.3884" fill="white"/>
<path d="M283.965,83.0826h 113.386" fill="none" stroke="black"/>
<path d="M397.35,83.0826v -55.3884" fill="none" stroke="black"/>
<path d="M397.35,27.6942h -113.386" fill="none" stroke="black"/>
<path d="M283.965,27.6942v 55.3884" fill="none" stroke="black"/>
<text xml:space="preserve" x="292.023" y="37.9217" fill="#ff0000" font-size="12.1875" font-family="Helvetica">npe_PMT-S0-data</text>
<path d="M283.965,41.5413h 113.386" fill="none" stroke="black"/>
<text xml:space="preserve" x="289.179" y="53.0904" fill="#ff0000" font-size="12.1875" font-family="Helvetica">Entries </text>
<text xml:space="preserve" x="350.802" y="52.6163" fill="#ff0000" font-size="12.1875" font-family="Helvetica"> 147601</text>
<text xml:space="preserve" x="289.179" y="66.837" fill="#ff0000" font-size="12.1875" font-family="Helvetica">Mean  </text>
<text xml:space="preserve" x="357.438" y="66.3629" fill="#ff0000" font-size="12.1875" font-family="Helvetica">  5.751</text>
<text xml:space="preserve" x="289.179" y="80.5836" fill="#ff0000" font-size="12.1875" font-family="Helvetica">Std Dev   </text>
<text xml:space="preserve" x="355.542" y="80.1096" fill="#ff0000" font-size="12.1875" font-family="Helvetica">  7.167</text>
<path d="M57.1929,276.939h 453.543" fill="none" stroke="black"/>
<path d="M57.1929,270.293v 6.64661" fill="none" stroke="black"/>
<path d="M72.311,273.616v 3.3233" fill="none" stroke="black"/>
<path d="M87.4291,273.616v 3.3233" fill="none" stroke="black"/>
<path d="M102.547,273.616v 3.3233" fill="none" stroke="black"/>
<path d="M117.665,273.616v 3.3233" fill="none" stroke="black"/>
<path d="M132.783,270.293v 6.64661" fill="none" stroke="black"/>
<path d="M147.902,273.616v 3.3233" fill="none" stroke="black"/>
<path d="M163.02,273.616v 3.3233" fill="none" stroke="black"/>
<path d="M178.138,273.616v 3.3233" fill="none" stroke="black"/>
<path d="M193.256,273.616v 3.3233" fill="none" stroke="black"/>
<path d="M208.374,270.293v 6.64661" fill="none" stroke="black"/>
<path d="M223.492,273.616v 3.3233" fill="none" stroke="black"/>
<path d="M238.61,273.616v 3.3233" fill="none" stroke="black"/>
<path d="M253.728,273.616v 3.3233" fill="none" stroke="black"/>
<path d="M268.846,273.616v 3.3233" fill="none" stroke="black"/>
<path d="M283.965,270.293v 6.64661" fill="none" stroke="black"/>
<path d="M299.083,273.616v 3.3233" fill="none" stroke="black"/>
<path d="M314.201,273.616v 3.3233" fill="none" stroke="black"/>
<path d="M329.319,273.616v 3.3233" fill="none" stroke="black"/>
<path d="M344.437,273.616v 3.3233" fill="none" stroke="black"/>
<path d="M359.555,270.293v 6.64661" fill="none" stroke="black"/>
<path d="M374.673,273.616v 3.3233" fill="none" stroke="black"/>
<path d="M389.791,273.616v 3.3233" fill="none" stroke="black"/>
<path d="M404.909,273.616v 3.3233" fill="none" stroke="black"/>
<path d="M420.028,273.616v 3.3233" fill="none" stroke="black"/>
<path d="M435.146,270.293v 6.64661" fill="none" stroke="black"/>
<path d="M450.264,273.616v 3.3233" fill="none" stroke="black"/>
<path d="M465.382,273.616v 3.3233" fill="none" stroke="black"/>
<path d="M480.5,273.616v 3.3233" fill="none" stroke="black"/>
<path d="M495.618,273.616v 3.3233" fill="none" stroke="black"/>
<path d="M510.736,270.293v 6.64661" fill="none" stroke="black"/>
<text xml:space="preserve" x="54.5384" y="285.835" fill="black" font-size="9.39263" font-family="Helvetica">0</text>
<text xml:space="preserve" x="127.538" y="285.835" fill="black" font-size="9.39263" font-family="Helvetica">10</text>
<text xml:space="preserve" x="202.907" y="285.835" fill="black" font-size="9.39263" font-family="Helvetica">20</text>
<text xml:space="preserve" x="278.75" y="285.835" fill="black" font-size="9.39263" font-family="Helvetica">30</text>
<text xml:space="preserve" x="354.12" y="285.835" fill="black" font-size="9.39263" font-family="Helvetica">40</text>
<text xml:space="preserve" x="429.489" y="285.835" fill="black" font-size="9.39263" font-family="Helvetica">50</text>
<text xml:space="preserve" x="505.332" y="285.835" fill="black" font-size="9.39263" font-family="Helvetica">60</text>
<text xml:space="preserve" x="490.638" y="293.893" fill="black" font-size="9.39263" font-family="Helvetica">n.p.e</text>
<path d="M57.1929,276.939v -249.245" fill="none" stroke="black"/>
<path d="M72.4998,276.939h -15.3069" fill="none" stroke="black"/>
<text xml:space="preserve" x="49.3242" y="280.62" fill="black" font-size="9.39263" font-family="Helvetica">1</text>
<path d="M64.8464,261.933h -7.65346" fill="none" stroke="black"/>
<path d="M64.8464,253.155h -7.65346" fill="none" stroke="black"/>
<path d="M64.8464,246.927h -7.65346" fill="none" stroke="black"/>
<path d="M64.8464,242.096h -7.65346" fill="none" stroke="black"/>
<path d="M64.8464,238.149h -7.65346" fill="none" stroke="black"/>
<path d="M64.8464,234.812h -7.65346" fill="none" stroke="black"/>
<path d="M64.8464,231.921h -7.65346" fill="none" stroke="black"/>
<path d="M64.8464,229.371h -7.65346" fill="none" stroke="black"/>
<path d="M72.4998,227.09h -15.3069" fill="none" stroke="black"/>
<text xml:space="preserve" x="42.6879" y="230.374" fill="black" font-size="9.39263" font-family="Helvetica">10</text>
<path d="M64.8464,212.084h -7.65346" fill="none" stroke="black"/>
<path d="M64.8464,203.306h -7.65346" fill="none" stroke="black"/>
<path d="M64.8464,197.078h -7.65346" fill="none" stroke="black"/>
<path d="M64.8464,192.247h -7.65346" fill="none" stroke="black"/>
<path d="M64.8464,188.3h -7.65346" fill="none" stroke="black"/>
<path d="M64.8464,184.963h -7.65346" fill="none" stroke="black"/>
<path d="M64.8464,182.072h -7.65346" fill="none" stroke="black"/>
<path d="M64.8464,179.522h -7.65346" fill="none" stroke="black"/>
<path d="M72.4998,177.241h -15.3069" fill="none" stroke="black"/>
<text xml:space="preserve" x="49.3242" y="177.284" fill="black" font-size="6.42842" font-family="Helvetica">2</text>
<text xml:space="preserve" x="39.3697" y="181.076" fill="black" font-size="9.39263" font-family="Helvetica">10</text>
<path d="M64.8464,162.235h -7.65346" fill="none" stroke="black"/>
<path d="M64.8464,153.457h -7.65346" fill="none" stroke="black"/>
<path d="M64.8464,147.229h -7.65346" fill="none" stroke="black"/>
<path d="M64.8464,142.398h -7.65346" fill="none" stroke="black"/>
<path d="M64.8464,138.451h -7.65346" fill="none" stroke="black"/>
<path d="M64.8464,135.114h -7.65346" fill="none" stroke="black"/>
<path d="M64.8464,132.223h -7.65346" fill="none" stroke="black"/>
<path d="M64.8464,129.673h -7.65346" fill="none" stroke="black"/>
<path d="M72.4998,127.392h -15.3069" fill="none" stroke="black"/>
<text xml:space="preserve" x="49.3242" y="127.038" fill="black" font-size="6.42842" font-family="Helvetica">3</text>
<text xml:space="preserve" x="39.3697" y="131.304" fill="black" font-size="9.39263" font-family="Helvetica">10</text>
<path d="M64.8464,112.386h -7.65346" fill="none" stroke="black"/>
<path d="M64.8464,103.608h -7.65346" fill="none" stroke="black"/>
<path d="M64.8464,97.3801h -7.65346" fill="none" stroke="black"/>
<path d="M64.8464,92.5493h -7.65346" fill="none" stroke="black"/>
<path d="M64.8464,88.6021h -7.65346" fill="none" stroke="black"/>
<path d="M64.8464,85.2649h -7.65346" fill="none" stroke="black"/>
<path d="M64.8464,82.3741h -7.65346" fill="none" stroke="black"/>
<path d="M64.8464,79.8242h -7.65346" fill="none" stroke="black"/>
<path d="M72.4998,77.5432h -15.3069" fill="none" stroke="black"/>
<text xml:space="preserve" x="49.3242" y="77.7394" fill="black" font-size="6.42842" font-family="Helvetica">4</text>
<text xml:space="preserve" x="39.3697" y="81.5316" fill="black" font-size="9.39263" font-family="Helvetica">10</text>
<path d="M64.8464,62.5372h -7.65346" fill="none" stroke="black"/>
<path d="M64.8464,53.7592h -7.65346" fill="none" stroke="black"/>
<path d="M64.8464,47.5311h -7.65346" fill="none" stroke="black"/>
<path d="M64.8464,42.7002h -7.65346" fill="none" stroke="black"/>
<path d="M64.8464,38.7531h -7.65346" fill="none" stroke="black"/>
<path d="M64.8464,35.4159h -7.65346" fill="none" stroke="black"/>
<path d="M64.8464,32.5251h -7.65346" fill="none" stroke="black"/>
<path d="M64.8464,29.9752h -7.65346" fill="none" stroke="black"/>
<path d="M72.4998,27.6942h -15.3069" fill="none" stroke="black"/>
<text xml:space="preserve" x="49.3242" y="27.4932" fill="black" font-size="6.42842" font-family="Helvetica">5</text>
<text xml:space="preserve" x="39.3697" y="31.7594" fill="black" font-size="9.39263" font-family="Helvetica">10</text>
<rect x="283.965" y="27.6942" width="113.386" height="55.3884" fill="white"/>
<path d="M283.965,83.0826h 113.386" fill="none" stroke="black"/>
<path d="M397.35,83.0826v -55.3884" fill="none" stroke="black"/>
<path d="M397.35,27.6942h -113.386" fill="none" stroke="black"/>
<path d="M283.965,27.6942v 55.3884" fill="none" stroke="black"/>
<text xml:space="preserve" x="292.023" y="37.9217" fill="#ff0000" font-size="12.1875" font-family="Helvetica">npe_PMT-S0-data</text>
<path d="M283.965,41.5413h 113.386" fill="none" stroke="black"/>
<text xml:space="preserve" x="289.179" y="53.0904" fill="#ff0000" font-size="12.1875" font-family="Helvetica">Entries </text>
<text xml:space="preserve" x="350.802" y="52.6163" fill="#ff0000" font-size="12.1875" font-family="Helvetica"> 147601</text>
<text xml:space="preserve" x="289.179" y="66.837" fill="#ff0000" font-size="12.1875" font-family="Helvetica">Mean  </text>
<text xml:space="preserve" x="357.438" y="66.3629" fill="#ff0000" font-size="12.1875" font-family="Helvetica">  5.751</text>
<text xml:space="preserve" x="289.179" y="80.5836" fill="#ff0000" font-size="12.1875" font-family="Helvetica">Std Dev   </text>
<text xml:space="preserve" x="355.542" y="80.1096" fill="#ff0000" font-size="12.1875" font-family="Helvetica">  7.167</text>
<path d="M57.1929,48.7644h 9.07087v 18.159h 9.07087v 0.324533h 9.07087v 2.25123h 9.07087v 3.88866h 9.07087v 5.125h 9.07087v 5.51104h 9.07087v 5.2861h 9.07087v 5.77187h 9.07087v 4.24507h 9.07087v 5.49834h 9.07087v 5.32112h 9.07087v 4.41278h 9.07087v
 3.24766h 9.07087v 4.34281h 9.07087v 4.6237h 9.07087v 2.97214h 9.07087v 3.7884h 9.07087v 3.86103h 9.07087v 1.23743h 9.07087v 3.72269h 9.07087v 0.524854h 9.07087v 4.08033h 9.07087v 0.761606h 9.07087v 4.61052h 9.07087v -1.32859h 9.07087v 2.74407h
 9.07087v 4.81259h 9.07087v -1.66952h 9.07087v 3.77863h 9.07087v 1.13697h 9.07087v 1.53917h 9.07087v 0.577345h 9.07087v 0.957024h 9.07087v 3.87384h 9.07087v 0.895955h 9.07087v 0.618589h 9.07087v 1.29287h 9.07087v 5.25125h 9.07087v 4.99064h 9.07087v
 -1.79445h 9.07087v 6.22807h 9.07087v 1.00712h 9.07087v 4.15428h 9.07087v -1.60437h 9.07087v 4.25861h 9.07087v -0.465591h 9.07087v 2.95674h 18.1417v 3.42542h 9.07087" fill="none" stroke="#006633" stroke-width="2"/>
<rect x="397.35" y="27.6942" width="113.386" height="55.3884" fill="white"/>
<path d="M397.35,83.0826h 113.386" fill="none" stroke="black"/>
<path d="M510.736,83.0826v -55.3884" fill="none" stroke="black"/>
<path d="M510.736,27.6942h -113.386" fill="none" stroke="black"/>
<path d="M397.35,27.6942v 55.3884" fill="none" stroke="black"/>
<text xml:space="preserve" x="407.684" y="37.9217" fill="#006633" font-size="12.1875" font-family="Helvetica">npe_PMT-S0-MC</text>
<path d="M397.35,41.5413h 113.386" fill="none" stroke="black"/>
<text xml:space="preserve" x="402.944" y="53.0904" fill="#006633" font-size="12.1875" font-family="Helvetica">Entries </text>
<text xml:space="preserve" x="464.093" y="52.6163" fill="#006633" font-size="12.1875" font-family="Helvetica"> 147601</text>
<text xml:space="preserve" x="402.944" y="66.837" fill="#006633" font-size="12.1875" font-family="Helvetica">Mean  </text>
<text xml:space="preserve" x="470.729" y="66.3629" fill="#006633" font-size="12.1875" font-family="Helvetica">  6.121</text>
<text xml:space="preserve" x="402.944" y="80.5836" fill="#006633" font-size="12.1875" font-family="Helvetica">Std Dev   </text>
<text xml:space="preserve" x="468.833" y="80.1096" fill="#006633" font-size="12.1875" font-family="Helvetica">  7.548</text>
<rect x="397.35" y="27.6942" width="113.386" height="55.3884" fill="white"/>
<path d="M397.35,83.0826h 113.386" fill="none" stroke="black"/>
<path d="M510.736,83.0826v -55.3884" fill="none" stroke="black"/>
<path d="M510.736,27.6942h -113.386" fill="none" stroke="black"/>
<path d="M397.35,27.6942v 55.3884" fill="none" stroke="black"/>
<text xml:space="preserve" x="407.684" y="37.9217" fill="#006633" font-size="12.1875" font-family="Helvetica">npe_PMT-S0-MC</text>
<path d="M397.35,41.5413h 113.386" fill="none" stroke="black"/>
<text xml:space="preserve" x="402.944" y="53.0904" fill="#006633" font-size="12.1875" font-family="Helvetica">Entries </text>
<text xml:space="preserve" x="464.093" y="52.6163" fill="#006633" font-size="12.1875" font-family="Helvetica"> 147601</text>
<text xml:space="preserve" x="402.944" y="66.837" fill="#006633" font-size="12.1875" font-family="Helvetica">Mean  </text>
<text xml:space="preserve" x="470.729" y="66.3629" fill="#006633" font-size="12.1875" font-family="Helvetica">  6.121</text>
<text xml:space="preserve" x="402.944" y="80.5836" fill="#006633" font-size="12.1875" font-family="Helvetica">Std Dev   </text>
<text xml:space="preserve" x="468.833" y="80.1096" fill="#006633" font-size="12.1875" font-family="Helvetica">  7.548</text>
<rect x="397.35" y="83.0826" width="113.386" height="27.6942" fill="white"/>
<path d="M397.35,110.777h 113.386" fill="none" stroke="black"/>
<path d="M510.736,110.777v -27.6942" fill="none" stroke="black"/>
<path d="M510.736,83.0826h -113.386" fill="none" stroke="black"/>
<path d="M397.35,83.0826v 27.6942" fill="none" stroke="black"/>
<text xml:space="preserve" x="425.697" y="92.9081" fill="black" font-size="11.372" font-family="Helvetica">Data</text>
<path d="M401.602,90.0062h 19.8425" fill="none" stroke="#ff0000" stroke-width="2"/>
<text xml:space="preserve" x="425.697" y="106.655" fill="black" font-size="11.372" font-family="Helvetica">MC by rat</text>
<path d="M401.602,103.853h 19.8425" fill="none" stroke="#006633" stroke-width="2"/>
<rect x="0.5" y="276.942" width="566.929" height="136.404" fill="white"/>
<rect x="57.1929" y="276.943" width="453.543" height="95.4816" fill="white"/>
<rect x="57.1929" y="276.943" width="453.543" height="95.4816" fill="none" stroke="black"/>
<rect x="57.1929" y="276.943" width="453.543" height="95.4816" fill="white"/>
<rect x="57.1929" y="276.943" width="453.543" height="95.4816" fill="none" stroke="black"/>
<path d="M57.1929,372.425h 453.543" fill="none" stroke="black"/>
<path d="M57.1929,369.151v 3.2737" fill="none" stroke="black"/>
<path d="M72.311,370.788v 1.63685" fill="none" stroke="black"/>
<path d="M87.4291,370.788v 1.63685" fill="none" stroke="black"/>
<path d="M102.547,370.788v 1.63685" fill="none" stroke="black"/>
<path d="M117.665,370.788v 1.63685" fill="none" stroke="black"/>
<path d="M132.783,369.151v 3.2737" fill="none" stroke="black"/>
<path d="M147.902,370.788v 1.63685" fill="none" stroke="black"/>
<path d="M163.02,370.788v 1.63685" fill="none" stroke="black"/>
<path d="M178.138,370.788v 1.63685" fill="none" stroke="black"/>
<path d="M193.256,370.788v 1.63685" fill="none" stroke="black"/>
<path d="M208.374,369.151v 3.2737" fill="none" stroke="black"/>
<path d="M223.492,370.788v 1.63685" fill="none" stroke="black"/>
<path d="M238.61,370.788v 1.63685" fill="none" stroke="black"/>
<path d="M253.728,370.788v 1.63685" fill="none" stroke="black"/>
<path d="M268.846,370.788v 1.63685" fill="none" stroke="black"/>
<path d="M283.965,369.151v 3.2737" fill="none" stroke="black"/>
<path d="M299.083,370.788v 1.63685" fill="none" stroke="black"/>
<path d="M314.201,370.788v 1.63685" fill="none" stroke="black"/>
<path d="M329.319,370.788v 1.63685" fill="none" stroke="black"/>
<path d="M344.437,370.788v 1.63685" fill="none" stroke="black"/>
<path d="M359.555,369.151v 3.2737" fill="none" stroke="black"/>
<path d="M374.673,370.788v 1.63685" fill="none" stroke="black"/>
<path d="M389.791,370.788v 1.63685" fill="none" stroke="black"/>
<path d="M404.909,370.788v 1.63685" fill="none" stroke="black"/>
<path d="M420.028,370.788v 1.63685" fill="none" stroke="black"/>
<path d="M435.146,369.151v 3.2737" fill="none" stroke="black"/>
<path d="M450.264,370.788v 1.63685" fill="none" stroke="black"/>
<path d="M465.382,370.788v 1.63685" fill="none" stroke="black"/>
<path d="M480.5,370.788v 1.63685" fill="none" stroke="black"/>
<path d="M495.618,370.788v 1.63685" fill="none" stroke="black"/>
<path d="M510.736,369.151v 3.2737" fill="none" stroke="black"/>
<text xml:space="preserve" x="54.5384" y="380.639" fill="black" font-size="9.25991" font-family="Helvetica">0</text>
<text xml:space="preserve" x="127.538" y="380.639" fill="black" font-size="9.25991" font-family="Helvetica">10</text>
<text xml:space="preserve" x="202.907" y="380.639" fill="black" font-size="9.25991" font-family="Helvetica">20</text>
<text xml:space="preserve" x="278.75" y="380.639" fill="black" font-size="9.25991" font-family="Helvetica">30</text>
<text xml:space="preserve" x="354.12" y="380.639" fill="black" font-size="9.25991" font-family="Helvetica">40</text>
<text xml:space="preserve" x="429.489" y="380.639" fill="black" font-size="9.25991" font-family="Helvetica">50</text>
<text xml:space="preserve" x="505.332" y="380.639" fill="black" font-size="9.25991" font-family="Helvetica">60</text>
<text xml:space="preserve" x="443.71" y="393.437" fill="black" font-size="11.137" font-family="Helvetica">number of p.e</text>
<path d="M57.1929,372.425v -95.4816" fill="none" stroke="black"/>
<path d="M69.0983,365.842h -11.9053" fill="none" stroke="black"/>
<path d="M63.1456,362.602h -5.95267" fill="none" stroke="black"/>
<path d="M63.1456,359.362h -5.95267" fill="none" stroke="black"/>
<path d="M63.1456,356.123h -5.95267" fill="none" stroke="black"/>
<path d="M63.1456,352.883h -5.95267" fill="none" stroke="black"/>
<path d="M69.0983,349.643h -11.9053" fill="none" stroke="black"/>
<path d="M63.1456,346.404h -5.95267" fill="none" stroke="black"/>
<path d="M63.1456,343.164h -5.95267" fill="none" stroke="black"/>
<path d="M63.1456,339.924h -5.95267" fill="none" stroke="black"/>
<path d="M63.1456,336.685h -5.95267" fill="none" stroke="black"/>
<path d="M69.0983,333.445h -11.9053" fill="none" stroke="black"/>
<path d="M63.1456,330.205h -5.95267" fill="none" stroke="black"/>
<path d="M63.1456,326.966h -5.95267" fill="none" stroke="black"/>
<path d="M63.1456,323.726h -5.95267" fill="none" stroke="black"/>
<path d="M63.1456,320.486h -5.95267" fill="none" stroke="black"/>
<path d="M69.0983,317.246h -11.9053" fill="none" stroke="black"/>
<path d="M63.1456,314.007h -5.95267" fill="none" stroke="black"/>
<path d="M63.1456,310.767h -5.95267" fill="none" stroke="black"/>
<path d="M63.1456,307.527h -5.95267" fill="none" stroke="black"/>
<path d="M63.1456,304.288h -5.95267" fill="none" stroke="black"/>
<path d="M69.0983,301.048h -11.9053" fill="none" stroke="black"/>
<path d="M63.1456,297.808h -5.95267" fill="none" stroke="black"/>
<path d="M63.1456,294.569h -5.95267" fill="none" stroke="black"/>
<path d="M63.1456,291.329h -5.95267" fill="none" stroke="black"/>
<path d="M63.1456,288.089h -5.95267" fill="none" stroke="black"/>
<path d="M69.0983,284.85h -11.9053" fill="none" stroke="black"/>
<path d="M69.0983,365.842h -11.9053" fill="none" stroke="black"/>
<path d="M63.1456,369.082h -5.95267" fill="none" stroke="black"/>
<path d="M63.1456,372.321h -5.95267" fill="none" stroke="black"/>
<path d="M69.0983,284.85h -11.9053" fill="none" stroke="black"/>
<path d="M63.1456,281.61h -5.95267" fill="none" stroke="black"/>
<path d="M63.1456,278.37h -5.95267" fill="none" stroke="black"/>
<text xml:space="preserve" x="44.1099" y="368.788" fill="black" font-size="9.25991" font-family="Helvetica">30</text>
<text xml:space="preserve" x="38.8957" y="368.788" fill="black" font-size="9.25991" font-family="Times">&#8722;</text>
<text xml:space="preserve" x="44.1099" y="352.672" fill="black" font-size="9.25991" font-family="Helvetica">20</text>
<text xml:space="preserve" x="38.8957" y="352.672" fill="black" font-size="9.25991" font-family="Times">&#8722;</text>
<text xml:space="preserve" x="44.1099" y="336.555" fill="black" font-size="9.25991" font-family="Helvetica">10</text>
<text xml:space="preserve" x="38.8957" y="336.555" fill="black" font-size="9.25991" font-family="Times">&#8722;</text>
<text xml:space="preserve" x="49.3242" y="320.438" fill="black" font-size="9.25991" font-family="Helvetica">0</text>
<text xml:space="preserve" x="44.1099" y="304.322" fill="black" font-size="9.25991" font-family="Helvetica">10</text>
<text xml:space="preserve" x="44.1099" y="287.731" fill="black" font-size="9.25991" font-family="Helvetica">20</text>
<g transform="rotate(-90,35.5776,283.465)">
<text xml:space="preserve" x="35.5776" y="283.465" fill="black" font-size="11.137" font-family="Times">&#0963;</text>
</g>
<g transform="rotate(-90,35.5776,343.665)">
<text xml:space="preserve" x="35.5776" y="343.665" fill="black" font-size="11.137" font-family="Helvetica">(MC-DATA)/</text>
</g>
<g stroke="black" stroke-width="1" fill="none">
<line x1="56.1929" y1="317.246" x2="57.1929" y2="317.246"/>
<line x1="65.2638" y1="362.18" x2="66.2638" y2="362.18"/>
<line x1="74.3346" y1="290.569" x2="75.3346" y2="290.569"/>
<line x1="83.4055" y1="287.188" x2="84.4055" y2="287.188"/>
<line x1="92.4764" y1="300.54" x2="93.4764" y2="300.54"/>
<line x1="101.547" y1="311.009" x2="102.547" y2="311.009"/>
<line x1="110.618" y1="319.959" x2="111.618" y2="319.959"/>
<line x1="119.689" y1="323.118" x2="120.689" y2="323.118"/>
<line x1="128.76" y1="323.143" x2="129.76" y2="323.143"/>
<line x1="137.831" y1="323.852" x2="138.831" y2="323.852"/>
<line x1="146.902" y1="316.544" x2="147.902" y2="316.544"/>
<line x1="155.972" y1="317.933" x2="156.972" y2="317.933"/>
<line x1="165.043" y1="317.949" x2="166.043" y2="317.949"/>
<line x1="174.114" y1="315.398" x2="175.114" y2="315.398"/>
<line x1="183.185" y1="314.924" x2="184.185" y2="314.924"/>
<line x1="192.256" y1="315.035" x2="193.256" y2="315.035"/>
<line x1="201.327" y1="313.923" x2="202.327" y2="313.923"/>
<line x1="210.398" y1="315.11" x2="211.398" y2="315.11"/>
<line x1="219.469" y1="313.105" x2="220.469" y2="313.105"/>
<line x1="228.539" y1="314.489" x2="229.539" y2="314.489"/>
<line x1="237.61" y1="313.558" x2="238.61" y2="313.558"/>
<line x1="246.681" y1="315.051" x2="247.681" y2="315.051"/>
<line x1="255.752" y1="313.26" x2="256.752" y2="313.26"/>
<line x1="264.823" y1="313.327" x2="265.823" y2="313.327"/>
<line x1="273.894" y1="312.161" x2="274.894" y2="312.161"/>
<line x1="282.965" y1="313.889" x2="283.965" y2="313.889"/>
<line x1="292.035" y1="312.485" x2="293.035" y2="312.485"/>
<line x1="301.106" y1="310.184" x2="302.106" y2="310.184"/>
<line x1="310.177" y1="312.64" x2="311.177" y2="312.64"/>
<line x1="319.248" y1="308.634" x2="320.248" y2="308.634"/>
<line x1="328.319" y1="311.735" x2="329.319" y2="311.735"/>
<line x1="337.39" y1="308.443" x2="338.39" y2="308.443"/>
<line x1="346.461" y1="310.806" x2="347.461" y2="310.806"/>
<line x1="355.531" y1="312.523" x2="356.531" y2="312.523"/>
<line x1="364.602" y1="311.786" x2="365.602" y2="311.786"/>
<line x1="373.673" y1="312.196" x2="374.673" y2="312.196"/>
<line x1="382.744" y1="312.76" x2="383.744" y2="312.76"/>
<line x1="391.815" y1="311.859" x2="392.815" y2="311.859"/>
<line x1="400.886" y1="311.279" x2="401.886" y2="311.279"/>
<line x1="409.957" y1="315.109" x2="410.957" y2="315.109"/>
<line x1="419.028" y1="317.373" x2="420.028" y2="317.373"/>
<line x1="428.098" y1="315.332" x2="429.098" y2="315.332"/>
<line x1="437.169" y1="317.246" x2="438.169" y2="317.246"/>
<line x1="446.24" y1="316.808" x2="447.24" y2="316.808"/>
<line x1="455.311" y1="319.75" x2="456.311" y2="319.75"/>
<line x1="464.382" y1="318.429" x2="465.382" y2="318.429"/>
<line x1="473.453" y1="318.542" x2="474.453" y2="318.542"/>
<line x1="482.524" y1="318.53" x2="483.524" y2="318.53"/>
<line x1="491.594" y1="319.407" x2="492.594" y2="319.407"/>
<line x1="500.665" y1="317.424" x2="501.665" y2="317.424"/>
<line x1="509.736" y1="318.539" x2="510.736" y2="318.539"/>
</g>
<path d="M66.2638,362.18v -2.28817" fill="none" stroke="black"/>
<path d="M65.3157,359.892h 1.89608" fill="none" stroke="black"/>
<path d="M66.2638,362.18v 2.28817" fill="none" stroke="black"/>
<path d="M65.3157,364.468h 1.89608" fill="none" stroke="black"/>
<path d="M75.3346,290.569v -2.2882" fill="none" stroke="black"/>
<path d="M74.3866,288.28h 1.89608" fill="none" stroke="black"/>
<path d="M75.3346,290.569v 2.2882" fill="none" stroke="black"/>
<path d="M74.3866,292.857h 1.89608" fill="none" stroke="black"/>
<path d="M84.4055,287.188v -2.2874" fill="none" stroke="black"/>
<path d="M83.4575,284.9h 1.89608" fill="none" stroke="black"/>
<path d="M84.4055,287.188v 2.2874" fill="none" stroke="black"/>
<path d="M83.4575,289.475h 1.89608" fill="none" stroke="black"/>
<path d="M93.4764,300.54v -2.28969" fill="none" stroke="black"/>
<path d="M92.5283,298.25h 1.89608" fill="none" stroke="black"/>
<path d="M93.4764,300.54v 2.28969" fill="none" stroke="black"/>
<path d="M92.5283,302.829h 1.89608" fill="none" stroke="black"/>
<path d="M102.547,311.009v -2.29063" fill="none" stroke="black"/>
<path d="M101.599,308.719h 1.89608" fill="none" stroke="black"/>
<path d="M102.547,311.009v 2.29063" fill="none" stroke="black"/>
<path d="M101.599,313.3h 1.89608" fill="none" stroke="black"/>
<path d="M111.618,319.959v -2.29077" fill="none" stroke="black"/>
<path d="M110.67,317.668h 1.89608" fill="none" stroke="black"/>
<path d="M111.618,319.959v 2.29077" fill="none" stroke="black"/>
<path d="M110.67,322.25h 1.89608" fill="none" stroke="black"/>
<path d="M120.689,323.118v -2.29056" fill="none" stroke="black"/>
<path d="M119.741,320.828h 1.89608" fill="none" stroke="black"/>
<path d="M120.689,323.118v 2.29056" fill="none" stroke="black"/>
<path d="M119.741,325.409h 1.89608" fill="none" stroke="black"/>
<path d="M129.76,323.143v -2.29049" fill="none" stroke="black"/>
<path d="M128.812,320.853h 1.89608" fill="none" stroke="black"/>
<path d="M129.76,323.143v 2.29049" fill="none" stroke="black"/>
<path d="M128.812,325.434h 1.89608" fill="none" stroke="black"/>
<path d="M138.831,323.852v -2.2903" fill="none" stroke="black"/>
<path d="M137.883,321.561h 1.89608" fill="none" stroke="black"/>
<path d="M138.831,323.852v 2.2903" fill="none" stroke="black"/>
<path d="M137.883,326.142h 1.89608" fill="none" stroke="black"/>
<path d="M147.902,316.544v -2.2908" fill="none" stroke="black"/>
<path d="M146.954,314.253h 1.89608" fill="none" stroke="black"/>
<path d="M147.902,316.544v 2.2908" fill="none" stroke="black"/>
<path d="M146.954,318.835h 1.89608" fill="none" stroke="black"/>
<path d="M156.972,317.933v -2.2908" fill="none" stroke="black"/>
<path d="M156.024,315.642h 1.89608" fill="none" stroke="black"/>
<path d="M156.972,317.933v 2.2908" fill="none" stroke="black"/>
<path d="M156.024,320.224h 1.89608" fill="none" stroke="black"/>
<path d="M166.043,317.949v -2.2908" fill="none" stroke="black"/>
<path d="M165.095,315.659h 1.89608" fill="none" stroke="black"/>
<path d="M166.043,317.949v 2.2908" fill="none" stroke="black"/>
<path d="M165.095,320.24h 1.89608" fill="none" stroke="black"/>
<path d="M175.114,315.398v -2.29071" fill="none" stroke="black"/>
<path d="M174.166,313.107h 1.89608" fill="none" stroke="black"/>
<path d="M175.114,315.398v 2.29071" fill="none" stroke="black"/>
<path d="M174.166,317.688h 1.89608" fill="none" stroke="black"/>
<path d="M184.185,314.924v -2.29062" fill="none" stroke="black"/>
<path d="M183.237,312.633h 1.89608" fill="none" stroke="black"/>
<path d="M184.185,314.924v 2.29062" fill="none" stroke="black"/>
<path d="M183.237,317.214h 1.89608" fill="none" stroke="black"/>
<path d="M193.256,315.035v -2.2906" fill="none" stroke="black"/>
<path d="M192.308,312.744h 1.89608" fill="none" stroke="black"/>
<path d="M193.256,315.035v 2.2906" fill="none" stroke="black"/>
<path d="M192.308,317.325h 1.89608" fill="none" stroke="black"/>
<path d="M202.327,313.923v -2.2902" fill="none" stroke="black"/>
<path d="M201.379,311.633h 1.89608" fill="none" stroke="black"/>
<path d="M202.327,313.923v 2.2902" fill="none" stroke="black"/>
<path d="M201.379,316.213h 1.89608" fill="none" stroke="black"/>
<path d="M211.398,315.11v -2.29052" fill="none" stroke="black"/>
<path d="M210.45,312.82h 1.89608" fill="none" stroke="black"/>
<path d="M211.398,315.11v 2.29052" fill="none" stroke="black"/>
<path d="M210.45,317.401h 1.89608" fill="none" stroke="black"/>
<path d="M220.469,313.105v -2.28948" fill="none" stroke="black"/>
<path d="M219.52,310.816h 1.89608" fill="none" stroke="black"/>
<path d="M220.469,313.105v 2.28948" fill="none" stroke="black"/>
<path d="M219.52,315.395h 1.89608" fill="none" stroke="black"/>
<path d="M229.539,314.489v -2.29012" fill="none" stroke="black"/>
<path d="M228.591,312.199h 1.89608" fill="none" stroke="black"/>
<path d="M229.539,314.489v 2.29012" fill="none" stroke="black"/>
<path d="M228.591,316.779h 1.89608" fill="none" stroke="black"/>
<path d="M238.61,313.558v -2.28948" fill="none" stroke="black"/>
<path d="M237.662,311.269h 1.89608" fill="none" stroke="black"/>
<path d="M238.61,313.558v 2.28948" fill="none" stroke="black"/>
<path d="M237.662,315.847h 1.89608" fill="none" stroke="black"/>
<path d="M247.681,315.051v -2.29026" fill="none" stroke="black"/>
<path d="M246.733,312.76h 1.89608" fill="none" stroke="black"/>
<path d="M247.681,315.051v 2.29026" fill="none" stroke="black"/>
<path d="M246.733,317.341h 1.89608" fill="none" stroke="black"/>
<path d="M256.752,313.26v -2.28889" fill="none" stroke="black"/>
<path d="M255.804,310.971h 1.89608" fill="none" stroke="black"/>
<path d="M256.752,313.26v 2.28889" fill="none" stroke="black"/>
<path d="M255.804,315.549h 1.89608" fill="none" stroke="black"/>
<path d="M265.823,313.327v -2.28855" fill="none" stroke="black"/>
<path d="M264.875,311.038h 1.89608" fill="none" stroke="black"/>
<path d="M265.823,313.327v 2.28855" fill="none" stroke="black"/>
<path d="M264.875,315.616h 1.89608" fill="none" stroke="black"/>
<path d="M274.894,312.161v -2.28675" fill="none" stroke="black"/>
<path d="M273.946,309.874h 1.89608" fill="none" stroke="black"/>
<path d="M274.894,312.161v 2.28675" fill="none" stroke="black"/>
<path d="M273.946,314.448h 1.89608" fill="none" stroke="black"/>
<path d="M283.965,313.889v -2.28869" fill="none" stroke="black"/>
<path d="M283.017,311.601h 1.89608" fill="none" stroke="black"/>
<path d="M283.965,313.889v 2.28869" fill="none" stroke="black"/>
<path d="M283.017,316.178h 1.89608" fill="none" stroke="black"/>
<path d="M293.035,312.485v -2.28667" fill="none" stroke="black"/>
<path d="M292.087,310.198h 1.89608" fill="none" stroke="black"/>
<path d="M293.035,312.485v 2.28667" fill="none" stroke="black"/>
<path d="M292.087,314.772h 1.89608" fill="none" stroke="black"/>
<path d="M302.106,310.184v -2.27968" fill="none" stroke="black"/>
<path d="M301.158,307.905h 1.89608" fill="none" stroke="black"/>
<path d="M302.106,310.184v 2.27968" fill="none" stroke="black"/>
<path d="M301.158,312.464h 1.89608" fill="none" stroke="black"/>
<path d="M311.177,312.64v -2.28521" fill="none" stroke="black"/>
<path d="M310.229,310.355h 1.89608" fill="none" stroke="black"/>
<path d="M311.177,312.64v 2.28521" fill="none" stroke="black"/>
<path d="M310.229,314.925h 1.89608" fill="none" stroke="black"/>
<path d="M320.248,308.634v -2.27037" fill="none" stroke="black"/>
<path d="M319.3,306.364h 1.89608" fill="none" stroke="black"/>
<path d="M320.248,308.634v 2.27037" fill="none" stroke="black"/>
<path d="M319.3,310.904h 1.89608" fill="none" stroke="black"/>
<path d="M329.319,311.735v -2.28164" fill="none" stroke="black"/>
<path d="M328.371,309.454h 1.89608" fill="none" stroke="black"/>
<path d="M329.319,311.735v 2.28164" fill="none" stroke="black"/>
<path d="M328.371,314.017h 1.89608" fill="none" stroke="black"/>
<path d="M338.39,308.443v -2.26286" fill="none" stroke="black"/>
<path d="M337.442,306.18h 1.89608" fill="none" stroke="black"/>
<path d="M338.39,308.443v 2.26286" fill="none" stroke="black"/>
<path d="M337.442,310.706h 1.89608" fill="none" stroke="black"/>
<path d="M347.461,310.806v -2.27597" fill="none" stroke="black"/>
<path d="M346.513,308.53h 1.89608" fill="none" stroke="black"/>
<path d="M347.461,310.806v 2.27597" fill="none" stroke="black"/>
<path d="M346.513,313.082h 1.89608" fill="none" stroke="black"/>
<path d="M356.531,312.523v -2.28309" fill="none" stroke="black"/>
<path d="M355.583,310.24h 1.89608" fill="none" stroke="black"/>
<path d="M356.531,312.523v 2.28309" fill="none" stroke="black"/>
<path d="M355.583,314.806h 1.89608" fill="none" stroke="black"/>
<path d="M365.602,311.786v -2.27968" fill="none" stroke="black"/>
<path d="M364.654,309.506h 1.89608" fill="none" stroke="black"/>
<path d="M365.602,311.786v 2.27968" fill="none" stroke="black"/>
<path d="M364.654,314.065h 1.89608" fill="none" stroke="black"/>
<path d="M374.673,312.196v -2.2794" fill="none" stroke="black"/>
<path d="M373.725,309.917h 1.89608" fill="none" stroke="black"/>
<path d="M374.673,312.196v 2.2794" fill="none" stroke="black"/>
<path d="M373.725,314.475h 1.89608" fill="none" stroke="black"/>
<path d="M383.744,312.76v -2.2816" fill="none" stroke="black"/>
<path d="M382.796,310.478h 1.89608" fill="none" stroke="black"/>
<path d="M383.744,312.76v 2.2816" fill="none" stroke="black"/>
<path d="M382.796,315.041h 1.89608" fill="none" stroke="black"/>
<path d="M392.815,311.859v -2.27657" fill="none" stroke="black"/>
<path d="M391.867,309.582h 1.89608" fill="none" stroke="black"/>
<path d="M392.815,311.859v 2.27657" fill="none" stroke="black"/>
<path d="M391.867,314.135h 1.89608" fill="none" stroke="black"/>
<path d="M401.886,311.279v -2.27164" fill="none" stroke="black"/>
<path d="M400.938,309.008h 1.89608" fill="none" stroke="black"/>
<path d="M401.886,311.279v 2.27164" fill="none" stroke="black"/>
<path d="M400.938,313.551h 1.89608" fill="none" stroke="black"/>
<path d="M410.957,315.109v -2.28812" fill="none" stroke="black"/>
<path d="M410.009,312.82h 1.89608" fill="none" stroke="black"/>
<path d="M410.957,315.109v 2.28812" fill="none" stroke="black"/>
<path d="M410.009,317.397h 1.89608" fill="none" stroke="black"/>
<path d="M420.028,317.373v -2.2908" fill="none" stroke="black"/>
<path d="M419.08,315.083h 1.89608" fill="none" stroke="black"/>
<path d="M420.028,317.373v 2.2908" fill="none" stroke="black"/>
<path d="M419.08,319.664h 1.89608" fill="none" stroke="black"/>
<path d="M429.098,315.332v -2.28832" fill="none" stroke="black"/>
<path d="M428.15,313.043h 1.89608" fill="none" stroke="black"/>
<path d="M429.098,315.332v 2.28832" fill="none" stroke="black"/>
<path d="M428.15,317.62h 1.89608" fill="none" stroke="black"/>
<path d="M438.169,317.246v -2.29081" fill="none" stroke="black"/>
<path d="M437.221,314.956h 1.89608" fill="none" stroke="black"/>
<path d="M438.169,317.246v 2.29081" fill="none" stroke="black"/>
<path d="M437.221,319.537h 1.89608" fill="none" stroke="black"/>
<path d="M447.24,316.808v -2.29064" fill="none" stroke="black"/>
<path d="M446.292,314.518h 1.89608" fill="none" stroke="black"/>
<path d="M447.24,316.808v 2.29064" fill="none" stroke="black"/>
<path d="M446.292,319.099h 1.89608" fill="none" stroke="black"/>
<path d="M456.311,319.75v -2.28512" fill="none" stroke="black"/>
<path d="M455.363,317.465h 1.89608" fill="none" stroke="black"/>
<path d="M456.311,319.75v 2.28512" fill="none" stroke="black"/>
<path d="M455.363,322.035h 1.89608" fill="none" stroke="black"/>
<path d="M465.382,318.429v -2.28954" fill="none" stroke="black"/>
<path d="M464.434,316.14h 1.89608" fill="none" stroke="black"/>
<path d="M465.382,318.429v 2.28954" fill="none" stroke="black"/>
<path d="M464.434,320.719h 1.89608" fill="none" stroke="black"/>
<path d="M474.453,318.542v -2.28897" fill="none" stroke="black"/>
<path d="M473.505,316.253h 1.89608" fill="none" stroke="black"/>
<path d="M474.453,318.542v 2.28897" fill="none" stroke="black"/>
<path d="M473.505,320.831h 1.89608" fill="none" stroke="black"/>
<path d="M483.524,318.53v -2.28905" fill="none" stroke="black"/>
<path d="M482.576,316.241h 1.89608" fill="none" stroke="black"/>
<path d="M483.524,318.53v 2.28905" fill="none" stroke="black"/>
<path d="M482.576,320.819h 1.89608" fill="none" stroke="black"/>
<path d="M492.594,319.407v -2.28542" fill="none" stroke="black"/>
<path d="M491.646,317.122h 1.89608" fill="none" stroke="black"/>
<path d="M492.594,319.407v 2.28542" fill="none" stroke="black"/>
<path d="M491.646,321.692h 1.89608" fill="none" stroke="black"/>
<path d="M501.665,317.424v -2.29077" fill="none" stroke="black"/>
<path d="M500.717,315.133h 1.89608" fill="none" stroke="black"/>
<path d="M501.665,317.424v 2.29077" fill="none" stroke="black"/>
<path d="M500.717,319.715h 1.89608" fill="none" stroke="black"/>
<path d="M510.736,318.539v -2.28844" fill="none" stroke="black"/>
<path d="M509.788,316.25h 0.948042" fill="none" stroke="black"/>
<path d="M510.736,318.539v 2.28844" fill="none" stroke="black"/>
<path d="M509.788,320.827h 0.948042" fill="none" stroke="black"/></svg>
