<?xml version="1.0" standalone="no"?>
<svg width="567.429" height="413.846" viewBox="0 0 567.429 413.846" xmlns="http://www.w3.org/2000/svg" shape-rendering="crispEdges">
<title>
figures/chi2zoomin_2PMTnpefilelist20.svg
</title>
<desc>
Creator: ROOT Version 6.18/04
CreationDate: Fri Nov  1 13:55:13 2019</desc>
<defs>
</defs>
<rect x="0.5" y="0" width="566.929" height="413.346" fill="white"/>
<rect x="57.1929" y="41.3346" width="453.543" height="330.677" fill="white"/>
<rect x="57.1929" y="41.3346" width="453.543" height="330.677" fill="none" stroke="black"/>
<path d="M57.1929,372.012h 453.543" fill="none" stroke="black"/>
<path d="M101.018,41.3346v 330.677" fill="none" stroke="black" stroke-dasharray=" 1, 2"/>
<path d="M146.016,41.3346v 330.677" fill="none" stroke="black" stroke-dasharray=" 1, 2"/>
<path d="M191.015,41.3346v 330.677" fill="none" stroke="black" stroke-dasharray=" 1, 2"/>
<path d="M236.014,41.3346v 330.677" fill="none" stroke="black" stroke-dasharray=" 1, 2"/>
<path d="M281.013,41.3346v 330.677" fill="none" stroke="black" stroke-dasharray=" 1, 2"/>
<path d="M326.012,41.3346v 330.677" fill="none" stroke="black" stroke-dasharray=" 1, 2"/>
<path d="M371.011,41.3346v 330.677" fill="none" stroke="black" stroke-dasharray=" 1, 2"/>
<path d="M416.01,41.3346v 330.677" fill="none" stroke="black" stroke-dasharray=" 1, 2"/>
<path d="M461.009,41.3346v 330.677" fill="none" stroke="black" stroke-dasharray=" 1, 2"/>
<path d="M506.007,41.3346v 330.677" fill="none" stroke="black" stroke-dasharray=" 1, 2"/>
<path d="M101.018,41.3346v 330.677" fill="none" stroke="black" stroke-dasharray=" 1, 2"/>
<path d="M506.007,41.3346v 330.677" fill="none" stroke="black" stroke-dasharray=" 1, 2"/>
<path d="M57.1929,372.012v -330.677" fill="none" stroke="black"/>
<path d="M57.1929,372.012h 453.543" fill="none" stroke="black"/>
<path d="M101.018,362.091v 9.92031" fill="none" stroke="black"/>
<path d="M112.267,367.052v 4.96016" fill="none" stroke="black"/>
<path d="M123.517,367.052v 4.96016" fill="none" stroke="black"/>
<path d="M134.767,367.052v 4.96016" fill="none" stroke="black"/>
<path d="M146.016,362.091v 9.92031" fill="none" stroke="black"/>
<path d="M157.266,367.052v 4.96016" fill="none" stroke="black"/>
<path d="M168.516,367.052v 4.96016" fill="none" stroke="black"/>
<path d="M179.766,367.052v 4.96016" fill="none" stroke="black"/>
<path d="M191.015,362.091v 9.92031" fill="none" stroke="black"/>
<path d="M202.265,367.052v 4.96016" fill="none" stroke="black"/>
<path d="M213.515,367.052v 4.96016" fill="none" stroke="black"/>
<path d="M224.764,367.052v 4.96016" fill="none" stroke="black"/>
<path d="M236.014,362.091v 9.92031" fill="none" stroke="black"/>
<path d="M247.264,367.052v 4.96016" fill="none" stroke="black"/>
<path d="M258.514,367.052v 4.96016" fill="none" stroke="black"/>
<path d="M269.763,367.052v 4.96016" fill="none" stroke="black"/>
<path d="M281.013,362.091v 9.92031" fill="none" stroke="black"/>
<path d="M292.263,367.052v 4.96016" fill="none" stroke="black"/>
<path d="M303.512,367.052v 4.96016" fill="none" stroke="black"/>
<path d="M314.762,367.052v 4.96016" fill="none" stroke="black"/>
<path d="M326.012,362.091v 9.92031" fill="none" stroke="black"/>
<path d="M337.262,367.052v 4.96016" fill="none" stroke="black"/>
<path d="M348.511,367.052v 4.96016" fill="none" stroke="black"/>
<path d="M359.761,367.052v 4.96016" fill="none" stroke="black"/>
<path d="M371.011,362.091v 9.92031" fill="none" stroke="black"/>
<path d="M382.26,367.052v 4.96016" fill="none" stroke="black"/>
<path d="M393.51,367.052v 4.96016" fill="none" stroke="black"/>
<path d="M404.76,367.052v 4.96016" fill="none" stroke="black"/>
<path d="M416.01,362.091v 9.92031" fill="none" stroke="black"/>
<path d="M427.259,367.052v 4.96016" fill="none" stroke="black"/>
<path d="M438.509,367.052v 4.96016" fill="none" stroke="black"/>
<path d="M449.759,367.052v 4.96016" fill="none" stroke="black"/>
<path d="M461.009,362.091v 9.92031" fill="none" stroke="black"/>
<path d="M472.258,367.052v 4.96016" fill="none" stroke="black"/>
<path d="M483.508,367.052v 4.96016" fill="none" stroke="black"/>
<path d="M494.758,367.052v 4.96016" fill="none" stroke="black"/>
<path d="M506.007,362.091v 9.92031" fill="none" stroke="black"/>
<path d="M101.018,362.091v 9.92031" fill="none" stroke="black"/>
<path d="M89.7678,367.052v 4.96016" fill="none" stroke="black"/>
<path d="M78.5181,367.052v 4.96016" fill="none" stroke="black"/>
<path d="M67.2683,367.052v 4.96016" fill="none" stroke="black"/>
<path d="M506.007,362.091v 9.92031" fill="none" stroke="black"/>
<text xml:space="preserve" x="88.1939" y="385.379" fill="black" font-size="13.7726" font-family="Helvetica">0.48</text>
<text xml:space="preserve" x="128.96" y="385.379" fill="black" font-size="13.7726" font-family="Helvetica">0.482</text>
<text xml:space="preserve" x="173.992" y="385.379" fill="black" font-size="13.7726" font-family="Helvetica">0.484</text>
<text xml:space="preserve" x="219.024" y="385.379" fill="black" font-size="13.7726" font-family="Helvetica">0.486</text>
<text xml:space="preserve" x="264.056" y="385.379" fill="black" font-size="13.7726" font-family="Helvetica">0.488</text>
<text xml:space="preserve" x="312.88" y="385.379" fill="black" font-size="13.7726" font-family="Helvetica">0.49</text>
<text xml:space="preserve" x="354.12" y="385.379" fill="black" font-size="13.7726" font-family="Helvetica">0.492</text>
<text xml:space="preserve" x="399.152" y="385.379" fill="black" font-size="13.7726" font-family="Helvetica">0.494</text>
<text xml:space="preserve" x="444.184" y="385.379" fill="black" font-size="13.7726" font-family="Helvetica">0.496</text>
<text xml:space="preserve" x="489.216" y="385.379" fill="black" font-size="13.7726" font-family="Helvetica">0.498</text>
<text xml:space="preserve" x="413.372" y="400.074" fill="black" font-size="13.7726" font-family="Helvetica">calibration factor</text>
<path d="M57.1929,372.012v -330.677" fill="none" stroke="black"/>
<path d="M70.7992,359.314h -13.6063" fill="none" stroke="black"/>
<path d="M63.9961,352.701h -6.80315" fill="none" stroke="black"/>
<path d="M63.9961,346.087h -6.80315" fill="none" stroke="black"/>
<path d="M63.9961,339.474h -6.80315" fill="none" stroke="black"/>
<path d="M63.9961,332.86h -6.80315" fill="none" stroke="black"/>
<path d="M70.7992,326.247h -13.6063" fill="none" stroke="black"/>
<path d="M63.9961,319.633h -6.80315" fill="none" stroke="black"/>
<path d="M63.9961,313.02h -6.80315" fill="none" stroke="black"/>
<path d="M63.9961,306.406h -6.80315" fill="none" stroke="black"/>
<path d="M63.9961,299.793h -6.80315" fill="none" stroke="black"/>
<path d="M70.7992,293.179h -13.6063" fill="none" stroke="black"/>
<path d="M63.9961,286.565h -6.80315" fill="none" stroke="black"/>
<path d="M63.9961,279.952h -6.80315" fill="none" stroke="black"/>
<path d="M63.9961,273.338h -6.80315" fill="none" stroke="black"/>
<path d="M63.9961,266.725h -6.80315" fill="none" stroke="black"/>
<path d="M70.7992,260.111h -13.6063" fill="none" stroke="black"/>
<path d="M63.9961,253.498h -6.80315" fill="none" stroke="black"/>
<path d="M63.9961,246.884h -6.80315" fill="none" stroke="black"/>
<path d="M63.9961,240.271h -6.80315" fill="none" stroke="black"/>
<path d="M63.9961,233.657h -6.80315" fill="none" stroke="black"/>
<path d="M70.7992,227.044h -13.6063" fill="none" stroke="black"/>
<path d="M63.9961,220.43h -6.80315" fill="none" stroke="black"/>
<path d="M63.9961,213.816h -6.80315" fill="none" stroke="black"/>
<path d="M63.9961,207.203h -6.80315" fill="none" stroke="black"/>
<path d="M63.9961,200.589h -6.80315" fill="none" stroke="black"/>
<path d="M70.7992,193.976h -13.6063" fill="none" stroke="black"/>
<path d="M63.9961,187.362h -6.80315" fill="none" stroke="black"/>
<path d="M63.9961,180.749h -6.80315" fill="none" stroke="black"/>
<path d="M63.9961,174.135h -6.80315" fill="none" stroke="black"/>
<path d="M63.9961,167.522h -6.80315" fill="none" stroke="black"/>
<path d="M70.7992,160.908h -13.6063" fill="none" stroke="black"/>
<path d="M63.9961,154.295h -6.80315" fill="none" stroke="black"/>
<path d="M63.9961,147.681h -6.80315" fill="none" stroke="black"/>
<path d="M63.9961,141.068h -6.80315" fill="none" stroke="black"/>
<path d="M63.9961,134.454h -6.80315" fill="none" stroke="black"/>
<path d="M70.7992,127.84h -13.6063" fill="none" stroke="black"/>
<path d="M63.9961,121.227h -6.80315" fill="none" stroke="black"/>
<path d="M63.9961,114.613h -6.80315" fill="none" stroke="black"/>
<path d="M63.9961,108h -6.80315" fill="none" stroke="black"/>
<path d="M63.9961,101.386h -6.80315" fill="none" stroke="black"/>
<path d="M70.7992,94.7727h -13.6063" fill="none" stroke="black"/>
<path d="M63.9961,88.1592h -6.80315" fill="none" stroke="black"/>
<path d="M63.9961,81.5456h -6.80315" fill="none" stroke="black"/>
<path d="M63.9961,74.9321h -6.80315" fill="none" stroke="black"/>
<path d="M63.9961,68.3186h -6.80315" fill="none" stroke="black"/>
<path d="M70.7992,61.705h -13.6063" fill="none" stroke="black"/>
<path d="M70.7992,359.314h -13.6063" fill="none" stroke="black"/>
<path d="M63.9961,365.928h -6.80315" fill="none" stroke="black"/>
<path d="M70.7992,61.705h -13.6063" fill="none" stroke="black"/>
<path d="M63.9961,55.0915h -6.80315" fill="none" stroke="black"/>
<path d="M63.9961,48.4779h -6.80315" fill="none" stroke="black"/>
<path d="M63.9961,41.8644h -6.80315" fill="none" stroke="black"/>
<text xml:space="preserve" x="32.2594" y="364.048" fill="black" font-size="13.7726" font-family="Helvetica">795</text>
<text xml:space="preserve" x="32.2594" y="330.867" fill="black" font-size="13.7726" font-family="Helvetica">796</text>
<text xml:space="preserve" x="32.2594" y="297.685" fill="black" font-size="13.7726" font-family="Helvetica">797</text>
<text xml:space="preserve" x="32.2594" y="264.504" fill="black" font-size="13.7726" font-family="Helvetica">798</text>
<text xml:space="preserve" x="32.2594" y="231.322" fill="black" font-size="13.7726" font-family="Helvetica">799</text>
<text xml:space="preserve" x="32.2594" y="198.615" fill="black" font-size="13.7726" font-family="Helvetica">800</text>
<text xml:space="preserve" x="34.6295" y="165.433" fill="black" font-size="13.7726" font-family="Helvetica">801</text>
<text xml:space="preserve" x="32.2594" y="132.252" fill="black" font-size="13.7726" font-family="Helvetica">802</text>
<text xml:space="preserve" x="32.2594" y="99.0704" fill="black" font-size="13.7726" font-family="Helvetica">803</text>
<text xml:space="preserve" x="32.2594" y="66.3629" fill="black" font-size="13.7726" font-family="Helvetica">804</text>
<g transform="rotate(-90,15.1947,45.98)">
<text xml:space="preserve" x="15.1947" y="45.98" fill="black" font-size="9.34839" font-family="Helvetica">2</text>
</g>
<g transform="rotate(-90,19.4608,50.2462)">
<text xml:space="preserve" x="19.4608" y="50.2462" fill="black" font-size="13.7726" font-family="Helvetica"> </text>
</g>
<g transform="rotate(-90,19.4608,57.3565)">
<text xml:space="preserve" x="19.4608" y="57.3565" fill="black" font-size="13.7726" font-family="Times">&#0967;</text>
</g>
<g stroke="black" stroke-width="1" fill="none">
<line x1="189.119" y1="159.038" x2="192.911" y2="159.038"/><line x1="191.015" y1="157.142" x2="191.015" y2="160.934"/><line x1="189.119" y1="157.142" x2="192.911" y2="160.934"/><line x1="189.119" y1="160.934" x2="192.911" y2="157.142"/>
<line x1="193.619" y1="80.7314" x2="197.411" y2="80.7314"/><line x1="195.515" y1="78.8353" x2="195.515" y2="82.6275"/><line x1="193.619" y1="78.8353" x2="197.411" y2="82.6275"/><line x1="193.619" y1="82.6275" x2="197.411" y2="78.8353"/>
<line x1="198.119" y1="110.348" x2="201.911" y2="110.348"/><line x1="200.015" y1="108.452" x2="200.015" y2="112.244"/><line x1="198.119" y1="108.452" x2="201.911" y2="112.244"/><line x1="198.119" y1="112.244" x2="201.911" y2="108.452"/>
<line x1="202.619" y1="81.0919" x2="206.411" y2="81.0919"/><line x1="204.515" y1="79.1958" x2="204.515" y2="82.988"/><line x1="202.619" y1="79.1958" x2="206.411" y2="82.988"/><line x1="202.619" y1="82.988" x2="206.411" y2="79.1958"/>
<line x1="207.119" y1="146.537" x2="210.911" y2="146.537"/><line x1="209.015" y1="144.641" x2="209.015" y2="148.433"/><line x1="207.119" y1="144.641" x2="210.911" y2="148.433"/><line x1="207.119" y1="148.433" x2="210.911" y2="144.641"/>
<line x1="211.619" y1="154.46" x2="215.411" y2="154.46"/><line x1="213.515" y1="152.564" x2="213.515" y2="156.356"/><line x1="211.619" y1="152.564" x2="215.411" y2="156.356"/><line x1="211.619" y1="156.356" x2="215.411" y2="152.564"/>
<line x1="216.118" y1="103.175" x2="219.911" y2="103.175"/><line x1="218.015" y1="101.279" x2="218.015" y2="105.071"/><line x1="216.118" y1="101.279" x2="219.911" y2="105.071"/><line x1="216.118" y1="105.071" x2="219.911" y2="101.279"/>
<line x1="220.618" y1="134.24" x2="224.411" y2="134.24"/><line x1="222.514" y1="132.344" x2="222.514" y2="136.136"/><line x1="220.618" y1="132.344" x2="224.411" y2="136.136"/><line x1="220.618" y1="136.136" x2="224.411" y2="132.344"/>
<line x1="225.118" y1="187.62" x2="228.91" y2="187.62"/><line x1="227.014" y1="185.724" x2="227.014" y2="189.517"/><line x1="225.118" y1="185.724" x2="228.91" y2="189.517"/><line x1="225.118" y1="189.517" x2="228.91" y2="185.724"/>
<line x1="229.618" y1="179.18" x2="233.41" y2="179.18"/><line x1="231.514" y1="177.284" x2="231.514" y2="181.076"/><line x1="229.618" y1="177.284" x2="233.41" y2="181.076"/><line x1="229.618" y1="181.076" x2="233.41" y2="177.284"/>
<line x1="234.118" y1="150.309" x2="237.91" y2="150.309"/><line x1="236.014" y1="148.413" x2="236.014" y2="152.205"/><line x1="234.118" y1="148.413" x2="237.91" y2="152.205"/><line x1="234.118" y1="152.205" x2="237.91" y2="148.413"/>
<line x1="238.618" y1="204.228" x2="242.41" y2="204.228"/><line x1="240.514" y1="202.332" x2="240.514" y2="206.124"/><line x1="238.618" y1="202.332" x2="242.41" y2="206.124"/><line x1="238.618" y1="206.124" x2="242.41" y2="202.332"/>
<line x1="243.118" y1="184.408" x2="246.91" y2="184.408"/><line x1="245.014" y1="182.512" x2="245.014" y2="186.304"/><line x1="243.118" y1="182.512" x2="246.91" y2="186.304"/><line x1="243.118" y1="186.304" x2="246.91" y2="182.512"/>
<line x1="247.618" y1="165.225" x2="251.41" y2="165.225"/><line x1="249.514" y1="163.329" x2="249.514" y2="167.121"/><line x1="247.618" y1="163.329" x2="251.41" y2="167.121"/><line x1="247.618" y1="167.121" x2="251.41" y2="163.329"/>
<line x1="252.118" y1="163.97" x2="255.91" y2="163.97"/><line x1="254.014" y1="162.074" x2="254.014" y2="165.866"/><line x1="252.118" y1="162.074" x2="255.91" y2="165.866"/><line x1="252.118" y1="165.866" x2="255.91" y2="162.074"/>
<line x1="256.617" y1="213.226" x2="260.41" y2="213.226"/><line x1="258.514" y1="211.33" x2="258.514" y2="215.123"/><line x1="256.617" y1="211.33" x2="260.41" y2="215.123"/><line x1="256.617" y1="215.123" x2="260.41" y2="211.33"/>
<line x1="261.117" y1="289.673" x2="264.91" y2="289.673"/><line x1="263.013" y1="287.776" x2="263.013" y2="291.569"/><line x1="261.117" y1="287.776" x2="264.91" y2="291.569"/><line x1="261.117" y1="291.569" x2="264.91" y2="287.776"/>
<line x1="265.617" y1="227.163" x2="269.409" y2="227.163"/><line x1="267.513" y1="225.267" x2="267.513" y2="229.059"/><line x1="265.617" y1="225.267" x2="269.409" y2="229.059"/><line x1="265.617" y1="229.059" x2="269.409" y2="225.267"/>
<line x1="270.117" y1="265.288" x2="273.909" y2="265.288"/><line x1="272.013" y1="263.392" x2="272.013" y2="267.184"/><line x1="270.117" y1="263.392" x2="273.909" y2="267.184"/><line x1="270.117" y1="267.184" x2="273.909" y2="263.392"/>
<line x1="274.617" y1="283.638" x2="278.409" y2="283.638"/><line x1="276.513" y1="281.742" x2="276.513" y2="285.534"/><line x1="274.617" y1="281.742" x2="278.409" y2="285.534"/><line x1="274.617" y1="285.534" x2="278.409" y2="281.742"/>
<line x1="279.117" y1="242.848" x2="282.909" y2="242.848"/><line x1="281.013" y1="240.952" x2="281.013" y2="244.744"/><line x1="279.117" y1="240.952" x2="282.909" y2="244.744"/><line x1="279.117" y1="244.744" x2="282.909" y2="240.952"/>
<line x1="283.617" y1="305.876" x2="287.409" y2="305.876"/><line x1="285.513" y1="303.98" x2="285.513" y2="307.772"/><line x1="283.617" y1="303.98" x2="287.409" y2="307.772"/><line x1="283.617" y1="307.772" x2="287.409" y2="303.98"/>
<line x1="288.117" y1="231.424" x2="291.909" y2="231.424"/><line x1="290.013" y1="229.528" x2="290.013" y2="233.32"/><line x1="288.117" y1="229.528" x2="291.909" y2="233.32"/><line x1="288.117" y1="233.32" x2="291.909" y2="229.528"/>
<line x1="292.617" y1="239.557" x2="296.409" y2="239.557"/><line x1="294.513" y1="237.661" x2="294.513" y2="241.453"/><line x1="292.617" y1="237.661" x2="296.409" y2="241.453"/><line x1="292.617" y1="241.453" x2="296.409" y2="237.661"/>
<line x1="297.116" y1="193.243" x2="300.909" y2="193.243"/><line x1="299.013" y1="191.347" x2="299.013" y2="195.139"/><line x1="297.116" y1="191.347" x2="300.909" y2="195.139"/><line x1="297.116" y1="195.139" x2="300.909" y2="191.347"/>
<line x1="301.616" y1="215.277" x2="305.409" y2="215.277"/><line x1="303.512" y1="213.38" x2="303.512" y2="217.173"/><line x1="301.616" y1="213.38" x2="305.409" y2="217.173"/><line x1="301.616" y1="217.173" x2="305.409" y2="213.38"/>
<line x1="306.116" y1="101.549" x2="309.908" y2="101.549"/><line x1="308.012" y1="99.6533" x2="308.012" y2="103.445"/><line x1="306.116" y1="99.6533" x2="309.908" y2="103.445"/><line x1="306.116" y1="103.445" x2="309.908" y2="99.6533"/>
<line x1="310.616" y1="63.5214" x2="314.408" y2="63.5214"/><line x1="312.512" y1="61.6253" x2="312.512" y2="65.4175"/><line x1="310.616" y1="61.6253" x2="314.408" y2="65.4175"/><line x1="310.616" y1="65.4175" x2="314.408" y2="61.6253"/>
</g>
<g stroke="black" stroke-width="1" fill="none">
<line x1="324.116" y1="43.7013" x2="327.908" y2="43.7013"/><line x1="326.012" y1="41.8052" x2="326.012" y2="45.5974"/><line x1="324.116" y1="41.8052" x2="327.908" y2="45.5974"/><line x1="324.116" y1="45.5974" x2="327.908" y2="41.8052"/>
<line x1="328.616" y1="75.9308" x2="332.408" y2="75.9308"/><line x1="330.512" y1="74.0347" x2="330.512" y2="77.8269"/><line x1="328.616" y1="74.0347" x2="332.408" y2="77.8269"/><line x1="328.616" y1="77.8269" x2="332.408" y2="74.0347"/>
</g>
<g stroke="black" stroke-width="1" fill="none">
<line x1="427.613" y1="43.179" x2="431.405" y2="43.179"/><line x1="429.509" y1="41.283" x2="429.509" y2="45.0751"/><line x1="427.613" y1="41.283" x2="431.405" y2="45.0751"/><line x1="427.613" y1="45.0751" x2="431.405" y2="41.283"/>
</g>
<g stroke="black" stroke-width="1" fill="none">
<line x1="450.113" y1="74.6099" x2="453.905" y2="74.6099"/><line x1="452.009" y1="72.7138" x2="452.009" y2="76.506"/><line x1="450.113" y1="72.7138" x2="453.905" y2="76.506"/><line x1="450.113" y1="76.506" x2="453.905" y2="72.7138"/>
<line x1="454.613" y1="110.589" x2="458.405" y2="110.589"/><line x1="456.509" y1="108.693" x2="456.509" y2="112.486"/><line x1="454.613" y1="108.693" x2="458.405" y2="112.486"/><line x1="454.613" y1="112.486" x2="458.405" y2="108.693"/>
<line x1="459.112" y1="109.783" x2="462.905" y2="109.783"/><line x1="461.009" y1="107.886" x2="461.009" y2="111.679"/><line x1="459.112" y1="107.886" x2="462.905" y2="111.679"/><line x1="459.112" y1="111.679" x2="462.905" y2="107.886"/>
</g>
<path d="M0.5,272.809h 566.929" fill="none" stroke="#0000ff"/></svg>
