<?xml version="1.0" standalone="no"?>
<svg width="567.429" height="413.846" viewBox="0 0 567.429 413.846" xmlns="http://www.w3.org/2000/svg" shape-rendering="crispEdges">
<title>
figures/chi2zoomin_1PMTnpefilelist20.svg
</title>
<desc>
Creator: ROOT Version 6.18/04
CreationDate: Fri Nov  1 13:55:07 2019</desc>
<defs>
</defs>
<rect x="0.5" y="0" width="566.929" height="413.346" fill="white"/>
<rect x="57.1929" y="41.3346" width="453.543" height="330.677" fill="white"/>
<rect x="57.1929" y="41.3346" width="453.543" height="330.677" fill="none" stroke="black"/>
<path d="M57.1929,372.012h 453.543" fill="none" stroke="black"/>
<path d="M67.2763,41.3346v 330.677" fill="none" stroke="black" stroke-dasharray=" 1, 2"/>
<path d="M112.275,41.3346v 330.677" fill="none" stroke="black" stroke-dasharray=" 1, 2"/>
<path d="M157.274,41.3346v 330.677" fill="none" stroke="black" stroke-dasharray=" 1, 2"/>
<path d="M202.273,41.3346v 330.677" fill="none" stroke="black" stroke-dasharray=" 1, 2"/>
<path d="M247.272,41.3346v 330.677" fill="none" stroke="black" stroke-dasharray=" 1, 2"/>
<path d="M292.271,41.3346v 330.677" fill="none" stroke="black" stroke-dasharray=" 1, 2"/>
<path d="M337.27,41.3346v 330.677" fill="none" stroke="black" stroke-dasharray=" 1, 2"/>
<path d="M382.268,41.3346v 330.677" fill="none" stroke="black" stroke-dasharray=" 1, 2"/>
<path d="M427.267,41.3346v 330.677" fill="none" stroke="black" stroke-dasharray=" 1, 2"/>
<path d="M472.266,41.3346v 330.677" fill="none" stroke="black" stroke-dasharray=" 1, 2"/>
<path d="M67.2763,41.3346v 330.677" fill="none" stroke="black" stroke-dasharray=" 1, 2"/>
<path d="M472.266,41.3346v 330.677" fill="none" stroke="black" stroke-dasharray=" 1, 2"/>
<path d="M57.1929,372.012v -330.677" fill="none" stroke="black"/>
<path d="M57.1929,372.012h 453.543" fill="none" stroke="black"/>
<path d="M67.2763,362.091v 9.92031" fill="none" stroke="black"/>
<path d="M78.526,367.052v 4.96016" fill="none" stroke="black"/>
<path d="M89.7757,367.052v 4.96016" fill="none" stroke="black"/>
<path d="M101.025,367.052v 4.96016" fill="none" stroke="black"/>
<path d="M112.275,362.091v 9.92031" fill="none" stroke="black"/>
<path d="M123.525,367.052v 4.96016" fill="none" stroke="black"/>
<path d="M134.775,367.052v 4.96016" fill="none" stroke="black"/>
<path d="M146.024,367.052v 4.96016" fill="none" stroke="black"/>
<path d="M157.274,362.091v 9.92031" fill="none" stroke="black"/>
<path d="M168.524,367.052v 4.96016" fill="none" stroke="black"/>
<path d="M179.773,367.052v 4.96016" fill="none" stroke="black"/>
<path d="M191.023,367.052v 4.96016" fill="none" stroke="black"/>
<path d="M202.273,362.091v 9.92031" fill="none" stroke="black"/>
<path d="M213.523,367.052v 4.96016" fill="none" stroke="black"/>
<path d="M224.772,367.052v 4.96016" fill="none" stroke="black"/>
<path d="M236.022,367.052v 4.96016" fill="none" stroke="black"/>
<path d="M247.272,362.091v 9.92031" fill="none" stroke="black"/>
<path d="M258.521,367.052v 4.96016" fill="none" stroke="black"/>
<path d="M269.771,367.052v 4.96016" fill="none" stroke="black"/>
<path d="M281.021,367.052v 4.96016" fill="none" stroke="black"/>
<path d="M292.271,362.091v 9.92031" fill="none" stroke="black"/>
<path d="M303.52,367.052v 4.96016" fill="none" stroke="black"/>
<path d="M314.77,367.052v 4.96016" fill="none" stroke="black"/>
<path d="M326.02,367.052v 4.96016" fill="none" stroke="black"/>
<path d="M337.27,362.091v 9.92031" fill="none" stroke="black"/>
<path d="M348.519,367.052v 4.96016" fill="none" stroke="black"/>
<path d="M359.769,367.052v 4.96016" fill="none" stroke="black"/>
<path d="M371.019,367.052v 4.96016" fill="none" stroke="black"/>
<path d="M382.268,362.091v 9.92031" fill="none" stroke="black"/>
<path d="M393.518,367.052v 4.96016" fill="none" stroke="black"/>
<path d="M404.768,367.052v 4.96016" fill="none" stroke="black"/>
<path d="M416.018,367.052v 4.96016" fill="none" stroke="black"/>
<path d="M427.267,362.091v 9.92031" fill="none" stroke="black"/>
<path d="M438.517,367.052v 4.96016" fill="none" stroke="black"/>
<path d="M449.767,367.052v 4.96016" fill="none" stroke="black"/>
<path d="M461.016,367.052v 4.96016" fill="none" stroke="black"/>
<path d="M472.266,362.091v 9.92031" fill="none" stroke="black"/>
<path d="M67.2763,362.091v 9.92031" fill="none" stroke="black"/>
<path d="M472.266,362.091v 9.92031" fill="none" stroke="black"/>
<path d="M483.516,367.052v 4.96016" fill="none" stroke="black"/>
<path d="M494.766,367.052v 4.96016" fill="none" stroke="black"/>
<path d="M506.015,367.052v 4.96016" fill="none" stroke="black"/>
<text xml:space="preserve" x="50.2722" y="385.379" fill="black" font-size="13.7726" font-family="Helvetica">0.682</text>
<text xml:space="preserve" x="95.3042" y="385.379" fill="black" font-size="13.7726" font-family="Helvetica">0.684</text>
<text xml:space="preserve" x="140.336" y="385.379" fill="black" font-size="13.7726" font-family="Helvetica">0.686</text>
<text xml:space="preserve" x="185.368" y="385.379" fill="black" font-size="13.7726" font-family="Helvetica">0.688</text>
<text xml:space="preserve" x="234.192" y="385.379" fill="black" font-size="13.7726" font-family="Helvetica">0.69</text>
<text xml:space="preserve" x="275.432" y="385.379" fill="black" font-size="13.7726" font-family="Helvetica">0.692</text>
<text xml:space="preserve" x="320.464" y="385.379" fill="black" font-size="13.7726" font-family="Helvetica">0.694</text>
<text xml:space="preserve" x="365.496" y="385.379" fill="black" font-size="13.7726" font-family="Helvetica">0.696</text>
<text xml:space="preserve" x="410.528" y="385.379" fill="black" font-size="13.7726" font-family="Helvetica">0.698</text>
<text xml:space="preserve" x="463.145" y="385.379" fill="black" font-size="13.7726" font-family="Helvetica">0.7</text>
<text xml:space="preserve" x="413.372" y="400.074" fill="black" font-size="13.7726" font-family="Helvetica">calibration factor</text>
<path d="M57.1929,372.012v -330.677" fill="none" stroke="black"/>
<path d="M70.7992,362.463h -13.6063" fill="none" stroke="black"/>
<path d="M63.9961,355.85h -6.80315" fill="none" stroke="black"/>
<path d="M63.9961,349.236h -6.80315" fill="none" stroke="black"/>
<path d="M63.9961,342.623h -6.80315" fill="none" stroke="black"/>
<path d="M63.9961,336.009h -6.80315" fill="none" stroke="black"/>
<path d="M70.7992,329.396h -13.6063" fill="none" stroke="black"/>
<path d="M63.9961,322.782h -6.80315" fill="none" stroke="black"/>
<path d="M63.9961,316.169h -6.80315" fill="none" stroke="black"/>
<path d="M63.9961,309.555h -6.80315" fill="none" stroke="black"/>
<path d="M63.9961,302.942h -6.80315" fill="none" stroke="black"/>
<path d="M70.7992,296.328h -13.6063" fill="none" stroke="black"/>
<path d="M63.9961,289.715h -6.80315" fill="none" stroke="black"/>
<path d="M63.9961,283.101h -6.80315" fill="none" stroke="black"/>
<path d="M63.9961,276.487h -6.80315" fill="none" stroke="black"/>
<path d="M63.9961,269.874h -6.80315" fill="none" stroke="black"/>
<path d="M70.7992,263.26h -13.6063" fill="none" stroke="black"/>
<path d="M63.9961,256.647h -6.80315" fill="none" stroke="black"/>
<path d="M63.9961,250.033h -6.80315" fill="none" stroke="black"/>
<path d="M63.9961,243.42h -6.80315" fill="none" stroke="black"/>
<path d="M63.9961,236.806h -6.80315" fill="none" stroke="black"/>
<path d="M70.7992,230.193h -13.6063" fill="none" stroke="black"/>
<path d="M63.9961,223.579h -6.80315" fill="none" stroke="black"/>
<path d="M63.9961,216.966h -6.80315" fill="none" stroke="black"/>
<path d="M63.9961,210.352h -6.80315" fill="none" stroke="black"/>
<path d="M63.9961,203.738h -6.80315" fill="none" stroke="black"/>
<path d="M70.7992,197.125h -13.6063" fill="none" stroke="black"/>
<path d="M63.9961,190.511h -6.80315" fill="none" stroke="black"/>
<path d="M63.9961,183.898h -6.80315" fill="none" stroke="black"/>
<path d="M63.9961,177.284h -6.80315" fill="none" stroke="black"/>
<path d="M63.9961,170.671h -6.80315" fill="none" stroke="black"/>
<path d="M70.7992,164.057h -13.6063" fill="none" stroke="black"/>
<path d="M63.9961,157.444h -6.80315" fill="none" stroke="black"/>
<path d="M63.9961,150.83h -6.80315" fill="none" stroke="black"/>
<path d="M63.9961,144.217h -6.80315" fill="none" stroke="black"/>
<path d="M63.9961,137.603h -6.80315" fill="none" stroke="black"/>
<path d="M70.7992,130.99h -13.6063" fill="none" stroke="black"/>
<path d="M63.9961,124.376h -6.80315" fill="none" stroke="black"/>
<path d="M63.9961,117.762h -6.80315" fill="none" stroke="black"/>
<path d="M63.9961,111.149h -6.80315" fill="none" stroke="black"/>
<path d="M63.9961,104.535h -6.80315" fill="none" stroke="black"/>
<path d="M70.7992,97.9218h -13.6063" fill="none" stroke="black"/>
<path d="M63.9961,91.3083h -6.80315" fill="none" stroke="black"/>
<path d="M63.9961,84.6948h -6.80315" fill="none" stroke="black"/>
<path d="M63.9961,78.0812h -6.80315" fill="none" stroke="black"/>
<path d="M63.9961,71.4677h -6.80315" fill="none" stroke="black"/>
<path d="M70.7992,64.8541h -13.6063" fill="none" stroke="black"/>
<path d="M70.7992,362.463h -13.6063" fill="none" stroke="black"/>
<path d="M63.9961,369.077h -6.80315" fill="none" stroke="black"/>
<path d="M70.7992,64.8541h -13.6063" fill="none" stroke="black"/>
<path d="M63.9961,58.2406h -6.80315" fill="none" stroke="black"/>
<path d="M63.9961,51.6271h -6.80315" fill="none" stroke="black"/>
<path d="M63.9961,45.0135h -6.80315" fill="none" stroke="black"/>
<text xml:space="preserve" x="32.2594" y="366.892" fill="black" font-size="13.7726" font-family="Helvetica">292</text>
<text xml:space="preserve" x="32.2594" y="333.711" fill="black" font-size="13.7726" font-family="Helvetica">293</text>
<text xml:space="preserve" x="32.2594" y="301.003" fill="black" font-size="13.7726" font-family="Helvetica">294</text>
<text xml:space="preserve" x="32.2594" y="267.822" fill="black" font-size="13.7726" font-family="Helvetica">295</text>
<text xml:space="preserve" x="32.2594" y="234.64" fill="black" font-size="13.7726" font-family="Helvetica">296</text>
<text xml:space="preserve" x="32.2594" y="201.459" fill="black" font-size="13.7726" font-family="Helvetica">297</text>
<text xml:space="preserve" x="32.2594" y="168.751" fill="black" font-size="13.7726" font-family="Helvetica">298</text>
<text xml:space="preserve" x="32.2594" y="135.57" fill="black" font-size="13.7726" font-family="Helvetica">299</text>
<text xml:space="preserve" x="32.2594" y="102.389" fill="black" font-size="13.7726" font-family="Helvetica">300</text>
<text xml:space="preserve" x="34.6295" y="69.2071" fill="black" font-size="13.7726" font-family="Helvetica">301</text>
<g transform="rotate(-90,15.1947,45.98)">
<text xml:space="preserve" x="15.1947" y="45.98" fill="black" font-size="9.34839" font-family="Helvetica">2</text>
</g>
<g transform="rotate(-90,19.4608,50.2462)">
<text xml:space="preserve" x="19.4608" y="50.2462" fill="black" font-size="13.7726" font-family="Helvetica"> </text>
</g>
<g transform="rotate(-90,19.4608,57.3565)">
<text xml:space="preserve" x="19.4608" y="57.3565" fill="black" font-size="13.7726" font-family="Times">&#0967;</text>
</g>
<g stroke="black" stroke-width="1" fill="none">
<line x1="56.3804" y1="123.356" x2="60.1726" y2="123.356"/><line x1="58.2765" y1="121.46" x2="58.2765" y2="125.252"/><line x1="56.3804" y1="121.46" x2="60.1726" y2="125.252"/><line x1="56.3804" y1="125.252" x2="60.1726" y2="121.46"/>
<line x1="60.8803" y1="170.077" x2="64.6725" y2="170.077"/><line x1="62.7764" y1="168.181" x2="62.7764" y2="171.973"/><line x1="60.8803" y1="168.181" x2="64.6725" y2="171.973"/><line x1="60.8803" y1="171.973" x2="64.6725" y2="168.181"/>
<line x1="65.3802" y1="192.417" x2="69.1723" y2="192.417"/><line x1="67.2763" y1="190.521" x2="67.2763" y2="194.313"/><line x1="65.3802" y1="190.521" x2="69.1723" y2="194.313"/><line x1="65.3802" y1="194.313" x2="69.1723" y2="190.521"/>
<line x1="69.8801" y1="231.771" x2="73.6722" y2="231.771"/><line x1="71.7762" y1="229.875" x2="71.7762" y2="233.667"/><line x1="69.8801" y1="229.875" x2="73.6722" y2="233.667"/><line x1="69.8801" y1="233.667" x2="73.6722" y2="229.875"/>
<line x1="74.38" y1="176.503" x2="78.1721" y2="176.503"/><line x1="76.276" y1="174.607" x2="76.276" y2="178.399"/><line x1="74.38" y1="174.607" x2="78.1721" y2="178.399"/><line x1="74.38" y1="178.399" x2="78.1721" y2="174.607"/>
<line x1="78.8798" y1="135.116" x2="82.672" y2="135.116"/><line x1="80.7759" y1="133.22" x2="80.7759" y2="137.012"/><line x1="78.8798" y1="133.22" x2="82.672" y2="137.012"/><line x1="78.8798" y1="137.012" x2="82.672" y2="133.22"/>
<line x1="83.3797" y1="114.348" x2="87.1719" y2="114.348"/><line x1="85.2758" y1="112.452" x2="85.2758" y2="116.244"/><line x1="83.3797" y1="112.452" x2="87.1719" y2="116.244"/><line x1="83.3797" y1="116.244" x2="87.1719" y2="112.452"/>
<line x1="87.8796" y1="129.681" x2="91.6718" y2="129.681"/><line x1="89.7757" y1="127.785" x2="89.7757" y2="131.577"/><line x1="87.8796" y1="127.785" x2="91.6718" y2="131.577"/><line x1="87.8796" y1="131.577" x2="91.6718" y2="127.785"/>
<line x1="92.3795" y1="182.28" x2="96.1717" y2="182.28"/><line x1="94.2756" y1="180.384" x2="94.2756" y2="184.176"/><line x1="92.3795" y1="180.384" x2="96.1717" y2="184.176"/><line x1="92.3795" y1="184.176" x2="96.1717" y2="180.384"/>
<line x1="96.8794" y1="142.334" x2="100.672" y2="142.334"/><line x1="98.7755" y1="140.438" x2="98.7755" y2="144.23"/><line x1="96.8794" y1="140.438" x2="100.672" y2="144.23"/><line x1="96.8794" y1="144.23" x2="100.672" y2="140.438"/>
<line x1="101.379" y1="92.5189" x2="105.171" y2="92.5189"/><line x1="103.275" y1="90.6228" x2="103.275" y2="94.415"/><line x1="101.379" y1="90.6228" x2="105.171" y2="94.415"/><line x1="101.379" y1="94.415" x2="105.171" y2="90.6228"/>
</g>
<g stroke="black" stroke-width="1" fill="none">
<line x1="110.379" y1="82.9569" x2="114.171" y2="82.9569"/><line x1="112.275" y1="81.0608" x2="112.275" y2="84.853"/><line x1="110.379" y1="81.0608" x2="114.171" y2="84.853"/><line x1="110.379" y1="84.853" x2="114.171" y2="81.0608"/>
<line x1="114.879" y1="119.848" x2="118.671" y2="119.848"/><line x1="116.775" y1="117.952" x2="116.775" y2="121.744"/><line x1="114.879" y1="117.952" x2="118.671" y2="121.744"/><line x1="114.879" y1="121.744" x2="118.671" y2="117.952"/>
<line x1="119.379" y1="120.212" x2="123.171" y2="120.212"/><line x1="121.275" y1="118.316" x2="121.275" y2="122.108"/><line x1="119.379" y1="118.316" x2="123.171" y2="122.108"/><line x1="119.379" y1="122.108" x2="123.171" y2="118.316"/>
<line x1="123.879" y1="68.5349" x2="127.671" y2="68.5349"/><line x1="125.775" y1="66.6388" x2="125.775" y2="70.431"/><line x1="123.879" y1="66.6388" x2="127.671" y2="70.431"/><line x1="123.879" y1="70.431" x2="127.671" y2="66.6388"/>
<line x1="128.379" y1="94.7386" x2="132.171" y2="94.7386"/><line x1="130.275" y1="92.8425" x2="130.275" y2="96.6347"/><line x1="128.379" y1="92.8425" x2="132.171" y2="96.6347"/><line x1="128.379" y1="96.6347" x2="132.171" y2="92.8425"/>
<line x1="132.878" y1="43.8754" x2="136.671" y2="43.8754"/><line x1="134.775" y1="41.9793" x2="134.775" y2="45.7714"/><line x1="132.878" y1="41.9793" x2="136.671" y2="45.7714"/><line x1="132.878" y1="45.7714" x2="136.671" y2="41.9793"/>
</g>
<g stroke="black" stroke-width="1" fill="none">
<line x1="155.378" y1="70.9579" x2="159.17" y2="70.9579"/><line x1="157.274" y1="69.0618" x2="157.274" y2="72.854"/><line x1="155.378" y1="69.0618" x2="159.17" y2="72.854"/><line x1="155.378" y1="72.854" x2="159.17" y2="69.0618"/>
<line x1="159.878" y1="46.8611" x2="163.67" y2="46.8611"/><line x1="161.774" y1="44.965" x2="161.774" y2="48.7571"/><line x1="159.878" y1="44.965" x2="163.67" y2="48.7571"/><line x1="159.878" y1="48.7571" x2="163.67" y2="44.965"/>
</g>
<g stroke="black" stroke-width="1" fill="none">
<line x1="182.377" y1="123.646" x2="186.169" y2="123.646"/><line x1="184.273" y1="121.75" x2="184.273" y2="125.542"/><line x1="182.377" y1="121.75" x2="186.169" y2="125.542"/><line x1="182.377" y1="125.542" x2="186.169" y2="121.75"/>
</g>
<g stroke="black" stroke-width="1" fill="none">
<line x1="191.377" y1="81.214" x2="195.169" y2="81.214"/><line x1="193.273" y1="79.318" x2="193.273" y2="83.1101"/><line x1="191.377" y1="79.318" x2="195.169" y2="83.1101"/><line x1="191.377" y1="83.1101" x2="195.169" y2="79.318"/>
<line x1="195.877" y1="79.6869" x2="199.669" y2="79.6869"/><line x1="197.773" y1="77.7908" x2="197.773" y2="81.5829"/><line x1="195.877" y1="77.7908" x2="199.669" y2="81.5829"/><line x1="195.877" y1="81.5829" x2="199.669" y2="77.7908"/>
<line x1="200.377" y1="132.086" x2="204.169" y2="132.086"/><line x1="202.273" y1="130.19" x2="202.273" y2="133.982"/><line x1="200.377" y1="130.19" x2="204.169" y2="133.982"/><line x1="200.377" y1="133.982" x2="204.169" y2="130.19"/>
<line x1="204.877" y1="99.7792" x2="208.669" y2="99.7792"/><line x1="206.773" y1="97.8831" x2="206.773" y2="101.675"/><line x1="204.877" y1="97.8831" x2="208.669" y2="101.675"/><line x1="204.877" y1="101.675" x2="208.669" y2="97.8831"/>
<line x1="209.377" y1="64.44" x2="213.169" y2="64.44"/><line x1="211.273" y1="62.5439" x2="211.273" y2="66.3361"/><line x1="209.377" y1="62.5439" x2="213.169" y2="66.3361"/><line x1="209.377" y1="66.3361" x2="213.169" y2="62.5439"/>
<line x1="213.876" y1="118.105" x2="217.669" y2="118.105"/><line x1="215.773" y1="116.209" x2="215.773" y2="120.001"/><line x1="213.876" y1="116.209" x2="217.669" y2="120.001"/><line x1="213.876" y1="120.001" x2="217.669" y2="116.209"/>
<line x1="218.376" y1="156.605" x2="222.169" y2="156.605"/><line x1="220.272" y1="154.709" x2="220.272" y2="158.501"/><line x1="218.376" y1="154.709" x2="222.169" y2="158.501"/><line x1="218.376" y1="158.501" x2="222.169" y2="154.709"/>
<line x1="222.876" y1="166.715" x2="226.668" y2="166.715"/><line x1="224.772" y1="164.819" x2="224.772" y2="168.611"/><line x1="222.876" y1="164.819" x2="226.668" y2="168.611"/><line x1="222.876" y1="168.611" x2="226.668" y2="164.819"/>
<line x1="227.376" y1="304.86" x2="231.168" y2="304.86"/><line x1="229.272" y1="302.964" x2="229.272" y2="306.756"/><line x1="227.376" y1="302.964" x2="231.168" y2="306.756"/><line x1="227.376" y1="306.756" x2="231.168" y2="302.964"/>
<line x1="231.876" y1="304.728" x2="235.668" y2="304.728"/><line x1="233.772" y1="302.831" x2="233.772" y2="306.624"/><line x1="231.876" y1="302.831" x2="235.668" y2="306.624"/><line x1="231.876" y1="306.624" x2="235.668" y2="302.831"/>
<line x1="236.376" y1="299.874" x2="240.168" y2="299.874"/><line x1="238.272" y1="297.978" x2="238.272" y2="301.77"/><line x1="236.376" y1="297.978" x2="240.168" y2="301.77"/><line x1="236.376" y1="301.77" x2="240.168" y2="297.978"/>
<line x1="240.876" y1="179.293" x2="244.668" y2="179.293"/><line x1="242.772" y1="177.396" x2="242.772" y2="181.189"/><line x1="240.876" y1="177.396" x2="244.668" y2="181.189"/><line x1="240.876" y1="181.189" x2="244.668" y2="177.396"/>
<line x1="245.376" y1="152.134" x2="249.168" y2="152.134"/><line x1="247.272" y1="150.238" x2="247.272" y2="154.03"/><line x1="245.376" y1="150.238" x2="249.168" y2="154.03"/><line x1="245.376" y1="154.03" x2="249.168" y2="150.238"/>
<line x1="249.876" y1="163.294" x2="253.668" y2="163.294"/><line x1="251.772" y1="161.398" x2="251.772" y2="165.19"/><line x1="249.876" y1="161.398" x2="253.668" y2="165.19"/><line x1="249.876" y1="165.19" x2="253.668" y2="161.398"/>
<line x1="254.375" y1="147.815" x2="258.168" y2="147.815"/><line x1="256.272" y1="145.919" x2="256.272" y2="149.711"/><line x1="254.375" y1="145.919" x2="258.168" y2="149.711"/><line x1="254.375" y1="149.711" x2="258.168" y2="145.919"/>
<line x1="258.875" y1="200.771" x2="262.668" y2="200.771"/><line x1="260.771" y1="198.875" x2="260.771" y2="202.667"/><line x1="258.875" y1="198.875" x2="262.668" y2="202.667"/><line x1="258.875" y1="202.667" x2="262.668" y2="198.875"/>
<line x1="263.375" y1="212.175" x2="267.167" y2="212.175"/><line x1="265.271" y1="210.279" x2="265.271" y2="214.071"/><line x1="263.375" y1="210.279" x2="267.167" y2="214.071"/><line x1="263.375" y1="214.071" x2="267.167" y2="210.279"/>
<line x1="267.875" y1="160.347" x2="271.667" y2="160.347"/><line x1="269.771" y1="158.451" x2="269.771" y2="162.244"/><line x1="267.875" y1="158.451" x2="271.667" y2="162.244"/><line x1="267.875" y1="162.244" x2="271.667" y2="158.451"/>
<line x1="272.375" y1="171.881" x2="276.167" y2="171.881"/><line x1="274.271" y1="169.985" x2="274.271" y2="173.777"/><line x1="272.375" y1="169.985" x2="276.167" y2="173.777"/><line x1="272.375" y1="173.777" x2="276.167" y2="169.985"/>
<line x1="276.875" y1="168.643" x2="280.667" y2="168.643"/><line x1="278.771" y1="166.746" x2="278.771" y2="170.539"/><line x1="276.875" y1="166.746" x2="280.667" y2="170.539"/><line x1="276.875" y1="170.539" x2="280.667" y2="166.746"/>
<line x1="281.375" y1="305.876" x2="285.167" y2="305.876"/><line x1="283.271" y1="303.98" x2="283.271" y2="307.772"/><line x1="281.375" y1="303.98" x2="285.167" y2="307.772"/><line x1="281.375" y1="307.772" x2="285.167" y2="303.98"/>
<line x1="285.875" y1="188.403" x2="289.667" y2="188.403"/><line x1="287.771" y1="186.507" x2="287.771" y2="190.3"/><line x1="285.875" y1="186.507" x2="289.667" y2="190.3"/><line x1="285.875" y1="190.3" x2="289.667" y2="186.507"/>
<line x1="290.375" y1="124.225" x2="294.167" y2="124.225"/><line x1="292.271" y1="122.328" x2="292.271" y2="126.121"/><line x1="290.375" y1="122.328" x2="294.167" y2="126.121"/><line x1="290.375" y1="126.121" x2="294.167" y2="122.328"/>
<line x1="294.874" y1="174.807" x2="298.667" y2="174.807"/><line x1="296.771" y1="172.911" x2="296.771" y2="176.703"/><line x1="294.874" y1="172.911" x2="298.667" y2="176.703"/><line x1="294.874" y1="176.703" x2="298.667" y2="172.911"/>
<line x1="299.374" y1="129.913" x2="303.167" y2="129.913"/><line x1="301.27" y1="128.016" x2="301.27" y2="131.809"/><line x1="299.374" y1="128.016" x2="303.167" y2="131.809"/><line x1="299.374" y1="131.809" x2="303.167" y2="128.016"/>
<line x1="303.874" y1="55.0467" x2="307.666" y2="55.0467"/><line x1="305.77" y1="53.1506" x2="305.77" y2="56.9427"/><line x1="303.874" y1="53.1506" x2="307.666" y2="56.9427"/><line x1="303.874" y1="56.9427" x2="307.666" y2="53.1506"/>
</g>
<g stroke="black" stroke-width="1" fill="none">
<line x1="326.374" y1="44.7119" x2="330.166" y2="44.7119"/><line x1="328.27" y1="42.8158" x2="328.27" y2="46.608"/><line x1="326.374" y1="42.8158" x2="330.166" y2="46.608"/><line x1="326.374" y1="46.608" x2="330.166" y2="42.8158"/>
<line x1="330.874" y1="157.052" x2="334.666" y2="157.052"/><line x1="332.77" y1="155.155" x2="332.77" y2="158.948"/><line x1="330.874" y1="155.155" x2="334.666" y2="158.948"/><line x1="330.874" y1="158.948" x2="334.666" y2="155.155"/>
<line x1="335.373" y1="110.496" x2="339.166" y2="110.496"/><line x1="337.27" y1="108.6" x2="337.27" y2="112.392"/><line x1="335.373" y1="108.6" x2="339.166" y2="112.392"/><line x1="335.373" y1="112.392" x2="339.166" y2="108.6"/>
<line x1="339.873" y1="163.312" x2="343.665" y2="163.312"/><line x1="341.769" y1="161.416" x2="341.769" y2="165.208"/><line x1="339.873" y1="161.416" x2="343.665" y2="165.208"/><line x1="339.873" y1="165.208" x2="343.665" y2="161.416"/>
<line x1="344.373" y1="214.476" x2="348.165" y2="214.476"/><line x1="346.269" y1="212.58" x2="346.269" y2="216.372"/><line x1="344.373" y1="212.58" x2="348.165" y2="216.372"/><line x1="344.373" y1="216.372" x2="348.165" y2="212.58"/>
<line x1="348.873" y1="129.515" x2="352.665" y2="129.515"/><line x1="350.769" y1="127.619" x2="350.769" y2="131.411"/><line x1="348.873" y1="127.619" x2="352.665" y2="131.411"/><line x1="348.873" y1="131.411" x2="352.665" y2="127.619"/>
<line x1="353.373" y1="198.068" x2="357.165" y2="198.068"/><line x1="355.269" y1="196.172" x2="355.269" y2="199.964"/><line x1="353.373" y1="196.172" x2="357.165" y2="199.964"/><line x1="353.373" y1="199.964" x2="357.165" y2="196.172"/>
<line x1="357.873" y1="259.468" x2="361.665" y2="259.468"/><line x1="359.769" y1="257.572" x2="359.769" y2="261.364"/><line x1="357.873" y1="257.572" x2="361.665" y2="261.364"/><line x1="357.873" y1="261.364" x2="361.665" y2="257.572"/>
<line x1="362.373" y1="173.325" x2="366.165" y2="173.325"/><line x1="364.269" y1="171.429" x2="364.269" y2="175.221"/><line x1="362.373" y1="171.429" x2="366.165" y2="175.221"/><line x1="362.373" y1="175.221" x2="366.165" y2="171.429"/>
<line x1="366.873" y1="156.109" x2="370.665" y2="156.109"/><line x1="368.769" y1="154.213" x2="368.769" y2="158.005"/><line x1="366.873" y1="154.213" x2="370.665" y2="158.005"/><line x1="366.873" y1="158.005" x2="370.665" y2="154.213"/>
<line x1="371.373" y1="84.6034" x2="375.165" y2="84.6034"/><line x1="373.269" y1="82.7074" x2="373.269" y2="86.4995"/><line x1="371.373" y1="82.7074" x2="375.165" y2="86.4995"/><line x1="371.373" y1="86.4995" x2="375.165" y2="82.7074"/>
<line x1="375.872" y1="125.204" x2="379.665" y2="125.204"/><line x1="377.768" y1="123.308" x2="377.768" y2="127.1"/><line x1="375.872" y1="123.308" x2="379.665" y2="127.1"/><line x1="375.872" y1="127.1" x2="379.665" y2="123.308"/>
<line x1="380.372" y1="119.042" x2="384.164" y2="119.042"/><line x1="382.268" y1="117.146" x2="382.268" y2="120.938"/><line x1="380.372" y1="117.146" x2="384.164" y2="120.938"/><line x1="380.372" y1="120.938" x2="384.164" y2="117.146"/>
</g>
<path d="M0.5,272.809h 566.929" fill="none" stroke="#0000ff"/></svg>
