<?xml version="1.0" standalone="no"?>
<svg width="567.429" height="413.846" viewBox="0 0 567.429 413.846" xmlns="http://www.w3.org/2000/svg" shape-rendering="crispEdges">
<title>
figures/chi2zoomin_6PMTnpefilelist20.svg
</title>
<desc>
Creator: ROOT Version 6.18/04
CreationDate: Fri Nov  1 13:55:36 2019</desc>
<defs>
</defs>
<rect x="0.5" y="0" width="566.929" height="413.346" fill="white"/>
<rect x="57.1929" y="41.3346" width="453.543" height="330.677" fill="white"/>
<rect x="57.1929" y="41.3346" width="453.543" height="330.677" fill="none" stroke="black"/>
<path d="M57.1929,372.012h 453.543" fill="none" stroke="black"/>
<path d="M87.6517,41.3346v 330.677" fill="none" stroke="black" stroke-dasharray=" 1, 2"/>
<path d="M132.121,41.3346v 330.677" fill="none" stroke="black" stroke-dasharray=" 1, 2"/>
<path d="M176.591,41.3346v 330.677" fill="none" stroke="black" stroke-dasharray=" 1, 2"/>
<path d="M221.06,41.3346v 330.677" fill="none" stroke="black" stroke-dasharray=" 1, 2"/>
<path d="M265.53,41.3346v 330.677" fill="none" stroke="black" stroke-dasharray=" 1, 2"/>
<path d="M309.999,41.3346v 330.677" fill="none" stroke="black" stroke-dasharray=" 1, 2"/>
<path d="M354.469,41.3346v 330.677" fill="none" stroke="black" stroke-dasharray=" 1, 2"/>
<path d="M398.938,41.3346v 330.677" fill="none" stroke="black" stroke-dasharray=" 1, 2"/>
<path d="M443.407,41.3346v 330.677" fill="none" stroke="black" stroke-dasharray=" 1, 2"/>
<path d="M487.877,41.3346v 330.677" fill="none" stroke="black" stroke-dasharray=" 1, 2"/>
<path d="M87.6517,41.3346v 330.677" fill="none" stroke="black" stroke-dasharray=" 1, 2"/>
<path d="M487.877,41.3346v 330.677" fill="none" stroke="black" stroke-dasharray=" 1, 2"/>
<path d="M57.1929,372.012v -330.677" fill="none" stroke="black"/>
<path d="M57.1929,372.012h 453.543" fill="none" stroke="black"/>
<path d="M87.6517,362.091v 9.92031" fill="none" stroke="black"/>
<path d="M98.769,367.052v 4.96016" fill="none" stroke="black"/>
<path d="M109.886,367.052v 4.96016" fill="none" stroke="black"/>
<path d="M121.004,367.052v 4.96016" fill="none" stroke="black"/>
<path d="M132.121,362.091v 9.92031" fill="none" stroke="black"/>
<path d="M143.239,367.052v 4.96016" fill="none" stroke="black"/>
<path d="M154.356,367.052v 4.96016" fill="none" stroke="black"/>
<path d="M165.473,367.052v 4.96016" fill="none" stroke="black"/>
<path d="M176.591,362.091v 9.92031" fill="none" stroke="black"/>
<path d="M187.708,367.052v 4.96016" fill="none" stroke="black"/>
<path d="M198.825,367.052v 4.96016" fill="none" stroke="black"/>
<path d="M209.943,367.052v 4.96016" fill="none" stroke="black"/>
<path d="M221.06,362.091v 9.92031" fill="none" stroke="black"/>
<path d="M232.177,367.052v 4.96016" fill="none" stroke="black"/>
<path d="M243.295,367.052v 4.96016" fill="none" stroke="black"/>
<path d="M254.412,367.052v 4.96016" fill="none" stroke="black"/>
<path d="M265.53,362.091v 9.92031" fill="none" stroke="black"/>
<path d="M276.647,367.052v 4.96016" fill="none" stroke="black"/>
<path d="M287.764,367.052v 4.96016" fill="none" stroke="black"/>
<path d="M298.882,367.052v 4.96016" fill="none" stroke="black"/>
<path d="M309.999,362.091v 9.92031" fill="none" stroke="black"/>
<path d="M321.116,367.052v 4.96016" fill="none" stroke="black"/>
<path d="M332.234,367.052v 4.96016" fill="none" stroke="black"/>
<path d="M343.351,367.052v 4.96016" fill="none" stroke="black"/>
<path d="M354.469,362.091v 9.92031" fill="none" stroke="black"/>
<path d="M365.586,367.052v 4.96016" fill="none" stroke="black"/>
<path d="M376.703,367.052v 4.96016" fill="none" stroke="black"/>
<path d="M387.821,367.052v 4.96016" fill="none" stroke="black"/>
<path d="M398.938,362.091v 9.92031" fill="none" stroke="black"/>
<path d="M410.055,367.052v 4.96016" fill="none" stroke="black"/>
<path d="M421.173,367.052v 4.96016" fill="none" stroke="black"/>
<path d="M432.29,367.052v 4.96016" fill="none" stroke="black"/>
<path d="M443.407,362.091v 9.92031" fill="none" stroke="black"/>
<path d="M454.525,367.052v 4.96016" fill="none" stroke="black"/>
<path d="M465.642,367.052v 4.96016" fill="none" stroke="black"/>
<path d="M476.76,367.052v 4.96016" fill="none" stroke="black"/>
<path d="M487.877,362.091v 9.92031" fill="none" stroke="black"/>
<path d="M87.6517,362.091v 9.92031" fill="none" stroke="black"/>
<path d="M76.5343,367.052v 4.96016" fill="none" stroke="black"/>
<path d="M65.4169,367.052v 4.96016" fill="none" stroke="black"/>
<path d="M487.877,362.091v 9.92031" fill="none" stroke="black"/>
<path d="M498.994,367.052v 4.96016" fill="none" stroke="black"/>
<path d="M510.112,367.052v 4.96016" fill="none" stroke="black"/>
<text xml:space="preserve" x="79.1875" y="385.379" fill="black" font-size="13.7726" font-family="Helvetica">1.1</text>
<text xml:space="preserve" x="115.213" y="385.379" fill="black" font-size="13.7726" font-family="Helvetica">1.102</text>
<text xml:space="preserve" x="159.771" y="385.379" fill="black" font-size="13.7726" font-family="Helvetica">1.104</text>
<text xml:space="preserve" x="204.329" y="385.379" fill="black" font-size="13.7726" font-family="Helvetica">1.106</text>
<text xml:space="preserve" x="248.887" y="385.379" fill="black" font-size="13.7726" font-family="Helvetica">1.108</text>
<text xml:space="preserve" x="297.711" y="385.379" fill="black" font-size="13.7726" font-family="Helvetica">1.11</text>
<text xml:space="preserve" x="337.529" y="385.379" fill="black" font-size="13.7726" font-family="Helvetica">1.112</text>
<text xml:space="preserve" x="382.087" y="385.379" fill="black" font-size="13.7726" font-family="Helvetica">1.114</text>
<text xml:space="preserve" x="426.645" y="385.379" fill="black" font-size="13.7726" font-family="Helvetica">1.116</text>
<text xml:space="preserve" x="471.203" y="385.379" fill="black" font-size="13.7726" font-family="Helvetica">1.118</text>
<text xml:space="preserve" x="413.372" y="400.074" fill="black" font-size="13.7726" font-family="Helvetica">calibration factor</text>
<path d="M57.1929,372.012v -330.677" fill="none" stroke="black"/>
<path d="M70.7992,365.492h -13.6063" fill="none" stroke="black"/>
<path d="M63.9961,358.879h -6.80315" fill="none" stroke="black"/>
<path d="M63.9961,352.265h -6.80315" fill="none" stroke="black"/>
<path d="M63.9961,345.652h -6.80315" fill="none" stroke="black"/>
<path d="M63.9961,339.038h -6.80315" fill="none" stroke="black"/>
<path d="M70.7992,332.424h -13.6063" fill="none" stroke="black"/>
<path d="M63.9961,325.811h -6.80315" fill="none" stroke="black"/>
<path d="M63.9961,319.197h -6.80315" fill="none" stroke="black"/>
<path d="M63.9961,312.584h -6.80315" fill="none" stroke="black"/>
<path d="M63.9961,305.97h -6.80315" fill="none" stroke="black"/>
<path d="M70.7992,299.357h -13.6063" fill="none" stroke="black"/>
<path d="M63.9961,292.743h -6.80315" fill="none" stroke="black"/>
<path d="M63.9961,286.13h -6.80315" fill="none" stroke="black"/>
<path d="M63.9961,279.516h -6.80315" fill="none" stroke="black"/>
<path d="M63.9961,272.903h -6.80315" fill="none" stroke="black"/>
<path d="M70.7992,266.289h -13.6063" fill="none" stroke="black"/>
<path d="M63.9961,259.676h -6.80315" fill="none" stroke="black"/>
<path d="M63.9961,253.062h -6.80315" fill="none" stroke="black"/>
<path d="M63.9961,246.448h -6.80315" fill="none" stroke="black"/>
<path d="M63.9961,239.835h -6.80315" fill="none" stroke="black"/>
<path d="M70.7992,233.221h -13.6063" fill="none" stroke="black"/>
<path d="M63.9961,226.608h -6.80315" fill="none" stroke="black"/>
<path d="M63.9961,219.994h -6.80315" fill="none" stroke="black"/>
<path d="M63.9961,213.381h -6.80315" fill="none" stroke="black"/>
<path d="M63.9961,206.767h -6.80315" fill="none" stroke="black"/>
<path d="M70.7992,200.154h -13.6063" fill="none" stroke="black"/>
<path d="M63.9961,193.54h -6.80315" fill="none" stroke="black"/>
<path d="M63.9961,186.927h -6.80315" fill="none" stroke="black"/>
<path d="M63.9961,180.313h -6.80315" fill="none" stroke="black"/>
<path d="M63.9961,173.699h -6.80315" fill="none" stroke="black"/>
<path d="M70.7992,167.086h -13.6063" fill="none" stroke="black"/>
<path d="M63.9961,160.472h -6.80315" fill="none" stroke="black"/>
<path d="M63.9961,153.859h -6.80315" fill="none" stroke="black"/>
<path d="M63.9961,147.245h -6.80315" fill="none" stroke="black"/>
<path d="M63.9961,140.632h -6.80315" fill="none" stroke="black"/>
<path d="M70.7992,134.018h -13.6063" fill="none" stroke="black"/>
<path d="M63.9961,127.405h -6.80315" fill="none" stroke="black"/>
<path d="M63.9961,120.791h -6.80315" fill="none" stroke="black"/>
<path d="M63.9961,114.178h -6.80315" fill="none" stroke="black"/>
<path d="M63.9961,107.564h -6.80315" fill="none" stroke="black"/>
<path d="M70.7992,100.951h -13.6063" fill="none" stroke="black"/>
<path d="M63.9961,94.337h -6.80315" fill="none" stroke="black"/>
<path d="M63.9961,87.7234h -6.80315" fill="none" stroke="black"/>
<path d="M63.9961,81.1099h -6.80315" fill="none" stroke="black"/>
<path d="M63.9961,74.4964h -6.80315" fill="none" stroke="black"/>
<path d="M70.7992,67.8828h -13.6063" fill="none" stroke="black"/>
<path d="M70.7992,365.492h -13.6063" fill="none" stroke="black"/>
<path d="M70.7992,67.8828h -13.6063" fill="none" stroke="black"/>
<path d="M63.9961,61.2693h -6.80315" fill="none" stroke="black"/>
<path d="M63.9961,54.6557h -6.80315" fill="none" stroke="black"/>
<path d="M63.9961,48.0422h -6.80315" fill="none" stroke="black"/>
<path d="M63.9961,41.4286h -6.80315" fill="none" stroke="black"/>
<text xml:space="preserve" x="32.2594" y="370.21" fill="black" font-size="13.7726" font-family="Helvetica">182</text>
<text xml:space="preserve" x="32.2594" y="337.029" fill="black" font-size="13.7726" font-family="Helvetica">183</text>
<text xml:space="preserve" x="32.2594" y="303.847" fill="black" font-size="13.7726" font-family="Helvetica">184</text>
<text xml:space="preserve" x="32.2594" y="270.666" fill="black" font-size="13.7726" font-family="Helvetica">185</text>
<text xml:space="preserve" x="32.2594" y="237.959" fill="black" font-size="13.7726" font-family="Helvetica">186</text>
<text xml:space="preserve" x="32.2594" y="204.777" fill="black" font-size="13.7726" font-family="Helvetica">187</text>
<text xml:space="preserve" x="32.2594" y="171.596" fill="black" font-size="13.7726" font-family="Helvetica">188</text>
<text xml:space="preserve" x="32.2594" y="138.414" fill="black" font-size="13.7726" font-family="Helvetica">189</text>
<text xml:space="preserve" x="32.2594" y="105.233" fill="black" font-size="13.7726" font-family="Helvetica">190</text>
<text xml:space="preserve" x="34.6295" y="72.5252" fill="black" font-size="13.7726" font-family="Helvetica">191</text>
<g transform="rotate(-90,15.1947,45.98)">
<text xml:space="preserve" x="15.1947" y="45.98" fill="black" font-size="9.34839" font-family="Helvetica">2</text>
</g>
<g transform="rotate(-90,19.4608,50.2462)">
<text xml:space="preserve" x="19.4608" y="50.2462" fill="black" font-size="13.7726" font-family="Helvetica"> </text>
</g>
<g transform="rotate(-90,19.4608,57.3565)">
<text xml:space="preserve" x="19.4608" y="57.3565" fill="black" font-size="13.7726" font-family="Times">&#0967;</text>
</g>
<g stroke="black" stroke-width="1" fill="none">
<line x1="121.331" y1="58.7283" x2="125.123" y2="58.7283"/><line x1="123.227" y1="56.8322" x2="123.227" y2="60.6244"/><line x1="121.331" y1="56.8322" x2="125.123" y2="60.6244"/><line x1="121.331" y1="60.6244" x2="125.123" y2="56.8322"/>
</g>
<g stroke="black" stroke-width="1" fill="none">
<line x1="130.225" y1="76.5574" x2="134.017" y2="76.5574"/><line x1="132.121" y1="74.6613" x2="132.121" y2="78.4534"/><line x1="130.225" y1="74.6613" x2="134.017" y2="78.4534"/><line x1="130.225" y1="78.4534" x2="134.017" y2="74.6613"/>
<line x1="134.672" y1="74.1474" x2="138.464" y2="74.1474"/><line x1="136.568" y1="72.2513" x2="136.568" y2="76.0435"/><line x1="134.672" y1="72.2513" x2="138.464" y2="76.0435"/><line x1="134.672" y1="76.0435" x2="138.464" y2="72.2513"/>
</g>
<g stroke="black" stroke-width="1" fill="none">
<line x1="143.566" y1="85.1689" x2="147.358" y2="85.1689"/><line x1="145.462" y1="83.2728" x2="145.462" y2="87.065"/><line x1="143.566" y1="83.2728" x2="147.358" y2="87.065"/><line x1="143.566" y1="87.065" x2="147.358" y2="83.2728"/>
</g>
<g stroke="black" stroke-width="1" fill="none">
<line x1="161.354" y1="52.5476" x2="165.146" y2="52.5476"/><line x1="163.25" y1="50.6515" x2="163.25" y2="54.4437"/><line x1="161.354" y1="50.6515" x2="165.146" y2="54.4437"/><line x1="161.354" y1="54.4437" x2="165.146" y2="50.6515"/>
<line x1="165.801" y1="114.675" x2="169.593" y2="114.675"/><line x1="167.697" y1="112.779" x2="167.697" y2="116.571"/><line x1="165.801" y1="112.779" x2="169.593" y2="116.571"/><line x1="165.801" y1="116.571" x2="169.593" y2="112.779"/>
<line x1="170.248" y1="115.695" x2="174.04" y2="115.695"/><line x1="172.144" y1="113.799" x2="172.144" y2="117.591"/><line x1="170.248" y1="113.799" x2="174.04" y2="117.591"/><line x1="170.248" y1="117.591" x2="174.04" y2="113.799"/>
<line x1="174.695" y1="138.856" x2="178.487" y2="138.856"/><line x1="176.591" y1="136.96" x2="176.591" y2="140.752"/><line x1="174.695" y1="136.96" x2="178.487" y2="140.752"/><line x1="174.695" y1="140.752" x2="178.487" y2="136.96"/>
<line x1="179.141" y1="209.596" x2="182.934" y2="209.596"/><line x1="181.038" y1="207.7" x2="181.038" y2="211.492"/><line x1="179.141" y1="207.7" x2="182.934" y2="211.492"/><line x1="179.141" y1="211.492" x2="182.934" y2="207.7"/>
<line x1="183.588" y1="275.98" x2="187.381" y2="275.98"/><line x1="185.485" y1="274.084" x2="185.485" y2="277.877"/><line x1="183.588" y1="274.084" x2="187.381" y2="277.877"/><line x1="183.588" y1="277.877" x2="187.381" y2="274.084"/>
<line x1="188.035" y1="243.187" x2="191.828" y2="243.187"/><line x1="189.931" y1="241.291" x2="189.931" y2="245.083"/><line x1="188.035" y1="241.291" x2="191.828" y2="245.083"/><line x1="188.035" y1="245.083" x2="191.828" y2="241.291"/>
<line x1="192.482" y1="238.179" x2="196.274" y2="238.179"/><line x1="194.378" y1="236.282" x2="194.378" y2="240.075"/><line x1="192.482" y1="236.282" x2="196.274" y2="240.075"/><line x1="192.482" y1="240.075" x2="196.274" y2="236.282"/>
<line x1="196.929" y1="216.007" x2="200.721" y2="216.007"/><line x1="198.825" y1="214.111" x2="198.825" y2="217.903"/><line x1="196.929" y1="214.111" x2="200.721" y2="217.903"/><line x1="196.929" y1="217.903" x2="200.721" y2="214.111"/>
<line x1="201.376" y1="190.925" x2="205.168" y2="190.925"/><line x1="203.272" y1="189.029" x2="203.272" y2="192.821"/><line x1="201.376" y1="189.029" x2="205.168" y2="192.821"/><line x1="201.376" y1="192.821" x2="205.168" y2="189.029"/>
<line x1="205.823" y1="197.615" x2="209.615" y2="197.615"/><line x1="207.719" y1="195.719" x2="207.719" y2="199.511"/><line x1="205.823" y1="195.719" x2="209.615" y2="199.511"/><line x1="205.823" y1="199.511" x2="209.615" y2="195.719"/>
<line x1="210.27" y1="160.219" x2="214.062" y2="160.219"/><line x1="212.166" y1="158.323" x2="212.166" y2="162.115"/><line x1="210.27" y1="158.323" x2="214.062" y2="162.115"/><line x1="210.27" y1="162.115" x2="214.062" y2="158.323"/>
<line x1="214.717" y1="179.847" x2="218.509" y2="179.847"/><line x1="216.613" y1="177.951" x2="216.613" y2="181.743"/><line x1="214.717" y1="177.951" x2="218.509" y2="181.743"/><line x1="214.717" y1="181.743" x2="218.509" y2="177.951"/>
<line x1="219.164" y1="224.797" x2="222.956" y2="224.797"/><line x1="221.06" y1="222.901" x2="221.06" y2="226.693"/><line x1="219.164" y1="222.901" x2="222.956" y2="226.693"/><line x1="219.164" y1="226.693" x2="222.956" y2="222.901"/>
<line x1="223.611" y1="266.092" x2="227.403" y2="266.092"/><line x1="225.507" y1="264.196" x2="225.507" y2="267.988"/><line x1="223.611" y1="264.196" x2="227.403" y2="267.988"/><line x1="223.611" y1="267.988" x2="227.403" y2="264.196"/>
<line x1="228.058" y1="291.266" x2="231.85" y2="291.266"/><line x1="229.954" y1="289.369" x2="229.954" y2="293.162"/><line x1="228.058" y1="289.369" x2="231.85" y2="293.162"/><line x1="228.058" y1="293.162" x2="231.85" y2="289.369"/>
<line x1="232.505" y1="258.444" x2="236.297" y2="258.444"/><line x1="234.401" y1="256.548" x2="234.401" y2="260.34"/><line x1="232.505" y1="256.548" x2="236.297" y2="260.34"/><line x1="232.505" y1="260.34" x2="236.297" y2="256.548"/>
<line x1="236.952" y1="175.908" x2="240.744" y2="175.908"/><line x1="238.848" y1="174.012" x2="238.848" y2="177.804"/><line x1="236.952" y1="174.012" x2="240.744" y2="177.804"/><line x1="236.952" y1="177.804" x2="240.744" y2="174.012"/>
<line x1="241.399" y1="167.496" x2="245.191" y2="167.496"/><line x1="243.295" y1="165.6" x2="243.295" y2="169.392"/><line x1="241.399" y1="165.6" x2="245.191" y2="169.392"/><line x1="241.399" y1="169.392" x2="245.191" y2="165.6"/>
<line x1="245.846" y1="158.408" x2="249.638" y2="158.408"/><line x1="247.742" y1="156.512" x2="247.742" y2="160.304"/><line x1="245.846" y1="156.512" x2="249.638" y2="160.304"/><line x1="245.846" y1="160.304" x2="249.638" y2="156.512"/>
<line x1="250.293" y1="219.194" x2="254.085" y2="219.194"/><line x1="252.189" y1="217.298" x2="252.189" y2="221.09"/><line x1="250.293" y1="217.298" x2="254.085" y2="221.09"/><line x1="250.293" y1="221.09" x2="254.085" y2="217.298"/>
<line x1="254.74" y1="217.644" x2="258.532" y2="217.644"/><line x1="256.636" y1="215.748" x2="256.636" y2="219.54"/><line x1="254.74" y1="215.748" x2="258.532" y2="219.54"/><line x1="254.74" y1="219.54" x2="258.532" y2="215.748"/>
<line x1="259.187" y1="193.267" x2="262.979" y2="193.267"/><line x1="261.083" y1="191.371" x2="261.083" y2="195.163"/><line x1="259.187" y1="191.371" x2="262.979" y2="195.163"/><line x1="259.187" y1="195.163" x2="262.979" y2="191.371"/>
<line x1="263.633" y1="187.535" x2="267.426" y2="187.535"/><line x1="265.53" y1="185.639" x2="265.53" y2="189.431"/><line x1="263.633" y1="185.639" x2="267.426" y2="189.431"/><line x1="263.633" y1="189.431" x2="267.426" y2="185.639"/>
<line x1="268.08" y1="243.144" x2="271.873" y2="243.144"/><line x1="269.977" y1="241.248" x2="269.977" y2="245.04"/><line x1="268.08" y1="241.248" x2="271.873" y2="245.04"/><line x1="268.08" y1="245.04" x2="271.873" y2="241.248"/>
<line x1="272.527" y1="231.48" x2="276.32" y2="231.48"/><line x1="274.423" y1="229.584" x2="274.423" y2="233.376"/><line x1="272.527" y1="229.584" x2="276.32" y2="233.376"/><line x1="272.527" y1="233.376" x2="276.32" y2="229.584"/>
<line x1="276.974" y1="255.543" x2="280.766" y2="255.543"/><line x1="278.87" y1="253.647" x2="278.87" y2="257.44"/><line x1="276.974" y1="253.647" x2="280.766" y2="257.44"/><line x1="276.974" y1="257.44" x2="280.766" y2="253.647"/>
<line x1="281.421" y1="305.876" x2="285.213" y2="305.876"/><line x1="283.317" y1="303.98" x2="283.317" y2="307.772"/><line x1="281.421" y1="303.98" x2="285.213" y2="307.772"/><line x1="281.421" y1="307.772" x2="285.213" y2="303.98"/>
<line x1="285.868" y1="255.736" x2="289.66" y2="255.736"/><line x1="287.764" y1="253.84" x2="287.764" y2="257.632"/><line x1="285.868" y1="253.84" x2="289.66" y2="257.632"/><line x1="285.868" y1="257.632" x2="289.66" y2="253.84"/>
<line x1="290.315" y1="271.927" x2="294.107" y2="271.927"/><line x1="292.211" y1="270.031" x2="292.211" y2="273.824"/><line x1="290.315" y1="270.031" x2="294.107" y2="273.824"/><line x1="290.315" y1="273.824" x2="294.107" y2="270.031"/>
<line x1="294.762" y1="221.229" x2="298.554" y2="221.229"/><line x1="296.658" y1="219.333" x2="296.658" y2="223.125"/><line x1="294.762" y1="219.333" x2="298.554" y2="223.125"/><line x1="294.762" y1="223.125" x2="298.554" y2="219.333"/>
<line x1="299.209" y1="244.285" x2="303.001" y2="244.285"/><line x1="301.105" y1="242.389" x2="301.105" y2="246.181"/><line x1="299.209" y1="242.389" x2="303.001" y2="246.181"/><line x1="299.209" y1="246.181" x2="303.001" y2="242.389"/>
<line x1="303.656" y1="205.008" x2="307.448" y2="205.008"/><line x1="305.552" y1="203.112" x2="305.552" y2="206.904"/><line x1="303.656" y1="203.112" x2="307.448" y2="206.904"/><line x1="303.656" y1="206.904" x2="307.448" y2="203.112"/>
<line x1="308.103" y1="157.857" x2="311.895" y2="157.857"/><line x1="309.999" y1="155.961" x2="309.999" y2="159.753"/><line x1="308.103" y1="155.961" x2="311.895" y2="159.753"/><line x1="308.103" y1="159.753" x2="311.895" y2="155.961"/>
<line x1="312.55" y1="190.486" x2="316.342" y2="190.486"/><line x1="314.446" y1="188.59" x2="314.446" y2="192.382"/><line x1="312.55" y1="188.59" x2="316.342" y2="192.382"/><line x1="312.55" y1="192.382" x2="316.342" y2="188.59"/>
<line x1="316.997" y1="179.614" x2="320.789" y2="179.614"/><line x1="318.893" y1="177.718" x2="318.893" y2="181.51"/><line x1="316.997" y1="177.718" x2="320.789" y2="181.51"/><line x1="316.997" y1="181.51" x2="320.789" y2="177.718"/>
<line x1="321.444" y1="241.173" x2="325.236" y2="241.173"/><line x1="323.34" y1="239.277" x2="323.34" y2="243.069"/><line x1="321.444" y1="239.277" x2="325.236" y2="243.069"/><line x1="321.444" y1="243.069" x2="325.236" y2="239.277"/>
<line x1="325.891" y1="212.619" x2="329.683" y2="212.619"/><line x1="327.787" y1="210.723" x2="327.787" y2="214.515"/><line x1="325.891" y1="210.723" x2="329.683" y2="214.515"/><line x1="325.891" y1="214.515" x2="329.683" y2="210.723"/>
<line x1="330.338" y1="179.916" x2="334.13" y2="179.916"/><line x1="332.234" y1="178.02" x2="332.234" y2="181.812"/><line x1="330.338" y1="178.02" x2="334.13" y2="181.812"/><line x1="330.338" y1="181.812" x2="334.13" y2="178.02"/>
<line x1="334.785" y1="229.009" x2="338.577" y2="229.009"/><line x1="336.681" y1="227.113" x2="336.681" y2="230.905"/><line x1="334.785" y1="227.113" x2="338.577" y2="230.905"/><line x1="334.785" y1="230.905" x2="338.577" y2="227.113"/>
<line x1="339.232" y1="282.072" x2="343.024" y2="282.072"/><line x1="341.128" y1="280.176" x2="341.128" y2="283.969"/><line x1="339.232" y1="280.176" x2="343.024" y2="283.969"/><line x1="339.232" y1="283.969" x2="343.024" y2="280.176"/>
<line x1="343.679" y1="241.404" x2="347.471" y2="241.404"/><line x1="345.575" y1="239.508" x2="345.575" y2="243.3"/><line x1="343.679" y1="239.508" x2="347.471" y2="243.3"/><line x1="343.679" y1="243.3" x2="347.471" y2="239.508"/>
<line x1="348.125" y1="260.04" x2="351.918" y2="260.04"/><line x1="350.022" y1="258.144" x2="350.022" y2="261.936"/><line x1="348.125" y1="258.144" x2="351.918" y2="261.936"/><line x1="348.125" y1="261.936" x2="351.918" y2="258.144"/>
<line x1="352.572" y1="197.536" x2="356.365" y2="197.536"/><line x1="354.469" y1="195.64" x2="354.469" y2="199.432"/><line x1="352.572" y1="195.64" x2="356.365" y2="199.432"/><line x1="352.572" y1="199.432" x2="356.365" y2="195.64"/>
<line x1="357.019" y1="180.756" x2="360.812" y2="180.756"/><line x1="358.915" y1="178.859" x2="358.915" y2="182.652"/><line x1="357.019" y1="178.859" x2="360.812" y2="182.652"/><line x1="357.019" y1="182.652" x2="360.812" y2="178.859"/>
<line x1="361.466" y1="200.917" x2="365.259" y2="200.917"/><line x1="363.362" y1="199.021" x2="363.362" y2="202.813"/><line x1="361.466" y1="199.021" x2="365.259" y2="202.813"/><line x1="361.466" y1="202.813" x2="365.259" y2="199.021"/>
<line x1="365.913" y1="138.616" x2="369.705" y2="138.616"/><line x1="367.809" y1="136.72" x2="367.809" y2="140.512"/><line x1="365.913" y1="136.72" x2="369.705" y2="140.512"/><line x1="365.913" y1="140.512" x2="369.705" y2="136.72"/>
<line x1="370.36" y1="145.001" x2="374.152" y2="145.001"/><line x1="372.256" y1="143.105" x2="372.256" y2="146.897"/><line x1="370.36" y1="143.105" x2="374.152" y2="146.897"/><line x1="370.36" y1="146.897" x2="374.152" y2="143.105"/>
<line x1="374.807" y1="107.509" x2="378.599" y2="107.509"/><line x1="376.703" y1="105.613" x2="376.703" y2="109.405"/><line x1="374.807" y1="105.613" x2="378.599" y2="109.405"/><line x1="374.807" y1="109.405" x2="378.599" y2="105.613"/>
</g>
<g stroke="black" stroke-width="1" fill="none">
<line x1="432.617" y1="42.892" x2="436.41" y2="42.892"/><line x1="434.514" y1="40.9959" x2="434.514" y2="44.7881"/><line x1="432.617" y1="40.9959" x2="436.41" y2="44.7881"/><line x1="432.617" y1="44.7881" x2="436.41" y2="40.9959"/>
</g>
<g stroke="black" stroke-width="1" fill="none">
<line x1="445.958" y1="75.6742" x2="449.751" y2="75.6742"/><line x1="447.854" y1="73.7781" x2="447.854" y2="77.5703"/><line x1="445.958" y1="73.7781" x2="449.751" y2="77.5703"/><line x1="445.958" y1="77.5703" x2="449.751" y2="73.7781"/>
<line x1="450.405" y1="42.9796" x2="454.197" y2="42.9796"/><line x1="452.301" y1="41.0835" x2="452.301" y2="44.8757"/><line x1="450.405" y1="41.0835" x2="454.197" y2="44.8757"/><line x1="450.405" y1="44.8757" x2="454.197" y2="41.0835"/>
<line x1="454.852" y1="63.8794" x2="458.644" y2="63.8794"/><line x1="456.748" y1="61.9834" x2="456.748" y2="65.7755"/><line x1="454.852" y1="61.9834" x2="458.644" y2="65.7755"/><line x1="454.852" y1="65.7755" x2="458.644" y2="61.9834"/>
</g>
<g stroke="black" stroke-width="1" fill="none">
<line x1="472.64" y1="52.3764" x2="476.432" y2="52.3764"/><line x1="474.536" y1="50.4803" x2="474.536" y2="54.2724"/><line x1="472.64" y1="50.4803" x2="476.432" y2="54.2724"/><line x1="472.64" y1="54.2724" x2="476.432" y2="50.4803"/>
</g>
<g stroke="black" stroke-width="1" fill="none">
<line x1="490.428" y1="64.9544" x2="494.22" y2="64.9544"/><line x1="492.324" y1="63.0583" x2="492.324" y2="66.8505"/><line x1="490.428" y1="63.0583" x2="494.22" y2="66.8505"/><line x1="490.428" y1="66.8505" x2="494.22" y2="63.0583"/>
</g>
<path d="M0.5,272.809h 566.929" fill="none" stroke="#0000ff"/></svg>
