<?xml version="1.0" standalone="no"?>
<svg width="567.429" height="413.846" viewBox="0 0 567.429 413.846" xmlns="http://www.w3.org/2000/svg" shape-rendering="crispEdges">
<title>
figures/chi2zoomin_0PMTnpefilelist20.svg
</title>
<desc>
Creator: ROOT Version 6.18/04
CreationDate: Fri Nov  1 13:55:01 2019</desc>
<defs>
</defs>
<rect x="0.5" y="0" width="566.929" height="413.346" fill="white"/>
<rect x="57.1929" y="41.3346" width="453.543" height="330.677" fill="white"/>
<rect x="57.1929" y="41.3346" width="453.543" height="330.677" fill="none" stroke="black"/>
<path d="M57.1929,372.012h 453.543" fill="none" stroke="black"/>
<path d="M80.0926,41.3346v 330.677" fill="none" stroke="black" stroke-dasharray=" 1, 2"/>
<path d="M124.562,41.3346v 330.677" fill="none" stroke="black" stroke-dasharray=" 1, 2"/>
<path d="M169.032,41.3346v 330.677" fill="none" stroke="black" stroke-dasharray=" 1, 2"/>
<path d="M213.501,41.3346v 330.677" fill="none" stroke="black" stroke-dasharray=" 1, 2"/>
<path d="M257.97,41.3346v 330.677" fill="none" stroke="black" stroke-dasharray=" 1, 2"/>
<path d="M302.44,41.3346v 330.677" fill="none" stroke="black" stroke-dasharray=" 1, 2"/>
<path d="M346.909,41.3346v 330.677" fill="none" stroke="black" stroke-dasharray=" 1, 2"/>
<path d="M391.379,41.3346v 330.677" fill="none" stroke="black" stroke-dasharray=" 1, 2"/>
<path d="M435.848,41.3346v 330.677" fill="none" stroke="black" stroke-dasharray=" 1, 2"/>
<path d="M480.318,41.3346v 330.677" fill="none" stroke="black" stroke-dasharray=" 1, 2"/>
<path d="M80.0926,41.3346v 330.677" fill="none" stroke="black" stroke-dasharray=" 1, 2"/>
<path d="M480.318,41.3346v 330.677" fill="none" stroke="black" stroke-dasharray=" 1, 2"/>
<path d="M57.1929,372.012v -330.677" fill="none" stroke="black"/>
<path d="M57.1929,372.012h 453.543" fill="none" stroke="black"/>
<path d="M80.0926,362.091v 9.92031" fill="none" stroke="black"/>
<path d="M91.2099,367.052v 4.96016" fill="none" stroke="black"/>
<path d="M102.327,367.052v 4.96016" fill="none" stroke="black"/>
<path d="M113.445,367.052v 4.96016" fill="none" stroke="black"/>
<path d="M124.562,362.091v 9.92031" fill="none" stroke="black"/>
<path d="M135.679,367.052v 4.96016" fill="none" stroke="black"/>
<path d="M146.797,367.052v 4.96016" fill="none" stroke="black"/>
<path d="M157.914,367.052v 4.96016" fill="none" stroke="black"/>
<path d="M169.032,362.091v 9.92031" fill="none" stroke="black"/>
<path d="M180.149,367.052v 4.96016" fill="none" stroke="black"/>
<path d="M191.266,367.052v 4.96016" fill="none" stroke="black"/>
<path d="M202.384,367.052v 4.96016" fill="none" stroke="black"/>
<path d="M213.501,362.091v 9.92031" fill="none" stroke="black"/>
<path d="M224.618,367.052v 4.96016" fill="none" stroke="black"/>
<path d="M235.736,367.052v 4.96016" fill="none" stroke="black"/>
<path d="M246.853,367.052v 4.96016" fill="none" stroke="black"/>
<path d="M257.97,362.091v 9.92031" fill="none" stroke="black"/>
<path d="M269.088,367.052v 4.96016" fill="none" stroke="black"/>
<path d="M280.205,367.052v 4.96016" fill="none" stroke="black"/>
<path d="M291.323,367.052v 4.96016" fill="none" stroke="black"/>
<path d="M302.44,362.091v 9.92031" fill="none" stroke="black"/>
<path d="M313.557,367.052v 4.96016" fill="none" stroke="black"/>
<path d="M324.675,367.052v 4.96016" fill="none" stroke="black"/>
<path d="M335.792,367.052v 4.96016" fill="none" stroke="black"/>
<path d="M346.909,362.091v 9.92031" fill="none" stroke="black"/>
<path d="M358.027,367.052v 4.96016" fill="none" stroke="black"/>
<path d="M369.144,367.052v 4.96016" fill="none" stroke="black"/>
<path d="M380.262,367.052v 4.96016" fill="none" stroke="black"/>
<path d="M391.379,362.091v 9.92031" fill="none" stroke="black"/>
<path d="M402.496,367.052v 4.96016" fill="none" stroke="black"/>
<path d="M413.614,367.052v 4.96016" fill="none" stroke="black"/>
<path d="M424.731,367.052v 4.96016" fill="none" stroke="black"/>
<path d="M435.848,362.091v 9.92031" fill="none" stroke="black"/>
<path d="M446.966,367.052v 4.96016" fill="none" stroke="black"/>
<path d="M458.083,367.052v 4.96016" fill="none" stroke="black"/>
<path d="M469.2,367.052v 4.96016" fill="none" stroke="black"/>
<path d="M480.318,362.091v 9.92031" fill="none" stroke="black"/>
<path d="M80.0926,362.091v 9.92031" fill="none" stroke="black"/>
<path d="M68.9752,367.052v 4.96016" fill="none" stroke="black"/>
<path d="M57.8578,367.052v 4.96016" fill="none" stroke="black"/>
<path d="M480.318,362.091v 9.92031" fill="none" stroke="black"/>
<path d="M491.435,367.052v 4.96016" fill="none" stroke="black"/>
<path d="M502.553,367.052v 4.96016" fill="none" stroke="black"/>
<text xml:space="preserve" x="70.6551" y="385.379" fill="black" font-size="13.7726" font-family="Helvetica">0.9</text>
<text xml:space="preserve" x="107.629" y="385.379" fill="black" font-size="13.7726" font-family="Helvetica">0.902</text>
<text xml:space="preserve" x="152.187" y="385.379" fill="black" font-size="13.7726" font-family="Helvetica">0.904</text>
<text xml:space="preserve" x="196.745" y="385.379" fill="black" font-size="13.7726" font-family="Helvetica">0.906</text>
<text xml:space="preserve" x="241.303" y="385.379" fill="black" font-size="13.7726" font-family="Helvetica">0.908</text>
<text xml:space="preserve" x="290.127" y="385.379" fill="black" font-size="13.7726" font-family="Helvetica">0.91</text>
<text xml:space="preserve" x="329.945" y="385.379" fill="black" font-size="13.7726" font-family="Helvetica">0.912</text>
<text xml:space="preserve" x="374.503" y="385.379" fill="black" font-size="13.7726" font-family="Helvetica">0.914</text>
<text xml:space="preserve" x="419.061" y="385.379" fill="black" font-size="13.7726" font-family="Helvetica">0.916</text>
<text xml:space="preserve" x="463.619" y="385.379" fill="black" font-size="13.7726" font-family="Helvetica">0.918</text>
<text xml:space="preserve" x="413.372" y="400.074" fill="black" font-size="13.7726" font-family="Helvetica">calibration factor</text>
<path d="M57.1929,372.012v -330.677" fill="none" stroke="black"/>
<path d="M70.7992,354.668h -13.6063" fill="none" stroke="black"/>
<path d="M63.9961,348.055h -6.80315" fill="none" stroke="black"/>
<path d="M63.9961,341.441h -6.80315" fill="none" stroke="black"/>
<path d="M63.9961,334.828h -6.80315" fill="none" stroke="black"/>
<path d="M63.9961,328.214h -6.80315" fill="none" stroke="black"/>
<path d="M70.7992,321.601h -13.6063" fill="none" stroke="black"/>
<path d="M63.9961,314.987h -6.80315" fill="none" stroke="black"/>
<path d="M63.9961,308.374h -6.80315" fill="none" stroke="black"/>
<path d="M63.9961,301.76h -6.80315" fill="none" stroke="black"/>
<path d="M63.9961,295.147h -6.80315" fill="none" stroke="black"/>
<path d="M70.7992,288.533h -13.6063" fill="none" stroke="black"/>
<path d="M63.9961,281.919h -6.80315" fill="none" stroke="black"/>
<path d="M63.9961,275.306h -6.80315" fill="none" stroke="black"/>
<path d="M63.9961,268.692h -6.80315" fill="none" stroke="black"/>
<path d="M63.9961,262.079h -6.80315" fill="none" stroke="black"/>
<path d="M70.7992,255.465h -13.6063" fill="none" stroke="black"/>
<path d="M63.9961,248.852h -6.80315" fill="none" stroke="black"/>
<path d="M63.9961,242.238h -6.80315" fill="none" stroke="black"/>
<path d="M63.9961,235.625h -6.80315" fill="none" stroke="black"/>
<path d="M63.9961,229.011h -6.80315" fill="none" stroke="black"/>
<path d="M70.7992,222.398h -13.6063" fill="none" stroke="black"/>
<path d="M63.9961,215.784h -6.80315" fill="none" stroke="black"/>
<path d="M63.9961,209.17h -6.80315" fill="none" stroke="black"/>
<path d="M63.9961,202.557h -6.80315" fill="none" stroke="black"/>
<path d="M63.9961,195.943h -6.80315" fill="none" stroke="black"/>
<path d="M70.7992,189.33h -13.6063" fill="none" stroke="black"/>
<path d="M63.9961,182.716h -6.80315" fill="none" stroke="black"/>
<path d="M63.9961,176.103h -6.80315" fill="none" stroke="black"/>
<path d="M63.9961,169.489h -6.80315" fill="none" stroke="black"/>
<path d="M63.9961,162.876h -6.80315" fill="none" stroke="black"/>
<path d="M70.7992,156.262h -13.6063" fill="none" stroke="black"/>
<path d="M63.9961,149.649h -6.80315" fill="none" stroke="black"/>
<path d="M63.9961,143.035h -6.80315" fill="none" stroke="black"/>
<path d="M63.9961,136.422h -6.80315" fill="none" stroke="black"/>
<path d="M63.9961,129.808h -6.80315" fill="none" stroke="black"/>
<path d="M70.7992,123.194h -13.6063" fill="none" stroke="black"/>
<path d="M63.9961,116.581h -6.80315" fill="none" stroke="black"/>
<path d="M63.9961,109.967h -6.80315" fill="none" stroke="black"/>
<path d="M63.9961,103.354h -6.80315" fill="none" stroke="black"/>
<path d="M63.9961,96.7403h -6.80315" fill="none" stroke="black"/>
<path d="M70.7992,90.1268h -13.6063" fill="none" stroke="black"/>
<path d="M63.9961,83.5132h -6.80315" fill="none" stroke="black"/>
<path d="M63.9961,76.8997h -6.80315" fill="none" stroke="black"/>
<path d="M63.9961,70.2861h -6.80315" fill="none" stroke="black"/>
<path d="M63.9961,63.6726h -6.80315" fill="none" stroke="black"/>
<path d="M70.7992,57.059h -13.6063" fill="none" stroke="black"/>
<path d="M70.7992,354.668h -13.6063" fill="none" stroke="black"/>
<path d="M63.9961,361.282h -6.80315" fill="none" stroke="black"/>
<path d="M63.9961,367.895h -6.80315" fill="none" stroke="black"/>
<path d="M70.7992,57.059h -13.6063" fill="none" stroke="black"/>
<path d="M63.9961,50.4455h -6.80315" fill="none" stroke="black"/>
<path d="M63.9961,43.832h -6.80315" fill="none" stroke="black"/>
<text xml:space="preserve" x="32.2594" y="359.308" fill="black" font-size="13.7726" font-family="Helvetica">188</text>
<text xml:space="preserve" x="32.2594" y="326.126" fill="black" font-size="13.7726" font-family="Helvetica">189</text>
<text xml:space="preserve" x="32.2594" y="292.945" fill="black" font-size="13.7726" font-family="Helvetica">190</text>
<text xml:space="preserve" x="34.6295" y="259.764" fill="black" font-size="13.7726" font-family="Helvetica">191</text>
<text xml:space="preserve" x="32.2594" y="227.056" fill="black" font-size="13.7726" font-family="Helvetica">192</text>
<text xml:space="preserve" x="32.2594" y="193.875" fill="black" font-size="13.7726" font-family="Helvetica">193</text>
<text xml:space="preserve" x="32.2594" y="160.693" fill="black" font-size="13.7726" font-family="Helvetica">194</text>
<text xml:space="preserve" x="32.2594" y="127.512" fill="black" font-size="13.7726" font-family="Helvetica">195</text>
<text xml:space="preserve" x="32.2594" y="94.8042" fill="black" font-size="13.7726" font-family="Helvetica">196</text>
<text xml:space="preserve" x="32.2594" y="61.6227" fill="black" font-size="13.7726" font-family="Helvetica">197</text>
<g transform="rotate(-90,15.1947,45.98)">
<text xml:space="preserve" x="15.1947" y="45.98" fill="black" font-size="9.34839" font-family="Helvetica">2</text>
</g>
<g transform="rotate(-90,19.4608,50.2462)">
<text xml:space="preserve" x="19.4608" y="50.2462" fill="black" font-size="13.7726" font-family="Helvetica"> </text>
</g>
<g transform="rotate(-90,19.4608,57.3565)">
<text xml:space="preserve" x="19.4608" y="57.3565" fill="black" font-size="13.7726" font-family="Times">&#0967;</text>
</g>
<g stroke="black" stroke-width="1" fill="none">
<line x1="118.219" y1="41.4379" x2="122.011" y2="41.4379"/><line x1="120.115" y1="39.5418" x2="120.115" y2="43.3339"/><line x1="118.219" y1="39.5418" x2="122.011" y2="43.3339"/><line x1="118.219" y1="43.3339" x2="122.011" y2="39.5418"/>
<line x1="122.666" y1="74.2668" x2="126.458" y2="74.2668"/><line x1="124.562" y1="72.3708" x2="124.562" y2="76.1629"/><line x1="122.666" y1="72.3708" x2="126.458" y2="76.1629"/><line x1="122.666" y1="76.1629" x2="126.458" y2="72.3708"/>
<line x1="127.113" y1="75.6618" x2="130.905" y2="75.6618"/><line x1="129.009" y1="73.7657" x2="129.009" y2="77.5579"/><line x1="127.113" y1="73.7657" x2="130.905" y2="77.5579"/><line x1="127.113" y1="77.5579" x2="130.905" y2="73.7657"/>
<line x1="131.56" y1="76.6778" x2="135.352" y2="76.6778"/><line x1="133.456" y1="74.7817" x2="133.456" y2="78.5739"/><line x1="131.56" y1="74.7817" x2="135.352" y2="78.5739"/><line x1="131.56" y1="78.5739" x2="135.352" y2="74.7817"/>
<line x1="136.007" y1="105.121" x2="139.799" y2="105.121"/><line x1="137.903" y1="103.225" x2="137.903" y2="107.017"/><line x1="136.007" y1="103.225" x2="139.799" y2="107.017"/><line x1="136.007" y1="107.017" x2="139.799" y2="103.225"/>
<line x1="140.454" y1="119.417" x2="144.246" y2="119.417"/><line x1="142.35" y1="117.521" x2="142.35" y2="121.313"/><line x1="140.454" y1="117.521" x2="144.246" y2="121.313"/><line x1="140.454" y1="121.313" x2="144.246" y2="117.521"/>
<line x1="144.901" y1="111.119" x2="148.693" y2="111.119"/><line x1="146.797" y1="109.222" x2="146.797" y2="113.015"/><line x1="144.901" y1="109.222" x2="148.693" y2="113.015"/><line x1="144.901" y1="113.015" x2="148.693" y2="109.222"/>
</g>
<g stroke="black" stroke-width="1" fill="none">
<line x1="153.795" y1="51.6819" x2="157.587" y2="51.6819"/><line x1="155.691" y1="49.7858" x2="155.691" y2="53.578"/><line x1="153.795" y1="49.7858" x2="157.587" y2="53.578"/><line x1="153.795" y1="53.578" x2="157.587" y2="49.7858"/>
<line x1="158.242" y1="43.5378" x2="162.034" y2="43.5378"/><line x1="160.138" y1="41.6417" x2="160.138" y2="45.4339"/><line x1="158.242" y1="41.6417" x2="162.034" y2="45.4339"/><line x1="158.242" y1="45.4339" x2="162.034" y2="41.6417"/>
<line x1="162.688" y1="78.6559" x2="166.481" y2="78.6559"/><line x1="164.585" y1="76.7598" x2="164.585" y2="80.552"/><line x1="162.688" y1="76.7598" x2="166.481" y2="80.552"/><line x1="162.688" y1="80.552" x2="166.481" y2="76.7598"/>
<line x1="167.135" y1="78.3107" x2="170.928" y2="78.3107"/><line x1="169.032" y1="76.4146" x2="169.032" y2="80.2068"/><line x1="167.135" y1="76.4146" x2="170.928" y2="80.2068"/><line x1="167.135" y1="80.2068" x2="170.928" y2="76.4146"/>
<line x1="171.582" y1="45.9885" x2="175.375" y2="45.9885"/><line x1="173.478" y1="44.0924" x2="173.478" y2="47.8845"/><line x1="171.582" y1="44.0924" x2="175.375" y2="47.8845"/><line x1="171.582" y1="47.8845" x2="175.375" y2="44.0924"/>
<line x1="176.029" y1="56.7519" x2="179.821" y2="56.7519"/><line x1="177.925" y1="54.8558" x2="177.925" y2="58.648"/><line x1="176.029" y1="54.8558" x2="179.821" y2="58.648"/><line x1="176.029" y1="58.648" x2="179.821" y2="54.8558"/>
<line x1="180.476" y1="59.8481" x2="184.268" y2="59.8481"/><line x1="182.372" y1="57.9521" x2="182.372" y2="61.7442"/><line x1="180.476" y1="57.9521" x2="184.268" y2="61.7442"/><line x1="180.476" y1="61.7442" x2="184.268" y2="57.9521"/>
<line x1="184.923" y1="152.86" x2="188.715" y2="152.86"/><line x1="186.819" y1="150.964" x2="186.819" y2="154.756"/><line x1="184.923" y1="150.964" x2="188.715" y2="154.756"/><line x1="184.923" y1="154.756" x2="188.715" y2="150.964"/>
<line x1="189.37" y1="99.9849" x2="193.162" y2="99.9849"/><line x1="191.266" y1="98.0888" x2="191.266" y2="101.881"/><line x1="189.37" y1="98.0888" x2="193.162" y2="101.881"/><line x1="189.37" y1="101.881" x2="193.162" y2="98.0888"/>
<line x1="193.817" y1="80.6697" x2="197.609" y2="80.6697"/><line x1="195.713" y1="78.7736" x2="195.713" y2="82.5658"/><line x1="193.817" y1="78.7736" x2="197.609" y2="82.5658"/><line x1="193.817" y1="82.5658" x2="197.609" y2="78.7736"/>
<line x1="198.264" y1="54.7618" x2="202.056" y2="54.7618"/><line x1="200.16" y1="52.8657" x2="200.16" y2="56.6579"/><line x1="198.264" y1="52.8657" x2="202.056" y2="56.6579"/><line x1="198.264" y1="56.6579" x2="202.056" y2="52.8657"/>
<line x1="202.711" y1="104.355" x2="206.503" y2="104.355"/><line x1="204.607" y1="102.459" x2="204.607" y2="106.251"/><line x1="202.711" y1="102.459" x2="206.503" y2="106.251"/><line x1="202.711" y1="106.251" x2="206.503" y2="102.459"/>
<line x1="207.158" y1="112.787" x2="210.95" y2="112.787"/><line x1="209.054" y1="110.89" x2="209.054" y2="114.683"/><line x1="207.158" y1="110.89" x2="210.95" y2="114.683"/><line x1="207.158" y1="114.683" x2="210.95" y2="110.89"/>
<line x1="211.605" y1="75.1792" x2="215.397" y2="75.1792"/><line x1="213.501" y1="73.2831" x2="213.501" y2="77.0753"/><line x1="211.605" y1="73.2831" x2="215.397" y2="77.0753"/><line x1="211.605" y1="77.0753" x2="215.397" y2="73.2831"/>
</g>
<g stroke="black" stroke-width="1" fill="none">
<line x1="224.946" y1="82.0815" x2="228.738" y2="82.0815"/><line x1="226.842" y1="80.1854" x2="226.842" y2="83.9776"/><line x1="224.946" y1="80.1854" x2="228.738" y2="83.9776"/><line x1="224.946" y1="83.9776" x2="228.738" y2="80.1854"/>
<line x1="229.393" y1="104.048" x2="233.185" y2="104.048"/><line x1="231.289" y1="102.152" x2="231.289" y2="105.944"/><line x1="229.393" y1="102.152" x2="233.185" y2="105.944"/><line x1="229.393" y1="105.944" x2="233.185" y2="102.152"/>
<line x1="233.84" y1="137.916" x2="237.632" y2="137.916"/><line x1="235.736" y1="136.02" x2="235.736" y2="139.812"/><line x1="233.84" y1="136.02" x2="237.632" y2="139.812"/><line x1="233.84" y1="139.812" x2="237.632" y2="136.02"/>
<line x1="238.287" y1="285.868" x2="242.079" y2="285.868"/><line x1="240.183" y1="283.972" x2="240.183" y2="287.764"/><line x1="238.287" y1="283.972" x2="242.079" y2="287.764"/><line x1="238.287" y1="287.764" x2="242.079" y2="283.972"/>
<line x1="242.734" y1="242.508" x2="246.526" y2="242.508"/><line x1="244.63" y1="240.612" x2="244.63" y2="244.404"/><line x1="242.734" y1="240.612" x2="246.526" y2="244.404"/><line x1="242.734" y1="244.404" x2="246.526" y2="240.612"/>
<line x1="247.18" y1="235.945" x2="250.973" y2="235.945"/><line x1="249.077" y1="234.049" x2="249.077" y2="237.841"/><line x1="247.18" y1="234.049" x2="250.973" y2="237.841"/><line x1="247.18" y1="237.841" x2="250.973" y2="234.049"/>
<line x1="251.627" y1="205.856" x2="255.42" y2="205.856"/><line x1="253.524" y1="203.959" x2="253.524" y2="207.752"/><line x1="251.627" y1="203.959" x2="255.42" y2="207.752"/><line x1="251.627" y1="207.752" x2="255.42" y2="203.959"/>
<line x1="256.074" y1="190.874" x2="259.867" y2="190.874"/><line x1="257.97" y1="188.978" x2="257.97" y2="192.77"/><line x1="256.074" y1="188.978" x2="259.867" y2="192.77"/><line x1="256.074" y1="192.77" x2="259.867" y2="188.978"/>
<line x1="260.521" y1="199.782" x2="264.314" y2="199.782"/><line x1="262.417" y1="197.886" x2="262.417" y2="201.678"/><line x1="260.521" y1="197.886" x2="264.314" y2="201.678"/><line x1="260.521" y1="201.678" x2="264.314" y2="197.886"/>
<line x1="264.968" y1="186.872" x2="268.76" y2="186.872"/><line x1="266.864" y1="184.976" x2="266.864" y2="188.768"/><line x1="264.968" y1="184.976" x2="268.76" y2="188.768"/><line x1="264.968" y1="188.768" x2="268.76" y2="184.976"/>
<line x1="269.415" y1="201.635" x2="273.207" y2="201.635"/><line x1="271.311" y1="199.739" x2="271.311" y2="203.531"/><line x1="269.415" y1="199.739" x2="273.207" y2="203.531"/><line x1="269.415" y1="203.531" x2="273.207" y2="199.739"/>
<line x1="273.862" y1="208.193" x2="277.654" y2="208.193"/><line x1="275.758" y1="206.297" x2="275.758" y2="210.089"/><line x1="273.862" y1="206.297" x2="277.654" y2="210.089"/><line x1="273.862" y1="210.089" x2="277.654" y2="206.297"/>
<line x1="278.309" y1="276.151" x2="282.101" y2="276.151"/><line x1="280.205" y1="274.255" x2="280.205" y2="278.047"/><line x1="278.309" y1="274.255" x2="282.101" y2="278.047"/><line x1="278.309" y1="278.047" x2="282.101" y2="274.255"/>
<line x1="282.756" y1="305.876" x2="286.548" y2="305.876"/><line x1="284.652" y1="303.98" x2="284.652" y2="307.772"/><line x1="282.756" y1="303.98" x2="286.548" y2="307.772"/><line x1="282.756" y1="307.772" x2="286.548" y2="303.98"/>
<line x1="287.203" y1="227.352" x2="290.995" y2="227.352"/><line x1="289.099" y1="225.456" x2="289.099" y2="229.249"/><line x1="287.203" y1="225.456" x2="290.995" y2="229.249"/><line x1="287.203" y1="229.249" x2="290.995" y2="225.456"/>
<line x1="291.65" y1="247.667" x2="295.442" y2="247.667"/><line x1="293.546" y1="245.771" x2="293.546" y2="249.563"/><line x1="291.65" y1="245.771" x2="295.442" y2="249.563"/><line x1="291.65" y1="249.563" x2="295.442" y2="245.771"/>
<line x1="296.097" y1="271.534" x2="299.889" y2="271.534"/><line x1="297.993" y1="269.638" x2="297.993" y2="273.43"/><line x1="296.097" y1="269.638" x2="299.889" y2="273.43"/><line x1="296.097" y1="273.43" x2="299.889" y2="269.638"/>
<line x1="300.544" y1="271.321" x2="304.336" y2="271.321"/><line x1="302.44" y1="269.425" x2="302.44" y2="273.217"/><line x1="300.544" y1="269.425" x2="304.336" y2="273.217"/><line x1="300.544" y1="273.217" x2="304.336" y2="269.425"/>
<line x1="304.991" y1="266.663" x2="308.783" y2="266.663"/><line x1="306.887" y1="264.767" x2="306.887" y2="268.559"/><line x1="304.991" y1="264.767" x2="308.783" y2="268.559"/><line x1="304.991" y1="268.559" x2="308.783" y2="264.767"/>
<line x1="309.438" y1="260.826" x2="313.23" y2="260.826"/><line x1="311.334" y1="258.93" x2="311.334" y2="262.722"/><line x1="309.438" y1="258.93" x2="313.23" y2="262.722"/><line x1="309.438" y1="262.722" x2="313.23" y2="258.93"/>
<line x1="313.885" y1="239.323" x2="317.677" y2="239.323"/><line x1="315.781" y1="237.427" x2="315.781" y2="241.219"/><line x1="313.885" y1="237.427" x2="317.677" y2="241.219"/><line x1="313.885" y1="241.219" x2="317.677" y2="237.427"/>
<line x1="318.332" y1="206.381" x2="322.124" y2="206.381"/><line x1="320.228" y1="204.485" x2="320.228" y2="208.277"/><line x1="318.332" y1="204.485" x2="322.124" y2="208.277"/><line x1="318.332" y1="208.277" x2="322.124" y2="204.485"/>
<line x1="322.779" y1="249.882" x2="326.571" y2="249.882"/><line x1="324.675" y1="247.986" x2="324.675" y2="251.779"/><line x1="322.779" y1="247.986" x2="326.571" y2="251.779"/><line x1="322.779" y1="251.779" x2="326.571" y2="247.986"/>
<line x1="327.226" y1="250.204" x2="331.018" y2="250.204"/><line x1="329.122" y1="248.308" x2="329.122" y2="252.1"/><line x1="327.226" y1="248.308" x2="331.018" y2="252.1"/><line x1="327.226" y1="252.1" x2="331.018" y2="248.308"/>
<line x1="331.672" y1="253.169" x2="335.465" y2="253.169"/><line x1="333.569" y1="251.272" x2="333.569" y2="255.065"/><line x1="331.672" y1="251.272" x2="335.465" y2="255.065"/><line x1="331.672" y1="255.065" x2="335.465" y2="251.272"/>
<line x1="336.119" y1="198.504" x2="339.912" y2="198.504"/><line x1="338.016" y1="196.608" x2="338.016" y2="200.401"/><line x1="336.119" y1="196.608" x2="339.912" y2="200.401"/><line x1="336.119" y1="200.401" x2="339.912" y2="196.608"/>
<line x1="340.566" y1="132.924" x2="344.359" y2="132.924"/><line x1="342.462" y1="131.028" x2="342.462" y2="134.821"/><line x1="340.566" y1="131.028" x2="344.359" y2="134.821"/><line x1="340.566" y1="134.821" x2="344.359" y2="131.028"/>
<line x1="345.013" y1="105.028" x2="348.806" y2="105.028"/><line x1="346.909" y1="103.132" x2="346.909" y2="106.924"/><line x1="345.013" y1="103.132" x2="348.806" y2="106.924"/><line x1="345.013" y1="106.924" x2="348.806" y2="103.132"/>
<line x1="349.46" y1="116.353" x2="353.252" y2="116.353"/><line x1="351.356" y1="114.457" x2="351.356" y2="118.249"/><line x1="349.46" y1="114.457" x2="353.252" y2="118.249"/><line x1="349.46" y1="118.249" x2="353.252" y2="114.457"/>
<line x1="353.907" y1="72.058" x2="357.699" y2="72.058"/><line x1="355.803" y1="70.1619" x2="355.803" y2="73.954"/><line x1="353.907" y1="70.1619" x2="357.699" y2="73.954"/><line x1="353.907" y1="73.954" x2="357.699" y2="70.1619"/>
<line x1="358.354" y1="90.6737" x2="362.146" y2="90.6737"/><line x1="360.25" y1="88.7776" x2="360.25" y2="92.5698"/><line x1="358.354" y1="88.7776" x2="362.146" y2="92.5698"/><line x1="358.354" y1="92.5698" x2="362.146" y2="88.7776"/>
<line x1="362.801" y1="56.8052" x2="366.593" y2="56.8052"/><line x1="364.697" y1="54.9091" x2="364.697" y2="58.7012"/><line x1="362.801" y1="54.9091" x2="366.593" y2="58.7012"/><line x1="362.801" y1="58.7012" x2="366.593" y2="54.9091"/>
</g>
<g stroke="black" stroke-width="1" fill="none">
<line x1="393.93" y1="70.0708" x2="397.722" y2="70.0708"/><line x1="395.826" y1="68.1747" x2="395.826" y2="71.9669"/><line x1="393.93" y1="68.1747" x2="397.722" y2="71.9669"/><line x1="393.93" y1="71.9669" x2="397.722" y2="68.1747"/>
<line x1="398.377" y1="95.7866" x2="402.169" y2="95.7866"/><line x1="400.273" y1="93.8905" x2="400.273" y2="97.6827"/><line x1="398.377" y1="93.8905" x2="402.169" y2="97.6827"/><line x1="398.377" y1="97.6827" x2="402.169" y2="93.8905"/>
<line x1="402.824" y1="89.8598" x2="406.616" y2="89.8598"/><line x1="404.72" y1="87.9637" x2="404.72" y2="91.7559"/><line x1="402.824" y1="87.9637" x2="406.616" y2="91.7559"/><line x1="402.824" y1="91.7559" x2="406.616" y2="87.9637"/>
<line x1="407.271" y1="94.9613" x2="411.063" y2="94.9613"/><line x1="409.167" y1="93.0652" x2="409.167" y2="96.8574"/><line x1="407.271" y1="93.0652" x2="411.063" y2="96.8574"/><line x1="407.271" y1="96.8574" x2="411.063" y2="93.0652"/>
<line x1="411.718" y1="110.754" x2="415.51" y2="110.754"/><line x1="413.614" y1="108.858" x2="413.614" y2="112.65"/><line x1="411.718" y1="108.858" x2="415.51" y2="112.65"/><line x1="411.718" y1="112.65" x2="415.51" y2="108.858"/>
<line x1="416.164" y1="157.029" x2="419.957" y2="157.029"/><line x1="418.061" y1="155.133" x2="418.061" y2="158.925"/><line x1="416.164" y1="155.133" x2="419.957" y2="158.925"/><line x1="416.164" y1="158.925" x2="419.957" y2="155.133"/>
<line x1="420.611" y1="113.037" x2="424.404" y2="113.037"/><line x1="422.508" y1="111.141" x2="422.508" y2="114.933"/><line x1="420.611" y1="111.141" x2="424.404" y2="114.933"/><line x1="420.611" y1="114.933" x2="424.404" y2="111.141"/>
<line x1="425.058" y1="106.284" x2="428.851" y2="106.284"/><line x1="426.954" y1="104.388" x2="426.954" y2="108.18"/><line x1="425.058" y1="104.388" x2="428.851" y2="108.18"/><line x1="425.058" y1="108.18" x2="428.851" y2="104.388"/>
<line x1="429.505" y1="98.1562" x2="433.298" y2="98.1562"/><line x1="431.401" y1="96.2601" x2="431.401" y2="100.052"/><line x1="429.505" y1="96.2601" x2="433.298" y2="100.052"/><line x1="429.505" y1="100.052" x2="433.298" y2="96.2601"/>
<line x1="433.952" y1="81.2253" x2="437.744" y2="81.2253"/><line x1="435.848" y1="79.3293" x2="435.848" y2="83.1214"/><line x1="433.952" y1="79.3293" x2="437.744" y2="83.1214"/><line x1="433.952" y1="83.1214" x2="437.744" y2="79.3293"/>
<line x1="438.399" y1="52.1383" x2="442.191" y2="52.1383"/><line x1="440.295" y1="50.2422" x2="440.295" y2="54.0344"/><line x1="438.399" y1="50.2422" x2="442.191" y2="54.0344"/><line x1="438.399" y1="54.0344" x2="442.191" y2="50.2422"/>
<line x1="442.846" y1="84.2594" x2="446.638" y2="84.2594"/><line x1="444.742" y1="82.3633" x2="444.742" y2="86.1555"/><line x1="442.846" y1="82.3633" x2="446.638" y2="86.1555"/><line x1="442.846" y1="86.1555" x2="446.638" y2="82.3633"/>
<line x1="447.293" y1="55.5679" x2="451.085" y2="55.5679"/><line x1="449.189" y1="53.6718" x2="449.189" y2="57.464"/><line x1="447.293" y1="53.6718" x2="451.085" y2="57.464"/><line x1="447.293" y1="57.464" x2="451.085" y2="53.6718"/>
</g>
<path d="M0.5,272.809h 566.929" fill="none" stroke="#0000ff"/></svg>
