<?xml version="1.0" standalone="no"?>
<svg width="567.429" height="413.846" viewBox="0 0 567.429 413.846" xmlns="http://www.w3.org/2000/svg" shape-rendering="crispEdges">
<title>
figures/chi2zoomin_7PMTnpefilelist20.svg
</title>
<desc>
Creator: ROOT Version 6.18/04
CreationDate: Fri Nov  1 13:55:41 2019</desc>
<defs>
</defs>
<rect x="0.5" y="0" width="566.929" height="413.346" fill="white"/>
<rect x="57.1929" y="41.3346" width="453.543" height="330.677" fill="white"/>
<rect x="57.1929" y="41.3346" width="453.543" height="330.677" fill="none" stroke="black"/>
<path d="M57.1929,372.012h 453.543" fill="none" stroke="black"/>
<path d="M88.8877,41.3346v 330.677" fill="none" stroke="black" stroke-dasharray=" 1, 2"/>
<path d="M133.357,41.3346v 330.677" fill="none" stroke="black" stroke-dasharray=" 1, 2"/>
<path d="M177.827,41.3346v 330.677" fill="none" stroke="black" stroke-dasharray=" 1, 2"/>
<path d="M222.296,41.3346v 330.677" fill="none" stroke="black" stroke-dasharray=" 1, 2"/>
<path d="M266.766,41.3346v 330.677" fill="none" stroke="black" stroke-dasharray=" 1, 2"/>
<path d="M311.235,41.3346v 330.677" fill="none" stroke="black" stroke-dasharray=" 1, 2"/>
<path d="M355.705,41.3346v 330.677" fill="none" stroke="black" stroke-dasharray=" 1, 2"/>
<path d="M400.174,41.3346v 330.677" fill="none" stroke="black" stroke-dasharray=" 1, 2"/>
<path d="M444.644,41.3346v 330.677" fill="none" stroke="black" stroke-dasharray=" 1, 2"/>
<path d="M489.113,41.3346v 330.677" fill="none" stroke="black" stroke-dasharray=" 1, 2"/>
<path d="M88.8877,41.3346v 330.677" fill="none" stroke="black" stroke-dasharray=" 1, 2"/>
<path d="M489.113,41.3346v 330.677" fill="none" stroke="black" stroke-dasharray=" 1, 2"/>
<path d="M57.1929,372.012v -330.677" fill="none" stroke="black"/>
<path d="M57.1929,372.012h 453.543" fill="none" stroke="black"/>
<path d="M88.8877,362.091v 9.92031" fill="none" stroke="black"/>
<path d="M100.005,367.052v 4.96016" fill="none" stroke="black"/>
<path d="M111.122,367.052v 4.96016" fill="none" stroke="black"/>
<path d="M122.24,367.052v 4.96016" fill="none" stroke="black"/>
<path d="M133.357,362.091v 9.92031" fill="none" stroke="black"/>
<path d="M144.475,367.052v 4.96016" fill="none" stroke="black"/>
<path d="M155.592,367.052v 4.96016" fill="none" stroke="black"/>
<path d="M166.709,367.052v 4.96016" fill="none" stroke="black"/>
<path d="M177.827,362.091v 9.92031" fill="none" stroke="black"/>
<path d="M188.944,367.052v 4.96016" fill="none" stroke="black"/>
<path d="M200.061,367.052v 4.96016" fill="none" stroke="black"/>
<path d="M211.179,367.052v 4.96016" fill="none" stroke="black"/>
<path d="M222.296,362.091v 9.92031" fill="none" stroke="black"/>
<path d="M233.414,367.052v 4.96016" fill="none" stroke="black"/>
<path d="M244.531,367.052v 4.96016" fill="none" stroke="black"/>
<path d="M255.648,367.052v 4.96016" fill="none" stroke="black"/>
<path d="M266.766,362.091v 9.92031" fill="none" stroke="black"/>
<path d="M277.883,367.052v 4.96016" fill="none" stroke="black"/>
<path d="M289,367.052v 4.96016" fill="none" stroke="black"/>
<path d="M300.118,367.052v 4.96016" fill="none" stroke="black"/>
<path d="M311.235,362.091v 9.92031" fill="none" stroke="black"/>
<path d="M322.352,367.052v 4.96016" fill="none" stroke="black"/>
<path d="M333.47,367.052v 4.96016" fill="none" stroke="black"/>
<path d="M344.587,367.052v 4.96016" fill="none" stroke="black"/>
<path d="M355.705,362.091v 9.92031" fill="none" stroke="black"/>
<path d="M366.822,367.052v 4.96016" fill="none" stroke="black"/>
<path d="M377.939,367.052v 4.96016" fill="none" stroke="black"/>
<path d="M389.057,367.052v 4.96016" fill="none" stroke="black"/>
<path d="M400.174,362.091v 9.92031" fill="none" stroke="black"/>
<path d="M411.291,367.052v 4.96016" fill="none" stroke="black"/>
<path d="M422.409,367.052v 4.96016" fill="none" stroke="black"/>
<path d="M433.526,367.052v 4.96016" fill="none" stroke="black"/>
<path d="M444.644,362.091v 9.92031" fill="none" stroke="black"/>
<path d="M455.761,367.052v 4.96016" fill="none" stroke="black"/>
<path d="M466.878,367.052v 4.96016" fill="none" stroke="black"/>
<path d="M477.996,367.052v 4.96016" fill="none" stroke="black"/>
<path d="M489.113,362.091v 9.92031" fill="none" stroke="black"/>
<path d="M88.8877,362.091v 9.92031" fill="none" stroke="black"/>
<path d="M77.7704,367.052v 4.96016" fill="none" stroke="black"/>
<path d="M66.653,367.052v 4.96016" fill="none" stroke="black"/>
<path d="M489.113,362.091v 9.92031" fill="none" stroke="black"/>
<path d="M500.23,367.052v 4.96016" fill="none" stroke="black"/>
<text xml:space="preserve" x="72.0772" y="385.379" fill="black" font-size="13.7726" font-family="Helvetica">0.856</text>
<text xml:space="preserve" x="116.635" y="385.379" fill="black" font-size="13.7726" font-family="Helvetica">0.858</text>
<text xml:space="preserve" x="164.985" y="385.379" fill="black" font-size="13.7726" font-family="Helvetica">0.86</text>
<text xml:space="preserve" x="205.277" y="385.379" fill="black" font-size="13.7726" font-family="Helvetica">0.862</text>
<text xml:space="preserve" x="249.835" y="385.379" fill="black" font-size="13.7726" font-family="Helvetica">0.864</text>
<text xml:space="preserve" x="294.393" y="385.379" fill="black" font-size="13.7726" font-family="Helvetica">0.866</text>
<text xml:space="preserve" x="338.951" y="385.379" fill="black" font-size="13.7726" font-family="Helvetica">0.868</text>
<text xml:space="preserve" x="387.301" y="385.379" fill="black" font-size="13.7726" font-family="Helvetica">0.87</text>
<text xml:space="preserve" x="427.593" y="385.379" fill="black" font-size="13.7726" font-family="Helvetica">0.872</text>
<text xml:space="preserve" x="472.151" y="385.379" fill="black" font-size="13.7726" font-family="Helvetica">0.874</text>
<text xml:space="preserve" x="413.372" y="400.074" fill="black" font-size="13.7726" font-family="Helvetica">calibration factor</text>
<path d="M57.1929,372.012v -330.677" fill="none" stroke="black"/>
<path d="M70.7992,370.34h -13.6063" fill="none" stroke="black"/>
<path d="M63.9961,363.727h -6.80315" fill="none" stroke="black"/>
<path d="M63.9961,357.113h -6.80315" fill="none" stroke="black"/>
<path d="M63.9961,350.5h -6.80315" fill="none" stroke="black"/>
<path d="M63.9961,343.886h -6.80315" fill="none" stroke="black"/>
<path d="M70.7992,337.272h -13.6063" fill="none" stroke="black"/>
<path d="M63.9961,330.659h -6.80315" fill="none" stroke="black"/>
<path d="M63.9961,324.045h -6.80315" fill="none" stroke="black"/>
<path d="M63.9961,317.432h -6.80315" fill="none" stroke="black"/>
<path d="M63.9961,310.818h -6.80315" fill="none" stroke="black"/>
<path d="M70.7992,304.205h -13.6063" fill="none" stroke="black"/>
<path d="M63.9961,297.591h -6.80315" fill="none" stroke="black"/>
<path d="M63.9961,290.978h -6.80315" fill="none" stroke="black"/>
<path d="M63.9961,284.364h -6.80315" fill="none" stroke="black"/>
<path d="M63.9961,277.751h -6.80315" fill="none" stroke="black"/>
<path d="M70.7992,271.137h -13.6063" fill="none" stroke="black"/>
<path d="M63.9961,264.524h -6.80315" fill="none" stroke="black"/>
<path d="M63.9961,257.91h -6.80315" fill="none" stroke="black"/>
<path d="M63.9961,251.296h -6.80315" fill="none" stroke="black"/>
<path d="M63.9961,244.683h -6.80315" fill="none" stroke="black"/>
<path d="M70.7992,238.069h -13.6063" fill="none" stroke="black"/>
<path d="M63.9961,231.456h -6.80315" fill="none" stroke="black"/>
<path d="M63.9961,224.842h -6.80315" fill="none" stroke="black"/>
<path d="M63.9961,218.229h -6.80315" fill="none" stroke="black"/>
<path d="M63.9961,211.615h -6.80315" fill="none" stroke="black"/>
<path d="M70.7992,205.002h -13.6063" fill="none" stroke="black"/>
<path d="M63.9961,198.388h -6.80315" fill="none" stroke="black"/>
<path d="M63.9961,191.775h -6.80315" fill="none" stroke="black"/>
<path d="M63.9961,185.161h -6.80315" fill="none" stroke="black"/>
<path d="M63.9961,178.548h -6.80315" fill="none" stroke="black"/>
<path d="M70.7992,171.934h -13.6063" fill="none" stroke="black"/>
<path d="M63.9961,165.32h -6.80315" fill="none" stroke="black"/>
<path d="M63.9961,158.707h -6.80315" fill="none" stroke="black"/>
<path d="M63.9961,152.093h -6.80315" fill="none" stroke="black"/>
<path d="M63.9961,145.48h -6.80315" fill="none" stroke="black"/>
<path d="M70.7992,138.866h -13.6063" fill="none" stroke="black"/>
<path d="M63.9961,132.253h -6.80315" fill="none" stroke="black"/>
<path d="M63.9961,125.639h -6.80315" fill="none" stroke="black"/>
<path d="M63.9961,119.026h -6.80315" fill="none" stroke="black"/>
<path d="M63.9961,112.412h -6.80315" fill="none" stroke="black"/>
<path d="M70.7992,105.799h -13.6063" fill="none" stroke="black"/>
<path d="M63.9961,99.185h -6.80315" fill="none" stroke="black"/>
<path d="M63.9961,92.5715h -6.80315" fill="none" stroke="black"/>
<path d="M63.9961,85.9579h -6.80315" fill="none" stroke="black"/>
<path d="M63.9961,79.3444h -6.80315" fill="none" stroke="black"/>
<path d="M70.7992,72.7309h -13.6063" fill="none" stroke="black"/>
<path d="M70.7992,370.34h -13.6063" fill="none" stroke="black"/>
<path d="M70.7992,72.7309h -13.6063" fill="none" stroke="black"/>
<path d="M63.9961,66.1173h -6.80315" fill="none" stroke="black"/>
<path d="M63.9961,59.5038h -6.80315" fill="none" stroke="black"/>
<path d="M63.9961,52.8902h -6.80315" fill="none" stroke="black"/>
<path d="M63.9961,46.2767h -6.80315" fill="none" stroke="black"/>
<text xml:space="preserve" x="32.2594" y="374.951" fill="black" font-size="13.7726" font-family="Helvetica">203</text>
<text xml:space="preserve" x="32.2594" y="341.769" fill="black" font-size="13.7726" font-family="Helvetica">204</text>
<text xml:space="preserve" x="32.2594" y="308.588" fill="black" font-size="13.7726" font-family="Helvetica">205</text>
<text xml:space="preserve" x="32.2594" y="275.406" fill="black" font-size="13.7726" font-family="Helvetica">206</text>
<text xml:space="preserve" x="32.2594" y="242.699" fill="black" font-size="13.7726" font-family="Helvetica">207</text>
<text xml:space="preserve" x="32.2594" y="209.517" fill="black" font-size="13.7726" font-family="Helvetica">208</text>
<text xml:space="preserve" x="32.2594" y="176.336" fill="black" font-size="13.7726" font-family="Helvetica">209</text>
<text xml:space="preserve" x="32.2594" y="143.154" fill="black" font-size="13.7726" font-family="Helvetica">210</text>
<text xml:space="preserve" x="34.6295" y="110.921" fill="black" font-size="13.7726" font-family="Helvetica">211</text>
<text xml:space="preserve" x="32.2594" y="77.7394" fill="black" font-size="13.7726" font-family="Helvetica">212</text>
<g transform="rotate(-90,15.1947,45.98)">
<text xml:space="preserve" x="15.1947" y="45.98" fill="black" font-size="9.34839" font-family="Helvetica">2</text>
</g>
<g transform="rotate(-90,19.4608,50.2462)">
<text xml:space="preserve" x="19.4608" y="50.2462" fill="black" font-size="13.7726" font-family="Helvetica"> </text>
</g>
<g transform="rotate(-90,19.4608,57.3565)">
<text xml:space="preserve" x="19.4608" y="57.3565" fill="black" font-size="13.7726" font-family="Times">&#0967;</text>
</g>
<g stroke="black" stroke-width="1" fill="none">
<line x1="55.863" y1="79.2395" x2="59.6552" y2="79.2395"/><line x1="57.7591" y1="77.3434" x2="57.7591" y2="81.1356"/><line x1="55.863" y1="77.3434" x2="59.6552" y2="81.1356"/><line x1="55.863" y1="81.1356" x2="59.6552" y2="77.3434"/>
</g>
<g stroke="black" stroke-width="1" fill="none">
<line x1="64.7569" y1="62.6821" x2="68.5491" y2="62.6821"/><line x1="66.653" y1="60.786" x2="66.653" y2="64.5781"/><line x1="64.7569" y1="60.786" x2="68.5491" y2="64.5781"/><line x1="64.7569" y1="64.5781" x2="68.5491" y2="60.786"/>
</g>
<g stroke="black" stroke-width="1" fill="none">
<line x1="131.461" y1="68.5787" x2="135.253" y2="68.5787"/><line x1="133.357" y1="66.6826" x2="133.357" y2="70.4748"/><line x1="131.461" y1="66.6826" x2="135.253" y2="70.4748"/><line x1="131.461" y1="70.4748" x2="135.253" y2="66.6826"/>
<line x1="135.908" y1="83.1531" x2="139.7" y2="83.1531"/><line x1="137.804" y1="81.257" x2="137.804" y2="85.0492"/><line x1="135.908" y1="81.257" x2="139.7" y2="85.0492"/><line x1="135.908" y1="85.0492" x2="139.7" y2="81.257"/>
<line x1="140.355" y1="68.3298" x2="144.147" y2="68.3298"/><line x1="142.251" y1="66.4337" x2="142.251" y2="70.2258"/><line x1="140.355" y1="66.4337" x2="144.147" y2="70.2258"/><line x1="140.355" y1="70.2258" x2="144.147" y2="66.4337"/>
<line x1="144.802" y1="118.603" x2="148.594" y2="118.603"/><line x1="146.698" y1="116.707" x2="146.698" y2="120.499"/><line x1="144.802" y1="116.707" x2="148.594" y2="120.499"/><line x1="144.802" y1="120.499" x2="148.594" y2="116.707"/>
<line x1="149.249" y1="76.5089" x2="153.041" y2="76.5089"/><line x1="151.145" y1="74.6128" x2="151.145" y2="78.405"/><line x1="149.249" y1="74.6128" x2="153.041" y2="78.405"/><line x1="149.249" y1="78.405" x2="153.041" y2="74.6128"/>
<line x1="153.696" y1="87.8753" x2="157.488" y2="87.8753"/><line x1="155.592" y1="85.9792" x2="155.592" y2="89.7714"/><line x1="153.696" y1="85.9792" x2="157.488" y2="89.7714"/><line x1="153.696" y1="89.7714" x2="157.488" y2="85.9792"/>
<line x1="158.143" y1="112.808" x2="161.935" y2="112.808"/><line x1="160.039" y1="110.912" x2="160.039" y2="114.704"/><line x1="158.143" y1="110.912" x2="161.935" y2="114.704"/><line x1="158.143" y1="114.704" x2="161.935" y2="110.912"/>
<line x1="162.59" y1="68.6405" x2="166.382" y2="68.6405"/><line x1="164.486" y1="66.7444" x2="164.486" y2="70.5366"/><line x1="162.59" y1="66.7444" x2="166.382" y2="70.5366"/><line x1="162.59" y1="70.5366" x2="166.382" y2="66.7444"/>
<line x1="167.037" y1="70.555" x2="170.829" y2="70.555"/><line x1="168.933" y1="68.6589" x2="168.933" y2="72.451"/><line x1="167.037" y1="68.6589" x2="170.829" y2="72.451"/><line x1="167.037" y1="72.451" x2="170.829" y2="68.6589"/>
<line x1="171.484" y1="55.6403" x2="175.276" y2="55.6403"/><line x1="173.38" y1="53.7442" x2="173.38" y2="57.5364"/><line x1="171.484" y1="53.7442" x2="175.276" y2="57.5364"/><line x1="171.484" y1="57.5364" x2="175.276" y2="53.7442"/>
</g>
<g stroke="black" stroke-width="1" fill="none">
<line x1="189.271" y1="97.7779" x2="193.064" y2="97.7779"/><line x1="191.168" y1="95.8818" x2="191.168" y2="99.674"/><line x1="189.271" y1="95.8818" x2="193.064" y2="99.674"/><line x1="189.271" y1="99.674" x2="193.064" y2="95.8818"/>
<line x1="193.718" y1="122.559" x2="197.511" y2="122.559"/><line x1="195.614" y1="120.663" x2="195.614" y2="124.455"/><line x1="193.718" y1="120.663" x2="197.511" y2="124.455"/><line x1="193.718" y1="124.455" x2="197.511" y2="120.663"/>
<line x1="198.165" y1="85.8928" x2="201.958" y2="85.8928"/><line x1="200.061" y1="83.9967" x2="200.061" y2="87.7889"/><line x1="198.165" y1="83.9967" x2="201.958" y2="87.7889"/><line x1="198.165" y1="87.7889" x2="201.958" y2="83.9967"/>
<line x1="202.612" y1="139.638" x2="206.404" y2="139.638"/><line x1="204.508" y1="137.742" x2="204.508" y2="141.534"/><line x1="202.612" y1="137.742" x2="206.404" y2="141.534"/><line x1="202.612" y1="141.534" x2="206.404" y2="137.742"/>
<line x1="207.059" y1="108.11" x2="210.851" y2="108.11"/><line x1="208.955" y1="106.214" x2="208.955" y2="110.006"/><line x1="207.059" y1="106.214" x2="210.851" y2="110.006"/><line x1="207.059" y1="110.006" x2="210.851" y2="106.214"/>
<line x1="211.506" y1="80.4208" x2="215.298" y2="80.4208"/><line x1="213.402" y1="78.5247" x2="213.402" y2="82.3169"/><line x1="211.506" y1="78.5247" x2="215.298" y2="82.3169"/><line x1="211.506" y1="82.3169" x2="215.298" y2="78.5247"/>
<line x1="215.953" y1="65.8921" x2="219.745" y2="65.8921"/><line x1="217.849" y1="63.996" x2="217.849" y2="67.7882"/><line x1="215.953" y1="63.996" x2="219.745" y2="67.7882"/><line x1="215.953" y1="67.7882" x2="219.745" y2="63.996"/>
<line x1="220.4" y1="110.922" x2="224.192" y2="110.922"/><line x1="222.296" y1="109.026" x2="222.296" y2="112.819"/><line x1="220.4" y1="109.026" x2="224.192" y2="112.819"/><line x1="220.4" y1="112.819" x2="224.192" y2="109.026"/>
<line x1="224.847" y1="131.643" x2="228.639" y2="131.643"/><line x1="226.743" y1="129.747" x2="226.743" y2="133.539"/><line x1="224.847" y1="129.747" x2="228.639" y2="133.539"/><line x1="224.847" y1="133.539" x2="228.639" y2="129.747"/>
<line x1="229.294" y1="171.163" x2="233.086" y2="171.163"/><line x1="231.19" y1="169.267" x2="231.19" y2="173.059"/><line x1="229.294" y1="169.267" x2="233.086" y2="173.059"/><line x1="229.294" y1="173.059" x2="233.086" y2="169.267"/>
<line x1="233.741" y1="138.605" x2="237.533" y2="138.605"/><line x1="235.637" y1="136.709" x2="235.637" y2="140.501"/><line x1="233.741" y1="136.709" x2="237.533" y2="140.501"/><line x1="233.741" y1="140.501" x2="237.533" y2="136.709"/>
<line x1="238.188" y1="156.055" x2="241.98" y2="156.055"/><line x1="240.084" y1="154.159" x2="240.084" y2="157.951"/><line x1="238.188" y1="154.159" x2="241.98" y2="157.951"/><line x1="238.188" y1="157.951" x2="241.98" y2="154.159"/>
<line x1="242.635" y1="153.812" x2="246.427" y2="153.812"/><line x1="244.531" y1="151.916" x2="244.531" y2="155.708"/><line x1="242.635" y1="151.916" x2="246.427" y2="155.708"/><line x1="242.635" y1="155.708" x2="246.427" y2="151.916"/>
<line x1="247.082" y1="219.793" x2="250.874" y2="219.793"/><line x1="248.978" y1="217.897" x2="248.978" y2="221.689"/><line x1="247.082" y1="217.897" x2="250.874" y2="221.689"/><line x1="247.082" y1="221.689" x2="250.874" y2="217.897"/>
<line x1="251.529" y1="243.811" x2="255.321" y2="243.811"/><line x1="253.425" y1="241.915" x2="253.425" y2="245.707"/><line x1="251.529" y1="241.915" x2="255.321" y2="245.707"/><line x1="251.529" y1="245.707" x2="255.321" y2="241.915"/>
<line x1="255.976" y1="269.821" x2="259.768" y2="269.821"/><line x1="257.872" y1="267.925" x2="257.872" y2="271.717"/><line x1="255.976" y1="267.925" x2="259.768" y2="271.717"/><line x1="255.976" y1="271.717" x2="259.768" y2="267.925"/>
<line x1="260.423" y1="257.186" x2="264.215" y2="257.186"/><line x1="262.319" y1="255.29" x2="262.319" y2="259.082"/><line x1="260.423" y1="255.29" x2="264.215" y2="259.082"/><line x1="260.423" y1="259.082" x2="264.215" y2="255.29"/>
<line x1="264.87" y1="280.296" x2="268.662" y2="280.296"/><line x1="266.766" y1="278.4" x2="266.766" y2="282.192"/><line x1="264.87" y1="278.4" x2="268.662" y2="282.192"/><line x1="264.87" y1="282.192" x2="268.662" y2="278.4"/>
<line x1="269.316" y1="274.552" x2="273.109" y2="274.552"/><line x1="271.213" y1="272.656" x2="271.213" y2="276.448"/><line x1="269.316" y1="272.656" x2="273.109" y2="276.448"/><line x1="269.316" y1="276.448" x2="273.109" y2="272.656"/>
<line x1="273.763" y1="296.083" x2="277.556" y2="296.083"/><line x1="275.66" y1="294.187" x2="275.66" y2="297.979"/><line x1="273.763" y1="294.187" x2="277.556" y2="297.979"/><line x1="273.763" y1="297.979" x2="277.556" y2="294.187"/>
<line x1="278.21" y1="300.531" x2="282.003" y2="300.531"/><line x1="280.106" y1="298.635" x2="280.106" y2="302.427"/><line x1="278.21" y1="298.635" x2="282.003" y2="302.427"/><line x1="278.21" y1="302.427" x2="282.003" y2="298.635"/>
<line x1="282.657" y1="305.876" x2="286.45" y2="305.876"/><line x1="284.553" y1="303.98" x2="284.553" y2="307.772"/><line x1="282.657" y1="303.98" x2="286.45" y2="307.772"/><line x1="282.657" y1="307.772" x2="286.45" y2="303.98"/>
<line x1="287.104" y1="270.585" x2="290.896" y2="270.585"/><line x1="289" y1="268.689" x2="289" y2="272.482"/><line x1="287.104" y1="268.689" x2="290.896" y2="272.482"/><line x1="287.104" y1="272.482" x2="290.896" y2="268.689"/>
<line x1="291.551" y1="186.458" x2="295.343" y2="186.458"/><line x1="293.447" y1="184.562" x2="293.447" y2="188.354"/><line x1="291.551" y1="184.562" x2="295.343" y2="188.354"/><line x1="291.551" y1="188.354" x2="295.343" y2="184.562"/>
<line x1="295.998" y1="181.072" x2="299.79" y2="181.072"/><line x1="297.894" y1="179.176" x2="297.894" y2="182.968"/><line x1="295.998" y1="179.176" x2="299.79" y2="182.968"/><line x1="295.998" y1="182.968" x2="299.79" y2="179.176"/>
<line x1="300.445" y1="153.079" x2="304.237" y2="153.079"/><line x1="302.341" y1="151.183" x2="302.341" y2="154.975"/><line x1="300.445" y1="151.183" x2="304.237" y2="154.975"/><line x1="300.445" y1="154.975" x2="304.237" y2="151.183"/>
<line x1="304.892" y1="172.045" x2="308.684" y2="172.045"/><line x1="306.788" y1="170.149" x2="306.788" y2="173.941"/><line x1="304.892" y1="170.149" x2="308.684" y2="173.941"/><line x1="304.892" y1="173.941" x2="308.684" y2="170.149"/>
<line x1="309.339" y1="160.987" x2="313.131" y2="160.987"/><line x1="311.235" y1="159.091" x2="311.235" y2="162.883"/><line x1="309.339" y1="159.091" x2="313.131" y2="162.883"/><line x1="309.339" y1="162.883" x2="313.131" y2="159.091"/>
<line x1="313.786" y1="131.422" x2="317.578" y2="131.422"/><line x1="315.682" y1="129.526" x2="315.682" y2="133.318"/><line x1="313.786" y1="129.526" x2="317.578" y2="133.318"/><line x1="313.786" y1="133.318" x2="317.578" y2="129.526"/>
</g>
<g stroke="black" stroke-width="1" fill="none">
<line x1="322.68" y1="70.3646" x2="326.472" y2="70.3646"/><line x1="324.576" y1="68.4685" x2="324.576" y2="72.2607"/><line x1="322.68" y1="68.4685" x2="326.472" y2="72.2607"/><line x1="322.68" y1="72.2607" x2="326.472" y2="68.4685"/>
<line x1="327.127" y1="109.679" x2="330.919" y2="109.679"/><line x1="329.023" y1="107.783" x2="329.023" y2="111.575"/><line x1="327.127" y1="107.783" x2="330.919" y2="111.575"/><line x1="327.127" y1="111.575" x2="330.919" y2="107.783"/>
</g>
<g stroke="black" stroke-width="1" fill="none">
<line x1="447.194" y1="77.4079" x2="450.987" y2="77.4079"/><line x1="449.09" y1="75.5118" x2="449.09" y2="79.304"/><line x1="447.194" y1="75.5118" x2="450.987" y2="79.304"/><line x1="447.194" y1="79.304" x2="450.987" y2="75.5118"/>
<line x1="451.641" y1="56.9179" x2="455.434" y2="56.9179"/><line x1="453.537" y1="55.0218" x2="453.537" y2="58.8139"/><line x1="451.641" y1="55.0218" x2="455.434" y2="58.8139"/><line x1="451.641" y1="58.8139" x2="455.434" y2="55.0218"/>
<line x1="456.088" y1="48.9104" x2="459.88" y2="48.9104"/><line x1="457.984" y1="47.0143" x2="457.984" y2="50.8065"/><line x1="456.088" y1="47.0143" x2="459.88" y2="50.8065"/><line x1="456.088" y1="50.8065" x2="459.88" y2="47.0143"/>
<line x1="460.535" y1="86.1456" x2="464.327" y2="86.1456"/><line x1="462.431" y1="84.2495" x2="462.431" y2="88.0416"/><line x1="460.535" y1="84.2495" x2="464.327" y2="88.0416"/><line x1="460.535" y1="88.0416" x2="464.327" y2="84.2495"/>
<line x1="464.982" y1="57.7051" x2="468.774" y2="57.7051"/><line x1="466.878" y1="55.809" x2="466.878" y2="59.6012"/><line x1="464.982" y1="55.809" x2="468.774" y2="59.6012"/><line x1="464.982" y1="59.6012" x2="468.774" y2="55.809"/>
<line x1="469.429" y1="84.2187" x2="473.221" y2="84.2187"/><line x1="471.325" y1="82.3226" x2="471.325" y2="86.1148"/><line x1="469.429" y1="82.3226" x2="473.221" y2="86.1148"/><line x1="469.429" y1="86.1148" x2="473.221" y2="82.3226"/>
<line x1="473.876" y1="81.003" x2="477.668" y2="81.003"/><line x1="475.772" y1="79.1069" x2="475.772" y2="82.8991"/><line x1="473.876" y1="79.1069" x2="477.668" y2="82.8991"/><line x1="473.876" y1="82.8991" x2="477.668" y2="79.1069"/>
<line x1="478.323" y1="166.228" x2="482.115" y2="166.228"/><line x1="480.219" y1="164.332" x2="480.219" y2="168.124"/><line x1="478.323" y1="164.332" x2="482.115" y2="168.124"/><line x1="478.323" y1="168.124" x2="482.115" y2="164.332"/>
<line x1="482.77" y1="54.9815" x2="486.562" y2="54.9815"/><line x1="484.666" y1="53.0854" x2="484.666" y2="56.8776"/><line x1="482.77" y1="53.0854" x2="486.562" y2="56.8776"/><line x1="482.77" y1="56.8776" x2="486.562" y2="53.0854"/>
<line x1="487.217" y1="89.1964" x2="491.009" y2="89.1964"/><line x1="489.113" y1="87.3004" x2="489.113" y2="91.0925"/><line x1="487.217" y1="87.3004" x2="491.009" y2="91.0925"/><line x1="487.217" y1="91.0925" x2="491.009" y2="87.3004"/>
<line x1="491.664" y1="87.7575" x2="495.456" y2="87.7575"/><line x1="493.56" y1="85.8614" x2="493.56" y2="89.6536"/><line x1="491.664" y1="85.8614" x2="495.456" y2="89.6536"/><line x1="491.664" y1="89.6536" x2="495.456" y2="85.8614"/>
<line x1="496.111" y1="138.083" x2="499.903" y2="138.083"/><line x1="498.007" y1="136.187" x2="498.007" y2="139.979"/><line x1="496.111" y1="136.187" x2="499.903" y2="139.979"/><line x1="496.111" y1="139.979" x2="499.903" y2="136.187"/>
<line x1="500.558" y1="156.532" x2="504.35" y2="156.532"/><line x1="502.454" y1="154.636" x2="502.454" y2="158.428"/><line x1="500.558" y1="154.636" x2="504.35" y2="158.428"/><line x1="500.558" y1="158.428" x2="504.35" y2="154.636"/>
<line x1="505.005" y1="182.84" x2="508.797" y2="182.84"/><line x1="506.901" y1="180.944" x2="506.901" y2="184.736"/><line x1="505.005" y1="180.944" x2="508.797" y2="184.736"/><line x1="505.005" y1="184.736" x2="508.797" y2="180.944"/>
</g>
<path d="M0.5,272.809h 566.929" fill="none" stroke="#0000ff"/></svg>
