<?xml version="1.0" standalone="no"?>
<svg width="567.429" height="413.846" viewBox="0 0 567.429 413.846" xmlns="http://www.w3.org/2000/svg" shape-rendering="crispEdges">
<title>
figures/chi2_6PMTnpedata190929-01.svg
</title>
<desc>
Creator: ROOT Version 6.18/02
CreationDate: Sun Sep 29 21:06:21 2019</desc>
<defs>
</defs>
<rect x="0.5" y="0" width="566.929" height="413.346" fill="white"/>
<rect x="57.1929" y="41.3346" width="453.543" height="330.677" fill="white"/>
<rect x="57.1929" y="41.3346" width="453.543" height="330.677" fill="none" stroke="black"/>
<path d="M57.1929,372.012h 453.543" fill="none" stroke="black"/>
<path d="M80.3635,41.3346v 330.677" fill="none" stroke="black" stroke-dasharray=" 1, 2"/>
<path d="M125.632,41.3346v 330.677" fill="none" stroke="black" stroke-dasharray=" 1, 2"/>
<path d="M170.9,41.3346v 330.677" fill="none" stroke="black" stroke-dasharray=" 1, 2"/>
<path d="M216.168,41.3346v 330.677" fill="none" stroke="black" stroke-dasharray=" 1, 2"/>
<path d="M261.437,41.3346v 330.677" fill="none" stroke="black" stroke-dasharray=" 1, 2"/>
<path d="M306.705,41.3346v 330.677" fill="none" stroke="black" stroke-dasharray=" 1, 2"/>
<path d="M351.973,41.3346v 330.677" fill="none" stroke="black" stroke-dasharray=" 1, 2"/>
<path d="M397.242,41.3346v 330.677" fill="none" stroke="black" stroke-dasharray=" 1, 2"/>
<path d="M442.51,41.3346v 330.677" fill="none" stroke="black" stroke-dasharray=" 1, 2"/>
<path d="M487.778,41.3346v 330.677" fill="none" stroke="black" stroke-dasharray=" 1, 2"/>
<path d="M80.3635,41.3346v 330.677" fill="none" stroke="black" stroke-dasharray=" 1, 2"/>
<path d="M487.778,41.3346v 330.677" fill="none" stroke="black" stroke-dasharray=" 1, 2"/>
<path d="M57.1929,372.012v -330.677" fill="none" stroke="black"/>
<path d="M510.736,365.09h -453.543" fill="none" stroke="black" stroke-dasharray=" 1, 2"/>
<path d="M510.736,302.104h -453.543" fill="none" stroke="black" stroke-dasharray=" 1, 2"/>
<path d="M510.736,239.118h -453.543" fill="none" stroke="black" stroke-dasharray=" 1, 2"/>
<path d="M510.736,176.132h -453.543" fill="none" stroke="black" stroke-dasharray=" 1, 2"/>
<path d="M510.736,113.145h -453.543" fill="none" stroke="black" stroke-dasharray=" 1, 2"/>
<path d="M510.736,50.1593h -453.543" fill="none" stroke="black" stroke-dasharray=" 1, 2"/>
<path d="M510.736,365.09h -453.543" fill="none" stroke="black" stroke-dasharray=" 1, 2"/>
<path d="M510.736,50.1593h -453.543" fill="none" stroke="black" stroke-dasharray=" 1, 2"/>
<path d="M57.1929,372.012h 453.543" fill="none" stroke="black"/>
<path d="M80.3635,362.091v 9.92031" fill="none" stroke="black"/>
<path d="M91.6806,367.052v 4.96016" fill="none" stroke="black"/>
<path d="M102.998,367.052v 4.96016" fill="none" stroke="black"/>
<path d="M114.315,367.052v 4.96016" fill="none" stroke="black"/>
<path d="M125.632,362.091v 9.92031" fill="none" stroke="black"/>
<path d="M136.949,367.052v 4.96016" fill="none" stroke="black"/>
<path d="M148.266,367.052v 4.96016" fill="none" stroke="black"/>
<path d="M159.583,367.052v 4.96016" fill="none" stroke="black"/>
<path d="M170.9,362.091v 9.92031" fill="none" stroke="black"/>
<path d="M182.217,367.052v 4.96016" fill="none" stroke="black"/>
<path d="M193.534,367.052v 4.96016" fill="none" stroke="black"/>
<path d="M204.851,367.052v 4.96016" fill="none" stroke="black"/>
<path d="M216.168,362.091v 9.92031" fill="none" stroke="black"/>
<path d="M227.486,367.052v 4.96016" fill="none" stroke="black"/>
<path d="M238.803,367.052v 4.96016" fill="none" stroke="black"/>
<path d="M250.12,367.052v 4.96016" fill="none" stroke="black"/>
<path d="M261.437,362.091v 9.92031" fill="none" stroke="black"/>
<path d="M272.754,367.052v 4.96016" fill="none" stroke="black"/>
<path d="M284.071,367.052v 4.96016" fill="none" stroke="black"/>
<path d="M295.388,367.052v 4.96016" fill="none" stroke="black"/>
<path d="M306.705,362.091v 9.92031" fill="none" stroke="black"/>
<path d="M318.022,367.052v 4.96016" fill="none" stroke="black"/>
<path d="M329.339,367.052v 4.96016" fill="none" stroke="black"/>
<path d="M340.656,367.052v 4.96016" fill="none" stroke="black"/>
<path d="M351.973,362.091v 9.92031" fill="none" stroke="black"/>
<path d="M363.291,367.052v 4.96016" fill="none" stroke="black"/>
<path d="M374.608,367.052v 4.96016" fill="none" stroke="black"/>
<path d="M385.925,367.052v 4.96016" fill="none" stroke="black"/>
<path d="M397.242,362.091v 9.92031" fill="none" stroke="black"/>
<path d="M408.559,367.052v 4.96016" fill="none" stroke="black"/>
<path d="M419.876,367.052v 4.96016" fill="none" stroke="black"/>
<path d="M431.193,367.052v 4.96016" fill="none" stroke="black"/>
<path d="M442.51,362.091v 9.92031" fill="none" stroke="black"/>
<path d="M453.827,367.052v 4.96016" fill="none" stroke="black"/>
<path d="M465.144,367.052v 4.96016" fill="none" stroke="black"/>
<path d="M476.461,367.052v 4.96016" fill="none" stroke="black"/>
<path d="M487.778,362.091v 9.92031" fill="none" stroke="black"/>
<path d="M80.3635,362.091v 9.92031" fill="none" stroke="black"/>
<path d="M69.0464,367.052v 4.96016" fill="none" stroke="black"/>
<path d="M57.7293,367.052v 4.96016" fill="none" stroke="black"/>
<path d="M487.778,362.091v 9.92031" fill="none" stroke="black"/>
<path d="M499.096,367.052v 4.96016" fill="none" stroke="black"/>
<path d="M510.413,367.052v 4.96016" fill="none" stroke="black"/>
<text xml:space="preserve" x="67.337" y="385.379" fill="black" font-size="13.7726" font-family="Helvetica">0.98</text>
<text xml:space="preserve" x="122.797" y="385.379" fill="black" font-size="13.7726" font-family="Helvetica">1</text>
<text xml:space="preserve" x="157.875" y="385.379" fill="black" font-size="13.7726" font-family="Helvetica">1.02</text>
<text xml:space="preserve" x="202.907" y="385.379" fill="black" font-size="13.7726" font-family="Helvetica">1.04</text>
<text xml:space="preserve" x="248.413" y="385.379" fill="black" font-size="13.7726" font-family="Helvetica">1.06</text>
<text xml:space="preserve" x="293.445" y="385.379" fill="black" font-size="13.7726" font-family="Helvetica">1.08</text>
<text xml:space="preserve" x="343.691" y="385.379" fill="black" font-size="13.7726" font-family="Helvetica">1.1</text>
<text xml:space="preserve" x="383.983" y="385.379" fill="black" font-size="13.7726" font-family="Helvetica">1.12</text>
<text xml:space="preserve" x="429.489" y="385.379" fill="black" font-size="13.7726" font-family="Helvetica">1.14</text>
<text xml:space="preserve" x="474.521" y="385.379" fill="black" font-size="13.7726" font-family="Helvetica">1.16</text>
<text xml:space="preserve" x="413.372" y="400.074" fill="black" font-size="13.7726" font-family="Helvetica">calibration factor</text>
<path d="M57.1929,372.012v -330.677" fill="none" stroke="black"/>
<path d="M70.7992,365.09h -13.6063" fill="none" stroke="black"/>
<path d="M63.9961,349.343h -6.80315" fill="none" stroke="black"/>
<path d="M63.9961,333.597h -6.80315" fill="none" stroke="black"/>
<path d="M63.9961,317.85h -6.80315" fill="none" stroke="black"/>
<path d="M70.7992,302.104h -13.6063" fill="none" stroke="black"/>
<path d="M63.9961,286.357h -6.80315" fill="none" stroke="black"/>
<path d="M63.9961,270.611h -6.80315" fill="none" stroke="black"/>
<path d="M63.9961,254.864h -6.80315" fill="none" stroke="black"/>
<path d="M70.7992,239.118h -13.6063" fill="none" stroke="black"/>
<path d="M63.9961,223.371h -6.80315" fill="none" stroke="black"/>
<path d="M63.9961,207.625h -6.80315" fill="none" stroke="black"/>
<path d="M63.9961,191.878h -6.80315" fill="none" stroke="black"/>
<path d="M70.7992,176.132h -13.6063" fill="none" stroke="black"/>
<path d="M63.9961,160.385h -6.80315" fill="none" stroke="black"/>
<path d="M63.9961,144.639h -6.80315" fill="none" stroke="black"/>
<path d="M63.9961,128.892h -6.80315" fill="none" stroke="black"/>
<path d="M70.7992,113.145h -13.6063" fill="none" stroke="black"/>
<path d="M63.9961,97.3989h -6.80315" fill="none" stroke="black"/>
<path d="M63.9961,81.6524h -6.80315" fill="none" stroke="black"/>
<path d="M63.9961,65.9059h -6.80315" fill="none" stroke="black"/>
<path d="M70.7992,50.1593h -13.6063" fill="none" stroke="black"/>
<path d="M70.7992,365.09h -13.6063" fill="none" stroke="black"/>
<path d="M70.7992,50.1593h -13.6063" fill="none" stroke="black"/>
<text xml:space="preserve" x="25.1491" y="369.736" fill="black" font-size="13.7726" font-family="Helvetica">1240</text>
<text xml:space="preserve" x="25.1491" y="306.692" fill="black" font-size="13.7726" font-family="Helvetica">1260</text>
<text xml:space="preserve" x="25.1491" y="243.647" fill="black" font-size="13.7726" font-family="Helvetica">1280</text>
<text xml:space="preserve" x="25.1491" y="180.602" fill="black" font-size="13.7726" font-family="Helvetica">1300</text>
<text xml:space="preserve" x="25.1491" y="117.557" fill="black" font-size="13.7726" font-family="Helvetica">1320</text>
<text xml:space="preserve" x="25.1491" y="54.5124" fill="black" font-size="13.7726" font-family="Helvetica">1340</text>
<g transform="rotate(-90,8.08434,45.98)">
<text xml:space="preserve" x="8.08434" y="45.98" fill="black" font-size="9.34839" font-family="Helvetica">2</text>
</g>
<g transform="rotate(-90,12.3505,50.2462)">
<text xml:space="preserve" x="12.3505" y="50.2462" fill="black" font-size="13.7726" font-family="Helvetica"> </text>
</g>
<g transform="rotate(-90,12.3505,57.3565)">
<text xml:space="preserve" x="12.3505" y="57.3565" fill="black" font-size="13.7726" font-family="Times">&#0967;</text>
</g>
<g stroke="black" stroke-width="1" fill="none">
<line x1="171.72" y1="42.3603" x2="175.512" y2="42.3603"/><line x1="173.616" y1="40.4643" x2="173.616" y2="44.2564"/><line x1="171.72" y1="40.4643" x2="175.512" y2="44.2564"/><line x1="171.72" y1="44.2564" x2="175.512" y2="40.4643"/>
<line x1="172.173" y1="44.7635" x2="175.965" y2="44.7635"/><line x1="174.069" y1="42.8674" x2="174.069" y2="46.6596"/><line x1="172.173" y1="42.8674" x2="175.965" y2="46.6596"/><line x1="172.173" y1="46.6596" x2="175.965" y2="42.8674"/>
<line x1="172.626" y1="49.3846" x2="176.418" y2="49.3846"/><line x1="174.522" y1="47.4885" x2="174.522" y2="51.2807"/><line x1="172.626" y1="47.4885" x2="176.418" y2="51.2807"/><line x1="172.626" y1="51.2807" x2="176.418" y2="47.4885"/>
<line x1="173.078" y1="44.4856" x2="176.87" y2="44.4856"/><line x1="174.974" y1="42.5895" x2="174.974" y2="46.3817"/><line x1="173.078" y1="42.5895" x2="176.87" y2="46.3817"/><line x1="173.078" y1="46.3817" x2="176.87" y2="42.5895"/>
<line x1="173.531" y1="41.6312" x2="177.323" y2="41.6312"/><line x1="175.427" y1="39.7352" x2="175.427" y2="43.5273"/><line x1="173.531" y1="39.7352" x2="177.323" y2="43.5273"/><line x1="173.531" y1="43.5273" x2="177.323" y2="39.7352"/>
<line x1="173.984" y1="43.52" x2="177.776" y2="43.52"/><line x1="175.88" y1="41.6239" x2="175.88" y2="45.4161"/><line x1="173.984" y1="41.6239" x2="177.776" y2="45.4161"/><line x1="173.984" y1="45.4161" x2="177.776" y2="41.6239"/>
</g>
<g stroke="black" stroke-width="1" fill="none">
<line x1="178.963" y1="47.9047" x2="182.755" y2="47.9047"/><line x1="180.859" y1="46.0087" x2="180.859" y2="49.8008"/><line x1="178.963" y1="46.0087" x2="182.755" y2="49.8008"/><line x1="178.963" y1="49.8008" x2="182.755" y2="46.0087"/>
<line x1="179.416" y1="52.2703" x2="183.208" y2="52.2703"/><line x1="181.312" y1="50.3743" x2="181.312" y2="54.1664"/><line x1="179.416" y1="50.3743" x2="183.208" y2="54.1664"/><line x1="179.416" y1="54.1664" x2="183.208" y2="50.3743"/>
<line x1="179.868" y1="50.8915" x2="183.661" y2="50.8915"/><line x1="181.765" y1="48.9955" x2="181.765" y2="52.7876"/><line x1="179.868" y1="48.9955" x2="183.661" y2="52.7876"/><line x1="179.868" y1="52.7876" x2="183.661" y2="48.9955"/>
</g>
<g stroke="black" stroke-width="1" fill="none">
<line x1="185.301" y1="47.2986" x2="189.093" y2="47.2986"/><line x1="187.197" y1="45.4026" x2="187.197" y2="49.1947"/><line x1="185.301" y1="45.4026" x2="189.093" y2="49.1947"/><line x1="185.301" y1="49.1947" x2="189.093" y2="45.4026"/>
</g>
<g stroke="black" stroke-width="1" fill="none">
<line x1="186.206" y1="47.4781" x2="189.998" y2="47.4781"/><line x1="188.102" y1="45.582" x2="188.102" y2="49.3742"/><line x1="186.206" y1="45.582" x2="189.998" y2="49.3742"/><line x1="186.206" y1="49.3742" x2="189.998" y2="45.582"/>
<line x1="186.659" y1="62.4388" x2="190.451" y2="62.4388"/><line x1="188.555" y1="60.5428" x2="188.555" y2="64.3349"/><line x1="186.659" y1="60.5428" x2="190.451" y2="64.3349"/><line x1="186.659" y1="64.3349" x2="190.451" y2="60.5428"/>
<line x1="187.111" y1="66.1715" x2="190.904" y2="66.1715"/><line x1="189.007" y1="64.2754" x2="189.007" y2="68.0676"/><line x1="187.111" y1="64.2754" x2="190.904" y2="68.0676"/><line x1="187.111" y1="68.0676" x2="190.904" y2="64.2754"/>
<line x1="187.564" y1="75.0438" x2="191.356" y2="75.0438"/><line x1="189.46" y1="73.1477" x2="189.46" y2="76.9399"/><line x1="187.564" y1="73.1477" x2="191.356" y2="76.9399"/><line x1="187.564" y1="76.9399" x2="191.356" y2="73.1477"/>
<line x1="188.017" y1="78.897" x2="191.809" y2="78.897"/><line x1="189.913" y1="77.0009" x2="189.913" y2="80.7931"/><line x1="188.017" y1="77.0009" x2="191.809" y2="80.7931"/><line x1="188.017" y1="80.7931" x2="191.809" y2="77.0009"/>
<line x1="188.469" y1="78.6064" x2="192.262" y2="78.6064"/><line x1="190.366" y1="76.7103" x2="190.366" y2="80.5025"/><line x1="188.469" y1="76.7103" x2="192.262" y2="80.5025"/><line x1="188.469" y1="80.5025" x2="192.262" y2="76.7103"/>
<line x1="188.922" y1="83.6099" x2="192.714" y2="83.6099"/><line x1="190.818" y1="81.7138" x2="190.818" y2="85.5059"/><line x1="188.922" y1="81.7138" x2="192.714" y2="85.5059"/><line x1="188.922" y1="85.5059" x2="192.714" y2="81.7138"/>
<line x1="189.375" y1="92.6479" x2="193.167" y2="92.6479"/><line x1="191.271" y1="90.7518" x2="191.271" y2="94.544"/><line x1="189.375" y1="90.7518" x2="193.167" y2="94.544"/><line x1="189.375" y1="94.544" x2="193.167" y2="90.7518"/>
<line x1="189.827" y1="92.5374" x2="193.62" y2="92.5374"/><line x1="191.724" y1="90.6413" x2="191.724" y2="94.4335"/><line x1="189.827" y1="90.6413" x2="193.62" y2="94.4335"/><line x1="189.827" y1="94.4335" x2="193.62" y2="90.6413"/>
<line x1="190.28" y1="92.2401" x2="194.072" y2="92.2401"/><line x1="192.176" y1="90.344" x2="192.176" y2="94.1361"/><line x1="190.28" y1="90.344" x2="194.072" y2="94.1361"/><line x1="190.28" y1="94.1361" x2="194.072" y2="90.344"/>
<line x1="190.733" y1="90.2626" x2="194.525" y2="90.2626"/><line x1="192.629" y1="88.3665" x2="192.629" y2="92.1586"/><line x1="190.733" y1="88.3665" x2="194.525" y2="92.1586"/><line x1="190.733" y1="92.1586" x2="194.525" y2="88.3665"/>
<line x1="191.186" y1="80.9593" x2="194.978" y2="80.9593"/><line x1="193.082" y1="79.0632" x2="193.082" y2="82.8554"/><line x1="191.186" y1="79.0632" x2="194.978" y2="82.8554"/><line x1="191.186" y1="82.8554" x2="194.978" y2="79.0632"/>
<line x1="191.638" y1="85.9958" x2="195.43" y2="85.9958"/><line x1="193.534" y1="84.0997" x2="193.534" y2="87.8919"/><line x1="191.638" y1="84.0997" x2="195.43" y2="87.8919"/><line x1="191.638" y1="87.8919" x2="195.43" y2="84.0997"/>
<line x1="192.091" y1="87.8634" x2="195.883" y2="87.8634"/><line x1="193.987" y1="85.9673" x2="193.987" y2="89.7595"/><line x1="192.091" y1="85.9673" x2="195.883" y2="89.7595"/><line x1="192.091" y1="89.7595" x2="195.883" y2="85.9673"/>
<line x1="192.544" y1="80.8606" x2="196.336" y2="80.8606"/><line x1="194.44" y1="78.9645" x2="194.44" y2="82.7567"/><line x1="192.544" y1="78.9645" x2="196.336" y2="82.7567"/><line x1="192.544" y1="82.7567" x2="196.336" y2="78.9645"/>
<line x1="192.996" y1="91.0698" x2="196.788" y2="91.0698"/><line x1="194.892" y1="89.1737" x2="194.892" y2="92.9659"/><line x1="192.996" y1="89.1737" x2="196.788" y2="92.9659"/><line x1="192.996" y1="92.9659" x2="196.788" y2="89.1737"/>
<line x1="193.449" y1="94.3077" x2="197.241" y2="94.3077"/><line x1="195.345" y1="92.4117" x2="195.345" y2="96.2038"/><line x1="193.449" y1="92.4117" x2="197.241" y2="96.2038"/><line x1="193.449" y1="96.2038" x2="197.241" y2="92.4117"/>
<line x1="193.902" y1="99.9796" x2="197.694" y2="99.9796"/><line x1="195.798" y1="98.0835" x2="195.798" y2="101.876"/><line x1="193.902" y1="98.0835" x2="197.694" y2="101.876"/><line x1="193.902" y1="101.876" x2="197.694" y2="98.0835"/>
<line x1="194.354" y1="107.911" x2="198.146" y2="107.911"/><line x1="196.25" y1="106.015" x2="196.25" y2="109.807"/><line x1="194.354" y1="106.015" x2="198.146" y2="109.807"/><line x1="194.354" y1="109.807" x2="198.146" y2="106.015"/>
<line x1="194.807" y1="119.881" x2="198.599" y2="119.881"/><line x1="196.703" y1="117.984" x2="196.703" y2="121.777"/><line x1="194.807" y1="117.984" x2="198.599" y2="121.777"/><line x1="194.807" y1="121.777" x2="198.599" y2="117.984"/>
<line x1="195.26" y1="121.866" x2="199.052" y2="121.866"/><line x1="197.156" y1="119.97" x2="197.156" y2="123.762"/><line x1="195.26" y1="119.97" x2="199.052" y2="123.762"/><line x1="195.26" y1="123.762" x2="199.052" y2="119.97"/>
<line x1="195.712" y1="118.171" x2="199.505" y2="118.171"/><line x1="197.608" y1="116.275" x2="197.608" y2="120.067"/><line x1="195.712" y1="116.275" x2="199.505" y2="120.067"/><line x1="195.712" y1="120.067" x2="199.505" y2="116.275"/>
<line x1="196.165" y1="118.043" x2="199.957" y2="118.043"/><line x1="198.061" y1="116.146" x2="198.061" y2="119.939"/><line x1="196.165" y1="116.146" x2="199.957" y2="119.939"/><line x1="196.165" y1="119.939" x2="199.957" y2="116.146"/>
<line x1="196.618" y1="108.228" x2="200.41" y2="108.228"/><line x1="198.514" y1="106.332" x2="198.514" y2="110.124"/><line x1="196.618" y1="106.332" x2="200.41" y2="110.124"/><line x1="196.618" y1="110.124" x2="200.41" y2="106.332"/>
<line x1="197.07" y1="118.931" x2="200.863" y2="118.931"/><line x1="198.966" y1="117.035" x2="198.966" y2="120.827"/><line x1="197.07" y1="117.035" x2="200.863" y2="120.827"/><line x1="197.07" y1="120.827" x2="200.863" y2="117.035"/>
<line x1="197.523" y1="131.988" x2="201.315" y2="131.988"/><line x1="199.419" y1="130.092" x2="199.419" y2="133.884"/><line x1="197.523" y1="130.092" x2="201.315" y2="133.884"/><line x1="197.523" y1="133.884" x2="201.315" y2="130.092"/>
<line x1="197.976" y1="134.726" x2="201.768" y2="134.726"/><line x1="199.872" y1="132.83" x2="199.872" y2="136.622"/><line x1="197.976" y1="132.83" x2="201.768" y2="136.622"/><line x1="197.976" y1="136.622" x2="201.768" y2="132.83"/>
<line x1="198.428" y1="139.568" x2="202.221" y2="139.568"/><line x1="200.325" y1="137.672" x2="200.325" y2="141.464"/><line x1="198.428" y1="137.672" x2="202.221" y2="141.464"/><line x1="198.428" y1="141.464" x2="202.221" y2="137.672"/>
<line x1="198.881" y1="148.958" x2="202.673" y2="148.958"/><line x1="200.777" y1="147.062" x2="200.777" y2="150.854"/><line x1="198.881" y1="147.062" x2="202.673" y2="150.854"/><line x1="198.881" y1="150.854" x2="202.673" y2="147.062"/>
<line x1="199.334" y1="147.955" x2="203.126" y2="147.955"/><line x1="201.23" y1="146.059" x2="201.23" y2="149.851"/><line x1="199.334" y1="146.059" x2="203.126" y2="149.851"/><line x1="199.334" y1="149.851" x2="203.126" y2="146.059"/>
<line x1="199.787" y1="140.235" x2="203.579" y2="140.235"/><line x1="201.683" y1="138.339" x2="201.683" y2="142.131"/><line x1="199.787" y1="138.339" x2="203.579" y2="142.131"/><line x1="199.787" y1="142.131" x2="203.579" y2="138.339"/>
<line x1="200.239" y1="133.492" x2="204.031" y2="133.492"/><line x1="202.135" y1="131.596" x2="202.135" y2="135.388"/><line x1="200.239" y1="131.596" x2="204.031" y2="135.388"/><line x1="200.239" y1="135.388" x2="204.031" y2="131.596"/>
<line x1="200.692" y1="133.134" x2="204.484" y2="133.134"/><line x1="202.588" y1="131.238" x2="202.588" y2="135.03"/><line x1="200.692" y1="131.238" x2="204.484" y2="135.03"/><line x1="200.692" y1="135.03" x2="204.484" y2="131.238"/>
<line x1="201.145" y1="128.608" x2="204.937" y2="128.608"/><line x1="203.041" y1="126.712" x2="203.041" y2="130.504"/><line x1="201.145" y1="126.712" x2="204.937" y2="130.504"/><line x1="201.145" y1="130.504" x2="204.937" y2="126.712"/>
<line x1="201.597" y1="133.738" x2="205.389" y2="133.738"/><line x1="203.493" y1="131.842" x2="203.493" y2="135.634"/><line x1="201.597" y1="131.842" x2="205.389" y2="135.634"/><line x1="201.597" y1="135.634" x2="205.389" y2="131.842"/>
<line x1="202.05" y1="136.126" x2="205.842" y2="136.126"/><line x1="203.946" y1="134.23" x2="203.946" y2="138.023"/><line x1="202.05" y1="134.23" x2="205.842" y2="138.023"/><line x1="202.05" y1="138.023" x2="205.842" y2="134.23"/>
<line x1="202.503" y1="144.448" x2="206.295" y2="144.448"/><line x1="204.399" y1="142.552" x2="204.399" y2="146.344"/><line x1="202.503" y1="142.552" x2="206.295" y2="146.344"/><line x1="202.503" y1="146.344" x2="206.295" y2="142.552"/>
<line x1="202.955" y1="139.327" x2="206.747" y2="139.327"/><line x1="204.851" y1="137.431" x2="204.851" y2="141.224"/><line x1="202.955" y1="137.431" x2="206.747" y2="141.224"/><line x1="202.955" y1="141.224" x2="206.747" y2="137.431"/>
<line x1="203.408" y1="153.194" x2="207.2" y2="153.194"/><line x1="205.304" y1="151.298" x2="205.304" y2="155.09"/><line x1="203.408" y1="151.298" x2="207.2" y2="155.09"/><line x1="203.408" y1="155.09" x2="207.2" y2="151.298"/>
<line x1="203.861" y1="163.27" x2="207.653" y2="163.27"/><line x1="205.757" y1="161.374" x2="205.757" y2="165.166"/><line x1="203.861" y1="161.374" x2="207.653" y2="165.166"/><line x1="203.861" y1="165.166" x2="207.653" y2="161.374"/>
<line x1="204.313" y1="175.482" x2="208.106" y2="175.482"/><line x1="206.209" y1="173.586" x2="206.209" y2="177.378"/><line x1="204.313" y1="173.586" x2="208.106" y2="177.378"/><line x1="204.313" y1="177.378" x2="208.106" y2="173.586"/>
<line x1="204.766" y1="186.908" x2="208.558" y2="186.908"/><line x1="206.662" y1="185.012" x2="206.662" y2="188.804"/><line x1="204.766" y1="185.012" x2="208.558" y2="188.804"/><line x1="204.766" y1="188.804" x2="208.558" y2="185.012"/>
<line x1="205.219" y1="187.175" x2="209.011" y2="187.175"/><line x1="207.115" y1="185.279" x2="207.115" y2="189.072"/><line x1="205.219" y1="185.279" x2="209.011" y2="189.072"/><line x1="205.219" y1="189.072" x2="209.011" y2="185.279"/>
<line x1="205.671" y1="194.283" x2="209.464" y2="194.283"/><line x1="207.567" y1="192.387" x2="207.567" y2="196.179"/><line x1="205.671" y1="192.387" x2="209.464" y2="196.179"/><line x1="205.671" y1="196.179" x2="209.464" y2="192.387"/>
<line x1="206.124" y1="197.511" x2="209.916" y2="197.511"/><line x1="208.02" y1="195.615" x2="208.02" y2="199.407"/><line x1="206.124" y1="195.615" x2="209.916" y2="199.407"/><line x1="206.124" y1="199.407" x2="209.916" y2="195.615"/>
<line x1="206.577" y1="199.581" x2="210.369" y2="199.581"/><line x1="208.473" y1="197.684" x2="208.473" y2="201.477"/><line x1="206.577" y1="197.684" x2="210.369" y2="201.477"/><line x1="206.577" y1="201.477" x2="210.369" y2="197.684"/>
<line x1="207.029" y1="206.289" x2="210.822" y2="206.289"/><line x1="208.926" y1="204.393" x2="208.926" y2="208.185"/><line x1="207.029" y1="204.393" x2="210.822" y2="208.185"/><line x1="207.029" y1="208.185" x2="210.822" y2="204.393"/>
<line x1="207.482" y1="207.268" x2="211.274" y2="207.268"/><line x1="209.378" y1="205.372" x2="209.378" y2="209.164"/><line x1="207.482" y1="205.372" x2="211.274" y2="209.164"/><line x1="207.482" y1="209.164" x2="211.274" y2="205.372"/>
<line x1="207.935" y1="222.362" x2="211.727" y2="222.362"/><line x1="209.831" y1="220.466" x2="209.831" y2="224.258"/><line x1="207.935" y1="220.466" x2="211.727" y2="224.258"/><line x1="207.935" y1="224.258" x2="211.727" y2="220.466"/>
<line x1="208.387" y1="217.366" x2="212.18" y2="217.366"/><line x1="210.284" y1="215.47" x2="210.284" y2="219.262"/><line x1="208.387" y1="215.47" x2="212.18" y2="219.262"/><line x1="208.387" y1="219.262" x2="212.18" y2="215.47"/>
<line x1="208.84" y1="215.224" x2="212.632" y2="215.224"/><line x1="210.736" y1="213.328" x2="210.736" y2="217.12"/><line x1="208.84" y1="213.328" x2="212.632" y2="217.12"/><line x1="208.84" y1="217.12" x2="212.632" y2="213.328"/>
<line x1="209.293" y1="211.49" x2="213.085" y2="211.49"/><line x1="211.189" y1="209.594" x2="211.189" y2="213.386"/><line x1="209.293" y1="209.594" x2="213.085" y2="213.386"/><line x1="209.293" y1="213.386" x2="213.085" y2="209.594"/>
<line x1="209.746" y1="214.484" x2="213.538" y2="214.484"/><line x1="211.642" y1="212.588" x2="211.642" y2="216.38"/><line x1="209.746" y1="212.588" x2="213.538" y2="216.38"/><line x1="209.746" y1="216.38" x2="213.538" y2="212.588"/>
<line x1="210.198" y1="216.331" x2="213.99" y2="216.331"/><line x1="212.094" y1="214.435" x2="212.094" y2="218.227"/><line x1="210.198" y1="214.435" x2="213.99" y2="218.227"/><line x1="210.198" y1="218.227" x2="213.99" y2="214.435"/>
<line x1="210.651" y1="221.311" x2="214.443" y2="221.311"/><line x1="212.547" y1="219.415" x2="212.547" y2="223.207"/><line x1="210.651" y1="219.415" x2="214.443" y2="223.207"/><line x1="210.651" y1="223.207" x2="214.443" y2="219.415"/>
<line x1="211.104" y1="221.875" x2="214.896" y2="221.875"/><line x1="213" y1="219.979" x2="213" y2="223.771"/><line x1="211.104" y1="219.979" x2="214.896" y2="223.771"/><line x1="211.104" y1="223.771" x2="214.896" y2="219.979"/>
<line x1="211.556" y1="220.843" x2="215.348" y2="220.843"/><line x1="213.452" y1="218.947" x2="213.452" y2="222.739"/><line x1="211.556" y1="218.947" x2="215.348" y2="222.739"/><line x1="211.556" y1="222.739" x2="215.348" y2="218.947"/>
<line x1="212.009" y1="219.122" x2="215.801" y2="219.122"/><line x1="213.905" y1="217.226" x2="213.905" y2="221.018"/><line x1="212.009" y1="217.226" x2="215.801" y2="221.018"/><line x1="212.009" y1="221.018" x2="215.801" y2="217.226"/>
<line x1="212.462" y1="220.806" x2="216.254" y2="220.806"/><line x1="214.358" y1="218.91" x2="214.358" y2="222.702"/><line x1="212.462" y1="218.91" x2="216.254" y2="222.702"/><line x1="212.462" y1="222.702" x2="216.254" y2="218.91"/>
<line x1="212.914" y1="223.295" x2="216.706" y2="223.295"/><line x1="214.81" y1="221.399" x2="214.81" y2="225.191"/><line x1="212.914" y1="221.399" x2="216.706" y2="225.191"/><line x1="212.914" y1="225.191" x2="216.706" y2="221.399"/>
<line x1="213.367" y1="218.714" x2="217.159" y2="218.714"/><line x1="215.263" y1="216.817" x2="215.263" y2="220.61"/><line x1="213.367" y1="216.817" x2="217.159" y2="220.61"/><line x1="213.367" y1="220.61" x2="217.159" y2="216.817"/>
<line x1="213.82" y1="229.723" x2="217.612" y2="229.723"/><line x1="215.716" y1="227.827" x2="215.716" y2="231.619"/><line x1="213.82" y1="227.827" x2="217.612" y2="231.619"/><line x1="213.82" y1="231.619" x2="217.612" y2="227.827"/>
<line x1="214.272" y1="230.574" x2="218.065" y2="230.574"/><line x1="216.168" y1="228.678" x2="216.168" y2="232.47"/><line x1="214.272" y1="228.678" x2="218.065" y2="232.47"/><line x1="214.272" y1="232.47" x2="218.065" y2="228.678"/>
<line x1="214.725" y1="235.21" x2="218.517" y2="235.21"/><line x1="216.621" y1="233.314" x2="216.621" y2="237.106"/><line x1="214.725" y1="233.314" x2="218.517" y2="237.106"/><line x1="214.725" y1="237.106" x2="218.517" y2="233.314"/>
<line x1="215.178" y1="231.97" x2="218.97" y2="231.97"/><line x1="217.074" y1="230.074" x2="217.074" y2="233.867"/><line x1="215.178" y1="230.074" x2="218.97" y2="233.867"/><line x1="215.178" y1="233.867" x2="218.97" y2="230.074"/>
<line x1="215.63" y1="236.771" x2="219.423" y2="236.771"/><line x1="217.527" y1="234.875" x2="217.527" y2="238.667"/><line x1="215.63" y1="234.875" x2="219.423" y2="238.667"/><line x1="215.63" y1="238.667" x2="219.423" y2="234.875"/>
<line x1="216.083" y1="238.927" x2="219.875" y2="238.927"/><line x1="217.979" y1="237.031" x2="217.979" y2="240.823"/><line x1="216.083" y1="237.031" x2="219.875" y2="240.823"/><line x1="216.083" y1="240.823" x2="219.875" y2="237.031"/>
<line x1="216.536" y1="229.131" x2="220.328" y2="229.131"/><line x1="218.432" y1="227.235" x2="218.432" y2="231.027"/><line x1="216.536" y1="227.235" x2="220.328" y2="231.027"/><line x1="216.536" y1="231.027" x2="220.328" y2="227.235"/>
<line x1="216.988" y1="219.998" x2="220.781" y2="219.998"/><line x1="218.885" y1="218.101" x2="218.885" y2="221.894"/><line x1="216.988" y1="218.101" x2="220.781" y2="221.894"/><line x1="216.988" y1="221.894" x2="220.781" y2="218.101"/>
<line x1="217.441" y1="217.758" x2="221.233" y2="217.758"/><line x1="219.337" y1="215.862" x2="219.337" y2="219.654"/><line x1="217.441" y1="215.862" x2="221.233" y2="219.654"/><line x1="217.441" y1="219.654" x2="221.233" y2="215.862"/>
<line x1="217.894" y1="220.974" x2="221.686" y2="220.974"/><line x1="219.79" y1="219.078" x2="219.79" y2="222.87"/><line x1="217.894" y1="219.078" x2="221.686" y2="222.87"/><line x1="217.894" y1="222.87" x2="221.686" y2="219.078"/>
<line x1="218.347" y1="214.108" x2="222.139" y2="214.108"/><line x1="220.243" y1="212.212" x2="220.243" y2="216.004"/><line x1="218.347" y1="212.212" x2="222.139" y2="216.004"/><line x1="218.347" y1="216.004" x2="222.139" y2="212.212"/>
<line x1="218.799" y1="214.262" x2="222.591" y2="214.262"/><line x1="220.695" y1="212.366" x2="220.695" y2="216.158"/><line x1="218.799" y1="212.366" x2="222.591" y2="216.158"/><line x1="218.799" y1="216.158" x2="222.591" y2="212.366"/>
<line x1="219.252" y1="205.524" x2="223.044" y2="205.524"/><line x1="221.148" y1="203.628" x2="221.148" y2="207.42"/><line x1="219.252" y1="203.628" x2="223.044" y2="207.42"/><line x1="219.252" y1="207.42" x2="223.044" y2="203.628"/>
<line x1="219.705" y1="206.656" x2="223.497" y2="206.656"/><line x1="221.601" y1="204.76" x2="221.601" y2="208.552"/><line x1="219.705" y1="204.76" x2="223.497" y2="208.552"/><line x1="219.705" y1="208.552" x2="223.497" y2="204.76"/>
<line x1="220.157" y1="202.133" x2="223.949" y2="202.133"/><line x1="222.053" y1="200.237" x2="222.053" y2="204.029"/><line x1="220.157" y1="200.237" x2="223.949" y2="204.029"/><line x1="220.157" y1="204.029" x2="223.949" y2="200.237"/>
<line x1="220.61" y1="199.017" x2="224.402" y2="199.017"/><line x1="222.506" y1="197.12" x2="222.506" y2="200.913"/><line x1="220.61" y1="197.12" x2="224.402" y2="200.913"/><line x1="220.61" y1="200.913" x2="224.402" y2="197.12"/>
<line x1="221.063" y1="212.586" x2="224.855" y2="212.586"/><line x1="222.959" y1="210.69" x2="222.959" y2="214.482"/><line x1="221.063" y1="210.69" x2="224.855" y2="214.482"/><line x1="221.063" y1="214.482" x2="224.855" y2="210.69"/>
<line x1="221.515" y1="210.424" x2="225.307" y2="210.424"/><line x1="223.411" y1="208.528" x2="223.411" y2="212.32"/><line x1="221.515" y1="208.528" x2="225.307" y2="212.32"/><line x1="221.515" y1="212.32" x2="225.307" y2="208.528"/>
<line x1="221.968" y1="208.711" x2="225.76" y2="208.711"/><line x1="223.864" y1="206.815" x2="223.864" y2="210.607"/><line x1="221.968" y1="206.815" x2="225.76" y2="210.607"/><line x1="221.968" y1="210.607" x2="225.76" y2="206.815"/>
<line x1="222.421" y1="212.77" x2="226.213" y2="212.77"/><line x1="224.317" y1="210.873" x2="224.317" y2="214.666"/><line x1="222.421" y1="210.873" x2="226.213" y2="214.666"/><line x1="222.421" y1="214.666" x2="226.213" y2="210.873"/>
<line x1="222.873" y1="214.234" x2="226.666" y2="214.234"/><line x1="224.769" y1="212.338" x2="224.769" y2="216.13"/><line x1="222.873" y1="212.338" x2="226.666" y2="216.13"/><line x1="222.873" y1="216.13" x2="226.666" y2="212.338"/>
<line x1="223.326" y1="231.345" x2="227.118" y2="231.345"/><line x1="225.222" y1="229.449" x2="225.222" y2="233.241"/><line x1="223.326" y1="229.449" x2="227.118" y2="233.241"/><line x1="223.326" y1="233.241" x2="227.118" y2="229.449"/>
<line x1="223.779" y1="235.735" x2="227.571" y2="235.735"/><line x1="225.675" y1="233.839" x2="225.675" y2="237.631"/><line x1="223.779" y1="233.839" x2="227.571" y2="237.631"/><line x1="223.779" y1="237.631" x2="227.571" y2="233.839"/>
<line x1="224.231" y1="245.069" x2="228.024" y2="245.069"/><line x1="226.128" y1="243.173" x2="226.128" y2="246.965"/><line x1="224.231" y1="243.173" x2="228.024" y2="246.965"/><line x1="224.231" y1="246.965" x2="228.024" y2="243.173"/>
<line x1="224.684" y1="242.572" x2="228.476" y2="242.572"/><line x1="226.58" y1="240.676" x2="226.58" y2="244.468"/><line x1="224.684" y1="240.676" x2="228.476" y2="244.468"/><line x1="224.684" y1="244.468" x2="228.476" y2="240.676"/>
<line x1="225.137" y1="245.537" x2="228.929" y2="245.537"/><line x1="227.033" y1="243.641" x2="227.033" y2="247.433"/><line x1="225.137" y1="243.641" x2="228.929" y2="247.433"/><line x1="225.137" y1="247.433" x2="228.929" y2="243.641"/>
<line x1="225.589" y1="254.853" x2="229.382" y2="254.853"/><line x1="227.486" y1="252.957" x2="227.486" y2="256.749"/><line x1="225.589" y1="252.957" x2="229.382" y2="256.749"/><line x1="225.589" y1="256.749" x2="229.382" y2="252.957"/>
<line x1="226.042" y1="262.41" x2="229.834" y2="262.41"/><line x1="227.938" y1="260.514" x2="227.938" y2="264.307"/><line x1="226.042" y1="260.514" x2="229.834" y2="264.307"/><line x1="226.042" y1="264.307" x2="229.834" y2="260.514"/>
<line x1="226.495" y1="264.013" x2="230.287" y2="264.013"/><line x1="228.391" y1="262.117" x2="228.391" y2="265.909"/><line x1="226.495" y1="262.117" x2="230.287" y2="265.909"/><line x1="226.495" y1="265.909" x2="230.287" y2="262.117"/>
<line x1="226.948" y1="266.622" x2="230.74" y2="266.622"/><line x1="228.844" y1="264.726" x2="228.844" y2="268.518"/><line x1="226.948" y1="264.726" x2="230.74" y2="268.518"/><line x1="226.948" y1="268.518" x2="230.74" y2="264.726"/>
<line x1="227.4" y1="261.082" x2="231.192" y2="261.082"/><line x1="229.296" y1="259.186" x2="229.296" y2="262.978"/><line x1="227.4" y1="259.186" x2="231.192" y2="262.978"/><line x1="227.4" y1="262.978" x2="231.192" y2="259.186"/>
<line x1="227.853" y1="258.681" x2="231.645" y2="258.681"/><line x1="229.749" y1="256.785" x2="229.749" y2="260.577"/><line x1="227.853" y1="256.785" x2="231.645" y2="260.577"/><line x1="227.853" y1="260.577" x2="231.645" y2="256.785"/>
<line x1="228.306" y1="255.28" x2="232.098" y2="255.28"/><line x1="230.202" y1="253.384" x2="230.202" y2="257.176"/><line x1="228.306" y1="253.384" x2="232.098" y2="257.176"/><line x1="228.306" y1="257.176" x2="232.098" y2="253.384"/>
<line x1="228.758" y1="263.678" x2="232.55" y2="263.678"/><line x1="230.654" y1="261.782" x2="230.654" y2="265.575"/><line x1="228.758" y1="261.782" x2="232.55" y2="265.575"/><line x1="228.758" y1="265.575" x2="232.55" y2="261.782"/>
<line x1="229.211" y1="269.759" x2="233.003" y2="269.759"/><line x1="231.107" y1="267.863" x2="231.107" y2="271.655"/><line x1="229.211" y1="267.863" x2="233.003" y2="271.655"/><line x1="229.211" y1="271.655" x2="233.003" y2="267.863"/>
<line x1="229.664" y1="267.981" x2="233.456" y2="267.981"/><line x1="231.56" y1="266.085" x2="231.56" y2="269.877"/><line x1="229.664" y1="266.085" x2="233.456" y2="269.877"/><line x1="229.664" y1="269.877" x2="233.456" y2="266.085"/>
<line x1="230.116" y1="270.148" x2="233.908" y2="270.148"/><line x1="232.012" y1="268.252" x2="232.012" y2="272.044"/><line x1="230.116" y1="268.252" x2="233.908" y2="272.044"/><line x1="230.116" y1="272.044" x2="233.908" y2="268.252"/>
<line x1="230.569" y1="278.905" x2="234.361" y2="278.905"/><line x1="232.465" y1="277.008" x2="232.465" y2="280.801"/><line x1="230.569" y1="277.008" x2="234.361" y2="280.801"/><line x1="230.569" y1="280.801" x2="234.361" y2="277.008"/>
<line x1="231.022" y1="285.855" x2="234.814" y2="285.855"/><line x1="232.918" y1="283.959" x2="232.918" y2="287.751"/><line x1="231.022" y1="283.959" x2="234.814" y2="287.751"/><line x1="231.022" y1="287.751" x2="234.814" y2="283.959"/>
<line x1="231.474" y1="283.618" x2="235.267" y2="283.618"/><line x1="233.37" y1="281.722" x2="233.37" y2="285.514"/><line x1="231.474" y1="281.722" x2="235.267" y2="285.514"/><line x1="231.474" y1="285.514" x2="235.267" y2="281.722"/>
<line x1="231.927" y1="283.321" x2="235.719" y2="283.321"/><line x1="233.823" y1="281.425" x2="233.823" y2="285.217"/><line x1="231.927" y1="281.425" x2="235.719" y2="285.217"/><line x1="231.927" y1="285.217" x2="235.719" y2="281.425"/>
<line x1="232.38" y1="285.92" x2="236.172" y2="285.92"/><line x1="234.276" y1="284.024" x2="234.276" y2="287.816"/><line x1="232.38" y1="284.024" x2="236.172" y2="287.816"/><line x1="232.38" y1="287.816" x2="236.172" y2="284.024"/>
<line x1="232.832" y1="281.283" x2="236.625" y2="281.283"/><line x1="234.728" y1="279.387" x2="234.728" y2="283.179"/><line x1="232.832" y1="279.387" x2="236.625" y2="283.179"/><line x1="232.832" y1="283.179" x2="236.625" y2="279.387"/>
<line x1="233.285" y1="269.484" x2="237.077" y2="269.484"/><line x1="235.181" y1="267.588" x2="235.181" y2="271.38"/><line x1="233.285" y1="267.588" x2="237.077" y2="271.38"/><line x1="233.285" y1="271.38" x2="237.077" y2="267.588"/>
<line x1="233.738" y1="274.302" x2="237.53" y2="274.302"/><line x1="235.634" y1="272.406" x2="235.634" y2="276.198"/><line x1="233.738" y1="272.406" x2="237.53" y2="276.198"/><line x1="233.738" y1="276.198" x2="237.53" y2="272.406"/>
<line x1="234.19" y1="266.941" x2="237.983" y2="266.941"/><line x1="236.087" y1="265.045" x2="236.087" y2="268.837"/><line x1="234.19" y1="265.045" x2="237.983" y2="268.837"/><line x1="234.19" y1="268.837" x2="237.983" y2="265.045"/>
<line x1="234.643" y1="266.815" x2="238.435" y2="266.815"/><line x1="236.539" y1="264.919" x2="236.539" y2="268.711"/><line x1="234.643" y1="264.919" x2="238.435" y2="268.711"/><line x1="234.643" y1="268.711" x2="238.435" y2="264.919"/>
<line x1="235.096" y1="260.465" x2="238.888" y2="260.465"/><line x1="236.992" y1="258.569" x2="236.992" y2="262.361"/><line x1="235.096" y1="258.569" x2="238.888" y2="262.361"/><line x1="235.096" y1="262.361" x2="238.888" y2="258.569"/>
<line x1="235.548" y1="258.65" x2="239.341" y2="258.65"/><line x1="237.445" y1="256.754" x2="237.445" y2="260.546"/><line x1="235.548" y1="256.754" x2="239.341" y2="260.546"/><line x1="235.548" y1="260.546" x2="239.341" y2="256.754"/>
<line x1="236.001" y1="268.207" x2="239.793" y2="268.207"/><line x1="237.897" y1="266.311" x2="237.897" y2="270.103"/><line x1="236.001" y1="266.311" x2="239.793" y2="270.103"/><line x1="236.001" y1="270.103" x2="239.793" y2="266.311"/>
<line x1="236.454" y1="263.911" x2="240.246" y2="263.911"/><line x1="238.35" y1="262.014" x2="238.35" y2="265.807"/><line x1="236.454" y1="262.014" x2="240.246" y2="265.807"/><line x1="236.454" y1="265.807" x2="240.246" y2="262.014"/>
<line x1="236.907" y1="269.269" x2="240.699" y2="269.269"/><line x1="238.803" y1="267.373" x2="238.803" y2="271.165"/><line x1="236.907" y1="267.373" x2="240.699" y2="271.165"/><line x1="236.907" y1="271.165" x2="240.699" y2="267.373"/>
<line x1="237.359" y1="265.122" x2="241.151" y2="265.122"/><line x1="239.255" y1="263.226" x2="239.255" y2="267.018"/><line x1="237.359" y1="263.226" x2="241.151" y2="267.018"/><line x1="237.359" y1="267.018" x2="241.151" y2="263.226"/>
<line x1="237.812" y1="261.245" x2="241.604" y2="261.245"/><line x1="239.708" y1="259.349" x2="239.708" y2="263.141"/><line x1="237.812" y1="259.349" x2="241.604" y2="263.141"/><line x1="237.812" y1="263.141" x2="241.604" y2="259.349"/>
<line x1="238.265" y1="263.821" x2="242.057" y2="263.821"/><line x1="240.161" y1="261.925" x2="240.161" y2="265.717"/><line x1="238.265" y1="261.925" x2="242.057" y2="265.717"/><line x1="238.265" y1="265.717" x2="242.057" y2="261.925"/>
<line x1="238.717" y1="259.089" x2="242.509" y2="259.089"/><line x1="240.613" y1="257.193" x2="240.613" y2="260.985"/><line x1="238.717" y1="257.193" x2="242.509" y2="260.985"/><line x1="238.717" y1="260.985" x2="242.509" y2="257.193"/>
<line x1="239.17" y1="246.886" x2="242.962" y2="246.886"/><line x1="241.066" y1="244.99" x2="241.066" y2="248.782"/><line x1="239.17" y1="244.99" x2="242.962" y2="248.782"/><line x1="239.17" y1="248.782" x2="242.962" y2="244.99"/>
<line x1="239.623" y1="239.255" x2="243.415" y2="239.255"/><line x1="241.519" y1="237.359" x2="241.519" y2="241.151"/><line x1="239.623" y1="237.359" x2="243.415" y2="241.151"/><line x1="239.623" y1="241.151" x2="243.415" y2="237.359"/>
<line x1="240.075" y1="240.429" x2="243.867" y2="240.429"/><line x1="241.971" y1="238.533" x2="241.971" y2="242.325"/><line x1="240.075" y1="238.533" x2="243.867" y2="242.325"/><line x1="240.075" y1="242.325" x2="243.867" y2="238.533"/>
<line x1="240.528" y1="236.483" x2="244.32" y2="236.483"/><line x1="242.424" y1="234.587" x2="242.424" y2="238.379"/><line x1="240.528" y1="234.587" x2="244.32" y2="238.379"/><line x1="240.528" y1="238.379" x2="244.32" y2="234.587"/>
<line x1="240.981" y1="238.25" x2="244.773" y2="238.25"/><line x1="242.877" y1="236.354" x2="242.877" y2="240.146"/><line x1="240.981" y1="236.354" x2="244.773" y2="240.146"/><line x1="240.981" y1="240.146" x2="244.773" y2="236.354"/>
<line x1="241.433" y1="238.54" x2="245.226" y2="238.54"/><line x1="243.329" y1="236.644" x2="243.329" y2="240.436"/><line x1="241.433" y1="236.644" x2="245.226" y2="240.436"/><line x1="241.433" y1="240.436" x2="245.226" y2="236.644"/>
<line x1="241.886" y1="237.895" x2="245.678" y2="237.895"/><line x1="243.782" y1="235.999" x2="243.782" y2="239.791"/><line x1="241.886" y1="235.999" x2="245.678" y2="239.791"/><line x1="241.886" y1="239.791" x2="245.678" y2="235.999"/>
<line x1="242.339" y1="241.275" x2="246.131" y2="241.275"/><line x1="244.235" y1="239.379" x2="244.235" y2="243.171"/><line x1="242.339" y1="239.379" x2="246.131" y2="243.171"/><line x1="242.339" y1="243.171" x2="246.131" y2="239.379"/>
<line x1="242.791" y1="237.305" x2="246.584" y2="237.305"/><line x1="244.688" y1="235.409" x2="244.688" y2="239.201"/><line x1="242.791" y1="235.409" x2="246.584" y2="239.201"/><line x1="242.791" y1="239.201" x2="246.584" y2="235.409"/>
<line x1="243.244" y1="233.588" x2="247.036" y2="233.588"/><line x1="245.14" y1="231.692" x2="245.14" y2="235.484"/><line x1="243.244" y1="231.692" x2="247.036" y2="235.484"/><line x1="243.244" y1="235.484" x2="247.036" y2="231.692"/>
<line x1="243.697" y1="245.494" x2="247.489" y2="245.494"/><line x1="245.593" y1="243.598" x2="245.593" y2="247.39"/><line x1="243.697" y1="243.598" x2="247.489" y2="247.39"/><line x1="243.697" y1="247.39" x2="247.489" y2="243.598"/>
<line x1="244.149" y1="247.54" x2="247.942" y2="247.54"/><line x1="246.046" y1="245.644" x2="246.046" y2="249.436"/><line x1="244.149" y1="245.644" x2="247.942" y2="249.436"/><line x1="244.149" y1="249.436" x2="247.942" y2="245.644"/>
<line x1="244.602" y1="243.379" x2="248.394" y2="243.379"/><line x1="246.498" y1="241.483" x2="246.498" y2="245.275"/><line x1="244.602" y1="241.483" x2="248.394" y2="245.275"/><line x1="244.602" y1="245.275" x2="248.394" y2="241.483"/>
<line x1="245.055" y1="244.735" x2="248.847" y2="244.735"/><line x1="246.951" y1="242.839" x2="246.951" y2="246.632"/><line x1="245.055" y1="242.839" x2="248.847" y2="246.632"/><line x1="245.055" y1="246.632" x2="248.847" y2="242.839"/>
<line x1="245.508" y1="246.771" x2="249.3" y2="246.771"/><line x1="247.404" y1="244.875" x2="247.404" y2="248.667"/><line x1="245.508" y1="244.875" x2="249.3" y2="248.667"/><line x1="245.508" y1="248.667" x2="249.3" y2="244.875"/>
<line x1="245.96" y1="245.257" x2="249.752" y2="245.257"/><line x1="247.856" y1="243.361" x2="247.856" y2="247.153"/><line x1="245.96" y1="243.361" x2="249.752" y2="247.153"/><line x1="245.96" y1="247.153" x2="249.752" y2="243.361"/>
<line x1="246.413" y1="233.706" x2="250.205" y2="233.706"/><line x1="248.309" y1="231.81" x2="248.309" y2="235.602"/><line x1="246.413" y1="231.81" x2="250.205" y2="235.602"/><line x1="246.413" y1="235.602" x2="250.205" y2="231.81"/>
<line x1="246.866" y1="239.228" x2="250.658" y2="239.228"/><line x1="248.762" y1="237.332" x2="248.762" y2="241.124"/><line x1="246.866" y1="237.332" x2="250.658" y2="241.124"/><line x1="246.866" y1="241.124" x2="250.658" y2="237.332"/>
<line x1="247.318" y1="240.64" x2="251.11" y2="240.64"/><line x1="249.214" y1="238.743" x2="249.214" y2="242.536"/><line x1="247.318" y1="238.743" x2="251.11" y2="242.536"/><line x1="247.318" y1="242.536" x2="251.11" y2="238.743"/>
<line x1="247.771" y1="237.978" x2="251.563" y2="237.978"/><line x1="249.667" y1="236.082" x2="249.667" y2="239.874"/><line x1="247.771" y1="236.082" x2="251.563" y2="239.874"/><line x1="247.771" y1="239.874" x2="251.563" y2="236.082"/>
<line x1="248.224" y1="228.652" x2="252.016" y2="228.652"/><line x1="250.12" y1="226.756" x2="250.12" y2="230.548"/><line x1="248.224" y1="226.756" x2="252.016" y2="230.548"/><line x1="248.224" y1="230.548" x2="252.016" y2="226.756"/>
<line x1="248.676" y1="227.432" x2="252.468" y2="227.432"/><line x1="250.572" y1="225.535" x2="250.572" y2="229.328"/><line x1="248.676" y1="225.535" x2="252.468" y2="229.328"/><line x1="248.676" y1="229.328" x2="252.468" y2="225.535"/>
<line x1="249.129" y1="226.586" x2="252.921" y2="226.586"/><line x1="251.025" y1="224.69" x2="251.025" y2="228.482"/><line x1="249.129" y1="224.69" x2="252.921" y2="228.482"/><line x1="249.129" y1="228.482" x2="252.921" y2="224.69"/>
<line x1="249.582" y1="228.454" x2="253.374" y2="228.454"/><line x1="251.478" y1="226.558" x2="251.478" y2="230.35"/><line x1="249.582" y1="226.558" x2="253.374" y2="230.35"/><line x1="249.582" y1="230.35" x2="253.374" y2="226.558"/>
<line x1="250.034" y1="221.377" x2="253.827" y2="221.377"/><line x1="251.93" y1="219.48" x2="251.93" y2="223.273"/><line x1="250.034" y1="219.48" x2="253.827" y2="223.273"/><line x1="250.034" y1="223.273" x2="253.827" y2="219.48"/>
<line x1="250.487" y1="237.673" x2="254.279" y2="237.673"/><line x1="252.383" y1="235.777" x2="252.383" y2="239.569"/><line x1="250.487" y1="235.777" x2="254.279" y2="239.569"/><line x1="250.487" y1="239.569" x2="254.279" y2="235.777"/>
<line x1="250.94" y1="238.843" x2="254.732" y2="238.843"/><line x1="252.836" y1="236.947" x2="252.836" y2="240.739"/><line x1="250.94" y1="236.947" x2="254.732" y2="240.739"/><line x1="250.94" y1="240.739" x2="254.732" y2="236.947"/>
<line x1="251.392" y1="237.518" x2="255.185" y2="237.518"/><line x1="253.288" y1="235.622" x2="253.288" y2="239.414"/><line x1="251.392" y1="235.622" x2="255.185" y2="239.414"/><line x1="251.392" y1="239.414" x2="255.185" y2="235.622"/>
<line x1="251.845" y1="243.065" x2="255.637" y2="243.065"/><line x1="253.741" y1="241.169" x2="253.741" y2="244.961"/><line x1="251.845" y1="241.169" x2="255.637" y2="244.961"/><line x1="251.845" y1="244.961" x2="255.637" y2="241.169"/>
<line x1="252.298" y1="242.149" x2="256.09" y2="242.149"/><line x1="254.194" y1="240.253" x2="254.194" y2="244.045"/><line x1="252.298" y1="240.253" x2="256.09" y2="244.045"/><line x1="252.298" y1="244.045" x2="256.09" y2="240.253"/>
<line x1="252.75" y1="244.393" x2="256.543" y2="244.393"/><line x1="254.647" y1="242.497" x2="254.647" y2="246.29"/><line x1="252.75" y1="242.497" x2="256.543" y2="246.29"/><line x1="252.75" y1="246.29" x2="256.543" y2="242.497"/>
<line x1="253.203" y1="243.127" x2="256.995" y2="243.127"/><line x1="255.099" y1="241.231" x2="255.099" y2="245.023"/><line x1="253.203" y1="241.231" x2="256.995" y2="245.023"/><line x1="253.203" y1="245.023" x2="256.995" y2="241.231"/>
<line x1="253.656" y1="253.988" x2="257.448" y2="253.988"/><line x1="255.552" y1="252.092" x2="255.552" y2="255.884"/><line x1="253.656" y1="252.092" x2="257.448" y2="255.884"/><line x1="253.656" y1="255.884" x2="257.448" y2="252.092"/>
<line x1="254.109" y1="262.898" x2="257.901" y2="262.898"/><line x1="256.005" y1="261.002" x2="256.005" y2="264.794"/><line x1="254.109" y1="261.002" x2="257.901" y2="264.794"/><line x1="254.109" y1="264.794" x2="257.901" y2="261.002"/>
<line x1="254.561" y1="271.966" x2="258.353" y2="271.966"/><line x1="256.457" y1="270.07" x2="256.457" y2="273.863"/><line x1="254.561" y1="270.07" x2="258.353" y2="273.863"/><line x1="254.561" y1="273.863" x2="258.353" y2="270.07"/>
<line x1="255.014" y1="268.831" x2="258.806" y2="268.831"/><line x1="256.91" y1="266.935" x2="256.91" y2="270.727"/><line x1="255.014" y1="266.935" x2="258.806" y2="270.727"/><line x1="255.014" y1="270.727" x2="258.806" y2="266.935"/>
<line x1="255.467" y1="252.46" x2="259.259" y2="252.46"/><line x1="257.363" y1="250.564" x2="257.363" y2="254.356"/><line x1="255.467" y1="250.564" x2="259.259" y2="254.356"/><line x1="255.467" y1="254.356" x2="259.259" y2="250.564"/>
<line x1="255.919" y1="258.843" x2="259.711" y2="258.843"/><line x1="257.815" y1="256.947" x2="257.815" y2="260.739"/><line x1="255.919" y1="256.947" x2="259.711" y2="260.739"/><line x1="255.919" y1="260.739" x2="259.711" y2="256.947"/>
<line x1="256.372" y1="257.375" x2="260.164" y2="257.375"/><line x1="258.268" y1="255.479" x2="258.268" y2="259.271"/><line x1="256.372" y1="255.479" x2="260.164" y2="259.271"/><line x1="256.372" y1="259.271" x2="260.164" y2="255.479"/>
<line x1="256.825" y1="257.563" x2="260.617" y2="257.563"/><line x1="258.721" y1="255.667" x2="258.721" y2="259.459"/><line x1="256.825" y1="255.667" x2="260.617" y2="259.459"/><line x1="256.825" y1="259.459" x2="260.617" y2="255.667"/>
<line x1="257.277" y1="264.062" x2="261.069" y2="264.062"/><line x1="259.173" y1="262.166" x2="259.173" y2="265.959"/><line x1="257.277" y1="262.166" x2="261.069" y2="265.959"/><line x1="257.277" y1="265.959" x2="261.069" y2="262.166"/>
<line x1="257.73" y1="265.148" x2="261.522" y2="265.148"/><line x1="259.626" y1="263.251" x2="259.626" y2="267.044"/><line x1="257.73" y1="263.251" x2="261.522" y2="267.044"/><line x1="257.73" y1="267.044" x2="261.522" y2="263.251"/>
<line x1="258.183" y1="265.345" x2="261.975" y2="265.345"/><line x1="260.079" y1="263.449" x2="260.079" y2="267.241"/><line x1="258.183" y1="263.449" x2="261.975" y2="267.241"/><line x1="258.183" y1="267.241" x2="261.975" y2="263.449"/>
<line x1="258.635" y1="270.251" x2="262.428" y2="270.251"/><line x1="260.531" y1="268.355" x2="260.531" y2="272.148"/><line x1="258.635" y1="268.355" x2="262.428" y2="272.148"/><line x1="258.635" y1="272.148" x2="262.428" y2="268.355"/>
<line x1="259.088" y1="265.164" x2="262.88" y2="265.164"/><line x1="260.984" y1="263.267" x2="260.984" y2="267.06"/><line x1="259.088" y1="263.267" x2="262.88" y2="267.06"/><line x1="259.088" y1="267.06" x2="262.88" y2="263.267"/>
<line x1="259.541" y1="262.968" x2="263.333" y2="262.968"/><line x1="261.437" y1="261.072" x2="261.437" y2="264.864"/><line x1="259.541" y1="261.072" x2="263.333" y2="264.864"/><line x1="259.541" y1="264.864" x2="263.333" y2="261.072"/>
<line x1="259.993" y1="279.572" x2="263.786" y2="279.572"/><line x1="261.889" y1="277.675" x2="261.889" y2="281.468"/><line x1="259.993" y1="277.675" x2="263.786" y2="281.468"/><line x1="259.993" y1="281.468" x2="263.786" y2="277.675"/>
<line x1="260.446" y1="284.605" x2="264.238" y2="284.605"/><line x1="262.342" y1="282.709" x2="262.342" y2="286.502"/><line x1="260.446" y1="282.709" x2="264.238" y2="286.502"/><line x1="260.446" y1="286.502" x2="264.238" y2="282.709"/>
<line x1="260.899" y1="289.253" x2="264.691" y2="289.253"/><line x1="262.795" y1="287.356" x2="262.795" y2="291.149"/><line x1="260.899" y1="287.356" x2="264.691" y2="291.149"/><line x1="260.899" y1="291.149" x2="264.691" y2="287.356"/>
<line x1="261.351" y1="298.513" x2="265.144" y2="298.513"/><line x1="263.248" y1="296.617" x2="263.248" y2="300.409"/><line x1="261.351" y1="296.617" x2="265.144" y2="300.409"/><line x1="261.351" y1="300.409" x2="265.144" y2="296.617"/>
<line x1="261.804" y1="306.916" x2="265.596" y2="306.916"/><line x1="263.7" y1="305.02" x2="263.7" y2="308.813"/><line x1="261.804" y1="305.02" x2="265.596" y2="308.813"/><line x1="261.804" y1="308.813" x2="265.596" y2="305.02"/>
<line x1="262.257" y1="311.874" x2="266.049" y2="311.874"/><line x1="264.153" y1="309.978" x2="264.153" y2="313.77"/><line x1="262.257" y1="309.978" x2="266.049" y2="313.77"/><line x1="262.257" y1="313.77" x2="266.049" y2="309.978"/>
<line x1="262.71" y1="305.579" x2="266.502" y2="305.579"/><line x1="264.606" y1="303.683" x2="264.606" y2="307.475"/><line x1="262.71" y1="303.683" x2="266.502" y2="307.475"/><line x1="262.71" y1="307.475" x2="266.502" y2="303.683"/>
<line x1="263.162" y1="301.874" x2="266.954" y2="301.874"/><line x1="265.058" y1="299.978" x2="265.058" y2="303.771"/><line x1="263.162" y1="299.978" x2="266.954" y2="303.771"/><line x1="263.162" y1="303.771" x2="266.954" y2="299.978"/>
<line x1="263.615" y1="307.299" x2="267.407" y2="307.299"/><line x1="265.511" y1="305.403" x2="265.511" y2="309.195"/><line x1="263.615" y1="305.403" x2="267.407" y2="309.195"/><line x1="263.615" y1="309.195" x2="267.407" y2="305.403"/>
<line x1="264.068" y1="317.347" x2="267.86" y2="317.347"/><line x1="265.964" y1="315.45" x2="265.964" y2="319.243"/><line x1="264.068" y1="315.45" x2="267.86" y2="319.243"/><line x1="264.068" y1="319.243" x2="267.86" y2="315.45"/>
<line x1="264.52" y1="321.01" x2="268.312" y2="321.01"/><line x1="266.416" y1="319.114" x2="266.416" y2="322.906"/><line x1="264.52" y1="319.114" x2="268.312" y2="322.906"/><line x1="264.52" y1="322.906" x2="268.312" y2="319.114"/>
<line x1="264.973" y1="334.21" x2="268.765" y2="334.21"/><line x1="266.869" y1="332.314" x2="266.869" y2="336.106"/><line x1="264.973" y1="332.314" x2="268.765" y2="336.106"/><line x1="264.973" y1="336.106" x2="268.765" y2="332.314"/>
<line x1="265.426" y1="337.698" x2="269.218" y2="337.698"/><line x1="267.322" y1="335.802" x2="267.322" y2="339.594"/><line x1="265.426" y1="335.802" x2="269.218" y2="339.594"/><line x1="265.426" y1="339.594" x2="269.218" y2="335.802"/>
<line x1="265.878" y1="337.245" x2="269.67" y2="337.245"/><line x1="267.774" y1="335.349" x2="267.774" y2="339.141"/><line x1="265.878" y1="335.349" x2="269.67" y2="339.141"/><line x1="265.878" y1="339.141" x2="269.67" y2="335.349"/>
<line x1="266.331" y1="334.308" x2="270.123" y2="334.308"/><line x1="268.227" y1="332.412" x2="268.227" y2="336.204"/><line x1="266.331" y1="332.412" x2="270.123" y2="336.204"/><line x1="266.331" y1="336.204" x2="270.123" y2="332.412"/>
<line x1="266.784" y1="321.149" x2="270.576" y2="321.149"/><line x1="268.68" y1="319.253" x2="268.68" y2="323.045"/><line x1="266.784" y1="319.253" x2="270.576" y2="323.045"/><line x1="266.784" y1="323.045" x2="270.576" y2="319.253"/>
<line x1="267.236" y1="322.149" x2="271.029" y2="322.149"/><line x1="269.132" y1="320.253" x2="269.132" y2="324.046"/><line x1="267.236" y1="320.253" x2="271.029" y2="324.046"/><line x1="267.236" y1="324.046" x2="271.029" y2="320.253"/>
<line x1="267.689" y1="316.915" x2="271.481" y2="316.915"/><line x1="269.585" y1="315.019" x2="269.585" y2="318.811"/><line x1="267.689" y1="315.019" x2="271.481" y2="318.811"/><line x1="267.689" y1="318.811" x2="271.481" y2="315.019"/>
<line x1="268.142" y1="328.143" x2="271.934" y2="328.143"/><line x1="270.038" y1="326.247" x2="270.038" y2="330.039"/><line x1="268.142" y1="326.247" x2="271.934" y2="330.039"/><line x1="268.142" y1="330.039" x2="271.934" y2="326.247"/>
<line x1="268.594" y1="332.777" x2="272.387" y2="332.777"/><line x1="270.49" y1="330.881" x2="270.49" y2="334.673"/><line x1="268.594" y1="330.881" x2="272.387" y2="334.673"/><line x1="268.594" y1="334.673" x2="272.387" y2="330.881"/>
<line x1="269.047" y1="328.405" x2="272.839" y2="328.405"/><line x1="270.943" y1="326.509" x2="270.943" y2="330.301"/><line x1="269.047" y1="326.509" x2="272.839" y2="330.301"/><line x1="269.047" y1="330.301" x2="272.839" y2="326.509"/>
<line x1="269.5" y1="328.624" x2="273.292" y2="328.624"/><line x1="271.396" y1="326.728" x2="271.396" y2="330.52"/><line x1="269.5" y1="326.728" x2="273.292" y2="330.52"/><line x1="269.5" y1="330.52" x2="273.292" y2="326.728"/>
<line x1="269.952" y1="333.138" x2="273.745" y2="333.138"/><line x1="271.849" y1="331.242" x2="271.849" y2="335.034"/><line x1="269.952" y1="331.242" x2="273.745" y2="335.034"/><line x1="269.952" y1="335.034" x2="273.745" y2="331.242"/>
<line x1="270.405" y1="322.504" x2="274.197" y2="322.504"/><line x1="272.301" y1="320.608" x2="272.301" y2="324.4"/><line x1="270.405" y1="320.608" x2="274.197" y2="324.4"/><line x1="270.405" y1="324.4" x2="274.197" y2="320.608"/>
<line x1="270.858" y1="324.112" x2="274.65" y2="324.112"/><line x1="272.754" y1="322.216" x2="272.754" y2="326.008"/><line x1="270.858" y1="322.216" x2="274.65" y2="326.008"/><line x1="270.858" y1="326.008" x2="274.65" y2="322.216"/>
<line x1="271.31" y1="328.428" x2="275.103" y2="328.428"/><line x1="273.207" y1="326.532" x2="273.207" y2="330.324"/><line x1="271.31" y1="326.532" x2="275.103" y2="330.324"/><line x1="271.31" y1="330.324" x2="275.103" y2="326.532"/>
<line x1="271.763" y1="319.049" x2="275.555" y2="319.049"/><line x1="273.659" y1="317.153" x2="273.659" y2="320.946"/><line x1="271.763" y1="317.153" x2="275.555" y2="320.946"/><line x1="271.763" y1="320.946" x2="275.555" y2="317.153"/>
<line x1="272.216" y1="322.051" x2="276.008" y2="322.051"/><line x1="274.112" y1="320.155" x2="274.112" y2="323.947"/><line x1="272.216" y1="320.155" x2="276.008" y2="323.947"/><line x1="272.216" y1="323.947" x2="276.008" y2="320.155"/>
<line x1="272.669" y1="324.63" x2="276.461" y2="324.63"/><line x1="274.565" y1="322.734" x2="274.565" y2="326.526"/><line x1="272.669" y1="322.734" x2="276.461" y2="326.526"/><line x1="272.669" y1="326.526" x2="276.461" y2="322.734"/>
<line x1="273.121" y1="329.265" x2="276.913" y2="329.265"/><line x1="275.017" y1="327.369" x2="275.017" y2="331.161"/><line x1="273.121" y1="327.369" x2="276.913" y2="331.161"/><line x1="273.121" y1="331.161" x2="276.913" y2="327.369"/>
<line x1="273.574" y1="321.887" x2="277.366" y2="321.887"/><line x1="275.47" y1="319.991" x2="275.47" y2="323.783"/><line x1="273.574" y1="319.991" x2="277.366" y2="323.783"/><line x1="273.574" y1="323.783" x2="277.366" y2="319.991"/>
<line x1="274.027" y1="333.679" x2="277.819" y2="333.679"/><line x1="275.923" y1="331.783" x2="275.923" y2="335.575"/><line x1="274.027" y1="331.783" x2="277.819" y2="335.575"/><line x1="274.027" y1="335.575" x2="277.819" y2="331.783"/>
<line x1="274.479" y1="323.83" x2="278.271" y2="323.83"/><line x1="276.375" y1="321.934" x2="276.375" y2="325.726"/><line x1="274.479" y1="321.934" x2="278.271" y2="325.726"/><line x1="274.479" y1="325.726" x2="278.271" y2="321.934"/>
<line x1="274.932" y1="323.702" x2="278.724" y2="323.702"/><line x1="276.828" y1="321.806" x2="276.828" y2="325.598"/><line x1="274.932" y1="321.806" x2="278.724" y2="325.598"/><line x1="274.932" y1="325.598" x2="278.724" y2="321.806"/>
<line x1="275.385" y1="335.016" x2="279.177" y2="335.016"/><line x1="277.281" y1="333.12" x2="277.281" y2="336.912"/><line x1="275.385" y1="333.12" x2="279.177" y2="336.912"/><line x1="275.385" y1="336.912" x2="279.177" y2="333.12"/>
<line x1="275.837" y1="331.972" x2="279.629" y2="331.972"/><line x1="277.733" y1="330.076" x2="277.733" y2="333.869"/><line x1="275.837" y1="330.076" x2="279.629" y2="333.869"/><line x1="275.837" y1="333.869" x2="279.629" y2="330.076"/>
<line x1="276.29" y1="326.474" x2="280.082" y2="326.474"/><line x1="278.186" y1="324.578" x2="278.186" y2="328.37"/><line x1="276.29" y1="324.578" x2="280.082" y2="328.37"/><line x1="276.29" y1="328.37" x2="280.082" y2="324.578"/>
<line x1="276.743" y1="324.732" x2="280.535" y2="324.732"/><line x1="278.639" y1="322.836" x2="278.639" y2="326.628"/><line x1="276.743" y1="322.836" x2="280.535" y2="326.628"/><line x1="276.743" y1="326.628" x2="280.535" y2="322.836"/>
<line x1="277.195" y1="322.837" x2="280.988" y2="322.837"/><line x1="279.091" y1="320.941" x2="279.091" y2="324.733"/><line x1="277.195" y1="320.941" x2="280.988" y2="324.733"/><line x1="277.195" y1="324.733" x2="280.988" y2="320.941"/>
<line x1="277.648" y1="335.885" x2="281.44" y2="335.885"/><line x1="279.544" y1="333.989" x2="279.544" y2="337.781"/><line x1="277.648" y1="333.989" x2="281.44" y2="337.781"/><line x1="277.648" y1="337.781" x2="281.44" y2="333.989"/>
<line x1="278.101" y1="341.344" x2="281.893" y2="341.344"/><line x1="279.997" y1="339.448" x2="279.997" y2="343.241"/><line x1="278.101" y1="339.448" x2="281.893" y2="343.241"/><line x1="278.101" y1="343.241" x2="281.893" y2="339.448"/>
<line x1="278.553" y1="343.802" x2="282.346" y2="343.802"/><line x1="280.449" y1="341.905" x2="280.449" y2="345.698"/><line x1="278.553" y1="341.905" x2="282.346" y2="345.698"/><line x1="278.553" y1="345.698" x2="282.346" y2="341.905"/>
<line x1="279.006" y1="352.471" x2="282.798" y2="352.471"/><line x1="280.902" y1="350.574" x2="280.902" y2="354.367"/><line x1="279.006" y1="350.574" x2="282.798" y2="354.367"/><line x1="279.006" y1="354.367" x2="282.798" y2="350.574"/>
<line x1="279.459" y1="349.841" x2="283.251" y2="349.841"/><line x1="281.355" y1="347.945" x2="281.355" y2="351.737"/><line x1="279.459" y1="347.945" x2="283.251" y2="351.737"/><line x1="279.459" y1="351.737" x2="283.251" y2="347.945"/>
<line x1="279.911" y1="343.754" x2="283.704" y2="343.754"/><line x1="281.808" y1="341.858" x2="281.808" y2="345.65"/><line x1="279.911" y1="341.858" x2="283.704" y2="345.65"/><line x1="279.911" y1="345.65" x2="283.704" y2="341.858"/>
<line x1="280.364" y1="341.966" x2="284.156" y2="341.966"/><line x1="282.26" y1="340.07" x2="282.26" y2="343.862"/><line x1="280.364" y1="340.07" x2="284.156" y2="343.862"/><line x1="280.364" y1="343.862" x2="284.156" y2="340.07"/>
<line x1="280.817" y1="349.754" x2="284.609" y2="349.754"/><line x1="282.713" y1="347.858" x2="282.713" y2="351.65"/><line x1="280.817" y1="347.858" x2="284.609" y2="351.65"/><line x1="280.817" y1="351.65" x2="284.609" y2="347.858"/>
<line x1="281.27" y1="345.955" x2="285.062" y2="345.955"/><line x1="283.166" y1="344.059" x2="283.166" y2="347.851"/><line x1="281.27" y1="344.059" x2="285.062" y2="347.851"/><line x1="281.27" y1="347.851" x2="285.062" y2="344.059"/>
<line x1="281.722" y1="344.315" x2="285.514" y2="344.315"/><line x1="283.618" y1="342.419" x2="283.618" y2="346.211"/><line x1="281.722" y1="342.419" x2="285.514" y2="346.211"/><line x1="281.722" y1="346.211" x2="285.514" y2="342.419"/>
<line x1="282.175" y1="356.265" x2="285.967" y2="356.265"/><line x1="284.071" y1="354.369" x2="284.071" y2="358.161"/><line x1="282.175" y1="354.369" x2="285.967" y2="358.161"/><line x1="282.175" y1="358.161" x2="285.967" y2="354.369"/>
<line x1="282.628" y1="353.464" x2="286.42" y2="353.464"/><line x1="284.524" y1="351.568" x2="284.524" y2="355.36"/><line x1="282.628" y1="351.568" x2="286.42" y2="355.36"/><line x1="282.628" y1="355.36" x2="286.42" y2="351.568"/>
<line x1="283.08" y1="337.647" x2="286.872" y2="337.647"/><line x1="284.976" y1="335.751" x2="284.976" y2="339.543"/><line x1="283.08" y1="335.751" x2="286.872" y2="339.543"/><line x1="283.08" y1="339.543" x2="286.872" y2="335.751"/>
<line x1="283.533" y1="332.387" x2="287.325" y2="332.387"/><line x1="285.429" y1="330.49" x2="285.429" y2="334.283"/><line x1="283.533" y1="330.49" x2="287.325" y2="334.283"/><line x1="283.533" y1="334.283" x2="287.325" y2="330.49"/>
<line x1="283.986" y1="333.002" x2="287.778" y2="333.002"/><line x1="285.882" y1="331.106" x2="285.882" y2="334.898"/><line x1="283.986" y1="331.106" x2="287.778" y2="334.898"/><line x1="283.986" y1="334.898" x2="287.778" y2="331.106"/>
<line x1="284.438" y1="329.561" x2="288.23" y2="329.561"/><line x1="286.334" y1="327.665" x2="286.334" y2="331.457"/><line x1="284.438" y1="327.665" x2="288.23" y2="331.457"/><line x1="284.438" y1="331.457" x2="288.23" y2="327.665"/>
<line x1="284.891" y1="313.429" x2="288.683" y2="313.429"/><line x1="286.787" y1="311.533" x2="286.787" y2="315.325"/><line x1="284.891" y1="311.533" x2="288.683" y2="315.325"/><line x1="284.891" y1="315.325" x2="288.683" y2="311.533"/>
<line x1="285.344" y1="309.573" x2="289.136" y2="309.573"/><line x1="287.24" y1="307.677" x2="287.24" y2="311.47"/><line x1="285.344" y1="307.677" x2="289.136" y2="311.47"/><line x1="285.344" y1="311.47" x2="289.136" y2="307.677"/>
<line x1="285.796" y1="301.191" x2="289.589" y2="301.191"/><line x1="287.692" y1="299.295" x2="287.692" y2="303.087"/><line x1="285.796" y1="299.295" x2="289.589" y2="303.087"/><line x1="285.796" y1="303.087" x2="289.589" y2="299.295"/>
<line x1="286.249" y1="304.894" x2="290.041" y2="304.894"/><line x1="288.145" y1="302.998" x2="288.145" y2="306.791"/><line x1="286.249" y1="302.998" x2="290.041" y2="306.791"/><line x1="286.249" y1="306.791" x2="290.041" y2="302.998"/>
<line x1="286.702" y1="305.584" x2="290.494" y2="305.584"/><line x1="288.598" y1="303.688" x2="288.598" y2="307.48"/><line x1="286.702" y1="303.688" x2="290.494" y2="307.48"/><line x1="286.702" y1="307.48" x2="290.494" y2="303.688"/>
<line x1="287.154" y1="299.568" x2="290.947" y2="299.568"/><line x1="289.05" y1="297.672" x2="289.05" y2="301.464"/><line x1="287.154" y1="297.672" x2="290.947" y2="301.464"/><line x1="287.154" y1="301.464" x2="290.947" y2="297.672"/>
<line x1="287.607" y1="312.656" x2="291.399" y2="312.656"/><line x1="289.503" y1="310.76" x2="289.503" y2="314.552"/><line x1="287.607" y1="310.76" x2="291.399" y2="314.552"/><line x1="287.607" y1="314.552" x2="291.399" y2="310.76"/>
<line x1="288.06" y1="316.489" x2="291.852" y2="316.489"/><line x1="289.956" y1="314.592" x2="289.956" y2="318.385"/><line x1="288.06" y1="314.592" x2="291.852" y2="318.385"/><line x1="288.06" y1="318.385" x2="291.852" y2="314.592"/>
<line x1="288.512" y1="316.041" x2="292.305" y2="316.041"/><line x1="290.409" y1="314.145" x2="290.409" y2="317.937"/><line x1="288.512" y1="314.145" x2="292.305" y2="317.937"/><line x1="288.512" y1="317.937" x2="292.305" y2="314.145"/>
<line x1="288.965" y1="312.205" x2="292.757" y2="312.205"/><line x1="290.861" y1="310.309" x2="290.861" y2="314.101"/><line x1="288.965" y1="310.309" x2="292.757" y2="314.101"/><line x1="288.965" y1="314.101" x2="292.757" y2="310.309"/>
<line x1="289.418" y1="319.911" x2="293.21" y2="319.911"/><line x1="291.314" y1="318.015" x2="291.314" y2="321.807"/><line x1="289.418" y1="318.015" x2="293.21" y2="321.807"/><line x1="289.418" y1="321.807" x2="293.21" y2="318.015"/>
<line x1="289.87" y1="317.54" x2="293.663" y2="317.54"/><line x1="291.767" y1="315.644" x2="291.767" y2="319.436"/><line x1="289.87" y1="315.644" x2="293.663" y2="319.436"/><line x1="289.87" y1="319.436" x2="293.663" y2="315.644"/>
<line x1="290.323" y1="318.263" x2="294.115" y2="318.263"/><line x1="292.219" y1="316.367" x2="292.219" y2="320.159"/><line x1="290.323" y1="316.367" x2="294.115" y2="320.159"/><line x1="290.323" y1="320.159" x2="294.115" y2="316.367"/>
<line x1="290.776" y1="317.663" x2="294.568" y2="317.663"/><line x1="292.672" y1="315.767" x2="292.672" y2="319.559"/><line x1="290.776" y1="315.767" x2="294.568" y2="319.559"/><line x1="290.776" y1="319.559" x2="294.568" y2="315.767"/>
<line x1="291.229" y1="320.822" x2="295.021" y2="320.822"/><line x1="293.125" y1="318.926" x2="293.125" y2="322.718"/><line x1="291.229" y1="318.926" x2="295.021" y2="322.718"/><line x1="291.229" y1="322.718" x2="295.021" y2="318.926"/>
<line x1="291.681" y1="322.266" x2="295.473" y2="322.266"/><line x1="293.577" y1="320.37" x2="293.577" y2="324.162"/><line x1="291.681" y1="320.37" x2="295.473" y2="324.162"/><line x1="291.681" y1="324.162" x2="295.473" y2="320.37"/>
<line x1="292.134" y1="322.415" x2="295.926" y2="322.415"/><line x1="294.03" y1="320.519" x2="294.03" y2="324.311"/><line x1="292.134" y1="320.519" x2="295.926" y2="324.311"/><line x1="292.134" y1="324.311" x2="295.926" y2="320.519"/>
<line x1="292.587" y1="321.303" x2="296.379" y2="321.303"/><line x1="294.483" y1="319.407" x2="294.483" y2="323.199"/><line x1="292.587" y1="319.407" x2="296.379" y2="323.199"/><line x1="292.587" y1="323.199" x2="296.379" y2="319.407"/>
<line x1="293.039" y1="314.373" x2="296.831" y2="314.373"/><line x1="294.935" y1="312.477" x2="294.935" y2="316.269"/><line x1="293.039" y1="312.477" x2="296.831" y2="316.269"/><line x1="293.039" y1="316.269" x2="296.831" y2="312.477"/>
<line x1="293.492" y1="312.252" x2="297.284" y2="312.252"/><line x1="295.388" y1="310.356" x2="295.388" y2="314.148"/><line x1="293.492" y1="310.356" x2="297.284" y2="314.148"/><line x1="293.492" y1="314.148" x2="297.284" y2="310.356"/>
<line x1="293.945" y1="306.867" x2="297.737" y2="306.867"/><line x1="295.841" y1="304.971" x2="295.841" y2="308.763"/><line x1="293.945" y1="304.971" x2="297.737" y2="308.763"/><line x1="293.945" y1="308.763" x2="297.737" y2="304.971"/>
<line x1="294.397" y1="303.716" x2="298.189" y2="303.716"/><line x1="296.293" y1="301.82" x2="296.293" y2="305.612"/><line x1="294.397" y1="301.82" x2="298.189" y2="305.612"/><line x1="294.397" y1="305.612" x2="298.189" y2="301.82"/>
<line x1="294.85" y1="297.071" x2="298.642" y2="297.071"/><line x1="296.746" y1="295.175" x2="296.746" y2="298.967"/><line x1="294.85" y1="295.175" x2="298.642" y2="298.967"/><line x1="294.85" y1="298.967" x2="298.642" y2="295.175"/>
<line x1="295.303" y1="289.378" x2="299.095" y2="289.378"/><line x1="297.199" y1="287.481" x2="297.199" y2="291.274"/><line x1="295.303" y1="287.481" x2="299.095" y2="291.274"/><line x1="295.303" y1="291.274" x2="299.095" y2="287.481"/>
<line x1="295.755" y1="285.459" x2="299.548" y2="285.459"/><line x1="297.651" y1="283.563" x2="297.651" y2="287.355"/><line x1="295.755" y1="283.563" x2="299.548" y2="287.355"/><line x1="295.755" y1="287.355" x2="299.548" y2="283.563"/>
<line x1="296.208" y1="281.665" x2="300" y2="281.665"/><line x1="298.104" y1="279.769" x2="298.104" y2="283.561"/><line x1="296.208" y1="279.769" x2="300" y2="283.561"/><line x1="296.208" y1="283.561" x2="300" y2="279.769"/>
<line x1="296.661" y1="273.43" x2="300.453" y2="273.43"/><line x1="298.557" y1="271.534" x2="298.557" y2="275.326"/><line x1="296.661" y1="271.534" x2="300.453" y2="275.326"/><line x1="296.661" y1="275.326" x2="300.453" y2="271.534"/>
<line x1="297.113" y1="277.615" x2="300.906" y2="277.615"/><line x1="299.009" y1="275.719" x2="299.009" y2="279.511"/><line x1="297.113" y1="275.719" x2="300.906" y2="279.511"/><line x1="297.113" y1="279.511" x2="300.906" y2="275.719"/>
<line x1="297.566" y1="278.336" x2="301.358" y2="278.336"/><line x1="299.462" y1="276.44" x2="299.462" y2="280.232"/><line x1="297.566" y1="276.44" x2="301.358" y2="280.232"/><line x1="297.566" y1="280.232" x2="301.358" y2="276.44"/>
<line x1="298.019" y1="273.44" x2="301.811" y2="273.44"/><line x1="299.915" y1="271.544" x2="299.915" y2="275.336"/><line x1="298.019" y1="271.544" x2="301.811" y2="275.336"/><line x1="298.019" y1="275.336" x2="301.811" y2="271.544"/>
<line x1="298.471" y1="283.052" x2="302.264" y2="283.052"/><line x1="300.368" y1="281.156" x2="300.368" y2="284.948"/><line x1="298.471" y1="281.156" x2="302.264" y2="284.948"/><line x1="298.471" y1="284.948" x2="302.264" y2="281.156"/>
<line x1="298.924" y1="274.314" x2="302.716" y2="274.314"/><line x1="300.82" y1="272.417" x2="300.82" y2="276.21"/><line x1="298.924" y1="272.417" x2="302.716" y2="276.21"/><line x1="298.924" y1="276.21" x2="302.716" y2="272.417"/>
<line x1="299.377" y1="271.361" x2="303.169" y2="271.361"/><line x1="301.273" y1="269.465" x2="301.273" y2="273.257"/><line x1="299.377" y1="269.465" x2="303.169" y2="273.257"/><line x1="299.377" y1="273.257" x2="303.169" y2="269.465"/>
<line x1="299.83" y1="269.129" x2="303.622" y2="269.129"/><line x1="301.726" y1="267.233" x2="301.726" y2="271.025"/><line x1="299.83" y1="267.233" x2="303.622" y2="271.025"/><line x1="299.83" y1="271.025" x2="303.622" y2="267.233"/>
<line x1="300.282" y1="271.965" x2="304.074" y2="271.965"/><line x1="302.178" y1="270.069" x2="302.178" y2="273.861"/><line x1="300.282" y1="270.069" x2="304.074" y2="273.861"/><line x1="300.282" y1="273.861" x2="304.074" y2="270.069"/>
<line x1="300.735" y1="267.016" x2="304.527" y2="267.016"/><line x1="302.631" y1="265.12" x2="302.631" y2="268.912"/><line x1="300.735" y1="265.12" x2="304.527" y2="268.912"/><line x1="300.735" y1="268.912" x2="304.527" y2="265.12"/>
<line x1="301.188" y1="252.666" x2="304.98" y2="252.666"/><line x1="303.084" y1="250.77" x2="303.084" y2="254.562"/><line x1="301.188" y1="250.77" x2="304.98" y2="254.562"/><line x1="301.188" y1="254.562" x2="304.98" y2="250.77"/>
<line x1="301.64" y1="249.232" x2="305.432" y2="249.232"/><line x1="303.536" y1="247.336" x2="303.536" y2="251.129"/><line x1="301.64" y1="247.336" x2="305.432" y2="251.129"/><line x1="301.64" y1="251.129" x2="305.432" y2="247.336"/>
<line x1="302.093" y1="246.897" x2="305.885" y2="246.897"/><line x1="303.989" y1="245.001" x2="303.989" y2="248.793"/><line x1="302.093" y1="245.001" x2="305.885" y2="248.793"/><line x1="302.093" y1="248.793" x2="305.885" y2="245.001"/>
<line x1="302.546" y1="247.256" x2="306.338" y2="247.256"/><line x1="304.442" y1="245.359" x2="304.442" y2="249.152"/><line x1="302.546" y1="245.359" x2="306.338" y2="249.152"/><line x1="302.546" y1="249.152" x2="306.338" y2="245.359"/>
<line x1="302.998" y1="251.306" x2="306.79" y2="251.306"/><line x1="304.894" y1="249.41" x2="304.894" y2="253.202"/><line x1="302.998" y1="249.41" x2="306.79" y2="253.202"/><line x1="302.998" y1="253.202" x2="306.79" y2="249.41"/>
<line x1="303.451" y1="263.371" x2="307.243" y2="263.371"/><line x1="305.347" y1="261.475" x2="305.347" y2="265.267"/><line x1="303.451" y1="261.475" x2="307.243" y2="265.267"/><line x1="303.451" y1="265.267" x2="307.243" y2="261.475"/>
<line x1="303.904" y1="270.429" x2="307.696" y2="270.429"/><line x1="305.8" y1="268.533" x2="305.8" y2="272.325"/><line x1="303.904" y1="268.533" x2="307.696" y2="272.325"/><line x1="303.904" y1="272.325" x2="307.696" y2="268.533"/>
<line x1="304.356" y1="261.382" x2="308.149" y2="261.382"/><line x1="306.252" y1="259.486" x2="306.252" y2="263.278"/><line x1="304.356" y1="259.486" x2="308.149" y2="263.278"/><line x1="304.356" y1="263.278" x2="308.149" y2="259.486"/>
<line x1="304.809" y1="258.607" x2="308.601" y2="258.607"/><line x1="306.705" y1="256.711" x2="306.705" y2="260.503"/><line x1="304.809" y1="256.711" x2="308.601" y2="260.503"/><line x1="304.809" y1="260.503" x2="308.601" y2="256.711"/>
<line x1="305.262" y1="260.727" x2="309.054" y2="260.727"/><line x1="307.158" y1="258.831" x2="307.158" y2="262.623"/><line x1="305.262" y1="258.831" x2="309.054" y2="262.623"/><line x1="305.262" y1="262.623" x2="309.054" y2="258.831"/>
<line x1="305.714" y1="265.081" x2="309.507" y2="265.081"/><line x1="307.61" y1="263.185" x2="307.61" y2="266.977"/><line x1="305.714" y1="263.185" x2="309.507" y2="266.977"/><line x1="305.714" y1="266.977" x2="309.507" y2="263.185"/>
<line x1="306.167" y1="262.919" x2="309.959" y2="262.919"/><line x1="308.063" y1="261.023" x2="308.063" y2="264.815"/><line x1="306.167" y1="261.023" x2="309.959" y2="264.815"/><line x1="306.167" y1="264.815" x2="309.959" y2="261.023"/>
<line x1="306.62" y1="259.066" x2="310.412" y2="259.066"/><line x1="308.516" y1="257.17" x2="308.516" y2="260.962"/><line x1="306.62" y1="257.17" x2="310.412" y2="260.962"/><line x1="306.62" y1="260.962" x2="310.412" y2="257.17"/>
<line x1="307.072" y1="252.981" x2="310.865" y2="252.981"/><line x1="308.969" y1="251.085" x2="308.969" y2="254.877"/><line x1="307.072" y1="251.085" x2="310.865" y2="254.877"/><line x1="307.072" y1="254.877" x2="310.865" y2="251.085"/>
<line x1="307.525" y1="251.453" x2="311.317" y2="251.453"/><line x1="309.421" y1="249.557" x2="309.421" y2="253.349"/><line x1="307.525" y1="249.557" x2="311.317" y2="253.349"/><line x1="307.525" y1="253.349" x2="311.317" y2="249.557"/>
<line x1="307.978" y1="261.513" x2="311.77" y2="261.513"/><line x1="309.874" y1="259.617" x2="309.874" y2="263.409"/><line x1="307.978" y1="259.617" x2="311.77" y2="263.409"/><line x1="307.978" y1="263.409" x2="311.77" y2="259.617"/>
<line x1="308.431" y1="261.904" x2="312.223" y2="261.904"/><line x1="310.327" y1="260.008" x2="310.327" y2="263.8"/><line x1="308.431" y1="260.008" x2="312.223" y2="263.8"/><line x1="308.431" y1="263.8" x2="312.223" y2="260.008"/>
<line x1="308.883" y1="263.44" x2="312.675" y2="263.44"/><line x1="310.779" y1="261.544" x2="310.779" y2="265.336"/><line x1="308.883" y1="261.544" x2="312.675" y2="265.336"/><line x1="308.883" y1="265.336" x2="312.675" y2="261.544"/>
<line x1="309.336" y1="260.383" x2="313.128" y2="260.383"/><line x1="311.232" y1="258.487" x2="311.232" y2="262.279"/><line x1="309.336" y1="258.487" x2="313.128" y2="262.279"/><line x1="309.336" y1="262.279" x2="313.128" y2="258.487"/>
<line x1="309.789" y1="250.561" x2="313.581" y2="250.561"/><line x1="311.685" y1="248.665" x2="311.685" y2="252.457"/><line x1="309.789" y1="248.665" x2="313.581" y2="252.457"/><line x1="309.789" y1="252.457" x2="313.581" y2="248.665"/>
<line x1="310.241" y1="249.245" x2="314.033" y2="249.245"/><line x1="312.137" y1="247.349" x2="312.137" y2="251.141"/><line x1="310.241" y1="247.349" x2="314.033" y2="251.141"/><line x1="310.241" y1="251.141" x2="314.033" y2="247.349"/>
<line x1="310.694" y1="253.211" x2="314.486" y2="253.211"/><line x1="312.59" y1="251.315" x2="312.59" y2="255.107"/><line x1="310.694" y1="251.315" x2="314.486" y2="255.107"/><line x1="310.694" y1="255.107" x2="314.486" y2="251.315"/>
<line x1="311.147" y1="242.015" x2="314.939" y2="242.015"/><line x1="313.043" y1="240.119" x2="313.043" y2="243.911"/><line x1="311.147" y1="240.119" x2="314.939" y2="243.911"/><line x1="311.147" y1="243.911" x2="314.939" y2="240.119"/>
<line x1="311.599" y1="237.461" x2="315.391" y2="237.461"/><line x1="313.495" y1="235.565" x2="313.495" y2="239.357"/><line x1="311.599" y1="235.565" x2="315.391" y2="239.357"/><line x1="311.599" y1="239.357" x2="315.391" y2="235.565"/>
<line x1="312.052" y1="241.438" x2="315.844" y2="241.438"/><line x1="313.948" y1="239.541" x2="313.948" y2="243.334"/><line x1="312.052" y1="239.541" x2="315.844" y2="243.334"/><line x1="312.052" y1="243.334" x2="315.844" y2="239.541"/>
<line x1="312.505" y1="245.839" x2="316.297" y2="245.839"/><line x1="314.401" y1="243.943" x2="314.401" y2="247.735"/><line x1="312.505" y1="243.943" x2="316.297" y2="247.735"/><line x1="312.505" y1="247.735" x2="316.297" y2="243.943"/>
<line x1="312.957" y1="241.761" x2="316.75" y2="241.761"/><line x1="314.853" y1="239.865" x2="314.853" y2="243.657"/><line x1="312.957" y1="239.865" x2="316.75" y2="243.657"/><line x1="312.957" y1="243.657" x2="316.75" y2="239.865"/>
<line x1="313.41" y1="238.733" x2="317.202" y2="238.733"/><line x1="315.306" y1="236.837" x2="315.306" y2="240.629"/><line x1="313.41" y1="236.837" x2="317.202" y2="240.629"/><line x1="313.41" y1="240.629" x2="317.202" y2="236.837"/>
<line x1="313.863" y1="233.216" x2="317.655" y2="233.216"/><line x1="315.759" y1="231.32" x2="315.759" y2="235.112"/><line x1="313.863" y1="231.32" x2="317.655" y2="235.112"/><line x1="313.863" y1="235.112" x2="317.655" y2="231.32"/>
<line x1="314.315" y1="235.674" x2="318.108" y2="235.674"/><line x1="316.211" y1="233.778" x2="316.211" y2="237.57"/><line x1="314.315" y1="233.778" x2="318.108" y2="237.57"/><line x1="314.315" y1="237.57" x2="318.108" y2="233.778"/>
<line x1="314.768" y1="233.059" x2="318.56" y2="233.059"/><line x1="316.664" y1="231.163" x2="316.664" y2="234.955"/><line x1="314.768" y1="231.163" x2="318.56" y2="234.955"/><line x1="314.768" y1="234.955" x2="318.56" y2="231.163"/>
<line x1="315.221" y1="228.191" x2="319.013" y2="228.191"/><line x1="317.117" y1="226.295" x2="317.117" y2="230.087"/><line x1="315.221" y1="226.295" x2="319.013" y2="230.087"/><line x1="315.221" y1="230.087" x2="319.013" y2="226.295"/>
<line x1="315.673" y1="233.14" x2="319.466" y2="233.14"/><line x1="317.57" y1="231.244" x2="317.57" y2="235.036"/><line x1="315.673" y1="231.244" x2="319.466" y2="235.036"/><line x1="315.673" y1="235.036" x2="319.466" y2="231.244"/>
<line x1="316.126" y1="235.075" x2="319.918" y2="235.075"/><line x1="318.022" y1="233.179" x2="318.022" y2="236.971"/><line x1="316.126" y1="233.179" x2="319.918" y2="236.971"/><line x1="316.126" y1="236.971" x2="319.918" y2="233.179"/>
<line x1="316.579" y1="227.927" x2="320.371" y2="227.927"/><line x1="318.475" y1="226.031" x2="318.475" y2="229.823"/><line x1="316.579" y1="226.031" x2="320.371" y2="229.823"/><line x1="316.579" y1="229.823" x2="320.371" y2="226.031"/>
<line x1="317.031" y1="221.004" x2="320.824" y2="221.004"/><line x1="318.928" y1="219.108" x2="318.928" y2="222.9"/><line x1="317.031" y1="219.108" x2="320.824" y2="222.9"/><line x1="317.031" y1="222.9" x2="320.824" y2="219.108"/>
<line x1="317.484" y1="213.531" x2="321.276" y2="213.531"/><line x1="319.38" y1="211.635" x2="319.38" y2="215.427"/><line x1="317.484" y1="211.635" x2="321.276" y2="215.427"/><line x1="317.484" y1="215.427" x2="321.276" y2="211.635"/>
<line x1="317.937" y1="209.748" x2="321.729" y2="209.748"/><line x1="319.833" y1="207.852" x2="319.833" y2="211.644"/><line x1="317.937" y1="207.852" x2="321.729" y2="211.644"/><line x1="317.937" y1="211.644" x2="321.729" y2="207.852"/>
<line x1="318.39" y1="217.901" x2="322.182" y2="217.901"/><line x1="320.286" y1="216.005" x2="320.286" y2="219.797"/><line x1="318.39" y1="216.005" x2="322.182" y2="219.797"/><line x1="318.39" y1="219.797" x2="322.182" y2="216.005"/>
<line x1="318.842" y1="211.14" x2="322.634" y2="211.14"/><line x1="320.738" y1="209.244" x2="320.738" y2="213.036"/><line x1="318.842" y1="209.244" x2="322.634" y2="213.036"/><line x1="318.842" y1="213.036" x2="322.634" y2="209.244"/>
<line x1="319.295" y1="201.648" x2="323.087" y2="201.648"/><line x1="321.191" y1="199.752" x2="321.191" y2="203.544"/><line x1="319.295" y1="199.752" x2="323.087" y2="203.544"/><line x1="319.295" y1="203.544" x2="323.087" y2="199.752"/>
<line x1="319.748" y1="195.055" x2="323.54" y2="195.055"/><line x1="321.644" y1="193.159" x2="321.644" y2="196.951"/><line x1="319.748" y1="193.159" x2="323.54" y2="196.951"/><line x1="319.748" y1="196.951" x2="323.54" y2="193.159"/>
<line x1="320.2" y1="180.247" x2="323.992" y2="180.247"/><line x1="322.096" y1="178.351" x2="322.096" y2="182.143"/><line x1="320.2" y1="178.351" x2="323.992" y2="182.143"/><line x1="320.2" y1="182.143" x2="323.992" y2="178.351"/>
<line x1="320.653" y1="175.655" x2="324.445" y2="175.655"/><line x1="322.549" y1="173.759" x2="322.549" y2="177.551"/><line x1="320.653" y1="173.759" x2="324.445" y2="177.551"/><line x1="320.653" y1="177.551" x2="324.445" y2="173.759"/>
<line x1="321.106" y1="171.284" x2="324.898" y2="171.284"/><line x1="323.002" y1="169.388" x2="323.002" y2="173.18"/><line x1="321.106" y1="169.388" x2="324.898" y2="173.18"/><line x1="321.106" y1="173.18" x2="324.898" y2="169.388"/>
<line x1="321.558" y1="166.083" x2="325.35" y2="166.083"/><line x1="323.454" y1="164.187" x2="323.454" y2="167.979"/><line x1="321.558" y1="164.187" x2="325.35" y2="167.979"/><line x1="321.558" y1="167.979" x2="325.35" y2="164.187"/>
<line x1="322.011" y1="160.548" x2="325.803" y2="160.548"/><line x1="323.907" y1="158.652" x2="323.907" y2="162.444"/><line x1="322.011" y1="158.652" x2="325.803" y2="162.444"/><line x1="322.011" y1="162.444" x2="325.803" y2="158.652"/>
<line x1="322.464" y1="165.787" x2="326.256" y2="165.787"/><line x1="324.36" y1="163.891" x2="324.36" y2="167.683"/><line x1="322.464" y1="163.891" x2="326.256" y2="167.683"/><line x1="322.464" y1="167.683" x2="326.256" y2="163.891"/>
<line x1="322.916" y1="165.152" x2="326.709" y2="165.152"/><line x1="324.812" y1="163.256" x2="324.812" y2="167.048"/><line x1="322.916" y1="163.256" x2="326.709" y2="167.048"/><line x1="322.916" y1="167.048" x2="326.709" y2="163.256"/>
<line x1="323.369" y1="166.228" x2="327.161" y2="166.228"/><line x1="325.265" y1="164.332" x2="325.265" y2="168.124"/><line x1="323.369" y1="164.332" x2="327.161" y2="168.124"/><line x1="323.369" y1="168.124" x2="327.161" y2="164.332"/>
<line x1="323.822" y1="169.358" x2="327.614" y2="169.358"/><line x1="325.718" y1="167.462" x2="325.718" y2="171.254"/><line x1="323.822" y1="167.462" x2="327.614" y2="171.254"/><line x1="323.822" y1="171.254" x2="327.614" y2="167.462"/>
<line x1="324.274" y1="163.043" x2="328.067" y2="163.043"/><line x1="326.171" y1="161.147" x2="326.171" y2="164.939"/><line x1="324.274" y1="161.147" x2="328.067" y2="164.939"/><line x1="324.274" y1="164.939" x2="328.067" y2="161.147"/>
<line x1="324.727" y1="159.447" x2="328.519" y2="159.447"/><line x1="326.623" y1="157.55" x2="326.623" y2="161.343"/><line x1="324.727" y1="157.55" x2="328.519" y2="161.343"/><line x1="324.727" y1="161.343" x2="328.519" y2="157.55"/>
<line x1="325.18" y1="150.401" x2="328.972" y2="150.401"/><line x1="327.076" y1="148.505" x2="327.076" y2="152.297"/><line x1="325.18" y1="148.505" x2="328.972" y2="152.297"/><line x1="325.18" y1="152.297" x2="328.972" y2="148.505"/>
<line x1="325.632" y1="149.78" x2="329.425" y2="149.78"/><line x1="327.529" y1="147.883" x2="327.529" y2="151.676"/><line x1="325.632" y1="147.883" x2="329.425" y2="151.676"/><line x1="325.632" y1="151.676" x2="329.425" y2="147.883"/>
<line x1="326.085" y1="140.764" x2="329.877" y2="140.764"/><line x1="327.981" y1="138.868" x2="327.981" y2="142.66"/><line x1="326.085" y1="138.868" x2="329.877" y2="142.66"/><line x1="326.085" y1="142.66" x2="329.877" y2="138.868"/>
<line x1="326.538" y1="129.311" x2="330.33" y2="129.311"/><line x1="328.434" y1="127.415" x2="328.434" y2="131.207"/><line x1="326.538" y1="127.415" x2="330.33" y2="131.207"/><line x1="326.538" y1="131.207" x2="330.33" y2="127.415"/>
<line x1="326.991" y1="126.491" x2="330.783" y2="126.491"/><line x1="328.887" y1="124.595" x2="328.887" y2="128.387"/><line x1="326.991" y1="124.595" x2="330.783" y2="128.387"/><line x1="326.991" y1="128.387" x2="330.783" y2="124.595"/>
<line x1="327.443" y1="129.043" x2="331.235" y2="129.043"/><line x1="329.339" y1="127.147" x2="329.339" y2="130.939"/><line x1="327.443" y1="127.147" x2="331.235" y2="130.939"/><line x1="327.443" y1="130.939" x2="331.235" y2="127.147"/>
<line x1="327.896" y1="140.275" x2="331.688" y2="140.275"/><line x1="329.792" y1="138.379" x2="329.792" y2="142.171"/><line x1="327.896" y1="138.379" x2="331.688" y2="142.171"/><line x1="327.896" y1="142.171" x2="331.688" y2="138.379"/>
<line x1="328.349" y1="133.983" x2="332.141" y2="133.983"/><line x1="330.245" y1="132.087" x2="330.245" y2="135.879"/><line x1="328.349" y1="132.087" x2="332.141" y2="135.879"/><line x1="328.349" y1="135.879" x2="332.141" y2="132.087"/>
<line x1="328.801" y1="143.14" x2="332.593" y2="143.14"/><line x1="330.697" y1="141.244" x2="330.697" y2="145.036"/><line x1="328.801" y1="141.244" x2="332.593" y2="145.036"/><line x1="328.801" y1="145.036" x2="332.593" y2="141.244"/>
<line x1="329.254" y1="134.456" x2="333.046" y2="134.456"/><line x1="331.15" y1="132.56" x2="331.15" y2="136.352"/><line x1="329.254" y1="132.56" x2="333.046" y2="136.352"/><line x1="329.254" y1="136.352" x2="333.046" y2="132.56"/>
<line x1="329.707" y1="135.534" x2="333.499" y2="135.534"/><line x1="331.603" y1="133.638" x2="331.603" y2="137.43"/><line x1="329.707" y1="133.638" x2="333.499" y2="137.43"/><line x1="329.707" y1="137.43" x2="333.499" y2="133.638"/>
<line x1="330.159" y1="125.369" x2="333.951" y2="125.369"/><line x1="332.055" y1="123.473" x2="332.055" y2="127.265"/><line x1="330.159" y1="123.473" x2="333.951" y2="127.265"/><line x1="330.159" y1="127.265" x2="333.951" y2="123.473"/>
<line x1="330.612" y1="118.825" x2="334.404" y2="118.825"/><line x1="332.508" y1="116.929" x2="332.508" y2="120.722"/><line x1="330.612" y1="116.929" x2="334.404" y2="120.722"/><line x1="330.612" y1="120.722" x2="334.404" y2="116.929"/>
<line x1="331.065" y1="116.557" x2="334.857" y2="116.557"/><line x1="332.961" y1="114.661" x2="332.961" y2="118.453"/><line x1="331.065" y1="114.661" x2="334.857" y2="118.453"/><line x1="331.065" y1="118.453" x2="334.857" y2="114.661"/>
<line x1="331.517" y1="106.399" x2="335.31" y2="106.399"/><line x1="333.413" y1="104.503" x2="333.413" y2="108.295"/><line x1="331.517" y1="104.503" x2="335.31" y2="108.295"/><line x1="331.517" y1="108.295" x2="335.31" y2="104.503"/>
<line x1="331.97" y1="113.182" x2="335.762" y2="113.182"/><line x1="333.866" y1="111.286" x2="333.866" y2="115.078"/><line x1="331.97" y1="111.286" x2="335.762" y2="115.078"/><line x1="331.97" y1="115.078" x2="335.762" y2="111.286"/>
<line x1="332.423" y1="110.44" x2="336.215" y2="110.44"/><line x1="334.319" y1="108.544" x2="334.319" y2="112.336"/><line x1="332.423" y1="108.544" x2="336.215" y2="112.336"/><line x1="332.423" y1="112.336" x2="336.215" y2="108.544"/>
<line x1="332.875" y1="117.233" x2="336.668" y2="117.233"/><line x1="334.771" y1="115.337" x2="334.771" y2="119.129"/><line x1="332.875" y1="115.337" x2="336.668" y2="119.129"/><line x1="332.875" y1="119.129" x2="336.668" y2="115.337"/>
<line x1="333.328" y1="108.29" x2="337.12" y2="108.29"/><line x1="335.224" y1="106.394" x2="335.224" y2="110.186"/><line x1="333.328" y1="106.394" x2="337.12" y2="110.186"/><line x1="333.328" y1="110.186" x2="337.12" y2="106.394"/>
<line x1="333.781" y1="106.438" x2="337.573" y2="106.438"/><line x1="335.677" y1="104.542" x2="335.677" y2="108.334"/><line x1="333.781" y1="104.542" x2="337.573" y2="108.334"/><line x1="333.781" y1="108.334" x2="337.573" y2="104.542"/>
<line x1="334.233" y1="101.595" x2="338.026" y2="101.595"/><line x1="336.13" y1="99.6992" x2="336.13" y2="103.491"/><line x1="334.233" y1="99.6992" x2="338.026" y2="103.491"/><line x1="334.233" y1="103.491" x2="338.026" y2="99.6992"/>
<line x1="334.686" y1="101.388" x2="338.478" y2="101.388"/><line x1="336.582" y1="99.4918" x2="336.582" y2="103.284"/><line x1="334.686" y1="99.4918" x2="338.478" y2="103.284"/><line x1="334.686" y1="103.284" x2="338.478" y2="99.4918"/>
<line x1="335.139" y1="113.266" x2="338.931" y2="113.266"/><line x1="337.035" y1="111.37" x2="337.035" y2="115.162"/><line x1="335.139" y1="111.37" x2="338.931" y2="115.162"/><line x1="335.139" y1="115.162" x2="338.931" y2="111.37"/>
<line x1="335.591" y1="110.398" x2="339.384" y2="110.398"/><line x1="337.488" y1="108.502" x2="337.488" y2="112.294"/><line x1="335.591" y1="108.502" x2="339.384" y2="112.294"/><line x1="335.591" y1="112.294" x2="339.384" y2="108.502"/>
<line x1="336.044" y1="105.336" x2="339.836" y2="105.336"/><line x1="337.94" y1="103.44" x2="337.94" y2="107.232"/><line x1="336.044" y1="103.44" x2="339.836" y2="107.232"/><line x1="336.044" y1="107.232" x2="339.836" y2="103.44"/>
<line x1="336.497" y1="102.533" x2="340.289" y2="102.533"/><line x1="338.393" y1="100.637" x2="338.393" y2="104.429"/><line x1="336.497" y1="100.637" x2="340.289" y2="104.429"/><line x1="336.497" y1="104.429" x2="340.289" y2="100.637"/>
<line x1="336.95" y1="94.8498" x2="340.742" y2="94.8498"/><line x1="338.846" y1="92.9537" x2="338.846" y2="96.7459"/><line x1="336.95" y1="92.9537" x2="340.742" y2="96.7459"/><line x1="336.95" y1="96.7459" x2="340.742" y2="92.9537"/>
<line x1="337.402" y1="72.6466" x2="341.194" y2="72.6466"/><line x1="339.298" y1="70.7505" x2="339.298" y2="74.5427"/><line x1="337.402" y1="70.7505" x2="341.194" y2="74.5427"/><line x1="337.402" y1="74.5427" x2="341.194" y2="70.7505"/>
<line x1="337.855" y1="67.3407" x2="341.647" y2="67.3407"/><line x1="339.751" y1="65.4446" x2="339.751" y2="69.2367"/><line x1="337.855" y1="65.4446" x2="341.647" y2="69.2367"/><line x1="337.855" y1="69.2367" x2="341.647" y2="65.4446"/>
<line x1="338.308" y1="66.9259" x2="342.1" y2="66.9259"/><line x1="340.204" y1="65.0298" x2="340.204" y2="68.822"/><line x1="338.308" y1="65.0298" x2="342.1" y2="68.822"/><line x1="338.308" y1="68.822" x2="342.1" y2="65.0298"/>
<line x1="338.76" y1="62.6493" x2="342.552" y2="62.6493"/><line x1="340.656" y1="60.7532" x2="340.656" y2="64.5454"/><line x1="338.76" y1="60.7532" x2="342.552" y2="64.5454"/><line x1="338.76" y1="64.5454" x2="342.552" y2="60.7532"/>
<line x1="339.213" y1="67.1454" x2="343.005" y2="67.1454"/><line x1="341.109" y1="65.2493" x2="341.109" y2="69.0415"/><line x1="339.213" y1="65.2493" x2="343.005" y2="69.0415"/><line x1="339.213" y1="69.0415" x2="343.005" y2="65.2493"/>
<line x1="339.666" y1="71.2889" x2="343.458" y2="71.2889"/><line x1="341.562" y1="69.3928" x2="341.562" y2="73.185"/><line x1="339.666" y1="69.3928" x2="343.458" y2="73.185"/><line x1="339.666" y1="73.185" x2="343.458" y2="69.3928"/>
<line x1="340.118" y1="69.5413" x2="343.91" y2="69.5413"/><line x1="342.014" y1="67.6453" x2="342.014" y2="71.4374"/><line x1="340.118" y1="67.6453" x2="343.91" y2="71.4374"/><line x1="340.118" y1="71.4374" x2="343.91" y2="67.6453"/>
<line x1="340.571" y1="57.0404" x2="344.363" y2="57.0404"/><line x1="342.467" y1="55.1443" x2="342.467" y2="58.9365"/><line x1="340.571" y1="55.1443" x2="344.363" y2="58.9365"/><line x1="340.571" y1="58.9365" x2="344.363" y2="55.1443"/>
<line x1="341.024" y1="59.7644" x2="344.816" y2="59.7644"/><line x1="342.92" y1="57.8684" x2="342.92" y2="61.6605"/><line x1="341.024" y1="57.8684" x2="344.816" y2="61.6605"/><line x1="341.024" y1="61.6605" x2="344.816" y2="57.8684"/>
<line x1="341.476" y1="55.6763" x2="345.269" y2="55.6763"/><line x1="343.372" y1="53.7802" x2="343.372" y2="57.5724"/><line x1="341.476" y1="53.7802" x2="345.269" y2="57.5724"/><line x1="341.476" y1="57.5724" x2="345.269" y2="53.7802"/>
<line x1="341.929" y1="54.7865" x2="345.721" y2="54.7865"/><line x1="343.825" y1="52.8904" x2="343.825" y2="56.6826"/><line x1="341.929" y1="52.8904" x2="345.721" y2="56.6826"/><line x1="341.929" y1="56.6826" x2="345.721" y2="52.8904"/>
<line x1="342.382" y1="62.4381" x2="346.174" y2="62.4381"/><line x1="344.278" y1="60.542" x2="344.278" y2="64.3341"/><line x1="342.382" y1="60.542" x2="346.174" y2="64.3341"/><line x1="342.382" y1="64.3341" x2="346.174" y2="60.542"/>
<line x1="342.834" y1="67.9418" x2="346.627" y2="67.9418"/><line x1="344.731" y1="66.0458" x2="344.731" y2="69.8379"/><line x1="342.834" y1="66.0458" x2="346.627" y2="69.8379"/><line x1="342.834" y1="69.8379" x2="346.627" y2="66.0458"/>
<line x1="343.287" y1="72.1783" x2="347.079" y2="72.1783"/><line x1="345.183" y1="70.2822" x2="345.183" y2="74.0744"/><line x1="343.287" y1="70.2822" x2="347.079" y2="74.0744"/><line x1="343.287" y1="74.0744" x2="347.079" y2="70.2822"/>
<line x1="343.74" y1="67.3149" x2="347.532" y2="67.3149"/><line x1="345.636" y1="65.4188" x2="345.636" y2="69.2109"/><line x1="343.74" y1="65.4188" x2="347.532" y2="69.2109"/><line x1="343.74" y1="69.2109" x2="347.532" y2="65.4188"/>
<line x1="344.192" y1="63.5352" x2="347.985" y2="63.5352"/><line x1="346.089" y1="61.6391" x2="346.089" y2="65.4313"/><line x1="344.192" y1="61.6391" x2="347.985" y2="65.4313"/><line x1="344.192" y1="65.4313" x2="347.985" y2="61.6391"/>
<line x1="344.645" y1="53.2103" x2="348.437" y2="53.2103"/><line x1="346.541" y1="51.3142" x2="346.541" y2="55.1064"/><line x1="344.645" y1="51.3142" x2="348.437" y2="55.1064"/><line x1="344.645" y1="55.1064" x2="348.437" y2="51.3142"/>
<line x1="345.098" y1="46.173" x2="348.89" y2="46.173"/><line x1="346.994" y1="44.2769" x2="346.994" y2="48.0691"/><line x1="345.098" y1="44.2769" x2="348.89" y2="48.0691"/><line x1="345.098" y1="48.0691" x2="348.89" y2="44.2769"/>
</g>
<path d="M170.9,353.116h 226.342" fill="none" stroke="#0000ff"/>
<path d="M284.071,372.012v -47.2396" fill="none" stroke="#ff0000"/>
<rect x="57.1929" y="330.677" width="113.386" height="41.3346" fill="white"/>
<path d="M57.1929,372.012h 113.386" fill="none" stroke="black"/>
<path d="M170.579,372.012v -41.3346" fill="none" stroke="black"/>
<path d="M170.579,330.677h -113.386" fill="none" stroke="black"/>
<path d="M57.1929,330.677v 41.3346" fill="none" stroke="black"/>
<text xml:space="preserve" x="85.3498" y="354.568" fill="black" font-size="12.0704" font-family="Helvetica">#p.e of PMTs6</text>
<path d="M61.4449,351.344h 19.8425" fill="none" stroke="black"/></svg>
