<?xml version="1.0" standalone="no"?>
<svg width="567.429" height="413.846" viewBox="0 0 567.429 413.846" xmlns="http://www.w3.org/2000/svg" shape-rendering="crispEdges">
<title>
figures/chi2_1PMTnpedata190929-01.svg
</title>
<desc>
Creator: ROOT Version 6.18/02
CreationDate: Sun Sep 29 21:04:34 2019</desc>
<defs>
</defs>
<rect x="0.5" y="0" width="566.929" height="413.346" fill="white"/>
<rect x="57.1929" y="41.3346" width="453.543" height="330.677" fill="white"/>
<rect x="57.1929" y="41.3346" width="453.543" height="330.677" fill="none" stroke="black"/>
<path d="M57.1929,372.012h 453.543" fill="none" stroke="black"/>
<path d="M59.524,41.3346v 330.677" fill="none" stroke="black" stroke-dasharray=" 1, 2"/>
<path d="M104.792,41.3346v 330.677" fill="none" stroke="black" stroke-dasharray=" 1, 2"/>
<path d="M150.061,41.3346v 330.677" fill="none" stroke="black" stroke-dasharray=" 1, 2"/>
<path d="M195.329,41.3346v 330.677" fill="none" stroke="black" stroke-dasharray=" 1, 2"/>
<path d="M240.597,41.3346v 330.677" fill="none" stroke="black" stroke-dasharray=" 1, 2"/>
<path d="M285.866,41.3346v 330.677" fill="none" stroke="black" stroke-dasharray=" 1, 2"/>
<path d="M331.134,41.3346v 330.677" fill="none" stroke="black" stroke-dasharray=" 1, 2"/>
<path d="M376.402,41.3346v 330.677" fill="none" stroke="black" stroke-dasharray=" 1, 2"/>
<path d="M421.671,41.3346v 330.677" fill="none" stroke="black" stroke-dasharray=" 1, 2"/>
<path d="M466.939,41.3346v 330.677" fill="none" stroke="black" stroke-dasharray=" 1, 2"/>
<path d="M59.524,41.3346v 330.677" fill="none" stroke="black" stroke-dasharray=" 1, 2"/>
<path d="M466.939,41.3346v 330.677" fill="none" stroke="black" stroke-dasharray=" 1, 2"/>
<path d="M57.1929,372.012v -330.677" fill="none" stroke="black"/>
<path d="M510.736,314.51h -453.543" fill="none" stroke="black" stroke-dasharray=" 1, 2"/>
<path d="M510.736,251.524h -453.543" fill="none" stroke="black" stroke-dasharray=" 1, 2"/>
<path d="M510.736,188.538h -453.543" fill="none" stroke="black" stroke-dasharray=" 1, 2"/>
<path d="M510.736,125.551h -453.543" fill="none" stroke="black" stroke-dasharray=" 1, 2"/>
<path d="M510.736,62.5653h -453.543" fill="none" stroke="black" stroke-dasharray=" 1, 2"/>
<path d="M510.736,314.51h -453.543" fill="none" stroke="black" stroke-dasharray=" 1, 2"/>
<path d="M510.736,62.5653h -453.543" fill="none" stroke="black" stroke-dasharray=" 1, 2"/>
<path d="M57.1929,372.012h 453.543" fill="none" stroke="black"/>
<path d="M59.524,362.091v 9.92031" fill="none" stroke="black"/>
<path d="M70.8411,367.052v 4.96016" fill="none" stroke="black"/>
<path d="M82.1582,367.052v 4.96016" fill="none" stroke="black"/>
<path d="M93.4753,367.052v 4.96016" fill="none" stroke="black"/>
<path d="M104.792,362.091v 9.92031" fill="none" stroke="black"/>
<path d="M116.109,367.052v 4.96016" fill="none" stroke="black"/>
<path d="M127.427,367.052v 4.96016" fill="none" stroke="black"/>
<path d="M138.744,367.052v 4.96016" fill="none" stroke="black"/>
<path d="M150.061,362.091v 9.92031" fill="none" stroke="black"/>
<path d="M161.378,367.052v 4.96016" fill="none" stroke="black"/>
<path d="M172.695,367.052v 4.96016" fill="none" stroke="black"/>
<path d="M184.012,367.052v 4.96016" fill="none" stroke="black"/>
<path d="M195.329,362.091v 9.92031" fill="none" stroke="black"/>
<path d="M206.646,367.052v 4.96016" fill="none" stroke="black"/>
<path d="M217.963,367.052v 4.96016" fill="none" stroke="black"/>
<path d="M229.28,367.052v 4.96016" fill="none" stroke="black"/>
<path d="M240.597,362.091v 9.92031" fill="none" stroke="black"/>
<path d="M251.914,367.052v 4.96016" fill="none" stroke="black"/>
<path d="M263.232,367.052v 4.96016" fill="none" stroke="black"/>
<path d="M274.549,367.052v 4.96016" fill="none" stroke="black"/>
<path d="M285.866,362.091v 9.92031" fill="none" stroke="black"/>
<path d="M297.183,367.052v 4.96016" fill="none" stroke="black"/>
<path d="M308.5,367.052v 4.96016" fill="none" stroke="black"/>
<path d="M319.817,367.052v 4.96016" fill="none" stroke="black"/>
<path d="M331.134,362.091v 9.92031" fill="none" stroke="black"/>
<path d="M342.451,367.052v 4.96016" fill="none" stroke="black"/>
<path d="M353.768,367.052v 4.96016" fill="none" stroke="black"/>
<path d="M365.085,367.052v 4.96016" fill="none" stroke="black"/>
<path d="M376.402,362.091v 9.92031" fill="none" stroke="black"/>
<path d="M387.719,367.052v 4.96016" fill="none" stroke="black"/>
<path d="M399.036,367.052v 4.96016" fill="none" stroke="black"/>
<path d="M410.354,367.052v 4.96016" fill="none" stroke="black"/>
<path d="M421.671,362.091v 9.92031" fill="none" stroke="black"/>
<path d="M432.988,367.052v 4.96016" fill="none" stroke="black"/>
<path d="M444.305,367.052v 4.96016" fill="none" stroke="black"/>
<path d="M455.622,367.052v 4.96016" fill="none" stroke="black"/>
<path d="M466.939,362.091v 9.92031" fill="none" stroke="black"/>
<path d="M59.524,362.091v 9.92031" fill="none" stroke="black"/>
<path d="M466.939,362.091v 9.92031" fill="none" stroke="black"/>
<path d="M478.256,367.052v 4.96016" fill="none" stroke="black"/>
<path d="M489.573,367.052v 4.96016" fill="none" stroke="black"/>
<path d="M500.89,367.052v 4.96016" fill="none" stroke="black"/>
<text xml:space="preserve" x="50.2722" y="385.379" fill="black" font-size="13.7726" font-family="Helvetica">0.9</text>
<text xml:space="preserve" x="91.9861" y="385.379" fill="black" font-size="13.7726" font-family="Helvetica">0.92</text>
<text xml:space="preserve" x="137.018" y="385.379" fill="black" font-size="13.7726" font-family="Helvetica">0.94</text>
<text xml:space="preserve" x="182.524" y="385.379" fill="black" font-size="13.7726" font-family="Helvetica">0.96</text>
<text xml:space="preserve" x="227.556" y="385.379" fill="black" font-size="13.7726" font-family="Helvetica">0.98</text>
<text xml:space="preserve" x="283.491" y="385.379" fill="black" font-size="13.7726" font-family="Helvetica">1</text>
<text xml:space="preserve" x="318.094" y="385.379" fill="black" font-size="13.7726" font-family="Helvetica">1.02</text>
<text xml:space="preserve" x="363.6" y="385.379" fill="black" font-size="13.7726" font-family="Helvetica">1.04</text>
<text xml:space="preserve" x="408.632" y="385.379" fill="black" font-size="13.7726" font-family="Helvetica">1.06</text>
<text xml:space="preserve" x="454.138" y="385.379" fill="black" font-size="13.7726" font-family="Helvetica">1.08</text>
<text xml:space="preserve" x="413.372" y="400.074" fill="black" font-size="13.7726" font-family="Helvetica">calibration factor</text>
<path d="M57.1929,372.012v -330.677" fill="none" stroke="black"/>
<path d="M70.7992,314.51h -13.6063" fill="none" stroke="black"/>
<path d="M63.9961,298.763h -6.80315" fill="none" stroke="black"/>
<path d="M63.9961,283.017h -6.80315" fill="none" stroke="black"/>
<path d="M63.9961,267.27h -6.80315" fill="none" stroke="black"/>
<path d="M70.7992,251.524h -13.6063" fill="none" stroke="black"/>
<path d="M63.9961,235.777h -6.80315" fill="none" stroke="black"/>
<path d="M63.9961,220.031h -6.80315" fill="none" stroke="black"/>
<path d="M63.9961,204.284h -6.80315" fill="none" stroke="black"/>
<path d="M70.7992,188.538h -13.6063" fill="none" stroke="black"/>
<path d="M63.9961,172.791h -6.80315" fill="none" stroke="black"/>
<path d="M63.9961,157.044h -6.80315" fill="none" stroke="black"/>
<path d="M63.9961,141.298h -6.80315" fill="none" stroke="black"/>
<path d="M70.7992,125.551h -13.6063" fill="none" stroke="black"/>
<path d="M63.9961,109.805h -6.80315" fill="none" stroke="black"/>
<path d="M63.9961,94.0584h -6.80315" fill="none" stroke="black"/>
<path d="M63.9961,78.3119h -6.80315" fill="none" stroke="black"/>
<path d="M70.7992,62.5653h -13.6063" fill="none" stroke="black"/>
<path d="M70.7992,314.51h -13.6063" fill="none" stroke="black"/>
<path d="M63.9961,330.256h -6.80315" fill="none" stroke="black"/>
<path d="M63.9961,346.003h -6.80315" fill="none" stroke="black"/>
<path d="M63.9961,361.749h -6.80315" fill="none" stroke="black"/>
<path d="M70.7992,62.5653h -13.6063" fill="none" stroke="black"/>
<path d="M63.9961,46.8188h -6.80315" fill="none" stroke="black"/>
<text xml:space="preserve" x="25.1491" y="319.016" fill="black" font-size="13.7726" font-family="Helvetica">6720</text>
<text xml:space="preserve" x="25.1491" y="255.971" fill="black" font-size="13.7726" font-family="Helvetica">6740</text>
<text xml:space="preserve" x="25.1491" y="192.927" fill="black" font-size="13.7726" font-family="Helvetica">6760</text>
<text xml:space="preserve" x="25.1491" y="129.882" fill="black" font-size="13.7726" font-family="Helvetica">6780</text>
<text xml:space="preserve" x="25.1491" y="66.837" fill="black" font-size="13.7726" font-family="Helvetica">6800</text>
<g transform="rotate(-90,8.08434,45.98)">
<text xml:space="preserve" x="8.08434" y="45.98" fill="black" font-size="9.34839" font-family="Helvetica">2</text>
</g>
<g transform="rotate(-90,12.3505,50.2462)">
<text xml:space="preserve" x="12.3505" y="50.2462" fill="black" font-size="13.7726" font-family="Helvetica"> </text>
</g>
<g transform="rotate(-90,12.3505,57.3565)">
<text xml:space="preserve" x="12.3505" y="57.3565" fill="black" font-size="13.7726" font-family="Times">&#0967;</text>
</g>
<g stroke="black" stroke-width="1" fill="none">
<line x1="179.852" y1="51.9869" x2="183.645" y2="51.9869"/><line x1="181.749" y1="50.0908" x2="181.749" y2="53.8829"/><line x1="179.852" y1="50.0908" x2="183.645" y2="53.8829"/><line x1="179.852" y1="53.8829" x2="183.645" y2="50.0908"/>
<line x1="180.305" y1="54.2199" x2="184.097" y2="54.2199"/><line x1="182.201" y1="52.3238" x2="182.201" y2="56.116"/><line x1="180.305" y1="52.3238" x2="184.097" y2="56.116"/><line x1="180.305" y1="56.116" x2="184.097" y2="52.3238"/>
<line x1="180.758" y1="51.5386" x2="184.55" y2="51.5386"/><line x1="182.654" y1="49.6426" x2="182.654" y2="53.4347"/><line x1="180.758" y1="49.6426" x2="184.55" y2="53.4347"/><line x1="180.758" y1="53.4347" x2="184.55" y2="49.6426"/>
<line x1="181.21" y1="50.4163" x2="185.003" y2="50.4163"/><line x1="183.107" y1="48.5202" x2="183.107" y2="52.3124"/><line x1="181.21" y1="48.5202" x2="185.003" y2="52.3124"/><line x1="181.21" y1="52.3124" x2="185.003" y2="48.5202"/>
<line x1="181.663" y1="57.4445" x2="185.455" y2="57.4445"/><line x1="183.559" y1="55.5484" x2="183.559" y2="59.3406"/><line x1="181.663" y1="55.5484" x2="185.455" y2="59.3406"/><line x1="181.663" y1="59.3406" x2="185.455" y2="55.5484"/>
<line x1="182.116" y1="49.3611" x2="185.908" y2="49.3611"/><line x1="184.012" y1="47.4651" x2="184.012" y2="51.2572"/><line x1="182.116" y1="47.4651" x2="185.908" y2="51.2572"/><line x1="182.116" y1="51.2572" x2="185.908" y2="47.4651"/>
<line x1="182.569" y1="50.3023" x2="186.361" y2="50.3023"/><line x1="184.465" y1="48.4062" x2="184.465" y2="52.1984"/><line x1="182.569" y1="48.4062" x2="186.361" y2="52.1984"/><line x1="182.569" y1="52.1984" x2="186.361" y2="48.4062"/>
<line x1="183.021" y1="50.8142" x2="186.813" y2="50.8142"/><line x1="184.917" y1="48.9181" x2="184.917" y2="52.7103"/><line x1="183.021" y1="48.9181" x2="186.813" y2="52.7103"/><line x1="183.021" y1="52.7103" x2="186.813" y2="48.9181"/>
<line x1="183.474" y1="62.7214" x2="187.266" y2="62.7214"/><line x1="185.37" y1="60.8253" x2="185.37" y2="64.6175"/><line x1="183.474" y1="60.8253" x2="187.266" y2="64.6175"/><line x1="183.474" y1="64.6175" x2="187.266" y2="60.8253"/>
<line x1="183.927" y1="61.3247" x2="187.719" y2="61.3247"/><line x1="185.823" y1="59.4286" x2="185.823" y2="63.2207"/><line x1="183.927" y1="59.4286" x2="187.719" y2="63.2207"/><line x1="183.927" y1="63.2207" x2="187.719" y2="59.4286"/>
<line x1="184.379" y1="64.4114" x2="188.171" y2="64.4114"/><line x1="186.275" y1="62.5154" x2="186.275" y2="66.3075"/><line x1="184.379" y1="62.5154" x2="188.171" y2="66.3075"/><line x1="184.379" y1="66.3075" x2="188.171" y2="62.5154"/>
<line x1="184.832" y1="68.86" x2="188.624" y2="68.86"/><line x1="186.728" y1="66.9639" x2="186.728" y2="70.7561"/><line x1="184.832" y1="66.9639" x2="188.624" y2="70.7561"/><line x1="184.832" y1="70.7561" x2="188.624" y2="66.9639"/>
<line x1="185.285" y1="79.0894" x2="189.077" y2="79.0894"/><line x1="187.181" y1="77.1933" x2="187.181" y2="80.9855"/><line x1="185.285" y1="77.1933" x2="189.077" y2="80.9855"/><line x1="185.285" y1="80.9855" x2="189.077" y2="77.1933"/>
<line x1="185.737" y1="97.3117" x2="189.529" y2="97.3117"/><line x1="187.633" y1="95.4156" x2="187.633" y2="99.2077"/><line x1="185.737" y1="95.4156" x2="189.529" y2="99.2077"/><line x1="185.737" y1="99.2077" x2="189.529" y2="95.4156"/>
<line x1="186.19" y1="115.723" x2="189.982" y2="115.723"/><line x1="188.086" y1="113.827" x2="188.086" y2="117.619"/><line x1="186.19" y1="113.827" x2="189.982" y2="117.619"/><line x1="186.19" y1="117.619" x2="189.982" y2="113.827"/>
<line x1="186.643" y1="106.479" x2="190.435" y2="106.479"/><line x1="188.539" y1="104.583" x2="188.539" y2="108.375"/><line x1="186.643" y1="104.583" x2="190.435" y2="108.375"/><line x1="186.643" y1="108.375" x2="190.435" y2="104.583"/>
<line x1="187.095" y1="103.315" x2="190.888" y2="103.315"/><line x1="188.991" y1="101.419" x2="188.991" y2="105.211"/><line x1="187.095" y1="101.419" x2="190.888" y2="105.211"/><line x1="187.095" y1="105.211" x2="190.888" y2="101.419"/>
<line x1="187.548" y1="110.474" x2="191.34" y2="110.474"/><line x1="189.444" y1="108.578" x2="189.444" y2="112.37"/><line x1="187.548" y1="108.578" x2="191.34" y2="112.37"/><line x1="187.548" y1="112.37" x2="191.34" y2="108.578"/>
<line x1="188.001" y1="113.177" x2="191.793" y2="113.177"/><line x1="189.897" y1="111.281" x2="189.897" y2="115.073"/><line x1="188.001" y1="111.281" x2="191.793" y2="115.073"/><line x1="188.001" y1="115.073" x2="191.793" y2="111.281"/>
<line x1="188.453" y1="109.044" x2="192.246" y2="109.044"/><line x1="190.349" y1="107.147" x2="190.349" y2="110.94"/><line x1="188.453" y1="107.147" x2="192.246" y2="110.94"/><line x1="188.453" y1="110.94" x2="192.246" y2="107.147"/>
<line x1="188.906" y1="96.8677" x2="192.698" y2="96.8677"/><line x1="190.802" y1="94.9716" x2="190.802" y2="98.7638"/><line x1="188.906" y1="94.9716" x2="192.698" y2="98.7638"/><line x1="188.906" y1="98.7638" x2="192.698" y2="94.9716"/>
<line x1="189.359" y1="102.561" x2="193.151" y2="102.561"/><line x1="191.255" y1="100.665" x2="191.255" y2="104.457"/><line x1="189.359" y1="100.665" x2="193.151" y2="104.457"/><line x1="189.359" y1="104.457" x2="193.151" y2="100.665"/>
<line x1="189.811" y1="103.635" x2="193.604" y2="103.635"/><line x1="191.708" y1="101.739" x2="191.708" y2="105.531"/><line x1="189.811" y1="101.739" x2="193.604" y2="105.531"/><line x1="189.811" y1="105.531" x2="193.604" y2="101.739"/>
<line x1="190.264" y1="106.745" x2="194.056" y2="106.745"/><line x1="192.16" y1="104.849" x2="192.16" y2="108.641"/><line x1="190.264" y1="104.849" x2="194.056" y2="108.641"/><line x1="190.264" y1="108.641" x2="194.056" y2="104.849"/>
<line x1="190.717" y1="113.335" x2="194.509" y2="113.335"/><line x1="192.613" y1="111.438" x2="192.613" y2="115.231"/><line x1="190.717" y1="111.438" x2="194.509" y2="115.231"/><line x1="190.717" y1="115.231" x2="194.509" y2="111.438"/>
<line x1="191.17" y1="122.895" x2="194.962" y2="122.895"/><line x1="193.066" y1="120.999" x2="193.066" y2="124.791"/><line x1="191.17" y1="120.999" x2="194.962" y2="124.791"/><line x1="191.17" y1="124.791" x2="194.962" y2="120.999"/>
<line x1="191.622" y1="121.11" x2="195.414" y2="121.11"/><line x1="193.518" y1="119.214" x2="193.518" y2="123.006"/><line x1="191.622" y1="119.214" x2="195.414" y2="123.006"/><line x1="191.622" y1="123.006" x2="195.414" y2="119.214"/>
<line x1="192.075" y1="131.705" x2="195.867" y2="131.705"/><line x1="193.971" y1="129.809" x2="193.971" y2="133.601"/><line x1="192.075" y1="129.809" x2="195.867" y2="133.601"/><line x1="192.075" y1="133.601" x2="195.867" y2="129.809"/>
<line x1="192.528" y1="120.591" x2="196.32" y2="120.591"/><line x1="194.424" y1="118.695" x2="194.424" y2="122.487"/><line x1="192.528" y1="118.695" x2="196.32" y2="122.487"/><line x1="192.528" y1="122.487" x2="196.32" y2="118.695"/>
<line x1="192.98" y1="132.726" x2="196.772" y2="132.726"/><line x1="194.876" y1="130.83" x2="194.876" y2="134.623"/><line x1="192.98" y1="130.83" x2="196.772" y2="134.623"/><line x1="192.98" y1="134.623" x2="196.772" y2="130.83"/>
<line x1="193.433" y1="127.423" x2="197.225" y2="127.423"/><line x1="195.329" y1="125.527" x2="195.329" y2="129.319"/><line x1="193.433" y1="125.527" x2="197.225" y2="129.319"/><line x1="193.433" y1="129.319" x2="197.225" y2="125.527"/>
<line x1="193.886" y1="142.099" x2="197.678" y2="142.099"/><line x1="195.782" y1="140.203" x2="195.782" y2="143.995"/><line x1="193.886" y1="140.203" x2="197.678" y2="143.995"/><line x1="193.886" y1="143.995" x2="197.678" y2="140.203"/>
<line x1="194.338" y1="136.307" x2="198.13" y2="136.307"/><line x1="196.234" y1="134.411" x2="196.234" y2="138.203"/><line x1="194.338" y1="134.411" x2="198.13" y2="138.203"/><line x1="194.338" y1="138.203" x2="198.13" y2="134.411"/>
<line x1="194.791" y1="141.362" x2="198.583" y2="141.362"/><line x1="196.687" y1="139.466" x2="196.687" y2="143.258"/><line x1="194.791" y1="139.466" x2="198.583" y2="143.258"/><line x1="194.791" y1="143.258" x2="198.583" y2="139.466"/>
<line x1="195.244" y1="146.319" x2="199.036" y2="146.319"/><line x1="197.14" y1="144.423" x2="197.14" y2="148.215"/><line x1="195.244" y1="144.423" x2="199.036" y2="148.215"/><line x1="195.244" y1="148.215" x2="199.036" y2="144.423"/>
<line x1="195.696" y1="135.513" x2="199.489" y2="135.513"/><line x1="197.592" y1="133.617" x2="197.592" y2="137.409"/><line x1="195.696" y1="133.617" x2="199.489" y2="137.409"/><line x1="195.696" y1="137.409" x2="199.489" y2="133.617"/>
<line x1="196.149" y1="138.851" x2="199.941" y2="138.851"/><line x1="198.045" y1="136.954" x2="198.045" y2="140.747"/><line x1="196.149" y1="136.954" x2="199.941" y2="140.747"/><line x1="196.149" y1="140.747" x2="199.941" y2="136.954"/>
<line x1="196.602" y1="131.393" x2="200.394" y2="131.393"/><line x1="198.498" y1="129.497" x2="198.498" y2="133.289"/><line x1="196.602" y1="129.497" x2="200.394" y2="133.289"/><line x1="196.602" y1="133.289" x2="200.394" y2="129.497"/>
<line x1="197.054" y1="143.481" x2="200.847" y2="143.481"/><line x1="198.95" y1="141.585" x2="198.95" y2="145.377"/><line x1="197.054" y1="141.585" x2="200.847" y2="145.377"/><line x1="197.054" y1="145.377" x2="200.847" y2="141.585"/>
<line x1="197.507" y1="134.358" x2="201.299" y2="134.358"/><line x1="199.403" y1="132.462" x2="199.403" y2="136.254"/><line x1="197.507" y1="132.462" x2="201.299" y2="136.254"/><line x1="197.507" y1="136.254" x2="201.299" y2="132.462"/>
<line x1="197.96" y1="140.894" x2="201.752" y2="140.894"/><line x1="199.856" y1="138.998" x2="199.856" y2="142.79"/><line x1="197.96" y1="138.998" x2="201.752" y2="142.79"/><line x1="197.96" y1="142.79" x2="201.752" y2="138.998"/>
<line x1="198.412" y1="152.547" x2="202.205" y2="152.547"/><line x1="200.309" y1="150.651" x2="200.309" y2="154.443"/><line x1="198.412" y1="150.651" x2="202.205" y2="154.443"/><line x1="198.412" y1="154.443" x2="202.205" y2="150.651"/>
<line x1="198.865" y1="146.025" x2="202.657" y2="146.025"/><line x1="200.761" y1="144.128" x2="200.761" y2="147.921"/><line x1="198.865" y1="144.128" x2="202.657" y2="147.921"/><line x1="198.865" y1="147.921" x2="202.657" y2="144.128"/>
<line x1="199.318" y1="137.721" x2="203.11" y2="137.721"/><line x1="201.214" y1="135.825" x2="201.214" y2="139.617"/><line x1="199.318" y1="135.825" x2="203.11" y2="139.617"/><line x1="199.318" y1="139.617" x2="203.11" y2="135.825"/>
<line x1="199.77" y1="129.563" x2="203.563" y2="129.563"/><line x1="201.667" y1="127.667" x2="201.667" y2="131.459"/><line x1="199.77" y1="127.667" x2="203.563" y2="131.459"/><line x1="199.77" y1="131.459" x2="203.563" y2="127.667"/>
<line x1="200.223" y1="134.722" x2="204.015" y2="134.722"/><line x1="202.119" y1="132.826" x2="202.119" y2="136.618"/><line x1="200.223" y1="132.826" x2="204.015" y2="136.618"/><line x1="200.223" y1="136.618" x2="204.015" y2="132.826"/>
<line x1="200.676" y1="148.113" x2="204.468" y2="148.113"/><line x1="202.572" y1="146.217" x2="202.572" y2="150.01"/><line x1="200.676" y1="146.217" x2="204.468" y2="150.01"/><line x1="200.676" y1="150.01" x2="204.468" y2="146.217"/>
<line x1="201.129" y1="156.526" x2="204.921" y2="156.526"/><line x1="203.025" y1="154.63" x2="203.025" y2="158.422"/><line x1="201.129" y1="154.63" x2="204.921" y2="158.422"/><line x1="201.129" y1="158.422" x2="204.921" y2="154.63"/>
<line x1="201.581" y1="153.578" x2="205.373" y2="153.578"/><line x1="203.477" y1="151.682" x2="203.477" y2="155.474"/><line x1="201.581" y1="151.682" x2="205.373" y2="155.474"/><line x1="201.581" y1="155.474" x2="205.373" y2="151.682"/>
<line x1="202.034" y1="162.637" x2="205.826" y2="162.637"/><line x1="203.93" y1="160.741" x2="203.93" y2="164.533"/><line x1="202.034" y1="160.741" x2="205.826" y2="164.533"/><line x1="202.034" y1="164.533" x2="205.826" y2="160.741"/>
<line x1="202.487" y1="159.743" x2="206.279" y2="159.743"/><line x1="204.383" y1="157.847" x2="204.383" y2="161.639"/><line x1="202.487" y1="157.847" x2="206.279" y2="161.639"/><line x1="202.487" y1="161.639" x2="206.279" y2="157.847"/>
<line x1="202.939" y1="168.672" x2="206.731" y2="168.672"/><line x1="204.835" y1="166.775" x2="204.835" y2="170.568"/><line x1="202.939" y1="166.775" x2="206.731" y2="170.568"/><line x1="202.939" y1="170.568" x2="206.731" y2="166.775"/>
<line x1="203.392" y1="167.147" x2="207.184" y2="167.147"/><line x1="205.288" y1="165.251" x2="205.288" y2="169.043"/><line x1="203.392" y1="165.251" x2="207.184" y2="169.043"/><line x1="203.392" y1="169.043" x2="207.184" y2="165.251"/>
<line x1="203.845" y1="180.818" x2="207.637" y2="180.818"/><line x1="205.741" y1="178.922" x2="205.741" y2="182.714"/><line x1="203.845" y1="178.922" x2="207.637" y2="182.714"/><line x1="203.845" y1="182.714" x2="207.637" y2="178.922"/>
<line x1="204.297" y1="176.162" x2="208.089" y2="176.162"/><line x1="206.193" y1="174.266" x2="206.193" y2="178.058"/><line x1="204.297" y1="174.266" x2="208.089" y2="178.058"/><line x1="204.297" y1="178.058" x2="208.089" y2="174.266"/>
<line x1="204.75" y1="179.063" x2="208.542" y2="179.063"/><line x1="206.646" y1="177.167" x2="206.646" y2="180.959"/><line x1="204.75" y1="177.167" x2="208.542" y2="180.959"/><line x1="204.75" y1="180.959" x2="208.542" y2="177.167"/>
<line x1="205.203" y1="186.431" x2="208.995" y2="186.431"/><line x1="207.099" y1="184.535" x2="207.099" y2="188.327"/><line x1="205.203" y1="184.535" x2="208.995" y2="188.327"/><line x1="205.203" y1="188.327" x2="208.995" y2="184.535"/>
<line x1="205.655" y1="182.22" x2="209.448" y2="182.22"/><line x1="207.551" y1="180.324" x2="207.551" y2="184.116"/><line x1="205.655" y1="180.324" x2="209.448" y2="184.116"/><line x1="205.655" y1="184.116" x2="209.448" y2="180.324"/>
<line x1="206.108" y1="180.859" x2="209.9" y2="180.859"/><line x1="208.004" y1="178.963" x2="208.004" y2="182.756"/><line x1="206.108" y1="178.963" x2="209.9" y2="182.756"/><line x1="206.108" y1="182.756" x2="209.9" y2="178.963"/>
<line x1="206.561" y1="187.277" x2="210.353" y2="187.277"/><line x1="208.457" y1="185.381" x2="208.457" y2="189.173"/><line x1="206.561" y1="185.381" x2="210.353" y2="189.173"/><line x1="206.561" y1="189.173" x2="210.353" y2="185.381"/>
<line x1="207.013" y1="195.817" x2="210.806" y2="195.817"/><line x1="208.91" y1="193.921" x2="208.91" y2="197.713"/><line x1="207.013" y1="193.921" x2="210.806" y2="197.713"/><line x1="207.013" y1="197.713" x2="210.806" y2="193.921"/>
<line x1="207.466" y1="196.625" x2="211.258" y2="196.625"/><line x1="209.362" y1="194.729" x2="209.362" y2="198.521"/><line x1="207.466" y1="194.729" x2="211.258" y2="198.521"/><line x1="207.466" y1="198.521" x2="211.258" y2="194.729"/>
<line x1="207.919" y1="184.684" x2="211.711" y2="184.684"/><line x1="209.815" y1="182.788" x2="209.815" y2="186.58"/><line x1="207.919" y1="182.788" x2="211.711" y2="186.58"/><line x1="207.919" y1="186.58" x2="211.711" y2="182.788"/>
<line x1="208.371" y1="180.709" x2="212.164" y2="180.709"/><line x1="210.268" y1="178.813" x2="210.268" y2="182.605"/><line x1="208.371" y1="178.813" x2="212.164" y2="182.605"/><line x1="208.371" y1="182.605" x2="212.164" y2="178.813"/>
<line x1="208.824" y1="173.352" x2="212.616" y2="173.352"/><line x1="210.72" y1="171.456" x2="210.72" y2="175.248"/><line x1="208.824" y1="171.456" x2="212.616" y2="175.248"/><line x1="208.824" y1="175.248" x2="212.616" y2="171.456"/>
<line x1="209.277" y1="176.492" x2="213.069" y2="176.492"/><line x1="211.173" y1="174.596" x2="211.173" y2="178.388"/><line x1="209.277" y1="174.596" x2="213.069" y2="178.388"/><line x1="209.277" y1="178.388" x2="213.069" y2="174.596"/>
<line x1="209.73" y1="163.625" x2="213.522" y2="163.625"/><line x1="211.626" y1="161.729" x2="211.626" y2="165.521"/><line x1="209.73" y1="161.729" x2="213.522" y2="165.521"/><line x1="209.73" y1="165.521" x2="213.522" y2="161.729"/>
<line x1="210.182" y1="169.478" x2="213.974" y2="169.478"/><line x1="212.078" y1="167.582" x2="212.078" y2="171.374"/><line x1="210.182" y1="167.582" x2="213.974" y2="171.374"/><line x1="210.182" y1="171.374" x2="213.974" y2="167.582"/>
<line x1="210.635" y1="167.097" x2="214.427" y2="167.097"/><line x1="212.531" y1="165.201" x2="212.531" y2="168.993"/><line x1="210.635" y1="165.201" x2="214.427" y2="168.993"/><line x1="210.635" y1="168.993" x2="214.427" y2="165.201"/>
<line x1="211.088" y1="174.31" x2="214.88" y2="174.31"/><line x1="212.984" y1="172.414" x2="212.984" y2="176.206"/><line x1="211.088" y1="172.414" x2="214.88" y2="176.206"/><line x1="211.088" y1="176.206" x2="214.88" y2="172.414"/>
<line x1="211.54" y1="176.326" x2="215.332" y2="176.326"/><line x1="213.436" y1="174.43" x2="213.436" y2="178.222"/><line x1="211.54" y1="174.43" x2="215.332" y2="178.222"/><line x1="211.54" y1="178.222" x2="215.332" y2="174.43"/>
<line x1="211.993" y1="184.737" x2="215.785" y2="184.737"/><line x1="213.889" y1="182.841" x2="213.889" y2="186.634"/><line x1="211.993" y1="182.841" x2="215.785" y2="186.634"/><line x1="211.993" y1="186.634" x2="215.785" y2="182.841"/>
<line x1="212.446" y1="192.274" x2="216.238" y2="192.274"/><line x1="214.342" y1="190.378" x2="214.342" y2="194.17"/><line x1="212.446" y1="190.378" x2="216.238" y2="194.17"/><line x1="212.446" y1="194.17" x2="216.238" y2="190.378"/>
<line x1="212.898" y1="195.617" x2="216.69" y2="195.617"/><line x1="214.794" y1="193.721" x2="214.794" y2="197.513"/><line x1="212.898" y1="193.721" x2="216.69" y2="197.513"/><line x1="212.898" y1="197.513" x2="216.69" y2="193.721"/>
<line x1="213.351" y1="195.503" x2="217.143" y2="195.503"/><line x1="215.247" y1="193.607" x2="215.247" y2="197.399"/><line x1="213.351" y1="193.607" x2="217.143" y2="197.399"/><line x1="213.351" y1="197.399" x2="217.143" y2="193.607"/>
<line x1="213.804" y1="197.859" x2="217.596" y2="197.859"/><line x1="215.7" y1="195.963" x2="215.7" y2="199.755"/><line x1="213.804" y1="195.963" x2="217.596" y2="199.755"/><line x1="213.804" y1="199.755" x2="217.596" y2="195.963"/>
<line x1="214.256" y1="197.279" x2="218.049" y2="197.279"/><line x1="216.152" y1="195.383" x2="216.152" y2="199.175"/><line x1="214.256" y1="195.383" x2="218.049" y2="199.175"/><line x1="214.256" y1="199.175" x2="218.049" y2="195.383"/>
<line x1="214.709" y1="197.064" x2="218.501" y2="197.064"/><line x1="216.605" y1="195.168" x2="216.605" y2="198.96"/><line x1="214.709" y1="195.168" x2="218.501" y2="198.96"/><line x1="214.709" y1="198.96" x2="218.501" y2="195.168"/>
<line x1="215.162" y1="205.214" x2="218.954" y2="205.214"/><line x1="217.058" y1="203.318" x2="217.058" y2="207.11"/><line x1="215.162" y1="203.318" x2="218.954" y2="207.11"/><line x1="215.162" y1="207.11" x2="218.954" y2="203.318"/>
<line x1="215.614" y1="207.534" x2="219.407" y2="207.534"/><line x1="217.51" y1="205.638" x2="217.51" y2="209.43"/><line x1="215.614" y1="205.638" x2="219.407" y2="209.43"/><line x1="215.614" y1="209.43" x2="219.407" y2="205.638"/>
<line x1="216.067" y1="203.303" x2="219.859" y2="203.303"/><line x1="217.963" y1="201.407" x2="217.963" y2="205.199"/><line x1="216.067" y1="201.407" x2="219.859" y2="205.199"/><line x1="216.067" y1="205.199" x2="219.859" y2="201.407"/>
<line x1="216.52" y1="211.563" x2="220.312" y2="211.563"/><line x1="218.416" y1="209.667" x2="218.416" y2="213.459"/><line x1="216.52" y1="209.667" x2="220.312" y2="213.459"/><line x1="216.52" y1="213.459" x2="220.312" y2="209.667"/>
<line x1="216.972" y1="208.415" x2="220.765" y2="208.415"/><line x1="218.869" y1="206.519" x2="218.869" y2="210.311"/><line x1="216.972" y1="206.519" x2="220.765" y2="210.311"/><line x1="216.972" y1="210.311" x2="220.765" y2="206.519"/>
<line x1="217.425" y1="215.069" x2="221.217" y2="215.069"/><line x1="219.321" y1="213.173" x2="219.321" y2="216.965"/><line x1="217.425" y1="213.173" x2="221.217" y2="216.965"/><line x1="217.425" y1="216.965" x2="221.217" y2="213.173"/>
<line x1="217.878" y1="223.418" x2="221.67" y2="223.418"/><line x1="219.774" y1="221.522" x2="219.774" y2="225.314"/><line x1="217.878" y1="221.522" x2="221.67" y2="225.314"/><line x1="217.878" y1="225.314" x2="221.67" y2="221.522"/>
<line x1="218.331" y1="221.454" x2="222.123" y2="221.454"/><line x1="220.227" y1="219.558" x2="220.227" y2="223.35"/><line x1="218.331" y1="219.558" x2="222.123" y2="223.35"/><line x1="218.331" y1="223.35" x2="222.123" y2="219.558"/>
<line x1="218.783" y1="230.854" x2="222.575" y2="230.854"/><line x1="220.679" y1="228.958" x2="220.679" y2="232.751"/><line x1="218.783" y1="228.958" x2="222.575" y2="232.751"/><line x1="218.783" y1="232.751" x2="222.575" y2="228.958"/>
<line x1="219.236" y1="230.017" x2="223.028" y2="230.017"/><line x1="221.132" y1="228.121" x2="221.132" y2="231.913"/><line x1="219.236" y1="228.121" x2="223.028" y2="231.913"/><line x1="219.236" y1="231.913" x2="223.028" y2="228.121"/>
<line x1="219.689" y1="247.78" x2="223.481" y2="247.78"/><line x1="221.585" y1="245.884" x2="221.585" y2="249.676"/><line x1="219.689" y1="245.884" x2="223.481" y2="249.676"/><line x1="219.689" y1="249.676" x2="223.481" y2="245.884"/>
<line x1="220.141" y1="243.714" x2="223.933" y2="243.714"/><line x1="222.037" y1="241.818" x2="222.037" y2="245.61"/><line x1="220.141" y1="241.818" x2="223.933" y2="245.61"/><line x1="220.141" y1="245.61" x2="223.933" y2="241.818"/>
<line x1="220.594" y1="238.045" x2="224.386" y2="238.045"/><line x1="222.49" y1="236.148" x2="222.49" y2="239.941"/><line x1="220.594" y1="236.148" x2="224.386" y2="239.941"/><line x1="220.594" y1="239.941" x2="224.386" y2="236.148"/>
<line x1="221.047" y1="243.215" x2="224.839" y2="243.215"/><line x1="222.943" y1="241.319" x2="222.943" y2="245.111"/><line x1="221.047" y1="241.319" x2="224.839" y2="245.111"/><line x1="221.047" y1="245.111" x2="224.839" y2="241.319"/>
<line x1="221.499" y1="242.548" x2="225.291" y2="242.548"/><line x1="223.395" y1="240.652" x2="223.395" y2="244.444"/><line x1="221.499" y1="240.652" x2="225.291" y2="244.444"/><line x1="221.499" y1="244.444" x2="225.291" y2="240.652"/>
<line x1="221.952" y1="241.798" x2="225.744" y2="241.798"/><line x1="223.848" y1="239.902" x2="223.848" y2="243.694"/><line x1="221.952" y1="239.902" x2="225.744" y2="243.694"/><line x1="221.952" y1="243.694" x2="225.744" y2="239.902"/>
<line x1="222.405" y1="257.453" x2="226.197" y2="257.453"/><line x1="224.301" y1="255.557" x2="224.301" y2="259.35"/><line x1="222.405" y1="255.557" x2="226.197" y2="259.35"/><line x1="222.405" y1="259.35" x2="226.197" y2="255.557"/>
<line x1="222.857" y1="252.906" x2="226.65" y2="252.906"/><line x1="224.753" y1="251.01" x2="224.753" y2="254.802"/><line x1="222.857" y1="251.01" x2="226.65" y2="254.802"/><line x1="222.857" y1="254.802" x2="226.65" y2="251.01"/>
<line x1="223.31" y1="242.3" x2="227.102" y2="242.3"/><line x1="225.206" y1="240.404" x2="225.206" y2="244.196"/><line x1="223.31" y1="240.404" x2="227.102" y2="244.196"/><line x1="223.31" y1="244.196" x2="227.102" y2="240.404"/>
<line x1="223.763" y1="231.733" x2="227.555" y2="231.733"/><line x1="225.659" y1="229.837" x2="225.659" y2="233.629"/><line x1="223.763" y1="229.837" x2="227.555" y2="233.629"/><line x1="223.763" y1="233.629" x2="227.555" y2="229.837"/>
<line x1="224.215" y1="232.279" x2="228.008" y2="232.279"/><line x1="226.111" y1="230.382" x2="226.111" y2="234.175"/><line x1="224.215" y1="230.382" x2="228.008" y2="234.175"/><line x1="224.215" y1="234.175" x2="228.008" y2="230.382"/>
<line x1="224.668" y1="242.508" x2="228.46" y2="242.508"/><line x1="226.564" y1="240.611" x2="226.564" y2="244.404"/><line x1="224.668" y1="240.611" x2="228.46" y2="244.404"/><line x1="224.668" y1="244.404" x2="228.46" y2="240.611"/>
<line x1="225.121" y1="242.304" x2="228.913" y2="242.304"/><line x1="227.017" y1="240.408" x2="227.017" y2="244.2"/><line x1="225.121" y1="240.408" x2="228.913" y2="244.2"/><line x1="225.121" y1="244.2" x2="228.913" y2="240.408"/>
<line x1="225.573" y1="246.179" x2="229.366" y2="246.179"/><line x1="227.47" y1="244.283" x2="227.47" y2="248.075"/><line x1="225.573" y1="244.283" x2="229.366" y2="248.075"/><line x1="225.573" y1="248.075" x2="229.366" y2="244.283"/>
<line x1="226.026" y1="248.459" x2="229.818" y2="248.459"/><line x1="227.922" y1="246.563" x2="227.922" y2="250.355"/><line x1="226.026" y1="246.563" x2="229.818" y2="250.355"/><line x1="226.026" y1="250.355" x2="229.818" y2="246.563"/>
<line x1="226.479" y1="242.654" x2="230.271" y2="242.654"/><line x1="228.375" y1="240.758" x2="228.375" y2="244.55"/><line x1="226.479" y1="240.758" x2="230.271" y2="244.55"/><line x1="226.479" y1="244.55" x2="230.271" y2="240.758"/>
<line x1="226.931" y1="255.352" x2="230.724" y2="255.352"/><line x1="228.828" y1="253.456" x2="228.828" y2="257.248"/><line x1="226.931" y1="253.456" x2="230.724" y2="257.248"/><line x1="226.931" y1="257.248" x2="230.724" y2="253.456"/>
<line x1="227.384" y1="257.71" x2="231.176" y2="257.71"/><line x1="229.28" y1="255.814" x2="229.28" y2="259.606"/><line x1="227.384" y1="255.814" x2="231.176" y2="259.606"/><line x1="227.384" y1="259.606" x2="231.176" y2="255.814"/>
<line x1="227.837" y1="255.825" x2="231.629" y2="255.825"/><line x1="229.733" y1="253.929" x2="229.733" y2="257.721"/><line x1="227.837" y1="253.929" x2="231.629" y2="257.721"/><line x1="227.837" y1="257.721" x2="231.629" y2="253.929"/>
<line x1="228.29" y1="268.668" x2="232.082" y2="268.668"/><line x1="230.186" y1="266.772" x2="230.186" y2="270.564"/><line x1="228.29" y1="266.772" x2="232.082" y2="270.564"/><line x1="228.29" y1="270.564" x2="232.082" y2="266.772"/>
<line x1="228.742" y1="269.831" x2="232.534" y2="269.831"/><line x1="230.638" y1="267.935" x2="230.638" y2="271.727"/><line x1="228.742" y1="267.935" x2="232.534" y2="271.727"/><line x1="228.742" y1="271.727" x2="232.534" y2="267.935"/>
<line x1="229.195" y1="273.941" x2="232.987" y2="273.941"/><line x1="231.091" y1="272.044" x2="231.091" y2="275.837"/><line x1="229.195" y1="272.044" x2="232.987" y2="275.837"/><line x1="229.195" y1="275.837" x2="232.987" y2="272.044"/>
<line x1="229.648" y1="271.921" x2="233.44" y2="271.921"/><line x1="231.544" y1="270.024" x2="231.544" y2="273.817"/><line x1="229.648" y1="270.024" x2="233.44" y2="273.817"/><line x1="229.648" y1="273.817" x2="233.44" y2="270.024"/>
<line x1="230.1" y1="264.25" x2="233.892" y2="264.25"/><line x1="231.996" y1="262.354" x2="231.996" y2="266.146"/><line x1="230.1" y1="262.354" x2="233.892" y2="266.146"/><line x1="230.1" y1="266.146" x2="233.892" y2="262.354"/>
<line x1="230.553" y1="259.095" x2="234.345" y2="259.095"/><line x1="232.449" y1="257.199" x2="232.449" y2="260.991"/><line x1="230.553" y1="257.199" x2="234.345" y2="260.991"/><line x1="230.553" y1="260.991" x2="234.345" y2="257.199"/>
<line x1="231.006" y1="255.347" x2="234.798" y2="255.347"/><line x1="232.902" y1="253.451" x2="232.902" y2="257.243"/><line x1="231.006" y1="253.451" x2="234.798" y2="257.243"/><line x1="231.006" y1="257.243" x2="234.798" y2="253.451"/>
<line x1="231.458" y1="251.302" x2="235.25" y2="251.302"/><line x1="233.354" y1="249.406" x2="233.354" y2="253.198"/><line x1="231.458" y1="249.406" x2="235.25" y2="253.198"/><line x1="231.458" y1="253.198" x2="235.25" y2="249.406"/>
<line x1="231.911" y1="246.341" x2="235.703" y2="246.341"/><line x1="233.807" y1="244.445" x2="233.807" y2="248.238"/><line x1="231.911" y1="244.445" x2="235.703" y2="248.238"/><line x1="231.911" y1="248.238" x2="235.703" y2="244.445"/>
<line x1="232.364" y1="250.11" x2="236.156" y2="250.11"/><line x1="234.26" y1="248.213" x2="234.26" y2="252.006"/><line x1="232.364" y1="248.213" x2="236.156" y2="252.006"/><line x1="232.364" y1="252.006" x2="236.156" y2="248.213"/>
<line x1="232.816" y1="228.709" x2="236.609" y2="228.709"/><line x1="234.712" y1="226.813" x2="234.712" y2="230.605"/><line x1="232.816" y1="226.813" x2="236.609" y2="230.605"/><line x1="232.816" y1="230.605" x2="236.609" y2="226.813"/>
<line x1="233.269" y1="226.699" x2="237.061" y2="226.699"/><line x1="235.165" y1="224.803" x2="235.165" y2="228.595"/><line x1="233.269" y1="224.803" x2="237.061" y2="228.595"/><line x1="233.269" y1="228.595" x2="237.061" y2="224.803"/>
<line x1="233.722" y1="242.609" x2="237.514" y2="242.609"/><line x1="235.618" y1="240.713" x2="235.618" y2="244.505"/><line x1="233.722" y1="240.713" x2="237.514" y2="244.505"/><line x1="233.722" y1="244.505" x2="237.514" y2="240.713"/>
<line x1="234.174" y1="240.763" x2="237.967" y2="240.763"/><line x1="236.07" y1="238.866" x2="236.07" y2="242.659"/><line x1="234.174" y1="238.866" x2="237.967" y2="242.659"/><line x1="234.174" y1="242.659" x2="237.967" y2="238.866"/>
<line x1="234.627" y1="247.113" x2="238.419" y2="247.113"/><line x1="236.523" y1="245.217" x2="236.523" y2="249.009"/><line x1="234.627" y1="245.217" x2="238.419" y2="249.009"/><line x1="234.627" y1="249.009" x2="238.419" y2="245.217"/>
<line x1="235.08" y1="262.545" x2="238.872" y2="262.545"/><line x1="236.976" y1="260.649" x2="236.976" y2="264.441"/><line x1="235.08" y1="260.649" x2="238.872" y2="264.441"/><line x1="235.08" y1="264.441" x2="238.872" y2="260.649"/>
<line x1="235.532" y1="263.853" x2="239.325" y2="263.853"/><line x1="237.429" y1="261.957" x2="237.429" y2="265.749"/><line x1="235.532" y1="261.957" x2="239.325" y2="265.749"/><line x1="235.532" y1="265.749" x2="239.325" y2="261.957"/>
<line x1="235.985" y1="274.773" x2="239.777" y2="274.773"/><line x1="237.881" y1="272.877" x2="237.881" y2="276.669"/><line x1="235.985" y1="272.877" x2="239.777" y2="276.669"/><line x1="235.985" y1="276.669" x2="239.777" y2="272.877"/>
<line x1="236.438" y1="266.327" x2="240.23" y2="266.327"/><line x1="238.334" y1="264.43" x2="238.334" y2="268.223"/><line x1="236.438" y1="264.43" x2="240.23" y2="268.223"/><line x1="236.438" y1="268.223" x2="240.23" y2="264.43"/>
<line x1="236.891" y1="267.143" x2="240.683" y2="267.143"/><line x1="238.787" y1="265.246" x2="238.787" y2="269.039"/><line x1="236.891" y1="265.246" x2="240.683" y2="269.039"/><line x1="236.891" y1="269.039" x2="240.683" y2="265.246"/>
<line x1="237.343" y1="270.652" x2="241.135" y2="270.652"/><line x1="239.239" y1="268.756" x2="239.239" y2="272.548"/><line x1="237.343" y1="268.756" x2="241.135" y2="272.548"/><line x1="237.343" y1="272.548" x2="241.135" y2="268.756"/>
<line x1="237.796" y1="266.199" x2="241.588" y2="266.199"/><line x1="239.692" y1="264.303" x2="239.692" y2="268.095"/><line x1="237.796" y1="264.303" x2="241.588" y2="268.095"/><line x1="237.796" y1="268.095" x2="241.588" y2="264.303"/>
<line x1="238.249" y1="267.549" x2="242.041" y2="267.549"/><line x1="240.145" y1="265.653" x2="240.145" y2="269.445"/><line x1="238.249" y1="265.653" x2="242.041" y2="269.445"/><line x1="238.249" y1="269.445" x2="242.041" y2="265.653"/>
<line x1="238.701" y1="260.849" x2="242.493" y2="260.849"/><line x1="240.597" y1="258.953" x2="240.597" y2="262.745"/><line x1="238.701" y1="258.953" x2="242.493" y2="262.745"/><line x1="238.701" y1="262.745" x2="242.493" y2="258.953"/>
<line x1="239.154" y1="262.002" x2="242.946" y2="262.002"/><line x1="241.05" y1="260.106" x2="241.05" y2="263.898"/><line x1="239.154" y1="260.106" x2="242.946" y2="263.898"/><line x1="239.154" y1="263.898" x2="242.946" y2="260.106"/>
<line x1="239.607" y1="272.354" x2="243.399" y2="272.354"/><line x1="241.503" y1="270.458" x2="241.503" y2="274.25"/><line x1="239.607" y1="270.458" x2="243.399" y2="274.25"/><line x1="239.607" y1="274.25" x2="243.399" y2="270.458"/>
<line x1="240.059" y1="267.308" x2="243.851" y2="267.308"/><line x1="241.955" y1="265.412" x2="241.955" y2="269.204"/><line x1="240.059" y1="265.412" x2="243.851" y2="269.204"/><line x1="240.059" y1="269.204" x2="243.851" y2="265.412"/>
<line x1="240.512" y1="266.474" x2="244.304" y2="266.474"/><line x1="242.408" y1="264.578" x2="242.408" y2="268.37"/><line x1="240.512" y1="264.578" x2="244.304" y2="268.37"/><line x1="240.512" y1="268.37" x2="244.304" y2="264.578"/>
<line x1="240.965" y1="271.601" x2="244.757" y2="271.601"/><line x1="242.861" y1="269.705" x2="242.861" y2="273.497"/><line x1="240.965" y1="269.705" x2="244.757" y2="273.497"/><line x1="240.965" y1="273.497" x2="244.757" y2="269.705"/>
<line x1="241.417" y1="278.341" x2="245.21" y2="278.341"/><line x1="243.313" y1="276.445" x2="243.313" y2="280.238"/><line x1="241.417" y1="276.445" x2="245.21" y2="280.238"/><line x1="241.417" y1="280.238" x2="245.21" y2="276.445"/>
<line x1="241.87" y1="271.912" x2="245.662" y2="271.912"/><line x1="243.766" y1="270.016" x2="243.766" y2="273.808"/><line x1="241.87" y1="270.016" x2="245.662" y2="273.808"/><line x1="241.87" y1="273.808" x2="245.662" y2="270.016"/>
<line x1="242.323" y1="266.519" x2="246.115" y2="266.519"/><line x1="244.219" y1="264.623" x2="244.219" y2="268.415"/><line x1="242.323" y1="264.623" x2="246.115" y2="268.415"/><line x1="242.323" y1="268.415" x2="246.115" y2="264.623"/>
<line x1="242.775" y1="273.992" x2="246.568" y2="273.992"/><line x1="244.671" y1="272.096" x2="244.671" y2="275.889"/><line x1="242.775" y1="272.096" x2="246.568" y2="275.889"/><line x1="242.775" y1="275.889" x2="246.568" y2="272.096"/>
<line x1="243.228" y1="262.198" x2="247.02" y2="262.198"/><line x1="245.124" y1="260.302" x2="245.124" y2="264.094"/><line x1="243.228" y1="260.302" x2="247.02" y2="264.094"/><line x1="243.228" y1="264.094" x2="247.02" y2="260.302"/>
<line x1="243.681" y1="266.633" x2="247.473" y2="266.633"/><line x1="245.577" y1="264.737" x2="245.577" y2="268.529"/><line x1="243.681" y1="264.737" x2="247.473" y2="268.529"/><line x1="243.681" y1="268.529" x2="247.473" y2="264.737"/>
<line x1="244.133" y1="269.206" x2="247.926" y2="269.206"/><line x1="246.03" y1="267.31" x2="246.03" y2="271.102"/><line x1="244.133" y1="267.31" x2="247.926" y2="271.102"/><line x1="244.133" y1="271.102" x2="247.926" y2="267.31"/>
<line x1="244.586" y1="266.531" x2="248.378" y2="266.531"/><line x1="246.482" y1="264.635" x2="246.482" y2="268.427"/><line x1="244.586" y1="264.635" x2="248.378" y2="268.427"/><line x1="244.586" y1="268.427" x2="248.378" y2="264.635"/>
<line x1="245.039" y1="279.531" x2="248.831" y2="279.531"/><line x1="246.935" y1="277.635" x2="246.935" y2="281.427"/><line x1="245.039" y1="277.635" x2="248.831" y2="281.427"/><line x1="245.039" y1="281.427" x2="248.831" y2="277.635"/>
<line x1="245.492" y1="275.432" x2="249.284" y2="275.432"/><line x1="247.388" y1="273.536" x2="247.388" y2="277.328"/><line x1="245.492" y1="273.536" x2="249.284" y2="277.328"/><line x1="245.492" y1="277.328" x2="249.284" y2="273.536"/>
<line x1="245.944" y1="275.156" x2="249.736" y2="275.156"/><line x1="247.84" y1="273.26" x2="247.84" y2="277.052"/><line x1="245.944" y1="273.26" x2="249.736" y2="277.052"/><line x1="245.944" y1="277.052" x2="249.736" y2="273.26"/>
<line x1="246.397" y1="273.515" x2="250.189" y2="273.515"/><line x1="248.293" y1="271.619" x2="248.293" y2="275.411"/><line x1="246.397" y1="271.619" x2="250.189" y2="275.411"/><line x1="246.397" y1="275.411" x2="250.189" y2="271.619"/>
<line x1="246.85" y1="277.14" x2="250.642" y2="277.14"/><line x1="248.746" y1="275.244" x2="248.746" y2="279.036"/><line x1="246.85" y1="275.244" x2="250.642" y2="279.036"/><line x1="246.85" y1="279.036" x2="250.642" y2="275.244"/>
<line x1="247.302" y1="277.211" x2="251.094" y2="277.211"/><line x1="249.198" y1="275.315" x2="249.198" y2="279.107"/><line x1="247.302" y1="275.315" x2="251.094" y2="279.107"/><line x1="247.302" y1="279.107" x2="251.094" y2="275.315"/>
<line x1="247.755" y1="267.548" x2="251.547" y2="267.548"/><line x1="249.651" y1="265.652" x2="249.651" y2="269.444"/><line x1="247.755" y1="265.652" x2="251.547" y2="269.444"/><line x1="247.755" y1="269.444" x2="251.547" y2="265.652"/>
<line x1="248.208" y1="257.892" x2="252" y2="257.892"/><line x1="250.104" y1="255.996" x2="250.104" y2="259.788"/><line x1="248.208" y1="255.996" x2="252" y2="259.788"/><line x1="248.208" y1="259.788" x2="252" y2="255.996"/>
<line x1="248.66" y1="258.651" x2="252.452" y2="258.651"/><line x1="250.556" y1="256.754" x2="250.556" y2="260.547"/><line x1="248.66" y1="256.754" x2="252.452" y2="260.547"/><line x1="248.66" y1="260.547" x2="252.452" y2="256.754"/>
<line x1="249.113" y1="266.336" x2="252.905" y2="266.336"/><line x1="251.009" y1="264.44" x2="251.009" y2="268.233"/><line x1="249.113" y1="264.44" x2="252.905" y2="268.233"/><line x1="249.113" y1="268.233" x2="252.905" y2="264.44"/>
<line x1="249.566" y1="254.545" x2="253.358" y2="254.545"/><line x1="251.462" y1="252.649" x2="251.462" y2="256.441"/><line x1="249.566" y1="252.649" x2="253.358" y2="256.441"/><line x1="249.566" y1="256.441" x2="253.358" y2="252.649"/>
<line x1="250.018" y1="246.73" x2="253.811" y2="246.73"/><line x1="251.914" y1="244.834" x2="251.914" y2="248.626"/><line x1="250.018" y1="244.834" x2="253.811" y2="248.626"/><line x1="250.018" y1="248.626" x2="253.811" y2="244.834"/>
<line x1="250.471" y1="254.054" x2="254.263" y2="254.054"/><line x1="252.367" y1="252.158" x2="252.367" y2="255.95"/><line x1="250.471" y1="252.158" x2="254.263" y2="255.95"/><line x1="250.471" y1="255.95" x2="254.263" y2="252.158"/>
<line x1="250.924" y1="252.191" x2="254.716" y2="252.191"/><line x1="252.82" y1="250.295" x2="252.82" y2="254.087"/><line x1="250.924" y1="250.295" x2="254.716" y2="254.087"/><line x1="250.924" y1="254.087" x2="254.716" y2="250.295"/>
<line x1="251.376" y1="257.346" x2="255.169" y2="257.346"/><line x1="253.272" y1="255.45" x2="253.272" y2="259.242"/><line x1="251.376" y1="255.45" x2="255.169" y2="259.242"/><line x1="251.376" y1="259.242" x2="255.169" y2="255.45"/>
<line x1="251.829" y1="257.383" x2="255.621" y2="257.383"/><line x1="253.725" y1="255.487" x2="253.725" y2="259.279"/><line x1="251.829" y1="255.487" x2="255.621" y2="259.279"/><line x1="251.829" y1="259.279" x2="255.621" y2="255.487"/>
<line x1="252.282" y1="262.761" x2="256.074" y2="262.761"/><line x1="254.178" y1="260.865" x2="254.178" y2="264.657"/><line x1="252.282" y1="260.865" x2="256.074" y2="264.657"/><line x1="252.282" y1="264.657" x2="256.074" y2="260.865"/>
<line x1="252.734" y1="262.481" x2="256.527" y2="262.481"/><line x1="254.631" y1="260.585" x2="254.631" y2="264.377"/><line x1="252.734" y1="260.585" x2="256.527" y2="264.377"/><line x1="252.734" y1="264.377" x2="256.527" y2="260.585"/>
<line x1="253.187" y1="270.116" x2="256.979" y2="270.116"/><line x1="255.083" y1="268.22" x2="255.083" y2="272.012"/><line x1="253.187" y1="268.22" x2="256.979" y2="272.012"/><line x1="253.187" y1="272.012" x2="256.979" y2="268.22"/>
<line x1="253.64" y1="282.818" x2="257.432" y2="282.818"/><line x1="255.536" y1="280.922" x2="255.536" y2="284.715"/><line x1="253.64" y1="280.922" x2="257.432" y2="284.715"/><line x1="253.64" y1="284.715" x2="257.432" y2="280.922"/>
<line x1="254.092" y1="284.634" x2="257.885" y2="284.634"/><line x1="255.989" y1="282.738" x2="255.989" y2="286.531"/><line x1="254.092" y1="282.738" x2="257.885" y2="286.531"/><line x1="254.092" y1="286.531" x2="257.885" y2="282.738"/>
<line x1="254.545" y1="296.381" x2="258.337" y2="296.381"/><line x1="256.441" y1="294.485" x2="256.441" y2="298.277"/><line x1="254.545" y1="294.485" x2="258.337" y2="298.277"/><line x1="254.545" y1="298.277" x2="258.337" y2="294.485"/>
<line x1="254.998" y1="303.925" x2="258.79" y2="303.925"/><line x1="256.894" y1="302.029" x2="256.894" y2="305.821"/><line x1="254.998" y1="302.029" x2="258.79" y2="305.821"/><line x1="254.998" y1="305.821" x2="258.79" y2="302.029"/>
<line x1="255.451" y1="293.079" x2="259.243" y2="293.079"/><line x1="257.347" y1="291.182" x2="257.347" y2="294.975"/><line x1="255.451" y1="291.182" x2="259.243" y2="294.975"/><line x1="255.451" y1="294.975" x2="259.243" y2="291.182"/>
<line x1="255.903" y1="280.576" x2="259.695" y2="280.576"/><line x1="257.799" y1="278.68" x2="257.799" y2="282.472"/><line x1="255.903" y1="278.68" x2="259.695" y2="282.472"/><line x1="255.903" y1="282.472" x2="259.695" y2="278.68"/>
<line x1="256.356" y1="282.831" x2="260.148" y2="282.831"/><line x1="258.252" y1="280.935" x2="258.252" y2="284.727"/><line x1="256.356" y1="280.935" x2="260.148" y2="284.727"/><line x1="256.356" y1="284.727" x2="260.148" y2="280.935"/>
<line x1="256.809" y1="276.615" x2="260.601" y2="276.615"/><line x1="258.705" y1="274.718" x2="258.705" y2="278.511"/><line x1="256.809" y1="274.718" x2="260.601" y2="278.511"/><line x1="256.809" y1="278.511" x2="260.601" y2="274.718"/>
<line x1="257.261" y1="276.568" x2="261.053" y2="276.568"/><line x1="259.157" y1="274.672" x2="259.157" y2="278.464"/><line x1="257.261" y1="274.672" x2="261.053" y2="278.464"/><line x1="257.261" y1="278.464" x2="261.053" y2="274.672"/>
<line x1="257.714" y1="270.2" x2="261.506" y2="270.2"/><line x1="259.61" y1="268.304" x2="259.61" y2="272.096"/><line x1="257.714" y1="268.304" x2="261.506" y2="272.096"/><line x1="257.714" y1="272.096" x2="261.506" y2="268.304"/>
<line x1="258.167" y1="273.505" x2="261.959" y2="273.505"/><line x1="260.063" y1="271.609" x2="260.063" y2="275.401"/><line x1="258.167" y1="271.609" x2="261.959" y2="275.401"/><line x1="258.167" y1="275.401" x2="261.959" y2="271.609"/>
<line x1="258.619" y1="278.091" x2="262.411" y2="278.091"/><line x1="260.515" y1="276.195" x2="260.515" y2="279.987"/><line x1="258.619" y1="276.195" x2="262.411" y2="279.987"/><line x1="258.619" y1="279.987" x2="262.411" y2="276.195"/>
<line x1="259.072" y1="281.105" x2="262.864" y2="281.105"/><line x1="260.968" y1="279.209" x2="260.968" y2="283.001"/><line x1="259.072" y1="279.209" x2="262.864" y2="283.001"/><line x1="259.072" y1="283.001" x2="262.864" y2="279.209"/>
<line x1="259.525" y1="282.599" x2="263.317" y2="282.599"/><line x1="261.421" y1="280.703" x2="261.421" y2="284.495"/><line x1="259.525" y1="280.703" x2="263.317" y2="284.495"/><line x1="259.525" y1="284.495" x2="263.317" y2="280.703"/>
<line x1="259.977" y1="285.548" x2="263.77" y2="285.548"/><line x1="261.873" y1="283.652" x2="261.873" y2="287.444"/><line x1="259.977" y1="283.652" x2="263.77" y2="287.444"/><line x1="259.977" y1="287.444" x2="263.77" y2="283.652"/>
<line x1="260.43" y1="280.363" x2="264.222" y2="280.363"/><line x1="262.326" y1="278.467" x2="262.326" y2="282.259"/><line x1="260.43" y1="278.467" x2="264.222" y2="282.259"/><line x1="260.43" y1="282.259" x2="264.222" y2="278.467"/>
<line x1="260.883" y1="283.333" x2="264.675" y2="283.333"/><line x1="262.779" y1="281.436" x2="262.779" y2="285.229"/><line x1="260.883" y1="281.436" x2="264.675" y2="285.229"/><line x1="260.883" y1="285.229" x2="264.675" y2="281.436"/>
<line x1="261.335" y1="294.745" x2="265.128" y2="294.745"/><line x1="263.232" y1="292.849" x2="263.232" y2="296.641"/><line x1="261.335" y1="292.849" x2="265.128" y2="296.641"/><line x1="261.335" y1="296.641" x2="265.128" y2="292.849"/>
<line x1="261.788" y1="283.521" x2="265.58" y2="283.521"/><line x1="263.684" y1="281.625" x2="263.684" y2="285.417"/><line x1="261.788" y1="281.625" x2="265.58" y2="285.417"/><line x1="261.788" y1="285.417" x2="265.58" y2="281.625"/>
<line x1="262.241" y1="286.544" x2="266.033" y2="286.544"/><line x1="264.137" y1="284.648" x2="264.137" y2="288.44"/><line x1="262.241" y1="284.648" x2="266.033" y2="288.44"/><line x1="262.241" y1="288.44" x2="266.033" y2="284.648"/>
<line x1="262.693" y1="287.899" x2="266.486" y2="287.899"/><line x1="264.59" y1="286.003" x2="264.59" y2="289.795"/><line x1="262.693" y1="286.003" x2="266.486" y2="289.795"/><line x1="262.693" y1="289.795" x2="266.486" y2="286.003"/>
<line x1="263.146" y1="293.964" x2="266.938" y2="293.964"/><line x1="265.042" y1="292.068" x2="265.042" y2="295.86"/><line x1="263.146" y1="292.068" x2="266.938" y2="295.86"/><line x1="263.146" y1="295.86" x2="266.938" y2="292.068"/>
<line x1="263.599" y1="291.484" x2="267.391" y2="291.484"/><line x1="265.495" y1="289.588" x2="265.495" y2="293.38"/><line x1="263.599" y1="289.588" x2="267.391" y2="293.38"/><line x1="263.599" y1="293.38" x2="267.391" y2="289.588"/>
<line x1="264.052" y1="304.841" x2="267.844" y2="304.841"/><line x1="265.948" y1="302.945" x2="265.948" y2="306.737"/><line x1="264.052" y1="302.945" x2="267.844" y2="306.737"/><line x1="264.052" y1="306.737" x2="267.844" y2="302.945"/>
<line x1="264.504" y1="304.47" x2="268.296" y2="304.47"/><line x1="266.4" y1="302.574" x2="266.4" y2="306.367"/><line x1="264.504" y1="302.574" x2="268.296" y2="306.367"/><line x1="264.504" y1="306.367" x2="268.296" y2="302.574"/>
<line x1="264.957" y1="300.722" x2="268.749" y2="300.722"/><line x1="266.853" y1="298.826" x2="266.853" y2="302.618"/><line x1="264.957" y1="298.826" x2="268.749" y2="302.618"/><line x1="264.957" y1="302.618" x2="268.749" y2="298.826"/>
<line x1="265.41" y1="294.991" x2="269.202" y2="294.991"/><line x1="267.306" y1="293.095" x2="267.306" y2="296.888"/><line x1="265.41" y1="293.095" x2="269.202" y2="296.888"/><line x1="265.41" y1="296.888" x2="269.202" y2="293.095"/>
<line x1="265.862" y1="292.89" x2="269.654" y2="292.89"/><line x1="267.758" y1="290.994" x2="267.758" y2="294.786"/><line x1="265.862" y1="290.994" x2="269.654" y2="294.786"/><line x1="265.862" y1="294.786" x2="269.654" y2="290.994"/>
<line x1="266.315" y1="297.73" x2="270.107" y2="297.73"/><line x1="268.211" y1="295.834" x2="268.211" y2="299.626"/><line x1="266.315" y1="295.834" x2="270.107" y2="299.626"/><line x1="266.315" y1="299.626" x2="270.107" y2="295.834"/>
<line x1="266.768" y1="303.863" x2="270.56" y2="303.863"/><line x1="268.664" y1="301.967" x2="268.664" y2="305.759"/><line x1="266.768" y1="301.967" x2="270.56" y2="305.759"/><line x1="266.768" y1="305.759" x2="270.56" y2="301.967"/>
<line x1="267.22" y1="285.512" x2="271.012" y2="285.512"/><line x1="269.116" y1="283.616" x2="269.116" y2="287.409"/><line x1="267.22" y1="283.616" x2="271.012" y2="287.409"/><line x1="267.22" y1="287.409" x2="271.012" y2="283.616"/>
<line x1="267.673" y1="286.993" x2="271.465" y2="286.993"/><line x1="269.569" y1="285.097" x2="269.569" y2="288.889"/><line x1="267.673" y1="285.097" x2="271.465" y2="288.889"/><line x1="267.673" y1="288.889" x2="271.465" y2="285.097"/>
<line x1="268.126" y1="303.062" x2="271.918" y2="303.062"/><line x1="270.022" y1="301.166" x2="270.022" y2="304.958"/><line x1="268.126" y1="301.166" x2="271.918" y2="304.958"/><line x1="268.126" y1="304.958" x2="271.918" y2="301.166"/>
<line x1="268.578" y1="309.344" x2="272.371" y2="309.344"/><line x1="270.474" y1="307.448" x2="270.474" y2="311.24"/><line x1="268.578" y1="307.448" x2="272.371" y2="311.24"/><line x1="268.578" y1="311.24" x2="272.371" y2="307.448"/>
<line x1="269.031" y1="304.807" x2="272.823" y2="304.807"/><line x1="270.927" y1="302.911" x2="270.927" y2="306.704"/><line x1="269.031" y1="302.911" x2="272.823" y2="306.704"/><line x1="269.031" y1="306.704" x2="272.823" y2="302.911"/>
<line x1="269.484" y1="307.547" x2="273.276" y2="307.547"/><line x1="271.38" y1="305.651" x2="271.38" y2="309.443"/><line x1="269.484" y1="305.651" x2="273.276" y2="309.443"/><line x1="269.484" y1="309.443" x2="273.276" y2="305.651"/>
<line x1="269.936" y1="315.695" x2="273.729" y2="315.695"/><line x1="271.832" y1="313.799" x2="271.832" y2="317.591"/><line x1="269.936" y1="313.799" x2="273.729" y2="317.591"/><line x1="269.936" y1="317.591" x2="273.729" y2="313.799"/>
<line x1="270.389" y1="319.147" x2="274.181" y2="319.147"/><line x1="272.285" y1="317.251" x2="272.285" y2="321.043"/><line x1="270.389" y1="317.251" x2="274.181" y2="321.043"/><line x1="270.389" y1="321.043" x2="274.181" y2="317.251"/>
<line x1="270.842" y1="323.977" x2="274.634" y2="323.977"/><line x1="272.738" y1="322.08" x2="272.738" y2="325.873"/><line x1="270.842" y1="322.08" x2="274.634" y2="325.873"/><line x1="270.842" y1="325.873" x2="274.634" y2="322.08"/>
<line x1="271.294" y1="324.821" x2="275.087" y2="324.821"/><line x1="273.191" y1="322.925" x2="273.191" y2="326.717"/><line x1="271.294" y1="322.925" x2="275.087" y2="326.717"/><line x1="271.294" y1="326.717" x2="275.087" y2="322.925"/>
<line x1="271.747" y1="320.837" x2="275.539" y2="320.837"/><line x1="273.643" y1="318.941" x2="273.643" y2="322.733"/><line x1="271.747" y1="318.941" x2="275.539" y2="322.733"/><line x1="271.747" y1="322.733" x2="275.539" y2="318.941"/>
<line x1="272.2" y1="323.71" x2="275.992" y2="323.71"/><line x1="274.096" y1="321.814" x2="274.096" y2="325.606"/><line x1="272.2" y1="321.814" x2="275.992" y2="325.606"/><line x1="272.2" y1="325.606" x2="275.992" y2="321.814"/>
<line x1="272.652" y1="323.998" x2="276.445" y2="323.998"/><line x1="274.549" y1="322.102" x2="274.549" y2="325.894"/><line x1="272.652" y1="322.102" x2="276.445" y2="325.894"/><line x1="272.652" y1="325.894" x2="276.445" y2="322.102"/>
<line x1="273.105" y1="329.708" x2="276.897" y2="329.708"/><line x1="275.001" y1="327.812" x2="275.001" y2="331.604"/><line x1="273.105" y1="327.812" x2="276.897" y2="331.604"/><line x1="273.105" y1="331.604" x2="276.897" y2="327.812"/>
<line x1="273.558" y1="338.591" x2="277.35" y2="338.591"/><line x1="275.454" y1="336.695" x2="275.454" y2="340.487"/><line x1="273.558" y1="336.695" x2="277.35" y2="340.487"/><line x1="273.558" y1="340.487" x2="277.35" y2="336.695"/>
<line x1="274.011" y1="344.683" x2="277.803" y2="344.683"/><line x1="275.907" y1="342.787" x2="275.907" y2="346.579"/><line x1="274.011" y1="342.787" x2="277.803" y2="346.579"/><line x1="274.011" y1="346.579" x2="277.803" y2="342.787"/>
<line x1="274.463" y1="330.966" x2="278.255" y2="330.966"/><line x1="276.359" y1="329.07" x2="276.359" y2="332.862"/><line x1="274.463" y1="329.07" x2="278.255" y2="332.862"/><line x1="274.463" y1="332.862" x2="278.255" y2="329.07"/>
<line x1="274.916" y1="324.831" x2="278.708" y2="324.831"/><line x1="276.812" y1="322.935" x2="276.812" y2="326.727"/><line x1="274.916" y1="322.935" x2="278.708" y2="326.727"/><line x1="274.916" y1="326.727" x2="278.708" y2="322.935"/>
<line x1="275.369" y1="323.078" x2="279.161" y2="323.078"/><line x1="277.265" y1="321.182" x2="277.265" y2="324.975"/><line x1="275.369" y1="321.182" x2="279.161" y2="324.975"/><line x1="275.369" y1="324.975" x2="279.161" y2="321.182"/>
<line x1="275.821" y1="329.269" x2="279.613" y2="329.269"/><line x1="277.717" y1="327.373" x2="277.717" y2="331.165"/><line x1="275.821" y1="327.373" x2="279.613" y2="331.165"/><line x1="275.821" y1="331.165" x2="279.613" y2="327.373"/>
<line x1="276.274" y1="329.623" x2="280.066" y2="329.623"/><line x1="278.17" y1="327.727" x2="278.17" y2="331.519"/><line x1="276.274" y1="327.727" x2="280.066" y2="331.519"/><line x1="276.274" y1="331.519" x2="280.066" y2="327.727"/>
<line x1="276.727" y1="326.592" x2="280.519" y2="326.592"/><line x1="278.623" y1="324.696" x2="278.623" y2="328.488"/><line x1="276.727" y1="324.696" x2="280.519" y2="328.488"/><line x1="276.727" y1="328.488" x2="280.519" y2="324.696"/>
<line x1="277.179" y1="338.829" x2="280.971" y2="338.829"/><line x1="279.075" y1="336.933" x2="279.075" y2="340.725"/><line x1="277.179" y1="336.933" x2="280.971" y2="340.725"/><line x1="277.179" y1="340.725" x2="280.971" y2="336.933"/>
<line x1="277.632" y1="341.329" x2="281.424" y2="341.329"/><line x1="279.528" y1="339.433" x2="279.528" y2="343.225"/><line x1="277.632" y1="339.433" x2="281.424" y2="343.225"/><line x1="277.632" y1="343.225" x2="281.424" y2="339.433"/>
<line x1="278.085" y1="338.977" x2="281.877" y2="338.977"/><line x1="279.981" y1="337.081" x2="279.981" y2="340.873"/><line x1="278.085" y1="337.081" x2="281.877" y2="340.873"/><line x1="278.085" y1="340.873" x2="281.877" y2="337.081"/>
<line x1="278.537" y1="330.336" x2="282.33" y2="330.336"/><line x1="280.433" y1="328.44" x2="280.433" y2="332.233"/><line x1="278.537" y1="328.44" x2="282.33" y2="332.233"/><line x1="278.537" y1="332.233" x2="282.33" y2="328.44"/>
<line x1="278.99" y1="331.927" x2="282.782" y2="331.927"/><line x1="280.886" y1="330.03" x2="280.886" y2="333.823"/><line x1="278.99" y1="330.03" x2="282.782" y2="333.823"/><line x1="278.99" y1="333.823" x2="282.782" y2="330.03"/>
<line x1="279.443" y1="340.496" x2="283.235" y2="340.496"/><line x1="281.339" y1="338.6" x2="281.339" y2="342.392"/><line x1="279.443" y1="338.6" x2="283.235" y2="342.392"/><line x1="279.443" y1="342.392" x2="283.235" y2="338.6"/>
<line x1="279.895" y1="347.26" x2="283.688" y2="347.26"/><line x1="281.792" y1="345.364" x2="281.792" y2="349.156"/><line x1="279.895" y1="345.364" x2="283.688" y2="349.156"/><line x1="279.895" y1="349.156" x2="283.688" y2="345.364"/>
<line x1="280.348" y1="354.224" x2="284.14" y2="354.224"/><line x1="282.244" y1="352.328" x2="282.244" y2="356.12"/><line x1="280.348" y1="352.328" x2="284.14" y2="356.12"/><line x1="280.348" y1="356.12" x2="284.14" y2="352.328"/>
<line x1="280.801" y1="355.263" x2="284.593" y2="355.263"/><line x1="282.697" y1="353.366" x2="282.697" y2="357.159"/><line x1="280.801" y1="353.366" x2="284.593" y2="357.159"/><line x1="280.801" y1="357.159" x2="284.593" y2="353.366"/>
<line x1="281.253" y1="346.977" x2="285.046" y2="346.977"/><line x1="283.15" y1="345.081" x2="283.15" y2="348.873"/><line x1="281.253" y1="345.081" x2="285.046" y2="348.873"/><line x1="281.253" y1="348.873" x2="285.046" y2="345.081"/>
<line x1="281.706" y1="354.181" x2="285.498" y2="354.181"/><line x1="283.602" y1="352.285" x2="283.602" y2="356.077"/><line x1="281.706" y1="352.285" x2="285.498" y2="356.077"/><line x1="281.706" y1="356.077" x2="285.498" y2="352.285"/>
<line x1="282.159" y1="356.265" x2="285.951" y2="356.265"/><line x1="284.055" y1="354.369" x2="284.055" y2="358.161"/><line x1="282.159" y1="354.369" x2="285.951" y2="358.161"/><line x1="282.159" y1="358.161" x2="285.951" y2="354.369"/>
<line x1="282.612" y1="356.141" x2="286.404" y2="356.141"/><line x1="284.508" y1="354.245" x2="284.508" y2="358.037"/><line x1="282.612" y1="354.245" x2="286.404" y2="358.037"/><line x1="282.612" y1="358.037" x2="286.404" y2="354.245"/>
<line x1="283.064" y1="345.838" x2="286.856" y2="345.838"/><line x1="284.96" y1="343.942" x2="284.96" y2="347.734"/><line x1="283.064" y1="343.942" x2="286.856" y2="347.734"/><line x1="283.064" y1="347.734" x2="286.856" y2="343.942"/>
<line x1="283.517" y1="340.065" x2="287.309" y2="340.065"/><line x1="285.413" y1="338.169" x2="285.413" y2="341.961"/><line x1="283.517" y1="338.169" x2="287.309" y2="341.961"/><line x1="283.517" y1="341.961" x2="287.309" y2="338.169"/>
<line x1="283.97" y1="332.707" x2="287.762" y2="332.707"/><line x1="285.866" y1="330.811" x2="285.866" y2="334.603"/><line x1="283.97" y1="330.811" x2="287.762" y2="334.603"/><line x1="283.97" y1="334.603" x2="287.762" y2="330.811"/>
<line x1="284.422" y1="328.93" x2="288.214" y2="328.93"/><line x1="286.318" y1="327.034" x2="286.318" y2="330.826"/><line x1="284.422" y1="327.034" x2="288.214" y2="330.826"/><line x1="284.422" y1="330.826" x2="288.214" y2="327.034"/>
<line x1="284.875" y1="324.384" x2="288.667" y2="324.384"/><line x1="286.771" y1="322.487" x2="286.771" y2="326.28"/><line x1="284.875" y1="322.487" x2="288.667" y2="326.28"/><line x1="284.875" y1="326.28" x2="288.667" y2="322.487"/>
<line x1="285.328" y1="322.363" x2="289.12" y2="322.363"/><line x1="287.224" y1="320.467" x2="287.224" y2="324.259"/><line x1="285.328" y1="320.467" x2="289.12" y2="324.259"/><line x1="285.328" y1="324.259" x2="289.12" y2="320.467"/>
<line x1="285.78" y1="312.81" x2="289.572" y2="312.81"/><line x1="287.676" y1="310.914" x2="287.676" y2="314.706"/><line x1="285.78" y1="310.914" x2="289.572" y2="314.706"/><line x1="285.78" y1="314.706" x2="289.572" y2="310.914"/>
<line x1="286.233" y1="312.493" x2="290.025" y2="312.493"/><line x1="288.129" y1="310.597" x2="288.129" y2="314.389"/><line x1="286.233" y1="310.597" x2="290.025" y2="314.389"/><line x1="286.233" y1="314.389" x2="290.025" y2="310.597"/>
<line x1="286.686" y1="307.693" x2="290.478" y2="307.693"/><line x1="288.582" y1="305.797" x2="288.582" y2="309.589"/><line x1="286.686" y1="305.797" x2="290.478" y2="309.589"/><line x1="286.686" y1="309.589" x2="290.478" y2="305.797"/>
<line x1="287.138" y1="291.988" x2="290.931" y2="291.988"/><line x1="289.034" y1="290.092" x2="289.034" y2="293.884"/><line x1="287.138" y1="290.092" x2="290.931" y2="293.884"/><line x1="287.138" y1="293.884" x2="290.931" y2="290.092"/>
<line x1="287.591" y1="285.243" x2="291.383" y2="285.243"/><line x1="289.487" y1="283.347" x2="289.487" y2="287.139"/><line x1="287.591" y1="283.347" x2="291.383" y2="287.139"/><line x1="287.591" y1="287.139" x2="291.383" y2="283.347"/>
<line x1="288.044" y1="280.483" x2="291.836" y2="280.483"/><line x1="289.94" y1="278.587" x2="289.94" y2="282.379"/><line x1="288.044" y1="278.587" x2="291.836" y2="282.379"/><line x1="288.044" y1="282.379" x2="291.836" y2="278.587"/>
<line x1="288.496" y1="293.688" x2="292.289" y2="293.688"/><line x1="290.392" y1="291.792" x2="290.392" y2="295.584"/><line x1="288.496" y1="291.792" x2="292.289" y2="295.584"/><line x1="288.496" y1="295.584" x2="292.289" y2="291.792"/>
<line x1="288.949" y1="294.26" x2="292.741" y2="294.26"/><line x1="290.845" y1="292.364" x2="290.845" y2="296.156"/><line x1="288.949" y1="292.364" x2="292.741" y2="296.156"/><line x1="288.949" y1="296.156" x2="292.741" y2="292.364"/>
<line x1="289.402" y1="293.637" x2="293.194" y2="293.637"/><line x1="291.298" y1="291.741" x2="291.298" y2="295.533"/><line x1="289.402" y1="291.741" x2="293.194" y2="295.533"/><line x1="289.402" y1="295.533" x2="293.194" y2="291.741"/>
<line x1="289.854" y1="287.749" x2="293.647" y2="287.749"/><line x1="291.751" y1="285.853" x2="291.751" y2="289.645"/><line x1="289.854" y1="285.853" x2="293.647" y2="289.645"/><line x1="289.854" y1="289.645" x2="293.647" y2="285.853"/>
<line x1="290.307" y1="287.545" x2="294.099" y2="287.545"/><line x1="292.203" y1="285.649" x2="292.203" y2="289.441"/><line x1="290.307" y1="285.649" x2="294.099" y2="289.441"/><line x1="290.307" y1="289.441" x2="294.099" y2="285.649"/>
<line x1="290.76" y1="276.472" x2="294.552" y2="276.472"/><line x1="292.656" y1="274.576" x2="292.656" y2="278.368"/><line x1="290.76" y1="274.576" x2="294.552" y2="278.368"/><line x1="290.76" y1="278.368" x2="294.552" y2="274.576"/>
<line x1="291.213" y1="279.71" x2="295.005" y2="279.71"/><line x1="293.109" y1="277.814" x2="293.109" y2="281.606"/><line x1="291.213" y1="277.814" x2="295.005" y2="281.606"/><line x1="291.213" y1="281.606" x2="295.005" y2="277.814"/>
<line x1="291.665" y1="273.246" x2="295.457" y2="273.246"/><line x1="293.561" y1="271.35" x2="293.561" y2="275.142"/><line x1="291.665" y1="271.35" x2="295.457" y2="275.142"/><line x1="291.665" y1="275.142" x2="295.457" y2="271.35"/>
<line x1="292.118" y1="276.64" x2="295.91" y2="276.64"/><line x1="294.014" y1="274.744" x2="294.014" y2="278.536"/><line x1="292.118" y1="274.744" x2="295.91" y2="278.536"/><line x1="292.118" y1="278.536" x2="295.91" y2="274.744"/>
<line x1="292.571" y1="293.49" x2="296.363" y2="293.49"/><line x1="294.467" y1="291.594" x2="294.467" y2="295.386"/><line x1="292.571" y1="291.594" x2="296.363" y2="295.386"/><line x1="292.571" y1="295.386" x2="296.363" y2="291.594"/>
<line x1="293.023" y1="285.388" x2="296.815" y2="285.388"/><line x1="294.919" y1="283.492" x2="294.919" y2="287.284"/><line x1="293.023" y1="283.492" x2="296.815" y2="287.284"/><line x1="293.023" y1="287.284" x2="296.815" y2="283.492"/>
<line x1="293.476" y1="284.465" x2="297.268" y2="284.465"/><line x1="295.372" y1="282.569" x2="295.372" y2="286.361"/><line x1="293.476" y1="282.569" x2="297.268" y2="286.361"/><line x1="293.476" y1="286.361" x2="297.268" y2="282.569"/>
<line x1="293.929" y1="275.204" x2="297.721" y2="275.204"/><line x1="295.825" y1="273.308" x2="295.825" y2="277.1"/><line x1="293.929" y1="273.308" x2="297.721" y2="277.1"/><line x1="293.929" y1="277.1" x2="297.721" y2="273.308"/>
<line x1="294.381" y1="271.475" x2="298.173" y2="271.475"/><line x1="296.277" y1="269.579" x2="296.277" y2="273.371"/><line x1="294.381" y1="269.579" x2="298.173" y2="273.371"/><line x1="294.381" y1="273.371" x2="298.173" y2="269.579"/>
<line x1="294.834" y1="267.207" x2="298.626" y2="267.207"/><line x1="296.73" y1="265.31" x2="296.73" y2="269.103"/><line x1="294.834" y1="265.31" x2="298.626" y2="269.103"/><line x1="294.834" y1="269.103" x2="298.626" y2="265.31"/>
<line x1="295.287" y1="265.216" x2="299.079" y2="265.216"/><line x1="297.183" y1="263.32" x2="297.183" y2="267.112"/><line x1="295.287" y1="263.32" x2="299.079" y2="267.112"/><line x1="295.287" y1="267.112" x2="299.079" y2="263.32"/>
<line x1="295.739" y1="261.572" x2="299.532" y2="261.572"/><line x1="297.635" y1="259.675" x2="297.635" y2="263.468"/><line x1="295.739" y1="259.675" x2="299.532" y2="263.468"/><line x1="295.739" y1="263.468" x2="299.532" y2="259.675"/>
<line x1="296.192" y1="261.877" x2="299.984" y2="261.877"/><line x1="298.088" y1="259.981" x2="298.088" y2="263.773"/><line x1="296.192" y1="259.981" x2="299.984" y2="263.773"/><line x1="296.192" y1="263.773" x2="299.984" y2="259.981"/>
<line x1="296.645" y1="270.173" x2="300.437" y2="270.173"/><line x1="298.541" y1="268.277" x2="298.541" y2="272.07"/><line x1="296.645" y1="268.277" x2="300.437" y2="272.07"/><line x1="296.645" y1="272.07" x2="300.437" y2="268.277"/>
<line x1="297.097" y1="265.616" x2="300.89" y2="265.616"/><line x1="298.993" y1="263.72" x2="298.993" y2="267.512"/><line x1="297.097" y1="263.72" x2="300.89" y2="267.512"/><line x1="297.097" y1="267.512" x2="300.89" y2="263.72"/>
<line x1="297.55" y1="268.563" x2="301.342" y2="268.563"/><line x1="299.446" y1="266.667" x2="299.446" y2="270.46"/><line x1="297.55" y1="266.667" x2="301.342" y2="270.46"/><line x1="297.55" y1="270.46" x2="301.342" y2="266.667"/>
<line x1="298.003" y1="273.465" x2="301.795" y2="273.465"/><line x1="299.899" y1="271.569" x2="299.899" y2="275.362"/><line x1="298.003" y1="271.569" x2="301.795" y2="275.362"/><line x1="298.003" y1="275.362" x2="301.795" y2="271.569"/>
<line x1="298.455" y1="273.146" x2="302.248" y2="273.146"/><line x1="300.352" y1="271.25" x2="300.352" y2="275.042"/><line x1="298.455" y1="271.25" x2="302.248" y2="275.042"/><line x1="298.455" y1="275.042" x2="302.248" y2="271.25"/>
<line x1="298.908" y1="268.613" x2="302.7" y2="268.613"/><line x1="300.804" y1="266.717" x2="300.804" y2="270.509"/><line x1="298.908" y1="266.717" x2="302.7" y2="270.509"/><line x1="298.908" y1="270.509" x2="302.7" y2="266.717"/>
<line x1="299.361" y1="247.138" x2="303.153" y2="247.138"/><line x1="301.257" y1="245.242" x2="301.257" y2="249.034"/><line x1="299.361" y1="245.242" x2="303.153" y2="249.034"/><line x1="299.361" y1="249.034" x2="303.153" y2="245.242"/>
<line x1="299.814" y1="244.042" x2="303.606" y2="244.042"/><line x1="301.71" y1="242.146" x2="301.71" y2="245.938"/><line x1="299.814" y1="242.146" x2="303.606" y2="245.938"/><line x1="299.814" y1="245.938" x2="303.606" y2="242.146"/>
<line x1="300.266" y1="234.553" x2="304.058" y2="234.553"/><line x1="302.162" y1="232.657" x2="302.162" y2="236.449"/><line x1="300.266" y1="232.657" x2="304.058" y2="236.449"/><line x1="300.266" y1="236.449" x2="304.058" y2="232.657"/>
<line x1="300.719" y1="235.395" x2="304.511" y2="235.395"/><line x1="302.615" y1="233.499" x2="302.615" y2="237.291"/><line x1="300.719" y1="233.499" x2="304.511" y2="237.291"/><line x1="300.719" y1="237.291" x2="304.511" y2="233.499"/>
<line x1="301.172" y1="232.691" x2="304.964" y2="232.691"/><line x1="303.068" y1="230.795" x2="303.068" y2="234.587"/><line x1="301.172" y1="230.795" x2="304.964" y2="234.587"/><line x1="301.172" y1="234.587" x2="304.964" y2="230.795"/>
<line x1="301.624" y1="222.862" x2="305.416" y2="222.862"/><line x1="303.52" y1="220.966" x2="303.52" y2="224.759"/><line x1="301.624" y1="220.966" x2="305.416" y2="224.759"/><line x1="301.624" y1="224.759" x2="305.416" y2="220.966"/>
<line x1="302.077" y1="218.037" x2="305.869" y2="218.037"/><line x1="303.973" y1="216.141" x2="303.973" y2="219.933"/><line x1="302.077" y1="216.141" x2="305.869" y2="219.933"/><line x1="302.077" y1="219.933" x2="305.869" y2="216.141"/>
<line x1="302.53" y1="207.58" x2="306.322" y2="207.58"/><line x1="304.426" y1="205.684" x2="304.426" y2="209.476"/><line x1="302.53" y1="205.684" x2="306.322" y2="209.476"/><line x1="302.53" y1="209.476" x2="306.322" y2="205.684"/>
<line x1="302.982" y1="210.747" x2="306.774" y2="210.747"/><line x1="304.878" y1="208.851" x2="304.878" y2="212.643"/><line x1="302.982" y1="208.851" x2="306.774" y2="212.643"/><line x1="302.982" y1="212.643" x2="306.774" y2="208.851"/>
<line x1="303.435" y1="211.861" x2="307.227" y2="211.861"/><line x1="305.331" y1="209.965" x2="305.331" y2="213.757"/><line x1="303.435" y1="209.965" x2="307.227" y2="213.757"/><line x1="303.435" y1="213.757" x2="307.227" y2="209.965"/>
<line x1="303.888" y1="200.294" x2="307.68" y2="200.294"/><line x1="305.784" y1="198.398" x2="305.784" y2="202.19"/><line x1="303.888" y1="198.398" x2="307.68" y2="202.19"/><line x1="303.888" y1="202.19" x2="307.68" y2="198.398"/>
<line x1="304.34" y1="220.016" x2="308.133" y2="220.016"/><line x1="306.236" y1="218.119" x2="306.236" y2="221.912"/><line x1="304.34" y1="218.119" x2="308.133" y2="221.912"/><line x1="304.34" y1="221.912" x2="308.133" y2="218.119"/>
<line x1="304.793" y1="207.447" x2="308.585" y2="207.447"/><line x1="306.689" y1="205.551" x2="306.689" y2="209.343"/><line x1="304.793" y1="205.551" x2="308.585" y2="209.343"/><line x1="304.793" y1="209.343" x2="308.585" y2="205.551"/>
<line x1="305.246" y1="208.7" x2="309.038" y2="208.7"/><line x1="307.142" y1="206.804" x2="307.142" y2="210.596"/><line x1="305.246" y1="206.804" x2="309.038" y2="210.596"/><line x1="305.246" y1="210.596" x2="309.038" y2="206.804"/>
<line x1="305.698" y1="210.476" x2="309.491" y2="210.476"/><line x1="307.594" y1="208.58" x2="307.594" y2="212.372"/><line x1="305.698" y1="208.58" x2="309.491" y2="212.372"/><line x1="305.698" y1="212.372" x2="309.491" y2="208.58"/>
<line x1="306.151" y1="208.35" x2="309.943" y2="208.35"/><line x1="308.047" y1="206.454" x2="308.047" y2="210.246"/><line x1="306.151" y1="206.454" x2="309.943" y2="210.246"/><line x1="306.151" y1="210.246" x2="309.943" y2="206.454"/>
<line x1="306.604" y1="210.95" x2="310.396" y2="210.95"/><line x1="308.5" y1="209.054" x2="308.5" y2="212.846"/><line x1="306.604" y1="209.054" x2="310.396" y2="212.846"/><line x1="306.604" y1="212.846" x2="310.396" y2="209.054"/>
<line x1="307.056" y1="204.862" x2="310.849" y2="204.862"/><line x1="308.953" y1="202.966" x2="308.953" y2="206.759"/><line x1="307.056" y1="202.966" x2="310.849" y2="206.759"/><line x1="307.056" y1="206.759" x2="310.849" y2="202.966"/>
<line x1="307.509" y1="197.935" x2="311.301" y2="197.935"/><line x1="309.405" y1="196.039" x2="309.405" y2="199.831"/><line x1="307.509" y1="196.039" x2="311.301" y2="199.831"/><line x1="307.509" y1="199.831" x2="311.301" y2="196.039"/>
<line x1="307.962" y1="196.938" x2="311.754" y2="196.938"/><line x1="309.858" y1="195.042" x2="309.858" y2="198.834"/><line x1="307.962" y1="195.042" x2="311.754" y2="198.834"/><line x1="307.962" y1="198.834" x2="311.754" y2="195.042"/>
<line x1="308.414" y1="201.726" x2="312.207" y2="201.726"/><line x1="310.311" y1="199.83" x2="310.311" y2="203.622"/><line x1="308.414" y1="199.83" x2="312.207" y2="203.622"/><line x1="308.414" y1="203.622" x2="312.207" y2="199.83"/>
<line x1="308.867" y1="207.995" x2="312.659" y2="207.995"/><line x1="310.763" y1="206.099" x2="310.763" y2="209.891"/><line x1="308.867" y1="206.099" x2="312.659" y2="209.891"/><line x1="308.867" y1="209.891" x2="312.659" y2="206.099"/>
<line x1="309.32" y1="196.414" x2="313.112" y2="196.414"/><line x1="311.216" y1="194.517" x2="311.216" y2="198.31"/><line x1="309.32" y1="194.517" x2="313.112" y2="198.31"/><line x1="309.32" y1="198.31" x2="313.112" y2="194.517"/>
<line x1="309.773" y1="196.021" x2="313.565" y2="196.021"/><line x1="311.669" y1="194.125" x2="311.669" y2="197.917"/><line x1="309.773" y1="194.125" x2="313.565" y2="197.917"/><line x1="309.773" y1="197.917" x2="313.565" y2="194.125"/>
<line x1="310.225" y1="188.222" x2="314.017" y2="188.222"/><line x1="312.121" y1="186.326" x2="312.121" y2="190.118"/><line x1="310.225" y1="186.326" x2="314.017" y2="190.118"/><line x1="310.225" y1="190.118" x2="314.017" y2="186.326"/>
<line x1="310.678" y1="195.438" x2="314.47" y2="195.438"/><line x1="312.574" y1="193.542" x2="312.574" y2="197.334"/><line x1="310.678" y1="193.542" x2="314.47" y2="197.334"/><line x1="310.678" y1="197.334" x2="314.47" y2="193.542"/>
<line x1="311.131" y1="197.866" x2="314.923" y2="197.866"/><line x1="313.027" y1="195.97" x2="313.027" y2="199.762"/><line x1="311.131" y1="195.97" x2="314.923" y2="199.762"/><line x1="311.131" y1="199.762" x2="314.923" y2="195.97"/>
<line x1="311.583" y1="204.878" x2="315.375" y2="204.878"/><line x1="313.479" y1="202.982" x2="313.479" y2="206.774"/><line x1="311.583" y1="202.982" x2="315.375" y2="206.774"/><line x1="311.583" y1="206.774" x2="315.375" y2="202.982"/>
<line x1="312.036" y1="207.12" x2="315.828" y2="207.12"/><line x1="313.932" y1="205.224" x2="313.932" y2="209.016"/><line x1="312.036" y1="205.224" x2="315.828" y2="209.016"/><line x1="312.036" y1="209.016" x2="315.828" y2="205.224"/>
<line x1="312.489" y1="207.52" x2="316.281" y2="207.52"/><line x1="314.385" y1="205.624" x2="314.385" y2="209.416"/><line x1="312.489" y1="205.624" x2="316.281" y2="209.416"/><line x1="312.489" y1="209.416" x2="316.281" y2="205.624"/>
<line x1="312.941" y1="197.019" x2="316.733" y2="197.019"/><line x1="314.837" y1="195.123" x2="314.837" y2="198.915"/><line x1="312.941" y1="195.123" x2="316.733" y2="198.915"/><line x1="312.941" y1="198.915" x2="316.733" y2="195.123"/>
<line x1="313.394" y1="182.362" x2="317.186" y2="182.362"/><line x1="315.29" y1="180.466" x2="315.29" y2="184.258"/><line x1="313.394" y1="180.466" x2="317.186" y2="184.258"/><line x1="313.394" y1="184.258" x2="317.186" y2="180.466"/>
<line x1="313.847" y1="174.371" x2="317.639" y2="174.371"/><line x1="315.743" y1="172.475" x2="315.743" y2="176.268"/><line x1="313.847" y1="172.475" x2="317.639" y2="176.268"/><line x1="313.847" y1="176.268" x2="317.639" y2="172.475"/>
<line x1="314.299" y1="173.303" x2="318.092" y2="173.303"/><line x1="316.195" y1="171.407" x2="316.195" y2="175.199"/><line x1="314.299" y1="171.407" x2="318.092" y2="175.199"/><line x1="314.299" y1="175.199" x2="318.092" y2="171.407"/>
<line x1="314.752" y1="168.766" x2="318.544" y2="168.766"/><line x1="316.648" y1="166.87" x2="316.648" y2="170.662"/><line x1="314.752" y1="166.87" x2="318.544" y2="170.662"/><line x1="314.752" y1="170.662" x2="318.544" y2="166.87"/>
<line x1="315.205" y1="156.652" x2="318.997" y2="156.652"/><line x1="317.101" y1="154.756" x2="317.101" y2="158.548"/><line x1="315.205" y1="154.756" x2="318.997" y2="158.548"/><line x1="315.205" y1="158.548" x2="318.997" y2="154.756"/>
<line x1="315.657" y1="156.328" x2="319.45" y2="156.328"/><line x1="317.553" y1="154.432" x2="317.553" y2="158.224"/><line x1="315.657" y1="154.432" x2="319.45" y2="158.224"/><line x1="315.657" y1="158.224" x2="319.45" y2="154.432"/>
<line x1="316.11" y1="161.885" x2="319.902" y2="161.885"/><line x1="318.006" y1="159.989" x2="318.006" y2="163.781"/><line x1="316.11" y1="159.989" x2="319.902" y2="163.781"/><line x1="316.11" y1="163.781" x2="319.902" y2="159.989"/>
<line x1="316.563" y1="171.17" x2="320.355" y2="171.17"/><line x1="318.459" y1="169.274" x2="318.459" y2="173.067"/><line x1="316.563" y1="169.274" x2="320.355" y2="173.067"/><line x1="316.563" y1="173.067" x2="320.355" y2="169.274"/>
<line x1="317.015" y1="156.493" x2="320.808" y2="156.493"/><line x1="318.912" y1="154.597" x2="318.912" y2="158.389"/><line x1="317.015" y1="154.597" x2="320.808" y2="158.389"/><line x1="317.015" y1="158.389" x2="320.808" y2="154.597"/>
<line x1="317.468" y1="157.983" x2="321.26" y2="157.983"/><line x1="319.364" y1="156.087" x2="319.364" y2="159.88"/><line x1="317.468" y1="156.087" x2="321.26" y2="159.88"/><line x1="317.468" y1="159.88" x2="321.26" y2="156.087"/>
<line x1="317.921" y1="171.781" x2="321.713" y2="171.781"/><line x1="319.817" y1="169.885" x2="319.817" y2="173.677"/><line x1="317.921" y1="169.885" x2="321.713" y2="173.677"/><line x1="317.921" y1="173.677" x2="321.713" y2="169.885"/>
<line x1="318.374" y1="172.588" x2="322.166" y2="172.588"/><line x1="320.27" y1="170.692" x2="320.27" y2="174.484"/><line x1="318.374" y1="170.692" x2="322.166" y2="174.484"/><line x1="318.374" y1="174.484" x2="322.166" y2="170.692"/>
<line x1="318.826" y1="163.479" x2="322.618" y2="163.479"/><line x1="320.722" y1="161.583" x2="320.722" y2="165.375"/><line x1="318.826" y1="161.583" x2="322.618" y2="165.375"/><line x1="318.826" y1="165.375" x2="322.618" y2="161.583"/>
<line x1="319.279" y1="169.286" x2="323.071" y2="169.286"/><line x1="321.175" y1="167.39" x2="321.175" y2="171.183"/><line x1="319.279" y1="167.39" x2="323.071" y2="171.183"/><line x1="319.279" y1="171.183" x2="323.071" y2="167.39"/>
<line x1="319.732" y1="166.925" x2="323.524" y2="166.925"/><line x1="321.628" y1="165.029" x2="321.628" y2="168.821"/><line x1="319.732" y1="165.029" x2="323.524" y2="168.821"/><line x1="319.732" y1="168.821" x2="323.524" y2="165.029"/>
<line x1="320.184" y1="171.62" x2="323.976" y2="171.62"/><line x1="322.08" y1="169.724" x2="322.08" y2="173.517"/><line x1="320.184" y1="169.724" x2="323.976" y2="173.517"/><line x1="320.184" y1="173.517" x2="323.976" y2="169.724"/>
<line x1="320.637" y1="178.564" x2="324.429" y2="178.564"/><line x1="322.533" y1="176.667" x2="322.533" y2="180.46"/><line x1="320.637" y1="176.667" x2="324.429" y2="180.46"/><line x1="320.637" y1="180.46" x2="324.429" y2="176.667"/>
<line x1="321.09" y1="187.054" x2="324.882" y2="187.054"/><line x1="322.986" y1="185.158" x2="322.986" y2="188.95"/><line x1="321.09" y1="185.158" x2="324.882" y2="188.95"/><line x1="321.09" y1="188.95" x2="324.882" y2="185.158"/>
<line x1="321.542" y1="190.998" x2="325.334" y2="190.998"/><line x1="323.438" y1="189.102" x2="323.438" y2="192.894"/><line x1="321.542" y1="189.102" x2="325.334" y2="192.894"/><line x1="321.542" y1="192.894" x2="325.334" y2="189.102"/>
<line x1="321.995" y1="192.256" x2="325.787" y2="192.256"/><line x1="323.891" y1="190.36" x2="323.891" y2="194.153"/><line x1="321.995" y1="190.36" x2="325.787" y2="194.153"/><line x1="321.995" y1="194.153" x2="325.787" y2="190.36"/>
<line x1="322.448" y1="190.008" x2="326.24" y2="190.008"/><line x1="324.344" y1="188.112" x2="324.344" y2="191.905"/><line x1="322.448" y1="188.112" x2="326.24" y2="191.905"/><line x1="322.448" y1="191.905" x2="326.24" y2="188.112"/>
<line x1="322.9" y1="190.538" x2="326.693" y2="190.538"/><line x1="324.796" y1="188.642" x2="324.796" y2="192.434"/><line x1="322.9" y1="188.642" x2="326.693" y2="192.434"/><line x1="322.9" y1="192.434" x2="326.693" y2="188.642"/>
<line x1="323.353" y1="188.43" x2="327.145" y2="188.43"/><line x1="325.249" y1="186.534" x2="325.249" y2="190.326"/><line x1="323.353" y1="186.534" x2="327.145" y2="190.326"/><line x1="323.353" y1="190.326" x2="327.145" y2="186.534"/>
<line x1="323.806" y1="177.839" x2="327.598" y2="177.839"/><line x1="325.702" y1="175.943" x2="325.702" y2="179.735"/><line x1="323.806" y1="175.943" x2="327.598" y2="179.735"/><line x1="323.806" y1="179.735" x2="327.598" y2="175.943"/>
<line x1="324.258" y1="166.623" x2="328.051" y2="166.623"/><line x1="326.154" y1="164.727" x2="326.154" y2="168.519"/><line x1="324.258" y1="164.727" x2="328.051" y2="168.519"/><line x1="324.258" y1="168.519" x2="328.051" y2="164.727"/>
<line x1="324.711" y1="163.193" x2="328.503" y2="163.193"/><line x1="326.607" y1="161.297" x2="326.607" y2="165.089"/><line x1="324.711" y1="161.297" x2="328.503" y2="165.089"/><line x1="324.711" y1="165.089" x2="328.503" y2="161.297"/>
<line x1="325.164" y1="159.047" x2="328.956" y2="159.047"/><line x1="327.06" y1="157.151" x2="327.06" y2="160.943"/><line x1="325.164" y1="157.151" x2="328.956" y2="160.943"/><line x1="325.164" y1="160.943" x2="328.956" y2="157.151"/>
<line x1="325.616" y1="156.645" x2="329.409" y2="156.645"/><line x1="327.513" y1="154.749" x2="327.513" y2="158.541"/><line x1="325.616" y1="154.749" x2="329.409" y2="158.541"/><line x1="325.616" y1="158.541" x2="329.409" y2="154.749"/>
<line x1="326.069" y1="152.177" x2="329.861" y2="152.177"/><line x1="327.965" y1="150.28" x2="327.965" y2="154.073"/><line x1="326.069" y1="150.28" x2="329.861" y2="154.073"/><line x1="326.069" y1="154.073" x2="329.861" y2="150.28"/>
<line x1="326.522" y1="154.583" x2="330.314" y2="154.583"/><line x1="328.418" y1="152.687" x2="328.418" y2="156.479"/><line x1="326.522" y1="152.687" x2="330.314" y2="156.479"/><line x1="326.522" y1="156.479" x2="330.314" y2="152.687"/>
<line x1="326.974" y1="148.836" x2="330.767" y2="148.836"/><line x1="328.871" y1="146.94" x2="328.871" y2="150.732"/><line x1="326.974" y1="146.94" x2="330.767" y2="150.732"/><line x1="326.974" y1="150.732" x2="330.767" y2="146.94"/>
<line x1="327.427" y1="167.168" x2="331.219" y2="167.168"/><line x1="329.323" y1="165.272" x2="329.323" y2="169.065"/><line x1="327.427" y1="165.272" x2="331.219" y2="169.065"/><line x1="327.427" y1="169.065" x2="331.219" y2="165.272"/>
<line x1="327.88" y1="171.022" x2="331.672" y2="171.022"/><line x1="329.776" y1="169.126" x2="329.776" y2="172.918"/><line x1="327.88" y1="169.126" x2="331.672" y2="172.918"/><line x1="327.88" y1="172.918" x2="331.672" y2="169.126"/>
<line x1="328.333" y1="165.018" x2="332.125" y2="165.018"/><line x1="330.229" y1="163.122" x2="330.229" y2="166.914"/><line x1="328.333" y1="163.122" x2="332.125" y2="166.914"/><line x1="328.333" y1="166.914" x2="332.125" y2="163.122"/>
<line x1="328.785" y1="157.925" x2="332.577" y2="157.925"/><line x1="330.681" y1="156.029" x2="330.681" y2="159.821"/><line x1="328.785" y1="156.029" x2="332.577" y2="159.821"/><line x1="328.785" y1="159.821" x2="332.577" y2="156.029"/>
<line x1="329.238" y1="154.387" x2="333.03" y2="154.387"/><line x1="331.134" y1="152.491" x2="331.134" y2="156.283"/><line x1="329.238" y1="152.491" x2="333.03" y2="156.283"/><line x1="329.238" y1="156.283" x2="333.03" y2="152.491"/>
<line x1="329.691" y1="147.861" x2="333.483" y2="147.861"/><line x1="331.587" y1="145.965" x2="331.587" y2="149.757"/><line x1="329.691" y1="145.965" x2="333.483" y2="149.757"/><line x1="329.691" y1="149.757" x2="333.483" y2="145.965"/>
<line x1="330.143" y1="144.627" x2="333.935" y2="144.627"/><line x1="332.039" y1="142.731" x2="332.039" y2="146.523"/><line x1="330.143" y1="142.731" x2="333.935" y2="146.523"/><line x1="330.143" y1="146.523" x2="333.935" y2="142.731"/>
<line x1="330.596" y1="148.106" x2="334.388" y2="148.106"/><line x1="332.492" y1="146.21" x2="332.492" y2="150.003"/><line x1="330.596" y1="146.21" x2="334.388" y2="150.003"/><line x1="330.596" y1="150.003" x2="334.388" y2="146.21"/>
<line x1="331.049" y1="148.788" x2="334.841" y2="148.788"/><line x1="332.945" y1="146.891" x2="332.945" y2="150.684"/><line x1="331.049" y1="146.891" x2="334.841" y2="150.684"/><line x1="331.049" y1="150.684" x2="334.841" y2="146.891"/>
<line x1="331.501" y1="141.471" x2="335.293" y2="141.471"/><line x1="333.397" y1="139.575" x2="333.397" y2="143.367"/><line x1="331.501" y1="139.575" x2="335.293" y2="143.367"/><line x1="331.501" y1="143.367" x2="335.293" y2="139.575"/>
<line x1="331.954" y1="144.032" x2="335.746" y2="144.032"/><line x1="333.85" y1="142.136" x2="333.85" y2="145.928"/><line x1="331.954" y1="142.136" x2="335.746" y2="145.928"/><line x1="331.954" y1="145.928" x2="335.746" y2="142.136"/>
<line x1="332.407" y1="140.431" x2="336.199" y2="140.431"/><line x1="334.303" y1="138.535" x2="334.303" y2="142.327"/><line x1="332.407" y1="138.535" x2="336.199" y2="142.327"/><line x1="332.407" y1="142.327" x2="336.199" y2="138.535"/>
<line x1="332.859" y1="148.542" x2="336.652" y2="148.542"/><line x1="334.755" y1="146.646" x2="334.755" y2="150.438"/><line x1="332.859" y1="146.646" x2="336.652" y2="150.438"/><line x1="332.859" y1="150.438" x2="336.652" y2="146.646"/>
<line x1="333.312" y1="152.481" x2="337.104" y2="152.481"/><line x1="335.208" y1="150.585" x2="335.208" y2="154.377"/><line x1="333.312" y1="150.585" x2="337.104" y2="154.377"/><line x1="333.312" y1="154.377" x2="337.104" y2="150.585"/>
<line x1="333.765" y1="157.949" x2="337.557" y2="157.949"/><line x1="335.661" y1="156.053" x2="335.661" y2="159.845"/><line x1="333.765" y1="156.053" x2="337.557" y2="159.845"/><line x1="333.765" y1="159.845" x2="337.557" y2="156.053"/>
<line x1="334.217" y1="161.554" x2="338.01" y2="161.554"/><line x1="336.114" y1="159.658" x2="336.114" y2="163.45"/><line x1="334.217" y1="159.658" x2="338.01" y2="163.45"/><line x1="334.217" y1="163.45" x2="338.01" y2="159.658"/>
<line x1="334.67" y1="163.603" x2="338.462" y2="163.603"/><line x1="336.566" y1="161.707" x2="336.566" y2="165.499"/><line x1="334.67" y1="161.707" x2="338.462" y2="165.499"/><line x1="334.67" y1="165.499" x2="338.462" y2="161.707"/>
<line x1="335.123" y1="167.991" x2="338.915" y2="167.991"/><line x1="337.019" y1="166.095" x2="337.019" y2="169.887"/><line x1="335.123" y1="166.095" x2="338.915" y2="169.887"/><line x1="335.123" y1="169.887" x2="338.915" y2="166.095"/>
<line x1="335.575" y1="165.569" x2="339.368" y2="165.569"/><line x1="337.472" y1="163.673" x2="337.472" y2="167.465"/><line x1="335.575" y1="163.673" x2="339.368" y2="167.465"/><line x1="335.575" y1="167.465" x2="339.368" y2="163.673"/>
<line x1="336.028" y1="149.082" x2="339.82" y2="149.082"/><line x1="337.924" y1="147.186" x2="337.924" y2="150.978"/><line x1="336.028" y1="147.186" x2="339.82" y2="150.978"/><line x1="336.028" y1="150.978" x2="339.82" y2="147.186"/>
<line x1="336.481" y1="137.184" x2="340.273" y2="137.184"/><line x1="338.377" y1="135.288" x2="338.377" y2="139.08"/><line x1="336.481" y1="135.288" x2="340.273" y2="139.08"/><line x1="336.481" y1="139.08" x2="340.273" y2="135.288"/>
<line x1="336.934" y1="134.653" x2="340.726" y2="134.653"/><line x1="338.83" y1="132.757" x2="338.83" y2="136.549"/><line x1="336.934" y1="132.757" x2="340.726" y2="136.549"/><line x1="336.934" y1="136.549" x2="340.726" y2="132.757"/>
<line x1="337.386" y1="124.006" x2="341.178" y2="124.006"/><line x1="339.282" y1="122.11" x2="339.282" y2="125.902"/><line x1="337.386" y1="122.11" x2="341.178" y2="125.902"/><line x1="337.386" y1="125.902" x2="341.178" y2="122.11"/>
<line x1="337.839" y1="112.032" x2="341.631" y2="112.032"/><line x1="339.735" y1="110.136" x2="339.735" y2="113.928"/><line x1="337.839" y1="110.136" x2="341.631" y2="113.928"/><line x1="337.839" y1="113.928" x2="341.631" y2="110.136"/>
<line x1="338.292" y1="101.308" x2="342.084" y2="101.308"/><line x1="340.188" y1="99.4117" x2="340.188" y2="103.204"/><line x1="338.292" y1="99.4117" x2="342.084" y2="103.204"/><line x1="338.292" y1="103.204" x2="342.084" y2="99.4117"/>
<line x1="338.744" y1="82.2803" x2="342.536" y2="82.2803"/><line x1="340.64" y1="80.3842" x2="340.64" y2="84.1764"/><line x1="338.744" y1="80.3842" x2="342.536" y2="84.1764"/><line x1="338.744" y1="84.1764" x2="342.536" y2="80.3842"/>
<line x1="339.197" y1="91.3668" x2="342.989" y2="91.3668"/><line x1="341.093" y1="89.4707" x2="341.093" y2="93.2628"/><line x1="339.197" y1="89.4707" x2="342.989" y2="93.2628"/><line x1="339.197" y1="93.2628" x2="342.989" y2="89.4707"/>
<line x1="339.65" y1="91.9988" x2="343.442" y2="91.9988"/><line x1="341.546" y1="90.1027" x2="341.546" y2="93.8949"/><line x1="339.65" y1="90.1027" x2="343.442" y2="93.8949"/><line x1="339.65" y1="93.8949" x2="343.442" y2="90.1027"/>
<line x1="340.102" y1="80.9655" x2="343.894" y2="80.9655"/><line x1="341.998" y1="79.0694" x2="341.998" y2="82.8616"/><line x1="340.102" y1="79.0694" x2="343.894" y2="82.8616"/><line x1="340.102" y1="82.8616" x2="343.894" y2="79.0694"/>
<line x1="340.555" y1="78.093" x2="344.347" y2="78.093"/><line x1="342.451" y1="76.1969" x2="342.451" y2="79.9891"/><line x1="340.555" y1="76.1969" x2="344.347" y2="79.9891"/><line x1="340.555" y1="79.9891" x2="344.347" y2="76.1969"/>
<line x1="341.008" y1="77.0688" x2="344.8" y2="77.0688"/><line x1="342.904" y1="75.1727" x2="342.904" y2="78.9649"/><line x1="341.008" y1="75.1727" x2="344.8" y2="78.9649"/><line x1="341.008" y1="78.9649" x2="344.8" y2="75.1727"/>
<line x1="341.46" y1="69.1168" x2="345.253" y2="69.1168"/><line x1="343.356" y1="67.2207" x2="343.356" y2="71.0128"/><line x1="341.46" y1="67.2207" x2="345.253" y2="71.0128"/><line x1="341.46" y1="71.0128" x2="345.253" y2="67.2207"/>
<line x1="341.913" y1="68.2565" x2="345.705" y2="68.2565"/><line x1="343.809" y1="66.3604" x2="343.809" y2="70.1526"/><line x1="341.913" y1="66.3604" x2="345.705" y2="70.1526"/><line x1="341.913" y1="70.1526" x2="345.705" y2="66.3604"/>
<line x1="342.366" y1="66.521" x2="346.158" y2="66.521"/><line x1="344.262" y1="64.6249" x2="344.262" y2="68.4171"/><line x1="342.366" y1="64.6249" x2="346.158" y2="68.4171"/><line x1="342.366" y1="68.4171" x2="346.158" y2="64.6249"/>
<line x1="342.818" y1="58.5015" x2="346.611" y2="58.5015"/><line x1="344.714" y1="56.6054" x2="344.714" y2="60.3976"/><line x1="342.818" y1="56.6054" x2="346.611" y2="60.3976"/><line x1="342.818" y1="60.3976" x2="346.611" y2="56.6054"/>
<line x1="343.271" y1="49.4061" x2="347.063" y2="49.4061"/><line x1="345.167" y1="47.51" x2="345.167" y2="51.3022"/><line x1="343.271" y1="47.51" x2="347.063" y2="51.3022"/><line x1="343.271" y1="51.3022" x2="347.063" y2="47.51"/>
</g>
<path d="M170.884,353.116h 226.342" fill="none" stroke="#0000ff"/>
<path d="M284.055,372.012v -47.2396" fill="none" stroke="#ff0000"/>
<rect x="57.1929" y="330.677" width="113.386" height="41.3346" fill="white"/>
<path d="M57.1929,372.012h 113.386" fill="none" stroke="black"/>
<path d="M170.579,372.012v -41.3346" fill="none" stroke="black"/>
<path d="M170.579,330.677h -113.386" fill="none" stroke="black"/>
<path d="M57.1929,330.677v 41.3346" fill="none" stroke="black"/>
<text xml:space="preserve" x="85.3498" y="354.568" fill="black" font-size="12.3723" font-family="Helvetica">#p.e of PMTs1</text>
<path d="M61.4449,351.344h 19.8425" fill="none" stroke="black"/></svg>
