<?xml version="1.0" standalone="no"?>
<svg width="567.429" height="413.846" viewBox="0 0 567.429 413.846" xmlns="http://www.w3.org/2000/svg" shape-rendering="crispEdges">
<title>
figures/chi2_0PMTnpedata190929-01.svg
</title>
<desc>
Creator: ROOT Version 6.18/02
CreationDate: Sun Sep 29 21:04:12 2019</desc>
<defs>
</defs>
<rect x="0.5" y="0" width="566.929" height="413.346" fill="white"/>
<rect x="57.1929" y="41.3346" width="453.543" height="330.677" fill="white"/>
<rect x="57.1929" y="41.3346" width="453.543" height="330.677" fill="none" stroke="black"/>
<path d="M57.1929,372.012h 453.543" fill="none" stroke="black"/>
<path d="M100.884,41.3346v 330.677" fill="none" stroke="black" stroke-dasharray=" 1, 2"/>
<path d="M146.207,41.3346v 330.677" fill="none" stroke="black" stroke-dasharray=" 1, 2"/>
<path d="M191.529,41.3346v 330.677" fill="none" stroke="black" stroke-dasharray=" 1, 2"/>
<path d="M236.852,41.3346v 330.677" fill="none" stroke="black" stroke-dasharray=" 1, 2"/>
<path d="M282.175,41.3346v 330.677" fill="none" stroke="black" stroke-dasharray=" 1, 2"/>
<path d="M327.497,41.3346v 330.677" fill="none" stroke="black" stroke-dasharray=" 1, 2"/>
<path d="M372.82,41.3346v 330.677" fill="none" stroke="black" stroke-dasharray=" 1, 2"/>
<path d="M418.142,41.3346v 330.677" fill="none" stroke="black" stroke-dasharray=" 1, 2"/>
<path d="M463.465,41.3346v 330.677" fill="none" stroke="black" stroke-dasharray=" 1, 2"/>
<path d="M508.788,41.3346v 330.677" fill="none" stroke="black" stroke-dasharray=" 1, 2"/>
<path d="M100.884,41.3346v 330.677" fill="none" stroke="black" stroke-dasharray=" 1, 2"/>
<path d="M508.788,41.3346v 330.677" fill="none" stroke="black" stroke-dasharray=" 1, 2"/>
<path d="M57.1929,372.012v -330.677" fill="none" stroke="black"/>
<path d="M510.736,316.444h -453.543" fill="none" stroke="black" stroke-dasharray=" 1, 2"/>
<path d="M510.736,253.458h -453.543" fill="none" stroke="black" stroke-dasharray=" 1, 2"/>
<path d="M510.736,190.472h -453.543" fill="none" stroke="black" stroke-dasharray=" 1, 2"/>
<path d="M510.736,127.486h -453.543" fill="none" stroke="black" stroke-dasharray=" 1, 2"/>
<path d="M510.736,64.4996h -453.543" fill="none" stroke="black" stroke-dasharray=" 1, 2"/>
<path d="M510.736,316.444h -453.543" fill="none" stroke="black" stroke-dasharray=" 1, 2"/>
<path d="M510.736,64.4996h -453.543" fill="none" stroke="black" stroke-dasharray=" 1, 2"/>
<path d="M57.1929,372.012h 453.543" fill="none" stroke="black"/>
<path d="M100.884,362.091v 9.92031" fill="none" stroke="black"/>
<path d="M112.215,367.052v 4.96016" fill="none" stroke="black"/>
<path d="M123.545,367.052v 4.96016" fill="none" stroke="black"/>
<path d="M134.876,367.052v 4.96016" fill="none" stroke="black"/>
<path d="M146.207,362.091v 9.92031" fill="none" stroke="black"/>
<path d="M157.537,367.052v 4.96016" fill="none" stroke="black"/>
<path d="M168.868,367.052v 4.96016" fill="none" stroke="black"/>
<path d="M180.199,367.052v 4.96016" fill="none" stroke="black"/>
<path d="M191.529,362.091v 9.92031" fill="none" stroke="black"/>
<path d="M202.86,367.052v 4.96016" fill="none" stroke="black"/>
<path d="M214.191,367.052v 4.96016" fill="none" stroke="black"/>
<path d="M225.521,367.052v 4.96016" fill="none" stroke="black"/>
<path d="M236.852,362.091v 9.92031" fill="none" stroke="black"/>
<path d="M248.183,367.052v 4.96016" fill="none" stroke="black"/>
<path d="M259.513,367.052v 4.96016" fill="none" stroke="black"/>
<path d="M270.844,367.052v 4.96016" fill="none" stroke="black"/>
<path d="M282.175,362.091v 9.92031" fill="none" stroke="black"/>
<path d="M293.505,367.052v 4.96016" fill="none" stroke="black"/>
<path d="M304.836,367.052v 4.96016" fill="none" stroke="black"/>
<path d="M316.166,367.052v 4.96016" fill="none" stroke="black"/>
<path d="M327.497,362.091v 9.92031" fill="none" stroke="black"/>
<path d="M338.828,367.052v 4.96016" fill="none" stroke="black"/>
<path d="M350.158,367.052v 4.96016" fill="none" stroke="black"/>
<path d="M361.489,367.052v 4.96016" fill="none" stroke="black"/>
<path d="M372.82,362.091v 9.92031" fill="none" stroke="black"/>
<path d="M384.15,367.052v 4.96016" fill="none" stroke="black"/>
<path d="M395.481,367.052v 4.96016" fill="none" stroke="black"/>
<path d="M406.812,367.052v 4.96016" fill="none" stroke="black"/>
<path d="M418.142,362.091v 9.92031" fill="none" stroke="black"/>
<path d="M429.473,367.052v 4.96016" fill="none" stroke="black"/>
<path d="M440.804,367.052v 4.96016" fill="none" stroke="black"/>
<path d="M452.134,367.052v 4.96016" fill="none" stroke="black"/>
<path d="M463.465,362.091v 9.92031" fill="none" stroke="black"/>
<path d="M474.796,367.052v 4.96016" fill="none" stroke="black"/>
<path d="M486.126,367.052v 4.96016" fill="none" stroke="black"/>
<path d="M497.457,367.052v 4.96016" fill="none" stroke="black"/>
<path d="M508.788,362.091v 9.92031" fill="none" stroke="black"/>
<path d="M100.884,362.091v 9.92031" fill="none" stroke="black"/>
<path d="M89.5534,367.052v 4.96016" fill="none" stroke="black"/>
<path d="M78.2228,367.052v 4.96016" fill="none" stroke="black"/>
<path d="M66.8921,367.052v 4.96016" fill="none" stroke="black"/>
<path d="M508.788,362.091v 9.92031" fill="none" stroke="black"/>
<text xml:space="preserve" x="87.7199" y="385.379" fill="black" font-size="13.7726" font-family="Helvetica">1.02</text>
<text xml:space="preserve" x="133.226" y="385.379" fill="black" font-size="13.7726" font-family="Helvetica">1.04</text>
<text xml:space="preserve" x="178.258" y="385.379" fill="black" font-size="13.7726" font-family="Helvetica">1.06</text>
<text xml:space="preserve" x="223.764" y="385.379" fill="black" font-size="13.7726" font-family="Helvetica">1.08</text>
<text xml:space="preserve" x="274.01" y="385.379" fill="black" font-size="13.7726" font-family="Helvetica">1.1</text>
<text xml:space="preserve" x="314.302" y="385.379" fill="black" font-size="13.7726" font-family="Helvetica">1.12</text>
<text xml:space="preserve" x="359.808" y="385.379" fill="black" font-size="13.7726" font-family="Helvetica">1.14</text>
<text xml:space="preserve" x="405.314" y="385.379" fill="black" font-size="13.7726" font-family="Helvetica">1.16</text>
<text xml:space="preserve" x="450.346" y="385.379" fill="black" font-size="13.7726" font-family="Helvetica">1.18</text>
<text xml:space="preserve" x="499.644" y="385.379" fill="black" font-size="13.7726" font-family="Helvetica">1.2</text>
<text xml:space="preserve" x="413.372" y="400.074" fill="black" font-size="13.7726" font-family="Helvetica">calibration factor</text>
<path d="M57.1929,372.012v -330.677" fill="none" stroke="black"/>
<path d="M70.7992,316.444h -13.6063" fill="none" stroke="black"/>
<path d="M63.9961,300.697h -6.80315" fill="none" stroke="black"/>
<path d="M63.9961,284.951h -6.80315" fill="none" stroke="black"/>
<path d="M63.9961,269.204h -6.80315" fill="none" stroke="black"/>
<path d="M70.7992,253.458h -13.6063" fill="none" stroke="black"/>
<path d="M63.9961,237.711h -6.80315" fill="none" stroke="black"/>
<path d="M63.9961,221.965h -6.80315" fill="none" stroke="black"/>
<path d="M63.9961,206.218h -6.80315" fill="none" stroke="black"/>
<path d="M70.7992,190.472h -13.6063" fill="none" stroke="black"/>
<path d="M63.9961,174.725h -6.80315" fill="none" stroke="black"/>
<path d="M63.9961,158.979h -6.80315" fill="none" stroke="black"/>
<path d="M63.9961,143.232h -6.80315" fill="none" stroke="black"/>
<path d="M70.7992,127.486h -13.6063" fill="none" stroke="black"/>
<path d="M63.9961,111.739h -6.80315" fill="none" stroke="black"/>
<path d="M63.9961,95.9926h -6.80315" fill="none" stroke="black"/>
<path d="M63.9961,80.2461h -6.80315" fill="none" stroke="black"/>
<path d="M70.7992,64.4996h -13.6063" fill="none" stroke="black"/>
<path d="M70.7992,316.444h -13.6063" fill="none" stroke="black"/>
<path d="M63.9961,332.191h -6.80315" fill="none" stroke="black"/>
<path d="M63.9961,347.937h -6.80315" fill="none" stroke="black"/>
<path d="M63.9961,363.684h -6.80315" fill="none" stroke="black"/>
<path d="M70.7992,64.4996h -13.6063" fill="none" stroke="black"/>
<path d="M63.9961,48.7531h -6.80315" fill="none" stroke="black"/>
<text xml:space="preserve" x="25.1491" y="320.912" fill="black" font-size="13.7726" font-family="Helvetica">1940</text>
<text xml:space="preserve" x="25.1491" y="257.867" fill="black" font-size="13.7726" font-family="Helvetica">1960</text>
<text xml:space="preserve" x="25.1491" y="194.823" fill="black" font-size="13.7726" font-family="Helvetica">1980</text>
<text xml:space="preserve" x="25.1491" y="131.778" fill="black" font-size="13.7726" font-family="Helvetica">2000</text>
<text xml:space="preserve" x="25.1491" y="69.2071" fill="black" font-size="13.7726" font-family="Helvetica">2020</text>
<g transform="rotate(-90,8.08434,45.98)">
<text xml:space="preserve" x="8.08434" y="45.98" fill="black" font-size="9.34839" font-family="Helvetica">2</text>
</g>
<g transform="rotate(-90,12.3505,50.2462)">
<text xml:space="preserve" x="12.3505" y="50.2462" fill="black" font-size="13.7726" font-family="Helvetica"> </text>
</g>
<g transform="rotate(-90,12.3505,57.3565)">
<text xml:space="preserve" x="12.3505" y="57.3565" fill="black" font-size="13.7726" font-family="Times">&#0967;</text>
</g>
<g stroke="black" stroke-width="1" fill="none">
<line x1="205.949" y1="50.7526" x2="209.742" y2="50.7526"/><line x1="207.845" y1="48.8565" x2="207.845" y2="52.6487"/><line x1="205.949" y1="48.8565" x2="209.742" y2="52.6487"/><line x1="205.949" y1="52.6487" x2="209.742" y2="48.8565"/>
<line x1="206.403" y1="50.3565" x2="210.195" y2="50.3565"/><line x1="208.299" y1="48.4604" x2="208.299" y2="52.2526"/><line x1="206.403" y1="48.4604" x2="210.195" y2="52.2526"/><line x1="206.403" y1="52.2526" x2="210.195" y2="48.4604"/>
<line x1="206.856" y1="50.1842" x2="210.648" y2="50.1842"/><line x1="208.752" y1="48.2881" x2="208.752" y2="52.0802"/><line x1="206.856" y1="48.2881" x2="210.648" y2="52.0802"/><line x1="206.856" y1="52.0802" x2="210.648" y2="48.2881"/>
<line x1="207.309" y1="51.7675" x2="211.101" y2="51.7675"/><line x1="209.205" y1="49.8714" x2="209.205" y2="53.6636"/><line x1="207.309" y1="49.8714" x2="211.101" y2="53.6636"/><line x1="207.309" y1="53.6636" x2="211.101" y2="49.8714"/>
<line x1="207.762" y1="46.9844" x2="211.554" y2="46.9844"/><line x1="209.658" y1="45.0883" x2="209.658" y2="48.8805"/><line x1="207.762" y1="45.0883" x2="211.554" y2="48.8805"/><line x1="207.762" y1="48.8805" x2="211.554" y2="45.0883"/>
<line x1="208.215" y1="49.4639" x2="212.008" y2="49.4639"/><line x1="210.112" y1="47.5678" x2="210.112" y2="51.3599"/><line x1="208.215" y1="47.5678" x2="212.008" y2="51.3599"/><line x1="208.215" y1="51.3599" x2="212.008" y2="47.5678"/>
<line x1="208.669" y1="47.3258" x2="212.461" y2="47.3258"/><line x1="210.565" y1="45.4297" x2="210.565" y2="49.2219"/><line x1="208.669" y1="45.4297" x2="212.461" y2="49.2219"/><line x1="208.669" y1="49.2219" x2="212.461" y2="45.4297"/>
<line x1="209.122" y1="42.0377" x2="212.914" y2="42.0377"/><line x1="211.018" y1="40.1416" x2="211.018" y2="43.9338"/><line x1="209.122" y1="40.1416" x2="212.914" y2="43.9338"/><line x1="209.122" y1="43.9338" x2="212.914" y2="40.1416"/>
<line x1="209.575" y1="41.7344" x2="213.367" y2="41.7344"/><line x1="211.471" y1="39.8383" x2="211.471" y2="43.6305"/><line x1="209.575" y1="39.8383" x2="213.367" y2="43.6305"/><line x1="209.575" y1="43.6305" x2="213.367" y2="39.8383"/>
<line x1="210.028" y1="49.288" x2="213.821" y2="49.288"/><line x1="211.924" y1="47.3919" x2="211.924" y2="51.1841"/><line x1="210.028" y1="47.3919" x2="213.821" y2="51.1841"/><line x1="210.028" y1="51.1841" x2="213.821" y2="47.3919"/>
<line x1="210.482" y1="45.6705" x2="214.274" y2="45.6705"/><line x1="212.378" y1="43.7744" x2="212.378" y2="47.5666"/><line x1="210.482" y1="43.7744" x2="214.274" y2="47.5666"/><line x1="210.482" y1="47.5666" x2="214.274" y2="43.7744"/>
<line x1="210.935" y1="46.7952" x2="214.727" y2="46.7952"/><line x1="212.831" y1="44.8991" x2="212.831" y2="48.6913"/><line x1="210.935" y1="44.8991" x2="214.727" y2="48.6913"/><line x1="210.935" y1="48.6913" x2="214.727" y2="44.8991"/>
<line x1="211.388" y1="58.3203" x2="215.18" y2="58.3203"/><line x1="213.284" y1="56.4242" x2="213.284" y2="60.2164"/><line x1="211.388" y1="56.4242" x2="215.18" y2="60.2164"/><line x1="211.388" y1="60.2164" x2="215.18" y2="56.4242"/>
<line x1="211.841" y1="67.3898" x2="215.633" y2="67.3898"/><line x1="213.737" y1="65.4938" x2="213.737" y2="69.2859"/><line x1="211.841" y1="65.4938" x2="215.633" y2="69.2859"/><line x1="211.841" y1="69.2859" x2="215.633" y2="65.4938"/>
<line x1="212.295" y1="73.5258" x2="216.087" y2="73.5258"/><line x1="214.191" y1="71.6297" x2="214.191" y2="75.4219"/><line x1="212.295" y1="71.6297" x2="216.087" y2="75.4219"/><line x1="212.295" y1="75.4219" x2="216.087" y2="71.6297"/>
<line x1="212.748" y1="83.9355" x2="216.54" y2="83.9355"/><line x1="214.644" y1="82.0394" x2="214.644" y2="85.8316"/><line x1="212.748" y1="82.0394" x2="216.54" y2="85.8316"/><line x1="212.748" y1="85.8316" x2="216.54" y2="82.0394"/>
<line x1="213.201" y1="78.9199" x2="216.993" y2="78.9199"/><line x1="215.097" y1="77.0238" x2="215.097" y2="80.816"/><line x1="213.201" y1="77.0238" x2="216.993" y2="80.816"/><line x1="213.201" y1="80.816" x2="216.993" y2="77.0238"/>
<line x1="213.654" y1="75.2318" x2="217.446" y2="75.2318"/><line x1="215.55" y1="73.3357" x2="215.55" y2="77.1279"/><line x1="213.654" y1="73.3357" x2="217.446" y2="77.1279"/><line x1="213.654" y1="77.1279" x2="217.446" y2="73.3357"/>
<line x1="214.107" y1="79.3673" x2="217.9" y2="79.3673"/><line x1="216.004" y1="77.4713" x2="216.004" y2="81.2634"/><line x1="214.107" y1="77.4713" x2="217.9" y2="81.2634"/><line x1="214.107" y1="81.2634" x2="217.9" y2="77.4713"/>
<line x1="214.561" y1="92.3984" x2="218.353" y2="92.3984"/><line x1="216.457" y1="90.5023" x2="216.457" y2="94.2945"/><line x1="214.561" y1="90.5023" x2="218.353" y2="94.2945"/><line x1="214.561" y1="94.2945" x2="218.353" y2="90.5023"/>
<line x1="215.014" y1="96.0305" x2="218.806" y2="96.0305"/><line x1="216.91" y1="94.1345" x2="216.91" y2="97.9266"/><line x1="215.014" y1="94.1345" x2="218.806" y2="97.9266"/><line x1="215.014" y1="97.9266" x2="218.806" y2="94.1345"/>
<line x1="215.467" y1="94.1567" x2="219.259" y2="94.1567"/><line x1="217.363" y1="92.2606" x2="217.363" y2="96.0528"/><line x1="215.467" y1="92.2606" x2="219.259" y2="96.0528"/><line x1="215.467" y1="96.0528" x2="219.259" y2="92.2606"/>
<line x1="215.92" y1="109.061" x2="219.713" y2="109.061"/><line x1="217.816" y1="107.165" x2="217.816" y2="110.957"/><line x1="215.92" y1="107.165" x2="219.713" y2="110.957"/><line x1="215.92" y1="110.957" x2="219.713" y2="107.165"/>
<line x1="216.374" y1="119.634" x2="220.166" y2="119.634"/><line x1="218.27" y1="117.738" x2="218.27" y2="121.531"/><line x1="216.374" y1="117.738" x2="220.166" y2="121.531"/><line x1="216.374" y1="121.531" x2="220.166" y2="117.738"/>
<line x1="216.827" y1="125.881" x2="220.619" y2="125.881"/><line x1="218.723" y1="123.985" x2="218.723" y2="127.777"/><line x1="216.827" y1="123.985" x2="220.619" y2="127.777"/><line x1="216.827" y1="127.777" x2="220.619" y2="123.985"/>
<line x1="217.28" y1="123.95" x2="221.072" y2="123.95"/><line x1="219.176" y1="122.054" x2="219.176" y2="125.846"/><line x1="217.28" y1="122.054" x2="221.072" y2="125.846"/><line x1="217.28" y1="125.846" x2="221.072" y2="122.054"/>
<line x1="217.733" y1="122.83" x2="221.525" y2="122.83"/><line x1="219.629" y1="120.934" x2="219.629" y2="124.726"/><line x1="217.733" y1="120.934" x2="221.525" y2="124.726"/><line x1="217.733" y1="124.726" x2="221.525" y2="120.934"/>
<line x1="218.186" y1="133.245" x2="221.979" y2="133.245"/><line x1="220.083" y1="131.349" x2="220.083" y2="135.141"/><line x1="218.186" y1="131.349" x2="221.979" y2="135.141"/><line x1="218.186" y1="135.141" x2="221.979" y2="131.349"/>
<line x1="218.64" y1="129.507" x2="222.432" y2="129.507"/><line x1="220.536" y1="127.611" x2="220.536" y2="131.403"/><line x1="218.64" y1="127.611" x2="222.432" y2="131.403"/><line x1="218.64" y1="131.403" x2="222.432" y2="127.611"/>
<line x1="219.093" y1="129.218" x2="222.885" y2="129.218"/><line x1="220.989" y1="127.322" x2="220.989" y2="131.114"/><line x1="219.093" y1="127.322" x2="222.885" y2="131.114"/><line x1="219.093" y1="131.114" x2="222.885" y2="127.322"/>
<line x1="219.546" y1="128.835" x2="223.338" y2="128.835"/><line x1="221.442" y1="126.939" x2="221.442" y2="130.731"/><line x1="219.546" y1="126.939" x2="223.338" y2="130.731"/><line x1="219.546" y1="130.731" x2="223.338" y2="126.939"/>
<line x1="219.999" y1="139.396" x2="223.792" y2="139.396"/><line x1="221.895" y1="137.5" x2="221.895" y2="141.292"/><line x1="219.999" y1="137.5" x2="223.792" y2="141.292"/><line x1="219.999" y1="141.292" x2="223.792" y2="137.5"/>
<line x1="220.453" y1="143.354" x2="224.245" y2="143.354"/><line x1="222.349" y1="141.458" x2="222.349" y2="145.25"/><line x1="220.453" y1="141.458" x2="224.245" y2="145.25"/><line x1="220.453" y1="145.25" x2="224.245" y2="141.458"/>
<line x1="220.906" y1="153.284" x2="224.698" y2="153.284"/><line x1="222.802" y1="151.388" x2="222.802" y2="155.18"/><line x1="220.906" y1="151.388" x2="224.698" y2="155.18"/><line x1="220.906" y1="155.18" x2="224.698" y2="151.388"/>
<line x1="221.359" y1="155.808" x2="225.151" y2="155.808"/><line x1="223.255" y1="153.912" x2="223.255" y2="157.704"/><line x1="221.359" y1="153.912" x2="225.151" y2="157.704"/><line x1="221.359" y1="157.704" x2="225.151" y2="153.912"/>
<line x1="221.812" y1="150.431" x2="225.604" y2="150.431"/><line x1="223.708" y1="148.535" x2="223.708" y2="152.327"/><line x1="221.812" y1="148.535" x2="225.604" y2="152.327"/><line x1="221.812" y1="152.327" x2="225.604" y2="148.535"/>
<line x1="222.266" y1="150.428" x2="226.058" y2="150.428"/><line x1="224.162" y1="148.532" x2="224.162" y2="152.325"/><line x1="222.266" y1="148.532" x2="226.058" y2="152.325"/><line x1="222.266" y1="152.325" x2="226.058" y2="148.532"/>
<line x1="222.719" y1="157.257" x2="226.511" y2="157.257"/><line x1="224.615" y1="155.361" x2="224.615" y2="159.153"/><line x1="222.719" y1="155.361" x2="226.511" y2="159.153"/><line x1="222.719" y1="159.153" x2="226.511" y2="155.361"/>
<line x1="223.172" y1="164.005" x2="226.964" y2="164.005"/><line x1="225.068" y1="162.109" x2="225.068" y2="165.901"/><line x1="223.172" y1="162.109" x2="226.964" y2="165.901"/><line x1="223.172" y1="165.901" x2="226.964" y2="162.109"/>
<line x1="223.625" y1="162.538" x2="227.417" y2="162.538"/><line x1="225.521" y1="160.642" x2="225.521" y2="164.435"/><line x1="223.625" y1="160.642" x2="227.417" y2="164.435"/><line x1="223.625" y1="164.435" x2="227.417" y2="160.642"/>
<line x1="224.078" y1="174.924" x2="227.871" y2="174.924"/><line x1="225.974" y1="173.028" x2="225.974" y2="176.82"/><line x1="224.078" y1="173.028" x2="227.871" y2="176.82"/><line x1="224.078" y1="176.82" x2="227.871" y2="173.028"/>
<line x1="224.532" y1="171.904" x2="228.324" y2="171.904"/><line x1="226.428" y1="170.008" x2="226.428" y2="173.8"/><line x1="224.532" y1="170.008" x2="228.324" y2="173.8"/><line x1="224.532" y1="173.8" x2="228.324" y2="170.008"/>
<line x1="224.985" y1="180.817" x2="228.777" y2="180.817"/><line x1="226.881" y1="178.921" x2="226.881" y2="182.713"/><line x1="224.985" y1="178.921" x2="228.777" y2="182.713"/><line x1="224.985" y1="182.713" x2="228.777" y2="178.921"/>
<line x1="225.438" y1="174.308" x2="229.23" y2="174.308"/><line x1="227.334" y1="172.412" x2="227.334" y2="176.204"/><line x1="225.438" y1="172.412" x2="229.23" y2="176.204"/><line x1="225.438" y1="176.204" x2="229.23" y2="172.412"/>
<line x1="225.891" y1="174.013" x2="229.683" y2="174.013"/><line x1="227.787" y1="172.116" x2="227.787" y2="175.909"/><line x1="225.891" y1="172.116" x2="229.683" y2="175.909"/><line x1="225.891" y1="175.909" x2="229.683" y2="172.116"/>
<line x1="226.345" y1="169.998" x2="230.137" y2="169.998"/><line x1="228.241" y1="168.102" x2="228.241" y2="171.894"/><line x1="226.345" y1="168.102" x2="230.137" y2="171.894"/><line x1="226.345" y1="171.894" x2="230.137" y2="168.102"/>
<line x1="226.798" y1="165.889" x2="230.59" y2="165.889"/><line x1="228.694" y1="163.993" x2="228.694" y2="167.785"/><line x1="226.798" y1="163.993" x2="230.59" y2="167.785"/><line x1="226.798" y1="167.785" x2="230.59" y2="163.993"/>
<line x1="227.251" y1="168.485" x2="231.043" y2="168.485"/><line x1="229.147" y1="166.589" x2="229.147" y2="170.381"/><line x1="227.251" y1="166.589" x2="231.043" y2="170.381"/><line x1="227.251" y1="170.381" x2="231.043" y2="166.589"/>
<line x1="227.704" y1="178.733" x2="231.496" y2="178.733"/><line x1="229.6" y1="176.837" x2="229.6" y2="180.629"/><line x1="227.704" y1="176.837" x2="231.496" y2="180.629"/><line x1="227.704" y1="180.629" x2="231.496" y2="176.837"/>
<line x1="228.157" y1="187.317" x2="231.95" y2="187.317"/><line x1="230.054" y1="185.42" x2="230.054" y2="189.213"/><line x1="228.157" y1="185.42" x2="231.95" y2="189.213"/><line x1="228.157" y1="189.213" x2="231.95" y2="185.42"/>
<line x1="228.611" y1="197.569" x2="232.403" y2="197.569"/><line x1="230.507" y1="195.673" x2="230.507" y2="199.465"/><line x1="228.611" y1="195.673" x2="232.403" y2="199.465"/><line x1="228.611" y1="199.465" x2="232.403" y2="195.673"/>
<line x1="229.064" y1="202.404" x2="232.856" y2="202.404"/><line x1="230.96" y1="200.508" x2="230.96" y2="204.3"/><line x1="229.064" y1="200.508" x2="232.856" y2="204.3"/><line x1="229.064" y1="204.3" x2="232.856" y2="200.508"/>
<line x1="229.517" y1="206.975" x2="233.309" y2="206.975"/><line x1="231.413" y1="205.079" x2="231.413" y2="208.871"/><line x1="229.517" y1="205.079" x2="233.309" y2="208.871"/><line x1="229.517" y1="208.871" x2="233.309" y2="205.079"/>
<line x1="229.97" y1="210.22" x2="233.763" y2="210.22"/><line x1="231.866" y1="208.324" x2="231.866" y2="212.116"/><line x1="229.97" y1="208.324" x2="233.763" y2="212.116"/><line x1="229.97" y1="212.116" x2="233.763" y2="208.324"/>
<line x1="230.424" y1="223.355" x2="234.216" y2="223.355"/><line x1="232.32" y1="221.459" x2="232.32" y2="225.252"/><line x1="230.424" y1="221.459" x2="234.216" y2="225.252"/><line x1="230.424" y1="225.252" x2="234.216" y2="221.459"/>
<line x1="230.877" y1="223.25" x2="234.669" y2="223.25"/><line x1="232.773" y1="221.354" x2="232.773" y2="225.146"/><line x1="230.877" y1="221.354" x2="234.669" y2="225.146"/><line x1="230.877" y1="225.146" x2="234.669" y2="221.354"/>
<line x1="231.33" y1="229.985" x2="235.122" y2="229.985"/><line x1="233.226" y1="228.089" x2="233.226" y2="231.881"/><line x1="231.33" y1="228.089" x2="235.122" y2="231.881"/><line x1="231.33" y1="231.881" x2="235.122" y2="228.089"/>
<line x1="231.783" y1="239.18" x2="235.575" y2="239.18"/><line x1="233.679" y1="237.284" x2="233.679" y2="241.076"/><line x1="231.783" y1="237.284" x2="235.575" y2="241.076"/><line x1="231.783" y1="241.076" x2="235.575" y2="237.284"/>
<line x1="232.236" y1="244.211" x2="236.029" y2="244.211"/><line x1="234.133" y1="242.315" x2="234.133" y2="246.107"/><line x1="232.236" y1="242.315" x2="236.029" y2="246.107"/><line x1="232.236" y1="246.107" x2="236.029" y2="242.315"/>
<line x1="232.69" y1="252.533" x2="236.482" y2="252.533"/><line x1="234.586" y1="250.637" x2="234.586" y2="254.429"/><line x1="232.69" y1="250.637" x2="236.482" y2="254.429"/><line x1="232.69" y1="254.429" x2="236.482" y2="250.637"/>
<line x1="233.143" y1="254.31" x2="236.935" y2="254.31"/><line x1="235.039" y1="252.414" x2="235.039" y2="256.206"/><line x1="233.143" y1="252.414" x2="236.935" y2="256.206"/><line x1="233.143" y1="256.206" x2="236.935" y2="252.414"/>
<line x1="233.596" y1="252.862" x2="237.388" y2="252.862"/><line x1="235.492" y1="250.966" x2="235.492" y2="254.758"/><line x1="233.596" y1="250.966" x2="237.388" y2="254.758"/><line x1="233.596" y1="254.758" x2="237.388" y2="250.966"/>
<line x1="234.049" y1="258.784" x2="237.842" y2="258.784"/><line x1="235.945" y1="256.888" x2="235.945" y2="260.68"/><line x1="234.049" y1="256.888" x2="237.842" y2="260.68"/><line x1="234.049" y1="260.68" x2="237.842" y2="256.888"/>
<line x1="234.503" y1="258.722" x2="238.295" y2="258.722"/><line x1="236.399" y1="256.826" x2="236.399" y2="260.618"/><line x1="234.503" y1="256.826" x2="238.295" y2="260.618"/><line x1="234.503" y1="260.618" x2="238.295" y2="256.826"/>
<line x1="234.956" y1="254.966" x2="238.748" y2="254.966"/><line x1="236.852" y1="253.07" x2="236.852" y2="256.862"/><line x1="234.956" y1="253.07" x2="238.748" y2="256.862"/><line x1="234.956" y1="256.862" x2="238.748" y2="253.07"/>
<line x1="235.409" y1="251.695" x2="239.201" y2="251.695"/><line x1="237.305" y1="249.799" x2="237.305" y2="253.591"/><line x1="235.409" y1="249.799" x2="239.201" y2="253.591"/><line x1="235.409" y1="253.591" x2="239.201" y2="249.799"/>
<line x1="235.862" y1="249.776" x2="239.654" y2="249.776"/><line x1="237.758" y1="247.88" x2="237.758" y2="251.673"/><line x1="235.862" y1="247.88" x2="239.654" y2="251.673"/><line x1="235.862" y1="251.673" x2="239.654" y2="247.88"/>
<line x1="236.316" y1="249.498" x2="240.108" y2="249.498"/><line x1="238.212" y1="247.602" x2="238.212" y2="251.394"/><line x1="236.316" y1="247.602" x2="240.108" y2="251.394"/><line x1="236.316" y1="251.394" x2="240.108" y2="247.602"/>
<line x1="236.769" y1="242.819" x2="240.561" y2="242.819"/><line x1="238.665" y1="240.923" x2="238.665" y2="244.715"/><line x1="236.769" y1="240.923" x2="240.561" y2="244.715"/><line x1="236.769" y1="244.715" x2="240.561" y2="240.923"/>
<line x1="237.222" y1="246.338" x2="241.014" y2="246.338"/><line x1="239.118" y1="244.442" x2="239.118" y2="248.235"/><line x1="237.222" y1="244.442" x2="241.014" y2="248.235"/><line x1="237.222" y1="248.235" x2="241.014" y2="244.442"/>
<line x1="237.675" y1="251.9" x2="241.467" y2="251.9"/><line x1="239.571" y1="250.004" x2="239.571" y2="253.796"/><line x1="237.675" y1="250.004" x2="241.467" y2="253.796"/><line x1="237.675" y1="253.796" x2="241.467" y2="250.004"/>
<line x1="238.128" y1="236.596" x2="241.921" y2="236.596"/><line x1="240.025" y1="234.7" x2="240.025" y2="238.492"/><line x1="238.128" y1="234.7" x2="241.921" y2="238.492"/><line x1="238.128" y1="238.492" x2="241.921" y2="234.7"/>
<line x1="238.582" y1="236.38" x2="242.374" y2="236.38"/><line x1="240.478" y1="234.484" x2="240.478" y2="238.276"/><line x1="238.582" y1="234.484" x2="242.374" y2="238.276"/><line x1="238.582" y1="238.276" x2="242.374" y2="234.484"/>
<line x1="239.035" y1="237.892" x2="242.827" y2="237.892"/><line x1="240.931" y1="235.996" x2="240.931" y2="239.788"/><line x1="239.035" y1="235.996" x2="242.827" y2="239.788"/><line x1="239.035" y1="239.788" x2="242.827" y2="235.996"/>
<line x1="239.488" y1="244.597" x2="243.28" y2="244.597"/><line x1="241.384" y1="242.701" x2="241.384" y2="246.493"/><line x1="239.488" y1="242.701" x2="243.28" y2="246.493"/><line x1="239.488" y1="246.493" x2="243.28" y2="242.701"/>
<line x1="239.941" y1="237.599" x2="243.733" y2="237.599"/><line x1="241.837" y1="235.703" x2="241.837" y2="239.495"/><line x1="239.941" y1="235.703" x2="243.733" y2="239.495"/><line x1="239.941" y1="239.495" x2="243.733" y2="235.703"/>
<line x1="240.395" y1="236.61" x2="244.187" y2="236.61"/><line x1="242.291" y1="234.714" x2="242.291" y2="238.506"/><line x1="240.395" y1="234.714" x2="244.187" y2="238.506"/><line x1="240.395" y1="238.506" x2="244.187" y2="234.714"/>
<line x1="240.848" y1="237.062" x2="244.64" y2="237.062"/><line x1="242.744" y1="235.166" x2="242.744" y2="238.958"/><line x1="240.848" y1="235.166" x2="244.64" y2="238.958"/><line x1="240.848" y1="238.958" x2="244.64" y2="235.166"/>
<line x1="241.301" y1="237.575" x2="245.093" y2="237.575"/><line x1="243.197" y1="235.679" x2="243.197" y2="239.471"/><line x1="241.301" y1="235.679" x2="245.093" y2="239.471"/><line x1="241.301" y1="239.471" x2="245.093" y2="235.679"/>
<line x1="241.754" y1="231.461" x2="245.546" y2="231.461"/><line x1="243.65" y1="229.564" x2="243.65" y2="233.357"/><line x1="241.754" y1="229.564" x2="245.546" y2="233.357"/><line x1="241.754" y1="233.357" x2="245.546" y2="229.564"/>
<line x1="242.207" y1="234.305" x2="246" y2="234.305"/><line x1="244.104" y1="232.409" x2="244.104" y2="236.201"/><line x1="242.207" y1="232.409" x2="246" y2="236.201"/><line x1="242.207" y1="236.201" x2="246" y2="232.409"/>
<line x1="242.661" y1="229.922" x2="246.453" y2="229.922"/><line x1="244.557" y1="228.026" x2="244.557" y2="231.818"/><line x1="242.661" y1="228.026" x2="246.453" y2="231.818"/><line x1="242.661" y1="231.818" x2="246.453" y2="228.026"/>
<line x1="243.114" y1="219.181" x2="246.906" y2="219.181"/><line x1="245.01" y1="217.285" x2="245.01" y2="221.077"/><line x1="243.114" y1="217.285" x2="246.906" y2="221.077"/><line x1="243.114" y1="221.077" x2="246.906" y2="217.285"/>
<line x1="243.567" y1="223.359" x2="247.359" y2="223.359"/><line x1="245.463" y1="221.463" x2="245.463" y2="225.256"/><line x1="243.567" y1="221.463" x2="247.359" y2="225.256"/><line x1="243.567" y1="225.256" x2="247.359" y2="221.463"/>
<line x1="244.02" y1="218.635" x2="247.813" y2="218.635"/><line x1="245.916" y1="216.739" x2="245.916" y2="220.531"/><line x1="244.02" y1="216.739" x2="247.813" y2="220.531"/><line x1="244.02" y1="220.531" x2="247.813" y2="216.739"/>
<line x1="244.474" y1="229.763" x2="248.266" y2="229.763"/><line x1="246.37" y1="227.867" x2="246.37" y2="231.659"/><line x1="244.474" y1="227.867" x2="248.266" y2="231.659"/><line x1="244.474" y1="231.659" x2="248.266" y2="227.867"/>
<line x1="244.927" y1="227.495" x2="248.719" y2="227.495"/><line x1="246.823" y1="225.599" x2="246.823" y2="229.391"/><line x1="244.927" y1="225.599" x2="248.719" y2="229.391"/><line x1="244.927" y1="229.391" x2="248.719" y2="225.599"/>
<line x1="245.38" y1="236.817" x2="249.172" y2="236.817"/><line x1="247.276" y1="234.921" x2="247.276" y2="238.713"/><line x1="245.38" y1="234.921" x2="249.172" y2="238.713"/><line x1="245.38" y1="238.713" x2="249.172" y2="234.921"/>
<line x1="245.833" y1="221.948" x2="249.625" y2="221.948"/><line x1="247.729" y1="220.051" x2="247.729" y2="223.844"/><line x1="245.833" y1="220.051" x2="249.625" y2="223.844"/><line x1="245.833" y1="223.844" x2="249.625" y2="220.051"/>
<line x1="246.286" y1="223.036" x2="250.079" y2="223.036"/><line x1="248.183" y1="221.14" x2="248.183" y2="224.932"/><line x1="246.286" y1="221.14" x2="250.079" y2="224.932"/><line x1="246.286" y1="224.932" x2="250.079" y2="221.14"/>
<line x1="246.74" y1="213.028" x2="250.532" y2="213.028"/><line x1="248.636" y1="211.132" x2="248.636" y2="214.924"/><line x1="246.74" y1="211.132" x2="250.532" y2="214.924"/><line x1="246.74" y1="214.924" x2="250.532" y2="211.132"/>
<line x1="247.193" y1="214.003" x2="250.985" y2="214.003"/><line x1="249.089" y1="212.107" x2="249.089" y2="215.899"/><line x1="247.193" y1="212.107" x2="250.985" y2="215.899"/><line x1="247.193" y1="215.899" x2="250.985" y2="212.107"/>
<line x1="247.646" y1="217.761" x2="251.438" y2="217.761"/><line x1="249.542" y1="215.865" x2="249.542" y2="219.657"/><line x1="247.646" y1="215.865" x2="251.438" y2="219.657"/><line x1="247.646" y1="219.657" x2="251.438" y2="215.865"/>
<line x1="248.099" y1="215.939" x2="251.892" y2="215.939"/><line x1="249.995" y1="214.042" x2="249.995" y2="217.835"/><line x1="248.099" y1="214.042" x2="251.892" y2="217.835"/><line x1="248.099" y1="217.835" x2="251.892" y2="214.042"/>
<line x1="248.553" y1="205.555" x2="252.345" y2="205.555"/><line x1="250.449" y1="203.659" x2="250.449" y2="207.451"/><line x1="248.553" y1="203.659" x2="252.345" y2="207.451"/><line x1="248.553" y1="207.451" x2="252.345" y2="203.659"/>
<line x1="249.006" y1="208.009" x2="252.798" y2="208.009"/><line x1="250.902" y1="206.113" x2="250.902" y2="209.905"/><line x1="249.006" y1="206.113" x2="252.798" y2="209.905"/><line x1="249.006" y1="209.905" x2="252.798" y2="206.113"/>
<line x1="249.459" y1="216.364" x2="253.251" y2="216.364"/><line x1="251.355" y1="214.468" x2="251.355" y2="218.26"/><line x1="249.459" y1="214.468" x2="253.251" y2="218.26"/><line x1="249.459" y1="218.26" x2="253.251" y2="214.468"/>
<line x1="249.912" y1="227.871" x2="253.704" y2="227.871"/><line x1="251.808" y1="225.975" x2="251.808" y2="229.767"/><line x1="249.912" y1="225.975" x2="253.704" y2="229.767"/><line x1="249.912" y1="229.767" x2="253.704" y2="225.975"/>
<line x1="250.366" y1="232.154" x2="254.158" y2="232.154"/><line x1="252.262" y1="230.258" x2="252.262" y2="234.05"/><line x1="250.366" y1="230.258" x2="254.158" y2="234.05"/><line x1="250.366" y1="234.05" x2="254.158" y2="230.258"/>
<line x1="250.819" y1="235.704" x2="254.611" y2="235.704"/><line x1="252.715" y1="233.808" x2="252.715" y2="237.6"/><line x1="250.819" y1="233.808" x2="254.611" y2="237.6"/><line x1="250.819" y1="237.6" x2="254.611" y2="233.808"/>
<line x1="251.272" y1="232.834" x2="255.064" y2="232.834"/><line x1="253.168" y1="230.938" x2="253.168" y2="234.73"/><line x1="251.272" y1="230.938" x2="255.064" y2="234.73"/><line x1="251.272" y1="234.73" x2="255.064" y2="230.938"/>
<line x1="251.725" y1="238.148" x2="255.517" y2="238.148"/><line x1="253.621" y1="236.252" x2="253.621" y2="240.044"/><line x1="251.725" y1="236.252" x2="255.517" y2="240.044"/><line x1="251.725" y1="240.044" x2="255.517" y2="236.252"/>
<line x1="252.178" y1="236.568" x2="255.971" y2="236.568"/><line x1="254.075" y1="234.672" x2="254.075" y2="238.464"/><line x1="252.178" y1="234.672" x2="255.971" y2="238.464"/><line x1="252.178" y1="238.464" x2="255.971" y2="234.672"/>
<line x1="252.632" y1="245.049" x2="256.424" y2="245.049"/><line x1="254.528" y1="243.153" x2="254.528" y2="246.945"/><line x1="252.632" y1="243.153" x2="256.424" y2="246.945"/><line x1="252.632" y1="246.945" x2="256.424" y2="243.153"/>
<line x1="253.085" y1="249.001" x2="256.877" y2="249.001"/><line x1="254.981" y1="247.105" x2="254.981" y2="250.897"/><line x1="253.085" y1="247.105" x2="256.877" y2="250.897"/><line x1="253.085" y1="250.897" x2="256.877" y2="247.105"/>
<line x1="253.538" y1="252.165" x2="257.33" y2="252.165"/><line x1="255.434" y1="250.269" x2="255.434" y2="254.061"/><line x1="253.538" y1="250.269" x2="257.33" y2="254.061"/><line x1="253.538" y1="254.061" x2="257.33" y2="250.269"/>
<line x1="253.991" y1="266.755" x2="257.784" y2="266.755"/><line x1="255.887" y1="264.859" x2="255.887" y2="268.651"/><line x1="253.991" y1="264.859" x2="257.784" y2="268.651"/><line x1="253.991" y1="268.651" x2="257.784" y2="264.859"/>
<line x1="254.445" y1="268.078" x2="258.237" y2="268.078"/><line x1="256.341" y1="266.181" x2="256.341" y2="269.974"/><line x1="254.445" y1="266.181" x2="258.237" y2="269.974"/><line x1="254.445" y1="269.974" x2="258.237" y2="266.181"/>
<line x1="254.898" y1="273.477" x2="258.69" y2="273.477"/><line x1="256.794" y1="271.581" x2="256.794" y2="275.373"/><line x1="254.898" y1="271.581" x2="258.69" y2="275.373"/><line x1="254.898" y1="275.373" x2="258.69" y2="271.581"/>
<line x1="255.351" y1="274.234" x2="259.143" y2="274.234"/><line x1="257.247" y1="272.337" x2="257.247" y2="276.13"/><line x1="255.351" y1="272.337" x2="259.143" y2="276.13"/><line x1="255.351" y1="276.13" x2="259.143" y2="272.337"/>
<line x1="255.804" y1="279.533" x2="259.596" y2="279.533"/><line x1="257.7" y1="277.637" x2="257.7" y2="281.43"/><line x1="255.804" y1="277.637" x2="259.596" y2="281.43"/><line x1="255.804" y1="281.43" x2="259.596" y2="277.637"/>
<line x1="256.257" y1="283.534" x2="260.05" y2="283.534"/><line x1="258.154" y1="281.638" x2="258.154" y2="285.43"/><line x1="256.257" y1="281.638" x2="260.05" y2="285.43"/><line x1="256.257" y1="285.43" x2="260.05" y2="281.638"/>
<line x1="256.711" y1="283.573" x2="260.503" y2="283.573"/><line x1="258.607" y1="281.677" x2="258.607" y2="285.469"/><line x1="256.711" y1="281.677" x2="260.503" y2="285.469"/><line x1="256.711" y1="285.469" x2="260.503" y2="281.677"/>
<line x1="257.164" y1="276.725" x2="260.956" y2="276.725"/><line x1="259.06" y1="274.829" x2="259.06" y2="278.622"/><line x1="257.164" y1="274.829" x2="260.956" y2="278.622"/><line x1="257.164" y1="278.622" x2="260.956" y2="274.829"/>
<line x1="257.617" y1="269.802" x2="261.409" y2="269.802"/><line x1="259.513" y1="267.906" x2="259.513" y2="271.698"/><line x1="257.617" y1="267.906" x2="261.409" y2="271.698"/><line x1="257.617" y1="271.698" x2="261.409" y2="267.906"/>
<line x1="258.07" y1="275.161" x2="261.863" y2="275.161"/><line x1="259.966" y1="273.265" x2="259.966" y2="277.057"/><line x1="258.07" y1="273.265" x2="261.863" y2="277.057"/><line x1="258.07" y1="277.057" x2="261.863" y2="273.265"/>
<line x1="258.524" y1="278.169" x2="262.316" y2="278.169"/><line x1="260.42" y1="276.273" x2="260.42" y2="280.065"/><line x1="258.524" y1="276.273" x2="262.316" y2="280.065"/><line x1="258.524" y1="280.065" x2="262.316" y2="276.273"/>
<line x1="258.977" y1="277.348" x2="262.769" y2="277.348"/><line x1="260.873" y1="275.452" x2="260.873" y2="279.244"/><line x1="258.977" y1="275.452" x2="262.769" y2="279.244"/><line x1="258.977" y1="279.244" x2="262.769" y2="275.452"/>
<line x1="259.43" y1="291.635" x2="263.222" y2="291.635"/><line x1="261.326" y1="289.739" x2="261.326" y2="293.531"/><line x1="259.43" y1="289.739" x2="263.222" y2="293.531"/><line x1="259.43" y1="293.531" x2="263.222" y2="289.739"/>
<line x1="259.883" y1="293.883" x2="263.675" y2="293.883"/><line x1="261.779" y1="291.987" x2="261.779" y2="295.779"/><line x1="259.883" y1="291.987" x2="263.675" y2="295.779"/><line x1="259.883" y1="295.779" x2="263.675" y2="291.987"/>
<line x1="260.336" y1="293.481" x2="264.129" y2="293.481"/><line x1="262.233" y1="291.585" x2="262.233" y2="295.377"/><line x1="260.336" y1="291.585" x2="264.129" y2="295.377"/><line x1="260.336" y1="295.377" x2="264.129" y2="291.585"/>
<line x1="260.79" y1="301.352" x2="264.582" y2="301.352"/><line x1="262.686" y1="299.455" x2="262.686" y2="303.248"/><line x1="260.79" y1="299.455" x2="264.582" y2="303.248"/><line x1="260.79" y1="303.248" x2="264.582" y2="299.455"/>
<line x1="261.243" y1="310.056" x2="265.035" y2="310.056"/><line x1="263.139" y1="308.16" x2="263.139" y2="311.952"/><line x1="261.243" y1="308.16" x2="265.035" y2="311.952"/><line x1="261.243" y1="311.952" x2="265.035" y2="308.16"/>
<line x1="261.696" y1="306.459" x2="265.488" y2="306.459"/><line x1="263.592" y1="304.563" x2="263.592" y2="308.355"/><line x1="261.696" y1="304.563" x2="265.488" y2="308.355"/><line x1="261.696" y1="308.355" x2="265.488" y2="304.563"/>
<line x1="262.149" y1="307.553" x2="265.942" y2="307.553"/><line x1="264.045" y1="305.657" x2="264.045" y2="309.449"/><line x1="262.149" y1="305.657" x2="265.942" y2="309.449"/><line x1="262.149" y1="309.449" x2="265.942" y2="305.657"/>
<line x1="262.603" y1="301.529" x2="266.395" y2="301.529"/><line x1="264.499" y1="299.633" x2="264.499" y2="303.425"/><line x1="262.603" y1="299.633" x2="266.395" y2="303.425"/><line x1="262.603" y1="303.425" x2="266.395" y2="299.633"/>
<line x1="263.056" y1="292.835" x2="266.848" y2="292.835"/><line x1="264.952" y1="290.939" x2="264.952" y2="294.731"/><line x1="263.056" y1="290.939" x2="266.848" y2="294.731"/><line x1="263.056" y1="294.731" x2="266.848" y2="290.939"/>
<line x1="263.509" y1="289.507" x2="267.301" y2="289.507"/><line x1="265.405" y1="287.611" x2="265.405" y2="291.403"/><line x1="263.509" y1="287.611" x2="267.301" y2="291.403"/><line x1="263.509" y1="291.403" x2="267.301" y2="287.611"/>
<line x1="263.962" y1="288.9" x2="267.754" y2="288.9"/><line x1="265.858" y1="287.004" x2="265.858" y2="290.796"/><line x1="263.962" y1="287.004" x2="267.754" y2="290.796"/><line x1="263.962" y1="290.796" x2="267.754" y2="287.004"/>
<line x1="264.416" y1="282.493" x2="268.208" y2="282.493"/><line x1="266.312" y1="280.596" x2="266.312" y2="284.389"/><line x1="264.416" y1="280.596" x2="268.208" y2="284.389"/><line x1="264.416" y1="284.389" x2="268.208" y2="280.596"/>
<line x1="264.869" y1="293.171" x2="268.661" y2="293.171"/><line x1="266.765" y1="291.275" x2="266.765" y2="295.067"/><line x1="264.869" y1="291.275" x2="268.661" y2="295.067"/><line x1="264.869" y1="295.067" x2="268.661" y2="291.275"/>
<line x1="265.322" y1="296.788" x2="269.114" y2="296.788"/><line x1="267.218" y1="294.892" x2="267.218" y2="298.684"/><line x1="265.322" y1="294.892" x2="269.114" y2="298.684"/><line x1="265.322" y1="298.684" x2="269.114" y2="294.892"/>
<line x1="265.775" y1="300.041" x2="269.567" y2="300.041"/><line x1="267.671" y1="298.145" x2="267.671" y2="301.937"/><line x1="265.775" y1="298.145" x2="269.567" y2="301.937"/><line x1="265.775" y1="301.937" x2="269.567" y2="298.145"/>
<line x1="266.228" y1="297.723" x2="270.021" y2="297.723"/><line x1="268.125" y1="295.826" x2="268.125" y2="299.619"/><line x1="266.228" y1="295.826" x2="270.021" y2="299.619"/><line x1="266.228" y1="299.619" x2="270.021" y2="295.826"/>
<line x1="266.682" y1="304.101" x2="270.474" y2="304.101"/><line x1="268.578" y1="302.205" x2="268.578" y2="305.997"/><line x1="266.682" y1="302.205" x2="270.474" y2="305.997"/><line x1="266.682" y1="305.997" x2="270.474" y2="302.205"/>
<line x1="267.135" y1="300.322" x2="270.927" y2="300.322"/><line x1="269.031" y1="298.426" x2="269.031" y2="302.218"/><line x1="267.135" y1="298.426" x2="270.927" y2="302.218"/><line x1="267.135" y1="302.218" x2="270.927" y2="298.426"/>
<line x1="267.588" y1="304.074" x2="271.38" y2="304.074"/><line x1="269.484" y1="302.178" x2="269.484" y2="305.97"/><line x1="267.588" y1="302.178" x2="271.38" y2="305.97"/><line x1="267.588" y1="305.97" x2="271.38" y2="302.178"/>
<line x1="268.041" y1="298.589" x2="271.833" y2="298.589"/><line x1="269.937" y1="296.693" x2="269.937" y2="300.485"/><line x1="268.041" y1="296.693" x2="271.833" y2="300.485"/><line x1="268.041" y1="300.485" x2="271.833" y2="296.693"/>
<line x1="268.495" y1="302.987" x2="272.287" y2="302.987"/><line x1="270.391" y1="301.091" x2="270.391" y2="304.883"/><line x1="268.495" y1="301.091" x2="272.287" y2="304.883"/><line x1="268.495" y1="304.883" x2="272.287" y2="301.091"/>
<line x1="268.948" y1="299.232" x2="272.74" y2="299.232"/><line x1="270.844" y1="297.336" x2="270.844" y2="301.128"/><line x1="268.948" y1="297.336" x2="272.74" y2="301.128"/><line x1="268.948" y1="301.128" x2="272.74" y2="297.336"/>
<line x1="269.401" y1="300.183" x2="273.193" y2="300.183"/><line x1="271.297" y1="298.287" x2="271.297" y2="302.079"/><line x1="269.401" y1="298.287" x2="273.193" y2="302.079"/><line x1="269.401" y1="302.079" x2="273.193" y2="298.287"/>
<line x1="269.854" y1="306.264" x2="273.646" y2="306.264"/><line x1="271.75" y1="304.368" x2="271.75" y2="308.161"/><line x1="269.854" y1="304.368" x2="273.646" y2="308.161"/><line x1="269.854" y1="308.161" x2="273.646" y2="304.368"/>
<line x1="270.307" y1="301.495" x2="274.1" y2="301.495"/><line x1="272.204" y1="299.599" x2="272.204" y2="303.391"/><line x1="270.307" y1="299.599" x2="274.1" y2="303.391"/><line x1="270.307" y1="303.391" x2="274.1" y2="299.599"/>
<line x1="270.761" y1="302.046" x2="274.553" y2="302.046"/><line x1="272.657" y1="300.15" x2="272.657" y2="303.942"/><line x1="270.761" y1="300.15" x2="274.553" y2="303.942"/><line x1="270.761" y1="303.942" x2="274.553" y2="300.15"/>
<line x1="271.214" y1="302.191" x2="275.006" y2="302.191"/><line x1="273.11" y1="300.295" x2="273.11" y2="304.087"/><line x1="271.214" y1="300.295" x2="275.006" y2="304.087"/><line x1="271.214" y1="304.087" x2="275.006" y2="300.295"/>
<line x1="271.667" y1="307.066" x2="275.459" y2="307.066"/><line x1="273.563" y1="305.17" x2="273.563" y2="308.962"/><line x1="271.667" y1="305.17" x2="275.459" y2="308.962"/><line x1="271.667" y1="308.962" x2="275.459" y2="305.17"/>
<line x1="272.12" y1="313.723" x2="275.913" y2="313.723"/><line x1="274.016" y1="311.827" x2="274.016" y2="315.619"/><line x1="272.12" y1="311.827" x2="275.913" y2="315.619"/><line x1="272.12" y1="315.619" x2="275.913" y2="311.827"/>
<line x1="272.574" y1="322.873" x2="276.366" y2="322.873"/><line x1="274.47" y1="320.977" x2="274.47" y2="324.769"/><line x1="272.574" y1="320.977" x2="276.366" y2="324.769"/><line x1="272.574" y1="324.769" x2="276.366" y2="320.977"/>
<line x1="273.027" y1="332.423" x2="276.819" y2="332.423"/><line x1="274.923" y1="330.527" x2="274.923" y2="334.319"/><line x1="273.027" y1="330.527" x2="276.819" y2="334.319"/><line x1="273.027" y1="334.319" x2="276.819" y2="330.527"/>
<line x1="273.48" y1="326.177" x2="277.272" y2="326.177"/><line x1="275.376" y1="324.281" x2="275.376" y2="328.073"/><line x1="273.48" y1="324.281" x2="277.272" y2="328.073"/><line x1="273.48" y1="328.073" x2="277.272" y2="324.281"/>
<line x1="273.933" y1="334.618" x2="277.725" y2="334.618"/><line x1="275.829" y1="332.722" x2="275.829" y2="336.514"/><line x1="273.933" y1="332.722" x2="277.725" y2="336.514"/><line x1="273.933" y1="336.514" x2="277.725" y2="332.722"/>
<line x1="274.387" y1="337.418" x2="278.179" y2="337.418"/><line x1="276.283" y1="335.522" x2="276.283" y2="339.314"/><line x1="274.387" y1="335.522" x2="278.179" y2="339.314"/><line x1="274.387" y1="339.314" x2="278.179" y2="335.522"/>
<line x1="274.84" y1="335.176" x2="278.632" y2="335.176"/><line x1="276.736" y1="333.28" x2="276.736" y2="337.072"/><line x1="274.84" y1="333.28" x2="278.632" y2="337.072"/><line x1="274.84" y1="337.072" x2="278.632" y2="333.28"/>
<line x1="275.293" y1="340.407" x2="279.085" y2="340.407"/><line x1="277.189" y1="338.511" x2="277.189" y2="342.303"/><line x1="275.293" y1="338.511" x2="279.085" y2="342.303"/><line x1="275.293" y1="342.303" x2="279.085" y2="338.511"/>
<line x1="275.746" y1="340.861" x2="279.538" y2="340.861"/><line x1="277.642" y1="338.965" x2="277.642" y2="342.758"/><line x1="275.746" y1="338.965" x2="279.538" y2="342.758"/><line x1="275.746" y1="342.758" x2="279.538" y2="338.965"/>
<line x1="276.199" y1="337.089" x2="279.992" y2="337.089"/><line x1="278.095" y1="335.193" x2="278.095" y2="338.985"/><line x1="276.199" y1="335.193" x2="279.992" y2="338.985"/><line x1="276.199" y1="338.985" x2="279.992" y2="335.193"/>
<line x1="276.653" y1="335.125" x2="280.445" y2="335.125"/><line x1="278.549" y1="333.229" x2="278.549" y2="337.022"/><line x1="276.653" y1="333.229" x2="280.445" y2="337.022"/><line x1="276.653" y1="337.022" x2="280.445" y2="333.229"/>
<line x1="277.106" y1="336.03" x2="280.898" y2="336.03"/><line x1="279.002" y1="334.134" x2="279.002" y2="337.926"/><line x1="277.106" y1="334.134" x2="280.898" y2="337.926"/><line x1="277.106" y1="337.926" x2="280.898" y2="334.134"/>
<line x1="277.559" y1="336.221" x2="281.351" y2="336.221"/><line x1="279.455" y1="334.324" x2="279.455" y2="338.117"/><line x1="277.559" y1="334.324" x2="281.351" y2="338.117"/><line x1="277.559" y1="338.117" x2="281.351" y2="334.324"/>
<line x1="278.012" y1="324.215" x2="281.804" y2="324.215"/><line x1="279.908" y1="322.319" x2="279.908" y2="326.111"/><line x1="278.012" y1="322.319" x2="281.804" y2="326.111"/><line x1="278.012" y1="326.111" x2="281.804" y2="322.319"/>
<line x1="278.466" y1="335.087" x2="282.258" y2="335.087"/><line x1="280.362" y1="333.191" x2="280.362" y2="336.984"/><line x1="278.466" y1="333.191" x2="282.258" y2="336.984"/><line x1="278.466" y1="336.984" x2="282.258" y2="333.191"/>
<line x1="278.919" y1="337.196" x2="282.711" y2="337.196"/><line x1="280.815" y1="335.3" x2="280.815" y2="339.092"/><line x1="278.919" y1="335.3" x2="282.711" y2="339.092"/><line x1="278.919" y1="339.092" x2="282.711" y2="335.3"/>
<line x1="279.372" y1="328.827" x2="283.164" y2="328.827"/><line x1="281.268" y1="326.931" x2="281.268" y2="330.723"/><line x1="279.372" y1="326.931" x2="283.164" y2="330.723"/><line x1="279.372" y1="330.723" x2="283.164" y2="326.931"/>
<line x1="279.825" y1="333.606" x2="283.617" y2="333.606"/><line x1="281.721" y1="331.71" x2="281.721" y2="335.502"/><line x1="279.825" y1="331.71" x2="283.617" y2="335.502"/><line x1="279.825" y1="335.502" x2="283.617" y2="331.71"/>
<line x1="280.278" y1="342.018" x2="284.071" y2="342.018"/><line x1="282.175" y1="340.122" x2="282.175" y2="343.914"/><line x1="280.278" y1="340.122" x2="284.071" y2="343.914"/><line x1="280.278" y1="343.914" x2="284.071" y2="340.122"/>
<line x1="280.732" y1="342.335" x2="284.524" y2="342.335"/><line x1="282.628" y1="340.438" x2="282.628" y2="344.231"/><line x1="280.732" y1="340.438" x2="284.524" y2="344.231"/><line x1="280.732" y1="344.231" x2="284.524" y2="340.438"/>
<line x1="281.185" y1="347.927" x2="284.977" y2="347.927"/><line x1="283.081" y1="346.031" x2="283.081" y2="349.823"/><line x1="281.185" y1="346.031" x2="284.977" y2="349.823"/><line x1="281.185" y1="349.823" x2="284.977" y2="346.031"/>
<line x1="281.638" y1="355.612" x2="285.43" y2="355.612"/><line x1="283.534" y1="353.716" x2="283.534" y2="357.509"/><line x1="281.638" y1="353.716" x2="285.43" y2="357.509"/><line x1="281.638" y1="357.509" x2="285.43" y2="353.716"/>
<line x1="282.091" y1="356.265" x2="285.884" y2="356.265"/><line x1="283.987" y1="354.369" x2="283.987" y2="358.161"/><line x1="282.091" y1="354.369" x2="285.884" y2="358.161"/><line x1="282.091" y1="358.161" x2="285.884" y2="354.369"/>
<line x1="282.545" y1="349.373" x2="286.337" y2="349.373"/><line x1="284.441" y1="347.477" x2="284.441" y2="351.269"/><line x1="282.545" y1="347.477" x2="286.337" y2="351.269"/><line x1="282.545" y1="351.269" x2="286.337" y2="347.477"/>
<line x1="282.998" y1="342.685" x2="286.79" y2="342.685"/><line x1="284.894" y1="340.789" x2="284.894" y2="344.581"/><line x1="282.998" y1="340.789" x2="286.79" y2="344.581"/><line x1="282.998" y1="344.581" x2="286.79" y2="340.789"/>
<line x1="283.451" y1="338.174" x2="287.243" y2="338.174"/><line x1="285.347" y1="336.278" x2="285.347" y2="340.07"/><line x1="283.451" y1="336.278" x2="287.243" y2="340.07"/><line x1="283.451" y1="340.07" x2="287.243" y2="336.278"/>
<line x1="283.904" y1="340.599" x2="287.696" y2="340.599"/><line x1="285.8" y1="338.703" x2="285.8" y2="342.495"/><line x1="283.904" y1="338.703" x2="287.696" y2="342.495"/><line x1="283.904" y1="342.495" x2="287.696" y2="338.703"/>
<line x1="284.357" y1="337.88" x2="288.15" y2="337.88"/><line x1="286.254" y1="335.984" x2="286.254" y2="339.776"/><line x1="284.357" y1="335.984" x2="288.15" y2="339.776"/><line x1="284.357" y1="339.776" x2="288.15" y2="335.984"/>
<line x1="284.811" y1="338.067" x2="288.603" y2="338.067"/><line x1="286.707" y1="336.171" x2="286.707" y2="339.963"/><line x1="284.811" y1="336.171" x2="288.603" y2="339.963"/><line x1="284.811" y1="339.963" x2="288.603" y2="336.171"/>
<line x1="285.264" y1="340.206" x2="289.056" y2="340.206"/><line x1="287.16" y1="338.31" x2="287.16" y2="342.102"/><line x1="285.264" y1="338.31" x2="289.056" y2="342.102"/><line x1="285.264" y1="342.102" x2="289.056" y2="338.31"/>
<line x1="285.717" y1="336.724" x2="289.509" y2="336.724"/><line x1="287.613" y1="334.828" x2="287.613" y2="338.62"/><line x1="285.717" y1="334.828" x2="289.509" y2="338.62"/><line x1="285.717" y1="338.62" x2="289.509" y2="334.828"/>
<line x1="286.17" y1="328.875" x2="289.963" y2="328.875"/><line x1="288.066" y1="326.979" x2="288.066" y2="330.772"/><line x1="286.17" y1="326.979" x2="289.963" y2="330.772"/><line x1="286.17" y1="330.772" x2="289.963" y2="326.979"/>
<line x1="286.624" y1="323.152" x2="290.416" y2="323.152"/><line x1="288.52" y1="321.256" x2="288.52" y2="325.048"/><line x1="286.624" y1="321.256" x2="290.416" y2="325.048"/><line x1="286.624" y1="325.048" x2="290.416" y2="321.256"/>
<line x1="287.077" y1="336.798" x2="290.869" y2="336.798"/><line x1="288.973" y1="334.902" x2="288.973" y2="338.694"/><line x1="287.077" y1="334.902" x2="290.869" y2="338.694"/><line x1="287.077" y1="338.694" x2="290.869" y2="334.902"/>
<line x1="287.53" y1="336.883" x2="291.322" y2="336.883"/><line x1="289.426" y1="334.987" x2="289.426" y2="338.78"/><line x1="287.53" y1="334.987" x2="291.322" y2="338.78"/><line x1="287.53" y1="338.78" x2="291.322" y2="334.987"/>
<line x1="287.983" y1="337.385" x2="291.775" y2="337.385"/><line x1="289.879" y1="335.489" x2="289.879" y2="339.282"/><line x1="287.983" y1="335.489" x2="291.775" y2="339.282"/><line x1="287.983" y1="339.282" x2="291.775" y2="335.489"/>
<line x1="288.437" y1="329.092" x2="292.229" y2="329.092"/><line x1="290.333" y1="327.196" x2="290.333" y2="330.988"/><line x1="288.437" y1="327.196" x2="292.229" y2="330.988"/><line x1="288.437" y1="330.988" x2="292.229" y2="327.196"/>
<line x1="288.89" y1="324.286" x2="292.682" y2="324.286"/><line x1="290.786" y1="322.389" x2="290.786" y2="326.182"/><line x1="288.89" y1="322.389" x2="292.682" y2="326.182"/><line x1="288.89" y1="326.182" x2="292.682" y2="322.389"/>
<line x1="289.343" y1="329.211" x2="293.135" y2="329.211"/><line x1="291.239" y1="327.314" x2="291.239" y2="331.107"/><line x1="289.343" y1="327.314" x2="293.135" y2="331.107"/><line x1="289.343" y1="331.107" x2="293.135" y2="327.314"/>
<line x1="289.796" y1="327.821" x2="293.588" y2="327.821"/><line x1="291.692" y1="325.925" x2="291.692" y2="329.717"/><line x1="289.796" y1="325.925" x2="293.588" y2="329.717"/><line x1="289.796" y1="329.717" x2="293.588" y2="325.925"/>
<line x1="290.249" y1="327.128" x2="294.042" y2="327.128"/><line x1="292.146" y1="325.231" x2="292.146" y2="329.024"/><line x1="290.249" y1="325.231" x2="294.042" y2="329.024"/><line x1="290.249" y1="329.024" x2="294.042" y2="325.231"/>
<line x1="290.703" y1="330.287" x2="294.495" y2="330.287"/><line x1="292.599" y1="328.391" x2="292.599" y2="332.183"/><line x1="290.703" y1="328.391" x2="294.495" y2="332.183"/><line x1="290.703" y1="332.183" x2="294.495" y2="328.391"/>
<line x1="291.156" y1="323.885" x2="294.948" y2="323.885"/><line x1="293.052" y1="321.989" x2="293.052" y2="325.781"/><line x1="291.156" y1="321.989" x2="294.948" y2="325.781"/><line x1="291.156" y1="325.781" x2="294.948" y2="321.989"/>
<line x1="291.609" y1="323.165" x2="295.401" y2="323.165"/><line x1="293.505" y1="321.269" x2="293.505" y2="325.062"/><line x1="291.609" y1="321.269" x2="295.401" y2="325.062"/><line x1="291.609" y1="325.062" x2="295.401" y2="321.269"/>
<line x1="292.062" y1="333.117" x2="295.854" y2="333.117"/><line x1="293.958" y1="331.221" x2="293.958" y2="335.013"/><line x1="292.062" y1="331.221" x2="295.854" y2="335.013"/><line x1="292.062" y1="335.013" x2="295.854" y2="331.221"/>
<line x1="292.516" y1="332.976" x2="296.308" y2="332.976"/><line x1="294.412" y1="331.08" x2="294.412" y2="334.872"/><line x1="292.516" y1="331.08" x2="296.308" y2="334.872"/><line x1="292.516" y1="334.872" x2="296.308" y2="331.08"/>
<line x1="292.969" y1="330.088" x2="296.761" y2="330.088"/><line x1="294.865" y1="328.192" x2="294.865" y2="331.984"/><line x1="292.969" y1="328.192" x2="296.761" y2="331.984"/><line x1="292.969" y1="331.984" x2="296.761" y2="328.192"/>
<line x1="293.422" y1="330.289" x2="297.214" y2="330.289"/><line x1="295.318" y1="328.393" x2="295.318" y2="332.185"/><line x1="293.422" y1="328.393" x2="297.214" y2="332.185"/><line x1="293.422" y1="332.185" x2="297.214" y2="328.393"/>
<line x1="293.875" y1="327.873" x2="297.667" y2="327.873"/><line x1="295.771" y1="325.977" x2="295.771" y2="329.769"/><line x1="293.875" y1="325.977" x2="297.667" y2="329.769"/><line x1="293.875" y1="329.769" x2="297.667" y2="325.977"/>
<line x1="294.328" y1="330.791" x2="298.121" y2="330.791"/><line x1="296.225" y1="328.895" x2="296.225" y2="332.688"/><line x1="294.328" y1="328.895" x2="298.121" y2="332.688"/><line x1="294.328" y1="332.688" x2="298.121" y2="328.895"/>
<line x1="294.782" y1="332.634" x2="298.574" y2="332.634"/><line x1="296.678" y1="330.738" x2="296.678" y2="334.53"/><line x1="294.782" y1="330.738" x2="298.574" y2="334.53"/><line x1="294.782" y1="334.53" x2="298.574" y2="330.738"/>
<line x1="295.235" y1="325.148" x2="299.027" y2="325.148"/><line x1="297.131" y1="323.252" x2="297.131" y2="327.044"/><line x1="295.235" y1="323.252" x2="299.027" y2="327.044"/><line x1="295.235" y1="327.044" x2="299.027" y2="323.252"/>
<line x1="295.688" y1="324.897" x2="299.48" y2="324.897"/><line x1="297.584" y1="323.001" x2="297.584" y2="326.793"/><line x1="295.688" y1="323.001" x2="299.48" y2="326.793"/><line x1="295.688" y1="326.793" x2="299.48" y2="323.001"/>
<line x1="296.141" y1="328.474" x2="299.934" y2="328.474"/><line x1="298.037" y1="326.578" x2="298.037" y2="330.37"/><line x1="296.141" y1="326.578" x2="299.934" y2="330.37"/><line x1="296.141" y1="330.37" x2="299.934" y2="326.578"/>
<line x1="296.595" y1="326.302" x2="300.387" y2="326.302"/><line x1="298.491" y1="324.406" x2="298.491" y2="328.199"/><line x1="296.595" y1="324.406" x2="300.387" y2="328.199"/><line x1="296.595" y1="328.199" x2="300.387" y2="324.406"/>
<line x1="297.048" y1="319.262" x2="300.84" y2="319.262"/><line x1="298.944" y1="317.366" x2="298.944" y2="321.158"/><line x1="297.048" y1="317.366" x2="300.84" y2="321.158"/><line x1="297.048" y1="321.158" x2="300.84" y2="317.366"/>
<line x1="297.501" y1="310.811" x2="301.293" y2="310.811"/><line x1="299.397" y1="308.915" x2="299.397" y2="312.707"/><line x1="297.501" y1="308.915" x2="301.293" y2="312.707"/><line x1="297.501" y1="312.707" x2="301.293" y2="308.915"/>
<line x1="297.954" y1="314.884" x2="301.746" y2="314.884"/><line x1="299.85" y1="312.987" x2="299.85" y2="316.78"/><line x1="297.954" y1="312.987" x2="301.746" y2="316.78"/><line x1="297.954" y1="316.78" x2="301.746" y2="312.987"/>
<line x1="298.407" y1="313.997" x2="302.2" y2="313.997"/><line x1="300.304" y1="312.101" x2="300.304" y2="315.893"/><line x1="298.407" y1="312.101" x2="302.2" y2="315.893"/><line x1="298.407" y1="315.893" x2="302.2" y2="312.101"/>
<line x1="298.861" y1="300.788" x2="302.653" y2="300.788"/><line x1="300.757" y1="298.892" x2="300.757" y2="302.685"/><line x1="298.861" y1="298.892" x2="302.653" y2="302.685"/><line x1="298.861" y1="302.685" x2="302.653" y2="298.892"/>
<line x1="299.314" y1="299.278" x2="303.106" y2="299.278"/><line x1="301.21" y1="297.381" x2="301.21" y2="301.174"/><line x1="299.314" y1="297.381" x2="303.106" y2="301.174"/><line x1="299.314" y1="301.174" x2="303.106" y2="297.381"/>
<line x1="299.767" y1="293.294" x2="303.559" y2="293.294"/><line x1="301.663" y1="291.398" x2="301.663" y2="295.19"/><line x1="299.767" y1="291.398" x2="303.559" y2="295.19"/><line x1="299.767" y1="295.19" x2="303.559" y2="291.398"/>
<line x1="300.22" y1="290.294" x2="304.013" y2="290.294"/><line x1="302.116" y1="288.398" x2="302.116" y2="292.19"/><line x1="300.22" y1="288.398" x2="304.013" y2="292.19"/><line x1="300.22" y1="292.19" x2="304.013" y2="288.398"/>
<line x1="300.674" y1="304.899" x2="304.466" y2="304.899"/><line x1="302.57" y1="303.003" x2="302.57" y2="306.795"/><line x1="300.674" y1="303.003" x2="304.466" y2="306.795"/><line x1="300.674" y1="306.795" x2="304.466" y2="303.003"/>
<line x1="301.127" y1="304.755" x2="304.919" y2="304.755"/><line x1="303.023" y1="302.859" x2="303.023" y2="306.651"/><line x1="301.127" y1="302.859" x2="304.919" y2="306.651"/><line x1="301.127" y1="306.651" x2="304.919" y2="302.859"/>
<line x1="301.58" y1="302.42" x2="305.372" y2="302.42"/><line x1="303.476" y1="300.524" x2="303.476" y2="304.316"/><line x1="301.58" y1="300.524" x2="305.372" y2="304.316"/><line x1="301.58" y1="304.316" x2="305.372" y2="300.524"/>
<line x1="302.033" y1="296.98" x2="305.825" y2="296.98"/><line x1="303.929" y1="295.084" x2="303.929" y2="298.876"/><line x1="302.033" y1="295.084" x2="305.825" y2="298.876"/><line x1="302.033" y1="298.876" x2="305.825" y2="295.084"/>
<line x1="302.487" y1="307.294" x2="306.279" y2="307.294"/><line x1="304.383" y1="305.398" x2="304.383" y2="309.19"/><line x1="302.487" y1="305.398" x2="306.279" y2="309.19"/><line x1="302.487" y1="309.19" x2="306.279" y2="305.398"/>
<line x1="302.94" y1="316.13" x2="306.732" y2="316.13"/><line x1="304.836" y1="314.234" x2="304.836" y2="318.026"/><line x1="302.94" y1="314.234" x2="306.732" y2="318.026"/><line x1="302.94" y1="318.026" x2="306.732" y2="314.234"/>
<line x1="303.393" y1="319.488" x2="307.185" y2="319.488"/><line x1="305.289" y1="317.592" x2="305.289" y2="321.384"/><line x1="303.393" y1="317.592" x2="307.185" y2="321.384"/><line x1="303.393" y1="321.384" x2="307.185" y2="317.592"/>
<line x1="303.846" y1="321.418" x2="307.638" y2="321.418"/><line x1="305.742" y1="319.522" x2="305.742" y2="323.314"/><line x1="303.846" y1="319.522" x2="307.638" y2="323.314"/><line x1="303.846" y1="323.314" x2="307.638" y2="319.522"/>
<line x1="304.299" y1="321.781" x2="308.092" y2="321.781"/><line x1="306.195" y1="319.885" x2="306.195" y2="323.677"/><line x1="304.299" y1="319.885" x2="308.092" y2="323.677"/><line x1="304.299" y1="323.677" x2="308.092" y2="319.885"/>
<line x1="304.753" y1="316.631" x2="308.545" y2="316.631"/><line x1="306.649" y1="314.735" x2="306.649" y2="318.527"/><line x1="304.753" y1="314.735" x2="308.545" y2="318.527"/><line x1="304.753" y1="318.527" x2="308.545" y2="314.735"/>
<line x1="305.206" y1="313.165" x2="308.998" y2="313.165"/><line x1="307.102" y1="311.269" x2="307.102" y2="315.061"/><line x1="305.206" y1="311.269" x2="308.998" y2="315.061"/><line x1="305.206" y1="315.061" x2="308.998" y2="311.269"/>
<line x1="305.659" y1="316.621" x2="309.451" y2="316.621"/><line x1="307.555" y1="314.725" x2="307.555" y2="318.517"/><line x1="305.659" y1="314.725" x2="309.451" y2="318.517"/><line x1="305.659" y1="318.517" x2="309.451" y2="314.725"/>
<line x1="306.112" y1="325.651" x2="309.904" y2="325.651"/><line x1="308.008" y1="323.755" x2="308.008" y2="327.547"/><line x1="306.112" y1="323.755" x2="309.904" y2="327.547"/><line x1="306.112" y1="327.547" x2="309.904" y2="323.755"/>
<line x1="306.566" y1="331.302" x2="310.358" y2="331.302"/><line x1="308.462" y1="329.406" x2="308.462" y2="333.199"/><line x1="306.566" y1="329.406" x2="310.358" y2="333.199"/><line x1="306.566" y1="333.199" x2="310.358" y2="329.406"/>
<line x1="307.019" y1="326.583" x2="310.811" y2="326.583"/><line x1="308.915" y1="324.686" x2="308.915" y2="328.479"/><line x1="307.019" y1="324.686" x2="310.811" y2="328.479"/><line x1="307.019" y1="328.479" x2="310.811" y2="324.686"/>
<line x1="307.472" y1="335.533" x2="311.264" y2="335.533"/><line x1="309.368" y1="333.637" x2="309.368" y2="337.429"/><line x1="307.472" y1="333.637" x2="311.264" y2="337.429"/><line x1="307.472" y1="337.429" x2="311.264" y2="333.637"/>
<line x1="307.925" y1="343.098" x2="311.717" y2="343.098"/><line x1="309.821" y1="341.202" x2="309.821" y2="344.994"/><line x1="307.925" y1="341.202" x2="311.717" y2="344.994"/><line x1="307.925" y1="344.994" x2="311.717" y2="341.202"/>
<line x1="308.378" y1="349.759" x2="312.171" y2="349.759"/><line x1="310.275" y1="347.863" x2="310.275" y2="351.655"/><line x1="308.378" y1="347.863" x2="312.171" y2="351.655"/><line x1="308.378" y1="351.655" x2="312.171" y2="347.863"/>
<line x1="308.832" y1="353.049" x2="312.624" y2="353.049"/><line x1="310.728" y1="351.153" x2="310.728" y2="354.946"/><line x1="308.832" y1="351.153" x2="312.624" y2="354.946"/><line x1="308.832" y1="354.946" x2="312.624" y2="351.153"/>
<line x1="309.285" y1="354.843" x2="313.077" y2="354.843"/><line x1="311.181" y1="352.947" x2="311.181" y2="356.739"/><line x1="309.285" y1="352.947" x2="313.077" y2="356.739"/><line x1="309.285" y1="356.739" x2="313.077" y2="352.947"/>
<line x1="309.738" y1="348.384" x2="313.53" y2="348.384"/><line x1="311.634" y1="346.488" x2="311.634" y2="350.28"/><line x1="309.738" y1="346.488" x2="313.53" y2="350.28"/><line x1="309.738" y1="350.28" x2="313.53" y2="346.488"/>
<line x1="310.191" y1="344.677" x2="313.984" y2="344.677"/><line x1="312.087" y1="342.781" x2="312.087" y2="346.573"/><line x1="310.191" y1="342.781" x2="313.984" y2="346.573"/><line x1="310.191" y1="346.573" x2="313.984" y2="342.781"/>
<line x1="310.645" y1="351.478" x2="314.437" y2="351.478"/><line x1="312.541" y1="349.582" x2="312.541" y2="353.374"/><line x1="310.645" y1="349.582" x2="314.437" y2="353.374"/><line x1="310.645" y1="353.374" x2="314.437" y2="349.582"/>
<line x1="311.098" y1="353.366" x2="314.89" y2="353.366"/><line x1="312.994" y1="351.47" x2="312.994" y2="355.262"/><line x1="311.098" y1="351.47" x2="314.89" y2="355.262"/><line x1="311.098" y1="355.262" x2="314.89" y2="351.47"/>
<line x1="311.551" y1="346.975" x2="315.343" y2="346.975"/><line x1="313.447" y1="345.079" x2="313.447" y2="348.871"/><line x1="311.551" y1="345.079" x2="315.343" y2="348.871"/><line x1="311.551" y1="348.871" x2="315.343" y2="345.079"/>
<line x1="312.004" y1="343.283" x2="315.796" y2="343.283"/><line x1="313.9" y1="341.387" x2="313.9" y2="345.179"/><line x1="312.004" y1="341.387" x2="315.796" y2="345.179"/><line x1="312.004" y1="345.179" x2="315.796" y2="341.387"/>
<line x1="312.457" y1="344.195" x2="316.25" y2="344.195"/><line x1="314.354" y1="342.299" x2="314.354" y2="346.091"/><line x1="312.457" y1="342.299" x2="316.25" y2="346.091"/><line x1="312.457" y1="346.091" x2="316.25" y2="342.299"/>
<line x1="312.911" y1="337.217" x2="316.703" y2="337.217"/><line x1="314.807" y1="335.321" x2="314.807" y2="339.114"/><line x1="312.911" y1="335.321" x2="316.703" y2="339.114"/><line x1="312.911" y1="339.114" x2="316.703" y2="335.321"/>
<line x1="313.364" y1="331.792" x2="317.156" y2="331.792"/><line x1="315.26" y1="329.896" x2="315.26" y2="333.688"/><line x1="313.364" y1="329.896" x2="317.156" y2="333.688"/><line x1="313.364" y1="333.688" x2="317.156" y2="329.896"/>
<line x1="313.817" y1="337.227" x2="317.609" y2="337.227"/><line x1="315.713" y1="335.331" x2="315.713" y2="339.123"/><line x1="313.817" y1="335.331" x2="317.609" y2="339.123"/><line x1="313.817" y1="339.123" x2="317.609" y2="335.331"/>
<line x1="314.27" y1="323.629" x2="318.063" y2="323.629"/><line x1="316.166" y1="321.733" x2="316.166" y2="325.526"/><line x1="314.27" y1="321.733" x2="318.063" y2="325.526"/><line x1="314.27" y1="325.526" x2="318.063" y2="321.733"/>
<line x1="314.724" y1="326.847" x2="318.516" y2="326.847"/><line x1="316.62" y1="324.951" x2="316.62" y2="328.743"/><line x1="314.724" y1="324.951" x2="318.516" y2="328.743"/><line x1="314.724" y1="328.743" x2="318.516" y2="324.951"/>
<line x1="315.177" y1="319.512" x2="318.969" y2="319.512"/><line x1="317.073" y1="317.616" x2="317.073" y2="321.408"/><line x1="315.177" y1="317.616" x2="318.969" y2="321.408"/><line x1="315.177" y1="321.408" x2="318.969" y2="317.616"/>
<line x1="315.63" y1="317.006" x2="319.422" y2="317.006"/><line x1="317.526" y1="315.11" x2="317.526" y2="318.902"/><line x1="315.63" y1="315.11" x2="319.422" y2="318.902"/><line x1="315.63" y1="318.902" x2="319.422" y2="315.11"/>
<line x1="316.083" y1="321.98" x2="319.875" y2="321.98"/><line x1="317.979" y1="320.084" x2="317.979" y2="323.876"/><line x1="316.083" y1="320.084" x2="319.875" y2="323.876"/><line x1="316.083" y1="323.876" x2="319.875" y2="320.084"/>
<line x1="316.537" y1="328.303" x2="320.329" y2="328.303"/><line x1="318.433" y1="326.407" x2="318.433" y2="330.199"/><line x1="316.537" y1="326.407" x2="320.329" y2="330.199"/><line x1="316.537" y1="330.199" x2="320.329" y2="326.407"/>
<line x1="316.99" y1="323.168" x2="320.782" y2="323.168"/><line x1="318.886" y1="321.272" x2="318.886" y2="325.064"/><line x1="316.99" y1="321.272" x2="320.782" y2="325.064"/><line x1="316.99" y1="325.064" x2="320.782" y2="321.272"/>
<line x1="317.443" y1="325.589" x2="321.235" y2="325.589"/><line x1="319.339" y1="323.693" x2="319.339" y2="327.485"/><line x1="317.443" y1="323.693" x2="321.235" y2="327.485"/><line x1="317.443" y1="327.485" x2="321.235" y2="323.693"/>
<line x1="317.896" y1="315.223" x2="321.688" y2="315.223"/><line x1="319.792" y1="313.327" x2="319.792" y2="317.119"/><line x1="317.896" y1="313.327" x2="321.688" y2="317.119"/><line x1="317.896" y1="317.119" x2="321.688" y2="313.327"/>
<line x1="318.349" y1="311.329" x2="322.142" y2="311.329"/><line x1="320.246" y1="309.433" x2="320.246" y2="313.225"/><line x1="318.349" y1="309.433" x2="322.142" y2="313.225"/><line x1="318.349" y1="313.225" x2="322.142" y2="309.433"/>
<line x1="318.803" y1="314.362" x2="322.595" y2="314.362"/><line x1="320.699" y1="312.466" x2="320.699" y2="316.258"/><line x1="318.803" y1="312.466" x2="322.595" y2="316.258"/><line x1="318.803" y1="316.258" x2="322.595" y2="312.466"/>
<line x1="319.256" y1="310.606" x2="323.048" y2="310.606"/><line x1="321.152" y1="308.71" x2="321.152" y2="312.502"/><line x1="319.256" y1="308.71" x2="323.048" y2="312.502"/><line x1="319.256" y1="312.502" x2="323.048" y2="308.71"/>
<line x1="319.709" y1="313.628" x2="323.501" y2="313.628"/><line x1="321.605" y1="311.732" x2="321.605" y2="315.525"/><line x1="319.709" y1="311.732" x2="323.501" y2="315.525"/><line x1="319.709" y1="315.525" x2="323.501" y2="311.732"/>
<line x1="320.162" y1="298.49" x2="323.954" y2="298.49"/><line x1="322.058" y1="296.594" x2="322.058" y2="300.386"/><line x1="320.162" y1="296.594" x2="323.954" y2="300.386"/><line x1="320.162" y1="300.386" x2="323.954" y2="296.594"/>
<line x1="320.616" y1="294.098" x2="324.408" y2="294.098"/><line x1="322.512" y1="292.202" x2="322.512" y2="295.994"/><line x1="320.616" y1="292.202" x2="324.408" y2="295.994"/><line x1="320.616" y1="295.994" x2="324.408" y2="292.202"/>
<line x1="321.069" y1="290.197" x2="324.861" y2="290.197"/><line x1="322.965" y1="288.301" x2="322.965" y2="292.093"/><line x1="321.069" y1="288.301" x2="324.861" y2="292.093"/><line x1="321.069" y1="292.093" x2="324.861" y2="288.301"/>
<line x1="321.522" y1="287.694" x2="325.314" y2="287.694"/><line x1="323.418" y1="285.798" x2="323.418" y2="289.59"/><line x1="321.522" y1="285.798" x2="325.314" y2="289.59"/><line x1="321.522" y1="289.59" x2="325.314" y2="285.798"/>
<line x1="321.975" y1="284.833" x2="325.767" y2="284.833"/><line x1="323.871" y1="282.937" x2="323.871" y2="286.73"/><line x1="321.975" y1="282.937" x2="325.767" y2="286.73"/><line x1="321.975" y1="286.73" x2="325.767" y2="282.937"/>
<line x1="322.428" y1="270.68" x2="326.221" y2="270.68"/><line x1="324.325" y1="268.784" x2="324.325" y2="272.576"/><line x1="322.428" y1="268.784" x2="326.221" y2="272.576"/><line x1="322.428" y1="272.576" x2="326.221" y2="268.784"/>
<line x1="322.882" y1="274.794" x2="326.674" y2="274.794"/><line x1="324.778" y1="272.898" x2="324.778" y2="276.69"/><line x1="322.882" y1="272.898" x2="326.674" y2="276.69"/><line x1="322.882" y1="276.69" x2="326.674" y2="272.898"/>
<line x1="323.335" y1="287.983" x2="327.127" y2="287.983"/><line x1="325.231" y1="286.086" x2="325.231" y2="289.879"/><line x1="323.335" y1="286.086" x2="327.127" y2="289.879"/><line x1="323.335" y1="289.879" x2="327.127" y2="286.086"/>
<line x1="323.788" y1="286.462" x2="327.58" y2="286.462"/><line x1="325.684" y1="284.566" x2="325.684" y2="288.358"/><line x1="323.788" y1="284.566" x2="327.58" y2="288.358"/><line x1="323.788" y1="288.358" x2="327.58" y2="284.566"/>
<line x1="324.241" y1="285.125" x2="328.034" y2="285.125"/><line x1="326.137" y1="283.229" x2="326.137" y2="287.021"/><line x1="324.241" y1="283.229" x2="328.034" y2="287.021"/><line x1="324.241" y1="287.021" x2="328.034" y2="283.229"/>
<line x1="324.695" y1="275.665" x2="328.487" y2="275.665"/><line x1="326.591" y1="273.769" x2="326.591" y2="277.561"/><line x1="324.695" y1="273.769" x2="328.487" y2="277.561"/><line x1="324.695" y1="277.561" x2="328.487" y2="273.769"/>
<line x1="325.148" y1="264.836" x2="328.94" y2="264.836"/><line x1="327.044" y1="262.94" x2="327.044" y2="266.732"/><line x1="325.148" y1="262.94" x2="328.94" y2="266.732"/><line x1="325.148" y1="266.732" x2="328.94" y2="262.94"/>
<line x1="325.601" y1="257.875" x2="329.393" y2="257.875"/><line x1="327.497" y1="255.979" x2="327.497" y2="259.771"/><line x1="325.601" y1="255.979" x2="329.393" y2="259.771"/><line x1="325.601" y1="259.771" x2="329.393" y2="255.979"/>
<line x1="326.054" y1="250.194" x2="329.846" y2="250.194"/><line x1="327.95" y1="248.298" x2="327.95" y2="252.09"/><line x1="326.054" y1="248.298" x2="329.846" y2="252.09"/><line x1="326.054" y1="252.09" x2="329.846" y2="248.298"/>
<line x1="326.508" y1="252.158" x2="330.3" y2="252.158"/><line x1="328.404" y1="250.262" x2="328.404" y2="254.054"/><line x1="326.508" y1="250.262" x2="330.3" y2="254.054"/><line x1="326.508" y1="254.054" x2="330.3" y2="250.262"/>
<line x1="326.961" y1="259.542" x2="330.753" y2="259.542"/><line x1="328.857" y1="257.646" x2="328.857" y2="261.438"/><line x1="326.961" y1="257.646" x2="330.753" y2="261.438"/><line x1="326.961" y1="261.438" x2="330.753" y2="257.646"/>
<line x1="327.414" y1="260.85" x2="331.206" y2="260.85"/><line x1="329.31" y1="258.954" x2="329.31" y2="262.746"/><line x1="327.414" y1="258.954" x2="331.206" y2="262.746"/><line x1="327.414" y1="262.746" x2="331.206" y2="258.954"/>
<line x1="327.867" y1="265.991" x2="331.659" y2="265.991"/><line x1="329.763" y1="264.095" x2="329.763" y2="267.887"/><line x1="327.867" y1="264.095" x2="331.659" y2="267.887"/><line x1="327.867" y1="267.887" x2="331.659" y2="264.095"/>
<line x1="328.32" y1="254.885" x2="332.113" y2="254.885"/><line x1="330.216" y1="252.989" x2="330.216" y2="256.782"/><line x1="328.32" y1="252.989" x2="332.113" y2="256.782"/><line x1="328.32" y1="256.782" x2="332.113" y2="252.989"/>
<line x1="328.774" y1="252.161" x2="332.566" y2="252.161"/><line x1="330.67" y1="250.264" x2="330.67" y2="254.057"/><line x1="328.774" y1="250.264" x2="332.566" y2="254.057"/><line x1="328.774" y1="254.057" x2="332.566" y2="250.264"/>
<line x1="329.227" y1="248.284" x2="333.019" y2="248.284"/><line x1="331.123" y1="246.388" x2="331.123" y2="250.18"/><line x1="329.227" y1="246.388" x2="333.019" y2="250.18"/><line x1="329.227" y1="250.18" x2="333.019" y2="246.388"/>
<line x1="329.68" y1="246.632" x2="333.472" y2="246.632"/><line x1="331.576" y1="244.736" x2="331.576" y2="248.528"/><line x1="329.68" y1="244.736" x2="333.472" y2="248.528"/><line x1="329.68" y1="248.528" x2="333.472" y2="244.736"/>
<line x1="330.133" y1="245.738" x2="333.925" y2="245.738"/><line x1="332.029" y1="243.842" x2="332.029" y2="247.634"/><line x1="330.133" y1="243.842" x2="333.925" y2="247.634"/><line x1="330.133" y1="247.634" x2="333.925" y2="243.842"/>
<line x1="330.587" y1="241.123" x2="334.379" y2="241.123"/><line x1="332.483" y1="239.227" x2="332.483" y2="243.019"/><line x1="330.587" y1="239.227" x2="334.379" y2="243.019"/><line x1="330.587" y1="243.019" x2="334.379" y2="239.227"/>
<line x1="331.04" y1="245.458" x2="334.832" y2="245.458"/><line x1="332.936" y1="243.562" x2="332.936" y2="247.355"/><line x1="331.04" y1="243.562" x2="334.832" y2="247.355"/><line x1="331.04" y1="247.355" x2="334.832" y2="243.562"/>
<line x1="331.493" y1="245.565" x2="335.285" y2="245.565"/><line x1="333.389" y1="243.669" x2="333.389" y2="247.461"/><line x1="331.493" y1="243.669" x2="335.285" y2="247.461"/><line x1="331.493" y1="247.461" x2="335.285" y2="243.669"/>
<line x1="331.946" y1="251.59" x2="335.738" y2="251.59"/><line x1="333.842" y1="249.694" x2="333.842" y2="253.486"/><line x1="331.946" y1="249.694" x2="335.738" y2="253.486"/><line x1="331.946" y1="253.486" x2="335.738" y2="249.694"/>
<line x1="332.399" y1="261.806" x2="336.192" y2="261.806"/><line x1="334.296" y1="259.91" x2="334.296" y2="263.702"/><line x1="332.399" y1="259.91" x2="336.192" y2="263.702"/><line x1="332.399" y1="263.702" x2="336.192" y2="259.91"/>
<line x1="332.853" y1="268.499" x2="336.645" y2="268.499"/><line x1="334.749" y1="266.603" x2="334.749" y2="270.395"/><line x1="332.853" y1="266.603" x2="336.645" y2="270.395"/><line x1="332.853" y1="270.395" x2="336.645" y2="266.603"/>
<line x1="333.306" y1="282.257" x2="337.098" y2="282.257"/><line x1="335.202" y1="280.361" x2="335.202" y2="284.153"/><line x1="333.306" y1="280.361" x2="337.098" y2="284.153"/><line x1="333.306" y1="284.153" x2="337.098" y2="280.361"/>
<line x1="333.759" y1="283.618" x2="337.551" y2="283.618"/><line x1="335.655" y1="281.722" x2="335.655" y2="285.515"/><line x1="333.759" y1="281.722" x2="337.551" y2="285.515"/><line x1="333.759" y1="285.515" x2="337.551" y2="281.722"/>
<line x1="334.212" y1="285.998" x2="338.005" y2="285.998"/><line x1="336.108" y1="284.102" x2="336.108" y2="287.894"/><line x1="334.212" y1="284.102" x2="338.005" y2="287.894"/><line x1="334.212" y1="287.894" x2="338.005" y2="284.102"/>
<line x1="334.666" y1="273.617" x2="338.458" y2="273.617"/><line x1="336.562" y1="271.721" x2="336.562" y2="275.513"/><line x1="334.666" y1="271.721" x2="338.458" y2="275.513"/><line x1="334.666" y1="275.513" x2="338.458" y2="271.721"/>
<line x1="335.119" y1="268.259" x2="338.911" y2="268.259"/><line x1="337.015" y1="266.363" x2="337.015" y2="270.156"/><line x1="335.119" y1="266.363" x2="338.911" y2="270.156"/><line x1="335.119" y1="270.156" x2="338.911" y2="266.363"/>
<line x1="335.572" y1="263.864" x2="339.364" y2="263.864"/><line x1="337.468" y1="261.967" x2="337.468" y2="265.76"/><line x1="335.572" y1="261.967" x2="339.364" y2="265.76"/><line x1="335.572" y1="265.76" x2="339.364" y2="261.967"/>
<line x1="336.025" y1="260.297" x2="339.817" y2="260.297"/><line x1="337.921" y1="258.401" x2="337.921" y2="262.193"/><line x1="336.025" y1="258.401" x2="339.817" y2="262.193"/><line x1="336.025" y1="262.193" x2="339.817" y2="258.401"/>
<line x1="336.478" y1="259.517" x2="340.271" y2="259.517"/><line x1="338.375" y1="257.621" x2="338.375" y2="261.413"/><line x1="336.478" y1="257.621" x2="340.271" y2="261.413"/><line x1="336.478" y1="261.413" x2="340.271" y2="257.621"/>
<line x1="336.932" y1="252.708" x2="340.724" y2="252.708"/><line x1="338.828" y1="250.812" x2="338.828" y2="254.604"/><line x1="336.932" y1="250.812" x2="340.724" y2="254.604"/><line x1="336.932" y1="254.604" x2="340.724" y2="250.812"/>
<line x1="337.385" y1="241.122" x2="341.177" y2="241.122"/><line x1="339.281" y1="239.226" x2="339.281" y2="243.018"/><line x1="337.385" y1="239.226" x2="341.177" y2="243.018"/><line x1="337.385" y1="243.018" x2="341.177" y2="239.226"/>
<line x1="337.838" y1="238.719" x2="341.63" y2="238.719"/><line x1="339.734" y1="236.823" x2="339.734" y2="240.615"/><line x1="337.838" y1="236.823" x2="341.63" y2="240.615"/><line x1="337.838" y1="240.615" x2="341.63" y2="236.823"/>
<line x1="338.291" y1="237.231" x2="342.084" y2="237.231"/><line x1="340.187" y1="235.335" x2="340.187" y2="239.128"/><line x1="338.291" y1="235.335" x2="342.084" y2="239.128"/><line x1="338.291" y1="239.128" x2="342.084" y2="235.335"/>
<line x1="338.745" y1="237.873" x2="342.537" y2="237.873"/><line x1="340.641" y1="235.977" x2="340.641" y2="239.769"/><line x1="338.745" y1="235.977" x2="342.537" y2="239.769"/><line x1="338.745" y1="239.769" x2="342.537" y2="235.977"/>
<line x1="339.198" y1="228.289" x2="342.99" y2="228.289"/><line x1="341.094" y1="226.393" x2="341.094" y2="230.185"/><line x1="339.198" y1="226.393" x2="342.99" y2="230.185"/><line x1="339.198" y1="230.185" x2="342.99" y2="226.393"/>
<line x1="339.651" y1="228.336" x2="343.443" y2="228.336"/><line x1="341.547" y1="226.44" x2="341.547" y2="230.232"/><line x1="339.651" y1="226.44" x2="343.443" y2="230.232"/><line x1="339.651" y1="230.232" x2="343.443" y2="226.44"/>
<line x1="340.104" y1="233.335" x2="343.896" y2="233.335"/><line x1="342" y1="231.439" x2="342" y2="235.231"/><line x1="340.104" y1="231.439" x2="343.896" y2="235.231"/><line x1="340.104" y1="235.231" x2="343.896" y2="231.439"/>
<line x1="340.557" y1="228.805" x2="344.35" y2="228.805"/><line x1="342.454" y1="226.909" x2="342.454" y2="230.701"/><line x1="340.557" y1="226.909" x2="344.35" y2="230.701"/><line x1="340.557" y1="230.701" x2="344.35" y2="226.909"/>
<line x1="341.011" y1="230.668" x2="344.803" y2="230.668"/><line x1="342.907" y1="228.772" x2="342.907" y2="232.564"/><line x1="341.011" y1="228.772" x2="344.803" y2="232.564"/><line x1="341.011" y1="232.564" x2="344.803" y2="228.772"/>
<line x1="341.464" y1="229.437" x2="345.256" y2="229.437"/><line x1="343.36" y1="227.541" x2="343.36" y2="231.333"/><line x1="341.464" y1="227.541" x2="345.256" y2="231.333"/><line x1="341.464" y1="231.333" x2="345.256" y2="227.541"/>
<line x1="341.917" y1="226.476" x2="345.709" y2="226.476"/><line x1="343.813" y1="224.58" x2="343.813" y2="228.372"/><line x1="341.917" y1="224.58" x2="345.709" y2="228.372"/><line x1="341.917" y1="228.372" x2="345.709" y2="224.58"/>
<line x1="342.37" y1="213.02" x2="346.163" y2="213.02"/><line x1="344.267" y1="211.124" x2="344.267" y2="214.916"/><line x1="342.37" y1="211.124" x2="346.163" y2="214.916"/><line x1="342.37" y1="214.916" x2="346.163" y2="211.124"/>
<line x1="342.824" y1="205.909" x2="346.616" y2="205.909"/><line x1="344.72" y1="204.012" x2="344.72" y2="207.805"/><line x1="342.824" y1="204.012" x2="346.616" y2="207.805"/><line x1="342.824" y1="207.805" x2="346.616" y2="204.012"/>
<line x1="343.277" y1="207.44" x2="347.069" y2="207.44"/><line x1="345.173" y1="205.544" x2="345.173" y2="209.337"/><line x1="343.277" y1="205.544" x2="347.069" y2="209.337"/><line x1="343.277" y1="209.337" x2="347.069" y2="205.544"/>
<line x1="343.73" y1="214.435" x2="347.522" y2="214.435"/><line x1="345.626" y1="212.539" x2="345.626" y2="216.331"/><line x1="343.73" y1="212.539" x2="347.522" y2="216.331"/><line x1="343.73" y1="216.331" x2="347.522" y2="212.539"/>
<line x1="344.183" y1="217.334" x2="347.975" y2="217.334"/><line x1="346.079" y1="215.438" x2="346.079" y2="219.23"/><line x1="344.183" y1="215.438" x2="347.975" y2="219.23"/><line x1="344.183" y1="219.23" x2="347.975" y2="215.438"/>
<line x1="344.637" y1="210.725" x2="348.429" y2="210.725"/><line x1="346.533" y1="208.829" x2="346.533" y2="212.621"/><line x1="344.637" y1="208.829" x2="348.429" y2="212.621"/><line x1="344.637" y1="212.621" x2="348.429" y2="208.829"/>
<line x1="345.09" y1="207.999" x2="348.882" y2="207.999"/><line x1="346.986" y1="206.103" x2="346.986" y2="209.895"/><line x1="345.09" y1="206.103" x2="348.882" y2="209.895"/><line x1="345.09" y1="209.895" x2="348.882" y2="206.103"/>
<line x1="345.543" y1="208.558" x2="349.335" y2="208.558"/><line x1="347.439" y1="206.662" x2="347.439" y2="210.454"/><line x1="345.543" y1="206.662" x2="349.335" y2="210.454"/><line x1="345.543" y1="210.454" x2="349.335" y2="206.662"/>
<line x1="345.996" y1="207.692" x2="349.788" y2="207.692"/><line x1="347.892" y1="205.796" x2="347.892" y2="209.588"/><line x1="345.996" y1="205.796" x2="349.788" y2="209.588"/><line x1="345.996" y1="209.588" x2="349.788" y2="205.796"/>
<line x1="346.449" y1="210.303" x2="350.242" y2="210.303"/><line x1="348.346" y1="208.407" x2="348.346" y2="212.199"/><line x1="346.449" y1="208.407" x2="350.242" y2="212.199"/><line x1="346.449" y1="212.199" x2="350.242" y2="208.407"/>
<line x1="346.903" y1="214.684" x2="350.695" y2="214.684"/><line x1="348.799" y1="212.788" x2="348.799" y2="216.581"/><line x1="346.903" y1="212.788" x2="350.695" y2="216.581"/><line x1="346.903" y1="216.581" x2="350.695" y2="212.788"/>
<line x1="347.356" y1="212.879" x2="351.148" y2="212.879"/><line x1="349.252" y1="210.983" x2="349.252" y2="214.775"/><line x1="347.356" y1="210.983" x2="351.148" y2="214.775"/><line x1="347.356" y1="214.775" x2="351.148" y2="210.983"/>
<line x1="347.809" y1="211.93" x2="351.601" y2="211.93"/><line x1="349.705" y1="210.034" x2="349.705" y2="213.826"/><line x1="347.809" y1="210.034" x2="351.601" y2="213.826"/><line x1="347.809" y1="213.826" x2="351.601" y2="210.034"/>
<line x1="348.262" y1="211.358" x2="352.055" y2="211.358"/><line x1="350.158" y1="209.462" x2="350.158" y2="213.254"/><line x1="348.262" y1="209.462" x2="352.055" y2="213.254"/><line x1="348.262" y1="213.254" x2="352.055" y2="209.462"/>
<line x1="348.716" y1="214.077" x2="352.508" y2="214.077"/><line x1="350.612" y1="212.181" x2="350.612" y2="215.973"/><line x1="348.716" y1="212.181" x2="352.508" y2="215.973"/><line x1="348.716" y1="215.973" x2="352.508" y2="212.181"/>
<line x1="349.169" y1="210.434" x2="352.961" y2="210.434"/><line x1="351.065" y1="208.538" x2="351.065" y2="212.33"/><line x1="349.169" y1="208.538" x2="352.961" y2="212.33"/><line x1="349.169" y1="212.33" x2="352.961" y2="208.538"/>
<line x1="349.622" y1="206.418" x2="353.414" y2="206.418"/><line x1="351.518" y1="204.522" x2="351.518" y2="208.314"/><line x1="349.622" y1="204.522" x2="353.414" y2="208.314"/><line x1="349.622" y1="208.314" x2="353.414" y2="204.522"/>
<line x1="350.075" y1="194.24" x2="353.867" y2="194.24"/><line x1="351.971" y1="192.343" x2="351.971" y2="196.136"/><line x1="350.075" y1="192.343" x2="353.867" y2="196.136"/><line x1="350.075" y1="196.136" x2="353.867" y2="192.343"/>
<line x1="350.528" y1="184.404" x2="354.321" y2="184.404"/><line x1="352.425" y1="182.508" x2="352.425" y2="186.3"/><line x1="350.528" y1="182.508" x2="354.321" y2="186.3"/><line x1="350.528" y1="186.3" x2="354.321" y2="182.508"/>
<line x1="350.982" y1="189.764" x2="354.774" y2="189.764"/><line x1="352.878" y1="187.868" x2="352.878" y2="191.66"/><line x1="350.982" y1="187.868" x2="354.774" y2="191.66"/><line x1="350.982" y1="191.66" x2="354.774" y2="187.868"/>
<line x1="351.435" y1="181.166" x2="355.227" y2="181.166"/><line x1="353.331" y1="179.27" x2="353.331" y2="183.062"/><line x1="351.435" y1="179.27" x2="355.227" y2="183.062"/><line x1="351.435" y1="183.062" x2="355.227" y2="179.27"/>
<line x1="351.888" y1="186.685" x2="355.68" y2="186.685"/><line x1="353.784" y1="184.789" x2="353.784" y2="188.581"/><line x1="351.888" y1="184.789" x2="355.68" y2="188.581"/><line x1="351.888" y1="188.581" x2="355.68" y2="184.789"/>
<line x1="352.341" y1="186.536" x2="356.134" y2="186.536"/><line x1="354.237" y1="184.64" x2="354.237" y2="188.432"/><line x1="352.341" y1="184.64" x2="356.134" y2="188.432"/><line x1="352.341" y1="188.432" x2="356.134" y2="184.64"/>
<line x1="352.795" y1="183.896" x2="356.587" y2="183.896"/><line x1="354.691" y1="182" x2="354.691" y2="185.792"/><line x1="352.795" y1="182" x2="356.587" y2="185.792"/><line x1="352.795" y1="185.792" x2="356.587" y2="182"/>
<line x1="353.248" y1="188.768" x2="357.04" y2="188.768"/><line x1="355.144" y1="186.872" x2="355.144" y2="190.664"/><line x1="353.248" y1="186.872" x2="357.04" y2="190.664"/><line x1="353.248" y1="190.664" x2="357.04" y2="186.872"/>
<line x1="353.701" y1="183.488" x2="357.493" y2="183.488"/><line x1="355.597" y1="181.592" x2="355.597" y2="185.384"/><line x1="353.701" y1="181.592" x2="357.493" y2="185.384"/><line x1="353.701" y1="185.384" x2="357.493" y2="181.592"/>
<line x1="354.154" y1="177.369" x2="357.946" y2="177.369"/><line x1="356.05" y1="175.473" x2="356.05" y2="179.265"/><line x1="354.154" y1="175.473" x2="357.946" y2="179.265"/><line x1="354.154" y1="179.265" x2="357.946" y2="175.473"/>
<line x1="354.608" y1="168.581" x2="358.4" y2="168.581"/><line x1="356.504" y1="166.685" x2="356.504" y2="170.477"/><line x1="354.608" y1="166.685" x2="358.4" y2="170.477"/><line x1="354.608" y1="170.477" x2="358.4" y2="166.685"/>
<line x1="355.061" y1="172.842" x2="358.853" y2="172.842"/><line x1="356.957" y1="170.946" x2="356.957" y2="174.738"/><line x1="355.061" y1="170.946" x2="358.853" y2="174.738"/><line x1="355.061" y1="174.738" x2="358.853" y2="170.946"/>
<line x1="355.514" y1="165.468" x2="359.306" y2="165.468"/><line x1="357.41" y1="163.572" x2="357.41" y2="167.365"/><line x1="355.514" y1="163.572" x2="359.306" y2="167.365"/><line x1="355.514" y1="167.365" x2="359.306" y2="163.572"/>
<line x1="355.967" y1="156.353" x2="359.759" y2="156.353"/><line x1="357.863" y1="154.456" x2="357.863" y2="158.249"/><line x1="355.967" y1="154.456" x2="359.759" y2="158.249"/><line x1="355.967" y1="158.249" x2="359.759" y2="154.456"/>
<line x1="356.42" y1="157.078" x2="360.213" y2="157.078"/><line x1="358.316" y1="155.181" x2="358.316" y2="158.974"/><line x1="356.42" y1="155.181" x2="360.213" y2="158.974"/><line x1="356.42" y1="158.974" x2="360.213" y2="155.181"/>
<line x1="356.874" y1="154.302" x2="360.666" y2="154.302"/><line x1="358.77" y1="152.406" x2="358.77" y2="156.198"/><line x1="356.874" y1="152.406" x2="360.666" y2="156.198"/><line x1="356.874" y1="156.198" x2="360.666" y2="152.406"/>
<line x1="357.327" y1="142.666" x2="361.119" y2="142.666"/><line x1="359.223" y1="140.77" x2="359.223" y2="144.562"/><line x1="357.327" y1="140.77" x2="361.119" y2="144.562"/><line x1="357.327" y1="144.562" x2="361.119" y2="140.77"/>
<line x1="357.78" y1="136.991" x2="361.572" y2="136.991"/><line x1="359.676" y1="135.095" x2="359.676" y2="138.887"/><line x1="357.78" y1="135.095" x2="361.572" y2="138.887"/><line x1="357.78" y1="138.887" x2="361.572" y2="135.095"/>
<line x1="358.233" y1="135.69" x2="362.025" y2="135.69"/><line x1="360.129" y1="133.794" x2="360.129" y2="137.586"/><line x1="358.233" y1="133.794" x2="362.025" y2="137.586"/><line x1="358.233" y1="137.586" x2="362.025" y2="133.794"/>
<line x1="358.687" y1="139.992" x2="362.479" y2="139.992"/><line x1="360.583" y1="138.096" x2="360.583" y2="141.888"/><line x1="358.687" y1="138.096" x2="362.479" y2="141.888"/><line x1="358.687" y1="141.888" x2="362.479" y2="138.096"/>
<line x1="359.14" y1="137.484" x2="362.932" y2="137.484"/><line x1="361.036" y1="135.588" x2="361.036" y2="139.38"/><line x1="359.14" y1="135.588" x2="362.932" y2="139.38"/><line x1="359.14" y1="139.38" x2="362.932" y2="135.588"/>
<line x1="359.593" y1="130.369" x2="363.385" y2="130.369"/><line x1="361.489" y1="128.473" x2="361.489" y2="132.265"/><line x1="359.593" y1="128.473" x2="363.385" y2="132.265"/><line x1="359.593" y1="132.265" x2="363.385" y2="128.473"/>
<line x1="360.046" y1="125.272" x2="363.838" y2="125.272"/><line x1="361.942" y1="123.376" x2="361.942" y2="127.168"/><line x1="360.046" y1="123.376" x2="363.838" y2="127.168"/><line x1="360.046" y1="127.168" x2="363.838" y2="123.376"/>
<line x1="360.499" y1="129.649" x2="364.292" y2="129.649"/><line x1="362.396" y1="127.753" x2="362.396" y2="131.545"/><line x1="360.499" y1="127.753" x2="364.292" y2="131.545"/><line x1="360.499" y1="131.545" x2="364.292" y2="127.753"/>
<line x1="360.953" y1="125.145" x2="364.745" y2="125.145"/><line x1="362.849" y1="123.249" x2="362.849" y2="127.041"/><line x1="360.953" y1="123.249" x2="364.745" y2="127.041"/><line x1="360.953" y1="127.041" x2="364.745" y2="123.249"/>
<line x1="361.406" y1="128.876" x2="365.198" y2="128.876"/><line x1="363.302" y1="126.98" x2="363.302" y2="130.773"/><line x1="361.406" y1="126.98" x2="365.198" y2="130.773"/><line x1="361.406" y1="130.773" x2="365.198" y2="126.98"/>
<line x1="361.859" y1="130.468" x2="365.651" y2="130.468"/><line x1="363.755" y1="128.571" x2="363.755" y2="132.364"/><line x1="361.859" y1="128.571" x2="365.651" y2="132.364"/><line x1="361.859" y1="132.364" x2="365.651" y2="128.571"/>
<line x1="362.312" y1="130.509" x2="366.105" y2="130.509"/><line x1="364.208" y1="128.612" x2="364.208" y2="132.405"/><line x1="362.312" y1="128.612" x2="366.105" y2="132.405"/><line x1="362.312" y1="132.405" x2="366.105" y2="128.612"/>
<line x1="362.766" y1="131.414" x2="366.558" y2="131.414"/><line x1="364.662" y1="129.518" x2="364.662" y2="133.31"/><line x1="362.766" y1="129.518" x2="366.558" y2="133.31"/><line x1="362.766" y1="133.31" x2="366.558" y2="129.518"/>
<line x1="363.219" y1="128.2" x2="367.011" y2="128.2"/><line x1="365.115" y1="126.304" x2="365.115" y2="130.096"/><line x1="363.219" y1="126.304" x2="367.011" y2="130.096"/><line x1="363.219" y1="130.096" x2="367.011" y2="126.304"/>
<line x1="363.672" y1="136.499" x2="367.464" y2="136.499"/><line x1="365.568" y1="134.602" x2="365.568" y2="138.395"/><line x1="363.672" y1="134.602" x2="367.464" y2="138.395"/><line x1="363.672" y1="138.395" x2="367.464" y2="134.602"/>
<line x1="364.125" y1="132.526" x2="367.917" y2="132.526"/><line x1="366.021" y1="130.63" x2="366.021" y2="134.422"/><line x1="364.125" y1="130.63" x2="367.917" y2="134.422"/><line x1="364.125" y1="134.422" x2="367.917" y2="130.63"/>
<line x1="364.578" y1="136.159" x2="368.371" y2="136.159"/><line x1="366.475" y1="134.263" x2="366.475" y2="138.055"/><line x1="364.578" y1="134.263" x2="368.371" y2="138.055"/><line x1="364.578" y1="138.055" x2="368.371" y2="134.263"/>
<line x1="365.032" y1="124.813" x2="368.824" y2="124.813"/><line x1="366.928" y1="122.917" x2="366.928" y2="126.709"/><line x1="365.032" y1="122.917" x2="368.824" y2="126.709"/><line x1="365.032" y1="126.709" x2="368.824" y2="122.917"/>
<line x1="365.485" y1="125.299" x2="369.277" y2="125.299"/><line x1="367.381" y1="123.403" x2="367.381" y2="127.195"/><line x1="365.485" y1="123.403" x2="369.277" y2="127.195"/><line x1="365.485" y1="127.195" x2="369.277" y2="123.403"/>
<line x1="365.938" y1="123.248" x2="369.73" y2="123.248"/><line x1="367.834" y1="121.352" x2="367.834" y2="125.144"/><line x1="365.938" y1="121.352" x2="369.73" y2="125.144"/><line x1="365.938" y1="125.144" x2="369.73" y2="121.352"/>
<line x1="366.391" y1="121.506" x2="370.184" y2="121.506"/><line x1="368.287" y1="119.61" x2="368.287" y2="123.402"/><line x1="366.391" y1="119.61" x2="370.184" y2="123.402"/><line x1="366.391" y1="123.402" x2="370.184" y2="119.61"/>
<line x1="366.845" y1="112.432" x2="370.637" y2="112.432"/><line x1="368.741" y1="110.536" x2="368.741" y2="114.328"/><line x1="366.845" y1="110.536" x2="370.637" y2="114.328"/><line x1="366.845" y1="114.328" x2="370.637" y2="110.536"/>
<line x1="367.298" y1="110.758" x2="371.09" y2="110.758"/><line x1="369.194" y1="108.862" x2="369.194" y2="112.654"/><line x1="367.298" y1="108.862" x2="371.09" y2="112.654"/><line x1="367.298" y1="112.654" x2="371.09" y2="108.862"/>
<line x1="367.751" y1="109.77" x2="371.543" y2="109.77"/><line x1="369.647" y1="107.874" x2="369.647" y2="111.667"/><line x1="367.751" y1="107.874" x2="371.543" y2="111.667"/><line x1="367.751" y1="111.667" x2="371.543" y2="107.874"/>
<line x1="368.204" y1="107.892" x2="371.996" y2="107.892"/><line x1="370.1" y1="105.996" x2="370.1" y2="109.789"/><line x1="368.204" y1="105.996" x2="371.996" y2="109.789"/><line x1="368.204" y1="109.789" x2="371.996" y2="105.996"/>
<line x1="368.658" y1="114.623" x2="372.45" y2="114.623"/><line x1="370.554" y1="112.727" x2="370.554" y2="116.519"/><line x1="368.658" y1="112.727" x2="372.45" y2="116.519"/><line x1="368.658" y1="116.519" x2="372.45" y2="112.727"/>
<line x1="369.111" y1="115.16" x2="372.903" y2="115.16"/><line x1="371.007" y1="113.264" x2="371.007" y2="117.056"/><line x1="369.111" y1="113.264" x2="372.903" y2="117.056"/><line x1="369.111" y1="117.056" x2="372.903" y2="113.264"/>
<line x1="369.564" y1="105.975" x2="373.356" y2="105.975"/><line x1="371.46" y1="104.079" x2="371.46" y2="107.871"/><line x1="369.564" y1="104.079" x2="373.356" y2="107.871"/><line x1="369.564" y1="107.871" x2="373.356" y2="104.079"/>
<line x1="370.017" y1="98.8818" x2="373.809" y2="98.8818"/><line x1="371.913" y1="96.9857" x2="371.913" y2="100.778"/><line x1="370.017" y1="96.9857" x2="373.809" y2="100.778"/><line x1="370.017" y1="100.778" x2="373.809" y2="96.9857"/>
<line x1="370.47" y1="95.1861" x2="374.263" y2="95.1861"/><line x1="372.367" y1="93.2901" x2="372.367" y2="97.0822"/><line x1="370.47" y1="93.2901" x2="374.263" y2="97.0822"/><line x1="370.47" y1="97.0822" x2="374.263" y2="93.2901"/>
<line x1="370.924" y1="91.5876" x2="374.716" y2="91.5876"/><line x1="372.82" y1="89.6915" x2="372.82" y2="93.4837"/><line x1="370.924" y1="89.6915" x2="374.716" y2="93.4837"/><line x1="370.924" y1="93.4837" x2="374.716" y2="89.6915"/>
<line x1="371.377" y1="84.6902" x2="375.169" y2="84.6902"/><line x1="373.273" y1="82.7941" x2="373.273" y2="86.5863"/><line x1="371.377" y1="82.7941" x2="375.169" y2="86.5863"/><line x1="371.377" y1="86.5863" x2="375.169" y2="82.7941"/>
<line x1="371.83" y1="71.213" x2="375.622" y2="71.213"/><line x1="373.726" y1="69.3169" x2="373.726" y2="73.1091"/><line x1="371.83" y1="69.3169" x2="375.622" y2="73.1091"/><line x1="371.83" y1="73.1091" x2="375.622" y2="69.3169"/>
<line x1="372.283" y1="74.2375" x2="376.076" y2="74.2375"/><line x1="374.179" y1="72.3414" x2="374.179" y2="76.1336"/><line x1="372.283" y1="72.3414" x2="376.076" y2="76.1336"/><line x1="372.283" y1="76.1336" x2="376.076" y2="72.3414"/>
<line x1="372.737" y1="61.3353" x2="376.529" y2="61.3353"/><line x1="374.633" y1="59.4392" x2="374.633" y2="63.2313"/><line x1="372.737" y1="59.4392" x2="376.529" y2="63.2313"/><line x1="372.737" y1="63.2313" x2="376.529" y2="59.4392"/>
<line x1="373.19" y1="59.5764" x2="376.982" y2="59.5764"/><line x1="375.086" y1="57.6803" x2="375.086" y2="61.4725"/><line x1="373.19" y1="57.6803" x2="376.982" y2="61.4725"/><line x1="373.19" y1="61.4725" x2="376.982" y2="57.6803"/>
<line x1="373.643" y1="53.0584" x2="377.435" y2="53.0584"/><line x1="375.539" y1="51.1623" x2="375.539" y2="54.9545"/><line x1="373.643" y1="51.1623" x2="377.435" y2="54.9545"/><line x1="373.643" y1="54.9545" x2="377.435" y2="51.1623"/>
<line x1="374.096" y1="61.9932" x2="377.888" y2="61.9932"/><line x1="375.992" y1="60.0971" x2="375.992" y2="63.8892"/><line x1="374.096" y1="60.0971" x2="377.888" y2="63.8892"/><line x1="374.096" y1="63.8892" x2="377.888" y2="60.0971"/>
<line x1="374.549" y1="51.737" x2="378.342" y2="51.737"/><line x1="376.446" y1="49.8409" x2="376.446" y2="53.6331"/><line x1="374.549" y1="49.8409" x2="378.342" y2="53.6331"/><line x1="374.549" y1="53.6331" x2="378.342" y2="49.8409"/>
<line x1="375.003" y1="53.714" x2="378.795" y2="53.714"/><line x1="376.899" y1="51.8179" x2="376.899" y2="55.6101"/><line x1="375.003" y1="51.8179" x2="378.795" y2="55.6101"/><line x1="375.003" y1="55.6101" x2="378.795" y2="51.8179"/>
<line x1="375.456" y1="48.6392" x2="379.248" y2="48.6392"/><line x1="377.352" y1="46.7431" x2="377.352" y2="50.5353"/><line x1="375.456" y1="46.7431" x2="379.248" y2="50.5353"/><line x1="375.456" y1="50.5353" x2="379.248" y2="46.7431"/>
<line x1="375.909" y1="47.3896" x2="379.701" y2="47.3896"/><line x1="377.805" y1="45.4935" x2="377.805" y2="49.2857"/><line x1="375.909" y1="45.4935" x2="379.701" y2="49.2857"/><line x1="375.909" y1="49.2857" x2="379.701" y2="45.4935"/>
<line x1="376.362" y1="45.1015" x2="380.155" y2="45.1015"/><line x1="378.258" y1="43.2054" x2="378.258" y2="46.9976"/><line x1="376.362" y1="43.2054" x2="380.155" y2="46.9976"/><line x1="376.362" y1="46.9976" x2="380.155" y2="43.2054"/>
<line x1="376.816" y1="43.4381" x2="380.608" y2="43.4381"/><line x1="378.712" y1="41.542" x2="378.712" y2="45.3342"/><line x1="376.816" y1="41.542" x2="380.608" y2="45.3342"/><line x1="376.816" y1="45.3342" x2="380.608" y2="41.542"/>
<line x1="377.269" y1="46.5383" x2="381.061" y2="46.5383"/><line x1="379.165" y1="44.6422" x2="379.165" y2="48.4344"/><line x1="377.269" y1="44.6422" x2="381.061" y2="48.4344"/><line x1="377.269" y1="48.4344" x2="381.061" y2="44.6422"/>
</g>
<path d="M170.681,353.116h 226.613" fill="none" stroke="#0000ff"/>
<path d="M283.987,372.012v -47.2396" fill="none" stroke="#ff0000"/>
<rect x="57.1929" y="330.677" width="113.386" height="41.3346" fill="white"/>
<path d="M57.1929,372.012h 113.386" fill="none" stroke="black"/>
<path d="M170.579,372.012v -41.3346" fill="none" stroke="black"/>
<path d="M170.579,330.677h -113.386" fill="none" stroke="black"/>
<path d="M57.1929,330.677v 41.3346" fill="none" stroke="black"/>
<text xml:space="preserve" x="85.3498" y="354.568" fill="black" font-size="12.0704" font-family="Helvetica">#p.e of PMTs0</text>
<path d="M61.4449,351.344h 19.8425" fill="none" stroke="black"/></svg>
