<?xml version="1.0" standalone="no"?>
<svg width="567.429" height="413.846" viewBox="0 0 567.429 413.846" xmlns="http://www.w3.org/2000/svg" shape-rendering="crispEdges">
<title>
figures/chi2_7PMTnpedata190929-01.svg
</title>
<desc>
Creator: ROOT Version 6.18/02
CreationDate: Sun Sep 29 21:06:43 2019</desc>
<defs>
</defs>
<rect x="0.5" y="0" width="566.929" height="413.346" fill="white"/>
<rect x="57.1929" y="41.3346" width="453.543" height="330.677" fill="white"/>
<rect x="57.1929" y="41.3346" width="453.543" height="330.677" fill="none" stroke="black"/>
<path d="M57.1929,372.012h 453.543" fill="none" stroke="black"/>
<path d="M92.0868,41.3346v 330.677" fill="none" stroke="black" stroke-dasharray=" 1, 2"/>
<path d="M137.355,41.3346v 330.677" fill="none" stroke="black" stroke-dasharray=" 1, 2"/>
<path d="M182.623,41.3346v 330.677" fill="none" stroke="black" stroke-dasharray=" 1, 2"/>
<path d="M227.892,41.3346v 330.677" fill="none" stroke="black" stroke-dasharray=" 1, 2"/>
<path d="M273.16,41.3346v 330.677" fill="none" stroke="black" stroke-dasharray=" 1, 2"/>
<path d="M318.428,41.3346v 330.677" fill="none" stroke="black" stroke-dasharray=" 1, 2"/>
<path d="M363.697,41.3346v 330.677" fill="none" stroke="black" stroke-dasharray=" 1, 2"/>
<path d="M408.965,41.3346v 330.677" fill="none" stroke="black" stroke-dasharray=" 1, 2"/>
<path d="M454.233,41.3346v 330.677" fill="none" stroke="black" stroke-dasharray=" 1, 2"/>
<path d="M499.502,41.3346v 330.677" fill="none" stroke="black" stroke-dasharray=" 1, 2"/>
<path d="M92.0868,41.3346v 330.677" fill="none" stroke="black" stroke-dasharray=" 1, 2"/>
<path d="M499.502,41.3346v 330.677" fill="none" stroke="black" stroke-dasharray=" 1, 2"/>
<path d="M57.1929,372.012v -330.677" fill="none" stroke="black"/>
<path d="M510.736,350.235h -453.543" fill="none" stroke="black" stroke-dasharray=" 1, 2"/>
<path d="M510.736,287.249h -453.543" fill="none" stroke="black" stroke-dasharray=" 1, 2"/>
<path d="M510.736,224.263h -453.543" fill="none" stroke="black" stroke-dasharray=" 1, 2"/>
<path d="M510.736,161.277h -453.543" fill="none" stroke="black" stroke-dasharray=" 1, 2"/>
<path d="M510.736,98.2911h -453.543" fill="none" stroke="black" stroke-dasharray=" 1, 2"/>
<path d="M510.736,350.235h -453.543" fill="none" stroke="black" stroke-dasharray=" 1, 2"/>
<path d="M510.736,98.2911h -453.543" fill="none" stroke="black" stroke-dasharray=" 1, 2"/>
<path d="M57.1929,372.012h 453.543" fill="none" stroke="black"/>
<path d="M92.0868,362.091v 9.92031" fill="none" stroke="black"/>
<path d="M103.404,367.052v 4.96016" fill="none" stroke="black"/>
<path d="M114.721,367.052v 4.96016" fill="none" stroke="black"/>
<path d="M126.038,367.052v 4.96016" fill="none" stroke="black"/>
<path d="M137.355,362.091v 9.92031" fill="none" stroke="black"/>
<path d="M148.672,367.052v 4.96016" fill="none" stroke="black"/>
<path d="M159.989,367.052v 4.96016" fill="none" stroke="black"/>
<path d="M171.306,367.052v 4.96016" fill="none" stroke="black"/>
<path d="M182.623,362.091v 9.92031" fill="none" stroke="black"/>
<path d="M193.941,367.052v 4.96016" fill="none" stroke="black"/>
<path d="M205.258,367.052v 4.96016" fill="none" stroke="black"/>
<path d="M216.575,367.052v 4.96016" fill="none" stroke="black"/>
<path d="M227.892,362.091v 9.92031" fill="none" stroke="black"/>
<path d="M239.209,367.052v 4.96016" fill="none" stroke="black"/>
<path d="M250.526,367.052v 4.96016" fill="none" stroke="black"/>
<path d="M261.843,367.052v 4.96016" fill="none" stroke="black"/>
<path d="M273.16,362.091v 9.92031" fill="none" stroke="black"/>
<path d="M284.477,367.052v 4.96016" fill="none" stroke="black"/>
<path d="M295.794,367.052v 4.96016" fill="none" stroke="black"/>
<path d="M307.111,367.052v 4.96016" fill="none" stroke="black"/>
<path d="M318.428,362.091v 9.92031" fill="none" stroke="black"/>
<path d="M329.746,367.052v 4.96016" fill="none" stroke="black"/>
<path d="M341.063,367.052v 4.96016" fill="none" stroke="black"/>
<path d="M352.38,367.052v 4.96016" fill="none" stroke="black"/>
<path d="M363.697,362.091v 9.92031" fill="none" stroke="black"/>
<path d="M375.014,367.052v 4.96016" fill="none" stroke="black"/>
<path d="M386.331,367.052v 4.96016" fill="none" stroke="black"/>
<path d="M397.648,367.052v 4.96016" fill="none" stroke="black"/>
<path d="M408.965,362.091v 9.92031" fill="none" stroke="black"/>
<path d="M420.282,367.052v 4.96016" fill="none" stroke="black"/>
<path d="M431.599,367.052v 4.96016" fill="none" stroke="black"/>
<path d="M442.916,367.052v 4.96016" fill="none" stroke="black"/>
<path d="M454.233,362.091v 9.92031" fill="none" stroke="black"/>
<path d="M465.551,367.052v 4.96016" fill="none" stroke="black"/>
<path d="M476.868,367.052v 4.96016" fill="none" stroke="black"/>
<path d="M488.185,367.052v 4.96016" fill="none" stroke="black"/>
<path d="M499.502,362.091v 9.92031" fill="none" stroke="black"/>
<path d="M92.0868,362.091v 9.92031" fill="none" stroke="black"/>
<path d="M80.7697,367.052v 4.96016" fill="none" stroke="black"/>
<path d="M69.4526,367.052v 4.96016" fill="none" stroke="black"/>
<path d="M58.1355,367.052v 4.96016" fill="none" stroke="black"/>
<path d="M499.502,362.091v 9.92031" fill="none" stroke="black"/>
<text xml:space="preserve" x="79.1875" y="385.379" fill="black" font-size="13.7726" font-family="Helvetica">0.78</text>
<text xml:space="preserve" x="128.012" y="385.379" fill="black" font-size="13.7726" font-family="Helvetica">0.8</text>
<text xml:space="preserve" x="169.726" y="385.379" fill="black" font-size="13.7726" font-family="Helvetica">0.82</text>
<text xml:space="preserve" x="214.757" y="385.379" fill="black" font-size="13.7726" font-family="Helvetica">0.84</text>
<text xml:space="preserve" x="260.264" y="385.379" fill="black" font-size="13.7726" font-family="Helvetica">0.86</text>
<text xml:space="preserve" x="305.296" y="385.379" fill="black" font-size="13.7726" font-family="Helvetica">0.88</text>
<text xml:space="preserve" x="354.594" y="385.379" fill="black" font-size="13.7726" font-family="Helvetica">0.9</text>
<text xml:space="preserve" x="395.834" y="385.379" fill="black" font-size="13.7726" font-family="Helvetica">0.92</text>
<text xml:space="preserve" x="441.34" y="385.379" fill="black" font-size="13.7726" font-family="Helvetica">0.94</text>
<text xml:space="preserve" x="486.372" y="385.379" fill="black" font-size="13.7726" font-family="Helvetica">0.96</text>
<text xml:space="preserve" x="413.372" y="400.074" fill="black" font-size="13.7726" font-family="Helvetica">calibration factor</text>
<path d="M57.1929,372.012v -330.677" fill="none" stroke="black"/>
<path d="M70.7992,350.235h -13.6063" fill="none" stroke="black"/>
<path d="M63.9961,334.489h -6.80315" fill="none" stroke="black"/>
<path d="M63.9961,318.742h -6.80315" fill="none" stroke="black"/>
<path d="M63.9961,302.996h -6.80315" fill="none" stroke="black"/>
<path d="M70.7992,287.249h -13.6063" fill="none" stroke="black"/>
<path d="M63.9961,271.503h -6.80315" fill="none" stroke="black"/>
<path d="M63.9961,255.756h -6.80315" fill="none" stroke="black"/>
<path d="M63.9961,240.01h -6.80315" fill="none" stroke="black"/>
<path d="M70.7992,224.263h -13.6063" fill="none" stroke="black"/>
<path d="M63.9961,208.517h -6.80315" fill="none" stroke="black"/>
<path d="M63.9961,192.77h -6.80315" fill="none" stroke="black"/>
<path d="M63.9961,177.024h -6.80315" fill="none" stroke="black"/>
<path d="M70.7992,161.277h -13.6063" fill="none" stroke="black"/>
<path d="M63.9961,145.531h -6.80315" fill="none" stroke="black"/>
<path d="M63.9961,129.784h -6.80315" fill="none" stroke="black"/>
<path d="M63.9961,114.038h -6.80315" fill="none" stroke="black"/>
<path d="M70.7992,98.2911h -13.6063" fill="none" stroke="black"/>
<path d="M70.7992,350.235h -13.6063" fill="none" stroke="black"/>
<path d="M63.9961,365.982h -6.80315" fill="none" stroke="black"/>
<path d="M70.7992,98.2911h -13.6063" fill="none" stroke="black"/>
<path d="M63.9961,82.5445h -6.80315" fill="none" stroke="black"/>
<path d="M63.9961,66.798h -6.80315" fill="none" stroke="black"/>
<path d="M63.9961,51.0515h -6.80315" fill="none" stroke="black"/>
<text xml:space="preserve" x="25.1491" y="354.568" fill="black" font-size="13.7726" font-family="Helvetica">2420</text>
<text xml:space="preserve" x="25.1491" y="291.523" fill="black" font-size="13.7726" font-family="Helvetica">2440</text>
<text xml:space="preserve" x="25.1491" y="228.952" fill="black" font-size="13.7726" font-family="Helvetica">2460</text>
<text xml:space="preserve" x="25.1491" y="165.907" fill="black" font-size="13.7726" font-family="Helvetica">2480</text>
<text xml:space="preserve" x="25.1491" y="102.863" fill="black" font-size="13.7726" font-family="Helvetica">2500</text>
<g transform="rotate(-90,8.08434,45.98)">
<text xml:space="preserve" x="8.08434" y="45.98" fill="black" font-size="9.34839" font-family="Helvetica">2</text>
</g>
<g transform="rotate(-90,12.3505,50.2462)">
<text xml:space="preserve" x="12.3505" y="50.2462" fill="black" font-size="13.7726" font-family="Helvetica"> </text>
</g>
<g transform="rotate(-90,12.3505,57.3565)">
<text xml:space="preserve" x="12.3505" y="57.3565" fill="black" font-size="13.7726" font-family="Times">&#0967;</text>
</g>
<g stroke="black" stroke-width="1" fill="none">
<line x1="219.658" y1="46.5421" x2="223.45" y2="46.5421"/><line x1="221.554" y1="44.646" x2="221.554" y2="48.4382"/><line x1="219.658" y1="44.646" x2="223.45" y2="48.4382"/><line x1="219.658" y1="48.4382" x2="223.45" y2="44.646"/>
<line x1="220.111" y1="42.1225" x2="223.903" y2="42.1225"/><line x1="222.007" y1="40.2264" x2="222.007" y2="44.0185"/><line x1="220.111" y1="40.2264" x2="223.903" y2="44.0185"/><line x1="220.111" y1="44.0185" x2="223.903" y2="40.2264"/>
<line x1="220.563" y1="42.7941" x2="224.356" y2="42.7941"/><line x1="222.46" y1="40.898" x2="222.46" y2="44.6902"/><line x1="220.563" y1="40.898" x2="224.356" y2="44.6902"/><line x1="220.563" y1="44.6902" x2="224.356" y2="40.898"/>
<line x1="221.016" y1="53.113" x2="224.808" y2="53.113"/><line x1="222.912" y1="51.2169" x2="222.912" y2="55.0091"/><line x1="221.016" y1="51.2169" x2="224.808" y2="55.0091"/><line x1="221.016" y1="55.0091" x2="224.808" y2="51.2169"/>
<line x1="221.469" y1="58.0889" x2="225.261" y2="58.0889"/><line x1="223.365" y1="56.1928" x2="223.365" y2="59.9849"/><line x1="221.469" y1="56.1928" x2="225.261" y2="59.9849"/><line x1="221.469" y1="59.9849" x2="225.261" y2="56.1928"/>
<line x1="221.922" y1="56.8217" x2="225.714" y2="56.8217"/><line x1="223.818" y1="54.9256" x2="223.818" y2="58.7178"/><line x1="221.922" y1="54.9256" x2="225.714" y2="58.7178"/><line x1="221.922" y1="58.7178" x2="225.714" y2="54.9256"/>
<line x1="222.374" y1="55.9552" x2="226.166" y2="55.9552"/><line x1="224.27" y1="54.0591" x2="224.27" y2="57.8512"/><line x1="222.374" y1="54.0591" x2="226.166" y2="57.8512"/><line x1="222.374" y1="57.8512" x2="226.166" y2="54.0591"/>
<line x1="222.827" y1="50.9382" x2="226.619" y2="50.9382"/><line x1="224.723" y1="49.0421" x2="224.723" y2="52.8343"/><line x1="222.827" y1="49.0421" x2="226.619" y2="52.8343"/><line x1="222.827" y1="52.8343" x2="226.619" y2="49.0421"/>
<line x1="223.28" y1="52.3422" x2="227.072" y2="52.3422"/><line x1="225.176" y1="50.4461" x2="225.176" y2="54.2383"/><line x1="223.28" y1="50.4461" x2="227.072" y2="54.2383"/><line x1="223.28" y1="54.2383" x2="227.072" y2="50.4461"/>
<line x1="223.732" y1="62.4406" x2="227.524" y2="62.4406"/><line x1="225.628" y1="60.5445" x2="225.628" y2="64.3367"/><line x1="223.732" y1="60.5445" x2="227.524" y2="64.3367"/><line x1="223.732" y1="64.3367" x2="227.524" y2="60.5445"/>
<line x1="224.185" y1="58.4779" x2="227.977" y2="58.4779"/><line x1="226.081" y1="56.5818" x2="226.081" y2="60.374"/><line x1="224.185" y1="56.5818" x2="227.977" y2="60.374"/><line x1="224.185" y1="60.374" x2="227.977" y2="56.5818"/>
<line x1="224.638" y1="69.243" x2="228.43" y2="69.243"/><line x1="226.534" y1="67.3469" x2="226.534" y2="71.1391"/><line x1="224.638" y1="67.3469" x2="228.43" y2="71.1391"/><line x1="224.638" y1="71.1391" x2="228.43" y2="67.3469"/>
<line x1="225.09" y1="79.2533" x2="228.883" y2="79.2533"/><line x1="226.986" y1="77.3572" x2="226.986" y2="81.1494"/><line x1="225.09" y1="77.3572" x2="228.883" y2="81.1494"/><line x1="225.09" y1="81.1494" x2="228.883" y2="77.3572"/>
<line x1="225.543" y1="74.5012" x2="229.335" y2="74.5012"/><line x1="227.439" y1="72.6051" x2="227.439" y2="76.3973"/><line x1="225.543" y1="72.6051" x2="229.335" y2="76.3973"/><line x1="225.543" y1="76.3973" x2="229.335" y2="72.6051"/>
<line x1="225.996" y1="75.2855" x2="229.788" y2="75.2855"/><line x1="227.892" y1="73.3894" x2="227.892" y2="77.1816"/><line x1="225.996" y1="73.3894" x2="229.788" y2="77.1816"/><line x1="225.996" y1="77.1816" x2="229.788" y2="73.3894"/>
<line x1="226.448" y1="77.5166" x2="230.241" y2="77.5166"/><line x1="228.344" y1="75.6205" x2="228.344" y2="79.4127"/><line x1="226.448" y1="75.6205" x2="230.241" y2="79.4127"/><line x1="226.448" y1="79.4127" x2="230.241" y2="75.6205"/>
<line x1="226.901" y1="67.8627" x2="230.693" y2="67.8627"/><line x1="228.797" y1="65.9666" x2="228.797" y2="69.7588"/><line x1="226.901" y1="65.9666" x2="230.693" y2="69.7588"/><line x1="226.901" y1="69.7588" x2="230.693" y2="65.9666"/>
<line x1="227.354" y1="75.0281" x2="231.146" y2="75.0281"/><line x1="229.25" y1="73.132" x2="229.25" y2="76.9242"/><line x1="227.354" y1="73.132" x2="231.146" y2="76.9242"/><line x1="227.354" y1="76.9242" x2="231.146" y2="73.132"/>
<line x1="227.806" y1="86.4488" x2="231.599" y2="86.4488"/><line x1="229.703" y1="84.5528" x2="229.703" y2="88.3449"/><line x1="227.806" y1="84.5528" x2="231.599" y2="88.3449"/><line x1="227.806" y1="88.3449" x2="231.599" y2="84.5528"/>
<line x1="228.259" y1="95.9811" x2="232.051" y2="95.9811"/><line x1="230.155" y1="94.0851" x2="230.155" y2="97.8772"/><line x1="228.259" y1="94.0851" x2="232.051" y2="97.8772"/><line x1="228.259" y1="97.8772" x2="232.051" y2="94.0851"/>
<line x1="228.712" y1="100.684" x2="232.504" y2="100.684"/><line x1="230.608" y1="98.7875" x2="230.608" y2="102.58"/><line x1="228.712" y1="98.7875" x2="232.504" y2="102.58"/><line x1="228.712" y1="102.58" x2="232.504" y2="98.7875"/>
<line x1="229.164" y1="93.8644" x2="232.957" y2="93.8644"/><line x1="231.061" y1="91.9683" x2="231.061" y2="95.7605"/><line x1="229.164" y1="91.9683" x2="232.957" y2="95.7605"/><line x1="229.164" y1="95.7605" x2="232.957" y2="91.9683"/>
<line x1="229.617" y1="91.5327" x2="233.409" y2="91.5327"/><line x1="231.513" y1="89.6366" x2="231.513" y2="93.4288"/><line x1="229.617" y1="89.6366" x2="233.409" y2="93.4288"/><line x1="229.617" y1="93.4288" x2="233.409" y2="89.6366"/>
<line x1="230.07" y1="100.415" x2="233.862" y2="100.415"/><line x1="231.966" y1="98.5188" x2="231.966" y2="102.311"/><line x1="230.07" y1="98.5188" x2="233.862" y2="102.311"/><line x1="230.07" y1="102.311" x2="233.862" y2="98.5188"/>
<line x1="230.523" y1="107.369" x2="234.315" y2="107.369"/><line x1="232.419" y1="105.473" x2="232.419" y2="109.265"/><line x1="230.523" y1="105.473" x2="234.315" y2="109.265"/><line x1="230.523" y1="109.265" x2="234.315" y2="105.473"/>
<line x1="230.975" y1="114.524" x2="234.767" y2="114.524"/><line x1="232.871" y1="112.628" x2="232.871" y2="116.42"/><line x1="230.975" y1="112.628" x2="234.767" y2="116.42"/><line x1="230.975" y1="116.42" x2="234.767" y2="112.628"/>
<line x1="231.428" y1="123.29" x2="235.22" y2="123.29"/><line x1="233.324" y1="121.393" x2="233.324" y2="125.186"/><line x1="231.428" y1="121.393" x2="235.22" y2="125.186"/><line x1="231.428" y1="125.186" x2="235.22" y2="121.393"/>
<line x1="231.881" y1="127.978" x2="235.673" y2="127.978"/><line x1="233.777" y1="126.082" x2="233.777" y2="129.874"/><line x1="231.881" y1="126.082" x2="235.673" y2="129.874"/><line x1="231.881" y1="129.874" x2="235.673" y2="126.082"/>
<line x1="232.333" y1="126.183" x2="236.125" y2="126.183"/><line x1="234.229" y1="124.286" x2="234.229" y2="128.079"/><line x1="232.333" y1="124.286" x2="236.125" y2="128.079"/><line x1="232.333" y1="128.079" x2="236.125" y2="124.286"/>
<line x1="232.786" y1="120.669" x2="236.578" y2="120.669"/><line x1="234.682" y1="118.773" x2="234.682" y2="122.565"/><line x1="232.786" y1="118.773" x2="236.578" y2="122.565"/><line x1="232.786" y1="122.565" x2="236.578" y2="118.773"/>
<line x1="233.239" y1="125.813" x2="237.031" y2="125.813"/><line x1="235.135" y1="123.917" x2="235.135" y2="127.71"/><line x1="233.239" y1="123.917" x2="237.031" y2="127.71"/><line x1="233.239" y1="127.71" x2="237.031" y2="123.917"/>
<line x1="233.691" y1="130.715" x2="237.483" y2="130.715"/><line x1="235.587" y1="128.819" x2="235.587" y2="132.611"/><line x1="233.691" y1="128.819" x2="237.483" y2="132.611"/><line x1="233.691" y1="132.611" x2="237.483" y2="128.819"/>
<line x1="234.144" y1="126.405" x2="237.936" y2="126.405"/><line x1="236.04" y1="124.509" x2="236.04" y2="128.301"/><line x1="234.144" y1="124.509" x2="237.936" y2="128.301"/><line x1="234.144" y1="128.301" x2="237.936" y2="124.509"/>
<line x1="234.597" y1="124.335" x2="238.389" y2="124.335"/><line x1="236.493" y1="122.439" x2="236.493" y2="126.231"/><line x1="234.597" y1="122.439" x2="238.389" y2="126.231"/><line x1="234.597" y1="126.231" x2="238.389" y2="122.439"/>
<line x1="235.049" y1="127.592" x2="238.842" y2="127.592"/><line x1="236.945" y1="125.696" x2="236.945" y2="129.488"/><line x1="235.049" y1="125.696" x2="238.842" y2="129.488"/><line x1="235.049" y1="129.488" x2="238.842" y2="125.696"/>
<line x1="235.502" y1="121.327" x2="239.294" y2="121.327"/><line x1="237.398" y1="119.431" x2="237.398" y2="123.223"/><line x1="235.502" y1="119.431" x2="239.294" y2="123.223"/><line x1="235.502" y1="123.223" x2="239.294" y2="119.431"/>
<line x1="235.955" y1="115.37" x2="239.747" y2="115.37"/><line x1="237.851" y1="113.474" x2="237.851" y2="117.267"/><line x1="235.955" y1="113.474" x2="239.747" y2="117.267"/><line x1="235.955" y1="117.267" x2="239.747" y2="113.474"/>
<line x1="236.407" y1="132.95" x2="240.2" y2="132.95"/><line x1="238.303" y1="131.054" x2="238.303" y2="134.846"/><line x1="236.407" y1="131.054" x2="240.2" y2="134.846"/><line x1="236.407" y1="134.846" x2="240.2" y2="131.054"/>
<line x1="236.86" y1="130.194" x2="240.652" y2="130.194"/><line x1="238.756" y1="128.298" x2="238.756" y2="132.09"/><line x1="236.86" y1="128.298" x2="240.652" y2="132.09"/><line x1="236.86" y1="132.09" x2="240.652" y2="128.298"/>
<line x1="237.313" y1="140.167" x2="241.105" y2="140.167"/><line x1="239.209" y1="138.271" x2="239.209" y2="142.063"/><line x1="237.313" y1="138.271" x2="241.105" y2="142.063"/><line x1="237.313" y1="142.063" x2="241.105" y2="138.271"/>
<line x1="237.765" y1="143.749" x2="241.558" y2="143.749"/><line x1="239.662" y1="141.853" x2="239.662" y2="145.645"/><line x1="237.765" y1="141.853" x2="241.558" y2="145.645"/><line x1="237.765" y1="145.645" x2="241.558" y2="141.853"/>
<line x1="238.218" y1="152.566" x2="242.01" y2="152.566"/><line x1="240.114" y1="150.67" x2="240.114" y2="154.462"/><line x1="238.218" y1="150.67" x2="242.01" y2="154.462"/><line x1="238.218" y1="154.462" x2="242.01" y2="150.67"/>
<line x1="238.671" y1="159.697" x2="242.463" y2="159.697"/><line x1="240.567" y1="157.801" x2="240.567" y2="161.594"/><line x1="238.671" y1="157.801" x2="242.463" y2="161.594"/><line x1="238.671" y1="161.594" x2="242.463" y2="157.801"/>
<line x1="239.124" y1="173.413" x2="242.916" y2="173.413"/><line x1="241.02" y1="171.517" x2="241.02" y2="175.309"/><line x1="239.124" y1="171.517" x2="242.916" y2="175.309"/><line x1="239.124" y1="175.309" x2="242.916" y2="171.517"/>
<line x1="239.576" y1="179.487" x2="243.368" y2="179.487"/><line x1="241.472" y1="177.59" x2="241.472" y2="181.383"/><line x1="239.576" y1="177.59" x2="243.368" y2="181.383"/><line x1="239.576" y1="181.383" x2="243.368" y2="177.59"/>
<line x1="240.029" y1="165.355" x2="243.821" y2="165.355"/><line x1="241.925" y1="163.459" x2="241.925" y2="167.251"/><line x1="240.029" y1="163.459" x2="243.821" y2="167.251"/><line x1="240.029" y1="167.251" x2="243.821" y2="163.459"/>
<line x1="240.482" y1="169.111" x2="244.274" y2="169.111"/><line x1="242.378" y1="167.215" x2="242.378" y2="171.007"/><line x1="240.482" y1="167.215" x2="244.274" y2="171.007"/><line x1="240.482" y1="171.007" x2="244.274" y2="167.215"/>
<line x1="240.934" y1="175.021" x2="244.726" y2="175.021"/><line x1="242.83" y1="173.125" x2="242.83" y2="176.917"/><line x1="240.934" y1="173.125" x2="244.726" y2="176.917"/><line x1="240.934" y1="176.917" x2="244.726" y2="173.125"/>
<line x1="241.387" y1="183.46" x2="245.179" y2="183.46"/><line x1="243.283" y1="181.563" x2="243.283" y2="185.356"/><line x1="241.387" y1="181.563" x2="245.179" y2="185.356"/><line x1="241.387" y1="185.356" x2="245.179" y2="181.563"/>
<line x1="241.84" y1="190.393" x2="245.632" y2="190.393"/><line x1="243.736" y1="188.497" x2="243.736" y2="192.289"/><line x1="241.84" y1="188.497" x2="245.632" y2="192.289"/><line x1="241.84" y1="192.289" x2="245.632" y2="188.497"/>
<line x1="242.292" y1="184.721" x2="246.084" y2="184.721"/><line x1="244.188" y1="182.825" x2="244.188" y2="186.617"/><line x1="242.292" y1="182.825" x2="246.084" y2="186.617"/><line x1="242.292" y1="186.617" x2="246.084" y2="182.825"/>
<line x1="242.745" y1="197.788" x2="246.537" y2="197.788"/><line x1="244.641" y1="195.892" x2="244.641" y2="199.684"/><line x1="242.745" y1="195.892" x2="246.537" y2="199.684"/><line x1="242.745" y1="199.684" x2="246.537" y2="195.892"/>
<line x1="243.198" y1="200.115" x2="246.99" y2="200.115"/><line x1="245.094" y1="198.219" x2="245.094" y2="202.011"/><line x1="243.198" y1="198.219" x2="246.99" y2="202.011"/><line x1="243.198" y1="202.011" x2="246.99" y2="198.219"/>
<line x1="243.65" y1="199.873" x2="247.443" y2="199.873"/><line x1="245.546" y1="197.977" x2="245.546" y2="201.769"/><line x1="243.65" y1="197.977" x2="247.443" y2="201.769"/><line x1="243.65" y1="201.769" x2="247.443" y2="197.977"/>
<line x1="244.103" y1="199.355" x2="247.895" y2="199.355"/><line x1="245.999" y1="197.459" x2="245.999" y2="201.251"/><line x1="244.103" y1="197.459" x2="247.895" y2="201.251"/><line x1="244.103" y1="201.251" x2="247.895" y2="197.459"/>
<line x1="244.556" y1="190.311" x2="248.348" y2="190.311"/><line x1="246.452" y1="188.415" x2="246.452" y2="192.207"/><line x1="244.556" y1="188.415" x2="248.348" y2="192.207"/><line x1="244.556" y1="192.207" x2="248.348" y2="188.415"/>
<line x1="245.008" y1="200.791" x2="248.801" y2="200.791"/><line x1="246.904" y1="198.895" x2="246.904" y2="202.687"/><line x1="245.008" y1="198.895" x2="248.801" y2="202.687"/><line x1="245.008" y1="202.687" x2="248.801" y2="198.895"/>
<line x1="245.461" y1="196.754" x2="249.253" y2="196.754"/><line x1="247.357" y1="194.858" x2="247.357" y2="198.65"/><line x1="245.461" y1="194.858" x2="249.253" y2="198.65"/><line x1="245.461" y1="198.65" x2="249.253" y2="194.858"/>
<line x1="245.914" y1="194.48" x2="249.706" y2="194.48"/><line x1="247.81" y1="192.584" x2="247.81" y2="196.376"/><line x1="245.914" y1="192.584" x2="249.706" y2="196.376"/><line x1="245.914" y1="196.376" x2="249.706" y2="192.584"/>
<line x1="246.366" y1="191.345" x2="250.159" y2="191.345"/><line x1="248.263" y1="189.449" x2="248.263" y2="193.241"/><line x1="246.366" y1="189.449" x2="250.159" y2="193.241"/><line x1="246.366" y1="193.241" x2="250.159" y2="189.449"/>
<line x1="246.819" y1="196.739" x2="250.611" y2="196.739"/><line x1="248.715" y1="194.843" x2="248.715" y2="198.635"/><line x1="246.819" y1="194.843" x2="250.611" y2="198.635"/><line x1="246.819" y1="198.635" x2="250.611" y2="194.843"/>
<line x1="247.272" y1="187.936" x2="251.064" y2="187.936"/><line x1="249.168" y1="186.04" x2="249.168" y2="189.832"/><line x1="247.272" y1="186.04" x2="251.064" y2="189.832"/><line x1="247.272" y1="189.832" x2="251.064" y2="186.04"/>
<line x1="247.725" y1="196.854" x2="251.517" y2="196.854"/><line x1="249.621" y1="194.958" x2="249.621" y2="198.75"/><line x1="247.725" y1="194.958" x2="251.517" y2="198.75"/><line x1="247.725" y1="198.75" x2="251.517" y2="194.958"/>
<line x1="248.177" y1="190.774" x2="251.969" y2="190.774"/><line x1="250.073" y1="188.878" x2="250.073" y2="192.67"/><line x1="248.177" y1="188.878" x2="251.969" y2="192.67"/><line x1="248.177" y1="192.67" x2="251.969" y2="188.878"/>
<line x1="248.63" y1="182.594" x2="252.422" y2="182.594"/><line x1="250.526" y1="180.698" x2="250.526" y2="184.49"/><line x1="248.63" y1="180.698" x2="252.422" y2="184.49"/><line x1="248.63" y1="184.49" x2="252.422" y2="180.698"/>
<line x1="249.083" y1="193.337" x2="252.875" y2="193.337"/><line x1="250.979" y1="191.441" x2="250.979" y2="195.233"/><line x1="249.083" y1="191.441" x2="252.875" y2="195.233"/><line x1="249.083" y1="195.233" x2="252.875" y2="191.441"/>
<line x1="249.535" y1="199.886" x2="253.327" y2="199.886"/><line x1="251.431" y1="197.99" x2="251.431" y2="201.782"/><line x1="249.535" y1="197.99" x2="253.327" y2="201.782"/><line x1="249.535" y1="201.782" x2="253.327" y2="197.99"/>
<line x1="249.988" y1="207.982" x2="253.78" y2="207.982"/><line x1="251.884" y1="206.086" x2="251.884" y2="209.878"/><line x1="249.988" y1="206.086" x2="253.78" y2="209.878"/><line x1="249.988" y1="209.878" x2="253.78" y2="206.086"/>
<line x1="250.441" y1="214.867" x2="254.233" y2="214.867"/><line x1="252.337" y1="212.971" x2="252.337" y2="216.763"/><line x1="250.441" y1="212.971" x2="254.233" y2="216.763"/><line x1="250.441" y1="216.763" x2="254.233" y2="212.971"/>
<line x1="250.893" y1="218.027" x2="254.685" y2="218.027"/><line x1="252.789" y1="216.131" x2="252.789" y2="219.923"/><line x1="250.893" y1="216.131" x2="254.685" y2="219.923"/><line x1="250.893" y1="219.923" x2="254.685" y2="216.131"/>
<line x1="251.346" y1="231.86" x2="255.138" y2="231.86"/><line x1="253.242" y1="229.964" x2="253.242" y2="233.756"/><line x1="251.346" y1="229.964" x2="255.138" y2="233.756"/><line x1="251.346" y1="233.756" x2="255.138" y2="229.964"/>
<line x1="251.799" y1="240.975" x2="255.591" y2="240.975"/><line x1="253.695" y1="239.079" x2="253.695" y2="242.871"/><line x1="251.799" y1="239.079" x2="255.591" y2="242.871"/><line x1="251.799" y1="242.871" x2="255.591" y2="239.079"/>
<line x1="252.251" y1="239.625" x2="256.043" y2="239.625"/><line x1="254.147" y1="237.729" x2="254.147" y2="241.521"/><line x1="252.251" y1="237.729" x2="256.043" y2="241.521"/><line x1="252.251" y1="241.521" x2="256.043" y2="237.729"/>
<line x1="252.704" y1="221.151" x2="256.496" y2="221.151"/><line x1="254.6" y1="219.255" x2="254.6" y2="223.047"/><line x1="252.704" y1="219.255" x2="256.496" y2="223.047"/><line x1="252.704" y1="223.047" x2="256.496" y2="219.255"/>
<line x1="253.157" y1="220.961" x2="256.949" y2="220.961"/><line x1="255.053" y1="219.065" x2="255.053" y2="222.857"/><line x1="253.157" y1="219.065" x2="256.949" y2="222.857"/><line x1="253.157" y1="222.857" x2="256.949" y2="219.065"/>
<line x1="253.609" y1="218.069" x2="257.402" y2="218.069"/><line x1="255.505" y1="216.173" x2="255.505" y2="219.965"/><line x1="253.609" y1="216.173" x2="257.402" y2="219.965"/><line x1="253.609" y1="219.965" x2="257.402" y2="216.173"/>
<line x1="254.062" y1="201.106" x2="257.854" y2="201.106"/><line x1="255.958" y1="199.21" x2="255.958" y2="203.002"/><line x1="254.062" y1="199.21" x2="257.854" y2="203.002"/><line x1="254.062" y1="203.002" x2="257.854" y2="199.21"/>
<line x1="254.515" y1="199.272" x2="258.307" y2="199.272"/><line x1="256.411" y1="197.376" x2="256.411" y2="201.168"/><line x1="254.515" y1="197.376" x2="258.307" y2="201.168"/><line x1="254.515" y1="201.168" x2="258.307" y2="197.376"/>
<line x1="254.967" y1="209.299" x2="258.76" y2="209.299"/><line x1="256.864" y1="207.403" x2="256.864" y2="211.195"/><line x1="254.967" y1="207.403" x2="258.76" y2="211.195"/><line x1="254.967" y1="211.195" x2="258.76" y2="207.403"/>
<line x1="255.42" y1="223.198" x2="259.212" y2="223.198"/><line x1="257.316" y1="221.302" x2="257.316" y2="225.094"/><line x1="255.42" y1="221.302" x2="259.212" y2="225.094"/><line x1="255.42" y1="225.094" x2="259.212" y2="221.302"/>
<line x1="255.873" y1="221.486" x2="259.665" y2="221.486"/><line x1="257.769" y1="219.589" x2="257.769" y2="223.382"/><line x1="255.873" y1="219.589" x2="259.665" y2="223.382"/><line x1="255.873" y1="223.382" x2="259.665" y2="219.589"/>
<line x1="256.325" y1="228.672" x2="260.118" y2="228.672"/><line x1="258.222" y1="226.776" x2="258.222" y2="230.568"/><line x1="256.325" y1="226.776" x2="260.118" y2="230.568"/><line x1="256.325" y1="230.568" x2="260.118" y2="226.776"/>
<line x1="256.778" y1="224.009" x2="260.57" y2="224.009"/><line x1="258.674" y1="222.113" x2="258.674" y2="225.905"/><line x1="256.778" y1="222.113" x2="260.57" y2="225.905"/><line x1="256.778" y1="225.905" x2="260.57" y2="222.113"/>
<line x1="257.231" y1="219.072" x2="261.023" y2="219.072"/><line x1="259.127" y1="217.176" x2="259.127" y2="220.968"/><line x1="257.231" y1="217.176" x2="261.023" y2="220.968"/><line x1="257.231" y1="220.968" x2="261.023" y2="217.176"/>
<line x1="257.684" y1="230.204" x2="261.476" y2="230.204"/><line x1="259.58" y1="228.308" x2="259.58" y2="232.1"/><line x1="257.684" y1="228.308" x2="261.476" y2="232.1"/><line x1="257.684" y1="232.1" x2="261.476" y2="228.308"/>
<line x1="258.136" y1="241.705" x2="261.928" y2="241.705"/><line x1="260.032" y1="239.809" x2="260.032" y2="243.601"/><line x1="258.136" y1="239.809" x2="261.928" y2="243.601"/><line x1="258.136" y1="243.601" x2="261.928" y2="239.809"/>
<line x1="258.589" y1="244.25" x2="262.381" y2="244.25"/><line x1="260.485" y1="242.354" x2="260.485" y2="246.146"/><line x1="258.589" y1="242.354" x2="262.381" y2="246.146"/><line x1="258.589" y1="246.146" x2="262.381" y2="242.354"/>
<line x1="259.042" y1="248.671" x2="262.834" y2="248.671"/><line x1="260.938" y1="246.775" x2="260.938" y2="250.567"/><line x1="259.042" y1="246.775" x2="262.834" y2="250.567"/><line x1="259.042" y1="250.567" x2="262.834" y2="246.775"/>
<line x1="259.494" y1="248.778" x2="263.286" y2="248.778"/><line x1="261.39" y1="246.882" x2="261.39" y2="250.674"/><line x1="259.494" y1="246.882" x2="263.286" y2="250.674"/><line x1="259.494" y1="250.674" x2="263.286" y2="246.882"/>
<line x1="259.947" y1="259.743" x2="263.739" y2="259.743"/><line x1="261.843" y1="257.847" x2="261.843" y2="261.639"/><line x1="259.947" y1="257.847" x2="263.739" y2="261.639"/><line x1="259.947" y1="261.639" x2="263.739" y2="257.847"/>
<line x1="260.4" y1="258.754" x2="264.192" y2="258.754"/><line x1="262.296" y1="256.857" x2="262.296" y2="260.65"/><line x1="260.4" y1="256.857" x2="264.192" y2="260.65"/><line x1="260.4" y1="260.65" x2="264.192" y2="256.857"/>
<line x1="260.852" y1="255.648" x2="264.644" y2="255.648"/><line x1="262.748" y1="253.752" x2="262.748" y2="257.544"/><line x1="260.852" y1="253.752" x2="264.644" y2="257.544"/><line x1="260.852" y1="257.544" x2="264.644" y2="253.752"/>
<line x1="261.305" y1="253.51" x2="265.097" y2="253.51"/><line x1="263.201" y1="251.614" x2="263.201" y2="255.406"/><line x1="261.305" y1="251.614" x2="265.097" y2="255.406"/><line x1="261.305" y1="255.406" x2="265.097" y2="251.614"/>
<line x1="261.758" y1="264.609" x2="265.55" y2="264.609"/><line x1="263.654" y1="262.713" x2="263.654" y2="266.505"/><line x1="261.758" y1="262.713" x2="265.55" y2="266.505"/><line x1="261.758" y1="266.505" x2="265.55" y2="262.713"/>
<line x1="262.21" y1="255.576" x2="266.003" y2="255.576"/><line x1="264.106" y1="253.679" x2="264.106" y2="257.472"/><line x1="262.21" y1="253.679" x2="266.003" y2="257.472"/><line x1="262.21" y1="257.472" x2="266.003" y2="253.679"/>
<line x1="262.663" y1="259.053" x2="266.455" y2="259.053"/><line x1="264.559" y1="257.157" x2="264.559" y2="260.949"/><line x1="262.663" y1="257.157" x2="266.455" y2="260.949"/><line x1="262.663" y1="260.949" x2="266.455" y2="257.157"/>
<line x1="263.116" y1="253.559" x2="266.908" y2="253.559"/><line x1="265.012" y1="251.663" x2="265.012" y2="255.455"/><line x1="263.116" y1="251.663" x2="266.908" y2="255.455"/><line x1="263.116" y1="255.455" x2="266.908" y2="251.663"/>
<line x1="263.568" y1="253.09" x2="267.361" y2="253.09"/><line x1="265.465" y1="251.194" x2="265.465" y2="254.986"/><line x1="263.568" y1="251.194" x2="267.361" y2="254.986"/><line x1="263.568" y1="254.986" x2="267.361" y2="251.194"/>
<line x1="264.021" y1="254.616" x2="267.813" y2="254.616"/><line x1="265.917" y1="252.72" x2="265.917" y2="256.512"/><line x1="264.021" y1="252.72" x2="267.813" y2="256.512"/><line x1="264.021" y1="256.512" x2="267.813" y2="252.72"/>
<line x1="264.474" y1="259.122" x2="268.266" y2="259.122"/><line x1="266.37" y1="257.226" x2="266.37" y2="261.018"/><line x1="264.474" y1="257.226" x2="268.266" y2="261.018"/><line x1="264.474" y1="261.018" x2="268.266" y2="257.226"/>
<line x1="264.926" y1="257.038" x2="268.719" y2="257.038"/><line x1="266.823" y1="255.142" x2="266.823" y2="258.934"/><line x1="264.926" y1="255.142" x2="268.719" y2="258.934"/><line x1="264.926" y1="258.934" x2="268.719" y2="255.142"/>
<line x1="265.379" y1="269.374" x2="269.171" y2="269.374"/><line x1="267.275" y1="267.478" x2="267.275" y2="271.27"/><line x1="265.379" y1="267.478" x2="269.171" y2="271.27"/><line x1="265.379" y1="271.27" x2="269.171" y2="267.478"/>
<line x1="265.832" y1="271.659" x2="269.624" y2="271.659"/><line x1="267.728" y1="269.763" x2="267.728" y2="273.555"/><line x1="265.832" y1="269.763" x2="269.624" y2="273.555"/><line x1="265.832" y1="273.555" x2="269.624" y2="269.763"/>
<line x1="266.285" y1="255.007" x2="270.077" y2="255.007"/><line x1="268.181" y1="253.111" x2="268.181" y2="256.903"/><line x1="266.285" y1="253.111" x2="270.077" y2="256.903"/><line x1="266.285" y1="256.903" x2="270.077" y2="253.111"/>
<line x1="266.737" y1="249.079" x2="270.529" y2="249.079"/><line x1="268.633" y1="247.183" x2="268.633" y2="250.975"/><line x1="266.737" y1="247.183" x2="270.529" y2="250.975"/><line x1="266.737" y1="250.975" x2="270.529" y2="247.183"/>
<line x1="267.19" y1="255" x2="270.982" y2="255"/><line x1="269.086" y1="253.104" x2="269.086" y2="256.896"/><line x1="267.19" y1="253.104" x2="270.982" y2="256.896"/><line x1="267.19" y1="256.896" x2="270.982" y2="253.104"/>
<line x1="267.643" y1="256.837" x2="271.435" y2="256.837"/><line x1="269.539" y1="254.94" x2="269.539" y2="258.733"/><line x1="267.643" y1="254.94" x2="271.435" y2="258.733"/><line x1="267.643" y1="258.733" x2="271.435" y2="254.94"/>
<line x1="268.095" y1="264.9" x2="271.887" y2="264.9"/><line x1="269.991" y1="263.004" x2="269.991" y2="266.796"/><line x1="268.095" y1="263.004" x2="271.887" y2="266.796"/><line x1="268.095" y1="266.796" x2="271.887" y2="263.004"/>
<line x1="268.548" y1="261.361" x2="272.34" y2="261.361"/><line x1="270.444" y1="259.465" x2="270.444" y2="263.257"/><line x1="268.548" y1="259.465" x2="272.34" y2="263.257"/><line x1="268.548" y1="263.257" x2="272.34" y2="259.465"/>
<line x1="269.001" y1="258.091" x2="272.793" y2="258.091"/><line x1="270.897" y1="256.195" x2="270.897" y2="259.987"/><line x1="269.001" y1="256.195" x2="272.793" y2="259.987"/><line x1="269.001" y1="259.987" x2="272.793" y2="256.195"/>
<line x1="269.453" y1="268.907" x2="273.245" y2="268.907"/><line x1="271.349" y1="267.011" x2="271.349" y2="270.803"/><line x1="269.453" y1="267.011" x2="273.245" y2="270.803"/><line x1="269.453" y1="270.803" x2="273.245" y2="267.011"/>
<line x1="269.906" y1="267.204" x2="273.698" y2="267.204"/><line x1="271.802" y1="265.308" x2="271.802" y2="269.101"/><line x1="269.906" y1="265.308" x2="273.698" y2="269.101"/><line x1="269.906" y1="269.101" x2="273.698" y2="265.308"/>
<line x1="270.359" y1="275.083" x2="274.151" y2="275.083"/><line x1="272.255" y1="273.187" x2="272.255" y2="276.979"/><line x1="270.359" y1="273.187" x2="274.151" y2="276.979"/><line x1="270.359" y1="276.979" x2="274.151" y2="273.187"/>
<line x1="270.811" y1="265.356" x2="274.604" y2="265.356"/><line x1="272.707" y1="263.46" x2="272.707" y2="267.252"/><line x1="270.811" y1="263.46" x2="274.604" y2="267.252"/><line x1="270.811" y1="267.252" x2="274.604" y2="263.46"/>
<line x1="271.264" y1="278.292" x2="275.056" y2="278.292"/><line x1="273.16" y1="276.396" x2="273.16" y2="280.188"/><line x1="271.264" y1="276.396" x2="275.056" y2="280.188"/><line x1="271.264" y1="280.188" x2="275.056" y2="276.396"/>
<line x1="271.717" y1="265.579" x2="275.509" y2="265.579"/><line x1="273.613" y1="263.683" x2="273.613" y2="267.475"/><line x1="271.717" y1="263.683" x2="275.509" y2="267.475"/><line x1="271.717" y1="267.475" x2="275.509" y2="263.683"/>
<line x1="272.169" y1="278.895" x2="275.962" y2="278.895"/><line x1="274.065" y1="276.999" x2="274.065" y2="280.791"/><line x1="272.169" y1="276.999" x2="275.962" y2="280.791"/><line x1="272.169" y1="280.791" x2="275.962" y2="276.999"/>
<line x1="272.622" y1="274.021" x2="276.414" y2="274.021"/><line x1="274.518" y1="272.125" x2="274.518" y2="275.917"/><line x1="272.622" y1="272.125" x2="276.414" y2="275.917"/><line x1="272.622" y1="275.917" x2="276.414" y2="272.125"/>
<line x1="273.075" y1="281.978" x2="276.867" y2="281.978"/><line x1="274.971" y1="280.082" x2="274.971" y2="283.874"/><line x1="273.075" y1="280.082" x2="276.867" y2="283.874"/><line x1="273.075" y1="283.874" x2="276.867" y2="280.082"/>
<line x1="273.527" y1="295.715" x2="277.32" y2="295.715"/><line x1="275.424" y1="293.818" x2="275.424" y2="297.611"/><line x1="273.527" y1="293.818" x2="277.32" y2="297.611"/><line x1="273.527" y1="297.611" x2="277.32" y2="293.818"/>
<line x1="273.98" y1="289.43" x2="277.772" y2="289.43"/><line x1="275.876" y1="287.534" x2="275.876" y2="291.326"/><line x1="273.98" y1="287.534" x2="277.772" y2="291.326"/><line x1="273.98" y1="291.326" x2="277.772" y2="287.534"/>
<line x1="274.433" y1="286.562" x2="278.225" y2="286.562"/><line x1="276.329" y1="284.666" x2="276.329" y2="288.458"/><line x1="274.433" y1="284.666" x2="278.225" y2="288.458"/><line x1="274.433" y1="288.458" x2="278.225" y2="284.666"/>
<line x1="274.885" y1="299.348" x2="278.678" y2="299.348"/><line x1="276.782" y1="297.452" x2="276.782" y2="301.244"/><line x1="274.885" y1="297.452" x2="278.678" y2="301.244"/><line x1="274.885" y1="301.244" x2="278.678" y2="297.452"/>
<line x1="275.338" y1="313.512" x2="279.13" y2="313.512"/><line x1="277.234" y1="311.616" x2="277.234" y2="315.408"/><line x1="275.338" y1="311.616" x2="279.13" y2="315.408"/><line x1="275.338" y1="315.408" x2="279.13" y2="311.616"/>
<line x1="275.791" y1="320.012" x2="279.583" y2="320.012"/><line x1="277.687" y1="318.116" x2="277.687" y2="321.909"/><line x1="275.791" y1="318.116" x2="279.583" y2="321.909"/><line x1="275.791" y1="321.909" x2="279.583" y2="318.116"/>
<line x1="276.244" y1="316.343" x2="280.036" y2="316.343"/><line x1="278.14" y1="314.447" x2="278.14" y2="318.239"/><line x1="276.244" y1="314.447" x2="280.036" y2="318.239"/><line x1="276.244" y1="318.239" x2="280.036" y2="314.447"/>
<line x1="276.696" y1="320.516" x2="280.488" y2="320.516"/><line x1="278.592" y1="318.62" x2="278.592" y2="322.413"/><line x1="276.696" y1="318.62" x2="280.488" y2="322.413"/><line x1="276.696" y1="322.413" x2="280.488" y2="318.62"/>
<line x1="277.149" y1="324.839" x2="280.941" y2="324.839"/><line x1="279.045" y1="322.943" x2="279.045" y2="326.735"/><line x1="277.149" y1="322.943" x2="280.941" y2="326.735"/><line x1="277.149" y1="326.735" x2="280.941" y2="322.943"/>
<line x1="277.602" y1="331.164" x2="281.394" y2="331.164"/><line x1="279.498" y1="329.268" x2="279.498" y2="333.06"/><line x1="277.602" y1="329.268" x2="281.394" y2="333.06"/><line x1="277.602" y1="333.06" x2="281.394" y2="329.268"/>
<line x1="278.054" y1="339.502" x2="281.846" y2="339.502"/><line x1="279.95" y1="337.606" x2="279.95" y2="341.398"/><line x1="278.054" y1="337.606" x2="281.846" y2="341.398"/><line x1="278.054" y1="341.398" x2="281.846" y2="337.606"/>
<line x1="278.507" y1="347.002" x2="282.299" y2="347.002"/><line x1="280.403" y1="345.106" x2="280.403" y2="348.898"/><line x1="278.507" y1="345.106" x2="282.299" y2="348.898"/><line x1="278.507" y1="348.898" x2="282.299" y2="345.106"/>
<line x1="278.96" y1="351.4" x2="282.752" y2="351.4"/><line x1="280.856" y1="349.504" x2="280.856" y2="353.296"/><line x1="278.96" y1="349.504" x2="282.752" y2="353.296"/><line x1="278.96" y1="353.296" x2="282.752" y2="349.504"/>
<line x1="279.412" y1="343.699" x2="283.204" y2="343.699"/><line x1="281.308" y1="341.803" x2="281.308" y2="345.595"/><line x1="279.412" y1="341.803" x2="283.204" y2="345.595"/><line x1="279.412" y1="345.595" x2="283.204" y2="341.803"/>
<line x1="279.865" y1="347.115" x2="283.657" y2="347.115"/><line x1="281.761" y1="345.219" x2="281.761" y2="349.011"/><line x1="279.865" y1="345.219" x2="283.657" y2="349.011"/><line x1="279.865" y1="349.011" x2="283.657" y2="345.219"/>
<line x1="280.318" y1="355.39" x2="284.11" y2="355.39"/><line x1="282.214" y1="353.494" x2="282.214" y2="357.286"/><line x1="280.318" y1="353.494" x2="284.11" y2="357.286"/><line x1="280.318" y1="357.286" x2="284.11" y2="353.494"/>
<line x1="280.77" y1="353.348" x2="284.563" y2="353.348"/><line x1="282.666" y1="351.452" x2="282.666" y2="355.244"/><line x1="280.77" y1="351.452" x2="284.563" y2="355.244"/><line x1="280.77" y1="355.244" x2="284.563" y2="351.452"/>
<line x1="281.223" y1="350.574" x2="285.015" y2="350.574"/><line x1="283.119" y1="348.677" x2="283.119" y2="352.47"/><line x1="281.223" y1="348.677" x2="285.015" y2="352.47"/><line x1="281.223" y1="352.47" x2="285.015" y2="348.677"/>
<line x1="281.676" y1="348.89" x2="285.468" y2="348.89"/><line x1="283.572" y1="346.994" x2="283.572" y2="350.786"/><line x1="281.676" y1="346.994" x2="285.468" y2="350.786"/><line x1="281.676" y1="350.786" x2="285.468" y2="346.994"/>
<line x1="282.128" y1="356.265" x2="285.921" y2="356.265"/><line x1="284.025" y1="354.369" x2="284.025" y2="358.161"/><line x1="282.128" y1="354.369" x2="285.921" y2="358.161"/><line x1="282.128" y1="358.161" x2="285.921" y2="354.369"/>
<line x1="282.581" y1="354.12" x2="286.373" y2="354.12"/><line x1="284.477" y1="352.224" x2="284.477" y2="356.016"/><line x1="282.581" y1="352.224" x2="286.373" y2="356.016"/><line x1="282.581" y1="356.016" x2="286.373" y2="352.224"/>
<line x1="283.034" y1="350.425" x2="286.826" y2="350.425"/><line x1="284.93" y1="348.529" x2="284.93" y2="352.321"/><line x1="283.034" y1="348.529" x2="286.826" y2="352.321"/><line x1="283.034" y1="352.321" x2="286.826" y2="348.529"/>
<line x1="283.486" y1="352.244" x2="287.279" y2="352.244"/><line x1="285.383" y1="350.348" x2="285.383" y2="354.14"/><line x1="283.486" y1="350.348" x2="287.279" y2="354.14"/><line x1="283.486" y1="354.14" x2="287.279" y2="350.348"/>
<line x1="283.939" y1="353.912" x2="287.731" y2="353.912"/><line x1="285.835" y1="352.016" x2="285.835" y2="355.808"/><line x1="283.939" y1="352.016" x2="287.731" y2="355.808"/><line x1="283.939" y1="355.808" x2="287.731" y2="352.016"/>
<line x1="284.392" y1="345.026" x2="288.184" y2="345.026"/><line x1="286.288" y1="343.13" x2="286.288" y2="346.922"/><line x1="284.392" y1="343.13" x2="288.184" y2="346.922"/><line x1="284.392" y1="346.922" x2="288.184" y2="343.13"/>
<line x1="284.845" y1="345.888" x2="288.637" y2="345.888"/><line x1="286.741" y1="343.991" x2="286.741" y2="347.784"/><line x1="284.845" y1="343.991" x2="288.637" y2="347.784"/><line x1="284.845" y1="347.784" x2="288.637" y2="343.991"/>
<line x1="285.297" y1="346.597" x2="289.089" y2="346.597"/><line x1="287.193" y1="344.701" x2="287.193" y2="348.493"/><line x1="285.297" y1="344.701" x2="289.089" y2="348.493"/><line x1="285.297" y1="348.493" x2="289.089" y2="344.701"/>
<line x1="285.75" y1="347.43" x2="289.542" y2="347.43"/><line x1="287.646" y1="345.534" x2="287.646" y2="349.326"/><line x1="285.75" y1="345.534" x2="289.542" y2="349.326"/><line x1="285.75" y1="349.326" x2="289.542" y2="345.534"/>
<line x1="286.203" y1="340.309" x2="289.995" y2="340.309"/><line x1="288.099" y1="338.413" x2="288.099" y2="342.205"/><line x1="286.203" y1="338.413" x2="289.995" y2="342.205"/><line x1="286.203" y1="342.205" x2="289.995" y2="338.413"/>
<line x1="286.655" y1="334.459" x2="290.447" y2="334.459"/><line x1="288.551" y1="332.563" x2="288.551" y2="336.355"/><line x1="286.655" y1="332.563" x2="290.447" y2="336.355"/><line x1="286.655" y1="336.355" x2="290.447" y2="332.563"/>
<line x1="287.108" y1="324.385" x2="290.9" y2="324.385"/><line x1="289.004" y1="322.489" x2="289.004" y2="326.281"/><line x1="287.108" y1="322.489" x2="290.9" y2="326.281"/><line x1="287.108" y1="326.281" x2="290.9" y2="322.489"/>
<line x1="287.561" y1="330.614" x2="291.353" y2="330.614"/><line x1="289.457" y1="328.718" x2="289.457" y2="332.51"/><line x1="287.561" y1="328.718" x2="291.353" y2="332.51"/><line x1="287.561" y1="332.51" x2="291.353" y2="328.718"/>
<line x1="288.013" y1="333.783" x2="291.805" y2="333.783"/><line x1="289.909" y1="331.887" x2="289.909" y2="335.679"/><line x1="288.013" y1="331.887" x2="291.805" y2="335.679"/><line x1="288.013" y1="335.679" x2="291.805" y2="331.887"/>
<line x1="288.466" y1="331.425" x2="292.258" y2="331.425"/><line x1="290.362" y1="329.529" x2="290.362" y2="333.321"/><line x1="288.466" y1="329.529" x2="292.258" y2="333.321"/><line x1="288.466" y1="333.321" x2="292.258" y2="329.529"/>
<line x1="288.919" y1="318.362" x2="292.711" y2="318.362"/><line x1="290.815" y1="316.466" x2="290.815" y2="320.258"/><line x1="288.919" y1="316.466" x2="292.711" y2="320.258"/><line x1="288.919" y1="320.258" x2="292.711" y2="316.466"/>
<line x1="289.371" y1="318.686" x2="293.164" y2="318.686"/><line x1="291.267" y1="316.789" x2="291.267" y2="320.582"/><line x1="289.371" y1="316.789" x2="293.164" y2="320.582"/><line x1="289.371" y1="320.582" x2="293.164" y2="316.789"/>
<line x1="289.824" y1="316.864" x2="293.616" y2="316.864"/><line x1="291.72" y1="314.968" x2="291.72" y2="318.76"/><line x1="289.824" y1="314.968" x2="293.616" y2="318.76"/><line x1="289.824" y1="318.76" x2="293.616" y2="314.968"/>
<line x1="290.277" y1="307.643" x2="294.069" y2="307.643"/><line x1="292.173" y1="305.747" x2="292.173" y2="309.539"/><line x1="290.277" y1="305.747" x2="294.069" y2="309.539"/><line x1="290.277" y1="309.539" x2="294.069" y2="305.747"/>
<line x1="290.729" y1="297.101" x2="294.522" y2="297.101"/><line x1="292.625" y1="295.205" x2="292.625" y2="298.997"/><line x1="290.729" y1="295.205" x2="294.522" y2="298.997"/><line x1="290.729" y1="298.997" x2="294.522" y2="295.205"/>
<line x1="291.182" y1="288.041" x2="294.974" y2="288.041"/><line x1="293.078" y1="286.145" x2="293.078" y2="289.937"/><line x1="291.182" y1="286.145" x2="294.974" y2="289.937"/><line x1="291.182" y1="289.937" x2="294.974" y2="286.145"/>
<line x1="291.635" y1="301.753" x2="295.427" y2="301.753"/><line x1="293.531" y1="299.857" x2="293.531" y2="303.649"/><line x1="291.635" y1="299.857" x2="295.427" y2="303.649"/><line x1="291.635" y1="303.649" x2="295.427" y2="299.857"/>
<line x1="292.087" y1="290.005" x2="295.88" y2="290.005"/><line x1="293.984" y1="288.109" x2="293.984" y2="291.901"/><line x1="292.087" y1="288.109" x2="295.88" y2="291.901"/><line x1="292.087" y1="291.901" x2="295.88" y2="288.109"/>
<line x1="292.54" y1="283.151" x2="296.332" y2="283.151"/><line x1="294.436" y1="281.255" x2="294.436" y2="285.047"/><line x1="292.54" y1="281.255" x2="296.332" y2="285.047"/><line x1="292.54" y1="285.047" x2="296.332" y2="281.255"/>
<line x1="292.993" y1="285.264" x2="296.785" y2="285.264"/><line x1="294.889" y1="283.368" x2="294.889" y2="287.16"/><line x1="292.993" y1="283.368" x2="296.785" y2="287.16"/><line x1="292.993" y1="287.16" x2="296.785" y2="283.368"/>
<line x1="293.445" y1="270.243" x2="297.238" y2="270.243"/><line x1="295.342" y1="268.347" x2="295.342" y2="272.139"/><line x1="293.445" y1="268.347" x2="297.238" y2="272.139"/><line x1="293.445" y1="272.139" x2="297.238" y2="268.347"/>
<line x1="293.898" y1="276.9" x2="297.69" y2="276.9"/><line x1="295.794" y1="275.004" x2="295.794" y2="278.796"/><line x1="293.898" y1="275.004" x2="297.69" y2="278.796"/><line x1="293.898" y1="278.796" x2="297.69" y2="275.004"/>
<line x1="294.351" y1="269.004" x2="298.143" y2="269.004"/><line x1="296.247" y1="267.108" x2="296.247" y2="270.9"/><line x1="294.351" y1="267.108" x2="298.143" y2="270.9"/><line x1="294.351" y1="270.9" x2="298.143" y2="267.108"/>
<line x1="294.804" y1="266.771" x2="298.596" y2="266.771"/><line x1="296.7" y1="264.874" x2="296.7" y2="268.667"/><line x1="294.804" y1="264.874" x2="298.596" y2="268.667"/><line x1="294.804" y1="268.667" x2="298.596" y2="264.874"/>
<line x1="295.256" y1="262.371" x2="299.048" y2="262.371"/><line x1="297.152" y1="260.475" x2="297.152" y2="264.267"/><line x1="295.256" y1="260.475" x2="299.048" y2="264.267"/><line x1="295.256" y1="264.267" x2="299.048" y2="260.475"/>
<line x1="295.709" y1="263.223" x2="299.501" y2="263.223"/><line x1="297.605" y1="261.327" x2="297.605" y2="265.119"/><line x1="295.709" y1="261.327" x2="299.501" y2="265.119"/><line x1="295.709" y1="265.119" x2="299.501" y2="261.327"/>
<line x1="296.162" y1="249.965" x2="299.954" y2="249.965"/><line x1="298.058" y1="248.069" x2="298.058" y2="251.861"/><line x1="296.162" y1="248.069" x2="299.954" y2="251.861"/><line x1="296.162" y1="251.861" x2="299.954" y2="248.069"/>
<line x1="296.614" y1="255.624" x2="300.406" y2="255.624"/><line x1="298.51" y1="253.728" x2="298.51" y2="257.52"/><line x1="296.614" y1="253.728" x2="300.406" y2="257.52"/><line x1="296.614" y1="257.52" x2="300.406" y2="253.728"/>
<line x1="297.067" y1="252.515" x2="300.859" y2="252.515"/><line x1="298.963" y1="250.619" x2="298.963" y2="254.411"/><line x1="297.067" y1="250.619" x2="300.859" y2="254.411"/><line x1="297.067" y1="254.411" x2="300.859" y2="250.619"/>
<line x1="297.52" y1="259.751" x2="301.312" y2="259.751"/><line x1="299.416" y1="257.855" x2="299.416" y2="261.647"/><line x1="297.52" y1="257.855" x2="301.312" y2="261.647"/><line x1="297.52" y1="261.647" x2="301.312" y2="257.855"/>
<line x1="297.972" y1="266.853" x2="301.764" y2="266.853"/><line x1="299.868" y1="264.957" x2="299.868" y2="268.749"/><line x1="297.972" y1="264.957" x2="301.764" y2="268.749"/><line x1="297.972" y1="268.749" x2="301.764" y2="264.957"/>
<line x1="298.425" y1="271.008" x2="302.217" y2="271.008"/><line x1="300.321" y1="269.112" x2="300.321" y2="272.904"/><line x1="298.425" y1="269.112" x2="302.217" y2="272.904"/><line x1="298.425" y1="272.904" x2="302.217" y2="269.112"/>
<line x1="298.878" y1="273.691" x2="302.67" y2="273.691"/><line x1="300.774" y1="271.795" x2="300.774" y2="275.587"/><line x1="298.878" y1="271.795" x2="302.67" y2="275.587"/><line x1="298.878" y1="275.587" x2="302.67" y2="271.795"/>
<line x1="299.33" y1="279.828" x2="303.123" y2="279.828"/><line x1="301.226" y1="277.932" x2="301.226" y2="281.724"/><line x1="299.33" y1="277.932" x2="303.123" y2="281.724"/><line x1="299.33" y1="281.724" x2="303.123" y2="277.932"/>
<line x1="299.783" y1="293.008" x2="303.575" y2="293.008"/><line x1="301.679" y1="291.112" x2="301.679" y2="294.904"/><line x1="299.783" y1="291.112" x2="303.575" y2="294.904"/><line x1="299.783" y1="294.904" x2="303.575" y2="291.112"/>
<line x1="300.236" y1="297.876" x2="304.028" y2="297.876"/><line x1="302.132" y1="295.98" x2="302.132" y2="299.772"/><line x1="300.236" y1="295.98" x2="304.028" y2="299.772"/><line x1="300.236" y1="299.772" x2="304.028" y2="295.98"/>
<line x1="300.688" y1="306.172" x2="304.481" y2="306.172"/><line x1="302.585" y1="304.276" x2="302.585" y2="308.068"/><line x1="300.688" y1="304.276" x2="304.481" y2="308.068"/><line x1="300.688" y1="308.068" x2="304.481" y2="304.276"/>
<line x1="301.141" y1="298.244" x2="304.933" y2="298.244"/><line x1="303.037" y1="296.348" x2="303.037" y2="300.14"/><line x1="301.141" y1="296.348" x2="304.933" y2="300.14"/><line x1="301.141" y1="300.14" x2="304.933" y2="296.348"/>
<line x1="301.594" y1="295.089" x2="305.386" y2="295.089"/><line x1="303.49" y1="293.193" x2="303.49" y2="296.985"/><line x1="301.594" y1="293.193" x2="305.386" y2="296.985"/><line x1="301.594" y1="296.985" x2="305.386" y2="293.193"/>
<line x1="302.046" y1="295.562" x2="305.839" y2="295.562"/><line x1="303.943" y1="293.666" x2="303.943" y2="297.458"/><line x1="302.046" y1="293.666" x2="305.839" y2="297.458"/><line x1="302.046" y1="297.458" x2="305.839" y2="293.666"/>
<line x1="302.499" y1="303.29" x2="306.291" y2="303.29"/><line x1="304.395" y1="301.394" x2="304.395" y2="305.186"/><line x1="302.499" y1="301.394" x2="306.291" y2="305.186"/><line x1="302.499" y1="305.186" x2="306.291" y2="301.394"/>
<line x1="302.952" y1="300.691" x2="306.744" y2="300.691"/><line x1="304.848" y1="298.795" x2="304.848" y2="302.588"/><line x1="302.952" y1="298.795" x2="306.744" y2="302.588"/><line x1="302.952" y1="302.588" x2="306.744" y2="298.795"/>
<line x1="303.405" y1="303.307" x2="307.197" y2="303.307"/><line x1="305.301" y1="301.411" x2="305.301" y2="305.204"/><line x1="303.405" y1="301.411" x2="307.197" y2="305.204"/><line x1="303.405" y1="305.204" x2="307.197" y2="301.411"/>
<line x1="303.857" y1="298.864" x2="307.649" y2="298.864"/><line x1="305.753" y1="296.968" x2="305.753" y2="300.76"/><line x1="303.857" y1="296.968" x2="307.649" y2="300.76"/><line x1="303.857" y1="300.76" x2="307.649" y2="296.968"/>
<line x1="304.31" y1="309.307" x2="308.102" y2="309.307"/><line x1="306.206" y1="307.411" x2="306.206" y2="311.203"/><line x1="304.31" y1="307.411" x2="308.102" y2="311.203"/><line x1="304.31" y1="311.203" x2="308.102" y2="307.411"/>
<line x1="304.763" y1="306.93" x2="308.555" y2="306.93"/><line x1="306.659" y1="305.034" x2="306.659" y2="308.826"/><line x1="304.763" y1="305.034" x2="308.555" y2="308.826"/><line x1="304.763" y1="308.826" x2="308.555" y2="305.034"/>
<line x1="305.215" y1="305.588" x2="309.007" y2="305.588"/><line x1="307.111" y1="303.692" x2="307.111" y2="307.484"/><line x1="305.215" y1="303.692" x2="309.007" y2="307.484"/><line x1="305.215" y1="307.484" x2="309.007" y2="303.692"/>
<line x1="305.668" y1="314.438" x2="309.46" y2="314.438"/><line x1="307.564" y1="312.542" x2="307.564" y2="316.334"/><line x1="305.668" y1="312.542" x2="309.46" y2="316.334"/><line x1="305.668" y1="316.334" x2="309.46" y2="312.542"/>
<line x1="306.121" y1="309.492" x2="309.913" y2="309.492"/><line x1="308.017" y1="307.596" x2="308.017" y2="311.388"/><line x1="306.121" y1="307.596" x2="309.913" y2="311.388"/><line x1="306.121" y1="311.388" x2="309.913" y2="307.596"/>
<line x1="306.573" y1="302.714" x2="310.365" y2="302.714"/><line x1="308.469" y1="300.818" x2="308.469" y2="304.61"/><line x1="306.573" y1="300.818" x2="310.365" y2="304.61"/><line x1="306.573" y1="304.61" x2="310.365" y2="300.818"/>
<line x1="307.026" y1="287.944" x2="310.818" y2="287.944"/><line x1="308.922" y1="286.048" x2="308.922" y2="289.84"/><line x1="307.026" y1="286.048" x2="310.818" y2="289.84"/><line x1="307.026" y1="289.84" x2="310.818" y2="286.048"/>
<line x1="307.479" y1="290.902" x2="311.271" y2="290.902"/><line x1="309.375" y1="289.006" x2="309.375" y2="292.799"/><line x1="307.479" y1="289.006" x2="311.271" y2="292.799"/><line x1="307.479" y1="292.799" x2="311.271" y2="289.006"/>
<line x1="307.931" y1="281.417" x2="311.724" y2="281.417"/><line x1="309.827" y1="279.521" x2="309.827" y2="283.313"/><line x1="307.931" y1="279.521" x2="311.724" y2="283.313"/><line x1="307.931" y1="283.313" x2="311.724" y2="279.521"/>
<line x1="308.384" y1="272.879" x2="312.176" y2="272.879"/><line x1="310.28" y1="270.983" x2="310.28" y2="274.775"/><line x1="308.384" y1="270.983" x2="312.176" y2="274.775"/><line x1="308.384" y1="274.775" x2="312.176" y2="270.983"/>
<line x1="308.837" y1="278.34" x2="312.629" y2="278.34"/><line x1="310.733" y1="276.444" x2="310.733" y2="280.236"/><line x1="308.837" y1="276.444" x2="312.629" y2="280.236"/><line x1="308.837" y1="280.236" x2="312.629" y2="276.444"/>
<line x1="309.289" y1="273.167" x2="313.082" y2="273.167"/><line x1="311.186" y1="271.271" x2="311.186" y2="275.063"/><line x1="309.289" y1="271.271" x2="313.082" y2="275.063"/><line x1="309.289" y1="275.063" x2="313.082" y2="271.271"/>
<line x1="309.742" y1="281.032" x2="313.534" y2="281.032"/><line x1="311.638" y1="279.136" x2="311.638" y2="282.928"/><line x1="309.742" y1="279.136" x2="313.534" y2="282.928"/><line x1="309.742" y1="282.928" x2="313.534" y2="279.136"/>
<line x1="310.195" y1="284.296" x2="313.987" y2="284.296"/><line x1="312.091" y1="282.4" x2="312.091" y2="286.192"/><line x1="310.195" y1="282.4" x2="313.987" y2="286.192"/><line x1="310.195" y1="286.192" x2="313.987" y2="282.4"/>
<line x1="310.647" y1="287.842" x2="314.44" y2="287.842"/><line x1="312.544" y1="285.946" x2="312.544" y2="289.738"/><line x1="310.647" y1="285.946" x2="314.44" y2="289.738"/><line x1="310.647" y1="289.738" x2="314.44" y2="285.946"/>
<line x1="311.1" y1="286.969" x2="314.892" y2="286.969"/><line x1="312.996" y1="285.073" x2="312.996" y2="288.865"/><line x1="311.1" y1="285.073" x2="314.892" y2="288.865"/><line x1="311.1" y1="288.865" x2="314.892" y2="285.073"/>
<line x1="311.553" y1="273.416" x2="315.345" y2="273.416"/><line x1="313.449" y1="271.52" x2="313.449" y2="275.312"/><line x1="311.553" y1="271.52" x2="315.345" y2="275.312"/><line x1="311.553" y1="275.312" x2="315.345" y2="271.52"/>
<line x1="312.006" y1="273.638" x2="315.798" y2="273.638"/><line x1="313.902" y1="271.742" x2="313.902" y2="275.534"/><line x1="312.006" y1="271.742" x2="315.798" y2="275.534"/><line x1="312.006" y1="275.534" x2="315.798" y2="271.742"/>
<line x1="312.458" y1="269.546" x2="316.25" y2="269.546"/><line x1="314.354" y1="267.65" x2="314.354" y2="271.442"/><line x1="312.458" y1="267.65" x2="316.25" y2="271.442"/><line x1="312.458" y1="271.442" x2="316.25" y2="267.65"/>
<line x1="312.911" y1="254.616" x2="316.703" y2="254.616"/><line x1="314.807" y1="252.719" x2="314.807" y2="256.512"/><line x1="312.911" y1="252.719" x2="316.703" y2="256.512"/><line x1="312.911" y1="256.512" x2="316.703" y2="252.719"/>
<line x1="313.364" y1="256.344" x2="317.156" y2="256.344"/><line x1="315.26" y1="254.448" x2="315.26" y2="258.24"/><line x1="313.364" y1="254.448" x2="317.156" y2="258.24"/><line x1="313.364" y1="258.24" x2="317.156" y2="254.448"/>
<line x1="313.816" y1="249.981" x2="317.608" y2="249.981"/><line x1="315.712" y1="248.085" x2="315.712" y2="251.877"/><line x1="313.816" y1="248.085" x2="317.608" y2="251.877"/><line x1="313.816" y1="251.877" x2="317.608" y2="248.085"/>
<line x1="314.269" y1="247.586" x2="318.061" y2="247.586"/><line x1="316.165" y1="245.69" x2="316.165" y2="249.482"/><line x1="314.269" y1="245.69" x2="318.061" y2="249.482"/><line x1="314.269" y1="249.482" x2="318.061" y2="245.69"/>
<line x1="314.722" y1="245.654" x2="318.514" y2="245.654"/><line x1="316.618" y1="243.758" x2="316.618" y2="247.55"/><line x1="314.722" y1="243.758" x2="318.514" y2="247.55"/><line x1="314.722" y1="247.55" x2="318.514" y2="243.758"/>
<line x1="315.174" y1="246.132" x2="318.966" y2="246.132"/><line x1="317.07" y1="244.236" x2="317.07" y2="248.028"/><line x1="315.174" y1="244.236" x2="318.966" y2="248.028"/><line x1="315.174" y1="248.028" x2="318.966" y2="244.236"/>
<line x1="315.627" y1="251.705" x2="319.419" y2="251.705"/><line x1="317.523" y1="249.809" x2="317.523" y2="253.601"/><line x1="315.627" y1="249.809" x2="319.419" y2="253.601"/><line x1="315.627" y1="253.601" x2="319.419" y2="249.809"/>
<line x1="316.08" y1="254.866" x2="319.872" y2="254.866"/><line x1="317.976" y1="252.97" x2="317.976" y2="256.762"/><line x1="316.08" y1="252.97" x2="319.872" y2="256.762"/><line x1="316.08" y1="256.762" x2="319.872" y2="252.97"/>
<line x1="316.532" y1="248.233" x2="320.325" y2="248.233"/><line x1="318.428" y1="246.337" x2="318.428" y2="250.129"/><line x1="316.532" y1="246.337" x2="320.325" y2="250.129"/><line x1="316.532" y1="250.129" x2="320.325" y2="246.337"/>
<line x1="316.985" y1="247.51" x2="320.777" y2="247.51"/><line x1="318.881" y1="245.614" x2="318.881" y2="249.406"/><line x1="316.985" y1="245.614" x2="320.777" y2="249.406"/><line x1="316.985" y1="249.406" x2="320.777" y2="245.614"/>
<line x1="317.438" y1="257.49" x2="321.23" y2="257.49"/><line x1="319.334" y1="255.594" x2="319.334" y2="259.386"/><line x1="317.438" y1="255.594" x2="321.23" y2="259.386"/><line x1="317.438" y1="259.386" x2="321.23" y2="255.594"/>
<line x1="317.89" y1="257.337" x2="321.683" y2="257.337"/><line x1="319.786" y1="255.441" x2="319.786" y2="259.233"/><line x1="317.89" y1="255.441" x2="321.683" y2="259.233"/><line x1="317.89" y1="259.233" x2="321.683" y2="255.441"/>
<line x1="318.343" y1="268.136" x2="322.135" y2="268.136"/><line x1="320.239" y1="266.24" x2="320.239" y2="270.032"/><line x1="318.343" y1="266.24" x2="322.135" y2="270.032"/><line x1="318.343" y1="270.032" x2="322.135" y2="266.24"/>
<line x1="318.796" y1="269.166" x2="322.588" y2="269.166"/><line x1="320.692" y1="267.27" x2="320.692" y2="271.062"/><line x1="318.796" y1="267.27" x2="322.588" y2="271.062"/><line x1="318.796" y1="271.062" x2="322.588" y2="267.27"/>
<line x1="319.248" y1="261.612" x2="323.041" y2="261.612"/><line x1="321.145" y1="259.716" x2="321.145" y2="263.509"/><line x1="319.248" y1="259.716" x2="323.041" y2="263.509"/><line x1="319.248" y1="263.509" x2="323.041" y2="259.716"/>
<line x1="319.701" y1="244.37" x2="323.493" y2="244.37"/><line x1="321.597" y1="242.474" x2="321.597" y2="246.266"/><line x1="319.701" y1="242.474" x2="323.493" y2="246.266"/><line x1="319.701" y1="246.266" x2="323.493" y2="242.474"/>
<line x1="320.154" y1="250.982" x2="323.946" y2="250.982"/><line x1="322.05" y1="249.086" x2="322.05" y2="252.878"/><line x1="320.154" y1="249.086" x2="323.946" y2="252.878"/><line x1="320.154" y1="252.878" x2="323.946" y2="249.086"/>
<line x1="320.607" y1="246.797" x2="324.399" y2="246.797"/><line x1="322.503" y1="244.901" x2="322.503" y2="248.693"/><line x1="320.607" y1="244.901" x2="324.399" y2="248.693"/><line x1="320.607" y1="248.693" x2="324.399" y2="244.901"/>
<line x1="321.059" y1="238.112" x2="324.851" y2="238.112"/><line x1="322.955" y1="236.216" x2="322.955" y2="240.008"/><line x1="321.059" y1="236.216" x2="324.851" y2="240.008"/><line x1="321.059" y1="240.008" x2="324.851" y2="236.216"/>
<line x1="321.512" y1="231.595" x2="325.304" y2="231.595"/><line x1="323.408" y1="229.699" x2="323.408" y2="233.491"/><line x1="321.512" y1="229.699" x2="325.304" y2="233.491"/><line x1="321.512" y1="233.491" x2="325.304" y2="229.699"/>
<line x1="321.965" y1="225.981" x2="325.757" y2="225.981"/><line x1="323.861" y1="224.085" x2="323.861" y2="227.877"/><line x1="321.965" y1="224.085" x2="325.757" y2="227.877"/><line x1="321.965" y1="227.877" x2="325.757" y2="224.085"/>
<line x1="322.417" y1="215.117" x2="326.209" y2="215.117"/><line x1="324.313" y1="213.221" x2="324.313" y2="217.013"/><line x1="322.417" y1="213.221" x2="326.209" y2="217.013"/><line x1="322.417" y1="217.013" x2="326.209" y2="213.221"/>
<line x1="322.87" y1="221.258" x2="326.662" y2="221.258"/><line x1="324.766" y1="219.362" x2="324.766" y2="223.154"/><line x1="322.87" y1="219.362" x2="326.662" y2="223.154"/><line x1="322.87" y1="223.154" x2="326.662" y2="219.362"/>
<line x1="323.323" y1="227.099" x2="327.115" y2="227.099"/><line x1="325.219" y1="225.203" x2="325.219" y2="228.995"/><line x1="323.323" y1="225.203" x2="327.115" y2="228.995"/><line x1="323.323" y1="228.995" x2="327.115" y2="225.203"/>
<line x1="323.775" y1="218.545" x2="327.567" y2="218.545"/><line x1="325.671" y1="216.649" x2="325.671" y2="220.441"/><line x1="323.775" y1="216.649" x2="327.567" y2="220.441"/><line x1="323.775" y1="220.441" x2="327.567" y2="216.649"/>
<line x1="324.228" y1="213.267" x2="328.02" y2="213.267"/><line x1="326.124" y1="211.371" x2="326.124" y2="215.163"/><line x1="324.228" y1="211.371" x2="328.02" y2="215.163"/><line x1="324.228" y1="215.163" x2="328.02" y2="211.371"/>
<line x1="324.681" y1="209.623" x2="328.473" y2="209.623"/><line x1="326.577" y1="207.727" x2="326.577" y2="211.52"/><line x1="324.681" y1="207.727" x2="328.473" y2="211.52"/><line x1="324.681" y1="211.52" x2="328.473" y2="207.727"/>
<line x1="325.133" y1="204.048" x2="328.926" y2="204.048"/><line x1="327.029" y1="202.152" x2="327.029" y2="205.944"/><line x1="325.133" y1="202.152" x2="328.926" y2="205.944"/><line x1="325.133" y1="205.944" x2="328.926" y2="202.152"/>
<line x1="325.586" y1="208.9" x2="329.378" y2="208.9"/><line x1="327.482" y1="207.004" x2="327.482" y2="210.796"/><line x1="325.586" y1="207.004" x2="329.378" y2="210.796"/><line x1="325.586" y1="210.796" x2="329.378" y2="207.004"/>
<line x1="326.039" y1="212.44" x2="329.831" y2="212.44"/><line x1="327.935" y1="210.544" x2="327.935" y2="214.336"/><line x1="326.039" y1="210.544" x2="329.831" y2="214.336"/><line x1="326.039" y1="214.336" x2="329.831" y2="210.544"/>
<line x1="326.491" y1="197.537" x2="330.284" y2="197.537"/><line x1="328.387" y1="195.641" x2="328.387" y2="199.433"/><line x1="326.491" y1="195.641" x2="330.284" y2="199.433"/><line x1="326.491" y1="199.433" x2="330.284" y2="195.641"/>
<line x1="326.944" y1="203.266" x2="330.736" y2="203.266"/><line x1="328.84" y1="201.37" x2="328.84" y2="205.162"/><line x1="326.944" y1="201.37" x2="330.736" y2="205.162"/><line x1="326.944" y1="205.162" x2="330.736" y2="201.37"/>
<line x1="327.397" y1="203.528" x2="331.189" y2="203.528"/><line x1="329.293" y1="201.632" x2="329.293" y2="205.424"/><line x1="327.397" y1="201.632" x2="331.189" y2="205.424"/><line x1="327.397" y1="205.424" x2="331.189" y2="201.632"/>
<line x1="327.849" y1="221.452" x2="331.642" y2="221.452"/><line x1="329.746" y1="219.556" x2="329.746" y2="223.348"/><line x1="327.849" y1="219.556" x2="331.642" y2="223.348"/><line x1="327.849" y1="223.348" x2="331.642" y2="219.556"/>
<line x1="328.302" y1="230.832" x2="332.094" y2="230.832"/><line x1="330.198" y1="228.936" x2="330.198" y2="232.728"/><line x1="328.302" y1="228.936" x2="332.094" y2="232.728"/><line x1="328.302" y1="232.728" x2="332.094" y2="228.936"/>
<line x1="328.755" y1="214.022" x2="332.547" y2="214.022"/><line x1="330.651" y1="212.126" x2="330.651" y2="215.918"/><line x1="328.755" y1="212.126" x2="332.547" y2="215.918"/><line x1="328.755" y1="215.918" x2="332.547" y2="212.126"/>
<line x1="329.207" y1="215.806" x2="333" y2="215.806"/><line x1="331.104" y1="213.91" x2="331.104" y2="217.702"/><line x1="329.207" y1="213.91" x2="333" y2="217.702"/><line x1="329.207" y1="217.702" x2="333" y2="213.91"/>
<line x1="329.66" y1="212.851" x2="333.452" y2="212.851"/><line x1="331.556" y1="210.955" x2="331.556" y2="214.747"/><line x1="329.66" y1="210.955" x2="333.452" y2="214.747"/><line x1="329.66" y1="214.747" x2="333.452" y2="210.955"/>
<line x1="330.113" y1="205.661" x2="333.905" y2="205.661"/><line x1="332.009" y1="203.764" x2="332.009" y2="207.557"/><line x1="330.113" y1="203.764" x2="333.905" y2="207.557"/><line x1="330.113" y1="207.557" x2="333.905" y2="203.764"/>
<line x1="330.566" y1="206.828" x2="334.358" y2="206.828"/><line x1="332.462" y1="204.932" x2="332.462" y2="208.724"/><line x1="330.566" y1="204.932" x2="334.358" y2="208.724"/><line x1="330.566" y1="208.724" x2="334.358" y2="204.932"/>
<line x1="331.018" y1="202.028" x2="334.81" y2="202.028"/><line x1="332.914" y1="200.132" x2="332.914" y2="203.924"/><line x1="331.018" y1="200.132" x2="334.81" y2="203.924"/><line x1="331.018" y1="203.924" x2="334.81" y2="200.132"/>
<line x1="331.471" y1="209.107" x2="335.263" y2="209.107"/><line x1="333.367" y1="207.211" x2="333.367" y2="211.003"/><line x1="331.471" y1="207.211" x2="335.263" y2="211.003"/><line x1="331.471" y1="211.003" x2="335.263" y2="207.211"/>
<line x1="331.924" y1="212.982" x2="335.716" y2="212.982"/><line x1="333.82" y1="211.086" x2="333.82" y2="214.878"/><line x1="331.924" y1="211.086" x2="335.716" y2="214.878"/><line x1="331.924" y1="214.878" x2="335.716" y2="211.086"/>
<line x1="332.376" y1="210.214" x2="336.168" y2="210.214"/><line x1="334.272" y1="208.318" x2="334.272" y2="212.11"/><line x1="332.376" y1="208.318" x2="336.168" y2="212.11"/><line x1="332.376" y1="212.11" x2="336.168" y2="208.318"/>
<line x1="332.829" y1="210.156" x2="336.621" y2="210.156"/><line x1="334.725" y1="208.26" x2="334.725" y2="212.052"/><line x1="332.829" y1="208.26" x2="336.621" y2="212.052"/><line x1="332.829" y1="212.052" x2="336.621" y2="208.26"/>
<line x1="333.282" y1="207.339" x2="337.074" y2="207.339"/><line x1="335.178" y1="205.442" x2="335.178" y2="209.235"/><line x1="333.282" y1="205.442" x2="337.074" y2="209.235"/><line x1="333.282" y1="209.235" x2="337.074" y2="205.442"/>
<line x1="333.734" y1="217.73" x2="337.526" y2="217.73"/><line x1="335.63" y1="215.834" x2="335.63" y2="219.627"/><line x1="333.734" y1="215.834" x2="337.526" y2="219.627"/><line x1="333.734" y1="219.627" x2="337.526" y2="215.834"/>
<line x1="334.187" y1="229.729" x2="337.979" y2="229.729"/><line x1="336.083" y1="227.833" x2="336.083" y2="231.625"/><line x1="334.187" y1="227.833" x2="337.979" y2="231.625"/><line x1="334.187" y1="231.625" x2="337.979" y2="227.833"/>
<line x1="334.64" y1="227.892" x2="338.432" y2="227.892"/><line x1="336.536" y1="225.996" x2="336.536" y2="229.788"/><line x1="334.64" y1="225.996" x2="338.432" y2="229.788"/><line x1="334.64" y1="229.788" x2="338.432" y2="225.996"/>
<line x1="335.092" y1="227.266" x2="338.885" y2="227.266"/><line x1="336.988" y1="225.37" x2="336.988" y2="229.162"/><line x1="335.092" y1="225.37" x2="338.885" y2="229.162"/><line x1="335.092" y1="229.162" x2="338.885" y2="225.37"/>
<line x1="335.545" y1="220.284" x2="339.337" y2="220.284"/><line x1="337.441" y1="218.387" x2="337.441" y2="222.18"/><line x1="335.545" y1="218.387" x2="339.337" y2="222.18"/><line x1="335.545" y1="222.18" x2="339.337" y2="218.387"/>
<line x1="335.998" y1="218.037" x2="339.79" y2="218.037"/><line x1="337.894" y1="216.141" x2="337.894" y2="219.933"/><line x1="335.998" y1="216.141" x2="339.79" y2="219.933"/><line x1="335.998" y1="219.933" x2="339.79" y2="216.141"/>
<line x1="336.45" y1="215.889" x2="340.243" y2="215.889"/><line x1="338.346" y1="213.993" x2="338.346" y2="217.785"/><line x1="336.45" y1="213.993" x2="340.243" y2="217.785"/><line x1="336.45" y1="217.785" x2="340.243" y2="213.993"/>
<line x1="336.903" y1="228.294" x2="340.695" y2="228.294"/><line x1="338.799" y1="226.398" x2="338.799" y2="230.19"/><line x1="336.903" y1="226.398" x2="340.695" y2="230.19"/><line x1="336.903" y1="230.19" x2="340.695" y2="226.398"/>
<line x1="337.356" y1="219" x2="341.148" y2="219"/><line x1="339.252" y1="217.104" x2="339.252" y2="220.896"/><line x1="337.356" y1="217.104" x2="341.148" y2="220.896"/><line x1="337.356" y1="220.896" x2="341.148" y2="217.104"/>
<line x1="337.808" y1="221.869" x2="341.601" y2="221.869"/><line x1="339.705" y1="219.973" x2="339.705" y2="223.765"/><line x1="337.808" y1="219.973" x2="341.601" y2="223.765"/><line x1="337.808" y1="223.765" x2="341.601" y2="219.973"/>
<line x1="338.261" y1="209.382" x2="342.053" y2="209.382"/><line x1="340.157" y1="207.486" x2="340.157" y2="211.278"/><line x1="338.261" y1="207.486" x2="342.053" y2="211.278"/><line x1="338.261" y1="211.278" x2="342.053" y2="207.486"/>
<line x1="338.714" y1="209.704" x2="342.506" y2="209.704"/><line x1="340.61" y1="207.808" x2="340.61" y2="211.6"/><line x1="338.714" y1="207.808" x2="342.506" y2="211.6"/><line x1="338.714" y1="211.6" x2="342.506" y2="207.808"/>
<line x1="339.167" y1="217.493" x2="342.959" y2="217.493"/><line x1="341.063" y1="215.597" x2="341.063" y2="219.389"/><line x1="339.167" y1="215.597" x2="342.959" y2="219.389"/><line x1="339.167" y1="219.389" x2="342.959" y2="215.597"/>
<line x1="339.619" y1="222.636" x2="343.411" y2="222.636"/><line x1="341.515" y1="220.74" x2="341.515" y2="224.532"/><line x1="339.619" y1="220.74" x2="343.411" y2="224.532"/><line x1="339.619" y1="224.532" x2="343.411" y2="220.74"/>
<line x1="340.072" y1="216.035" x2="343.864" y2="216.035"/><line x1="341.968" y1="214.139" x2="341.968" y2="217.931"/><line x1="340.072" y1="214.139" x2="343.864" y2="217.931"/><line x1="340.072" y1="217.931" x2="343.864" y2="214.139"/>
<line x1="340.525" y1="211.77" x2="344.317" y2="211.77"/><line x1="342.421" y1="209.874" x2="342.421" y2="213.667"/><line x1="340.525" y1="209.874" x2="344.317" y2="213.667"/><line x1="340.525" y1="213.667" x2="344.317" y2="209.874"/>
<line x1="340.977" y1="218.77" x2="344.769" y2="218.77"/><line x1="342.873" y1="216.873" x2="342.873" y2="220.666"/><line x1="340.977" y1="216.873" x2="344.769" y2="220.666"/><line x1="340.977" y1="220.666" x2="344.769" y2="216.873"/>
<line x1="341.43" y1="211.948" x2="345.222" y2="211.948"/><line x1="343.326" y1="210.052" x2="343.326" y2="213.844"/><line x1="341.43" y1="210.052" x2="345.222" y2="213.844"/><line x1="341.43" y1="213.844" x2="345.222" y2="210.052"/>
<line x1="341.883" y1="206.204" x2="345.675" y2="206.204"/><line x1="343.779" y1="204.308" x2="343.779" y2="208.1"/><line x1="341.883" y1="204.308" x2="345.675" y2="208.1"/><line x1="341.883" y1="208.1" x2="345.675" y2="204.308"/>
<line x1="342.335" y1="214.014" x2="346.127" y2="214.014"/><line x1="344.231" y1="212.118" x2="344.231" y2="215.91"/><line x1="342.335" y1="212.118" x2="346.127" y2="215.91"/><line x1="342.335" y1="215.91" x2="346.127" y2="212.118"/>
<line x1="342.788" y1="214.209" x2="346.58" y2="214.209"/><line x1="344.684" y1="212.312" x2="344.684" y2="216.105"/><line x1="342.788" y1="212.312" x2="346.58" y2="216.105"/><line x1="342.788" y1="216.105" x2="346.58" y2="212.312"/>
<line x1="343.241" y1="219.808" x2="347.033" y2="219.808"/><line x1="345.137" y1="217.912" x2="345.137" y2="221.704"/><line x1="343.241" y1="217.912" x2="347.033" y2="221.704"/><line x1="343.241" y1="221.704" x2="347.033" y2="217.912"/>
<line x1="343.693" y1="214.087" x2="347.486" y2="214.087"/><line x1="345.589" y1="212.191" x2="345.589" y2="215.983"/><line x1="343.693" y1="212.191" x2="347.486" y2="215.983"/><line x1="343.693" y1="215.983" x2="347.486" y2="212.191"/>
<line x1="344.146" y1="213.813" x2="347.938" y2="213.813"/><line x1="346.042" y1="211.917" x2="346.042" y2="215.709"/><line x1="344.146" y1="211.917" x2="347.938" y2="215.709"/><line x1="344.146" y1="215.709" x2="347.938" y2="211.917"/>
<line x1="344.599" y1="214.642" x2="348.391" y2="214.642"/><line x1="346.495" y1="212.746" x2="346.495" y2="216.538"/><line x1="344.599" y1="212.746" x2="348.391" y2="216.538"/><line x1="344.599" y1="216.538" x2="348.391" y2="212.746"/>
<line x1="345.051" y1="201.457" x2="348.844" y2="201.457"/><line x1="346.947" y1="199.561" x2="346.947" y2="203.353"/><line x1="345.051" y1="199.561" x2="348.844" y2="203.353"/><line x1="345.051" y1="203.353" x2="348.844" y2="199.561"/>
<line x1="345.504" y1="208.612" x2="349.296" y2="208.612"/><line x1="347.4" y1="206.716" x2="347.4" y2="210.508"/><line x1="345.504" y1="206.716" x2="349.296" y2="210.508"/><line x1="345.504" y1="210.508" x2="349.296" y2="206.716"/>
<line x1="345.957" y1="204.794" x2="349.749" y2="204.794"/><line x1="347.853" y1="202.897" x2="347.853" y2="206.69"/><line x1="345.957" y1="202.897" x2="349.749" y2="206.69"/><line x1="345.957" y1="206.69" x2="349.749" y2="202.897"/>
<line x1="346.409" y1="197.801" x2="350.202" y2="197.801"/><line x1="348.306" y1="195.905" x2="348.306" y2="199.697"/><line x1="346.409" y1="195.905" x2="350.202" y2="199.697"/><line x1="346.409" y1="199.697" x2="350.202" y2="195.905"/>
<line x1="346.862" y1="191.515" x2="350.654" y2="191.515"/><line x1="348.758" y1="189.618" x2="348.758" y2="193.411"/><line x1="346.862" y1="189.618" x2="350.654" y2="193.411"/><line x1="346.862" y1="193.411" x2="350.654" y2="189.618"/>
<line x1="347.315" y1="192.473" x2="351.107" y2="192.473"/><line x1="349.211" y1="190.577" x2="349.211" y2="194.369"/><line x1="347.315" y1="190.577" x2="351.107" y2="194.369"/><line x1="347.315" y1="194.369" x2="351.107" y2="190.577"/>
<line x1="347.768" y1="200.872" x2="351.56" y2="200.872"/><line x1="349.664" y1="198.976" x2="349.664" y2="202.768"/><line x1="347.768" y1="198.976" x2="351.56" y2="202.768"/><line x1="347.768" y1="202.768" x2="351.56" y2="198.976"/>
<line x1="348.22" y1="187.75" x2="352.012" y2="187.75"/><line x1="350.116" y1="185.854" x2="350.116" y2="189.646"/><line x1="348.22" y1="185.854" x2="352.012" y2="189.646"/><line x1="348.22" y1="189.646" x2="352.012" y2="185.854"/>
<line x1="348.673" y1="180.538" x2="352.465" y2="180.538"/><line x1="350.569" y1="178.642" x2="350.569" y2="182.434"/><line x1="348.673" y1="178.642" x2="352.465" y2="182.434"/><line x1="348.673" y1="182.434" x2="352.465" y2="178.642"/>
<line x1="349.126" y1="170.725" x2="352.918" y2="170.725"/><line x1="351.022" y1="168.829" x2="351.022" y2="172.621"/><line x1="349.126" y1="168.829" x2="352.918" y2="172.621"/><line x1="349.126" y1="172.621" x2="352.918" y2="168.829"/>
<line x1="349.578" y1="161.908" x2="353.37" y2="161.908"/><line x1="351.474" y1="160.012" x2="351.474" y2="163.805"/><line x1="349.578" y1="160.012" x2="353.37" y2="163.805"/><line x1="349.578" y1="163.805" x2="353.37" y2="160.012"/>
<line x1="350.031" y1="152.151" x2="353.823" y2="152.151"/><line x1="351.927" y1="150.255" x2="351.927" y2="154.047"/><line x1="350.031" y1="150.255" x2="353.823" y2="154.047"/><line x1="350.031" y1="154.047" x2="353.823" y2="150.255"/>
<line x1="350.484" y1="149.257" x2="354.276" y2="149.257"/><line x1="352.38" y1="147.361" x2="352.38" y2="151.153"/><line x1="350.484" y1="147.361" x2="354.276" y2="151.153"/><line x1="350.484" y1="151.153" x2="354.276" y2="147.361"/>
<line x1="350.936" y1="145.696" x2="354.728" y2="145.696"/><line x1="352.832" y1="143.8" x2="352.832" y2="147.592"/><line x1="350.936" y1="143.8" x2="354.728" y2="147.592"/><line x1="350.936" y1="147.592" x2="354.728" y2="143.8"/>
<line x1="351.389" y1="135.784" x2="355.181" y2="135.784"/><line x1="353.285" y1="133.888" x2="353.285" y2="137.68"/><line x1="351.389" y1="133.888" x2="355.181" y2="137.68"/><line x1="351.389" y1="137.68" x2="355.181" y2="133.888"/>
<line x1="351.842" y1="129.196" x2="355.634" y2="129.196"/><line x1="353.738" y1="127.3" x2="353.738" y2="131.093"/><line x1="351.842" y1="127.3" x2="355.634" y2="131.093"/><line x1="351.842" y1="131.093" x2="355.634" y2="127.3"/>
<line x1="352.294" y1="127.051" x2="356.087" y2="127.051"/><line x1="354.19" y1="125.155" x2="354.19" y2="128.948"/><line x1="352.294" y1="125.155" x2="356.087" y2="128.948"/><line x1="352.294" y1="128.948" x2="356.087" y2="125.155"/>
<line x1="352.747" y1="130.857" x2="356.539" y2="130.857"/><line x1="354.643" y1="128.961" x2="354.643" y2="132.753"/><line x1="352.747" y1="128.961" x2="356.539" y2="132.753"/><line x1="352.747" y1="132.753" x2="356.539" y2="128.961"/>
<line x1="353.2" y1="122.353" x2="356.992" y2="122.353"/><line x1="355.096" y1="120.457" x2="355.096" y2="124.249"/><line x1="353.2" y1="120.457" x2="356.992" y2="124.249"/><line x1="353.2" y1="124.249" x2="356.992" y2="120.457"/>
<line x1="353.652" y1="115.555" x2="357.445" y2="115.555"/><line x1="355.548" y1="113.659" x2="355.548" y2="117.451"/><line x1="353.652" y1="113.659" x2="357.445" y2="117.451"/><line x1="353.652" y1="117.451" x2="357.445" y2="113.659"/>
<line x1="354.105" y1="112.675" x2="357.897" y2="112.675"/><line x1="356.001" y1="110.779" x2="356.001" y2="114.571"/><line x1="354.105" y1="110.779" x2="357.897" y2="114.571"/><line x1="354.105" y1="114.571" x2="357.897" y2="110.779"/>
<line x1="354.558" y1="114.844" x2="358.35" y2="114.844"/><line x1="356.454" y1="112.948" x2="356.454" y2="116.74"/><line x1="354.558" y1="112.948" x2="358.35" y2="116.74"/><line x1="354.558" y1="116.74" x2="358.35" y2="112.948"/>
<line x1="355.01" y1="116.707" x2="358.803" y2="116.707"/><line x1="356.907" y1="114.811" x2="356.907" y2="118.603"/><line x1="355.01" y1="114.811" x2="358.803" y2="118.603"/><line x1="355.01" y1="118.603" x2="358.803" y2="114.811"/>
<line x1="355.463" y1="110.816" x2="359.255" y2="110.816"/><line x1="357.359" y1="108.92" x2="357.359" y2="112.712"/><line x1="355.463" y1="108.92" x2="359.255" y2="112.712"/><line x1="355.463" y1="112.712" x2="359.255" y2="108.92"/>
<line x1="355.916" y1="104.269" x2="359.708" y2="104.269"/><line x1="357.812" y1="102.373" x2="357.812" y2="106.165"/><line x1="355.916" y1="102.373" x2="359.708" y2="106.165"/><line x1="355.916" y1="106.165" x2="359.708" y2="102.373"/>
<line x1="356.368" y1="106.442" x2="360.161" y2="106.442"/><line x1="358.265" y1="104.546" x2="358.265" y2="108.338"/><line x1="356.368" y1="104.546" x2="360.161" y2="108.338"/><line x1="356.368" y1="108.338" x2="360.161" y2="104.546"/>
<line x1="356.821" y1="107.824" x2="360.613" y2="107.824"/><line x1="358.717" y1="105.928" x2="358.717" y2="109.72"/><line x1="356.821" y1="105.928" x2="360.613" y2="109.72"/><line x1="356.821" y1="109.72" x2="360.613" y2="105.928"/>
<line x1="357.274" y1="106.397" x2="361.066" y2="106.397"/><line x1="359.17" y1="104.501" x2="359.17" y2="108.293"/><line x1="357.274" y1="104.501" x2="361.066" y2="108.293"/><line x1="357.274" y1="108.293" x2="361.066" y2="104.501"/>
<line x1="357.727" y1="106.873" x2="361.519" y2="106.873"/><line x1="359.623" y1="104.977" x2="359.623" y2="108.769"/><line x1="357.727" y1="104.977" x2="361.519" y2="108.769"/><line x1="357.727" y1="108.769" x2="361.519" y2="104.977"/>
<line x1="358.179" y1="108.454" x2="361.971" y2="108.454"/><line x1="360.075" y1="106.558" x2="360.075" y2="110.35"/><line x1="358.179" y1="106.558" x2="361.971" y2="110.35"/><line x1="358.179" y1="110.35" x2="361.971" y2="106.558"/>
<line x1="358.632" y1="101.833" x2="362.424" y2="101.833"/><line x1="360.528" y1="99.9369" x2="360.528" y2="103.729"/><line x1="358.632" y1="99.9369" x2="362.424" y2="103.729"/><line x1="358.632" y1="103.729" x2="362.424" y2="99.9369"/>
<line x1="359.085" y1="105.709" x2="362.877" y2="105.709"/><line x1="360.981" y1="103.813" x2="360.981" y2="107.606"/><line x1="359.085" y1="103.813" x2="362.877" y2="107.606"/><line x1="359.085" y1="107.606" x2="362.877" y2="103.813"/>
<line x1="359.537" y1="104.372" x2="363.329" y2="104.372"/><line x1="361.433" y1="102.475" x2="361.433" y2="106.268"/><line x1="359.537" y1="102.475" x2="363.329" y2="106.268"/><line x1="359.537" y1="106.268" x2="363.329" y2="102.475"/>
<line x1="359.99" y1="105.551" x2="363.782" y2="105.551"/><line x1="361.886" y1="103.655" x2="361.886" y2="107.447"/><line x1="359.99" y1="103.655" x2="363.782" y2="107.447"/><line x1="359.99" y1="107.447" x2="363.782" y2="103.655"/>
<line x1="360.443" y1="102.066" x2="364.235" y2="102.066"/><line x1="362.339" y1="100.17" x2="362.339" y2="103.962"/><line x1="360.443" y1="100.17" x2="364.235" y2="103.962"/><line x1="360.443" y1="103.962" x2="364.235" y2="100.17"/>
<line x1="360.895" y1="105.431" x2="364.688" y2="105.431"/><line x1="362.791" y1="103.535" x2="362.791" y2="107.327"/><line x1="360.895" y1="103.535" x2="364.688" y2="107.327"/><line x1="360.895" y1="107.327" x2="364.688" y2="103.535"/>
<line x1="361.348" y1="100.612" x2="365.14" y2="100.612"/><line x1="363.244" y1="98.7161" x2="363.244" y2="102.508"/><line x1="361.348" y1="98.7161" x2="365.14" y2="102.508"/><line x1="361.348" y1="102.508" x2="365.14" y2="98.7161"/>
<line x1="361.801" y1="106.097" x2="365.593" y2="106.097"/><line x1="363.697" y1="104.201" x2="363.697" y2="107.993"/><line x1="361.801" y1="104.201" x2="365.593" y2="107.993"/><line x1="361.801" y1="107.993" x2="365.593" y2="104.201"/>
<line x1="362.253" y1="97.4348" x2="366.046" y2="97.4348"/><line x1="364.149" y1="95.5387" x2="364.149" y2="99.3308"/><line x1="362.253" y1="95.5387" x2="366.046" y2="99.3308"/><line x1="362.253" y1="99.3308" x2="366.046" y2="95.5387"/>
<line x1="362.706" y1="100.266" x2="366.498" y2="100.266"/><line x1="364.602" y1="98.3694" x2="364.602" y2="102.162"/><line x1="362.706" y1="98.3694" x2="366.498" y2="102.162"/><line x1="362.706" y1="102.162" x2="366.498" y2="98.3694"/>
<line x1="363.159" y1="105.888" x2="366.951" y2="105.888"/><line x1="365.055" y1="103.992" x2="365.055" y2="107.784"/><line x1="363.159" y1="103.992" x2="366.951" y2="107.784"/><line x1="363.159" y1="107.784" x2="366.951" y2="103.992"/>
<line x1="363.611" y1="105.498" x2="367.404" y2="105.498"/><line x1="365.508" y1="103.602" x2="365.508" y2="107.394"/><line x1="363.611" y1="103.602" x2="367.404" y2="107.394"/><line x1="363.611" y1="107.394" x2="367.404" y2="103.602"/>
<line x1="364.064" y1="102.131" x2="367.856" y2="102.131"/><line x1="365.96" y1="100.235" x2="365.96" y2="104.028"/><line x1="364.064" y1="100.235" x2="367.856" y2="104.028"/><line x1="364.064" y1="104.028" x2="367.856" y2="100.235"/>
<line x1="364.517" y1="105.493" x2="368.309" y2="105.493"/><line x1="366.413" y1="103.597" x2="366.413" y2="107.389"/><line x1="364.517" y1="103.597" x2="368.309" y2="107.389"/><line x1="364.517" y1="107.389" x2="368.309" y2="103.597"/>
<line x1="364.969" y1="101.031" x2="368.762" y2="101.031"/><line x1="366.866" y1="99.1347" x2="366.866" y2="102.927"/><line x1="364.969" y1="99.1347" x2="368.762" y2="102.927"/><line x1="364.969" y1="102.927" x2="368.762" y2="99.1347"/>
<line x1="365.422" y1="94.0201" x2="369.214" y2="94.0201"/><line x1="367.318" y1="92.1241" x2="367.318" y2="95.9162"/><line x1="365.422" y1="92.1241" x2="369.214" y2="95.9162"/><line x1="365.422" y1="95.9162" x2="369.214" y2="92.1241"/>
<line x1="365.875" y1="87.9799" x2="369.667" y2="87.9799"/><line x1="367.771" y1="86.0838" x2="367.771" y2="89.876"/><line x1="365.875" y1="86.0838" x2="369.667" y2="89.876"/><line x1="365.875" y1="89.876" x2="369.667" y2="86.0838"/>
<line x1="366.328" y1="88.9187" x2="370.12" y2="88.9187"/><line x1="368.224" y1="87.0227" x2="368.224" y2="90.8148"/><line x1="366.328" y1="87.0227" x2="370.12" y2="90.8148"/><line x1="366.328" y1="90.8148" x2="370.12" y2="87.0227"/>
<line x1="366.78" y1="84.6493" x2="370.572" y2="84.6493"/><line x1="368.676" y1="82.7532" x2="368.676" y2="86.5453"/><line x1="366.78" y1="82.7532" x2="370.572" y2="86.5453"/><line x1="366.78" y1="86.5453" x2="370.572" y2="82.7532"/>
<line x1="367.233" y1="74.3456" x2="371.025" y2="74.3456"/><line x1="369.129" y1="72.4495" x2="369.129" y2="76.2417"/><line x1="367.233" y1="72.4495" x2="371.025" y2="76.2417"/><line x1="367.233" y1="76.2417" x2="371.025" y2="72.4495"/>
<line x1="367.686" y1="69.8667" x2="371.478" y2="69.8667"/><line x1="369.582" y1="67.9707" x2="369.582" y2="71.7628"/><line x1="367.686" y1="67.9707" x2="371.478" y2="71.7628"/><line x1="367.686" y1="71.7628" x2="371.478" y2="67.9707"/>
<line x1="368.138" y1="76.1347" x2="371.93" y2="76.1347"/><line x1="370.034" y1="74.2386" x2="370.034" y2="78.0308"/><line x1="368.138" y1="74.2386" x2="371.93" y2="78.0308"/><line x1="368.138" y1="78.0308" x2="371.93" y2="74.2386"/>
<line x1="368.591" y1="73.7799" x2="372.383" y2="73.7799"/><line x1="370.487" y1="71.8838" x2="370.487" y2="75.676"/><line x1="368.591" y1="71.8838" x2="372.383" y2="75.676"/><line x1="368.591" y1="75.676" x2="372.383" y2="71.8838"/>
<line x1="369.044" y1="69.9892" x2="372.836" y2="69.9892"/><line x1="370.94" y1="68.0931" x2="370.94" y2="71.8853"/><line x1="369.044" y1="68.0931" x2="372.836" y2="71.8853"/><line x1="369.044" y1="71.8853" x2="372.836" y2="68.0931"/>
<line x1="369.496" y1="69.9555" x2="373.288" y2="69.9555"/><line x1="371.392" y1="68.0594" x2="371.392" y2="71.8516"/><line x1="369.496" y1="68.0594" x2="373.288" y2="71.8516"/><line x1="369.496" y1="71.8516" x2="373.288" y2="68.0594"/>
<line x1="369.949" y1="62.4438" x2="373.741" y2="62.4438"/><line x1="371.845" y1="60.5477" x2="371.845" y2="64.3399"/><line x1="369.949" y1="60.5477" x2="373.741" y2="64.3399"/><line x1="369.949" y1="64.3399" x2="373.741" y2="60.5477"/>
<line x1="370.402" y1="75.7079" x2="374.194" y2="75.7079"/><line x1="372.298" y1="73.8118" x2="372.298" y2="77.604"/><line x1="370.402" y1="73.8118" x2="374.194" y2="77.604"/><line x1="370.402" y1="77.604" x2="374.194" y2="73.8118"/>
<line x1="370.854" y1="77.1939" x2="374.647" y2="77.1939"/><line x1="372.75" y1="75.2978" x2="372.75" y2="79.09"/><line x1="370.854" y1="75.2978" x2="374.647" y2="79.09"/><line x1="370.854" y1="79.09" x2="374.647" y2="75.2978"/>
<line x1="371.307" y1="77.1799" x2="375.099" y2="77.1799"/><line x1="373.203" y1="75.2838" x2="373.203" y2="79.0759"/><line x1="371.307" y1="75.2838" x2="375.099" y2="79.0759"/><line x1="371.307" y1="79.0759" x2="375.099" y2="75.2838"/>
<line x1="371.76" y1="73.7664" x2="375.552" y2="73.7664"/><line x1="373.656" y1="71.8703" x2="373.656" y2="75.6625"/><line x1="371.76" y1="71.8703" x2="375.552" y2="75.6625"/><line x1="371.76" y1="75.6625" x2="375.552" y2="71.8703"/>
<line x1="372.212" y1="58.8225" x2="376.005" y2="58.8225"/><line x1="374.108" y1="56.9264" x2="374.108" y2="60.7186"/><line x1="372.212" y1="56.9264" x2="376.005" y2="60.7186"/><line x1="372.212" y1="60.7186" x2="376.005" y2="56.9264"/>
<line x1="372.665" y1="56.0178" x2="376.457" y2="56.0178"/><line x1="374.561" y1="54.1217" x2="374.561" y2="57.9139"/><line x1="372.665" y1="54.1217" x2="376.457" y2="57.9139"/><line x1="372.665" y1="57.9139" x2="376.457" y2="54.1217"/>
<line x1="373.118" y1="45.8912" x2="376.91" y2="45.8912"/><line x1="375.014" y1="43.9951" x2="375.014" y2="47.7872"/><line x1="373.118" y1="43.9951" x2="376.91" y2="47.7872"/><line x1="373.118" y1="47.7872" x2="376.91" y2="43.9951"/>
<line x1="373.57" y1="46.4668" x2="377.363" y2="46.4668"/><line x1="375.467" y1="44.5708" x2="375.467" y2="48.3629"/><line x1="373.57" y1="44.5708" x2="377.363" y2="48.3629"/><line x1="373.57" y1="48.3629" x2="377.363" y2="44.5708"/>
</g>
<path d="M170.854,353.116h 226.342" fill="none" stroke="#0000ff"/>
<path d="M284.025,372.012v -47.2396" fill="none" stroke="#ff0000"/>
<rect x="57.1929" y="330.677" width="113.386" height="41.3346" fill="white"/>
<path d="M57.1929,372.012h 113.386" fill="none" stroke="black"/>
<path d="M170.579,372.012v -41.3346" fill="none" stroke="black"/>
<path d="M170.579,330.677h -113.386" fill="none" stroke="black"/>
<path d="M57.1929,330.677v 41.3346" fill="none" stroke="black"/>
<text xml:space="preserve" x="85.3498" y="354.568" fill="black" font-size="12.046" font-family="Helvetica">#p.e of PMTs7</text>
<path d="M61.4449,351.344h 19.8425" fill="none" stroke="black"/></svg>
