<?xml version="1.0" standalone="no"?>
<svg width="567.429" height="413.846" viewBox="0 0 567.429 413.846" xmlns="http://www.w3.org/2000/svg" shape-rendering="crispEdges">
<title>
figures/chi2zoomin_6PMTnpefilelist20.svg
</title>
<desc>
Creator: ROOT Version 6.18/04
CreationDate: Fri Nov  1 14:14:21 2019</desc>
<defs>
</defs>
<rect x="0.5" y="0" width="566.929" height="413.346" fill="white"/>
<rect x="57.1929" y="41.3346" width="453.543" height="330.677" fill="white"/>
<rect x="57.1929" y="41.3346" width="453.543" height="330.677" fill="none" stroke="black"/>
<path d="M57.1929,372.012h 453.543" fill="none" stroke="black"/>
<path d="M87.6517,41.3346v 330.677" fill="none" stroke="black" stroke-dasharray=" 1, 2"/>
<path d="M132.121,41.3346v 330.677" fill="none" stroke="black" stroke-dasharray=" 1, 2"/>
<path d="M176.591,41.3346v 330.677" fill="none" stroke="black" stroke-dasharray=" 1, 2"/>
<path d="M221.06,41.3346v 330.677" fill="none" stroke="black" stroke-dasharray=" 1, 2"/>
<path d="M265.53,41.3346v 330.677" fill="none" stroke="black" stroke-dasharray=" 1, 2"/>
<path d="M309.999,41.3346v 330.677" fill="none" stroke="black" stroke-dasharray=" 1, 2"/>
<path d="M354.469,41.3346v 330.677" fill="none" stroke="black" stroke-dasharray=" 1, 2"/>
<path d="M398.938,41.3346v 330.677" fill="none" stroke="black" stroke-dasharray=" 1, 2"/>
<path d="M443.407,41.3346v 330.677" fill="none" stroke="black" stroke-dasharray=" 1, 2"/>
<path d="M487.877,41.3346v 330.677" fill="none" stroke="black" stroke-dasharray=" 1, 2"/>
<path d="M87.6517,41.3346v 330.677" fill="none" stroke="black" stroke-dasharray=" 1, 2"/>
<path d="M487.877,41.3346v 330.677" fill="none" stroke="black" stroke-dasharray=" 1, 2"/>
<path d="M57.1929,372.012v -330.677" fill="none" stroke="black"/>
<path d="M57.1929,372.012h 453.543" fill="none" stroke="black"/>
<path d="M87.6517,362.091v 9.92031" fill="none" stroke="black"/>
<path d="M98.769,367.052v 4.96016" fill="none" stroke="black"/>
<path d="M109.886,367.052v 4.96016" fill="none" stroke="black"/>
<path d="M121.004,367.052v 4.96016" fill="none" stroke="black"/>
<path d="M132.121,362.091v 9.92031" fill="none" stroke="black"/>
<path d="M143.239,367.052v 4.96016" fill="none" stroke="black"/>
<path d="M154.356,367.052v 4.96016" fill="none" stroke="black"/>
<path d="M165.473,367.052v 4.96016" fill="none" stroke="black"/>
<path d="M176.591,362.091v 9.92031" fill="none" stroke="black"/>
<path d="M187.708,367.052v 4.96016" fill="none" stroke="black"/>
<path d="M198.825,367.052v 4.96016" fill="none" stroke="black"/>
<path d="M209.943,367.052v 4.96016" fill="none" stroke="black"/>
<path d="M221.06,362.091v 9.92031" fill="none" stroke="black"/>
<path d="M232.177,367.052v 4.96016" fill="none" stroke="black"/>
<path d="M243.295,367.052v 4.96016" fill="none" stroke="black"/>
<path d="M254.412,367.052v 4.96016" fill="none" stroke="black"/>
<path d="M265.53,362.091v 9.92031" fill="none" stroke="black"/>
<path d="M276.647,367.052v 4.96016" fill="none" stroke="black"/>
<path d="M287.764,367.052v 4.96016" fill="none" stroke="black"/>
<path d="M298.882,367.052v 4.96016" fill="none" stroke="black"/>
<path d="M309.999,362.091v 9.92031" fill="none" stroke="black"/>
<path d="M321.116,367.052v 4.96016" fill="none" stroke="black"/>
<path d="M332.234,367.052v 4.96016" fill="none" stroke="black"/>
<path d="M343.351,367.052v 4.96016" fill="none" stroke="black"/>
<path d="M354.469,362.091v 9.92031" fill="none" stroke="black"/>
<path d="M365.586,367.052v 4.96016" fill="none" stroke="black"/>
<path d="M376.703,367.052v 4.96016" fill="none" stroke="black"/>
<path d="M387.821,367.052v 4.96016" fill="none" stroke="black"/>
<path d="M398.938,362.091v 9.92031" fill="none" stroke="black"/>
<path d="M410.055,367.052v 4.96016" fill="none" stroke="black"/>
<path d="M421.173,367.052v 4.96016" fill="none" stroke="black"/>
<path d="M432.29,367.052v 4.96016" fill="none" stroke="black"/>
<path d="M443.407,362.091v 9.92031" fill="none" stroke="black"/>
<path d="M454.525,367.052v 4.96016" fill="none" stroke="black"/>
<path d="M465.642,367.052v 4.96016" fill="none" stroke="black"/>
<path d="M476.76,367.052v 4.96016" fill="none" stroke="black"/>
<path d="M487.877,362.091v 9.92031" fill="none" stroke="black"/>
<path d="M87.6517,362.091v 9.92031" fill="none" stroke="black"/>
<path d="M76.5343,367.052v 4.96016" fill="none" stroke="black"/>
<path d="M65.4169,367.052v 4.96016" fill="none" stroke="black"/>
<path d="M487.877,362.091v 9.92031" fill="none" stroke="black"/>
<path d="M498.994,367.052v 4.96016" fill="none" stroke="black"/>
<path d="M510.112,367.052v 4.96016" fill="none" stroke="black"/>
<text xml:space="preserve" x="79.1875" y="385.379" fill="black" font-size="13.7726" font-family="Helvetica">1.1</text>
<text xml:space="preserve" x="115.213" y="385.379" fill="black" font-size="13.7726" font-family="Helvetica">1.102</text>
<text xml:space="preserve" x="159.771" y="385.379" fill="black" font-size="13.7726" font-family="Helvetica">1.104</text>
<text xml:space="preserve" x="204.329" y="385.379" fill="black" font-size="13.7726" font-family="Helvetica">1.106</text>
<text xml:space="preserve" x="248.887" y="385.379" fill="black" font-size="13.7726" font-family="Helvetica">1.108</text>
<text xml:space="preserve" x="297.711" y="385.379" fill="black" font-size="13.7726" font-family="Helvetica">1.11</text>
<text xml:space="preserve" x="337.529" y="385.379" fill="black" font-size="13.7726" font-family="Helvetica">1.112</text>
<text xml:space="preserve" x="382.087" y="385.379" fill="black" font-size="13.7726" font-family="Helvetica">1.114</text>
<text xml:space="preserve" x="426.645" y="385.379" fill="black" font-size="13.7726" font-family="Helvetica">1.116</text>
<text xml:space="preserve" x="471.203" y="385.379" fill="black" font-size="13.7726" font-family="Helvetica">1.118</text>
<text xml:space="preserve" x="413.372" y="400.074" fill="black" font-size="13.7726" font-family="Helvetica">calibration factor</text>
<path d="M57.1929,372.012v -330.677" fill="none" stroke="black"/>
<path d="M70.7992,349.705h -13.6063" fill="none" stroke="black"/>
<path d="M63.9961,343.091h -6.80315" fill="none" stroke="black"/>
<path d="M63.9961,336.478h -6.80315" fill="none" stroke="black"/>
<path d="M63.9961,329.864h -6.80315" fill="none" stroke="black"/>
<path d="M63.9961,323.251h -6.80315" fill="none" stroke="black"/>
<path d="M70.7992,316.637h -13.6063" fill="none" stroke="black"/>
<path d="M63.9961,310.023h -6.80315" fill="none" stroke="black"/>
<path d="M63.9961,303.41h -6.80315" fill="none" stroke="black"/>
<path d="M63.9961,296.796h -6.80315" fill="none" stroke="black"/>
<path d="M63.9961,290.183h -6.80315" fill="none" stroke="black"/>
<path d="M70.7992,283.569h -13.6063" fill="none" stroke="black"/>
<path d="M63.9961,276.956h -6.80315" fill="none" stroke="black"/>
<path d="M63.9961,270.342h -6.80315" fill="none" stroke="black"/>
<path d="M63.9961,263.729h -6.80315" fill="none" stroke="black"/>
<path d="M63.9961,257.115h -6.80315" fill="none" stroke="black"/>
<path d="M70.7992,250.502h -13.6063" fill="none" stroke="black"/>
<path d="M63.9961,243.888h -6.80315" fill="none" stroke="black"/>
<path d="M63.9961,237.275h -6.80315" fill="none" stroke="black"/>
<path d="M63.9961,230.661h -6.80315" fill="none" stroke="black"/>
<path d="M63.9961,224.047h -6.80315" fill="none" stroke="black"/>
<path d="M70.7992,217.434h -13.6063" fill="none" stroke="black"/>
<path d="M63.9961,210.82h -6.80315" fill="none" stroke="black"/>
<path d="M63.9961,204.207h -6.80315" fill="none" stroke="black"/>
<path d="M63.9961,197.593h -6.80315" fill="none" stroke="black"/>
<path d="M63.9961,190.98h -6.80315" fill="none" stroke="black"/>
<path d="M70.7992,184.366h -13.6063" fill="none" stroke="black"/>
<path d="M63.9961,177.753h -6.80315" fill="none" stroke="black"/>
<path d="M63.9961,171.139h -6.80315" fill="none" stroke="black"/>
<path d="M63.9961,164.526h -6.80315" fill="none" stroke="black"/>
<path d="M63.9961,157.912h -6.80315" fill="none" stroke="black"/>
<path d="M70.7992,151.299h -13.6063" fill="none" stroke="black"/>
<path d="M63.9961,144.685h -6.80315" fill="none" stroke="black"/>
<path d="M63.9961,138.071h -6.80315" fill="none" stroke="black"/>
<path d="M63.9961,131.458h -6.80315" fill="none" stroke="black"/>
<path d="M63.9961,124.844h -6.80315" fill="none" stroke="black"/>
<path d="M70.7992,118.231h -13.6063" fill="none" stroke="black"/>
<path d="M63.9961,111.617h -6.80315" fill="none" stroke="black"/>
<path d="M63.9961,105.004h -6.80315" fill="none" stroke="black"/>
<path d="M63.9961,98.3902h -6.80315" fill="none" stroke="black"/>
<path d="M63.9961,91.7766h -6.80315" fill="none" stroke="black"/>
<path d="M70.7992,85.1631h -13.6063" fill="none" stroke="black"/>
<path d="M63.9961,78.5496h -6.80315" fill="none" stroke="black"/>
<path d="M63.9961,71.936h -6.80315" fill="none" stroke="black"/>
<path d="M63.9961,65.3225h -6.80315" fill="none" stroke="black"/>
<path d="M63.9961,58.7089h -6.80315" fill="none" stroke="black"/>
<path d="M70.7992,52.0954h -13.6063" fill="none" stroke="black"/>
<path d="M70.7992,349.705h -13.6063" fill="none" stroke="black"/>
<path d="M63.9961,356.318h -6.80315" fill="none" stroke="black"/>
<path d="M63.9961,362.932h -6.80315" fill="none" stroke="black"/>
<path d="M63.9961,369.545h -6.80315" fill="none" stroke="black"/>
<path d="M70.7992,52.0954h -13.6063" fill="none" stroke="black"/>
<path d="M63.9961,45.4819h -6.80315" fill="none" stroke="black"/>
<text xml:space="preserve" x="32.2594" y="354.094" fill="black" font-size="13.7726" font-family="Helvetica">188</text>
<text xml:space="preserve" x="32.2594" y="320.912" fill="black" font-size="13.7726" font-family="Helvetica">189</text>
<text xml:space="preserve" x="32.2594" y="288.205" fill="black" font-size="13.7726" font-family="Helvetica">190</text>
<text xml:space="preserve" x="34.6295" y="255.023" fill="black" font-size="13.7726" font-family="Helvetica">191</text>
<text xml:space="preserve" x="32.2594" y="221.842" fill="black" font-size="13.7726" font-family="Helvetica">192</text>
<text xml:space="preserve" x="32.2594" y="188.66" fill="black" font-size="13.7726" font-family="Helvetica">193</text>
<text xml:space="preserve" x="32.2594" y="155.953" fill="black" font-size="13.7726" font-family="Helvetica">194</text>
<text xml:space="preserve" x="32.2594" y="122.771" fill="black" font-size="13.7726" font-family="Helvetica">195</text>
<text xml:space="preserve" x="32.2594" y="89.59" fill="black" font-size="13.7726" font-family="Helvetica">196</text>
<text xml:space="preserve" x="32.2594" y="56.4085" fill="black" font-size="13.7726" font-family="Helvetica">197</text>
<g transform="rotate(-90,15.1947,45.98)">
<text xml:space="preserve" x="15.1947" y="45.98" fill="black" font-size="9.34839" font-family="Helvetica">2</text>
</g>
<g transform="rotate(-90,19.4608,50.2462)">
<text xml:space="preserve" x="19.4608" y="50.2462" fill="black" font-size="13.7726" font-family="Helvetica"> </text>
</g>
<g transform="rotate(-90,19.4608,57.3565)">
<text xml:space="preserve" x="19.4608" y="57.3565" fill="black" font-size="13.7726" font-family="Times">&#0967;</text>
</g>
<g stroke="black" stroke-width="1" fill="none">
<line x1="121.331" y1="66.2128" x2="125.123" y2="66.2128"/><line x1="123.227" y1="64.3167" x2="123.227" y2="68.1089"/><line x1="121.331" y1="64.3167" x2="125.123" y2="68.1089"/><line x1="121.331" y1="68.1089" x2="125.123" y2="64.3167"/>
</g>
<g stroke="black" stroke-width="1" fill="none">
<line x1="130.225" y1="75.3834" x2="134.017" y2="75.3834"/><line x1="132.121" y1="73.4873" x2="132.121" y2="77.2795"/><line x1="130.225" y1="73.4873" x2="134.017" y2="77.2795"/><line x1="130.225" y1="77.2795" x2="134.017" y2="73.4873"/>
<line x1="134.672" y1="72.961" x2="138.464" y2="72.961"/><line x1="136.568" y1="71.065" x2="136.568" y2="74.8571"/><line x1="134.672" y1="71.065" x2="138.464" y2="74.8571"/><line x1="134.672" y1="74.8571" x2="138.464" y2="71.065"/>
</g>
<g stroke="black" stroke-width="1" fill="none">
<line x1="143.566" y1="84.0392" x2="147.358" y2="84.0392"/><line x1="145.462" y1="82.1431" x2="145.462" y2="85.9353"/><line x1="143.566" y1="82.1431" x2="147.358" y2="85.9353"/><line x1="143.566" y1="85.9353" x2="147.358" y2="82.1431"/>
</g>
<g stroke="black" stroke-width="1" fill="none">
<line x1="161.354" y1="51.2552" x2="165.146" y2="51.2552"/><line x1="163.25" y1="49.3591" x2="163.25" y2="53.1513"/><line x1="161.354" y1="49.3591" x2="165.146" y2="53.1513"/><line x1="161.354" y1="53.1513" x2="165.146" y2="49.3591"/>
<line x1="165.801" y1="113.7" x2="169.593" y2="113.7"/><line x1="167.697" y1="111.803" x2="167.697" y2="115.596"/><line x1="165.801" y1="111.803" x2="169.593" y2="115.596"/><line x1="165.801" y1="115.596" x2="169.593" y2="111.803"/>
<line x1="170.248" y1="114.725" x2="174.04" y2="114.725"/><line x1="172.144" y1="112.828" x2="172.144" y2="116.621"/><line x1="170.248" y1="112.828" x2="174.04" y2="116.621"/><line x1="170.248" y1="116.621" x2="174.04" y2="112.828"/>
<line x1="174.695" y1="138.003" x2="178.487" y2="138.003"/><line x1="176.591" y1="136.107" x2="176.591" y2="139.899"/><line x1="174.695" y1="136.107" x2="178.487" y2="139.899"/><line x1="174.695" y1="139.899" x2="178.487" y2="136.107"/>
<line x1="179.141" y1="209.103" x2="182.934" y2="209.103"/><line x1="181.038" y1="207.207" x2="181.038" y2="210.999"/><line x1="179.141" y1="207.207" x2="182.934" y2="210.999"/><line x1="179.141" y1="210.999" x2="182.934" y2="207.207"/>
<line x1="183.588" y1="275.826" x2="187.381" y2="275.826"/><line x1="185.485" y1="273.93" x2="185.485" y2="277.722"/><line x1="183.588" y1="273.93" x2="187.381" y2="277.722"/><line x1="183.588" y1="277.722" x2="187.381" y2="273.93"/>
<line x1="188.035" y1="242.866" x2="191.828" y2="242.866"/><line x1="189.931" y1="240.969" x2="189.931" y2="244.762"/><line x1="188.035" y1="240.969" x2="191.828" y2="244.762"/><line x1="188.035" y1="244.762" x2="191.828" y2="240.969"/>
<line x1="192.482" y1="237.831" x2="196.274" y2="237.831"/><line x1="194.378" y1="235.935" x2="194.378" y2="239.727"/><line x1="192.482" y1="235.935" x2="196.274" y2="239.727"/><line x1="192.482" y1="239.727" x2="196.274" y2="235.935"/>
<line x1="196.929" y1="215.547" x2="200.721" y2="215.547"/><line x1="198.825" y1="213.651" x2="198.825" y2="217.443"/><line x1="196.929" y1="213.651" x2="200.721" y2="217.443"/><line x1="196.929" y1="217.443" x2="200.721" y2="213.651"/>
<line x1="201.376" y1="190.337" x2="205.168" y2="190.337"/><line x1="203.272" y1="188.441" x2="203.272" y2="192.233"/><line x1="201.376" y1="188.441" x2="205.168" y2="192.233"/><line x1="201.376" y1="192.233" x2="205.168" y2="188.441"/>
<line x1="205.823" y1="197.061" x2="209.615" y2="197.061"/><line x1="207.719" y1="195.165" x2="207.719" y2="198.957"/><line x1="205.823" y1="195.165" x2="209.615" y2="198.957"/><line x1="205.823" y1="198.957" x2="209.615" y2="195.165"/>
<line x1="210.27" y1="159.476" x2="214.062" y2="159.476"/><line x1="212.166" y1="157.58" x2="212.166" y2="161.372"/><line x1="210.27" y1="157.58" x2="214.062" y2="161.372"/><line x1="210.27" y1="161.372" x2="214.062" y2="157.58"/>
<line x1="214.717" y1="179.204" x2="218.509" y2="179.204"/><line x1="216.613" y1="177.308" x2="216.613" y2="181.1"/><line x1="214.717" y1="177.308" x2="218.509" y2="181.1"/><line x1="214.717" y1="181.1" x2="218.509" y2="177.308"/>
<line x1="219.164" y1="224.383" x2="222.956" y2="224.383"/><line x1="221.06" y1="222.487" x2="221.06" y2="226.279"/><line x1="219.164" y1="222.487" x2="222.956" y2="226.279"/><line x1="219.164" y1="226.279" x2="222.956" y2="222.487"/>
<line x1="223.611" y1="265.888" x2="227.403" y2="265.888"/><line x1="225.507" y1="263.992" x2="225.507" y2="267.784"/><line x1="223.611" y1="263.992" x2="227.403" y2="267.784"/><line x1="223.611" y1="267.784" x2="227.403" y2="263.992"/>
<line x1="228.058" y1="291.19" x2="231.85" y2="291.19"/><line x1="229.954" y1="289.294" x2="229.954" y2="293.086"/><line x1="228.058" y1="289.294" x2="231.85" y2="293.086"/><line x1="228.058" y1="293.086" x2="231.85" y2="289.294"/>
<line x1="232.505" y1="258.202" x2="236.297" y2="258.202"/><line x1="234.401" y1="256.306" x2="234.401" y2="260.098"/><line x1="232.505" y1="256.306" x2="236.297" y2="260.098"/><line x1="232.505" y1="260.098" x2="236.297" y2="256.306"/>
<line x1="236.952" y1="175.246" x2="240.744" y2="175.246"/><line x1="238.848" y1="173.35" x2="238.848" y2="177.142"/><line x1="236.952" y1="173.35" x2="240.744" y2="177.142"/><line x1="236.952" y1="177.142" x2="240.744" y2="173.35"/>
<line x1="241.399" y1="166.79" x2="245.191" y2="166.79"/><line x1="243.295" y1="164.894" x2="243.295" y2="168.686"/><line x1="241.399" y1="164.894" x2="245.191" y2="168.686"/><line x1="241.399" y1="168.686" x2="245.191" y2="164.894"/>
<line x1="245.846" y1="157.656" x2="249.638" y2="157.656"/><line x1="247.742" y1="155.76" x2="247.742" y2="159.553"/><line x1="245.846" y1="155.76" x2="249.638" y2="159.553"/><line x1="245.846" y1="159.553" x2="249.638" y2="155.76"/>
<line x1="250.293" y1="218.752" x2="254.085" y2="218.752"/><line x1="252.189" y1="216.856" x2="252.189" y2="220.648"/><line x1="250.293" y1="216.856" x2="254.085" y2="220.648"/><line x1="250.293" y1="220.648" x2="254.085" y2="216.856"/>
<line x1="254.74" y1="217.193" x2="258.532" y2="217.193"/><line x1="256.636" y1="215.297" x2="256.636" y2="219.089"/><line x1="254.74" y1="215.297" x2="258.532" y2="219.089"/><line x1="254.74" y1="219.089" x2="258.532" y2="215.297"/>
<line x1="259.187" y1="192.693" x2="262.979" y2="192.693"/><line x1="261.083" y1="190.796" x2="261.083" y2="194.589"/><line x1="259.187" y1="190.796" x2="262.979" y2="194.589"/><line x1="259.187" y1="194.589" x2="262.979" y2="190.796"/>
<line x1="263.633" y1="186.932" x2="267.426" y2="186.932"/><line x1="265.53" y1="185.036" x2="265.53" y2="188.828"/><line x1="263.633" y1="185.036" x2="267.426" y2="188.828"/><line x1="263.633" y1="188.828" x2="267.426" y2="185.036"/>
<line x1="268.08" y1="242.824" x2="271.873" y2="242.824"/><line x1="269.977" y1="240.928" x2="269.977" y2="244.72"/><line x1="268.08" y1="240.928" x2="271.873" y2="244.72"/><line x1="268.08" y1="244.72" x2="271.873" y2="240.928"/>
<line x1="272.527" y1="231.101" x2="276.32" y2="231.101"/><line x1="274.423" y1="229.205" x2="274.423" y2="232.997"/><line x1="272.527" y1="229.205" x2="276.32" y2="232.997"/><line x1="272.527" y1="232.997" x2="276.32" y2="229.205"/>
<line x1="276.974" y1="255.286" x2="280.766" y2="255.286"/><line x1="278.87" y1="253.39" x2="278.87" y2="257.182"/><line x1="276.974" y1="253.39" x2="280.766" y2="257.182"/><line x1="276.974" y1="257.182" x2="280.766" y2="253.39"/>
<line x1="281.421" y1="305.876" x2="285.213" y2="305.876"/><line x1="283.317" y1="303.98" x2="283.317" y2="307.772"/><line x1="281.421" y1="303.98" x2="285.213" y2="307.772"/><line x1="281.421" y1="307.772" x2="285.213" y2="303.98"/>
<line x1="285.868" y1="246.547" x2="289.66" y2="246.547"/><line x1="287.764" y1="244.651" x2="287.764" y2="248.443"/><line x1="285.868" y1="244.651" x2="289.66" y2="248.443"/><line x1="285.868" y1="248.443" x2="289.66" y2="244.651"/>
<line x1="290.315" y1="262.824" x2="294.107" y2="262.824"/><line x1="292.211" y1="260.928" x2="292.211" y2="264.72"/><line x1="290.315" y1="260.928" x2="294.107" y2="264.72"/><line x1="290.315" y1="264.72" x2="294.107" y2="260.928"/>
<line x1="294.762" y1="202.711" x2="298.554" y2="202.711"/><line x1="296.658" y1="200.815" x2="296.658" y2="204.607"/><line x1="294.762" y1="200.815" x2="298.554" y2="204.607"/><line x1="294.762" y1="204.607" x2="298.554" y2="200.815"/>
<line x1="299.209" y1="225.89" x2="303.001" y2="225.89"/><line x1="301.105" y1="223.994" x2="301.105" y2="227.786"/><line x1="299.209" y1="223.994" x2="303.001" y2="227.786"/><line x1="299.209" y1="227.786" x2="303.001" y2="223.994"/>
<line x1="303.656" y1="186.402" x2="307.448" y2="186.402"/><line x1="305.552" y1="184.506" x2="305.552" y2="188.298"/><line x1="303.656" y1="184.506" x2="307.448" y2="188.298"/><line x1="303.656" y1="188.298" x2="307.448" y2="184.506"/>
<line x1="308.103" y1="138.999" x2="311.895" y2="138.999"/><line x1="309.999" y1="137.103" x2="309.999" y2="140.895"/><line x1="308.103" y1="137.103" x2="311.895" y2="140.895"/><line x1="308.103" y1="140.895" x2="311.895" y2="137.103"/>
<line x1="312.55" y1="171.802" x2="316.342" y2="171.802"/><line x1="314.446" y1="169.906" x2="314.446" y2="173.698"/><line x1="312.55" y1="169.906" x2="316.342" y2="173.698"/><line x1="312.55" y1="173.698" x2="316.342" y2="169.906"/>
<line x1="316.997" y1="160.873" x2="320.789" y2="160.873"/><line x1="318.893" y1="158.977" x2="318.893" y2="162.769"/><line x1="316.997" y1="158.977" x2="320.789" y2="162.769"/><line x1="316.997" y1="162.769" x2="320.789" y2="158.977"/>
<line x1="321.444" y1="222.763" x2="325.236" y2="222.763"/><line x1="323.34" y1="220.867" x2="323.34" y2="224.659"/><line x1="321.444" y1="220.867" x2="325.236" y2="224.659"/><line x1="321.444" y1="224.659" x2="325.236" y2="220.867"/>
<line x1="325.891" y1="194.055" x2="329.683" y2="194.055"/><line x1="327.787" y1="192.158" x2="327.787" y2="195.951"/><line x1="325.891" y1="192.158" x2="329.683" y2="195.951"/><line x1="325.891" y1="195.951" x2="329.683" y2="192.158"/>
<line x1="330.338" y1="161.176" x2="334.13" y2="161.176"/><line x1="332.234" y1="159.28" x2="332.234" y2="163.072"/><line x1="330.338" y1="159.28" x2="334.13" y2="163.072"/><line x1="330.338" y1="163.072" x2="334.13" y2="159.28"/>
<line x1="334.785" y1="210.533" x2="338.577" y2="210.533"/><line x1="336.681" y1="208.637" x2="336.681" y2="212.429"/><line x1="334.785" y1="208.637" x2="338.577" y2="212.429"/><line x1="334.785" y1="212.429" x2="338.577" y2="208.637"/>
<line x1="339.232" y1="263.881" x2="343.024" y2="263.881"/><line x1="341.128" y1="261.985" x2="341.128" y2="265.777"/><line x1="339.232" y1="261.985" x2="343.024" y2="265.777"/><line x1="339.232" y1="265.777" x2="343.024" y2="261.985"/>
<line x1="343.679" y1="222.995" x2="347.471" y2="222.995"/><line x1="345.575" y1="221.099" x2="345.575" y2="224.891"/><line x1="343.679" y1="221.099" x2="347.471" y2="224.891"/><line x1="343.679" y1="224.891" x2="347.471" y2="221.099"/>
<line x1="348.125" y1="232.375" x2="351.918" y2="232.375"/><line x1="350.022" y1="230.478" x2="350.022" y2="234.271"/><line x1="348.125" y1="230.478" x2="351.918" y2="234.271"/><line x1="348.125" y1="234.271" x2="351.918" y2="230.478"/>
<line x1="352.572" y1="169.526" x2="356.365" y2="169.526"/><line x1="354.469" y1="167.63" x2="354.469" y2="171.422"/><line x1="352.572" y1="167.63" x2="356.365" y2="171.422"/><line x1="352.572" y1="171.422" x2="356.365" y2="167.63"/>
<line x1="357.019" y1="152.654" x2="360.812" y2="152.654"/><line x1="358.915" y1="150.758" x2="358.915" y2="154.55"/><line x1="357.019" y1="150.758" x2="360.812" y2="154.55"/><line x1="357.019" y1="154.55" x2="360.812" y2="150.758"/>
<line x1="361.466" y1="172.926" x2="365.259" y2="172.926"/><line x1="363.362" y1="171.03" x2="363.362" y2="174.822"/><line x1="361.466" y1="171.03" x2="365.259" y2="174.822"/><line x1="361.466" y1="174.822" x2="365.259" y2="171.03"/>
<line x1="365.913" y1="110.284" x2="369.705" y2="110.284"/><line x1="367.809" y1="108.388" x2="367.809" y2="112.18"/><line x1="365.913" y1="108.388" x2="369.705" y2="112.18"/><line x1="365.913" y1="112.18" x2="369.705" y2="108.388"/>
<line x1="370.36" y1="116.704" x2="374.152" y2="116.704"/><line x1="372.256" y1="114.808" x2="372.256" y2="118.6"/><line x1="370.36" y1="114.808" x2="374.152" y2="118.6"/><line x1="370.36" y1="118.6" x2="374.152" y2="114.808"/>
<line x1="374.807" y1="79.0065" x2="378.599" y2="79.0065"/><line x1="376.703" y1="77.1104" x2="376.703" y2="80.9026"/><line x1="374.807" y1="77.1104" x2="378.599" y2="80.9026"/><line x1="374.807" y1="80.9026" x2="378.599" y2="77.1104"/>
</g>
<g stroke="black" stroke-width="1" fill="none">
<line x1="445.958" y1="46.9953" x2="449.751" y2="46.9953"/><line x1="447.854" y1="45.0992" x2="447.854" y2="48.8914"/><line x1="445.958" y1="45.0992" x2="449.751" y2="48.8914"/><line x1="445.958" y1="48.8914" x2="449.751" y2="45.0992"/>
</g>
<path d="M0.5,272.809h 566.929" fill="none" stroke="#0000ff"/></svg>
