<?xml version="1.0" standalone="no"?>
<svg width="567.429" height="413.846" viewBox="0 0 567.429 413.846" xmlns="http://www.w3.org/2000/svg" shape-rendering="crispEdges">
<title>
figures/chi2zoomin_7PMTnpefilelist20.svg
</title>
<desc>
Creator: ROOT Version 6.18/04
CreationDate: Fri Nov  1 14:14:27 2019</desc>
<defs>
</defs>
<rect x="0.5" y="0" width="566.929" height="413.346" fill="white"/>
<rect x="57.1929" y="41.3346" width="453.543" height="330.677" fill="white"/>
<rect x="57.1929" y="41.3346" width="453.543" height="330.677" fill="none" stroke="black"/>
<path d="M57.1929,372.012h 453.543" fill="none" stroke="black"/>
<path d="M65.7081,41.3346v 330.677" fill="none" stroke="black" stroke-dasharray=" 1, 2"/>
<path d="M176.882,41.3346v 330.677" fill="none" stroke="black" stroke-dasharray=" 1, 2"/>
<path d="M288.055,41.3346v 330.677" fill="none" stroke="black" stroke-dasharray=" 1, 2"/>
<path d="M399.229,41.3346v 330.677" fill="none" stroke="black" stroke-dasharray=" 1, 2"/>
<path d="M510.403,41.3346v 330.677" fill="none" stroke="black" stroke-dasharray=" 1, 2"/>
<path d="M65.7081,41.3346v 330.677" fill="none" stroke="black" stroke-dasharray=" 1, 2"/>
<path d="M510.403,41.3346v 330.677" fill="none" stroke="black" stroke-dasharray=" 1, 2"/>
<path d="M57.1929,372.012v -330.677" fill="none" stroke="black"/>
<path d="M57.1929,372.012h 453.543" fill="none" stroke="black"/>
<path d="M65.7081,362.091v 9.92031" fill="none" stroke="black"/>
<path d="M87.9428,367.052v 4.96016" fill="none" stroke="black"/>
<path d="M110.178,367.052v 4.96016" fill="none" stroke="black"/>
<path d="M132.412,367.052v 4.96016" fill="none" stroke="black"/>
<path d="M154.647,367.052v 4.96016" fill="none" stroke="black"/>
<path d="M176.882,362.091v 9.92031" fill="none" stroke="black"/>
<path d="M199.117,367.052v 4.96016" fill="none" stroke="black"/>
<path d="M221.351,367.052v 4.96016" fill="none" stroke="black"/>
<path d="M243.586,367.052v 4.96016" fill="none" stroke="black"/>
<path d="M265.821,367.052v 4.96016" fill="none" stroke="black"/>
<path d="M288.055,362.091v 9.92031" fill="none" stroke="black"/>
<path d="M310.29,367.052v 4.96016" fill="none" stroke="black"/>
<path d="M332.525,367.052v 4.96016" fill="none" stroke="black"/>
<path d="M354.76,367.052v 4.96016" fill="none" stroke="black"/>
<path d="M376.994,367.052v 4.96016" fill="none" stroke="black"/>
<path d="M399.229,362.091v 9.92031" fill="none" stroke="black"/>
<path d="M421.464,367.052v 4.96016" fill="none" stroke="black"/>
<path d="M443.699,367.052v 4.96016" fill="none" stroke="black"/>
<path d="M465.933,367.052v 4.96016" fill="none" stroke="black"/>
<path d="M488.168,367.052v 4.96016" fill="none" stroke="black"/>
<path d="M510.403,362.091v 9.92031" fill="none" stroke="black"/>
<path d="M65.7081,362.091v 9.92031" fill="none" stroke="black"/>
<path d="M510.403,362.091v 9.92031" fill="none" stroke="black"/>
<text xml:space="preserve" x="52.6423" y="385.379" fill="black" font-size="13.7726" font-family="Helvetica">0.83</text>
<text xml:space="preserve" x="160.245" y="385.379" fill="black" font-size="13.7726" font-family="Helvetica">0.835</text>
<text xml:space="preserve" x="274.958" y="385.379" fill="black" font-size="13.7726" font-family="Helvetica">0.84</text>
<text xml:space="preserve" x="382.561" y="385.379" fill="black" font-size="13.7726" font-family="Helvetica">0.845</text>
<text xml:space="preserve" x="497.274" y="385.379" fill="black" font-size="13.7726" font-family="Helvetica">0.85</text>
<text xml:space="preserve" x="413.372" y="400.074" fill="black" font-size="13.7726" font-family="Helvetica">calibration factor</text>
<path d="M57.1929,372.012v -330.677" fill="none" stroke="black"/>
<path d="M70.7992,346.95h -13.6063" fill="none" stroke="black"/>
<path d="M63.9961,340.336h -6.80315" fill="none" stroke="black"/>
<path d="M63.9961,333.723h -6.80315" fill="none" stroke="black"/>
<path d="M63.9961,327.109h -6.80315" fill="none" stroke="black"/>
<path d="M63.9961,320.496h -6.80315" fill="none" stroke="black"/>
<path d="M70.7992,313.882h -13.6063" fill="none" stroke="black"/>
<path d="M63.9961,307.269h -6.80315" fill="none" stroke="black"/>
<path d="M63.9961,300.655h -6.80315" fill="none" stroke="black"/>
<path d="M63.9961,294.042h -6.80315" fill="none" stroke="black"/>
<path d="M63.9961,287.428h -6.80315" fill="none" stroke="black"/>
<path d="M70.7992,280.814h -13.6063" fill="none" stroke="black"/>
<path d="M63.9961,274.201h -6.80315" fill="none" stroke="black"/>
<path d="M63.9961,267.587h -6.80315" fill="none" stroke="black"/>
<path d="M63.9961,260.974h -6.80315" fill="none" stroke="black"/>
<path d="M63.9961,254.36h -6.80315" fill="none" stroke="black"/>
<path d="M70.7992,247.747h -13.6063" fill="none" stroke="black"/>
<path d="M63.9961,241.133h -6.80315" fill="none" stroke="black"/>
<path d="M63.9961,234.52h -6.80315" fill="none" stroke="black"/>
<path d="M63.9961,227.906h -6.80315" fill="none" stroke="black"/>
<path d="M63.9961,221.293h -6.80315" fill="none" stroke="black"/>
<path d="M70.7992,214.679h -13.6063" fill="none" stroke="black"/>
<path d="M63.9961,208.066h -6.80315" fill="none" stroke="black"/>
<path d="M63.9961,201.452h -6.80315" fill="none" stroke="black"/>
<path d="M63.9961,194.838h -6.80315" fill="none" stroke="black"/>
<path d="M63.9961,188.225h -6.80315" fill="none" stroke="black"/>
<path d="M70.7992,181.611h -13.6063" fill="none" stroke="black"/>
<path d="M63.9961,174.998h -6.80315" fill="none" stroke="black"/>
<path d="M63.9961,168.384h -6.80315" fill="none" stroke="black"/>
<path d="M63.9961,161.771h -6.80315" fill="none" stroke="black"/>
<path d="M63.9961,155.157h -6.80315" fill="none" stroke="black"/>
<path d="M70.7992,148.544h -13.6063" fill="none" stroke="black"/>
<path d="M63.9961,141.93h -6.80315" fill="none" stroke="black"/>
<path d="M63.9961,135.317h -6.80315" fill="none" stroke="black"/>
<path d="M63.9961,128.703h -6.80315" fill="none" stroke="black"/>
<path d="M63.9961,122.089h -6.80315" fill="none" stroke="black"/>
<path d="M70.7992,115.476h -13.6063" fill="none" stroke="black"/>
<path d="M63.9961,108.862h -6.80315" fill="none" stroke="black"/>
<path d="M63.9961,102.249h -6.80315" fill="none" stroke="black"/>
<path d="M63.9961,95.6353h -6.80315" fill="none" stroke="black"/>
<path d="M63.9961,89.0218h -6.80315" fill="none" stroke="black"/>
<path d="M70.7992,82.4082h -13.6063" fill="none" stroke="black"/>
<path d="M63.9961,75.7947h -6.80315" fill="none" stroke="black"/>
<path d="M63.9961,69.1812h -6.80315" fill="none" stroke="black"/>
<path d="M63.9961,62.5676h -6.80315" fill="none" stroke="black"/>
<path d="M63.9961,55.9541h -6.80315" fill="none" stroke="black"/>
<path d="M70.7992,49.3405h -13.6063" fill="none" stroke="black"/>
<path d="M70.7992,346.95h -13.6063" fill="none" stroke="black"/>
<path d="M63.9961,353.563h -6.80315" fill="none" stroke="black"/>
<path d="M63.9961,360.177h -6.80315" fill="none" stroke="black"/>
<path d="M63.9961,366.79h -6.80315" fill="none" stroke="black"/>
<path d="M70.7992,49.3405h -13.6063" fill="none" stroke="black"/>
<path d="M63.9961,42.727h -6.80315" fill="none" stroke="black"/>
<text xml:space="preserve" x="32.2594" y="351.25" fill="black" font-size="13.7726" font-family="Helvetica">268</text>
<text xml:space="preserve" x="32.2594" y="318.542" fill="black" font-size="13.7726" font-family="Helvetica">269</text>
<text xml:space="preserve" x="32.2594" y="285.361" fill="black" font-size="13.7726" font-family="Helvetica">270</text>
<text xml:space="preserve" x="34.6295" y="252.653" fill="black" font-size="13.7726" font-family="Helvetica">271</text>
<text xml:space="preserve" x="32.2594" y="219.472" fill="black" font-size="13.7726" font-family="Helvetica">272</text>
<text xml:space="preserve" x="32.2594" y="186.29" fill="black" font-size="13.7726" font-family="Helvetica">273</text>
<text xml:space="preserve" x="32.2594" y="153.583" fill="black" font-size="13.7726" font-family="Helvetica">274</text>
<text xml:space="preserve" x="32.2594" y="119.927" fill="black" font-size="13.7726" font-family="Helvetica">275</text>
<text xml:space="preserve" x="32.2594" y="86.7458" fill="black" font-size="13.7726" font-family="Helvetica">276</text>
<text xml:space="preserve" x="32.2594" y="54.5124" fill="black" font-size="13.7726" font-family="Helvetica">277</text>
<g transform="rotate(-90,15.1947,45.98)">
<text xml:space="preserve" x="15.1947" y="45.98" fill="black" font-size="9.34839" font-family="Helvetica">2</text>
</g>
<g transform="rotate(-90,19.4608,50.2462)">
<text xml:space="preserve" x="19.4608" y="50.2462" fill="black" font-size="13.7726" font-family="Helvetica"> </text>
</g>
<g transform="rotate(-90,19.4608,57.3565)">
<text xml:space="preserve" x="19.4608" y="57.3565" fill="black" font-size="13.7726" font-family="Times">&#0967;</text>
</g>
<g stroke="black" stroke-width="1" fill="none">
<line x1="121.622" y1="49.2429" x2="125.415" y2="49.2429"/><line x1="123.518" y1="47.3469" x2="123.518" y2="51.139"/><line x1="121.622" y1="47.3469" x2="125.415" y2="51.139"/><line x1="121.622" y1="51.139" x2="125.415" y2="47.3469"/>
<line x1="126.069" y1="65.185" x2="129.861" y2="65.185"/><line x1="127.965" y1="63.2889" x2="127.965" y2="67.0811"/><line x1="126.069" y1="63.2889" x2="129.861" y2="67.0811"/><line x1="126.069" y1="67.0811" x2="129.861" y2="63.2889"/>
<line x1="130.516" y1="120.117" x2="134.308" y2="120.117"/><line x1="132.412" y1="118.221" x2="132.412" y2="122.013"/><line x1="130.516" y1="118.221" x2="134.308" y2="122.013"/><line x1="130.516" y1="122.013" x2="134.308" y2="118.221"/>
<line x1="134.963" y1="60.9436" x2="138.755" y2="60.9436"/><line x1="136.859" y1="59.0475" x2="136.859" y2="62.8397"/><line x1="134.963" y1="59.0475" x2="138.755" y2="62.8397"/><line x1="134.963" y1="62.8397" x2="138.755" y2="59.0475"/>
</g>
<g stroke="black" stroke-width="1" fill="none">
<line x1="161.645" y1="48.3262" x2="165.437" y2="48.3262"/><line x1="163.541" y1="46.4301" x2="163.541" y2="50.2223"/><line x1="161.645" y1="46.4301" x2="165.437" y2="50.2223"/><line x1="161.645" y1="50.2223" x2="165.437" y2="46.4301"/>
</g>
<g stroke="black" stroke-width="1" fill="none">
<line x1="197.22" y1="42.9983" x2="201.013" y2="42.9983"/><line x1="199.117" y1="41.1022" x2="199.117" y2="44.8944"/><line x1="197.22" y1="41.1022" x2="201.013" y2="44.8944"/><line x1="197.22" y1="44.8944" x2="201.013" y2="41.1022"/>
<line x1="201.667" y1="81.9363" x2="205.46" y2="81.9363"/><line x1="203.563" y1="80.0403" x2="203.563" y2="83.8324"/><line x1="201.667" y1="80.0403" x2="205.46" y2="83.8324"/><line x1="201.667" y1="83.8324" x2="205.46" y2="80.0403"/>
<line x1="206.114" y1="94.0469" x2="209.907" y2="94.0469"/><line x1="208.01" y1="92.1508" x2="208.01" y2="95.9429"/><line x1="206.114" y1="92.1508" x2="209.907" y2="95.9429"/><line x1="206.114" y1="95.9429" x2="209.907" y2="92.1508"/>
<line x1="210.561" y1="78.5771" x2="214.353" y2="78.5771"/><line x1="212.457" y1="76.681" x2="212.457" y2="80.4732"/><line x1="210.561" y1="76.681" x2="214.353" y2="80.4732"/><line x1="210.561" y1="80.4732" x2="214.353" y2="76.681"/>
<line x1="215.008" y1="91.3956" x2="218.8" y2="91.3956"/><line x1="216.904" y1="89.4995" x2="216.904" y2="93.2917"/><line x1="215.008" y1="89.4995" x2="218.8" y2="93.2917"/><line x1="215.008" y1="93.2917" x2="218.8" y2="89.4995"/>
<line x1="219.455" y1="56.4213" x2="223.247" y2="56.4213"/><line x1="221.351" y1="54.5253" x2="221.351" y2="58.3174"/><line x1="219.455" y1="54.5253" x2="223.247" y2="58.3174"/><line x1="219.455" y1="58.3174" x2="223.247" y2="54.5253"/>
<line x1="223.902" y1="128.325" x2="227.694" y2="128.325"/><line x1="225.798" y1="126.429" x2="225.798" y2="130.221"/><line x1="223.902" y1="126.429" x2="227.694" y2="130.221"/><line x1="223.902" y1="130.221" x2="227.694" y2="126.429"/>
<line x1="228.349" y1="159.514" x2="232.141" y2="159.514"/><line x1="230.245" y1="157.618" x2="230.245" y2="161.41"/><line x1="228.349" y1="157.618" x2="232.141" y2="161.41"/><line x1="228.349" y1="161.41" x2="232.141" y2="157.618"/>
<line x1="232.796" y1="137.701" x2="236.588" y2="137.701"/><line x1="234.692" y1="135.804" x2="234.692" y2="139.597"/><line x1="232.796" y1="135.804" x2="236.588" y2="139.597"/><line x1="232.796" y1="139.597" x2="236.588" y2="135.804"/>
<line x1="237.243" y1="176.811" x2="241.035" y2="176.811"/><line x1="239.139" y1="174.915" x2="239.139" y2="178.708"/><line x1="237.243" y1="174.915" x2="241.035" y2="178.708"/><line x1="237.243" y1="178.708" x2="241.035" y2="174.915"/>
<line x1="241.69" y1="237.292" x2="245.482" y2="237.292"/><line x1="243.586" y1="235.395" x2="243.586" y2="239.188"/><line x1="241.69" y1="235.395" x2="245.482" y2="239.188"/><line x1="241.69" y1="239.188" x2="245.482" y2="235.395"/>
<line x1="246.137" y1="278.524" x2="249.929" y2="278.524"/><line x1="248.033" y1="276.628" x2="248.033" y2="280.421"/><line x1="246.137" y1="276.628" x2="249.929" y2="280.421"/><line x1="246.137" y1="280.421" x2="249.929" y2="276.628"/>
<line x1="250.584" y1="245.642" x2="254.376" y2="245.642"/><line x1="252.48" y1="243.745" x2="252.48" y2="247.538"/><line x1="250.584" y1="243.745" x2="254.376" y2="247.538"/><line x1="250.584" y1="247.538" x2="254.376" y2="243.745"/>
<line x1="255.031" y1="279.092" x2="258.823" y2="279.092"/><line x1="256.927" y1="277.196" x2="256.927" y2="280.988"/><line x1="255.031" y1="277.196" x2="258.823" y2="280.988"/><line x1="255.031" y1="280.988" x2="258.823" y2="277.196"/>
<line x1="259.478" y1="255.758" x2="263.27" y2="255.758"/><line x1="261.374" y1="253.862" x2="261.374" y2="257.654"/><line x1="259.478" y1="253.862" x2="263.27" y2="257.654"/><line x1="259.478" y1="257.654" x2="263.27" y2="253.862"/>
<line x1="263.925" y1="250.711" x2="267.717" y2="250.711"/><line x1="265.821" y1="248.815" x2="265.821" y2="252.608"/><line x1="263.925" y1="248.815" x2="267.717" y2="252.608"/><line x1="263.925" y1="252.608" x2="267.717" y2="248.815"/>
<line x1="268.372" y1="260.149" x2="272.164" y2="260.149"/><line x1="270.268" y1="258.253" x2="270.268" y2="262.045"/><line x1="268.372" y1="258.253" x2="272.164" y2="262.045"/><line x1="268.372" y1="262.045" x2="272.164" y2="258.253"/>
<line x1="272.819" y1="291.239" x2="276.611" y2="291.239"/><line x1="274.715" y1="289.343" x2="274.715" y2="293.135"/><line x1="272.819" y1="289.343" x2="276.611" y2="293.135"/><line x1="272.819" y1="293.135" x2="276.611" y2="289.343"/>
<line x1="277.266" y1="292.139" x2="281.058" y2="292.139"/><line x1="279.162" y1="290.243" x2="279.162" y2="294.035"/><line x1="277.266" y1="290.243" x2="281.058" y2="294.035"/><line x1="277.266" y1="294.035" x2="281.058" y2="290.243"/>
<line x1="281.712" y1="305.876" x2="285.505" y2="305.876"/><line x1="283.609" y1="303.98" x2="283.609" y2="307.772"/><line x1="281.712" y1="303.98" x2="285.505" y2="307.772"/><line x1="281.712" y1="307.772" x2="285.505" y2="303.98"/>
<line x1="286.159" y1="281.438" x2="289.952" y2="281.438"/><line x1="288.055" y1="279.542" x2="288.055" y2="283.334"/><line x1="286.159" y1="279.542" x2="289.952" y2="283.334"/><line x1="286.159" y1="283.334" x2="289.952" y2="279.542"/>
<line x1="290.606" y1="275.822" x2="294.399" y2="275.822"/><line x1="292.502" y1="273.925" x2="292.502" y2="277.718"/><line x1="290.606" y1="273.925" x2="294.399" y2="277.718"/><line x1="290.606" y1="277.718" x2="294.399" y2="273.925"/>
<line x1="295.053" y1="259.886" x2="298.845" y2="259.886"/><line x1="296.949" y1="257.989" x2="296.949" y2="261.782"/><line x1="295.053" y1="257.989" x2="298.845" y2="261.782"/><line x1="295.053" y1="261.782" x2="298.845" y2="257.989"/>
<line x1="299.5" y1="243.517" x2="303.292" y2="243.517"/><line x1="301.396" y1="241.621" x2="301.396" y2="245.413"/><line x1="299.5" y1="241.621" x2="303.292" y2="245.413"/><line x1="299.5" y1="245.413" x2="303.292" y2="241.621"/>
<line x1="303.947" y1="200.42" x2="307.739" y2="200.42"/><line x1="305.843" y1="198.524" x2="305.843" y2="202.317"/><line x1="303.947" y1="198.524" x2="307.739" y2="202.317"/><line x1="303.947" y1="202.317" x2="307.739" y2="198.524"/>
<line x1="308.394" y1="234.294" x2="312.186" y2="234.294"/><line x1="310.29" y1="232.397" x2="310.29" y2="236.19"/><line x1="308.394" y1="232.397" x2="312.186" y2="236.19"/><line x1="308.394" y1="236.19" x2="312.186" y2="232.397"/>
<line x1="312.841" y1="238.527" x2="316.633" y2="238.527"/><line x1="314.737" y1="236.631" x2="314.737" y2="240.423"/><line x1="312.841" y1="236.631" x2="316.633" y2="240.423"/><line x1="312.841" y1="240.423" x2="316.633" y2="236.631"/>
<line x1="317.288" y1="205.249" x2="321.08" y2="205.249"/><line x1="319.184" y1="203.353" x2="319.184" y2="207.145"/><line x1="317.288" y1="203.353" x2="321.08" y2="207.145"/><line x1="317.288" y1="207.145" x2="321.08" y2="203.353"/>
<line x1="321.735" y1="213.67" x2="325.527" y2="213.67"/><line x1="323.631" y1="211.774" x2="323.631" y2="215.566"/><line x1="321.735" y1="211.774" x2="325.527" y2="215.566"/><line x1="321.735" y1="215.566" x2="325.527" y2="211.774"/>
<line x1="326.182" y1="220.432" x2="329.974" y2="220.432"/><line x1="328.078" y1="218.535" x2="328.078" y2="222.328"/><line x1="326.182" y1="218.535" x2="329.974" y2="222.328"/><line x1="326.182" y1="222.328" x2="329.974" y2="218.535"/>
<line x1="330.629" y1="207.51" x2="334.421" y2="207.51"/><line x1="332.525" y1="205.614" x2="332.525" y2="209.406"/><line x1="330.629" y1="205.614" x2="334.421" y2="209.406"/><line x1="330.629" y1="209.406" x2="334.421" y2="205.614"/>
<line x1="335.076" y1="148.574" x2="338.868" y2="148.574"/><line x1="336.972" y1="146.678" x2="336.972" y2="150.471"/><line x1="335.076" y1="146.678" x2="338.868" y2="150.471"/><line x1="335.076" y1="150.471" x2="338.868" y2="146.678"/>
<line x1="339.523" y1="210.122" x2="343.315" y2="210.122"/><line x1="341.419" y1="208.226" x2="341.419" y2="212.018"/><line x1="339.523" y1="208.226" x2="343.315" y2="212.018"/><line x1="339.523" y1="212.018" x2="343.315" y2="208.226"/>
<line x1="343.97" y1="248.284" x2="347.762" y2="248.284"/><line x1="345.866" y1="246.388" x2="345.866" y2="250.18"/><line x1="343.97" y1="246.388" x2="347.762" y2="250.18"/><line x1="343.97" y1="250.18" x2="347.762" y2="246.388"/>
<line x1="348.417" y1="186.915" x2="352.209" y2="186.915"/><line x1="350.313" y1="185.019" x2="350.313" y2="188.811"/><line x1="348.417" y1="185.019" x2="352.209" y2="188.811"/><line x1="348.417" y1="188.811" x2="352.209" y2="185.019"/>
<line x1="352.864" y1="100.916" x2="356.656" y2="100.916"/><line x1="354.76" y1="99.0204" x2="354.76" y2="102.813"/><line x1="352.864" y1="99.0204" x2="356.656" y2="102.813"/><line x1="352.864" y1="102.813" x2="356.656" y2="99.0204"/>
<line x1="357.311" y1="117.513" x2="361.103" y2="117.513"/><line x1="359.207" y1="115.617" x2="359.207" y2="119.409"/><line x1="357.311" y1="115.617" x2="361.103" y2="119.409"/><line x1="357.311" y1="119.409" x2="361.103" y2="115.617"/>
<line x1="361.758" y1="73.0292" x2="365.55" y2="73.0292"/><line x1="363.654" y1="71.1332" x2="363.654" y2="74.9253"/><line x1="361.758" y1="71.1332" x2="365.55" y2="74.9253"/><line x1="361.758" y1="74.9253" x2="365.55" y2="71.1332"/>
</g>
<g stroke="black" stroke-width="1" fill="none">
<line x1="450.696" y1="58.4992" x2="454.489" y2="58.4992"/><line x1="452.593" y1="56.6031" x2="452.593" y2="60.3953"/><line x1="450.696" y1="56.6031" x2="454.489" y2="60.3953"/><line x1="450.696" y1="60.3953" x2="454.489" y2="56.6031"/>
<line x1="455.143" y1="60.2415" x2="458.936" y2="60.2415"/><line x1="457.039" y1="58.3454" x2="457.039" y2="62.1376"/><line x1="455.143" y1="58.3454" x2="458.936" y2="62.1376"/><line x1="455.143" y1="62.1376" x2="458.936" y2="58.3454"/>
<line x1="459.59" y1="65.2746" x2="463.383" y2="65.2746"/><line x1="461.486" y1="63.3785" x2="461.486" y2="67.1707"/><line x1="459.59" y1="63.3785" x2="463.383" y2="67.1707"/><line x1="459.59" y1="67.1707" x2="463.383" y2="63.3785"/>
</g>
<path d="M0.5,272.809h 566.929" fill="none" stroke="#0000ff"/></svg>
