<?xml version="1.0" standalone="no"?>
<svg width="567.429" height="413.846" viewBox="0 0 567.429 413.846" xmlns="http://www.w3.org/2000/svg" shape-rendering="crispEdges">
<title>
figures/chi2zoomin_2PMTnpefilelist20.svg
</title>
<desc>
Creator: ROOT Version 6.18/04
CreationDate: Fri Nov  1 14:13:58 2019</desc>
<defs>
</defs>
<rect x="0.5" y="0" width="566.929" height="413.346" fill="white"/>
<rect x="57.1929" y="41.3346" width="453.543" height="330.677" fill="white"/>
<rect x="57.1929" y="41.3346" width="453.543" height="330.677" fill="none" stroke="black"/>
<path d="M57.1929,372.012h 453.543" fill="none" stroke="black"/>
<path d="M86.5563,41.3346v 330.677" fill="none" stroke="black" stroke-dasharray=" 1, 2"/>
<path d="M131.555,41.3346v 330.677" fill="none" stroke="black" stroke-dasharray=" 1, 2"/>
<path d="M176.554,41.3346v 330.677" fill="none" stroke="black" stroke-dasharray=" 1, 2"/>
<path d="M221.553,41.3346v 330.677" fill="none" stroke="black" stroke-dasharray=" 1, 2"/>
<path d="M266.552,41.3346v 330.677" fill="none" stroke="black" stroke-dasharray=" 1, 2"/>
<path d="M311.551,41.3346v 330.677" fill="none" stroke="black" stroke-dasharray=" 1, 2"/>
<path d="M356.55,41.3346v 330.677" fill="none" stroke="black" stroke-dasharray=" 1, 2"/>
<path d="M401.548,41.3346v 330.677" fill="none" stroke="black" stroke-dasharray=" 1, 2"/>
<path d="M446.547,41.3346v 330.677" fill="none" stroke="black" stroke-dasharray=" 1, 2"/>
<path d="M491.546,41.3346v 330.677" fill="none" stroke="black" stroke-dasharray=" 1, 2"/>
<path d="M86.5563,41.3346v 330.677" fill="none" stroke="black" stroke-dasharray=" 1, 2"/>
<path d="M491.546,41.3346v 330.677" fill="none" stroke="black" stroke-dasharray=" 1, 2"/>
<path d="M57.1929,372.012v -330.677" fill="none" stroke="black"/>
<path d="M57.1929,372.012h 453.543" fill="none" stroke="black"/>
<path d="M86.5563,362.091v 9.92031" fill="none" stroke="black"/>
<path d="M97.806,367.052v 4.96016" fill="none" stroke="black"/>
<path d="M109.056,367.052v 4.96016" fill="none" stroke="black"/>
<path d="M120.305,367.052v 4.96016" fill="none" stroke="black"/>
<path d="M131.555,362.091v 9.92031" fill="none" stroke="black"/>
<path d="M142.805,367.052v 4.96016" fill="none" stroke="black"/>
<path d="M154.055,367.052v 4.96016" fill="none" stroke="black"/>
<path d="M165.304,367.052v 4.96016" fill="none" stroke="black"/>
<path d="M176.554,362.091v 9.92031" fill="none" stroke="black"/>
<path d="M187.804,367.052v 4.96016" fill="none" stroke="black"/>
<path d="M199.053,367.052v 4.96016" fill="none" stroke="black"/>
<path d="M210.303,367.052v 4.96016" fill="none" stroke="black"/>
<path d="M221.553,362.091v 9.92031" fill="none" stroke="black"/>
<path d="M232.803,367.052v 4.96016" fill="none" stroke="black"/>
<path d="M244.052,367.052v 4.96016" fill="none" stroke="black"/>
<path d="M255.302,367.052v 4.96016" fill="none" stroke="black"/>
<path d="M266.552,362.091v 9.92031" fill="none" stroke="black"/>
<path d="M277.802,367.052v 4.96016" fill="none" stroke="black"/>
<path d="M289.051,367.052v 4.96016" fill="none" stroke="black"/>
<path d="M300.301,367.052v 4.96016" fill="none" stroke="black"/>
<path d="M311.551,362.091v 9.92031" fill="none" stroke="black"/>
<path d="M322.8,367.052v 4.96016" fill="none" stroke="black"/>
<path d="M334.05,367.052v 4.96016" fill="none" stroke="black"/>
<path d="M345.3,367.052v 4.96016" fill="none" stroke="black"/>
<path d="M356.55,362.091v 9.92031" fill="none" stroke="black"/>
<path d="M367.799,367.052v 4.96016" fill="none" stroke="black"/>
<path d="M379.049,367.052v 4.96016" fill="none" stroke="black"/>
<path d="M390.299,367.052v 4.96016" fill="none" stroke="black"/>
<path d="M401.548,362.091v 9.92031" fill="none" stroke="black"/>
<path d="M412.798,367.052v 4.96016" fill="none" stroke="black"/>
<path d="M424.048,367.052v 4.96016" fill="none" stroke="black"/>
<path d="M435.298,367.052v 4.96016" fill="none" stroke="black"/>
<path d="M446.547,362.091v 9.92031" fill="none" stroke="black"/>
<path d="M457.797,367.052v 4.96016" fill="none" stroke="black"/>
<path d="M469.047,367.052v 4.96016" fill="none" stroke="black"/>
<path d="M480.296,367.052v 4.96016" fill="none" stroke="black"/>
<path d="M491.546,362.091v 9.92031" fill="none" stroke="black"/>
<path d="M86.5563,362.091v 9.92031" fill="none" stroke="black"/>
<path d="M75.3066,367.052v 4.96016" fill="none" stroke="black"/>
<path d="M64.0569,367.052v 4.96016" fill="none" stroke="black"/>
<path d="M491.546,362.091v 9.92031" fill="none" stroke="black"/>
<path d="M502.796,367.052v 4.96016" fill="none" stroke="black"/>
<text xml:space="preserve" x="69.7071" y="385.379" fill="black" font-size="13.7726" font-family="Helvetica">0.452</text>
<text xml:space="preserve" x="114.739" y="385.379" fill="black" font-size="13.7726" font-family="Helvetica">0.454</text>
<text xml:space="preserve" x="159.771" y="385.379" fill="black" font-size="13.7726" font-family="Helvetica">0.456</text>
<text xml:space="preserve" x="204.803" y="385.379" fill="black" font-size="13.7726" font-family="Helvetica">0.458</text>
<text xml:space="preserve" x="253.627" y="385.379" fill="black" font-size="13.7726" font-family="Helvetica">0.46</text>
<text xml:space="preserve" x="294.867" y="385.379" fill="black" font-size="13.7726" font-family="Helvetica">0.462</text>
<text xml:space="preserve" x="339.899" y="385.379" fill="black" font-size="13.7726" font-family="Helvetica">0.464</text>
<text xml:space="preserve" x="384.931" y="385.379" fill="black" font-size="13.7726" font-family="Helvetica">0.466</text>
<text xml:space="preserve" x="429.489" y="385.379" fill="black" font-size="13.7726" font-family="Helvetica">0.468</text>
<text xml:space="preserve" x="478.313" y="385.379" fill="black" font-size="13.7726" font-family="Helvetica">0.47</text>
<text xml:space="preserve" x="413.372" y="400.074" fill="black" font-size="13.7726" font-family="Helvetica">calibration factor</text>
<path d="M57.1929,372.012v -330.677" fill="none" stroke="black"/>
<path d="M70.7992,362.623h -13.6063" fill="none" stroke="black"/>
<path d="M63.9961,356.01h -6.80315" fill="none" stroke="black"/>
<path d="M63.9961,349.396h -6.80315" fill="none" stroke="black"/>
<path d="M63.9961,342.783h -6.80315" fill="none" stroke="black"/>
<path d="M63.9961,336.169h -6.80315" fill="none" stroke="black"/>
<path d="M70.7992,329.556h -13.6063" fill="none" stroke="black"/>
<path d="M63.9961,322.942h -6.80315" fill="none" stroke="black"/>
<path d="M63.9961,316.329h -6.80315" fill="none" stroke="black"/>
<path d="M63.9961,309.715h -6.80315" fill="none" stroke="black"/>
<path d="M63.9961,303.101h -6.80315" fill="none" stroke="black"/>
<path d="M70.7992,296.488h -13.6063" fill="none" stroke="black"/>
<path d="M63.9961,289.874h -6.80315" fill="none" stroke="black"/>
<path d="M63.9961,283.261h -6.80315" fill="none" stroke="black"/>
<path d="M63.9961,276.647h -6.80315" fill="none" stroke="black"/>
<path d="M63.9961,270.034h -6.80315" fill="none" stroke="black"/>
<path d="M70.7992,263.42h -13.6063" fill="none" stroke="black"/>
<path d="M63.9961,256.807h -6.80315" fill="none" stroke="black"/>
<path d="M63.9961,250.193h -6.80315" fill="none" stroke="black"/>
<path d="M63.9961,243.58h -6.80315" fill="none" stroke="black"/>
<path d="M63.9961,236.966h -6.80315" fill="none" stroke="black"/>
<path d="M70.7992,230.352h -13.6063" fill="none" stroke="black"/>
<path d="M63.9961,223.739h -6.80315" fill="none" stroke="black"/>
<path d="M63.9961,217.125h -6.80315" fill="none" stroke="black"/>
<path d="M63.9961,210.512h -6.80315" fill="none" stroke="black"/>
<path d="M63.9961,203.898h -6.80315" fill="none" stroke="black"/>
<path d="M70.7992,197.285h -13.6063" fill="none" stroke="black"/>
<path d="M63.9961,190.671h -6.80315" fill="none" stroke="black"/>
<path d="M63.9961,184.058h -6.80315" fill="none" stroke="black"/>
<path d="M63.9961,177.444h -6.80315" fill="none" stroke="black"/>
<path d="M63.9961,170.831h -6.80315" fill="none" stroke="black"/>
<path d="M70.7992,164.217h -13.6063" fill="none" stroke="black"/>
<path d="M63.9961,157.604h -6.80315" fill="none" stroke="black"/>
<path d="M63.9961,150.99h -6.80315" fill="none" stroke="black"/>
<path d="M63.9961,144.376h -6.80315" fill="none" stroke="black"/>
<path d="M63.9961,137.763h -6.80315" fill="none" stroke="black"/>
<path d="M70.7992,131.149h -13.6063" fill="none" stroke="black"/>
<path d="M63.9961,124.536h -6.80315" fill="none" stroke="black"/>
<path d="M63.9961,117.922h -6.80315" fill="none" stroke="black"/>
<path d="M63.9961,111.309h -6.80315" fill="none" stroke="black"/>
<path d="M63.9961,104.695h -6.80315" fill="none" stroke="black"/>
<path d="M70.7992,98.0817h -13.6063" fill="none" stroke="black"/>
<path d="M63.9961,91.4681h -6.80315" fill="none" stroke="black"/>
<path d="M63.9961,84.8546h -6.80315" fill="none" stroke="black"/>
<path d="M63.9961,78.241h -6.80315" fill="none" stroke="black"/>
<path d="M63.9961,71.6275h -6.80315" fill="none" stroke="black"/>
<path d="M70.7992,65.014h -13.6063" fill="none" stroke="black"/>
<path d="M70.7992,362.623h -13.6063" fill="none" stroke="black"/>
<path d="M63.9961,369.237h -6.80315" fill="none" stroke="black"/>
<path d="M70.7992,65.014h -13.6063" fill="none" stroke="black"/>
<path d="M63.9961,58.4004h -6.80315" fill="none" stroke="black"/>
<path d="M63.9961,51.7869h -6.80315" fill="none" stroke="black"/>
<path d="M63.9961,45.1733h -6.80315" fill="none" stroke="black"/>
<text xml:space="preserve" x="24.6751" y="366.892" fill="black" font-size="13.7726" font-family="Helvetica">2285</text>
<text xml:space="preserve" x="24.6751" y="334.185" fill="black" font-size="13.7726" font-family="Helvetica">2286</text>
<text xml:space="preserve" x="24.6751" y="301.003" fill="black" font-size="13.7726" font-family="Helvetica">2287</text>
<text xml:space="preserve" x="24.6751" y="267.822" fill="black" font-size="13.7726" font-family="Helvetica">2288</text>
<text xml:space="preserve" x="25.1491" y="234.64" fill="black" font-size="13.7726" font-family="Helvetica">2289</text>
<text xml:space="preserve" x="25.1491" y="201.933" fill="black" font-size="13.7726" font-family="Helvetica">2290</text>
<text xml:space="preserve" x="27.0452" y="168.751" fill="black" font-size="13.7726" font-family="Helvetica">2291</text>
<text xml:space="preserve" x="24.6751" y="135.57" fill="black" font-size="13.7726" font-family="Helvetica">2292</text>
<text xml:space="preserve" x="25.1491" y="102.389" fill="black" font-size="13.7726" font-family="Helvetica">2293</text>
<text xml:space="preserve" x="24.6751" y="69.6811" fill="black" font-size="13.7726" font-family="Helvetica">2294</text>
<g transform="rotate(-90,7.61032,45.98)">
<text xml:space="preserve" x="7.61032" y="45.98" fill="black" font-size="9.34839" font-family="Helvetica">2</text>
</g>
<g transform="rotate(-90,11.8765,50.2462)">
<text xml:space="preserve" x="11.8765" y="50.2462" fill="black" font-size="13.7726" font-family="Helvetica"> </text>
</g>
<g transform="rotate(-90,11.8765,57.3565)">
<text xml:space="preserve" x="11.8765" y="57.3565" fill="black" font-size="13.7726" font-family="Times">&#0967;</text>
</g>
<g stroke="black" stroke-width="1" fill="none">
<line x1="242.156" y1="147.285" x2="245.948" y2="147.285"/><line x1="244.052" y1="145.389" x2="244.052" y2="149.181"/><line x1="242.156" y1="145.389" x2="245.948" y2="149.181"/><line x1="242.156" y1="149.181" x2="245.948" y2="145.389"/>
</g>
<g stroke="black" stroke-width="1" fill="none">
<line x1="273.655" y1="66.8072" x2="277.448" y2="66.8072"/><line x1="275.552" y1="64.9111" x2="275.552" y2="68.7033"/><line x1="273.655" y1="64.9111" x2="277.448" y2="68.7033"/><line x1="273.655" y1="68.7033" x2="277.448" y2="64.9111"/>
<line x1="278.155" y1="174.56" x2="281.948" y2="174.56"/><line x1="280.051" y1="172.664" x2="280.051" y2="176.456"/><line x1="278.155" y1="172.664" x2="281.948" y2="176.456"/><line x1="278.155" y1="176.456" x2="281.948" y2="172.664"/>
<line x1="282.655" y1="305.876" x2="286.447" y2="305.876"/><line x1="284.551" y1="303.98" x2="284.551" y2="307.772"/><line x1="282.655" y1="303.98" x2="286.447" y2="307.772"/><line x1="282.655" y1="307.772" x2="286.447" y2="303.98"/>
<line x1="287.155" y1="287.227" x2="290.947" y2="287.227"/><line x1="289.051" y1="285.331" x2="289.051" y2="289.123"/><line x1="287.155" y1="285.331" x2="290.947" y2="289.123"/><line x1="287.155" y1="289.123" x2="290.947" y2="285.331"/>
<line x1="291.655" y1="169.781" x2="295.447" y2="169.781"/><line x1="293.551" y1="167.884" x2="293.551" y2="171.677"/><line x1="291.655" y1="167.884" x2="295.447" y2="171.677"/><line x1="291.655" y1="171.677" x2="295.447" y2="167.884"/>
<line x1="296.155" y1="83.1501" x2="299.947" y2="83.1501"/><line x1="298.051" y1="81.254" x2="298.051" y2="85.0462"/><line x1="296.155" y1="81.254" x2="299.947" y2="85.0462"/><line x1="296.155" y1="85.0462" x2="299.947" y2="81.254"/>
</g>
<path d="M0.5,272.809h 566.929" fill="none" stroke="#0000ff"/></svg>
