<?xml version="1.0" standalone="no"?>
<svg width="567.429" height="413.846" viewBox="0 0 567.429 413.846" xmlns="http://www.w3.org/2000/svg" shape-rendering="crispEdges">
<title>
figures/chi2zoomin_1PMTnpefilelist20.svg
</title>
<desc>
Creator: ROOT Version 6.18/04
CreationDate: Fri Nov  1 14:13:52 2019</desc>
<defs>
</defs>
<rect x="0.5" y="0" width="566.929" height="413.346" fill="white"/>
<rect x="57.1929" y="41.3346" width="453.543" height="330.677" fill="white"/>
<rect x="57.1929" y="41.3346" width="453.543" height="330.677" fill="none" stroke="black"/>
<path d="M57.1929,372.012h 453.543" fill="none" stroke="black"/>
<path d="M76.2706,41.3346v 330.677" fill="none" stroke="black" stroke-dasharray=" 1, 2"/>
<path d="M121.27,41.3346v 330.677" fill="none" stroke="black" stroke-dasharray=" 1, 2"/>
<path d="M166.268,41.3346v 330.677" fill="none" stroke="black" stroke-dasharray=" 1, 2"/>
<path d="M211.267,41.3346v 330.677" fill="none" stroke="black" stroke-dasharray=" 1, 2"/>
<path d="M256.266,41.3346v 330.677" fill="none" stroke="black" stroke-dasharray=" 1, 2"/>
<path d="M301.265,41.3346v 330.677" fill="none" stroke="black" stroke-dasharray=" 1, 2"/>
<path d="M346.264,41.3346v 330.677" fill="none" stroke="black" stroke-dasharray=" 1, 2"/>
<path d="M391.263,41.3346v 330.677" fill="none" stroke="black" stroke-dasharray=" 1, 2"/>
<path d="M436.262,41.3346v 330.677" fill="none" stroke="black" stroke-dasharray=" 1, 2"/>
<path d="M481.261,41.3346v 330.677" fill="none" stroke="black" stroke-dasharray=" 1, 2"/>
<path d="M76.2706,41.3346v 330.677" fill="none" stroke="black" stroke-dasharray=" 1, 2"/>
<path d="M481.261,41.3346v 330.677" fill="none" stroke="black" stroke-dasharray=" 1, 2"/>
<path d="M57.1929,372.012v -330.677" fill="none" stroke="black"/>
<path d="M57.1929,372.012h 453.543" fill="none" stroke="black"/>
<path d="M76.2706,362.091v 9.92031" fill="none" stroke="black"/>
<path d="M87.5204,367.052v 4.96016" fill="none" stroke="black"/>
<path d="M98.7701,367.052v 4.96016" fill="none" stroke="black"/>
<path d="M110.02,367.052v 4.96016" fill="none" stroke="black"/>
<path d="M121.27,362.091v 9.92031" fill="none" stroke="black"/>
<path d="M132.519,367.052v 4.96016" fill="none" stroke="black"/>
<path d="M143.769,367.052v 4.96016" fill="none" stroke="black"/>
<path d="M155.019,367.052v 4.96016" fill="none" stroke="black"/>
<path d="M166.268,362.091v 9.92031" fill="none" stroke="black"/>
<path d="M177.518,367.052v 4.96016" fill="none" stroke="black"/>
<path d="M188.768,367.052v 4.96016" fill="none" stroke="black"/>
<path d="M200.018,367.052v 4.96016" fill="none" stroke="black"/>
<path d="M211.267,362.091v 9.92031" fill="none" stroke="black"/>
<path d="M222.517,367.052v 4.96016" fill="none" stroke="black"/>
<path d="M233.767,367.052v 4.96016" fill="none" stroke="black"/>
<path d="M245.016,367.052v 4.96016" fill="none" stroke="black"/>
<path d="M256.266,362.091v 9.92031" fill="none" stroke="black"/>
<path d="M267.516,367.052v 4.96016" fill="none" stroke="black"/>
<path d="M278.766,367.052v 4.96016" fill="none" stroke="black"/>
<path d="M290.015,367.052v 4.96016" fill="none" stroke="black"/>
<path d="M301.265,362.091v 9.92031" fill="none" stroke="black"/>
<path d="M312.515,367.052v 4.96016" fill="none" stroke="black"/>
<path d="M323.764,367.052v 4.96016" fill="none" stroke="black"/>
<path d="M335.014,367.052v 4.96016" fill="none" stroke="black"/>
<path d="M346.264,362.091v 9.92031" fill="none" stroke="black"/>
<path d="M357.514,367.052v 4.96016" fill="none" stroke="black"/>
<path d="M368.763,367.052v 4.96016" fill="none" stroke="black"/>
<path d="M380.013,367.052v 4.96016" fill="none" stroke="black"/>
<path d="M391.263,362.091v 9.92031" fill="none" stroke="black"/>
<path d="M402.512,367.052v 4.96016" fill="none" stroke="black"/>
<path d="M413.762,367.052v 4.96016" fill="none" stroke="black"/>
<path d="M425.012,367.052v 4.96016" fill="none" stroke="black"/>
<path d="M436.262,362.091v 9.92031" fill="none" stroke="black"/>
<path d="M447.511,367.052v 4.96016" fill="none" stroke="black"/>
<path d="M458.761,367.052v 4.96016" fill="none" stroke="black"/>
<path d="M470.011,367.052v 4.96016" fill="none" stroke="black"/>
<path d="M481.261,362.091v 9.92031" fill="none" stroke="black"/>
<path d="M76.2706,362.091v 9.92031" fill="none" stroke="black"/>
<path d="M65.0209,367.052v 4.96016" fill="none" stroke="black"/>
<path d="M481.261,362.091v 9.92031" fill="none" stroke="black"/>
<path d="M492.51,367.052v 4.96016" fill="none" stroke="black"/>
<path d="M503.76,367.052v 4.96016" fill="none" stroke="black"/>
<text xml:space="preserve" x="63.0708" y="385.379" fill="black" font-size="13.7726" font-family="Helvetica">0.68</text>
<text xml:space="preserve" x="104.311" y="385.379" fill="black" font-size="13.7726" font-family="Helvetica">0.682</text>
<text xml:space="preserve" x="149.343" y="385.379" fill="black" font-size="13.7726" font-family="Helvetica">0.684</text>
<text xml:space="preserve" x="194.375" y="385.379" fill="black" font-size="13.7726" font-family="Helvetica">0.686</text>
<text xml:space="preserve" x="239.407" y="385.379" fill="black" font-size="13.7726" font-family="Helvetica">0.688</text>
<text xml:space="preserve" x="288.231" y="385.379" fill="black" font-size="13.7726" font-family="Helvetica">0.69</text>
<text xml:space="preserve" x="329.471" y="385.379" fill="black" font-size="13.7726" font-family="Helvetica">0.692</text>
<text xml:space="preserve" x="374.503" y="385.379" fill="black" font-size="13.7726" font-family="Helvetica">0.694</text>
<text xml:space="preserve" x="419.535" y="385.379" fill="black" font-size="13.7726" font-family="Helvetica">0.696</text>
<text xml:space="preserve" x="464.567" y="385.379" fill="black" font-size="13.7726" font-family="Helvetica">0.698</text>
<text xml:space="preserve" x="413.372" y="400.074" fill="black" font-size="13.7726" font-family="Helvetica">calibration factor</text>
<path d="M57.1929,372.012v -330.677" fill="none" stroke="black"/>
<path d="M70.7992,364.518h -13.6063" fill="none" stroke="black"/>
<path d="M63.9961,357.904h -6.80315" fill="none" stroke="black"/>
<path d="M63.9961,351.29h -6.80315" fill="none" stroke="black"/>
<path d="M63.9961,344.677h -6.80315" fill="none" stroke="black"/>
<path d="M63.9961,338.063h -6.80315" fill="none" stroke="black"/>
<path d="M70.7992,331.45h -13.6063" fill="none" stroke="black"/>
<path d="M63.9961,324.836h -6.80315" fill="none" stroke="black"/>
<path d="M63.9961,318.223h -6.80315" fill="none" stroke="black"/>
<path d="M63.9961,311.609h -6.80315" fill="none" stroke="black"/>
<path d="M63.9961,304.996h -6.80315" fill="none" stroke="black"/>
<path d="M70.7992,298.382h -13.6063" fill="none" stroke="black"/>
<path d="M63.9961,291.769h -6.80315" fill="none" stroke="black"/>
<path d="M63.9961,285.155h -6.80315" fill="none" stroke="black"/>
<path d="M63.9961,278.542h -6.80315" fill="none" stroke="black"/>
<path d="M63.9961,271.928h -6.80315" fill="none" stroke="black"/>
<path d="M70.7992,265.314h -13.6063" fill="none" stroke="black"/>
<path d="M63.9961,258.701h -6.80315" fill="none" stroke="black"/>
<path d="M63.9961,252.087h -6.80315" fill="none" stroke="black"/>
<path d="M63.9961,245.474h -6.80315" fill="none" stroke="black"/>
<path d="M63.9961,238.86h -6.80315" fill="none" stroke="black"/>
<path d="M70.7992,232.247h -13.6063" fill="none" stroke="black"/>
<path d="M63.9961,225.633h -6.80315" fill="none" stroke="black"/>
<path d="M63.9961,219.02h -6.80315" fill="none" stroke="black"/>
<path d="M63.9961,212.406h -6.80315" fill="none" stroke="black"/>
<path d="M63.9961,205.793h -6.80315" fill="none" stroke="black"/>
<path d="M70.7992,199.179h -13.6063" fill="none" stroke="black"/>
<path d="M63.9961,192.565h -6.80315" fill="none" stroke="black"/>
<path d="M63.9961,185.952h -6.80315" fill="none" stroke="black"/>
<path d="M63.9961,179.338h -6.80315" fill="none" stroke="black"/>
<path d="M63.9961,172.725h -6.80315" fill="none" stroke="black"/>
<path d="M70.7992,166.111h -13.6063" fill="none" stroke="black"/>
<path d="M63.9961,159.498h -6.80315" fill="none" stroke="black"/>
<path d="M63.9961,152.884h -6.80315" fill="none" stroke="black"/>
<path d="M63.9961,146.271h -6.80315" fill="none" stroke="black"/>
<path d="M63.9961,139.657h -6.80315" fill="none" stroke="black"/>
<path d="M70.7992,133.044h -13.6063" fill="none" stroke="black"/>
<path d="M63.9961,126.43h -6.80315" fill="none" stroke="black"/>
<path d="M63.9961,119.817h -6.80315" fill="none" stroke="black"/>
<path d="M63.9961,113.203h -6.80315" fill="none" stroke="black"/>
<path d="M63.9961,106.589h -6.80315" fill="none" stroke="black"/>
<path d="M70.7992,99.9759h -13.6063" fill="none" stroke="black"/>
<path d="M63.9961,93.3624h -6.80315" fill="none" stroke="black"/>
<path d="M63.9961,86.7488h -6.80315" fill="none" stroke="black"/>
<path d="M63.9961,80.1353h -6.80315" fill="none" stroke="black"/>
<path d="M63.9961,73.5218h -6.80315" fill="none" stroke="black"/>
<path d="M70.7992,66.9082h -13.6063" fill="none" stroke="black"/>
<path d="M70.7992,364.518h -13.6063" fill="none" stroke="black"/>
<path d="M63.9961,371.131h -6.80315" fill="none" stroke="black"/>
<path d="M70.7992,66.9082h -13.6063" fill="none" stroke="black"/>
<path d="M63.9961,60.2947h -6.80315" fill="none" stroke="black"/>
<path d="M63.9961,53.6811h -6.80315" fill="none" stroke="black"/>
<path d="M63.9961,47.0676h -6.80315" fill="none" stroke="black"/>
<text xml:space="preserve" x="32.2594" y="368.788" fill="black" font-size="13.7726" font-family="Helvetica">349</text>
<text xml:space="preserve" x="32.2594" y="336.081" fill="black" font-size="13.7726" font-family="Helvetica">350</text>
<text xml:space="preserve" x="34.6295" y="302.899" fill="black" font-size="13.7726" font-family="Helvetica">351</text>
<text xml:space="preserve" x="32.2594" y="269.718" fill="black" font-size="13.7726" font-family="Helvetica">352</text>
<text xml:space="preserve" x="32.2594" y="236.536" fill="black" font-size="13.7726" font-family="Helvetica">353</text>
<text xml:space="preserve" x="32.2594" y="203.829" fill="black" font-size="13.7726" font-family="Helvetica">354</text>
<text xml:space="preserve" x="32.2594" y="170.648" fill="black" font-size="13.7726" font-family="Helvetica">355</text>
<text xml:space="preserve" x="32.2594" y="137.466" fill="black" font-size="13.7726" font-family="Helvetica">356</text>
<text xml:space="preserve" x="32.2594" y="104.285" fill="black" font-size="13.7726" font-family="Helvetica">357</text>
<text xml:space="preserve" x="32.2594" y="71.5772" fill="black" font-size="13.7726" font-family="Helvetica">358</text>
<g transform="rotate(-90,15.1947,45.98)">
<text xml:space="preserve" x="15.1947" y="45.98" fill="black" font-size="9.34839" font-family="Helvetica">2</text>
</g>
<g transform="rotate(-90,19.4608,50.2462)">
<text xml:space="preserve" x="19.4608" y="50.2462" fill="black" font-size="13.7726" font-family="Helvetica"> </text>
</g>
<g transform="rotate(-90,19.4608,57.3565)">
<text xml:space="preserve" x="19.4608" y="57.3565" fill="black" font-size="13.7726" font-family="Times">&#0967;</text>
</g>
<g stroke="black" stroke-width="1" fill="none">
<line x1="78.8744" y1="53.4869" x2="82.6666" y2="53.4869"/><line x1="80.7705" y1="51.5908" x2="80.7705" y2="55.3829"/><line x1="78.8744" y1="51.5908" x2="82.6666" y2="55.3829"/><line x1="78.8744" y1="55.3829" x2="82.6666" y2="51.5908"/>
<line x1="83.3743" y1="54.5754" x2="87.1665" y2="54.5754"/><line x1="85.2704" y1="52.6793" x2="85.2704" y2="56.4715"/><line x1="83.3743" y1="52.6793" x2="87.1665" y2="56.4715"/><line x1="83.3743" y1="56.4715" x2="87.1665" y2="52.6793"/>
<line x1="87.8742" y1="124.738" x2="91.6664" y2="124.738"/><line x1="89.7703" y1="122.841" x2="89.7703" y2="126.634"/><line x1="87.8742" y1="122.841" x2="91.6664" y2="126.634"/><line x1="87.8742" y1="126.634" x2="91.6664" y2="122.841"/>
<line x1="92.3741" y1="99.7128" x2="96.1663" y2="99.7128"/><line x1="94.2702" y1="97.8167" x2="94.2702" y2="101.609"/><line x1="92.3741" y1="97.8167" x2="96.1663" y2="101.609"/><line x1="92.3741" y1="101.609" x2="96.1663" y2="97.8167"/>
<line x1="96.874" y1="189.701" x2="100.666" y2="189.701"/><line x1="98.7701" y1="187.805" x2="98.7701" y2="191.597"/><line x1="96.874" y1="187.805" x2="100.666" y2="191.597"/><line x1="96.874" y1="191.597" x2="100.666" y2="187.805"/>
<line x1="101.374" y1="101.279" x2="105.166" y2="101.279"/><line x1="103.27" y1="99.3827" x2="103.27" y2="103.175"/><line x1="101.374" y1="99.3827" x2="105.166" y2="103.175"/><line x1="101.374" y1="103.175" x2="105.166" y2="99.3827"/>
<line x1="105.874" y1="173.812" x2="109.666" y2="173.812"/><line x1="107.77" y1="171.916" x2="107.77" y2="175.708"/><line x1="105.874" y1="171.916" x2="109.666" y2="175.708"/><line x1="105.874" y1="175.708" x2="109.666" y2="171.916"/>
<line x1="110.374" y1="195.066" x2="114.166" y2="195.066"/><line x1="112.27" y1="193.17" x2="112.27" y2="196.962"/><line x1="110.374" y1="193.17" x2="114.166" y2="196.962"/><line x1="110.374" y1="196.962" x2="114.166" y2="193.17"/>
<line x1="114.874" y1="242.408" x2="118.666" y2="242.408"/><line x1="116.77" y1="240.512" x2="116.77" y2="244.304"/><line x1="114.874" y1="240.512" x2="118.666" y2="244.304"/><line x1="114.874" y1="244.304" x2="118.666" y2="240.512"/>
<line x1="119.373" y1="264.826" x2="123.166" y2="264.826"/><line x1="121.27" y1="262.93" x2="121.27" y2="266.722"/><line x1="119.373" y1="262.93" x2="123.166" y2="266.722"/><line x1="119.373" y1="266.722" x2="123.166" y2="262.93"/>
<line x1="123.873" y1="304.701" x2="127.665" y2="304.701"/><line x1="125.769" y1="302.805" x2="125.769" y2="306.597"/><line x1="123.873" y1="302.805" x2="127.665" y2="306.597"/><line x1="123.873" y1="306.597" x2="127.665" y2="302.805"/>
<line x1="128.373" y1="248.697" x2="132.165" y2="248.697"/><line x1="130.269" y1="246.801" x2="130.269" y2="250.593"/><line x1="128.373" y1="246.801" x2="132.165" y2="250.593"/><line x1="128.373" y1="250.593" x2="132.165" y2="246.801"/>
<line x1="132.873" y1="206.76" x2="136.665" y2="206.76"/><line x1="134.769" y1="204.864" x2="134.769" y2="208.656"/><line x1="132.873" y1="204.864" x2="136.665" y2="208.656"/><line x1="132.873" y1="208.656" x2="136.665" y2="204.864"/>
<line x1="137.373" y1="185.716" x2="141.165" y2="185.716"/><line x1="139.269" y1="183.82" x2="139.269" y2="187.612"/><line x1="137.373" y1="183.82" x2="141.165" y2="187.612"/><line x1="137.373" y1="187.612" x2="141.165" y2="183.82"/>
<line x1="141.873" y1="165.312" x2="145.665" y2="165.312"/><line x1="143.769" y1="163.416" x2="143.769" y2="167.208"/><line x1="141.873" y1="163.416" x2="145.665" y2="167.208"/><line x1="141.873" y1="167.208" x2="145.665" y2="163.416"/>
<line x1="146.373" y1="218.617" x2="150.165" y2="218.617"/><line x1="148.269" y1="216.721" x2="148.269" y2="220.513"/><line x1="146.373" y1="216.721" x2="150.165" y2="220.513"/><line x1="146.373" y1="220.513" x2="150.165" y2="216.721"/>
<line x1="150.873" y1="177.685" x2="154.665" y2="177.685"/><line x1="152.769" y1="175.789" x2="152.769" y2="179.582"/><line x1="150.873" y1="175.789" x2="154.665" y2="179.582"/><line x1="150.873" y1="179.582" x2="154.665" y2="175.789"/>
<line x1="155.373" y1="127.64" x2="159.165" y2="127.64"/><line x1="157.269" y1="125.744" x2="157.269" y2="129.537"/><line x1="155.373" y1="125.744" x2="159.165" y2="129.537"/><line x1="155.373" y1="129.537" x2="159.165" y2="125.744"/>
<line x1="159.872" y1="73.4201" x2="163.665" y2="73.4201"/><line x1="161.769" y1="71.524" x2="161.769" y2="75.3162"/><line x1="159.872" y1="71.524" x2="163.665" y2="75.3162"/><line x1="159.872" y1="75.3162" x2="163.665" y2="71.524"/>
<line x1="164.372" y1="117.728" x2="168.164" y2="117.728"/><line x1="166.268" y1="115.832" x2="166.268" y2="119.624"/><line x1="164.372" y1="115.832" x2="168.164" y2="119.624"/><line x1="164.372" y1="119.624" x2="168.164" y2="115.832"/>
<line x1="168.872" y1="155.116" x2="172.664" y2="155.116"/><line x1="170.768" y1="153.22" x2="170.768" y2="157.012"/><line x1="168.872" y1="153.22" x2="172.664" y2="157.012"/><line x1="168.872" y1="157.012" x2="172.664" y2="153.22"/>
<line x1="173.372" y1="155.261" x2="177.164" y2="155.261"/><line x1="175.268" y1="153.365" x2="175.268" y2="157.157"/><line x1="173.372" y1="153.365" x2="177.164" y2="157.157"/><line x1="173.372" y1="157.157" x2="177.164" y2="153.365"/>
<line x1="177.872" y1="102.665" x2="181.664" y2="102.665"/><line x1="179.768" y1="100.769" x2="179.768" y2="104.561"/><line x1="177.872" y1="100.769" x2="181.664" y2="104.561"/><line x1="177.872" y1="104.561" x2="181.664" y2="100.769"/>
<line x1="182.372" y1="129.219" x2="186.164" y2="129.219"/><line x1="184.268" y1="127.323" x2="184.268" y2="131.115"/><line x1="182.372" y1="127.323" x2="186.164" y2="131.115"/><line x1="182.372" y1="131.115" x2="186.164" y2="127.323"/>
<line x1="186.872" y1="77.6718" x2="190.664" y2="77.6718"/><line x1="188.768" y1="75.7757" x2="188.768" y2="79.5679"/><line x1="186.872" y1="75.7757" x2="190.664" y2="79.5679"/><line x1="186.872" y1="79.5679" x2="190.664" y2="75.7757"/>
<line x1="191.372" y1="57.1946" x2="195.164" y2="57.1946"/><line x1="193.268" y1="55.2985" x2="193.268" y2="59.0907"/><line x1="191.372" y1="55.2985" x2="195.164" y2="59.0907"/><line x1="191.372" y1="59.0907" x2="195.164" y2="55.2985"/>
</g>
<g stroke="black" stroke-width="1" fill="none">
<line x1="209.371" y1="105.564" x2="213.163" y2="105.564"/><line x1="211.267" y1="103.668" x2="211.267" y2="107.46"/><line x1="209.371" y1="103.668" x2="213.163" y2="107.46"/><line x1="209.371" y1="107.46" x2="213.163" y2="103.668"/>
<line x1="213.871" y1="81.1422" x2="217.663" y2="81.1422"/><line x1="215.767" y1="79.2461" x2="215.767" y2="83.0383"/><line x1="213.871" y1="79.2461" x2="217.663" y2="83.0383"/><line x1="213.871" y1="83.0383" x2="217.663" y2="79.2461"/>
</g>
<g stroke="black" stroke-width="1" fill="none">
<line x1="222.871" y1="75.1605" x2="226.663" y2="75.1605"/><line x1="224.767" y1="73.2644" x2="224.767" y2="77.0566"/><line x1="222.871" y1="73.2644" x2="226.663" y2="77.0566"/><line x1="222.871" y1="77.0566" x2="226.663" y2="73.2644"/>
<line x1="227.371" y1="63.3554" x2="231.163" y2="63.3554"/><line x1="229.267" y1="61.4593" x2="229.267" y2="65.2515"/><line x1="227.371" y1="61.4593" x2="231.163" y2="65.2515"/><line x1="227.371" y1="65.2515" x2="231.163" y2="61.4593"/>
</g>
<g stroke="black" stroke-width="1" fill="none">
<line x1="236.37" y1="159.181" x2="240.163" y2="159.181"/><line x1="238.267" y1="157.285" x2="238.267" y2="161.077"/><line x1="236.37" y1="157.285" x2="240.163" y2="161.077"/><line x1="236.37" y1="161.077" x2="240.163" y2="157.285"/>
<line x1="240.87" y1="74.1552" x2="244.663" y2="74.1552"/><line x1="242.766" y1="72.2591" x2="242.766" y2="76.0513"/><line x1="240.87" y1="72.2591" x2="244.663" y2="76.0513"/><line x1="240.87" y1="76.0513" x2="244.663" y2="72.2591"/>
<line x1="245.37" y1="116.179" x2="249.162" y2="116.179"/><line x1="247.266" y1="114.283" x2="247.266" y2="118.075"/><line x1="245.37" y1="114.283" x2="249.162" y2="118.075"/><line x1="245.37" y1="118.075" x2="249.162" y2="114.283"/>
<line x1="249.87" y1="114.637" x2="253.662" y2="114.637"/><line x1="251.766" y1="112.741" x2="251.766" y2="116.533"/><line x1="249.87" y1="112.741" x2="253.662" y2="116.533"/><line x1="249.87" y1="116.533" x2="253.662" y2="112.741"/>
<line x1="254.37" y1="130.762" x2="258.162" y2="130.762"/><line x1="256.266" y1="128.866" x2="256.266" y2="132.658"/><line x1="254.37" y1="128.866" x2="258.162" y2="132.658"/><line x1="254.37" y1="132.658" x2="258.162" y2="128.866"/>
<line x1="258.87" y1="98.0184" x2="262.662" y2="98.0184"/><line x1="260.766" y1="96.1223" x2="260.766" y2="99.9144"/><line x1="258.87" y1="96.1223" x2="262.662" y2="99.9144"/><line x1="258.87" y1="99.9144" x2="262.662" y2="96.1223"/>
<line x1="263.37" y1="61.9682" x2="267.162" y2="61.9682"/><line x1="265.266" y1="60.0722" x2="265.266" y2="63.8643"/><line x1="263.37" y1="60.0722" x2="267.162" y2="63.8643"/><line x1="263.37" y1="63.8643" x2="267.162" y2="60.0722"/>
<line x1="267.87" y1="116.132" x2="271.662" y2="116.132"/><line x1="269.766" y1="114.236" x2="269.766" y2="118.028"/><line x1="267.87" y1="114.236" x2="271.662" y2="118.028"/><line x1="267.87" y1="118.028" x2="271.662" y2="114.236"/>
<line x1="272.37" y1="155.157" x2="276.162" y2="155.157"/><line x1="274.266" y1="153.261" x2="274.266" y2="157.053"/><line x1="272.37" y1="153.261" x2="276.162" y2="157.053"/><line x1="272.37" y1="157.053" x2="276.162" y2="153.261"/>
<line x1="276.87" y1="165.851" x2="280.662" y2="165.851"/><line x1="278.766" y1="163.955" x2="278.766" y2="167.747"/><line x1="276.87" y1="163.955" x2="280.662" y2="167.747"/><line x1="276.87" y1="167.747" x2="280.662" y2="163.955"/>
<line x1="281.369" y1="305.876" x2="285.162" y2="305.876"/><line x1="283.265" y1="303.98" x2="283.265" y2="307.772"/><line x1="281.369" y1="303.98" x2="285.162" y2="307.772"/><line x1="281.369" y1="307.772" x2="285.162" y2="303.98"/>
<line x1="285.869" y1="305.742" x2="289.661" y2="305.742"/><line x1="287.765" y1="303.846" x2="287.765" y2="307.639"/><line x1="285.869" y1="303.846" x2="289.661" y2="307.639"/><line x1="285.869" y1="307.639" x2="289.661" y2="303.846"/>
<line x1="290.369" y1="301.039" x2="294.161" y2="301.039"/><line x1="292.265" y1="299.143" x2="292.265" y2="302.935"/><line x1="290.369" y1="299.143" x2="294.161" y2="302.935"/><line x1="290.369" y1="302.935" x2="294.161" y2="299.143"/>
<line x1="294.869" y1="141.476" x2="298.661" y2="141.476"/><line x1="296.765" y1="139.579" x2="296.765" y2="143.372"/><line x1="294.869" y1="139.579" x2="298.661" y2="143.372"/><line x1="294.869" y1="143.372" x2="298.661" y2="139.579"/>
<line x1="299.369" y1="113.943" x2="303.161" y2="113.943"/><line x1="301.265" y1="112.047" x2="301.265" y2="115.839"/><line x1="299.369" y1="112.047" x2="303.161" y2="115.839"/><line x1="299.369" y1="115.839" x2="303.161" y2="112.047"/>
<line x1="303.869" y1="125.708" x2="307.661" y2="125.708"/><line x1="305.765" y1="123.812" x2="305.765" y2="127.604"/><line x1="303.869" y1="123.812" x2="307.661" y2="127.604"/><line x1="303.869" y1="127.604" x2="307.661" y2="123.812"/>
<line x1="308.369" y1="110.017" x2="312.161" y2="110.017"/><line x1="310.265" y1="108.121" x2="310.265" y2="111.913"/><line x1="308.369" y1="108.121" x2="312.161" y2="111.913"/><line x1="308.369" y1="111.913" x2="312.161" y2="108.121"/>
<line x1="312.869" y1="163.704" x2="316.661" y2="163.704"/><line x1="314.765" y1="161.807" x2="314.765" y2="165.6"/><line x1="312.869" y1="161.807" x2="316.661" y2="165.6"/><line x1="312.869" y1="165.6" x2="316.661" y2="161.807"/>
<line x1="317.368" y1="175.024" x2="321.161" y2="175.024"/><line x1="319.265" y1="173.128" x2="319.265" y2="176.92"/><line x1="317.368" y1="173.128" x2="321.161" y2="176.92"/><line x1="317.368" y1="176.92" x2="321.161" y2="173.128"/>
<line x1="321.868" y1="122.482" x2="325.661" y2="122.482"/><line x1="323.764" y1="120.586" x2="323.764" y2="124.378"/><line x1="321.868" y1="120.586" x2="325.661" y2="124.378"/><line x1="321.868" y1="124.378" x2="325.661" y2="120.586"/>
<line x1="326.368" y1="134.171" x2="330.16" y2="134.171"/><line x1="328.264" y1="132.275" x2="328.264" y2="136.068"/><line x1="326.368" y1="132.275" x2="330.16" y2="136.068"/><line x1="326.368" y1="136.068" x2="330.16" y2="132.275"/>
<line x1="330.868" y1="130.889" x2="334.66" y2="130.889"/><line x1="332.764" y1="128.993" x2="332.764" y2="132.786"/><line x1="330.868" y1="128.993" x2="334.66" y2="132.786"/><line x1="330.868" y1="132.786" x2="334.66" y2="128.993"/>
<line x1="335.368" y1="270.455" x2="339.16" y2="270.455"/><line x1="337.264" y1="268.559" x2="337.264" y2="272.351"/><line x1="335.368" y1="268.559" x2="339.16" y2="272.351"/><line x1="335.368" y1="272.351" x2="339.16" y2="268.559"/>
<line x1="339.868" y1="151.582" x2="343.66" y2="151.582"/><line x1="341.764" y1="149.686" x2="341.764" y2="153.479"/><line x1="339.868" y1="149.686" x2="343.66" y2="153.479"/><line x1="339.868" y1="153.479" x2="343.66" y2="149.686"/>
<line x1="344.368" y1="86.5227" x2="348.16" y2="86.5227"/><line x1="346.264" y1="84.6266" x2="346.264" y2="88.4187"/><line x1="344.368" y1="84.6266" x2="348.16" y2="88.4187"/><line x1="344.368" y1="88.4187" x2="348.16" y2="84.6266"/>
<line x1="348.868" y1="137.798" x2="352.66" y2="137.798"/><line x1="350.764" y1="135.902" x2="350.764" y2="139.694"/><line x1="348.868" y1="135.902" x2="352.66" y2="139.694"/><line x1="348.868" y1="139.694" x2="352.66" y2="135.902"/>
<line x1="353.368" y1="92.7348" x2="357.16" y2="92.7348"/><line x1="355.264" y1="90.8388" x2="355.264" y2="94.6309"/><line x1="353.368" y1="90.8388" x2="357.16" y2="94.6309"/><line x1="353.368" y1="94.6309" x2="357.16" y2="90.8388"/>
</g>
<g stroke="black" stroke-width="1" fill="none">
<line x1="384.867" y1="119.794" x2="388.659" y2="119.794"/><line x1="386.763" y1="117.898" x2="386.763" y2="121.69"/><line x1="384.867" y1="117.898" x2="388.659" y2="121.69"/><line x1="384.867" y1="121.69" x2="388.659" y2="117.898"/>
<line x1="389.367" y1="72.5963" x2="393.159" y2="72.5963"/><line x1="391.263" y1="70.7002" x2="391.263" y2="74.4924"/><line x1="389.367" y1="70.7002" x2="393.159" y2="74.4924"/><line x1="389.367" y1="74.4924" x2="393.159" y2="70.7002"/>
<line x1="393.867" y1="126.138" x2="397.659" y2="126.138"/><line x1="395.763" y1="124.242" x2="395.763" y2="128.034"/><line x1="393.867" y1="124.242" x2="397.659" y2="128.034"/><line x1="393.867" y1="128.034" x2="397.659" y2="124.242"/>
<line x1="398.366" y1="178.455" x2="402.159" y2="178.455"/><line x1="400.263" y1="176.558" x2="400.263" y2="180.351"/><line x1="398.366" y1="176.558" x2="402.159" y2="180.351"/><line x1="398.366" y1="180.351" x2="402.159" y2="176.558"/>
<line x1="402.866" y1="92.7769" x2="406.659" y2="92.7769"/><line x1="404.762" y1="90.8809" x2="404.762" y2="94.673"/><line x1="402.866" y1="90.8809" x2="406.659" y2="94.673"/><line x1="402.866" y1="94.673" x2="406.659" y2="90.8809"/>
<line x1="407.366" y1="162.274" x2="411.158" y2="162.274"/><line x1="409.262" y1="160.377" x2="409.262" y2="164.17"/><line x1="407.366" y1="160.377" x2="411.158" y2="164.17"/><line x1="407.366" y1="164.17" x2="411.158" y2="160.377"/>
<line x1="411.866" y1="224.517" x2="415.658" y2="224.517"/><line x1="413.762" y1="222.621" x2="413.762" y2="226.413"/><line x1="411.866" y1="222.621" x2="415.658" y2="226.413"/><line x1="411.866" y1="226.413" x2="415.658" y2="222.621"/>
<line x1="416.366" y1="137.403" x2="420.158" y2="137.403"/><line x1="418.262" y1="135.507" x2="418.262" y2="139.299"/><line x1="416.366" y1="135.507" x2="420.158" y2="139.299"/><line x1="416.366" y1="139.299" x2="420.158" y2="135.507"/>
<line x1="420.866" y1="119.952" x2="424.658" y2="119.952"/><line x1="422.762" y1="118.056" x2="422.762" y2="121.848"/><line x1="420.866" y1="118.056" x2="424.658" y2="121.848"/><line x1="420.866" y1="121.848" x2="424.658" y2="118.056"/>
<line x1="425.366" y1="47.4692" x2="429.158" y2="47.4692"/><line x1="427.262" y1="45.5731" x2="427.262" y2="49.3652"/><line x1="425.366" y1="45.5731" x2="429.158" y2="49.3652"/><line x1="425.366" y1="49.3652" x2="429.158" y2="45.5731"/>
<line x1="429.866" y1="88.6274" x2="433.658" y2="88.6274"/><line x1="431.762" y1="86.7314" x2="431.762" y2="90.5235"/><line x1="429.866" y1="86.7314" x2="433.658" y2="90.5235"/><line x1="429.866" y1="90.5235" x2="433.658" y2="86.7314"/>
<line x1="434.366" y1="82.3796" x2="438.158" y2="82.3796"/><line x1="436.262" y1="80.4836" x2="436.262" y2="84.2757"/><line x1="434.366" y1="80.4836" x2="438.158" y2="84.2757"/><line x1="434.366" y1="84.2757" x2="438.158" y2="80.4836"/>
</g>
<path d="M0.5,272.809h 566.929" fill="none" stroke="#0000ff"/></svg>
