<?xml version="1.0" standalone="no"?>
<svg width="567.429" height="413.846" viewBox="0 0 567.429 413.846" xmlns="http://www.w3.org/2000/svg" shape-rendering="crispEdges">
<title>
figures/chi2zoomin_5PMTnpefilelist20.svg
</title>
<desc>
Creator: ROOT Version 6.18/04
CreationDate: Fri Nov  1 14:14:15 2019</desc>
<defs>
</defs>
<rect x="0.5" y="0" width="566.929" height="413.346" fill="white"/>
<rect x="57.1929" y="41.3346" width="453.543" height="330.677" fill="white"/>
<rect x="57.1929" y="41.3346" width="453.543" height="330.677" fill="none" stroke="black"/>
<path d="M57.1929,372.012h 453.543" fill="none" stroke="black"/>
<path d="M91.4203,41.3346v 330.677" fill="none" stroke="black" stroke-dasharray=" 1, 2"/>
<path d="M136.419,41.3346v 330.677" fill="none" stroke="black" stroke-dasharray=" 1, 2"/>
<path d="M181.418,41.3346v 330.677" fill="none" stroke="black" stroke-dasharray=" 1, 2"/>
<path d="M226.417,41.3346v 330.677" fill="none" stroke="black" stroke-dasharray=" 1, 2"/>
<path d="M271.416,41.3346v 330.677" fill="none" stroke="black" stroke-dasharray=" 1, 2"/>
<path d="M316.415,41.3346v 330.677" fill="none" stroke="black" stroke-dasharray=" 1, 2"/>
<path d="M361.414,41.3346v 330.677" fill="none" stroke="black" stroke-dasharray=" 1, 2"/>
<path d="M406.412,41.3346v 330.677" fill="none" stroke="black" stroke-dasharray=" 1, 2"/>
<path d="M451.411,41.3346v 330.677" fill="none" stroke="black" stroke-dasharray=" 1, 2"/>
<path d="M496.41,41.3346v 330.677" fill="none" stroke="black" stroke-dasharray=" 1, 2"/>
<path d="M91.4203,41.3346v 330.677" fill="none" stroke="black" stroke-dasharray=" 1, 2"/>
<path d="M496.41,41.3346v 330.677" fill="none" stroke="black" stroke-dasharray=" 1, 2"/>
<path d="M57.1929,372.012v -330.677" fill="none" stroke="black"/>
<path d="M57.1929,372.012h 453.543" fill="none" stroke="black"/>
<path d="M91.4203,362.091v 9.92031" fill="none" stroke="black"/>
<path d="M102.67,367.052v 4.96016" fill="none" stroke="black"/>
<path d="M113.92,367.052v 4.96016" fill="none" stroke="black"/>
<path d="M125.169,367.052v 4.96016" fill="none" stroke="black"/>
<path d="M136.419,362.091v 9.92031" fill="none" stroke="black"/>
<path d="M147.669,367.052v 4.96016" fill="none" stroke="black"/>
<path d="M158.919,367.052v 4.96016" fill="none" stroke="black"/>
<path d="M170.168,367.052v 4.96016" fill="none" stroke="black"/>
<path d="M181.418,362.091v 9.92031" fill="none" stroke="black"/>
<path d="M192.668,367.052v 4.96016" fill="none" stroke="black"/>
<path d="M203.918,367.052v 4.96016" fill="none" stroke="black"/>
<path d="M215.167,367.052v 4.96016" fill="none" stroke="black"/>
<path d="M226.417,362.091v 9.92031" fill="none" stroke="black"/>
<path d="M237.667,367.052v 4.96016" fill="none" stroke="black"/>
<path d="M248.916,367.052v 4.96016" fill="none" stroke="black"/>
<path d="M260.166,367.052v 4.96016" fill="none" stroke="black"/>
<path d="M271.416,362.091v 9.92031" fill="none" stroke="black"/>
<path d="M282.666,367.052v 4.96016" fill="none" stroke="black"/>
<path d="M293.915,367.052v 4.96016" fill="none" stroke="black"/>
<path d="M305.165,367.052v 4.96016" fill="none" stroke="black"/>
<path d="M316.415,362.091v 9.92031" fill="none" stroke="black"/>
<path d="M327.664,367.052v 4.96016" fill="none" stroke="black"/>
<path d="M338.914,367.052v 4.96016" fill="none" stroke="black"/>
<path d="M350.164,367.052v 4.96016" fill="none" stroke="black"/>
<path d="M361.414,362.091v 9.92031" fill="none" stroke="black"/>
<path d="M372.663,367.052v 4.96016" fill="none" stroke="black"/>
<path d="M383.913,367.052v 4.96016" fill="none" stroke="black"/>
<path d="M395.163,367.052v 4.96016" fill="none" stroke="black"/>
<path d="M406.412,362.091v 9.92031" fill="none" stroke="black"/>
<path d="M417.662,367.052v 4.96016" fill="none" stroke="black"/>
<path d="M428.912,367.052v 4.96016" fill="none" stroke="black"/>
<path d="M440.162,367.052v 4.96016" fill="none" stroke="black"/>
<path d="M451.411,362.091v 9.92031" fill="none" stroke="black"/>
<path d="M462.661,367.052v 4.96016" fill="none" stroke="black"/>
<path d="M473.911,367.052v 4.96016" fill="none" stroke="black"/>
<path d="M485.16,367.052v 4.96016" fill="none" stroke="black"/>
<path d="M496.41,362.091v 9.92031" fill="none" stroke="black"/>
<path d="M91.4203,362.091v 9.92031" fill="none" stroke="black"/>
<path d="M80.1706,367.052v 4.96016" fill="none" stroke="black"/>
<path d="M68.9209,367.052v 4.96016" fill="none" stroke="black"/>
<path d="M57.6712,367.052v 4.96016" fill="none" stroke="black"/>
<path d="M496.41,362.091v 9.92031" fill="none" stroke="black"/>
<path d="M507.66,367.052v 4.96016" fill="none" stroke="black"/>
<text xml:space="preserve" x="74.4473" y="385.379" fill="black" font-size="13.7726" font-family="Helvetica">1.014</text>
<text xml:space="preserve" x="119.479" y="385.379" fill="black" font-size="13.7726" font-family="Helvetica">1.016</text>
<text xml:space="preserve" x="164.511" y="385.379" fill="black" font-size="13.7726" font-family="Helvetica">1.018</text>
<text xml:space="preserve" x="213.335" y="385.379" fill="black" font-size="13.7726" font-family="Helvetica">1.02</text>
<text xml:space="preserve" x="254.575" y="385.379" fill="black" font-size="13.7726" font-family="Helvetica">1.022</text>
<text xml:space="preserve" x="299.607" y="385.379" fill="black" font-size="13.7726" font-family="Helvetica">1.024</text>
<text xml:space="preserve" x="344.639" y="385.379" fill="black" font-size="13.7726" font-family="Helvetica">1.026</text>
<text xml:space="preserve" x="389.671" y="385.379" fill="black" font-size="13.7726" font-family="Helvetica">1.028</text>
<text xml:space="preserve" x="438.495" y="385.379" fill="black" font-size="13.7726" font-family="Helvetica">1.03</text>
<text xml:space="preserve" x="479.735" y="385.379" fill="black" font-size="13.7726" font-family="Helvetica">1.032</text>
<text xml:space="preserve" x="413.372" y="400.074" fill="black" font-size="13.7726" font-family="Helvetica">calibration factor</text>
<path d="M57.1929,372.012v -330.677" fill="none" stroke="black"/>
<path d="M70.7992,349.046h -13.6063" fill="none" stroke="black"/>
<path d="M63.9961,342.432h -6.80315" fill="none" stroke="black"/>
<path d="M63.9961,335.818h -6.80315" fill="none" stroke="black"/>
<path d="M63.9961,329.205h -6.80315" fill="none" stroke="black"/>
<path d="M63.9961,322.591h -6.80315" fill="none" stroke="black"/>
<path d="M70.7992,315.978h -13.6063" fill="none" stroke="black"/>
<path d="M63.9961,309.364h -6.80315" fill="none" stroke="black"/>
<path d="M63.9961,302.751h -6.80315" fill="none" stroke="black"/>
<path d="M63.9961,296.137h -6.80315" fill="none" stroke="black"/>
<path d="M63.9961,289.524h -6.80315" fill="none" stroke="black"/>
<path d="M70.7992,282.91h -13.6063" fill="none" stroke="black"/>
<path d="M63.9961,276.297h -6.80315" fill="none" stroke="black"/>
<path d="M63.9961,269.683h -6.80315" fill="none" stroke="black"/>
<path d="M63.9961,263.07h -6.80315" fill="none" stroke="black"/>
<path d="M63.9961,256.456h -6.80315" fill="none" stroke="black"/>
<path d="M70.7992,249.842h -13.6063" fill="none" stroke="black"/>
<path d="M63.9961,243.229h -6.80315" fill="none" stroke="black"/>
<path d="M63.9961,236.615h -6.80315" fill="none" stroke="black"/>
<path d="M63.9961,230.002h -6.80315" fill="none" stroke="black"/>
<path d="M63.9961,223.388h -6.80315" fill="none" stroke="black"/>
<path d="M70.7992,216.775h -13.6063" fill="none" stroke="black"/>
<path d="M63.9961,210.161h -6.80315" fill="none" stroke="black"/>
<path d="M63.9961,203.548h -6.80315" fill="none" stroke="black"/>
<path d="M63.9961,196.934h -6.80315" fill="none" stroke="black"/>
<path d="M63.9961,190.321h -6.80315" fill="none" stroke="black"/>
<path d="M70.7992,183.707h -13.6063" fill="none" stroke="black"/>
<path d="M63.9961,177.094h -6.80315" fill="none" stroke="black"/>
<path d="M63.9961,170.48h -6.80315" fill="none" stroke="black"/>
<path d="M63.9961,163.866h -6.80315" fill="none" stroke="black"/>
<path d="M63.9961,157.253h -6.80315" fill="none" stroke="black"/>
<path d="M70.7992,150.639h -13.6063" fill="none" stroke="black"/>
<path d="M63.9961,144.026h -6.80315" fill="none" stroke="black"/>
<path d="M63.9961,137.412h -6.80315" fill="none" stroke="black"/>
<path d="M63.9961,130.799h -6.80315" fill="none" stroke="black"/>
<path d="M63.9961,124.185h -6.80315" fill="none" stroke="black"/>
<path d="M70.7992,117.572h -13.6063" fill="none" stroke="black"/>
<path d="M63.9961,110.958h -6.80315" fill="none" stroke="black"/>
<path d="M63.9961,104.345h -6.80315" fill="none" stroke="black"/>
<path d="M63.9961,97.731h -6.80315" fill="none" stroke="black"/>
<path d="M63.9961,91.1175h -6.80315" fill="none" stroke="black"/>
<path d="M70.7992,84.5039h -13.6063" fill="none" stroke="black"/>
<path d="M63.9961,77.8904h -6.80315" fill="none" stroke="black"/>
<path d="M63.9961,71.2768h -6.80315" fill="none" stroke="black"/>
<path d="M63.9961,64.6633h -6.80315" fill="none" stroke="black"/>
<path d="M63.9961,58.0498h -6.80315" fill="none" stroke="black"/>
<path d="M70.7992,51.4362h -13.6063" fill="none" stroke="black"/>
<path d="M70.7992,349.046h -13.6063" fill="none" stroke="black"/>
<path d="M63.9961,355.659h -6.80315" fill="none" stroke="black"/>
<path d="M63.9961,362.273h -6.80315" fill="none" stroke="black"/>
<path d="M63.9961,368.886h -6.80315" fill="none" stroke="black"/>
<path d="M70.7992,51.4362h -13.6063" fill="none" stroke="black"/>
<path d="M63.9961,44.8227h -6.80315" fill="none" stroke="black"/>
<text xml:space="preserve" x="24.6751" y="353.62" fill="black" font-size="13.7726" font-family="Helvetica">2465</text>
<text xml:space="preserve" x="24.6751" y="320.438" fill="black" font-size="13.7726" font-family="Helvetica">2466</text>
<text xml:space="preserve" x="24.6751" y="287.257" fill="black" font-size="13.7726" font-family="Helvetica">2467</text>
<text xml:space="preserve" x="24.6751" y="254.549" fill="black" font-size="13.7726" font-family="Helvetica">2468</text>
<text xml:space="preserve" x="25.1491" y="221.368" fill="black" font-size="13.7726" font-family="Helvetica">2469</text>
<text xml:space="preserve" x="25.1491" y="188.186" fill="black" font-size="13.7726" font-family="Helvetica">2470</text>
<text xml:space="preserve" x="27.0452" y="155.479" fill="black" font-size="13.7726" font-family="Helvetica">2471</text>
<text xml:space="preserve" x="24.6751" y="122.771" fill="black" font-size="13.7726" font-family="Helvetica">2472</text>
<text xml:space="preserve" x="25.1491" y="89.116" fill="black" font-size="13.7726" font-family="Helvetica">2473</text>
<text xml:space="preserve" x="24.6751" y="56.4085" fill="black" font-size="13.7726" font-family="Helvetica">2474</text>
<g transform="rotate(-90,7.61032,45.98)">
<text xml:space="preserve" x="7.61032" y="45.98" fill="black" font-size="9.34839" font-family="Helvetica">2</text>
</g>
<g transform="rotate(-90,11.8765,50.2462)">
<text xml:space="preserve" x="11.8765" y="50.2462" fill="black" font-size="13.7726" font-family="Helvetica"> </text>
</g>
<g transform="rotate(-90,11.8765,57.3565)">
<text xml:space="preserve" x="11.8765" y="57.3565" fill="black" font-size="13.7726" font-family="Times">&#0967;</text>
</g>
<g stroke="black" stroke-width="1" fill="none">
<line x1="58.025" y1="227.868" x2="61.8172" y2="227.868"/><line x1="59.9211" y1="225.972" x2="59.9211" y2="229.764"/><line x1="58.025" y1="225.972" x2="61.8172" y2="229.764"/><line x1="58.025" y1="229.764" x2="61.8172" y2="225.972"/>
<line x1="62.5249" y1="229.362" x2="66.3171" y2="229.362"/><line x1="64.421" y1="227.466" x2="64.421" y2="231.258"/><line x1="62.5249" y1="227.466" x2="66.3171" y2="231.258"/><line x1="62.5249" y1="231.258" x2="66.3171" y2="227.466"/>
<line x1="67.0248" y1="295.889" x2="70.817" y2="295.889"/><line x1="68.9209" y1="293.993" x2="68.9209" y2="297.785"/><line x1="67.0248" y1="293.993" x2="70.817" y2="297.785"/><line x1="67.0248" y1="297.785" x2="70.817" y2="293.993"/>
<line x1="71.5247" y1="295.889" x2="75.3169" y2="295.889"/><line x1="73.4208" y1="293.993" x2="73.4208" y2="297.785"/><line x1="71.5247" y1="293.993" x2="75.3169" y2="297.785"/><line x1="71.5247" y1="297.785" x2="75.3169" y2="293.993"/>
<line x1="76.0246" y1="295.889" x2="79.8167" y2="295.889"/><line x1="77.9207" y1="293.993" x2="77.9207" y2="297.785"/><line x1="76.0246" y1="293.993" x2="79.8167" y2="297.785"/><line x1="76.0246" y1="297.785" x2="79.8167" y2="293.993"/>
<line x1="80.5245" y1="297.854" x2="84.3166" y2="297.854"/><line x1="82.4205" y1="295.958" x2="82.4205" y2="299.75"/><line x1="80.5245" y1="295.958" x2="84.3166" y2="299.75"/><line x1="80.5245" y1="299.75" x2="84.3166" y2="295.958"/>
<line x1="85.0244" y1="297.854" x2="88.8165" y2="297.854"/><line x1="86.9204" y1="295.958" x2="86.9204" y2="299.75"/><line x1="85.0244" y1="295.958" x2="88.8165" y2="299.75"/><line x1="85.0244" y1="299.75" x2="88.8165" y2="295.958"/>
<line x1="89.5242" y1="297.854" x2="93.3164" y2="297.854"/><line x1="91.4203" y1="295.958" x2="91.4203" y2="299.75"/><line x1="89.5242" y1="295.958" x2="93.3164" y2="299.75"/><line x1="89.5242" y1="299.75" x2="93.3164" y2="295.958"/>
<line x1="94.0241" y1="297.854" x2="97.8163" y2="297.854"/><line x1="95.9202" y1="295.958" x2="95.9202" y2="299.75"/><line x1="94.0241" y1="295.958" x2="97.8163" y2="299.75"/><line x1="94.0241" y1="299.75" x2="97.8163" y2="295.958"/>
<line x1="98.524" y1="297.854" x2="102.316" y2="297.854"/><line x1="100.42" y1="295.958" x2="100.42" y2="299.75"/><line x1="98.524" y1="295.958" x2="102.316" y2="299.75"/><line x1="98.524" y1="299.75" x2="102.316" y2="295.958"/>
<line x1="103.024" y1="297.854" x2="106.816" y2="297.854"/><line x1="104.92" y1="295.958" x2="104.92" y2="299.75"/><line x1="103.024" y1="295.958" x2="106.816" y2="299.75"/><line x1="103.024" y1="299.75" x2="106.816" y2="295.958"/>
<line x1="107.524" y1="297.854" x2="111.316" y2="297.854"/><line x1="109.42" y1="295.958" x2="109.42" y2="299.75"/><line x1="107.524" y1="295.958" x2="111.316" y2="299.75"/><line x1="107.524" y1="299.75" x2="111.316" y2="295.958"/>
<line x1="112.024" y1="297.836" x2="115.816" y2="297.836"/><line x1="113.92" y1="295.94" x2="113.92" y2="299.732"/><line x1="112.024" y1="295.94" x2="115.816" y2="299.732"/><line x1="112.024" y1="299.732" x2="115.816" y2="295.94"/>
<line x1="116.524" y1="297.836" x2="120.316" y2="297.836"/><line x1="118.42" y1="295.94" x2="118.42" y2="299.732"/><line x1="116.524" y1="295.94" x2="120.316" y2="299.732"/><line x1="116.524" y1="299.732" x2="120.316" y2="295.94"/>
<line x1="121.023" y1="297.836" x2="124.816" y2="297.836"/><line x1="122.92" y1="295.94" x2="122.92" y2="299.732"/><line x1="121.023" y1="295.94" x2="124.816" y2="299.732"/><line x1="121.023" y1="299.732" x2="124.816" y2="295.94"/>
<line x1="125.523" y1="297.836" x2="129.316" y2="297.836"/><line x1="127.419" y1="295.94" x2="127.419" y2="299.732"/><line x1="125.523" y1="295.94" x2="129.316" y2="299.732"/><line x1="125.523" y1="299.732" x2="129.316" y2="295.94"/>
<line x1="130.023" y1="297.836" x2="133.815" y2="297.836"/><line x1="131.919" y1="295.94" x2="131.919" y2="299.732"/><line x1="130.023" y1="295.94" x2="133.815" y2="299.732"/><line x1="130.023" y1="299.732" x2="133.815" y2="295.94"/>
<line x1="134.523" y1="299.33" x2="138.315" y2="299.33"/><line x1="136.419" y1="297.434" x2="136.419" y2="301.226"/><line x1="134.523" y1="297.434" x2="138.315" y2="301.226"/><line x1="134.523" y1="301.226" x2="138.315" y2="297.434"/>
<line x1="139.023" y1="299.33" x2="142.815" y2="299.33"/><line x1="140.919" y1="297.434" x2="140.919" y2="301.226"/><line x1="139.023" y1="297.434" x2="142.815" y2="301.226"/><line x1="139.023" y1="301.226" x2="142.815" y2="297.434"/>
<line x1="143.523" y1="299.33" x2="147.315" y2="299.33"/><line x1="145.419" y1="297.434" x2="145.419" y2="301.226"/><line x1="143.523" y1="297.434" x2="147.315" y2="301.226"/><line x1="143.523" y1="301.226" x2="147.315" y2="297.434"/>
<line x1="148.023" y1="299.33" x2="151.815" y2="299.33"/><line x1="149.919" y1="297.434" x2="149.919" y2="301.226"/><line x1="148.023" y1="297.434" x2="151.815" y2="301.226"/><line x1="148.023" y1="301.226" x2="151.815" y2="297.434"/>
<line x1="152.523" y1="299.33" x2="156.315" y2="299.33"/><line x1="154.419" y1="297.434" x2="154.419" y2="301.226"/><line x1="152.523" y1="297.434" x2="156.315" y2="301.226"/><line x1="152.523" y1="301.226" x2="156.315" y2="297.434"/>
<line x1="157.023" y1="299.33" x2="160.815" y2="299.33"/><line x1="158.919" y1="297.434" x2="158.919" y2="301.226"/><line x1="157.023" y1="297.434" x2="160.815" y2="301.226"/><line x1="157.023" y1="301.226" x2="160.815" y2="297.434"/>
<line x1="161.522" y1="299.33" x2="165.315" y2="299.33"/><line x1="163.419" y1="297.434" x2="163.419" y2="301.226"/><line x1="161.522" y1="297.434" x2="165.315" y2="301.226"/><line x1="161.522" y1="301.226" x2="165.315" y2="297.434"/>
<line x1="166.022" y1="299.33" x2="169.814" y2="299.33"/><line x1="167.918" y1="297.434" x2="167.918" y2="301.226"/><line x1="166.022" y1="297.434" x2="169.814" y2="301.226"/><line x1="166.022" y1="301.226" x2="169.814" y2="297.434"/>
<line x1="170.522" y1="300.812" x2="174.314" y2="300.812"/><line x1="172.418" y1="298.915" x2="172.418" y2="302.708"/><line x1="170.522" y1="298.915" x2="174.314" y2="302.708"/><line x1="170.522" y1="302.708" x2="174.314" y2="298.915"/>
<line x1="175.022" y1="300.812" x2="178.814" y2="300.812"/><line x1="176.918" y1="298.915" x2="176.918" y2="302.708"/><line x1="175.022" y1="298.915" x2="178.814" y2="302.708"/><line x1="175.022" y1="302.708" x2="178.814" y2="298.915"/>
<line x1="179.522" y1="300.812" x2="183.314" y2="300.812"/><line x1="181.418" y1="298.915" x2="181.418" y2="302.708"/><line x1="179.522" y1="298.915" x2="183.314" y2="302.708"/><line x1="179.522" y1="302.708" x2="183.314" y2="298.915"/>
<line x1="184.022" y1="300.812" x2="187.814" y2="300.812"/><line x1="185.918" y1="298.915" x2="185.918" y2="302.708"/><line x1="184.022" y1="298.915" x2="187.814" y2="302.708"/><line x1="184.022" y1="302.708" x2="187.814" y2="298.915"/>
<line x1="188.522" y1="300.812" x2="192.314" y2="300.812"/><line x1="190.418" y1="298.915" x2="190.418" y2="302.708"/><line x1="188.522" y1="298.915" x2="192.314" y2="302.708"/><line x1="188.522" y1="302.708" x2="192.314" y2="298.915"/>
<line x1="193.022" y1="300.812" x2="196.814" y2="300.812"/><line x1="194.918" y1="298.915" x2="194.918" y2="302.708"/><line x1="193.022" y1="298.915" x2="196.814" y2="302.708"/><line x1="193.022" y1="302.708" x2="196.814" y2="298.915"/>
<line x1="197.522" y1="300.624" x2="201.314" y2="300.624"/><line x1="199.418" y1="298.728" x2="199.418" y2="302.52"/><line x1="197.522" y1="298.728" x2="201.314" y2="302.52"/><line x1="197.522" y1="302.52" x2="201.314" y2="298.728"/>
<line x1="202.021" y1="300.624" x2="205.814" y2="300.624"/><line x1="203.918" y1="298.728" x2="203.918" y2="302.52"/><line x1="202.021" y1="298.728" x2="205.814" y2="302.52"/><line x1="202.021" y1="302.52" x2="205.814" y2="298.728"/>
<line x1="206.521" y1="300.624" x2="210.313" y2="300.624"/><line x1="208.417" y1="298.728" x2="208.417" y2="302.52"/><line x1="206.521" y1="298.728" x2="210.313" y2="302.52"/><line x1="206.521" y1="302.52" x2="210.313" y2="298.728"/>
<line x1="211.021" y1="300.624" x2="214.813" y2="300.624"/><line x1="212.917" y1="298.728" x2="212.917" y2="302.52"/><line x1="211.021" y1="298.728" x2="214.813" y2="302.52"/><line x1="211.021" y1="302.52" x2="214.813" y2="298.728"/>
<line x1="215.521" y1="300.624" x2="219.313" y2="300.624"/><line x1="217.417" y1="298.728" x2="217.417" y2="302.52"/><line x1="215.521" y1="298.728" x2="219.313" y2="302.52"/><line x1="215.521" y1="302.52" x2="219.313" y2="298.728"/>
<line x1="220.021" y1="300.624" x2="223.813" y2="300.624"/><line x1="221.917" y1="298.728" x2="221.917" y2="302.52"/><line x1="220.021" y1="298.728" x2="223.813" y2="302.52"/><line x1="220.021" y1="302.52" x2="223.813" y2="298.728"/>
<line x1="224.521" y1="300.268" x2="228.313" y2="300.268"/><line x1="226.417" y1="298.372" x2="226.417" y2="302.165"/><line x1="224.521" y1="298.372" x2="228.313" y2="302.165"/><line x1="224.521" y1="302.165" x2="228.313" y2="298.372"/>
<line x1="229.021" y1="300.268" x2="232.813" y2="300.268"/><line x1="230.917" y1="298.372" x2="230.917" y2="302.165"/><line x1="229.021" y1="298.372" x2="232.813" y2="302.165"/><line x1="229.021" y1="302.165" x2="232.813" y2="298.372"/>
<line x1="233.521" y1="301.756" x2="237.313" y2="301.756"/><line x1="235.417" y1="299.86" x2="235.417" y2="303.652"/><line x1="233.521" y1="299.86" x2="237.313" y2="303.652"/><line x1="233.521" y1="303.652" x2="237.313" y2="299.86"/>
<line x1="238.021" y1="301.756" x2="241.813" y2="301.756"/><line x1="239.917" y1="299.86" x2="239.917" y2="303.652"/><line x1="238.021" y1="299.86" x2="241.813" y2="303.652"/><line x1="238.021" y1="303.652" x2="241.813" y2="299.86"/>
<line x1="242.52" y1="303.061" x2="246.313" y2="303.061"/><line x1="244.416" y1="301.165" x2="244.416" y2="304.957"/><line x1="242.52" y1="301.165" x2="246.313" y2="304.957"/><line x1="242.52" y1="304.957" x2="246.313" y2="301.165"/>
<line x1="247.02" y1="303.061" x2="250.812" y2="303.061"/><line x1="248.916" y1="301.165" x2="248.916" y2="304.957"/><line x1="247.02" y1="301.165" x2="250.812" y2="304.957"/><line x1="247.02" y1="304.957" x2="250.812" y2="301.165"/>
<line x1="251.52" y1="303.061" x2="255.312" y2="303.061"/><line x1="253.416" y1="301.165" x2="253.416" y2="304.957"/><line x1="251.52" y1="301.165" x2="255.312" y2="304.957"/><line x1="251.52" y1="304.957" x2="255.312" y2="301.165"/>
<line x1="256.02" y1="303.061" x2="259.812" y2="303.061"/><line x1="257.916" y1="301.165" x2="257.916" y2="304.957"/><line x1="256.02" y1="301.165" x2="259.812" y2="304.957"/><line x1="256.02" y1="304.957" x2="259.812" y2="301.165"/>
<line x1="260.52" y1="304.183" x2="264.312" y2="304.183"/><line x1="262.416" y1="302.287" x2="262.416" y2="306.079"/><line x1="260.52" y1="302.287" x2="264.312" y2="306.079"/><line x1="260.52" y1="306.079" x2="264.312" y2="302.287"/>
<line x1="265.02" y1="304.183" x2="268.812" y2="304.183"/><line x1="266.916" y1="302.287" x2="266.916" y2="306.079"/><line x1="265.02" y1="302.287" x2="268.812" y2="306.079"/><line x1="265.02" y1="306.079" x2="268.812" y2="302.287"/>
<line x1="269.52" y1="304.183" x2="273.312" y2="304.183"/><line x1="271.416" y1="302.287" x2="271.416" y2="306.079"/><line x1="269.52" y1="302.287" x2="273.312" y2="306.079"/><line x1="269.52" y1="306.079" x2="273.312" y2="302.287"/>
<line x1="274.02" y1="305.121" x2="277.812" y2="305.121"/><line x1="275.916" y1="303.225" x2="275.916" y2="307.017"/><line x1="274.02" y1="303.225" x2="277.812" y2="307.017"/><line x1="274.02" y1="307.017" x2="277.812" y2="303.225"/>
<line x1="278.52" y1="305.121" x2="282.312" y2="305.121"/><line x1="280.416" y1="303.225" x2="280.416" y2="307.017"/><line x1="278.52" y1="303.225" x2="282.312" y2="307.017"/><line x1="278.52" y1="307.017" x2="282.312" y2="303.225"/>
<line x1="283.019" y1="305.876" x2="286.812" y2="305.876"/><line x1="284.915" y1="303.98" x2="284.915" y2="307.772"/><line x1="283.019" y1="303.98" x2="286.812" y2="307.772"/><line x1="283.019" y1="307.772" x2="286.812" y2="303.98"/>
<line x1="287.519" y1="305.876" x2="291.311" y2="305.876"/><line x1="289.415" y1="303.98" x2="289.415" y2="307.772"/><line x1="287.519" y1="303.98" x2="291.311" y2="307.772"/><line x1="287.519" y1="307.772" x2="291.311" y2="303.98"/>
<line x1="292.019" y1="305.876" x2="295.811" y2="305.876"/><line x1="293.915" y1="303.98" x2="293.915" y2="307.772"/><line x1="292.019" y1="303.98" x2="295.811" y2="307.772"/><line x1="292.019" y1="307.772" x2="295.811" y2="303.98"/>
<line x1="296.519" y1="305.876" x2="300.311" y2="305.876"/><line x1="298.415" y1="303.98" x2="298.415" y2="307.772"/><line x1="296.519" y1="303.98" x2="300.311" y2="307.772"/><line x1="296.519" y1="307.772" x2="300.311" y2="303.98"/>
<line x1="301.019" y1="305.646" x2="304.811" y2="305.646"/><line x1="302.915" y1="303.75" x2="302.915" y2="307.542"/><line x1="301.019" y1="303.75" x2="304.811" y2="307.542"/><line x1="301.019" y1="307.542" x2="304.811" y2="303.75"/>
<line x1="305.519" y1="305.646" x2="309.311" y2="305.646"/><line x1="307.415" y1="303.75" x2="307.415" y2="307.542"/><line x1="305.519" y1="303.75" x2="309.311" y2="307.542"/><line x1="305.519" y1="307.542" x2="309.311" y2="303.75"/>
<line x1="310.019" y1="305.646" x2="313.811" y2="305.646"/><line x1="311.915" y1="303.75" x2="311.915" y2="307.542"/><line x1="310.019" y1="303.75" x2="313.811" y2="307.542"/><line x1="310.019" y1="307.542" x2="313.811" y2="303.75"/>
<line x1="314.519" y1="305.646" x2="318.311" y2="305.646"/><line x1="316.415" y1="303.75" x2="316.415" y2="307.542"/><line x1="314.519" y1="303.75" x2="318.311" y2="307.542"/><line x1="314.519" y1="307.542" x2="318.311" y2="303.75"/>
<line x1="319.018" y1="305.646" x2="322.811" y2="305.646"/><line x1="320.915" y1="303.75" x2="320.915" y2="307.542"/><line x1="319.018" y1="303.75" x2="322.811" y2="307.542"/><line x1="319.018" y1="307.542" x2="322.811" y2="303.75"/>
<line x1="323.518" y1="305.646" x2="327.311" y2="305.646"/><line x1="325.414" y1="303.75" x2="325.414" y2="307.542"/><line x1="323.518" y1="303.75" x2="327.311" y2="307.542"/><line x1="323.518" y1="307.542" x2="327.311" y2="303.75"/>
<line x1="328.018" y1="305.646" x2="331.81" y2="305.646"/><line x1="329.914" y1="303.75" x2="329.914" y2="307.542"/><line x1="328.018" y1="303.75" x2="331.81" y2="307.542"/><line x1="328.018" y1="307.542" x2="331.81" y2="303.75"/>
<line x1="332.518" y1="305.646" x2="336.31" y2="305.646"/><line x1="334.414" y1="303.75" x2="334.414" y2="307.542"/><line x1="332.518" y1="303.75" x2="336.31" y2="307.542"/><line x1="332.518" y1="307.542" x2="336.31" y2="303.75"/>
<line x1="337.018" y1="305.247" x2="340.81" y2="305.247"/><line x1="338.914" y1="303.35" x2="338.914" y2="307.143"/><line x1="337.018" y1="303.35" x2="340.81" y2="307.143"/><line x1="337.018" y1="307.143" x2="340.81" y2="303.35"/>
<line x1="341.518" y1="305.247" x2="345.31" y2="305.247"/><line x1="343.414" y1="303.35" x2="343.414" y2="307.143"/><line x1="341.518" y1="303.35" x2="345.31" y2="307.143"/><line x1="341.518" y1="307.143" x2="345.31" y2="303.35"/>
<line x1="346.018" y1="305.247" x2="349.81" y2="305.247"/><line x1="347.914" y1="303.35" x2="347.914" y2="307.143"/><line x1="346.018" y1="303.35" x2="349.81" y2="307.143"/><line x1="346.018" y1="307.143" x2="349.81" y2="303.35"/>
<line x1="350.518" y1="304.679" x2="354.31" y2="304.679"/><line x1="352.414" y1="302.783" x2="352.414" y2="306.575"/><line x1="350.518" y1="302.783" x2="354.31" y2="306.575"/><line x1="350.518" y1="306.575" x2="354.31" y2="302.783"/>
<line x1="355.018" y1="304.679" x2="358.81" y2="304.679"/><line x1="356.914" y1="302.783" x2="356.914" y2="306.575"/><line x1="355.018" y1="302.783" x2="358.81" y2="306.575"/><line x1="355.018" y1="306.575" x2="358.81" y2="302.783"/>
<line x1="359.517" y1="304.679" x2="363.31" y2="304.679"/><line x1="361.414" y1="302.783" x2="361.414" y2="306.575"/><line x1="359.517" y1="302.783" x2="363.31" y2="306.575"/><line x1="359.517" y1="306.575" x2="363.31" y2="302.783"/>
<line x1="364.017" y1="304.679" x2="367.81" y2="304.679"/><line x1="365.913" y1="302.783" x2="365.913" y2="306.575"/><line x1="364.017" y1="302.783" x2="367.81" y2="306.575"/><line x1="364.017" y1="306.575" x2="367.81" y2="302.783"/>
<line x1="368.517" y1="304.679" x2="372.309" y2="304.679"/><line x1="370.413" y1="302.783" x2="370.413" y2="306.575"/><line x1="368.517" y1="302.783" x2="372.309" y2="306.575"/><line x1="368.517" y1="306.575" x2="372.309" y2="302.783"/>
<line x1="373.017" y1="304.679" x2="376.809" y2="304.679"/><line x1="374.913" y1="302.783" x2="374.913" y2="306.575"/><line x1="373.017" y1="302.783" x2="376.809" y2="306.575"/><line x1="373.017" y1="306.575" x2="376.809" y2="302.783"/>
<line x1="377.517" y1="304.679" x2="381.309" y2="304.679"/><line x1="379.413" y1="302.783" x2="379.413" y2="306.575"/><line x1="377.517" y1="302.783" x2="381.309" y2="306.575"/><line x1="377.517" y1="306.575" x2="381.309" y2="302.783"/>
<line x1="382.017" y1="304.679" x2="385.809" y2="304.679"/><line x1="383.913" y1="302.783" x2="383.913" y2="306.575"/><line x1="382.017" y1="302.783" x2="385.809" y2="306.575"/><line x1="382.017" y1="306.575" x2="385.809" y2="302.783"/>
<line x1="386.517" y1="304.679" x2="390.309" y2="304.679"/><line x1="388.413" y1="302.783" x2="388.413" y2="306.575"/><line x1="386.517" y1="302.783" x2="390.309" y2="306.575"/><line x1="386.517" y1="306.575" x2="390.309" y2="302.783"/>
<line x1="391.017" y1="304.679" x2="394.809" y2="304.679"/><line x1="392.913" y1="302.783" x2="392.913" y2="306.575"/><line x1="391.017" y1="302.783" x2="394.809" y2="306.575"/><line x1="391.017" y1="306.575" x2="394.809" y2="302.783"/>
<line x1="395.517" y1="303.943" x2="399.309" y2="303.943"/><line x1="397.413" y1="302.047" x2="397.413" y2="305.839"/><line x1="395.517" y1="302.047" x2="399.309" y2="305.839"/><line x1="395.517" y1="305.839" x2="399.309" y2="302.047"/>
<line x1="400.016" y1="303.943" x2="403.809" y2="303.943"/><line x1="401.913" y1="302.047" x2="401.913" y2="305.839"/><line x1="400.016" y1="302.047" x2="403.809" y2="305.839"/><line x1="400.016" y1="305.839" x2="403.809" y2="302.047"/>
<line x1="404.516" y1="303.943" x2="408.309" y2="303.943"/><line x1="406.412" y1="302.047" x2="406.412" y2="305.839"/><line x1="404.516" y1="302.047" x2="408.309" y2="305.839"/><line x1="404.516" y1="305.839" x2="408.309" y2="302.047"/>
<line x1="409.016" y1="303.943" x2="412.808" y2="303.943"/><line x1="410.912" y1="302.047" x2="410.912" y2="305.839"/><line x1="409.016" y1="302.047" x2="412.808" y2="305.839"/><line x1="409.016" y1="305.839" x2="412.808" y2="302.047"/>
<line x1="413.516" y1="303.943" x2="417.308" y2="303.943"/><line x1="415.412" y1="302.047" x2="415.412" y2="305.839"/><line x1="413.516" y1="302.047" x2="417.308" y2="305.839"/><line x1="413.516" y1="305.839" x2="417.308" y2="302.047"/>
<line x1="418.016" y1="303.943" x2="421.808" y2="303.943"/><line x1="419.912" y1="302.047" x2="419.912" y2="305.839"/><line x1="418.016" y1="302.047" x2="421.808" y2="305.839"/><line x1="418.016" y1="305.839" x2="421.808" y2="302.047"/>
<line x1="422.516" y1="303.943" x2="426.308" y2="303.943"/><line x1="424.412" y1="302.047" x2="424.412" y2="305.839"/><line x1="422.516" y1="302.047" x2="426.308" y2="305.839"/><line x1="422.516" y1="305.839" x2="426.308" y2="302.047"/>
<line x1="427.016" y1="303.943" x2="430.808" y2="303.943"/><line x1="428.912" y1="302.047" x2="428.912" y2="305.839"/><line x1="427.016" y1="302.047" x2="430.808" y2="305.839"/><line x1="427.016" y1="305.839" x2="430.808" y2="302.047"/>
<line x1="431.516" y1="303.943" x2="435.308" y2="303.943"/><line x1="433.412" y1="302.047" x2="433.412" y2="305.839"/><line x1="431.516" y1="302.047" x2="435.308" y2="305.839"/><line x1="431.516" y1="305.839" x2="435.308" y2="302.047"/>
<line x1="436.016" y1="303.038" x2="439.808" y2="303.038"/><line x1="437.912" y1="301.142" x2="437.912" y2="304.934"/><line x1="436.016" y1="301.142" x2="439.808" y2="304.934"/><line x1="436.016" y1="304.934" x2="439.808" y2="301.142"/>
<line x1="440.515" y1="303.038" x2="444.308" y2="303.038"/><line x1="442.412" y1="301.142" x2="442.412" y2="304.934"/><line x1="440.515" y1="301.142" x2="444.308" y2="304.934"/><line x1="440.515" y1="304.934" x2="444.308" y2="301.142"/>
<line x1="445.015" y1="301.965" x2="448.808" y2="301.965"/><line x1="446.911" y1="300.069" x2="446.911" y2="303.861"/><line x1="445.015" y1="300.069" x2="448.808" y2="303.861"/><line x1="445.015" y1="303.861" x2="448.808" y2="300.069"/>
<line x1="449.515" y1="301.965" x2="453.307" y2="301.965"/><line x1="451.411" y1="300.069" x2="451.411" y2="303.861"/><line x1="449.515" y1="300.069" x2="453.307" y2="303.861"/><line x1="449.515" y1="303.861" x2="453.307" y2="300.069"/>
<line x1="454.015" y1="301.965" x2="457.807" y2="301.965"/><line x1="455.911" y1="300.069" x2="455.911" y2="303.861"/><line x1="454.015" y1="300.069" x2="457.807" y2="303.861"/><line x1="454.015" y1="303.861" x2="457.807" y2="300.069"/>
<line x1="458.515" y1="301.965" x2="462.307" y2="301.965"/><line x1="460.411" y1="300.069" x2="460.411" y2="303.861"/><line x1="458.515" y1="300.069" x2="462.307" y2="303.861"/><line x1="458.515" y1="303.861" x2="462.307" y2="300.069"/>
<line x1="463.015" y1="301.965" x2="466.807" y2="301.965"/><line x1="464.911" y1="300.069" x2="464.911" y2="303.861"/><line x1="463.015" y1="300.069" x2="466.807" y2="303.861"/><line x1="463.015" y1="303.861" x2="466.807" y2="300.069"/>
<line x1="467.515" y1="301.965" x2="471.307" y2="301.965"/><line x1="469.411" y1="300.069" x2="469.411" y2="303.861"/><line x1="467.515" y1="300.069" x2="471.307" y2="303.861"/><line x1="467.515" y1="303.861" x2="471.307" y2="300.069"/>
<line x1="472.015" y1="301.965" x2="475.807" y2="301.965"/><line x1="473.911" y1="300.069" x2="473.911" y2="303.861"/><line x1="472.015" y1="300.069" x2="475.807" y2="303.861"/><line x1="472.015" y1="303.861" x2="475.807" y2="300.069"/>
<line x1="476.515" y1="301.965" x2="480.307" y2="301.965"/><line x1="478.411" y1="300.069" x2="478.411" y2="303.861"/><line x1="476.515" y1="300.069" x2="480.307" y2="303.861"/><line x1="476.515" y1="303.861" x2="480.307" y2="300.069"/>
<line x1="481.014" y1="302.89" x2="484.807" y2="302.89"/><line x1="482.911" y1="300.994" x2="482.911" y2="304.786"/><line x1="481.014" y1="300.994" x2="484.807" y2="304.786"/><line x1="481.014" y1="304.786" x2="484.807" y2="300.994"/>
<line x1="485.514" y1="302.89" x2="489.307" y2="302.89"/><line x1="487.41" y1="300.994" x2="487.41" y2="304.786"/><line x1="485.514" y1="300.994" x2="489.307" y2="304.786"/><line x1="485.514" y1="304.786" x2="489.307" y2="300.994"/>
<line x1="490.014" y1="302.89" x2="493.806" y2="302.89"/><line x1="491.91" y1="300.994" x2="491.91" y2="304.786"/><line x1="490.014" y1="300.994" x2="493.806" y2="304.786"/><line x1="490.014" y1="304.786" x2="493.806" y2="300.994"/>
<line x1="494.514" y1="303.631" x2="498.306" y2="303.631"/><line x1="496.41" y1="301.735" x2="496.41" y2="305.527"/><line x1="494.514" y1="301.735" x2="498.306" y2="305.527"/><line x1="494.514" y1="305.527" x2="498.306" y2="301.735"/>
<line x1="499.014" y1="303.631" x2="502.806" y2="303.631"/><line x1="500.91" y1="301.735" x2="500.91" y2="305.527"/><line x1="499.014" y1="301.735" x2="502.806" y2="305.527"/><line x1="499.014" y1="305.527" x2="502.806" y2="301.735"/>
<line x1="503.514" y1="303.631" x2="507.306" y2="303.631"/><line x1="505.41" y1="301.735" x2="505.41" y2="305.527"/><line x1="503.514" y1="301.735" x2="507.306" y2="305.527"/><line x1="503.514" y1="305.527" x2="507.306" y2="301.735"/>
<line x1="508.014" y1="303.631" x2="511.806" y2="303.631"/><line x1="509.91" y1="301.735" x2="509.91" y2="305.527"/><line x1="508.014" y1="301.735" x2="511.806" y2="305.527"/><line x1="508.014" y1="305.527" x2="511.806" y2="301.735"/>
</g>
<path d="M0.5,272.809h 566.929" fill="none" stroke="#0000ff"/></svg>
