<?xml version="1.0" standalone="no"?>
<svg width="567.429" height="413.846" viewBox="0 0 567.429 413.846" xmlns="http://www.w3.org/2000/svg" shape-rendering="crispEdges">
<title>
figures/chi2zoomin_3PMTnpefilelist20.svg
</title>
<desc>
Creator: ROOT Version 6.18/04
CreationDate: Fri Nov  1 14:14:04 2019</desc>
<defs>
</defs>
<rect x="0.5" y="0" width="566.929" height="413.346" fill="white"/>
<rect x="57.1929" y="41.3346" width="453.543" height="330.677" fill="white"/>
<rect x="57.1929" y="41.3346" width="453.543" height="330.677" fill="none" stroke="black"/>
<path d="M57.1929,372.012h 453.543" fill="none" stroke="black"/>
<path d="M87.4473,41.3346v 330.677" fill="none" stroke="black" stroke-dasharray=" 1, 2"/>
<path d="M132.446,41.3346v 330.677" fill="none" stroke="black" stroke-dasharray=" 1, 2"/>
<path d="M177.445,41.3346v 330.677" fill="none" stroke="black" stroke-dasharray=" 1, 2"/>
<path d="M222.444,41.3346v 330.677" fill="none" stroke="black" stroke-dasharray=" 1, 2"/>
<path d="M267.443,41.3346v 330.677" fill="none" stroke="black" stroke-dasharray=" 1, 2"/>
<path d="M312.442,41.3346v 330.677" fill="none" stroke="black" stroke-dasharray=" 1, 2"/>
<path d="M357.441,41.3346v 330.677" fill="none" stroke="black" stroke-dasharray=" 1, 2"/>
<path d="M402.439,41.3346v 330.677" fill="none" stroke="black" stroke-dasharray=" 1, 2"/>
<path d="M447.438,41.3346v 330.677" fill="none" stroke="black" stroke-dasharray=" 1, 2"/>
<path d="M492.437,41.3346v 330.677" fill="none" stroke="black" stroke-dasharray=" 1, 2"/>
<path d="M87.4473,41.3346v 330.677" fill="none" stroke="black" stroke-dasharray=" 1, 2"/>
<path d="M492.437,41.3346v 330.677" fill="none" stroke="black" stroke-dasharray=" 1, 2"/>
<path d="M57.1929,372.012v -330.677" fill="none" stroke="black"/>
<path d="M57.1929,372.012h 453.543" fill="none" stroke="black"/>
<path d="M87.4473,362.091v 9.92031" fill="none" stroke="black"/>
<path d="M98.697,367.052v 4.96016" fill="none" stroke="black"/>
<path d="M109.947,367.052v 4.96016" fill="none" stroke="black"/>
<path d="M121.196,367.052v 4.96016" fill="none" stroke="black"/>
<path d="M132.446,362.091v 9.92031" fill="none" stroke="black"/>
<path d="M143.696,367.052v 4.96016" fill="none" stroke="black"/>
<path d="M154.946,367.052v 4.96016" fill="none" stroke="black"/>
<path d="M166.195,367.052v 4.96016" fill="none" stroke="black"/>
<path d="M177.445,362.091v 9.92031" fill="none" stroke="black"/>
<path d="M188.695,367.052v 4.96016" fill="none" stroke="black"/>
<path d="M199.944,367.052v 4.96016" fill="none" stroke="black"/>
<path d="M211.194,367.052v 4.96016" fill="none" stroke="black"/>
<path d="M222.444,362.091v 9.92031" fill="none" stroke="black"/>
<path d="M233.694,367.052v 4.96016" fill="none" stroke="black"/>
<path d="M244.943,367.052v 4.96016" fill="none" stroke="black"/>
<path d="M256.193,367.052v 4.96016" fill="none" stroke="black"/>
<path d="M267.443,362.091v 9.92031" fill="none" stroke="black"/>
<path d="M278.693,367.052v 4.96016" fill="none" stroke="black"/>
<path d="M289.942,367.052v 4.96016" fill="none" stroke="black"/>
<path d="M301.192,367.052v 4.96016" fill="none" stroke="black"/>
<path d="M312.442,362.091v 9.92031" fill="none" stroke="black"/>
<path d="M323.691,367.052v 4.96016" fill="none" stroke="black"/>
<path d="M334.941,367.052v 4.96016" fill="none" stroke="black"/>
<path d="M346.191,367.052v 4.96016" fill="none" stroke="black"/>
<path d="M357.441,362.091v 9.92031" fill="none" stroke="black"/>
<path d="M368.69,367.052v 4.96016" fill="none" stroke="black"/>
<path d="M379.94,367.052v 4.96016" fill="none" stroke="black"/>
<path d="M391.19,367.052v 4.96016" fill="none" stroke="black"/>
<path d="M402.439,362.091v 9.92031" fill="none" stroke="black"/>
<path d="M413.689,367.052v 4.96016" fill="none" stroke="black"/>
<path d="M424.939,367.052v 4.96016" fill="none" stroke="black"/>
<path d="M436.189,367.052v 4.96016" fill="none" stroke="black"/>
<path d="M447.438,362.091v 9.92031" fill="none" stroke="black"/>
<path d="M458.688,367.052v 4.96016" fill="none" stroke="black"/>
<path d="M469.938,367.052v 4.96016" fill="none" stroke="black"/>
<path d="M481.187,367.052v 4.96016" fill="none" stroke="black"/>
<path d="M492.437,362.091v 9.92031" fill="none" stroke="black"/>
<path d="M87.4473,362.091v 9.92031" fill="none" stroke="black"/>
<path d="M76.1976,367.052v 4.96016" fill="none" stroke="black"/>
<path d="M64.9478,367.052v 4.96016" fill="none" stroke="black"/>
<path d="M492.437,362.091v 9.92031" fill="none" stroke="black"/>
<path d="M503.687,367.052v 4.96016" fill="none" stroke="black"/>
<text xml:space="preserve" x="70.6551" y="385.379" fill="black" font-size="13.7726" font-family="Helvetica">0.848</text>
<text xml:space="preserve" x="119.479" y="385.379" fill="black" font-size="13.7726" font-family="Helvetica">0.85</text>
<text xml:space="preserve" x="160.719" y="385.379" fill="black" font-size="13.7726" font-family="Helvetica">0.852</text>
<text xml:space="preserve" x="205.751" y="385.379" fill="black" font-size="13.7726" font-family="Helvetica">0.854</text>
<text xml:space="preserve" x="250.783" y="385.379" fill="black" font-size="13.7726" font-family="Helvetica">0.856</text>
<text xml:space="preserve" x="295.815" y="385.379" fill="black" font-size="13.7726" font-family="Helvetica">0.858</text>
<text xml:space="preserve" x="344.639" y="385.379" fill="black" font-size="13.7726" font-family="Helvetica">0.86</text>
<text xml:space="preserve" x="385.405" y="385.379" fill="black" font-size="13.7726" font-family="Helvetica">0.862</text>
<text xml:space="preserve" x="430.437" y="385.379" fill="black" font-size="13.7726" font-family="Helvetica">0.864</text>
<text xml:space="preserve" x="475.469" y="385.379" fill="black" font-size="13.7726" font-family="Helvetica">0.866</text>
<text xml:space="preserve" x="413.372" y="400.074" fill="black" font-size="13.7726" font-family="Helvetica">calibration factor</text>
<path d="M57.1929,372.012v -330.677" fill="none" stroke="black"/>
<path d="M70.7992,341.976h -13.6063" fill="none" stroke="black"/>
<path d="M63.9961,335.362h -6.80315" fill="none" stroke="black"/>
<path d="M63.9961,328.748h -6.80315" fill="none" stroke="black"/>
<path d="M63.9961,322.135h -6.80315" fill="none" stroke="black"/>
<path d="M63.9961,315.521h -6.80315" fill="none" stroke="black"/>
<path d="M70.7992,308.908h -13.6063" fill="none" stroke="black"/>
<path d="M63.9961,302.294h -6.80315" fill="none" stroke="black"/>
<path d="M63.9961,295.681h -6.80315" fill="none" stroke="black"/>
<path d="M63.9961,289.067h -6.80315" fill="none" stroke="black"/>
<path d="M63.9961,282.454h -6.80315" fill="none" stroke="black"/>
<path d="M70.7992,275.84h -13.6063" fill="none" stroke="black"/>
<path d="M63.9961,269.227h -6.80315" fill="none" stroke="black"/>
<path d="M63.9961,262.613h -6.80315" fill="none" stroke="black"/>
<path d="M63.9961,256h -6.80315" fill="none" stroke="black"/>
<path d="M63.9961,249.386h -6.80315" fill="none" stroke="black"/>
<path d="M70.7992,242.772h -13.6063" fill="none" stroke="black"/>
<path d="M63.9961,236.159h -6.80315" fill="none" stroke="black"/>
<path d="M63.9961,229.545h -6.80315" fill="none" stroke="black"/>
<path d="M63.9961,222.932h -6.80315" fill="none" stroke="black"/>
<path d="M63.9961,216.318h -6.80315" fill="none" stroke="black"/>
<path d="M70.7992,209.705h -13.6063" fill="none" stroke="black"/>
<path d="M63.9961,203.091h -6.80315" fill="none" stroke="black"/>
<path d="M63.9961,196.478h -6.80315" fill="none" stroke="black"/>
<path d="M63.9961,189.864h -6.80315" fill="none" stroke="black"/>
<path d="M63.9961,183.251h -6.80315" fill="none" stroke="black"/>
<path d="M70.7992,176.637h -13.6063" fill="none" stroke="black"/>
<path d="M63.9961,170.023h -6.80315" fill="none" stroke="black"/>
<path d="M63.9961,163.41h -6.80315" fill="none" stroke="black"/>
<path d="M63.9961,156.796h -6.80315" fill="none" stroke="black"/>
<path d="M63.9961,150.183h -6.80315" fill="none" stroke="black"/>
<path d="M70.7992,143.569h -13.6063" fill="none" stroke="black"/>
<path d="M63.9961,136.956h -6.80315" fill="none" stroke="black"/>
<path d="M63.9961,130.342h -6.80315" fill="none" stroke="black"/>
<path d="M63.9961,123.729h -6.80315" fill="none" stroke="black"/>
<path d="M63.9961,117.115h -6.80315" fill="none" stroke="black"/>
<path d="M70.7992,110.502h -13.6063" fill="none" stroke="black"/>
<path d="M63.9961,103.888h -6.80315" fill="none" stroke="black"/>
<path d="M63.9961,97.2745h -6.80315" fill="none" stroke="black"/>
<path d="M63.9961,90.661h -6.80315" fill="none" stroke="black"/>
<path d="M63.9961,84.0475h -6.80315" fill="none" stroke="black"/>
<path d="M70.7992,77.4339h -13.6063" fill="none" stroke="black"/>
<path d="M63.9961,70.8204h -6.80315" fill="none" stroke="black"/>
<path d="M63.9961,64.2068h -6.80315" fill="none" stroke="black"/>
<path d="M63.9961,57.5933h -6.80315" fill="none" stroke="black"/>
<path d="M63.9961,50.9798h -6.80315" fill="none" stroke="black"/>
<path d="M70.7992,44.3662h -13.6063" fill="none" stroke="black"/>
<path d="M70.7992,341.976h -13.6063" fill="none" stroke="black"/>
<path d="M63.9961,348.589h -6.80315" fill="none" stroke="black"/>
<path d="M63.9961,355.203h -6.80315" fill="none" stroke="black"/>
<path d="M63.9961,361.816h -6.80315" fill="none" stroke="black"/>
<path d="M63.9961,368.43h -6.80315" fill="none" stroke="black"/>
<path d="M70.7992,44.3662h -13.6063" fill="none" stroke="black"/>
<text xml:space="preserve" x="32.2594" y="346.509" fill="black" font-size="13.7726" font-family="Helvetica">484</text>
<text xml:space="preserve" x="32.2594" y="313.328" fill="black" font-size="13.7726" font-family="Helvetica">485</text>
<text xml:space="preserve" x="32.2594" y="280.146" fill="black" font-size="13.7726" font-family="Helvetica">486</text>
<text xml:space="preserve" x="32.2594" y="247.439" fill="black" font-size="13.7726" font-family="Helvetica">487</text>
<text xml:space="preserve" x="32.2594" y="214.257" fill="black" font-size="13.7726" font-family="Helvetica">488</text>
<text xml:space="preserve" x="32.2594" y="181.076" fill="black" font-size="13.7726" font-family="Helvetica">489</text>
<text xml:space="preserve" x="32.2594" y="147.895" fill="black" font-size="13.7726" font-family="Helvetica">490</text>
<text xml:space="preserve" x="34.6295" y="115.187" fill="black" font-size="13.7726" font-family="Helvetica">491</text>
<text xml:space="preserve" x="32.2594" y="82.0056" fill="black" font-size="13.7726" font-family="Helvetica">492</text>
<text xml:space="preserve" x="32.2594" y="48.8242" fill="black" font-size="13.7726" font-family="Helvetica">493</text>
<g transform="rotate(-90,15.1947,45.98)">
<text xml:space="preserve" x="15.1947" y="45.98" fill="black" font-size="9.34839" font-family="Helvetica">2</text>
</g>
<g transform="rotate(-90,19.4608,50.2462)">
<text xml:space="preserve" x="19.4608" y="50.2462" fill="black" font-size="13.7726" font-family="Helvetica"> </text>
</g>
<g transform="rotate(-90,19.4608,57.3565)">
<text xml:space="preserve" x="19.4608" y="57.3565" fill="black" font-size="13.7726" font-family="Times">&#0967;</text>
</g>
<g stroke="black" stroke-width="1" fill="none">
<line x1="58.5519" y1="73.0837" x2="62.344" y2="73.0837"/><line x1="60.448" y1="71.1876" x2="60.448" y2="74.9798"/><line x1="58.5519" y1="71.1876" x2="62.344" y2="74.9798"/><line x1="58.5519" y1="74.9798" x2="62.344" y2="71.1876"/>
<line x1="63.0518" y1="84.9963" x2="66.8439" y2="84.9963"/><line x1="64.9478" y1="83.1002" x2="64.9478" y2="86.8924"/><line x1="63.0518" y1="83.1002" x2="66.8439" y2="86.8924"/><line x1="63.0518" y1="86.8924" x2="66.8439" y2="83.1002"/>
<line x1="67.5516" y1="72.0308" x2="71.3438" y2="72.0308"/><line x1="69.4477" y1="70.1347" x2="69.4477" y2="73.9269"/><line x1="67.5516" y1="70.1347" x2="71.3438" y2="73.9269"/><line x1="67.5516" y1="73.9269" x2="71.3438" y2="70.1347"/>
<line x1="72.0515" y1="53.031" x2="75.8437" y2="53.031"/><line x1="73.9476" y1="51.1349" x2="73.9476" y2="54.9271"/><line x1="72.0515" y1="51.1349" x2="75.8437" y2="54.9271"/><line x1="72.0515" y1="54.9271" x2="75.8437" y2="51.1349"/>
</g>
<g stroke="black" stroke-width="1" fill="none">
<line x1="85.5512" y1="70.341" x2="89.3434" y2="70.341"/><line x1="87.4473" y1="68.4449" x2="87.4473" y2="72.2371"/><line x1="85.5512" y1="68.4449" x2="89.3434" y2="72.2371"/><line x1="85.5512" y1="72.2371" x2="89.3434" y2="68.4449"/>
<line x1="90.0511" y1="117.888" x2="93.8433" y2="117.888"/><line x1="91.9472" y1="115.991" x2="91.9472" y2="119.784"/><line x1="90.0511" y1="115.991" x2="93.8433" y2="119.784"/><line x1="90.0511" y1="119.784" x2="93.8433" y2="115.991"/>
<line x1="94.551" y1="118.309" x2="98.3431" y2="118.309"/><line x1="96.4471" y1="116.413" x2="96.4471" y2="120.205"/><line x1="94.551" y1="116.413" x2="98.3431" y2="120.205"/><line x1="94.551" y1="120.205" x2="98.3431" y2="116.413"/>
<line x1="99.0509" y1="106.854" x2="102.843" y2="106.854"/><line x1="100.947" y1="104.958" x2="100.947" y2="108.75"/><line x1="99.0509" y1="104.958" x2="102.843" y2="108.75"/><line x1="99.0509" y1="108.75" x2="102.843" y2="104.958"/>
<line x1="103.551" y1="137.712" x2="107.343" y2="137.712"/><line x1="105.447" y1="135.816" x2="105.447" y2="139.609"/><line x1="103.551" y1="135.816" x2="107.343" y2="139.609"/><line x1="103.551" y1="139.609" x2="107.343" y2="135.816"/>
<line x1="108.051" y1="173.87" x2="111.843" y2="173.87"/><line x1="109.947" y1="171.974" x2="109.947" y2="175.766"/><line x1="108.051" y1="171.974" x2="111.843" y2="175.766"/><line x1="108.051" y1="175.766" x2="111.843" y2="171.974"/>
<line x1="112.551" y1="182.802" x2="116.343" y2="182.802"/><line x1="114.447" y1="180.906" x2="114.447" y2="184.698"/><line x1="112.551" y1="180.906" x2="116.343" y2="184.698"/><line x1="112.551" y1="184.698" x2="116.343" y2="180.906"/>
<line x1="117.05" y1="190.527" x2="120.843" y2="190.527"/><line x1="118.946" y1="188.631" x2="118.946" y2="192.423"/><line x1="117.05" y1="188.631" x2="120.843" y2="192.423"/><line x1="117.05" y1="192.423" x2="120.843" y2="188.631"/>
<line x1="121.55" y1="194.276" x2="125.342" y2="194.276"/><line x1="123.446" y1="192.38" x2="123.446" y2="196.172"/><line x1="121.55" y1="192.38" x2="125.342" y2="196.172"/><line x1="121.55" y1="196.172" x2="125.342" y2="192.38"/>
<line x1="126.05" y1="231.551" x2="129.842" y2="231.551"/><line x1="127.946" y1="229.655" x2="127.946" y2="233.447"/><line x1="126.05" y1="229.655" x2="129.842" y2="233.447"/><line x1="126.05" y1="233.447" x2="129.842" y2="229.655"/>
<line x1="130.55" y1="273.667" x2="134.342" y2="273.667"/><line x1="132.446" y1="271.771" x2="132.446" y2="275.563"/><line x1="130.55" y1="271.771" x2="134.342" y2="275.563"/><line x1="130.55" y1="275.563" x2="134.342" y2="271.771"/>
<line x1="135.05" y1="269.048" x2="138.842" y2="269.048"/><line x1="136.946" y1="267.152" x2="136.946" y2="270.944"/><line x1="135.05" y1="267.152" x2="138.842" y2="270.944"/><line x1="135.05" y1="270.944" x2="138.842" y2="267.152"/>
<line x1="139.55" y1="287.857" x2="143.342" y2="287.857"/><line x1="141.446" y1="285.961" x2="141.446" y2="289.753"/><line x1="139.55" y1="285.961" x2="143.342" y2="289.753"/><line x1="139.55" y1="289.753" x2="143.342" y2="285.961"/>
<line x1="144.05" y1="265.413" x2="147.842" y2="265.413"/><line x1="145.946" y1="263.517" x2="145.946" y2="267.309"/><line x1="144.05" y1="263.517" x2="147.842" y2="267.309"/><line x1="144.05" y1="267.309" x2="147.842" y2="263.517"/>
<line x1="148.55" y1="256.766" x2="152.342" y2="256.766"/><line x1="150.446" y1="254.869" x2="150.446" y2="258.662"/><line x1="148.55" y1="254.869" x2="152.342" y2="258.662"/><line x1="148.55" y1="258.662" x2="152.342" y2="254.869"/>
<line x1="153.05" y1="253.678" x2="156.842" y2="253.678"/><line x1="154.946" y1="251.782" x2="154.946" y2="255.575"/><line x1="153.05" y1="251.782" x2="156.842" y2="255.575"/><line x1="153.05" y1="255.575" x2="156.842" y2="251.782"/>
<line x1="157.549" y1="236.198" x2="161.342" y2="236.198"/><line x1="159.445" y1="234.302" x2="159.445" y2="238.094"/><line x1="157.549" y1="234.302" x2="161.342" y2="238.094"/><line x1="157.549" y1="238.094" x2="161.342" y2="234.302"/>
<line x1="162.049" y1="223.478" x2="165.841" y2="223.478"/><line x1="163.945" y1="221.582" x2="163.945" y2="225.374"/><line x1="162.049" y1="221.582" x2="165.841" y2="225.374"/><line x1="162.049" y1="225.374" x2="165.841" y2="221.582"/>
<line x1="166.549" y1="216.319" x2="170.341" y2="216.319"/><line x1="168.445" y1="214.423" x2="168.445" y2="218.215"/><line x1="166.549" y1="214.423" x2="170.341" y2="218.215"/><line x1="166.549" y1="218.215" x2="170.341" y2="214.423"/>
<line x1="171.049" y1="228.253" x2="174.841" y2="228.253"/><line x1="172.945" y1="226.357" x2="172.945" y2="230.149"/><line x1="171.049" y1="226.357" x2="174.841" y2="230.149"/><line x1="171.049" y1="230.149" x2="174.841" y2="226.357"/>
<line x1="175.549" y1="232.405" x2="179.341" y2="232.405"/><line x1="177.445" y1="230.509" x2="177.445" y2="234.301"/><line x1="175.549" y1="230.509" x2="179.341" y2="234.301"/><line x1="175.549" y1="234.301" x2="179.341" y2="230.509"/>
<line x1="180.049" y1="250.628" x2="183.841" y2="250.628"/><line x1="181.945" y1="248.732" x2="181.945" y2="252.524"/><line x1="180.049" y1="248.732" x2="183.841" y2="252.524"/><line x1="180.049" y1="252.524" x2="183.841" y2="248.732"/>
<line x1="184.549" y1="254.193" x2="188.341" y2="254.193"/><line x1="186.445" y1="252.297" x2="186.445" y2="256.089"/><line x1="184.549" y1="252.297" x2="188.341" y2="256.089"/><line x1="184.549" y1="256.089" x2="188.341" y2="252.297"/>
<line x1="189.049" y1="250.764" x2="192.841" y2="250.764"/><line x1="190.945" y1="248.868" x2="190.945" y2="252.66"/><line x1="189.049" y1="248.868" x2="192.841" y2="252.66"/><line x1="189.049" y1="252.66" x2="192.841" y2="248.868"/>
<line x1="193.548" y1="257.788" x2="197.341" y2="257.788"/><line x1="195.445" y1="255.892" x2="195.445" y2="259.685"/><line x1="193.548" y1="255.892" x2="197.341" y2="259.685"/><line x1="193.548" y1="259.685" x2="197.341" y2="255.892"/>
<line x1="198.048" y1="258.471" x2="201.841" y2="258.471"/><line x1="199.944" y1="256.575" x2="199.944" y2="260.367"/><line x1="198.048" y1="256.575" x2="201.841" y2="260.367"/><line x1="198.048" y1="260.367" x2="201.841" y2="256.575"/>
<line x1="202.548" y1="252.99" x2="206.34" y2="252.99"/><line x1="204.444" y1="251.093" x2="204.444" y2="254.886"/><line x1="202.548" y1="251.093" x2="206.34" y2="254.886"/><line x1="202.548" y1="254.886" x2="206.34" y2="251.093"/>
<line x1="207.048" y1="255.957" x2="210.84" y2="255.957"/><line x1="208.944" y1="254.061" x2="208.944" y2="257.853"/><line x1="207.048" y1="254.061" x2="210.84" y2="257.853"/><line x1="207.048" y1="257.853" x2="210.84" y2="254.061"/>
<line x1="211.548" y1="240.813" x2="215.34" y2="240.813"/><line x1="213.444" y1="238.917" x2="213.444" y2="242.709"/><line x1="211.548" y1="238.917" x2="215.34" y2="242.709"/><line x1="211.548" y1="242.709" x2="215.34" y2="238.917"/>
<line x1="216.048" y1="255.664" x2="219.84" y2="255.664"/><line x1="217.944" y1="253.768" x2="217.944" y2="257.56"/><line x1="216.048" y1="253.768" x2="219.84" y2="257.56"/><line x1="216.048" y1="257.56" x2="219.84" y2="253.768"/>
<line x1="220.548" y1="244.591" x2="224.34" y2="244.591"/><line x1="222.444" y1="242.695" x2="222.444" y2="246.487"/><line x1="220.548" y1="242.695" x2="224.34" y2="246.487"/><line x1="220.548" y1="246.487" x2="224.34" y2="242.695"/>
<line x1="225.048" y1="284.824" x2="228.84" y2="284.824"/><line x1="226.944" y1="282.928" x2="226.944" y2="286.72"/><line x1="225.048" y1="282.928" x2="228.84" y2="286.72"/><line x1="225.048" y1="286.72" x2="228.84" y2="282.928"/>
<line x1="229.548" y1="300.149" x2="233.34" y2="300.149"/><line x1="231.444" y1="298.252" x2="231.444" y2="302.045"/><line x1="229.548" y1="298.252" x2="233.34" y2="302.045"/><line x1="229.548" y1="302.045" x2="233.34" y2="298.252"/>
<line x1="234.047" y1="262.283" x2="237.84" y2="262.283"/><line x1="235.944" y1="260.387" x2="235.944" y2="264.179"/><line x1="234.047" y1="260.387" x2="237.84" y2="264.179"/><line x1="234.047" y1="264.179" x2="237.84" y2="260.387"/>
<line x1="238.547" y1="238.72" x2="242.34" y2="238.72"/><line x1="240.443" y1="236.824" x2="240.443" y2="240.616"/><line x1="238.547" y1="236.824" x2="242.34" y2="240.616"/><line x1="238.547" y1="240.616" x2="242.34" y2="236.824"/>
<line x1="243.047" y1="206.19" x2="246.839" y2="206.19"/><line x1="244.943" y1="204.294" x2="244.943" y2="208.086"/><line x1="243.047" y1="204.294" x2="246.839" y2="208.086"/><line x1="243.047" y1="208.086" x2="246.839" y2="204.294"/>
<line x1="247.547" y1="199.717" x2="251.339" y2="199.717"/><line x1="249.443" y1="197.82" x2="249.443" y2="201.613"/><line x1="247.547" y1="197.82" x2="251.339" y2="201.613"/><line x1="247.547" y1="201.613" x2="251.339" y2="197.82"/>
<line x1="252.047" y1="209.096" x2="255.839" y2="209.096"/><line x1="253.943" y1="207.2" x2="253.943" y2="210.992"/><line x1="252.047" y1="207.2" x2="255.839" y2="210.992"/><line x1="252.047" y1="210.992" x2="255.839" y2="207.2"/>
<line x1="256.547" y1="254.45" x2="260.339" y2="254.45"/><line x1="258.443" y1="252.554" x2="258.443" y2="256.347"/><line x1="256.547" y1="252.554" x2="260.339" y2="256.347"/><line x1="256.547" y1="256.347" x2="260.339" y2="252.554"/>
<line x1="261.047" y1="243.349" x2="264.839" y2="243.349"/><line x1="262.943" y1="241.452" x2="262.943" y2="245.245"/><line x1="261.047" y1="241.452" x2="264.839" y2="245.245"/><line x1="261.047" y1="245.245" x2="264.839" y2="241.452"/>
<line x1="265.547" y1="265.492" x2="269.339" y2="265.492"/><line x1="267.443" y1="263.596" x2="267.443" y2="267.388"/><line x1="265.547" y1="263.596" x2="269.339" y2="267.388"/><line x1="265.547" y1="267.388" x2="269.339" y2="263.596"/>
<line x1="270.047" y1="278.789" x2="273.839" y2="278.789"/><line x1="271.943" y1="276.893" x2="271.943" y2="280.686"/><line x1="270.047" y1="276.893" x2="273.839" y2="280.686"/><line x1="270.047" y1="280.686" x2="273.839" y2="276.893"/>
<line x1="274.546" y1="249.471" x2="278.339" y2="249.471"/><line x1="276.443" y1="247.575" x2="276.443" y2="251.367"/><line x1="274.546" y1="247.575" x2="278.339" y2="251.367"/><line x1="274.546" y1="251.367" x2="278.339" y2="247.575"/>
<line x1="279.046" y1="279.196" x2="282.839" y2="279.196"/><line x1="280.942" y1="277.3" x2="280.942" y2="281.092"/><line x1="279.046" y1="277.3" x2="282.839" y2="281.092"/><line x1="279.046" y1="281.092" x2="282.839" y2="277.3"/>
<line x1="283.546" y1="305.876" x2="287.338" y2="305.876"/><line x1="285.442" y1="303.98" x2="285.442" y2="307.772"/><line x1="283.546" y1="303.98" x2="287.338" y2="307.772"/><line x1="283.546" y1="307.772" x2="287.338" y2="303.98"/>
<line x1="288.046" y1="289.529" x2="291.838" y2="289.529"/><line x1="289.942" y1="287.633" x2="289.942" y2="291.425"/><line x1="288.046" y1="287.633" x2="291.838" y2="291.425"/><line x1="288.046" y1="291.425" x2="291.838" y2="287.633"/>
<line x1="292.546" y1="300.944" x2="296.338" y2="300.944"/><line x1="294.442" y1="299.048" x2="294.442" y2="302.84"/><line x1="292.546" y1="299.048" x2="296.338" y2="302.84"/><line x1="292.546" y1="302.84" x2="296.338" y2="299.048"/>
<line x1="297.046" y1="267.538" x2="300.838" y2="267.538"/><line x1="298.942" y1="265.642" x2="298.942" y2="269.434"/><line x1="297.046" y1="265.642" x2="300.838" y2="269.434"/><line x1="297.046" y1="269.434" x2="300.838" y2="265.642"/>
<line x1="301.546" y1="298.778" x2="305.338" y2="298.778"/><line x1="303.442" y1="296.882" x2="303.442" y2="300.674"/><line x1="301.546" y1="296.882" x2="305.338" y2="300.674"/><line x1="301.546" y1="300.674" x2="305.338" y2="296.882"/>
<line x1="306.046" y1="282.349" x2="309.838" y2="282.349"/><line x1="307.942" y1="280.453" x2="307.942" y2="284.245"/><line x1="306.046" y1="280.453" x2="309.838" y2="284.245"/><line x1="306.046" y1="284.245" x2="309.838" y2="280.453"/>
<line x1="310.546" y1="268.018" x2="314.338" y2="268.018"/><line x1="312.442" y1="266.121" x2="312.442" y2="269.914"/><line x1="310.546" y1="266.121" x2="314.338" y2="269.914"/><line x1="310.546" y1="269.914" x2="314.338" y2="266.121"/>
<line x1="315.045" y1="233.669" x2="318.838" y2="233.669"/><line x1="316.942" y1="231.773" x2="316.942" y2="235.565"/><line x1="315.045" y1="231.773" x2="318.838" y2="235.565"/><line x1="315.045" y1="235.565" x2="318.838" y2="231.773"/>
<line x1="319.545" y1="205.764" x2="323.338" y2="205.764"/><line x1="321.441" y1="203.868" x2="321.441" y2="207.66"/><line x1="319.545" y1="203.868" x2="323.338" y2="207.66"/><line x1="319.545" y1="207.66" x2="323.338" y2="203.868"/>
<line x1="324.045" y1="191.466" x2="327.837" y2="191.466"/><line x1="325.941" y1="189.569" x2="325.941" y2="193.362"/><line x1="324.045" y1="189.569" x2="327.837" y2="193.362"/><line x1="324.045" y1="193.362" x2="327.837" y2="189.569"/>
<line x1="328.545" y1="170.634" x2="332.337" y2="170.634"/><line x1="330.441" y1="168.738" x2="330.441" y2="172.53"/><line x1="328.545" y1="168.738" x2="332.337" y2="172.53"/><line x1="328.545" y1="172.53" x2="332.337" y2="168.738"/>
<line x1="333.045" y1="147.458" x2="336.837" y2="147.458"/><line x1="334.941" y1="145.562" x2="334.941" y2="149.354"/><line x1="333.045" y1="145.562" x2="336.837" y2="149.354"/><line x1="333.045" y1="149.354" x2="336.837" y2="145.562"/>
<line x1="337.545" y1="149.207" x2="341.337" y2="149.207"/><line x1="339.441" y1="147.311" x2="339.441" y2="151.103"/><line x1="337.545" y1="147.311" x2="341.337" y2="151.103"/><line x1="337.545" y1="151.103" x2="341.337" y2="147.311"/>
<line x1="342.045" y1="175.583" x2="345.837" y2="175.583"/><line x1="343.941" y1="173.687" x2="343.941" y2="177.479"/><line x1="342.045" y1="173.687" x2="345.837" y2="177.479"/><line x1="342.045" y1="177.479" x2="345.837" y2="173.687"/>
<line x1="346.545" y1="174.263" x2="350.337" y2="174.263"/><line x1="348.441" y1="172.366" x2="348.441" y2="176.159"/><line x1="346.545" y1="172.366" x2="350.337" y2="176.159"/><line x1="346.545" y1="176.159" x2="350.337" y2="172.366"/>
<line x1="351.045" y1="166.139" x2="354.837" y2="166.139"/><line x1="352.941" y1="164.243" x2="352.941" y2="168.035"/><line x1="351.045" y1="164.243" x2="354.837" y2="168.035"/><line x1="351.045" y1="168.035" x2="354.837" y2="164.243"/>
<line x1="355.544" y1="147.515" x2="359.337" y2="147.515"/><line x1="357.441" y1="145.619" x2="357.441" y2="149.411"/><line x1="355.544" y1="145.619" x2="359.337" y2="149.411"/><line x1="355.544" y1="149.411" x2="359.337" y2="145.619"/>
<line x1="360.044" y1="159.457" x2="363.836" y2="159.457"/><line x1="361.94" y1="157.561" x2="361.94" y2="161.353"/><line x1="360.044" y1="157.561" x2="363.836" y2="161.353"/><line x1="360.044" y1="161.353" x2="363.836" y2="157.561"/>
<line x1="364.544" y1="167.631" x2="368.336" y2="167.631"/><line x1="366.44" y1="165.735" x2="366.44" y2="169.527"/><line x1="364.544" y1="165.735" x2="368.336" y2="169.527"/><line x1="364.544" y1="169.527" x2="368.336" y2="165.735"/>
<line x1="369.044" y1="172.832" x2="372.836" y2="172.832"/><line x1="370.94" y1="170.936" x2="370.94" y2="174.728"/><line x1="369.044" y1="170.936" x2="372.836" y2="174.728"/><line x1="369.044" y1="174.728" x2="372.836" y2="170.936"/>
<line x1="373.544" y1="173.635" x2="377.336" y2="173.635"/><line x1="375.44" y1="171.739" x2="375.44" y2="175.531"/><line x1="373.544" y1="171.739" x2="377.336" y2="175.531"/><line x1="373.544" y1="175.531" x2="377.336" y2="171.739"/>
<line x1="378.044" y1="191.343" x2="381.836" y2="191.343"/><line x1="379.94" y1="189.447" x2="379.94" y2="193.239"/><line x1="378.044" y1="189.447" x2="381.836" y2="193.239"/><line x1="378.044" y1="193.239" x2="381.836" y2="189.447"/>
<line x1="382.544" y1="190.285" x2="386.336" y2="190.285"/><line x1="384.44" y1="188.389" x2="384.44" y2="192.181"/><line x1="382.544" y1="188.389" x2="386.336" y2="192.181"/><line x1="382.544" y1="192.181" x2="386.336" y2="188.389"/>
<line x1="387.044" y1="174.45" x2="390.836" y2="174.45"/><line x1="388.94" y1="172.554" x2="388.94" y2="176.346"/><line x1="387.044" y1="172.554" x2="390.836" y2="176.346"/><line x1="387.044" y1="176.346" x2="390.836" y2="172.554"/>
<line x1="391.544" y1="192.307" x2="395.336" y2="192.307"/><line x1="393.44" y1="190.411" x2="393.44" y2="194.203"/><line x1="391.544" y1="190.411" x2="395.336" y2="194.203"/><line x1="391.544" y1="194.203" x2="395.336" y2="190.411"/>
<line x1="396.043" y1="272.707" x2="399.836" y2="272.707"/><line x1="397.94" y1="270.811" x2="397.94" y2="274.603"/><line x1="396.043" y1="270.811" x2="399.836" y2="274.603"/><line x1="396.043" y1="274.603" x2="399.836" y2="270.811"/>
<line x1="400.543" y1="269.872" x2="404.335" y2="269.872"/><line x1="402.439" y1="267.976" x2="402.439" y2="271.768"/><line x1="400.543" y1="267.976" x2="404.335" y2="271.768"/><line x1="400.543" y1="271.768" x2="404.335" y2="267.976"/>
<line x1="405.043" y1="254.877" x2="408.835" y2="254.877"/><line x1="406.939" y1="252.981" x2="406.939" y2="256.773"/><line x1="405.043" y1="252.981" x2="408.835" y2="256.773"/><line x1="405.043" y1="256.773" x2="408.835" y2="252.981"/>
<line x1="409.543" y1="250.946" x2="413.335" y2="250.946"/><line x1="411.439" y1="249.05" x2="411.439" y2="252.842"/><line x1="409.543" y1="249.05" x2="413.335" y2="252.842"/><line x1="409.543" y1="252.842" x2="413.335" y2="249.05"/>
<line x1="414.043" y1="252.904" x2="417.835" y2="252.904"/><line x1="415.939" y1="251.008" x2="415.939" y2="254.8"/><line x1="414.043" y1="251.008" x2="417.835" y2="254.8"/><line x1="414.043" y1="254.8" x2="417.835" y2="251.008"/>
<line x1="418.543" y1="262.859" x2="422.335" y2="262.859"/><line x1="420.439" y1="260.963" x2="420.439" y2="264.755"/><line x1="418.543" y1="260.963" x2="422.335" y2="264.755"/><line x1="418.543" y1="264.755" x2="422.335" y2="260.963"/>
<line x1="423.043" y1="255.311" x2="426.835" y2="255.311"/><line x1="424.939" y1="253.415" x2="424.939" y2="257.207"/><line x1="423.043" y1="253.415" x2="426.835" y2="257.207"/><line x1="423.043" y1="257.207" x2="426.835" y2="253.415"/>
<line x1="427.543" y1="240.089" x2="431.335" y2="240.089"/><line x1="429.439" y1="238.193" x2="429.439" y2="241.985"/><line x1="427.543" y1="238.193" x2="431.335" y2="241.985"/><line x1="427.543" y1="241.985" x2="431.335" y2="238.193"/>
<line x1="432.043" y1="276.052" x2="435.835" y2="276.052"/><line x1="433.939" y1="274.156" x2="433.939" y2="277.948"/><line x1="432.043" y1="274.156" x2="435.835" y2="277.948"/><line x1="432.043" y1="277.948" x2="435.835" y2="274.156"/>
<line x1="436.542" y1="256.355" x2="440.335" y2="256.355"/><line x1="438.439" y1="254.458" x2="438.439" y2="258.251"/><line x1="436.542" y1="254.458" x2="440.335" y2="258.251"/><line x1="436.542" y1="258.251" x2="440.335" y2="254.458"/>
<line x1="441.042" y1="248.873" x2="444.834" y2="248.873"/><line x1="442.938" y1="246.977" x2="442.938" y2="250.769"/><line x1="441.042" y1="246.977" x2="444.834" y2="250.769"/><line x1="441.042" y1="250.769" x2="444.834" y2="246.977"/>
<line x1="445.542" y1="225.131" x2="449.334" y2="225.131"/><line x1="447.438" y1="223.235" x2="447.438" y2="227.027"/><line x1="445.542" y1="223.235" x2="449.334" y2="227.027"/><line x1="445.542" y1="227.027" x2="449.334" y2="223.235"/>
<line x1="450.042" y1="202.413" x2="453.834" y2="202.413"/><line x1="451.938" y1="200.517" x2="451.938" y2="204.309"/><line x1="450.042" y1="200.517" x2="453.834" y2="204.309"/><line x1="450.042" y1="204.309" x2="453.834" y2="200.517"/>
<line x1="454.542" y1="205.823" x2="458.334" y2="205.823"/><line x1="456.438" y1="203.927" x2="456.438" y2="207.719"/><line x1="454.542" y1="203.927" x2="458.334" y2="207.719"/><line x1="454.542" y1="207.719" x2="458.334" y2="203.927"/>
<line x1="459.042" y1="189.069" x2="462.834" y2="189.069"/><line x1="460.938" y1="187.173" x2="460.938" y2="190.965"/><line x1="459.042" y1="187.173" x2="462.834" y2="190.965"/><line x1="459.042" y1="190.965" x2="462.834" y2="187.173"/>
<line x1="463.542" y1="170.951" x2="467.334" y2="170.951"/><line x1="465.438" y1="169.055" x2="465.438" y2="172.847"/><line x1="463.542" y1="169.055" x2="467.334" y2="172.847"/><line x1="463.542" y1="172.847" x2="467.334" y2="169.055"/>
<line x1="468.042" y1="192.365" x2="471.834" y2="192.365"/><line x1="469.938" y1="190.469" x2="469.938" y2="194.261"/><line x1="468.042" y1="190.469" x2="471.834" y2="194.261"/><line x1="468.042" y1="194.261" x2="471.834" y2="190.469"/>
<line x1="472.542" y1="218.638" x2="476.334" y2="218.638"/><line x1="474.438" y1="216.742" x2="474.438" y2="220.534"/><line x1="472.542" y1="216.742" x2="476.334" y2="220.534"/><line x1="472.542" y1="220.534" x2="476.334" y2="216.742"/>
<line x1="477.041" y1="190.607" x2="480.834" y2="190.607"/><line x1="478.938" y1="188.711" x2="478.938" y2="192.503"/><line x1="477.041" y1="188.711" x2="480.834" y2="192.503"/><line x1="477.041" y1="192.503" x2="480.834" y2="188.711"/>
<line x1="481.541" y1="147.822" x2="485.333" y2="147.822"/><line x1="483.437" y1="145.926" x2="483.437" y2="149.718"/><line x1="481.541" y1="145.926" x2="485.333" y2="149.718"/><line x1="481.541" y1="149.718" x2="485.333" y2="145.926"/>
<line x1="486.041" y1="157.708" x2="489.833" y2="157.708"/><line x1="487.937" y1="155.812" x2="487.937" y2="159.604"/><line x1="486.041" y1="155.812" x2="489.833" y2="159.604"/><line x1="486.041" y1="159.604" x2="489.833" y2="155.812"/>
<line x1="490.541" y1="162.349" x2="494.333" y2="162.349"/><line x1="492.437" y1="160.453" x2="492.437" y2="164.245"/><line x1="490.541" y1="160.453" x2="494.333" y2="164.245"/><line x1="490.541" y1="164.245" x2="494.333" y2="160.453"/>
<line x1="495.041" y1="160.782" x2="498.833" y2="160.782"/><line x1="496.937" y1="158.886" x2="496.937" y2="162.678"/><line x1="495.041" y1="158.886" x2="498.833" y2="162.678"/><line x1="495.041" y1="162.678" x2="498.833" y2="158.886"/>
<line x1="499.541" y1="181.701" x2="503.333" y2="181.701"/><line x1="501.437" y1="179.805" x2="501.437" y2="183.597"/><line x1="499.541" y1="179.805" x2="503.333" y2="183.597"/><line x1="499.541" y1="183.597" x2="503.333" y2="179.805"/>
<line x1="504.041" y1="145.468" x2="507.833" y2="145.468"/><line x1="505.937" y1="143.572" x2="505.937" y2="147.364"/><line x1="504.041" y1="143.572" x2="507.833" y2="147.364"/><line x1="504.041" y1="147.364" x2="507.833" y2="143.572"/>
<line x1="508.541" y1="133.917" x2="512.333" y2="133.917"/><line x1="510.437" y1="132.02" x2="510.437" y2="135.813"/><line x1="508.541" y1="132.02" x2="512.333" y2="135.813"/><line x1="508.541" y1="135.813" x2="512.333" y2="132.02"/>
</g>
<path d="M0.5,272.809h 566.929" fill="none" stroke="#0000ff"/></svg>
