<?xml version="1.0" standalone="no"?>
<svg width="567.429" height="413.846" viewBox="0 0 567.429 413.846" xmlns="http://www.w3.org/2000/svg" shape-rendering="crispEdges">
<title>
figures/chi2zoomin_4PMTnpefilelist20.svg
</title>
<desc>
Creator: ROOT Version 6.18/04
CreationDate: Fri Nov  1 14:14:09 2019</desc>
<defs>
</defs>
<rect x="0.5" y="0" width="566.929" height="413.346" fill="white"/>
<rect x="57.1929" y="41.3346" width="453.543" height="330.677" fill="white"/>
<rect x="57.1929" y="41.3346" width="453.543" height="330.677" fill="none" stroke="black"/>
<path d="M57.1929,372.012h 453.543" fill="none" stroke="black"/>
<path d="M92.8941,41.3346v 330.677" fill="none" stroke="black" stroke-dasharray=" 1, 2"/>
<path d="M137.364,41.3346v 330.677" fill="none" stroke="black" stroke-dasharray=" 1, 2"/>
<path d="M181.833,41.3346v 330.677" fill="none" stroke="black" stroke-dasharray=" 1, 2"/>
<path d="M226.303,41.3346v 330.677" fill="none" stroke="black" stroke-dasharray=" 1, 2"/>
<path d="M270.772,41.3346v 330.677" fill="none" stroke="black" stroke-dasharray=" 1, 2"/>
<path d="M315.241,41.3346v 330.677" fill="none" stroke="black" stroke-dasharray=" 1, 2"/>
<path d="M359.711,41.3346v 330.677" fill="none" stroke="black" stroke-dasharray=" 1, 2"/>
<path d="M404.18,41.3346v 330.677" fill="none" stroke="black" stroke-dasharray=" 1, 2"/>
<path d="M448.65,41.3346v 330.677" fill="none" stroke="black" stroke-dasharray=" 1, 2"/>
<path d="M493.119,41.3346v 330.677" fill="none" stroke="black" stroke-dasharray=" 1, 2"/>
<path d="M92.8941,41.3346v 330.677" fill="none" stroke="black" stroke-dasharray=" 1, 2"/>
<path d="M493.119,41.3346v 330.677" fill="none" stroke="black" stroke-dasharray=" 1, 2"/>
<path d="M57.1929,372.012v -330.677" fill="none" stroke="black"/>
<path d="M57.1929,372.012h 453.543" fill="none" stroke="black"/>
<path d="M92.8941,362.091v 9.92031" fill="none" stroke="black"/>
<path d="M104.011,367.052v 4.96016" fill="none" stroke="black"/>
<path d="M115.129,367.052v 4.96016" fill="none" stroke="black"/>
<path d="M126.246,367.052v 4.96016" fill="none" stroke="black"/>
<path d="M137.364,362.091v 9.92031" fill="none" stroke="black"/>
<path d="M148.481,367.052v 4.96016" fill="none" stroke="black"/>
<path d="M159.598,367.052v 4.96016" fill="none" stroke="black"/>
<path d="M170.716,367.052v 4.96016" fill="none" stroke="black"/>
<path d="M181.833,362.091v 9.92031" fill="none" stroke="black"/>
<path d="M192.95,367.052v 4.96016" fill="none" stroke="black"/>
<path d="M204.068,367.052v 4.96016" fill="none" stroke="black"/>
<path d="M215.185,367.052v 4.96016" fill="none" stroke="black"/>
<path d="M226.303,362.091v 9.92031" fill="none" stroke="black"/>
<path d="M237.42,367.052v 4.96016" fill="none" stroke="black"/>
<path d="M248.537,367.052v 4.96016" fill="none" stroke="black"/>
<path d="M259.655,367.052v 4.96016" fill="none" stroke="black"/>
<path d="M270.772,362.091v 9.92031" fill="none" stroke="black"/>
<path d="M281.889,367.052v 4.96016" fill="none" stroke="black"/>
<path d="M293.007,367.052v 4.96016" fill="none" stroke="black"/>
<path d="M304.124,367.052v 4.96016" fill="none" stroke="black"/>
<path d="M315.241,362.091v 9.92031" fill="none" stroke="black"/>
<path d="M326.359,367.052v 4.96016" fill="none" stroke="black"/>
<path d="M337.476,367.052v 4.96016" fill="none" stroke="black"/>
<path d="M348.594,367.052v 4.96016" fill="none" stroke="black"/>
<path d="M359.711,362.091v 9.92031" fill="none" stroke="black"/>
<path d="M370.828,367.052v 4.96016" fill="none" stroke="black"/>
<path d="M381.946,367.052v 4.96016" fill="none" stroke="black"/>
<path d="M393.063,367.052v 4.96016" fill="none" stroke="black"/>
<path d="M404.18,362.091v 9.92031" fill="none" stroke="black"/>
<path d="M415.298,367.052v 4.96016" fill="none" stroke="black"/>
<path d="M426.415,367.052v 4.96016" fill="none" stroke="black"/>
<path d="M437.533,367.052v 4.96016" fill="none" stroke="black"/>
<path d="M448.65,362.091v 9.92031" fill="none" stroke="black"/>
<path d="M459.767,367.052v 4.96016" fill="none" stroke="black"/>
<path d="M470.885,367.052v 4.96016" fill="none" stroke="black"/>
<path d="M482.002,367.052v 4.96016" fill="none" stroke="black"/>
<path d="M493.119,362.091v 9.92031" fill="none" stroke="black"/>
<path d="M92.8941,362.091v 9.92031" fill="none" stroke="black"/>
<path d="M81.7767,367.052v 4.96016" fill="none" stroke="black"/>
<path d="M70.6593,367.052v 4.96016" fill="none" stroke="black"/>
<path d="M59.542,367.052v 4.96016" fill="none" stroke="black"/>
<path d="M493.119,362.091v 9.92031" fill="none" stroke="black"/>
<path d="M504.237,367.052v 4.96016" fill="none" stroke="black"/>
<text xml:space="preserve" x="75.8693" y="385.379" fill="black" font-size="13.7726" font-family="Helvetica">1.058</text>
<text xml:space="preserve" x="124.219" y="385.379" fill="black" font-size="13.7726" font-family="Helvetica">1.06</text>
<text xml:space="preserve" x="164.985" y="385.379" fill="black" font-size="13.7726" font-family="Helvetica">1.062</text>
<text xml:space="preserve" x="209.543" y="385.379" fill="black" font-size="13.7726" font-family="Helvetica">1.064</text>
<text xml:space="preserve" x="254.101" y="385.379" fill="black" font-size="13.7726" font-family="Helvetica">1.066</text>
<text xml:space="preserve" x="298.185" y="385.379" fill="black" font-size="13.7726" font-family="Helvetica">1.068</text>
<text xml:space="preserve" x="346.535" y="385.379" fill="black" font-size="13.7726" font-family="Helvetica">1.07</text>
<text xml:space="preserve" x="387.301" y="385.379" fill="black" font-size="13.7726" font-family="Helvetica">1.072</text>
<text xml:space="preserve" x="431.859" y="385.379" fill="black" font-size="13.7726" font-family="Helvetica">1.074</text>
<text xml:space="preserve" x="476.417" y="385.379" fill="black" font-size="13.7726" font-family="Helvetica">1.076</text>
<text xml:space="preserve" x="413.372" y="400.074" fill="black" font-size="13.7726" font-family="Helvetica">calibration factor</text>
<path d="M57.1929,372.012v -330.677" fill="none" stroke="black"/>
<path d="M70.7992,362.353h -13.6063" fill="none" stroke="black"/>
<path d="M63.9961,355.739h -6.80315" fill="none" stroke="black"/>
<path d="M63.9961,349.126h -6.80315" fill="none" stroke="black"/>
<path d="M63.9961,342.512h -6.80315" fill="none" stroke="black"/>
<path d="M63.9961,335.899h -6.80315" fill="none" stroke="black"/>
<path d="M70.7992,329.285h -13.6063" fill="none" stroke="black"/>
<path d="M63.9961,322.671h -6.80315" fill="none" stroke="black"/>
<path d="M63.9961,316.058h -6.80315" fill="none" stroke="black"/>
<path d="M63.9961,309.444h -6.80315" fill="none" stroke="black"/>
<path d="M63.9961,302.831h -6.80315" fill="none" stroke="black"/>
<path d="M70.7992,296.217h -13.6063" fill="none" stroke="black"/>
<path d="M63.9961,289.604h -6.80315" fill="none" stroke="black"/>
<path d="M63.9961,282.99h -6.80315" fill="none" stroke="black"/>
<path d="M63.9961,276.377h -6.80315" fill="none" stroke="black"/>
<path d="M63.9961,269.763h -6.80315" fill="none" stroke="black"/>
<path d="M70.7992,263.15h -13.6063" fill="none" stroke="black"/>
<path d="M63.9961,256.536h -6.80315" fill="none" stroke="black"/>
<path d="M63.9961,249.922h -6.80315" fill="none" stroke="black"/>
<path d="M63.9961,243.309h -6.80315" fill="none" stroke="black"/>
<path d="M63.9961,236.695h -6.80315" fill="none" stroke="black"/>
<path d="M70.7992,230.082h -13.6063" fill="none" stroke="black"/>
<path d="M63.9961,223.468h -6.80315" fill="none" stroke="black"/>
<path d="M63.9961,216.855h -6.80315" fill="none" stroke="black"/>
<path d="M63.9961,210.241h -6.80315" fill="none" stroke="black"/>
<path d="M63.9961,203.628h -6.80315" fill="none" stroke="black"/>
<path d="M70.7992,197.014h -13.6063" fill="none" stroke="black"/>
<path d="M63.9961,190.401h -6.80315" fill="none" stroke="black"/>
<path d="M63.9961,183.787h -6.80315" fill="none" stroke="black"/>
<path d="M63.9961,177.174h -6.80315" fill="none" stroke="black"/>
<path d="M63.9961,170.56h -6.80315" fill="none" stroke="black"/>
<path d="M70.7992,163.946h -13.6063" fill="none" stroke="black"/>
<path d="M63.9961,157.333h -6.80315" fill="none" stroke="black"/>
<path d="M63.9961,150.719h -6.80315" fill="none" stroke="black"/>
<path d="M63.9961,144.106h -6.80315" fill="none" stroke="black"/>
<path d="M63.9961,137.492h -6.80315" fill="none" stroke="black"/>
<path d="M70.7992,130.879h -13.6063" fill="none" stroke="black"/>
<path d="M63.9961,124.265h -6.80315" fill="none" stroke="black"/>
<path d="M63.9961,117.652h -6.80315" fill="none" stroke="black"/>
<path d="M63.9961,111.038h -6.80315" fill="none" stroke="black"/>
<path d="M63.9961,104.425h -6.80315" fill="none" stroke="black"/>
<path d="M70.7992,97.811h -13.6063" fill="none" stroke="black"/>
<path d="M63.9961,91.1975h -6.80315" fill="none" stroke="black"/>
<path d="M63.9961,84.584h -6.80315" fill="none" stroke="black"/>
<path d="M63.9961,77.9704h -6.80315" fill="none" stroke="black"/>
<path d="M63.9961,71.3569h -6.80315" fill="none" stroke="black"/>
<path d="M70.7992,64.7433h -13.6063" fill="none" stroke="black"/>
<path d="M70.7992,362.353h -13.6063" fill="none" stroke="black"/>
<path d="M63.9961,368.966h -6.80315" fill="none" stroke="black"/>
<path d="M70.7992,64.7433h -13.6063" fill="none" stroke="black"/>
<path d="M63.9961,58.1298h -6.80315" fill="none" stroke="black"/>
<path d="M63.9961,51.5163h -6.80315" fill="none" stroke="black"/>
<path d="M63.9961,44.9027h -6.80315" fill="none" stroke="black"/>
<text xml:space="preserve" x="24.6751" y="366.892" fill="black" font-size="13.7726" font-family="Helvetica">2904</text>
<text xml:space="preserve" x="24.6751" y="333.711" fill="black" font-size="13.7726" font-family="Helvetica">2905</text>
<text xml:space="preserve" x="24.6751" y="300.529" fill="black" font-size="13.7726" font-family="Helvetica">2906</text>
<text xml:space="preserve" x="24.6751" y="267.822" fill="black" font-size="13.7726" font-family="Helvetica">2907</text>
<text xml:space="preserve" x="24.6751" y="234.64" fill="black" font-size="13.7726" font-family="Helvetica">2908</text>
<text xml:space="preserve" x="25.1491" y="201.459" fill="black" font-size="13.7726" font-family="Helvetica">2909</text>
<text xml:space="preserve" x="25.1491" y="168.277" fill="black" font-size="13.7726" font-family="Helvetica">2910</text>
<text xml:space="preserve" x="27.0452" y="135.57" fill="black" font-size="13.7726" font-family="Helvetica">2911</text>
<text xml:space="preserve" x="24.6751" y="102.389" fill="black" font-size="13.7726" font-family="Helvetica">2912</text>
<text xml:space="preserve" x="25.1491" y="69.2071" fill="black" font-size="13.7726" font-family="Helvetica">2913</text>
<g transform="rotate(-90,7.61032,45.98)">
<text xml:space="preserve" x="7.61032" y="45.98" fill="black" font-size="9.34839" font-family="Helvetica">2</text>
</g>
<g transform="rotate(-90,11.8765,50.2462)">
<text xml:space="preserve" x="11.8765" y="50.2462" fill="black" font-size="13.7726" font-family="Helvetica"> </text>
</g>
<g transform="rotate(-90,11.8765,57.3565)">
<text xml:space="preserve" x="11.8765" y="57.3565" fill="black" font-size="13.7726" font-family="Times">&#0967;</text>
</g>
<g stroke="black" stroke-width="1" fill="none">
<line x1="55.4224" y1="175.262" x2="59.2146" y2="175.262"/><line x1="57.3185" y1="173.366" x2="57.3185" y2="177.158"/><line x1="55.4224" y1="173.366" x2="59.2146" y2="177.158"/><line x1="55.4224" y1="177.158" x2="59.2146" y2="173.366"/>
<line x1="59.8694" y1="177.964" x2="63.6615" y2="177.964"/><line x1="61.7654" y1="176.068" x2="61.7654" y2="179.86"/><line x1="59.8694" y1="176.068" x2="63.6615" y2="179.86"/><line x1="59.8694" y1="179.86" x2="63.6615" y2="176.068"/>
<line x1="64.3163" y1="179.165" x2="68.1085" y2="179.165"/><line x1="66.2124" y1="177.269" x2="66.2124" y2="181.061"/><line x1="64.3163" y1="177.269" x2="68.1085" y2="181.061"/><line x1="64.3163" y1="181.061" x2="68.1085" y2="177.269"/>
<line x1="68.7633" y1="179.165" x2="72.5554" y2="179.165"/><line x1="70.6593" y1="177.269" x2="70.6593" y2="181.061"/><line x1="68.7633" y1="177.269" x2="72.5554" y2="181.061"/><line x1="68.7633" y1="181.061" x2="72.5554" y2="177.269"/>
<line x1="73.2102" y1="184.845" x2="77.0024" y2="184.845"/><line x1="75.1063" y1="182.949" x2="75.1063" y2="186.741"/><line x1="73.2102" y1="182.949" x2="77.0024" y2="186.741"/><line x1="73.2102" y1="186.741" x2="77.0024" y2="182.949"/>
<line x1="77.6572" y1="184.845" x2="81.4493" y2="184.845"/><line x1="79.5532" y1="182.949" x2="79.5532" y2="186.741"/><line x1="77.6572" y1="182.949" x2="81.4493" y2="186.741"/><line x1="77.6572" y1="186.741" x2="81.4493" y2="182.949"/>
<line x1="82.1041" y1="184.845" x2="85.8963" y2="184.845"/><line x1="84.0002" y1="182.949" x2="84.0002" y2="186.741"/><line x1="82.1041" y1="182.949" x2="85.8963" y2="186.741"/><line x1="82.1041" y1="186.741" x2="85.8963" y2="182.949"/>
<line x1="86.551" y1="184.845" x2="90.3432" y2="184.845"/><line x1="88.4471" y1="182.949" x2="88.4471" y2="186.741"/><line x1="86.551" y1="182.949" x2="90.3432" y2="186.741"/><line x1="86.551" y1="186.741" x2="90.3432" y2="182.949"/>
<line x1="90.998" y1="184.845" x2="94.7902" y2="184.845"/><line x1="92.8941" y1="182.949" x2="92.8941" y2="186.741"/><line x1="90.998" y1="182.949" x2="94.7902" y2="186.741"/><line x1="90.998" y1="186.741" x2="94.7902" y2="182.949"/>
<line x1="95.4449" y1="184.845" x2="99.2371" y2="184.845"/><line x1="97.341" y1="182.949" x2="97.341" y2="186.741"/><line x1="95.4449" y1="182.949" x2="99.2371" y2="186.741"/><line x1="95.4449" y1="186.741" x2="99.2371" y2="182.949"/>
<line x1="99.8919" y1="181.74" x2="103.684" y2="181.74"/><line x1="101.788" y1="179.844" x2="101.788" y2="183.636"/><line x1="99.8919" y1="179.844" x2="103.684" y2="183.636"/><line x1="99.8919" y1="183.636" x2="103.684" y2="179.844"/>
<line x1="104.339" y1="173.019" x2="108.131" y2="173.019"/><line x1="106.235" y1="171.122" x2="106.235" y2="174.915"/><line x1="104.339" y1="171.122" x2="108.131" y2="174.915"/><line x1="104.339" y1="174.915" x2="108.131" y2="171.122"/>
<line x1="108.786" y1="173.019" x2="112.578" y2="173.019"/><line x1="110.682" y1="171.122" x2="110.682" y2="174.915"/><line x1="108.786" y1="171.122" x2="112.578" y2="174.915"/><line x1="108.786" y1="174.915" x2="112.578" y2="171.122"/>
<line x1="113.233" y1="173.019" x2="117.025" y2="173.019"/><line x1="115.129" y1="171.122" x2="115.129" y2="174.915"/><line x1="113.233" y1="171.122" x2="117.025" y2="174.915"/><line x1="113.233" y1="174.915" x2="117.025" y2="171.122"/>
<line x1="117.68" y1="173.019" x2="121.472" y2="173.019"/><line x1="119.576" y1="171.122" x2="119.576" y2="174.915"/><line x1="117.68" y1="171.122" x2="121.472" y2="174.915"/><line x1="117.68" y1="174.915" x2="121.472" y2="171.122"/>
<line x1="122.127" y1="174.05" x2="125.919" y2="174.05"/><line x1="124.023" y1="172.154" x2="124.023" y2="175.946"/><line x1="122.127" y1="172.154" x2="125.919" y2="175.946"/><line x1="122.127" y1="175.946" x2="125.919" y2="172.154"/>
<line x1="126.574" y1="174.05" x2="130.366" y2="174.05"/><line x1="128.47" y1="172.154" x2="128.47" y2="175.946"/><line x1="126.574" y1="172.154" x2="130.366" y2="175.946"/><line x1="126.574" y1="175.946" x2="130.366" y2="172.154"/>
<line x1="131.021" y1="244.091" x2="134.813" y2="244.091"/><line x1="132.917" y1="242.195" x2="132.917" y2="245.987"/><line x1="131.021" y1="242.195" x2="134.813" y2="245.987"/><line x1="131.021" y1="245.987" x2="134.813" y2="242.195"/>
<line x1="135.467" y1="245.071" x2="139.26" y2="245.071"/><line x1="137.364" y1="243.175" x2="137.364" y2="246.967"/><line x1="135.467" y1="243.175" x2="139.26" y2="246.967"/><line x1="135.467" y1="246.967" x2="139.26" y2="243.175"/>
<line x1="139.914" y1="245.071" x2="143.707" y2="245.071"/><line x1="141.811" y1="243.175" x2="141.811" y2="246.967"/><line x1="139.914" y1="243.175" x2="143.707" y2="246.967"/><line x1="139.914" y1="246.967" x2="143.707" y2="243.175"/>
<line x1="144.361" y1="245.071" x2="148.154" y2="245.071"/><line x1="146.257" y1="243.175" x2="146.257" y2="246.967"/><line x1="144.361" y1="243.175" x2="148.154" y2="246.967"/><line x1="144.361" y1="246.967" x2="148.154" y2="243.175"/>
<line x1="148.808" y1="245.071" x2="152.6" y2="245.071"/><line x1="150.704" y1="243.175" x2="150.704" y2="246.967"/><line x1="148.808" y1="243.175" x2="152.6" y2="246.967"/><line x1="148.808" y1="246.967" x2="152.6" y2="243.175"/>
<line x1="153.255" y1="245.071" x2="157.047" y2="245.071"/><line x1="155.151" y1="243.175" x2="155.151" y2="246.967"/><line x1="153.255" y1="243.175" x2="157.047" y2="246.967"/><line x1="153.255" y1="246.967" x2="157.047" y2="243.175"/>
<line x1="157.702" y1="245.071" x2="161.494" y2="245.071"/><line x1="159.598" y1="243.175" x2="159.598" y2="246.967"/><line x1="157.702" y1="243.175" x2="161.494" y2="246.967"/><line x1="157.702" y1="246.967" x2="161.494" y2="243.175"/>
<line x1="162.149" y1="245.89" x2="165.941" y2="245.89"/><line x1="164.045" y1="243.994" x2="164.045" y2="247.786"/><line x1="162.149" y1="243.994" x2="165.941" y2="247.786"/><line x1="162.149" y1="247.786" x2="165.941" y2="243.994"/>
<line x1="166.596" y1="245.89" x2="170.388" y2="245.89"/><line x1="168.492" y1="243.994" x2="168.492" y2="247.786"/><line x1="166.596" y1="243.994" x2="170.388" y2="247.786"/><line x1="166.596" y1="247.786" x2="170.388" y2="243.994"/>
<line x1="171.043" y1="245.89" x2="174.835" y2="245.89"/><line x1="172.939" y1="243.994" x2="172.939" y2="247.786"/><line x1="171.043" y1="243.994" x2="174.835" y2="247.786"/><line x1="171.043" y1="247.786" x2="174.835" y2="243.994"/>
<line x1="175.49" y1="245.89" x2="179.282" y2="245.89"/><line x1="177.386" y1="243.994" x2="177.386" y2="247.786"/><line x1="175.49" y1="243.994" x2="179.282" y2="247.786"/><line x1="175.49" y1="247.786" x2="179.282" y2="243.994"/>
<line x1="179.937" y1="246.548" x2="183.729" y2="246.548"/><line x1="181.833" y1="244.652" x2="181.833" y2="248.444"/><line x1="179.937" y1="244.652" x2="183.729" y2="248.444"/><line x1="179.937" y1="248.444" x2="183.729" y2="244.652"/>
<line x1="184.384" y1="246.548" x2="188.176" y2="246.548"/><line x1="186.28" y1="244.652" x2="186.28" y2="248.444"/><line x1="184.384" y1="244.652" x2="188.176" y2="248.444"/><line x1="184.384" y1="248.444" x2="188.176" y2="244.652"/>
<line x1="188.831" y1="242.175" x2="192.623" y2="242.175"/><line x1="190.727" y1="240.279" x2="190.727" y2="244.072"/><line x1="188.831" y1="240.279" x2="192.623" y2="244.072"/><line x1="188.831" y1="244.072" x2="192.623" y2="240.279"/>
<line x1="193.278" y1="242.175" x2="197.07" y2="242.175"/><line x1="195.174" y1="240.279" x2="195.174" y2="244.072"/><line x1="193.278" y1="240.279" x2="197.07" y2="244.072"/><line x1="193.278" y1="244.072" x2="197.07" y2="240.279"/>
<line x1="197.725" y1="242.175" x2="201.517" y2="242.175"/><line x1="199.621" y1="240.279" x2="199.621" y2="244.072"/><line x1="197.725" y1="240.279" x2="201.517" y2="244.072"/><line x1="197.725" y1="244.072" x2="201.517" y2="240.279"/>
<line x1="202.172" y1="242.175" x2="205.964" y2="242.175"/><line x1="204.068" y1="240.279" x2="204.068" y2="244.072"/><line x1="202.172" y1="240.279" x2="205.964" y2="244.072"/><line x1="202.172" y1="244.072" x2="205.964" y2="240.279"/>
<line x1="206.619" y1="242.175" x2="210.411" y2="242.175"/><line x1="208.515" y1="240.279" x2="208.515" y2="244.072"/><line x1="206.619" y1="240.279" x2="210.411" y2="244.072"/><line x1="206.619" y1="244.072" x2="210.411" y2="240.279"/>
<line x1="211.066" y1="242.175" x2="214.858" y2="242.175"/><line x1="212.962" y1="240.279" x2="212.962" y2="244.072"/><line x1="211.066" y1="240.279" x2="214.858" y2="244.072"/><line x1="211.066" y1="244.072" x2="214.858" y2="240.279"/>
<line x1="215.513" y1="240.336" x2="219.305" y2="240.336"/><line x1="217.409" y1="238.44" x2="217.409" y2="242.232"/><line x1="215.513" y1="238.44" x2="219.305" y2="242.232"/><line x1="215.513" y1="242.232" x2="219.305" y2="238.44"/>
<line x1="219.959" y1="240.336" x2="223.752" y2="240.336"/><line x1="221.856" y1="238.44" x2="221.856" y2="242.232"/><line x1="219.959" y1="238.44" x2="223.752" y2="242.232"/><line x1="219.959" y1="242.232" x2="223.752" y2="238.44"/>
<line x1="224.406" y1="240.336" x2="228.199" y2="240.336"/><line x1="226.303" y1="238.44" x2="226.303" y2="242.232"/><line x1="224.406" y1="238.44" x2="228.199" y2="242.232"/><line x1="224.406" y1="242.232" x2="228.199" y2="238.44"/>
<line x1="228.853" y1="240.336" x2="232.646" y2="240.336"/><line x1="230.749" y1="238.44" x2="230.749" y2="242.232"/><line x1="228.853" y1="238.44" x2="232.646" y2="242.232"/><line x1="228.853" y1="242.232" x2="232.646" y2="238.44"/>
<line x1="233.3" y1="240.336" x2="237.092" y2="240.336"/><line x1="235.196" y1="238.44" x2="235.196" y2="242.232"/><line x1="233.3" y1="238.44" x2="237.092" y2="242.232"/><line x1="233.3" y1="242.232" x2="237.092" y2="238.44"/>
<line x1="237.747" y1="240.336" x2="241.539" y2="240.336"/><line x1="239.643" y1="238.44" x2="239.643" y2="242.232"/><line x1="237.747" y1="238.44" x2="241.539" y2="242.232"/><line x1="237.747" y1="242.232" x2="241.539" y2="238.44"/>
<line x1="242.194" y1="240.336" x2="245.986" y2="240.336"/><line x1="244.09" y1="238.44" x2="244.09" y2="242.232"/><line x1="242.194" y1="238.44" x2="245.986" y2="242.232"/><line x1="242.194" y1="242.232" x2="245.986" y2="238.44"/>
<line x1="246.641" y1="240.336" x2="250.433" y2="240.336"/><line x1="248.537" y1="238.44" x2="248.537" y2="242.232"/><line x1="246.641" y1="238.44" x2="250.433" y2="242.232"/><line x1="246.641" y1="242.232" x2="250.433" y2="238.44"/>
<line x1="251.088" y1="236.727" x2="254.88" y2="236.727"/><line x1="252.984" y1="234.831" x2="252.984" y2="238.623"/><line x1="251.088" y1="234.831" x2="254.88" y2="238.623"/><line x1="251.088" y1="238.623" x2="254.88" y2="234.831"/>
<line x1="255.535" y1="232.159" x2="259.327" y2="232.159"/><line x1="257.431" y1="230.263" x2="257.431" y2="234.055"/><line x1="255.535" y1="230.263" x2="259.327" y2="234.055"/><line x1="255.535" y1="234.055" x2="259.327" y2="230.263"/>
<line x1="259.982" y1="232.159" x2="263.774" y2="232.159"/><line x1="261.878" y1="230.263" x2="261.878" y2="234.055"/><line x1="259.982" y1="230.263" x2="263.774" y2="234.055"/><line x1="259.982" y1="234.055" x2="263.774" y2="230.263"/>
<line x1="264.429" y1="232.159" x2="268.221" y2="232.159"/><line x1="266.325" y1="230.263" x2="266.325" y2="234.055"/><line x1="264.429" y1="230.263" x2="268.221" y2="234.055"/><line x1="264.429" y1="234.055" x2="268.221" y2="230.263"/>
<line x1="268.876" y1="232.159" x2="272.668" y2="232.159"/><line x1="270.772" y1="230.263" x2="270.772" y2="234.055"/><line x1="268.876" y1="230.263" x2="272.668" y2="234.055"/><line x1="268.876" y1="234.055" x2="272.668" y2="230.263"/>
<line x1="273.323" y1="232.809" x2="277.115" y2="232.809"/><line x1="275.219" y1="230.913" x2="275.219" y2="234.705"/><line x1="273.323" y1="230.913" x2="277.115" y2="234.705"/><line x1="273.323" y1="234.705" x2="277.115" y2="230.913"/>
<line x1="277.77" y1="232.809" x2="281.562" y2="232.809"/><line x1="279.666" y1="230.913" x2="279.666" y2="234.705"/><line x1="277.77" y1="230.913" x2="281.562" y2="234.705"/><line x1="277.77" y1="234.705" x2="281.562" y2="230.913"/>
<line x1="282.217" y1="305.876" x2="286.009" y2="305.876"/><line x1="284.113" y1="303.98" x2="284.113" y2="307.772"/><line x1="282.217" y1="303.98" x2="286.009" y2="307.772"/><line x1="282.217" y1="307.772" x2="286.009" y2="303.98"/>
<line x1="286.664" y1="305.876" x2="290.456" y2="305.876"/><line x1="288.56" y1="303.98" x2="288.56" y2="307.772"/><line x1="286.664" y1="303.98" x2="290.456" y2="307.772"/><line x1="286.664" y1="307.772" x2="290.456" y2="303.98"/>
<line x1="291.111" y1="302.216" x2="294.903" y2="302.216"/><line x1="293.007" y1="300.32" x2="293.007" y2="304.112"/><line x1="291.111" y1="300.32" x2="294.903" y2="304.112"/><line x1="291.111" y1="304.112" x2="294.903" y2="300.32"/>
<line x1="295.558" y1="302.216" x2="299.35" y2="302.216"/><line x1="297.454" y1="300.32" x2="297.454" y2="304.112"/><line x1="295.558" y1="300.32" x2="299.35" y2="304.112"/><line x1="295.558" y1="304.112" x2="299.35" y2="300.32"/>
<line x1="300.005" y1="297.503" x2="303.797" y2="297.503"/><line x1="301.901" y1="295.607" x2="301.901" y2="299.399"/><line x1="300.005" y1="295.607" x2="303.797" y2="299.399"/><line x1="300.005" y1="299.399" x2="303.797" y2="295.607"/>
<line x1="304.451" y1="297.503" x2="308.244" y2="297.503"/><line x1="306.348" y1="295.607" x2="306.348" y2="299.399"/><line x1="304.451" y1="295.607" x2="308.244" y2="299.399"/><line x1="304.451" y1="299.399" x2="308.244" y2="295.607"/>
<line x1="308.898" y1="294.976" x2="312.691" y2="294.976"/><line x1="310.795" y1="293.08" x2="310.795" y2="296.872"/><line x1="308.898" y1="293.08" x2="312.691" y2="296.872"/><line x1="308.898" y1="296.872" x2="312.691" y2="293.08"/>
<line x1="313.345" y1="294.976" x2="317.138" y2="294.976"/><line x1="315.241" y1="293.08" x2="315.241" y2="296.872"/><line x1="313.345" y1="293.08" x2="317.138" y2="296.872"/><line x1="313.345" y1="296.872" x2="317.138" y2="293.08"/>
<line x1="317.792" y1="294.976" x2="321.585" y2="294.976"/><line x1="319.688" y1="293.08" x2="319.688" y2="296.872"/><line x1="317.792" y1="293.08" x2="321.585" y2="296.872"/><line x1="317.792" y1="296.872" x2="321.585" y2="293.08"/>
<line x1="322.239" y1="285.533" x2="326.031" y2="285.533"/><line x1="324.135" y1="283.637" x2="324.135" y2="287.429"/><line x1="322.239" y1="283.637" x2="326.031" y2="287.429"/><line x1="322.239" y1="287.429" x2="326.031" y2="283.637"/>
<line x1="326.686" y1="285.533" x2="330.478" y2="285.533"/><line x1="328.582" y1="283.637" x2="328.582" y2="287.429"/><line x1="326.686" y1="283.637" x2="330.478" y2="287.429"/><line x1="326.686" y1="287.429" x2="330.478" y2="283.637"/>
<line x1="331.133" y1="285.533" x2="334.925" y2="285.533"/><line x1="333.029" y1="283.637" x2="333.029" y2="287.429"/><line x1="331.133" y1="283.637" x2="334.925" y2="287.429"/><line x1="331.133" y1="287.429" x2="334.925" y2="283.637"/>
<line x1="335.58" y1="285.533" x2="339.372" y2="285.533"/><line x1="337.476" y1="283.637" x2="337.476" y2="287.429"/><line x1="335.58" y1="283.637" x2="339.372" y2="287.429"/><line x1="335.58" y1="287.429" x2="339.372" y2="283.637"/>
<line x1="340.027" y1="280.727" x2="343.819" y2="280.727"/><line x1="341.923" y1="278.831" x2="341.923" y2="282.623"/><line x1="340.027" y1="278.831" x2="343.819" y2="282.623"/><line x1="340.027" y1="282.623" x2="343.819" y2="278.831"/>
<line x1="344.474" y1="280.727" x2="348.266" y2="280.727"/><line x1="346.37" y1="278.831" x2="346.37" y2="282.623"/><line x1="344.474" y1="278.831" x2="348.266" y2="282.623"/><line x1="344.474" y1="282.623" x2="348.266" y2="278.831"/>
<line x1="348.921" y1="280.727" x2="352.713" y2="280.727"/><line x1="350.817" y1="278.831" x2="350.817" y2="282.623"/><line x1="348.921" y1="278.831" x2="352.713" y2="282.623"/><line x1="348.921" y1="282.623" x2="352.713" y2="278.831"/>
<line x1="353.368" y1="280.727" x2="357.16" y2="280.727"/><line x1="355.264" y1="278.831" x2="355.264" y2="282.623"/><line x1="353.368" y1="278.831" x2="357.16" y2="282.623"/><line x1="353.368" y1="282.623" x2="357.16" y2="278.831"/>
<line x1="357.815" y1="280.727" x2="361.607" y2="280.727"/><line x1="359.711" y1="278.831" x2="359.711" y2="282.623"/><line x1="357.815" y1="278.831" x2="361.607" y2="282.623"/><line x1="357.815" y1="282.623" x2="361.607" y2="278.831"/>
<line x1="362.262" y1="280.727" x2="366.054" y2="280.727"/><line x1="364.158" y1="278.831" x2="364.158" y2="282.623"/><line x1="362.262" y1="278.831" x2="366.054" y2="282.623"/><line x1="362.262" y1="282.623" x2="366.054" y2="278.831"/>
<line x1="366.709" y1="280.727" x2="370.501" y2="280.727"/><line x1="368.605" y1="278.831" x2="368.605" y2="282.623"/><line x1="366.709" y1="278.831" x2="370.501" y2="282.623"/><line x1="366.709" y1="282.623" x2="370.501" y2="278.831"/>
<line x1="371.156" y1="280.727" x2="374.948" y2="280.727"/><line x1="373.052" y1="278.831" x2="373.052" y2="282.623"/><line x1="371.156" y1="278.831" x2="374.948" y2="282.623"/><line x1="371.156" y1="282.623" x2="374.948" y2="278.831"/>
<line x1="375.603" y1="280.727" x2="379.395" y2="280.727"/><line x1="377.499" y1="278.831" x2="377.499" y2="282.623"/><line x1="375.603" y1="278.831" x2="379.395" y2="282.623"/><line x1="375.603" y1="282.623" x2="379.395" y2="278.831"/>
<line x1="380.05" y1="281.522" x2="383.842" y2="281.522"/><line x1="381.946" y1="279.625" x2="381.946" y2="283.418"/><line x1="380.05" y1="279.625" x2="383.842" y2="283.418"/><line x1="380.05" y1="283.418" x2="383.842" y2="279.625"/>
<line x1="384.497" y1="281.522" x2="388.289" y2="281.522"/><line x1="386.393" y1="279.625" x2="386.393" y2="283.418"/><line x1="384.497" y1="279.625" x2="388.289" y2="283.418"/><line x1="384.497" y1="283.418" x2="388.289" y2="279.625"/>
<line x1="388.943" y1="281.522" x2="392.736" y2="281.522"/><line x1="390.84" y1="279.625" x2="390.84" y2="283.418"/><line x1="388.943" y1="279.625" x2="392.736" y2="283.418"/><line x1="388.943" y1="283.418" x2="392.736" y2="279.625"/>
<line x1="393.39" y1="276.664" x2="397.183" y2="276.664"/><line x1="395.287" y1="274.768" x2="395.287" y2="278.56"/><line x1="393.39" y1="274.768" x2="397.183" y2="278.56"/><line x1="393.39" y1="278.56" x2="397.183" y2="274.768"/>
<line x1="397.837" y1="276.664" x2="401.63" y2="276.664"/><line x1="399.733" y1="274.768" x2="399.733" y2="278.56"/><line x1="397.837" y1="274.768" x2="401.63" y2="278.56"/><line x1="397.837" y1="278.56" x2="401.63" y2="274.768"/>
<line x1="402.284" y1="277.158" x2="406.077" y2="277.158"/><line x1="404.18" y1="275.262" x2="404.18" y2="279.055"/><line x1="402.284" y1="275.262" x2="406.077" y2="279.055"/><line x1="402.284" y1="279.055" x2="406.077" y2="275.262"/>
<line x1="406.731" y1="272.25" x2="410.523" y2="272.25"/><line x1="408.627" y1="270.353" x2="408.627" y2="274.146"/><line x1="406.731" y1="270.353" x2="410.523" y2="274.146"/><line x1="406.731" y1="274.146" x2="410.523" y2="270.353"/>
<line x1="411.178" y1="267.196" x2="414.97" y2="267.196"/><line x1="413.074" y1="265.3" x2="413.074" y2="269.092"/><line x1="411.178" y1="265.3" x2="414.97" y2="269.092"/><line x1="411.178" y1="269.092" x2="414.97" y2="265.3"/>
<line x1="415.625" y1="267.196" x2="419.417" y2="267.196"/><line x1="417.521" y1="265.3" x2="417.521" y2="269.092"/><line x1="415.625" y1="265.3" x2="419.417" y2="269.092"/><line x1="415.625" y1="269.092" x2="419.417" y2="265.3"/>
<line x1="420.072" y1="267.196" x2="423.864" y2="267.196"/><line x1="421.968" y1="265.3" x2="421.968" y2="269.092"/><line x1="420.072" y1="265.3" x2="423.864" y2="269.092"/><line x1="420.072" y1="269.092" x2="423.864" y2="265.3"/>
<line x1="424.519" y1="267.196" x2="428.311" y2="267.196"/><line x1="426.415" y1="265.3" x2="426.415" y2="269.092"/><line x1="424.519" y1="265.3" x2="428.311" y2="269.092"/><line x1="424.519" y1="269.092" x2="428.311" y2="265.3"/>
<line x1="428.966" y1="261.998" x2="432.758" y2="261.998"/><line x1="430.862" y1="260.102" x2="430.862" y2="263.894"/><line x1="428.966" y1="260.102" x2="432.758" y2="263.894"/><line x1="428.966" y1="263.894" x2="432.758" y2="260.102"/>
<line x1="433.413" y1="261.998" x2="437.205" y2="261.998"/><line x1="435.309" y1="260.102" x2="435.309" y2="263.894"/><line x1="433.413" y1="260.102" x2="437.205" y2="263.894"/><line x1="433.413" y1="263.894" x2="437.205" y2="260.102"/>
<line x1="437.86" y1="256.655" x2="441.652" y2="256.655"/><line x1="439.756" y1="254.759" x2="439.756" y2="258.551"/><line x1="437.86" y1="254.759" x2="441.652" y2="258.551"/><line x1="437.86" y1="258.551" x2="441.652" y2="254.759"/>
<line x1="442.307" y1="256.655" x2="446.099" y2="256.655"/><line x1="444.203" y1="254.759" x2="444.203" y2="258.551"/><line x1="442.307" y1="254.759" x2="446.099" y2="258.551"/><line x1="442.307" y1="258.551" x2="446.099" y2="254.759"/>
<line x1="446.754" y1="256.655" x2="450.546" y2="256.655"/><line x1="448.65" y1="254.759" x2="448.65" y2="258.551"/><line x1="446.754" y1="254.759" x2="450.546" y2="258.551"/><line x1="446.754" y1="258.551" x2="450.546" y2="254.759"/>
<line x1="451.201" y1="256.655" x2="454.993" y2="256.655"/><line x1="453.097" y1="254.759" x2="453.097" y2="258.551"/><line x1="451.201" y1="254.759" x2="454.993" y2="258.551"/><line x1="451.201" y1="258.551" x2="454.993" y2="254.759"/>
<line x1="455.648" y1="251.168" x2="459.44" y2="251.168"/><line x1="457.544" y1="249.272" x2="457.544" y2="253.064"/><line x1="455.648" y1="249.272" x2="459.44" y2="253.064"/><line x1="455.648" y1="253.064" x2="459.44" y2="249.272"/>
<line x1="460.095" y1="251.168" x2="463.887" y2="251.168"/><line x1="461.991" y1="249.272" x2="461.991" y2="253.064"/><line x1="460.095" y1="249.272" x2="463.887" y2="253.064"/><line x1="460.095" y1="253.064" x2="463.887" y2="249.272"/>
<line x1="464.542" y1="251.168" x2="468.334" y2="251.168"/><line x1="466.438" y1="249.272" x2="466.438" y2="253.064"/><line x1="464.542" y1="249.272" x2="468.334" y2="253.064"/><line x1="464.542" y1="253.064" x2="468.334" y2="249.272"/>
<line x1="468.989" y1="251.168" x2="472.781" y2="251.168"/><line x1="470.885" y1="249.272" x2="470.885" y2="253.064"/><line x1="468.989" y1="249.272" x2="472.781" y2="253.064"/><line x1="468.989" y1="253.064" x2="472.781" y2="249.272"/>
<line x1="473.435" y1="251.168" x2="477.228" y2="251.168"/><line x1="475.332" y1="249.272" x2="475.332" y2="253.064"/><line x1="473.435" y1="249.272" x2="477.228" y2="253.064"/><line x1="473.435" y1="253.064" x2="477.228" y2="249.272"/>
<line x1="477.882" y1="245.536" x2="481.675" y2="245.536"/><line x1="479.779" y1="243.64" x2="479.779" y2="247.432"/><line x1="477.882" y1="243.64" x2="481.675" y2="247.432"/><line x1="477.882" y1="247.432" x2="481.675" y2="243.64"/>
<line x1="482.329" y1="245.536" x2="486.122" y2="245.536"/><line x1="484.225" y1="243.64" x2="484.225" y2="247.432"/><line x1="482.329" y1="243.64" x2="486.122" y2="247.432"/><line x1="482.329" y1="247.432" x2="486.122" y2="243.64"/>
<line x1="486.776" y1="247.415" x2="490.569" y2="247.415"/><line x1="488.672" y1="245.519" x2="488.672" y2="249.311"/><line x1="486.776" y1="245.519" x2="490.569" y2="249.311"/><line x1="486.776" y1="249.311" x2="490.569" y2="245.519"/>
<line x1="491.223" y1="247.415" x2="495.015" y2="247.415"/><line x1="493.119" y1="245.519" x2="493.119" y2="249.311"/><line x1="491.223" y1="245.519" x2="495.015" y2="249.311"/><line x1="491.223" y1="249.311" x2="495.015" y2="245.519"/>
<line x1="495.67" y1="247.415" x2="499.462" y2="247.415"/><line x1="497.566" y1="245.519" x2="497.566" y2="249.311"/><line x1="495.67" y1="245.519" x2="499.462" y2="249.311"/><line x1="495.67" y1="249.311" x2="499.462" y2="245.519"/>
<line x1="500.117" y1="247.289" x2="503.909" y2="247.289"/><line x1="502.013" y1="245.393" x2="502.013" y2="249.185"/><line x1="500.117" y1="245.393" x2="503.909" y2="249.185"/><line x1="500.117" y1="249.185" x2="503.909" y2="245.393"/>
<line x1="504.564" y1="247.289" x2="508.356" y2="247.289"/><line x1="506.46" y1="245.393" x2="506.46" y2="249.185"/><line x1="504.564" y1="245.393" x2="508.356" y2="249.185"/><line x1="504.564" y1="249.185" x2="508.356" y2="245.393"/>
</g>
<path d="M0.5,272.809h 566.929" fill="none" stroke="#0000ff"/></svg>
