<?xml version="1.0" standalone="no"?>
<svg width="567.429" height="413.846" viewBox="0 0 567.429 413.846" xmlns="http://www.w3.org/2000/svg" shape-rendering="crispEdges">
<title>
figures/chi2zoomin_5PMTnpefilelist20.svg
</title>
<desc>
Creator: ROOT Version 6.18/04
CreationDate: Wed Nov  6 14:28:36 2019</desc>
<defs>
</defs>
<rect x="0.5" y="0" width="566.929" height="413.346" fill="white"/>
<rect x="57.1929" y="41.3346" width="453.543" height="330.677" fill="white"/>
<rect x="57.1929" y="41.3346" width="453.543" height="330.677" fill="none" stroke="black"/>
<path d="M57.1929,372.012h 453.543" fill="none" stroke="black"/>
<path d="M85.787,41.3346v 330.677" fill="none" stroke="black" stroke-dasharray=" 1, 2"/>
<path d="M142.036,41.3346v 330.677" fill="none" stroke="black" stroke-dasharray=" 1, 2"/>
<path d="M198.284,41.3346v 330.677" fill="none" stroke="black" stroke-dasharray=" 1, 2"/>
<path d="M254.533,41.3346v 330.677" fill="none" stroke="black" stroke-dasharray=" 1, 2"/>
<path d="M310.781,41.3346v 330.677" fill="none" stroke="black" stroke-dasharray=" 1, 2"/>
<path d="M367.03,41.3346v 330.677" fill="none" stroke="black" stroke-dasharray=" 1, 2"/>
<path d="M423.279,41.3346v 330.677" fill="none" stroke="black" stroke-dasharray=" 1, 2"/>
<path d="M479.527,41.3346v 330.677" fill="none" stroke="black" stroke-dasharray=" 1, 2"/>
<path d="M85.787,41.3346v 330.677" fill="none" stroke="black" stroke-dasharray=" 1, 2"/>
<path d="M479.527,41.3346v 330.677" fill="none" stroke="black" stroke-dasharray=" 1, 2"/>
<path d="M57.1929,372.012v -330.677" fill="none" stroke="black"/>
<path d="M57.1929,372.012h 453.543" fill="none" stroke="black"/>
<path d="M85.787,362.091v 9.92031" fill="none" stroke="black"/>
<path d="M97.0367,367.052v 4.96016" fill="none" stroke="black"/>
<path d="M108.286,367.052v 4.96016" fill="none" stroke="black"/>
<path d="M119.536,367.052v 4.96016" fill="none" stroke="black"/>
<path d="M130.786,367.052v 4.96016" fill="none" stroke="black"/>
<path d="M142.036,362.091v 9.92031" fill="none" stroke="black"/>
<path d="M153.285,367.052v 4.96016" fill="none" stroke="black"/>
<path d="M164.535,367.052v 4.96016" fill="none" stroke="black"/>
<path d="M175.785,367.052v 4.96016" fill="none" stroke="black"/>
<path d="M187.034,367.052v 4.96016" fill="none" stroke="black"/>
<path d="M198.284,362.091v 9.92031" fill="none" stroke="black"/>
<path d="M209.534,367.052v 4.96016" fill="none" stroke="black"/>
<path d="M220.784,367.052v 4.96016" fill="none" stroke="black"/>
<path d="M232.033,367.052v 4.96016" fill="none" stroke="black"/>
<path d="M243.283,367.052v 4.96016" fill="none" stroke="black"/>
<path d="M254.533,362.091v 9.92031" fill="none" stroke="black"/>
<path d="M265.783,367.052v 4.96016" fill="none" stroke="black"/>
<path d="M277.032,367.052v 4.96016" fill="none" stroke="black"/>
<path d="M288.282,367.052v 4.96016" fill="none" stroke="black"/>
<path d="M299.532,367.052v 4.96016" fill="none" stroke="black"/>
<path d="M310.781,362.091v 9.92031" fill="none" stroke="black"/>
<path d="M322.031,367.052v 4.96016" fill="none" stroke="black"/>
<path d="M333.281,367.052v 4.96016" fill="none" stroke="black"/>
<path d="M344.531,367.052v 4.96016" fill="none" stroke="black"/>
<path d="M355.78,367.052v 4.96016" fill="none" stroke="black"/>
<path d="M367.03,362.091v 9.92031" fill="none" stroke="black"/>
<path d="M378.28,367.052v 4.96016" fill="none" stroke="black"/>
<path d="M389.529,367.052v 4.96016" fill="none" stroke="black"/>
<path d="M400.779,367.052v 4.96016" fill="none" stroke="black"/>
<path d="M412.029,367.052v 4.96016" fill="none" stroke="black"/>
<path d="M423.279,362.091v 9.92031" fill="none" stroke="black"/>
<path d="M434.528,367.052v 4.96016" fill="none" stroke="black"/>
<path d="M445.778,367.052v 4.96016" fill="none" stroke="black"/>
<path d="M457.028,367.052v 4.96016" fill="none" stroke="black"/>
<path d="M468.277,367.052v 4.96016" fill="none" stroke="black"/>
<path d="M479.527,362.091v 9.92031" fill="none" stroke="black"/>
<path d="M85.787,362.091v 9.92031" fill="none" stroke="black"/>
<path d="M74.5373,367.052v 4.96016" fill="none" stroke="black"/>
<path d="M63.2876,367.052v 4.96016" fill="none" stroke="black"/>
<path d="M479.527,362.091v 9.92031" fill="none" stroke="black"/>
<path d="M490.777,367.052v 4.96016" fill="none" stroke="black"/>
<path d="M502.027,367.052v 4.96016" fill="none" stroke="black"/>
<text xml:space="preserve" x="72.5512" y="385.379" fill="black" font-size="13.7726" font-family="Helvetica">1.62</text>
<text xml:space="preserve" x="125.168" y="385.379" fill="black" font-size="13.7726" font-family="Helvetica">1.625</text>
<text xml:space="preserve" x="185.368" y="385.379" fill="black" font-size="13.7726" font-family="Helvetica">1.63</text>
<text xml:space="preserve" x="237.511" y="385.379" fill="black" font-size="13.7726" font-family="Helvetica">1.635</text>
<text xml:space="preserve" x="297.711" y="385.379" fill="black" font-size="13.7726" font-family="Helvetica">1.64</text>
<text xml:space="preserve" x="350.328" y="385.379" fill="black" font-size="13.7726" font-family="Helvetica">1.645</text>
<text xml:space="preserve" x="410.054" y="385.379" fill="black" font-size="13.7726" font-family="Helvetica">1.65</text>
<text xml:space="preserve" x="462.671" y="385.379" fill="black" font-size="13.7726" font-family="Helvetica">1.655</text>
<text xml:space="preserve" x="413.372" y="400.074" fill="black" font-size="13.7726" font-family="Helvetica">calibration factor</text>
<path d="M57.1929,372.012v -330.677" fill="none" stroke="black"/>
<path d="M70.7992,364.874h -13.6063" fill="none" stroke="black"/>
<path d="M63.9961,351.096h -6.80315" fill="none" stroke="black"/>
<path d="M63.9961,337.318h -6.80315" fill="none" stroke="black"/>
<path d="M63.9961,323.54h -6.80315" fill="none" stroke="black"/>
<path d="M70.7992,309.761h -13.6063" fill="none" stroke="black"/>
<path d="M63.9961,295.983h -6.80315" fill="none" stroke="black"/>
<path d="M63.9961,282.205h -6.80315" fill="none" stroke="black"/>
<path d="M63.9961,268.427h -6.80315" fill="none" stroke="black"/>
<path d="M70.7992,254.648h -13.6063" fill="none" stroke="black"/>
<path d="M63.9961,240.87h -6.80315" fill="none" stroke="black"/>
<path d="M63.9961,227.092h -6.80315" fill="none" stroke="black"/>
<path d="M63.9961,213.314h -6.80315" fill="none" stroke="black"/>
<path d="M70.7992,199.536h -13.6063" fill="none" stroke="black"/>
<path d="M63.9961,185.757h -6.80315" fill="none" stroke="black"/>
<path d="M63.9961,171.979h -6.80315" fill="none" stroke="black"/>
<path d="M63.9961,158.201h -6.80315" fill="none" stroke="black"/>
<path d="M70.7992,144.423h -13.6063" fill="none" stroke="black"/>
<path d="M63.9961,130.645h -6.80315" fill="none" stroke="black"/>
<path d="M63.9961,116.866h -6.80315" fill="none" stroke="black"/>
<path d="M63.9961,103.088h -6.80315" fill="none" stroke="black"/>
<path d="M70.7992,89.31h -13.6063" fill="none" stroke="black"/>
<path d="M70.7992,364.874h -13.6063" fill="none" stroke="black"/>
<path d="M70.7992,89.31h -13.6063" fill="none" stroke="black"/>
<path d="M63.9961,75.5318h -6.80315" fill="none" stroke="black"/>
<path d="M63.9961,61.7536h -6.80315" fill="none" stroke="black"/>
<path d="M63.9961,47.9753h -6.80315" fill="none" stroke="black"/>
<text xml:space="preserve" x="24.6751" y="369.262" fill="black" font-size="13.7726" font-family="Helvetica">1402</text>
<text xml:space="preserve" x="24.6751" y="314.276" fill="black" font-size="13.7726" font-family="Helvetica">1404</text>
<text xml:space="preserve" x="24.6751" y="259.289" fill="black" font-size="13.7726" font-family="Helvetica">1406</text>
<text xml:space="preserve" x="24.6751" y="203.829" fill="black" font-size="13.7726" font-family="Helvetica">1408</text>
<text xml:space="preserve" x="25.1491" y="148.843" fill="black" font-size="13.7726" font-family="Helvetica">1410</text>
<text xml:space="preserve" x="24.6751" y="94.3302" fill="black" font-size="13.7726" font-family="Helvetica">1412</text>
<g transform="rotate(-90,7.61032,45.98)">
<text xml:space="preserve" x="7.61032" y="45.98" fill="black" font-size="9.34839" font-family="Helvetica">2</text>
</g>
<g transform="rotate(-90,11.8765,50.2462)">
<text xml:space="preserve" x="11.8765" y="50.2462" fill="black" font-size="13.7726" font-family="Helvetica"> </text>
</g>
<g transform="rotate(-90,11.8765,57.3565)">
<text xml:space="preserve" x="11.8765" y="57.3565" fill="black" font-size="13.7726" font-family="Times">&#0967;</text>
</g>
<text xml:space="preserve" x="109.525" y="18.0128" fill="black" font-size="14.0403" font-family="Helvetica">^2 v.s. calibration factor without 1st bin and without last bin</text>
<text xml:space="preserve" x="101.94" y="18.0128" fill="black" font-size="14.0403" font-family="Times">&#0967;</text>
<g stroke="black" stroke-width="1" fill="none">
<line x1="56.8916" y1="303.846" x2="60.6838" y2="303.846"/><line x1="58.7877" y1="301.95" x2="58.7877" y2="305.742"/><line x1="56.8916" y1="301.95" x2="60.6838" y2="305.742"/><line x1="56.8916" y1="305.742" x2="60.6838" y2="301.95"/>
<line x1="59.1415" y1="303.846" x2="62.9337" y2="303.846"/><line x1="61.0376" y1="301.95" x2="61.0376" y2="305.742"/><line x1="59.1415" y1="301.95" x2="62.9337" y2="305.742"/><line x1="59.1415" y1="305.742" x2="62.9337" y2="301.95"/>
<line x1="61.3915" y1="303.846" x2="65.1836" y2="303.846"/><line x1="63.2876" y1="301.95" x2="63.2876" y2="305.742"/><line x1="61.3915" y1="301.95" x2="65.1836" y2="305.742"/><line x1="61.3915" y1="305.742" x2="65.1836" y2="301.95"/>
<line x1="63.6414" y1="302.578" x2="67.4336" y2="302.578"/><line x1="65.5375" y1="300.682" x2="65.5375" y2="304.474"/><line x1="63.6414" y1="300.682" x2="67.4336" y2="304.474"/><line x1="63.6414" y1="304.474" x2="67.4336" y2="300.682"/>
<line x1="65.8914" y1="300.031" x2="69.6835" y2="300.031"/><line x1="67.7875" y1="298.135" x2="67.7875" y2="301.927"/><line x1="65.8914" y1="298.135" x2="69.6835" y2="301.927"/><line x1="65.8914" y1="301.927" x2="69.6835" y2="298.135"/>
<line x1="68.1413" y1="298.754" x2="71.9335" y2="298.754"/><line x1="70.0374" y1="296.858" x2="70.0374" y2="300.65"/><line x1="68.1413" y1="296.858" x2="71.9335" y2="300.65"/><line x1="68.1413" y1="300.65" x2="71.9335" y2="296.858"/>
<line x1="70.3913" y1="298.754" x2="74.1834" y2="298.754"/><line x1="72.2873" y1="296.858" x2="72.2873" y2="300.65"/><line x1="70.3913" y1="296.858" x2="74.1834" y2="300.65"/><line x1="70.3913" y1="300.65" x2="74.1834" y2="296.858"/>
<line x1="72.6412" y1="297.472" x2="76.4334" y2="297.472"/><line x1="74.5373" y1="295.576" x2="74.5373" y2="299.368"/><line x1="72.6412" y1="295.576" x2="76.4334" y2="299.368"/><line x1="72.6412" y1="299.368" x2="76.4334" y2="295.576"/>
<line x1="74.8911" y1="297.472" x2="78.6833" y2="297.472"/><line x1="76.7872" y1="295.576" x2="76.7872" y2="299.368"/><line x1="74.8911" y1="295.576" x2="78.6833" y2="299.368"/><line x1="74.8911" y1="299.368" x2="78.6833" y2="295.576"/>
<line x1="77.1411" y1="296.187" x2="80.9333" y2="296.187"/><line x1="79.0372" y1="294.291" x2="79.0372" y2="298.083"/><line x1="77.1411" y1="294.291" x2="80.9333" y2="298.083"/><line x1="77.1411" y1="298.083" x2="80.9333" y2="294.291"/>
<line x1="79.391" y1="295.304" x2="83.1832" y2="295.304"/><line x1="81.2871" y1="293.408" x2="81.2871" y2="297.201"/><line x1="79.391" y1="293.408" x2="83.1832" y2="297.201"/><line x1="79.391" y1="297.201" x2="83.1832" y2="293.408"/>
<line x1="81.641" y1="295.304" x2="85.4331" y2="295.304"/><line x1="83.5371" y1="293.408" x2="83.5371" y2="297.201"/><line x1="81.641" y1="293.408" x2="85.4331" y2="297.201"/><line x1="81.641" y1="297.201" x2="85.4331" y2="293.408"/>
<line x1="83.8909" y1="295.304" x2="87.6831" y2="295.304"/><line x1="85.787" y1="293.408" x2="85.787" y2="297.201"/><line x1="83.8909" y1="293.408" x2="87.6831" y2="297.201"/><line x1="83.8909" y1="297.201" x2="87.6831" y2="293.408"/>
<line x1="86.1409" y1="295.304" x2="89.933" y2="295.304"/><line x1="88.0369" y1="293.408" x2="88.0369" y2="297.201"/><line x1="86.1409" y1="293.408" x2="89.933" y2="297.201"/><line x1="86.1409" y1="297.201" x2="89.933" y2="293.408"/>
<line x1="88.3908" y1="294.012" x2="92.183" y2="294.012"/><line x1="90.2869" y1="292.116" x2="90.2869" y2="295.908"/><line x1="88.3908" y1="292.116" x2="92.183" y2="295.908"/><line x1="88.3908" y1="295.908" x2="92.183" y2="292.116"/>
<line x1="90.6407" y1="294.012" x2="94.4329" y2="294.012"/><line x1="92.5368" y1="292.116" x2="92.5368" y2="295.908"/><line x1="90.6407" y1="292.116" x2="94.4329" y2="295.908"/><line x1="90.6407" y1="295.908" x2="94.4329" y2="292.116"/>
<line x1="92.8907" y1="297.056" x2="96.6829" y2="297.056"/><line x1="94.7868" y1="295.16" x2="94.7868" y2="298.952"/><line x1="92.8907" y1="295.16" x2="96.6829" y2="298.952"/><line x1="92.8907" y1="298.952" x2="96.6829" y2="295.16"/>
<line x1="95.1406" y1="295.758" x2="98.9328" y2="295.758"/><line x1="97.0367" y1="293.862" x2="97.0367" y2="297.655"/><line x1="95.1406" y1="293.862" x2="98.9328" y2="297.655"/><line x1="95.1406" y1="297.655" x2="98.9328" y2="293.862"/>
<line x1="97.3906" y1="296.324" x2="101.183" y2="296.324"/><line x1="99.2867" y1="294.428" x2="99.2867" y2="298.22"/><line x1="97.3906" y1="294.428" x2="101.183" y2="298.22"/><line x1="97.3906" y1="298.22" x2="101.183" y2="294.428"/>
<line x1="99.6405" y1="295.022" x2="103.433" y2="295.022"/><line x1="101.537" y1="293.125" x2="101.537" y2="296.918"/><line x1="99.6405" y1="293.125" x2="103.433" y2="296.918"/><line x1="99.6405" y1="296.918" x2="103.433" y2="293.125"/>
<line x1="101.89" y1="295.022" x2="105.683" y2="295.022"/><line x1="103.787" y1="293.125" x2="103.787" y2="296.918"/><line x1="101.89" y1="293.125" x2="105.683" y2="296.918"/><line x1="101.89" y1="296.918" x2="105.683" y2="293.125"/>
<line x1="104.14" y1="293.716" x2="107.933" y2="293.716"/><line x1="106.036" y1="291.82" x2="106.036" y2="295.612"/><line x1="104.14" y1="291.82" x2="107.933" y2="295.612"/><line x1="104.14" y1="295.612" x2="107.933" y2="291.82"/>
<line x1="106.39" y1="292.406" x2="110.183" y2="292.406"/><line x1="108.286" y1="290.51" x2="108.286" y2="294.303"/><line x1="106.39" y1="290.51" x2="110.183" y2="294.303"/><line x1="106.39" y1="294.303" x2="110.183" y2="290.51"/>
<line x1="108.64" y1="292.406" x2="112.432" y2="292.406"/><line x1="110.536" y1="290.51" x2="110.536" y2="294.303"/><line x1="108.64" y1="290.51" x2="112.432" y2="294.303"/><line x1="108.64" y1="294.303" x2="112.432" y2="290.51"/>
<line x1="110.89" y1="291.094" x2="114.682" y2="291.094"/><line x1="112.786" y1="289.198" x2="112.786" y2="292.99"/><line x1="110.89" y1="289.198" x2="114.682" y2="292.99"/><line x1="110.89" y1="292.99" x2="114.682" y2="289.198"/>
<line x1="113.14" y1="291.094" x2="116.932" y2="291.094"/><line x1="115.036" y1="289.198" x2="115.036" y2="292.99"/><line x1="113.14" y1="289.198" x2="116.932" y2="292.99"/><line x1="113.14" y1="292.99" x2="116.932" y2="289.198"/>
<line x1="115.39" y1="289.779" x2="119.182" y2="289.779"/><line x1="117.286" y1="287.883" x2="117.286" y2="291.675"/><line x1="115.39" y1="287.883" x2="119.182" y2="291.675"/><line x1="115.39" y1="291.675" x2="119.182" y2="287.883"/>
<line x1="117.64" y1="290.319" x2="121.432" y2="290.319"/><line x1="119.536" y1="288.423" x2="119.536" y2="292.216"/><line x1="117.64" y1="288.423" x2="121.432" y2="292.216"/><line x1="117.64" y1="292.216" x2="121.432" y2="288.423"/>
<line x1="119.89" y1="290.319" x2="123.682" y2="290.319"/><line x1="121.786" y1="288.423" x2="121.786" y2="292.216"/><line x1="119.89" y1="288.423" x2="123.682" y2="292.216"/><line x1="119.89" y1="292.216" x2="123.682" y2="288.423"/>
<line x1="122.14" y1="290.319" x2="125.932" y2="290.319"/><line x1="124.036" y1="288.423" x2="124.036" y2="292.216"/><line x1="122.14" y1="288.423" x2="125.932" y2="292.216"/><line x1="122.14" y1="292.216" x2="125.932" y2="288.423"/>
<line x1="124.39" y1="287.677" x2="128.182" y2="287.677"/><line x1="126.286" y1="285.781" x2="126.286" y2="289.573"/><line x1="124.39" y1="285.781" x2="128.182" y2="289.573"/><line x1="124.39" y1="289.573" x2="128.182" y2="285.781"/>
<line x1="126.64" y1="289.364" x2="130.432" y2="289.364"/><line x1="128.536" y1="287.468" x2="128.536" y2="291.26"/><line x1="126.64" y1="287.468" x2="130.432" y2="291.26"/><line x1="126.64" y1="291.26" x2="130.432" y2="287.468"/>
<line x1="128.89" y1="289.364" x2="132.682" y2="289.364"/><line x1="130.786" y1="287.468" x2="130.786" y2="291.26"/><line x1="128.89" y1="287.468" x2="132.682" y2="291.26"/><line x1="128.89" y1="291.26" x2="132.682" y2="287.468"/>
<line x1="131.14" y1="289.364" x2="134.932" y2="289.364"/><line x1="133.036" y1="287.468" x2="133.036" y2="291.26"/><line x1="131.14" y1="287.468" x2="134.932" y2="291.26"/><line x1="131.14" y1="291.26" x2="134.932" y2="287.468"/>
<line x1="133.39" y1="293.707" x2="137.182" y2="293.707"/><line x1="135.286" y1="291.811" x2="135.286" y2="295.603"/><line x1="133.39" y1="291.811" x2="137.182" y2="295.603"/><line x1="133.39" y1="295.603" x2="137.182" y2="291.811"/>
<line x1="135.64" y1="291.039" x2="139.432" y2="291.039"/><line x1="137.536" y1="289.143" x2="137.536" y2="292.935"/><line x1="135.64" y1="289.143" x2="139.432" y2="292.935"/><line x1="135.64" y1="292.935" x2="139.432" y2="289.143"/>
<line x1="137.89" y1="291.039" x2="141.682" y2="291.039"/><line x1="139.786" y1="289.143" x2="139.786" y2="292.935"/><line x1="137.89" y1="289.143" x2="141.682" y2="292.935"/><line x1="137.89" y1="292.935" x2="141.682" y2="289.143"/>
<line x1="140.14" y1="289.701" x2="143.932" y2="289.701"/><line x1="142.036" y1="287.805" x2="142.036" y2="291.597"/><line x1="140.14" y1="287.805" x2="143.932" y2="291.597"/><line x1="140.14" y1="291.597" x2="143.932" y2="287.805"/>
<line x1="142.389" y1="291.357" x2="146.182" y2="291.357"/><line x1="144.286" y1="289.461" x2="144.286" y2="293.253"/><line x1="142.389" y1="289.461" x2="146.182" y2="293.253"/><line x1="142.389" y1="293.253" x2="146.182" y2="289.461"/>
<line x1="144.639" y1="288.654" x2="148.432" y2="288.654"/><line x1="146.535" y1="286.758" x2="146.535" y2="290.551"/><line x1="144.639" y1="286.758" x2="148.432" y2="290.551"/><line x1="144.639" y1="290.551" x2="148.432" y2="286.758"/>
<line x1="146.889" y1="287.299" x2="150.682" y2="287.299"/><line x1="148.785" y1="285.403" x2="148.785" y2="289.195"/><line x1="146.889" y1="285.403" x2="150.682" y2="289.195"/><line x1="146.889" y1="289.195" x2="150.682" y2="285.403"/>
<line x1="149.139" y1="287.299" x2="152.931" y2="287.299"/><line x1="151.035" y1="285.403" x2="151.035" y2="289.195"/><line x1="149.139" y1="285.403" x2="152.931" y2="289.195"/><line x1="149.139" y1="289.195" x2="152.931" y2="285.403"/>
<line x1="151.389" y1="287.299" x2="155.181" y2="287.299"/><line x1="153.285" y1="285.403" x2="153.285" y2="289.195"/><line x1="151.389" y1="285.403" x2="155.181" y2="289.195"/><line x1="151.389" y1="289.195" x2="155.181" y2="285.403"/>
<line x1="153.639" y1="285.939" x2="157.431" y2="285.939"/><line x1="155.535" y1="284.043" x2="155.535" y2="287.835"/><line x1="153.639" y1="284.043" x2="157.431" y2="287.835"/><line x1="153.639" y1="287.835" x2="157.431" y2="284.043"/>
<line x1="155.889" y1="285.939" x2="159.681" y2="285.939"/><line x1="157.785" y1="284.043" x2="157.785" y2="287.835"/><line x1="155.889" y1="284.043" x2="159.681" y2="287.835"/><line x1="155.889" y1="287.835" x2="159.681" y2="284.043"/>
<line x1="158.139" y1="286.053" x2="161.931" y2="286.053"/><line x1="160.035" y1="284.157" x2="160.035" y2="287.949"/><line x1="158.139" y1="284.157" x2="161.931" y2="287.949"/><line x1="158.139" y1="287.949" x2="161.931" y2="284.157"/>
<line x1="160.389" y1="286.053" x2="164.181" y2="286.053"/><line x1="162.285" y1="284.157" x2="162.285" y2="287.949"/><line x1="160.389" y1="284.157" x2="164.181" y2="287.949"/><line x1="160.389" y1="287.949" x2="164.181" y2="284.157"/>
<line x1="162.639" y1="290.399" x2="166.431" y2="290.399"/><line x1="164.535" y1="288.503" x2="164.535" y2="292.295"/><line x1="162.639" y1="288.503" x2="166.431" y2="292.295"/><line x1="162.639" y1="292.295" x2="166.431" y2="288.503"/>
<line x1="164.889" y1="290.399" x2="168.681" y2="290.399"/><line x1="166.785" y1="288.503" x2="166.785" y2="292.295"/><line x1="164.889" y1="288.503" x2="168.681" y2="292.295"/><line x1="164.889" y1="292.295" x2="168.681" y2="288.503"/>
<line x1="167.139" y1="290.399" x2="170.931" y2="290.399"/><line x1="169.035" y1="288.503" x2="169.035" y2="292.295"/><line x1="167.139" y1="288.503" x2="170.931" y2="292.295"/><line x1="167.139" y1="292.295" x2="170.931" y2="288.503"/>
<line x1="169.389" y1="290.399" x2="173.181" y2="290.399"/><line x1="171.285" y1="288.503" x2="171.285" y2="292.295"/><line x1="169.389" y1="288.503" x2="173.181" y2="292.295"/><line x1="169.389" y1="292.295" x2="173.181" y2="288.503"/>
<line x1="171.639" y1="289.037" x2="175.431" y2="289.037"/><line x1="173.535" y1="287.141" x2="173.535" y2="290.933"/><line x1="171.639" y1="287.141" x2="175.431" y2="290.933"/><line x1="171.639" y1="290.933" x2="175.431" y2="287.141"/>
<line x1="173.889" y1="289.037" x2="177.681" y2="289.037"/><line x1="175.785" y1="287.141" x2="175.785" y2="290.933"/><line x1="173.889" y1="287.141" x2="177.681" y2="290.933"/><line x1="173.889" y1="290.933" x2="177.681" y2="287.141"/>
<line x1="176.139" y1="287.67" x2="179.931" y2="287.67"/><line x1="178.035" y1="285.774" x2="178.035" y2="289.566"/><line x1="176.139" y1="285.774" x2="179.931" y2="289.566"/><line x1="176.139" y1="289.566" x2="179.931" y2="285.774"/>
<line x1="178.389" y1="286.3" x2="182.181" y2="286.3"/><line x1="180.285" y1="284.404" x2="180.285" y2="288.196"/><line x1="178.389" y1="284.404" x2="182.181" y2="288.196"/><line x1="178.389" y1="288.196" x2="182.181" y2="284.404"/>
<line x1="180.639" y1="286.3" x2="184.431" y2="286.3"/><line x1="182.535" y1="284.404" x2="182.535" y2="288.196"/><line x1="180.639" y1="284.404" x2="184.431" y2="288.196"/><line x1="180.639" y1="288.196" x2="184.431" y2="284.404"/>
<line x1="182.888" y1="286.3" x2="186.681" y2="286.3"/><line x1="184.785" y1="284.404" x2="184.785" y2="288.196"/><line x1="182.888" y1="284.404" x2="186.681" y2="288.196"/><line x1="182.888" y1="288.196" x2="186.681" y2="284.404"/>
<line x1="185.138" y1="284.927" x2="188.931" y2="284.927"/><line x1="187.034" y1="283.031" x2="187.034" y2="286.823"/><line x1="185.138" y1="283.031" x2="188.931" y2="286.823"/><line x1="185.138" y1="286.823" x2="188.931" y2="283.031"/>
<line x1="187.388" y1="292.247" x2="191.18" y2="292.247"/><line x1="189.284" y1="290.351" x2="189.284" y2="294.143"/><line x1="187.388" y1="290.351" x2="191.18" y2="294.143"/><line x1="187.388" y1="294.143" x2="191.18" y2="290.351"/>
<line x1="189.638" y1="289.485" x2="193.43" y2="289.485"/><line x1="191.534" y1="287.589" x2="191.534" y2="291.381"/><line x1="189.638" y1="287.589" x2="193.43" y2="291.381"/><line x1="189.638" y1="291.381" x2="193.43" y2="287.589"/>
<line x1="191.888" y1="289.485" x2="195.68" y2="289.485"/><line x1="193.784" y1="287.589" x2="193.784" y2="291.381"/><line x1="191.888" y1="287.589" x2="195.68" y2="291.381"/><line x1="191.888" y1="291.381" x2="195.68" y2="287.589"/>
<line x1="194.138" y1="293.834" x2="197.93" y2="293.834"/><line x1="196.034" y1="291.938" x2="196.034" y2="295.73"/><line x1="194.138" y1="291.938" x2="197.93" y2="295.73"/><line x1="194.138" y1="295.73" x2="197.93" y2="291.938"/>
<line x1="196.388" y1="293.834" x2="200.18" y2="293.834"/><line x1="198.284" y1="291.938" x2="198.284" y2="295.73"/><line x1="196.388" y1="291.938" x2="200.18" y2="295.73"/><line x1="196.388" y1="295.73" x2="200.18" y2="291.938"/>
<line x1="198.638" y1="301.145" x2="202.43" y2="301.145"/><line x1="200.534" y1="299.248" x2="200.534" y2="303.041"/><line x1="198.638" y1="299.248" x2="202.43" y2="303.041"/><line x1="198.638" y1="303.041" x2="202.43" y2="299.248"/>
<line x1="200.888" y1="304.108" x2="204.68" y2="304.108"/><line x1="202.784" y1="302.212" x2="202.784" y2="306.004"/><line x1="200.888" y1="302.212" x2="204.68" y2="306.004"/><line x1="200.888" y1="306.004" x2="204.68" y2="302.212"/>
<line x1="203.138" y1="302.726" x2="206.93" y2="302.726"/><line x1="205.034" y1="300.83" x2="205.034" y2="304.622"/><line x1="203.138" y1="300.83" x2="206.93" y2="304.622"/><line x1="203.138" y1="304.622" x2="206.93" y2="300.83"/>
<line x1="205.388" y1="307.074" x2="209.18" y2="307.074"/><line x1="207.284" y1="305.178" x2="207.284" y2="308.97"/><line x1="205.388" y1="305.178" x2="209.18" y2="308.97"/><line x1="205.388" y1="308.97" x2="209.18" y2="305.178"/>
<line x1="207.638" y1="308.54" x2="211.43" y2="308.54"/><line x1="209.534" y1="306.644" x2="209.534" y2="310.436"/><line x1="207.638" y1="306.644" x2="211.43" y2="310.436"/><line x1="207.638" y1="310.436" x2="211.43" y2="306.644"/>
<line x1="209.888" y1="308.54" x2="213.68" y2="308.54"/><line x1="211.784" y1="306.644" x2="211.784" y2="310.436"/><line x1="209.888" y1="306.644" x2="213.68" y2="310.436"/><line x1="209.888" y1="310.436" x2="213.68" y2="306.644"/>
<line x1="212.138" y1="308.54" x2="215.93" y2="308.54"/><line x1="214.034" y1="306.644" x2="214.034" y2="310.436"/><line x1="212.138" y1="306.644" x2="215.93" y2="310.436"/><line x1="212.138" y1="310.436" x2="215.93" y2="306.644"/>
<line x1="214.388" y1="310.059" x2="218.18" y2="310.059"/><line x1="216.284" y1="308.163" x2="216.284" y2="311.955"/><line x1="214.388" y1="308.163" x2="218.18" y2="311.955"/><line x1="214.388" y1="311.955" x2="218.18" y2="308.163"/>
<line x1="216.638" y1="310.059" x2="220.43" y2="310.059"/><line x1="218.534" y1="308.163" x2="218.534" y2="311.955"/><line x1="216.638" y1="308.163" x2="220.43" y2="311.955"/><line x1="216.638" y1="311.955" x2="220.43" y2="308.163"/>
<line x1="218.888" y1="308.679" x2="222.68" y2="308.679"/><line x1="220.784" y1="306.783" x2="220.784" y2="310.575"/><line x1="218.888" y1="306.783" x2="222.68" y2="310.575"/><line x1="218.888" y1="310.575" x2="222.68" y2="306.783"/>
<line x1="221.137" y1="308.679" x2="224.93" y2="308.679"/><line x1="223.034" y1="306.783" x2="223.034" y2="310.575"/><line x1="221.137" y1="306.783" x2="224.93" y2="310.575"/><line x1="221.137" y1="310.575" x2="224.93" y2="306.783"/>
<line x1="223.387" y1="307.296" x2="227.18" y2="307.296"/><line x1="225.284" y1="305.4" x2="225.284" y2="309.192"/><line x1="223.387" y1="305.4" x2="227.18" y2="309.192"/><line x1="223.387" y1="309.192" x2="227.18" y2="305.4"/>
<line x1="225.637" y1="305.909" x2="229.43" y2="305.909"/><line x1="227.533" y1="304.013" x2="227.533" y2="307.805"/><line x1="225.637" y1="304.013" x2="229.43" y2="307.805"/><line x1="225.637" y1="307.805" x2="229.43" y2="304.013"/>
<line x1="227.887" y1="305.909" x2="231.679" y2="305.909"/><line x1="229.783" y1="304.013" x2="229.783" y2="307.805"/><line x1="227.887" y1="304.013" x2="231.679" y2="307.805"/><line x1="227.887" y1="307.805" x2="231.679" y2="304.013"/>
<line x1="230.137" y1="303.125" x2="233.929" y2="303.125"/><line x1="232.033" y1="301.229" x2="232.033" y2="305.021"/><line x1="230.137" y1="301.229" x2="233.929" y2="305.021"/><line x1="230.137" y1="305.021" x2="233.929" y2="301.229"/>
<line x1="232.387" y1="304.572" x2="236.179" y2="304.572"/><line x1="234.283" y1="302.676" x2="234.283" y2="306.468"/><line x1="232.387" y1="302.676" x2="236.179" y2="306.468"/><line x1="232.387" y1="306.468" x2="236.179" y2="302.676"/>
<line x1="234.637" y1="313.272" x2="238.429" y2="313.272"/><line x1="236.533" y1="311.376" x2="236.533" y2="315.168"/><line x1="234.637" y1="311.376" x2="238.429" y2="315.168"/><line x1="234.637" y1="315.168" x2="238.429" y2="311.376"/>
<line x1="236.887" y1="309.082" x2="240.679" y2="309.082"/><line x1="238.783" y1="307.186" x2="238.783" y2="310.978"/><line x1="236.887" y1="307.186" x2="240.679" y2="310.978"/><line x1="236.887" y1="310.978" x2="240.679" y2="307.186"/>
<line x1="239.137" y1="313.434" x2="242.929" y2="313.434"/><line x1="241.033" y1="311.538" x2="241.033" y2="315.33"/><line x1="239.137" y1="311.538" x2="242.929" y2="315.33"/><line x1="239.137" y1="315.33" x2="242.929" y2="311.538"/>
<line x1="241.387" y1="312.03" x2="245.179" y2="312.03"/><line x1="243.283" y1="310.134" x2="243.283" y2="313.926"/><line x1="241.387" y1="310.134" x2="245.179" y2="313.926"/><line x1="241.387" y1="313.926" x2="245.179" y2="310.134"/>
<line x1="243.637" y1="316.382" x2="247.429" y2="316.382"/><line x1="245.533" y1="314.485" x2="245.533" y2="318.278"/><line x1="243.637" y1="314.485" x2="247.429" y2="318.278"/><line x1="243.637" y1="318.278" x2="247.429" y2="314.485"/>
<line x1="245.887" y1="316.382" x2="249.679" y2="316.382"/><line x1="247.783" y1="314.485" x2="247.783" y2="318.278"/><line x1="245.887" y1="314.485" x2="249.679" y2="318.278"/><line x1="245.887" y1="318.278" x2="249.679" y2="314.485"/>
<line x1="248.137" y1="316.382" x2="251.929" y2="316.382"/><line x1="250.033" y1="314.485" x2="250.033" y2="318.278"/><line x1="248.137" y1="314.485" x2="251.929" y2="318.278"/><line x1="248.137" y1="318.278" x2="251.929" y2="314.485"/>
<line x1="250.387" y1="314.975" x2="254.179" y2="314.975"/><line x1="252.283" y1="313.079" x2="252.283" y2="316.871"/><line x1="250.387" y1="313.079" x2="254.179" y2="316.871"/><line x1="250.387" y1="316.871" x2="254.179" y2="313.079"/>
<line x1="252.637" y1="313.566" x2="256.429" y2="313.566"/><line x1="254.533" y1="311.67" x2="254.533" y2="315.462"/><line x1="252.637" y1="311.67" x2="256.429" y2="315.462"/><line x1="252.637" y1="315.462" x2="256.429" y2="311.67"/>
<line x1="254.887" y1="313.566" x2="258.679" y2="313.566"/><line x1="256.783" y1="311.67" x2="256.783" y2="315.462"/><line x1="254.887" y1="311.67" x2="258.679" y2="315.462"/><line x1="254.887" y1="315.462" x2="258.679" y2="311.67"/>
<line x1="257.137" y1="315.67" x2="260.929" y2="315.67"/><line x1="259.033" y1="313.774" x2="259.033" y2="317.566"/><line x1="257.137" y1="313.774" x2="260.929" y2="317.566"/><line x1="257.137" y1="317.566" x2="260.929" y2="313.774"/>
<line x1="259.387" y1="314.807" x2="263.179" y2="314.807"/><line x1="261.283" y1="312.911" x2="261.283" y2="316.703"/><line x1="259.387" y1="312.911" x2="263.179" y2="316.703"/><line x1="259.387" y1="316.703" x2="263.179" y2="312.911"/>
<line x1="261.636" y1="313.384" x2="265.429" y2="313.384"/><line x1="263.533" y1="311.488" x2="263.533" y2="315.281"/><line x1="261.636" y1="311.488" x2="265.429" y2="315.281"/><line x1="261.636" y1="315.281" x2="265.429" y2="311.488"/>
<line x1="263.886" y1="311.958" x2="267.679" y2="311.958"/><line x1="265.783" y1="310.062" x2="265.783" y2="313.854"/><line x1="263.886" y1="310.062" x2="267.679" y2="313.854"/><line x1="263.886" y1="313.854" x2="267.679" y2="310.062"/>
<line x1="266.136" y1="314.882" x2="269.929" y2="314.882"/><line x1="268.032" y1="312.986" x2="268.032" y2="316.778"/><line x1="266.136" y1="312.986" x2="269.929" y2="316.778"/><line x1="266.136" y1="316.778" x2="269.929" y2="312.986"/>
<line x1="268.386" y1="314.882" x2="272.178" y2="314.882"/><line x1="270.282" y1="312.986" x2="270.282" y2="316.778"/><line x1="268.386" y1="312.986" x2="272.178" y2="316.778"/><line x1="268.386" y1="316.778" x2="272.178" y2="312.986"/>
<line x1="270.636" y1="313.449" x2="274.428" y2="313.449"/><line x1="272.532" y1="311.553" x2="272.532" y2="315.345"/><line x1="270.636" y1="311.553" x2="274.428" y2="315.345"/><line x1="270.636" y1="315.345" x2="274.428" y2="311.553"/>
<line x1="272.886" y1="313.449" x2="276.678" y2="313.449"/><line x1="274.782" y1="311.553" x2="274.782" y2="315.345"/><line x1="272.886" y1="311.553" x2="276.678" y2="315.345"/><line x1="272.886" y1="315.345" x2="276.678" y2="311.553"/>
<line x1="275.136" y1="313.449" x2="278.928" y2="313.449"/><line x1="277.032" y1="311.553" x2="277.032" y2="315.345"/><line x1="275.136" y1="311.553" x2="278.928" y2="315.345"/><line x1="275.136" y1="315.345" x2="278.928" y2="311.553"/>
<line x1="277.386" y1="313.449" x2="281.178" y2="313.449"/><line x1="279.282" y1="311.553" x2="279.282" y2="315.345"/><line x1="277.386" y1="311.553" x2="281.178" y2="315.345"/><line x1="277.386" y1="315.345" x2="281.178" y2="311.553"/>
<line x1="279.636" y1="312.013" x2="283.428" y2="312.013"/><line x1="281.532" y1="310.117" x2="281.532" y2="313.909"/><line x1="279.636" y1="310.117" x2="283.428" y2="313.909"/><line x1="279.636" y1="313.909" x2="283.428" y2="310.117"/>
<line x1="281.886" y1="316.899" x2="285.678" y2="316.899"/><line x1="283.782" y1="315.003" x2="283.782" y2="318.795"/><line x1="281.886" y1="315.003" x2="285.678" y2="318.795"/><line x1="281.886" y1="318.795" x2="285.678" y2="315.003"/>
<line x1="284.136" y1="316.899" x2="287.928" y2="316.899"/><line x1="286.032" y1="315.003" x2="286.032" y2="318.795"/><line x1="284.136" y1="315.003" x2="287.928" y2="318.795"/><line x1="284.136" y1="318.795" x2="287.928" y2="315.003"/>
<line x1="286.386" y1="315.459" x2="290.178" y2="315.459"/><line x1="288.282" y1="313.563" x2="288.282" y2="317.355"/><line x1="286.386" y1="313.563" x2="290.178" y2="317.355"/><line x1="286.386" y1="317.355" x2="290.178" y2="313.563"/>
<line x1="288.636" y1="314.016" x2="292.428" y2="314.016"/><line x1="290.532" y1="312.12" x2="290.532" y2="315.912"/><line x1="288.636" y1="312.12" x2="292.428" y2="315.912"/><line x1="288.636" y1="315.912" x2="292.428" y2="312.12"/>
<line x1="290.886" y1="312.57" x2="294.678" y2="312.57"/><line x1="292.782" y1="310.674" x2="292.782" y2="314.466"/><line x1="290.886" y1="310.674" x2="294.678" y2="314.466"/><line x1="290.886" y1="314.466" x2="294.678" y2="310.674"/>
<line x1="293.136" y1="315.476" x2="296.928" y2="315.476"/><line x1="295.032" y1="313.58" x2="295.032" y2="317.372"/><line x1="293.136" y1="313.58" x2="296.928" y2="317.372"/><line x1="293.136" y1="317.372" x2="296.928" y2="313.58"/>
<line x1="295.386" y1="315.476" x2="299.178" y2="315.476"/><line x1="297.282" y1="313.58" x2="297.282" y2="317.372"/><line x1="295.386" y1="313.58" x2="299.178" y2="317.372"/><line x1="295.386" y1="317.372" x2="299.178" y2="313.58"/>
<line x1="297.636" y1="314.023" x2="301.428" y2="314.023"/><line x1="299.532" y1="312.127" x2="299.532" y2="315.919"/><line x1="297.636" y1="312.127" x2="301.428" y2="315.919"/><line x1="297.636" y1="315.919" x2="301.428" y2="312.127"/>
<line x1="299.886" y1="314.023" x2="303.678" y2="314.023"/><line x1="301.782" y1="312.127" x2="301.782" y2="315.919"/><line x1="299.886" y1="312.127" x2="303.678" y2="315.919"/><line x1="299.886" y1="315.919" x2="303.678" y2="312.127"/>
<line x1="302.135" y1="314.023" x2="305.928" y2="314.023"/><line x1="304.032" y1="312.127" x2="304.032" y2="315.919"/><line x1="302.135" y1="312.127" x2="305.928" y2="315.919"/><line x1="302.135" y1="315.919" x2="305.928" y2="312.127"/>
<line x1="304.385" y1="312.567" x2="308.178" y2="312.567"/><line x1="306.281" y1="310.671" x2="306.281" y2="314.464"/><line x1="304.385" y1="310.671" x2="308.178" y2="314.464"/><line x1="304.385" y1="314.464" x2="308.178" y2="310.671"/>
<line x1="306.635" y1="312.567" x2="310.428" y2="312.567"/><line x1="308.531" y1="310.671" x2="308.531" y2="314.464"/><line x1="306.635" y1="310.671" x2="310.428" y2="314.464"/><line x1="306.635" y1="314.464" x2="310.428" y2="310.671"/>
<line x1="308.885" y1="314.09" x2="312.677" y2="314.09"/><line x1="310.781" y1="312.194" x2="310.781" y2="315.986"/><line x1="308.885" y1="312.194" x2="312.677" y2="315.986"/><line x1="308.885" y1="315.986" x2="312.677" y2="312.194"/>
<line x1="311.135" y1="314.09" x2="314.927" y2="314.09"/><line x1="313.031" y1="312.194" x2="313.031" y2="315.986"/><line x1="311.135" y1="312.194" x2="314.927" y2="315.986"/><line x1="311.135" y1="315.986" x2="314.927" y2="312.194"/>
<line x1="313.385" y1="314.09" x2="317.177" y2="314.09"/><line x1="315.281" y1="312.194" x2="315.281" y2="315.986"/><line x1="313.385" y1="312.194" x2="317.177" y2="315.986"/><line x1="313.385" y1="315.986" x2="317.177" y2="312.194"/>
<line x1="315.635" y1="314.09" x2="319.427" y2="314.09"/><line x1="317.531" y1="312.194" x2="317.531" y2="315.986"/><line x1="315.635" y1="312.194" x2="319.427" y2="315.986"/><line x1="315.635" y1="315.986" x2="319.427" y2="312.194"/>
<line x1="317.885" y1="311.173" x2="321.677" y2="311.173"/><line x1="319.781" y1="309.277" x2="319.781" y2="313.069"/><line x1="317.885" y1="309.277" x2="321.677" y2="313.069"/><line x1="317.885" y1="313.069" x2="321.677" y2="309.277"/>
<line x1="320.135" y1="311.173" x2="323.927" y2="311.173"/><line x1="322.031" y1="309.277" x2="322.031" y2="313.069"/><line x1="320.135" y1="309.277" x2="323.927" y2="313.069"/><line x1="320.135" y1="313.069" x2="323.927" y2="309.277"/>
<line x1="322.385" y1="309.709" x2="326.177" y2="309.709"/><line x1="324.281" y1="307.813" x2="324.281" y2="311.605"/><line x1="322.385" y1="307.813" x2="326.177" y2="311.605"/><line x1="322.385" y1="311.605" x2="326.177" y2="307.813"/>
<line x1="324.635" y1="309.709" x2="328.427" y2="309.709"/><line x1="326.531" y1="307.813" x2="326.531" y2="311.605"/><line x1="324.635" y1="307.813" x2="328.427" y2="311.605"/><line x1="324.635" y1="311.605" x2="328.427" y2="307.813"/>
<line x1="326.885" y1="309.709" x2="330.677" y2="309.709"/><line x1="328.781" y1="307.813" x2="328.781" y2="311.605"/><line x1="326.885" y1="307.813" x2="330.677" y2="311.605"/><line x1="326.885" y1="311.605" x2="330.677" y2="307.813"/>
<line x1="329.135" y1="309.709" x2="332.927" y2="309.709"/><line x1="331.031" y1="307.813" x2="331.031" y2="311.605"/><line x1="329.135" y1="307.813" x2="332.927" y2="311.605"/><line x1="329.135" y1="311.605" x2="332.927" y2="307.813"/>
<line x1="331.385" y1="314.067" x2="335.177" y2="314.067"/><line x1="333.281" y1="312.17" x2="333.281" y2="315.963"/><line x1="331.385" y1="312.17" x2="335.177" y2="315.963"/><line x1="331.385" y1="315.963" x2="335.177" y2="312.17"/>
<line x1="333.635" y1="314.067" x2="337.427" y2="314.067"/><line x1="335.531" y1="312.17" x2="335.531" y2="315.963"/><line x1="333.635" y1="312.17" x2="337.427" y2="315.963"/><line x1="333.635" y1="315.963" x2="337.427" y2="312.17"/>
<line x1="335.885" y1="314.067" x2="339.677" y2="314.067"/><line x1="337.781" y1="312.17" x2="337.781" y2="315.963"/><line x1="335.885" y1="312.17" x2="339.677" y2="315.963"/><line x1="335.885" y1="315.963" x2="339.677" y2="312.17"/>
<line x1="338.135" y1="314.067" x2="341.927" y2="314.067"/><line x1="340.031" y1="312.17" x2="340.031" y2="315.963"/><line x1="338.135" y1="312.17" x2="341.927" y2="315.963"/><line x1="338.135" y1="315.963" x2="341.927" y2="312.17"/>
<line x1="340.384" y1="314.067" x2="344.177" y2="314.067"/><line x1="342.281" y1="312.17" x2="342.281" y2="315.963"/><line x1="340.384" y1="312.17" x2="344.177" y2="315.963"/><line x1="340.384" y1="315.963" x2="344.177" y2="312.17"/>
<line x1="342.634" y1="312.601" x2="346.427" y2="312.601"/><line x1="344.531" y1="310.704" x2="344.531" y2="314.497"/><line x1="342.634" y1="310.704" x2="346.427" y2="314.497"/><line x1="342.634" y1="314.497" x2="346.427" y2="310.704"/>
<line x1="344.884" y1="311.13" x2="348.677" y2="311.13"/><line x1="346.78" y1="309.234" x2="346.78" y2="313.026"/><line x1="344.884" y1="309.234" x2="348.677" y2="313.026"/><line x1="344.884" y1="313.026" x2="348.677" y2="309.234"/>
<line x1="347.134" y1="309.657" x2="350.927" y2="309.657"/><line x1="349.03" y1="307.761" x2="349.03" y2="311.553"/><line x1="347.134" y1="307.761" x2="350.927" y2="311.553"/><line x1="347.134" y1="311.553" x2="350.927" y2="307.761"/>
<line x1="349.384" y1="309.657" x2="353.176" y2="309.657"/><line x1="351.28" y1="307.761" x2="351.28" y2="311.553"/><line x1="349.384" y1="307.761" x2="353.176" y2="311.553"/><line x1="349.384" y1="311.553" x2="353.176" y2="307.761"/>
<line x1="351.634" y1="306.699" x2="355.426" y2="306.699"/><line x1="353.53" y1="304.803" x2="353.53" y2="308.595"/><line x1="351.634" y1="304.803" x2="355.426" y2="308.595"/><line x1="351.634" y1="308.595" x2="355.426" y2="304.803"/>
<line x1="353.884" y1="305.216" x2="357.676" y2="305.216"/><line x1="355.78" y1="303.32" x2="355.78" y2="307.112"/><line x1="353.884" y1="303.32" x2="357.676" y2="307.112"/><line x1="353.884" y1="307.112" x2="357.676" y2="303.32"/>
<line x1="356.134" y1="305.732" x2="359.926" y2="305.732"/><line x1="358.03" y1="303.836" x2="358.03" y2="307.628"/><line x1="356.134" y1="303.836" x2="359.926" y2="307.628"/><line x1="356.134" y1="307.628" x2="359.926" y2="303.836"/>
<line x1="358.384" y1="304.244" x2="362.176" y2="304.244"/><line x1="360.28" y1="302.348" x2="360.28" y2="306.14"/><line x1="358.384" y1="302.348" x2="362.176" y2="306.14"/><line x1="358.384" y1="306.14" x2="362.176" y2="302.348"/>
<line x1="360.634" y1="304.244" x2="364.426" y2="304.244"/><line x1="362.53" y1="302.348" x2="362.53" y2="306.14"/><line x1="360.634" y1="302.348" x2="364.426" y2="306.14"/><line x1="360.634" y1="306.14" x2="364.426" y2="302.348"/>
<line x1="362.884" y1="302.754" x2="366.676" y2="302.754"/><line x1="364.78" y1="300.858" x2="364.78" y2="304.65"/><line x1="362.884" y1="300.858" x2="366.676" y2="304.65"/><line x1="362.884" y1="304.65" x2="366.676" y2="300.858"/>
<line x1="365.134" y1="302.754" x2="368.926" y2="302.754"/><line x1="367.03" y1="300.858" x2="367.03" y2="304.65"/><line x1="365.134" y1="300.858" x2="368.926" y2="304.65"/><line x1="365.134" y1="304.65" x2="368.926" y2="300.858"/>
<line x1="367.384" y1="299.761" x2="371.176" y2="299.761"/><line x1="369.28" y1="297.865" x2="369.28" y2="301.657"/><line x1="367.384" y1="297.865" x2="371.176" y2="301.657"/><line x1="367.384" y1="301.657" x2="371.176" y2="297.865"/>
<line x1="369.634" y1="296.755" x2="373.426" y2="296.755"/><line x1="371.53" y1="294.859" x2="371.53" y2="298.652"/><line x1="369.634" y1="294.859" x2="373.426" y2="298.652"/><line x1="369.634" y1="298.652" x2="373.426" y2="294.859"/>
<line x1="371.884" y1="293.736" x2="375.676" y2="293.736"/><line x1="373.78" y1="291.84" x2="373.78" y2="295.632"/><line x1="371.884" y1="291.84" x2="375.676" y2="295.632"/><line x1="371.884" y1="295.632" x2="375.676" y2="291.84"/>
<line x1="374.134" y1="293.736" x2="377.926" y2="293.736"/><line x1="376.03" y1="291.84" x2="376.03" y2="295.632"/><line x1="374.134" y1="291.84" x2="377.926" y2="295.632"/><line x1="374.134" y1="295.632" x2="377.926" y2="291.84"/>
<line x1="376.384" y1="292.221" x2="380.176" y2="292.221"/><line x1="378.28" y1="290.324" x2="378.28" y2="294.117"/><line x1="376.384" y1="290.324" x2="380.176" y2="294.117"/><line x1="376.384" y1="294.117" x2="380.176" y2="290.324"/>
<line x1="378.634" y1="290.703" x2="382.426" y2="290.703"/><line x1="380.53" y1="288.807" x2="380.53" y2="292.599"/><line x1="378.634" y1="288.807" x2="382.426" y2="292.599"/><line x1="378.634" y1="292.599" x2="382.426" y2="288.807"/>
<line x1="380.883" y1="289.18" x2="384.676" y2="289.18"/><line x1="382.78" y1="287.284" x2="382.78" y2="291.076"/><line x1="380.883" y1="287.284" x2="384.676" y2="291.076"/><line x1="380.883" y1="291.076" x2="384.676" y2="287.284"/>
<line x1="383.133" y1="290.808" x2="386.926" y2="290.808"/><line x1="385.03" y1="288.912" x2="385.03" y2="292.704"/><line x1="383.133" y1="288.912" x2="386.926" y2="292.704"/><line x1="383.133" y1="292.704" x2="386.926" y2="288.912"/>
<line x1="385.383" y1="290.808" x2="389.176" y2="290.808"/><line x1="387.279" y1="288.912" x2="387.279" y2="292.704"/><line x1="385.383" y1="288.912" x2="389.176" y2="292.704"/><line x1="385.383" y1="292.704" x2="389.176" y2="288.912"/>
<line x1="387.633" y1="290.808" x2="391.426" y2="290.808"/><line x1="389.529" y1="288.912" x2="389.529" y2="292.704"/><line x1="387.633" y1="288.912" x2="391.426" y2="292.704"/><line x1="387.633" y1="292.704" x2="391.426" y2="288.912"/>
<line x1="389.883" y1="291.318" x2="393.675" y2="291.318"/><line x1="391.779" y1="289.422" x2="391.779" y2="293.214"/><line x1="389.883" y1="289.422" x2="393.675" y2="293.214"/><line x1="389.883" y1="293.214" x2="393.675" y2="289.422"/>
<line x1="392.133" y1="291.318" x2="395.925" y2="291.318"/><line x1="394.029" y1="289.422" x2="394.029" y2="293.214"/><line x1="392.133" y1="289.422" x2="395.925" y2="293.214"/><line x1="392.133" y1="293.214" x2="395.925" y2="289.422"/>
<line x1="394.383" y1="291.318" x2="398.175" y2="291.318"/><line x1="396.279" y1="289.422" x2="396.279" y2="293.214"/><line x1="394.383" y1="289.422" x2="398.175" y2="293.214"/><line x1="394.383" y1="293.214" x2="398.175" y2="289.422"/>
<line x1="396.633" y1="288.268" x2="400.425" y2="288.268"/><line x1="398.529" y1="286.372" x2="398.529" y2="290.164"/><line x1="396.633" y1="286.372" x2="400.425" y2="290.164"/><line x1="396.633" y1="290.164" x2="400.425" y2="286.372"/>
<line x1="398.883" y1="287.223" x2="402.675" y2="287.223"/><line x1="400.779" y1="285.327" x2="400.779" y2="289.119"/><line x1="398.883" y1="285.327" x2="402.675" y2="289.119"/><line x1="398.883" y1="289.119" x2="402.675" y2="285.327"/>
<line x1="401.133" y1="287.223" x2="404.925" y2="287.223"/><line x1="403.029" y1="285.327" x2="403.029" y2="289.119"/><line x1="401.133" y1="285.327" x2="404.925" y2="289.119"/><line x1="401.133" y1="289.119" x2="404.925" y2="285.327"/>
<line x1="403.383" y1="285.69" x2="407.175" y2="285.69"/><line x1="405.279" y1="283.794" x2="405.279" y2="287.586"/><line x1="403.383" y1="283.794" x2="407.175" y2="287.586"/><line x1="403.383" y1="287.586" x2="407.175" y2="283.794"/>
<line x1="405.633" y1="285.69" x2="409.425" y2="285.69"/><line x1="407.529" y1="283.794" x2="407.529" y2="287.586"/><line x1="405.633" y1="283.794" x2="409.425" y2="287.586"/><line x1="405.633" y1="287.586" x2="409.425" y2="283.794"/>
<line x1="407.883" y1="286.15" x2="411.675" y2="286.15"/><line x1="409.779" y1="284.254" x2="409.779" y2="288.046"/><line x1="407.883" y1="284.254" x2="411.675" y2="288.046"/><line x1="407.883" y1="288.046" x2="411.675" y2="284.254"/>
<line x1="410.133" y1="293.349" x2="413.925" y2="293.349"/><line x1="412.029" y1="291.452" x2="412.029" y2="295.245"/><line x1="410.133" y1="291.452" x2="413.925" y2="295.245"/><line x1="410.133" y1="295.245" x2="413.925" y2="291.452"/>
<line x1="412.383" y1="291.809" x2="416.175" y2="291.809"/><line x1="414.279" y1="289.913" x2="414.279" y2="293.705"/><line x1="412.383" y1="289.913" x2="416.175" y2="293.705"/><line x1="412.383" y1="293.705" x2="416.175" y2="289.913"/>
<line x1="414.633" y1="290.267" x2="418.425" y2="290.267"/><line x1="416.529" y1="288.371" x2="416.529" y2="292.163"/><line x1="414.633" y1="288.371" x2="418.425" y2="292.163"/><line x1="414.633" y1="292.163" x2="418.425" y2="288.371"/>
<line x1="416.883" y1="290.267" x2="420.675" y2="290.267"/><line x1="418.779" y1="288.371" x2="418.779" y2="292.163"/><line x1="416.883" y1="288.371" x2="420.675" y2="292.163"/><line x1="416.883" y1="292.163" x2="420.675" y2="288.371"/>
<line x1="419.133" y1="290.267" x2="422.925" y2="290.267"/><line x1="421.029" y1="288.371" x2="421.029" y2="292.163"/><line x1="419.133" y1="288.371" x2="422.925" y2="292.163"/><line x1="419.133" y1="292.163" x2="422.925" y2="288.371"/>
<line x1="421.382" y1="291.874" x2="425.175" y2="291.874"/><line x1="423.279" y1="289.977" x2="423.279" y2="293.77"/><line x1="421.382" y1="289.977" x2="425.175" y2="293.77"/><line x1="421.382" y1="293.77" x2="425.175" y2="289.977"/>
<line x1="423.632" y1="290.33" x2="427.425" y2="290.33"/><line x1="425.529" y1="288.434" x2="425.529" y2="292.226"/><line x1="423.632" y1="288.434" x2="427.425" y2="292.226"/><line x1="423.632" y1="292.226" x2="427.425" y2="288.434"/>
<line x1="425.882" y1="288.783" x2="429.675" y2="288.783"/><line x1="427.778" y1="286.887" x2="427.778" y2="290.679"/><line x1="425.882" y1="286.887" x2="429.675" y2="290.679"/><line x1="425.882" y1="290.679" x2="429.675" y2="286.887"/>
<line x1="428.132" y1="288.783" x2="431.924" y2="288.783"/><line x1="430.028" y1="286.887" x2="430.028" y2="290.679"/><line x1="428.132" y1="286.887" x2="431.924" y2="290.679"/><line x1="428.132" y1="290.679" x2="431.924" y2="286.887"/>
<line x1="430.382" y1="291.602" x2="434.174" y2="291.602"/><line x1="432.278" y1="289.706" x2="432.278" y2="293.498"/><line x1="430.382" y1="289.706" x2="434.174" y2="293.498"/><line x1="430.382" y1="293.498" x2="434.174" y2="289.706"/>
<line x1="432.632" y1="290.05" x2="436.424" y2="290.05"/><line x1="434.528" y1="288.154" x2="434.528" y2="291.946"/><line x1="432.632" y1="288.154" x2="436.424" y2="291.946"/><line x1="432.632" y1="291.946" x2="436.424" y2="288.154"/>
<line x1="434.882" y1="283.802" x2="438.674" y2="283.802"/><line x1="436.778" y1="281.906" x2="436.778" y2="285.698"/><line x1="434.882" y1="281.906" x2="438.674" y2="285.698"/><line x1="434.882" y1="285.698" x2="438.674" y2="281.906"/>
<line x1="437.132" y1="288.173" x2="440.924" y2="288.173"/><line x1="439.028" y1="286.277" x2="439.028" y2="290.07"/><line x1="437.132" y1="286.277" x2="440.924" y2="290.07"/><line x1="437.132" y1="290.07" x2="440.924" y2="286.277"/>
<line x1="439.382" y1="288.173" x2="443.174" y2="288.173"/><line x1="441.278" y1="286.277" x2="441.278" y2="290.07"/><line x1="439.382" y1="286.277" x2="443.174" y2="290.07"/><line x1="439.382" y1="290.07" x2="443.174" y2="286.277"/>
<line x1="441.632" y1="285.03" x2="445.424" y2="285.03"/><line x1="443.528" y1="283.134" x2="443.528" y2="286.927"/><line x1="441.632" y1="283.134" x2="445.424" y2="286.927"/><line x1="441.632" y1="286.927" x2="445.424" y2="283.134"/>
<line x1="443.882" y1="285.03" x2="447.674" y2="285.03"/><line x1="445.778" y1="283.134" x2="445.778" y2="286.927"/><line x1="443.882" y1="283.134" x2="447.674" y2="286.927"/><line x1="443.882" y1="286.927" x2="447.674" y2="283.134"/>
<line x1="446.132" y1="285.03" x2="449.924" y2="285.03"/><line x1="448.028" y1="283.134" x2="448.028" y2="286.927"/><line x1="446.132" y1="283.134" x2="449.924" y2="286.927"/><line x1="446.132" y1="286.927" x2="449.924" y2="283.134"/>
<line x1="448.382" y1="285.03" x2="452.174" y2="285.03"/><line x1="450.278" y1="283.134" x2="450.278" y2="286.927"/><line x1="448.382" y1="283.134" x2="452.174" y2="286.927"/><line x1="448.382" y1="286.927" x2="452.174" y2="283.134"/>
<line x1="450.632" y1="281.873" x2="454.424" y2="281.873"/><line x1="452.528" y1="279.977" x2="452.528" y2="283.769"/><line x1="450.632" y1="279.977" x2="454.424" y2="283.769"/><line x1="450.632" y1="283.769" x2="454.424" y2="279.977"/>
<line x1="452.882" y1="280.289" x2="456.674" y2="280.289"/><line x1="454.778" y1="278.393" x2="454.778" y2="282.185"/><line x1="452.882" y1="278.393" x2="456.674" y2="282.185"/><line x1="452.882" y1="282.185" x2="456.674" y2="278.393"/>
<line x1="455.132" y1="280.289" x2="458.924" y2="280.289"/><line x1="457.028" y1="278.393" x2="457.028" y2="282.185"/><line x1="455.132" y1="278.393" x2="458.924" y2="282.185"/><line x1="455.132" y1="282.185" x2="458.924" y2="278.393"/>
<line x1="457.382" y1="280.289" x2="461.174" y2="280.289"/><line x1="459.278" y1="278.393" x2="459.278" y2="282.185"/><line x1="457.382" y1="278.393" x2="461.174" y2="282.185"/><line x1="457.382" y1="282.185" x2="461.174" y2="278.393"/>
<line x1="459.632" y1="280.289" x2="463.424" y2="280.289"/><line x1="461.528" y1="278.393" x2="461.528" y2="282.185"/><line x1="459.632" y1="278.393" x2="463.424" y2="282.185"/><line x1="459.632" y1="282.185" x2="463.424" y2="278.393"/>
<line x1="461.881" y1="280.289" x2="465.674" y2="280.289"/><line x1="463.778" y1="278.393" x2="463.778" y2="282.185"/><line x1="461.881" y1="278.393" x2="465.674" y2="282.185"/><line x1="461.881" y1="282.185" x2="465.674" y2="278.393"/>
<line x1="464.131" y1="278.702" x2="467.924" y2="278.702"/><line x1="466.027" y1="276.806" x2="466.027" y2="280.598"/><line x1="464.131" y1="276.806" x2="467.924" y2="280.598"/><line x1="464.131" y1="280.598" x2="467.924" y2="276.806"/>
<line x1="466.381" y1="278.702" x2="470.174" y2="278.702"/><line x1="468.277" y1="276.806" x2="468.277" y2="280.598"/><line x1="466.381" y1="276.806" x2="470.174" y2="280.598"/><line x1="466.381" y1="280.598" x2="470.174" y2="276.806"/>
<line x1="468.631" y1="278.702" x2="472.423" y2="278.702"/><line x1="470.527" y1="276.806" x2="470.527" y2="280.598"/><line x1="468.631" y1="276.806" x2="472.423" y2="280.598"/><line x1="468.631" y1="280.598" x2="472.423" y2="276.806"/>
<line x1="470.881" y1="277.112" x2="474.673" y2="277.112"/><line x1="472.777" y1="275.216" x2="472.777" y2="279.008"/><line x1="470.881" y1="275.216" x2="474.673" y2="279.008"/><line x1="470.881" y1="279.008" x2="474.673" y2="275.216"/>
<line x1="473.131" y1="275.517" x2="476.923" y2="275.517"/><line x1="475.027" y1="273.621" x2="475.027" y2="277.413"/><line x1="473.131" y1="273.621" x2="476.923" y2="277.413"/><line x1="473.131" y1="277.413" x2="476.923" y2="273.621"/>
<line x1="475.381" y1="273.92" x2="479.173" y2="273.92"/><line x1="477.277" y1="272.024" x2="477.277" y2="275.816"/><line x1="475.381" y1="272.024" x2="479.173" y2="275.816"/><line x1="475.381" y1="275.816" x2="479.173" y2="272.024"/>
<line x1="477.631" y1="273.92" x2="481.423" y2="273.92"/><line x1="479.527" y1="272.024" x2="479.527" y2="275.816"/><line x1="477.631" y1="272.024" x2="481.423" y2="275.816"/><line x1="477.631" y1="275.816" x2="481.423" y2="272.024"/>
<line x1="479.881" y1="270.714" x2="483.673" y2="270.714"/><line x1="481.777" y1="268.818" x2="481.777" y2="272.61"/><line x1="479.881" y1="268.818" x2="483.673" y2="272.61"/><line x1="479.881" y1="272.61" x2="483.673" y2="268.818"/>
<line x1="482.131" y1="270.714" x2="485.923" y2="270.714"/><line x1="484.027" y1="268.818" x2="484.027" y2="272.61"/><line x1="482.131" y1="268.818" x2="485.923" y2="272.61"/><line x1="482.131" y1="272.61" x2="485.923" y2="268.818"/>
<line x1="484.381" y1="269.106" x2="488.173" y2="269.106"/><line x1="486.277" y1="267.21" x2="486.277" y2="271.002"/><line x1="484.381" y1="267.21" x2="488.173" y2="271.002"/><line x1="484.381" y1="271.002" x2="488.173" y2="267.21"/>
<line x1="486.631" y1="265.88" x2="490.423" y2="265.88"/><line x1="488.527" y1="263.984" x2="488.527" y2="267.776"/><line x1="486.631" y1="263.984" x2="490.423" y2="267.776"/><line x1="486.631" y1="267.776" x2="490.423" y2="263.984"/>
<line x1="488.881" y1="264.261" x2="492.673" y2="264.261"/><line x1="490.777" y1="262.365" x2="490.777" y2="266.158"/><line x1="488.881" y1="262.365" x2="492.673" y2="266.158"/><line x1="488.881" y1="266.158" x2="492.673" y2="262.365"/>
<line x1="491.131" y1="264.261" x2="494.923" y2="264.261"/><line x1="493.027" y1="262.365" x2="493.027" y2="266.158"/><line x1="491.131" y1="262.365" x2="494.923" y2="266.158"/><line x1="491.131" y1="266.158" x2="494.923" y2="262.365"/>
<line x1="493.381" y1="262.64" x2="497.173" y2="262.64"/><line x1="495.277" y1="260.743" x2="495.277" y2="264.536"/><line x1="493.381" y1="260.743" x2="497.173" y2="264.536"/><line x1="493.381" y1="264.536" x2="497.173" y2="260.743"/>
<line x1="495.631" y1="262.684" x2="499.423" y2="262.684"/><line x1="497.527" y1="260.788" x2="497.527" y2="264.58"/><line x1="495.631" y1="260.788" x2="499.423" y2="264.58"/><line x1="495.631" y1="264.58" x2="499.423" y2="260.788"/>
<line x1="497.881" y1="262.684" x2="501.673" y2="262.684"/><line x1="499.777" y1="260.788" x2="499.777" y2="264.58"/><line x1="497.881" y1="260.788" x2="501.673" y2="264.58"/><line x1="497.881" y1="264.58" x2="501.673" y2="260.788"/>
<line x1="500.131" y1="261.058" x2="503.923" y2="261.058"/><line x1="502.027" y1="259.162" x2="502.027" y2="262.954"/><line x1="500.131" y1="259.162" x2="503.923" y2="262.954"/><line x1="500.131" y1="262.954" x2="503.923" y2="259.162"/>
<line x1="502.38" y1="261.058" x2="506.173" y2="261.058"/><line x1="504.277" y1="259.162" x2="504.277" y2="262.954"/><line x1="502.38" y1="259.162" x2="506.173" y2="262.954"/><line x1="502.38" y1="262.954" x2="506.173" y2="259.162"/>
<line x1="504.63" y1="261.058" x2="508.423" y2="261.058"/><line x1="506.526" y1="259.162" x2="506.526" y2="262.954"/><line x1="504.63" y1="259.162" x2="508.423" y2="262.954"/><line x1="504.63" y1="262.954" x2="508.423" y2="259.162"/>
<line x1="506.88" y1="261.058" x2="510.673" y2="261.058"/><line x1="508.776" y1="259.162" x2="508.776" y2="262.954"/><line x1="506.88" y1="259.162" x2="510.673" y2="262.954"/><line x1="506.88" y1="262.954" x2="510.673" y2="259.162"/>
</g>
<path d="M0.5,289.342h 566.929" fill="none" stroke="#0000ff"/>
<path d="M254.533,399.568v -358.233" fill="none" stroke="#0000ff"/>
<path d="M310.781,399.568v -358.233" fill="none" stroke="#0000ff"/>
<text xml:space="preserve" x="109.525" y="18.0128" fill="black" font-size="14.0403" font-family="Helvetica">^2 v.s. calibration factor without 1st bin and without last bin</text>
<text xml:space="preserve" x="101.94" y="18.0128" fill="black" font-size="14.0403" font-family="Times">&#0967;</text></svg>
