<?xml version="1.0" standalone="no"?>
<svg width="567.429" height="413.846" viewBox="0 0 567.429 413.846" xmlns="http://www.w3.org/2000/svg" shape-rendering="crispEdges">
<title>
figures/chi2zoomin_7PMTnpefilelist20.svg
</title>
<desc>
Creator: ROOT Version 6.18/04
CreationDate: Wed Nov  6 14:29:15 2019</desc>
<defs>
</defs>
<rect x="0.5" y="0" width="566.929" height="413.346" fill="white"/>
<rect x="57.1929" y="41.3346" width="453.543" height="330.677" fill="white"/>
<rect x="57.1929" y="41.3346" width="453.543" height="330.677" fill="none" stroke="black"/>
<path d="M57.1929,372.012h 453.543" fill="none" stroke="black"/>
<path d="M59.6902,41.3346v 330.677" fill="none" stroke="black" stroke-dasharray=" 1, 2"/>
<path d="M115.939,41.3346v 330.677" fill="none" stroke="black" stroke-dasharray=" 1, 2"/>
<path d="M172.187,41.3346v 330.677" fill="none" stroke="black" stroke-dasharray=" 1, 2"/>
<path d="M228.436,41.3346v 330.677" fill="none" stroke="black" stroke-dasharray=" 1, 2"/>
<path d="M284.685,41.3346v 330.677" fill="none" stroke="black" stroke-dasharray=" 1, 2"/>
<path d="M340.933,41.3346v 330.677" fill="none" stroke="black" stroke-dasharray=" 1, 2"/>
<path d="M397.182,41.3346v 330.677" fill="none" stroke="black" stroke-dasharray=" 1, 2"/>
<path d="M453.43,41.3346v 330.677" fill="none" stroke="black" stroke-dasharray=" 1, 2"/>
<path d="M509.679,41.3346v 330.677" fill="none" stroke="black" stroke-dasharray=" 1, 2"/>
<path d="M59.6902,41.3346v 330.677" fill="none" stroke="black" stroke-dasharray=" 1, 2"/>
<path d="M509.679,41.3346v 330.677" fill="none" stroke="black" stroke-dasharray=" 1, 2"/>
<path d="M57.1929,372.012v -330.677" fill="none" stroke="black"/>
<path d="M57.1929,372.012h 453.543" fill="none" stroke="black"/>
<path d="M59.6902,362.091v 9.92031" fill="none" stroke="black"/>
<path d="M70.9399,367.052v 4.96016" fill="none" stroke="black"/>
<path d="M82.1896,367.052v 4.96016" fill="none" stroke="black"/>
<path d="M93.4393,367.052v 4.96016" fill="none" stroke="black"/>
<path d="M104.689,367.052v 4.96016" fill="none" stroke="black"/>
<path d="M115.939,362.091v 9.92031" fill="none" stroke="black"/>
<path d="M127.188,367.052v 4.96016" fill="none" stroke="black"/>
<path d="M138.438,367.052v 4.96016" fill="none" stroke="black"/>
<path d="M149.688,367.052v 4.96016" fill="none" stroke="black"/>
<path d="M160.938,367.052v 4.96016" fill="none" stroke="black"/>
<path d="M172.187,362.091v 9.92031" fill="none" stroke="black"/>
<path d="M183.437,367.052v 4.96016" fill="none" stroke="black"/>
<path d="M194.687,367.052v 4.96016" fill="none" stroke="black"/>
<path d="M205.937,367.052v 4.96016" fill="none" stroke="black"/>
<path d="M217.186,367.052v 4.96016" fill="none" stroke="black"/>
<path d="M228.436,362.091v 9.92031" fill="none" stroke="black"/>
<path d="M239.686,367.052v 4.96016" fill="none" stroke="black"/>
<path d="M250.935,367.052v 4.96016" fill="none" stroke="black"/>
<path d="M262.185,367.052v 4.96016" fill="none" stroke="black"/>
<path d="M273.435,367.052v 4.96016" fill="none" stroke="black"/>
<path d="M284.685,362.091v 9.92031" fill="none" stroke="black"/>
<path d="M295.934,367.052v 4.96016" fill="none" stroke="black"/>
<path d="M307.184,367.052v 4.96016" fill="none" stroke="black"/>
<path d="M318.434,367.052v 4.96016" fill="none" stroke="black"/>
<path d="M329.683,367.052v 4.96016" fill="none" stroke="black"/>
<path d="M340.933,362.091v 9.92031" fill="none" stroke="black"/>
<path d="M352.183,367.052v 4.96016" fill="none" stroke="black"/>
<path d="M363.433,367.052v 4.96016" fill="none" stroke="black"/>
<path d="M374.682,367.052v 4.96016" fill="none" stroke="black"/>
<path d="M385.932,367.052v 4.96016" fill="none" stroke="black"/>
<path d="M397.182,362.091v 9.92031" fill="none" stroke="black"/>
<path d="M408.431,367.052v 4.96016" fill="none" stroke="black"/>
<path d="M419.681,367.052v 4.96016" fill="none" stroke="black"/>
<path d="M430.931,367.052v 4.96016" fill="none" stroke="black"/>
<path d="M442.181,367.052v 4.96016" fill="none" stroke="black"/>
<path d="M453.43,362.091v 9.92031" fill="none" stroke="black"/>
<path d="M464.68,367.052v 4.96016" fill="none" stroke="black"/>
<path d="M475.93,367.052v 4.96016" fill="none" stroke="black"/>
<path d="M487.179,367.052v 4.96016" fill="none" stroke="black"/>
<path d="M498.429,367.052v 4.96016" fill="none" stroke="black"/>
<path d="M509.679,362.091v 9.92031" fill="none" stroke="black"/>
<path d="M59.6902,362.091v 9.92031" fill="none" stroke="black"/>
<path d="M509.679,362.091v 9.92031" fill="none" stroke="black"/>
<text xml:space="preserve" x="46.48" y="385.379" fill="black" font-size="13.7726" font-family="Helvetica">0.82</text>
<text xml:space="preserve" x="99.0964" y="385.379" fill="black" font-size="13.7726" font-family="Helvetica">0.825</text>
<text xml:space="preserve" x="159.297" y="385.379" fill="black" font-size="13.7726" font-family="Helvetica">0.83</text>
<text xml:space="preserve" x="211.439" y="385.379" fill="black" font-size="13.7726" font-family="Helvetica">0.835</text>
<text xml:space="preserve" x="271.64" y="385.379" fill="black" font-size="13.7726" font-family="Helvetica">0.84</text>
<text xml:space="preserve" x="324.256" y="385.379" fill="black" font-size="13.7726" font-family="Helvetica">0.845</text>
<text xml:space="preserve" x="383.983" y="385.379" fill="black" font-size="13.7726" font-family="Helvetica">0.85</text>
<text xml:space="preserve" x="436.599" y="385.379" fill="black" font-size="13.7726" font-family="Helvetica">0.855</text>
<text xml:space="preserve" x="496.8" y="385.379" fill="black" font-size="13.7726" font-family="Helvetica">0.86</text>
<text xml:space="preserve" x="413.372" y="400.074" fill="black" font-size="13.7726" font-family="Helvetica">calibration factor</text>
<path d="M57.1929,372.012v -330.677" fill="none" stroke="black"/>
<path d="M70.7992,333.964h -13.6063" fill="none" stroke="black"/>
<path d="M63.9961,320.186h -6.80315" fill="none" stroke="black"/>
<path d="M63.9961,306.408h -6.80315" fill="none" stroke="black"/>
<path d="M63.9961,292.63h -6.80315" fill="none" stroke="black"/>
<path d="M70.7992,278.852h -13.6063" fill="none" stroke="black"/>
<path d="M63.9961,265.073h -6.80315" fill="none" stroke="black"/>
<path d="M63.9961,251.295h -6.80315" fill="none" stroke="black"/>
<path d="M63.9961,237.517h -6.80315" fill="none" stroke="black"/>
<path d="M70.7992,223.739h -13.6063" fill="none" stroke="black"/>
<path d="M63.9961,209.96h -6.80315" fill="none" stroke="black"/>
<path d="M63.9961,196.182h -6.80315" fill="none" stroke="black"/>
<path d="M63.9961,182.404h -6.80315" fill="none" stroke="black"/>
<path d="M70.7992,168.626h -13.6063" fill="none" stroke="black"/>
<path d="M63.9961,154.848h -6.80315" fill="none" stroke="black"/>
<path d="M63.9961,141.069h -6.80315" fill="none" stroke="black"/>
<path d="M63.9961,127.291h -6.80315" fill="none" stroke="black"/>
<path d="M70.7992,113.513h -13.6063" fill="none" stroke="black"/>
<path d="M63.9961,99.7348h -6.80315" fill="none" stroke="black"/>
<path d="M63.9961,85.9566h -6.80315" fill="none" stroke="black"/>
<path d="M63.9961,72.1784h -6.80315" fill="none" stroke="black"/>
<path d="M70.7992,58.4002h -13.6063" fill="none" stroke="black"/>
<path d="M70.7992,333.964h -13.6063" fill="none" stroke="black"/>
<path d="M63.9961,347.743h -6.80315" fill="none" stroke="black"/>
<path d="M63.9961,361.521h -6.80315" fill="none" stroke="black"/>
<path d="M70.7992,58.4002h -13.6063" fill="none" stroke="black"/>
<path d="M63.9961,44.622h -6.80315" fill="none" stroke="black"/>
<text xml:space="preserve" x="32.2594" y="338.925" fill="black" font-size="13.7726" font-family="Helvetica">114</text>
<text xml:space="preserve" x="32.2594" y="283.465" fill="black" font-size="13.7726" font-family="Helvetica">116</text>
<text xml:space="preserve" x="32.2594" y="228.478" fill="black" font-size="13.7726" font-family="Helvetica">118</text>
<text xml:space="preserve" x="32.2594" y="173.018" fill="black" font-size="13.7726" font-family="Helvetica">120</text>
<text xml:space="preserve" x="32.2594" y="118.505" fill="black" font-size="13.7726" font-family="Helvetica">122</text>
<text xml:space="preserve" x="32.2594" y="63.5188" fill="black" font-size="13.7726" font-family="Helvetica">124</text>
<g transform="rotate(-90,15.1947,45.98)">
<text xml:space="preserve" x="15.1947" y="45.98" fill="black" font-size="9.34839" font-family="Helvetica">2</text>
</g>
<g transform="rotate(-90,19.4608,50.2462)">
<text xml:space="preserve" x="19.4608" y="50.2462" fill="black" font-size="13.7726" font-family="Helvetica"> </text>
</g>
<g transform="rotate(-90,19.4608,57.3565)">
<text xml:space="preserve" x="19.4608" y="57.3565" fill="black" font-size="13.7726" font-family="Times">&#0967;</text>
</g>
<text xml:space="preserve" x="109.525" y="18.0128" fill="black" font-size="14.0403" font-family="Helvetica">^2 v.s. calibration factor without 1st bin and without last bin</text>
<text xml:space="preserve" x="101.94" y="18.0128" fill="black" font-size="14.0403" font-family="Times">&#0967;</text>
<g stroke="black" stroke-width="1" fill="none">
<line x1="154.542" y1="51.5987" x2="158.334" y2="51.5987"/><line x1="156.438" y1="49.7026" x2="156.438" y2="53.4948"/><line x1="154.542" y1="49.7026" x2="158.334" y2="53.4948"/><line x1="154.542" y1="53.4948" x2="158.334" y2="49.7026"/>
<line x1="156.792" y1="44.1167" x2="160.584" y2="44.1167"/><line x1="158.688" y1="42.2206" x2="158.688" y2="46.0128"/><line x1="156.792" y1="42.2206" x2="160.584" y2="46.0128"/><line x1="156.792" y1="46.0128" x2="160.584" y2="42.2206"/>
<line x1="159.042" y1="60.9177" x2="162.834" y2="60.9177"/><line x1="160.938" y1="59.0216" x2="160.938" y2="62.8138"/><line x1="159.042" y1="59.0216" x2="162.834" y2="62.8138"/><line x1="159.042" y1="62.8138" x2="162.834" y2="59.0216"/>
<line x1="161.292" y1="68.2208" x2="165.084" y2="68.2208"/><line x1="163.188" y1="66.3247" x2="163.188" y2="70.1169"/><line x1="161.292" y1="66.3247" x2="165.084" y2="70.1169"/><line x1="161.292" y1="70.1169" x2="165.084" y2="66.3247"/>
<line x1="163.541" y1="59.8207" x2="167.334" y2="59.8207"/><line x1="165.438" y1="57.9246" x2="165.438" y2="61.7168"/><line x1="163.541" y1="57.9246" x2="167.334" y2="61.7168"/><line x1="163.541" y1="61.7168" x2="167.334" y2="57.9246"/>
<line x1="165.791" y1="68.9012" x2="169.584" y2="68.9012"/><line x1="167.687" y1="67.0051" x2="167.687" y2="70.7973"/><line x1="165.791" y1="67.0051" x2="169.584" y2="70.7973"/><line x1="165.791" y1="70.7973" x2="169.584" y2="67.0051"/>
<line x1="168.041" y1="61.7952" x2="171.833" y2="61.7952"/><line x1="169.937" y1="59.8991" x2="169.937" y2="63.6913"/><line x1="168.041" y1="59.8991" x2="171.833" y2="63.6913"/><line x1="168.041" y1="63.6913" x2="171.833" y2="59.8991"/>
<line x1="170.291" y1="79.4207" x2="174.083" y2="79.4207"/><line x1="172.187" y1="77.5246" x2="172.187" y2="81.3168"/><line x1="170.291" y1="77.5246" x2="174.083" y2="81.3168"/><line x1="170.291" y1="81.3168" x2="174.083" y2="77.5246"/>
<line x1="172.541" y1="86.3431" x2="176.333" y2="86.3431"/><line x1="174.437" y1="84.4471" x2="174.437" y2="88.2392"/><line x1="172.541" y1="84.4471" x2="176.333" y2="88.2392"/><line x1="172.541" y1="88.2392" x2="176.333" y2="84.4471"/>
<line x1="174.791" y1="71.5246" x2="178.583" y2="71.5246"/><line x1="176.687" y1="69.6285" x2="176.687" y2="73.4207"/><line x1="174.791" y1="69.6285" x2="178.583" y2="73.4207"/><line x1="174.791" y1="73.4207" x2="178.583" y2="69.6285"/>
<line x1="177.041" y1="96.5884" x2="180.833" y2="96.5884"/><line x1="178.937" y1="94.6923" x2="178.937" y2="98.4845"/><line x1="177.041" y1="94.6923" x2="180.833" y2="98.4845"/><line x1="177.041" y1="98.4845" x2="180.833" y2="94.6923"/>
<line x1="179.291" y1="116.114" x2="183.083" y2="116.114"/><line x1="181.187" y1="114.218" x2="181.187" y2="118.01"/><line x1="179.291" y1="114.218" x2="183.083" y2="118.01"/><line x1="179.291" y1="118.01" x2="183.083" y2="114.218"/>
<line x1="181.541" y1="137.704" x2="185.333" y2="137.704"/><line x1="183.437" y1="135.808" x2="183.437" y2="139.6"/><line x1="181.541" y1="135.808" x2="185.333" y2="139.6"/><line x1="181.541" y1="139.6" x2="185.333" y2="135.808"/>
<line x1="183.791" y1="157.585" x2="187.583" y2="157.585"/><line x1="185.687" y1="155.689" x2="185.687" y2="159.481"/><line x1="183.791" y1="155.689" x2="187.583" y2="159.481"/><line x1="183.791" y1="159.481" x2="187.583" y2="155.689"/>
<line x1="186.041" y1="157.438" x2="189.833" y2="157.438"/><line x1="187.937" y1="155.541" x2="187.937" y2="159.334"/><line x1="186.041" y1="155.541" x2="189.833" y2="159.334"/><line x1="186.041" y1="159.334" x2="189.833" y2="155.541"/>
<line x1="188.291" y1="160.779" x2="192.083" y2="160.779"/><line x1="190.187" y1="158.883" x2="190.187" y2="162.675"/><line x1="188.291" y1="158.883" x2="192.083" y2="162.675"/><line x1="188.291" y1="162.675" x2="192.083" y2="158.883"/>
<line x1="190.541" y1="178.499" x2="194.333" y2="178.499"/><line x1="192.437" y1="176.603" x2="192.437" y2="180.395"/><line x1="190.541" y1="176.603" x2="194.333" y2="180.395"/><line x1="190.541" y1="180.395" x2="194.333" y2="176.603"/>
<line x1="192.791" y1="191.537" x2="196.583" y2="191.537"/><line x1="194.687" y1="189.641" x2="194.687" y2="193.433"/><line x1="192.791" y1="189.641" x2="196.583" y2="193.433"/><line x1="192.791" y1="193.433" x2="196.583" y2="189.641"/>
<line x1="195.041" y1="199.915" x2="198.833" y2="199.915"/><line x1="196.937" y1="198.019" x2="196.937" y2="201.811"/><line x1="195.041" y1="198.019" x2="198.833" y2="201.811"/><line x1="195.041" y1="201.811" x2="198.833" y2="198.019"/>
<line x1="197.291" y1="199.881" x2="201.083" y2="199.881"/><line x1="199.187" y1="197.985" x2="199.187" y2="201.777"/><line x1="197.291" y1="197.985" x2="201.083" y2="201.777"/><line x1="197.291" y1="201.777" x2="201.083" y2="197.985"/>
<line x1="199.541" y1="194.157" x2="203.333" y2="194.157"/><line x1="201.437" y1="192.261" x2="201.437" y2="196.053"/><line x1="199.541" y1="192.261" x2="203.333" y2="196.053"/><line x1="199.541" y1="196.053" x2="203.333" y2="192.261"/>
<line x1="201.79" y1="206.803" x2="205.583" y2="206.803"/><line x1="203.687" y1="204.907" x2="203.687" y2="208.699"/><line x1="201.79" y1="204.907" x2="205.583" y2="208.699"/><line x1="201.79" y1="208.699" x2="205.583" y2="204.907"/>
<line x1="204.04" y1="199.472" x2="207.833" y2="199.472"/><line x1="205.937" y1="197.576" x2="205.937" y2="201.368"/><line x1="204.04" y1="197.576" x2="207.833" y2="201.368"/><line x1="204.04" y1="201.368" x2="207.833" y2="197.576"/>
<line x1="206.29" y1="194.997" x2="210.083" y2="194.997"/><line x1="208.186" y1="193.101" x2="208.186" y2="196.893"/><line x1="206.29" y1="193.101" x2="210.083" y2="196.893"/><line x1="206.29" y1="196.893" x2="210.083" y2="193.101"/>
<line x1="208.54" y1="197.43" x2="212.332" y2="197.43"/><line x1="210.436" y1="195.534" x2="210.436" y2="199.326"/><line x1="208.54" y1="195.534" x2="212.332" y2="199.326"/><line x1="208.54" y1="199.326" x2="212.332" y2="195.534"/>
<line x1="210.79" y1="184.44" x2="214.582" y2="184.44"/><line x1="212.686" y1="182.544" x2="212.686" y2="186.336"/><line x1="210.79" y1="182.544" x2="214.582" y2="186.336"/><line x1="210.79" y1="186.336" x2="214.582" y2="182.544"/>
<line x1="213.04" y1="184.84" x2="216.832" y2="184.84"/><line x1="214.936" y1="182.944" x2="214.936" y2="186.736"/><line x1="213.04" y1="182.944" x2="216.832" y2="186.736"/><line x1="213.04" y1="186.736" x2="216.832" y2="182.944"/>
<line x1="215.29" y1="182.025" x2="219.082" y2="182.025"/><line x1="217.186" y1="180.129" x2="217.186" y2="183.921"/><line x1="215.29" y1="180.129" x2="219.082" y2="183.921"/><line x1="215.29" y1="183.921" x2="219.082" y2="180.129"/>
<line x1="217.54" y1="175.775" x2="221.332" y2="175.775"/><line x1="219.436" y1="173.878" x2="219.436" y2="177.671"/><line x1="217.54" y1="173.878" x2="221.332" y2="177.671"/><line x1="217.54" y1="177.671" x2="221.332" y2="173.878"/>
<line x1="219.79" y1="172.882" x2="223.582" y2="172.882"/><line x1="221.686" y1="170.986" x2="221.686" y2="174.778"/><line x1="219.79" y1="170.986" x2="223.582" y2="174.778"/><line x1="219.79" y1="174.778" x2="223.582" y2="170.986"/>
<line x1="222.04" y1="166.913" x2="225.832" y2="166.913"/><line x1="223.936" y1="165.017" x2="223.936" y2="168.809"/><line x1="222.04" y1="165.017" x2="225.832" y2="168.809"/><line x1="222.04" y1="168.809" x2="225.832" y2="165.017"/>
<line x1="224.29" y1="181.662" x2="228.082" y2="181.662"/><line x1="226.186" y1="179.766" x2="226.186" y2="183.558"/><line x1="224.29" y1="179.766" x2="228.082" y2="183.558"/><line x1="224.29" y1="183.558" x2="228.082" y2="179.766"/>
<line x1="226.54" y1="171.776" x2="230.332" y2="171.776"/><line x1="228.436" y1="169.88" x2="228.436" y2="173.672"/><line x1="226.54" y1="169.88" x2="230.332" y2="173.672"/><line x1="226.54" y1="173.672" x2="230.332" y2="169.88"/>
<line x1="228.79" y1="175.08" x2="232.582" y2="175.08"/><line x1="230.686" y1="173.184" x2="230.686" y2="176.976"/><line x1="228.79" y1="173.184" x2="232.582" y2="176.976"/><line x1="228.79" y1="176.976" x2="232.582" y2="173.184"/>
<line x1="231.04" y1="179.219" x2="234.832" y2="179.219"/><line x1="232.936" y1="177.323" x2="232.936" y2="181.115"/><line x1="231.04" y1="177.323" x2="234.832" y2="181.115"/><line x1="231.04" y1="181.115" x2="234.832" y2="177.323"/>
<line x1="233.29" y1="178.475" x2="237.082" y2="178.475"/><line x1="235.186" y1="176.579" x2="235.186" y2="180.371"/><line x1="233.29" y1="176.579" x2="237.082" y2="180.371"/><line x1="233.29" y1="180.371" x2="237.082" y2="176.579"/>
<line x1="235.54" y1="166.847" x2="239.332" y2="166.847"/><line x1="237.436" y1="164.95" x2="237.436" y2="168.743"/><line x1="235.54" y1="164.95" x2="239.332" y2="168.743"/><line x1="235.54" y1="168.743" x2="239.332" y2="164.95"/>
<line x1="237.79" y1="199.086" x2="241.582" y2="199.086"/><line x1="239.686" y1="197.19" x2="239.686" y2="200.982"/><line x1="237.79" y1="197.19" x2="241.582" y2="200.982"/><line x1="237.79" y1="200.982" x2="241.582" y2="197.19"/>
<line x1="240.04" y1="213.187" x2="243.832" y2="213.187"/><line x1="241.936" y1="211.291" x2="241.936" y2="215.083"/><line x1="240.04" y1="211.291" x2="243.832" y2="215.083"/><line x1="240.04" y1="215.083" x2="243.832" y2="211.291"/>
<line x1="242.289" y1="240.693" x2="246.082" y2="240.693"/><line x1="244.186" y1="238.797" x2="244.186" y2="242.589"/><line x1="242.289" y1="238.797" x2="246.082" y2="242.589"/><line x1="242.289" y1="242.589" x2="246.082" y2="238.797"/>
<line x1="244.539" y1="256.584" x2="248.332" y2="256.584"/><line x1="246.436" y1="254.687" x2="246.436" y2="258.48"/><line x1="244.539" y1="254.687" x2="248.332" y2="258.48"/><line x1="244.539" y1="258.48" x2="248.332" y2="254.687"/>
<line x1="246.789" y1="265.288" x2="250.582" y2="265.288"/><line x1="248.685" y1="263.392" x2="248.685" y2="267.184"/><line x1="246.789" y1="263.392" x2="250.582" y2="267.184"/><line x1="246.789" y1="267.184" x2="250.582" y2="263.392"/>
<line x1="249.039" y1="267.626" x2="252.831" y2="267.626"/><line x1="250.935" y1="265.73" x2="250.935" y2="269.523"/><line x1="249.039" y1="265.73" x2="252.831" y2="269.523"/><line x1="249.039" y1="269.523" x2="252.831" y2="265.73"/>
<line x1="251.289" y1="270.579" x2="255.081" y2="270.579"/><line x1="253.185" y1="268.683" x2="253.185" y2="272.475"/><line x1="251.289" y1="268.683" x2="255.081" y2="272.475"/><line x1="251.289" y1="272.475" x2="255.081" y2="268.683"/>
<line x1="253.539" y1="276.52" x2="257.331" y2="276.52"/><line x1="255.435" y1="274.624" x2="255.435" y2="278.416"/><line x1="253.539" y1="274.624" x2="257.331" y2="278.416"/><line x1="253.539" y1="278.416" x2="257.331" y2="274.624"/>
<line x1="255.789" y1="283.079" x2="259.581" y2="283.079"/><line x1="257.685" y1="281.183" x2="257.685" y2="284.975"/><line x1="255.789" y1="281.183" x2="259.581" y2="284.975"/><line x1="255.789" y1="284.975" x2="259.581" y2="281.183"/>
<line x1="258.039" y1="267.607" x2="261.831" y2="267.607"/><line x1="259.935" y1="265.711" x2="259.935" y2="269.503"/><line x1="258.039" y1="265.711" x2="261.831" y2="269.503"/><line x1="258.039" y1="269.503" x2="261.831" y2="265.711"/>
<line x1="260.289" y1="276.63" x2="264.081" y2="276.63"/><line x1="262.185" y1="274.734" x2="262.185" y2="278.526"/><line x1="260.289" y1="274.734" x2="264.081" y2="278.526"/><line x1="260.289" y1="278.526" x2="264.081" y2="274.734"/>
<line x1="262.539" y1="281.854" x2="266.331" y2="281.854"/><line x1="264.435" y1="279.958" x2="264.435" y2="283.75"/><line x1="262.539" y1="279.958" x2="266.331" y2="283.75"/><line x1="262.539" y1="283.75" x2="266.331" y2="279.958"/>
<line x1="264.789" y1="297.091" x2="268.581" y2="297.091"/><line x1="266.685" y1="295.195" x2="266.685" y2="298.987"/><line x1="264.789" y1="295.195" x2="268.581" y2="298.987"/><line x1="264.789" y1="298.987" x2="268.581" y2="295.195"/>
<line x1="267.039" y1="310.329" x2="270.831" y2="310.329"/><line x1="268.935" y1="308.433" x2="268.935" y2="312.225"/><line x1="267.039" y1="308.433" x2="270.831" y2="312.225"/><line x1="267.039" y1="312.225" x2="270.831" y2="308.433"/>
<line x1="269.289" y1="296.563" x2="273.081" y2="296.563"/><line x1="271.185" y1="294.667" x2="271.185" y2="298.459"/><line x1="269.289" y1="294.667" x2="273.081" y2="298.459"/><line x1="269.289" y1="298.459" x2="273.081" y2="294.667"/>
<line x1="271.539" y1="305.471" x2="275.331" y2="305.471"/><line x1="273.435" y1="303.574" x2="273.435" y2="307.367"/><line x1="271.539" y1="303.574" x2="275.331" y2="307.367"/><line x1="271.539" y1="307.367" x2="275.331" y2="303.574"/>
<line x1="273.789" y1="293.766" x2="277.581" y2="293.766"/><line x1="275.685" y1="291.87" x2="275.685" y2="295.662"/><line x1="273.789" y1="291.87" x2="277.581" y2="295.662"/><line x1="273.789" y1="295.662" x2="277.581" y2="291.87"/>
<line x1="276.039" y1="309.029" x2="279.831" y2="309.029"/><line x1="277.935" y1="307.133" x2="277.935" y2="310.925"/><line x1="276.039" y1="307.133" x2="279.831" y2="310.925"/><line x1="276.039" y1="310.925" x2="279.831" y2="307.133"/>
<line x1="278.289" y1="298.614" x2="282.081" y2="298.614"/><line x1="280.185" y1="296.718" x2="280.185" y2="300.51"/><line x1="278.289" y1="296.718" x2="282.081" y2="300.51"/><line x1="278.289" y1="300.51" x2="282.081" y2="296.718"/>
<line x1="280.539" y1="297.425" x2="284.331" y2="297.425"/><line x1="282.435" y1="295.529" x2="282.435" y2="299.321"/><line x1="280.539" y1="295.529" x2="284.331" y2="299.321"/><line x1="280.539" y1="299.321" x2="284.331" y2="295.529"/>
<line x1="282.788" y1="316.899" x2="286.581" y2="316.899"/><line x1="284.685" y1="315.003" x2="284.685" y2="318.795"/><line x1="282.788" y1="315.003" x2="286.581" y2="318.795"/><line x1="282.788" y1="318.795" x2="286.581" y2="315.003"/>
<line x1="285.038" y1="314.282" x2="288.831" y2="314.282"/><line x1="286.934" y1="312.386" x2="286.934" y2="316.178"/><line x1="285.038" y1="312.386" x2="288.831" y2="316.178"/><line x1="285.038" y1="316.178" x2="288.831" y2="312.386"/>
<line x1="287.288" y1="295.525" x2="291.081" y2="295.525"/><line x1="289.184" y1="293.629" x2="289.184" y2="297.422"/><line x1="287.288" y1="293.629" x2="291.081" y2="297.422"/><line x1="287.288" y1="297.422" x2="291.081" y2="293.629"/>
<line x1="289.538" y1="294.689" x2="293.33" y2="294.689"/><line x1="291.434" y1="292.793" x2="291.434" y2="296.585"/><line x1="289.538" y1="292.793" x2="293.33" y2="296.585"/><line x1="289.538" y1="296.585" x2="293.33" y2="292.793"/>
<line x1="291.788" y1="277.164" x2="295.58" y2="277.164"/><line x1="293.684" y1="275.267" x2="293.684" y2="279.06"/><line x1="291.788" y1="275.267" x2="295.58" y2="279.06"/><line x1="291.788" y1="279.06" x2="295.58" y2="275.267"/>
<line x1="294.038" y1="288.097" x2="297.83" y2="288.097"/><line x1="295.934" y1="286.201" x2="295.934" y2="289.993"/><line x1="294.038" y1="286.201" x2="297.83" y2="289.993"/><line x1="294.038" y1="289.993" x2="297.83" y2="286.201"/>
<line x1="296.288" y1="289.62" x2="300.08" y2="289.62"/><line x1="298.184" y1="287.724" x2="298.184" y2="291.517"/><line x1="296.288" y1="287.724" x2="300.08" y2="291.517"/><line x1="296.288" y1="291.517" x2="300.08" y2="287.724"/>
<line x1="298.538" y1="285.522" x2="302.33" y2="285.522"/><line x1="300.434" y1="283.626" x2="300.434" y2="287.418"/><line x1="298.538" y1="283.626" x2="302.33" y2="287.418"/><line x1="298.538" y1="287.418" x2="302.33" y2="283.626"/>
<line x1="300.788" y1="274.167" x2="304.58" y2="274.167"/><line x1="302.684" y1="272.271" x2="302.684" y2="276.064"/><line x1="300.788" y1="272.271" x2="304.58" y2="276.064"/><line x1="300.788" y1="276.064" x2="304.58" y2="272.271"/>
<line x1="303.038" y1="268.188" x2="306.83" y2="268.188"/><line x1="304.934" y1="266.292" x2="304.934" y2="270.084"/><line x1="303.038" y1="266.292" x2="306.83" y2="270.084"/><line x1="303.038" y1="270.084" x2="306.83" y2="266.292"/>
<line x1="305.288" y1="261.82" x2="309.08" y2="261.82"/><line x1="307.184" y1="259.924" x2="307.184" y2="263.716"/><line x1="305.288" y1="259.924" x2="309.08" y2="263.716"/><line x1="305.288" y1="263.716" x2="309.08" y2="259.924"/>
<line x1="307.538" y1="246.111" x2="311.33" y2="246.111"/><line x1="309.434" y1="244.214" x2="309.434" y2="248.007"/><line x1="307.538" y1="244.214" x2="311.33" y2="248.007"/><line x1="307.538" y1="248.007" x2="311.33" y2="244.214"/>
<line x1="309.788" y1="242.149" x2="313.58" y2="242.149"/><line x1="311.684" y1="240.253" x2="311.684" y2="244.045"/><line x1="309.788" y1="240.253" x2="313.58" y2="244.045"/><line x1="309.788" y1="244.045" x2="313.58" y2="240.253"/>
<line x1="312.038" y1="236.257" x2="315.83" y2="236.257"/><line x1="313.934" y1="234.361" x2="313.934" y2="238.153"/><line x1="312.038" y1="234.361" x2="315.83" y2="238.153"/><line x1="312.038" y1="238.153" x2="315.83" y2="234.361"/>
<line x1="314.288" y1="233.727" x2="318.08" y2="233.727"/><line x1="316.184" y1="231.831" x2="316.184" y2="235.623"/><line x1="314.288" y1="231.831" x2="318.08" y2="235.623"/><line x1="314.288" y1="235.623" x2="318.08" y2="231.831"/>
<line x1="316.538" y1="236.114" x2="320.33" y2="236.114"/><line x1="318.434" y1="234.218" x2="318.434" y2="238.01"/><line x1="316.538" y1="234.218" x2="320.33" y2="238.01"/><line x1="316.538" y1="238.01" x2="320.33" y2="234.218"/>
<line x1="318.788" y1="225.816" x2="322.58" y2="225.816"/><line x1="320.684" y1="223.92" x2="320.684" y2="227.712"/><line x1="318.788" y1="223.92" x2="322.58" y2="227.712"/><line x1="318.788" y1="227.712" x2="322.58" y2="223.92"/>
<line x1="321.038" y1="237.565" x2="324.83" y2="237.565"/><line x1="322.934" y1="235.669" x2="322.934" y2="239.461"/><line x1="321.038" y1="235.669" x2="324.83" y2="239.461"/><line x1="321.038" y1="239.461" x2="324.83" y2="235.669"/>
<line x1="323.287" y1="243.761" x2="327.08" y2="243.761"/><line x1="325.184" y1="241.865" x2="325.184" y2="245.657"/><line x1="323.287" y1="241.865" x2="327.08" y2="245.657"/><line x1="323.287" y1="245.657" x2="327.08" y2="241.865"/>
<line x1="325.537" y1="252.362" x2="329.33" y2="252.362"/><line x1="327.433" y1="250.466" x2="327.433" y2="254.258"/><line x1="325.537" y1="250.466" x2="329.33" y2="254.258"/><line x1="325.537" y1="254.258" x2="329.33" y2="250.466"/>
<line x1="327.787" y1="228.318" x2="331.579" y2="228.318"/><line x1="329.683" y1="226.421" x2="329.683" y2="230.214"/><line x1="327.787" y1="226.421" x2="331.579" y2="230.214"/><line x1="327.787" y1="230.214" x2="331.579" y2="226.421"/>
<line x1="330.037" y1="212.424" x2="333.829" y2="212.424"/><line x1="331.933" y1="210.528" x2="331.933" y2="214.32"/><line x1="330.037" y1="210.528" x2="333.829" y2="214.32"/><line x1="330.037" y1="214.32" x2="333.829" y2="210.528"/>
<line x1="332.287" y1="192.599" x2="336.079" y2="192.599"/><line x1="334.183" y1="190.703" x2="334.183" y2="194.495"/><line x1="332.287" y1="190.703" x2="336.079" y2="194.495"/><line x1="332.287" y1="194.495" x2="336.079" y2="190.703"/>
<line x1="334.537" y1="185.974" x2="338.329" y2="185.974"/><line x1="336.433" y1="184.078" x2="336.433" y2="187.87"/><line x1="334.537" y1="184.078" x2="338.329" y2="187.87"/><line x1="334.537" y1="187.87" x2="338.329" y2="184.078"/>
<line x1="336.787" y1="205.246" x2="340.579" y2="205.246"/><line x1="338.683" y1="203.35" x2="338.683" y2="207.142"/><line x1="336.787" y1="203.35" x2="340.579" y2="207.142"/><line x1="336.787" y1="207.142" x2="340.579" y2="203.35"/>
<line x1="339.037" y1="195.225" x2="342.829" y2="195.225"/><line x1="340.933" y1="193.329" x2="340.933" y2="197.121"/><line x1="339.037" y1="193.329" x2="342.829" y2="197.121"/><line x1="339.037" y1="197.121" x2="342.829" y2="193.329"/>
<line x1="341.287" y1="193.343" x2="345.079" y2="193.343"/><line x1="343.183" y1="191.447" x2="343.183" y2="195.239"/><line x1="341.287" y1="191.447" x2="345.079" y2="195.239"/><line x1="341.287" y1="195.239" x2="345.079" y2="191.447"/>
<line x1="343.537" y1="169.556" x2="347.329" y2="169.556"/><line x1="345.433" y1="167.66" x2="345.433" y2="171.452"/><line x1="343.537" y1="167.66" x2="347.329" y2="171.452"/><line x1="343.537" y1="171.452" x2="347.329" y2="167.66"/>
<line x1="345.787" y1="142.795" x2="349.579" y2="142.795"/><line x1="347.683" y1="140.898" x2="347.683" y2="144.691"/><line x1="345.787" y1="140.898" x2="349.579" y2="144.691"/><line x1="345.787" y1="144.691" x2="349.579" y2="140.898"/>
<line x1="348.037" y1="130.363" x2="351.829" y2="130.363"/><line x1="349.933" y1="128.466" x2="349.933" y2="132.259"/><line x1="348.037" y1="128.466" x2="351.829" y2="132.259"/><line x1="348.037" y1="132.259" x2="351.829" y2="128.466"/>
<line x1="350.287" y1="136.743" x2="354.079" y2="136.743"/><line x1="352.183" y1="134.847" x2="352.183" y2="138.639"/><line x1="350.287" y1="134.847" x2="354.079" y2="138.639"/><line x1="350.287" y1="138.639" x2="354.079" y2="134.847"/>
<line x1="352.537" y1="146.337" x2="356.329" y2="146.337"/><line x1="354.433" y1="144.44" x2="354.433" y2="148.233"/><line x1="352.537" y1="144.44" x2="356.329" y2="148.233"/><line x1="352.537" y1="148.233" x2="356.329" y2="144.44"/>
<line x1="354.787" y1="169.65" x2="358.579" y2="169.65"/><line x1="356.683" y1="167.754" x2="356.683" y2="171.546"/><line x1="354.787" y1="167.754" x2="358.579" y2="171.546"/><line x1="354.787" y1="171.546" x2="358.579" y2="167.754"/>
<line x1="357.037" y1="176.67" x2="360.829" y2="176.67"/><line x1="358.933" y1="174.774" x2="358.933" y2="178.566"/><line x1="357.037" y1="174.774" x2="360.829" y2="178.566"/><line x1="357.037" y1="178.566" x2="360.829" y2="174.774"/>
<line x1="359.287" y1="189.395" x2="363.079" y2="189.395"/><line x1="361.183" y1="187.499" x2="361.183" y2="191.292"/><line x1="359.287" y1="187.499" x2="363.079" y2="191.292"/><line x1="359.287" y1="191.292" x2="363.079" y2="187.499"/>
<line x1="361.536" y1="200.291" x2="365.329" y2="200.291"/><line x1="363.433" y1="198.395" x2="363.433" y2="202.187"/><line x1="361.536" y1="198.395" x2="365.329" y2="202.187"/><line x1="361.536" y1="202.187" x2="365.329" y2="198.395"/>
<line x1="363.786" y1="202.661" x2="367.579" y2="202.661"/><line x1="365.683" y1="200.765" x2="365.683" y2="204.557"/><line x1="363.786" y1="200.765" x2="367.579" y2="204.557"/><line x1="363.786" y1="204.557" x2="367.579" y2="200.765"/>
<line x1="366.036" y1="187.999" x2="369.829" y2="187.999"/><line x1="367.932" y1="186.103" x2="367.932" y2="189.895"/><line x1="366.036" y1="186.103" x2="369.829" y2="189.895"/><line x1="366.036" y1="189.895" x2="369.829" y2="186.103"/>
<line x1="368.286" y1="177.195" x2="372.078" y2="177.195"/><line x1="370.182" y1="175.299" x2="370.182" y2="179.091"/><line x1="368.286" y1="175.299" x2="372.078" y2="179.091"/><line x1="368.286" y1="179.091" x2="372.078" y2="175.299"/>
<line x1="370.536" y1="181.256" x2="374.328" y2="181.256"/><line x1="372.432" y1="179.36" x2="372.432" y2="183.152"/><line x1="370.536" y1="179.36" x2="374.328" y2="183.152"/><line x1="370.536" y1="183.152" x2="374.328" y2="179.36"/>
<line x1="372.786" y1="172.945" x2="376.578" y2="172.945"/><line x1="374.682" y1="171.048" x2="374.682" y2="174.841"/><line x1="372.786" y1="171.048" x2="376.578" y2="174.841"/><line x1="372.786" y1="174.841" x2="376.578" y2="171.048"/>
<line x1="375.036" y1="186.485" x2="378.828" y2="186.485"/><line x1="376.932" y1="184.589" x2="376.932" y2="188.381"/><line x1="375.036" y1="184.589" x2="378.828" y2="188.381"/><line x1="375.036" y1="188.381" x2="378.828" y2="184.589"/>
<line x1="377.286" y1="203.035" x2="381.078" y2="203.035"/><line x1="379.182" y1="201.139" x2="379.182" y2="204.931"/><line x1="377.286" y1="201.139" x2="381.078" y2="204.931"/><line x1="377.286" y1="204.931" x2="381.078" y2="201.139"/>
<line x1="379.536" y1="200.214" x2="383.328" y2="200.214"/><line x1="381.432" y1="198.318" x2="381.432" y2="202.11"/><line x1="379.536" y1="198.318" x2="383.328" y2="202.11"/><line x1="379.536" y1="202.11" x2="383.328" y2="198.318"/>
<line x1="381.786" y1="209.033" x2="385.578" y2="209.033"/><line x1="383.682" y1="207.137" x2="383.682" y2="210.929"/><line x1="381.786" y1="207.137" x2="385.578" y2="210.929"/><line x1="381.786" y1="210.929" x2="385.578" y2="207.137"/>
<line x1="384.036" y1="176.996" x2="387.828" y2="176.996"/><line x1="385.932" y1="175.1" x2="385.932" y2="178.892"/><line x1="384.036" y1="175.1" x2="387.828" y2="178.892"/><line x1="384.036" y1="178.892" x2="387.828" y2="175.1"/>
<line x1="386.286" y1="187.841" x2="390.078" y2="187.841"/><line x1="388.182" y1="185.945" x2="388.182" y2="189.737"/><line x1="386.286" y1="185.945" x2="390.078" y2="189.737"/><line x1="386.286" y1="189.737" x2="390.078" y2="185.945"/>
<line x1="388.536" y1="177.119" x2="392.328" y2="177.119"/><line x1="390.432" y1="175.223" x2="390.432" y2="179.015"/><line x1="388.536" y1="175.223" x2="392.328" y2="179.015"/><line x1="388.536" y1="179.015" x2="392.328" y2="175.223"/>
<line x1="390.786" y1="167.609" x2="394.578" y2="167.609"/><line x1="392.682" y1="165.713" x2="392.682" y2="169.505"/><line x1="390.786" y1="165.713" x2="394.578" y2="169.505"/><line x1="390.786" y1="169.505" x2="394.578" y2="165.713"/>
<line x1="393.036" y1="168.511" x2="396.828" y2="168.511"/><line x1="394.932" y1="166.615" x2="394.932" y2="170.407"/><line x1="393.036" y1="166.615" x2="396.828" y2="170.407"/><line x1="393.036" y1="170.407" x2="396.828" y2="166.615"/>
<line x1="395.286" y1="164.238" x2="399.078" y2="164.238"/><line x1="397.182" y1="162.342" x2="397.182" y2="166.134"/><line x1="395.286" y1="162.342" x2="399.078" y2="166.134"/><line x1="395.286" y1="166.134" x2="399.078" y2="162.342"/>
<line x1="397.536" y1="172.803" x2="401.328" y2="172.803"/><line x1="399.432" y1="170.907" x2="399.432" y2="174.699"/><line x1="397.536" y1="170.907" x2="401.328" y2="174.699"/><line x1="397.536" y1="174.699" x2="401.328" y2="170.907"/>
<line x1="399.786" y1="172.643" x2="403.578" y2="172.643"/><line x1="401.682" y1="170.746" x2="401.682" y2="174.539"/><line x1="399.786" y1="170.746" x2="403.578" y2="174.539"/><line x1="399.786" y1="174.539" x2="403.578" y2="170.746"/>
<line x1="402.035" y1="176.076" x2="405.828" y2="176.076"/><line x1="403.932" y1="174.18" x2="403.932" y2="177.972"/><line x1="402.035" y1="174.18" x2="405.828" y2="177.972"/><line x1="402.035" y1="177.972" x2="405.828" y2="174.18"/>
<line x1="404.285" y1="185.663" x2="408.078" y2="185.663"/><line x1="406.182" y1="183.767" x2="406.182" y2="187.559"/><line x1="404.285" y1="183.767" x2="408.078" y2="187.559"/><line x1="404.285" y1="187.559" x2="408.078" y2="183.767"/>
<line x1="406.535" y1="200.521" x2="410.328" y2="200.521"/><line x1="408.431" y1="198.625" x2="408.431" y2="202.417"/><line x1="406.535" y1="198.625" x2="410.328" y2="202.417"/><line x1="406.535" y1="202.417" x2="410.328" y2="198.625"/>
<line x1="408.785" y1="196.514" x2="412.577" y2="196.514"/><line x1="410.681" y1="194.618" x2="410.681" y2="198.41"/><line x1="408.785" y1="194.618" x2="412.577" y2="198.41"/><line x1="408.785" y1="198.41" x2="412.577" y2="194.618"/>
<line x1="411.035" y1="194.473" x2="414.827" y2="194.473"/><line x1="412.931" y1="192.577" x2="412.931" y2="196.369"/><line x1="411.035" y1="192.577" x2="414.827" y2="196.369"/><line x1="411.035" y1="196.369" x2="414.827" y2="192.577"/>
<line x1="413.285" y1="215.094" x2="417.077" y2="215.094"/><line x1="415.181" y1="213.198" x2="415.181" y2="216.99"/><line x1="413.285" y1="213.198" x2="417.077" y2="216.99"/><line x1="413.285" y1="216.99" x2="417.077" y2="213.198"/>
<line x1="415.535" y1="192.297" x2="419.327" y2="192.297"/><line x1="417.431" y1="190.401" x2="417.431" y2="194.193"/><line x1="415.535" y1="190.401" x2="419.327" y2="194.193"/><line x1="415.535" y1="194.193" x2="419.327" y2="190.401"/>
<line x1="417.785" y1="157.355" x2="421.577" y2="157.355"/><line x1="419.681" y1="155.459" x2="419.681" y2="159.251"/><line x1="417.785" y1="155.459" x2="421.577" y2="159.251"/><line x1="417.785" y1="159.251" x2="421.577" y2="155.459"/>
<line x1="420.035" y1="143.646" x2="423.827" y2="143.646"/><line x1="421.931" y1="141.75" x2="421.931" y2="145.542"/><line x1="420.035" y1="141.75" x2="423.827" y2="145.542"/><line x1="420.035" y1="145.542" x2="423.827" y2="141.75"/>
<line x1="422.285" y1="151.76" x2="426.077" y2="151.76"/><line x1="424.181" y1="149.864" x2="424.181" y2="153.656"/><line x1="422.285" y1="149.864" x2="426.077" y2="153.656"/><line x1="422.285" y1="153.656" x2="426.077" y2="149.864"/>
<line x1="424.535" y1="151.702" x2="428.327" y2="151.702"/><line x1="426.431" y1="149.806" x2="426.431" y2="153.598"/><line x1="424.535" y1="149.806" x2="428.327" y2="153.598"/><line x1="424.535" y1="153.598" x2="428.327" y2="149.806"/>
<line x1="426.785" y1="171.507" x2="430.577" y2="171.507"/><line x1="428.681" y1="169.61" x2="428.681" y2="173.403"/><line x1="426.785" y1="169.61" x2="430.577" y2="173.403"/><line x1="426.785" y1="173.403" x2="430.577" y2="169.61"/>
<line x1="429.035" y1="164.156" x2="432.827" y2="164.156"/><line x1="430.931" y1="162.26" x2="430.931" y2="166.053"/><line x1="429.035" y1="162.26" x2="432.827" y2="166.053"/><line x1="429.035" y1="166.053" x2="432.827" y2="162.26"/>
<line x1="431.285" y1="173.95" x2="435.077" y2="173.95"/><line x1="433.181" y1="172.054" x2="433.181" y2="175.846"/><line x1="431.285" y1="172.054" x2="435.077" y2="175.846"/><line x1="431.285" y1="175.846" x2="435.077" y2="172.054"/>
<line x1="433.535" y1="179.638" x2="437.327" y2="179.638"/><line x1="435.431" y1="177.742" x2="435.431" y2="181.534"/><line x1="433.535" y1="177.742" x2="437.327" y2="181.534"/><line x1="433.535" y1="181.534" x2="437.327" y2="177.742"/>
<line x1="435.785" y1="160.753" x2="439.577" y2="160.753"/><line x1="437.681" y1="158.857" x2="437.681" y2="162.649"/><line x1="435.785" y1="158.857" x2="439.577" y2="162.649"/><line x1="435.785" y1="162.649" x2="439.577" y2="158.857"/>
<line x1="438.035" y1="159.292" x2="441.827" y2="159.292"/><line x1="439.931" y1="157.395" x2="439.931" y2="161.188"/><line x1="438.035" y1="157.395" x2="441.827" y2="161.188"/><line x1="438.035" y1="161.188" x2="441.827" y2="157.395"/>
<line x1="440.285" y1="157.218" x2="444.077" y2="157.218"/><line x1="442.181" y1="155.322" x2="442.181" y2="159.115"/><line x1="440.285" y1="155.322" x2="444.077" y2="159.115"/><line x1="440.285" y1="159.115" x2="444.077" y2="155.322"/>
<line x1="442.534" y1="154.46" x2="446.327" y2="154.46"/><line x1="444.431" y1="152.564" x2="444.431" y2="156.356"/><line x1="442.534" y1="152.564" x2="446.327" y2="156.356"/><line x1="442.534" y1="156.356" x2="446.327" y2="152.564"/>
<line x1="444.784" y1="139.434" x2="448.577" y2="139.434"/><line x1="446.681" y1="137.538" x2="446.681" y2="141.33"/><line x1="444.784" y1="137.538" x2="448.577" y2="141.33"/><line x1="444.784" y1="141.33" x2="448.577" y2="137.538"/>
<line x1="447.034" y1="143.636" x2="450.827" y2="143.636"/><line x1="448.93" y1="141.74" x2="448.93" y2="145.533"/><line x1="447.034" y1="141.74" x2="450.827" y2="145.533"/><line x1="447.034" y1="145.533" x2="450.827" y2="141.74"/>
<line x1="449.284" y1="151.338" x2="453.076" y2="151.338"/><line x1="451.18" y1="149.442" x2="451.18" y2="153.234"/><line x1="449.284" y1="149.442" x2="453.076" y2="153.234"/><line x1="449.284" y1="153.234" x2="453.076" y2="149.442"/>
<line x1="451.534" y1="151.963" x2="455.326" y2="151.963"/><line x1="453.43" y1="150.067" x2="453.43" y2="153.859"/><line x1="451.534" y1="150.067" x2="455.326" y2="153.859"/><line x1="451.534" y1="153.859" x2="455.326" y2="150.067"/>
<line x1="453.784" y1="116.01" x2="457.576" y2="116.01"/><line x1="455.68" y1="114.114" x2="455.68" y2="117.906"/><line x1="453.784" y1="114.114" x2="457.576" y2="117.906"/><line x1="453.784" y1="117.906" x2="457.576" y2="114.114"/>
<line x1="456.034" y1="105.554" x2="459.826" y2="105.554"/><line x1="457.93" y1="103.658" x2="457.93" y2="107.45"/><line x1="456.034" y1="103.658" x2="459.826" y2="107.45"/><line x1="456.034" y1="107.45" x2="459.826" y2="103.658"/>
<line x1="458.284" y1="101.428" x2="462.076" y2="101.428"/><line x1="460.18" y1="99.5315" x2="460.18" y2="103.324"/><line x1="458.284" y1="99.5315" x2="462.076" y2="103.324"/><line x1="458.284" y1="103.324" x2="462.076" y2="99.5315"/>
<line x1="460.534" y1="107.247" x2="464.326" y2="107.247"/><line x1="462.43" y1="105.351" x2="462.43" y2="109.143"/><line x1="460.534" y1="105.351" x2="464.326" y2="109.143"/><line x1="460.534" y1="109.143" x2="464.326" y2="105.351"/>
<line x1="462.784" y1="117.651" x2="466.576" y2="117.651"/><line x1="464.68" y1="115.755" x2="464.68" y2="119.548"/><line x1="462.784" y1="115.755" x2="466.576" y2="119.548"/><line x1="462.784" y1="119.548" x2="466.576" y2="115.755"/>
<line x1="465.034" y1="89.4978" x2="468.826" y2="89.4978"/><line x1="466.93" y1="87.6017" x2="466.93" y2="91.3939"/><line x1="465.034" y1="87.6017" x2="468.826" y2="91.3939"/><line x1="465.034" y1="91.3939" x2="468.826" y2="87.6017"/>
<line x1="467.284" y1="107.931" x2="471.076" y2="107.931"/><line x1="469.18" y1="106.035" x2="469.18" y2="109.827"/><line x1="467.284" y1="106.035" x2="471.076" y2="109.827"/><line x1="467.284" y1="109.827" x2="471.076" y2="106.035"/>
<line x1="469.534" y1="105.766" x2="473.326" y2="105.766"/><line x1="471.43" y1="103.87" x2="471.43" y2="107.662"/><line x1="469.534" y1="103.87" x2="473.326" y2="107.662"/><line x1="469.534" y1="107.662" x2="473.326" y2="103.87"/>
<line x1="471.784" y1="99.8245" x2="475.576" y2="99.8245"/><line x1="473.68" y1="97.9284" x2="473.68" y2="101.721"/><line x1="471.784" y1="97.9284" x2="475.576" y2="101.721"/><line x1="471.784" y1="101.721" x2="475.576" y2="97.9284"/>
<line x1="474.034" y1="99.8205" x2="477.826" y2="99.8205"/><line x1="475.93" y1="97.9244" x2="475.93" y2="101.717"/><line x1="474.034" y1="97.9244" x2="477.826" y2="101.717"/><line x1="474.034" y1="101.717" x2="477.826" y2="97.9244"/>
<line x1="476.284" y1="79.4831" x2="480.076" y2="79.4831"/><line x1="478.18" y1="77.587" x2="478.18" y2="81.3792"/><line x1="476.284" y1="77.587" x2="480.076" y2="81.3792"/><line x1="476.284" y1="81.3792" x2="480.076" y2="77.587"/>
</g>
<g stroke="black" stroke-width="1" fill="none">
<line x1="483.033" y1="49.8186" x2="486.826" y2="49.8186"/><line x1="484.93" y1="47.9226" x2="484.93" y2="51.7147"/><line x1="483.033" y1="47.9226" x2="486.826" y2="51.7147"/><line x1="483.033" y1="51.7147" x2="486.826" y2="47.9226"/>
<line x1="485.283" y1="58.7682" x2="489.076" y2="58.7682"/><line x1="487.179" y1="56.8721" x2="487.179" y2="60.6642"/><line x1="485.283" y1="56.8721" x2="489.076" y2="60.6642"/><line x1="485.283" y1="60.6642" x2="489.076" y2="56.8721"/>
</g>
<path d="M0.5,289.342h 566.929" fill="none" stroke="#0000ff"/>
<path d="M262.185,399.568v -358.233" fill="none" stroke="#0000ff"/>
<path d="M284.685,399.568v -358.233" fill="none" stroke="#0000ff"/>
<text xml:space="preserve" x="109.525" y="18.0128" fill="black" font-size="14.0403" font-family="Helvetica">^2 v.s. calibration factor without 1st bin and without last bin</text>
<text xml:space="preserve" x="101.94" y="18.0128" fill="black" font-size="14.0403" font-family="Times">&#0967;</text></svg>
