<?xml version="1.0" standalone="no"?>
<svg width="567.429" height="413.846" viewBox="0 0 567.429 413.846" xmlns="http://www.w3.org/2000/svg" shape-rendering="crispEdges">
<title>
figures/chi2zoomin_3PMTnpefilelist20.svg
</title>
<desc>
Creator: ROOT Version 6.18/04
CreationDate: Wed Nov  6 14:27:57 2019</desc>
<defs>
</defs>
<rect x="0.5" y="0" width="566.929" height="413.346" fill="white"/>
<rect x="57.1929" y="41.3346" width="453.543" height="330.677" fill="white"/>
<rect x="57.1929" y="41.3346" width="453.543" height="330.677" fill="none" stroke="black"/>
<path d="M57.1929,372.012h 453.543" fill="none" stroke="black"/>
<path d="M85.0755,41.3346v 330.677" fill="none" stroke="black" stroke-dasharray=" 1, 2"/>
<path d="M141.661,41.3346v 330.677" fill="none" stroke="black" stroke-dasharray=" 1, 2"/>
<path d="M198.246,41.3346v 330.677" fill="none" stroke="black" stroke-dasharray=" 1, 2"/>
<path d="M254.832,41.3346v 330.677" fill="none" stroke="black" stroke-dasharray=" 1, 2"/>
<path d="M311.417,41.3346v 330.677" fill="none" stroke="black" stroke-dasharray=" 1, 2"/>
<path d="M368.003,41.3346v 330.677" fill="none" stroke="black" stroke-dasharray=" 1, 2"/>
<path d="M424.588,41.3346v 330.677" fill="none" stroke="black" stroke-dasharray=" 1, 2"/>
<path d="M481.173,41.3346v 330.677" fill="none" stroke="black" stroke-dasharray=" 1, 2"/>
<path d="M85.0755,41.3346v 330.677" fill="none" stroke="black" stroke-dasharray=" 1, 2"/>
<path d="M481.173,41.3346v 330.677" fill="none" stroke="black" stroke-dasharray=" 1, 2"/>
<path d="M57.1929,372.012v -330.677" fill="none" stroke="black"/>
<path d="M57.1929,372.012h 453.543" fill="none" stroke="black"/>
<path d="M85.0755,362.091v 9.92031" fill="none" stroke="black"/>
<path d="M96.3926,367.052v 4.96016" fill="none" stroke="black"/>
<path d="M107.71,367.052v 4.96016" fill="none" stroke="black"/>
<path d="M119.027,367.052v 4.96016" fill="none" stroke="black"/>
<path d="M130.344,367.052v 4.96016" fill="none" stroke="black"/>
<path d="M141.661,362.091v 9.92031" fill="none" stroke="black"/>
<path d="M152.978,367.052v 4.96016" fill="none" stroke="black"/>
<path d="M164.295,367.052v 4.96016" fill="none" stroke="black"/>
<path d="M175.612,367.052v 4.96016" fill="none" stroke="black"/>
<path d="M186.929,367.052v 4.96016" fill="none" stroke="black"/>
<path d="M198.246,362.091v 9.92031" fill="none" stroke="black"/>
<path d="M209.563,367.052v 4.96016" fill="none" stroke="black"/>
<path d="M220.88,367.052v 4.96016" fill="none" stroke="black"/>
<path d="M232.198,367.052v 4.96016" fill="none" stroke="black"/>
<path d="M243.515,367.052v 4.96016" fill="none" stroke="black"/>
<path d="M254.832,362.091v 9.92031" fill="none" stroke="black"/>
<path d="M266.149,367.052v 4.96016" fill="none" stroke="black"/>
<path d="M277.466,367.052v 4.96016" fill="none" stroke="black"/>
<path d="M288.783,367.052v 4.96016" fill="none" stroke="black"/>
<path d="M300.1,367.052v 4.96016" fill="none" stroke="black"/>
<path d="M311.417,362.091v 9.92031" fill="none" stroke="black"/>
<path d="M322.734,367.052v 4.96016" fill="none" stroke="black"/>
<path d="M334.051,367.052v 4.96016" fill="none" stroke="black"/>
<path d="M345.368,367.052v 4.96016" fill="none" stroke="black"/>
<path d="M356.685,367.052v 4.96016" fill="none" stroke="black"/>
<path d="M368.003,362.091v 9.92031" fill="none" stroke="black"/>
<path d="M379.32,367.052v 4.96016" fill="none" stroke="black"/>
<path d="M390.637,367.052v 4.96016" fill="none" stroke="black"/>
<path d="M401.954,367.052v 4.96016" fill="none" stroke="black"/>
<path d="M413.271,367.052v 4.96016" fill="none" stroke="black"/>
<path d="M424.588,362.091v 9.92031" fill="none" stroke="black"/>
<path d="M435.905,367.052v 4.96016" fill="none" stroke="black"/>
<path d="M447.222,367.052v 4.96016" fill="none" stroke="black"/>
<path d="M458.539,367.052v 4.96016" fill="none" stroke="black"/>
<path d="M469.856,367.052v 4.96016" fill="none" stroke="black"/>
<path d="M481.173,362.091v 9.92031" fill="none" stroke="black"/>
<path d="M85.0755,362.091v 9.92031" fill="none" stroke="black"/>
<path d="M73.7584,367.052v 4.96016" fill="none" stroke="black"/>
<path d="M62.4413,367.052v 4.96016" fill="none" stroke="black"/>
<path d="M481.173,362.091v 9.92031" fill="none" stroke="black"/>
<path d="M492.49,367.052v 4.96016" fill="none" stroke="black"/>
<path d="M503.808,367.052v 4.96016" fill="none" stroke="black"/>
<text xml:space="preserve" x="72.0772" y="385.379" fill="black" font-size="13.7726" font-family="Helvetica">0.84</text>
<text xml:space="preserve" x="124.694" y="385.379" fill="black" font-size="13.7726" font-family="Helvetica">0.845</text>
<text xml:space="preserve" x="185.368" y="385.379" fill="black" font-size="13.7726" font-family="Helvetica">0.85</text>
<text xml:space="preserve" x="237.985" y="385.379" fill="black" font-size="13.7726" font-family="Helvetica">0.855</text>
<text xml:space="preserve" x="298.185" y="385.379" fill="black" font-size="13.7726" font-family="Helvetica">0.86</text>
<text xml:space="preserve" x="351.276" y="385.379" fill="black" font-size="13.7726" font-family="Helvetica">0.865</text>
<text xml:space="preserve" x="411.476" y="385.379" fill="black" font-size="13.7726" font-family="Helvetica">0.87</text>
<text xml:space="preserve" x="464.567" y="385.379" fill="black" font-size="13.7726" font-family="Helvetica">0.875</text>
<text xml:space="preserve" x="413.372" y="400.074" fill="black" font-size="13.7726" font-family="Helvetica">calibration factor</text>
<path d="M57.1929,372.012v -330.677" fill="none" stroke="black"/>
<path d="M70.7992,348.014h -13.6063" fill="none" stroke="black"/>
<path d="M63.9961,334.236h -6.80315" fill="none" stroke="black"/>
<path d="M63.9961,320.458h -6.80315" fill="none" stroke="black"/>
<path d="M63.9961,306.679h -6.80315" fill="none" stroke="black"/>
<path d="M70.7992,292.901h -13.6063" fill="none" stroke="black"/>
<path d="M63.9961,279.123h -6.80315" fill="none" stroke="black"/>
<path d="M63.9961,265.345h -6.80315" fill="none" stroke="black"/>
<path d="M63.9961,251.567h -6.80315" fill="none" stroke="black"/>
<path d="M70.7992,237.788h -13.6063" fill="none" stroke="black"/>
<path d="M63.9961,224.01h -6.80315" fill="none" stroke="black"/>
<path d="M63.9961,210.232h -6.80315" fill="none" stroke="black"/>
<path d="M63.9961,196.454h -6.80315" fill="none" stroke="black"/>
<path d="M70.7992,182.676h -13.6063" fill="none" stroke="black"/>
<path d="M63.9961,168.897h -6.80315" fill="none" stroke="black"/>
<path d="M63.9961,155.119h -6.80315" fill="none" stroke="black"/>
<path d="M63.9961,141.341h -6.80315" fill="none" stroke="black"/>
<path d="M70.7992,127.563h -13.6063" fill="none" stroke="black"/>
<path d="M63.9961,113.785h -6.80315" fill="none" stroke="black"/>
<path d="M63.9961,100.006h -6.80315" fill="none" stroke="black"/>
<path d="M63.9961,86.2281h -6.80315" fill="none" stroke="black"/>
<path d="M70.7992,72.4499h -13.6063" fill="none" stroke="black"/>
<path d="M70.7992,348.014h -13.6063" fill="none" stroke="black"/>
<path d="M63.9961,361.792h -6.80315" fill="none" stroke="black"/>
<path d="M70.7992,72.4499h -13.6063" fill="none" stroke="black"/>
<path d="M63.9961,58.6717h -6.80315" fill="none" stroke="black"/>
<path d="M63.9961,44.8935h -6.80315" fill="none" stroke="black"/>
<text xml:space="preserve" x="32.2594" y="352.672" fill="black" font-size="13.7726" font-family="Helvetica">358</text>
<text xml:space="preserve" x="32.2594" y="297.211" fill="black" font-size="13.7726" font-family="Helvetica">360</text>
<text xml:space="preserve" x="32.2594" y="242.225" fill="black" font-size="13.7726" font-family="Helvetica">362</text>
<text xml:space="preserve" x="32.2594" y="187.238" fill="black" font-size="13.7726" font-family="Helvetica">364</text>
<text xml:space="preserve" x="32.2594" y="132.252" fill="black" font-size="13.7726" font-family="Helvetica">366</text>
<text xml:space="preserve" x="32.2594" y="76.7914" fill="black" font-size="13.7726" font-family="Helvetica">368</text>
<g transform="rotate(-90,15.1947,45.98)">
<text xml:space="preserve" x="15.1947" y="45.98" fill="black" font-size="9.34839" font-family="Helvetica">2</text>
</g>
<g transform="rotate(-90,19.4608,50.2462)">
<text xml:space="preserve" x="19.4608" y="50.2462" fill="black" font-size="13.7726" font-family="Helvetica"> </text>
</g>
<g transform="rotate(-90,19.4608,57.3565)">
<text xml:space="preserve" x="19.4608" y="57.3565" fill="black" font-size="13.7726" font-family="Times">&#0967;</text>
</g>
<text xml:space="preserve" x="109.525" y="18.0128" fill="black" font-size="14.0403" font-family="Helvetica">^2 v.s. calibration factor without 1st bin and without last bin</text>
<text xml:space="preserve" x="101.94" y="18.0128" fill="black" font-size="14.0403" font-family="Times">&#0967;</text>
<g stroke="black" stroke-width="1" fill="none">
<line x1="144.292" y1="55.8999" x2="148.084" y2="55.8999"/><line x1="146.188" y1="54.0038" x2="146.188" y2="57.796"/><line x1="144.292" y1="54.0038" x2="148.084" y2="57.796"/><line x1="144.292" y1="57.796" x2="148.084" y2="54.0038"/>
<line x1="146.555" y1="66.1964" x2="150.347" y2="66.1964"/><line x1="148.451" y1="64.3004" x2="148.451" y2="68.0925"/><line x1="146.555" y1="64.3004" x2="150.347" y2="68.0925"/><line x1="146.555" y1="68.0925" x2="150.347" y2="64.3004"/>
<line x1="148.818" y1="61.091" x2="152.611" y2="61.091"/><line x1="150.715" y1="59.1949" x2="150.715" y2="62.9871"/><line x1="148.818" y1="59.1949" x2="152.611" y2="62.9871"/><line x1="148.818" y1="62.9871" x2="152.611" y2="59.1949"/>
<line x1="151.082" y1="70.9288" x2="154.874" y2="70.9288"/><line x1="152.978" y1="69.0327" x2="152.978" y2="72.8249"/><line x1="151.082" y1="69.0327" x2="154.874" y2="72.8249"/><line x1="151.082" y1="72.8249" x2="154.874" y2="69.0327"/>
<line x1="153.345" y1="76.0261" x2="157.137" y2="76.0261"/><line x1="155.241" y1="74.13" x2="155.241" y2="77.9221"/><line x1="153.345" y1="74.13" x2="157.137" y2="77.9221"/><line x1="153.345" y1="77.9221" x2="157.137" y2="74.13"/>
<line x1="155.609" y1="82.1056" x2="159.401" y2="82.1056"/><line x1="157.505" y1="80.2095" x2="157.505" y2="84.0017"/><line x1="155.609" y1="80.2095" x2="159.401" y2="84.0017"/><line x1="155.609" y1="84.0017" x2="159.401" y2="80.2095"/>
<line x1="157.872" y1="84.497" x2="161.664" y2="84.497"/><line x1="159.768" y1="82.6009" x2="159.768" y2="86.3931"/><line x1="157.872" y1="82.6009" x2="161.664" y2="86.3931"/><line x1="157.872" y1="86.3931" x2="161.664" y2="82.6009"/>
<line x1="160.136" y1="96.8894" x2="163.928" y2="96.8894"/><line x1="162.032" y1="94.9933" x2="162.032" y2="98.7855"/><line x1="160.136" y1="94.9933" x2="163.928" y2="98.7855"/><line x1="160.136" y1="98.7855" x2="163.928" y2="94.9933"/>
<line x1="162.399" y1="101.466" x2="166.191" y2="101.466"/><line x1="164.295" y1="99.5703" x2="164.295" y2="103.362"/><line x1="162.399" y1="99.5703" x2="166.191" y2="103.362"/><line x1="162.399" y1="103.362" x2="166.191" y2="99.5703"/>
<line x1="164.662" y1="111.773" x2="168.455" y2="111.773"/><line x1="166.558" y1="109.876" x2="166.558" y2="113.669"/><line x1="164.662" y1="109.876" x2="168.455" y2="113.669"/><line x1="164.662" y1="113.669" x2="168.455" y2="109.876"/>
<line x1="166.926" y1="112.295" x2="170.718" y2="112.295"/><line x1="168.822" y1="110.399" x2="168.822" y2="114.191"/><line x1="166.926" y1="110.399" x2="170.718" y2="114.191"/><line x1="166.926" y1="114.191" x2="170.718" y2="110.399"/>
<line x1="169.189" y1="119.49" x2="172.981" y2="119.49"/><line x1="171.085" y1="117.594" x2="171.085" y2="121.386"/><line x1="169.189" y1="117.594" x2="172.981" y2="121.386"/><line x1="169.189" y1="121.386" x2="172.981" y2="117.594"/>
<line x1="171.453" y1="128.277" x2="175.245" y2="128.277"/><line x1="173.349" y1="126.381" x2="173.349" y2="130.173"/><line x1="171.453" y1="126.381" x2="175.245" y2="130.173"/><line x1="171.453" y1="130.173" x2="175.245" y2="126.381"/>
<line x1="173.716" y1="131.771" x2="177.508" y2="131.771"/><line x1="175.612" y1="129.875" x2="175.612" y2="133.667"/><line x1="173.716" y1="129.875" x2="177.508" y2="133.667"/><line x1="173.716" y1="133.667" x2="177.508" y2="129.875"/>
<line x1="175.979" y1="145.797" x2="179.772" y2="145.797"/><line x1="177.876" y1="143.901" x2="177.876" y2="147.693"/><line x1="175.979" y1="143.901" x2="179.772" y2="147.693"/><line x1="175.979" y1="147.693" x2="179.772" y2="143.901"/>
<line x1="178.243" y1="148.202" x2="182.035" y2="148.202"/><line x1="180.139" y1="146.306" x2="180.139" y2="150.098"/><line x1="178.243" y1="146.306" x2="182.035" y2="150.098"/><line x1="178.243" y1="150.098" x2="182.035" y2="146.306"/>
<line x1="180.506" y1="154.257" x2="184.298" y2="154.257"/><line x1="182.402" y1="152.361" x2="182.402" y2="156.153"/><line x1="180.506" y1="152.361" x2="184.298" y2="156.153"/><line x1="180.506" y1="156.153" x2="184.298" y2="152.361"/>
<line x1="182.77" y1="161.175" x2="186.562" y2="161.175"/><line x1="184.666" y1="159.279" x2="184.666" y2="163.071"/><line x1="182.77" y1="159.279" x2="186.562" y2="163.071"/><line x1="182.77" y1="163.071" x2="186.562" y2="159.279"/>
<line x1="185.033" y1="168.135" x2="188.825" y2="168.135"/><line x1="186.929" y1="166.239" x2="186.929" y2="170.031"/><line x1="185.033" y1="166.239" x2="188.825" y2="170.031"/><line x1="185.033" y1="170.031" x2="188.825" y2="166.239"/>
<line x1="187.297" y1="183.83" x2="191.089" y2="183.83"/><line x1="189.193" y1="181.934" x2="189.193" y2="185.726"/><line x1="187.297" y1="181.934" x2="191.089" y2="185.726"/><line x1="187.297" y1="185.726" x2="191.089" y2="181.934"/>
<line x1="189.56" y1="190.283" x2="193.352" y2="190.283"/><line x1="191.456" y1="188.387" x2="191.456" y2="192.179"/><line x1="189.56" y1="188.387" x2="193.352" y2="192.179"/><line x1="189.56" y1="192.179" x2="193.352" y2="188.387"/>
<line x1="191.823" y1="200.985" x2="195.616" y2="200.985"/><line x1="193.719" y1="199.089" x2="193.719" y2="202.881"/><line x1="191.823" y1="199.089" x2="195.616" y2="202.881"/><line x1="191.823" y1="202.881" x2="195.616" y2="199.089"/>
<line x1="194.087" y1="207.201" x2="197.879" y2="207.201"/><line x1="195.983" y1="205.304" x2="195.983" y2="209.097"/><line x1="194.087" y1="205.304" x2="197.879" y2="209.097"/><line x1="194.087" y1="209.097" x2="197.879" y2="205.304"/>
<line x1="196.35" y1="209.185" x2="200.142" y2="209.185"/><line x1="198.246" y1="207.289" x2="198.246" y2="211.081"/><line x1="196.35" y1="207.289" x2="200.142" y2="211.081"/><line x1="196.35" y1="211.081" x2="200.142" y2="207.289"/>
<line x1="198.614" y1="212.289" x2="202.406" y2="212.289"/><line x1="200.51" y1="210.392" x2="200.51" y2="214.185"/><line x1="198.614" y1="210.392" x2="202.406" y2="214.185"/><line x1="198.614" y1="214.185" x2="202.406" y2="210.392"/>
<line x1="200.877" y1="221.888" x2="204.669" y2="221.888"/><line x1="202.773" y1="219.992" x2="202.773" y2="223.785"/><line x1="200.877" y1="219.992" x2="204.669" y2="223.785"/><line x1="200.877" y1="223.785" x2="204.669" y2="219.992"/>
<line x1="203.14" y1="228.458" x2="206.933" y2="228.458"/><line x1="205.037" y1="226.562" x2="205.037" y2="230.354"/><line x1="203.14" y1="226.562" x2="206.933" y2="230.354"/><line x1="203.14" y1="230.354" x2="206.933" y2="226.562"/>
<line x1="205.404" y1="231.845" x2="209.196" y2="231.845"/><line x1="207.3" y1="229.949" x2="207.3" y2="233.741"/><line x1="205.404" y1="229.949" x2="209.196" y2="233.741"/><line x1="205.404" y1="233.741" x2="209.196" y2="229.949"/>
<line x1="207.667" y1="234.007" x2="211.459" y2="234.007"/><line x1="209.563" y1="232.111" x2="209.563" y2="235.903"/><line x1="207.667" y1="232.111" x2="211.459" y2="235.903"/><line x1="207.667" y1="235.903" x2="211.459" y2="232.111"/>
<line x1="209.931" y1="231.563" x2="213.723" y2="231.563"/><line x1="211.827" y1="229.667" x2="211.827" y2="233.459"/><line x1="209.931" y1="229.667" x2="213.723" y2="233.459"/><line x1="209.931" y1="233.459" x2="213.723" y2="229.667"/>
<line x1="212.194" y1="231.691" x2="215.986" y2="231.691"/><line x1="214.09" y1="229.794" x2="214.09" y2="233.587"/><line x1="212.194" y1="229.794" x2="215.986" y2="233.587"/><line x1="212.194" y1="233.587" x2="215.986" y2="229.794"/>
<line x1="214.458" y1="232.218" x2="218.25" y2="232.218"/><line x1="216.354" y1="230.322" x2="216.354" y2="234.114"/><line x1="214.458" y1="230.322" x2="218.25" y2="234.114"/><line x1="214.458" y1="234.114" x2="218.25" y2="230.322"/>
<line x1="216.721" y1="241.612" x2="220.513" y2="241.612"/><line x1="218.617" y1="239.716" x2="218.617" y2="243.508"/><line x1="216.721" y1="239.716" x2="220.513" y2="243.508"/><line x1="216.721" y1="243.508" x2="220.513" y2="239.716"/>
<line x1="218.984" y1="248.885" x2="222.777" y2="248.885"/><line x1="220.88" y1="246.989" x2="220.88" y2="250.781"/><line x1="218.984" y1="246.989" x2="222.777" y2="250.781"/><line x1="218.984" y1="250.781" x2="222.777" y2="246.989"/>
<line x1="221.248" y1="248.915" x2="225.04" y2="248.915"/><line x1="223.144" y1="247.019" x2="223.144" y2="250.811"/><line x1="221.248" y1="247.019" x2="225.04" y2="250.811"/><line x1="221.248" y1="250.811" x2="225.04" y2="247.019"/>
<line x1="223.511" y1="251.518" x2="227.303" y2="251.518"/><line x1="225.407" y1="249.621" x2="225.407" y2="253.414"/><line x1="223.511" y1="249.621" x2="227.303" y2="253.414"/><line x1="223.511" y1="253.414" x2="227.303" y2="249.621"/>
<line x1="225.775" y1="257.199" x2="229.567" y2="257.199"/><line x1="227.671" y1="255.303" x2="227.671" y2="259.095"/><line x1="225.775" y1="255.303" x2="229.567" y2="259.095"/><line x1="225.775" y1="259.095" x2="229.567" y2="255.303"/>
<line x1="228.038" y1="263.248" x2="231.83" y2="263.248"/><line x1="229.934" y1="261.352" x2="229.934" y2="265.144"/><line x1="228.038" y1="261.352" x2="231.83" y2="265.144"/><line x1="228.038" y1="265.144" x2="231.83" y2="261.352"/>
<line x1="230.301" y1="265.712" x2="234.094" y2="265.712"/><line x1="232.198" y1="263.816" x2="232.198" y2="267.608"/><line x1="230.301" y1="263.816" x2="234.094" y2="267.608"/><line x1="230.301" y1="267.608" x2="234.094" y2="263.816"/>
<line x1="232.565" y1="267.382" x2="236.357" y2="267.382"/><line x1="234.461" y1="265.486" x2="234.461" y2="269.278"/><line x1="232.565" y1="265.486" x2="236.357" y2="269.278"/><line x1="232.565" y1="269.278" x2="236.357" y2="265.486"/>
<line x1="234.828" y1="275.11" x2="238.62" y2="275.11"/><line x1="236.724" y1="273.214" x2="236.724" y2="277.006"/><line x1="234.828" y1="273.214" x2="238.62" y2="277.006"/><line x1="234.828" y1="277.006" x2="238.62" y2="273.214"/>
<line x1="237.092" y1="279.898" x2="240.884" y2="279.898"/><line x1="238.988" y1="278.002" x2="238.988" y2="281.794"/><line x1="237.092" y1="278.002" x2="240.884" y2="281.794"/><line x1="237.092" y1="281.794" x2="240.884" y2="278.002"/>
<line x1="239.355" y1="280.565" x2="243.147" y2="280.565"/><line x1="241.251" y1="278.669" x2="241.251" y2="282.461"/><line x1="239.355" y1="278.669" x2="243.147" y2="282.461"/><line x1="239.355" y1="282.461" x2="243.147" y2="278.669"/>
<line x1="241.619" y1="283.967" x2="245.411" y2="283.967"/><line x1="243.515" y1="282.071" x2="243.515" y2="285.863"/><line x1="241.619" y1="282.071" x2="245.411" y2="285.863"/><line x1="241.619" y1="285.863" x2="245.411" y2="282.071"/>
<line x1="243.882" y1="290.597" x2="247.674" y2="290.597"/><line x1="245.778" y1="288.701" x2="245.778" y2="292.494"/><line x1="243.882" y1="288.701" x2="247.674" y2="292.494"/><line x1="243.882" y1="292.494" x2="247.674" y2="288.701"/>
<line x1="246.145" y1="292.418" x2="249.938" y2="292.418"/><line x1="248.041" y1="290.522" x2="248.041" y2="294.314"/><line x1="246.145" y1="290.522" x2="249.938" y2="294.314"/><line x1="246.145" y1="294.314" x2="249.938" y2="290.522"/>
<line x1="248.409" y1="288.574" x2="252.201" y2="288.574"/><line x1="250.305" y1="286.678" x2="250.305" y2="290.47"/><line x1="248.409" y1="286.678" x2="252.201" y2="290.47"/><line x1="248.409" y1="290.47" x2="252.201" y2="286.678"/>
<line x1="250.672" y1="294.573" x2="254.464" y2="294.573"/><line x1="252.568" y1="292.677" x2="252.568" y2="296.469"/><line x1="250.672" y1="292.677" x2="254.464" y2="296.469"/><line x1="250.672" y1="296.469" x2="254.464" y2="292.677"/>
<line x1="252.936" y1="295.922" x2="256.728" y2="295.922"/><line x1="254.832" y1="294.026" x2="254.832" y2="297.818"/><line x1="252.936" y1="294.026" x2="256.728" y2="297.818"/><line x1="252.936" y1="297.818" x2="256.728" y2="294.026"/>
<line x1="255.199" y1="296.069" x2="258.991" y2="296.069"/><line x1="257.095" y1="294.172" x2="257.095" y2="297.965"/><line x1="255.199" y1="294.172" x2="258.991" y2="297.965"/><line x1="255.199" y1="297.965" x2="258.991" y2="294.172"/>
<line x1="257.462" y1="294.275" x2="261.255" y2="294.275"/><line x1="259.359" y1="292.379" x2="259.359" y2="296.171"/><line x1="257.462" y1="292.379" x2="261.255" y2="296.171"/><line x1="257.462" y1="296.171" x2="261.255" y2="292.379"/>
<line x1="259.726" y1="294.482" x2="263.518" y2="294.482"/><line x1="261.622" y1="292.586" x2="261.622" y2="296.378"/><line x1="259.726" y1="292.586" x2="263.518" y2="296.378"/><line x1="259.726" y1="296.378" x2="263.518" y2="292.586"/>
<line x1="261.989" y1="295.585" x2="265.781" y2="295.585"/><line x1="263.885" y1="293.689" x2="263.885" y2="297.481"/><line x1="261.989" y1="293.689" x2="265.781" y2="297.481"/><line x1="261.989" y1="297.481" x2="265.781" y2="293.689"/>
<line x1="264.253" y1="302.343" x2="268.045" y2="302.343"/><line x1="266.149" y1="300.447" x2="266.149" y2="304.239"/><line x1="264.253" y1="300.447" x2="268.045" y2="304.239"/><line x1="264.253" y1="304.239" x2="268.045" y2="300.447"/>
<line x1="266.516" y1="305.537" x2="270.308" y2="305.537"/><line x1="268.412" y1="303.641" x2="268.412" y2="307.433"/><line x1="266.516" y1="303.641" x2="270.308" y2="307.433"/><line x1="266.516" y1="307.433" x2="270.308" y2="303.641"/>
<line x1="268.78" y1="311.507" x2="272.572" y2="311.507"/><line x1="270.676" y1="309.611" x2="270.676" y2="313.403"/><line x1="268.78" y1="309.611" x2="272.572" y2="313.403"/><line x1="268.78" y1="313.403" x2="272.572" y2="309.611"/>
<line x1="271.043" y1="305.887" x2="274.835" y2="305.887"/><line x1="272.939" y1="303.991" x2="272.939" y2="307.784"/><line x1="271.043" y1="303.991" x2="274.835" y2="307.784"/><line x1="271.043" y1="307.784" x2="274.835" y2="303.991"/>
<line x1="273.306" y1="304.175" x2="277.099" y2="304.175"/><line x1="275.202" y1="302.279" x2="275.202" y2="306.072"/><line x1="273.306" y1="302.279" x2="277.099" y2="306.072"/><line x1="273.306" y1="306.072" x2="277.099" y2="302.279"/>
<line x1="275.57" y1="301.591" x2="279.362" y2="301.591"/><line x1="277.466" y1="299.695" x2="277.466" y2="303.487"/><line x1="275.57" y1="299.695" x2="279.362" y2="303.487"/><line x1="275.57" y1="303.487" x2="279.362" y2="299.695"/>
<line x1="277.833" y1="303.589" x2="281.625" y2="303.589"/><line x1="279.729" y1="301.693" x2="279.729" y2="305.485"/><line x1="277.833" y1="301.693" x2="281.625" y2="305.485"/><line x1="277.833" y1="305.485" x2="281.625" y2="301.693"/>
<line x1="280.097" y1="312.313" x2="283.889" y2="312.313"/><line x1="281.993" y1="310.417" x2="281.993" y2="314.209"/><line x1="280.097" y1="310.417" x2="283.889" y2="314.209"/><line x1="280.097" y1="314.209" x2="283.889" y2="310.417"/>
<line x1="282.36" y1="316.899" x2="286.152" y2="316.899"/><line x1="284.256" y1="315.003" x2="284.256" y2="318.795"/><line x1="282.36" y1="315.003" x2="286.152" y2="318.795"/><line x1="282.36" y1="318.795" x2="286.152" y2="315.003"/>
<line x1="284.623" y1="314.559" x2="288.416" y2="314.559"/><line x1="286.52" y1="312.663" x2="286.52" y2="316.455"/><line x1="284.623" y1="312.663" x2="288.416" y2="316.455"/><line x1="284.623" y1="316.455" x2="288.416" y2="312.663"/>
<line x1="286.887" y1="309.063" x2="290.679" y2="309.063"/><line x1="288.783" y1="307.167" x2="288.783" y2="310.959"/><line x1="286.887" y1="307.167" x2="290.679" y2="310.959"/><line x1="286.887" y1="310.959" x2="290.679" y2="307.167"/>
<line x1="289.15" y1="305.689" x2="292.942" y2="305.689"/><line x1="291.046" y1="303.793" x2="291.046" y2="307.585"/><line x1="289.15" y1="303.793" x2="292.942" y2="307.585"/><line x1="289.15" y1="307.585" x2="292.942" y2="303.793"/>
<line x1="291.414" y1="296.908" x2="295.206" y2="296.908"/><line x1="293.31" y1="295.012" x2="293.31" y2="298.804"/><line x1="291.414" y1="295.012" x2="295.206" y2="298.804"/><line x1="291.414" y1="298.804" x2="295.206" y2="295.012"/>
<line x1="293.677" y1="300.596" x2="297.469" y2="300.596"/><line x1="295.573" y1="298.7" x2="295.573" y2="302.492"/><line x1="293.677" y1="298.7" x2="297.469" y2="302.492"/><line x1="293.677" y1="302.492" x2="297.469" y2="298.7"/>
<line x1="295.941" y1="297.484" x2="299.733" y2="297.484"/><line x1="297.837" y1="295.588" x2="297.837" y2="299.38"/><line x1="295.941" y1="295.588" x2="299.733" y2="299.38"/><line x1="295.941" y1="299.38" x2="299.733" y2="295.588"/>
<line x1="298.204" y1="299.01" x2="301.996" y2="299.01"/><line x1="300.1" y1="297.114" x2="300.1" y2="300.906"/><line x1="298.204" y1="297.114" x2="301.996" y2="300.906"/><line x1="298.204" y1="300.906" x2="301.996" y2="297.114"/>
<line x1="300.467" y1="298.241" x2="304.26" y2="298.241"/><line x1="302.363" y1="296.345" x2="302.363" y2="300.137"/><line x1="300.467" y1="296.345" x2="304.26" y2="300.137"/><line x1="300.467" y1="300.137" x2="304.26" y2="296.345"/>
<line x1="302.731" y1="294.157" x2="306.523" y2="294.157"/><line x1="304.627" y1="292.261" x2="304.627" y2="296.053"/><line x1="302.731" y1="292.261" x2="306.523" y2="296.053"/><line x1="302.731" y1="296.053" x2="306.523" y2="292.261"/>
<line x1="304.994" y1="288.256" x2="308.786" y2="288.256"/><line x1="306.89" y1="286.36" x2="306.89" y2="290.152"/><line x1="304.994" y1="286.36" x2="308.786" y2="290.152"/><line x1="304.994" y1="290.152" x2="308.786" y2="286.36"/>
<line x1="307.258" y1="286.951" x2="311.05" y2="286.951"/><line x1="309.154" y1="285.055" x2="309.154" y2="288.848"/><line x1="307.258" y1="285.055" x2="311.05" y2="288.848"/><line x1="307.258" y1="288.848" x2="311.05" y2="285.055"/>
<line x1="309.521" y1="284.119" x2="313.313" y2="284.119"/><line x1="311.417" y1="282.223" x2="311.417" y2="286.015"/><line x1="309.521" y1="282.223" x2="313.313" y2="286.015"/><line x1="309.521" y1="286.015" x2="313.313" y2="282.223"/>
<line x1="311.784" y1="273.558" x2="315.577" y2="273.558"/><line x1="313.681" y1="271.662" x2="313.681" y2="275.454"/><line x1="311.784" y1="271.662" x2="315.577" y2="275.454"/><line x1="311.784" y1="275.454" x2="315.577" y2="271.662"/>
<line x1="314.048" y1="272.955" x2="317.84" y2="272.955"/><line x1="315.944" y1="271.059" x2="315.944" y2="274.851"/><line x1="314.048" y1="271.059" x2="317.84" y2="274.851"/><line x1="314.048" y1="274.851" x2="317.84" y2="271.059"/>
<line x1="316.311" y1="271.849" x2="320.103" y2="271.849"/><line x1="318.207" y1="269.952" x2="318.207" y2="273.745"/><line x1="316.311" y1="269.952" x2="320.103" y2="273.745"/><line x1="316.311" y1="273.745" x2="320.103" y2="269.952"/>
<line x1="318.575" y1="268.344" x2="322.367" y2="268.344"/><line x1="320.471" y1="266.448" x2="320.471" y2="270.24"/><line x1="318.575" y1="266.448" x2="322.367" y2="270.24"/><line x1="318.575" y1="270.24" x2="322.367" y2="266.448"/>
<line x1="320.838" y1="267.575" x2="324.63" y2="267.575"/><line x1="322.734" y1="265.679" x2="322.734" y2="269.471"/><line x1="320.838" y1="265.679" x2="324.63" y2="269.471"/><line x1="320.838" y1="269.471" x2="324.63" y2="265.679"/>
<line x1="323.102" y1="264.192" x2="326.894" y2="264.192"/><line x1="324.998" y1="262.296" x2="324.998" y2="266.088"/><line x1="323.102" y1="262.296" x2="326.894" y2="266.088"/><line x1="323.102" y1="266.088" x2="326.894" y2="262.296"/>
<line x1="325.365" y1="259.582" x2="329.157" y2="259.582"/><line x1="327.261" y1="257.686" x2="327.261" y2="261.478"/><line x1="325.365" y1="257.686" x2="329.157" y2="261.478"/><line x1="325.365" y1="261.478" x2="329.157" y2="257.686"/>
<line x1="327.628" y1="259.353" x2="331.421" y2="259.353"/><line x1="329.524" y1="257.456" x2="329.524" y2="261.249"/><line x1="327.628" y1="257.456" x2="331.421" y2="261.249"/><line x1="327.628" y1="261.249" x2="331.421" y2="257.456"/>
<line x1="329.892" y1="257.415" x2="333.684" y2="257.415"/><line x1="331.788" y1="255.519" x2="331.788" y2="259.311"/><line x1="329.892" y1="255.519" x2="333.684" y2="259.311"/><line x1="329.892" y1="259.311" x2="333.684" y2="255.519"/>
<line x1="332.155" y1="253.615" x2="335.947" y2="253.615"/><line x1="334.051" y1="251.719" x2="334.051" y2="255.511"/><line x1="332.155" y1="251.719" x2="335.947" y2="255.511"/><line x1="332.155" y1="255.511" x2="335.947" y2="251.719"/>
<line x1="334.419" y1="262.418" x2="338.211" y2="262.418"/><line x1="336.315" y1="260.522" x2="336.315" y2="264.314"/><line x1="334.419" y1="260.522" x2="338.211" y2="264.314"/><line x1="334.419" y1="264.314" x2="338.211" y2="260.522"/>
<line x1="336.682" y1="263.621" x2="340.474" y2="263.621"/><line x1="338.578" y1="261.725" x2="338.578" y2="265.517"/><line x1="336.682" y1="261.725" x2="340.474" y2="265.517"/><line x1="336.682" y1="265.517" x2="340.474" y2="261.725"/>
<line x1="338.945" y1="262.587" x2="342.738" y2="262.587"/><line x1="340.842" y1="260.691" x2="340.842" y2="264.483"/><line x1="338.945" y1="260.691" x2="342.738" y2="264.483"/><line x1="338.945" y1="264.483" x2="342.738" y2="260.691"/>
<line x1="341.209" y1="263.657" x2="345.001" y2="263.657"/><line x1="343.105" y1="261.761" x2="343.105" y2="265.553"/><line x1="341.209" y1="261.761" x2="345.001" y2="265.553"/><line x1="341.209" y1="265.553" x2="345.001" y2="261.761"/>
<line x1="343.472" y1="260.916" x2="347.264" y2="260.916"/><line x1="345.368" y1="259.02" x2="345.368" y2="262.812"/><line x1="343.472" y1="259.02" x2="347.264" y2="262.812"/><line x1="343.472" y1="262.812" x2="347.264" y2="259.02"/>
<line x1="345.736" y1="253.974" x2="349.528" y2="253.974"/><line x1="347.632" y1="252.078" x2="347.632" y2="255.87"/><line x1="345.736" y1="252.078" x2="349.528" y2="255.87"/><line x1="345.736" y1="255.87" x2="349.528" y2="252.078"/>
<line x1="347.999" y1="254.096" x2="351.791" y2="254.096"/><line x1="349.895" y1="252.2" x2="349.895" y2="255.992"/><line x1="347.999" y1="252.2" x2="351.791" y2="255.992"/><line x1="347.999" y1="255.992" x2="351.791" y2="252.2"/>
<line x1="350.263" y1="249.234" x2="354.055" y2="249.234"/><line x1="352.159" y1="247.338" x2="352.159" y2="251.13"/><line x1="350.263" y1="247.338" x2="354.055" y2="251.13"/><line x1="350.263" y1="251.13" x2="354.055" y2="247.338"/>
<line x1="352.526" y1="242.68" x2="356.318" y2="242.68"/><line x1="354.422" y1="240.784" x2="354.422" y2="244.576"/><line x1="352.526" y1="240.784" x2="356.318" y2="244.576"/><line x1="352.526" y1="244.576" x2="356.318" y2="240.784"/>
<line x1="354.789" y1="243.433" x2="358.582" y2="243.433"/><line x1="356.685" y1="241.537" x2="356.685" y2="245.329"/><line x1="354.789" y1="241.537" x2="358.582" y2="245.329"/><line x1="354.789" y1="245.329" x2="358.582" y2="241.537"/>
<line x1="357.053" y1="236.801" x2="360.845" y2="236.801"/><line x1="358.949" y1="234.905" x2="358.949" y2="238.697"/><line x1="357.053" y1="234.905" x2="360.845" y2="238.697"/><line x1="357.053" y1="238.697" x2="360.845" y2="234.905"/>
<line x1="359.316" y1="234.158" x2="363.108" y2="234.158"/><line x1="361.212" y1="232.262" x2="361.212" y2="236.054"/><line x1="359.316" y1="232.262" x2="363.108" y2="236.054"/><line x1="359.316" y1="236.054" x2="363.108" y2="232.262"/>
<line x1="361.58" y1="226.673" x2="365.372" y2="226.673"/><line x1="363.476" y1="224.777" x2="363.476" y2="228.569"/><line x1="361.58" y1="224.777" x2="365.372" y2="228.569"/><line x1="361.58" y1="228.569" x2="365.372" y2="224.777"/>
<line x1="363.843" y1="217.068" x2="367.635" y2="217.068"/><line x1="365.739" y1="215.172" x2="365.739" y2="218.964"/><line x1="363.843" y1="215.172" x2="367.635" y2="218.964"/><line x1="363.843" y1="218.964" x2="367.635" y2="215.172"/>
<line x1="366.106" y1="203.311" x2="369.899" y2="203.311"/><line x1="368.003" y1="201.415" x2="368.003" y2="205.207"/><line x1="366.106" y1="201.415" x2="369.899" y2="205.207"/><line x1="366.106" y1="205.207" x2="369.899" y2="201.415"/>
<line x1="368.37" y1="209.987" x2="372.162" y2="209.987"/><line x1="370.266" y1="208.091" x2="370.266" y2="211.883"/><line x1="368.37" y1="208.091" x2="372.162" y2="211.883"/><line x1="368.37" y1="211.883" x2="372.162" y2="208.091"/>
<line x1="370.633" y1="207.272" x2="374.425" y2="207.272"/><line x1="372.529" y1="205.376" x2="372.529" y2="209.168"/><line x1="370.633" y1="205.376" x2="374.425" y2="209.168"/><line x1="370.633" y1="209.168" x2="374.425" y2="205.376"/>
<line x1="372.897" y1="206.402" x2="376.689" y2="206.402"/><line x1="374.793" y1="204.506" x2="374.793" y2="208.298"/><line x1="372.897" y1="204.506" x2="376.689" y2="208.298"/><line x1="372.897" y1="208.298" x2="376.689" y2="204.506"/>
<line x1="375.16" y1="199.72" x2="378.952" y2="199.72"/><line x1="377.056" y1="197.824" x2="377.056" y2="201.616"/><line x1="375.16" y1="197.824" x2="378.952" y2="201.616"/><line x1="375.16" y1="201.616" x2="378.952" y2="197.824"/>
<line x1="377.424" y1="193.268" x2="381.216" y2="193.268"/><line x1="379.32" y1="191.372" x2="379.32" y2="195.164"/><line x1="377.424" y1="191.372" x2="381.216" y2="195.164"/><line x1="377.424" y1="195.164" x2="381.216" y2="191.372"/>
<line x1="379.687" y1="184.644" x2="383.479" y2="184.644"/><line x1="381.583" y1="182.747" x2="381.583" y2="186.54"/><line x1="379.687" y1="182.747" x2="383.479" y2="186.54"/><line x1="379.687" y1="186.54" x2="383.479" y2="182.747"/>
<line x1="381.95" y1="187.666" x2="385.743" y2="187.666"/><line x1="383.846" y1="185.77" x2="383.846" y2="189.562"/><line x1="381.95" y1="185.77" x2="385.743" y2="189.562"/><line x1="381.95" y1="189.562" x2="385.743" y2="185.77"/>
<line x1="384.214" y1="179.969" x2="388.006" y2="179.969"/><line x1="386.11" y1="178.073" x2="386.11" y2="181.865"/><line x1="384.214" y1="178.073" x2="388.006" y2="181.865"/><line x1="384.214" y1="181.865" x2="388.006" y2="178.073"/>
<line x1="386.477" y1="176.465" x2="390.269" y2="176.465"/><line x1="388.373" y1="174.569" x2="388.373" y2="178.361"/><line x1="386.477" y1="174.569" x2="390.269" y2="178.361"/><line x1="386.477" y1="178.361" x2="390.269" y2="174.569"/>
<line x1="388.741" y1="177.744" x2="392.533" y2="177.744"/><line x1="390.637" y1="175.848" x2="390.637" y2="179.64"/><line x1="388.741" y1="175.848" x2="392.533" y2="179.64"/><line x1="388.741" y1="179.64" x2="392.533" y2="175.848"/>
<line x1="391.004" y1="176.438" x2="394.796" y2="176.438"/><line x1="392.9" y1="174.542" x2="392.9" y2="178.334"/><line x1="391.004" y1="174.542" x2="394.796" y2="178.334"/><line x1="391.004" y1="178.334" x2="394.796" y2="174.542"/>
<line x1="393.267" y1="176.629" x2="397.06" y2="176.629"/><line x1="395.164" y1="174.733" x2="395.164" y2="178.525"/><line x1="393.267" y1="174.733" x2="397.06" y2="178.525"/><line x1="393.267" y1="178.525" x2="397.06" y2="174.733"/>
<line x1="395.531" y1="172.388" x2="399.323" y2="172.388"/><line x1="397.427" y1="170.492" x2="397.427" y2="174.284"/><line x1="395.531" y1="170.492" x2="399.323" y2="174.284"/><line x1="395.531" y1="174.284" x2="399.323" y2="170.492"/>
<line x1="397.794" y1="166.418" x2="401.586" y2="166.418"/><line x1="399.69" y1="164.522" x2="399.69" y2="168.315"/><line x1="397.794" y1="164.522" x2="401.586" y2="168.315"/><line x1="397.794" y1="168.315" x2="401.586" y2="164.522"/>
<line x1="400.058" y1="169.328" x2="403.85" y2="169.328"/><line x1="401.954" y1="167.432" x2="401.954" y2="171.224"/><line x1="400.058" y1="167.432" x2="403.85" y2="171.224"/><line x1="400.058" y1="171.224" x2="403.85" y2="167.432"/>
<line x1="402.321" y1="171.401" x2="406.113" y2="171.401"/><line x1="404.217" y1="169.505" x2="404.217" y2="173.297"/><line x1="402.321" y1="169.505" x2="406.113" y2="173.297"/><line x1="402.321" y1="173.297" x2="406.113" y2="169.505"/>
<line x1="404.585" y1="166.913" x2="408.377" y2="166.913"/><line x1="406.481" y1="165.016" x2="406.481" y2="168.809"/><line x1="404.585" y1="165.016" x2="408.377" y2="168.809"/><line x1="404.585" y1="168.809" x2="408.377" y2="165.016"/>
<line x1="406.848" y1="163.316" x2="410.64" y2="163.316"/><line x1="408.744" y1="161.42" x2="408.744" y2="165.212"/><line x1="406.848" y1="161.42" x2="410.64" y2="165.212"/><line x1="406.848" y1="165.212" x2="410.64" y2="161.42"/>
<line x1="409.111" y1="168.233" x2="412.904" y2="168.233"/><line x1="411.007" y1="166.337" x2="411.007" y2="170.129"/><line x1="409.111" y1="166.337" x2="412.904" y2="170.129"/><line x1="409.111" y1="170.129" x2="412.904" y2="166.337"/>
<line x1="411.375" y1="162.399" x2="415.167" y2="162.399"/><line x1="413.271" y1="160.503" x2="413.271" y2="164.295"/><line x1="411.375" y1="160.503" x2="415.167" y2="164.295"/><line x1="411.375" y1="164.295" x2="415.167" y2="160.503"/>
<line x1="413.638" y1="162.341" x2="417.43" y2="162.341"/><line x1="415.534" y1="160.445" x2="415.534" y2="164.238"/><line x1="413.638" y1="160.445" x2="417.43" y2="164.238"/><line x1="413.638" y1="164.238" x2="417.43" y2="160.445"/>
<line x1="415.902" y1="153.399" x2="419.694" y2="153.399"/><line x1="417.798" y1="151.503" x2="417.798" y2="155.295"/><line x1="415.902" y1="151.503" x2="419.694" y2="155.295"/><line x1="415.902" y1="155.295" x2="419.694" y2="151.503"/>
<line x1="418.165" y1="143.638" x2="421.957" y2="143.638"/><line x1="420.061" y1="141.742" x2="420.061" y2="145.534"/><line x1="418.165" y1="141.742" x2="421.957" y2="145.534"/><line x1="418.165" y1="145.534" x2="421.957" y2="141.742"/>
<line x1="420.428" y1="142.341" x2="424.221" y2="142.341"/><line x1="422.325" y1="140.444" x2="422.325" y2="144.237"/><line x1="420.428" y1="140.444" x2="424.221" y2="144.237"/><line x1="420.428" y1="144.237" x2="424.221" y2="140.444"/>
<line x1="422.692" y1="137.244" x2="426.484" y2="137.244"/><line x1="424.588" y1="135.348" x2="424.588" y2="139.14"/><line x1="422.692" y1="135.348" x2="426.484" y2="139.14"/><line x1="422.692" y1="139.14" x2="426.484" y2="135.348"/>
<line x1="424.955" y1="127.545" x2="428.747" y2="127.545"/><line x1="426.851" y1="125.649" x2="426.851" y2="129.441"/><line x1="424.955" y1="125.649" x2="428.747" y2="129.441"/><line x1="424.955" y1="129.441" x2="428.747" y2="125.649"/>
<line x1="427.219" y1="133.484" x2="431.011" y2="133.484"/><line x1="429.115" y1="131.588" x2="429.115" y2="135.38"/><line x1="427.219" y1="131.588" x2="431.011" y2="135.38"/><line x1="427.219" y1="135.38" x2="431.011" y2="131.588"/>
<line x1="429.482" y1="127.597" x2="433.274" y2="127.597"/><line x1="431.378" y1="125.701" x2="431.378" y2="129.493"/><line x1="429.482" y1="125.701" x2="433.274" y2="129.493"/><line x1="429.482" y1="129.493" x2="433.274" y2="125.701"/>
<line x1="431.746" y1="116.761" x2="435.538" y2="116.761"/><line x1="433.642" y1="114.865" x2="433.642" y2="118.658"/><line x1="431.746" y1="114.865" x2="435.538" y2="118.658"/><line x1="431.746" y1="118.658" x2="435.538" y2="114.865"/>
<line x1="434.009" y1="115.195" x2="437.801" y2="115.195"/><line x1="435.905" y1="113.299" x2="435.905" y2="117.091"/><line x1="434.009" y1="113.299" x2="437.801" y2="117.091"/><line x1="434.009" y1="117.091" x2="437.801" y2="113.299"/>
<line x1="436.272" y1="108.695" x2="440.065" y2="108.695"/><line x1="438.168" y1="106.799" x2="438.168" y2="110.591"/><line x1="436.272" y1="106.799" x2="440.065" y2="110.591"/><line x1="436.272" y1="110.591" x2="440.065" y2="106.799"/>
<line x1="438.536" y1="107.487" x2="442.328" y2="107.487"/><line x1="440.432" y1="105.591" x2="440.432" y2="109.384"/><line x1="438.536" y1="105.591" x2="442.328" y2="109.384"/><line x1="438.536" y1="109.384" x2="442.328" y2="105.591"/>
<line x1="440.799" y1="102.195" x2="444.591" y2="102.195"/><line x1="442.695" y1="100.298" x2="442.695" y2="104.091"/><line x1="440.799" y1="100.298" x2="444.591" y2="104.091"/><line x1="440.799" y1="104.091" x2="444.591" y2="100.298"/>
<line x1="443.063" y1="98.0562" x2="446.855" y2="98.0562"/><line x1="444.959" y1="96.1602" x2="444.959" y2="99.9523"/><line x1="443.063" y1="96.1602" x2="446.855" y2="99.9523"/><line x1="443.063" y1="99.9523" x2="446.855" y2="96.1602"/>
<line x1="445.326" y1="89.6098" x2="449.118" y2="89.6098"/><line x1="447.222" y1="87.7137" x2="447.222" y2="91.5059"/><line x1="445.326" y1="87.7137" x2="449.118" y2="91.5059"/><line x1="445.326" y1="91.5059" x2="449.118" y2="87.7137"/>
<line x1="447.589" y1="88.3279" x2="451.382" y2="88.3279"/><line x1="449.486" y1="86.4319" x2="449.486" y2="90.224"/><line x1="447.589" y1="86.4319" x2="451.382" y2="90.224"/><line x1="447.589" y1="90.224" x2="451.382" y2="86.4319"/>
<line x1="449.853" y1="77.0588" x2="453.645" y2="77.0588"/><line x1="451.749" y1="75.1627" x2="451.749" y2="78.9548"/><line x1="449.853" y1="75.1627" x2="453.645" y2="78.9548"/><line x1="449.853" y1="78.9548" x2="453.645" y2="75.1627"/>
<line x1="452.116" y1="80.6414" x2="455.908" y2="80.6414"/><line x1="454.012" y1="78.7453" x2="454.012" y2="82.5375"/><line x1="452.116" y1="78.7453" x2="455.908" y2="82.5375"/><line x1="452.116" y1="82.5375" x2="455.908" y2="78.7453"/>
<line x1="454.38" y1="69.4484" x2="458.172" y2="69.4484"/><line x1="456.276" y1="67.5524" x2="456.276" y2="71.3445"/><line x1="454.38" y1="67.5524" x2="458.172" y2="71.3445"/><line x1="454.38" y1="71.3445" x2="458.172" y2="67.5524"/>
<line x1="456.643" y1="65.8677" x2="460.435" y2="65.8677"/><line x1="458.539" y1="63.9716" x2="458.539" y2="67.7638"/><line x1="456.643" y1="63.9716" x2="460.435" y2="67.7638"/><line x1="456.643" y1="67.7638" x2="460.435" y2="63.9716"/>
<line x1="458.907" y1="57.616" x2="462.699" y2="57.616"/><line x1="460.803" y1="55.7199" x2="460.803" y2="59.5121"/><line x1="458.907" y1="55.7199" x2="462.699" y2="59.5121"/><line x1="458.907" y1="59.5121" x2="462.699" y2="55.7199"/>
<line x1="461.17" y1="51.7024" x2="464.962" y2="51.7024"/><line x1="463.066" y1="49.8063" x2="463.066" y2="53.5985"/><line x1="461.17" y1="49.8063" x2="464.962" y2="53.5985"/><line x1="461.17" y1="53.5985" x2="464.962" y2="49.8063"/>
<line x1="463.433" y1="51.9872" x2="467.226" y2="51.9872"/><line x1="465.329" y1="50.0911" x2="465.329" y2="53.8833"/><line x1="463.433" y1="50.0911" x2="467.226" y2="53.8833"/><line x1="463.433" y1="53.8833" x2="467.226" y2="50.0911"/>
<line x1="465.697" y1="42.345" x2="469.489" y2="42.345"/><line x1="467.593" y1="40.4489" x2="467.593" y2="44.241"/><line x1="465.697" y1="40.4489" x2="469.489" y2="44.241"/><line x1="465.697" y1="44.241" x2="469.489" y2="40.4489"/>
</g>
<path d="M0.5,289.342h 566.929" fill="none" stroke="#0000ff"/>
<path d="M270.676,399.568v -358.233" fill="none" stroke="#0000ff"/>
<path d="M284.256,399.568v -358.233" fill="none" stroke="#0000ff"/>
<text xml:space="preserve" x="109.525" y="18.0128" fill="black" font-size="14.0403" font-family="Helvetica">^2 v.s. calibration factor without 1st bin and without last bin</text>
<text xml:space="preserve" x="101.94" y="18.0128" fill="black" font-size="14.0403" font-family="Times">&#0967;</text></svg>
