<?xml version="1.0" standalone="no"?>
<svg width="567.429" height="413.846" viewBox="0 0 567.429 413.846" xmlns="http://www.w3.org/2000/svg" shape-rendering="crispEdges">
<title>
figures/chi2zoomin_6PMTnpefilelist20.svg
</title>
<desc>
Creator: ROOT Version 6.18/04
CreationDate: Wed Nov  6 14:28:55 2019</desc>
<defs>
</defs>
<rect x="0.5" y="0" width="566.929" height="413.346" fill="white"/>
<rect x="57.1929" y="41.3346" width="453.543" height="330.677" fill="white"/>
<rect x="57.1929" y="41.3346" width="453.543" height="330.677" fill="none" stroke="black"/>
<path d="M57.1929,372.012h 453.543" fill="none" stroke="black"/>
<path d="M97.3449,41.3346v 330.677" fill="none" stroke="black" stroke-dasharray=" 1, 2"/>
<path d="M153.593,41.3346v 330.677" fill="none" stroke="black" stroke-dasharray=" 1, 2"/>
<path d="M209.842,41.3346v 330.677" fill="none" stroke="black" stroke-dasharray=" 1, 2"/>
<path d="M266.091,41.3346v 330.677" fill="none" stroke="black" stroke-dasharray=" 1, 2"/>
<path d="M322.339,41.3346v 330.677" fill="none" stroke="black" stroke-dasharray=" 1, 2"/>
<path d="M378.588,41.3346v 330.677" fill="none" stroke="black" stroke-dasharray=" 1, 2"/>
<path d="M434.836,41.3346v 330.677" fill="none" stroke="black" stroke-dasharray=" 1, 2"/>
<path d="M491.085,41.3346v 330.677" fill="none" stroke="black" stroke-dasharray=" 1, 2"/>
<path d="M97.3449,41.3346v 330.677" fill="none" stroke="black" stroke-dasharray=" 1, 2"/>
<path d="M491.085,41.3346v 330.677" fill="none" stroke="black" stroke-dasharray=" 1, 2"/>
<path d="M57.1929,372.012v -330.677" fill="none" stroke="black"/>
<path d="M57.1929,372.012h 453.543" fill="none" stroke="black"/>
<path d="M97.3449,362.091v 9.92031" fill="none" stroke="black"/>
<path d="M108.595,367.052v 4.96016" fill="none" stroke="black"/>
<path d="M119.844,367.052v 4.96016" fill="none" stroke="black"/>
<path d="M131.094,367.052v 4.96016" fill="none" stroke="black"/>
<path d="M142.344,367.052v 4.96016" fill="none" stroke="black"/>
<path d="M153.593,362.091v 9.92031" fill="none" stroke="black"/>
<path d="M164.843,367.052v 4.96016" fill="none" stroke="black"/>
<path d="M176.093,367.052v 4.96016" fill="none" stroke="black"/>
<path d="M187.343,367.052v 4.96016" fill="none" stroke="black"/>
<path d="M198.592,367.052v 4.96016" fill="none" stroke="black"/>
<path d="M209.842,362.091v 9.92031" fill="none" stroke="black"/>
<path d="M221.092,367.052v 4.96016" fill="none" stroke="black"/>
<path d="M232.341,367.052v 4.96016" fill="none" stroke="black"/>
<path d="M243.591,367.052v 4.96016" fill="none" stroke="black"/>
<path d="M254.841,367.052v 4.96016" fill="none" stroke="black"/>
<path d="M266.091,362.091v 9.92031" fill="none" stroke="black"/>
<path d="M277.34,367.052v 4.96016" fill="none" stroke="black"/>
<path d="M288.59,367.052v 4.96016" fill="none" stroke="black"/>
<path d="M299.84,367.052v 4.96016" fill="none" stroke="black"/>
<path d="M311.09,367.052v 4.96016" fill="none" stroke="black"/>
<path d="M322.339,362.091v 9.92031" fill="none" stroke="black"/>
<path d="M333.589,367.052v 4.96016" fill="none" stroke="black"/>
<path d="M344.839,367.052v 4.96016" fill="none" stroke="black"/>
<path d="M356.088,367.052v 4.96016" fill="none" stroke="black"/>
<path d="M367.338,367.052v 4.96016" fill="none" stroke="black"/>
<path d="M378.588,362.091v 9.92031" fill="none" stroke="black"/>
<path d="M389.838,367.052v 4.96016" fill="none" stroke="black"/>
<path d="M401.087,367.052v 4.96016" fill="none" stroke="black"/>
<path d="M412.337,367.052v 4.96016" fill="none" stroke="black"/>
<path d="M423.587,367.052v 4.96016" fill="none" stroke="black"/>
<path d="M434.836,362.091v 9.92031" fill="none" stroke="black"/>
<path d="M446.086,367.052v 4.96016" fill="none" stroke="black"/>
<path d="M457.336,367.052v 4.96016" fill="none" stroke="black"/>
<path d="M468.586,367.052v 4.96016" fill="none" stroke="black"/>
<path d="M479.835,367.052v 4.96016" fill="none" stroke="black"/>
<path d="M491.085,362.091v 9.92031" fill="none" stroke="black"/>
<path d="M97.3449,362.091v 9.92031" fill="none" stroke="black"/>
<path d="M86.0952,367.052v 4.96016" fill="none" stroke="black"/>
<path d="M74.8454,367.052v 4.96016" fill="none" stroke="black"/>
<path d="M63.5957,367.052v 4.96016" fill="none" stroke="black"/>
<path d="M491.085,362.091v 9.92031" fill="none" stroke="black"/>
<path d="M502.335,367.052v 4.96016" fill="none" stroke="black"/>
<text xml:space="preserve" x="80.6096" y="385.379" fill="black" font-size="13.7726" font-family="Helvetica">1.095</text>
<text xml:space="preserve" x="145.076" y="385.379" fill="black" font-size="13.7726" font-family="Helvetica">1.1</text>
<text xml:space="preserve" x="192.953" y="385.379" fill="black" font-size="13.7726" font-family="Helvetica">1.105</text>
<text xml:space="preserve" x="254.101" y="385.379" fill="black" font-size="13.7726" font-family="Helvetica">1.11</text>
<text xml:space="preserve" x="305.296" y="385.379" fill="black" font-size="13.7726" font-family="Helvetica">1.115</text>
<text xml:space="preserve" x="365.496" y="385.379" fill="black" font-size="13.7726" font-family="Helvetica">1.12</text>
<text xml:space="preserve" x="418.113" y="385.379" fill="black" font-size="13.7726" font-family="Helvetica">1.125</text>
<text xml:space="preserve" x="477.839" y="385.379" fill="black" font-size="13.7726" font-family="Helvetica">1.13</text>
<text xml:space="preserve" x="413.372" y="400.074" fill="black" font-size="13.7726" font-family="Helvetica">calibration factor</text>
<path d="M57.1929,372.012v -330.677" fill="none" stroke="black"/>
<path d="M70.7992,366.578h -13.6063" fill="none" stroke="black"/>
<path d="M63.9961,352.8h -6.80315" fill="none" stroke="black"/>
<path d="M63.9961,339.022h -6.80315" fill="none" stroke="black"/>
<path d="M63.9961,325.244h -6.80315" fill="none" stroke="black"/>
<path d="M70.7992,311.465h -13.6063" fill="none" stroke="black"/>
<path d="M63.9961,297.687h -6.80315" fill="none" stroke="black"/>
<path d="M63.9961,283.909h -6.80315" fill="none" stroke="black"/>
<path d="M63.9961,270.131h -6.80315" fill="none" stroke="black"/>
<path d="M70.7992,256.353h -13.6063" fill="none" stroke="black"/>
<path d="M63.9961,242.574h -6.80315" fill="none" stroke="black"/>
<path d="M63.9961,228.796h -6.80315" fill="none" stroke="black"/>
<path d="M63.9961,215.018h -6.80315" fill="none" stroke="black"/>
<path d="M70.7992,201.24h -13.6063" fill="none" stroke="black"/>
<path d="M63.9961,187.461h -6.80315" fill="none" stroke="black"/>
<path d="M63.9961,173.683h -6.80315" fill="none" stroke="black"/>
<path d="M63.9961,159.905h -6.80315" fill="none" stroke="black"/>
<path d="M70.7992,146.127h -13.6063" fill="none" stroke="black"/>
<path d="M63.9961,132.349h -6.80315" fill="none" stroke="black"/>
<path d="M63.9961,118.57h -6.80315" fill="none" stroke="black"/>
<path d="M63.9961,104.792h -6.80315" fill="none" stroke="black"/>
<path d="M70.7992,91.014h -13.6063" fill="none" stroke="black"/>
<path d="M70.7992,366.578h -13.6063" fill="none" stroke="black"/>
<path d="M70.7992,91.014h -13.6063" fill="none" stroke="black"/>
<path d="M63.9961,77.2358h -6.80315" fill="none" stroke="black"/>
<path d="M63.9961,63.4576h -6.80315" fill="none" stroke="black"/>
<path d="M63.9961,49.6794h -6.80315" fill="none" stroke="black"/>
<text xml:space="preserve" x="32.2594" y="371.158" fill="black" font-size="13.7726" font-family="Helvetica">132</text>
<text xml:space="preserve" x="32.2594" y="316.172" fill="black" font-size="13.7726" font-family="Helvetica">134</text>
<text xml:space="preserve" x="32.2594" y="260.712" fill="black" font-size="13.7726" font-family="Helvetica">136</text>
<text xml:space="preserve" x="32.2594" y="205.725" fill="black" font-size="13.7726" font-family="Helvetica">138</text>
<text xml:space="preserve" x="32.2594" y="150.739" fill="black" font-size="13.7726" font-family="Helvetica">140</text>
<text xml:space="preserve" x="32.2594" y="96.2263" fill="black" font-size="13.7726" font-family="Helvetica">142</text>
<g transform="rotate(-90,15.1947,45.98)">
<text xml:space="preserve" x="15.1947" y="45.98" fill="black" font-size="9.34839" font-family="Helvetica">2</text>
</g>
<g transform="rotate(-90,19.4608,50.2462)">
<text xml:space="preserve" x="19.4608" y="50.2462" fill="black" font-size="13.7726" font-family="Helvetica"> </text>
</g>
<g transform="rotate(-90,19.4608,57.3565)">
<text xml:space="preserve" x="19.4608" y="57.3565" fill="black" font-size="13.7726" font-family="Times">&#0967;</text>
</g>
<text xml:space="preserve" x="109.525" y="18.0128" fill="black" font-size="14.0403" font-family="Helvetica">^2 v.s. calibration factor without 1st bin and without last bin</text>
<text xml:space="preserve" x="101.94" y="18.0128" fill="black" font-size="14.0403" font-family="Times">&#0967;</text>
<g stroke="black" stroke-width="1" fill="none">
<line x1="75.1993" y1="44.2579" x2="78.9915" y2="44.2579"/><line x1="77.0954" y1="42.3618" x2="77.0954" y2="46.154"/><line x1="75.1993" y1="42.3618" x2="78.9915" y2="46.154"/><line x1="75.1993" y1="46.154" x2="78.9915" y2="42.3618"/>
</g>
<g stroke="black" stroke-width="1" fill="none">
<line x1="79.6992" y1="43.2181" x2="83.4913" y2="43.2181"/><line x1="81.5953" y1="41.322" x2="81.5953" y2="45.1142"/><line x1="79.6992" y1="41.322" x2="83.4913" y2="45.1142"/><line x1="79.6992" y1="45.1142" x2="83.4913" y2="41.322"/>
</g>
<g stroke="black" stroke-width="1" fill="none">
<line x1="90.9489" y1="43.3165" x2="94.7411" y2="43.3165"/><line x1="92.845" y1="41.4204" x2="92.845" y2="45.2126"/><line x1="90.9489" y1="41.4204" x2="94.7411" y2="45.2126"/><line x1="90.9489" y1="45.2126" x2="94.7411" y2="41.4204"/>
<line x1="93.1988" y1="66.068" x2="96.991" y2="66.068"/><line x1="95.0949" y1="64.1719" x2="95.0949" y2="67.9641"/><line x1="93.1988" y1="64.1719" x2="96.991" y2="67.9641"/><line x1="93.1988" y1="67.9641" x2="96.991" y2="64.1719"/>
<line x1="95.4488" y1="71.8198" x2="99.241" y2="71.8198"/><line x1="97.3449" y1="69.9237" x2="97.3449" y2="73.7159"/><line x1="95.4488" y1="69.9237" x2="99.241" y2="73.7159"/><line x1="95.4488" y1="73.7159" x2="99.241" y2="69.9237"/>
<line x1="97.6987" y1="61.0122" x2="101.491" y2="61.0122"/><line x1="99.5948" y1="59.1161" x2="99.5948" y2="62.9083"/><line x1="97.6987" y1="59.1161" x2="101.491" y2="62.9083"/><line x1="97.6987" y1="62.9083" x2="101.491" y2="59.1161"/>
<line x1="99.9487" y1="80.9658" x2="103.741" y2="80.9658"/><line x1="101.845" y1="79.0697" x2="101.845" y2="82.8618"/><line x1="99.9487" y1="79.0697" x2="103.741" y2="82.8618"/><line x1="99.9487" y1="82.8618" x2="103.741" y2="79.0697"/>
<line x1="102.199" y1="98.3519" x2="105.991" y2="98.3519"/><line x1="104.095" y1="96.4558" x2="104.095" y2="100.248"/><line x1="102.199" y1="96.4558" x2="105.991" y2="100.248"/><line x1="102.199" y1="100.248" x2="105.991" y2="96.4558"/>
<line x1="104.449" y1="81.1397" x2="108.241" y2="81.1397"/><line x1="106.345" y1="79.2436" x2="106.345" y2="83.0358"/><line x1="104.449" y1="79.2436" x2="108.241" y2="83.0358"/><line x1="104.449" y1="83.0358" x2="108.241" y2="79.2436"/>
<line x1="106.699" y1="72.2062" x2="110.491" y2="72.2062"/><line x1="108.595" y1="70.3101" x2="108.595" y2="74.1023"/><line x1="106.699" y1="70.3101" x2="110.491" y2="74.1023"/><line x1="106.699" y1="74.1023" x2="110.491" y2="70.3101"/>
<line x1="108.948" y1="63.9205" x2="112.741" y2="63.9205"/><line x1="110.845" y1="62.0244" x2="110.845" y2="65.8166"/><line x1="108.948" y1="62.0244" x2="112.741" y2="65.8166"/><line x1="108.948" y1="65.8166" x2="112.741" y2="62.0244"/>
<line x1="111.198" y1="77.2107" x2="114.991" y2="77.2107"/><line x1="113.094" y1="75.3146" x2="113.094" y2="79.1068"/><line x1="111.198" y1="75.3146" x2="114.991" y2="79.1068"/><line x1="111.198" y1="79.1068" x2="114.991" y2="75.3146"/>
<line x1="113.448" y1="78.2579" x2="117.241" y2="78.2579"/><line x1="115.344" y1="76.3618" x2="115.344" y2="80.154"/><line x1="113.448" y1="76.3618" x2="117.241" y2="80.154"/><line x1="113.448" y1="80.154" x2="117.241" y2="76.3618"/>
<line x1="115.698" y1="84.909" x2="119.49" y2="84.909"/><line x1="117.594" y1="83.0129" x2="117.594" y2="86.805"/><line x1="115.698" y1="83.0129" x2="119.49" y2="86.805"/><line x1="115.698" y1="86.805" x2="119.49" y2="83.0129"/>
<line x1="117.948" y1="79.1736" x2="121.74" y2="79.1736"/><line x1="119.844" y1="77.2775" x2="119.844" y2="81.0697"/><line x1="117.948" y1="77.2775" x2="121.74" y2="81.0697"/><line x1="117.948" y1="81.0697" x2="121.74" y2="77.2775"/>
<line x1="120.198" y1="102.517" x2="123.99" y2="102.517"/><line x1="122.094" y1="100.621" x2="122.094" y2="104.413"/><line x1="120.198" y1="100.621" x2="123.99" y2="104.413"/><line x1="120.198" y1="104.413" x2="123.99" y2="100.621"/>
<line x1="122.448" y1="93.0275" x2="126.24" y2="93.0275"/><line x1="124.344" y1="91.1314" x2="124.344" y2="94.9235"/><line x1="122.448" y1="91.1314" x2="126.24" y2="94.9235"/><line x1="122.448" y1="94.9235" x2="126.24" y2="91.1314"/>
<line x1="124.698" y1="96.1708" x2="128.49" y2="96.1708"/><line x1="126.594" y1="94.2747" x2="126.594" y2="98.0669"/><line x1="124.698" y1="94.2747" x2="128.49" y2="98.0669"/><line x1="124.698" y1="98.0669" x2="128.49" y2="94.2747"/>
<line x1="126.948" y1="90.3671" x2="130.74" y2="90.3671"/><line x1="128.844" y1="88.471" x2="128.844" y2="92.2632"/><line x1="126.948" y1="88.471" x2="130.74" y2="92.2632"/><line x1="126.948" y1="92.2632" x2="130.74" y2="88.471"/>
<line x1="129.198" y1="87.664" x2="132.99" y2="87.664"/><line x1="131.094" y1="85.7679" x2="131.094" y2="89.5601"/><line x1="129.198" y1="85.7679" x2="132.99" y2="89.5601"/><line x1="129.198" y1="89.5601" x2="132.99" y2="85.7679"/>
<line x1="131.448" y1="113.01" x2="135.24" y2="113.01"/><line x1="133.344" y1="111.114" x2="133.344" y2="114.906"/><line x1="131.448" y1="111.114" x2="135.24" y2="114.906"/><line x1="131.448" y1="114.906" x2="135.24" y2="111.114"/>
<line x1="133.698" y1="115.096" x2="137.49" y2="115.096"/><line x1="135.594" y1="113.2" x2="135.594" y2="116.992"/><line x1="133.698" y1="113.2" x2="137.49" y2="116.992"/><line x1="133.698" y1="116.992" x2="137.49" y2="113.2"/>
<line x1="135.948" y1="116.652" x2="139.74" y2="116.652"/><line x1="137.844" y1="114.756" x2="137.844" y2="118.548"/><line x1="135.948" y1="114.756" x2="139.74" y2="118.548"/><line x1="135.948" y1="118.548" x2="139.74" y2="114.756"/>
<line x1="138.198" y1="116.432" x2="141.99" y2="116.432"/><line x1="140.094" y1="114.535" x2="140.094" y2="118.328"/><line x1="138.198" y1="114.535" x2="141.99" y2="118.328"/><line x1="138.198" y1="118.328" x2="141.99" y2="114.535"/>
<line x1="140.448" y1="125.944" x2="144.24" y2="125.944"/><line x1="142.344" y1="124.048" x2="142.344" y2="127.84"/><line x1="140.448" y1="124.048" x2="144.24" y2="127.84"/><line x1="140.448" y1="127.84" x2="144.24" y2="124.048"/>
<line x1="142.698" y1="128.336" x2="146.49" y2="128.336"/><line x1="144.594" y1="126.439" x2="144.594" y2="130.232"/><line x1="142.698" y1="126.439" x2="146.49" y2="130.232"/><line x1="142.698" y1="130.232" x2="146.49" y2="126.439"/>
<line x1="144.948" y1="123.307" x2="148.74" y2="123.307"/><line x1="146.844" y1="121.411" x2="146.844" y2="125.203"/><line x1="144.948" y1="121.411" x2="148.74" y2="125.203"/><line x1="144.948" y1="125.203" x2="148.74" y2="121.411"/>
<line x1="147.197" y1="138.595" x2="150.99" y2="138.595"/><line x1="149.094" y1="136.699" x2="149.094" y2="140.491"/><line x1="147.197" y1="136.699" x2="150.99" y2="140.491"/><line x1="147.197" y1="140.491" x2="150.99" y2="136.699"/>
<line x1="149.447" y1="152.631" x2="153.24" y2="152.631"/><line x1="151.344" y1="150.735" x2="151.344" y2="154.527"/><line x1="149.447" y1="150.735" x2="153.24" y2="154.527"/><line x1="149.447" y1="154.527" x2="153.24" y2="150.735"/>
<line x1="151.697" y1="142.155" x2="155.49" y2="142.155"/><line x1="153.593" y1="140.259" x2="153.593" y2="144.051"/><line x1="151.697" y1="140.259" x2="155.49" y2="144.051"/><line x1="151.697" y1="144.051" x2="155.49" y2="140.259"/>
<line x1="153.947" y1="148.291" x2="157.74" y2="148.291"/><line x1="155.843" y1="146.395" x2="155.843" y2="150.187"/><line x1="153.947" y1="146.395" x2="157.74" y2="150.187"/><line x1="153.947" y1="150.187" x2="157.74" y2="146.395"/>
<line x1="156.197" y1="160.295" x2="159.989" y2="160.295"/><line x1="158.093" y1="158.399" x2="158.093" y2="162.191"/><line x1="156.197" y1="158.399" x2="159.989" y2="162.191"/><line x1="156.197" y1="162.191" x2="159.989" y2="158.399"/>
<line x1="158.447" y1="166.454" x2="162.239" y2="166.454"/><line x1="160.343" y1="164.558" x2="160.343" y2="168.35"/><line x1="158.447" y1="164.558" x2="162.239" y2="168.35"/><line x1="158.447" y1="168.35" x2="162.239" y2="164.558"/>
<line x1="160.697" y1="181.912" x2="164.489" y2="181.912"/><line x1="162.593" y1="180.016" x2="162.593" y2="183.808"/><line x1="160.697" y1="180.016" x2="164.489" y2="183.808"/><line x1="160.697" y1="183.808" x2="164.489" y2="180.016"/>
<line x1="162.947" y1="178.916" x2="166.739" y2="178.916"/><line x1="164.843" y1="177.02" x2="164.843" y2="180.812"/><line x1="162.947" y1="177.02" x2="166.739" y2="180.812"/><line x1="162.947" y1="180.812" x2="166.739" y2="177.02"/>
<line x1="165.197" y1="196.396" x2="168.989" y2="196.396"/><line x1="167.093" y1="194.5" x2="167.093" y2="198.292"/><line x1="165.197" y1="194.5" x2="168.989" y2="198.292"/><line x1="165.197" y1="198.292" x2="168.989" y2="194.5"/>
<line x1="167.447" y1="214.541" x2="171.239" y2="214.541"/><line x1="169.343" y1="212.645" x2="169.343" y2="216.437"/><line x1="167.447" y1="212.645" x2="171.239" y2="216.437"/><line x1="167.447" y1="216.437" x2="171.239" y2="212.645"/>
<line x1="169.697" y1="186.052" x2="173.489" y2="186.052"/><line x1="171.593" y1="184.155" x2="171.593" y2="187.948"/><line x1="169.697" y1="184.155" x2="173.489" y2="187.948"/><line x1="169.697" y1="187.948" x2="173.489" y2="184.155"/>
<line x1="171.947" y1="192.326" x2="175.739" y2="192.326"/><line x1="173.843" y1="190.43" x2="173.843" y2="194.222"/><line x1="171.947" y1="190.43" x2="175.739" y2="194.222"/><line x1="171.947" y1="194.222" x2="175.739" y2="190.43"/>
<line x1="174.197" y1="213.958" x2="177.989" y2="213.958"/><line x1="176.093" y1="212.062" x2="176.093" y2="215.855"/><line x1="174.197" y1="212.062" x2="177.989" y2="215.855"/><line x1="174.197" y1="215.855" x2="177.989" y2="212.062"/>
<line x1="176.447" y1="212.008" x2="180.239" y2="212.008"/><line x1="178.343" y1="210.112" x2="178.343" y2="213.904"/><line x1="176.447" y1="210.112" x2="180.239" y2="213.904"/><line x1="176.447" y1="213.904" x2="180.239" y2="210.112"/>
<line x1="178.697" y1="201.136" x2="182.489" y2="201.136"/><line x1="180.593" y1="199.24" x2="180.593" y2="203.032"/><line x1="178.697" y1="199.24" x2="182.489" y2="203.032"/><line x1="178.697" y1="203.032" x2="182.489" y2="199.24"/>
<line x1="180.947" y1="188.895" x2="184.739" y2="188.895"/><line x1="182.843" y1="186.999" x2="182.843" y2="190.791"/><line x1="180.947" y1="186.999" x2="184.739" y2="190.791"/><line x1="180.947" y1="190.791" x2="184.739" y2="186.999"/>
<line x1="183.197" y1="189.394" x2="186.989" y2="189.394"/><line x1="185.093" y1="187.497" x2="185.093" y2="191.29"/><line x1="183.197" y1="187.497" x2="186.989" y2="191.29"/><line x1="183.197" y1="191.29" x2="186.989" y2="187.497"/>
<line x1="185.447" y1="186.603" x2="189.239" y2="186.603"/><line x1="187.343" y1="184.707" x2="187.343" y2="188.499"/><line x1="185.447" y1="184.707" x2="189.239" y2="188.499"/><line x1="185.447" y1="188.499" x2="189.239" y2="184.707"/>
<line x1="187.696" y1="177.197" x2="191.489" y2="177.197"/><line x1="189.593" y1="175.3" x2="189.593" y2="179.093"/><line x1="187.696" y1="175.3" x2="191.489" y2="179.093"/><line x1="187.696" y1="179.093" x2="191.489" y2="175.3"/>
<line x1="189.946" y1="160.692" x2="193.739" y2="160.692"/><line x1="191.843" y1="158.795" x2="191.843" y2="162.588"/><line x1="189.946" y1="158.795" x2="193.739" y2="162.588"/><line x1="189.946" y1="162.588" x2="193.739" y2="158.795"/>
<line x1="192.196" y1="152.494" x2="195.989" y2="152.494"/><line x1="194.092" y1="150.598" x2="194.092" y2="154.391"/><line x1="192.196" y1="150.598" x2="195.989" y2="154.391"/><line x1="192.196" y1="154.391" x2="195.989" y2="150.598"/>
<line x1="194.446" y1="155.814" x2="198.238" y2="155.814"/><line x1="196.342" y1="153.918" x2="196.342" y2="157.71"/><line x1="194.446" y1="153.918" x2="198.238" y2="157.71"/><line x1="194.446" y1="157.71" x2="198.238" y2="153.918"/>
<line x1="196.696" y1="151.135" x2="200.488" y2="151.135"/><line x1="198.592" y1="149.238" x2="198.592" y2="153.031"/><line x1="196.696" y1="149.238" x2="200.488" y2="153.031"/><line x1="196.696" y1="153.031" x2="200.488" y2="149.238"/>
<line x1="198.946" y1="169.023" x2="202.738" y2="169.023"/><line x1="200.842" y1="167.127" x2="200.842" y2="170.919"/><line x1="198.946" y1="167.127" x2="202.738" y2="170.919"/><line x1="198.946" y1="170.919" x2="202.738" y2="167.127"/>
<line x1="201.196" y1="173.834" x2="204.988" y2="173.834"/><line x1="203.092" y1="171.938" x2="203.092" y2="175.73"/><line x1="201.196" y1="171.938" x2="204.988" y2="175.73"/><line x1="201.196" y1="175.73" x2="204.988" y2="171.938"/>
<line x1="203.446" y1="204.618" x2="207.238" y2="204.618"/><line x1="205.342" y1="202.721" x2="205.342" y2="206.514"/><line x1="203.446" y1="202.721" x2="207.238" y2="206.514"/><line x1="203.446" y1="206.514" x2="207.238" y2="202.721"/>
<line x1="205.696" y1="199.399" x2="209.488" y2="199.399"/><line x1="207.592" y1="197.503" x2="207.592" y2="201.295"/><line x1="205.696" y1="197.503" x2="209.488" y2="201.295"/><line x1="205.696" y1="201.295" x2="209.488" y2="197.503"/>
<line x1="207.946" y1="183.813" x2="211.738" y2="183.813"/><line x1="209.842" y1="181.917" x2="209.842" y2="185.709"/><line x1="207.946" y1="181.917" x2="211.738" y2="185.709"/><line x1="207.946" y1="185.709" x2="211.738" y2="181.917"/>
<line x1="210.196" y1="202.73" x2="213.988" y2="202.73"/><line x1="212.092" y1="200.834" x2="212.092" y2="204.626"/><line x1="210.196" y1="200.834" x2="213.988" y2="204.626"/><line x1="210.196" y1="204.626" x2="213.988" y2="200.834"/>
<line x1="212.446" y1="198.178" x2="216.238" y2="198.178"/><line x1="214.342" y1="196.282" x2="214.342" y2="200.074"/><line x1="212.446" y1="196.282" x2="216.238" y2="200.074"/><line x1="212.446" y1="200.074" x2="216.238" y2="196.282"/>
<line x1="214.696" y1="197.68" x2="218.488" y2="197.68"/><line x1="216.592" y1="195.784" x2="216.592" y2="199.576"/><line x1="214.696" y1="195.784" x2="218.488" y2="199.576"/><line x1="214.696" y1="199.576" x2="218.488" y2="195.784"/>
<line x1="216.946" y1="193.567" x2="220.738" y2="193.567"/><line x1="218.842" y1="191.671" x2="218.842" y2="195.463"/><line x1="216.946" y1="191.671" x2="220.738" y2="195.463"/><line x1="216.946" y1="195.463" x2="220.738" y2="191.671"/>
<line x1="219.196" y1="205.611" x2="222.988" y2="205.611"/><line x1="221.092" y1="203.715" x2="221.092" y2="207.508"/><line x1="219.196" y1="203.715" x2="222.988" y2="207.508"/><line x1="219.196" y1="207.508" x2="222.988" y2="203.715"/>
<line x1="221.446" y1="209.439" x2="225.238" y2="209.439"/><line x1="223.342" y1="207.543" x2="223.342" y2="211.335"/><line x1="221.446" y1="207.543" x2="225.238" y2="211.335"/><line x1="221.446" y1="211.335" x2="225.238" y2="207.543"/>
<line x1="223.696" y1="210.223" x2="227.488" y2="210.223"/><line x1="225.592" y1="208.327" x2="225.592" y2="212.119"/><line x1="223.696" y1="208.327" x2="227.488" y2="212.119"/><line x1="223.696" y1="212.119" x2="227.488" y2="208.327"/>
<line x1="225.946" y1="233.888" x2="229.738" y2="233.888"/><line x1="227.842" y1="231.992" x2="227.842" y2="235.784"/><line x1="225.946" y1="231.992" x2="229.738" y2="235.784"/><line x1="225.946" y1="235.784" x2="229.738" y2="231.992"/>
<line x1="228.195" y1="225.232" x2="231.988" y2="225.232"/><line x1="230.092" y1="223.336" x2="230.092" y2="227.128"/><line x1="228.195" y1="223.336" x2="231.988" y2="227.128"/><line x1="228.195" y1="227.128" x2="231.988" y2="223.336"/>
<line x1="230.445" y1="228.165" x2="234.238" y2="228.165"/><line x1="232.341" y1="226.269" x2="232.341" y2="230.061"/><line x1="230.445" y1="226.269" x2="234.238" y2="230.061"/><line x1="230.445" y1="230.061" x2="234.238" y2="226.269"/>
<line x1="232.695" y1="224.936" x2="236.488" y2="224.936"/><line x1="234.591" y1="223.04" x2="234.591" y2="226.832"/><line x1="232.695" y1="223.04" x2="236.488" y2="226.832"/><line x1="232.695" y1="226.832" x2="236.488" y2="223.04"/>
<line x1="234.945" y1="223.174" x2="238.737" y2="223.174"/><line x1="236.841" y1="221.278" x2="236.841" y2="225.07"/><line x1="234.945" y1="221.278" x2="238.737" y2="225.07"/><line x1="234.945" y1="225.07" x2="238.737" y2="221.278"/>
<line x1="237.195" y1="224.784" x2="240.987" y2="224.784"/><line x1="239.091" y1="222.888" x2="239.091" y2="226.68"/><line x1="237.195" y1="222.888" x2="240.987" y2="226.68"/><line x1="237.195" y1="226.68" x2="240.987" y2="222.888"/>
<line x1="239.445" y1="236.6" x2="243.237" y2="236.6"/><line x1="241.341" y1="234.704" x2="241.341" y2="238.496"/><line x1="239.445" y1="234.704" x2="243.237" y2="238.496"/><line x1="239.445" y1="238.496" x2="243.237" y2="234.704"/>
<line x1="241.695" y1="244.675" x2="245.487" y2="244.675"/><line x1="243.591" y1="242.779" x2="243.591" y2="246.572"/><line x1="241.695" y1="242.779" x2="245.487" y2="246.572"/><line x1="241.695" y1="246.572" x2="245.487" y2="242.779"/>
<line x1="243.945" y1="231.234" x2="247.737" y2="231.234"/><line x1="245.841" y1="229.338" x2="245.841" y2="233.131"/><line x1="243.945" y1="229.338" x2="247.737" y2="233.131"/><line x1="243.945" y1="233.131" x2="247.737" y2="229.338"/>
<line x1="246.195" y1="242.031" x2="249.987" y2="242.031"/><line x1="248.091" y1="240.135" x2="248.091" y2="243.928"/><line x1="246.195" y1="240.135" x2="249.987" y2="243.928"/><line x1="246.195" y1="243.928" x2="249.987" y2="240.135"/>
<line x1="248.445" y1="251.175" x2="252.237" y2="251.175"/><line x1="250.341" y1="249.279" x2="250.341" y2="253.071"/><line x1="248.445" y1="249.279" x2="252.237" y2="253.071"/><line x1="248.445" y1="253.071" x2="252.237" y2="249.279"/>
<line x1="250.695" y1="241.502" x2="254.487" y2="241.502"/><line x1="252.591" y1="239.606" x2="252.591" y2="243.398"/><line x1="250.695" y1="239.606" x2="254.487" y2="243.398"/><line x1="250.695" y1="243.398" x2="254.487" y2="239.606"/>
<line x1="252.945" y1="259.704" x2="256.737" y2="259.704"/><line x1="254.841" y1="257.808" x2="254.841" y2="261.6"/><line x1="252.945" y1="257.808" x2="256.737" y2="261.6"/><line x1="252.945" y1="261.6" x2="256.737" y2="257.808"/>
<line x1="255.195" y1="258.478" x2="258.987" y2="258.478"/><line x1="257.091" y1="256.582" x2="257.091" y2="260.374"/><line x1="255.195" y1="256.582" x2="258.987" y2="260.374"/><line x1="255.195" y1="260.374" x2="258.987" y2="256.582"/>
<line x1="257.445" y1="277.586" x2="261.237" y2="277.586"/><line x1="259.341" y1="275.69" x2="259.341" y2="279.482"/><line x1="257.445" y1="275.69" x2="261.237" y2="279.482"/><line x1="257.445" y1="279.482" x2="261.237" y2="275.69"/>
<line x1="259.695" y1="280.964" x2="263.487" y2="280.964"/><line x1="261.591" y1="279.067" x2="261.591" y2="282.86"/><line x1="259.695" y1="279.067" x2="263.487" y2="282.86"/><line x1="259.695" y1="282.86" x2="263.487" y2="279.067"/>
<line x1="261.945" y1="266.866" x2="265.737" y2="266.866"/><line x1="263.841" y1="264.97" x2="263.841" y2="268.762"/><line x1="261.945" y1="264.97" x2="265.737" y2="268.762"/><line x1="261.945" y1="268.762" x2="265.737" y2="264.97"/>
<line x1="264.195" y1="288.173" x2="267.987" y2="288.173"/><line x1="266.091" y1="286.277" x2="266.091" y2="290.069"/><line x1="264.195" y1="286.277" x2="267.987" y2="290.069"/><line x1="264.195" y1="290.069" x2="267.987" y2="286.277"/>
<line x1="266.445" y1="273.828" x2="270.237" y2="273.828"/><line x1="268.341" y1="271.932" x2="268.341" y2="275.724"/><line x1="266.445" y1="271.932" x2="270.237" y2="275.724"/><line x1="266.445" y1="275.724" x2="270.237" y2="271.932"/>
<line x1="268.694" y1="275.866" x2="272.487" y2="275.866"/><line x1="270.591" y1="273.969" x2="270.591" y2="277.762"/><line x1="268.694" y1="273.969" x2="272.487" y2="277.762"/><line x1="268.694" y1="277.762" x2="272.487" y2="273.969"/>
<line x1="270.944" y1="277.892" x2="274.737" y2="277.892"/><line x1="272.84" y1="275.996" x2="272.84" y2="279.788"/><line x1="270.944" y1="275.996" x2="274.737" y2="279.788"/><line x1="270.944" y1="279.788" x2="274.737" y2="275.996"/>
<line x1="273.194" y1="263.498" x2="276.987" y2="263.498"/><line x1="275.09" y1="261.602" x2="275.09" y2="265.395"/><line x1="273.194" y1="261.602" x2="276.987" y2="265.395"/><line x1="273.194" y1="265.395" x2="276.987" y2="261.602"/>
<line x1="275.444" y1="262.926" x2="279.236" y2="262.926"/><line x1="277.34" y1="261.03" x2="277.34" y2="264.822"/><line x1="275.444" y1="261.03" x2="279.236" y2="264.822"/><line x1="275.444" y1="264.822" x2="279.236" y2="261.03"/>
<line x1="277.694" y1="276.207" x2="281.486" y2="276.207"/><line x1="279.59" y1="274.311" x2="279.59" y2="278.103"/><line x1="277.694" y1="274.311" x2="281.486" y2="278.103"/><line x1="277.694" y1="278.103" x2="281.486" y2="274.311"/>
<line x1="279.944" y1="289.504" x2="283.736" y2="289.504"/><line x1="281.84" y1="287.608" x2="281.84" y2="291.4"/><line x1="279.944" y1="287.608" x2="283.736" y2="291.4"/><line x1="279.944" y1="291.4" x2="283.736" y2="287.608"/>
<line x1="282.194" y1="316.899" x2="285.986" y2="316.899"/><line x1="284.09" y1="315.003" x2="284.09" y2="318.795"/><line x1="282.194" y1="315.003" x2="285.986" y2="318.795"/><line x1="282.194" y1="318.795" x2="285.986" y2="315.003"/>
<line x1="284.444" y1="316.26" x2="288.236" y2="316.26"/><line x1="286.34" y1="314.363" x2="286.34" y2="318.156"/><line x1="284.444" y1="314.363" x2="288.236" y2="318.156"/><line x1="284.444" y1="318.156" x2="288.236" y2="314.363"/>
<line x1="286.694" y1="314.013" x2="290.486" y2="314.013"/><line x1="288.59" y1="312.117" x2="288.59" y2="315.909"/><line x1="286.694" y1="312.117" x2="290.486" y2="315.909"/><line x1="286.694" y1="315.909" x2="290.486" y2="312.117"/>
<line x1="288.944" y1="301.073" x2="292.736" y2="301.073"/><line x1="290.84" y1="299.177" x2="290.84" y2="302.969"/><line x1="288.944" y1="299.177" x2="292.736" y2="302.969"/><line x1="288.944" y1="302.969" x2="292.736" y2="299.177"/>
<line x1="291.194" y1="302.093" x2="294.986" y2="302.093"/><line x1="293.09" y1="300.197" x2="293.09" y2="303.99"/><line x1="291.194" y1="300.197" x2="294.986" y2="303.99"/><line x1="291.194" y1="303.99" x2="294.986" y2="300.197"/>
<line x1="293.444" y1="299.076" x2="297.236" y2="299.076"/><line x1="295.34" y1="297.18" x2="295.34" y2="300.973"/><line x1="293.444" y1="297.18" x2="297.236" y2="300.973"/><line x1="293.444" y1="300.973" x2="297.236" y2="297.18"/>
<line x1="295.694" y1="271.28" x2="299.486" y2="271.28"/><line x1="297.59" y1="269.384" x2="297.59" y2="273.176"/><line x1="295.694" y1="269.384" x2="299.486" y2="273.176"/><line x1="295.694" y1="273.176" x2="299.486" y2="269.384"/>
<line x1="297.944" y1="267.861" x2="301.736" y2="267.861"/><line x1="299.84" y1="265.965" x2="299.84" y2="269.758"/><line x1="297.944" y1="265.965" x2="301.736" y2="269.758"/><line x1="297.944" y1="269.758" x2="301.736" y2="265.965"/>
<line x1="300.194" y1="251.975" x2="303.986" y2="251.975"/><line x1="302.09" y1="250.079" x2="302.09" y2="253.871"/><line x1="300.194" y1="250.079" x2="303.986" y2="253.871"/><line x1="300.194" y1="253.871" x2="303.986" y2="250.079"/>
<line x1="302.444" y1="264.737" x2="306.236" y2="264.737"/><line x1="304.34" y1="262.841" x2="304.34" y2="266.633"/><line x1="302.444" y1="262.841" x2="306.236" y2="266.633"/><line x1="302.444" y1="266.633" x2="306.236" y2="262.841"/>
<line x1="304.694" y1="259.328" x2="308.486" y2="259.328"/><line x1="306.59" y1="257.432" x2="306.59" y2="261.224"/><line x1="304.694" y1="257.432" x2="308.486" y2="261.224"/><line x1="304.694" y1="261.224" x2="308.486" y2="257.432"/>
<line x1="306.944" y1="247.086" x2="310.736" y2="247.086"/><line x1="308.84" y1="245.19" x2="308.84" y2="248.982"/><line x1="306.944" y1="245.19" x2="310.736" y2="248.982"/><line x1="306.944" y1="248.982" x2="310.736" y2="245.19"/>
<line x1="309.193" y1="272.341" x2="312.986" y2="272.341"/><line x1="311.09" y1="270.445" x2="311.09" y2="274.237"/><line x1="309.193" y1="270.445" x2="312.986" y2="274.237"/><line x1="309.193" y1="274.237" x2="312.986" y2="270.445"/>
<line x1="311.443" y1="275.76" x2="315.236" y2="275.76"/><line x1="313.339" y1="273.864" x2="313.339" y2="277.656"/><line x1="311.443" y1="273.864" x2="315.236" y2="277.656"/><line x1="311.443" y1="277.656" x2="315.236" y2="273.864"/>
<line x1="313.693" y1="251.287" x2="317.486" y2="251.287"/><line x1="315.589" y1="249.391" x2="315.589" y2="253.183"/><line x1="313.693" y1="249.391" x2="317.486" y2="253.183"/><line x1="313.693" y1="253.183" x2="317.486" y2="249.391"/>
<line x1="315.943" y1="256.785" x2="319.735" y2="256.785"/><line x1="317.839" y1="254.889" x2="317.839" y2="258.681"/><line x1="315.943" y1="254.889" x2="319.735" y2="258.681"/><line x1="315.943" y1="258.681" x2="319.735" y2="254.889"/>
<line x1="318.193" y1="256.177" x2="321.985" y2="256.177"/><line x1="320.089" y1="254.281" x2="320.089" y2="258.073"/><line x1="318.193" y1="254.281" x2="321.985" y2="258.073"/><line x1="318.193" y1="258.073" x2="321.985" y2="254.281"/>
<line x1="320.443" y1="234.538" x2="324.235" y2="234.538"/><line x1="322.339" y1="232.642" x2="322.339" y2="236.434"/><line x1="320.443" y1="232.642" x2="324.235" y2="236.434"/><line x1="320.443" y1="236.434" x2="324.235" y2="232.642"/>
<line x1="322.693" y1="205.391" x2="326.485" y2="205.391"/><line x1="324.589" y1="203.495" x2="324.589" y2="207.288"/><line x1="322.693" y1="203.495" x2="326.485" y2="207.288"/><line x1="322.693" y1="207.288" x2="326.485" y2="203.495"/>
<line x1="324.943" y1="203.893" x2="328.735" y2="203.893"/><line x1="326.839" y1="201.997" x2="326.839" y2="205.789"/><line x1="324.943" y1="201.997" x2="328.735" y2="205.789"/><line x1="324.943" y1="205.789" x2="328.735" y2="201.997"/>
<line x1="327.193" y1="201.17" x2="330.985" y2="201.17"/><line x1="329.089" y1="199.274" x2="329.089" y2="203.066"/><line x1="327.193" y1="199.274" x2="330.985" y2="203.066"/><line x1="327.193" y1="203.066" x2="330.985" y2="199.274"/>
<line x1="329.443" y1="211.593" x2="333.235" y2="211.593"/><line x1="331.339" y1="209.697" x2="331.339" y2="213.49"/><line x1="329.443" y1="209.697" x2="333.235" y2="213.49"/><line x1="329.443" y1="213.49" x2="333.235" y2="209.697"/>
<line x1="331.693" y1="191.587" x2="335.485" y2="191.587"/><line x1="333.589" y1="189.691" x2="333.589" y2="193.484"/><line x1="331.693" y1="189.691" x2="335.485" y2="193.484"/><line x1="331.693" y1="193.484" x2="335.485" y2="189.691"/>
<line x1="333.943" y1="175.123" x2="337.735" y2="175.123"/><line x1="335.839" y1="173.227" x2="335.839" y2="177.019"/><line x1="333.943" y1="173.227" x2="337.735" y2="177.019"/><line x1="333.943" y1="177.019" x2="337.735" y2="173.227"/>
<line x1="336.193" y1="166.163" x2="339.985" y2="166.163"/><line x1="338.089" y1="164.267" x2="338.089" y2="168.059"/><line x1="336.193" y1="164.267" x2="339.985" y2="168.059"/><line x1="336.193" y1="168.059" x2="339.985" y2="164.267"/>
<line x1="338.443" y1="161.27" x2="342.235" y2="161.27"/><line x1="340.339" y1="159.374" x2="340.339" y2="163.166"/><line x1="338.443" y1="159.374" x2="342.235" y2="163.166"/><line x1="338.443" y1="163.166" x2="342.235" y2="159.374"/>
<line x1="340.693" y1="156.635" x2="344.485" y2="156.635"/><line x1="342.589" y1="154.739" x2="342.589" y2="158.531"/><line x1="340.693" y1="154.739" x2="344.485" y2="158.531"/><line x1="340.693" y1="158.531" x2="344.485" y2="154.739"/>
<line x1="342.943" y1="137.536" x2="346.735" y2="137.536"/><line x1="344.839" y1="135.64" x2="344.839" y2="139.432"/><line x1="342.943" y1="135.64" x2="346.735" y2="139.432"/><line x1="342.943" y1="139.432" x2="346.735" y2="135.64"/>
<line x1="345.193" y1="137.749" x2="348.985" y2="137.749"/><line x1="347.089" y1="135.853" x2="347.089" y2="139.645"/><line x1="345.193" y1="135.853" x2="348.985" y2="139.645"/><line x1="345.193" y1="139.645" x2="348.985" y2="135.853"/>
<line x1="347.442" y1="146.035" x2="351.235" y2="146.035"/><line x1="349.339" y1="144.139" x2="349.339" y2="147.931"/><line x1="347.442" y1="144.139" x2="351.235" y2="147.931"/><line x1="347.442" y1="147.931" x2="351.235" y2="144.139"/>
<line x1="349.692" y1="129.782" x2="353.485" y2="129.782"/><line x1="351.589" y1="127.886" x2="351.589" y2="131.678"/><line x1="349.692" y1="127.886" x2="353.485" y2="131.678"/><line x1="349.692" y1="131.678" x2="353.485" y2="127.886"/>
<line x1="351.942" y1="139.157" x2="355.735" y2="139.157"/><line x1="353.838" y1="137.261" x2="353.838" y2="141.054"/><line x1="351.942" y1="137.261" x2="355.735" y2="141.054"/><line x1="351.942" y1="141.054" x2="355.735" y2="137.261"/>
<line x1="354.192" y1="144.397" x2="357.984" y2="144.397"/><line x1="356.088" y1="142.501" x2="356.088" y2="146.293"/><line x1="354.192" y1="142.501" x2="357.984" y2="146.293"/><line x1="354.192" y1="146.293" x2="357.984" y2="142.501"/>
<line x1="356.442" y1="147.393" x2="360.234" y2="147.393"/><line x1="358.338" y1="145.497" x2="358.338" y2="149.289"/><line x1="356.442" y1="145.497" x2="360.234" y2="149.289"/><line x1="356.442" y1="149.289" x2="360.234" y2="145.497"/>
<line x1="358.692" y1="162.257" x2="362.484" y2="162.257"/><line x1="360.588" y1="160.361" x2="360.588" y2="164.154"/><line x1="358.692" y1="160.361" x2="362.484" y2="164.154"/><line x1="358.692" y1="164.154" x2="362.484" y2="160.361"/>
<line x1="360.942" y1="155.221" x2="364.734" y2="155.221"/><line x1="362.838" y1="153.324" x2="362.838" y2="157.117"/><line x1="360.942" y1="153.324" x2="364.734" y2="157.117"/><line x1="360.942" y1="157.117" x2="364.734" y2="153.324"/>
<line x1="363.192" y1="154.9" x2="366.984" y2="154.9"/><line x1="365.088" y1="153.004" x2="365.088" y2="156.796"/><line x1="363.192" y1="153.004" x2="366.984" y2="156.796"/><line x1="363.192" y1="156.796" x2="366.984" y2="153.004"/>
<line x1="365.442" y1="135.826" x2="369.234" y2="135.826"/><line x1="367.338" y1="133.93" x2="367.338" y2="137.723"/><line x1="365.442" y1="133.93" x2="369.234" y2="137.723"/><line x1="365.442" y1="137.723" x2="369.234" y2="133.93"/>
<line x1="367.692" y1="121.916" x2="371.484" y2="121.916"/><line x1="369.588" y1="120.02" x2="369.588" y2="123.812"/><line x1="367.692" y1="120.02" x2="371.484" y2="123.812"/><line x1="367.692" y1="123.812" x2="371.484" y2="120.02"/>
<line x1="369.942" y1="138.999" x2="373.734" y2="138.999"/><line x1="371.838" y1="137.103" x2="371.838" y2="140.895"/><line x1="369.942" y1="137.103" x2="373.734" y2="140.895"/><line x1="369.942" y1="140.895" x2="373.734" y2="137.103"/>
<line x1="372.192" y1="150.521" x2="375.984" y2="150.521"/><line x1="374.088" y1="148.625" x2="374.088" y2="152.417"/><line x1="372.192" y1="148.625" x2="375.984" y2="152.417"/><line x1="372.192" y1="152.417" x2="375.984" y2="148.625"/>
<line x1="374.442" y1="132.599" x2="378.234" y2="132.599"/><line x1="376.338" y1="130.703" x2="376.338" y2="134.495"/><line x1="374.442" y1="130.703" x2="378.234" y2="134.495"/><line x1="374.442" y1="134.495" x2="378.234" y2="130.703"/>
<line x1="376.692" y1="109.844" x2="380.484" y2="109.844"/><line x1="378.588" y1="107.947" x2="378.588" y2="111.74"/><line x1="376.692" y1="107.947" x2="380.484" y2="111.74"/><line x1="376.692" y1="111.74" x2="380.484" y2="107.947"/>
<line x1="378.942" y1="119.545" x2="382.734" y2="119.545"/><line x1="380.838" y1="117.649" x2="380.838" y2="121.441"/><line x1="378.942" y1="117.649" x2="382.734" y2="121.441"/><line x1="378.942" y1="121.441" x2="382.734" y2="117.649"/>
<line x1="381.192" y1="131.737" x2="384.984" y2="131.737"/><line x1="383.088" y1="129.841" x2="383.088" y2="133.633"/><line x1="381.192" y1="129.841" x2="384.984" y2="133.633"/><line x1="381.192" y1="133.633" x2="384.984" y2="129.841"/>
<line x1="383.442" y1="108.583" x2="387.234" y2="108.583"/><line x1="385.338" y1="106.687" x2="385.338" y2="110.48"/><line x1="383.442" y1="106.687" x2="387.234" y2="110.48"/><line x1="383.442" y1="110.48" x2="387.234" y2="106.687"/>
<line x1="385.692" y1="105.626" x2="389.484" y2="105.626"/><line x1="387.588" y1="103.729" x2="387.588" y2="107.522"/><line x1="385.692" y1="103.729" x2="389.484" y2="107.522"/><line x1="385.692" y1="107.522" x2="389.484" y2="103.729"/>
<line x1="387.941" y1="127.499" x2="391.734" y2="127.499"/><line x1="389.838" y1="125.603" x2="389.838" y2="129.395"/><line x1="387.941" y1="125.603" x2="391.734" y2="129.395"/><line x1="387.941" y1="129.395" x2="391.734" y2="125.603"/>
<line x1="390.191" y1="119.085" x2="393.984" y2="119.085"/><line x1="392.087" y1="117.189" x2="392.087" y2="120.981"/><line x1="390.191" y1="117.189" x2="393.984" y2="120.981"/><line x1="390.191" y1="120.981" x2="393.984" y2="117.189"/>
<line x1="392.441" y1="79.2742" x2="396.234" y2="79.2742"/><line x1="394.337" y1="77.3781" x2="394.337" y2="81.1703"/><line x1="392.441" y1="77.3781" x2="396.234" y2="81.1703"/><line x1="392.441" y1="81.1703" x2="396.234" y2="77.3781"/>
<line x1="394.691" y1="76.7314" x2="398.483" y2="76.7314"/><line x1="396.587" y1="74.8353" x2="396.587" y2="78.6274"/><line x1="394.691" y1="74.8353" x2="398.483" y2="78.6274"/><line x1="394.691" y1="78.6274" x2="398.483" y2="74.8353"/>
<line x1="396.941" y1="89.1093" x2="400.733" y2="89.1093"/><line x1="398.837" y1="87.2132" x2="398.837" y2="91.0054"/><line x1="396.941" y1="87.2132" x2="400.733" y2="91.0054"/><line x1="396.941" y1="91.0054" x2="400.733" y2="87.2132"/>
<line x1="399.191" y1="80.3371" x2="402.983" y2="80.3371"/><line x1="401.087" y1="78.441" x2="401.087" y2="82.2332"/><line x1="399.191" y1="78.441" x2="402.983" y2="82.2332"/><line x1="399.191" y1="82.2332" x2="402.983" y2="78.441"/>
<line x1="401.441" y1="81.3561" x2="405.233" y2="81.3561"/><line x1="403.337" y1="79.46" x2="403.337" y2="83.2522"/><line x1="401.441" y1="79.46" x2="405.233" y2="83.2522"/><line x1="401.441" y1="83.2522" x2="405.233" y2="79.46"/>
<line x1="403.691" y1="63.3083" x2="407.483" y2="63.3083"/><line x1="405.587" y1="61.4122" x2="405.587" y2="65.2044"/><line x1="403.691" y1="61.4122" x2="407.483" y2="65.2044"/><line x1="403.691" y1="65.2044" x2="407.483" y2="61.4122"/>
</g>
<g stroke="black" stroke-width="1" fill="none">
<line x1="408.191" y1="47.7922" x2="411.983" y2="47.7922"/><line x1="410.087" y1="45.8961" x2="410.087" y2="49.6883"/><line x1="408.191" y1="45.8961" x2="411.983" y2="49.6883"/><line x1="408.191" y1="49.6883" x2="411.983" y2="45.8961"/>
<line x1="410.441" y1="63.9507" x2="414.233" y2="63.9507"/><line x1="412.337" y1="62.0546" x2="412.337" y2="65.8468"/><line x1="410.441" y1="62.0546" x2="414.233" y2="65.8468"/><line x1="410.441" y1="65.8468" x2="414.233" y2="62.0546"/>
<line x1="412.691" y1="67.1844" x2="416.483" y2="67.1844"/><line x1="414.587" y1="65.2883" x2="414.587" y2="69.0805"/><line x1="412.691" y1="65.2883" x2="416.483" y2="69.0805"/><line x1="412.691" y1="69.0805" x2="416.483" y2="65.2883"/>
<line x1="414.941" y1="52.2245" x2="418.733" y2="52.2245"/><line x1="416.837" y1="50.3284" x2="416.837" y2="54.1206"/><line x1="414.941" y1="50.3284" x2="418.733" y2="54.1206"/><line x1="414.941" y1="54.1206" x2="418.733" y2="50.3284"/>
<line x1="417.191" y1="44.2983" x2="420.983" y2="44.2983"/><line x1="419.087" y1="42.4022" x2="419.087" y2="46.1944"/><line x1="417.191" y1="42.4022" x2="420.983" y2="46.1944"/><line x1="417.191" y1="46.1944" x2="420.983" y2="42.4022"/>
<line x1="419.441" y1="67.0829" x2="423.233" y2="67.0829"/><line x1="421.337" y1="65.1868" x2="421.337" y2="68.979"/><line x1="419.441" y1="65.1868" x2="423.233" y2="68.979"/><line x1="419.441" y1="68.979" x2="423.233" y2="65.1868"/>
<line x1="421.691" y1="60.6167" x2="425.483" y2="60.6167"/><line x1="423.587" y1="58.7206" x2="423.587" y2="62.5128"/><line x1="421.691" y1="58.7206" x2="425.483" y2="62.5128"/><line x1="421.691" y1="62.5128" x2="425.483" y2="58.7206"/>
<line x1="423.941" y1="48.7327" x2="427.733" y2="48.7327"/><line x1="425.837" y1="46.8366" x2="425.837" y2="50.6288"/><line x1="423.941" y1="46.8366" x2="427.733" y2="50.6288"/><line x1="423.941" y1="50.6288" x2="427.733" y2="46.8366"/>
</g>
<path d="M0.5,289.342h 566.929" fill="none" stroke="#0000ff"/>
<path d="M333.589,399.568v -358.233" fill="none" stroke="#0000ff"/>
<path d="M356.088,399.568v -358.233" fill="none" stroke="#0000ff"/>
<text xml:space="preserve" x="109.525" y="18.0128" fill="black" font-size="14.0403" font-family="Helvetica">^2 v.s. calibration factor without 1st bin and without last bin</text>
<text xml:space="preserve" x="101.94" y="18.0128" fill="black" font-size="14.0403" font-family="Times">&#0967;</text></svg>
