<?xml version="1.0" encoding="utf-8" standalone="no"?>
<!DOCTYPE svg PUBLIC "-//W3C//DTD SVG 1.1//EN"
  "http://www.w3.org/Graphics/SVG/1.1/DTD/svg11.dtd">
<!-- Created with matplotlib (https://matplotlib.org/) -->
<svg height="345.6pt" version="1.1" viewBox="0 0 460.8 345.6" width="460.8pt" xmlns="http://www.w3.org/2000/svg" xmlns:xlink="http://www.w3.org/1999/xlink">
 <defs>
  <style type="text/css">
*{stroke-linecap:butt;stroke-linejoin:round;white-space:pre;}
  </style>
 </defs>
 <g id="figure_1">
  <g id="patch_1">
   <path d="M 0 345.6 
L 460.8 345.6 
L 460.8 0 
L 0 0 
z
" style="fill:#ffffff;"/>
  </g>
  <g id="axes_1">
   <g id="patch_2">
    <path d="M 57.6 307.584 
L 414.72 307.584 
L 414.72 41.472 
L 57.6 41.472 
z
" style="fill:#ffffff;"/>
   </g>
   <g id="matplotlib.axis_1">
    <g id="xtick_1">
     <g id="line2d_1">
      <defs>
       <path d="M 0 0 
L 0 3.5 
" id="madaae04eee" style="stroke:#000000;stroke-width:0.8;"/>
      </defs>
      <g>
       <use style="stroke:#000000;stroke-width:0.8;" x="73.832727" xlink:href="#madaae04eee" y="307.584"/>
      </g>
     </g>
     <g id="text_1">
      <!-- 0 -->
      <defs>
       <path d="M 31.78125 66.40625 
Q 24.171875 66.40625 20.328125 58.90625 
Q 16.5 51.421875 16.5 36.375 
Q 16.5 21.390625 20.328125 13.890625 
Q 24.171875 6.390625 31.78125 6.390625 
Q 39.453125 6.390625 43.28125 13.890625 
Q 47.125 21.390625 47.125 36.375 
Q 47.125 51.421875 43.28125 58.90625 
Q 39.453125 66.40625 31.78125 66.40625 
z
M 31.78125 74.21875 
Q 44.046875 74.21875 50.515625 64.515625 
Q 56.984375 54.828125 56.984375 36.375 
Q 56.984375 17.96875 50.515625 8.265625 
Q 44.046875 -1.421875 31.78125 -1.421875 
Q 19.53125 -1.421875 13.0625 8.265625 
Q 6.59375 17.96875 6.59375 36.375 
Q 6.59375 54.828125 13.0625 64.515625 
Q 19.53125 74.21875 31.78125 74.21875 
z
" id="DejaVuSans-48"/>
      </defs>
      <g transform="translate(70.651477 322.182437)scale(0.1 -0.1)">
       <use xlink:href="#DejaVuSans-48"/>
      </g>
     </g>
    </g>
    <g id="xtick_2">
     <g id="line2d_2">
      <g>
       <use style="stroke:#000000;stroke-width:0.8;" x="139.024403" xlink:href="#madaae04eee" y="307.584"/>
      </g>
     </g>
     <g id="text_2">
      <!-- 100 -->
      <defs>
       <path d="M 12.40625 8.296875 
L 28.515625 8.296875 
L 28.515625 63.921875 
L 10.984375 60.40625 
L 10.984375 69.390625 
L 28.421875 72.90625 
L 38.28125 72.90625 
L 38.28125 8.296875 
L 54.390625 8.296875 
L 54.390625 0 
L 12.40625 0 
z
" id="DejaVuSans-49"/>
      </defs>
      <g transform="translate(129.480653 322.182437)scale(0.1 -0.1)">
       <use xlink:href="#DejaVuSans-49"/>
       <use x="63.623047" xlink:href="#DejaVuSans-48"/>
       <use x="127.246094" xlink:href="#DejaVuSans-48"/>
      </g>
     </g>
    </g>
    <g id="xtick_3">
     <g id="line2d_3">
      <g>
       <use style="stroke:#000000;stroke-width:0.8;" x="204.216079" xlink:href="#madaae04eee" y="307.584"/>
      </g>
     </g>
     <g id="text_3">
      <!-- 200 -->
      <defs>
       <path d="M 19.1875 8.296875 
L 53.609375 8.296875 
L 53.609375 0 
L 7.328125 0 
L 7.328125 8.296875 
Q 12.9375 14.109375 22.625 23.890625 
Q 32.328125 33.6875 34.8125 36.53125 
Q 39.546875 41.84375 41.421875 45.53125 
Q 43.3125 49.21875 43.3125 52.78125 
Q 43.3125 58.59375 39.234375 62.25 
Q 35.15625 65.921875 28.609375 65.921875 
Q 23.96875 65.921875 18.8125 64.3125 
Q 13.671875 62.703125 7.8125 59.421875 
L 7.8125 69.390625 
Q 13.765625 71.78125 18.9375 73 
Q 24.125 74.21875 28.421875 74.21875 
Q 39.75 74.21875 46.484375 68.546875 
Q 53.21875 62.890625 53.21875 53.421875 
Q 53.21875 48.921875 51.53125 44.890625 
Q 49.859375 40.875 45.40625 35.40625 
Q 44.1875 33.984375 37.640625 27.21875 
Q 31.109375 20.453125 19.1875 8.296875 
z
" id="DejaVuSans-50"/>
      </defs>
      <g transform="translate(194.672329 322.182437)scale(0.1 -0.1)">
       <use xlink:href="#DejaVuSans-50"/>
       <use x="63.623047" xlink:href="#DejaVuSans-48"/>
       <use x="127.246094" xlink:href="#DejaVuSans-48"/>
      </g>
     </g>
    </g>
    <g id="xtick_4">
     <g id="line2d_4">
      <g>
       <use style="stroke:#000000;stroke-width:0.8;" x="269.407755" xlink:href="#madaae04eee" y="307.584"/>
      </g>
     </g>
     <g id="text_4">
      <!-- 300 -->
      <defs>
       <path d="M 40.578125 39.3125 
Q 47.65625 37.796875 51.625 33 
Q 55.609375 28.21875 55.609375 21.1875 
Q 55.609375 10.40625 48.1875 4.484375 
Q 40.765625 -1.421875 27.09375 -1.421875 
Q 22.515625 -1.421875 17.65625 -0.515625 
Q 12.796875 0.390625 7.625 2.203125 
L 7.625 11.71875 
Q 11.71875 9.328125 16.59375 8.109375 
Q 21.484375 6.890625 26.8125 6.890625 
Q 36.078125 6.890625 40.9375 10.546875 
Q 45.796875 14.203125 45.796875 21.1875 
Q 45.796875 27.640625 41.28125 31.265625 
Q 36.765625 34.90625 28.71875 34.90625 
L 20.21875 34.90625 
L 20.21875 43.015625 
L 29.109375 43.015625 
Q 36.375 43.015625 40.234375 45.921875 
Q 44.09375 48.828125 44.09375 54.296875 
Q 44.09375 59.90625 40.109375 62.90625 
Q 36.140625 65.921875 28.71875 65.921875 
Q 24.65625 65.921875 20.015625 65.03125 
Q 15.375 64.15625 9.8125 62.3125 
L 9.8125 71.09375 
Q 15.4375 72.65625 20.34375 73.4375 
Q 25.25 74.21875 29.59375 74.21875 
Q 40.828125 74.21875 47.359375 69.109375 
Q 53.90625 64.015625 53.90625 55.328125 
Q 53.90625 49.265625 50.4375 45.09375 
Q 46.96875 40.921875 40.578125 39.3125 
z
" id="DejaVuSans-51"/>
      </defs>
      <g transform="translate(259.864005 322.182437)scale(0.1 -0.1)">
       <use xlink:href="#DejaVuSans-51"/>
       <use x="63.623047" xlink:href="#DejaVuSans-48"/>
       <use x="127.246094" xlink:href="#DejaVuSans-48"/>
      </g>
     </g>
    </g>
    <g id="xtick_5">
     <g id="line2d_5">
      <g>
       <use style="stroke:#000000;stroke-width:0.8;" x="334.59943" xlink:href="#madaae04eee" y="307.584"/>
      </g>
     </g>
     <g id="text_5">
      <!-- 400 -->
      <defs>
       <path d="M 37.796875 64.3125 
L 12.890625 25.390625 
L 37.796875 25.390625 
z
M 35.203125 72.90625 
L 47.609375 72.90625 
L 47.609375 25.390625 
L 58.015625 25.390625 
L 58.015625 17.1875 
L 47.609375 17.1875 
L 47.609375 0 
L 37.796875 0 
L 37.796875 17.1875 
L 4.890625 17.1875 
L 4.890625 26.703125 
z
" id="DejaVuSans-52"/>
      </defs>
      <g transform="translate(325.05568 322.182437)scale(0.1 -0.1)">
       <use xlink:href="#DejaVuSans-52"/>
       <use x="63.623047" xlink:href="#DejaVuSans-48"/>
       <use x="127.246094" xlink:href="#DejaVuSans-48"/>
      </g>
     </g>
    </g>
    <g id="xtick_6">
     <g id="line2d_6">
      <g>
       <use style="stroke:#000000;stroke-width:0.8;" x="399.791106" xlink:href="#madaae04eee" y="307.584"/>
      </g>
     </g>
     <g id="text_6">
      <!-- 500 -->
      <defs>
       <path d="M 10.796875 72.90625 
L 49.515625 72.90625 
L 49.515625 64.59375 
L 19.828125 64.59375 
L 19.828125 46.734375 
Q 21.96875 47.46875 24.109375 47.828125 
Q 26.265625 48.1875 28.421875 48.1875 
Q 40.625 48.1875 47.75 41.5 
Q 54.890625 34.8125 54.890625 23.390625 
Q 54.890625 11.625 47.5625 5.09375 
Q 40.234375 -1.421875 26.90625 -1.421875 
Q 22.3125 -1.421875 17.546875 -0.640625 
Q 12.796875 0.140625 7.71875 1.703125 
L 7.71875 11.625 
Q 12.109375 9.234375 16.796875 8.0625 
Q 21.484375 6.890625 26.703125 6.890625 
Q 35.15625 6.890625 40.078125 11.328125 
Q 45.015625 15.765625 45.015625 23.390625 
Q 45.015625 31 40.078125 35.4375 
Q 35.15625 39.890625 26.703125 39.890625 
Q 22.75 39.890625 18.8125 39.015625 
Q 14.890625 38.140625 10.796875 36.28125 
z
" id="DejaVuSans-53"/>
      </defs>
      <g transform="translate(390.247356 322.182437)scale(0.1 -0.1)">
       <use xlink:href="#DejaVuSans-53"/>
       <use x="63.623047" xlink:href="#DejaVuSans-48"/>
       <use x="127.246094" xlink:href="#DejaVuSans-48"/>
      </g>
     </g>
    </g>
    <g id="text_7">
     <!-- PMT Charge[pC] -->
     <defs>
      <path d="M 19.671875 64.796875 
L 19.671875 37.40625 
L 32.078125 37.40625 
Q 38.96875 37.40625 42.71875 40.96875 
Q 46.484375 44.53125 46.484375 51.125 
Q 46.484375 57.671875 42.71875 61.234375 
Q 38.96875 64.796875 32.078125 64.796875 
z
M 9.8125 72.90625 
L 32.078125 72.90625 
Q 44.34375 72.90625 50.609375 67.359375 
Q 56.890625 61.8125 56.890625 51.125 
Q 56.890625 40.328125 50.609375 34.8125 
Q 44.34375 29.296875 32.078125 29.296875 
L 19.671875 29.296875 
L 19.671875 0 
L 9.8125 0 
z
" id="DejaVuSans-80"/>
      <path d="M 9.8125 72.90625 
L 24.515625 72.90625 
L 43.109375 23.296875 
L 61.8125 72.90625 
L 76.515625 72.90625 
L 76.515625 0 
L 66.890625 0 
L 66.890625 64.015625 
L 48.09375 14.015625 
L 38.1875 14.015625 
L 19.390625 64.015625 
L 19.390625 0 
L 9.8125 0 
z
" id="DejaVuSans-77"/>
      <path d="M -0.296875 72.90625 
L 61.375 72.90625 
L 61.375 64.59375 
L 35.5 64.59375 
L 35.5 0 
L 25.59375 0 
L 25.59375 64.59375 
L -0.296875 64.59375 
z
" id="DejaVuSans-84"/>
      <path id="DejaVuSans-32"/>
      <path d="M 64.40625 67.28125 
L 64.40625 56.890625 
Q 59.421875 61.53125 53.78125 63.8125 
Q 48.140625 66.109375 41.796875 66.109375 
Q 29.296875 66.109375 22.65625 58.46875 
Q 16.015625 50.828125 16.015625 36.375 
Q 16.015625 21.96875 22.65625 14.328125 
Q 29.296875 6.6875 41.796875 6.6875 
Q 48.140625 6.6875 53.78125 8.984375 
Q 59.421875 11.28125 64.40625 15.921875 
L 64.40625 5.609375 
Q 59.234375 2.09375 53.4375 0.328125 
Q 47.65625 -1.421875 41.21875 -1.421875 
Q 24.65625 -1.421875 15.125 8.703125 
Q 5.609375 18.84375 5.609375 36.375 
Q 5.609375 53.953125 15.125 64.078125 
Q 24.65625 74.21875 41.21875 74.21875 
Q 47.75 74.21875 53.53125 72.484375 
Q 59.328125 70.75 64.40625 67.28125 
z
" id="DejaVuSans-67"/>
      <path d="M 54.890625 33.015625 
L 54.890625 0 
L 45.90625 0 
L 45.90625 32.71875 
Q 45.90625 40.484375 42.875 44.328125 
Q 39.84375 48.1875 33.796875 48.1875 
Q 26.515625 48.1875 22.3125 43.546875 
Q 18.109375 38.921875 18.109375 30.90625 
L 18.109375 0 
L 9.078125 0 
L 9.078125 75.984375 
L 18.109375 75.984375 
L 18.109375 46.1875 
Q 21.34375 51.125 25.703125 53.5625 
Q 30.078125 56 35.796875 56 
Q 45.21875 56 50.046875 50.171875 
Q 54.890625 44.34375 54.890625 33.015625 
z
" id="DejaVuSans-104"/>
      <path d="M 34.28125 27.484375 
Q 23.390625 27.484375 19.1875 25 
Q 14.984375 22.515625 14.984375 16.5 
Q 14.984375 11.71875 18.140625 8.90625 
Q 21.296875 6.109375 26.703125 6.109375 
Q 34.1875 6.109375 38.703125 11.40625 
Q 43.21875 16.703125 43.21875 25.484375 
L 43.21875 27.484375 
z
M 52.203125 31.203125 
L 52.203125 0 
L 43.21875 0 
L 43.21875 8.296875 
Q 40.140625 3.328125 35.546875 0.953125 
Q 30.953125 -1.421875 24.3125 -1.421875 
Q 15.921875 -1.421875 10.953125 3.296875 
Q 6 8.015625 6 15.921875 
Q 6 25.140625 12.171875 29.828125 
Q 18.359375 34.515625 30.609375 34.515625 
L 43.21875 34.515625 
L 43.21875 35.40625 
Q 43.21875 41.609375 39.140625 45 
Q 35.0625 48.390625 27.6875 48.390625 
Q 23 48.390625 18.546875 47.265625 
Q 14.109375 46.140625 10.015625 43.890625 
L 10.015625 52.203125 
Q 14.9375 54.109375 19.578125 55.046875 
Q 24.21875 56 28.609375 56 
Q 40.484375 56 46.34375 49.84375 
Q 52.203125 43.703125 52.203125 31.203125 
z
" id="DejaVuSans-97"/>
      <path d="M 41.109375 46.296875 
Q 39.59375 47.171875 37.8125 47.578125 
Q 36.03125 48 33.890625 48 
Q 26.265625 48 22.1875 43.046875 
Q 18.109375 38.09375 18.109375 28.8125 
L 18.109375 0 
L 9.078125 0 
L 9.078125 54.6875 
L 18.109375 54.6875 
L 18.109375 46.1875 
Q 20.953125 51.171875 25.484375 53.578125 
Q 30.03125 56 36.53125 56 
Q 37.453125 56 38.578125 55.875 
Q 39.703125 55.765625 41.0625 55.515625 
z
" id="DejaVuSans-114"/>
      <path d="M 45.40625 27.984375 
Q 45.40625 37.75 41.375 43.109375 
Q 37.359375 48.484375 30.078125 48.484375 
Q 22.859375 48.484375 18.828125 43.109375 
Q 14.796875 37.75 14.796875 27.984375 
Q 14.796875 18.265625 18.828125 12.890625 
Q 22.859375 7.515625 30.078125 7.515625 
Q 37.359375 7.515625 41.375 12.890625 
Q 45.40625 18.265625 45.40625 27.984375 
z
M 54.390625 6.78125 
Q 54.390625 -7.171875 48.1875 -13.984375 
Q 42 -20.796875 29.203125 -20.796875 
Q 24.46875 -20.796875 20.265625 -20.09375 
Q 16.0625 -19.390625 12.109375 -17.921875 
L 12.109375 -9.1875 
Q 16.0625 -11.328125 19.921875 -12.34375 
Q 23.78125 -13.375 27.78125 -13.375 
Q 36.625 -13.375 41.015625 -8.765625 
Q 45.40625 -4.15625 45.40625 5.171875 
L 45.40625 9.625 
Q 42.625 4.78125 38.28125 2.390625 
Q 33.9375 0 27.875 0 
Q 17.828125 0 11.671875 7.65625 
Q 5.515625 15.328125 5.515625 27.984375 
Q 5.515625 40.671875 11.671875 48.328125 
Q 17.828125 56 27.875 56 
Q 33.9375 56 38.28125 53.609375 
Q 42.625 51.21875 45.40625 46.390625 
L 45.40625 54.6875 
L 54.390625 54.6875 
z
" id="DejaVuSans-103"/>
      <path d="M 56.203125 29.59375 
L 56.203125 25.203125 
L 14.890625 25.203125 
Q 15.484375 15.921875 20.484375 11.0625 
Q 25.484375 6.203125 34.421875 6.203125 
Q 39.59375 6.203125 44.453125 7.46875 
Q 49.3125 8.734375 54.109375 11.28125 
L 54.109375 2.78125 
Q 49.265625 0.734375 44.1875 -0.34375 
Q 39.109375 -1.421875 33.890625 -1.421875 
Q 20.796875 -1.421875 13.15625 6.1875 
Q 5.515625 13.8125 5.515625 26.8125 
Q 5.515625 40.234375 12.765625 48.109375 
Q 20.015625 56 32.328125 56 
Q 43.359375 56 49.78125 48.890625 
Q 56.203125 41.796875 56.203125 29.59375 
z
M 47.21875 32.234375 
Q 47.125 39.59375 43.09375 43.984375 
Q 39.0625 48.390625 32.421875 48.390625 
Q 24.90625 48.390625 20.390625 44.140625 
Q 15.875 39.890625 15.1875 32.171875 
z
" id="DejaVuSans-101"/>
      <path d="M 8.59375 75.984375 
L 29.296875 75.984375 
L 29.296875 69 
L 17.578125 69 
L 17.578125 -6.203125 
L 29.296875 -6.203125 
L 29.296875 -13.1875 
L 8.59375 -13.1875 
z
" id="DejaVuSans-91"/>
      <path d="M 18.109375 8.203125 
L 18.109375 -20.796875 
L 9.078125 -20.796875 
L 9.078125 54.6875 
L 18.109375 54.6875 
L 18.109375 46.390625 
Q 20.953125 51.265625 25.265625 53.625 
Q 29.59375 56 35.59375 56 
Q 45.5625 56 51.78125 48.09375 
Q 58.015625 40.1875 58.015625 27.296875 
Q 58.015625 14.40625 51.78125 6.484375 
Q 45.5625 -1.421875 35.59375 -1.421875 
Q 29.59375 -1.421875 25.265625 0.953125 
Q 20.953125 3.328125 18.109375 8.203125 
z
M 48.6875 27.296875 
Q 48.6875 37.203125 44.609375 42.84375 
Q 40.53125 48.484375 33.40625 48.484375 
Q 26.265625 48.484375 22.1875 42.84375 
Q 18.109375 37.203125 18.109375 27.296875 
Q 18.109375 17.390625 22.1875 11.75 
Q 26.265625 6.109375 33.40625 6.109375 
Q 40.53125 6.109375 44.609375 11.75 
Q 48.6875 17.390625 48.6875 27.296875 
z
" id="DejaVuSans-112"/>
      <path d="M 30.421875 75.984375 
L 30.421875 -13.1875 
L 9.71875 -13.1875 
L 9.71875 -6.203125 
L 21.390625 -6.203125 
L 21.390625 69 
L 9.71875 69 
L 9.71875 75.984375 
z
" id="DejaVuSans-93"/>
     </defs>
     <g transform="translate(195.59125 335.860562)scale(0.1 -0.1)">
      <use xlink:href="#DejaVuSans-80"/>
      <use x="60.302734" xlink:href="#DejaVuSans-77"/>
      <use x="146.582031" xlink:href="#DejaVuSans-84"/>
      <use x="207.666016" xlink:href="#DejaVuSans-32"/>
      <use x="239.453125" xlink:href="#DejaVuSans-67"/>
      <use x="309.277344" xlink:href="#DejaVuSans-104"/>
      <use x="372.65625" xlink:href="#DejaVuSans-97"/>
      <use x="433.935547" xlink:href="#DejaVuSans-114"/>
      <use x="475.033203" xlink:href="#DejaVuSans-103"/>
      <use x="538.509766" xlink:href="#DejaVuSans-101"/>
      <use x="600.033203" xlink:href="#DejaVuSans-91"/>
      <use x="639.046875" xlink:href="#DejaVuSans-112"/>
      <use x="702.523438" xlink:href="#DejaVuSans-67"/>
      <use x="772.347656" xlink:href="#DejaVuSans-93"/>
     </g>
    </g>
   </g>
   <g id="matplotlib.axis_2">
    <g id="ytick_1">
     <g id="line2d_7">
      <defs>
       <path d="M 0 0 
L -3.5 0 
" id="m7772ee282d" style="stroke:#000000;stroke-width:0.8;"/>
      </defs>
      <g>
       <use style="stroke:#000000;stroke-width:0.8;" x="57.6" xlink:href="#m7772ee282d" y="295.543405"/>
      </g>
     </g>
     <g id="text_8">
      <!-- 0 -->
      <g transform="translate(44.2375 299.342624)scale(0.1 -0.1)">
       <use xlink:href="#DejaVuSans-48"/>
      </g>
     </g>
    </g>
    <g id="ytick_2">
     <g id="line2d_8">
      <g>
       <use style="stroke:#000000;stroke-width:0.8;" x="57.6" xlink:href="#m7772ee282d" y="253.537892"/>
      </g>
     </g>
     <g id="text_9">
      <!-- 1 -->
      <g transform="translate(44.2375 257.337111)scale(0.1 -0.1)">
       <use xlink:href="#DejaVuSans-49"/>
      </g>
     </g>
    </g>
    <g id="ytick_3">
     <g id="line2d_9">
      <g>
       <use style="stroke:#000000;stroke-width:0.8;" x="57.6" xlink:href="#m7772ee282d" y="211.532379"/>
      </g>
     </g>
     <g id="text_10">
      <!-- 2 -->
      <g transform="translate(44.2375 215.331598)scale(0.1 -0.1)">
       <use xlink:href="#DejaVuSans-50"/>
      </g>
     </g>
    </g>
    <g id="ytick_4">
     <g id="line2d_10">
      <g>
       <use style="stroke:#000000;stroke-width:0.8;" x="57.6" xlink:href="#m7772ee282d" y="169.526866"/>
      </g>
     </g>
     <g id="text_11">
      <!-- 3 -->
      <g transform="translate(44.2375 173.326084)scale(0.1 -0.1)">
       <use xlink:href="#DejaVuSans-51"/>
      </g>
     </g>
    </g>
    <g id="ytick_5">
     <g id="line2d_11">
      <g>
       <use style="stroke:#000000;stroke-width:0.8;" x="57.6" xlink:href="#m7772ee282d" y="127.521352"/>
      </g>
     </g>
     <g id="text_12">
      <!-- 4 -->
      <g transform="translate(44.2375 131.320571)scale(0.1 -0.1)">
       <use xlink:href="#DejaVuSans-52"/>
      </g>
     </g>
    </g>
    <g id="ytick_6">
     <g id="line2d_12">
      <g>
       <use style="stroke:#000000;stroke-width:0.8;" x="57.6" xlink:href="#m7772ee282d" y="85.515839"/>
      </g>
     </g>
     <g id="text_13">
      <!-- 5 -->
      <g transform="translate(44.2375 89.315058)scale(0.1 -0.1)">
       <use xlink:href="#DejaVuSans-53"/>
      </g>
     </g>
    </g>
    <g id="ytick_7">
     <g id="line2d_13">
      <g>
       <use style="stroke:#000000;stroke-width:0.8;" x="57.6" xlink:href="#m7772ee282d" y="43.510326"/>
      </g>
     </g>
     <g id="text_14">
      <!-- 6 -->
      <defs>
       <path d="M 33.015625 40.375 
Q 26.375 40.375 22.484375 35.828125 
Q 18.609375 31.296875 18.609375 23.390625 
Q 18.609375 15.53125 22.484375 10.953125 
Q 26.375 6.390625 33.015625 6.390625 
Q 39.65625 6.390625 43.53125 10.953125 
Q 47.40625 15.53125 47.40625 23.390625 
Q 47.40625 31.296875 43.53125 35.828125 
Q 39.65625 40.375 33.015625 40.375 
z
M 52.59375 71.296875 
L 52.59375 62.3125 
Q 48.875 64.0625 45.09375 64.984375 
Q 41.3125 65.921875 37.59375 65.921875 
Q 27.828125 65.921875 22.671875 59.328125 
Q 17.53125 52.734375 16.796875 39.40625 
Q 19.671875 43.65625 24.015625 45.921875 
Q 28.375 48.1875 33.59375 48.1875 
Q 44.578125 48.1875 50.953125 41.515625 
Q 57.328125 34.859375 57.328125 23.390625 
Q 57.328125 12.15625 50.6875 5.359375 
Q 44.046875 -1.421875 33.015625 -1.421875 
Q 20.359375 -1.421875 13.671875 8.265625 
Q 6.984375 17.96875 6.984375 36.375 
Q 6.984375 53.65625 15.1875 63.9375 
Q 23.390625 74.21875 37.203125 74.21875 
Q 40.921875 74.21875 44.703125 73.484375 
Q 48.484375 72.75 52.59375 71.296875 
z
" id="DejaVuSans-54"/>
      </defs>
      <g transform="translate(44.2375 47.309545)scale(0.1 -0.1)">
       <use xlink:href="#DejaVuSans-54"/>
      </g>
     </g>
    </g>
    <g id="text_15">
     <!-- counts -->
     <defs>
      <path d="M 48.78125 52.59375 
L 48.78125 44.1875 
Q 44.96875 46.296875 41.140625 47.34375 
Q 37.3125 48.390625 33.40625 48.390625 
Q 24.65625 48.390625 19.8125 42.84375 
Q 14.984375 37.3125 14.984375 27.296875 
Q 14.984375 17.28125 19.8125 11.734375 
Q 24.65625 6.203125 33.40625 6.203125 
Q 37.3125 6.203125 41.140625 7.25 
Q 44.96875 8.296875 48.78125 10.40625 
L 48.78125 2.09375 
Q 45.015625 0.34375 40.984375 -0.53125 
Q 36.96875 -1.421875 32.421875 -1.421875 
Q 20.0625 -1.421875 12.78125 6.34375 
Q 5.515625 14.109375 5.515625 27.296875 
Q 5.515625 40.671875 12.859375 48.328125 
Q 20.21875 56 33.015625 56 
Q 37.15625 56 41.109375 55.140625 
Q 45.0625 54.296875 48.78125 52.59375 
z
" id="DejaVuSans-99"/>
      <path d="M 30.609375 48.390625 
Q 23.390625 48.390625 19.1875 42.75 
Q 14.984375 37.109375 14.984375 27.296875 
Q 14.984375 17.484375 19.15625 11.84375 
Q 23.34375 6.203125 30.609375 6.203125 
Q 37.796875 6.203125 41.984375 11.859375 
Q 46.1875 17.53125 46.1875 27.296875 
Q 46.1875 37.015625 41.984375 42.703125 
Q 37.796875 48.390625 30.609375 48.390625 
z
M 30.609375 56 
Q 42.328125 56 49.015625 48.375 
Q 55.71875 40.765625 55.71875 27.296875 
Q 55.71875 13.875 49.015625 6.21875 
Q 42.328125 -1.421875 30.609375 -1.421875 
Q 18.84375 -1.421875 12.171875 6.21875 
Q 5.515625 13.875 5.515625 27.296875 
Q 5.515625 40.765625 12.171875 48.375 
Q 18.84375 56 30.609375 56 
z
" id="DejaVuSans-111"/>
      <path d="M 8.5 21.578125 
L 8.5 54.6875 
L 17.484375 54.6875 
L 17.484375 21.921875 
Q 17.484375 14.15625 20.5 10.265625 
Q 23.53125 6.390625 29.59375 6.390625 
Q 36.859375 6.390625 41.078125 11.03125 
Q 45.3125 15.671875 45.3125 23.6875 
L 45.3125 54.6875 
L 54.296875 54.6875 
L 54.296875 0 
L 45.3125 0 
L 45.3125 8.40625 
Q 42.046875 3.421875 37.71875 1 
Q 33.40625 -1.421875 27.6875 -1.421875 
Q 18.265625 -1.421875 13.375 4.4375 
Q 8.5 10.296875 8.5 21.578125 
z
M 31.109375 56 
z
" id="DejaVuSans-117"/>
      <path d="M 54.890625 33.015625 
L 54.890625 0 
L 45.90625 0 
L 45.90625 32.71875 
Q 45.90625 40.484375 42.875 44.328125 
Q 39.84375 48.1875 33.796875 48.1875 
Q 26.515625 48.1875 22.3125 43.546875 
Q 18.109375 38.921875 18.109375 30.90625 
L 18.109375 0 
L 9.078125 0 
L 9.078125 54.6875 
L 18.109375 54.6875 
L 18.109375 46.1875 
Q 21.34375 51.125 25.703125 53.5625 
Q 30.078125 56 35.796875 56 
Q 45.21875 56 50.046875 50.171875 
Q 54.890625 44.34375 54.890625 33.015625 
z
" id="DejaVuSans-110"/>
      <path d="M 18.3125 70.21875 
L 18.3125 54.6875 
L 36.8125 54.6875 
L 36.8125 47.703125 
L 18.3125 47.703125 
L 18.3125 18.015625 
Q 18.3125 11.328125 20.140625 9.421875 
Q 21.96875 7.515625 27.59375 7.515625 
L 36.8125 7.515625 
L 36.8125 0 
L 27.59375 0 
Q 17.1875 0 13.234375 3.875 
Q 9.28125 7.765625 9.28125 18.015625 
L 9.28125 47.703125 
L 2.6875 47.703125 
L 2.6875 54.6875 
L 9.28125 54.6875 
L 9.28125 70.21875 
z
" id="DejaVuSans-116"/>
      <path d="M 44.28125 53.078125 
L 44.28125 44.578125 
Q 40.484375 46.53125 36.375 47.5 
Q 32.28125 48.484375 27.875 48.484375 
Q 21.1875 48.484375 17.84375 46.4375 
Q 14.5 44.390625 14.5 40.28125 
Q 14.5 37.15625 16.890625 35.375 
Q 19.28125 33.59375 26.515625 31.984375 
L 29.59375 31.296875 
Q 39.15625 29.25 43.1875 25.515625 
Q 47.21875 21.78125 47.21875 15.09375 
Q 47.21875 7.46875 41.1875 3.015625 
Q 35.15625 -1.421875 24.609375 -1.421875 
Q 20.21875 -1.421875 15.453125 -0.5625 
Q 10.6875 0.296875 5.421875 2 
L 5.421875 11.28125 
Q 10.40625 8.6875 15.234375 7.390625 
Q 20.0625 6.109375 24.8125 6.109375 
Q 31.15625 6.109375 34.5625 8.28125 
Q 37.984375 10.453125 37.984375 14.40625 
Q 37.984375 18.0625 35.515625 20.015625 
Q 33.0625 21.96875 24.703125 23.78125 
L 21.578125 24.515625 
Q 13.234375 26.265625 9.515625 29.90625 
Q 5.8125 33.546875 5.8125 39.890625 
Q 5.8125 47.609375 11.28125 51.796875 
Q 16.75 56 26.8125 56 
Q 31.78125 56 36.171875 55.265625 
Q 40.578125 54.546875 44.28125 53.078125 
z
" id="DejaVuSans-115"/>
     </defs>
     <g transform="translate(38.157812 191.238937)rotate(-90)scale(0.1 -0.1)">
      <use xlink:href="#DejaVuSans-99"/>
      <use x="54.980469" xlink:href="#DejaVuSans-111"/>
      <use x="116.162109" xlink:href="#DejaVuSans-117"/>
      <use x="179.541016" xlink:href="#DejaVuSans-110"/>
      <use x="242.919922" xlink:href="#DejaVuSans-116"/>
      <use x="282.128906" xlink:href="#DejaVuSans-115"/>
     </g>
    </g>
   </g>
   <g id="line2d_14">
    <path clip-path="url(#p960e5f6385)" d="M 73.832727 293.561417 
L 77.092311 292.803092 
L 80.351895 291.797396 
L 82.959562 290.772083 
L 85.567229 289.510111 
L 88.174896 287.969517 
L 90.782563 286.104346 
L 92.738313 284.462687 
L 94.694064 282.588527 
L 96.649814 280.459057 
L 98.605564 278.051175 
L 100.561314 275.341568 
L 102.517065 272.3073 
L 104.472815 268.926192 
L 106.428565 265.177326 
L 108.384315 261.041589 
L 110.340066 256.502347 
L 112.947733 249.799149 
L 115.5554 242.332627 
L 118.163067 234.094968 
L 120.770734 225.095077 
L 123.378401 215.361013 
L 126.637985 202.237651 
L 129.897568 188.190251 
L 134.460986 167.36501 
L 146.195487 112.928049 
L 149.455071 99.238956 
L 152.062738 89.23946 
L 154.018488 82.421335 
L 155.974239 76.271602 
L 157.929989 70.85978 
L 159.885739 66.247994 
L 161.189573 63.644703 
L 162.493406 61.43454 
L 163.79724 59.628933 
L 165.101073 58.237333 
L 166.404907 57.266879 
L 167.70874 56.722488 
L 169.012574 56.606721 
L 170.316407 56.919788 
L 171.620241 57.659589 
L 172.924074 58.821714 
L 174.227908 60.399399 
L 175.531742 62.383697 
L 176.835575 64.763477 
L 178.139409 67.525634 
L 180.095159 72.352277 
L 182.050909 77.946446 
L 184.006659 84.241938 
L 186.614326 93.599842 
L 189.221993 103.887076 
L 192.481577 117.751332 
L 197.044995 138.331219 
L 206.171829 179.808387 
L 210.08333 196.358391 
L 213.342913 209.157765 
L 215.950581 218.637065 
L 218.558248 227.384797 
L 221.165915 235.37223 
L 223.773582 242.590205 
L 226.381249 249.046747 
L 228.988916 254.764747 
L 230.944666 258.589097 
L 232.900416 262.035649 
L 234.856166 265.124987 
L 236.811917 267.879414 
L 238.767667 270.322371 
L 240.723417 272.47801 
L 242.679168 274.370778 
L 244.634918 276.024787 
L 247.242585 277.899662 
L 249.850252 279.445926 
L 252.457919 280.713989 
L 255.065586 281.750055 
L 258.32517 282.78213 
L 261.584754 283.587922 
L 265.496254 284.339821 
L 270.711588 285.109824 
L 279.838423 286.1813 
L 296.136342 288.102801 
L 330.036013 292.309065 
L 340.466681 293.261834 
L 350.897349 293.979372 
L 361.979934 294.510826 
L 375.018269 294.902191 
L 391.968105 295.173967 
L 398.487273 295.237185 
L 398.487273 295.237185 
" style="fill:none;stroke:#1f77b4;stroke-linecap:square;stroke-width:1.5;"/>
   </g>
   <g id="line2d_15">
    <path clip-path="url(#p960e5f6385)" d="M 73.832727 293.841258 
L 77.744228 293.173748 
L 81.655728 292.283777 
L 84.915312 291.330462 
L 88.174896 290.143471 
L 91.43448 288.67941 
L 94.042147 287.27693 
L 96.649814 285.640774 
L 99.257481 283.743805 
L 101.865148 281.558258 
L 104.472815 279.055989 
L 107.080482 276.209276 
L 109.688149 272.991653 
L 112.295816 269.378297 
L 114.903483 265.347364 
L 117.51115 260.880666 
L 120.118817 255.964719 
L 122.726484 250.591751 
L 125.334151 244.760714 
L 128.593735 236.838516 
L 131.853319 228.243012 
L 135.112903 219.028599 
L 139.024403 207.266383 
L 143.58782 192.807455 
L 157.929989 146.723543 
L 161.189573 137.240252 
L 163.79724 130.212184 
L 166.404907 123.787272 
L 169.012574 118.05793 
L 170.968324 114.268571 
L 172.924074 110.950093 
L 174.879825 108.130809 
L 176.835575 105.834956 
L 178.139409 104.605161 
L 179.443242 103.62156 
L 180.747076 102.887933 
L 182.050909 102.407012 
L 183.354743 102.18056 
L 184.658576 102.209292 
L 185.96241 102.492913 
L 187.266243 103.030122 
L 188.570077 103.818523 
L 189.87391 104.854799 
L 191.177744 106.134665 
L 192.481577 107.652829 
L 194.437327 110.36315 
L 196.393078 113.571069 
L 198.348828 117.248022 
L 200.304578 121.361832 
L 202.912245 127.464939 
L 205.519912 134.190316 
L 208.779496 143.323406 
L 212.690997 155.08579 
L 218.558248 173.650841 
L 226.381249 198.426281 
L 230.944666 212.095589 
L 234.856166 223.032186 
L 238.11575 231.481385 
L 241.375334 239.263873 
L 243.983001 244.986158 
L 246.590668 250.251969 
L 249.198335 255.061642 
L 251.806002 259.422528 
L 254.413669 263.348028 
L 257.021336 266.856412 
L 259.629003 269.970113 
L 262.23667 272.714417 
L 264.844337 275.116796 
L 267.452004 277.20594 
L 270.059671 279.011043 
L 272.667338 280.561257 
L 275.275005 281.884977 
L 278.534589 283.262505 
L 281.794173 284.378634 
L 285.053757 285.278938 
L 288.965257 286.131734 
L 293.528675 286.889093 
L 299.395926 287.606884 
L 307.218927 288.312828 
L 365.891435 292.861773 
L 380.233604 293.746241 
L 393.923855 294.370443 
L 398.487273 294.532543 
L 398.487273 294.532543 
" style="fill:none;stroke:#ff7f0e;stroke-linecap:square;stroke-width:1.5;"/>
   </g>
   <g id="line2d_16">
    <path clip-path="url(#p960e5f6385)" d="M 73.832727 288.426453 
L 78.396145 286.919463 
L 82.959562 285.17258 
L 87.522979 283.166439 
L 92.086396 280.884279 
L 96.649814 278.313038 
L 101.213231 275.444397 
L 105.776648 272.275921 
L 110.340066 268.812189 
L 114.903483 265.065717 
L 120.118817 260.465231 
L 125.334151 255.569531 
L 131.853319 249.131136 
L 154.018488 226.874388 
L 158.581906 222.74344 
L 162.493406 219.465918 
L 166.404907 216.482182 
L 169.664491 214.25274 
L 172.924074 212.282387 
L 176.183658 210.592589 
L 179.443242 209.201829 
L 182.050909 208.314967 
L 184.658576 207.635653 
L 187.266243 207.168594 
L 189.87391 206.917065 
L 192.481577 206.882537 
L 195.089244 207.065092 
L 197.696911 207.462969 
L 200.304578 208.072973 
L 202.912245 208.890232 
L 205.519912 209.908488 
L 208.779496 211.45198 
L 212.03908 213.279346 
L 215.298664 215.369624 
L 218.558248 217.699502 
L 222.469748 220.775566 
L 227.033165 224.690984 
L 232.248499 229.500531 
L 238.767667 235.840549 
L 256.369419 253.150769 
L 262.23667 258.526215 
L 267.452004 263.000978 
L 272.015422 266.644704 
L 276.578839 270.013378 
L 281.142256 273.095449 
L 285.705674 275.887177 
L 290.269091 278.391714 
L 294.832508 280.617922 
L 299.395926 282.579286 
L 303.959343 284.292985 
L 308.52276 285.778552 
L 313.738094 287.224087 
L 318.953428 288.431578 
L 324.820679 289.545438 
L 331.339847 290.530131 
L 338.510931 291.368057 
L 346.985849 292.10895 
L 356.7646 292.729246 
L 369.802935 293.314047 
L 388.056605 293.890446 
L 398.487273 294.153023 
L 398.487273 294.153023 
" style="fill:none;stroke:#2ca02c;stroke-linecap:square;stroke-width:1.5;"/>
   </g>
   <g id="line2d_17">
    <path clip-path="url(#p960e5f6385)" d="M 73.832727 294.091821 
L 78.396145 293.380625 
L 82.307645 292.539171 
L 85.567229 291.629248 
L 88.826813 290.486614 
L 92.086396 289.065231 
L 94.694064 287.693289 
L 97.301731 286.082041 
L 99.909398 284.201455 
L 102.517065 282.020276 
L 105.124732 279.506414 
L 107.732399 276.627651 
L 110.340066 273.352229 
L 112.947733 269.649779 
L 115.5554 265.492241 
L 118.163067 260.854916 
L 120.770734 255.717558 
L 123.378401 250.065422 
L 125.986068 243.890696 
L 128.593735 237.193337 
L 131.853319 228.101327 
L 135.112903 218.247086 
L 138.372486 207.696729 
L 142.283987 194.251941 
L 147.499321 175.362019 
L 159.233823 132.356397 
L 162.493406 121.291599 
L 165.75299 111.035617 
L 168.360657 103.563928 
L 170.968324 96.861486 
L 172.924074 92.399661 
L 174.879825 88.464626 
L 176.835575 85.090239 
L 178.791325 82.305736 
L 180.095159 80.789337 
L 181.398992 79.551896 
L 182.702826 78.598203 
L 184.006659 77.931828 
L 185.310493 77.555374 
L 186.614326 77.470019 
L 187.91816 77.675972 
L 189.221993 78.172141 
L 190.525827 78.956258 
L 191.82966 80.024962 
L 193.133494 81.373718 
L 194.437327 82.996769 
L 195.741161 84.887479 
L 197.696911 88.208141 
L 199.652662 92.082981 
L 201.608412 96.477262 
L 203.564162 101.352296 
L 206.171829 108.526753 
L 208.779496 116.372921 
L 212.03908 126.951212 
L 215.950581 140.471232 
L 222.469748 163.983272 
L 228.988916 187.255797 
L 232.900416 200.507066 
L 236.811917 212.931456 
L 240.071501 222.528372 
L 243.331084 231.36377 
L 245.938751 237.855722 
L 248.546418 243.824747 
L 251.154085 249.270888 
L 253.761752 254.202377 
L 256.369419 258.634463 
L 258.977087 262.588274 
L 261.584754 266.089433 
L 264.192421 269.167345 
L 266.800088 271.853724 
L 269.407755 274.181796 
L 272.015422 276.185459 
L 274.623089 277.898359 
L 277.230756 279.35343 
L 279.838423 280.582386 
L 283.098007 281.845869 
L 286.35759 282.856564 
L 290.269091 283.803578 
L 294.832508 284.632809 
L 300.047842 285.332117 
L 307.218927 286.048227 
L 342.422432 289.247745 
L 371.106769 292.135456 
L 383.493187 293.123888 
L 395.879606 293.883011 
L 398.487273 294.014111 
L 398.487273 294.014111 
" style="fill:none;stroke:#d62728;stroke-linecap:square;stroke-width:1.5;"/>
   </g>
   <g id="line2d_18">
    <path clip-path="url(#p960e5f6385)" d="M 73.832727 294.721273 
L 79.048061 294.182889 
L 83.611479 293.472365 
L 87.522979 292.619401 
L 90.782563 291.687425 
L 94.042147 290.507952 
L 96.649814 289.353179 
L 99.257481 287.981111 
L 101.865148 286.362554 
L 104.472815 284.46714 
L 107.080482 282.263782 
L 109.688149 279.721483 
L 112.295816 276.810123 
L 114.903483 273.501474 
L 117.51115 269.770251 
L 120.118817 265.595449 
L 122.726484 260.961526 
L 125.334151 255.859705 
L 127.941818 250.289396 
L 130.549485 244.259084 
L 133.809069 236.104344 
L 137.068653 227.323175 
L 140.980153 216.088927 
L 146.195487 200.289351 
L 155.974239 170.434731 
L 159.233823 161.182722 
L 161.84149 154.287139 
L 164.449157 147.962201 
L 167.056824 142.31351 
L 169.012574 138.579556 
L 170.968324 135.317702 
L 172.924074 132.560502 
L 174.227908 131.016673 
L 175.531742 129.716603 
L 176.835575 128.666129 
L 178.139409 127.869956 
L 179.443242 127.331655 
L 180.747076 127.053579 
L 182.050909 127.036861 
L 183.354743 127.281375 
L 184.658576 127.785735 
L 185.96241 128.547421 
L 187.266243 129.56261 
L 188.570077 130.82643 
L 189.87391 132.33279 
L 191.82966 135.031056 
L 193.785411 138.230196 
L 195.741161 141.896941 
L 197.696911 145.993949 
L 200.304578 152.054588 
L 202.912245 158.702255 
L 206.171829 167.667786 
L 210.08333 179.093957 
L 223.773582 219.72694 
L 227.685082 230.267132 
L 230.944666 238.391124 
L 234.20425 245.838534 
L 236.811917 251.279928 
L 239.419584 256.251196 
L 242.027251 260.752297 
L 244.634918 264.791757 
L 247.242585 268.385203 
L 249.850252 271.554057 
L 252.457919 274.324404 
L 255.065586 276.725397 
L 257.673253 278.788456 
L 260.28092 280.546093 
L 262.888587 282.030946 
L 265.496254 283.275065 
L 268.103921 284.309409 
L 271.363505 285.351566 
L 274.623089 286.16391 
L 278.534589 286.900981 
L 283.098007 287.520016 
L 288.965257 288.069784 
L 298.092092 288.665759 
L 317.649595 289.912062 
L 334.59943 291.280224 
L 356.7646 293.047942 
L 370.454852 293.896873 
L 383.493187 294.480078 
L 397.835356 294.896184 
L 398.487273 294.910424 
L 398.487273 294.910424 
" style="fill:none;stroke:#9467bd;stroke-linecap:square;stroke-width:1.5;"/>
   </g>
   <g id="line2d_19">
    <path clip-path="url(#p960e5f6385)" d="M 73.832727 295.267639 
L 81.655728 294.942936 
L 87.522979 294.507969 
L 92.738313 293.908971 
L 97.301731 293.158374 
L 101.213231 292.298227 
L 105.124732 291.192474 
L 108.384315 290.050386 
L 111.643899 288.679158 
L 114.903483 287.052999 
L 118.163067 285.148553 
L 121.422651 282.94654 
L 124.682234 280.433518 
L 127.941818 277.603817 
L 131.201402 274.46109 
L 134.460986 271.020083 
L 138.372486 266.536372 
L 142.935904 260.910364 
L 150.106988 251.602656 
L 155.974239 244.086021 
L 159.885739 239.416857 
L 163.145323 235.879152 
L 165.75299 233.348866 
L 168.360657 231.134294 
L 170.968324 229.276054 
L 172.924074 228.13741 
L 174.879825 227.231015 
L 176.835575 226.56674 
L 178.791325 226.151726 
L 180.747076 225.990508 
L 182.702826 226.084769 
L 184.658576 226.433373 
L 186.614326 227.032413 
L 188.570077 227.875212 
L 190.525827 228.952443 
L 192.481577 230.252514 
L 195.089244 232.308054 
L 197.696911 234.696151 
L 200.304578 237.373372 
L 203.564162 241.05419 
L 207.475663 245.832611 
L 213.99483 254.233713 
L 220.513998 262.553199 
L 225.077415 268.005599 
L 228.988916 272.303771 
L 232.248499 275.572556 
L 235.508083 278.533777 
L 238.767667 281.178276 
L 242.027251 283.507188 
L 245.286835 285.530509 
L 248.546418 287.264917 
L 251.806002 288.732295 
L 255.065586 289.95768 
L 258.32517 290.967913 
L 262.23667 291.934586 
L 266.148171 292.676487 
L 270.711588 293.314341 
L 275.926922 293.81534 
L 282.44609 294.20511 
L 291.572924 294.493225 
L 307.870843 294.724886 
L 384.797021 295.44234 
L 398.487273 295.488 
L 398.487273 295.488 
" style="fill:none;stroke:#8c564b;stroke-linecap:square;stroke-width:1.5;"/>
   </g>
   <g id="line2d_20">
    <path clip-path="url(#p960e5f6385)" d="M 73.832727 271.045202 
L 77.092311 267.488721 
L 80.351895 263.573933 
L 83.611479 259.291975 
L 86.871062 254.638689 
L 90.130646 249.614997 
L 93.39023 244.227832 
L 97.301731 237.302887 
L 101.213231 229.910631 
L 105.776648 220.765653 
L 110.991982 209.763527 
L 118.163067 194.053843 
L 127.289901 174.083708 
L 131.853319 164.57429 
L 135.764819 156.897572 
L 139.024403 150.93888 
L 142.283987 145.460311 
L 144.891654 141.471551 
L 147.499321 137.870209 
L 150.106988 134.687577 
L 152.062738 132.592258 
L 154.018488 130.758549 
L 155.974239 129.195566 
L 157.929989 127.910954 
L 159.885739 126.911054 
L 161.84149 126.200615 
L 163.79724 125.782912 
L 165.75299 125.659584 
L 167.70874 125.83084 
L 169.664491 126.295169 
L 171.620241 127.049588 
L 173.575991 128.089561 
L 175.531742 129.409038 
L 177.487492 131.000585 
L 179.443242 132.855338 
L 181.398992 134.963175 
L 184.006659 138.147613 
L 186.614326 141.731902 
L 189.221993 145.683108 
L 192.481577 151.084009 
L 195.741161 156.929286 
L 199.652662 164.421894 
L 204.216079 173.651261 
L 211.387163 188.725317 
L 220.513998 207.850344 
L 225.729332 218.274096 
L 230.292749 226.898332 
L 234.20425 233.844573 
L 238.11575 240.332955 
L 242.027251 246.334997 
L 245.286835 250.954217 
L 248.546418 255.223237 
L 251.806002 259.14546 
L 255.065586 262.72874 
L 258.32517 265.984924 
L 261.584754 268.92888 
L 264.844337 271.578042 
L 268.103921 273.951605 
L 271.363505 276.069901 
L 274.623089 277.953891 
L 278.534589 279.934997 
L 282.44609 281.644831 
L 286.35759 283.117544 
L 290.921008 284.578874 
L 295.484425 285.807703 
L 300.699759 286.979951 
L 306.56701 288.065038 
L 313.086177 289.051033 
L 320.909179 290.014556 
L 330.68793 290.990092 
L 343.074348 291.988101 
L 357.416517 292.916885 
L 373.062519 293.710789 
L 390.012355 294.346836 
L 398.487273 294.588452 
L 398.487273 294.588452 
" style="fill:none;stroke:#e377c2;stroke-linecap:square;stroke-width:1.5;"/>
   </g>
   <g id="line2d_21">
    <path clip-path="url(#p960e5f6385)" d="M 73.832727 293.891538 
L 77.092311 293.186056 
L 80.351895 292.223248 
L 82.959562 291.21793 
L 85.567229 289.955496 
L 88.174896 288.385204 
L 90.130646 286.971634 
L 92.086396 285.327412 
L 94.042147 283.425361 
L 95.997897 281.237126 
L 97.953647 278.733555 
L 99.909398 275.885245 
L 101.865148 272.66296 
L 103.820898 269.038304 
L 105.776648 264.984604 
L 107.732399 260.477413 
L 109.688149 255.495601 
L 111.643899 250.022157 
L 114.251566 241.939708 
L 116.859233 232.951452 
L 119.4669 223.068857 
L 122.074567 212.329391 
L 125.334151 197.804179 
L 128.593735 182.243447 
L 133.157152 159.254291 
L 141.63207 116.160667 
L 144.891654 100.826219 
L 147.499321 89.57584 
L 149.455071 81.893998 
L 151.410821 74.969347 
L 153.366572 68.892073 
L 155.322322 63.742911 
L 156.626156 60.860409 
L 157.929989 58.438833 
L 159.233823 56.49276 
L 160.537656 55.03395 
L 161.84149 54.071058 
L 162.493406 53.777481 
L 163.145323 53.609711 
L 163.79724 53.568 
L 164.449157 53.652347 
L 165.101073 53.862501 
L 166.404907 54.658589 
L 167.70874 55.950679 
L 169.012574 57.730074 
L 170.316407 59.98514 
L 171.620241 62.701175 
L 172.924074 65.860871 
L 174.879825 71.387915 
L 176.835575 77.790605 
L 178.791325 84.981571 
L 181.398992 95.629297 
L 184.006659 107.26432 
L 187.266243 122.809216 
L 193.785411 155.365169 
L 199.000745 180.83853 
L 202.260329 195.764559 
L 205.519912 209.601679 
L 208.127579 219.763191 
L 210.735246 229.052626 
L 213.342913 237.440749 
L 215.950581 244.924157 
L 217.906331 249.953562 
L 219.862081 254.499104 
L 221.817831 258.580528 
L 223.773582 262.221608 
L 225.729332 265.448933 
L 227.685082 268.291446 
L 229.640832 270.779391 
L 231.596583 272.943641 
L 233.552333 274.815155 
L 235.508083 276.424344 
L 237.463834 277.800697 
L 240.071501 279.32201 
L 242.679168 280.541346 
L 245.286835 281.515076 
L 248.546418 282.462426 
L 252.457919 283.31203 
L 257.021336 284.050613 
L 264.192421 284.955622 
L 279.186506 286.827135 
L 291.572924 288.655341 
L 309.174677 291.249056 
L 318.953428 292.444491 
L 328.080263 293.329673 
L 337.207097 293.992478 
L 347.637766 294.51553 
L 360.024184 294.896184 
L 376.322103 295.160105 
L 398.487273 295.332748 
L 398.487273 295.332748 
" style="fill:none;stroke:#7f7f7f;stroke-linecap:square;stroke-width:1.5;"/>
   </g>
   <g id="patch_3">
    <path d="M 57.6 307.584 
L 57.6 41.472 
" style="fill:none;stroke:#000000;stroke-linecap:square;stroke-linejoin:miter;stroke-width:0.8;"/>
   </g>
   <g id="patch_4">
    <path d="M 414.72 307.584 
L 414.72 41.472 
" style="fill:none;stroke:#000000;stroke-linecap:square;stroke-linejoin:miter;stroke-width:0.8;"/>
   </g>
   <g id="patch_5">
    <path d="M 57.6 307.584 
L 414.72 307.584 
" style="fill:none;stroke:#000000;stroke-linecap:square;stroke-linejoin:miter;stroke-width:0.8;"/>
   </g>
   <g id="patch_6">
    <path d="M 57.6 41.472 
L 414.72 41.472 
" style="fill:none;stroke:#000000;stroke-linecap:square;stroke-linejoin:miter;stroke-width:0.8;"/>
   </g>
   <g id="legend_1">
    <g id="patch_7">
     <path d="M 340.204375 166.897 
L 407.72 166.897 
Q 409.72 166.897 409.72 164.897 
L 409.72 48.472 
Q 409.72 46.472 407.72 46.472 
L 340.204375 46.472 
Q 338.204375 46.472 338.204375 48.472 
L 338.204375 164.897 
Q 338.204375 166.897 340.204375 166.897 
z
" style="fill:#ffffff;opacity:0.8;stroke:#cccccc;stroke-linejoin:miter;"/>
    </g>
    <g id="line2d_22">
     <path d="M 342.204375 54.570438 
L 362.204375 54.570438 
" style="fill:none;stroke:#1f77b4;stroke-linecap:square;stroke-width:1.5;"/>
    </g>
    <g id="line2d_23"/>
    <g id="text_16">
     <!-- PMT s0 -->
     <g transform="translate(370.204375 58.070438)scale(0.1 -0.1)">
      <use xlink:href="#DejaVuSans-80"/>
      <use x="60.302734" xlink:href="#DejaVuSans-77"/>
      <use x="146.582031" xlink:href="#DejaVuSans-84"/>
      <use x="207.666016" xlink:href="#DejaVuSans-32"/>
      <use x="239.453125" xlink:href="#DejaVuSans-115"/>
      <use x="291.552734" xlink:href="#DejaVuSans-48"/>
     </g>
    </g>
    <g id="line2d_24">
     <path d="M 342.204375 69.248563 
L 362.204375 69.248563 
" style="fill:none;stroke:#ff7f0e;stroke-linecap:square;stroke-width:1.5;"/>
    </g>
    <g id="line2d_25"/>
    <g id="text_17">
     <!-- PMT s1 -->
     <g transform="translate(370.204375 72.748563)scale(0.1 -0.1)">
      <use xlink:href="#DejaVuSans-80"/>
      <use x="60.302734" xlink:href="#DejaVuSans-77"/>
      <use x="146.582031" xlink:href="#DejaVuSans-84"/>
      <use x="207.666016" xlink:href="#DejaVuSans-32"/>
      <use x="239.453125" xlink:href="#DejaVuSans-115"/>
      <use x="291.552734" xlink:href="#DejaVuSans-49"/>
     </g>
    </g>
    <g id="line2d_26">
     <path d="M 342.204375 83.926688 
L 362.204375 83.926688 
" style="fill:none;stroke:#2ca02c;stroke-linecap:square;stroke-width:1.5;"/>
    </g>
    <g id="line2d_27"/>
    <g id="text_18">
     <!-- PMT s2 -->
     <g transform="translate(370.204375 87.426688)scale(0.1 -0.1)">
      <use xlink:href="#DejaVuSans-80"/>
      <use x="60.302734" xlink:href="#DejaVuSans-77"/>
      <use x="146.582031" xlink:href="#DejaVuSans-84"/>
      <use x="207.666016" xlink:href="#DejaVuSans-32"/>
      <use x="239.453125" xlink:href="#DejaVuSans-115"/>
      <use x="291.552734" xlink:href="#DejaVuSans-50"/>
     </g>
    </g>
    <g id="line2d_28">
     <path d="M 342.204375 98.604813 
L 362.204375 98.604813 
" style="fill:none;stroke:#d62728;stroke-linecap:square;stroke-width:1.5;"/>
    </g>
    <g id="line2d_29"/>
    <g id="text_19">
     <!-- PMT s3 -->
     <g transform="translate(370.204375 102.104813)scale(0.1 -0.1)">
      <use xlink:href="#DejaVuSans-80"/>
      <use x="60.302734" xlink:href="#DejaVuSans-77"/>
      <use x="146.582031" xlink:href="#DejaVuSans-84"/>
      <use x="207.666016" xlink:href="#DejaVuSans-32"/>
      <use x="239.453125" xlink:href="#DejaVuSans-115"/>
      <use x="291.552734" xlink:href="#DejaVuSans-51"/>
     </g>
    </g>
    <g id="line2d_30">
     <path d="M 342.204375 113.282938 
L 362.204375 113.282938 
" style="fill:none;stroke:#9467bd;stroke-linecap:square;stroke-width:1.5;"/>
    </g>
    <g id="line2d_31"/>
    <g id="text_20">
     <!-- PMT s4 -->
     <g transform="translate(370.204375 116.782938)scale(0.1 -0.1)">
      <use xlink:href="#DejaVuSans-80"/>
      <use x="60.302734" xlink:href="#DejaVuSans-77"/>
      <use x="146.582031" xlink:href="#DejaVuSans-84"/>
      <use x="207.666016" xlink:href="#DejaVuSans-32"/>
      <use x="239.453125" xlink:href="#DejaVuSans-115"/>
      <use x="291.552734" xlink:href="#DejaVuSans-52"/>
     </g>
    </g>
    <g id="line2d_32">
     <path d="M 342.204375 127.961063 
L 362.204375 127.961063 
" style="fill:none;stroke:#8c564b;stroke-linecap:square;stroke-width:1.5;"/>
    </g>
    <g id="line2d_33"/>
    <g id="text_21">
     <!-- PMT s5 -->
     <g transform="translate(370.204375 131.461063)scale(0.1 -0.1)">
      <use xlink:href="#DejaVuSans-80"/>
      <use x="60.302734" xlink:href="#DejaVuSans-77"/>
      <use x="146.582031" xlink:href="#DejaVuSans-84"/>
      <use x="207.666016" xlink:href="#DejaVuSans-32"/>
      <use x="239.453125" xlink:href="#DejaVuSans-115"/>
      <use x="291.552734" xlink:href="#DejaVuSans-53"/>
     </g>
    </g>
    <g id="line2d_34">
     <path d="M 342.204375 142.639188 
L 362.204375 142.639188 
" style="fill:none;stroke:#e377c2;stroke-linecap:square;stroke-width:1.5;"/>
    </g>
    <g id="line2d_35"/>
    <g id="text_22">
     <!-- PMT s6 -->
     <g transform="translate(370.204375 146.139188)scale(0.1 -0.1)">
      <use xlink:href="#DejaVuSans-80"/>
      <use x="60.302734" xlink:href="#DejaVuSans-77"/>
      <use x="146.582031" xlink:href="#DejaVuSans-84"/>
      <use x="207.666016" xlink:href="#DejaVuSans-32"/>
      <use x="239.453125" xlink:href="#DejaVuSans-115"/>
      <use x="291.552734" xlink:href="#DejaVuSans-54"/>
     </g>
    </g>
    <g id="line2d_36">
     <path d="M 342.204375 157.317313 
L 362.204375 157.317313 
" style="fill:none;stroke:#7f7f7f;stroke-linecap:square;stroke-width:1.5;"/>
    </g>
    <g id="line2d_37"/>
    <g id="text_23">
     <!-- PMT s7 -->
     <defs>
      <path d="M 8.203125 72.90625 
L 55.078125 72.90625 
L 55.078125 68.703125 
L 28.609375 0 
L 18.3125 0 
L 43.21875 64.59375 
L 8.203125 64.59375 
z
" id="DejaVuSans-55"/>
     </defs>
     <g transform="translate(370.204375 160.817313)scale(0.1 -0.1)">
      <use xlink:href="#DejaVuSans-80"/>
      <use x="60.302734" xlink:href="#DejaVuSans-77"/>
      <use x="146.582031" xlink:href="#DejaVuSans-84"/>
      <use x="207.666016" xlink:href="#DejaVuSans-32"/>
      <use x="239.453125" xlink:href="#DejaVuSans-115"/>
      <use x="291.552734" xlink:href="#DejaVuSans-55"/>
     </g>
    </g>
   </g>
  </g>
 </g>
 <defs>
  <clipPath id="p960e5f6385">
   <rect height="266.112" width="357.12" x="57.6" y="41.472"/>
  </clipPath>
 </defs>
</svg>
