<?xml version="1.0" standalone="no"?>
<svg width="567.429" height="413.846" viewBox="0 0 567.429 413.846" xmlns="http://www.w3.org/2000/svg" shape-rendering="crispEdges">
<title>
figures/chi2zoomin_4PMTnpefilelist20.svg
</title>
<desc>
Creator: ROOT Version 6.18/04
CreationDate: Sun Nov  3 23:53:35 2019</desc>
<defs>
</defs>
<rect x="0.5" y="0" width="566.929" height="413.346" fill="white"/>
<rect x="57.1929" y="41.3346" width="453.543" height="330.677" fill="white"/>
<rect x="57.1929" y="41.3346" width="453.543" height="330.677" fill="none" stroke="black"/>
<path d="M57.1929,372.012h 453.543" fill="none" stroke="black"/>
<path d="M62.1333,41.3346v 330.677" fill="none" stroke="black" stroke-dasharray=" 1, 2"/>
<path d="M106.603,41.3346v 330.677" fill="none" stroke="black" stroke-dasharray=" 1, 2"/>
<path d="M151.072,41.3346v 330.677" fill="none" stroke="black" stroke-dasharray=" 1, 2"/>
<path d="M195.542,41.3346v 330.677" fill="none" stroke="black" stroke-dasharray=" 1, 2"/>
<path d="M240.011,41.3346v 330.677" fill="none" stroke="black" stroke-dasharray=" 1, 2"/>
<path d="M284.481,41.3346v 330.677" fill="none" stroke="black" stroke-dasharray=" 1, 2"/>
<path d="M328.95,41.3346v 330.677" fill="none" stroke="black" stroke-dasharray=" 1, 2"/>
<path d="M373.42,41.3346v 330.677" fill="none" stroke="black" stroke-dasharray=" 1, 2"/>
<path d="M417.889,41.3346v 330.677" fill="none" stroke="black" stroke-dasharray=" 1, 2"/>
<path d="M462.359,41.3346v 330.677" fill="none" stroke="black" stroke-dasharray=" 1, 2"/>
<path d="M506.828,41.3346v 330.677" fill="none" stroke="black" stroke-dasharray=" 1, 2"/>
<path d="M62.1333,41.3346v 330.677" fill="none" stroke="black" stroke-dasharray=" 1, 2"/>
<path d="M506.828,41.3346v 330.677" fill="none" stroke="black" stroke-dasharray=" 1, 2"/>
<path d="M57.1929,372.012v -330.677" fill="none" stroke="black"/>
<path d="M57.1929,372.012h 453.543" fill="none" stroke="black"/>
<path d="M62.1333,362.091v 9.92031" fill="none" stroke="black"/>
<path d="M73.2507,367.052v 4.96016" fill="none" stroke="black"/>
<path d="M84.368,367.052v 4.96016" fill="none" stroke="black"/>
<path d="M95.4854,367.052v 4.96016" fill="none" stroke="black"/>
<path d="M106.603,362.091v 9.92031" fill="none" stroke="black"/>
<path d="M117.72,367.052v 4.96016" fill="none" stroke="black"/>
<path d="M128.838,367.052v 4.96016" fill="none" stroke="black"/>
<path d="M139.955,367.052v 4.96016" fill="none" stroke="black"/>
<path d="M151.072,362.091v 9.92031" fill="none" stroke="black"/>
<path d="M162.19,367.052v 4.96016" fill="none" stroke="black"/>
<path d="M173.307,367.052v 4.96016" fill="none" stroke="black"/>
<path d="M184.424,367.052v 4.96016" fill="none" stroke="black"/>
<path d="M195.542,362.091v 9.92031" fill="none" stroke="black"/>
<path d="M206.659,367.052v 4.96016" fill="none" stroke="black"/>
<path d="M217.776,367.052v 4.96016" fill="none" stroke="black"/>
<path d="M228.894,367.052v 4.96016" fill="none" stroke="black"/>
<path d="M240.011,362.091v 9.92031" fill="none" stroke="black"/>
<path d="M251.129,367.052v 4.96016" fill="none" stroke="black"/>
<path d="M262.246,367.052v 4.96016" fill="none" stroke="black"/>
<path d="M273.363,367.052v 4.96016" fill="none" stroke="black"/>
<path d="M284.481,362.091v 9.92031" fill="none" stroke="black"/>
<path d="M295.598,367.052v 4.96016" fill="none" stroke="black"/>
<path d="M306.715,367.052v 4.96016" fill="none" stroke="black"/>
<path d="M317.833,367.052v 4.96016" fill="none" stroke="black"/>
<path d="M328.95,362.091v 9.92031" fill="none" stroke="black"/>
<path d="M340.068,367.052v 4.96016" fill="none" stroke="black"/>
<path d="M351.185,367.052v 4.96016" fill="none" stroke="black"/>
<path d="M362.302,367.052v 4.96016" fill="none" stroke="black"/>
<path d="M373.42,362.091v 9.92031" fill="none" stroke="black"/>
<path d="M384.537,367.052v 4.96016" fill="none" stroke="black"/>
<path d="M395.654,367.052v 4.96016" fill="none" stroke="black"/>
<path d="M406.772,367.052v 4.96016" fill="none" stroke="black"/>
<path d="M417.889,362.091v 9.92031" fill="none" stroke="black"/>
<path d="M429.006,367.052v 4.96016" fill="none" stroke="black"/>
<path d="M440.124,367.052v 4.96016" fill="none" stroke="black"/>
<path d="M451.241,367.052v 4.96016" fill="none" stroke="black"/>
<path d="M462.359,362.091v 9.92031" fill="none" stroke="black"/>
<path d="M473.476,367.052v 4.96016" fill="none" stroke="black"/>
<path d="M484.593,367.052v 4.96016" fill="none" stroke="black"/>
<path d="M495.711,367.052v 4.96016" fill="none" stroke="black"/>
<path d="M506.828,362.091v 9.92031" fill="none" stroke="black"/>
<path d="M62.1333,362.091v 9.92031" fill="none" stroke="black"/>
<path d="M506.828,362.091v 9.92031" fill="none" stroke="black"/>
<text xml:space="preserve" x="45.532" y="385.379" fill="black" font-size="13.7726" font-family="Helvetica">1.622</text>
<text xml:space="preserve" x="89.616" y="385.379" fill="black" font-size="13.7726" font-family="Helvetica">1.624</text>
<text xml:space="preserve" x="134.174" y="385.379" fill="black" font-size="13.7726" font-family="Helvetica">1.626</text>
<text xml:space="preserve" x="178.732" y="385.379" fill="black" font-size="13.7726" font-family="Helvetica">1.628</text>
<text xml:space="preserve" x="227.082" y="385.379" fill="black" font-size="13.7726" font-family="Helvetica">1.63</text>
<text xml:space="preserve" x="267.848" y="385.379" fill="black" font-size="13.7726" font-family="Helvetica">1.632</text>
<text xml:space="preserve" x="311.932" y="385.379" fill="black" font-size="13.7726" font-family="Helvetica">1.634</text>
<text xml:space="preserve" x="356.49" y="385.379" fill="black" font-size="13.7726" font-family="Helvetica">1.636</text>
<text xml:space="preserve" x="401.048" y="385.379" fill="black" font-size="13.7726" font-family="Helvetica">1.638</text>
<text xml:space="preserve" x="449.398" y="385.379" fill="black" font-size="13.7726" font-family="Helvetica">1.64</text>
<text xml:space="preserve" x="490.164" y="385.379" fill="black" font-size="13.7726" font-family="Helvetica">1.642</text>
<text xml:space="preserve" x="413.372" y="400.074" fill="black" font-size="13.7726" font-family="Helvetica">calibration factor</text>
<path d="M57.1929,372.012v -330.677" fill="none" stroke="black"/>
<path d="M70.7992,370.222h -13.6063" fill="none" stroke="black"/>
<path d="M63.9961,363.608h -6.80315" fill="none" stroke="black"/>
<path d="M63.9961,356.995h -6.80315" fill="none" stroke="black"/>
<path d="M63.9961,350.381h -6.80315" fill="none" stroke="black"/>
<path d="M63.9961,343.768h -6.80315" fill="none" stroke="black"/>
<path d="M70.7992,337.154h -13.6063" fill="none" stroke="black"/>
<path d="M63.9961,330.541h -6.80315" fill="none" stroke="black"/>
<path d="M63.9961,323.927h -6.80315" fill="none" stroke="black"/>
<path d="M63.9961,317.314h -6.80315" fill="none" stroke="black"/>
<path d="M63.9961,310.7h -6.80315" fill="none" stroke="black"/>
<path d="M70.7992,304.087h -13.6063" fill="none" stroke="black"/>
<path d="M63.9961,297.473h -6.80315" fill="none" stroke="black"/>
<path d="M63.9961,290.86h -6.80315" fill="none" stroke="black"/>
<path d="M63.9961,284.246h -6.80315" fill="none" stroke="black"/>
<path d="M63.9961,277.632h -6.80315" fill="none" stroke="black"/>
<path d="M70.7992,271.019h -13.6063" fill="none" stroke="black"/>
<path d="M63.9961,264.405h -6.80315" fill="none" stroke="black"/>
<path d="M63.9961,257.792h -6.80315" fill="none" stroke="black"/>
<path d="M63.9961,251.178h -6.80315" fill="none" stroke="black"/>
<path d="M63.9961,244.565h -6.80315" fill="none" stroke="black"/>
<path d="M70.7992,237.951h -13.6063" fill="none" stroke="black"/>
<path d="M63.9961,231.338h -6.80315" fill="none" stroke="black"/>
<path d="M63.9961,224.724h -6.80315" fill="none" stroke="black"/>
<path d="M63.9961,218.111h -6.80315" fill="none" stroke="black"/>
<path d="M63.9961,211.497h -6.80315" fill="none" stroke="black"/>
<path d="M70.7992,204.883h -13.6063" fill="none" stroke="black"/>
<path d="M63.9961,198.27h -6.80315" fill="none" stroke="black"/>
<path d="M63.9961,191.656h -6.80315" fill="none" stroke="black"/>
<path d="M63.9961,185.043h -6.80315" fill="none" stroke="black"/>
<path d="M63.9961,178.429h -6.80315" fill="none" stroke="black"/>
<path d="M70.7992,171.816h -13.6063" fill="none" stroke="black"/>
<path d="M63.9961,165.202h -6.80315" fill="none" stroke="black"/>
<path d="M63.9961,158.589h -6.80315" fill="none" stroke="black"/>
<path d="M63.9961,151.975h -6.80315" fill="none" stroke="black"/>
<path d="M63.9961,145.362h -6.80315" fill="none" stroke="black"/>
<path d="M70.7992,138.748h -13.6063" fill="none" stroke="black"/>
<path d="M63.9961,132.135h -6.80315" fill="none" stroke="black"/>
<path d="M63.9961,125.521h -6.80315" fill="none" stroke="black"/>
<path d="M63.9961,118.907h -6.80315" fill="none" stroke="black"/>
<path d="M63.9961,112.294h -6.80315" fill="none" stroke="black"/>
<path d="M70.7992,105.68h -13.6063" fill="none" stroke="black"/>
<path d="M63.9961,99.0668h -6.80315" fill="none" stroke="black"/>
<path d="M63.9961,92.4533h -6.80315" fill="none" stroke="black"/>
<path d="M63.9961,85.8397h -6.80315" fill="none" stroke="black"/>
<path d="M63.9961,79.2262h -6.80315" fill="none" stroke="black"/>
<path d="M70.7992,72.6127h -13.6063" fill="none" stroke="black"/>
<path d="M70.7992,370.222h -13.6063" fill="none" stroke="black"/>
<path d="M70.7992,72.6127h -13.6063" fill="none" stroke="black"/>
<path d="M63.9961,65.9991h -6.80315" fill="none" stroke="black"/>
<path d="M63.9961,59.3856h -6.80315" fill="none" stroke="black"/>
<path d="M63.9961,52.772h -6.80315" fill="none" stroke="black"/>
<path d="M63.9961,46.1585h -6.80315" fill="none" stroke="black"/>
<text xml:space="preserve" x="24.6751" y="374.951" fill="black" font-size="13.7726" font-family="Helvetica">2406</text>
<text xml:space="preserve" x="24.6751" y="341.769" fill="black" font-size="13.7726" font-family="Helvetica">2407</text>
<text xml:space="preserve" x="24.6751" y="308.588" fill="black" font-size="13.7726" font-family="Helvetica">2408</text>
<text xml:space="preserve" x="25.1491" y="275.406" fill="black" font-size="13.7726" font-family="Helvetica">2409</text>
<text xml:space="preserve" x="25.1491" y="242.225" fill="black" font-size="13.7726" font-family="Helvetica">2410</text>
<text xml:space="preserve" x="27.0452" y="209.991" fill="black" font-size="13.7726" font-family="Helvetica">2411</text>
<text xml:space="preserve" x="24.6751" y="176.81" fill="black" font-size="13.7726" font-family="Helvetica">2412</text>
<text xml:space="preserve" x="25.1491" y="143.154" fill="black" font-size="13.7726" font-family="Helvetica">2413</text>
<text xml:space="preserve" x="24.6751" y="110.447" fill="black" font-size="13.7726" font-family="Helvetica">2414</text>
<text xml:space="preserve" x="24.6751" y="77.2654" fill="black" font-size="13.7726" font-family="Helvetica">2415</text>
<g transform="rotate(-90,7.61032,45.98)">
<text xml:space="preserve" x="7.61032" y="45.98" fill="black" font-size="9.34839" font-family="Helvetica">2</text>
</g>
<g transform="rotate(-90,11.8765,50.2462)">
<text xml:space="preserve" x="11.8765" y="50.2462" fill="black" font-size="13.7726" font-family="Helvetica"> </text>
</g>
<g transform="rotate(-90,11.8765,57.3565)">
<text xml:space="preserve" x="11.8765" y="57.3565" fill="black" font-size="13.7726" font-family="Times">&#0967;</text>
</g>
<text xml:space="preserve" x="111.895" y="18.4868" fill="black" font-size="15.1181" font-family="Helvetica">^2 v.s. calibration factorwith 1st binand without last bin</text>
<text xml:space="preserve" x="103.837" y="18.4868" fill="black" font-size="15.1181" font-family="Times">&#0967;</text>
<g stroke="black" stroke-width="1" fill="none">
<line x1="55.7903" y1="265.659" x2="59.5824" y2="265.659"/><line x1="57.6864" y1="263.762" x2="57.6864" y2="267.555"/><line x1="55.7903" y1="263.762" x2="59.5824" y2="267.555"/><line x1="55.7903" y1="267.555" x2="59.5824" y2="263.762"/>
<line x1="60.2372" y1="265.659" x2="64.0294" y2="265.659"/><line x1="62.1333" y1="263.762" x2="62.1333" y2="267.555"/><line x1="60.2372" y1="263.762" x2="64.0294" y2="267.555"/><line x1="60.2372" y1="267.555" x2="64.0294" y2="263.762"/>
<line x1="64.6842" y1="261.395" x2="68.4763" y2="261.395"/><line x1="66.5802" y1="259.499" x2="66.5802" y2="263.291"/><line x1="64.6842" y1="259.499" x2="68.4763" y2="263.291"/><line x1="64.6842" y1="263.291" x2="68.4763" y2="259.499"/>
<line x1="69.1311" y1="260.023" x2="72.9233" y2="260.023"/><line x1="71.0272" y1="258.126" x2="71.0272" y2="261.919"/><line x1="69.1311" y1="258.126" x2="72.9233" y2="261.919"/><line x1="69.1311" y1="261.919" x2="72.9233" y2="258.126"/>
<line x1="73.5781" y1="261.718" x2="77.3702" y2="261.718"/><line x1="75.4741" y1="259.822" x2="75.4741" y2="263.615"/><line x1="73.5781" y1="259.822" x2="77.3702" y2="263.615"/><line x1="73.5781" y1="263.615" x2="77.3702" y2="259.822"/>
<line x1="78.025" y1="265.883" x2="81.8172" y2="265.883"/><line x1="79.9211" y1="263.986" x2="79.9211" y2="267.779"/><line x1="78.025" y1="263.986" x2="81.8172" y2="267.779"/><line x1="78.025" y1="267.779" x2="81.8172" y2="263.986"/>
<line x1="82.472" y1="265.883" x2="86.2641" y2="265.883"/><line x1="84.368" y1="263.986" x2="84.368" y2="267.779"/><line x1="82.472" y1="263.986" x2="86.2641" y2="267.779"/><line x1="82.472" y1="267.779" x2="86.2641" y2="263.986"/>
<line x1="86.9189" y1="263.994" x2="90.7111" y2="263.994"/><line x1="88.815" y1="262.098" x2="88.815" y2="265.89"/><line x1="86.9189" y1="262.098" x2="90.7111" y2="265.89"/><line x1="86.9189" y1="265.89" x2="90.7111" y2="262.098"/>
<line x1="91.3658" y1="270.475" x2="95.158" y2="270.475"/><line x1="93.2619" y1="268.579" x2="93.2619" y2="272.371"/><line x1="91.3658" y1="268.579" x2="95.158" y2="272.371"/><line x1="91.3658" y1="272.371" x2="95.158" y2="268.579"/>
<line x1="95.8128" y1="268.585" x2="99.605" y2="268.585"/><line x1="97.7089" y1="266.689" x2="97.7089" y2="270.481"/><line x1="95.8128" y1="266.689" x2="99.605" y2="270.481"/><line x1="95.8128" y1="270.481" x2="99.605" y2="266.689"/>
<line x1="100.26" y1="280.674" x2="104.052" y2="280.674"/><line x1="102.156" y1="278.778" x2="102.156" y2="282.57"/><line x1="100.26" y1="278.778" x2="104.052" y2="282.57"/><line x1="100.26" y1="282.57" x2="104.052" y2="278.778"/>
<line x1="104.707" y1="278.99" x2="108.499" y2="278.99"/><line x1="106.603" y1="277.094" x2="106.603" y2="280.887"/><line x1="104.707" y1="277.094" x2="108.499" y2="280.887"/><line x1="104.707" y1="280.887" x2="108.499" y2="277.094"/>
<line x1="109.154" y1="285.03" x2="112.946" y2="285.03"/><line x1="111.05" y1="283.134" x2="111.05" y2="286.926"/><line x1="109.154" y1="283.134" x2="112.946" y2="286.926"/><line x1="109.154" y1="286.926" x2="112.946" y2="283.134"/>
<line x1="113.601" y1="285.03" x2="117.393" y2="285.03"/><line x1="115.497" y1="283.134" x2="115.497" y2="286.926"/><line x1="113.601" y1="283.134" x2="117.393" y2="286.926"/><line x1="113.601" y1="286.926" x2="117.393" y2="283.134"/>
<line x1="118.048" y1="281.239" x2="121.84" y2="281.239"/><line x1="119.944" y1="279.342" x2="119.944" y2="283.135"/><line x1="118.048" y1="279.342" x2="121.84" y2="283.135"/><line x1="118.048" y1="283.135" x2="121.84" y2="279.342"/>
<line x1="122.494" y1="280.752" x2="126.287" y2="280.752"/><line x1="124.391" y1="278.856" x2="124.391" y2="282.648"/><line x1="122.494" y1="278.856" x2="126.287" y2="282.648"/><line x1="122.494" y1="282.648" x2="126.287" y2="278.856"/>
<line x1="126.941" y1="278.356" x2="130.734" y2="278.356"/><line x1="128.838" y1="276.46" x2="128.838" y2="280.252"/><line x1="126.941" y1="276.46" x2="130.734" y2="280.252"/><line x1="126.941" y1="280.252" x2="130.734" y2="276.46"/>
<line x1="131.388" y1="282.508" x2="135.181" y2="282.508"/><line x1="133.284" y1="280.612" x2="133.284" y2="284.404"/><line x1="131.388" y1="280.612" x2="135.181" y2="284.404"/><line x1="131.388" y1="284.404" x2="135.181" y2="280.612"/>
<line x1="135.835" y1="278.703" x2="139.627" y2="278.703"/><line x1="137.731" y1="276.807" x2="137.731" y2="280.599"/><line x1="135.835" y1="276.807" x2="139.627" y2="280.599"/><line x1="135.835" y1="280.599" x2="139.627" y2="276.807"/>
<line x1="140.282" y1="278.703" x2="144.074" y2="278.703"/><line x1="142.178" y1="276.807" x2="142.178" y2="280.599"/><line x1="140.282" y1="276.807" x2="144.074" y2="280.599"/><line x1="140.282" y1="280.599" x2="144.074" y2="276.807"/>
<line x1="144.729" y1="274.888" x2="148.521" y2="274.888"/><line x1="146.625" y1="272.992" x2="146.625" y2="276.784"/><line x1="144.729" y1="272.992" x2="148.521" y2="276.784"/><line x1="144.729" y1="276.784" x2="148.521" y2="272.992"/>
<line x1="149.176" y1="274.888" x2="152.968" y2="274.888"/><line x1="151.072" y1="272.992" x2="151.072" y2="276.784"/><line x1="149.176" y1="272.992" x2="152.968" y2="276.784"/><line x1="149.176" y1="276.784" x2="152.968" y2="272.992"/>
<line x1="153.623" y1="286.475" x2="157.415" y2="286.475"/><line x1="155.519" y1="284.579" x2="155.519" y2="288.372"/><line x1="153.623" y1="284.579" x2="157.415" y2="288.372"/><line x1="153.623" y1="288.372" x2="157.415" y2="284.579"/>
<line x1="158.07" y1="286.475" x2="161.862" y2="286.475"/><line x1="159.966" y1="284.579" x2="159.966" y2="288.372"/><line x1="158.07" y1="284.579" x2="161.862" y2="288.372"/><line x1="158.07" y1="288.372" x2="161.862" y2="284.579"/>
<line x1="162.517" y1="285.964" x2="166.309" y2="285.964"/><line x1="164.413" y1="284.068" x2="164.413" y2="287.86"/><line x1="162.517" y1="284.068" x2="166.309" y2="287.86"/><line x1="162.517" y1="287.86" x2="166.309" y2="284.068"/>
<line x1="166.964" y1="285.964" x2="170.756" y2="285.964"/><line x1="168.86" y1="284.068" x2="168.86" y2="287.86"/><line x1="166.964" y1="284.068" x2="170.756" y2="287.86"/><line x1="166.964" y1="287.86" x2="170.756" y2="284.068"/>
<line x1="171.411" y1="285.964" x2="175.203" y2="285.964"/><line x1="173.307" y1="284.068" x2="173.307" y2="287.86"/><line x1="171.411" y1="284.068" x2="175.203" y2="287.86"/><line x1="171.411" y1="287.86" x2="175.203" y2="284.068"/>
<line x1="175.858" y1="283.537" x2="179.65" y2="283.537"/><line x1="177.754" y1="281.64" x2="177.754" y2="285.433"/><line x1="175.858" y1="281.64" x2="179.65" y2="285.433"/><line x1="175.858" y1="285.433" x2="179.65" y2="281.64"/>
<line x1="180.305" y1="283.166" x2="184.097" y2="283.166"/><line x1="182.201" y1="281.27" x2="182.201" y2="285.062"/><line x1="180.305" y1="281.27" x2="184.097" y2="285.062"/><line x1="180.305" y1="285.062" x2="184.097" y2="281.27"/>
<line x1="184.752" y1="281.261" x2="188.544" y2="281.261"/><line x1="186.648" y1="279.365" x2="186.648" y2="283.157"/><line x1="184.752" y1="279.365" x2="188.544" y2="283.157"/><line x1="184.752" y1="283.157" x2="188.544" y2="279.365"/>
<line x1="189.199" y1="280.715" x2="192.991" y2="280.715"/><line x1="191.095" y1="278.819" x2="191.095" y2="282.611"/><line x1="189.199" y1="278.819" x2="192.991" y2="282.611"/><line x1="189.199" y1="282.611" x2="192.991" y2="278.819"/>
<line x1="193.646" y1="282.954" x2="197.438" y2="282.954"/><line x1="195.542" y1="281.058" x2="195.542" y2="284.85"/><line x1="193.646" y1="281.058" x2="197.438" y2="284.85"/><line x1="193.646" y1="284.85" x2="197.438" y2="281.058"/>
<line x1="198.093" y1="282.567" x2="201.885" y2="282.567"/><line x1="199.989" y1="280.671" x2="199.989" y2="284.464"/><line x1="198.093" y1="280.671" x2="201.885" y2="284.464"/><line x1="198.093" y1="284.464" x2="201.885" y2="280.671"/>
<line x1="202.54" y1="282.567" x2="206.332" y2="282.567"/><line x1="204.436" y1="280.671" x2="204.436" y2="284.464"/><line x1="202.54" y1="280.671" x2="206.332" y2="284.464"/><line x1="202.54" y1="284.464" x2="206.332" y2="280.671"/>
<line x1="206.986" y1="282.432" x2="210.779" y2="282.432"/><line x1="208.883" y1="280.536" x2="208.883" y2="284.328"/><line x1="206.986" y1="280.536" x2="210.779" y2="284.328"/><line x1="206.986" y1="284.328" x2="210.779" y2="280.536"/>
<line x1="211.433" y1="282.432" x2="215.226" y2="282.432"/><line x1="213.33" y1="280.536" x2="213.33" y2="284.328"/><line x1="211.433" y1="280.536" x2="215.226" y2="284.328"/><line x1="211.433" y1="284.328" x2="215.226" y2="280.536"/>
<line x1="215.88" y1="280.852" x2="219.673" y2="280.852"/><line x1="217.776" y1="278.955" x2="217.776" y2="282.748"/><line x1="215.88" y1="278.955" x2="219.673" y2="282.748"/><line x1="215.88" y1="282.748" x2="219.673" y2="278.955"/>
<line x1="220.327" y1="281.895" x2="224.119" y2="281.895"/><line x1="222.223" y1="279.999" x2="222.223" y2="283.791"/><line x1="220.327" y1="279.999" x2="224.119" y2="283.791"/><line x1="220.327" y1="283.791" x2="224.119" y2="279.999"/>
<line x1="224.774" y1="286.024" x2="228.566" y2="286.024"/><line x1="226.67" y1="284.128" x2="226.67" y2="287.92"/><line x1="224.774" y1="284.128" x2="228.566" y2="287.92"/><line x1="224.774" y1="287.92" x2="228.566" y2="284.128"/>
<line x1="229.221" y1="292.076" x2="233.013" y2="292.076"/><line x1="231.117" y1="290.18" x2="231.117" y2="293.972"/><line x1="229.221" y1="290.18" x2="233.013" y2="293.972"/><line x1="229.221" y1="293.972" x2="233.013" y2="290.18"/>
<line x1="233.668" y1="290.159" x2="237.46" y2="290.159"/><line x1="235.564" y1="288.263" x2="235.564" y2="292.055"/><line x1="233.668" y1="288.263" x2="237.46" y2="292.055"/><line x1="233.668" y1="292.055" x2="237.46" y2="288.263"/>
<line x1="238.115" y1="288.238" x2="241.907" y2="288.238"/><line x1="240.011" y1="286.342" x2="240.011" y2="290.134"/><line x1="238.115" y1="286.342" x2="241.907" y2="290.134"/><line x1="238.115" y1="290.134" x2="241.907" y2="286.342"/>
<line x1="242.562" y1="292.359" x2="246.354" y2="292.359"/><line x1="244.458" y1="290.463" x2="244.458" y2="294.255"/><line x1="242.562" y1="290.463" x2="246.354" y2="294.255"/><line x1="242.562" y1="294.255" x2="246.354" y2="290.463"/>
<line x1="247.009" y1="290.433" x2="250.801" y2="290.433"/><line x1="248.905" y1="288.537" x2="248.905" y2="292.329"/><line x1="247.009" y1="288.537" x2="250.801" y2="292.329"/><line x1="247.009" y1="292.329" x2="250.801" y2="288.537"/>
<line x1="251.456" y1="294.037" x2="255.248" y2="294.037"/><line x1="253.352" y1="292.14" x2="253.352" y2="295.933"/><line x1="251.456" y1="292.14" x2="255.248" y2="295.933"/><line x1="251.456" y1="295.933" x2="255.248" y2="292.14"/>
<line x1="255.903" y1="294.037" x2="259.695" y2="294.037"/><line x1="257.799" y1="292.14" x2="257.799" y2="295.933"/><line x1="255.903" y1="292.14" x2="259.695" y2="295.933"/><line x1="255.903" y1="295.933" x2="259.695" y2="292.14"/>
<line x1="260.35" y1="300.09" x2="264.142" y2="300.09"/><line x1="262.246" y1="298.194" x2="262.246" y2="301.986"/><line x1="260.35" y1="298.194" x2="264.142" y2="301.986"/><line x1="260.35" y1="301.986" x2="264.142" y2="298.194"/>
<line x1="264.797" y1="295.707" x2="268.589" y2="295.707"/><line x1="266.693" y1="293.811" x2="266.693" y2="297.603"/><line x1="264.797" y1="293.811" x2="268.589" y2="297.603"/><line x1="264.797" y1="297.603" x2="268.589" y2="293.811"/>
<line x1="269.244" y1="293.775" x2="273.036" y2="293.775"/><line x1="271.14" y1="291.879" x2="271.14" y2="295.671"/><line x1="269.244" y1="291.879" x2="273.036" y2="295.671"/><line x1="269.244" y1="295.671" x2="273.036" y2="291.879"/>
<line x1="273.691" y1="299.822" x2="277.483" y2="299.822"/><line x1="275.587" y1="297.926" x2="275.587" y2="301.718"/><line x1="273.691" y1="297.926" x2="277.483" y2="301.718"/><line x1="273.691" y1="301.718" x2="277.483" y2="297.926"/>
<line x1="278.138" y1="299.822" x2="281.93" y2="299.822"/><line x1="280.034" y1="297.926" x2="280.034" y2="301.718"/><line x1="278.138" y1="297.926" x2="281.93" y2="301.718"/><line x1="278.138" y1="301.718" x2="281.93" y2="297.926"/>
<line x1="282.585" y1="305.876" x2="286.377" y2="305.876"/><line x1="284.481" y1="303.98" x2="284.481" y2="307.772"/><line x1="282.585" y1="303.98" x2="286.377" y2="307.772"/><line x1="282.585" y1="307.772" x2="286.377" y2="303.98"/>
<line x1="287.032" y1="300.067" x2="290.824" y2="300.067"/><line x1="288.928" y1="298.171" x2="288.928" y2="301.963"/><line x1="287.032" y1="298.171" x2="290.824" y2="301.963"/><line x1="287.032" y1="301.963" x2="290.824" y2="298.171"/>
<line x1="291.478" y1="298.124" x2="295.271" y2="298.124"/><line x1="293.375" y1="296.228" x2="293.375" y2="300.02"/><line x1="291.478" y1="296.228" x2="295.271" y2="300.02"/><line x1="291.478" y1="300.02" x2="295.271" y2="296.228"/>
<line x1="295.925" y1="298.124" x2="299.718" y2="298.124"/><line x1="297.822" y1="296.228" x2="297.822" y2="300.02"/><line x1="295.925" y1="296.228" x2="299.718" y2="300.02"/><line x1="295.925" y1="300.02" x2="299.718" y2="296.228"/>
<line x1="300.372" y1="293.712" x2="304.165" y2="293.712"/><line x1="302.268" y1="291.816" x2="302.268" y2="295.608"/><line x1="300.372" y1="291.816" x2="304.165" y2="295.608"/><line x1="300.372" y1="295.608" x2="304.165" y2="291.816"/>
<line x1="304.819" y1="300.981" x2="308.612" y2="300.981"/><line x1="306.715" y1="299.085" x2="306.715" y2="302.877"/><line x1="304.819" y1="299.085" x2="308.612" y2="302.877"/><line x1="304.819" y1="302.877" x2="308.612" y2="299.085"/>
<line x1="309.266" y1="300.981" x2="313.058" y2="300.981"/><line x1="311.162" y1="299.085" x2="311.162" y2="302.877"/><line x1="309.266" y1="299.085" x2="313.058" y2="302.877"/><line x1="309.266" y1="302.877" x2="313.058" y2="299.085"/>
<line x1="313.713" y1="299.035" x2="317.505" y2="299.035"/><line x1="315.609" y1="297.139" x2="315.609" y2="300.931"/><line x1="313.713" y1="297.139" x2="317.505" y2="300.931"/><line x1="313.713" y1="300.931" x2="317.505" y2="297.139"/>
<line x1="318.16" y1="296.557" x2="321.952" y2="296.557"/><line x1="320.056" y1="294.661" x2="320.056" y2="298.454"/><line x1="318.16" y1="294.661" x2="321.952" y2="298.454"/><line x1="318.16" y1="298.454" x2="321.952" y2="294.661"/>
<line x1="322.607" y1="301.514" x2="326.399" y2="301.514"/><line x1="324.503" y1="299.618" x2="324.503" y2="303.41"/><line x1="322.607" y1="299.618" x2="326.399" y2="303.41"/><line x1="322.607" y1="303.41" x2="326.399" y2="299.618"/>
<line x1="327.054" y1="301.303" x2="330.846" y2="301.303"/><line x1="328.95" y1="299.407" x2="328.95" y2="303.199"/><line x1="327.054" y1="299.407" x2="330.846" y2="303.199"/><line x1="327.054" y1="303.199" x2="330.846" y2="299.407"/>
<line x1="331.501" y1="301.303" x2="335.293" y2="301.303"/><line x1="333.397" y1="299.407" x2="333.397" y2="303.199"/><line x1="331.501" y1="299.407" x2="335.293" y2="303.199"/><line x1="331.501" y1="303.199" x2="335.293" y2="299.407"/>
<line x1="335.948" y1="297.398" x2="339.74" y2="297.398"/><line x1="337.844" y1="295.502" x2="337.844" y2="299.294"/><line x1="335.948" y1="295.502" x2="339.74" y2="299.294"/><line x1="335.948" y1="299.294" x2="339.74" y2="295.502"/>
<line x1="340.395" y1="293.481" x2="344.187" y2="293.481"/><line x1="342.291" y1="291.585" x2="342.291" y2="295.377"/><line x1="340.395" y1="291.585" x2="344.187" y2="295.377"/><line x1="340.395" y1="295.377" x2="344.187" y2="291.585"/>
<line x1="344.842" y1="291.742" x2="348.634" y2="291.742"/><line x1="346.738" y1="289.846" x2="346.738" y2="293.638"/><line x1="344.842" y1="289.846" x2="348.634" y2="293.638"/><line x1="344.842" y1="293.638" x2="348.634" y2="289.846"/>
<line x1="349.289" y1="291.225" x2="353.081" y2="291.225"/><line x1="351.185" y1="289.329" x2="351.185" y2="293.121"/><line x1="349.289" y1="289.329" x2="353.081" y2="293.121"/><line x1="349.289" y1="293.121" x2="353.081" y2="289.329"/>
<line x1="353.736" y1="286.772" x2="357.528" y2="286.772"/><line x1="355.632" y1="284.876" x2="355.632" y2="288.668"/><line x1="353.736" y1="284.876" x2="357.528" y2="288.668"/><line x1="353.736" y1="288.668" x2="357.528" y2="284.876"/>
<line x1="358.183" y1="286.575" x2="361.975" y2="286.575"/><line x1="360.079" y1="284.679" x2="360.079" y2="288.471"/><line x1="358.183" y1="284.679" x2="361.975" y2="288.471"/><line x1="358.183" y1="288.471" x2="361.975" y2="284.679"/>
<line x1="362.63" y1="288.681" x2="366.422" y2="288.681"/><line x1="364.526" y1="286.785" x2="364.526" y2="290.577"/><line x1="362.63" y1="286.785" x2="366.422" y2="290.577"/><line x1="362.63" y1="290.577" x2="366.422" y2="286.785"/>
<line x1="367.077" y1="282.742" x2="370.869" y2="282.742"/><line x1="368.973" y1="280.846" x2="368.973" y2="284.638"/><line x1="367.077" y1="280.846" x2="370.869" y2="284.638"/><line x1="367.077" y1="284.638" x2="370.869" y2="280.846"/>
<line x1="371.524" y1="278.768" x2="375.316" y2="278.768"/><line x1="373.42" y1="276.872" x2="373.42" y2="280.664"/><line x1="371.524" y1="276.872" x2="375.316" y2="280.664"/><line x1="371.524" y1="280.664" x2="375.316" y2="276.872"/>
<line x1="375.97" y1="284.83" x2="379.763" y2="284.83"/><line x1="377.867" y1="282.934" x2="377.867" y2="286.726"/><line x1="375.97" y1="282.934" x2="379.763" y2="286.726"/><line x1="375.97" y1="286.726" x2="379.763" y2="282.934"/>
<line x1="380.417" y1="298.712" x2="384.21" y2="298.712"/><line x1="382.314" y1="296.816" x2="382.314" y2="300.608"/><line x1="380.417" y1="296.816" x2="384.21" y2="300.608"/><line x1="380.417" y1="300.608" x2="384.21" y2="296.816"/>
<line x1="384.864" y1="298.712" x2="388.657" y2="298.712"/><line x1="386.76" y1="296.816" x2="386.76" y2="300.608"/><line x1="384.864" y1="296.816" x2="388.657" y2="300.608"/><line x1="384.864" y1="300.608" x2="388.657" y2="296.816"/>
<line x1="389.311" y1="296.476" x2="393.104" y2="296.476"/><line x1="391.207" y1="294.58" x2="391.207" y2="298.372"/><line x1="389.311" y1="294.58" x2="393.104" y2="298.372"/><line x1="389.311" y1="298.372" x2="393.104" y2="294.58"/>
<line x1="393.758" y1="302.538" x2="397.55" y2="302.538"/><line x1="395.654" y1="300.642" x2="395.654" y2="304.435"/><line x1="393.758" y1="300.642" x2="397.55" y2="304.435"/><line x1="393.758" y1="304.435" x2="397.55" y2="300.642"/>
<line x1="398.205" y1="300.996" x2="401.997" y2="300.996"/><line x1="400.101" y1="299.1" x2="400.101" y2="302.893"/><line x1="398.205" y1="299.1" x2="401.997" y2="302.893"/><line x1="398.205" y1="302.893" x2="401.997" y2="299.1"/>
<line x1="402.652" y1="300.996" x2="406.444" y2="300.996"/><line x1="404.548" y1="299.1" x2="404.548" y2="302.893"/><line x1="402.652" y1="299.1" x2="406.444" y2="302.893"/><line x1="402.652" y1="302.893" x2="406.444" y2="299.1"/>
<line x1="407.099" y1="298.998" x2="410.891" y2="298.998"/><line x1="408.995" y1="297.102" x2="408.995" y2="300.894"/><line x1="407.099" y1="297.102" x2="410.891" y2="300.894"/><line x1="407.099" y1="300.894" x2="410.891" y2="297.102"/>
<line x1="411.546" y1="298.998" x2="415.338" y2="298.998"/><line x1="413.442" y1="297.102" x2="413.442" y2="300.894"/><line x1="411.546" y1="297.102" x2="415.338" y2="300.894"/><line x1="411.546" y1="300.894" x2="415.338" y2="297.102"/>
<line x1="415.993" y1="300.72" x2="419.785" y2="300.72"/><line x1="417.889" y1="298.824" x2="417.889" y2="302.616"/><line x1="415.993" y1="298.824" x2="419.785" y2="302.616"/><line x1="415.993" y1="302.616" x2="419.785" y2="298.824"/>
<line x1="420.44" y1="298.721" x2="424.232" y2="298.721"/><line x1="422.336" y1="296.825" x2="422.336" y2="300.617"/><line x1="420.44" y1="296.825" x2="424.232" y2="300.617"/><line x1="420.44" y1="300.617" x2="424.232" y2="296.825"/>
<line x1="424.887" y1="298.721" x2="428.679" y2="298.721"/><line x1="426.783" y1="296.825" x2="426.783" y2="300.617"/><line x1="424.887" y1="296.825" x2="428.679" y2="300.617"/><line x1="424.887" y1="300.617" x2="428.679" y2="296.825"/>
<line x1="429.334" y1="298.237" x2="433.126" y2="298.237"/><line x1="431.23" y1="296.341" x2="431.23" y2="300.133"/><line x1="429.334" y1="296.341" x2="433.126" y2="300.133"/><line x1="429.334" y1="300.133" x2="433.126" y2="296.341"/>
<line x1="433.781" y1="296.236" x2="437.573" y2="296.236"/><line x1="435.677" y1="294.34" x2="435.677" y2="298.132"/><line x1="433.781" y1="294.34" x2="437.573" y2="298.132"/><line x1="433.781" y1="298.132" x2="437.573" y2="294.34"/>
<line x1="438.228" y1="294.443" x2="442.02" y2="294.443"/><line x1="440.124" y1="292.547" x2="440.124" y2="296.339"/><line x1="438.228" y1="292.547" x2="442.02" y2="296.339"/><line x1="438.228" y1="296.339" x2="442.02" y2="292.547"/>
<line x1="442.675" y1="294.854" x2="446.467" y2="294.854"/><line x1="444.571" y1="292.958" x2="444.571" y2="296.75"/><line x1="442.675" y1="292.958" x2="446.467" y2="296.75"/><line x1="442.675" y1="296.75" x2="446.467" y2="292.958"/>
<line x1="447.122" y1="292.901" x2="450.914" y2="292.901"/><line x1="449.018" y1="291.005" x2="449.018" y2="294.797"/><line x1="447.122" y1="291.005" x2="450.914" y2="294.797"/><line x1="447.122" y1="294.797" x2="450.914" y2="291.005"/>
<line x1="451.569" y1="292.425" x2="455.361" y2="292.425"/><line x1="453.465" y1="290.529" x2="453.465" y2="294.321"/><line x1="451.569" y1="290.529" x2="455.361" y2="294.321"/><line x1="451.569" y1="294.321" x2="455.361" y2="290.529"/>
<line x1="456.016" y1="294.132" x2="459.808" y2="294.132"/><line x1="457.912" y1="292.236" x2="457.912" y2="296.028"/><line x1="456.016" y1="292.236" x2="459.808" y2="296.028"/><line x1="456.016" y1="296.028" x2="459.808" y2="292.236"/>
<line x1="460.462" y1="292.123" x2="464.255" y2="292.123"/><line x1="462.359" y1="290.227" x2="462.359" y2="294.02"/><line x1="460.462" y1="290.227" x2="464.255" y2="294.02"/><line x1="460.462" y1="294.02" x2="464.255" y2="290.227"/>
<line x1="464.909" y1="290.452" x2="468.702" y2="290.452"/><line x1="466.806" y1="288.556" x2="466.806" y2="292.348"/><line x1="464.909" y1="288.556" x2="468.702" y2="292.348"/><line x1="464.909" y1="292.348" x2="468.702" y2="288.556"/>
<line x1="469.356" y1="289.979" x2="473.149" y2="289.979"/><line x1="471.252" y1="288.083" x2="471.252" y2="291.875"/><line x1="469.356" y1="288.083" x2="473.149" y2="291.875"/><line x1="469.356" y1="291.875" x2="473.149" y2="288.083"/>
<line x1="473.803" y1="289.979" x2="477.596" y2="289.979"/><line x1="475.699" y1="288.083" x2="475.699" y2="291.875"/><line x1="473.803" y1="288.083" x2="477.596" y2="291.875"/><line x1="473.803" y1="291.875" x2="477.596" y2="288.083"/>
<line x1="478.25" y1="294.023" x2="482.042" y2="294.023"/><line x1="480.146" y1="292.127" x2="480.146" y2="295.919"/><line x1="478.25" y1="292.127" x2="482.042" y2="295.919"/><line x1="478.25" y1="295.919" x2="482.042" y2="292.127"/>
<line x1="482.697" y1="292.007" x2="486.489" y2="292.007"/><line x1="484.593" y1="290.111" x2="484.593" y2="293.903"/><line x1="482.697" y1="290.111" x2="486.489" y2="293.903"/><line x1="482.697" y1="293.903" x2="486.489" y2="290.111"/>
<line x1="487.144" y1="293.7" x2="490.936" y2="293.7"/><line x1="489.04" y1="291.803" x2="489.04" y2="295.596"/><line x1="487.144" y1="291.803" x2="490.936" y2="295.596"/><line x1="487.144" y1="295.596" x2="490.936" y2="291.803"/>
<line x1="491.591" y1="291.681" x2="495.383" y2="291.681"/><line x1="493.487" y1="289.785" x2="493.487" y2="293.577"/><line x1="491.591" y1="289.785" x2="495.383" y2="293.577"/><line x1="491.591" y1="293.577" x2="495.383" y2="289.785"/>
<line x1="496.038" y1="295.726" x2="499.83" y2="295.726"/><line x1="497.934" y1="293.83" x2="497.934" y2="297.622"/><line x1="496.038" y1="293.83" x2="499.83" y2="297.622"/><line x1="496.038" y1="297.622" x2="499.83" y2="293.83"/>
<line x1="500.485" y1="293.702" x2="504.277" y2="293.702"/><line x1="502.381" y1="291.806" x2="502.381" y2="295.598"/><line x1="500.485" y1="291.806" x2="504.277" y2="295.598"/><line x1="500.485" y1="295.598" x2="504.277" y2="291.806"/>
<line x1="504.932" y1="295.369" x2="508.724" y2="295.369"/><line x1="506.828" y1="293.473" x2="506.828" y2="297.265"/><line x1="504.932" y1="293.473" x2="508.724" y2="297.265"/><line x1="504.932" y1="297.265" x2="508.724" y2="293.473"/>
</g>
<path d="M0.5,272.809h 566.929" fill="none" stroke="#0000ff"/>
<text xml:space="preserve" x="111.895" y="18.4868" fill="black" font-size="15.1181" font-family="Helvetica">^2 v.s. calibration factorwith 1st binand without last bin</text>
<text xml:space="preserve" x="103.837" y="18.4868" fill="black" font-size="15.1181" font-family="Times">&#0967;</text></svg>
