<?xml version="1.0" standalone="no"?>
<svg width="567.429" height="413.846" viewBox="0 0 567.429 413.846" xmlns="http://www.w3.org/2000/svg" shape-rendering="crispEdges">
<title>
figures/chi2zoomin_6PMTnpefilelist20.svg
</title>
<desc>
Creator: ROOT Version 6.18/04
CreationDate: Sun Nov  3 23:54:15 2019</desc>
<defs>
</defs>
<rect x="0.5" y="0" width="566.929" height="413.346" fill="white"/>
<rect x="57.1929" y="41.3346" width="453.543" height="330.677" fill="white"/>
<rect x="57.1929" y="41.3346" width="453.543" height="330.677" fill="none" stroke="black"/>
<path d="M57.1929,372.012h 453.543" fill="none" stroke="black"/>
<path d="M62.8219,41.3346v 330.677" fill="none" stroke="black" stroke-dasharray=" 1, 2"/>
<path d="M107.821,41.3346v 330.677" fill="none" stroke="black" stroke-dasharray=" 1, 2"/>
<path d="M152.82,41.3346v 330.677" fill="none" stroke="black" stroke-dasharray=" 1, 2"/>
<path d="M197.819,41.3346v 330.677" fill="none" stroke="black" stroke-dasharray=" 1, 2"/>
<path d="M242.817,41.3346v 330.677" fill="none" stroke="black" stroke-dasharray=" 1, 2"/>
<path d="M287.816,41.3346v 330.677" fill="none" stroke="black" stroke-dasharray=" 1, 2"/>
<path d="M332.815,41.3346v 330.677" fill="none" stroke="black" stroke-dasharray=" 1, 2"/>
<path d="M377.814,41.3346v 330.677" fill="none" stroke="black" stroke-dasharray=" 1, 2"/>
<path d="M422.813,41.3346v 330.677" fill="none" stroke="black" stroke-dasharray=" 1, 2"/>
<path d="M467.812,41.3346v 330.677" fill="none" stroke="black" stroke-dasharray=" 1, 2"/>
<path d="M62.8219,41.3346v 330.677" fill="none" stroke="black" stroke-dasharray=" 1, 2"/>
<path d="M467.812,41.3346v 330.677" fill="none" stroke="black" stroke-dasharray=" 1, 2"/>
<path d="M57.1929,372.012v -330.677" fill="none" stroke="black"/>
<path d="M57.1929,372.012h 453.543" fill="none" stroke="black"/>
<path d="M62.8219,362.091v 9.92031" fill="none" stroke="black"/>
<path d="M74.0716,367.052v 4.96016" fill="none" stroke="black"/>
<path d="M85.3214,367.052v 4.96016" fill="none" stroke="black"/>
<path d="M96.5711,367.052v 4.96016" fill="none" stroke="black"/>
<path d="M107.821,362.091v 9.92031" fill="none" stroke="black"/>
<path d="M119.071,367.052v 4.96016" fill="none" stroke="black"/>
<path d="M130.32,367.052v 4.96016" fill="none" stroke="black"/>
<path d="M141.57,367.052v 4.96016" fill="none" stroke="black"/>
<path d="M152.82,362.091v 9.92031" fill="none" stroke="black"/>
<path d="M164.069,367.052v 4.96016" fill="none" stroke="black"/>
<path d="M175.319,367.052v 4.96016" fill="none" stroke="black"/>
<path d="M186.569,367.052v 4.96016" fill="none" stroke="black"/>
<path d="M197.819,362.091v 9.92031" fill="none" stroke="black"/>
<path d="M209.068,367.052v 4.96016" fill="none" stroke="black"/>
<path d="M220.318,367.052v 4.96016" fill="none" stroke="black"/>
<path d="M231.568,367.052v 4.96016" fill="none" stroke="black"/>
<path d="M242.817,362.091v 9.92031" fill="none" stroke="black"/>
<path d="M254.067,367.052v 4.96016" fill="none" stroke="black"/>
<path d="M265.317,367.052v 4.96016" fill="none" stroke="black"/>
<path d="M276.567,367.052v 4.96016" fill="none" stroke="black"/>
<path d="M287.816,362.091v 9.92031" fill="none" stroke="black"/>
<path d="M299.066,367.052v 4.96016" fill="none" stroke="black"/>
<path d="M310.316,367.052v 4.96016" fill="none" stroke="black"/>
<path d="M321.565,367.052v 4.96016" fill="none" stroke="black"/>
<path d="M332.815,362.091v 9.92031" fill="none" stroke="black"/>
<path d="M344.065,367.052v 4.96016" fill="none" stroke="black"/>
<path d="M355.315,367.052v 4.96016" fill="none" stroke="black"/>
<path d="M366.564,367.052v 4.96016" fill="none" stroke="black"/>
<path d="M377.814,362.091v 9.92031" fill="none" stroke="black"/>
<path d="M389.064,367.052v 4.96016" fill="none" stroke="black"/>
<path d="M400.313,367.052v 4.96016" fill="none" stroke="black"/>
<path d="M411.563,367.052v 4.96016" fill="none" stroke="black"/>
<path d="M422.813,362.091v 9.92031" fill="none" stroke="black"/>
<path d="M434.063,367.052v 4.96016" fill="none" stroke="black"/>
<path d="M445.312,367.052v 4.96016" fill="none" stroke="black"/>
<path d="M456.562,367.052v 4.96016" fill="none" stroke="black"/>
<path d="M467.812,362.091v 9.92031" fill="none" stroke="black"/>
<path d="M62.8219,362.091v 9.92031" fill="none" stroke="black"/>
<path d="M467.812,362.091v 9.92031" fill="none" stroke="black"/>
<path d="M479.062,367.052v 4.96016" fill="none" stroke="black"/>
<path d="M490.311,367.052v 4.96016" fill="none" stroke="black"/>
<path d="M501.561,367.052v 4.96016" fill="none" stroke="black"/>
<text xml:space="preserve" x="46.006" y="385.379" fill="black" font-size="13.7726" font-family="Helvetica">1.102</text>
<text xml:space="preserve" x="91.038" y="385.379" fill="black" font-size="13.7726" font-family="Helvetica">1.104</text>
<text xml:space="preserve" x="136.07" y="385.379" fill="black" font-size="13.7726" font-family="Helvetica">1.106</text>
<text xml:space="preserve" x="181.102" y="385.379" fill="black" font-size="13.7726" font-family="Helvetica">1.108</text>
<text xml:space="preserve" x="230.874" y="385.379" fill="black" font-size="13.7726" font-family="Helvetica">1.11</text>
<text xml:space="preserve" x="271.166" y="385.379" fill="black" font-size="13.7726" font-family="Helvetica">1.112</text>
<text xml:space="preserve" x="316.198" y="385.379" fill="black" font-size="13.7726" font-family="Helvetica">1.114</text>
<text xml:space="preserve" x="360.756" y="385.379" fill="black" font-size="13.7726" font-family="Helvetica">1.116</text>
<text xml:space="preserve" x="405.788" y="385.379" fill="black" font-size="13.7726" font-family="Helvetica">1.118</text>
<text xml:space="preserve" x="454.612" y="385.379" fill="black" font-size="13.7726" font-family="Helvetica">1.12</text>
<text xml:space="preserve" x="413.372" y="400.074" fill="black" font-size="13.7726" font-family="Helvetica">calibration factor</text>
<path d="M57.1929,372.012v -330.677" fill="none" stroke="black"/>
<path d="M70.7992,346.958h -13.6063" fill="none" stroke="black"/>
<path d="M63.9961,340.344h -6.80315" fill="none" stroke="black"/>
<path d="M63.9961,333.731h -6.80315" fill="none" stroke="black"/>
<path d="M63.9961,327.117h -6.80315" fill="none" stroke="black"/>
<path d="M63.9961,320.504h -6.80315" fill="none" stroke="black"/>
<path d="M70.7992,313.89h -13.6063" fill="none" stroke="black"/>
<path d="M63.9961,307.277h -6.80315" fill="none" stroke="black"/>
<path d="M63.9961,300.663h -6.80315" fill="none" stroke="black"/>
<path d="M63.9961,294.049h -6.80315" fill="none" stroke="black"/>
<path d="M63.9961,287.436h -6.80315" fill="none" stroke="black"/>
<path d="M70.7992,280.822h -13.6063" fill="none" stroke="black"/>
<path d="M63.9961,274.209h -6.80315" fill="none" stroke="black"/>
<path d="M63.9961,267.595h -6.80315" fill="none" stroke="black"/>
<path d="M63.9961,260.982h -6.80315" fill="none" stroke="black"/>
<path d="M63.9961,254.368h -6.80315" fill="none" stroke="black"/>
<path d="M70.7992,247.755h -13.6063" fill="none" stroke="black"/>
<path d="M63.9961,241.141h -6.80315" fill="none" stroke="black"/>
<path d="M63.9961,234.528h -6.80315" fill="none" stroke="black"/>
<path d="M63.9961,227.914h -6.80315" fill="none" stroke="black"/>
<path d="M63.9961,221.301h -6.80315" fill="none" stroke="black"/>
<path d="M70.7992,214.687h -13.6063" fill="none" stroke="black"/>
<path d="M63.9961,208.073h -6.80315" fill="none" stroke="black"/>
<path d="M63.9961,201.46h -6.80315" fill="none" stroke="black"/>
<path d="M63.9961,194.846h -6.80315" fill="none" stroke="black"/>
<path d="M63.9961,188.233h -6.80315" fill="none" stroke="black"/>
<path d="M70.7992,181.619h -13.6063" fill="none" stroke="black"/>
<path d="M63.9961,175.006h -6.80315" fill="none" stroke="black"/>
<path d="M63.9961,168.392h -6.80315" fill="none" stroke="black"/>
<path d="M63.9961,161.779h -6.80315" fill="none" stroke="black"/>
<path d="M63.9961,155.165h -6.80315" fill="none" stroke="black"/>
<path d="M70.7992,148.552h -13.6063" fill="none" stroke="black"/>
<path d="M63.9961,141.938h -6.80315" fill="none" stroke="black"/>
<path d="M63.9961,135.324h -6.80315" fill="none" stroke="black"/>
<path d="M63.9961,128.711h -6.80315" fill="none" stroke="black"/>
<path d="M63.9961,122.097h -6.80315" fill="none" stroke="black"/>
<path d="M70.7992,115.484h -13.6063" fill="none" stroke="black"/>
<path d="M63.9961,108.87h -6.80315" fill="none" stroke="black"/>
<path d="M63.9961,102.257h -6.80315" fill="none" stroke="black"/>
<path d="M63.9961,95.6432h -6.80315" fill="none" stroke="black"/>
<path d="M63.9961,89.0297h -6.80315" fill="none" stroke="black"/>
<path d="M70.7992,82.4161h -13.6063" fill="none" stroke="black"/>
<path d="M63.9961,75.8026h -6.80315" fill="none" stroke="black"/>
<path d="M63.9961,69.1891h -6.80315" fill="none" stroke="black"/>
<path d="M63.9961,62.5755h -6.80315" fill="none" stroke="black"/>
<path d="M63.9961,55.962h -6.80315" fill="none" stroke="black"/>
<path d="M70.7992,49.3484h -13.6063" fill="none" stroke="black"/>
<path d="M70.7992,346.958h -13.6063" fill="none" stroke="black"/>
<path d="M63.9961,353.571h -6.80315" fill="none" stroke="black"/>
<path d="M63.9961,360.185h -6.80315" fill="none" stroke="black"/>
<path d="M63.9961,366.798h -6.80315" fill="none" stroke="black"/>
<path d="M70.7992,49.3484h -13.6063" fill="none" stroke="black"/>
<path d="M63.9961,42.7349h -6.80315" fill="none" stroke="black"/>
<text xml:space="preserve" x="32.2594" y="351.25" fill="black" font-size="13.7726" font-family="Helvetica">173</text>
<text xml:space="preserve" x="32.2594" y="319.016" fill="black" font-size="13.7726" font-family="Helvetica">174</text>
<text xml:space="preserve" x="32.2594" y="285.361" fill="black" font-size="13.7726" font-family="Helvetica">175</text>
<text xml:space="preserve" x="32.2594" y="252.179" fill="black" font-size="13.7726" font-family="Helvetica">176</text>
<text xml:space="preserve" x="32.2594" y="219.472" fill="black" font-size="13.7726" font-family="Helvetica">177</text>
<text xml:space="preserve" x="32.2594" y="186.29" fill="black" font-size="13.7726" font-family="Helvetica">178</text>
<text xml:space="preserve" x="32.2594" y="153.109" fill="black" font-size="13.7726" font-family="Helvetica">179</text>
<text xml:space="preserve" x="32.2594" y="119.927" fill="black" font-size="13.7726" font-family="Helvetica">180</text>
<text xml:space="preserve" x="34.6295" y="86.7458" fill="black" font-size="13.7726" font-family="Helvetica">181</text>
<text xml:space="preserve" x="32.2594" y="54.0384" fill="black" font-size="13.7726" font-family="Helvetica">182</text>
<g transform="rotate(-90,15.1947,45.98)">
<text xml:space="preserve" x="15.1947" y="45.98" fill="black" font-size="9.34839" font-family="Helvetica">2</text>
</g>
<g transform="rotate(-90,19.4608,50.2462)">
<text xml:space="preserve" x="19.4608" y="50.2462" fill="black" font-size="13.7726" font-family="Helvetica"> </text>
</g>
<g transform="rotate(-90,19.4608,57.3565)">
<text xml:space="preserve" x="19.4608" y="57.3565" fill="black" font-size="13.7726" font-family="Times">&#0967;</text>
</g>
<text xml:space="preserve" x="111.895" y="18.4868" fill="black" font-size="15.1181" font-family="Helvetica">^2 v.s. calibration factorwith 1st binand without last bin</text>
<text xml:space="preserve" x="103.837" y="18.4868" fill="black" font-size="15.1181" font-family="Times">&#0967;</text>
<g stroke="black" stroke-width="1" fill="none">
<line x1="56.4259" y1="238.653" x2="60.2181" y2="238.653"/><line x1="58.322" y1="236.757" x2="58.322" y2="240.549"/><line x1="56.4259" y1="236.757" x2="60.2181" y2="240.549"/><line x1="56.4259" y1="240.549" x2="60.2181" y2="236.757"/>
<line x1="60.9258" y1="255.622" x2="64.718" y2="255.622"/><line x1="62.8219" y1="253.726" x2="62.8219" y2="257.518"/><line x1="60.9258" y1="253.726" x2="64.718" y2="257.518"/><line x1="60.9258" y1="257.518" x2="64.718" y2="253.726"/>
<line x1="65.4257" y1="255.589" x2="69.2179" y2="255.589"/><line x1="67.3218" y1="253.693" x2="67.3218" y2="257.485"/><line x1="65.4257" y1="253.693" x2="69.2179" y2="257.485"/><line x1="65.4257" y1="257.485" x2="69.2179" y2="253.693"/>
<line x1="69.9256" y1="236.923" x2="73.7178" y2="236.923"/><line x1="71.8217" y1="235.026" x2="71.8217" y2="238.819"/><line x1="69.9256" y1="235.026" x2="73.7178" y2="238.819"/><line x1="69.9256" y1="238.819" x2="73.7178" y2="235.026"/>
<line x1="74.4255" y1="220.214" x2="78.2177" y2="220.214"/><line x1="76.3216" y1="218.318" x2="76.3216" y2="222.11"/><line x1="74.4255" y1="218.318" x2="78.2177" y2="222.11"/><line x1="74.4255" y1="222.11" x2="78.2177" y2="218.318"/>
<line x1="78.9254" y1="219.061" x2="82.7176" y2="219.061"/><line x1="80.8215" y1="217.164" x2="80.8215" y2="220.957"/><line x1="78.9254" y1="217.164" x2="82.7176" y2="220.957"/><line x1="78.9254" y1="220.957" x2="82.7176" y2="217.164"/>
<line x1="83.4253" y1="214.579" x2="87.2174" y2="214.579"/><line x1="85.3214" y1="212.683" x2="85.3214" y2="216.475"/><line x1="83.4253" y1="212.683" x2="87.2174" y2="216.475"/><line x1="83.4253" y1="216.475" x2="87.2174" y2="212.683"/>
<line x1="87.9252" y1="208.231" x2="91.7173" y2="208.231"/><line x1="89.8212" y1="206.335" x2="89.8212" y2="210.127"/><line x1="87.9252" y1="206.335" x2="91.7173" y2="210.127"/><line x1="87.9252" y1="210.127" x2="91.7173" y2="206.335"/>
<line x1="92.425" y1="185.366" x2="96.2172" y2="185.366"/><line x1="94.3211" y1="183.47" x2="94.3211" y2="187.262"/><line x1="92.425" y1="183.47" x2="96.2172" y2="187.262"/><line x1="92.425" y1="187.262" x2="96.2172" y2="183.47"/>
<line x1="96.9249" y1="173.225" x2="100.717" y2="173.225"/><line x1="98.821" y1="171.329" x2="98.821" y2="175.121"/><line x1="96.9249" y1="171.329" x2="100.717" y2="175.121"/><line x1="96.9249" y1="175.121" x2="100.717" y2="171.329"/>
<line x1="101.425" y1="167.022" x2="105.217" y2="167.022"/><line x1="103.321" y1="165.126" x2="103.321" y2="168.918"/><line x1="101.425" y1="165.126" x2="105.217" y2="168.918"/><line x1="101.425" y1="168.918" x2="105.217" y2="165.126"/>
<line x1="105.925" y1="160.026" x2="109.717" y2="160.026"/><line x1="107.821" y1="158.13" x2="107.821" y2="161.923"/><line x1="105.925" y1="158.13" x2="109.717" y2="161.923"/><line x1="105.925" y1="161.923" x2="109.717" y2="158.13"/>
<line x1="110.425" y1="177.306" x2="114.217" y2="177.306"/><line x1="112.321" y1="175.41" x2="112.321" y2="179.202"/><line x1="110.425" y1="175.41" x2="114.217" y2="179.202"/><line x1="110.425" y1="179.202" x2="114.217" y2="175.41"/>
<line x1="114.924" y1="181.018" x2="118.717" y2="181.018"/><line x1="116.821" y1="179.122" x2="116.821" y2="182.914"/><line x1="114.924" y1="179.122" x2="118.717" y2="182.914"/><line x1="114.924" y1="182.914" x2="118.717" y2="179.122"/>
<line x1="119.424" y1="217.671" x2="123.217" y2="217.671"/><line x1="121.32" y1="215.775" x2="121.32" y2="219.567"/><line x1="119.424" y1="215.775" x2="123.217" y2="219.567"/><line x1="119.424" y1="219.567" x2="123.217" y2="215.775"/>
<line x1="123.924" y1="215.296" x2="127.716" y2="215.296"/><line x1="125.82" y1="213.4" x2="125.82" y2="217.192"/><line x1="123.924" y1="213.4" x2="127.716" y2="217.192"/><line x1="123.924" y1="217.192" x2="127.716" y2="213.4"/>
<line x1="128.424" y1="199.814" x2="132.216" y2="199.814"/><line x1="130.32" y1="197.918" x2="130.32" y2="201.71"/><line x1="128.424" y1="197.918" x2="132.216" y2="201.71"/><line x1="128.424" y1="201.71" x2="132.216" y2="197.918"/>
<line x1="132.924" y1="226.482" x2="136.716" y2="226.482"/><line x1="134.82" y1="224.586" x2="134.82" y2="228.378"/><line x1="132.924" y1="224.586" x2="136.716" y2="228.378"/><line x1="132.924" y1="228.378" x2="136.716" y2="224.586"/>
<line x1="137.424" y1="223.059" x2="141.216" y2="223.059"/><line x1="139.32" y1="221.162" x2="139.32" y2="224.955"/><line x1="137.424" y1="221.162" x2="141.216" y2="224.955"/><line x1="137.424" y1="224.955" x2="141.216" y2="221.162"/>
<line x1="141.924" y1="219.241" x2="145.716" y2="219.241"/><line x1="143.82" y1="217.345" x2="143.82" y2="221.137"/><line x1="141.924" y1="217.345" x2="145.716" y2="221.137"/><line x1="141.924" y1="221.137" x2="145.716" y2="217.345"/>
<line x1="146.424" y1="203.226" x2="150.216" y2="203.226"/><line x1="148.32" y1="201.33" x2="148.32" y2="205.122"/><line x1="146.424" y1="201.33" x2="150.216" y2="205.122"/><line x1="146.424" y1="205.122" x2="150.216" y2="201.33"/>
<line x1="150.924" y1="212.537" x2="154.716" y2="212.537"/><line x1="152.82" y1="210.641" x2="152.82" y2="214.433"/><line x1="150.924" y1="210.641" x2="154.716" y2="214.433"/><line x1="150.924" y1="214.433" x2="154.716" y2="210.641"/>
<line x1="155.423" y1="214.671" x2="159.216" y2="214.671"/><line x1="157.32" y1="212.774" x2="157.32" y2="216.567"/><line x1="155.423" y1="212.774" x2="159.216" y2="216.567"/><line x1="155.423" y1="216.567" x2="159.216" y2="212.774"/>
<line x1="159.923" y1="219.372" x2="163.716" y2="219.372"/><line x1="161.819" y1="217.476" x2="161.819" y2="221.268"/><line x1="159.923" y1="217.476" x2="163.716" y2="221.268"/><line x1="159.923" y1="221.268" x2="163.716" y2="217.476"/>
<line x1="164.423" y1="246.77" x2="168.215" y2="246.77"/><line x1="166.319" y1="244.874" x2="166.319" y2="248.666"/><line x1="164.423" y1="244.874" x2="168.215" y2="248.666"/><line x1="164.423" y1="248.666" x2="168.215" y2="244.874"/>
<line x1="168.923" y1="233.518" x2="172.715" y2="233.518"/><line x1="170.819" y1="231.622" x2="170.819" y2="235.414"/><line x1="168.923" y1="231.622" x2="172.715" y2="235.414"/><line x1="168.923" y1="235.414" x2="172.715" y2="231.622"/>
<line x1="173.423" y1="241.403" x2="177.215" y2="241.403"/><line x1="175.319" y1="239.507" x2="175.319" y2="243.299"/><line x1="173.423" y1="239.507" x2="177.215" y2="243.299"/><line x1="173.423" y1="243.299" x2="177.215" y2="239.507"/>
<line x1="177.923" y1="224.847" x2="181.715" y2="224.847"/><line x1="179.819" y1="222.951" x2="179.819" y2="226.743"/><line x1="177.923" y1="222.951" x2="181.715" y2="226.743"/><line x1="177.923" y1="226.743" x2="181.715" y2="222.951"/>
<line x1="182.423" y1="226.328" x2="186.215" y2="226.328"/><line x1="184.319" y1="224.432" x2="184.319" y2="228.224"/><line x1="182.423" y1="224.432" x2="186.215" y2="228.224"/><line x1="182.423" y1="228.224" x2="186.215" y2="224.432"/>
<line x1="186.923" y1="236.447" x2="190.715" y2="236.447"/><line x1="188.819" y1="234.551" x2="188.819" y2="238.343"/><line x1="186.923" y1="234.551" x2="190.715" y2="238.343"/><line x1="186.923" y1="238.343" x2="190.715" y2="234.551"/>
<line x1="191.423" y1="248.211" x2="195.215" y2="248.211"/><line x1="193.319" y1="246.315" x2="193.319" y2="250.107"/><line x1="191.423" y1="246.315" x2="195.215" y2="250.107"/><line x1="191.423" y1="250.107" x2="195.215" y2="246.315"/>
<line x1="195.922" y1="253.848" x2="199.715" y2="253.848"/><line x1="197.819" y1="251.952" x2="197.819" y2="255.744"/><line x1="195.922" y1="251.952" x2="199.715" y2="255.744"/><line x1="195.922" y1="255.744" x2="199.715" y2="251.952"/>
<line x1="200.422" y1="237.023" x2="204.215" y2="237.023"/><line x1="202.318" y1="235.127" x2="202.318" y2="238.919"/><line x1="200.422" y1="235.127" x2="204.215" y2="238.919"/><line x1="200.422" y1="238.919" x2="204.215" y2="235.127"/>
<line x1="204.922" y1="254.341" x2="208.714" y2="254.341"/><line x1="206.818" y1="252.445" x2="206.818" y2="256.237"/><line x1="204.922" y1="252.445" x2="208.714" y2="256.237"/><line x1="204.922" y1="256.237" x2="208.714" y2="252.445"/>
<line x1="209.422" y1="261.57" x2="213.214" y2="261.57"/><line x1="211.318" y1="259.674" x2="211.318" y2="263.466"/><line x1="209.422" y1="259.674" x2="213.214" y2="263.466"/><line x1="209.422" y1="263.466" x2="213.214" y2="259.674"/>
<line x1="213.922" y1="249.629" x2="217.714" y2="249.629"/><line x1="215.818" y1="247.733" x2="215.818" y2="251.525"/><line x1="213.922" y1="247.733" x2="217.714" y2="251.525"/><line x1="213.922" y1="251.525" x2="217.714" y2="247.733"/>
<line x1="218.422" y1="267.102" x2="222.214" y2="267.102"/><line x1="220.318" y1="265.206" x2="220.318" y2="268.998"/><line x1="218.422" y1="265.206" x2="222.214" y2="268.998"/><line x1="218.422" y1="268.998" x2="222.214" y2="265.206"/>
<line x1="222.922" y1="272.123" x2="226.714" y2="272.123"/><line x1="224.818" y1="270.227" x2="224.818" y2="274.019"/><line x1="222.922" y1="270.227" x2="226.714" y2="274.019"/><line x1="222.922" y1="274.019" x2="226.714" y2="270.227"/>
<line x1="227.422" y1="288.603" x2="231.214" y2="288.603"/><line x1="229.318" y1="286.707" x2="229.318" y2="290.499"/><line x1="227.422" y1="286.707" x2="231.214" y2="290.499"/><line x1="227.422" y1="290.499" x2="231.214" y2="286.707"/>
<line x1="231.922" y1="291.526" x2="235.714" y2="291.526"/><line x1="233.818" y1="289.629" x2="233.818" y2="293.422"/><line x1="231.922" y1="289.629" x2="235.714" y2="293.422"/><line x1="231.922" y1="293.422" x2="235.714" y2="289.629"/>
<line x1="236.421" y1="273.191" x2="240.214" y2="273.191"/><line x1="238.318" y1="271.295" x2="238.318" y2="275.087"/><line x1="236.421" y1="271.295" x2="240.214" y2="275.087"/><line x1="236.421" y1="275.087" x2="240.214" y2="271.295"/>
<line x1="240.921" y1="281.975" x2="244.714" y2="281.975"/><line x1="242.817" y1="280.079" x2="242.817" y2="283.871"/><line x1="240.921" y1="280.079" x2="244.714" y2="283.871"/><line x1="240.921" y1="283.871" x2="244.714" y2="280.079"/>
<line x1="245.421" y1="265.493" x2="249.213" y2="265.493"/><line x1="247.317" y1="263.597" x2="247.317" y2="267.389"/><line x1="245.421" y1="263.597" x2="249.213" y2="267.389"/><line x1="245.421" y1="267.389" x2="249.213" y2="263.597"/>
<line x1="249.921" y1="270.16" x2="253.713" y2="270.16"/><line x1="251.817" y1="268.263" x2="251.817" y2="272.056"/><line x1="249.921" y1="268.263" x2="253.713" y2="272.056"/><line x1="249.921" y1="272.056" x2="253.713" y2="268.263"/>
<line x1="254.421" y1="264.854" x2="258.213" y2="264.854"/><line x1="256.317" y1="262.958" x2="256.317" y2="266.75"/><line x1="254.421" y1="262.958" x2="258.213" y2="266.75"/><line x1="254.421" y1="266.75" x2="258.213" y2="262.958"/>
<line x1="258.921" y1="239.62" x2="262.713" y2="239.62"/><line x1="260.817" y1="237.724" x2="260.817" y2="241.516"/><line x1="258.921" y1="237.724" x2="262.713" y2="241.516"/><line x1="258.921" y1="241.516" x2="262.713" y2="237.724"/>
<line x1="263.421" y1="234.711" x2="267.213" y2="234.711"/><line x1="265.317" y1="232.815" x2="265.317" y2="236.607"/><line x1="263.421" y1="232.815" x2="267.213" y2="236.607"/><line x1="263.421" y1="236.607" x2="267.213" y2="232.815"/>
<line x1="267.921" y1="254.159" x2="271.713" y2="254.159"/><line x1="269.817" y1="252.263" x2="269.817" y2="256.055"/><line x1="267.921" y1="252.263" x2="271.713" y2="256.055"/><line x1="267.921" y1="256.055" x2="271.713" y2="252.263"/>
<line x1="272.421" y1="272.575" x2="276.213" y2="272.575"/><line x1="274.317" y1="270.679" x2="274.317" y2="274.471"/><line x1="272.421" y1="270.679" x2="276.213" y2="274.471"/><line x1="272.421" y1="274.471" x2="276.213" y2="270.679"/>
<line x1="276.92" y1="302.055" x2="280.713" y2="302.055"/><line x1="278.817" y1="300.159" x2="278.817" y2="303.951"/><line x1="276.92" y1="300.159" x2="280.713" y2="303.951"/><line x1="276.92" y1="303.951" x2="280.713" y2="300.159"/>
<line x1="281.42" y1="305.876" x2="285.212" y2="305.876"/><line x1="283.316" y1="303.98" x2="283.316" y2="307.772"/><line x1="281.42" y1="303.98" x2="285.212" y2="307.772"/><line x1="281.42" y1="307.772" x2="285.212" y2="303.98"/>
<line x1="285.92" y1="303.626" x2="289.712" y2="303.626"/><line x1="287.816" y1="301.73" x2="287.816" y2="305.522"/><line x1="285.92" y1="301.73" x2="289.712" y2="305.522"/><line x1="285.92" y1="305.522" x2="289.712" y2="301.73"/>
<line x1="290.42" y1="283.027" x2="294.212" y2="283.027"/><line x1="292.316" y1="281.131" x2="292.316" y2="284.923"/><line x1="290.42" y1="281.131" x2="294.212" y2="284.923"/><line x1="290.42" y1="284.923" x2="294.212" y2="281.131"/>
<line x1="294.92" y1="290.769" x2="298.712" y2="290.769"/><line x1="296.816" y1="288.873" x2="296.816" y2="292.665"/><line x1="294.92" y1="288.873" x2="298.712" y2="292.665"/><line x1="294.92" y1="292.665" x2="298.712" y2="288.873"/>
<line x1="299.42" y1="282.733" x2="303.212" y2="282.733"/><line x1="301.316" y1="280.837" x2="301.316" y2="284.629"/><line x1="299.42" y1="280.837" x2="303.212" y2="284.629"/><line x1="299.42" y1="284.629" x2="303.212" y2="280.837"/>
<line x1="303.92" y1="244.912" x2="307.712" y2="244.912"/><line x1="305.816" y1="243.016" x2="305.816" y2="246.809"/><line x1="303.92" y1="243.016" x2="307.712" y2="246.809"/><line x1="303.92" y1="246.809" x2="307.712" y2="243.016"/>
<line x1="308.42" y1="235.468" x2="312.212" y2="235.468"/><line x1="310.316" y1="233.571" x2="310.316" y2="237.364"/><line x1="308.42" y1="233.571" x2="312.212" y2="237.364"/><line x1="308.42" y1="237.364" x2="312.212" y2="233.571"/>
<line x1="312.92" y1="218.898" x2="316.712" y2="218.898"/><line x1="314.816" y1="217.002" x2="314.816" y2="220.794"/><line x1="312.92" y1="217.002" x2="316.712" y2="220.794"/><line x1="312.92" y1="220.794" x2="316.712" y2="217.002"/>
<line x1="317.419" y1="227.934" x2="321.212" y2="227.934"/><line x1="319.315" y1="226.038" x2="319.315" y2="229.83"/><line x1="317.419" y1="226.038" x2="321.212" y2="229.83"/><line x1="317.419" y1="229.83" x2="321.212" y2="226.038"/>
<line x1="321.919" y1="216.531" x2="325.711" y2="216.531"/><line x1="323.815" y1="214.635" x2="323.815" y2="218.427"/><line x1="321.919" y1="214.635" x2="325.711" y2="218.427"/><line x1="321.919" y1="218.427" x2="325.711" y2="214.635"/>
<line x1="326.419" y1="199.099" x2="330.211" y2="199.099"/><line x1="328.315" y1="197.203" x2="328.315" y2="200.995"/><line x1="326.419" y1="197.203" x2="330.211" y2="200.995"/><line x1="326.419" y1="200.995" x2="330.211" y2="197.203"/>
<line x1="330.919" y1="228.152" x2="334.711" y2="228.152"/><line x1="332.815" y1="226.256" x2="332.815" y2="230.048"/><line x1="330.919" y1="226.256" x2="334.711" y2="230.048"/><line x1="330.919" y1="230.048" x2="334.711" y2="226.256"/>
<line x1="335.419" y1="220.402" x2="339.211" y2="220.402"/><line x1="337.315" y1="218.506" x2="337.315" y2="222.298"/><line x1="335.419" y1="218.506" x2="339.211" y2="222.298"/><line x1="335.419" y1="222.298" x2="339.211" y2="218.506"/>
<line x1="339.919" y1="189.96" x2="343.711" y2="189.96"/><line x1="341.815" y1="188.064" x2="341.815" y2="191.856"/><line x1="339.919" y1="188.064" x2="343.711" y2="191.856"/><line x1="339.919" y1="191.856" x2="343.711" y2="188.064"/>
<line x1="344.419" y1="201.324" x2="348.211" y2="201.324"/><line x1="346.315" y1="199.428" x2="346.315" y2="203.22"/><line x1="344.419" y1="199.428" x2="348.211" y2="203.22"/><line x1="344.419" y1="203.22" x2="348.211" y2="199.428"/>
<line x1="348.919" y1="207.787" x2="352.711" y2="207.787"/><line x1="350.815" y1="205.891" x2="350.815" y2="209.683"/><line x1="348.919" y1="205.891" x2="352.711" y2="209.683"/><line x1="348.919" y1="209.683" x2="352.711" y2="205.891"/>
<line x1="353.419" y1="179.455" x2="357.211" y2="179.455"/><line x1="355.315" y1="177.559" x2="355.315" y2="181.351"/><line x1="353.419" y1="177.559" x2="357.211" y2="181.351"/><line x1="353.419" y1="181.351" x2="357.211" y2="177.559"/>
<line x1="357.918" y1="138.843" x2="361.711" y2="138.843"/><line x1="359.814" y1="136.947" x2="359.814" y2="140.739"/><line x1="357.918" y1="136.947" x2="361.711" y2="140.739"/><line x1="357.918" y1="140.739" x2="361.711" y2="136.947"/>
<line x1="362.418" y1="136.657" x2="366.21" y2="136.657"/><line x1="364.314" y1="134.761" x2="364.314" y2="138.553"/><line x1="362.418" y1="134.761" x2="366.21" y2="138.553"/><line x1="362.418" y1="138.553" x2="366.21" y2="134.761"/>
<line x1="366.918" y1="124.829" x2="370.71" y2="124.829"/><line x1="368.814" y1="122.933" x2="368.814" y2="126.725"/><line x1="366.918" y1="122.933" x2="370.71" y2="126.725"/><line x1="366.918" y1="126.725" x2="370.71" y2="122.933"/>
<line x1="371.418" y1="130.793" x2="375.21" y2="130.793"/><line x1="373.314" y1="128.897" x2="373.314" y2="132.689"/><line x1="371.418" y1="128.897" x2="375.21" y2="132.689"/><line x1="371.418" y1="132.689" x2="375.21" y2="128.897"/>
<line x1="375.918" y1="108.553" x2="379.71" y2="108.553"/><line x1="377.814" y1="106.657" x2="377.814" y2="110.449"/><line x1="375.918" y1="106.657" x2="379.71" y2="110.449"/><line x1="375.918" y1="110.449" x2="379.71" y2="106.657"/>
<line x1="380.418" y1="84.7211" x2="384.21" y2="84.7211"/><line x1="382.314" y1="82.8251" x2="382.314" y2="86.6172"/><line x1="380.418" y1="82.8251" x2="384.21" y2="86.6172"/><line x1="380.418" y1="86.6172" x2="384.21" y2="82.8251"/>
<line x1="384.918" y1="82.7156" x2="388.71" y2="82.7156"/><line x1="386.814" y1="80.8195" x2="386.814" y2="84.6117"/><line x1="384.918" y1="80.8195" x2="388.71" y2="84.6117"/><line x1="384.918" y1="84.6117" x2="388.71" y2="80.8195"/>
<line x1="389.418" y1="67.1382" x2="393.21" y2="67.1382"/><line x1="391.314" y1="65.2421" x2="391.314" y2="69.0343"/><line x1="389.418" y1="65.2421" x2="393.21" y2="69.0343"/><line x1="389.418" y1="69.0343" x2="393.21" y2="65.2421"/>
<line x1="393.918" y1="60.0062" x2="397.71" y2="60.0062"/><line x1="395.814" y1="58.1101" x2="395.814" y2="61.9023"/><line x1="393.918" y1="58.1101" x2="397.71" y2="61.9023"/><line x1="393.918" y1="61.9023" x2="397.71" y2="58.1101"/>
</g>
<g stroke="black" stroke-width="1" fill="none">
<line x1="416.417" y1="41.8873" x2="420.209" y2="41.8873"/><line x1="418.313" y1="39.9912" x2="418.313" y2="43.7833"/><line x1="416.417" y1="39.9912" x2="420.209" y2="43.7833"/><line x1="416.417" y1="43.7833" x2="420.209" y2="39.9912"/>
<line x1="420.917" y1="41.6702" x2="424.709" y2="41.6702"/><line x1="422.813" y1="39.7741" x2="422.813" y2="43.5663"/><line x1="420.917" y1="39.7741" x2="424.709" y2="43.5663"/><line x1="420.917" y1="43.5663" x2="424.709" y2="39.7741"/>
</g>
<g stroke="black" stroke-width="1" fill="none">
<line x1="429.917" y1="53.9418" x2="433.709" y2="53.9418"/><line x1="431.813" y1="52.0457" x2="431.813" y2="55.8379"/><line x1="429.917" y1="52.0457" x2="433.709" y2="55.8379"/><line x1="429.917" y1="55.8379" x2="433.709" y2="52.0457"/>
<line x1="434.417" y1="51.5066" x2="438.209" y2="51.5066"/><line x1="436.313" y1="49.6105" x2="436.313" y2="53.4027"/><line x1="434.417" y1="49.6105" x2="438.209" y2="53.4027"/><line x1="434.417" y1="53.4027" x2="438.209" y2="49.6105"/>
<line x1="438.916" y1="42.7377" x2="442.709" y2="42.7377"/><line x1="440.812" y1="40.8416" x2="440.812" y2="44.6338"/><line x1="438.916" y1="40.8416" x2="442.709" y2="44.6338"/><line x1="438.916" y1="44.6338" x2="442.709" y2="40.8416"/>
</g>
<g stroke="black" stroke-width="1" fill="none">
<line x1="452.416" y1="48.7148" x2="456.208" y2="48.7148"/><line x1="454.312" y1="46.8187" x2="454.312" y2="50.6108"/><line x1="452.416" y1="46.8187" x2="456.208" y2="50.6108"/><line x1="452.416" y1="50.6108" x2="456.208" y2="46.8187"/>
<line x1="456.916" y1="64.32" x2="460.708" y2="64.32"/><line x1="458.812" y1="62.4239" x2="458.812" y2="66.2161"/><line x1="456.916" y1="62.4239" x2="460.708" y2="66.2161"/><line x1="456.916" y1="66.2161" x2="460.708" y2="62.4239"/>
<line x1="461.416" y1="46.8575" x2="465.208" y2="46.8575"/><line x1="463.312" y1="44.9614" x2="463.312" y2="48.7536"/><line x1="461.416" y1="44.9614" x2="465.208" y2="48.7536"/><line x1="461.416" y1="48.7536" x2="465.208" y2="44.9614"/>
</g>
<g stroke="black" stroke-width="1" fill="none">
<line x1="474.915" y1="58.3544" x2="478.708" y2="58.3544"/><line x1="476.812" y1="56.4583" x2="476.812" y2="60.2505"/><line x1="474.915" y1="56.4583" x2="478.708" y2="60.2505"/><line x1="474.915" y1="60.2505" x2="478.708" y2="56.4583"/>
</g>
<g stroke="black" stroke-width="1" fill="none">
<line x1="488.415" y1="53.3971" x2="492.207" y2="53.3971"/><line x1="490.311" y1="51.5011" x2="490.311" y2="55.2932"/><line x1="488.415" y1="51.5011" x2="492.207" y2="55.2932"/><line x1="488.415" y1="55.2932" x2="492.207" y2="51.5011"/>
</g>
<path d="M0.5,272.809h 566.929" fill="none" stroke="#0000ff"/>
<text xml:space="preserve" x="111.895" y="18.4868" fill="black" font-size="15.1181" font-family="Helvetica">^2 v.s. calibration factorwith 1st binand without last bin</text>
<text xml:space="preserve" x="103.837" y="18.4868" fill="black" font-size="15.1181" font-family="Times">&#0967;</text></svg>
