<?xml version="1.0" standalone="no"?>
<svg width="567.429" height="413.846" viewBox="0 0 567.429 413.846" xmlns="http://www.w3.org/2000/svg" shape-rendering="crispEdges">
<title>
figures/chi2_1PMTnpedata190929-01.svg
</title>
<desc>
Creator: ROOT Version 6.18/02
CreationDate: Sun Sep 29 20:58:44 2019</desc>
<defs>
</defs>
<rect x="0.5" y="0" width="566.929" height="413.346" fill="white"/>
<rect x="57.1929" y="41.3346" width="453.543" height="330.677" fill="white"/>
<rect x="57.1929" y="41.3346" width="453.543" height="330.677" fill="none" stroke="black"/>
<path d="M57.1929,372.012h 453.543" fill="none" stroke="black"/>
<path d="M71.6321,41.3346v 330.677" fill="none" stroke="black" stroke-dasharray=" 1, 2"/>
<path d="M116.9,41.3346v 330.677" fill="none" stroke="black" stroke-dasharray=" 1, 2"/>
<path d="M162.169,41.3346v 330.677" fill="none" stroke="black" stroke-dasharray=" 1, 2"/>
<path d="M207.437,41.3346v 330.677" fill="none" stroke="black" stroke-dasharray=" 1, 2"/>
<path d="M252.705,41.3346v 330.677" fill="none" stroke="black" stroke-dasharray=" 1, 2"/>
<path d="M297.974,41.3346v 330.677" fill="none" stroke="black" stroke-dasharray=" 1, 2"/>
<path d="M343.242,41.3346v 330.677" fill="none" stroke="black" stroke-dasharray=" 1, 2"/>
<path d="M388.51,41.3346v 330.677" fill="none" stroke="black" stroke-dasharray=" 1, 2"/>
<path d="M433.779,41.3346v 330.677" fill="none" stroke="black" stroke-dasharray=" 1, 2"/>
<path d="M479.047,41.3346v 330.677" fill="none" stroke="black" stroke-dasharray=" 1, 2"/>
<path d="M71.6321,41.3346v 330.677" fill="none" stroke="black" stroke-dasharray=" 1, 2"/>
<path d="M479.047,41.3346v 330.677" fill="none" stroke="black" stroke-dasharray=" 1, 2"/>
<path d="M57.1929,372.012v -330.677" fill="none" stroke="black"/>
<path d="M510.736,368.707h -453.543" fill="none" stroke="black" stroke-dasharray=" 1, 2"/>
<path d="M510.736,305.721h -453.543" fill="none" stroke="black" stroke-dasharray=" 1, 2"/>
<path d="M510.736,242.735h -453.543" fill="none" stroke="black" stroke-dasharray=" 1, 2"/>
<path d="M510.736,179.749h -453.543" fill="none" stroke="black" stroke-dasharray=" 1, 2"/>
<path d="M510.736,116.763h -453.543" fill="none" stroke="black" stroke-dasharray=" 1, 2"/>
<path d="M510.736,53.7768h -453.543" fill="none" stroke="black" stroke-dasharray=" 1, 2"/>
<path d="M510.736,368.707h -453.543" fill="none" stroke="black" stroke-dasharray=" 1, 2"/>
<path d="M510.736,53.7768h -453.543" fill="none" stroke="black" stroke-dasharray=" 1, 2"/>
<path d="M57.1929,372.012h 453.543" fill="none" stroke="black"/>
<path d="M71.6321,362.091v 9.92031" fill="none" stroke="black"/>
<path d="M82.9492,367.052v 4.96016" fill="none" stroke="black"/>
<path d="M94.2663,367.052v 4.96016" fill="none" stroke="black"/>
<path d="M105.583,367.052v 4.96016" fill="none" stroke="black"/>
<path d="M116.9,362.091v 9.92031" fill="none" stroke="black"/>
<path d="M128.217,367.052v 4.96016" fill="none" stroke="black"/>
<path d="M139.535,367.052v 4.96016" fill="none" stroke="black"/>
<path d="M150.852,367.052v 4.96016" fill="none" stroke="black"/>
<path d="M162.169,362.091v 9.92031" fill="none" stroke="black"/>
<path d="M173.486,367.052v 4.96016" fill="none" stroke="black"/>
<path d="M184.803,367.052v 4.96016" fill="none" stroke="black"/>
<path d="M196.12,367.052v 4.96016" fill="none" stroke="black"/>
<path d="M207.437,362.091v 9.92031" fill="none" stroke="black"/>
<path d="M218.754,367.052v 4.96016" fill="none" stroke="black"/>
<path d="M230.071,367.052v 4.96016" fill="none" stroke="black"/>
<path d="M241.388,367.052v 4.96016" fill="none" stroke="black"/>
<path d="M252.705,362.091v 9.92031" fill="none" stroke="black"/>
<path d="M264.022,367.052v 4.96016" fill="none" stroke="black"/>
<path d="M275.34,367.052v 4.96016" fill="none" stroke="black"/>
<path d="M286.657,367.052v 4.96016" fill="none" stroke="black"/>
<path d="M297.974,362.091v 9.92031" fill="none" stroke="black"/>
<path d="M309.291,367.052v 4.96016" fill="none" stroke="black"/>
<path d="M320.608,367.052v 4.96016" fill="none" stroke="black"/>
<path d="M331.925,367.052v 4.96016" fill="none" stroke="black"/>
<path d="M343.242,362.091v 9.92031" fill="none" stroke="black"/>
<path d="M354.559,367.052v 4.96016" fill="none" stroke="black"/>
<path d="M365.876,367.052v 4.96016" fill="none" stroke="black"/>
<path d="M377.193,367.052v 4.96016" fill="none" stroke="black"/>
<path d="M388.51,362.091v 9.92031" fill="none" stroke="black"/>
<path d="M399.827,367.052v 4.96016" fill="none" stroke="black"/>
<path d="M411.145,367.052v 4.96016" fill="none" stroke="black"/>
<path d="M422.462,367.052v 4.96016" fill="none" stroke="black"/>
<path d="M433.779,362.091v 9.92031" fill="none" stroke="black"/>
<path d="M445.096,367.052v 4.96016" fill="none" stroke="black"/>
<path d="M456.413,367.052v 4.96016" fill="none" stroke="black"/>
<path d="M467.73,367.052v 4.96016" fill="none" stroke="black"/>
<path d="M479.047,362.091v 9.92031" fill="none" stroke="black"/>
<path d="M71.6321,362.091v 9.92031" fill="none" stroke="black"/>
<path d="M60.315,367.052v 4.96016" fill="none" stroke="black"/>
<path d="M479.047,362.091v 9.92031" fill="none" stroke="black"/>
<path d="M490.364,367.052v 4.96016" fill="none" stroke="black"/>
<path d="M501.681,367.052v 4.96016" fill="none" stroke="black"/>
<text xml:space="preserve" x="62.5968" y="385.379" fill="black" font-size="13.7726" font-family="Helvetica">0.8</text>
<text xml:space="preserve" x="103.837" y="385.379" fill="black" font-size="13.7726" font-family="Helvetica">0.82</text>
<text xml:space="preserve" x="149.343" y="385.379" fill="black" font-size="13.7726" font-family="Helvetica">0.84</text>
<text xml:space="preserve" x="194.375" y="385.379" fill="black" font-size="13.7726" font-family="Helvetica">0.86</text>
<text xml:space="preserve" x="239.881" y="385.379" fill="black" font-size="13.7726" font-family="Helvetica">0.88</text>
<text xml:space="preserve" x="288.705" y="385.379" fill="black" font-size="13.7726" font-family="Helvetica">0.9</text>
<text xml:space="preserve" x="330.419" y="385.379" fill="black" font-size="13.7726" font-family="Helvetica">0.92</text>
<text xml:space="preserve" x="375.451" y="385.379" fill="black" font-size="13.7726" font-family="Helvetica">0.94</text>
<text xml:space="preserve" x="420.957" y="385.379" fill="black" font-size="13.7726" font-family="Helvetica">0.96</text>
<text xml:space="preserve" x="465.989" y="385.379" fill="black" font-size="13.7726" font-family="Helvetica">0.98</text>
<text xml:space="preserve" x="413.372" y="400.074" fill="black" font-size="13.7726" font-family="Helvetica">calibration factor</text>
<path d="M57.1929,372.012v -330.677" fill="none" stroke="black"/>
<path d="M70.7992,368.707h -13.6063" fill="none" stroke="black"/>
<path d="M63.9961,352.961h -6.80315" fill="none" stroke="black"/>
<path d="M63.9961,337.214h -6.80315" fill="none" stroke="black"/>
<path d="M63.9961,321.468h -6.80315" fill="none" stroke="black"/>
<path d="M70.7992,305.721h -13.6063" fill="none" stroke="black"/>
<path d="M63.9961,289.975h -6.80315" fill="none" stroke="black"/>
<path d="M63.9961,274.228h -6.80315" fill="none" stroke="black"/>
<path d="M63.9961,258.482h -6.80315" fill="none" stroke="black"/>
<path d="M70.7992,242.735h -13.6063" fill="none" stroke="black"/>
<path d="M63.9961,226.989h -6.80315" fill="none" stroke="black"/>
<path d="M63.9961,211.242h -6.80315" fill="none" stroke="black"/>
<path d="M63.9961,195.495h -6.80315" fill="none" stroke="black"/>
<path d="M70.7992,179.749h -13.6063" fill="none" stroke="black"/>
<path d="M63.9961,164.002h -6.80315" fill="none" stroke="black"/>
<path d="M63.9961,148.256h -6.80315" fill="none" stroke="black"/>
<path d="M63.9961,132.509h -6.80315" fill="none" stroke="black"/>
<path d="M70.7992,116.763h -13.6063" fill="none" stroke="black"/>
<path d="M63.9961,101.016h -6.80315" fill="none" stroke="black"/>
<path d="M63.9961,85.2698h -6.80315" fill="none" stroke="black"/>
<path d="M63.9961,69.5233h -6.80315" fill="none" stroke="black"/>
<path d="M70.7992,53.7768h -13.6063" fill="none" stroke="black"/>
<path d="M70.7992,368.707h -13.6063" fill="none" stroke="black"/>
<path d="M70.7992,53.7768h -13.6063" fill="none" stroke="black"/>
<text xml:space="preserve" x="25.1491" y="373.055" fill="black" font-size="13.7726" font-family="Helvetica">2520</text>
<text xml:space="preserve" x="25.1491" y="310.01" fill="black" font-size="13.7726" font-family="Helvetica">2540</text>
<text xml:space="preserve" x="25.1491" y="247.439" fill="black" font-size="13.7726" font-family="Helvetica">2560</text>
<text xml:space="preserve" x="25.1491" y="184.394" fill="black" font-size="13.7726" font-family="Helvetica">2580</text>
<text xml:space="preserve" x="25.1491" y="121.349" fill="black" font-size="13.7726" font-family="Helvetica">2600</text>
<text xml:space="preserve" x="25.1491" y="58.3046" fill="black" font-size="13.7726" font-family="Helvetica">2620</text>
<g transform="rotate(-90,8.08434,45.98)">
<text xml:space="preserve" x="8.08434" y="45.98" fill="black" font-size="9.34839" font-family="Helvetica">2</text>
</g>
<g transform="rotate(-90,12.3505,50.2462)">
<text xml:space="preserve" x="12.3505" y="50.2462" fill="black" font-size="13.7726" font-family="Helvetica"> </text>
</g>
<g transform="rotate(-90,12.3505,57.3565)">
<text xml:space="preserve" x="12.3505" y="57.3565" fill="black" font-size="13.7726" font-family="Times">&#0967;</text>
</g>
<g stroke="black" stroke-width="1" fill="none">
<line x1="229.986" y1="45.4251" x2="233.778" y2="45.4251"/><line x1="231.882" y1="43.529" x2="231.882" y2="47.3212"/><line x1="229.986" y1="43.529" x2="233.778" y2="47.3212"/><line x1="229.986" y1="47.3212" x2="233.778" y2="43.529"/>
<line x1="230.439" y1="47.5344" x2="234.231" y2="47.5344"/><line x1="232.335" y1="45.6383" x2="232.335" y2="49.4305"/><line x1="230.439" y1="45.6383" x2="234.231" y2="49.4305"/><line x1="230.439" y1="49.4305" x2="234.231" y2="45.6383"/>
</g>
<g stroke="black" stroke-width="1" fill="none">
<line x1="231.344" y1="46.2966" x2="235.136" y2="46.2966"/><line x1="233.24" y1="44.4005" x2="233.24" y2="48.1926"/><line x1="231.344" y1="44.4005" x2="235.136" y2="48.1926"/><line x1="231.344" y1="48.1926" x2="235.136" y2="44.4005"/>
<line x1="231.797" y1="43.391" x2="235.589" y2="43.391"/><line x1="233.693" y1="41.4949" x2="233.693" y2="45.2871"/><line x1="231.797" y1="41.4949" x2="235.589" y2="45.2871"/><line x1="231.797" y1="45.2871" x2="235.589" y2="41.4949"/>
<line x1="232.249" y1="48.0451" x2="236.041" y2="48.0451"/><line x1="234.145" y1="46.149" x2="234.145" y2="49.9412"/><line x1="232.249" y1="46.149" x2="236.041" y2="49.9412"/><line x1="232.249" y1="49.9412" x2="236.041" y2="46.149"/>
<line x1="232.702" y1="53.4228" x2="236.494" y2="53.4228"/><line x1="234.598" y1="51.5267" x2="234.598" y2="55.3189"/><line x1="232.702" y1="51.5267" x2="236.494" y2="55.3189"/><line x1="232.702" y1="55.3189" x2="236.494" y2="51.5267"/>
<line x1="233.155" y1="59.5627" x2="236.947" y2="59.5627"/><line x1="235.051" y1="57.6666" x2="235.051" y2="61.4588"/><line x1="233.155" y1="57.6666" x2="236.947" y2="61.4588"/><line x1="233.155" y1="61.4588" x2="236.947" y2="57.6666"/>
<line x1="233.607" y1="60.2379" x2="237.4" y2="60.2379"/><line x1="235.503" y1="58.3418" x2="235.503" y2="62.134"/><line x1="233.607" y1="58.3418" x2="237.4" y2="62.134"/><line x1="233.607" y1="62.134" x2="237.4" y2="58.3418"/>
<line x1="234.06" y1="53.2067" x2="237.852" y2="53.2067"/><line x1="235.956" y1="51.3106" x2="235.956" y2="55.1028"/><line x1="234.06" y1="51.3106" x2="237.852" y2="55.1028"/><line x1="234.06" y1="55.1028" x2="237.852" y2="51.3106"/>
<line x1="234.513" y1="52.0942" x2="238.305" y2="52.0942"/><line x1="236.409" y1="50.1981" x2="236.409" y2="53.9903"/><line x1="234.513" y1="50.1981" x2="238.305" y2="53.9903"/><line x1="234.513" y1="53.9903" x2="238.305" y2="50.1981"/>
<line x1="234.965" y1="64.0644" x2="238.758" y2="64.0644"/><line x1="236.861" y1="62.1683" x2="236.861" y2="65.9605"/><line x1="234.965" y1="62.1683" x2="238.758" y2="65.9605"/><line x1="234.965" y1="65.9605" x2="238.758" y2="62.1683"/>
<line x1="235.418" y1="69.4599" x2="239.21" y2="69.4599"/><line x1="237.314" y1="67.5638" x2="237.314" y2="71.356"/><line x1="235.418" y1="67.5638" x2="239.21" y2="71.356"/><line x1="235.418" y1="71.356" x2="239.21" y2="67.5638"/>
<line x1="235.871" y1="78.1202" x2="239.663" y2="78.1202"/><line x1="237.767" y1="76.2241" x2="237.767" y2="80.0163"/><line x1="235.871" y1="76.2241" x2="239.663" y2="80.0163"/><line x1="235.871" y1="80.0163" x2="239.663" y2="76.2241"/>
<line x1="236.323" y1="79.4307" x2="240.116" y2="79.4307"/><line x1="238.22" y1="77.5346" x2="238.22" y2="81.3268"/><line x1="236.323" y1="77.5346" x2="240.116" y2="81.3268"/><line x1="236.323" y1="81.3268" x2="240.116" y2="77.5346"/>
<line x1="236.776" y1="75.3166" x2="240.568" y2="75.3166"/><line x1="238.672" y1="73.4205" x2="238.672" y2="77.2127"/><line x1="236.776" y1="73.4205" x2="240.568" y2="77.2127"/><line x1="236.776" y1="77.2127" x2="240.568" y2="73.4205"/>
<line x1="237.229" y1="77.0858" x2="241.021" y2="77.0858"/><line x1="239.125" y1="75.1897" x2="239.125" y2="78.9818"/><line x1="237.229" y1="75.1897" x2="241.021" y2="78.9818"/><line x1="237.229" y1="78.9818" x2="241.021" y2="75.1897"/>
<line x1="237.682" y1="84.298" x2="241.474" y2="84.298"/><line x1="239.578" y1="82.402" x2="239.578" y2="86.1941"/><line x1="237.682" y1="82.402" x2="241.474" y2="86.1941"/><line x1="237.682" y1="86.1941" x2="241.474" y2="82.402"/>
<line x1="238.134" y1="93.7542" x2="241.926" y2="93.7542"/><line x1="240.03" y1="91.8581" x2="240.03" y2="95.6503"/><line x1="238.134" y1="91.8581" x2="241.926" y2="95.6503"/><line x1="238.134" y1="95.6503" x2="241.926" y2="91.8581"/>
<line x1="238.587" y1="91.0342" x2="242.379" y2="91.0342"/><line x1="240.483" y1="89.1381" x2="240.483" y2="92.9303"/><line x1="238.587" y1="89.1381" x2="242.379" y2="92.9303"/><line x1="238.587" y1="92.9303" x2="242.379" y2="89.1381"/>
<line x1="239.04" y1="103.384" x2="242.832" y2="103.384"/><line x1="240.936" y1="101.488" x2="240.936" y2="105.28"/><line x1="239.04" y1="101.488" x2="242.832" y2="105.28"/><line x1="239.04" y1="105.28" x2="242.832" y2="101.488"/>
<line x1="239.492" y1="101.952" x2="243.284" y2="101.952"/><line x1="241.388" y1="100.056" x2="241.388" y2="103.848"/><line x1="239.492" y1="100.056" x2="243.284" y2="103.848"/><line x1="239.492" y1="103.848" x2="243.284" y2="100.056"/>
<line x1="239.945" y1="105.867" x2="243.737" y2="105.867"/><line x1="241.841" y1="103.971" x2="241.841" y2="107.764"/><line x1="239.945" y1="103.971" x2="243.737" y2="107.764"/><line x1="239.945" y1="107.764" x2="243.737" y2="103.971"/>
<line x1="240.398" y1="104.315" x2="244.19" y2="104.315"/><line x1="242.294" y1="102.419" x2="242.294" y2="106.211"/><line x1="240.398" y1="102.419" x2="244.19" y2="106.211"/><line x1="240.398" y1="106.211" x2="244.19" y2="102.419"/>
<line x1="240.85" y1="110.97" x2="244.642" y2="110.97"/><line x1="242.746" y1="109.074" x2="242.746" y2="112.866"/><line x1="240.85" y1="109.074" x2="244.642" y2="112.866"/><line x1="240.85" y1="112.866" x2="244.642" y2="109.074"/>
<line x1="241.303" y1="113.977" x2="245.095" y2="113.977"/><line x1="243.199" y1="112.081" x2="243.199" y2="115.873"/><line x1="241.303" y1="112.081" x2="245.095" y2="115.873"/><line x1="241.303" y1="115.873" x2="245.095" y2="112.081"/>
<line x1="241.756" y1="112.302" x2="245.548" y2="112.302"/><line x1="243.652" y1="110.406" x2="243.652" y2="114.198"/><line x1="241.756" y1="110.406" x2="245.548" y2="114.198"/><line x1="241.756" y1="114.198" x2="245.548" y2="110.406"/>
<line x1="242.208" y1="109.372" x2="246.001" y2="109.372"/><line x1="244.104" y1="107.476" x2="244.104" y2="111.268"/><line x1="242.208" y1="107.476" x2="246.001" y2="111.268"/><line x1="242.208" y1="111.268" x2="246.001" y2="107.476"/>
<line x1="242.661" y1="110.43" x2="246.453" y2="110.43"/><line x1="244.557" y1="108.534" x2="244.557" y2="112.326"/><line x1="242.661" y1="108.534" x2="246.453" y2="112.326"/><line x1="242.661" y1="112.326" x2="246.453" y2="108.534"/>
<line x1="243.114" y1="113.211" x2="246.906" y2="113.211"/><line x1="245.01" y1="111.315" x2="245.01" y2="115.107"/><line x1="243.114" y1="111.315" x2="246.906" y2="115.107"/><line x1="243.114" y1="115.107" x2="246.906" y2="111.315"/>
<line x1="243.566" y1="107.463" x2="247.359" y2="107.463"/><line x1="245.462" y1="105.567" x2="245.462" y2="109.359"/><line x1="243.566" y1="105.567" x2="247.359" y2="109.359"/><line x1="243.566" y1="109.359" x2="247.359" y2="105.567"/>
<line x1="244.019" y1="109.935" x2="247.811" y2="109.935"/><line x1="245.915" y1="108.039" x2="245.915" y2="111.831"/><line x1="244.019" y1="108.039" x2="247.811" y2="111.831"/><line x1="244.019" y1="111.831" x2="247.811" y2="108.039"/>
<line x1="244.472" y1="116.355" x2="248.264" y2="116.355"/><line x1="246.368" y1="114.459" x2="246.368" y2="118.251"/><line x1="244.472" y1="114.459" x2="248.264" y2="118.251"/><line x1="244.472" y1="118.251" x2="248.264" y2="114.459"/>
<line x1="244.924" y1="117.163" x2="248.717" y2="117.163"/><line x1="246.821" y1="115.267" x2="246.821" y2="119.059"/><line x1="244.924" y1="115.267" x2="248.717" y2="119.059"/><line x1="244.924" y1="119.059" x2="248.717" y2="115.267"/>
<line x1="245.377" y1="126.183" x2="249.169" y2="126.183"/><line x1="247.273" y1="124.287" x2="247.273" y2="128.079"/><line x1="245.377" y1="124.287" x2="249.169" y2="128.079"/><line x1="245.377" y1="128.079" x2="249.169" y2="124.287"/>
<line x1="245.83" y1="129.281" x2="249.622" y2="129.281"/><line x1="247.726" y1="127.385" x2="247.726" y2="131.177"/><line x1="245.83" y1="127.385" x2="249.622" y2="131.177"/><line x1="245.83" y1="131.177" x2="249.622" y2="127.385"/>
<line x1="246.282" y1="126.084" x2="250.075" y2="126.084"/><line x1="248.179" y1="124.188" x2="248.179" y2="127.98"/><line x1="246.282" y1="124.188" x2="250.075" y2="127.98"/><line x1="246.282" y1="127.98" x2="250.075" y2="124.188"/>
<line x1="246.735" y1="138.622" x2="250.527" y2="138.622"/><line x1="248.631" y1="136.726" x2="248.631" y2="140.518"/><line x1="246.735" y1="136.726" x2="250.527" y2="140.518"/><line x1="246.735" y1="140.518" x2="250.527" y2="136.726"/>
<line x1="247.188" y1="135.19" x2="250.98" y2="135.19"/><line x1="249.084" y1="133.294" x2="249.084" y2="137.086"/><line x1="247.188" y1="133.294" x2="250.98" y2="137.086"/><line x1="247.188" y1="137.086" x2="250.98" y2="133.294"/>
<line x1="247.641" y1="136.842" x2="251.433" y2="136.842"/><line x1="249.537" y1="134.945" x2="249.537" y2="138.738"/><line x1="247.641" y1="134.945" x2="251.433" y2="138.738"/><line x1="247.641" y1="138.738" x2="251.433" y2="134.945"/>
<line x1="248.093" y1="132.817" x2="251.885" y2="132.817"/><line x1="249.989" y1="130.921" x2="249.989" y2="134.713"/><line x1="248.093" y1="130.921" x2="251.885" y2="134.713"/><line x1="248.093" y1="134.713" x2="251.885" y2="130.921"/>
<line x1="248.546" y1="133.636" x2="252.338" y2="133.636"/><line x1="250.442" y1="131.74" x2="250.442" y2="135.532"/><line x1="248.546" y1="131.74" x2="252.338" y2="135.532"/><line x1="248.546" y1="135.532" x2="252.338" y2="131.74"/>
<line x1="248.999" y1="128.732" x2="252.791" y2="128.732"/><line x1="250.895" y1="126.836" x2="250.895" y2="130.628"/><line x1="248.999" y1="126.836" x2="252.791" y2="130.628"/><line x1="248.999" y1="130.628" x2="252.791" y2="126.836"/>
<line x1="249.451" y1="125.215" x2="253.243" y2="125.215"/><line x1="251.347" y1="123.319" x2="251.347" y2="127.111"/><line x1="249.451" y1="123.319" x2="253.243" y2="127.111"/><line x1="249.451" y1="127.111" x2="253.243" y2="123.319"/>
<line x1="249.904" y1="126.926" x2="253.696" y2="126.926"/><line x1="251.8" y1="125.03" x2="251.8" y2="128.822"/><line x1="249.904" y1="125.03" x2="253.696" y2="128.822"/><line x1="249.904" y1="128.822" x2="253.696" y2="125.03"/>
<line x1="250.357" y1="135.413" x2="254.149" y2="135.413"/><line x1="252.253" y1="133.517" x2="252.253" y2="137.31"/><line x1="250.357" y1="133.517" x2="254.149" y2="137.31"/><line x1="250.357" y1="137.31" x2="254.149" y2="133.517"/>
<line x1="250.809" y1="133.62" x2="254.601" y2="133.62"/><line x1="252.705" y1="131.723" x2="252.705" y2="135.516"/><line x1="250.809" y1="131.723" x2="254.601" y2="135.516"/><line x1="250.809" y1="135.516" x2="254.601" y2="131.723"/>
<line x1="251.262" y1="148.559" x2="255.054" y2="148.559"/><line x1="253.158" y1="146.663" x2="253.158" y2="150.455"/><line x1="251.262" y1="146.663" x2="255.054" y2="150.455"/><line x1="251.262" y1="150.455" x2="255.054" y2="146.663"/>
<line x1="251.715" y1="142.044" x2="255.507" y2="142.044"/><line x1="253.611" y1="140.147" x2="253.611" y2="143.94"/><line x1="251.715" y1="140.147" x2="255.507" y2="143.94"/><line x1="251.715" y1="143.94" x2="255.507" y2="140.147"/>
<line x1="252.167" y1="141.776" x2="255.96" y2="141.776"/><line x1="254.063" y1="139.88" x2="254.063" y2="143.672"/><line x1="252.167" y1="139.88" x2="255.96" y2="143.672"/><line x1="252.167" y1="143.672" x2="255.96" y2="139.88"/>
<line x1="252.62" y1="147.083" x2="256.412" y2="147.083"/><line x1="254.516" y1="145.187" x2="254.516" y2="148.979"/><line x1="252.62" y1="145.187" x2="256.412" y2="148.979"/><line x1="252.62" y1="148.979" x2="256.412" y2="145.187"/>
<line x1="253.073" y1="147.897" x2="256.865" y2="147.897"/><line x1="254.969" y1="146.001" x2="254.969" y2="149.793"/><line x1="253.073" y1="146.001" x2="256.865" y2="149.793"/><line x1="253.073" y1="149.793" x2="256.865" y2="146.001"/>
<line x1="253.525" y1="157.632" x2="257.318" y2="157.632"/><line x1="255.421" y1="155.736" x2="255.421" y2="159.529"/><line x1="253.525" y1="155.736" x2="257.318" y2="159.529"/><line x1="253.525" y1="159.529" x2="257.318" y2="155.736"/>
<line x1="253.978" y1="161.693" x2="257.77" y2="161.693"/><line x1="255.874" y1="159.797" x2="255.874" y2="163.589"/><line x1="253.978" y1="159.797" x2="257.77" y2="163.589"/><line x1="253.978" y1="163.589" x2="257.77" y2="159.797"/>
<line x1="254.431" y1="168.373" x2="258.223" y2="168.373"/><line x1="256.327" y1="166.477" x2="256.327" y2="170.269"/><line x1="254.431" y1="166.477" x2="258.223" y2="170.269"/><line x1="254.431" y1="170.269" x2="258.223" y2="166.477"/>
<line x1="254.883" y1="175.803" x2="258.676" y2="175.803"/><line x1="256.78" y1="173.907" x2="256.78" y2="177.699"/><line x1="254.883" y1="173.907" x2="258.676" y2="177.699"/><line x1="254.883" y1="177.699" x2="258.676" y2="173.907"/>
<line x1="255.336" y1="178.754" x2="259.128" y2="178.754"/><line x1="257.232" y1="176.858" x2="257.232" y2="180.65"/><line x1="255.336" y1="176.858" x2="259.128" y2="180.65"/><line x1="255.336" y1="180.65" x2="259.128" y2="176.858"/>
<line x1="255.789" y1="194.679" x2="259.581" y2="194.679"/><line x1="257.685" y1="192.783" x2="257.685" y2="196.575"/><line x1="255.789" y1="192.783" x2="259.581" y2="196.575"/><line x1="255.789" y1="196.575" x2="259.581" y2="192.783"/>
<line x1="256.242" y1="197.714" x2="260.034" y2="197.714"/><line x1="258.138" y1="195.818" x2="258.138" y2="199.61"/><line x1="256.242" y1="195.818" x2="260.034" y2="199.61"/><line x1="256.242" y1="199.61" x2="260.034" y2="195.818"/>
<line x1="256.694" y1="200.024" x2="260.486" y2="200.024"/><line x1="258.59" y1="198.128" x2="258.59" y2="201.921"/><line x1="256.694" y1="198.128" x2="260.486" y2="201.921"/><line x1="256.694" y1="201.921" x2="260.486" y2="198.128"/>
<line x1="257.147" y1="206.435" x2="260.939" y2="206.435"/><line x1="259.043" y1="204.539" x2="259.043" y2="208.331"/><line x1="257.147" y1="204.539" x2="260.939" y2="208.331"/><line x1="257.147" y1="208.331" x2="260.939" y2="204.539"/>
<line x1="257.6" y1="204.316" x2="261.392" y2="204.316"/><line x1="259.496" y1="202.42" x2="259.496" y2="206.213"/><line x1="257.6" y1="202.42" x2="261.392" y2="206.213"/><line x1="257.6" y1="206.213" x2="261.392" y2="202.42"/>
<line x1="258.052" y1="198.879" x2="261.844" y2="198.879"/><line x1="259.948" y1="196.983" x2="259.948" y2="200.775"/><line x1="258.052" y1="196.983" x2="261.844" y2="200.775"/><line x1="258.052" y1="200.775" x2="261.844" y2="196.983"/>
<line x1="258.505" y1="204.281" x2="262.297" y2="204.281"/><line x1="260.401" y1="202.385" x2="260.401" y2="206.177"/><line x1="258.505" y1="202.385" x2="262.297" y2="206.177"/><line x1="258.505" y1="206.177" x2="262.297" y2="202.385"/>
<line x1="258.958" y1="213.676" x2="262.75" y2="213.676"/><line x1="260.854" y1="211.78" x2="260.854" y2="215.573"/><line x1="258.958" y1="211.78" x2="262.75" y2="215.573"/><line x1="258.958" y1="215.573" x2="262.75" y2="211.78"/>
<line x1="259.41" y1="226.023" x2="263.202" y2="226.023"/><line x1="261.306" y1="224.127" x2="261.306" y2="227.919"/><line x1="259.41" y1="224.127" x2="263.202" y2="227.919"/><line x1="259.41" y1="227.919" x2="263.202" y2="224.127"/>
<line x1="259.863" y1="232.04" x2="263.655" y2="232.04"/><line x1="261.759" y1="230.144" x2="261.759" y2="233.936"/><line x1="259.863" y1="230.144" x2="263.655" y2="233.936"/><line x1="259.863" y1="233.936" x2="263.655" y2="230.144"/>
<line x1="260.316" y1="228.471" x2="264.108" y2="228.471"/><line x1="262.212" y1="226.575" x2="262.212" y2="230.368"/><line x1="260.316" y1="226.575" x2="264.108" y2="230.368"/><line x1="260.316" y1="230.368" x2="264.108" y2="226.575"/>
<line x1="260.768" y1="227.326" x2="264.561" y2="227.326"/><line x1="262.664" y1="225.43" x2="262.664" y2="229.222"/><line x1="260.768" y1="225.43" x2="264.561" y2="229.222"/><line x1="260.768" y1="229.222" x2="264.561" y2="225.43"/>
<line x1="261.221" y1="221.02" x2="265.013" y2="221.02"/><line x1="263.117" y1="219.124" x2="263.117" y2="222.916"/><line x1="261.221" y1="219.124" x2="265.013" y2="222.916"/><line x1="261.221" y1="222.916" x2="265.013" y2="219.124"/>
<line x1="261.674" y1="226.011" x2="265.466" y2="226.011"/><line x1="263.57" y1="224.115" x2="263.57" y2="227.907"/><line x1="261.674" y1="224.115" x2="265.466" y2="227.907"/><line x1="261.674" y1="227.907" x2="265.466" y2="224.115"/>
<line x1="262.126" y1="234.887" x2="265.919" y2="234.887"/><line x1="264.022" y1="232.991" x2="264.022" y2="236.783"/><line x1="262.126" y1="232.991" x2="265.919" y2="236.783"/><line x1="262.126" y1="236.783" x2="265.919" y2="232.991"/>
<line x1="262.579" y1="245.724" x2="266.371" y2="245.724"/><line x1="264.475" y1="243.828" x2="264.475" y2="247.62"/><line x1="262.579" y1="243.828" x2="266.371" y2="247.62"/><line x1="262.579" y1="247.62" x2="266.371" y2="243.828"/>
<line x1="263.032" y1="251.293" x2="266.824" y2="251.293"/><line x1="264.928" y1="249.397" x2="264.928" y2="253.189"/><line x1="263.032" y1="249.397" x2="266.824" y2="253.189"/><line x1="263.032" y1="253.189" x2="266.824" y2="249.397"/>
<line x1="263.484" y1="259.607" x2="267.277" y2="259.607"/><line x1="265.381" y1="257.711" x2="265.381" y2="261.503"/><line x1="263.484" y1="257.711" x2="267.277" y2="261.503"/><line x1="263.484" y1="261.503" x2="267.277" y2="257.711"/>
<line x1="263.937" y1="255.284" x2="267.729" y2="255.284"/><line x1="265.833" y1="253.388" x2="265.833" y2="257.18"/><line x1="263.937" y1="253.388" x2="267.729" y2="257.18"/><line x1="263.937" y1="257.18" x2="267.729" y2="253.388"/>
<line x1="264.39" y1="263.11" x2="268.182" y2="263.11"/><line x1="266.286" y1="261.214" x2="266.286" y2="265.006"/><line x1="264.39" y1="261.214" x2="268.182" y2="265.006"/><line x1="264.39" y1="265.006" x2="268.182" y2="261.214"/>
<line x1="264.842" y1="265.037" x2="268.635" y2="265.037"/><line x1="266.739" y1="263.141" x2="266.739" y2="266.933"/><line x1="264.842" y1="263.141" x2="268.635" y2="266.933"/><line x1="264.842" y1="266.933" x2="268.635" y2="263.141"/>
<line x1="265.295" y1="269.27" x2="269.087" y2="269.27"/><line x1="267.191" y1="267.374" x2="267.191" y2="271.167"/><line x1="265.295" y1="267.374" x2="269.087" y2="271.167"/><line x1="265.295" y1="271.167" x2="269.087" y2="267.374"/>
<line x1="265.748" y1="264.296" x2="269.54" y2="264.296"/><line x1="267.644" y1="262.399" x2="267.644" y2="266.192"/><line x1="265.748" y1="262.399" x2="269.54" y2="266.192"/><line x1="265.748" y1="266.192" x2="269.54" y2="262.399"/>
<line x1="266.201" y1="268.763" x2="269.993" y2="268.763"/><line x1="268.097" y1="266.867" x2="268.097" y2="270.659"/><line x1="266.201" y1="266.867" x2="269.993" y2="270.659"/><line x1="266.201" y1="270.659" x2="269.993" y2="266.867"/>
<line x1="266.653" y1="267.675" x2="270.445" y2="267.675"/><line x1="268.549" y1="265.779" x2="268.549" y2="269.571"/><line x1="266.653" y1="265.779" x2="270.445" y2="269.571"/><line x1="266.653" y1="269.571" x2="270.445" y2="265.779"/>
<line x1="267.106" y1="268.757" x2="270.898" y2="268.757"/><line x1="269.002" y1="266.86" x2="269.002" y2="270.653"/><line x1="267.106" y1="266.86" x2="270.898" y2="270.653"/><line x1="267.106" y1="270.653" x2="270.898" y2="266.86"/>
<line x1="267.559" y1="262.588" x2="271.351" y2="262.588"/><line x1="269.455" y1="260.692" x2="269.455" y2="264.484"/><line x1="267.559" y1="260.692" x2="271.351" y2="264.484"/><line x1="267.559" y1="264.484" x2="271.351" y2="260.692"/>
<line x1="268.011" y1="268.934" x2="271.803" y2="268.934"/><line x1="269.907" y1="267.038" x2="269.907" y2="270.83"/><line x1="268.011" y1="267.038" x2="271.803" y2="270.83"/><line x1="268.011" y1="270.83" x2="271.803" y2="267.038"/>
<line x1="268.464" y1="269.116" x2="272.256" y2="269.116"/><line x1="270.36" y1="267.22" x2="270.36" y2="271.012"/><line x1="268.464" y1="267.22" x2="272.256" y2="271.012"/><line x1="268.464" y1="271.012" x2="272.256" y2="267.22"/>
<line x1="268.917" y1="276.809" x2="272.709" y2="276.809"/><line x1="270.813" y1="274.913" x2="270.813" y2="278.705"/><line x1="268.917" y1="274.913" x2="272.709" y2="278.705"/><line x1="268.917" y1="278.705" x2="272.709" y2="274.913"/>
<line x1="269.369" y1="280.941" x2="273.161" y2="280.941"/><line x1="271.265" y1="279.045" x2="271.265" y2="282.837"/><line x1="269.369" y1="279.045" x2="273.161" y2="282.837"/><line x1="269.369" y1="282.837" x2="273.161" y2="279.045"/>
<line x1="269.822" y1="281.797" x2="273.614" y2="281.797"/><line x1="271.718" y1="279.901" x2="271.718" y2="283.693"/><line x1="269.822" y1="279.901" x2="273.614" y2="283.693"/><line x1="269.822" y1="283.693" x2="273.614" y2="279.901"/>
<line x1="270.275" y1="281.032" x2="274.067" y2="281.032"/><line x1="272.171" y1="279.136" x2="272.171" y2="282.929"/><line x1="270.275" y1="279.136" x2="274.067" y2="282.929"/><line x1="270.275" y1="282.929" x2="274.067" y2="279.136"/>
<line x1="270.727" y1="286.956" x2="274.52" y2="286.956"/><line x1="272.623" y1="285.059" x2="272.623" y2="288.852"/><line x1="270.727" y1="285.059" x2="274.52" y2="288.852"/><line x1="270.727" y1="288.852" x2="274.52" y2="285.059"/>
<line x1="271.18" y1="289.409" x2="274.972" y2="289.409"/><line x1="273.076" y1="287.513" x2="273.076" y2="291.305"/><line x1="271.18" y1="287.513" x2="274.972" y2="291.305"/><line x1="271.18" y1="291.305" x2="274.972" y2="287.513"/>
<line x1="271.633" y1="281.815" x2="275.425" y2="281.815"/><line x1="273.529" y1="279.919" x2="273.529" y2="283.711"/><line x1="271.633" y1="279.919" x2="275.425" y2="283.711"/><line x1="271.633" y1="283.711" x2="275.425" y2="279.919"/>
<line x1="272.085" y1="279.604" x2="275.878" y2="279.604"/><line x1="273.982" y1="277.707" x2="273.982" y2="281.5"/><line x1="272.085" y1="277.707" x2="275.878" y2="281.5"/><line x1="272.085" y1="281.5" x2="275.878" y2="277.707"/>
<line x1="272.538" y1="284.029" x2="276.33" y2="284.029"/><line x1="274.434" y1="282.133" x2="274.434" y2="285.925"/><line x1="272.538" y1="282.133" x2="276.33" y2="285.925"/><line x1="272.538" y1="285.925" x2="276.33" y2="282.133"/>
<line x1="272.991" y1="280.268" x2="276.783" y2="280.268"/><line x1="274.887" y1="278.372" x2="274.887" y2="282.164"/><line x1="272.991" y1="278.372" x2="276.783" y2="282.164"/><line x1="272.991" y1="282.164" x2="276.783" y2="278.372"/>
<line x1="273.443" y1="281.062" x2="277.236" y2="281.062"/><line x1="275.34" y1="279.166" x2="275.34" y2="282.958"/><line x1="273.443" y1="279.166" x2="277.236" y2="282.958"/><line x1="273.443" y1="282.958" x2="277.236" y2="279.166"/>
<line x1="273.896" y1="285.814" x2="277.688" y2="285.814"/><line x1="275.792" y1="283.918" x2="275.792" y2="287.71"/><line x1="273.896" y1="283.918" x2="277.688" y2="287.71"/><line x1="273.896" y1="287.71" x2="277.688" y2="283.918"/>
<line x1="274.349" y1="296.335" x2="278.141" y2="296.335"/><line x1="276.245" y1="294.439" x2="276.245" y2="298.231"/><line x1="274.349" y1="294.439" x2="278.141" y2="298.231"/><line x1="274.349" y1="298.231" x2="278.141" y2="294.439"/>
<line x1="274.802" y1="301.447" x2="278.594" y2="301.447"/><line x1="276.698" y1="299.551" x2="276.698" y2="303.343"/><line x1="274.802" y1="299.551" x2="278.594" y2="303.343"/><line x1="274.802" y1="303.343" x2="278.594" y2="299.551"/>
<line x1="275.254" y1="305.587" x2="279.046" y2="305.587"/><line x1="277.15" y1="303.691" x2="277.15" y2="307.483"/><line x1="275.254" y1="303.691" x2="279.046" y2="307.483"/><line x1="275.254" y1="307.483" x2="279.046" y2="303.691"/>
<line x1="275.707" y1="303.746" x2="279.499" y2="303.746"/><line x1="277.603" y1="301.85" x2="277.603" y2="305.642"/><line x1="275.707" y1="301.85" x2="279.499" y2="305.642"/><line x1="275.707" y1="305.642" x2="279.499" y2="301.85"/>
<line x1="276.16" y1="309.415" x2="279.952" y2="309.415"/><line x1="278.056" y1="307.519" x2="278.056" y2="311.311"/><line x1="276.16" y1="307.519" x2="279.952" y2="311.311"/><line x1="276.16" y1="311.311" x2="279.952" y2="307.519"/>
<line x1="276.612" y1="314.39" x2="280.404" y2="314.39"/><line x1="278.508" y1="312.494" x2="278.508" y2="316.286"/><line x1="276.612" y1="312.494" x2="280.404" y2="316.286"/><line x1="276.612" y1="316.286" x2="280.404" y2="312.494"/>
<line x1="277.065" y1="324.789" x2="280.857" y2="324.789"/><line x1="278.961" y1="322.893" x2="278.961" y2="326.685"/><line x1="277.065" y1="322.893" x2="280.857" y2="326.685"/><line x1="277.065" y1="326.685" x2="280.857" y2="322.893"/>
<line x1="277.518" y1="326.362" x2="281.31" y2="326.362"/><line x1="279.414" y1="324.466" x2="279.414" y2="328.258"/><line x1="277.518" y1="324.466" x2="281.31" y2="328.258"/><line x1="277.518" y1="328.258" x2="281.31" y2="324.466"/>
<line x1="277.97" y1="336.855" x2="281.762" y2="336.855"/><line x1="279.866" y1="334.959" x2="279.866" y2="338.751"/><line x1="277.97" y1="334.959" x2="281.762" y2="338.751"/><line x1="277.97" y1="338.751" x2="281.762" y2="334.959"/>
<line x1="278.423" y1="333.759" x2="282.215" y2="333.759"/><line x1="280.319" y1="331.863" x2="280.319" y2="335.656"/><line x1="278.423" y1="331.863" x2="282.215" y2="335.656"/><line x1="278.423" y1="335.656" x2="282.215" y2="331.863"/>
<line x1="278.876" y1="338.574" x2="282.668" y2="338.574"/><line x1="280.772" y1="336.678" x2="280.772" y2="340.47"/><line x1="278.876" y1="336.678" x2="282.668" y2="340.47"/><line x1="278.876" y1="340.47" x2="282.668" y2="336.678"/>
<line x1="279.328" y1="343.238" x2="283.121" y2="343.238"/><line x1="281.224" y1="341.341" x2="281.224" y2="345.134"/><line x1="279.328" y1="341.341" x2="283.121" y2="345.134"/><line x1="279.328" y1="345.134" x2="283.121" y2="341.341"/>
<line x1="279.781" y1="355.644" x2="283.573" y2="355.644"/><line x1="281.677" y1="353.748" x2="281.677" y2="357.54"/><line x1="279.781" y1="353.748" x2="283.573" y2="357.54"/><line x1="279.781" y1="357.54" x2="283.573" y2="353.748"/>
<line x1="280.234" y1="352.182" x2="284.026" y2="352.182"/><line x1="282.13" y1="350.286" x2="282.13" y2="354.079"/><line x1="280.234" y1="350.286" x2="284.026" y2="354.079"/><line x1="280.234" y1="354.079" x2="284.026" y2="350.286"/>
<line x1="280.686" y1="345.316" x2="284.479" y2="345.316"/><line x1="282.582" y1="343.419" x2="282.582" y2="347.212"/><line x1="280.686" y1="343.419" x2="284.479" y2="347.212"/><line x1="280.686" y1="347.212" x2="284.479" y2="343.419"/>
<line x1="281.139" y1="352.547" x2="284.931" y2="352.547"/><line x1="283.035" y1="350.651" x2="283.035" y2="354.443"/><line x1="281.139" y1="350.651" x2="284.931" y2="354.443"/><line x1="281.139" y1="354.443" x2="284.931" y2="350.651"/>
<line x1="281.592" y1="350.988" x2="285.384" y2="350.988"/><line x1="283.488" y1="349.092" x2="283.488" y2="352.884"/><line x1="281.592" y1="349.092" x2="285.384" y2="352.884"/><line x1="281.592" y1="352.884" x2="285.384" y2="349.092"/>
<line x1="282.044" y1="356.265" x2="285.837" y2="356.265"/><line x1="283.941" y1="354.369" x2="283.941" y2="358.161"/><line x1="282.044" y1="354.369" x2="285.837" y2="358.161"/><line x1="282.044" y1="358.161" x2="285.837" y2="354.369"/>
<line x1="282.497" y1="353.573" x2="286.289" y2="353.573"/><line x1="284.393" y1="351.677" x2="284.393" y2="355.469"/><line x1="282.497" y1="351.677" x2="286.289" y2="355.469"/><line x1="282.497" y1="355.469" x2="286.289" y2="351.677"/>
<line x1="282.95" y1="349.643" x2="286.742" y2="349.643"/><line x1="284.846" y1="347.747" x2="284.846" y2="351.539"/><line x1="282.95" y1="347.747" x2="286.742" y2="351.539"/><line x1="282.95" y1="351.539" x2="286.742" y2="347.747"/>
<line x1="283.403" y1="345.496" x2="287.195" y2="345.496"/><line x1="285.299" y1="343.6" x2="285.299" y2="347.392"/><line x1="283.403" y1="343.6" x2="287.195" y2="347.392"/><line x1="283.403" y1="347.392" x2="287.195" y2="343.6"/>
<line x1="283.855" y1="336.82" x2="287.647" y2="336.82"/><line x1="285.751" y1="334.924" x2="285.751" y2="338.716"/><line x1="283.855" y1="334.924" x2="287.647" y2="338.716"/><line x1="283.855" y1="338.716" x2="287.647" y2="334.924"/>
<line x1="284.308" y1="330.281" x2="288.1" y2="330.281"/><line x1="286.204" y1="328.385" x2="286.204" y2="332.177"/><line x1="284.308" y1="328.385" x2="288.1" y2="332.177"/><line x1="284.308" y1="332.177" x2="288.1" y2="328.385"/>
<line x1="284.761" y1="338.113" x2="288.553" y2="338.113"/><line x1="286.657" y1="336.217" x2="286.657" y2="340.009"/><line x1="284.761" y1="336.217" x2="288.553" y2="340.009"/><line x1="284.761" y1="340.009" x2="288.553" y2="336.217"/>
<line x1="285.213" y1="333.309" x2="289.005" y2="333.309"/><line x1="287.109" y1="331.413" x2="287.109" y2="335.205"/><line x1="285.213" y1="331.413" x2="289.005" y2="335.205"/><line x1="285.213" y1="335.205" x2="289.005" y2="331.413"/>
<line x1="285.666" y1="320.44" x2="289.458" y2="320.44"/><line x1="287.562" y1="318.544" x2="287.562" y2="322.336"/><line x1="285.666" y1="318.544" x2="289.458" y2="322.336"/><line x1="285.666" y1="322.336" x2="289.458" y2="318.544"/>
<line x1="286.119" y1="323.325" x2="289.911" y2="323.325"/><line x1="288.015" y1="321.429" x2="288.015" y2="325.221"/><line x1="286.119" y1="321.429" x2="289.911" y2="325.221"/><line x1="286.119" y1="325.221" x2="289.911" y2="321.429"/>
<line x1="286.571" y1="317.001" x2="290.363" y2="317.001"/><line x1="288.467" y1="315.105" x2="288.467" y2="318.898"/><line x1="286.571" y1="315.105" x2="290.363" y2="318.898"/><line x1="286.571" y1="318.898" x2="290.363" y2="315.105"/>
<line x1="287.024" y1="316.334" x2="290.816" y2="316.334"/><line x1="288.92" y1="314.438" x2="288.92" y2="318.23"/><line x1="287.024" y1="314.438" x2="290.816" y2="318.23"/><line x1="287.024" y1="318.23" x2="290.816" y2="314.438"/>
<line x1="287.477" y1="314.694" x2="291.269" y2="314.694"/><line x1="289.373" y1="312.798" x2="289.373" y2="316.59"/><line x1="287.477" y1="312.798" x2="291.269" y2="316.59"/><line x1="287.477" y1="316.59" x2="291.269" y2="312.798"/>
<line x1="287.929" y1="317.246" x2="291.722" y2="317.246"/><line x1="289.825" y1="315.35" x2="289.825" y2="319.143"/><line x1="287.929" y1="315.35" x2="291.722" y2="319.143"/><line x1="287.929" y1="319.143" x2="291.722" y2="315.35"/>
<line x1="288.382" y1="312.346" x2="292.174" y2="312.346"/><line x1="290.278" y1="310.45" x2="290.278" y2="314.243"/><line x1="288.382" y1="310.45" x2="292.174" y2="314.243"/><line x1="288.382" y1="314.243" x2="292.174" y2="310.45"/>
<line x1="288.835" y1="304.751" x2="292.627" y2="304.751"/><line x1="290.731" y1="302.855" x2="290.731" y2="306.647"/><line x1="288.835" y1="302.855" x2="292.627" y2="306.647"/><line x1="288.835" y1="306.647" x2="292.627" y2="302.855"/>
<line x1="289.287" y1="300.367" x2="293.08" y2="300.367"/><line x1="291.183" y1="298.471" x2="291.183" y2="302.263"/><line x1="289.287" y1="298.471" x2="293.08" y2="302.263"/><line x1="289.287" y1="302.263" x2="293.08" y2="298.471"/>
<line x1="289.74" y1="302.222" x2="293.532" y2="302.222"/><line x1="291.636" y1="300.326" x2="291.636" y2="304.119"/><line x1="289.74" y1="300.326" x2="293.532" y2="304.119"/><line x1="289.74" y1="304.119" x2="293.532" y2="300.326"/>
<line x1="290.193" y1="314.382" x2="293.985" y2="314.382"/><line x1="292.089" y1="312.486" x2="292.089" y2="316.278"/><line x1="290.193" y1="312.486" x2="293.985" y2="316.278"/><line x1="290.193" y1="316.278" x2="293.985" y2="312.486"/>
<line x1="290.645" y1="310.552" x2="294.438" y2="310.552"/><line x1="292.542" y1="308.656" x2="292.542" y2="312.448"/><line x1="290.645" y1="308.656" x2="294.438" y2="312.448"/><line x1="290.645" y1="312.448" x2="294.438" y2="308.656"/>
<line x1="291.098" y1="307.484" x2="294.89" y2="307.484"/><line x1="292.994" y1="305.588" x2="292.994" y2="309.38"/><line x1="291.098" y1="305.588" x2="294.89" y2="309.38"/><line x1="291.098" y1="309.38" x2="294.89" y2="305.588"/>
<line x1="291.551" y1="313.975" x2="295.343" y2="313.975"/><line x1="293.447" y1="312.079" x2="293.447" y2="315.871"/><line x1="291.551" y1="312.079" x2="295.343" y2="315.871"/><line x1="291.551" y1="315.871" x2="295.343" y2="312.079"/>
<line x1="292.004" y1="319.169" x2="295.796" y2="319.169"/><line x1="293.9" y1="317.273" x2="293.9" y2="321.065"/><line x1="292.004" y1="317.273" x2="295.796" y2="321.065"/><line x1="292.004" y1="321.065" x2="295.796" y2="317.273"/>
<line x1="292.456" y1="315.787" x2="296.248" y2="315.787"/><line x1="294.352" y1="313.891" x2="294.352" y2="317.683"/><line x1="292.456" y1="313.891" x2="296.248" y2="317.683"/><line x1="292.456" y1="317.683" x2="296.248" y2="313.891"/>
<line x1="292.909" y1="311.906" x2="296.701" y2="311.906"/><line x1="294.805" y1="310.009" x2="294.805" y2="313.802"/><line x1="292.909" y1="310.009" x2="296.701" y2="313.802"/><line x1="292.909" y1="313.802" x2="296.701" y2="310.009"/>
<line x1="293.362" y1="309.142" x2="297.154" y2="309.142"/><line x1="295.258" y1="307.246" x2="295.258" y2="311.038"/><line x1="293.362" y1="307.246" x2="297.154" y2="311.038"/><line x1="293.362" y1="311.038" x2="297.154" y2="307.246"/>
<line x1="293.814" y1="310.487" x2="297.606" y2="310.487"/><line x1="295.71" y1="308.591" x2="295.71" y2="312.383"/><line x1="293.814" y1="308.591" x2="297.606" y2="312.383"/><line x1="293.814" y1="312.383" x2="297.606" y2="308.591"/>
<line x1="294.267" y1="310.355" x2="298.059" y2="310.355"/><line x1="296.163" y1="308.459" x2="296.163" y2="312.251"/><line x1="294.267" y1="308.459" x2="298.059" y2="312.251"/><line x1="294.267" y1="312.251" x2="298.059" y2="308.459"/>
<line x1="294.72" y1="315.251" x2="298.512" y2="315.251"/><line x1="296.616" y1="313.355" x2="296.616" y2="317.147"/><line x1="294.72" y1="313.355" x2="298.512" y2="317.147"/><line x1="294.72" y1="317.147" x2="298.512" y2="313.355"/>
<line x1="295.172" y1="320.428" x2="298.964" y2="320.428"/><line x1="297.068" y1="318.532" x2="297.068" y2="322.325"/><line x1="295.172" y1="318.532" x2="298.964" y2="322.325"/><line x1="295.172" y1="322.325" x2="298.964" y2="318.532"/>
<line x1="295.625" y1="311.77" x2="299.417" y2="311.77"/><line x1="297.521" y1="309.874" x2="297.521" y2="313.667"/><line x1="295.625" y1="309.874" x2="299.417" y2="313.667"/><line x1="295.625" y1="313.667" x2="299.417" y2="309.874"/>
<line x1="296.078" y1="310.51" x2="299.87" y2="310.51"/><line x1="297.974" y1="308.614" x2="297.974" y2="312.406"/><line x1="296.078" y1="308.614" x2="299.87" y2="312.406"/><line x1="296.078" y1="312.406" x2="299.87" y2="308.614"/>
<line x1="296.53" y1="306.065" x2="300.323" y2="306.065"/><line x1="298.426" y1="304.169" x2="298.426" y2="307.961"/><line x1="296.53" y1="304.169" x2="300.323" y2="307.961"/><line x1="296.53" y1="307.961" x2="300.323" y2="304.169"/>
<line x1="296.983" y1="308.226" x2="300.775" y2="308.226"/><line x1="298.879" y1="306.33" x2="298.879" y2="310.122"/><line x1="296.983" y1="306.33" x2="300.775" y2="310.122"/><line x1="296.983" y1="310.122" x2="300.775" y2="306.33"/>
<line x1="297.436" y1="307.345" x2="301.228" y2="307.345"/><line x1="299.332" y1="305.449" x2="299.332" y2="309.242"/><line x1="297.436" y1="305.449" x2="301.228" y2="309.242"/><line x1="297.436" y1="309.242" x2="301.228" y2="305.449"/>
<line x1="297.888" y1="313.155" x2="301.681" y2="313.155"/><line x1="299.784" y1="311.259" x2="299.784" y2="315.052"/><line x1="297.888" y1="311.259" x2="301.681" y2="315.052"/><line x1="297.888" y1="315.052" x2="301.681" y2="311.259"/>
<line x1="298.341" y1="313.497" x2="302.133" y2="313.497"/><line x1="300.237" y1="311.601" x2="300.237" y2="315.393"/><line x1="298.341" y1="311.601" x2="302.133" y2="315.393"/><line x1="298.341" y1="315.393" x2="302.133" y2="311.601"/>
<line x1="298.794" y1="319.676" x2="302.586" y2="319.676"/><line x1="300.69" y1="317.78" x2="300.69" y2="321.572"/><line x1="298.794" y1="317.78" x2="302.586" y2="321.572"/><line x1="298.794" y1="321.572" x2="302.586" y2="317.78"/>
<line x1="299.246" y1="321.62" x2="303.039" y2="321.62"/><line x1="301.143" y1="319.724" x2="301.143" y2="323.517"/><line x1="299.246" y1="319.724" x2="303.039" y2="323.517"/><line x1="299.246" y1="323.517" x2="303.039" y2="319.724"/>
<line x1="299.699" y1="307.389" x2="303.491" y2="307.389"/><line x1="301.595" y1="305.493" x2="301.595" y2="309.285"/><line x1="299.699" y1="305.493" x2="303.491" y2="309.285"/><line x1="299.699" y1="309.285" x2="303.491" y2="305.493"/>
<line x1="300.152" y1="307.558" x2="303.944" y2="307.558"/><line x1="302.048" y1="305.662" x2="302.048" y2="309.454"/><line x1="300.152" y1="305.662" x2="303.944" y2="309.454"/><line x1="300.152" y1="309.454" x2="303.944" y2="305.662"/>
<line x1="300.604" y1="301.899" x2="304.397" y2="301.899"/><line x1="302.501" y1="300.003" x2="302.501" y2="303.795"/><line x1="300.604" y1="300.003" x2="304.397" y2="303.795"/><line x1="300.604" y1="303.795" x2="304.397" y2="300.003"/>
<line x1="301.057" y1="308.314" x2="304.849" y2="308.314"/><line x1="302.953" y1="306.417" x2="302.953" y2="310.21"/><line x1="301.057" y1="306.417" x2="304.849" y2="310.21"/><line x1="301.057" y1="310.21" x2="304.849" y2="306.417"/>
<line x1="301.51" y1="304.43" x2="305.302" y2="304.43"/><line x1="303.406" y1="302.534" x2="303.406" y2="306.326"/><line x1="301.51" y1="302.534" x2="305.302" y2="306.326"/><line x1="301.51" y1="306.326" x2="305.302" y2="302.534"/>
<line x1="301.963" y1="307.256" x2="305.755" y2="307.256"/><line x1="303.859" y1="305.36" x2="303.859" y2="309.152"/><line x1="301.963" y1="305.36" x2="305.755" y2="309.152"/><line x1="301.963" y1="309.152" x2="305.755" y2="305.36"/>
<line x1="302.415" y1="313.925" x2="306.207" y2="313.925"/><line x1="304.311" y1="312.029" x2="304.311" y2="315.821"/><line x1="302.415" y1="312.029" x2="306.207" y2="315.821"/><line x1="302.415" y1="315.821" x2="306.207" y2="312.029"/>
<line x1="302.868" y1="318.177" x2="306.66" y2="318.177"/><line x1="304.764" y1="316.281" x2="304.764" y2="320.073"/><line x1="302.868" y1="316.281" x2="306.66" y2="320.073"/><line x1="302.868" y1="320.073" x2="306.66" y2="316.281"/>
<line x1="303.321" y1="312.373" x2="307.113" y2="312.373"/><line x1="305.217" y1="310.477" x2="305.217" y2="314.269"/><line x1="303.321" y1="310.477" x2="307.113" y2="314.269"/><line x1="303.321" y1="314.269" x2="307.113" y2="310.477"/>
<line x1="303.773" y1="308.463" x2="307.565" y2="308.463"/><line x1="305.669" y1="306.567" x2="305.669" y2="310.359"/><line x1="303.773" y1="306.567" x2="307.565" y2="310.359"/><line x1="303.773" y1="310.359" x2="307.565" y2="306.567"/>
<line x1="304.226" y1="308.456" x2="308.018" y2="308.456"/><line x1="306.122" y1="306.56" x2="306.122" y2="310.352"/><line x1="304.226" y1="306.56" x2="308.018" y2="310.352"/><line x1="304.226" y1="310.352" x2="308.018" y2="306.56"/>
<line x1="304.679" y1="307.295" x2="308.471" y2="307.295"/><line x1="306.575" y1="305.399" x2="306.575" y2="309.191"/><line x1="304.679" y1="305.399" x2="308.471" y2="309.191"/><line x1="304.679" y1="309.191" x2="308.471" y2="305.399"/>
<line x1="305.131" y1="309.098" x2="308.923" y2="309.098"/><line x1="307.027" y1="307.202" x2="307.027" y2="310.994"/><line x1="305.131" y1="307.202" x2="308.923" y2="310.994"/><line x1="305.131" y1="310.994" x2="308.923" y2="307.202"/>
<line x1="305.584" y1="294.004" x2="309.376" y2="294.004"/><line x1="307.48" y1="292.108" x2="307.48" y2="295.9"/><line x1="305.584" y1="292.108" x2="309.376" y2="295.9"/><line x1="305.584" y1="295.9" x2="309.376" y2="292.108"/>
<line x1="306.037" y1="298.907" x2="309.829" y2="298.907"/><line x1="307.933" y1="297.011" x2="307.933" y2="300.803"/><line x1="306.037" y1="297.011" x2="309.829" y2="300.803"/><line x1="306.037" y1="300.803" x2="309.829" y2="297.011"/>
<line x1="306.489" y1="299.753" x2="310.282" y2="299.753"/><line x1="308.385" y1="297.857" x2="308.385" y2="301.65"/><line x1="306.489" y1="297.857" x2="310.282" y2="301.65"/><line x1="306.489" y1="301.65" x2="310.282" y2="297.857"/>
<line x1="306.942" y1="291.043" x2="310.734" y2="291.043"/><line x1="308.838" y1="289.147" x2="308.838" y2="292.939"/><line x1="306.942" y1="289.147" x2="310.734" y2="292.939"/><line x1="306.942" y1="292.939" x2="310.734" y2="289.147"/>
<line x1="307.395" y1="298.457" x2="311.187" y2="298.457"/><line x1="309.291" y1="296.561" x2="309.291" y2="300.353"/><line x1="307.395" y1="296.561" x2="311.187" y2="300.353"/><line x1="307.395" y1="300.353" x2="311.187" y2="296.561"/>
<line x1="307.847" y1="299.845" x2="311.64" y2="299.845"/><line x1="309.743" y1="297.949" x2="309.743" y2="301.742"/><line x1="307.847" y1="297.949" x2="311.64" y2="301.742"/><line x1="307.847" y1="301.742" x2="311.64" y2="297.949"/>
<line x1="308.3" y1="289.926" x2="312.092" y2="289.926"/><line x1="310.196" y1="288.03" x2="310.196" y2="291.822"/><line x1="308.3" y1="288.03" x2="312.092" y2="291.822"/><line x1="308.3" y1="291.822" x2="312.092" y2="288.03"/>
<line x1="308.753" y1="287.171" x2="312.545" y2="287.171"/><line x1="310.649" y1="285.275" x2="310.649" y2="289.068"/><line x1="308.753" y1="285.275" x2="312.545" y2="289.068"/><line x1="308.753" y1="289.068" x2="312.545" y2="285.275"/>
<line x1="309.205" y1="293.104" x2="312.998" y2="293.104"/><line x1="311.102" y1="291.208" x2="311.102" y2="295"/><line x1="309.205" y1="291.208" x2="312.998" y2="295"/><line x1="309.205" y1="295" x2="312.998" y2="291.208"/>
<line x1="309.658" y1="293.869" x2="313.45" y2="293.869"/><line x1="311.554" y1="291.973" x2="311.554" y2="295.766"/><line x1="309.658" y1="291.973" x2="313.45" y2="295.766"/><line x1="309.658" y1="295.766" x2="313.45" y2="291.973"/>
<line x1="310.111" y1="289.422" x2="313.903" y2="289.422"/><line x1="312.007" y1="287.526" x2="312.007" y2="291.318"/><line x1="310.111" y1="287.526" x2="313.903" y2="291.318"/><line x1="310.111" y1="291.318" x2="313.903" y2="287.526"/>
<line x1="310.564" y1="294.807" x2="314.356" y2="294.807"/><line x1="312.46" y1="292.911" x2="312.46" y2="296.703"/><line x1="310.564" y1="292.911" x2="314.356" y2="296.703"/><line x1="310.564" y1="296.703" x2="314.356" y2="292.911"/>
<line x1="311.016" y1="296.536" x2="314.808" y2="296.536"/><line x1="312.912" y1="294.64" x2="312.912" y2="298.432"/><line x1="311.016" y1="294.64" x2="314.808" y2="298.432"/><line x1="311.016" y1="298.432" x2="314.808" y2="294.64"/>
<line x1="311.469" y1="293.644" x2="315.261" y2="293.644"/><line x1="313.365" y1="291.748" x2="313.365" y2="295.54"/><line x1="311.469" y1="291.748" x2="315.261" y2="295.54"/><line x1="311.469" y1="295.54" x2="315.261" y2="291.748"/>
<line x1="311.922" y1="294.038" x2="315.714" y2="294.038"/><line x1="313.818" y1="292.142" x2="313.818" y2="295.934"/><line x1="311.922" y1="292.142" x2="315.714" y2="295.934"/><line x1="311.922" y1="295.934" x2="315.714" y2="292.142"/>
<line x1="312.374" y1="288.209" x2="316.166" y2="288.209"/><line x1="314.27" y1="286.313" x2="314.27" y2="290.105"/><line x1="312.374" y1="286.313" x2="316.166" y2="290.105"/><line x1="312.374" y1="290.105" x2="316.166" y2="286.313"/>
<line x1="312.827" y1="282.415" x2="316.619" y2="282.415"/><line x1="314.723" y1="280.519" x2="314.723" y2="284.311"/><line x1="312.827" y1="280.519" x2="316.619" y2="284.311"/><line x1="312.827" y1="284.311" x2="316.619" y2="280.519"/>
<line x1="313.28" y1="295.625" x2="317.072" y2="295.625"/><line x1="315.176" y1="293.729" x2="315.176" y2="297.521"/><line x1="313.28" y1="293.729" x2="317.072" y2="297.521"/><line x1="313.28" y1="297.521" x2="317.072" y2="293.729"/>
<line x1="313.732" y1="300.469" x2="317.524" y2="300.469"/><line x1="315.628" y1="298.573" x2="315.628" y2="302.365"/><line x1="313.732" y1="298.573" x2="317.524" y2="302.365"/><line x1="313.732" y1="302.365" x2="317.524" y2="298.573"/>
<line x1="314.185" y1="296.192" x2="317.977" y2="296.192"/><line x1="316.081" y1="294.296" x2="316.081" y2="298.088"/><line x1="314.185" y1="294.296" x2="317.977" y2="298.088"/><line x1="314.185" y1="298.088" x2="317.977" y2="294.296"/>
<line x1="314.638" y1="294.253" x2="318.43" y2="294.253"/><line x1="316.534" y1="292.357" x2="316.534" y2="296.149"/><line x1="314.638" y1="292.357" x2="318.43" y2="296.149"/><line x1="314.638" y1="296.149" x2="318.43" y2="292.357"/>
<line x1="315.09" y1="297.615" x2="318.883" y2="297.615"/><line x1="316.986" y1="295.719" x2="316.986" y2="299.511"/><line x1="315.09" y1="295.719" x2="318.883" y2="299.511"/><line x1="315.09" y1="299.511" x2="318.883" y2="295.719"/>
<line x1="315.543" y1="300.003" x2="319.335" y2="300.003"/><line x1="317.439" y1="298.107" x2="317.439" y2="301.899"/><line x1="315.543" y1="298.107" x2="319.335" y2="301.899"/><line x1="315.543" y1="301.899" x2="319.335" y2="298.107"/>
<line x1="315.996" y1="301.142" x2="319.788" y2="301.142"/><line x1="317.892" y1="299.246" x2="317.892" y2="303.039"/><line x1="315.996" y1="299.246" x2="319.788" y2="303.039"/><line x1="315.996" y1="303.039" x2="319.788" y2="299.246"/>
<line x1="316.448" y1="298.956" x2="320.241" y2="298.956"/><line x1="318.344" y1="297.06" x2="318.344" y2="300.852"/><line x1="316.448" y1="297.06" x2="320.241" y2="300.852"/><line x1="316.448" y1="300.852" x2="320.241" y2="297.06"/>
<line x1="316.901" y1="287.036" x2="320.693" y2="287.036"/><line x1="318.797" y1="285.14" x2="318.797" y2="288.932"/><line x1="316.901" y1="285.14" x2="320.693" y2="288.932"/><line x1="316.901" y1="288.932" x2="320.693" y2="285.14"/>
<line x1="317.354" y1="286.179" x2="321.146" y2="286.179"/><line x1="319.25" y1="284.282" x2="319.25" y2="288.075"/><line x1="317.354" y1="284.282" x2="321.146" y2="288.075"/><line x1="317.354" y1="288.075" x2="321.146" y2="284.282"/>
<line x1="317.806" y1="289.734" x2="321.599" y2="289.734"/><line x1="319.703" y1="287.838" x2="319.703" y2="291.63"/><line x1="317.806" y1="287.838" x2="321.599" y2="291.63"/><line x1="317.806" y1="291.63" x2="321.599" y2="287.838"/>
<line x1="318.259" y1="287.79" x2="322.051" y2="287.79"/><line x1="320.155" y1="285.894" x2="320.155" y2="289.687"/><line x1="318.259" y1="285.894" x2="322.051" y2="289.687"/><line x1="318.259" y1="289.687" x2="322.051" y2="285.894"/>
<line x1="318.712" y1="264.362" x2="322.504" y2="264.362"/><line x1="320.608" y1="262.466" x2="320.608" y2="266.258"/><line x1="318.712" y1="262.466" x2="322.504" y2="266.258"/><line x1="318.712" y1="266.258" x2="322.504" y2="262.466"/>
<line x1="319.164" y1="264.304" x2="322.957" y2="264.304"/><line x1="321.061" y1="262.408" x2="321.061" y2="266.2"/><line x1="319.164" y1="262.408" x2="322.957" y2="266.2"/><line x1="319.164" y1="266.2" x2="322.957" y2="262.408"/>
<line x1="319.617" y1="255.091" x2="323.409" y2="255.091"/><line x1="321.513" y1="253.195" x2="321.513" y2="256.987"/><line x1="319.617" y1="253.195" x2="323.409" y2="256.987"/><line x1="319.617" y1="256.987" x2="323.409" y2="253.195"/>
<line x1="320.07" y1="255.224" x2="323.862" y2="255.224"/><line x1="321.966" y1="253.328" x2="321.966" y2="257.12"/><line x1="320.07" y1="253.328" x2="323.862" y2="257.12"/><line x1="320.07" y1="257.12" x2="323.862" y2="253.328"/>
<line x1="320.523" y1="259.571" x2="324.315" y2="259.571"/><line x1="322.419" y1="257.675" x2="322.419" y2="261.467"/><line x1="320.523" y1="257.675" x2="324.315" y2="261.467"/><line x1="320.523" y1="261.467" x2="324.315" y2="257.675"/>
<line x1="320.975" y1="271.087" x2="324.767" y2="271.087"/><line x1="322.871" y1="269.191" x2="322.871" y2="272.983"/><line x1="320.975" y1="269.191" x2="324.767" y2="272.983"/><line x1="320.975" y1="272.983" x2="324.767" y2="269.191"/>
<line x1="321.428" y1="275.332" x2="325.22" y2="275.332"/><line x1="323.324" y1="273.436" x2="323.324" y2="277.228"/><line x1="321.428" y1="273.436" x2="325.22" y2="277.228"/><line x1="321.428" y1="277.228" x2="325.22" y2="273.436"/>
<line x1="321.881" y1="268.375" x2="325.673" y2="268.375"/><line x1="323.777" y1="266.479" x2="323.777" y2="270.271"/><line x1="321.881" y1="266.479" x2="325.673" y2="270.271"/><line x1="321.881" y1="270.271" x2="325.673" y2="266.479"/>
<line x1="322.333" y1="268.852" x2="326.125" y2="268.852"/><line x1="324.229" y1="266.956" x2="324.229" y2="270.749"/><line x1="322.333" y1="266.956" x2="326.125" y2="270.749"/><line x1="322.333" y1="270.749" x2="326.125" y2="266.956"/>
<line x1="322.786" y1="264.978" x2="326.578" y2="264.978"/><line x1="324.682" y1="263.082" x2="324.682" y2="266.875"/><line x1="322.786" y1="263.082" x2="326.578" y2="266.875"/><line x1="322.786" y1="266.875" x2="326.578" y2="263.082"/>
<line x1="323.239" y1="264.139" x2="327.031" y2="264.139"/><line x1="325.135" y1="262.243" x2="325.135" y2="266.035"/><line x1="323.239" y1="262.243" x2="327.031" y2="266.035"/><line x1="323.239" y1="266.035" x2="327.031" y2="262.243"/>
<line x1="323.691" y1="256.822" x2="327.483" y2="256.822"/><line x1="325.587" y1="254.926" x2="325.587" y2="258.718"/><line x1="323.691" y1="254.926" x2="327.483" y2="258.718"/><line x1="323.691" y1="258.718" x2="327.483" y2="254.926"/>
<line x1="324.144" y1="260.107" x2="327.936" y2="260.107"/><line x1="326.04" y1="258.211" x2="326.04" y2="262.003"/><line x1="324.144" y1="258.211" x2="327.936" y2="262.003"/><line x1="324.144" y1="262.003" x2="327.936" y2="258.211"/>
<line x1="324.597" y1="247.453" x2="328.389" y2="247.453"/><line x1="326.493" y1="245.556" x2="326.493" y2="249.349"/><line x1="324.597" y1="245.556" x2="328.389" y2="249.349"/><line x1="324.597" y1="249.349" x2="328.389" y2="245.556"/>
<line x1="325.049" y1="244.67" x2="328.842" y2="244.67"/><line x1="326.945" y1="242.774" x2="326.945" y2="246.566"/><line x1="325.049" y1="242.774" x2="328.842" y2="246.566"/><line x1="325.049" y1="246.566" x2="328.842" y2="242.774"/>
<line x1="325.502" y1="242.567" x2="329.294" y2="242.567"/><line x1="327.398" y1="240.67" x2="327.398" y2="244.463"/><line x1="325.502" y1="240.67" x2="329.294" y2="244.463"/><line x1="325.502" y1="244.463" x2="329.294" y2="240.67"/>
<line x1="325.955" y1="236.569" x2="329.747" y2="236.569"/><line x1="327.851" y1="234.673" x2="327.851" y2="238.465"/><line x1="325.955" y1="234.673" x2="329.747" y2="238.465"/><line x1="325.955" y1="238.465" x2="329.747" y2="234.673"/>
<line x1="326.407" y1="234.094" x2="330.2" y2="234.094"/><line x1="328.303" y1="232.198" x2="328.303" y2="235.99"/><line x1="326.407" y1="232.198" x2="330.2" y2="235.99"/><line x1="326.407" y1="235.99" x2="330.2" y2="232.198"/>
<line x1="326.86" y1="222.411" x2="330.652" y2="222.411"/><line x1="328.756" y1="220.515" x2="328.756" y2="224.307"/><line x1="326.86" y1="220.515" x2="330.652" y2="224.307"/><line x1="326.86" y1="224.307" x2="330.652" y2="220.515"/>
<line x1="327.313" y1="226.198" x2="331.105" y2="226.198"/><line x1="329.209" y1="224.302" x2="329.209" y2="228.094"/><line x1="327.313" y1="224.302" x2="331.105" y2="228.094"/><line x1="327.313" y1="228.094" x2="331.105" y2="224.302"/>
<line x1="327.765" y1="230.981" x2="331.558" y2="230.981"/><line x1="329.662" y1="229.084" x2="329.662" y2="232.877"/><line x1="327.765" y1="229.084" x2="331.558" y2="232.877"/><line x1="327.765" y1="232.877" x2="331.558" y2="229.084"/>
<line x1="328.218" y1="230.626" x2="332.01" y2="230.626"/><line x1="330.114" y1="228.73" x2="330.114" y2="232.522"/><line x1="328.218" y1="228.73" x2="332.01" y2="232.522"/><line x1="328.218" y1="232.522" x2="332.01" y2="228.73"/>
<line x1="328.671" y1="217.77" x2="332.463" y2="217.77"/><line x1="330.567" y1="215.874" x2="330.567" y2="219.666"/><line x1="328.671" y1="215.874" x2="332.463" y2="219.666"/><line x1="328.671" y1="219.666" x2="332.463" y2="215.874"/>
<line x1="329.124" y1="214.897" x2="332.916" y2="214.897"/><line x1="331.02" y1="213.001" x2="331.02" y2="216.794"/><line x1="329.124" y1="213.001" x2="332.916" y2="216.794"/><line x1="329.124" y1="216.794" x2="332.916" y2="213.001"/>
<line x1="329.576" y1="211.622" x2="333.368" y2="211.622"/><line x1="331.472" y1="209.726" x2="331.472" y2="213.518"/><line x1="329.576" y1="209.726" x2="333.368" y2="213.518"/><line x1="329.576" y1="213.518" x2="333.368" y2="209.726"/>
<line x1="330.029" y1="221.151" x2="333.821" y2="221.151"/><line x1="331.925" y1="219.255" x2="331.925" y2="223.047"/><line x1="330.029" y1="219.255" x2="333.821" y2="223.047"/><line x1="330.029" y1="223.047" x2="333.821" y2="219.255"/>
<line x1="330.482" y1="222.888" x2="334.274" y2="222.888"/><line x1="332.378" y1="220.992" x2="332.378" y2="224.784"/><line x1="330.482" y1="220.992" x2="334.274" y2="224.784"/><line x1="330.482" y1="224.784" x2="334.274" y2="220.992"/>
<line x1="330.934" y1="222.152" x2="334.726" y2="222.152"/><line x1="332.83" y1="220.256" x2="332.83" y2="224.048"/><line x1="330.934" y1="220.256" x2="334.726" y2="224.048"/><line x1="330.934" y1="224.048" x2="334.726" y2="220.256"/>
<line x1="331.387" y1="218.714" x2="335.179" y2="218.714"/><line x1="333.283" y1="216.818" x2="333.283" y2="220.61"/><line x1="331.387" y1="216.818" x2="335.179" y2="220.61"/><line x1="331.387" y1="220.61" x2="335.179" y2="216.818"/>
<line x1="331.84" y1="219.252" x2="335.632" y2="219.252"/><line x1="333.736" y1="217.356" x2="333.736" y2="221.148"/><line x1="331.84" y1="217.356" x2="335.632" y2="221.148"/><line x1="331.84" y1="221.148" x2="335.632" y2="217.356"/>
<line x1="332.292" y1="227.83" x2="336.084" y2="227.83"/><line x1="334.188" y1="225.934" x2="334.188" y2="229.726"/><line x1="332.292" y1="225.934" x2="336.084" y2="229.726"/><line x1="332.292" y1="229.726" x2="336.084" y2="225.934"/>
<line x1="332.745" y1="226.323" x2="336.537" y2="226.323"/><line x1="334.641" y1="224.427" x2="334.641" y2="228.219"/><line x1="332.745" y1="224.427" x2="336.537" y2="228.219"/><line x1="332.745" y1="228.219" x2="336.537" y2="224.427"/>
<line x1="333.198" y1="217.835" x2="336.99" y2="217.835"/><line x1="335.094" y1="215.938" x2="335.094" y2="219.731"/><line x1="333.198" y1="215.938" x2="336.99" y2="219.731"/><line x1="333.198" y1="219.731" x2="336.99" y2="215.938"/>
<line x1="333.65" y1="223.672" x2="337.443" y2="223.672"/><line x1="335.546" y1="221.776" x2="335.546" y2="225.568"/><line x1="333.65" y1="221.776" x2="337.443" y2="225.568"/><line x1="333.65" y1="225.568" x2="337.443" y2="221.776"/>
<line x1="334.103" y1="219.009" x2="337.895" y2="219.009"/><line x1="335.999" y1="217.113" x2="335.999" y2="220.905"/><line x1="334.103" y1="217.113" x2="337.895" y2="220.905"/><line x1="334.103" y1="220.905" x2="337.895" y2="217.113"/>
<line x1="334.556" y1="220.175" x2="338.348" y2="220.175"/><line x1="336.452" y1="218.279" x2="336.452" y2="222.071"/><line x1="334.556" y1="218.279" x2="338.348" y2="222.071"/><line x1="334.556" y1="222.071" x2="338.348" y2="218.279"/>
<line x1="335.008" y1="205.58" x2="338.801" y2="205.58"/><line x1="336.904" y1="203.684" x2="336.904" y2="207.476"/><line x1="335.008" y1="203.684" x2="338.801" y2="207.476"/><line x1="335.008" y1="207.476" x2="338.801" y2="203.684"/>
<line x1="335.461" y1="202.955" x2="339.253" y2="202.955"/><line x1="337.357" y1="201.059" x2="337.357" y2="204.851"/><line x1="335.461" y1="201.059" x2="339.253" y2="204.851"/><line x1="335.461" y1="204.851" x2="339.253" y2="201.059"/>
<line x1="335.914" y1="203.343" x2="339.706" y2="203.343"/><line x1="337.81" y1="201.446" x2="337.81" y2="205.239"/><line x1="335.914" y1="201.446" x2="339.706" y2="205.239"/><line x1="335.914" y1="205.239" x2="339.706" y2="201.446"/>
<line x1="336.366" y1="194.728" x2="340.159" y2="194.728"/><line x1="338.263" y1="192.832" x2="338.263" y2="196.624"/><line x1="336.366" y1="192.832" x2="340.159" y2="196.624"/><line x1="336.366" y1="196.624" x2="340.159" y2="192.832"/>
<line x1="336.819" y1="188.112" x2="340.611" y2="188.112"/><line x1="338.715" y1="186.216" x2="338.715" y2="190.008"/><line x1="336.819" y1="186.216" x2="340.611" y2="190.008"/><line x1="336.819" y1="190.008" x2="340.611" y2="186.216"/>
<line x1="337.272" y1="199.324" x2="341.064" y2="199.324"/><line x1="339.168" y1="197.428" x2="339.168" y2="201.22"/><line x1="337.272" y1="197.428" x2="341.064" y2="201.22"/><line x1="337.272" y1="201.22" x2="341.064" y2="197.428"/>
<line x1="337.725" y1="198.218" x2="341.517" y2="198.218"/><line x1="339.621" y1="196.322" x2="339.621" y2="200.114"/><line x1="337.725" y1="196.322" x2="341.517" y2="200.114"/><line x1="337.725" y1="200.114" x2="341.517" y2="196.322"/>
<line x1="338.177" y1="198.564" x2="341.969" y2="198.564"/><line x1="340.073" y1="196.668" x2="340.073" y2="200.46"/><line x1="338.177" y1="196.668" x2="341.969" y2="200.46"/><line x1="338.177" y1="200.46" x2="341.969" y2="196.668"/>
<line x1="338.63" y1="201.194" x2="342.422" y2="201.194"/><line x1="340.526" y1="199.297" x2="340.526" y2="203.09"/><line x1="338.63" y1="199.297" x2="342.422" y2="203.09"/><line x1="338.63" y1="203.09" x2="342.422" y2="199.297"/>
<line x1="339.083" y1="197.287" x2="342.875" y2="197.287"/><line x1="340.979" y1="195.391" x2="340.979" y2="199.183"/><line x1="339.083" y1="195.391" x2="342.875" y2="199.183"/><line x1="339.083" y1="199.183" x2="342.875" y2="195.391"/>
<line x1="339.535" y1="188.438" x2="343.327" y2="188.438"/><line x1="341.431" y1="186.542" x2="341.431" y2="190.334"/><line x1="339.535" y1="186.542" x2="343.327" y2="190.334"/><line x1="339.535" y1="190.334" x2="343.327" y2="186.542"/>
<line x1="339.988" y1="190.076" x2="343.78" y2="190.076"/><line x1="341.884" y1="188.179" x2="341.884" y2="191.972"/><line x1="339.988" y1="188.179" x2="343.78" y2="191.972"/><line x1="339.988" y1="191.972" x2="343.78" y2="188.179"/>
<line x1="340.441" y1="187.009" x2="344.233" y2="187.009"/><line x1="342.337" y1="185.113" x2="342.337" y2="188.906"/><line x1="340.441" y1="185.113" x2="344.233" y2="188.906"/><line x1="340.441" y1="188.906" x2="344.233" y2="185.113"/>
<line x1="340.893" y1="180.186" x2="344.685" y2="180.186"/><line x1="342.789" y1="178.29" x2="342.789" y2="182.082"/><line x1="340.893" y1="178.29" x2="344.685" y2="182.082"/><line x1="340.893" y1="182.082" x2="344.685" y2="178.29"/>
<line x1="341.346" y1="170.14" x2="345.138" y2="170.14"/><line x1="343.242" y1="168.243" x2="343.242" y2="172.036"/><line x1="341.346" y1="168.243" x2="345.138" y2="172.036"/><line x1="341.346" y1="172.036" x2="345.138" y2="168.243"/>
<line x1="341.799" y1="162.855" x2="345.591" y2="162.855"/><line x1="343.695" y1="160.959" x2="343.695" y2="164.751"/><line x1="341.799" y1="160.959" x2="345.591" y2="164.751"/><line x1="341.799" y1="164.751" x2="345.591" y2="160.959"/>
<line x1="342.251" y1="161.545" x2="346.044" y2="161.545"/><line x1="344.147" y1="159.649" x2="344.147" y2="163.441"/><line x1="342.251" y1="159.649" x2="346.044" y2="163.441"/><line x1="342.251" y1="163.441" x2="346.044" y2="159.649"/>
<line x1="342.704" y1="168.863" x2="346.496" y2="168.863"/><line x1="344.6" y1="166.967" x2="344.6" y2="170.759"/><line x1="342.704" y1="166.967" x2="346.496" y2="170.759"/><line x1="342.704" y1="170.759" x2="346.496" y2="166.967"/>
<line x1="343.157" y1="170.707" x2="346.949" y2="170.707"/><line x1="345.053" y1="168.811" x2="345.053" y2="172.603"/><line x1="343.157" y1="168.811" x2="346.949" y2="172.603"/><line x1="343.157" y1="172.603" x2="346.949" y2="168.811"/>
<line x1="343.609" y1="174.199" x2="347.402" y2="174.199"/><line x1="345.505" y1="172.303" x2="345.505" y2="176.095"/><line x1="343.609" y1="172.303" x2="347.402" y2="176.095"/><line x1="343.609" y1="176.095" x2="347.402" y2="172.303"/>
<line x1="344.062" y1="172.074" x2="347.854" y2="172.074"/><line x1="345.958" y1="170.178" x2="345.958" y2="173.97"/><line x1="344.062" y1="170.178" x2="347.854" y2="173.97"/><line x1="344.062" y1="173.97" x2="347.854" y2="170.178"/>
<line x1="344.515" y1="165.385" x2="348.307" y2="165.385"/><line x1="346.411" y1="163.489" x2="346.411" y2="167.282"/><line x1="344.515" y1="163.489" x2="348.307" y2="167.282"/><line x1="344.515" y1="167.282" x2="348.307" y2="163.489"/>
<line x1="344.967" y1="171.019" x2="348.76" y2="171.019"/><line x1="346.864" y1="169.123" x2="346.864" y2="172.915"/><line x1="344.967" y1="169.123" x2="348.76" y2="172.915"/><line x1="344.967" y1="172.915" x2="348.76" y2="169.123"/>
<line x1="345.42" y1="176.225" x2="349.212" y2="176.225"/><line x1="347.316" y1="174.329" x2="347.316" y2="178.121"/><line x1="345.42" y1="174.329" x2="349.212" y2="178.121"/><line x1="345.42" y1="178.121" x2="349.212" y2="174.329"/>
<line x1="345.873" y1="176.121" x2="349.665" y2="176.121"/><line x1="347.769" y1="174.225" x2="347.769" y2="178.017"/><line x1="345.873" y1="174.225" x2="349.665" y2="178.017"/><line x1="345.873" y1="178.017" x2="349.665" y2="174.225"/>
<line x1="346.326" y1="171.608" x2="350.118" y2="171.608"/><line x1="348.222" y1="169.712" x2="348.222" y2="173.504"/><line x1="346.326" y1="169.712" x2="350.118" y2="173.504"/><line x1="346.326" y1="173.504" x2="350.118" y2="169.712"/>
<line x1="346.778" y1="169.646" x2="350.57" y2="169.646"/><line x1="348.674" y1="167.75" x2="348.674" y2="171.542"/><line x1="346.778" y1="167.75" x2="350.57" y2="171.542"/><line x1="346.778" y1="171.542" x2="350.57" y2="167.75"/>
<line x1="347.231" y1="164.265" x2="351.023" y2="164.265"/><line x1="349.127" y1="162.369" x2="349.127" y2="166.161"/><line x1="347.231" y1="162.369" x2="351.023" y2="166.161"/><line x1="347.231" y1="166.161" x2="351.023" y2="162.369"/>
<line x1="347.684" y1="168.887" x2="351.476" y2="168.887"/><line x1="349.58" y1="166.991" x2="349.58" y2="170.783"/><line x1="347.684" y1="166.991" x2="351.476" y2="170.783"/><line x1="347.684" y1="170.783" x2="351.476" y2="166.991"/>
<line x1="348.136" y1="169.099" x2="351.928" y2="169.099"/><line x1="350.032" y1="167.203" x2="350.032" y2="170.995"/><line x1="348.136" y1="167.203" x2="351.928" y2="170.995"/><line x1="348.136" y1="170.995" x2="351.928" y2="167.203"/>
<line x1="348.589" y1="171.076" x2="352.381" y2="171.076"/><line x1="350.485" y1="169.18" x2="350.485" y2="172.972"/><line x1="348.589" y1="169.18" x2="352.381" y2="172.972"/><line x1="348.589" y1="172.972" x2="352.381" y2="169.18"/>
<line x1="349.042" y1="154.843" x2="352.834" y2="154.843"/><line x1="350.938" y1="152.947" x2="350.938" y2="156.739"/><line x1="349.042" y1="152.947" x2="352.834" y2="156.739"/><line x1="349.042" y1="156.739" x2="352.834" y2="152.947"/>
<line x1="349.494" y1="147.322" x2="353.286" y2="147.322"/><line x1="351.39" y1="145.426" x2="351.39" y2="149.218"/><line x1="349.494" y1="145.426" x2="353.286" y2="149.218"/><line x1="349.494" y1="149.218" x2="353.286" y2="145.426"/>
<line x1="349.947" y1="143.695" x2="353.739" y2="143.695"/><line x1="351.843" y1="141.799" x2="351.843" y2="145.591"/><line x1="349.947" y1="141.799" x2="353.739" y2="145.591"/><line x1="349.947" y1="145.591" x2="353.739" y2="141.799"/>
<line x1="350.4" y1="138.255" x2="354.192" y2="138.255"/><line x1="352.296" y1="136.359" x2="352.296" y2="140.151"/><line x1="350.4" y1="136.359" x2="354.192" y2="140.151"/><line x1="350.4" y1="140.151" x2="354.192" y2="136.359"/>
<line x1="350.852" y1="138.556" x2="354.645" y2="138.556"/><line x1="352.748" y1="136.66" x2="352.748" y2="140.452"/><line x1="350.852" y1="136.66" x2="354.645" y2="140.452"/><line x1="350.852" y1="140.452" x2="354.645" y2="136.66"/>
<line x1="351.305" y1="139.83" x2="355.097" y2="139.83"/><line x1="353.201" y1="137.934" x2="353.201" y2="141.726"/><line x1="351.305" y1="137.934" x2="355.097" y2="141.726"/><line x1="351.305" y1="141.726" x2="355.097" y2="137.934"/>
<line x1="351.758" y1="132.555" x2="355.55" y2="132.555"/><line x1="353.654" y1="130.659" x2="353.654" y2="134.451"/><line x1="351.758" y1="130.659" x2="355.55" y2="134.451"/><line x1="351.758" y1="134.451" x2="355.55" y2="130.659"/>
<line x1="352.21" y1="129.92" x2="356.003" y2="129.92"/><line x1="354.106" y1="128.024" x2="354.106" y2="131.816"/><line x1="352.21" y1="128.024" x2="356.003" y2="131.816"/><line x1="352.21" y1="131.816" x2="356.003" y2="128.024"/>
<line x1="352.663" y1="126.909" x2="356.455" y2="126.909"/><line x1="354.559" y1="125.013" x2="354.559" y2="128.806"/><line x1="352.663" y1="125.013" x2="356.455" y2="128.806"/><line x1="352.663" y1="128.806" x2="356.455" y2="125.013"/>
<line x1="353.116" y1="114.156" x2="356.908" y2="114.156"/><line x1="355.012" y1="112.26" x2="355.012" y2="116.052"/><line x1="353.116" y1="112.26" x2="356.908" y2="116.052"/><line x1="353.116" y1="116.052" x2="356.908" y2="112.26"/>
<line x1="353.568" y1="117.708" x2="357.361" y2="117.708"/><line x1="355.465" y1="115.812" x2="355.465" y2="119.604"/><line x1="353.568" y1="115.812" x2="357.361" y2="119.604"/><line x1="353.568" y1="119.604" x2="357.361" y2="115.812"/>
<line x1="354.021" y1="116.62" x2="357.813" y2="116.62"/><line x1="355.917" y1="114.724" x2="355.917" y2="118.516"/><line x1="354.021" y1="114.724" x2="357.813" y2="118.516"/><line x1="354.021" y1="118.516" x2="357.813" y2="114.724"/>
<line x1="354.474" y1="112.909" x2="358.266" y2="112.909"/><line x1="356.37" y1="111.013" x2="356.37" y2="114.805"/><line x1="354.474" y1="111.013" x2="358.266" y2="114.805"/><line x1="354.474" y1="114.805" x2="358.266" y2="111.013"/>
<line x1="354.926" y1="115.691" x2="358.719" y2="115.691"/><line x1="356.823" y1="113.795" x2="356.823" y2="117.587"/><line x1="354.926" y1="113.795" x2="358.719" y2="117.587"/><line x1="354.926" y1="117.587" x2="358.719" y2="113.795"/>
<line x1="355.379" y1="118.966" x2="359.171" y2="118.966"/><line x1="357.275" y1="117.07" x2="357.275" y2="120.862"/><line x1="355.379" y1="117.07" x2="359.171" y2="120.862"/><line x1="355.379" y1="120.862" x2="359.171" y2="117.07"/>
<line x1="355.832" y1="119.084" x2="359.624" y2="119.084"/><line x1="357.728" y1="117.188" x2="357.728" y2="120.98"/><line x1="355.832" y1="117.188" x2="359.624" y2="120.98"/><line x1="355.832" y1="120.98" x2="359.624" y2="117.188"/>
<line x1="356.285" y1="108.496" x2="360.077" y2="108.496"/><line x1="358.181" y1="106.6" x2="358.181" y2="110.392"/><line x1="356.285" y1="106.6" x2="360.077" y2="110.392"/><line x1="356.285" y1="110.392" x2="360.077" y2="106.6"/>
<line x1="356.737" y1="110.145" x2="360.529" y2="110.145"/><line x1="358.633" y1="108.249" x2="358.633" y2="112.041"/><line x1="356.737" y1="108.249" x2="360.529" y2="112.041"/><line x1="356.737" y1="112.041" x2="360.529" y2="108.249"/>
<line x1="357.19" y1="100.684" x2="360.982" y2="100.684"/><line x1="359.086" y1="98.7881" x2="359.086" y2="102.58"/><line x1="357.19" y1="98.7881" x2="360.982" y2="102.58"/><line x1="357.19" y1="102.58" x2="360.982" y2="98.7881"/>
<line x1="357.643" y1="91.5931" x2="361.435" y2="91.5931"/><line x1="359.539" y1="89.697" x2="359.539" y2="93.4892"/><line x1="357.643" y1="89.697" x2="361.435" y2="93.4892"/><line x1="357.643" y1="93.4892" x2="361.435" y2="89.697"/>
<line x1="358.095" y1="90.6432" x2="361.887" y2="90.6432"/><line x1="359.991" y1="88.7471" x2="359.991" y2="92.5393"/><line x1="358.095" y1="88.7471" x2="361.887" y2="92.5393"/><line x1="358.095" y1="92.5393" x2="361.887" y2="88.7471"/>
<line x1="358.548" y1="84.7789" x2="362.34" y2="84.7789"/><line x1="360.444" y1="82.8828" x2="360.444" y2="86.675"/><line x1="358.548" y1="82.8828" x2="362.34" y2="86.675"/><line x1="358.548" y1="86.675" x2="362.34" y2="82.8828"/>
<line x1="359.001" y1="91.9135" x2="362.793" y2="91.9135"/><line x1="360.897" y1="90.0174" x2="360.897" y2="93.8096"/><line x1="359.001" y1="90.0174" x2="362.793" y2="93.8096"/><line x1="359.001" y1="93.8096" x2="362.793" y2="90.0174"/>
<line x1="359.453" y1="89.774" x2="363.245" y2="89.774"/><line x1="361.349" y1="87.8779" x2="361.349" y2="91.6701"/><line x1="359.453" y1="87.8779" x2="363.245" y2="91.6701"/><line x1="359.453" y1="91.6701" x2="363.245" y2="87.8779"/>
<line x1="359.906" y1="88.8138" x2="363.698" y2="88.8138"/><line x1="361.802" y1="86.9177" x2="361.802" y2="90.7099"/><line x1="359.906" y1="86.9177" x2="363.698" y2="90.7099"/><line x1="359.906" y1="90.7099" x2="363.698" y2="86.9177"/>
<line x1="360.359" y1="92.8068" x2="364.151" y2="92.8068"/><line x1="362.255" y1="90.9107" x2="362.255" y2="94.7029"/><line x1="360.359" y1="90.9107" x2="364.151" y2="94.7029"/><line x1="360.359" y1="94.7029" x2="364.151" y2="90.9107"/>
<line x1="360.811" y1="85.7412" x2="364.604" y2="85.7412"/><line x1="362.707" y1="83.8452" x2="362.707" y2="87.6373"/><line x1="360.811" y1="83.8452" x2="364.604" y2="87.6373"/><line x1="360.811" y1="87.6373" x2="364.604" y2="83.8452"/>
<line x1="361.264" y1="80.3295" x2="365.056" y2="80.3295"/><line x1="363.16" y1="78.4334" x2="363.16" y2="82.2256"/><line x1="361.264" y1="78.4334" x2="365.056" y2="82.2256"/><line x1="361.264" y1="82.2256" x2="365.056" y2="78.4334"/>
<line x1="361.717" y1="79.9691" x2="365.509" y2="79.9691"/><line x1="363.613" y1="78.073" x2="363.613" y2="81.8651"/><line x1="361.717" y1="78.073" x2="365.509" y2="81.8651"/><line x1="361.717" y1="81.8651" x2="365.509" y2="78.073"/>
<line x1="362.169" y1="82.7364" x2="365.962" y2="82.7364"/><line x1="364.065" y1="80.8403" x2="364.065" y2="84.6324"/><line x1="362.169" y1="80.8403" x2="365.962" y2="84.6324"/><line x1="362.169" y1="84.6324" x2="365.962" y2="80.8403"/>
<line x1="362.622" y1="71.9026" x2="366.414" y2="71.9026"/><line x1="364.518" y1="70.0065" x2="364.518" y2="73.7986"/><line x1="362.622" y1="70.0065" x2="366.414" y2="73.7986"/><line x1="362.622" y1="73.7986" x2="366.414" y2="70.0065"/>
<line x1="363.075" y1="76.6392" x2="366.867" y2="76.6392"/><line x1="364.971" y1="74.7431" x2="364.971" y2="78.5353"/><line x1="363.075" y1="74.7431" x2="366.867" y2="78.5353"/><line x1="363.075" y1="78.5353" x2="366.867" y2="74.7431"/>
<line x1="363.527" y1="72.079" x2="367.32" y2="72.079"/><line x1="365.424" y1="70.1829" x2="365.424" y2="73.9751"/><line x1="363.527" y1="70.1829" x2="367.32" y2="73.9751"/><line x1="363.527" y1="73.9751" x2="367.32" y2="70.1829"/>
<line x1="363.98" y1="77.7832" x2="367.772" y2="77.7832"/><line x1="365.876" y1="75.8871" x2="365.876" y2="79.6793"/><line x1="363.98" y1="75.8871" x2="367.772" y2="79.6793"/><line x1="363.98" y1="79.6793" x2="367.772" y2="75.8871"/>
<line x1="364.433" y1="74.8222" x2="368.225" y2="74.8222"/><line x1="366.329" y1="72.9261" x2="366.329" y2="76.7183"/><line x1="364.433" y1="72.9261" x2="368.225" y2="76.7183"/><line x1="364.433" y1="76.7183" x2="368.225" y2="72.9261"/>
<line x1="364.885" y1="76.0244" x2="368.678" y2="76.0244"/><line x1="366.782" y1="74.1283" x2="366.782" y2="77.9204"/><line x1="364.885" y1="74.1283" x2="368.678" y2="77.9204"/><line x1="364.885" y1="77.9204" x2="368.678" y2="74.1283"/>
<line x1="365.338" y1="76.1186" x2="369.13" y2="76.1186"/><line x1="367.234" y1="74.2225" x2="367.234" y2="78.0147"/><line x1="365.338" y1="74.2225" x2="369.13" y2="78.0147"/><line x1="365.338" y1="78.0147" x2="369.13" y2="74.2225"/>
<line x1="365.791" y1="73.9199" x2="369.583" y2="73.9199"/><line x1="367.687" y1="72.0238" x2="367.687" y2="75.816"/><line x1="365.791" y1="72.0238" x2="369.583" y2="75.816"/><line x1="365.791" y1="75.816" x2="369.583" y2="72.0238"/>
<line x1="366.244" y1="71.975" x2="370.036" y2="71.975"/><line x1="368.14" y1="70.079" x2="368.14" y2="73.8711"/><line x1="366.244" y1="70.079" x2="370.036" y2="73.8711"/><line x1="366.244" y1="73.8711" x2="370.036" y2="70.079"/>
<line x1="366.696" y1="67.344" x2="370.488" y2="67.344"/><line x1="368.592" y1="65.4479" x2="368.592" y2="69.24"/><line x1="366.696" y1="65.4479" x2="370.488" y2="69.24"/><line x1="366.696" y1="69.24" x2="370.488" y2="65.4479"/>
<line x1="367.149" y1="59.2866" x2="370.941" y2="59.2866"/><line x1="369.045" y1="57.3905" x2="369.045" y2="61.1827"/><line x1="367.149" y1="57.3905" x2="370.941" y2="61.1827"/><line x1="367.149" y1="61.1827" x2="370.941" y2="57.3905"/>
<line x1="367.602" y1="57.9718" x2="371.394" y2="57.9718"/><line x1="369.498" y1="56.0758" x2="369.498" y2="59.8679"/><line x1="367.602" y1="56.0758" x2="371.394" y2="59.8679"/><line x1="367.602" y1="59.8679" x2="371.394" y2="56.0758"/>
<line x1="368.054" y1="67.0226" x2="371.846" y2="67.0226"/><line x1="369.95" y1="65.1265" x2="369.95" y2="68.9187"/><line x1="368.054" y1="65.1265" x2="371.846" y2="68.9187"/><line x1="368.054" y1="68.9187" x2="371.846" y2="65.1265"/>
<line x1="368.507" y1="61.068" x2="372.299" y2="61.068"/><line x1="370.403" y1="59.1719" x2="370.403" y2="62.9641"/><line x1="368.507" y1="59.1719" x2="372.299" y2="62.9641"/><line x1="368.507" y1="62.9641" x2="372.299" y2="59.1719"/>
<line x1="368.96" y1="52.4261" x2="372.752" y2="52.4261"/><line x1="370.856" y1="50.53" x2="370.856" y2="54.3221"/><line x1="368.96" y1="50.53" x2="372.752" y2="54.3221"/><line x1="368.96" y1="54.3221" x2="372.752" y2="50.53"/>
<line x1="369.412" y1="54.0545" x2="373.204" y2="54.0545"/><line x1="371.308" y1="52.1584" x2="371.308" y2="55.9505"/><line x1="369.412" y1="52.1584" x2="373.204" y2="55.9505"/><line x1="369.412" y1="55.9505" x2="373.204" y2="52.1584"/>
<line x1="369.865" y1="54.6233" x2="373.657" y2="54.6233"/><line x1="371.761" y1="52.7273" x2="371.761" y2="56.5194"/><line x1="369.865" y1="52.7273" x2="373.657" y2="56.5194"/><line x1="369.865" y1="56.5194" x2="373.657" y2="52.7273"/>
<line x1="370.318" y1="42.6923" x2="374.11" y2="42.6923"/><line x1="372.214" y1="40.7962" x2="372.214" y2="44.5884"/><line x1="370.318" y1="40.7962" x2="374.11" y2="44.5884"/><line x1="370.318" y1="44.5884" x2="374.11" y2="40.7962"/>
</g>
<g stroke="black" stroke-width="1" fill="none">
<line x1="371.676" y1="45.9724" x2="375.468" y2="45.9724"/><line x1="373.572" y1="44.0764" x2="373.572" y2="47.8685"/><line x1="371.676" y1="44.0764" x2="375.468" y2="47.8685"/><line x1="371.676" y1="47.8685" x2="375.468" y2="44.0764"/>
<line x1="372.128" y1="53.1685" x2="375.921" y2="53.1685"/><line x1="374.025" y1="51.2724" x2="374.025" y2="55.0646"/><line x1="372.128" y1="51.2724" x2="375.921" y2="55.0646"/><line x1="372.128" y1="55.0646" x2="375.921" y2="51.2724"/>
<line x1="372.581" y1="48.7141" x2="376.373" y2="48.7141"/><line x1="374.477" y1="46.818" x2="374.477" y2="50.6101"/><line x1="372.581" y1="46.818" x2="376.373" y2="50.6101"/><line x1="372.581" y1="50.6101" x2="376.373" y2="46.818"/>
<line x1="373.034" y1="53.6816" x2="376.826" y2="53.6816"/><line x1="374.93" y1="51.7855" x2="374.93" y2="55.5777"/><line x1="373.034" y1="51.7855" x2="376.826" y2="55.5777"/><line x1="373.034" y1="55.5777" x2="376.826" y2="51.7855"/>
<line x1="373.486" y1="49.6304" x2="377.279" y2="49.6304"/><line x1="375.383" y1="47.7344" x2="375.383" y2="51.5265"/><line x1="373.486" y1="47.7344" x2="377.279" y2="51.5265"/><line x1="373.486" y1="51.5265" x2="377.279" y2="47.7344"/>
<line x1="373.939" y1="46.7786" x2="377.731" y2="46.7786"/><line x1="375.835" y1="44.8825" x2="375.835" y2="48.6747"/><line x1="373.939" y1="44.8825" x2="377.731" y2="48.6747"/><line x1="373.939" y1="48.6747" x2="377.731" y2="44.8825"/>
<line x1="374.392" y1="49.8721" x2="378.184" y2="49.8721"/><line x1="376.288" y1="47.976" x2="376.288" y2="51.7681"/><line x1="374.392" y1="47.976" x2="378.184" y2="51.7681"/><line x1="374.392" y1="51.7681" x2="378.184" y2="47.976"/>
<line x1="374.845" y1="51.0166" x2="378.637" y2="51.0166"/><line x1="376.741" y1="49.1205" x2="376.741" y2="52.9127"/><line x1="374.845" y1="49.1205" x2="378.637" y2="52.9127"/><line x1="374.845" y1="52.9127" x2="378.637" y2="49.1205"/>
<line x1="375.297" y1="44.7183" x2="379.089" y2="44.7183"/><line x1="377.193" y1="42.8222" x2="377.193" y2="46.6144"/><line x1="375.297" y1="42.8222" x2="379.089" y2="46.6144"/><line x1="375.297" y1="46.6144" x2="379.089" y2="42.8222"/>
</g>
<g stroke="black" stroke-width="1" fill="none">
<line x1="376.203" y1="42.6202" x2="379.995" y2="42.6202"/><line x1="378.099" y1="40.7241" x2="378.099" y2="44.5162"/><line x1="376.203" y1="40.7241" x2="379.995" y2="44.5162"/><line x1="376.203" y1="44.5162" x2="379.995" y2="40.7241"/>
<line x1="376.655" y1="45.2942" x2="380.447" y2="45.2942"/><line x1="378.551" y1="43.3981" x2="378.551" y2="47.1903"/><line x1="376.655" y1="43.3981" x2="380.447" y2="47.1903"/><line x1="376.655" y1="47.1903" x2="380.447" y2="43.3981"/>
<line x1="377.108" y1="53.4285" x2="380.9" y2="53.4285"/><line x1="379.004" y1="51.5324" x2="379.004" y2="55.3246"/><line x1="377.108" y1="51.5324" x2="380.9" y2="55.3246"/><line x1="377.108" y1="55.3246" x2="380.9" y2="51.5324"/>
<line x1="377.561" y1="48.9651" x2="381.353" y2="48.9651"/><line x1="379.457" y1="47.0691" x2="379.457" y2="50.8612"/><line x1="377.561" y1="47.0691" x2="381.353" y2="50.8612"/><line x1="377.561" y1="50.8612" x2="381.353" y2="47.0691"/>
<line x1="378.013" y1="50.2787" x2="381.805" y2="50.2787"/><line x1="379.909" y1="48.3826" x2="379.909" y2="52.1748"/><line x1="378.013" y1="48.3826" x2="381.805" y2="52.1748"/><line x1="378.013" y1="52.1748" x2="381.805" y2="48.3826"/>
<line x1="378.466" y1="52.55" x2="382.258" y2="52.55"/><line x1="380.362" y1="50.6539" x2="380.362" y2="54.4461"/><line x1="378.466" y1="50.6539" x2="382.258" y2="54.4461"/><line x1="378.466" y1="54.4461" x2="382.258" y2="50.6539"/>
<line x1="378.919" y1="46.5419" x2="382.711" y2="46.5419"/><line x1="380.815" y1="44.6458" x2="380.815" y2="48.438"/><line x1="378.919" y1="44.6458" x2="382.711" y2="48.438"/><line x1="378.919" y1="48.438" x2="382.711" y2="44.6458"/>
<line x1="379.371" y1="45.0532" x2="383.164" y2="45.0532"/><line x1="381.267" y1="43.1571" x2="381.267" y2="46.9493"/><line x1="379.371" y1="43.1571" x2="383.164" y2="46.9493"/><line x1="379.371" y1="46.9493" x2="383.164" y2="43.1571"/>
</g>
<path d="M170.77,353.116h 226.342" fill="none" stroke="#0000ff"/>
<path d="M283.941,372.012v -47.2396" fill="none" stroke="#ff0000"/>
<rect x="57.1929" y="330.677" width="113.386" height="41.3346" fill="white"/>
<path d="M57.1929,372.012h 113.386" fill="none" stroke="black"/>
<path d="M170.579,372.012v -41.3346" fill="none" stroke="black"/>
<path d="M170.579,330.677h -113.386" fill="none" stroke="black"/>
<path d="M57.1929,330.677v 41.3346" fill="none" stroke="black"/>
<text xml:space="preserve" x="85.3498" y="354.568" fill="black" font-size="12.3723" font-family="Helvetica">#p.e of PMTs1</text>
<path d="M61.4449,351.344h 19.8425" fill="none" stroke="black"/></svg>
