<?xml version="1.0" standalone="no"?>
<svg width="567.429" height="413.846" viewBox="0 0 567.429 413.846" xmlns="http://www.w3.org/2000/svg" shape-rendering="crispEdges">
<title>
figures/chi2_3PMTnpedata190929-01.svg
</title>
<desc>
Creator: ROOT Version 6.18/02
CreationDate: Sun Sep 29 20:59:28 2019</desc>
<defs>
</defs>
<rect x="0.5" y="0" width="566.929" height="413.346" fill="white"/>
<rect x="57.1929" y="41.3346" width="453.543" height="330.677" fill="white"/>
<rect x="57.1929" y="41.3346" width="453.543" height="330.677" fill="none" stroke="black"/>
<path d="M57.1929,372.012h 453.543" fill="none" stroke="black"/>
<path d="M98.7632,41.3346v 330.677" fill="none" stroke="black" stroke-dasharray=" 1, 2"/>
<path d="M144.032,41.3346v 330.677" fill="none" stroke="black" stroke-dasharray=" 1, 2"/>
<path d="M189.3,41.3346v 330.677" fill="none" stroke="black" stroke-dasharray=" 1, 2"/>
<path d="M234.568,41.3346v 330.677" fill="none" stroke="black" stroke-dasharray=" 1, 2"/>
<path d="M279.837,41.3346v 330.677" fill="none" stroke="black" stroke-dasharray=" 1, 2"/>
<path d="M325.105,41.3346v 330.677" fill="none" stroke="black" stroke-dasharray=" 1, 2"/>
<path d="M370.373,41.3346v 330.677" fill="none" stroke="black" stroke-dasharray=" 1, 2"/>
<path d="M415.642,41.3346v 330.677" fill="none" stroke="black" stroke-dasharray=" 1, 2"/>
<path d="M460.91,41.3346v 330.677" fill="none" stroke="black" stroke-dasharray=" 1, 2"/>
<path d="M506.178,41.3346v 330.677" fill="none" stroke="black" stroke-dasharray=" 1, 2"/>
<path d="M98.7632,41.3346v 330.677" fill="none" stroke="black" stroke-dasharray=" 1, 2"/>
<path d="M506.178,41.3346v 330.677" fill="none" stroke="black" stroke-dasharray=" 1, 2"/>
<path d="M57.1929,372.012v -330.677" fill="none" stroke="black"/>
<path d="M510.736,360.806h -453.543" fill="none" stroke="black" stroke-dasharray=" 1, 2"/>
<path d="M510.736,297.82h -453.543" fill="none" stroke="black" stroke-dasharray=" 1, 2"/>
<path d="M510.736,234.834h -453.543" fill="none" stroke="black" stroke-dasharray=" 1, 2"/>
<path d="M510.736,171.848h -453.543" fill="none" stroke="black" stroke-dasharray=" 1, 2"/>
<path d="M510.736,108.862h -453.543" fill="none" stroke="black" stroke-dasharray=" 1, 2"/>
<path d="M510.736,45.8759h -453.543" fill="none" stroke="black" stroke-dasharray=" 1, 2"/>
<path d="M510.736,360.806h -453.543" fill="none" stroke="black" stroke-dasharray=" 1, 2"/>
<path d="M510.736,45.8759h -453.543" fill="none" stroke="black" stroke-dasharray=" 1, 2"/>
<path d="M57.1929,372.012h 453.543" fill="none" stroke="black"/>
<path d="M98.7632,362.091v 9.92031" fill="none" stroke="black"/>
<path d="M110.08,367.052v 4.96016" fill="none" stroke="black"/>
<path d="M121.397,367.052v 4.96016" fill="none" stroke="black"/>
<path d="M132.714,367.052v 4.96016" fill="none" stroke="black"/>
<path d="M144.032,362.091v 9.92031" fill="none" stroke="black"/>
<path d="M155.349,367.052v 4.96016" fill="none" stroke="black"/>
<path d="M166.666,367.052v 4.96016" fill="none" stroke="black"/>
<path d="M177.983,367.052v 4.96016" fill="none" stroke="black"/>
<path d="M189.3,362.091v 9.92031" fill="none" stroke="black"/>
<path d="M200.617,367.052v 4.96016" fill="none" stroke="black"/>
<path d="M211.934,367.052v 4.96016" fill="none" stroke="black"/>
<path d="M223.251,367.052v 4.96016" fill="none" stroke="black"/>
<path d="M234.568,362.091v 9.92031" fill="none" stroke="black"/>
<path d="M245.885,367.052v 4.96016" fill="none" stroke="black"/>
<path d="M257.202,367.052v 4.96016" fill="none" stroke="black"/>
<path d="M268.519,367.052v 4.96016" fill="none" stroke="black"/>
<path d="M279.837,362.091v 9.92031" fill="none" stroke="black"/>
<path d="M291.154,367.052v 4.96016" fill="none" stroke="black"/>
<path d="M302.471,367.052v 4.96016" fill="none" stroke="black"/>
<path d="M313.788,367.052v 4.96016" fill="none" stroke="black"/>
<path d="M325.105,362.091v 9.92031" fill="none" stroke="black"/>
<path d="M336.422,367.052v 4.96016" fill="none" stroke="black"/>
<path d="M347.739,367.052v 4.96016" fill="none" stroke="black"/>
<path d="M359.056,367.052v 4.96016" fill="none" stroke="black"/>
<path d="M370.373,362.091v 9.92031" fill="none" stroke="black"/>
<path d="M381.69,367.052v 4.96016" fill="none" stroke="black"/>
<path d="M393.007,367.052v 4.96016" fill="none" stroke="black"/>
<path d="M404.324,367.052v 4.96016" fill="none" stroke="black"/>
<path d="M415.642,362.091v 9.92031" fill="none" stroke="black"/>
<path d="M426.959,367.052v 4.96016" fill="none" stroke="black"/>
<path d="M438.276,367.052v 4.96016" fill="none" stroke="black"/>
<path d="M449.593,367.052v 4.96016" fill="none" stroke="black"/>
<path d="M460.91,362.091v 9.92031" fill="none" stroke="black"/>
<path d="M472.227,367.052v 4.96016" fill="none" stroke="black"/>
<path d="M483.544,367.052v 4.96016" fill="none" stroke="black"/>
<path d="M494.861,367.052v 4.96016" fill="none" stroke="black"/>
<path d="M506.178,362.091v 9.92031" fill="none" stroke="black"/>
<path d="M98.7632,362.091v 9.92031" fill="none" stroke="black"/>
<path d="M87.4461,367.052v 4.96016" fill="none" stroke="black"/>
<path d="M76.129,367.052v 4.96016" fill="none" stroke="black"/>
<path d="M64.812,367.052v 4.96016" fill="none" stroke="black"/>
<path d="M506.178,362.091v 9.92031" fill="none" stroke="black"/>
<text xml:space="preserve" x="85.8238" y="385.379" fill="black" font-size="13.7726" font-family="Helvetica">0.68</text>
<text xml:space="preserve" x="134.648" y="385.379" fill="black" font-size="13.7726" font-family="Helvetica">0.7</text>
<text xml:space="preserve" x="176.362" y="385.379" fill="black" font-size="13.7726" font-family="Helvetica">0.72</text>
<text xml:space="preserve" x="221.394" y="385.379" fill="black" font-size="13.7726" font-family="Helvetica">0.74</text>
<text xml:space="preserve" x="266.9" y="385.379" fill="black" font-size="13.7726" font-family="Helvetica">0.76</text>
<text xml:space="preserve" x="311.932" y="385.379" fill="black" font-size="13.7726" font-family="Helvetica">0.78</text>
<text xml:space="preserve" x="361.23" y="385.379" fill="black" font-size="13.7726" font-family="Helvetica">0.8</text>
<text xml:space="preserve" x="402.47" y="385.379" fill="black" font-size="13.7726" font-family="Helvetica">0.82</text>
<text xml:space="preserve" x="447.976" y="385.379" fill="black" font-size="13.7726" font-family="Helvetica">0.84</text>
<text xml:space="preserve" x="493.008" y="385.379" fill="black" font-size="13.7726" font-family="Helvetica">0.86</text>
<text xml:space="preserve" x="413.372" y="400.074" fill="black" font-size="13.7726" font-family="Helvetica">calibration factor</text>
<path d="M57.1929,372.012v -330.677" fill="none" stroke="black"/>
<path d="M70.7992,360.806h -13.6063" fill="none" stroke="black"/>
<path d="M63.9961,345.06h -6.80315" fill="none" stroke="black"/>
<path d="M63.9961,329.313h -6.80315" fill="none" stroke="black"/>
<path d="M63.9961,313.567h -6.80315" fill="none" stroke="black"/>
<path d="M70.7992,297.82h -13.6063" fill="none" stroke="black"/>
<path d="M63.9961,282.074h -6.80315" fill="none" stroke="black"/>
<path d="M63.9961,266.327h -6.80315" fill="none" stroke="black"/>
<path d="M63.9961,250.581h -6.80315" fill="none" stroke="black"/>
<path d="M70.7992,234.834h -13.6063" fill="none" stroke="black"/>
<path d="M63.9961,219.088h -6.80315" fill="none" stroke="black"/>
<path d="M63.9961,203.341h -6.80315" fill="none" stroke="black"/>
<path d="M63.9961,187.595h -6.80315" fill="none" stroke="black"/>
<path d="M70.7992,171.848h -13.6063" fill="none" stroke="black"/>
<path d="M63.9961,156.102h -6.80315" fill="none" stroke="black"/>
<path d="M63.9961,140.355h -6.80315" fill="none" stroke="black"/>
<path d="M63.9961,124.608h -6.80315" fill="none" stroke="black"/>
<path d="M70.7992,108.862h -13.6063" fill="none" stroke="black"/>
<path d="M63.9961,93.1154h -6.80315" fill="none" stroke="black"/>
<path d="M63.9961,77.3689h -6.80315" fill="none" stroke="black"/>
<path d="M63.9961,61.6224h -6.80315" fill="none" stroke="black"/>
<path d="M70.7992,45.8759h -13.6063" fill="none" stroke="black"/>
<path d="M70.7992,360.806h -13.6063" fill="none" stroke="black"/>
<path d="M70.7992,45.8759h -13.6063" fill="none" stroke="black"/>
<text xml:space="preserve" x="32.2594" y="365.47" fill="black" font-size="13.7726" font-family="Helvetica">940</text>
<text xml:space="preserve" x="32.2594" y="302.425" fill="black" font-size="13.7726" font-family="Helvetica">960</text>
<text xml:space="preserve" x="32.2594" y="239.381" fill="black" font-size="13.7726" font-family="Helvetica">980</text>
<text xml:space="preserve" x="25.1491" y="176.336" fill="black" font-size="13.7726" font-family="Helvetica">1000</text>
<text xml:space="preserve" x="25.1491" y="113.291" fill="black" font-size="13.7726" font-family="Helvetica">1020</text>
<text xml:space="preserve" x="25.1491" y="50.2462" fill="black" font-size="13.7726" font-family="Helvetica">1040</text>
<g transform="rotate(-90,8.08434,45.98)">
<text xml:space="preserve" x="8.08434" y="45.98" fill="black" font-size="9.34839" font-family="Helvetica">2</text>
</g>
<g transform="rotate(-90,12.3505,50.2462)">
<text xml:space="preserve" x="12.3505" y="50.2462" fill="black" font-size="13.7726" font-family="Helvetica"> </text>
</g>
<g transform="rotate(-90,12.3505,57.3565)">
<text xml:space="preserve" x="12.3505" y="57.3565" fill="black" font-size="13.7726" font-family="Times">&#0967;</text>
</g>
<g stroke="black" stroke-width="1" fill="none">
<line x1="223.166" y1="45.8379" x2="226.958" y2="45.8379"/><line x1="225.062" y1="43.9418" x2="225.062" y2="47.734"/><line x1="223.166" y1="43.9418" x2="226.958" y2="47.734"/><line x1="223.166" y1="47.734" x2="226.958" y2="43.9418"/>
<line x1="223.618" y1="48.6944" x2="227.411" y2="48.6944"/><line x1="225.515" y1="46.7983" x2="225.515" y2="50.5905"/><line x1="223.618" y1="46.7983" x2="227.411" y2="50.5905"/><line x1="223.618" y1="50.5905" x2="227.411" y2="46.7983"/>
<line x1="224.071" y1="52.6131" x2="227.863" y2="52.6131"/><line x1="225.967" y1="50.7171" x2="225.967" y2="54.5092"/><line x1="224.071" y1="50.7171" x2="227.863" y2="54.5092"/><line x1="224.071" y1="54.5092" x2="227.863" y2="50.7171"/>
<line x1="224.524" y1="57.6273" x2="228.316" y2="57.6273"/><line x1="226.42" y1="55.7312" x2="226.42" y2="59.5234"/><line x1="224.524" y1="55.7312" x2="228.316" y2="59.5234"/><line x1="224.524" y1="59.5234" x2="228.316" y2="55.7312"/>
<line x1="224.976" y1="63.7336" x2="228.769" y2="63.7336"/><line x1="226.873" y1="61.8375" x2="226.873" y2="65.6297"/><line x1="224.976" y1="61.8375" x2="228.769" y2="65.6297"/><line x1="224.976" y1="65.6297" x2="228.769" y2="61.8375"/>
<line x1="225.429" y1="68.679" x2="229.221" y2="68.679"/><line x1="227.325" y1="66.7829" x2="227.325" y2="70.575"/><line x1="225.429" y1="66.7829" x2="229.221" y2="70.575"/><line x1="225.429" y1="70.575" x2="229.221" y2="66.7829"/>
<line x1="225.882" y1="70.2975" x2="229.674" y2="70.2975"/><line x1="227.778" y1="68.4014" x2="227.778" y2="72.1935"/><line x1="225.882" y1="68.4014" x2="229.674" y2="72.1935"/><line x1="225.882" y1="72.1935" x2="229.674" y2="68.4014"/>
<line x1="226.335" y1="65.7926" x2="230.127" y2="65.7926"/><line x1="228.231" y1="63.8965" x2="228.231" y2="67.6887"/><line x1="226.335" y1="63.8965" x2="230.127" y2="67.6887"/><line x1="226.335" y1="67.6887" x2="230.127" y2="63.8965"/>
<line x1="226.787" y1="72.3863" x2="230.579" y2="72.3863"/><line x1="228.683" y1="70.4902" x2="228.683" y2="74.2824"/><line x1="226.787" y1="70.4902" x2="230.579" y2="74.2824"/><line x1="226.787" y1="74.2824" x2="230.579" y2="70.4902"/>
<line x1="227.24" y1="78.5718" x2="231.032" y2="78.5718"/><line x1="229.136" y1="76.6757" x2="229.136" y2="80.4679"/><line x1="227.24" y1="76.6757" x2="231.032" y2="80.4679"/><line x1="227.24" y1="80.4679" x2="231.032" y2="76.6757"/>
<line x1="227.693" y1="83.9656" x2="231.485" y2="83.9656"/><line x1="229.589" y1="82.0695" x2="229.589" y2="85.8617"/><line x1="227.693" y1="82.0695" x2="231.485" y2="85.8617"/><line x1="227.693" y1="85.8617" x2="231.485" y2="82.0695"/>
<line x1="228.145" y1="89.1539" x2="231.937" y2="89.1539"/><line x1="230.041" y1="87.2579" x2="230.041" y2="91.05"/><line x1="228.145" y1="87.2579" x2="231.937" y2="91.05"/><line x1="228.145" y1="91.05" x2="231.937" y2="87.2579"/>
<line x1="228.598" y1="95.7433" x2="232.39" y2="95.7433"/><line x1="230.494" y1="93.8473" x2="230.494" y2="97.6394"/><line x1="228.598" y1="93.8473" x2="232.39" y2="97.6394"/><line x1="228.598" y1="97.6394" x2="232.39" y2="93.8473"/>
<line x1="229.051" y1="100.695" x2="232.843" y2="100.695"/><line x1="230.947" y1="98.7988" x2="230.947" y2="102.591"/><line x1="229.051" y1="98.7988" x2="232.843" y2="102.591"/><line x1="229.051" y1="102.591" x2="232.843" y2="98.7988"/>
<line x1="229.503" y1="108.984" x2="233.295" y2="108.984"/><line x1="231.399" y1="107.088" x2="231.399" y2="110.88"/><line x1="229.503" y1="107.088" x2="233.295" y2="110.88"/><line x1="229.503" y1="110.88" x2="233.295" y2="107.088"/>
<line x1="229.956" y1="107.38" x2="233.748" y2="107.38"/><line x1="231.852" y1="105.484" x2="231.852" y2="109.276"/><line x1="229.956" y1="105.484" x2="233.748" y2="109.276"/><line x1="229.956" y1="109.276" x2="233.748" y2="105.484"/>
<line x1="230.409" y1="110.482" x2="234.201" y2="110.482"/><line x1="232.305" y1="108.586" x2="232.305" y2="112.378"/><line x1="230.409" y1="108.586" x2="234.201" y2="112.378"/><line x1="230.409" y1="112.378" x2="234.201" y2="108.586"/>
<line x1="230.861" y1="119.964" x2="234.654" y2="119.964"/><line x1="232.757" y1="118.067" x2="232.757" y2="121.86"/><line x1="230.861" y1="118.067" x2="234.654" y2="121.86"/><line x1="230.861" y1="121.86" x2="234.654" y2="118.067"/>
<line x1="231.314" y1="123.493" x2="235.106" y2="123.493"/><line x1="233.21" y1="121.596" x2="233.21" y2="125.389"/><line x1="231.314" y1="121.596" x2="235.106" y2="125.389"/><line x1="231.314" y1="125.389" x2="235.106" y2="121.596"/>
<line x1="231.767" y1="128.46" x2="235.559" y2="128.46"/><line x1="233.663" y1="126.564" x2="233.663" y2="130.356"/><line x1="231.767" y1="126.564" x2="235.559" y2="130.356"/><line x1="231.767" y1="130.356" x2="235.559" y2="126.564"/>
<line x1="232.219" y1="128.312" x2="236.012" y2="128.312"/><line x1="234.116" y1="126.416" x2="234.116" y2="130.208"/><line x1="232.219" y1="126.416" x2="236.012" y2="130.208"/><line x1="232.219" y1="130.208" x2="236.012" y2="126.416"/>
<line x1="232.672" y1="127.614" x2="236.464" y2="127.614"/><line x1="234.568" y1="125.718" x2="234.568" y2="129.51"/><line x1="232.672" y1="125.718" x2="236.464" y2="129.51"/><line x1="232.672" y1="129.51" x2="236.464" y2="125.718"/>
<line x1="233.125" y1="134.398" x2="236.917" y2="134.398"/><line x1="235.021" y1="132.502" x2="235.021" y2="136.294"/><line x1="233.125" y1="132.502" x2="236.917" y2="136.294"/><line x1="233.125" y1="136.294" x2="236.917" y2="132.502"/>
<line x1="233.577" y1="140.67" x2="237.37" y2="140.67"/><line x1="235.474" y1="138.774" x2="235.474" y2="142.566"/><line x1="233.577" y1="138.774" x2="237.37" y2="142.566"/><line x1="233.577" y1="142.566" x2="237.37" y2="138.774"/>
<line x1="234.03" y1="150.191" x2="237.822" y2="150.191"/><line x1="235.926" y1="148.295" x2="235.926" y2="152.087"/><line x1="234.03" y1="148.295" x2="237.822" y2="152.087"/><line x1="234.03" y1="152.087" x2="237.822" y2="148.295"/>
<line x1="234.483" y1="149.61" x2="238.275" y2="149.61"/><line x1="236.379" y1="147.714" x2="236.379" y2="151.506"/><line x1="234.483" y1="147.714" x2="238.275" y2="151.506"/><line x1="234.483" y1="151.506" x2="238.275" y2="147.714"/>
<line x1="234.936" y1="153.882" x2="238.728" y2="153.882"/><line x1="236.832" y1="151.986" x2="236.832" y2="155.778"/><line x1="234.936" y1="151.986" x2="238.728" y2="155.778"/><line x1="234.936" y1="155.778" x2="238.728" y2="151.986"/>
<line x1="235.388" y1="160.995" x2="239.18" y2="160.995"/><line x1="237.284" y1="159.099" x2="237.284" y2="162.891"/><line x1="235.388" y1="159.099" x2="239.18" y2="162.891"/><line x1="235.388" y1="162.891" x2="239.18" y2="159.099"/>
<line x1="235.841" y1="162.807" x2="239.633" y2="162.807"/><line x1="237.737" y1="160.911" x2="237.737" y2="164.704"/><line x1="235.841" y1="160.911" x2="239.633" y2="164.704"/><line x1="235.841" y1="164.704" x2="239.633" y2="160.911"/>
<line x1="236.294" y1="166.268" x2="240.086" y2="166.268"/><line x1="238.19" y1="164.372" x2="238.19" y2="168.164"/><line x1="236.294" y1="164.372" x2="240.086" y2="168.164"/><line x1="236.294" y1="168.164" x2="240.086" y2="164.372"/>
<line x1="236.746" y1="173.081" x2="240.538" y2="173.081"/><line x1="238.642" y1="171.184" x2="238.642" y2="174.977"/><line x1="236.746" y1="171.184" x2="240.538" y2="174.977"/><line x1="236.746" y1="174.977" x2="240.538" y2="171.184"/>
<line x1="237.199" y1="179.644" x2="240.991" y2="179.644"/><line x1="239.095" y1="177.748" x2="239.095" y2="181.54"/><line x1="237.199" y1="177.748" x2="240.991" y2="181.54"/><line x1="237.199" y1="181.54" x2="240.991" y2="177.748"/>
<line x1="237.652" y1="187.086" x2="241.444" y2="187.086"/><line x1="239.548" y1="185.19" x2="239.548" y2="188.982"/><line x1="237.652" y1="185.19" x2="241.444" y2="188.982"/><line x1="237.652" y1="188.982" x2="241.444" y2="185.19"/>
<line x1="238.104" y1="191.653" x2="241.896" y2="191.653"/><line x1="240" y1="189.757" x2="240" y2="193.549"/><line x1="238.104" y1="189.757" x2="241.896" y2="193.549"/><line x1="238.104" y1="193.549" x2="241.896" y2="189.757"/>
<line x1="238.557" y1="201.154" x2="242.349" y2="201.154"/><line x1="240.453" y1="199.258" x2="240.453" y2="203.05"/><line x1="238.557" y1="199.258" x2="242.349" y2="203.05"/><line x1="238.557" y1="203.05" x2="242.349" y2="199.258"/>
<line x1="239.01" y1="208.796" x2="242.802" y2="208.796"/><line x1="240.906" y1="206.9" x2="240.906" y2="210.692"/><line x1="239.01" y1="206.9" x2="242.802" y2="210.692"/><line x1="239.01" y1="210.692" x2="242.802" y2="206.9"/>
<line x1="239.462" y1="213.483" x2="243.255" y2="213.483"/><line x1="241.358" y1="211.587" x2="241.358" y2="215.379"/><line x1="239.462" y1="211.587" x2="243.255" y2="215.379"/><line x1="239.462" y1="215.379" x2="243.255" y2="211.587"/>
<line x1="239.915" y1="215.912" x2="243.707" y2="215.912"/><line x1="241.811" y1="214.016" x2="241.811" y2="217.808"/><line x1="239.915" y1="214.016" x2="243.707" y2="217.808"/><line x1="239.915" y1="217.808" x2="243.707" y2="214.016"/>
<line x1="240.368" y1="217.769" x2="244.16" y2="217.769"/><line x1="242.264" y1="215.873" x2="242.264" y2="219.666"/><line x1="240.368" y1="215.873" x2="244.16" y2="219.666"/><line x1="240.368" y1="219.666" x2="244.16" y2="215.873"/>
<line x1="240.82" y1="215.699" x2="244.613" y2="215.699"/><line x1="242.716" y1="213.803" x2="242.716" y2="217.595"/><line x1="240.82" y1="213.803" x2="244.613" y2="217.595"/><line x1="240.82" y1="217.595" x2="244.613" y2="213.803"/>
<line x1="241.273" y1="220.825" x2="245.065" y2="220.825"/><line x1="243.169" y1="218.929" x2="243.169" y2="222.721"/><line x1="241.273" y1="218.929" x2="245.065" y2="222.721"/><line x1="241.273" y1="222.721" x2="245.065" y2="218.929"/>
<line x1="241.726" y1="222.268" x2="245.518" y2="222.268"/><line x1="243.622" y1="220.372" x2="243.622" y2="224.164"/><line x1="241.726" y1="220.372" x2="245.518" y2="224.164"/><line x1="241.726" y1="224.164" x2="245.518" y2="220.372"/>
<line x1="242.178" y1="224.366" x2="245.971" y2="224.366"/><line x1="244.075" y1="222.47" x2="244.075" y2="226.262"/><line x1="242.178" y1="222.47" x2="245.971" y2="226.262"/><line x1="242.178" y1="226.262" x2="245.971" y2="222.47"/>
<line x1="242.631" y1="220.62" x2="246.423" y2="220.62"/><line x1="244.527" y1="218.724" x2="244.527" y2="222.516"/><line x1="242.631" y1="218.724" x2="246.423" y2="222.516"/><line x1="242.631" y1="222.516" x2="246.423" y2="218.724"/>
<line x1="243.084" y1="223.665" x2="246.876" y2="223.665"/><line x1="244.98" y1="221.769" x2="244.98" y2="225.561"/><line x1="243.084" y1="221.769" x2="246.876" y2="225.561"/><line x1="243.084" y1="225.561" x2="246.876" y2="221.769"/>
<line x1="243.536" y1="231.96" x2="247.329" y2="231.96"/><line x1="245.433" y1="230.064" x2="245.433" y2="233.856"/><line x1="243.536" y1="230.064" x2="247.329" y2="233.856"/><line x1="243.536" y1="233.856" x2="247.329" y2="230.064"/>
<line x1="243.989" y1="237.063" x2="247.781" y2="237.063"/><line x1="245.885" y1="235.167" x2="245.885" y2="238.959"/><line x1="243.989" y1="235.167" x2="247.781" y2="238.959"/><line x1="243.989" y1="238.959" x2="247.781" y2="235.167"/>
<line x1="244.442" y1="239.654" x2="248.234" y2="239.654"/><line x1="246.338" y1="237.758" x2="246.338" y2="241.55"/><line x1="244.442" y1="237.758" x2="248.234" y2="241.55"/><line x1="244.442" y1="241.55" x2="248.234" y2="237.758"/>
<line x1="244.895" y1="239.944" x2="248.687" y2="239.944"/><line x1="246.791" y1="238.048" x2="246.791" y2="241.84"/><line x1="244.895" y1="238.048" x2="248.687" y2="241.84"/><line x1="244.895" y1="241.84" x2="248.687" y2="238.048"/>
<line x1="245.347" y1="239.127" x2="249.139" y2="239.127"/><line x1="247.243" y1="237.231" x2="247.243" y2="241.023"/><line x1="245.347" y1="237.231" x2="249.139" y2="241.023"/><line x1="245.347" y1="241.023" x2="249.139" y2="237.231"/>
<line x1="245.8" y1="242.805" x2="249.592" y2="242.805"/><line x1="247.696" y1="240.909" x2="247.696" y2="244.701"/><line x1="245.8" y1="240.909" x2="249.592" y2="244.701"/><line x1="245.8" y1="244.701" x2="249.592" y2="240.909"/>
<line x1="246.253" y1="247.093" x2="250.045" y2="247.093"/><line x1="248.149" y1="245.197" x2="248.149" y2="248.989"/><line x1="246.253" y1="245.197" x2="250.045" y2="248.989"/><line x1="246.253" y1="248.989" x2="250.045" y2="245.197"/>
<line x1="246.705" y1="252.789" x2="250.497" y2="252.789"/><line x1="248.601" y1="250.892" x2="248.601" y2="254.685"/><line x1="246.705" y1="250.892" x2="250.497" y2="254.685"/><line x1="246.705" y1="254.685" x2="250.497" y2="250.892"/>
<line x1="247.158" y1="250.167" x2="250.95" y2="250.167"/><line x1="249.054" y1="248.271" x2="249.054" y2="252.063"/><line x1="247.158" y1="248.271" x2="250.95" y2="252.063"/><line x1="247.158" y1="252.063" x2="250.95" y2="248.271"/>
<line x1="247.611" y1="245.329" x2="251.403" y2="245.329"/><line x1="249.507" y1="243.433" x2="249.507" y2="247.225"/><line x1="247.611" y1="243.433" x2="251.403" y2="247.225"/><line x1="247.611" y1="247.225" x2="251.403" y2="243.433"/>
<line x1="248.063" y1="248.427" x2="251.856" y2="248.427"/><line x1="249.959" y1="246.531" x2="249.959" y2="250.323"/><line x1="248.063" y1="246.531" x2="251.856" y2="250.323"/><line x1="248.063" y1="250.323" x2="251.856" y2="246.531"/>
<line x1="248.516" y1="254.059" x2="252.308" y2="254.059"/><line x1="250.412" y1="252.163" x2="250.412" y2="255.955"/><line x1="248.516" y1="252.163" x2="252.308" y2="255.955"/><line x1="248.516" y1="255.955" x2="252.308" y2="252.163"/>
<line x1="248.969" y1="261.503" x2="252.761" y2="261.503"/><line x1="250.865" y1="259.607" x2="250.865" y2="263.399"/><line x1="248.969" y1="259.607" x2="252.761" y2="263.399"/><line x1="248.969" y1="263.399" x2="252.761" y2="259.607"/>
<line x1="249.421" y1="264.687" x2="253.214" y2="264.687"/><line x1="251.317" y1="262.791" x2="251.317" y2="266.583"/><line x1="249.421" y1="262.791" x2="253.214" y2="266.583"/><line x1="249.421" y1="266.583" x2="253.214" y2="262.791"/>
<line x1="249.874" y1="267.951" x2="253.666" y2="267.951"/><line x1="251.77" y1="266.055" x2="251.77" y2="269.847"/><line x1="249.874" y1="266.055" x2="253.666" y2="269.847"/><line x1="249.874" y1="269.847" x2="253.666" y2="266.055"/>
<line x1="250.327" y1="270.761" x2="254.119" y2="270.761"/><line x1="252.223" y1="268.865" x2="252.223" y2="272.657"/><line x1="250.327" y1="268.865" x2="254.119" y2="272.657"/><line x1="250.327" y1="272.657" x2="254.119" y2="268.865"/>
<line x1="250.779" y1="270.887" x2="254.572" y2="270.887"/><line x1="252.676" y1="268.991" x2="252.676" y2="272.783"/><line x1="250.779" y1="268.991" x2="254.572" y2="272.783"/><line x1="250.779" y1="272.783" x2="254.572" y2="268.991"/>
<line x1="251.232" y1="276.502" x2="255.024" y2="276.502"/><line x1="253.128" y1="274.606" x2="253.128" y2="278.398"/><line x1="251.232" y1="274.606" x2="255.024" y2="278.398"/><line x1="251.232" y1="278.398" x2="255.024" y2="274.606"/>
<line x1="251.685" y1="280.403" x2="255.477" y2="280.403"/><line x1="253.581" y1="278.507" x2="253.581" y2="282.299"/><line x1="251.685" y1="278.507" x2="255.477" y2="282.299"/><line x1="251.685" y1="282.299" x2="255.477" y2="278.507"/>
<line x1="252.137" y1="282.744" x2="255.93" y2="282.744"/><line x1="254.034" y1="280.848" x2="254.034" y2="284.64"/><line x1="252.137" y1="280.848" x2="255.93" y2="284.64"/><line x1="252.137" y1="284.64" x2="255.93" y2="280.848"/>
<line x1="252.59" y1="284.082" x2="256.382" y2="284.082"/><line x1="254.486" y1="282.186" x2="254.486" y2="285.978"/><line x1="252.59" y1="282.186" x2="256.382" y2="285.978"/><line x1="252.59" y1="285.978" x2="256.382" y2="282.186"/>
<line x1="253.043" y1="295.938" x2="256.835" y2="295.938"/><line x1="254.939" y1="294.042" x2="254.939" y2="297.834"/><line x1="253.043" y1="294.042" x2="256.835" y2="297.834"/><line x1="253.043" y1="297.834" x2="256.835" y2="294.042"/>
<line x1="253.496" y1="297.846" x2="257.288" y2="297.846"/><line x1="255.392" y1="295.95" x2="255.392" y2="299.742"/><line x1="253.496" y1="295.95" x2="257.288" y2="299.742"/><line x1="253.496" y1="299.742" x2="257.288" y2="295.95"/>
<line x1="253.948" y1="303.075" x2="257.74" y2="303.075"/><line x1="255.844" y1="301.179" x2="255.844" y2="304.971"/><line x1="253.948" y1="301.179" x2="257.74" y2="304.971"/><line x1="253.948" y1="304.971" x2="257.74" y2="301.179"/>
<line x1="254.401" y1="303.931" x2="258.193" y2="303.931"/><line x1="256.297" y1="302.035" x2="256.297" y2="305.827"/><line x1="254.401" y1="302.035" x2="258.193" y2="305.827"/><line x1="254.401" y1="305.827" x2="258.193" y2="302.035"/>
<line x1="254.854" y1="306.246" x2="258.646" y2="306.246"/><line x1="256.75" y1="304.35" x2="256.75" y2="308.142"/><line x1="254.854" y1="304.35" x2="258.646" y2="308.142"/><line x1="254.854" y1="308.142" x2="258.646" y2="304.35"/>
<line x1="255.306" y1="308.531" x2="259.098" y2="308.531"/><line x1="257.202" y1="306.634" x2="257.202" y2="310.427"/><line x1="255.306" y1="306.634" x2="259.098" y2="310.427"/><line x1="255.306" y1="310.427" x2="259.098" y2="306.634"/>
<line x1="255.759" y1="303.909" x2="259.551" y2="303.909"/><line x1="257.655" y1="302.013" x2="257.655" y2="305.805"/><line x1="255.759" y1="302.013" x2="259.551" y2="305.805"/><line x1="255.759" y1="305.805" x2="259.551" y2="302.013"/>
<line x1="256.212" y1="303.442" x2="260.004" y2="303.442"/><line x1="258.108" y1="301.546" x2="258.108" y2="305.338"/><line x1="256.212" y1="301.546" x2="260.004" y2="305.338"/><line x1="256.212" y1="305.338" x2="260.004" y2="301.546"/>
<line x1="256.664" y1="310.175" x2="260.456" y2="310.175"/><line x1="258.56" y1="308.279" x2="258.56" y2="312.071"/><line x1="256.664" y1="308.279" x2="260.456" y2="312.071"/><line x1="256.664" y1="312.071" x2="260.456" y2="308.279"/>
<line x1="257.117" y1="308.255" x2="260.909" y2="308.255"/><line x1="259.013" y1="306.359" x2="259.013" y2="310.151"/><line x1="257.117" y1="306.359" x2="260.909" y2="310.151"/><line x1="257.117" y1="310.151" x2="260.909" y2="306.359"/>
<line x1="257.57" y1="306.506" x2="261.362" y2="306.506"/><line x1="259.466" y1="304.61" x2="259.466" y2="308.402"/><line x1="257.57" y1="304.61" x2="261.362" y2="308.402"/><line x1="257.57" y1="308.402" x2="261.362" y2="304.61"/>
<line x1="258.022" y1="314.185" x2="261.815" y2="314.185"/><line x1="259.918" y1="312.289" x2="259.918" y2="316.082"/><line x1="258.022" y1="312.289" x2="261.815" y2="316.082"/><line x1="258.022" y1="316.082" x2="261.815" y2="312.289"/>
<line x1="258.475" y1="316.486" x2="262.267" y2="316.486"/><line x1="260.371" y1="314.59" x2="260.371" y2="318.382"/><line x1="258.475" y1="314.59" x2="262.267" y2="318.382"/><line x1="258.475" y1="318.382" x2="262.267" y2="314.59"/>
<line x1="258.928" y1="316.161" x2="262.72" y2="316.161"/><line x1="260.824" y1="314.265" x2="260.824" y2="318.057"/><line x1="258.928" y1="314.265" x2="262.72" y2="318.057"/><line x1="258.928" y1="318.057" x2="262.72" y2="314.265"/>
<line x1="259.38" y1="320.819" x2="263.173" y2="320.819"/><line x1="261.277" y1="318.923" x2="261.277" y2="322.715"/><line x1="259.38" y1="318.923" x2="263.173" y2="322.715"/><line x1="259.38" y1="322.715" x2="263.173" y2="318.923"/>
<line x1="259.833" y1="324.398" x2="263.625" y2="324.398"/><line x1="261.729" y1="322.502" x2="261.729" y2="326.294"/><line x1="259.833" y1="322.502" x2="263.625" y2="326.294"/><line x1="259.833" y1="326.294" x2="263.625" y2="322.502"/>
<line x1="260.286" y1="328.825" x2="264.078" y2="328.825"/><line x1="262.182" y1="326.929" x2="262.182" y2="330.721"/><line x1="260.286" y1="326.929" x2="264.078" y2="330.721"/><line x1="260.286" y1="330.721" x2="264.078" y2="326.929"/>
<line x1="260.738" y1="332.334" x2="264.531" y2="332.334"/><line x1="262.635" y1="330.438" x2="262.635" y2="334.23"/><line x1="260.738" y1="330.438" x2="264.531" y2="334.23"/><line x1="260.738" y1="334.23" x2="264.531" y2="330.438"/>
<line x1="261.191" y1="338.27" x2="264.983" y2="338.27"/><line x1="263.087" y1="336.374" x2="263.087" y2="340.166"/><line x1="261.191" y1="336.374" x2="264.983" y2="340.166"/><line x1="261.191" y1="340.166" x2="264.983" y2="336.374"/>
<line x1="261.644" y1="331.886" x2="265.436" y2="331.886"/><line x1="263.54" y1="329.99" x2="263.54" y2="333.783"/><line x1="261.644" y1="329.99" x2="265.436" y2="333.783"/><line x1="261.644" y1="333.783" x2="265.436" y2="329.99"/>
<line x1="262.097" y1="334.026" x2="265.889" y2="334.026"/><line x1="263.993" y1="332.13" x2="263.993" y2="335.922"/><line x1="262.097" y1="332.13" x2="265.889" y2="335.922"/><line x1="262.097" y1="335.922" x2="265.889" y2="332.13"/>
<line x1="262.549" y1="320.661" x2="266.341" y2="320.661"/><line x1="264.445" y1="318.765" x2="264.445" y2="322.557"/><line x1="262.549" y1="318.765" x2="266.341" y2="322.557"/><line x1="262.549" y1="322.557" x2="266.341" y2="318.765"/>
<line x1="263.002" y1="322.704" x2="266.794" y2="322.704"/><line x1="264.898" y1="320.808" x2="264.898" y2="324.6"/><line x1="263.002" y1="320.808" x2="266.794" y2="324.6"/><line x1="263.002" y1="324.6" x2="266.794" y2="320.808"/>
<line x1="263.455" y1="322.494" x2="267.247" y2="322.494"/><line x1="265.351" y1="320.598" x2="265.351" y2="324.39"/><line x1="263.455" y1="320.598" x2="267.247" y2="324.39"/><line x1="263.455" y1="324.39" x2="267.247" y2="320.598"/>
<line x1="263.907" y1="322.997" x2="267.699" y2="322.997"/><line x1="265.803" y1="321.101" x2="265.803" y2="324.894"/><line x1="263.907" y1="321.101" x2="267.699" y2="324.894"/><line x1="263.907" y1="324.894" x2="267.699" y2="321.101"/>
<line x1="264.36" y1="326.442" x2="268.152" y2="326.442"/><line x1="266.256" y1="324.546" x2="266.256" y2="328.339"/><line x1="264.36" y1="324.546" x2="268.152" y2="328.339"/><line x1="264.36" y1="328.339" x2="268.152" y2="324.546"/>
<line x1="264.813" y1="331.444" x2="268.605" y2="331.444"/><line x1="266.709" y1="329.548" x2="266.709" y2="333.34"/><line x1="264.813" y1="329.548" x2="268.605" y2="333.34"/><line x1="264.813" y1="333.34" x2="268.605" y2="329.548"/>
<line x1="265.265" y1="334.88" x2="269.057" y2="334.88"/><line x1="267.161" y1="332.984" x2="267.161" y2="336.776"/><line x1="265.265" y1="332.984" x2="269.057" y2="336.776"/><line x1="265.265" y1="336.776" x2="269.057" y2="332.984"/>
<line x1="265.718" y1="336.028" x2="269.51" y2="336.028"/><line x1="267.614" y1="334.132" x2="267.614" y2="337.924"/><line x1="265.718" y1="334.132" x2="269.51" y2="337.924"/><line x1="265.718" y1="337.924" x2="269.51" y2="334.132"/>
<line x1="266.171" y1="333.858" x2="269.963" y2="333.858"/><line x1="268.067" y1="331.962" x2="268.067" y2="335.754"/><line x1="266.171" y1="331.962" x2="269.963" y2="335.754"/><line x1="266.171" y1="335.754" x2="269.963" y2="331.962"/>
<line x1="266.623" y1="328.916" x2="270.416" y2="328.916"/><line x1="268.519" y1="327.02" x2="268.519" y2="330.812"/><line x1="266.623" y1="327.02" x2="270.416" y2="330.812"/><line x1="266.623" y1="330.812" x2="270.416" y2="327.02"/>
<line x1="267.076" y1="329.449" x2="270.868" y2="329.449"/><line x1="268.972" y1="327.553" x2="268.972" y2="331.345"/><line x1="267.076" y1="327.553" x2="270.868" y2="331.345"/><line x1="267.076" y1="331.345" x2="270.868" y2="327.553"/>
<line x1="267.529" y1="333.863" x2="271.321" y2="333.863"/><line x1="269.425" y1="331.967" x2="269.425" y2="335.759"/><line x1="267.529" y1="331.967" x2="271.321" y2="335.759"/><line x1="267.529" y1="335.759" x2="271.321" y2="331.967"/>
<line x1="267.981" y1="336.647" x2="271.774" y2="336.647"/><line x1="269.878" y1="334.751" x2="269.878" y2="338.543"/><line x1="267.981" y1="334.751" x2="271.774" y2="338.543"/><line x1="267.981" y1="338.543" x2="271.774" y2="334.751"/>
<line x1="268.434" y1="337.446" x2="272.226" y2="337.446"/><line x1="270.33" y1="335.55" x2="270.33" y2="339.342"/><line x1="268.434" y1="335.55" x2="272.226" y2="339.342"/><line x1="268.434" y1="339.342" x2="272.226" y2="335.55"/>
<line x1="268.887" y1="340.4" x2="272.679" y2="340.4"/><line x1="270.783" y1="338.504" x2="270.783" y2="342.296"/><line x1="268.887" y1="338.504" x2="272.679" y2="342.296"/><line x1="268.887" y1="342.296" x2="272.679" y2="338.504"/>
<line x1="269.339" y1="340.918" x2="273.132" y2="340.918"/><line x1="271.236" y1="339.022" x2="271.236" y2="342.814"/><line x1="269.339" y1="339.022" x2="273.132" y2="342.814"/><line x1="269.339" y1="342.814" x2="273.132" y2="339.022"/>
<line x1="269.792" y1="343.355" x2="273.584" y2="343.355"/><line x1="271.688" y1="341.459" x2="271.688" y2="345.251"/><line x1="269.792" y1="341.459" x2="273.584" y2="345.251"/><line x1="269.792" y1="345.251" x2="273.584" y2="341.459"/>
<line x1="270.245" y1="340.352" x2="274.037" y2="340.352"/><line x1="272.141" y1="338.456" x2="272.141" y2="342.248"/><line x1="270.245" y1="338.456" x2="274.037" y2="342.248"/><line x1="270.245" y1="342.248" x2="274.037" y2="338.456"/>
<line x1="270.698" y1="342.219" x2="274.49" y2="342.219"/><line x1="272.594" y1="340.323" x2="272.594" y2="344.115"/><line x1="270.698" y1="340.323" x2="274.49" y2="344.115"/><line x1="270.698" y1="344.115" x2="274.49" y2="340.323"/>
<line x1="271.15" y1="343.714" x2="274.942" y2="343.714"/><line x1="273.046" y1="341.818" x2="273.046" y2="345.61"/><line x1="271.15" y1="341.818" x2="274.942" y2="345.61"/><line x1="271.15" y1="345.61" x2="274.942" y2="341.818"/>
<line x1="271.603" y1="341.728" x2="275.395" y2="341.728"/><line x1="273.499" y1="339.832" x2="273.499" y2="343.624"/><line x1="271.603" y1="339.832" x2="275.395" y2="343.624"/><line x1="271.603" y1="343.624" x2="275.395" y2="339.832"/>
<line x1="272.056" y1="340.45" x2="275.848" y2="340.45"/><line x1="273.952" y1="338.554" x2="273.952" y2="342.346"/><line x1="272.056" y1="338.554" x2="275.848" y2="342.346"/><line x1="272.056" y1="342.346" x2="275.848" y2="338.554"/>
<line x1="272.508" y1="340.219" x2="276.3" y2="340.219"/><line x1="274.404" y1="338.323" x2="274.404" y2="342.116"/><line x1="272.508" y1="338.323" x2="276.3" y2="342.116"/><line x1="272.508" y1="342.116" x2="276.3" y2="338.323"/>
<line x1="272.961" y1="343.553" x2="276.753" y2="343.553"/><line x1="274.857" y1="341.657" x2="274.857" y2="345.449"/><line x1="272.961" y1="341.657" x2="276.753" y2="345.449"/><line x1="272.961" y1="345.449" x2="276.753" y2="341.657"/>
<line x1="273.414" y1="340.386" x2="277.206" y2="340.386"/><line x1="275.31" y1="338.49" x2="275.31" y2="342.282"/><line x1="273.414" y1="338.49" x2="277.206" y2="342.282"/><line x1="273.414" y1="342.282" x2="277.206" y2="338.49"/>
<line x1="273.866" y1="343.104" x2="277.658" y2="343.104"/><line x1="275.762" y1="341.208" x2="275.762" y2="345"/><line x1="273.866" y1="341.208" x2="277.658" y2="345"/><line x1="273.866" y1="345" x2="277.658" y2="341.208"/>
<line x1="274.319" y1="332.374" x2="278.111" y2="332.374"/><line x1="276.215" y1="330.478" x2="276.215" y2="334.27"/><line x1="274.319" y1="330.478" x2="278.111" y2="334.27"/><line x1="274.319" y1="334.27" x2="278.111" y2="330.478"/>
<line x1="274.772" y1="335.248" x2="278.564" y2="335.248"/><line x1="276.668" y1="333.352" x2="276.668" y2="337.144"/><line x1="274.772" y1="333.352" x2="278.564" y2="337.144"/><line x1="274.772" y1="337.144" x2="278.564" y2="333.352"/>
<line x1="275.224" y1="338.205" x2="279.017" y2="338.205"/><line x1="277.12" y1="336.309" x2="277.12" y2="340.101"/><line x1="275.224" y1="336.309" x2="279.017" y2="340.101"/><line x1="275.224" y1="340.101" x2="279.017" y2="336.309"/>
<line x1="275.677" y1="341.431" x2="279.469" y2="341.431"/><line x1="277.573" y1="339.535" x2="277.573" y2="343.327"/><line x1="275.677" y1="339.535" x2="279.469" y2="343.327"/><line x1="275.677" y1="343.327" x2="279.469" y2="339.535"/>
<line x1="276.13" y1="344.732" x2="279.922" y2="344.732"/><line x1="278.026" y1="342.836" x2="278.026" y2="346.628"/><line x1="276.13" y1="342.836" x2="279.922" y2="346.628"/><line x1="276.13" y1="346.628" x2="279.922" y2="342.836"/>
<line x1="276.582" y1="343.914" x2="280.375" y2="343.914"/><line x1="278.478" y1="342.018" x2="278.478" y2="345.811"/><line x1="276.582" y1="342.018" x2="280.375" y2="345.811"/><line x1="276.582" y1="345.811" x2="280.375" y2="342.018"/>
<line x1="277.035" y1="349.302" x2="280.827" y2="349.302"/><line x1="278.931" y1="347.405" x2="278.931" y2="351.198"/><line x1="277.035" y1="347.405" x2="280.827" y2="351.198"/><line x1="277.035" y1="351.198" x2="280.827" y2="347.405"/>
<line x1="277.488" y1="343.525" x2="281.28" y2="343.525"/><line x1="279.384" y1="341.629" x2="279.384" y2="345.421"/><line x1="277.488" y1="341.629" x2="281.28" y2="345.421"/><line x1="277.488" y1="345.421" x2="281.28" y2="341.629"/>
<line x1="277.94" y1="342.037" x2="281.733" y2="342.037"/><line x1="279.837" y1="340.141" x2="279.837" y2="343.933"/><line x1="277.94" y1="340.141" x2="281.733" y2="343.933"/><line x1="277.94" y1="343.933" x2="281.733" y2="340.141"/>
<line x1="278.393" y1="341.307" x2="282.185" y2="341.307"/><line x1="280.289" y1="339.411" x2="280.289" y2="343.203"/><line x1="278.393" y1="339.411" x2="282.185" y2="343.203"/><line x1="278.393" y1="343.203" x2="282.185" y2="339.411"/>
<line x1="278.846" y1="342.325" x2="282.638" y2="342.325"/><line x1="280.742" y1="340.429" x2="280.742" y2="344.221"/><line x1="278.846" y1="340.429" x2="282.638" y2="344.221"/><line x1="278.846" y1="344.221" x2="282.638" y2="340.429"/>
<line x1="279.298" y1="343.823" x2="283.091" y2="343.823"/><line x1="281.195" y1="341.927" x2="281.195" y2="345.719"/><line x1="279.298" y1="341.927" x2="283.091" y2="345.719"/><line x1="279.298" y1="345.719" x2="283.091" y2="341.927"/>
<line x1="279.751" y1="339.236" x2="283.543" y2="339.236"/><line x1="281.647" y1="337.34" x2="281.647" y2="341.132"/><line x1="279.751" y1="337.34" x2="283.543" y2="341.132"/><line x1="279.751" y1="341.132" x2="283.543" y2="337.34"/>
<line x1="280.204" y1="337.094" x2="283.996" y2="337.094"/><line x1="282.1" y1="335.198" x2="282.1" y2="338.99"/><line x1="280.204" y1="335.198" x2="283.996" y2="338.99"/><line x1="280.204" y1="338.99" x2="283.996" y2="335.198"/>
<line x1="280.657" y1="341.656" x2="284.449" y2="341.656"/><line x1="282.553" y1="339.76" x2="282.553" y2="343.552"/><line x1="280.657" y1="339.76" x2="284.449" y2="343.552"/><line x1="280.657" y1="343.552" x2="284.449" y2="339.76"/>
<line x1="281.109" y1="347.176" x2="284.901" y2="347.176"/><line x1="283.005" y1="345.28" x2="283.005" y2="349.072"/><line x1="281.109" y1="345.28" x2="284.901" y2="349.072"/><line x1="281.109" y1="349.072" x2="284.901" y2="345.28"/>
<line x1="281.562" y1="351.669" x2="285.354" y2="351.669"/><line x1="283.458" y1="349.773" x2="283.458" y2="353.565"/><line x1="281.562" y1="349.773" x2="285.354" y2="353.565"/><line x1="281.562" y1="353.565" x2="285.354" y2="349.773"/>
<line x1="282.015" y1="356.265" x2="285.807" y2="356.265"/><line x1="283.911" y1="354.369" x2="283.911" y2="358.161"/><line x1="282.015" y1="354.369" x2="285.807" y2="358.161"/><line x1="282.015" y1="358.161" x2="285.807" y2="354.369"/>
<line x1="282.467" y1="345.263" x2="286.259" y2="345.263"/><line x1="284.363" y1="343.367" x2="284.363" y2="347.159"/><line x1="282.467" y1="343.367" x2="286.259" y2="347.159"/><line x1="282.467" y1="347.159" x2="286.259" y2="343.367"/>
<line x1="282.92" y1="343.161" x2="286.712" y2="343.161"/><line x1="284.816" y1="341.265" x2="284.816" y2="345.057"/><line x1="282.92" y1="341.265" x2="286.712" y2="345.057"/><line x1="282.92" y1="345.057" x2="286.712" y2="341.265"/>
<line x1="283.373" y1="344.471" x2="287.165" y2="344.471"/><line x1="285.269" y1="342.575" x2="285.269" y2="346.367"/><line x1="283.373" y1="342.575" x2="287.165" y2="346.367"/><line x1="283.373" y1="346.367" x2="287.165" y2="342.575"/>
<line x1="283.825" y1="344.221" x2="287.617" y2="344.221"/><line x1="285.721" y1="342.325" x2="285.721" y2="346.117"/><line x1="283.825" y1="342.325" x2="287.617" y2="346.117"/><line x1="283.825" y1="346.117" x2="287.617" y2="342.325"/>
<line x1="284.278" y1="340.017" x2="288.07" y2="340.017"/><line x1="286.174" y1="338.121" x2="286.174" y2="341.913"/><line x1="284.278" y1="338.121" x2="288.07" y2="341.913"/><line x1="284.278" y1="341.913" x2="288.07" y2="338.121"/>
<line x1="284.731" y1="346.348" x2="288.523" y2="346.348"/><line x1="286.627" y1="344.452" x2="286.627" y2="348.245"/><line x1="284.731" y1="344.452" x2="288.523" y2="348.245"/><line x1="284.731" y1="348.245" x2="288.523" y2="344.452"/>
<line x1="285.183" y1="342.362" x2="288.976" y2="342.362"/><line x1="287.079" y1="340.466" x2="287.079" y2="344.258"/><line x1="285.183" y1="340.466" x2="288.976" y2="344.258"/><line x1="285.183" y1="344.258" x2="288.976" y2="340.466"/>
<line x1="285.636" y1="348.591" x2="289.428" y2="348.591"/><line x1="287.532" y1="346.695" x2="287.532" y2="350.487"/><line x1="285.636" y1="346.695" x2="289.428" y2="350.487"/><line x1="285.636" y1="350.487" x2="289.428" y2="346.695"/>
<line x1="286.089" y1="347.876" x2="289.881" y2="347.876"/><line x1="287.985" y1="345.98" x2="287.985" y2="349.773"/><line x1="286.089" y1="345.98" x2="289.881" y2="349.773"/><line x1="286.089" y1="349.773" x2="289.881" y2="345.98"/>
<line x1="286.541" y1="350.128" x2="290.334" y2="350.128"/><line x1="288.438" y1="348.232" x2="288.438" y2="352.024"/><line x1="286.541" y1="348.232" x2="290.334" y2="352.024"/><line x1="286.541" y1="352.024" x2="290.334" y2="348.232"/>
<line x1="286.994" y1="348.331" x2="290.786" y2="348.331"/><line x1="288.89" y1="346.435" x2="288.89" y2="350.227"/><line x1="286.994" y1="346.435" x2="290.786" y2="350.227"/><line x1="286.994" y1="350.227" x2="290.786" y2="346.435"/>
<line x1="287.447" y1="347.657" x2="291.239" y2="347.657"/><line x1="289.343" y1="345.761" x2="289.343" y2="349.553"/><line x1="287.447" y1="345.761" x2="291.239" y2="349.553"/><line x1="287.447" y1="349.553" x2="291.239" y2="345.761"/>
<line x1="287.899" y1="343.736" x2="291.692" y2="343.736"/><line x1="289.796" y1="341.839" x2="289.796" y2="345.632"/><line x1="287.899" y1="341.839" x2="291.692" y2="345.632"/><line x1="287.899" y1="345.632" x2="291.692" y2="341.839"/>
<line x1="288.352" y1="341.449" x2="292.144" y2="341.449"/><line x1="290.248" y1="339.553" x2="290.248" y2="343.345"/><line x1="288.352" y1="339.553" x2="292.144" y2="343.345"/><line x1="288.352" y1="343.345" x2="292.144" y2="339.553"/>
<line x1="288.805" y1="344.828" x2="292.597" y2="344.828"/><line x1="290.701" y1="342.932" x2="290.701" y2="346.724"/><line x1="288.805" y1="342.932" x2="292.597" y2="346.724"/><line x1="288.805" y1="346.724" x2="292.597" y2="342.932"/>
<line x1="289.258" y1="339.031" x2="293.05" y2="339.031"/><line x1="291.154" y1="337.135" x2="291.154" y2="340.927"/><line x1="289.258" y1="337.135" x2="293.05" y2="340.927"/><line x1="289.258" y1="340.927" x2="293.05" y2="337.135"/>
<line x1="289.71" y1="339.587" x2="293.502" y2="339.587"/><line x1="291.606" y1="337.691" x2="291.606" y2="341.483"/><line x1="289.71" y1="337.691" x2="293.502" y2="341.483"/><line x1="289.71" y1="341.483" x2="293.502" y2="337.691"/>
<line x1="290.163" y1="340.132" x2="293.955" y2="340.132"/><line x1="292.059" y1="338.236" x2="292.059" y2="342.028"/><line x1="290.163" y1="338.236" x2="293.955" y2="342.028"/><line x1="290.163" y1="342.028" x2="293.955" y2="338.236"/>
<line x1="290.616" y1="326.34" x2="294.408" y2="326.34"/><line x1="292.512" y1="324.444" x2="292.512" y2="328.236"/><line x1="290.616" y1="324.444" x2="294.408" y2="328.236"/><line x1="290.616" y1="328.236" x2="294.408" y2="324.444"/>
<line x1="291.068" y1="315.775" x2="294.86" y2="315.775"/><line x1="292.964" y1="313.879" x2="292.964" y2="317.671"/><line x1="291.068" y1="313.879" x2="294.86" y2="317.671"/><line x1="291.068" y1="317.671" x2="294.86" y2="313.879"/>
<line x1="291.521" y1="315.023" x2="295.313" y2="315.023"/><line x1="293.417" y1="313.127" x2="293.417" y2="316.919"/><line x1="291.521" y1="313.127" x2="295.313" y2="316.919"/><line x1="291.521" y1="316.919" x2="295.313" y2="313.127"/>
<line x1="291.974" y1="306.461" x2="295.766" y2="306.461"/><line x1="293.87" y1="304.565" x2="293.87" y2="308.357"/><line x1="291.974" y1="304.565" x2="295.766" y2="308.357"/><line x1="291.974" y1="308.357" x2="295.766" y2="304.565"/>
<line x1="292.426" y1="300.866" x2="296.218" y2="300.866"/><line x1="294.322" y1="298.97" x2="294.322" y2="302.762"/><line x1="292.426" y1="298.97" x2="296.218" y2="302.762"/><line x1="292.426" y1="302.762" x2="296.218" y2="298.97"/>
<line x1="292.879" y1="306.818" x2="296.671" y2="306.818"/><line x1="294.775" y1="304.922" x2="294.775" y2="308.714"/><line x1="292.879" y1="304.922" x2="296.671" y2="308.714"/><line x1="292.879" y1="308.714" x2="296.671" y2="304.922"/>
<line x1="293.332" y1="307.9" x2="297.124" y2="307.9"/><line x1="295.228" y1="306.004" x2="295.228" y2="309.796"/><line x1="293.332" y1="306.004" x2="297.124" y2="309.796"/><line x1="293.332" y1="309.796" x2="297.124" y2="306.004"/>
<line x1="293.784" y1="319.024" x2="297.577" y2="319.024"/><line x1="295.68" y1="317.128" x2="295.68" y2="320.92"/><line x1="293.784" y1="317.128" x2="297.577" y2="320.92"/><line x1="293.784" y1="320.92" x2="297.577" y2="317.128"/>
<line x1="294.237" y1="321.705" x2="298.029" y2="321.705"/><line x1="296.133" y1="319.809" x2="296.133" y2="323.601"/><line x1="294.237" y1="319.809" x2="298.029" y2="323.601"/><line x1="294.237" y1="323.601" x2="298.029" y2="319.809"/>
<line x1="294.69" y1="321.885" x2="298.482" y2="321.885"/><line x1="296.586" y1="319.989" x2="296.586" y2="323.781"/><line x1="294.69" y1="319.989" x2="298.482" y2="323.781"/><line x1="294.69" y1="323.781" x2="298.482" y2="319.989"/>
<line x1="295.142" y1="322.816" x2="298.935" y2="322.816"/><line x1="297.038" y1="320.919" x2="297.038" y2="324.712"/><line x1="295.142" y1="320.919" x2="298.935" y2="324.712"/><line x1="295.142" y1="324.712" x2="298.935" y2="320.919"/>
<line x1="295.595" y1="317.711" x2="299.387" y2="317.711"/><line x1="297.491" y1="315.815" x2="297.491" y2="319.607"/><line x1="295.595" y1="315.815" x2="299.387" y2="319.607"/><line x1="295.595" y1="319.607" x2="299.387" y2="315.815"/>
<line x1="296.048" y1="318.026" x2="299.84" y2="318.026"/><line x1="297.944" y1="316.13" x2="297.944" y2="319.922"/><line x1="296.048" y1="316.13" x2="299.84" y2="319.922"/><line x1="296.048" y1="319.922" x2="299.84" y2="316.13"/>
<line x1="296.5" y1="314.24" x2="300.293" y2="314.24"/><line x1="298.397" y1="312.344" x2="298.397" y2="316.136"/><line x1="296.5" y1="312.344" x2="300.293" y2="316.136"/><line x1="296.5" y1="316.136" x2="300.293" y2="312.344"/>
<line x1="296.953" y1="319.439" x2="300.745" y2="319.439"/><line x1="298.849" y1="317.543" x2="298.849" y2="321.335"/><line x1="296.953" y1="317.543" x2="300.745" y2="321.335"/><line x1="296.953" y1="321.335" x2="300.745" y2="317.543"/>
<line x1="297.406" y1="322.969" x2="301.198" y2="322.969"/><line x1="299.302" y1="321.073" x2="299.302" y2="324.865"/><line x1="297.406" y1="321.073" x2="301.198" y2="324.865"/><line x1="297.406" y1="324.865" x2="301.198" y2="321.073"/>
<line x1="297.858" y1="322.568" x2="301.651" y2="322.568"/><line x1="299.755" y1="320.672" x2="299.755" y2="324.464"/><line x1="297.858" y1="320.672" x2="301.651" y2="324.464"/><line x1="297.858" y1="324.464" x2="301.651" y2="320.672"/>
<line x1="298.311" y1="315.336" x2="302.103" y2="315.336"/><line x1="300.207" y1="313.44" x2="300.207" y2="317.232"/><line x1="298.311" y1="313.44" x2="302.103" y2="317.232"/><line x1="298.311" y1="317.232" x2="302.103" y2="313.44"/>
<line x1="298.764" y1="319.824" x2="302.556" y2="319.824"/><line x1="300.66" y1="317.928" x2="300.66" y2="321.72"/><line x1="298.764" y1="317.928" x2="302.556" y2="321.72"/><line x1="298.764" y1="321.72" x2="302.556" y2="317.928"/>
<line x1="299.217" y1="315.429" x2="303.009" y2="315.429"/><line x1="301.113" y1="313.533" x2="301.113" y2="317.325"/><line x1="299.217" y1="313.533" x2="303.009" y2="317.325"/><line x1="299.217" y1="317.325" x2="303.009" y2="313.533"/>
<line x1="299.669" y1="320.376" x2="303.461" y2="320.376"/><line x1="301.565" y1="318.48" x2="301.565" y2="322.273"/><line x1="299.669" y1="318.48" x2="303.461" y2="322.273"/><line x1="299.669" y1="322.273" x2="303.461" y2="318.48"/>
<line x1="300.122" y1="312.647" x2="303.914" y2="312.647"/><line x1="302.018" y1="310.751" x2="302.018" y2="314.544"/><line x1="300.122" y1="310.751" x2="303.914" y2="314.544"/><line x1="300.122" y1="314.544" x2="303.914" y2="310.751"/>
<line x1="300.575" y1="309.184" x2="304.367" y2="309.184"/><line x1="302.471" y1="307.288" x2="302.471" y2="311.08"/><line x1="300.575" y1="307.288" x2="304.367" y2="311.08"/><line x1="300.575" y1="311.08" x2="304.367" y2="307.288"/>
<line x1="301.027" y1="314.688" x2="304.819" y2="314.688"/><line x1="302.923" y1="312.792" x2="302.923" y2="316.584"/><line x1="301.027" y1="312.792" x2="304.819" y2="316.584"/><line x1="301.027" y1="316.584" x2="304.819" y2="312.792"/>
<line x1="301.48" y1="314.184" x2="305.272" y2="314.184"/><line x1="303.376" y1="312.288" x2="303.376" y2="316.08"/><line x1="301.48" y1="312.288" x2="305.272" y2="316.08"/><line x1="301.48" y1="316.08" x2="305.272" y2="312.288"/>
<line x1="301.933" y1="308.677" x2="305.725" y2="308.677"/><line x1="303.829" y1="306.781" x2="303.829" y2="310.573"/><line x1="301.933" y1="306.781" x2="305.725" y2="310.573"/><line x1="301.933" y1="310.573" x2="305.725" y2="306.781"/>
<line x1="302.385" y1="307.919" x2="306.177" y2="307.919"/><line x1="304.281" y1="306.023" x2="304.281" y2="309.815"/><line x1="302.385" y1="306.023" x2="306.177" y2="309.815"/><line x1="302.385" y1="309.815" x2="306.177" y2="306.023"/>
<line x1="302.838" y1="310.599" x2="306.63" y2="310.599"/><line x1="304.734" y1="308.703" x2="304.734" y2="312.496"/><line x1="302.838" y1="308.703" x2="306.63" y2="312.496"/><line x1="302.838" y1="312.496" x2="306.63" y2="308.703"/>
<line x1="303.291" y1="310.586" x2="307.083" y2="310.586"/><line x1="305.187" y1="308.69" x2="305.187" y2="312.482"/><line x1="303.291" y1="308.69" x2="307.083" y2="312.482"/><line x1="303.291" y1="312.482" x2="307.083" y2="308.69"/>
<line x1="303.743" y1="313.912" x2="307.536" y2="313.912"/><line x1="305.639" y1="312.016" x2="305.639" y2="315.808"/><line x1="303.743" y1="312.016" x2="307.536" y2="315.808"/><line x1="303.743" y1="315.808" x2="307.536" y2="312.016"/>
<line x1="304.196" y1="314.091" x2="307.988" y2="314.091"/><line x1="306.092" y1="312.195" x2="306.092" y2="315.988"/><line x1="304.196" y1="312.195" x2="307.988" y2="315.988"/><line x1="304.196" y1="315.988" x2="307.988" y2="312.195"/>
<line x1="304.649" y1="314.112" x2="308.441" y2="314.112"/><line x1="306.545" y1="312.216" x2="306.545" y2="316.008"/><line x1="304.649" y1="312.216" x2="308.441" y2="316.008"/><line x1="304.649" y1="316.008" x2="308.441" y2="312.216"/>
<line x1="305.101" y1="316.702" x2="308.894" y2="316.702"/><line x1="306.998" y1="314.805" x2="306.998" y2="318.598"/><line x1="305.101" y1="314.805" x2="308.894" y2="318.598"/><line x1="305.101" y1="318.598" x2="308.894" y2="314.805"/>
<line x1="305.554" y1="311.508" x2="309.346" y2="311.508"/><line x1="307.45" y1="309.612" x2="307.45" y2="313.404"/><line x1="305.554" y1="309.612" x2="309.346" y2="313.404"/><line x1="305.554" y1="313.404" x2="309.346" y2="309.612"/>
<line x1="306.007" y1="306.265" x2="309.799" y2="306.265"/><line x1="307.903" y1="304.369" x2="307.903" y2="308.161"/><line x1="306.007" y1="304.369" x2="309.799" y2="308.161"/><line x1="306.007" y1="308.161" x2="309.799" y2="304.369"/>
<line x1="306.459" y1="304.878" x2="310.252" y2="304.878"/><line x1="308.356" y1="302.982" x2="308.356" y2="306.775"/><line x1="306.459" y1="302.982" x2="310.252" y2="306.775"/><line x1="306.459" y1="306.775" x2="310.252" y2="302.982"/>
<line x1="306.912" y1="307.711" x2="310.704" y2="307.711"/><line x1="308.808" y1="305.815" x2="308.808" y2="309.607"/><line x1="306.912" y1="305.815" x2="310.704" y2="309.607"/><line x1="306.912" y1="309.607" x2="310.704" y2="305.815"/>
<line x1="307.365" y1="301.629" x2="311.157" y2="301.629"/><line x1="309.261" y1="299.732" x2="309.261" y2="303.525"/><line x1="307.365" y1="299.732" x2="311.157" y2="303.525"/><line x1="307.365" y1="303.525" x2="311.157" y2="299.732"/>
<line x1="307.818" y1="307.343" x2="311.61" y2="307.343"/><line x1="309.714" y1="305.447" x2="309.714" y2="309.239"/><line x1="307.818" y1="305.447" x2="311.61" y2="309.239"/><line x1="307.818" y1="309.239" x2="311.61" y2="305.447"/>
<line x1="308.27" y1="307.574" x2="312.062" y2="307.574"/><line x1="310.166" y1="305.678" x2="310.166" y2="309.47"/><line x1="308.27" y1="305.678" x2="312.062" y2="309.47"/><line x1="308.27" y1="309.47" x2="312.062" y2="305.678"/>
<line x1="308.723" y1="305.907" x2="312.515" y2="305.907"/><line x1="310.619" y1="304.011" x2="310.619" y2="307.803"/><line x1="308.723" y1="304.011" x2="312.515" y2="307.803"/><line x1="308.723" y1="307.803" x2="312.515" y2="304.011"/>
<line x1="309.176" y1="303" x2="312.968" y2="303"/><line x1="311.072" y1="301.103" x2="311.072" y2="304.896"/><line x1="309.176" y1="301.103" x2="312.968" y2="304.896"/><line x1="309.176" y1="304.896" x2="312.968" y2="301.103"/>
<line x1="309.628" y1="300.788" x2="313.42" y2="300.788"/><line x1="311.524" y1="298.892" x2="311.524" y2="302.684"/><line x1="309.628" y1="298.892" x2="313.42" y2="302.684"/><line x1="309.628" y1="302.684" x2="313.42" y2="298.892"/>
<line x1="310.081" y1="299.936" x2="313.873" y2="299.936"/><line x1="311.977" y1="298.04" x2="311.977" y2="301.832"/><line x1="310.081" y1="298.04" x2="313.873" y2="301.832"/><line x1="310.081" y1="301.832" x2="313.873" y2="298.04"/>
<line x1="310.534" y1="297.031" x2="314.326" y2="297.031"/><line x1="312.43" y1="295.135" x2="312.43" y2="298.927"/><line x1="310.534" y1="295.135" x2="314.326" y2="298.927"/><line x1="310.534" y1="298.927" x2="314.326" y2="295.135"/>
<line x1="310.986" y1="297.508" x2="314.778" y2="297.508"/><line x1="312.882" y1="295.612" x2="312.882" y2="299.404"/><line x1="310.986" y1="295.612" x2="314.778" y2="299.404"/><line x1="310.986" y1="299.404" x2="314.778" y2="295.612"/>
<line x1="311.439" y1="302.018" x2="315.231" y2="302.018"/><line x1="313.335" y1="300.122" x2="313.335" y2="303.914"/><line x1="311.439" y1="300.122" x2="315.231" y2="303.914"/><line x1="311.439" y1="303.914" x2="315.231" y2="300.122"/>
<line x1="311.892" y1="297.195" x2="315.684" y2="297.195"/><line x1="313.788" y1="295.299" x2="313.788" y2="299.092"/><line x1="311.892" y1="295.299" x2="315.684" y2="299.092"/><line x1="311.892" y1="299.092" x2="315.684" y2="295.299"/>
<line x1="312.344" y1="297.072" x2="316.137" y2="297.072"/><line x1="314.24" y1="295.175" x2="314.24" y2="298.968"/><line x1="312.344" y1="295.175" x2="316.137" y2="298.968"/><line x1="312.344" y1="298.968" x2="316.137" y2="295.175"/>
<line x1="312.797" y1="293.874" x2="316.589" y2="293.874"/><line x1="314.693" y1="291.978" x2="314.693" y2="295.77"/><line x1="312.797" y1="291.978" x2="316.589" y2="295.77"/><line x1="312.797" y1="295.77" x2="316.589" y2="291.978"/>
<line x1="313.25" y1="291.471" x2="317.042" y2="291.471"/><line x1="315.146" y1="289.575" x2="315.146" y2="293.367"/><line x1="313.25" y1="289.575" x2="317.042" y2="293.367"/><line x1="313.25" y1="293.367" x2="317.042" y2="289.575"/>
<line x1="313.702" y1="287.498" x2="317.495" y2="287.498"/><line x1="315.599" y1="285.602" x2="315.599" y2="289.394"/><line x1="313.702" y1="285.602" x2="317.495" y2="289.394"/><line x1="313.702" y1="289.394" x2="317.495" y2="285.602"/>
<line x1="314.155" y1="294.659" x2="317.947" y2="294.659"/><line x1="316.051" y1="292.763" x2="316.051" y2="296.555"/><line x1="314.155" y1="292.763" x2="317.947" y2="296.555"/><line x1="314.155" y1="296.555" x2="317.947" y2="292.763"/>
<line x1="314.608" y1="298.666" x2="318.4" y2="298.666"/><line x1="316.504" y1="296.77" x2="316.504" y2="300.563"/><line x1="314.608" y1="296.77" x2="318.4" y2="300.563"/><line x1="314.608" y1="300.563" x2="318.4" y2="296.77"/>
<line x1="315.06" y1="288.861" x2="318.853" y2="288.861"/><line x1="316.957" y1="286.965" x2="316.957" y2="290.757"/><line x1="315.06" y1="286.965" x2="318.853" y2="290.757"/><line x1="315.06" y1="290.757" x2="318.853" y2="286.965"/>
<line x1="315.513" y1="285.05" x2="319.305" y2="285.05"/><line x1="317.409" y1="283.154" x2="317.409" y2="286.946"/><line x1="315.513" y1="283.154" x2="319.305" y2="286.946"/><line x1="315.513" y1="286.946" x2="319.305" y2="283.154"/>
<line x1="315.966" y1="281.479" x2="319.758" y2="281.479"/><line x1="317.862" y1="279.583" x2="317.862" y2="283.375"/><line x1="315.966" y1="279.583" x2="319.758" y2="283.375"/><line x1="315.966" y1="283.375" x2="319.758" y2="279.583"/>
<line x1="316.419" y1="294.923" x2="320.211" y2="294.923"/><line x1="318.315" y1="293.027" x2="318.315" y2="296.82"/><line x1="316.419" y1="293.027" x2="320.211" y2="296.82"/><line x1="316.419" y1="296.82" x2="320.211" y2="293.027"/>
<line x1="316.871" y1="294.327" x2="320.663" y2="294.327"/><line x1="318.767" y1="292.431" x2="318.767" y2="296.223"/><line x1="316.871" y1="292.431" x2="320.663" y2="296.223"/><line x1="316.871" y1="296.223" x2="320.663" y2="292.431"/>
<line x1="317.324" y1="294.483" x2="321.116" y2="294.483"/><line x1="319.22" y1="292.586" x2="319.22" y2="296.379"/><line x1="317.324" y1="292.586" x2="321.116" y2="296.379"/><line x1="317.324" y1="296.379" x2="321.116" y2="292.586"/>
<line x1="317.777" y1="295.416" x2="321.569" y2="295.416"/><line x1="319.673" y1="293.52" x2="319.673" y2="297.312"/><line x1="317.777" y1="293.52" x2="321.569" y2="297.312"/><line x1="317.777" y1="297.312" x2="321.569" y2="293.52"/>
<line x1="318.229" y1="292.428" x2="322.021" y2="292.428"/><line x1="320.125" y1="290.532" x2="320.125" y2="294.324"/><line x1="318.229" y1="290.532" x2="322.021" y2="294.324"/><line x1="318.229" y1="294.324" x2="322.021" y2="290.532"/>
<line x1="318.682" y1="293.344" x2="322.474" y2="293.344"/><line x1="320.578" y1="291.448" x2="320.578" y2="295.24"/><line x1="318.682" y1="291.448" x2="322.474" y2="295.24"/><line x1="318.682" y1="295.24" x2="322.474" y2="291.448"/>
<line x1="319.135" y1="294.679" x2="322.927" y2="294.679"/><line x1="321.031" y1="292.783" x2="321.031" y2="296.576"/><line x1="319.135" y1="292.783" x2="322.927" y2="296.576"/><line x1="319.135" y1="296.576" x2="322.927" y2="292.783"/>
<line x1="319.587" y1="291.646" x2="323.379" y2="291.646"/><line x1="321.483" y1="289.749" x2="321.483" y2="293.542"/><line x1="319.587" y1="289.749" x2="323.379" y2="293.542"/><line x1="319.587" y1="293.542" x2="323.379" y2="289.749"/>
<line x1="320.04" y1="288.406" x2="323.832" y2="288.406"/><line x1="321.936" y1="286.51" x2="321.936" y2="290.302"/><line x1="320.04" y1="286.51" x2="323.832" y2="290.302"/><line x1="320.04" y1="290.302" x2="323.832" y2="286.51"/>
<line x1="320.493" y1="283.034" x2="324.285" y2="283.034"/><line x1="322.389" y1="281.138" x2="322.389" y2="284.93"/><line x1="320.493" y1="281.138" x2="324.285" y2="284.93"/><line x1="320.493" y1="284.93" x2="324.285" y2="281.138"/>
<line x1="320.945" y1="275.601" x2="324.738" y2="275.601"/><line x1="322.841" y1="273.705" x2="322.841" y2="277.497"/><line x1="320.945" y1="273.705" x2="324.738" y2="277.497"/><line x1="320.945" y1="277.497" x2="324.738" y2="273.705"/>
<line x1="321.398" y1="273.372" x2="325.19" y2="273.372"/><line x1="323.294" y1="271.476" x2="323.294" y2="275.268"/><line x1="321.398" y1="271.476" x2="325.19" y2="275.268"/><line x1="321.398" y1="275.268" x2="325.19" y2="271.476"/>
<line x1="321.851" y1="271.389" x2="325.643" y2="271.389"/><line x1="323.747" y1="269.493" x2="323.747" y2="273.285"/><line x1="321.851" y1="269.493" x2="325.643" y2="273.285"/><line x1="321.851" y1="273.285" x2="325.643" y2="269.493"/>
<line x1="322.303" y1="263.186" x2="326.096" y2="263.186"/><line x1="324.199" y1="261.29" x2="324.199" y2="265.082"/><line x1="322.303" y1="261.29" x2="326.096" y2="265.082"/><line x1="322.303" y1="265.082" x2="326.096" y2="261.29"/>
<line x1="322.756" y1="262.748" x2="326.548" y2="262.748"/><line x1="324.652" y1="260.852" x2="324.652" y2="264.644"/><line x1="322.756" y1="260.852" x2="326.548" y2="264.644"/><line x1="322.756" y1="264.644" x2="326.548" y2="260.852"/>
<line x1="323.209" y1="259.063" x2="327.001" y2="259.063"/><line x1="325.105" y1="257.167" x2="325.105" y2="260.959"/><line x1="323.209" y1="257.167" x2="327.001" y2="260.959"/><line x1="323.209" y1="260.959" x2="327.001" y2="257.167"/>
<line x1="323.661" y1="250.785" x2="327.454" y2="250.785"/><line x1="325.558" y1="248.888" x2="325.558" y2="252.681"/><line x1="323.661" y1="248.888" x2="327.454" y2="252.681"/><line x1="323.661" y1="252.681" x2="327.454" y2="248.888"/>
<line x1="324.114" y1="249.485" x2="327.906" y2="249.485"/><line x1="326.01" y1="247.589" x2="326.01" y2="251.381"/><line x1="324.114" y1="247.589" x2="327.906" y2="251.381"/><line x1="324.114" y1="251.381" x2="327.906" y2="247.589"/>
<line x1="324.567" y1="240.353" x2="328.359" y2="240.353"/><line x1="326.463" y1="238.457" x2="326.463" y2="242.249"/><line x1="324.567" y1="238.457" x2="328.359" y2="242.249"/><line x1="324.567" y1="242.249" x2="328.359" y2="238.457"/>
<line x1="325.02" y1="234.078" x2="328.812" y2="234.078"/><line x1="326.916" y1="232.182" x2="326.916" y2="235.974"/><line x1="325.02" y1="232.182" x2="328.812" y2="235.974"/><line x1="325.02" y1="235.974" x2="328.812" y2="232.182"/>
<line x1="325.472" y1="232.704" x2="329.264" y2="232.704"/><line x1="327.368" y1="230.807" x2="327.368" y2="234.6"/><line x1="325.472" y1="230.807" x2="329.264" y2="234.6"/><line x1="325.472" y1="234.6" x2="329.264" y2="230.807"/>
<line x1="325.925" y1="232.153" x2="329.717" y2="232.153"/><line x1="327.821" y1="230.257" x2="327.821" y2="234.049"/><line x1="325.925" y1="230.257" x2="329.717" y2="234.049"/><line x1="325.925" y1="234.049" x2="329.717" y2="230.257"/>
<line x1="326.378" y1="234.647" x2="330.17" y2="234.647"/><line x1="328.274" y1="232.751" x2="328.274" y2="236.544"/><line x1="326.378" y1="232.751" x2="330.17" y2="236.544"/><line x1="326.378" y1="236.544" x2="330.17" y2="232.751"/>
<line x1="326.83" y1="232.988" x2="330.622" y2="232.988"/><line x1="328.726" y1="231.092" x2="328.726" y2="234.884"/><line x1="326.83" y1="231.092" x2="330.622" y2="234.884"/><line x1="326.83" y1="234.884" x2="330.622" y2="231.092"/>
<line x1="327.283" y1="233.181" x2="331.075" y2="233.181"/><line x1="329.179" y1="231.285" x2="329.179" y2="235.077"/><line x1="327.283" y1="231.285" x2="331.075" y2="235.077"/><line x1="327.283" y1="235.077" x2="331.075" y2="231.285"/>
<line x1="327.736" y1="232.792" x2="331.528" y2="232.792"/><line x1="329.632" y1="230.896" x2="329.632" y2="234.688"/><line x1="327.736" y1="230.896" x2="331.528" y2="234.688"/><line x1="327.736" y1="234.688" x2="331.528" y2="230.896"/>
<line x1="328.188" y1="230.145" x2="331.98" y2="230.145"/><line x1="330.084" y1="228.249" x2="330.084" y2="232.041"/><line x1="328.188" y1="228.249" x2="331.98" y2="232.041"/><line x1="328.188" y1="232.041" x2="331.98" y2="228.249"/>
<line x1="328.641" y1="221.411" x2="332.433" y2="221.411"/><line x1="330.537" y1="219.515" x2="330.537" y2="223.307"/><line x1="328.641" y1="219.515" x2="332.433" y2="223.307"/><line x1="328.641" y1="223.307" x2="332.433" y2="219.515"/>
<line x1="329.094" y1="222.679" x2="332.886" y2="222.679"/><line x1="330.99" y1="220.783" x2="330.99" y2="224.575"/><line x1="329.094" y1="220.783" x2="332.886" y2="224.575"/><line x1="329.094" y1="224.575" x2="332.886" y2="220.783"/>
<line x1="329.546" y1="219.987" x2="333.339" y2="219.987"/><line x1="331.442" y1="218.091" x2="331.442" y2="221.883"/><line x1="329.546" y1="218.091" x2="333.339" y2="221.883"/><line x1="329.546" y1="221.883" x2="333.339" y2="218.091"/>
<line x1="329.999" y1="219.337" x2="333.791" y2="219.337"/><line x1="331.895" y1="217.441" x2="331.895" y2="221.233"/><line x1="329.999" y1="217.441" x2="333.791" y2="221.233"/><line x1="329.999" y1="221.233" x2="333.791" y2="217.441"/>
<line x1="330.452" y1="215.873" x2="334.244" y2="215.873"/><line x1="332.348" y1="213.976" x2="332.348" y2="217.769"/><line x1="330.452" y1="213.976" x2="334.244" y2="217.769"/><line x1="330.452" y1="217.769" x2="334.244" y2="213.976"/>
<line x1="330.904" y1="217.282" x2="334.697" y2="217.282"/><line x1="332.8" y1="215.386" x2="332.8" y2="219.178"/><line x1="330.904" y1="215.386" x2="334.697" y2="219.178"/><line x1="330.904" y1="219.178" x2="334.697" y2="215.386"/>
<line x1="331.357" y1="218.145" x2="335.149" y2="218.145"/><line x1="333.253" y1="216.249" x2="333.253" y2="220.041"/><line x1="331.357" y1="216.249" x2="335.149" y2="220.041"/><line x1="331.357" y1="220.041" x2="335.149" y2="216.249"/>
<line x1="331.81" y1="215.495" x2="335.602" y2="215.495"/><line x1="333.706" y1="213.599" x2="333.706" y2="217.391"/><line x1="331.81" y1="213.599" x2="335.602" y2="217.391"/><line x1="331.81" y1="217.391" x2="335.602" y2="213.599"/>
<line x1="332.262" y1="207.233" x2="336.055" y2="207.233"/><line x1="334.159" y1="205.337" x2="334.159" y2="209.129"/><line x1="332.262" y1="205.337" x2="336.055" y2="209.129"/><line x1="332.262" y1="209.129" x2="336.055" y2="205.337"/>
<line x1="332.715" y1="204.892" x2="336.507" y2="204.892"/><line x1="334.611" y1="202.996" x2="334.611" y2="206.788"/><line x1="332.715" y1="202.996" x2="336.507" y2="206.788"/><line x1="332.715" y1="206.788" x2="336.507" y2="202.996"/>
<line x1="333.168" y1="207.248" x2="336.96" y2="207.248"/><line x1="335.064" y1="205.352" x2="335.064" y2="209.144"/><line x1="333.168" y1="205.352" x2="336.96" y2="209.144"/><line x1="333.168" y1="209.144" x2="336.96" y2="205.352"/>
<line x1="333.62" y1="208.676" x2="337.413" y2="208.676"/><line x1="335.517" y1="206.78" x2="335.517" y2="210.572"/><line x1="333.62" y1="206.78" x2="337.413" y2="210.572"/><line x1="333.62" y1="210.572" x2="337.413" y2="206.78"/>
<line x1="334.073" y1="205.874" x2="337.865" y2="205.874"/><line x1="335.969" y1="203.978" x2="335.969" y2="207.77"/><line x1="334.073" y1="203.978" x2="337.865" y2="207.77"/><line x1="334.073" y1="207.77" x2="337.865" y2="203.978"/>
<line x1="334.526" y1="201.306" x2="338.318" y2="201.306"/><line x1="336.422" y1="199.41" x2="336.422" y2="203.202"/><line x1="334.526" y1="199.41" x2="338.318" y2="203.202"/><line x1="334.526" y1="203.202" x2="338.318" y2="199.41"/>
<line x1="334.979" y1="203.688" x2="338.771" y2="203.688"/><line x1="336.875" y1="201.792" x2="336.875" y2="205.584"/><line x1="334.979" y1="201.792" x2="338.771" y2="205.584"/><line x1="334.979" y1="205.584" x2="338.771" y2="201.792"/>
<line x1="335.431" y1="193.423" x2="339.223" y2="193.423"/><line x1="337.327" y1="191.527" x2="337.327" y2="195.319"/><line x1="335.431" y1="191.527" x2="339.223" y2="195.319"/><line x1="335.431" y1="195.319" x2="339.223" y2="191.527"/>
<line x1="335.884" y1="189.183" x2="339.676" y2="189.183"/><line x1="337.78" y1="187.287" x2="337.78" y2="191.079"/><line x1="335.884" y1="187.287" x2="339.676" y2="191.079"/><line x1="335.884" y1="191.079" x2="339.676" y2="187.287"/>
<line x1="336.337" y1="184.356" x2="340.129" y2="184.356"/><line x1="338.233" y1="182.46" x2="338.233" y2="186.253"/><line x1="336.337" y1="182.46" x2="340.129" y2="186.253"/><line x1="336.337" y1="186.253" x2="340.129" y2="182.46"/>
<line x1="336.789" y1="180.396" x2="340.581" y2="180.396"/><line x1="338.685" y1="178.5" x2="338.685" y2="182.292"/><line x1="336.789" y1="178.5" x2="340.581" y2="182.292"/><line x1="336.789" y1="182.292" x2="340.581" y2="178.5"/>
<line x1="337.242" y1="174.624" x2="341.034" y2="174.624"/><line x1="339.138" y1="172.728" x2="339.138" y2="176.521"/><line x1="337.242" y1="172.728" x2="341.034" y2="176.521"/><line x1="337.242" y1="176.521" x2="341.034" y2="172.728"/>
<line x1="337.695" y1="174.758" x2="341.487" y2="174.758"/><line x1="339.591" y1="172.862" x2="339.591" y2="176.654"/><line x1="337.695" y1="172.862" x2="341.487" y2="176.654"/><line x1="337.695" y1="176.654" x2="341.487" y2="172.862"/>
<line x1="338.147" y1="172.02" x2="341.939" y2="172.02"/><line x1="340.043" y1="170.124" x2="340.043" y2="173.916"/><line x1="338.147" y1="170.124" x2="341.939" y2="173.916"/><line x1="338.147" y1="173.916" x2="341.939" y2="170.124"/>
<line x1="338.6" y1="170.322" x2="342.392" y2="170.322"/><line x1="340.496" y1="168.425" x2="340.496" y2="172.218"/><line x1="338.6" y1="168.425" x2="342.392" y2="172.218"/><line x1="338.6" y1="172.218" x2="342.392" y2="168.425"/>
<line x1="339.053" y1="167.795" x2="342.845" y2="167.795"/><line x1="340.949" y1="165.899" x2="340.949" y2="169.692"/><line x1="339.053" y1="165.899" x2="342.845" y2="169.692"/><line x1="339.053" y1="169.692" x2="342.845" y2="165.899"/>
<line x1="339.505" y1="166.088" x2="343.298" y2="166.088"/><line x1="341.401" y1="164.192" x2="341.401" y2="167.984"/><line x1="339.505" y1="164.192" x2="343.298" y2="167.984"/><line x1="339.505" y1="167.984" x2="343.298" y2="164.192"/>
<line x1="339.958" y1="166.334" x2="343.75" y2="166.334"/><line x1="341.854" y1="164.438" x2="341.854" y2="168.231"/><line x1="339.958" y1="164.438" x2="343.75" y2="168.231"/><line x1="339.958" y1="168.231" x2="343.75" y2="164.438"/>
<line x1="340.411" y1="161.699" x2="344.203" y2="161.699"/><line x1="342.307" y1="159.803" x2="342.307" y2="163.595"/><line x1="340.411" y1="159.803" x2="344.203" y2="163.595"/><line x1="340.411" y1="163.595" x2="344.203" y2="159.803"/>
<line x1="340.863" y1="158.395" x2="344.656" y2="158.395"/><line x1="342.759" y1="156.499" x2="342.759" y2="160.291"/><line x1="340.863" y1="156.499" x2="344.656" y2="160.291"/><line x1="340.863" y1="160.291" x2="344.656" y2="156.499"/>
<line x1="341.316" y1="166.156" x2="345.108" y2="166.156"/><line x1="343.212" y1="164.26" x2="343.212" y2="168.052"/><line x1="341.316" y1="164.26" x2="345.108" y2="168.052"/><line x1="341.316" y1="168.052" x2="345.108" y2="164.26"/>
<line x1="341.769" y1="170.356" x2="345.561" y2="170.356"/><line x1="343.665" y1="168.46" x2="343.665" y2="172.252"/><line x1="341.769" y1="168.46" x2="345.561" y2="172.252"/><line x1="341.769" y1="172.252" x2="345.561" y2="168.46"/>
<line x1="342.221" y1="176.067" x2="346.014" y2="176.067"/><line x1="344.118" y1="174.171" x2="344.118" y2="177.963"/><line x1="342.221" y1="174.171" x2="346.014" y2="177.963"/><line x1="342.221" y1="177.963" x2="346.014" y2="174.171"/>
<line x1="342.674" y1="171.258" x2="346.466" y2="171.258"/><line x1="344.57" y1="169.361" x2="344.57" y2="173.154"/><line x1="342.674" y1="169.361" x2="346.466" y2="173.154"/><line x1="342.674" y1="173.154" x2="346.466" y2="169.361"/>
<line x1="343.127" y1="170.197" x2="346.919" y2="170.197"/><line x1="345.023" y1="168.3" x2="345.023" y2="172.093"/><line x1="343.127" y1="168.3" x2="346.919" y2="172.093"/><line x1="343.127" y1="172.093" x2="346.919" y2="168.3"/>
<line x1="343.58" y1="164.657" x2="347.372" y2="164.657"/><line x1="345.476" y1="162.76" x2="345.476" y2="166.553"/><line x1="343.58" y1="162.76" x2="347.372" y2="166.553"/><line x1="343.58" y1="166.553" x2="347.372" y2="162.76"/>
<line x1="344.032" y1="156.322" x2="347.824" y2="156.322"/><line x1="345.928" y1="154.426" x2="345.928" y2="158.218"/><line x1="344.032" y1="154.426" x2="347.824" y2="158.218"/><line x1="344.032" y1="158.218" x2="347.824" y2="154.426"/>
<line x1="344.485" y1="152.898" x2="348.277" y2="152.898"/><line x1="346.381" y1="151.002" x2="346.381" y2="154.794"/><line x1="344.485" y1="151.002" x2="348.277" y2="154.794"/><line x1="344.485" y1="154.794" x2="348.277" y2="151.002"/>
<line x1="344.938" y1="152.785" x2="348.73" y2="152.785"/><line x1="346.834" y1="150.889" x2="346.834" y2="154.681"/><line x1="344.938" y1="150.889" x2="348.73" y2="154.681"/><line x1="344.938" y1="154.681" x2="348.73" y2="150.889"/>
<line x1="345.39" y1="142.051" x2="349.182" y2="142.051"/><line x1="347.286" y1="140.155" x2="347.286" y2="143.947"/><line x1="345.39" y1="140.155" x2="349.182" y2="143.947"/><line x1="345.39" y1="143.947" x2="349.182" y2="140.155"/>
<line x1="345.843" y1="137.384" x2="349.635" y2="137.384"/><line x1="347.739" y1="135.488" x2="347.739" y2="139.281"/><line x1="345.843" y1="135.488" x2="349.635" y2="139.281"/><line x1="345.843" y1="139.281" x2="349.635" y2="135.488"/>
<line x1="346.296" y1="137.389" x2="350.088" y2="137.389"/><line x1="348.192" y1="135.493" x2="348.192" y2="139.285"/><line x1="346.296" y1="135.493" x2="350.088" y2="139.285"/><line x1="346.296" y1="139.285" x2="350.088" y2="135.493"/>
<line x1="346.748" y1="120.327" x2="350.54" y2="120.327"/><line x1="348.644" y1="118.431" x2="348.644" y2="122.223"/><line x1="346.748" y1="118.431" x2="350.54" y2="122.223"/><line x1="346.748" y1="122.223" x2="350.54" y2="118.431"/>
<line x1="347.201" y1="121.557" x2="350.993" y2="121.557"/><line x1="349.097" y1="119.661" x2="349.097" y2="123.453"/><line x1="347.201" y1="119.661" x2="350.993" y2="123.453"/><line x1="347.201" y1="123.453" x2="350.993" y2="119.661"/>
<line x1="347.654" y1="110.975" x2="351.446" y2="110.975"/><line x1="349.55" y1="109.079" x2="349.55" y2="112.871"/><line x1="347.654" y1="109.079" x2="351.446" y2="112.871"/><line x1="347.654" y1="112.871" x2="351.446" y2="109.079"/>
<line x1="348.106" y1="112.272" x2="351.899" y2="112.272"/><line x1="350.002" y1="110.376" x2="350.002" y2="114.168"/><line x1="348.106" y1="110.376" x2="351.899" y2="114.168"/><line x1="348.106" y1="114.168" x2="351.899" y2="110.376"/>
<line x1="348.559" y1="110.735" x2="352.351" y2="110.735"/><line x1="350.455" y1="108.839" x2="350.455" y2="112.631"/><line x1="348.559" y1="108.839" x2="352.351" y2="112.631"/><line x1="348.559" y1="112.631" x2="352.351" y2="108.839"/>
<line x1="349.012" y1="104.878" x2="352.804" y2="104.878"/><line x1="350.908" y1="102.982" x2="350.908" y2="106.775"/><line x1="349.012" y1="102.982" x2="352.804" y2="106.775"/><line x1="349.012" y1="106.775" x2="352.804" y2="102.982"/>
<line x1="349.464" y1="102.419" x2="353.257" y2="102.419"/><line x1="351.36" y1="100.523" x2="351.36" y2="104.315"/><line x1="349.464" y1="100.523" x2="353.257" y2="104.315"/><line x1="349.464" y1="104.315" x2="353.257" y2="100.523"/>
<line x1="349.917" y1="99.1051" x2="353.709" y2="99.1051"/><line x1="351.813" y1="97.209" x2="351.813" y2="101.001"/><line x1="349.917" y1="97.209" x2="353.709" y2="101.001"/><line x1="349.917" y1="101.001" x2="353.709" y2="97.209"/>
<line x1="350.37" y1="94.7236" x2="354.162" y2="94.7236"/><line x1="352.266" y1="92.8276" x2="352.266" y2="96.6197"/><line x1="350.37" y1="92.8276" x2="354.162" y2="96.6197"/><line x1="350.37" y1="96.6197" x2="354.162" y2="92.8276"/>
<line x1="350.822" y1="96.6716" x2="354.615" y2="96.6716"/><line x1="352.719" y1="94.7755" x2="352.719" y2="98.5677"/><line x1="350.822" y1="94.7755" x2="354.615" y2="98.5677"/><line x1="350.822" y1="98.5677" x2="354.615" y2="94.7755"/>
<line x1="351.275" y1="93.0182" x2="355.067" y2="93.0182"/><line x1="353.171" y1="91.1221" x2="353.171" y2="94.9143"/><line x1="351.275" y1="91.1221" x2="355.067" y2="94.9143"/><line x1="351.275" y1="94.9143" x2="355.067" y2="91.1221"/>
<line x1="351.728" y1="86.6393" x2="355.52" y2="86.6393"/><line x1="353.624" y1="84.7432" x2="353.624" y2="88.5354"/><line x1="351.728" y1="84.7432" x2="355.52" y2="88.5354"/><line x1="351.728" y1="88.5354" x2="355.52" y2="84.7432"/>
<line x1="352.181" y1="81.8667" x2="355.973" y2="81.8667"/><line x1="354.077" y1="79.9706" x2="354.077" y2="83.7628"/><line x1="352.181" y1="79.9706" x2="355.973" y2="83.7628"/><line x1="352.181" y1="83.7628" x2="355.973" y2="79.9706"/>
<line x1="352.633" y1="79.8933" x2="356.425" y2="79.8933"/><line x1="354.529" y1="77.9972" x2="354.529" y2="81.7894"/><line x1="352.633" y1="77.9972" x2="356.425" y2="81.7894"/><line x1="352.633" y1="81.7894" x2="356.425" y2="77.9972"/>
<line x1="353.086" y1="79.7454" x2="356.878" y2="79.7454"/><line x1="354.982" y1="77.8493" x2="354.982" y2="81.6415"/><line x1="353.086" y1="77.8493" x2="356.878" y2="81.6415"/><line x1="353.086" y1="81.6415" x2="356.878" y2="77.8493"/>
<line x1="353.539" y1="80.1715" x2="357.331" y2="80.1715"/><line x1="355.435" y1="78.2754" x2="355.435" y2="82.0676"/><line x1="353.539" y1="78.2754" x2="357.331" y2="82.0676"/><line x1="353.539" y1="82.0676" x2="357.331" y2="78.2754"/>
<line x1="353.991" y1="73.2678" x2="357.783" y2="73.2678"/><line x1="355.887" y1="71.3718" x2="355.887" y2="75.1639"/><line x1="353.991" y1="71.3718" x2="357.783" y2="75.1639"/><line x1="353.991" y1="75.1639" x2="357.783" y2="71.3718"/>
<line x1="354.444" y1="71.3821" x2="358.236" y2="71.3821"/><line x1="356.34" y1="69.486" x2="356.34" y2="73.2781"/><line x1="354.444" y1="69.486" x2="358.236" y2="73.2781"/><line x1="354.444" y1="73.2781" x2="358.236" y2="69.486"/>
<line x1="354.897" y1="65.3554" x2="358.689" y2="65.3554"/><line x1="356.793" y1="63.4594" x2="356.793" y2="67.2515"/><line x1="354.897" y1="63.4594" x2="358.689" y2="67.2515"/><line x1="354.897" y1="67.2515" x2="358.689" y2="63.4594"/>
<line x1="355.349" y1="60.0212" x2="359.141" y2="60.0212"/><line x1="357.245" y1="58.1251" x2="357.245" y2="61.9173"/><line x1="355.349" y1="58.1251" x2="359.141" y2="61.9173"/><line x1="355.349" y1="61.9173" x2="359.141" y2="58.1251"/>
<line x1="355.802" y1="57.7087" x2="359.594" y2="57.7087"/><line x1="357.698" y1="55.8127" x2="357.698" y2="59.6048"/><line x1="355.802" y1="55.8127" x2="359.594" y2="59.6048"/><line x1="355.802" y1="59.6048" x2="359.594" y2="55.8127"/>
<line x1="356.255" y1="49.5022" x2="360.047" y2="49.5022"/><line x1="358.151" y1="47.6062" x2="358.151" y2="51.3983"/><line x1="356.255" y1="47.6062" x2="360.047" y2="51.3983"/><line x1="356.255" y1="51.3983" x2="360.047" y2="47.6062"/>
<line x1="356.707" y1="45.84" x2="360.5" y2="45.84"/><line x1="358.603" y1="43.944" x2="358.603" y2="47.7361"/><line x1="356.707" y1="43.944" x2="360.5" y2="47.7361"/><line x1="356.707" y1="47.7361" x2="360.5" y2="43.944"/>
</g>
<path d="M170.74,353.116h 226.342" fill="none" stroke="#0000ff"/>
<path d="M283.911,372.012v -47.2396" fill="none" stroke="#ff0000"/>
<rect x="57.1929" y="330.677" width="113.386" height="41.3346" fill="white"/>
<path d="M57.1929,372.012h 113.386" fill="none" stroke="black"/>
<path d="M170.579,372.012v -41.3346" fill="none" stroke="black"/>
<path d="M170.579,330.677h -113.386" fill="none" stroke="black"/>
<path d="M57.1929,330.677v 41.3346" fill="none" stroke="black"/>
<text xml:space="preserve" x="85.3498" y="354.568" fill="black" font-size="12.0704" font-family="Helvetica">#p.e of PMTs3</text>
<path d="M61.4449,351.344h 19.8425" fill="none" stroke="black"/></svg>
