<?xml version="1.0" standalone="no"?>
<svg width="567.429" height="413.846" viewBox="0 0 567.429 413.846" xmlns="http://www.w3.org/2000/svg" shape-rendering="crispEdges">
<title>
figures/chi2_7PMTnpedata190929-01.svg
</title>
<desc>
Creator: ROOT Version 6.18/02
CreationDate: Sun Sep 29 21:00:52 2019</desc>
<defs>
</defs>
<rect x="0.5" y="0" width="566.929" height="413.346" fill="white"/>
<rect x="57.1929" y="41.3346" width="453.543" height="330.677" fill="white"/>
<rect x="57.1929" y="41.3346" width="453.543" height="330.677" fill="none" stroke="black"/>
<path d="M57.1929,372.012h 453.543" fill="none" stroke="black"/>
<path d="M80.3092,41.3346v 330.677" fill="none" stroke="black" stroke-dasharray=" 1, 2"/>
<path d="M125.577,41.3346v 330.677" fill="none" stroke="black" stroke-dasharray=" 1, 2"/>
<path d="M170.846,41.3346v 330.677" fill="none" stroke="black" stroke-dasharray=" 1, 2"/>
<path d="M216.114,41.3346v 330.677" fill="none" stroke="black" stroke-dasharray=" 1, 2"/>
<path d="M261.382,41.3346v 330.677" fill="none" stroke="black" stroke-dasharray=" 1, 2"/>
<path d="M306.651,41.3346v 330.677" fill="none" stroke="black" stroke-dasharray=" 1, 2"/>
<path d="M351.919,41.3346v 330.677" fill="none" stroke="black" stroke-dasharray=" 1, 2"/>
<path d="M397.187,41.3346v 330.677" fill="none" stroke="black" stroke-dasharray=" 1, 2"/>
<path d="M442.456,41.3346v 330.677" fill="none" stroke="black" stroke-dasharray=" 1, 2"/>
<path d="M487.724,41.3346v 330.677" fill="none" stroke="black" stroke-dasharray=" 1, 2"/>
<path d="M80.3092,41.3346v 330.677" fill="none" stroke="black" stroke-dasharray=" 1, 2"/>
<path d="M487.724,41.3346v 330.677" fill="none" stroke="black" stroke-dasharray=" 1, 2"/>
<path d="M57.1929,372.012v -330.677" fill="none" stroke="black"/>
<path d="M510.736,317.411h -453.543" fill="none" stroke="black" stroke-dasharray=" 1, 2"/>
<path d="M510.736,254.425h -453.543" fill="none" stroke="black" stroke-dasharray=" 1, 2"/>
<path d="M510.736,191.439h -453.543" fill="none" stroke="black" stroke-dasharray=" 1, 2"/>
<path d="M510.736,128.453h -453.543" fill="none" stroke="black" stroke-dasharray=" 1, 2"/>
<path d="M510.736,65.4668h -453.543" fill="none" stroke="black" stroke-dasharray=" 1, 2"/>
<path d="M510.736,317.411h -453.543" fill="none" stroke="black" stroke-dasharray=" 1, 2"/>
<path d="M510.736,65.4668h -453.543" fill="none" stroke="black" stroke-dasharray=" 1, 2"/>
<path d="M57.1929,372.012h 453.543" fill="none" stroke="black"/>
<path d="M80.3092,362.091v 9.92031" fill="none" stroke="black"/>
<path d="M91.6262,367.052v 4.96016" fill="none" stroke="black"/>
<path d="M102.943,367.052v 4.96016" fill="none" stroke="black"/>
<path d="M114.26,367.052v 4.96016" fill="none" stroke="black"/>
<path d="M125.577,362.091v 9.92031" fill="none" stroke="black"/>
<path d="M136.895,367.052v 4.96016" fill="none" stroke="black"/>
<path d="M148.212,367.052v 4.96016" fill="none" stroke="black"/>
<path d="M159.529,367.052v 4.96016" fill="none" stroke="black"/>
<path d="M170.846,362.091v 9.92031" fill="none" stroke="black"/>
<path d="M182.163,367.052v 4.96016" fill="none" stroke="black"/>
<path d="M193.48,367.052v 4.96016" fill="none" stroke="black"/>
<path d="M204.797,367.052v 4.96016" fill="none" stroke="black"/>
<path d="M216.114,362.091v 9.92031" fill="none" stroke="black"/>
<path d="M227.431,367.052v 4.96016" fill="none" stroke="black"/>
<path d="M238.748,367.052v 4.96016" fill="none" stroke="black"/>
<path d="M250.065,367.052v 4.96016" fill="none" stroke="black"/>
<path d="M261.382,362.091v 9.92031" fill="none" stroke="black"/>
<path d="M272.7,367.052v 4.96016" fill="none" stroke="black"/>
<path d="M284.017,367.052v 4.96016" fill="none" stroke="black"/>
<path d="M295.334,367.052v 4.96016" fill="none" stroke="black"/>
<path d="M306.651,362.091v 9.92031" fill="none" stroke="black"/>
<path d="M317.968,367.052v 4.96016" fill="none" stroke="black"/>
<path d="M329.285,367.052v 4.96016" fill="none" stroke="black"/>
<path d="M340.602,367.052v 4.96016" fill="none" stroke="black"/>
<path d="M351.919,362.091v 9.92031" fill="none" stroke="black"/>
<path d="M363.236,367.052v 4.96016" fill="none" stroke="black"/>
<path d="M374.553,367.052v 4.96016" fill="none" stroke="black"/>
<path d="M385.87,367.052v 4.96016" fill="none" stroke="black"/>
<path d="M397.187,362.091v 9.92031" fill="none" stroke="black"/>
<path d="M408.505,367.052v 4.96016" fill="none" stroke="black"/>
<path d="M419.822,367.052v 4.96016" fill="none" stroke="black"/>
<path d="M431.139,367.052v 4.96016" fill="none" stroke="black"/>
<path d="M442.456,362.091v 9.92031" fill="none" stroke="black"/>
<path d="M453.773,367.052v 4.96016" fill="none" stroke="black"/>
<path d="M465.09,367.052v 4.96016" fill="none" stroke="black"/>
<path d="M476.407,367.052v 4.96016" fill="none" stroke="black"/>
<path d="M487.724,362.091v 9.92031" fill="none" stroke="black"/>
<path d="M80.3092,362.091v 9.92031" fill="none" stroke="black"/>
<path d="M68.9921,367.052v 4.96016" fill="none" stroke="black"/>
<path d="M57.675,367.052v 4.96016" fill="none" stroke="black"/>
<path d="M487.724,362.091v 9.92031" fill="none" stroke="black"/>
<path d="M499.041,367.052v 4.96016" fill="none" stroke="black"/>
<path d="M510.358,367.052v 4.96016" fill="none" stroke="black"/>
<text xml:space="preserve" x="67.337" y="385.379" fill="black" font-size="13.7726" font-family="Helvetica">0.74</text>
<text xml:space="preserve" x="112.369" y="385.379" fill="black" font-size="13.7726" font-family="Helvetica">0.76</text>
<text xml:space="preserve" x="157.875" y="385.379" fill="black" font-size="13.7726" font-family="Helvetica">0.78</text>
<text xml:space="preserve" x="206.699" y="385.379" fill="black" font-size="13.7726" font-family="Helvetica">0.8</text>
<text xml:space="preserve" x="248.413" y="385.379" fill="black" font-size="13.7726" font-family="Helvetica">0.82</text>
<text xml:space="preserve" x="293.445" y="385.379" fill="black" font-size="13.7726" font-family="Helvetica">0.84</text>
<text xml:space="preserve" x="338.951" y="385.379" fill="black" font-size="13.7726" font-family="Helvetica">0.86</text>
<text xml:space="preserve" x="383.983" y="385.379" fill="black" font-size="13.7726" font-family="Helvetica">0.88</text>
<text xml:space="preserve" x="433.281" y="385.379" fill="black" font-size="13.7726" font-family="Helvetica">0.9</text>
<text xml:space="preserve" x="474.521" y="385.379" fill="black" font-size="13.7726" font-family="Helvetica">0.92</text>
<text xml:space="preserve" x="413.372" y="400.074" fill="black" font-size="13.7726" font-family="Helvetica">calibration factor</text>
<path d="M57.1929,372.012v -330.677" fill="none" stroke="black"/>
<path d="M70.7992,317.411h -13.6063" fill="none" stroke="black"/>
<path d="M63.9961,301.665h -6.80315" fill="none" stroke="black"/>
<path d="M63.9961,285.918h -6.80315" fill="none" stroke="black"/>
<path d="M63.9961,270.172h -6.80315" fill="none" stroke="black"/>
<path d="M70.7992,254.425h -13.6063" fill="none" stroke="black"/>
<path d="M63.9961,238.679h -6.80315" fill="none" stroke="black"/>
<path d="M63.9961,222.932h -6.80315" fill="none" stroke="black"/>
<path d="M63.9961,207.185h -6.80315" fill="none" stroke="black"/>
<path d="M70.7992,191.439h -13.6063" fill="none" stroke="black"/>
<path d="M63.9961,175.692h -6.80315" fill="none" stroke="black"/>
<path d="M63.9961,159.946h -6.80315" fill="none" stroke="black"/>
<path d="M63.9961,144.199h -6.80315" fill="none" stroke="black"/>
<path d="M70.7992,128.453h -13.6063" fill="none" stroke="black"/>
<path d="M63.9961,112.706h -6.80315" fill="none" stroke="black"/>
<path d="M63.9961,96.9598h -6.80315" fill="none" stroke="black"/>
<path d="M63.9961,81.2133h -6.80315" fill="none" stroke="black"/>
<path d="M70.7992,65.4668h -13.6063" fill="none" stroke="black"/>
<path d="M70.7992,317.411h -13.6063" fill="none" stroke="black"/>
<path d="M63.9961,333.158h -6.80315" fill="none" stroke="black"/>
<path d="M63.9961,348.904h -6.80315" fill="none" stroke="black"/>
<path d="M63.9961,364.651h -6.80315" fill="none" stroke="black"/>
<path d="M70.7992,65.4668h -13.6063" fill="none" stroke="black"/>
<path d="M63.9961,49.7202h -6.80315" fill="none" stroke="black"/>
<text xml:space="preserve" x="25.1491" y="321.86" fill="black" font-size="13.7726" font-family="Helvetica">1300</text>
<text xml:space="preserve" x="25.1491" y="258.815" fill="black" font-size="13.7726" font-family="Helvetica">1320</text>
<text xml:space="preserve" x="25.1491" y="195.771" fill="black" font-size="13.7726" font-family="Helvetica">1340</text>
<text xml:space="preserve" x="25.1491" y="132.726" fill="black" font-size="13.7726" font-family="Helvetica">1360</text>
<text xml:space="preserve" x="25.1491" y="70.1551" fill="black" font-size="13.7726" font-family="Helvetica">1380</text>
<g transform="rotate(-90,8.08434,45.98)">
<text xml:space="preserve" x="8.08434" y="45.98" fill="black" font-size="9.34839" font-family="Helvetica">2</text>
</g>
<g transform="rotate(-90,12.3505,50.2462)">
<text xml:space="preserve" x="12.3505" y="50.2462" fill="black" font-size="13.7726" font-family="Helvetica"> </text>
</g>
<g transform="rotate(-90,12.3505,57.3565)">
<text xml:space="preserve" x="12.3505" y="57.3565" fill="black" font-size="13.7726" font-family="Times">&#0967;</text>
</g>
<g stroke="black" stroke-width="1" fill="none">
<line x1="217.84" y1="44.1095" x2="221.632" y2="44.1095"/><line x1="219.736" y1="42.2134" x2="219.736" y2="46.0056"/><line x1="217.84" y1="42.2134" x2="221.632" y2="46.0056"/><line x1="217.84" y1="46.0056" x2="221.632" y2="42.2134"/>
<line x1="218.292" y1="52.3954" x2="222.084" y2="52.3954"/><line x1="220.188" y1="50.4993" x2="220.188" y2="54.2915"/><line x1="218.292" y1="50.4993" x2="222.084" y2="54.2915"/><line x1="218.292" y1="54.2915" x2="222.084" y2="50.4993"/>
<line x1="218.745" y1="54.1681" x2="222.537" y2="54.1681"/><line x1="220.641" y1="52.272" x2="220.641" y2="56.0641"/><line x1="218.745" y1="52.272" x2="222.537" y2="56.0641"/><line x1="218.745" y1="56.0641" x2="222.537" y2="52.272"/>
<line x1="219.198" y1="59.9852" x2="222.99" y2="59.9852"/><line x1="221.094" y1="58.0891" x2="221.094" y2="61.8813"/><line x1="219.198" y1="58.0891" x2="222.99" y2="61.8813"/><line x1="219.198" y1="61.8813" x2="222.99" y2="58.0891"/>
<line x1="219.65" y1="65.4106" x2="223.442" y2="65.4106"/><line x1="221.546" y1="63.5146" x2="221.546" y2="67.3067"/><line x1="219.65" y1="63.5146" x2="223.442" y2="67.3067"/><line x1="219.65" y1="67.3067" x2="223.442" y2="63.5146"/>
<line x1="220.103" y1="68.2278" x2="223.895" y2="68.2278"/><line x1="221.999" y1="66.3317" x2="221.999" y2="70.1239"/><line x1="220.103" y1="66.3317" x2="223.895" y2="70.1239"/><line x1="220.103" y1="70.1239" x2="223.895" y2="66.3317"/>
<line x1="220.556" y1="74.3324" x2="224.348" y2="74.3324"/><line x1="222.452" y1="72.4363" x2="222.452" y2="76.2285"/><line x1="220.556" y1="72.4363" x2="224.348" y2="76.2285"/><line x1="220.556" y1="76.2285" x2="224.348" y2="72.4363"/>
<line x1="221.008" y1="81.04" x2="224.8" y2="81.04"/><line x1="222.904" y1="79.1439" x2="222.904" y2="82.9361"/><line x1="221.008" y1="79.1439" x2="224.8" y2="82.9361"/><line x1="221.008" y1="82.9361" x2="224.8" y2="79.1439"/>
<line x1="221.461" y1="79.9698" x2="225.253" y2="79.9698"/><line x1="223.357" y1="78.0737" x2="223.357" y2="81.8659"/><line x1="221.461" y1="78.0737" x2="225.253" y2="81.8659"/><line x1="221.461" y1="81.8659" x2="225.253" y2="78.0737"/>
<line x1="221.914" y1="77.173" x2="225.706" y2="77.173"/><line x1="223.81" y1="75.2769" x2="223.81" y2="79.0691"/><line x1="221.914" y1="75.2769" x2="225.706" y2="79.0691"/><line x1="221.914" y1="79.0691" x2="225.706" y2="75.2769"/>
<line x1="222.366" y1="78.059" x2="226.159" y2="78.059"/><line x1="224.262" y1="76.1629" x2="224.262" y2="79.9551"/><line x1="222.366" y1="76.1629" x2="226.159" y2="79.9551"/><line x1="222.366" y1="79.9551" x2="226.159" y2="76.1629"/>
<line x1="222.819" y1="83.2931" x2="226.611" y2="83.2931"/><line x1="224.715" y1="81.397" x2="224.715" y2="85.1891"/><line x1="222.819" y1="81.397" x2="226.611" y2="85.1891"/><line x1="222.819" y1="85.1891" x2="226.611" y2="81.397"/>
<line x1="223.272" y1="90.5434" x2="227.064" y2="90.5434"/><line x1="225.168" y1="88.6473" x2="225.168" y2="92.4395"/><line x1="223.272" y1="88.6473" x2="227.064" y2="92.4395"/><line x1="223.272" y1="92.4395" x2="227.064" y2="88.6473"/>
<line x1="223.724" y1="95.955" x2="227.517" y2="95.955"/><line x1="225.62" y1="94.0589" x2="225.62" y2="97.8511"/><line x1="223.724" y1="94.0589" x2="227.517" y2="97.8511"/><line x1="223.724" y1="97.8511" x2="227.517" y2="94.0589"/>
<line x1="224.177" y1="99.8947" x2="227.969" y2="99.8947"/><line x1="226.073" y1="97.9986" x2="226.073" y2="101.791"/><line x1="224.177" y1="97.9986" x2="227.969" y2="101.791"/><line x1="224.177" y1="101.791" x2="227.969" y2="97.9986"/>
<line x1="224.63" y1="103.619" x2="228.422" y2="103.619"/><line x1="226.526" y1="101.723" x2="226.526" y2="105.515"/><line x1="224.63" y1="101.723" x2="228.422" y2="105.515"/><line x1="224.63" y1="105.515" x2="228.422" y2="101.723"/>
<line x1="225.082" y1="111.681" x2="228.875" y2="111.681"/><line x1="226.979" y1="109.785" x2="226.979" y2="113.577"/><line x1="225.082" y1="109.785" x2="228.875" y2="113.577"/><line x1="225.082" y1="113.577" x2="228.875" y2="109.785"/>
<line x1="225.535" y1="109.941" x2="229.327" y2="109.941"/><line x1="227.431" y1="108.045" x2="227.431" y2="111.837"/><line x1="225.535" y1="108.045" x2="229.327" y2="111.837"/><line x1="225.535" y1="111.837" x2="229.327" y2="108.045"/>
<line x1="225.988" y1="119.613" x2="229.78" y2="119.613"/><line x1="227.884" y1="117.717" x2="227.884" y2="121.509"/><line x1="225.988" y1="117.717" x2="229.78" y2="121.509"/><line x1="225.988" y1="121.509" x2="229.78" y2="117.717"/>
<line x1="226.441" y1="114.229" x2="230.233" y2="114.229"/><line x1="228.337" y1="112.333" x2="228.337" y2="116.125"/><line x1="226.441" y1="112.333" x2="230.233" y2="116.125"/><line x1="226.441" y1="116.125" x2="230.233" y2="112.333"/>
<line x1="226.893" y1="117.119" x2="230.685" y2="117.119"/><line x1="228.789" y1="115.223" x2="228.789" y2="119.016"/><line x1="226.893" y1="115.223" x2="230.685" y2="119.016"/><line x1="226.893" y1="119.016" x2="230.685" y2="115.223"/>
<line x1="227.346" y1="125.73" x2="231.138" y2="125.73"/><line x1="229.242" y1="123.834" x2="229.242" y2="127.626"/><line x1="227.346" y1="123.834" x2="231.138" y2="127.626"/><line x1="227.346" y1="127.626" x2="231.138" y2="123.834"/>
<line x1="227.799" y1="130.508" x2="231.591" y2="130.508"/><line x1="229.695" y1="128.612" x2="229.695" y2="132.404"/><line x1="227.799" y1="128.612" x2="231.591" y2="132.404"/><line x1="227.799" y1="132.404" x2="231.591" y2="128.612"/>
<line x1="228.251" y1="141.978" x2="232.043" y2="141.978"/><line x1="230.147" y1="140.082" x2="230.147" y2="143.874"/><line x1="228.251" y1="140.082" x2="232.043" y2="143.874"/><line x1="228.251" y1="143.874" x2="232.043" y2="140.082"/>
<line x1="228.704" y1="145.933" x2="232.496" y2="145.933"/><line x1="230.6" y1="144.037" x2="230.6" y2="147.829"/><line x1="228.704" y1="144.037" x2="232.496" y2="147.829"/><line x1="228.704" y1="147.829" x2="232.496" y2="144.037"/>
<line x1="229.157" y1="151.323" x2="232.949" y2="151.323"/><line x1="231.053" y1="149.427" x2="231.053" y2="153.219"/><line x1="229.157" y1="149.427" x2="232.949" y2="153.219"/><line x1="229.157" y1="153.219" x2="232.949" y2="149.427"/>
<line x1="229.609" y1="148.043" x2="233.401" y2="148.043"/><line x1="231.505" y1="146.147" x2="231.505" y2="149.939"/><line x1="229.609" y1="146.147" x2="233.401" y2="149.939"/><line x1="229.609" y1="149.939" x2="233.401" y2="146.147"/>
<line x1="230.062" y1="141.241" x2="233.854" y2="141.241"/><line x1="231.958" y1="139.345" x2="231.958" y2="143.137"/><line x1="230.062" y1="139.345" x2="233.854" y2="143.137"/><line x1="230.062" y1="143.137" x2="233.854" y2="139.345"/>
<line x1="230.515" y1="145.056" x2="234.307" y2="145.056"/><line x1="232.411" y1="143.16" x2="232.411" y2="146.952"/><line x1="230.515" y1="143.16" x2="234.307" y2="146.952"/><line x1="230.515" y1="146.952" x2="234.307" y2="143.16"/>
<line x1="230.967" y1="153.143" x2="234.76" y2="153.143"/><line x1="232.863" y1="151.247" x2="232.863" y2="155.039"/><line x1="230.967" y1="151.247" x2="234.76" y2="155.039"/><line x1="230.967" y1="155.039" x2="234.76" y2="151.247"/>
<line x1="231.42" y1="157.002" x2="235.212" y2="157.002"/><line x1="233.316" y1="155.106" x2="233.316" y2="158.898"/><line x1="231.42" y1="155.106" x2="235.212" y2="158.898"/><line x1="231.42" y1="158.898" x2="235.212" y2="155.106"/>
<line x1="231.873" y1="156.811" x2="235.665" y2="156.811"/><line x1="233.769" y1="154.915" x2="233.769" y2="158.707"/><line x1="231.873" y1="154.915" x2="235.665" y2="158.707"/><line x1="231.873" y1="158.707" x2="235.665" y2="154.915"/>
<line x1="232.325" y1="165.679" x2="236.118" y2="165.679"/><line x1="234.221" y1="163.783" x2="234.221" y2="167.575"/><line x1="232.325" y1="163.783" x2="236.118" y2="167.575"/><line x1="232.325" y1="167.575" x2="236.118" y2="163.783"/>
<line x1="232.778" y1="168.164" x2="236.57" y2="168.164"/><line x1="234.674" y1="166.268" x2="234.674" y2="170.06"/><line x1="232.778" y1="166.268" x2="236.57" y2="170.06"/><line x1="232.778" y1="170.06" x2="236.57" y2="166.268"/>
<line x1="233.231" y1="170.865" x2="237.023" y2="170.865"/><line x1="235.127" y1="168.968" x2="235.127" y2="172.761"/><line x1="233.231" y1="168.968" x2="237.023" y2="172.761"/><line x1="233.231" y1="172.761" x2="237.023" y2="168.968"/>
<line x1="233.683" y1="177.184" x2="237.476" y2="177.184"/><line x1="235.58" y1="175.288" x2="235.58" y2="179.08"/><line x1="233.683" y1="175.288" x2="237.476" y2="179.08"/><line x1="233.683" y1="179.08" x2="237.476" y2="175.288"/>
<line x1="234.136" y1="180.702" x2="237.928" y2="180.702"/><line x1="236.032" y1="178.806" x2="236.032" y2="182.598"/><line x1="234.136" y1="178.806" x2="237.928" y2="182.598"/><line x1="234.136" y1="182.598" x2="237.928" y2="178.806"/>
<line x1="234.589" y1="191.081" x2="238.381" y2="191.081"/><line x1="236.485" y1="189.185" x2="236.485" y2="192.977"/><line x1="234.589" y1="189.185" x2="238.381" y2="192.977"/><line x1="234.589" y1="192.977" x2="238.381" y2="189.185"/>
<line x1="235.041" y1="193.737" x2="238.834" y2="193.737"/><line x1="236.938" y1="191.841" x2="236.938" y2="195.633"/><line x1="235.041" y1="191.841" x2="238.834" y2="195.633"/><line x1="235.041" y1="195.633" x2="238.834" y2="191.841"/>
<line x1="235.494" y1="191.717" x2="239.286" y2="191.717"/><line x1="237.39" y1="189.821" x2="237.39" y2="193.614"/><line x1="235.494" y1="189.821" x2="239.286" y2="193.614"/><line x1="235.494" y1="193.614" x2="239.286" y2="189.821"/>
<line x1="235.947" y1="193.12" x2="239.739" y2="193.12"/><line x1="237.843" y1="191.224" x2="237.843" y2="195.016"/><line x1="235.947" y1="191.224" x2="239.739" y2="195.016"/><line x1="235.947" y1="195.016" x2="239.739" y2="191.224"/>
<line x1="236.4" y1="204.269" x2="240.192" y2="204.269"/><line x1="238.296" y1="202.373" x2="238.296" y2="206.165"/><line x1="236.4" y1="202.373" x2="240.192" y2="206.165"/><line x1="236.4" y1="206.165" x2="240.192" y2="202.373"/>
<line x1="236.852" y1="204.482" x2="240.644" y2="204.482"/><line x1="238.748" y1="202.586" x2="238.748" y2="206.378"/><line x1="236.852" y1="202.586" x2="240.644" y2="206.378"/><line x1="236.852" y1="206.378" x2="240.644" y2="202.586"/>
<line x1="237.305" y1="206.135" x2="241.097" y2="206.135"/><line x1="239.201" y1="204.238" x2="239.201" y2="208.031"/><line x1="237.305" y1="204.238" x2="241.097" y2="208.031"/><line x1="237.305" y1="208.031" x2="241.097" y2="204.238"/>
<line x1="237.758" y1="208.235" x2="241.55" y2="208.235"/><line x1="239.654" y1="206.339" x2="239.654" y2="210.131"/><line x1="237.758" y1="206.339" x2="241.55" y2="210.131"/><line x1="237.758" y1="210.131" x2="241.55" y2="206.339"/>
<line x1="238.21" y1="209.373" x2="242.002" y2="209.373"/><line x1="240.106" y1="207.477" x2="240.106" y2="211.269"/><line x1="238.21" y1="207.477" x2="242.002" y2="211.269"/><line x1="238.21" y1="211.269" x2="242.002" y2="207.477"/>
<line x1="238.663" y1="209.918" x2="242.455" y2="209.918"/><line x1="240.559" y1="208.022" x2="240.559" y2="211.814"/><line x1="238.663" y1="208.022" x2="242.455" y2="211.814"/><line x1="238.663" y1="211.814" x2="242.455" y2="208.022"/>
<line x1="239.116" y1="205.037" x2="242.908" y2="205.037"/><line x1="241.012" y1="203.141" x2="241.012" y2="206.933"/><line x1="239.116" y1="203.141" x2="242.908" y2="206.933"/><line x1="239.116" y1="206.933" x2="242.908" y2="203.141"/>
<line x1="239.568" y1="209.309" x2="243.36" y2="209.309"/><line x1="241.464" y1="207.412" x2="241.464" y2="211.205"/><line x1="239.568" y1="207.412" x2="243.36" y2="211.205"/><line x1="239.568" y1="211.205" x2="243.36" y2="207.412"/>
<line x1="240.021" y1="206.92" x2="243.813" y2="206.92"/><line x1="241.917" y1="205.024" x2="241.917" y2="208.816"/><line x1="240.021" y1="205.024" x2="243.813" y2="208.816"/><line x1="240.021" y1="208.816" x2="243.813" y2="205.024"/>
<line x1="240.474" y1="203.662" x2="244.266" y2="203.662"/><line x1="242.37" y1="201.766" x2="242.37" y2="205.558"/><line x1="240.474" y1="201.766" x2="244.266" y2="205.558"/><line x1="240.474" y1="205.558" x2="244.266" y2="201.766"/>
<line x1="240.926" y1="206.261" x2="244.719" y2="206.261"/><line x1="242.822" y1="204.365" x2="242.822" y2="208.157"/><line x1="240.926" y1="204.365" x2="244.719" y2="208.157"/><line x1="240.926" y1="208.157" x2="244.719" y2="204.365"/>
<line x1="241.379" y1="211.366" x2="245.171" y2="211.366"/><line x1="243.275" y1="209.47" x2="243.275" y2="213.262"/><line x1="241.379" y1="209.47" x2="245.171" y2="213.262"/><line x1="241.379" y1="213.262" x2="245.171" y2="209.47"/>
<line x1="241.832" y1="217.484" x2="245.624" y2="217.484"/><line x1="243.728" y1="215.588" x2="243.728" y2="219.381"/><line x1="241.832" y1="215.588" x2="245.624" y2="219.381"/><line x1="241.832" y1="219.381" x2="245.624" y2="215.588"/>
<line x1="242.284" y1="215.93" x2="246.077" y2="215.93"/><line x1="244.181" y1="214.034" x2="244.181" y2="217.826"/><line x1="242.284" y1="214.034" x2="246.077" y2="217.826"/><line x1="242.284" y1="217.826" x2="246.077" y2="214.034"/>
<line x1="242.737" y1="225.615" x2="246.529" y2="225.615"/><line x1="244.633" y1="223.719" x2="244.633" y2="227.511"/><line x1="242.737" y1="223.719" x2="246.529" y2="227.511"/><line x1="242.737" y1="227.511" x2="246.529" y2="223.719"/>
<line x1="243.19" y1="228.886" x2="246.982" y2="228.886"/><line x1="245.086" y1="226.99" x2="245.086" y2="230.782"/><line x1="243.19" y1="226.99" x2="246.982" y2="230.782"/><line x1="243.19" y1="230.782" x2="246.982" y2="226.99"/>
<line x1="243.642" y1="234.383" x2="247.435" y2="234.383"/><line x1="245.539" y1="232.487" x2="245.539" y2="236.279"/><line x1="243.642" y1="232.487" x2="247.435" y2="236.279"/><line x1="243.642" y1="236.279" x2="247.435" y2="232.487"/>
<line x1="244.095" y1="235.673" x2="247.887" y2="235.673"/><line x1="245.991" y1="233.777" x2="245.991" y2="237.569"/><line x1="244.095" y1="233.777" x2="247.887" y2="237.569"/><line x1="244.095" y1="237.569" x2="247.887" y2="233.777"/>
<line x1="244.548" y1="237.326" x2="248.34" y2="237.326"/><line x1="246.444" y1="235.43" x2="246.444" y2="239.223"/><line x1="244.548" y1="235.43" x2="248.34" y2="239.223"/><line x1="244.548" y1="239.223" x2="248.34" y2="235.43"/>
<line x1="245.001" y1="243.069" x2="248.793" y2="243.069"/><line x1="246.897" y1="241.173" x2="246.897" y2="244.965"/><line x1="245.001" y1="241.173" x2="248.793" y2="244.965"/><line x1="245.001" y1="244.965" x2="248.793" y2="241.173"/>
<line x1="245.453" y1="240.616" x2="249.245" y2="240.616"/><line x1="247.349" y1="238.72" x2="247.349" y2="242.512"/><line x1="245.453" y1="238.72" x2="249.245" y2="242.512"/><line x1="245.453" y1="242.512" x2="249.245" y2="238.72"/>
<line x1="245.906" y1="239.233" x2="249.698" y2="239.233"/><line x1="247.802" y1="237.337" x2="247.802" y2="241.129"/><line x1="245.906" y1="237.337" x2="249.698" y2="241.129"/><line x1="245.906" y1="241.129" x2="249.698" y2="237.337"/>
<line x1="246.359" y1="240.087" x2="250.151" y2="240.087"/><line x1="248.255" y1="238.191" x2="248.255" y2="241.983"/><line x1="246.359" y1="238.191" x2="250.151" y2="241.983"/><line x1="246.359" y1="241.983" x2="250.151" y2="238.191"/>
<line x1="246.811" y1="245.542" x2="250.603" y2="245.542"/><line x1="248.707" y1="243.646" x2="248.707" y2="247.438"/><line x1="246.811" y1="243.646" x2="250.603" y2="247.438"/><line x1="246.811" y1="247.438" x2="250.603" y2="243.646"/>
<line x1="247.264" y1="243.999" x2="251.056" y2="243.999"/><line x1="249.16" y1="242.103" x2="249.16" y2="245.895"/><line x1="247.264" y1="242.103" x2="251.056" y2="245.895"/><line x1="247.264" y1="245.895" x2="251.056" y2="242.103"/>
<line x1="247.717" y1="249.832" x2="251.509" y2="249.832"/><line x1="249.613" y1="247.936" x2="249.613" y2="251.729"/><line x1="247.717" y1="247.936" x2="251.509" y2="251.729"/><line x1="247.717" y1="251.729" x2="251.509" y2="247.936"/>
<line x1="248.169" y1="249.345" x2="251.961" y2="249.345"/><line x1="250.065" y1="247.449" x2="250.065" y2="251.242"/><line x1="248.169" y1="247.449" x2="251.961" y2="251.242"/><line x1="248.169" y1="251.242" x2="251.961" y2="247.449"/>
<line x1="248.622" y1="250.545" x2="252.414" y2="250.545"/><line x1="250.518" y1="248.649" x2="250.518" y2="252.441"/><line x1="248.622" y1="248.649" x2="252.414" y2="252.441"/><line x1="248.622" y1="252.441" x2="252.414" y2="248.649"/>
<line x1="249.075" y1="246.454" x2="252.867" y2="246.454"/><line x1="250.971" y1="244.558" x2="250.971" y2="248.35"/><line x1="249.075" y1="244.558" x2="252.867" y2="248.35"/><line x1="249.075" y1="248.35" x2="252.867" y2="244.558"/>
<line x1="249.527" y1="246.456" x2="253.32" y2="246.456"/><line x1="251.423" y1="244.56" x2="251.423" y2="248.352"/><line x1="249.527" y1="244.56" x2="253.32" y2="248.352"/><line x1="249.527" y1="248.352" x2="253.32" y2="244.56"/>
<line x1="249.98" y1="245.95" x2="253.772" y2="245.95"/><line x1="251.876" y1="244.054" x2="251.876" y2="247.846"/><line x1="249.98" y1="244.054" x2="253.772" y2="247.846"/><line x1="249.98" y1="247.846" x2="253.772" y2="244.054"/>
<line x1="250.433" y1="247.269" x2="254.225" y2="247.269"/><line x1="252.329" y1="245.373" x2="252.329" y2="249.166"/><line x1="250.433" y1="245.373" x2="254.225" y2="249.166"/><line x1="250.433" y1="249.166" x2="254.225" y2="245.373"/>
<line x1="250.885" y1="255.176" x2="254.678" y2="255.176"/><line x1="252.781" y1="253.28" x2="252.781" y2="257.072"/><line x1="250.885" y1="253.28" x2="254.678" y2="257.072"/><line x1="250.885" y1="257.072" x2="254.678" y2="253.28"/>
<line x1="251.338" y1="260.941" x2="255.13" y2="260.941"/><line x1="253.234" y1="259.045" x2="253.234" y2="262.837"/><line x1="251.338" y1="259.045" x2="255.13" y2="262.837"/><line x1="251.338" y1="262.837" x2="255.13" y2="259.045"/>
<line x1="251.791" y1="267.824" x2="255.583" y2="267.824"/><line x1="253.687" y1="265.928" x2="253.687" y2="269.72"/><line x1="251.791" y1="265.928" x2="255.583" y2="269.72"/><line x1="251.791" y1="269.72" x2="255.583" y2="265.928"/>
<line x1="252.243" y1="276.04" x2="256.036" y2="276.04"/><line x1="254.14" y1="274.144" x2="254.14" y2="277.936"/><line x1="252.243" y1="274.144" x2="256.036" y2="277.936"/><line x1="252.243" y1="277.936" x2="256.036" y2="274.144"/>
<line x1="252.696" y1="275.142" x2="256.488" y2="275.142"/><line x1="254.592" y1="273.246" x2="254.592" y2="277.038"/><line x1="252.696" y1="273.246" x2="256.488" y2="277.038"/><line x1="252.696" y1="277.038" x2="256.488" y2="273.246"/>
<line x1="253.149" y1="271.062" x2="256.941" y2="271.062"/><line x1="255.045" y1="269.166" x2="255.045" y2="272.958"/><line x1="253.149" y1="269.166" x2="256.941" y2="272.958"/><line x1="253.149" y1="272.958" x2="256.941" y2="269.166"/>
<line x1="253.602" y1="272.045" x2="257.394" y2="272.045"/><line x1="255.498" y1="270.149" x2="255.498" y2="273.941"/><line x1="253.602" y1="270.149" x2="257.394" y2="273.941"/><line x1="253.602" y1="273.941" x2="257.394" y2="270.149"/>
<line x1="254.054" y1="271.893" x2="257.846" y2="271.893"/><line x1="255.95" y1="269.997" x2="255.95" y2="273.789"/><line x1="254.054" y1="269.997" x2="257.846" y2="273.789"/><line x1="254.054" y1="273.789" x2="257.846" y2="269.997"/>
<line x1="254.507" y1="260.926" x2="258.299" y2="260.926"/><line x1="256.403" y1="259.03" x2="256.403" y2="262.822"/><line x1="254.507" y1="259.03" x2="258.299" y2="262.822"/><line x1="254.507" y1="262.822" x2="258.299" y2="259.03"/>
<line x1="254.96" y1="263.276" x2="258.752" y2="263.276"/><line x1="256.856" y1="261.38" x2="256.856" y2="265.173"/><line x1="254.96" y1="261.38" x2="258.752" y2="265.173"/><line x1="254.96" y1="265.173" x2="258.752" y2="261.38"/>
<line x1="255.412" y1="262.217" x2="259.204" y2="262.217"/><line x1="257.308" y1="260.321" x2="257.308" y2="264.113"/><line x1="255.412" y1="260.321" x2="259.204" y2="264.113"/><line x1="255.412" y1="264.113" x2="259.204" y2="260.321"/>
<line x1="255.865" y1="266.049" x2="259.657" y2="266.049"/><line x1="257.761" y1="264.153" x2="257.761" y2="267.945"/><line x1="255.865" y1="264.153" x2="259.657" y2="267.945"/><line x1="255.865" y1="267.945" x2="259.657" y2="264.153"/>
<line x1="256.318" y1="273.307" x2="260.11" y2="273.307"/><line x1="258.214" y1="271.411" x2="258.214" y2="275.203"/><line x1="256.318" y1="271.411" x2="260.11" y2="275.203"/><line x1="256.318" y1="275.203" x2="260.11" y2="271.411"/>
<line x1="256.77" y1="277.373" x2="260.562" y2="277.373"/><line x1="258.666" y1="275.477" x2="258.666" y2="279.269"/><line x1="256.77" y1="275.477" x2="260.562" y2="279.269"/><line x1="256.77" y1="279.269" x2="260.562" y2="275.477"/>
<line x1="257.223" y1="278.253" x2="261.015" y2="278.253"/><line x1="259.119" y1="276.357" x2="259.119" y2="280.149"/><line x1="257.223" y1="276.357" x2="261.015" y2="280.149"/><line x1="257.223" y1="280.149" x2="261.015" y2="276.357"/>
<line x1="257.676" y1="281.937" x2="261.468" y2="281.937"/><line x1="259.572" y1="280.041" x2="259.572" y2="283.833"/><line x1="257.676" y1="280.041" x2="261.468" y2="283.833"/><line x1="257.676" y1="283.833" x2="261.468" y2="280.041"/>
<line x1="258.128" y1="281.84" x2="261.921" y2="281.84"/><line x1="260.024" y1="279.944" x2="260.024" y2="283.736"/><line x1="258.128" y1="279.944" x2="261.921" y2="283.736"/><line x1="258.128" y1="283.736" x2="261.921" y2="279.944"/>
<line x1="258.581" y1="283.378" x2="262.373" y2="283.378"/><line x1="260.477" y1="281.482" x2="260.477" y2="285.275"/><line x1="258.581" y1="281.482" x2="262.373" y2="285.275"/><line x1="258.581" y1="285.275" x2="262.373" y2="281.482"/>
<line x1="259.034" y1="286.499" x2="262.826" y2="286.499"/><line x1="260.93" y1="284.603" x2="260.93" y2="288.395"/><line x1="259.034" y1="284.603" x2="262.826" y2="288.395"/><line x1="259.034" y1="288.395" x2="262.826" y2="284.603"/>
<line x1="259.486" y1="290.941" x2="263.279" y2="290.941"/><line x1="261.382" y1="289.045" x2="261.382" y2="292.837"/><line x1="259.486" y1="289.045" x2="263.279" y2="292.837"/><line x1="259.486" y1="292.837" x2="263.279" y2="289.045"/>
<line x1="259.939" y1="288.586" x2="263.731" y2="288.586"/><line x1="261.835" y1="286.689" x2="261.835" y2="290.482"/><line x1="259.939" y1="286.689" x2="263.731" y2="290.482"/><line x1="259.939" y1="290.482" x2="263.731" y2="286.689"/>
<line x1="260.392" y1="279.134" x2="264.184" y2="279.134"/><line x1="262.288" y1="277.238" x2="262.288" y2="281.03"/><line x1="260.392" y1="277.238" x2="264.184" y2="281.03"/><line x1="260.392" y1="281.03" x2="264.184" y2="277.238"/>
<line x1="260.844" y1="280.232" x2="264.637" y2="280.232"/><line x1="262.741" y1="278.336" x2="262.741" y2="282.129"/><line x1="260.844" y1="278.336" x2="264.637" y2="282.129"/><line x1="260.844" y1="282.129" x2="264.637" y2="278.336"/>
<line x1="261.297" y1="286.326" x2="265.089" y2="286.326"/><line x1="263.193" y1="284.43" x2="263.193" y2="288.222"/><line x1="261.297" y1="284.43" x2="265.089" y2="288.222"/><line x1="261.297" y1="288.222" x2="265.089" y2="284.43"/>
<line x1="261.75" y1="286.043" x2="265.542" y2="286.043"/><line x1="263.646" y1="284.147" x2="263.646" y2="287.939"/><line x1="261.75" y1="284.147" x2="265.542" y2="287.939"/><line x1="261.75" y1="287.939" x2="265.542" y2="284.147"/>
<line x1="262.202" y1="288.288" x2="265.995" y2="288.288"/><line x1="264.099" y1="286.392" x2="264.099" y2="290.185"/><line x1="262.202" y1="286.392" x2="265.995" y2="290.185"/><line x1="262.202" y1="290.185" x2="265.995" y2="286.392"/>
<line x1="262.655" y1="281.938" x2="266.447" y2="281.938"/><line x1="264.551" y1="280.042" x2="264.551" y2="283.834"/><line x1="262.655" y1="280.042" x2="266.447" y2="283.834"/><line x1="262.655" y1="283.834" x2="266.447" y2="280.042"/>
<line x1="263.108" y1="290.854" x2="266.9" y2="290.854"/><line x1="265.004" y1="288.958" x2="265.004" y2="292.75"/><line x1="263.108" y1="288.958" x2="266.9" y2="292.75"/><line x1="263.108" y1="292.75" x2="266.9" y2="288.958"/>
<line x1="263.561" y1="295.528" x2="267.353" y2="295.528"/><line x1="265.457" y1="293.632" x2="265.457" y2="297.424"/><line x1="263.561" y1="293.632" x2="267.353" y2="297.424"/><line x1="263.561" y1="297.424" x2="267.353" y2="293.632"/>
<line x1="264.013" y1="302.168" x2="267.805" y2="302.168"/><line x1="265.909" y1="300.272" x2="265.909" y2="304.064"/><line x1="264.013" y1="300.272" x2="267.805" y2="304.064"/><line x1="264.013" y1="304.064" x2="267.805" y2="300.272"/>
<line x1="264.466" y1="302.793" x2="268.258" y2="302.793"/><line x1="266.362" y1="300.897" x2="266.362" y2="304.689"/><line x1="264.466" y1="300.897" x2="268.258" y2="304.689"/><line x1="264.466" y1="304.689" x2="268.258" y2="300.897"/>
<line x1="264.919" y1="306.309" x2="268.711" y2="306.309"/><line x1="266.815" y1="304.413" x2="266.815" y2="308.205"/><line x1="264.919" y1="304.413" x2="268.711" y2="308.205"/><line x1="264.919" y1="308.205" x2="268.711" y2="304.413"/>
<line x1="265.371" y1="306.455" x2="269.163" y2="306.455"/><line x1="267.267" y1="304.559" x2="267.267" y2="308.352"/><line x1="265.371" y1="304.559" x2="269.163" y2="308.352"/><line x1="265.371" y1="308.352" x2="269.163" y2="304.559"/>
<line x1="265.824" y1="303.533" x2="269.616" y2="303.533"/><line x1="267.72" y1="301.637" x2="267.72" y2="305.429"/><line x1="265.824" y1="301.637" x2="269.616" y2="305.429"/><line x1="265.824" y1="305.429" x2="269.616" y2="301.637"/>
<line x1="266.277" y1="312.391" x2="270.069" y2="312.391"/><line x1="268.173" y1="310.495" x2="268.173" y2="314.288"/><line x1="266.277" y1="310.495" x2="270.069" y2="314.288"/><line x1="266.277" y1="314.288" x2="270.069" y2="310.495"/>
<line x1="266.729" y1="315.721" x2="270.521" y2="315.721"/><line x1="268.625" y1="313.825" x2="268.625" y2="317.618"/><line x1="266.729" y1="313.825" x2="270.521" y2="317.618"/><line x1="266.729" y1="317.618" x2="270.521" y2="313.825"/>
<line x1="267.182" y1="317.525" x2="270.974" y2="317.525"/><line x1="269.078" y1="315.629" x2="269.078" y2="319.421"/><line x1="267.182" y1="315.629" x2="270.974" y2="319.421"/><line x1="267.182" y1="319.421" x2="270.974" y2="315.629"/>
<line x1="267.635" y1="327.879" x2="271.427" y2="327.879"/><line x1="269.531" y1="325.983" x2="269.531" y2="329.775"/><line x1="267.635" y1="325.983" x2="271.427" y2="329.775"/><line x1="267.635" y1="329.775" x2="271.427" y2="325.983"/>
<line x1="268.087" y1="333.493" x2="271.88" y2="333.493"/><line x1="269.983" y1="331.597" x2="269.983" y2="335.389"/><line x1="268.087" y1="331.597" x2="271.88" y2="335.389"/><line x1="268.087" y1="335.389" x2="271.88" y2="331.597"/>
<line x1="268.54" y1="336.01" x2="272.332" y2="336.01"/><line x1="270.436" y1="334.114" x2="270.436" y2="337.906"/><line x1="268.54" y1="334.114" x2="272.332" y2="337.906"/><line x1="268.54" y1="337.906" x2="272.332" y2="334.114"/>
<line x1="268.993" y1="333.603" x2="272.785" y2="333.603"/><line x1="270.889" y1="331.707" x2="270.889" y2="335.499"/><line x1="268.993" y1="331.707" x2="272.785" y2="335.499"/><line x1="268.993" y1="335.499" x2="272.785" y2="331.707"/>
<line x1="269.445" y1="329.91" x2="273.238" y2="329.91"/><line x1="271.341" y1="328.014" x2="271.341" y2="331.806"/><line x1="269.445" y1="328.014" x2="273.238" y2="331.806"/><line x1="269.445" y1="331.806" x2="273.238" y2="328.014"/>
<line x1="269.898" y1="325.622" x2="273.69" y2="325.622"/><line x1="271.794" y1="323.726" x2="271.794" y2="327.518"/><line x1="269.898" y1="323.726" x2="273.69" y2="327.518"/><line x1="269.898" y1="327.518" x2="273.69" y2="323.726"/>
<line x1="270.351" y1="319.314" x2="274.143" y2="319.314"/><line x1="272.247" y1="317.418" x2="272.247" y2="321.211"/><line x1="270.351" y1="317.418" x2="274.143" y2="321.211"/><line x1="270.351" y1="321.211" x2="274.143" y2="317.418"/>
<line x1="270.803" y1="320.725" x2="274.596" y2="320.725"/><line x1="272.7" y1="318.829" x2="272.7" y2="322.621"/><line x1="270.803" y1="318.829" x2="274.596" y2="322.621"/><line x1="270.803" y1="322.621" x2="274.596" y2="318.829"/>
<line x1="271.256" y1="317.436" x2="275.048" y2="317.436"/><line x1="273.152" y1="315.539" x2="273.152" y2="319.332"/><line x1="271.256" y1="315.539" x2="275.048" y2="319.332"/><line x1="271.256" y1="319.332" x2="275.048" y2="315.539"/>
<line x1="271.709" y1="316.32" x2="275.501" y2="316.32"/><line x1="273.605" y1="314.424" x2="273.605" y2="318.216"/><line x1="271.709" y1="314.424" x2="275.501" y2="318.216"/><line x1="271.709" y1="318.216" x2="275.501" y2="314.424"/>
<line x1="272.162" y1="318.623" x2="275.954" y2="318.623"/><line x1="274.058" y1="316.727" x2="274.058" y2="320.519"/><line x1="272.162" y1="316.727" x2="275.954" y2="320.519"/><line x1="272.162" y1="320.519" x2="275.954" y2="316.727"/>
<line x1="272.614" y1="317.956" x2="276.406" y2="317.956"/><line x1="274.51" y1="316.06" x2="274.51" y2="319.852"/><line x1="272.614" y1="316.06" x2="276.406" y2="319.852"/><line x1="272.614" y1="319.852" x2="276.406" y2="316.06"/>
<line x1="273.067" y1="320.067" x2="276.859" y2="320.067"/><line x1="274.963" y1="318.171" x2="274.963" y2="321.963"/><line x1="273.067" y1="318.171" x2="276.859" y2="321.963"/><line x1="273.067" y1="321.963" x2="276.859" y2="318.171"/>
<line x1="273.52" y1="328.274" x2="277.312" y2="328.274"/><line x1="275.416" y1="326.378" x2="275.416" y2="330.17"/><line x1="273.52" y1="326.378" x2="277.312" y2="330.17"/><line x1="273.52" y1="330.17" x2="277.312" y2="326.378"/>
<line x1="273.972" y1="332.253" x2="277.764" y2="332.253"/><line x1="275.868" y1="330.357" x2="275.868" y2="334.149"/><line x1="273.972" y1="330.357" x2="277.764" y2="334.149"/><line x1="273.972" y1="334.149" x2="277.764" y2="330.357"/>
<line x1="274.425" y1="330.891" x2="278.217" y2="330.891"/><line x1="276.321" y1="328.995" x2="276.321" y2="332.787"/><line x1="274.425" y1="328.995" x2="278.217" y2="332.787"/><line x1="274.425" y1="332.787" x2="278.217" y2="328.995"/>
<line x1="274.878" y1="329.281" x2="278.67" y2="329.281"/><line x1="276.774" y1="327.385" x2="276.774" y2="331.177"/><line x1="274.878" y1="327.385" x2="278.67" y2="331.177"/><line x1="274.878" y1="331.177" x2="278.67" y2="327.385"/>
<line x1="275.33" y1="327.027" x2="279.122" y2="327.027"/><line x1="277.226" y1="325.131" x2="277.226" y2="328.923"/><line x1="275.33" y1="325.131" x2="279.122" y2="328.923"/><line x1="275.33" y1="328.923" x2="279.122" y2="325.131"/>
<line x1="275.783" y1="334.249" x2="279.575" y2="334.249"/><line x1="277.679" y1="332.353" x2="277.679" y2="336.145"/><line x1="275.783" y1="332.353" x2="279.575" y2="336.145"/><line x1="275.783" y1="336.145" x2="279.575" y2="332.353"/>
<line x1="276.236" y1="334.478" x2="280.028" y2="334.478"/><line x1="278.132" y1="332.582" x2="278.132" y2="336.374"/><line x1="276.236" y1="332.582" x2="280.028" y2="336.374"/><line x1="276.236" y1="336.374" x2="280.028" y2="332.582"/>
<line x1="276.688" y1="336.752" x2="280.481" y2="336.752"/><line x1="278.584" y1="334.856" x2="278.584" y2="338.648"/><line x1="276.688" y1="334.856" x2="280.481" y2="338.648"/><line x1="276.688" y1="338.648" x2="280.481" y2="334.856"/>
<line x1="277.141" y1="343.191" x2="280.933" y2="343.191"/><line x1="279.037" y1="341.295" x2="279.037" y2="345.087"/><line x1="277.141" y1="341.295" x2="280.933" y2="345.087"/><line x1="277.141" y1="345.087" x2="280.933" y2="341.295"/>
<line x1="277.594" y1="335.729" x2="281.386" y2="335.729"/><line x1="279.49" y1="333.833" x2="279.49" y2="337.625"/><line x1="277.594" y1="333.833" x2="281.386" y2="337.625"/><line x1="277.594" y1="337.625" x2="281.386" y2="333.833"/>
<line x1="278.046" y1="332.893" x2="281.839" y2="332.893"/><line x1="279.942" y1="330.997" x2="279.942" y2="334.79"/><line x1="278.046" y1="330.997" x2="281.839" y2="334.79"/><line x1="278.046" y1="334.79" x2="281.839" y2="330.997"/>
<line x1="278.499" y1="332.016" x2="282.291" y2="332.016"/><line x1="280.395" y1="330.119" x2="280.395" y2="333.912"/><line x1="278.499" y1="330.119" x2="282.291" y2="333.912"/><line x1="278.499" y1="333.912" x2="282.291" y2="330.119"/>
<line x1="278.952" y1="332.045" x2="282.744" y2="332.045"/><line x1="280.848" y1="330.148" x2="280.848" y2="333.941"/><line x1="278.952" y1="330.148" x2="282.744" y2="333.941"/><line x1="278.952" y1="333.941" x2="282.744" y2="330.148"/>
<line x1="279.404" y1="336.941" x2="283.197" y2="336.941"/><line x1="281.301" y1="335.045" x2="281.301" y2="338.837"/><line x1="279.404" y1="335.045" x2="283.197" y2="338.837"/><line x1="279.404" y1="338.837" x2="283.197" y2="335.045"/>
<line x1="279.857" y1="345.534" x2="283.649" y2="345.534"/><line x1="281.753" y1="343.638" x2="281.753" y2="347.43"/><line x1="279.857" y1="343.638" x2="283.649" y2="347.43"/><line x1="279.857" y1="347.43" x2="283.649" y2="343.638"/>
<line x1="280.31" y1="341.293" x2="284.102" y2="341.293"/><line x1="282.206" y1="339.397" x2="282.206" y2="343.19"/><line x1="280.31" y1="339.397" x2="284.102" y2="343.19"/><line x1="280.31" y1="343.19" x2="284.102" y2="339.397"/>
<line x1="280.763" y1="341.722" x2="284.555" y2="341.722"/><line x1="282.659" y1="339.826" x2="282.659" y2="343.618"/><line x1="280.763" y1="339.826" x2="284.555" y2="343.618"/><line x1="280.763" y1="343.618" x2="284.555" y2="339.826"/>
<line x1="281.215" y1="346.601" x2="285.007" y2="346.601"/><line x1="283.111" y1="344.705" x2="283.111" y2="348.497"/><line x1="281.215" y1="344.705" x2="285.007" y2="348.497"/><line x1="281.215" y1="348.497" x2="285.007" y2="344.705"/>
<line x1="281.668" y1="354.888" x2="285.46" y2="354.888"/><line x1="283.564" y1="352.992" x2="283.564" y2="356.784"/><line x1="281.668" y1="352.992" x2="285.46" y2="356.784"/><line x1="281.668" y1="356.784" x2="285.46" y2="352.992"/>
<line x1="282.121" y1="356.265" x2="285.913" y2="356.265"/><line x1="284.017" y1="354.369" x2="284.017" y2="358.161"/><line x1="282.121" y1="354.369" x2="285.913" y2="358.161"/><line x1="282.121" y1="358.161" x2="285.913" y2="354.369"/>
<line x1="282.573" y1="354.627" x2="286.365" y2="354.627"/><line x1="284.469" y1="352.731" x2="284.469" y2="356.523"/><line x1="282.573" y1="352.731" x2="286.365" y2="356.523"/><line x1="282.573" y1="356.523" x2="286.365" y2="352.731"/>
<line x1="283.026" y1="353.423" x2="286.818" y2="353.423"/><line x1="284.922" y1="351.527" x2="284.922" y2="355.319"/><line x1="283.026" y1="351.527" x2="286.818" y2="355.319"/><line x1="283.026" y1="355.319" x2="286.818" y2="351.527"/>
<line x1="283.479" y1="354.265" x2="287.271" y2="354.265"/><line x1="285.375" y1="352.369" x2="285.375" y2="356.161"/><line x1="283.479" y1="352.369" x2="287.271" y2="356.161"/><line x1="283.479" y1="356.161" x2="287.271" y2="352.369"/>
<line x1="283.931" y1="352.228" x2="287.723" y2="352.228"/><line x1="285.827" y1="350.332" x2="285.827" y2="354.124"/><line x1="283.931" y1="350.332" x2="287.723" y2="354.124"/><line x1="283.931" y1="354.124" x2="287.723" y2="350.332"/>
<line x1="284.384" y1="352.263" x2="288.176" y2="352.263"/><line x1="286.28" y1="350.367" x2="286.28" y2="354.159"/><line x1="284.384" y1="350.367" x2="288.176" y2="354.159"/><line x1="284.384" y1="354.159" x2="288.176" y2="350.367"/>
<line x1="284.837" y1="352.079" x2="288.629" y2="352.079"/><line x1="286.733" y1="350.183" x2="286.733" y2="353.976"/><line x1="284.837" y1="350.183" x2="288.629" y2="353.976"/><line x1="284.837" y1="353.976" x2="288.629" y2="350.183"/>
<line x1="285.289" y1="351.505" x2="289.082" y2="351.505"/><line x1="287.185" y1="349.609" x2="287.185" y2="353.401"/><line x1="285.289" y1="349.609" x2="289.082" y2="353.401"/><line x1="285.289" y1="353.401" x2="289.082" y2="349.609"/>
<line x1="285.742" y1="350.679" x2="289.534" y2="350.679"/><line x1="287.638" y1="348.783" x2="287.638" y2="352.575"/><line x1="285.742" y1="348.783" x2="289.534" y2="352.575"/><line x1="285.742" y1="352.575" x2="289.534" y2="348.783"/>
<line x1="286.195" y1="348.805" x2="289.987" y2="348.805"/><line x1="288.091" y1="346.909" x2="288.091" y2="350.702"/><line x1="286.195" y1="346.909" x2="289.987" y2="350.702"/><line x1="286.195" y1="350.702" x2="289.987" y2="346.909"/>
<line x1="286.647" y1="345.302" x2="290.44" y2="345.302"/><line x1="288.543" y1="343.406" x2="288.543" y2="347.198"/><line x1="286.647" y1="343.406" x2="290.44" y2="347.198"/><line x1="286.647" y1="347.198" x2="290.44" y2="343.406"/>
<line x1="287.1" y1="343.119" x2="290.892" y2="343.119"/><line x1="288.996" y1="341.223" x2="288.996" y2="345.015"/><line x1="287.1" y1="341.223" x2="290.892" y2="345.015"/><line x1="287.1" y1="345.015" x2="290.892" y2="341.223"/>
<line x1="287.553" y1="347.032" x2="291.345" y2="347.032"/><line x1="289.449" y1="345.136" x2="289.449" y2="348.928"/><line x1="287.553" y1="345.136" x2="291.345" y2="348.928"/><line x1="287.553" y1="348.928" x2="291.345" y2="345.136"/>
<line x1="288.005" y1="343.076" x2="291.798" y2="343.076"/><line x1="289.902" y1="341.18" x2="289.902" y2="344.972"/><line x1="288.005" y1="341.18" x2="291.798" y2="344.972"/><line x1="288.005" y1="344.972" x2="291.798" y2="341.18"/>
<line x1="288.458" y1="337.974" x2="292.25" y2="337.974"/><line x1="290.354" y1="336.078" x2="290.354" y2="339.871"/><line x1="288.458" y1="336.078" x2="292.25" y2="339.871"/><line x1="288.458" y1="339.871" x2="292.25" y2="336.078"/>
<line x1="288.911" y1="337.359" x2="292.703" y2="337.359"/><line x1="290.807" y1="335.463" x2="290.807" y2="339.255"/><line x1="288.911" y1="335.463" x2="292.703" y2="339.255"/><line x1="288.911" y1="339.255" x2="292.703" y2="335.463"/>
<line x1="289.363" y1="338.456" x2="293.156" y2="338.456"/><line x1="291.26" y1="336.56" x2="291.26" y2="340.352"/><line x1="289.363" y1="336.56" x2="293.156" y2="340.352"/><line x1="289.363" y1="340.352" x2="293.156" y2="336.56"/>
<line x1="289.816" y1="342.995" x2="293.608" y2="342.995"/><line x1="291.712" y1="341.099" x2="291.712" y2="344.891"/><line x1="289.816" y1="341.099" x2="293.608" y2="344.891"/><line x1="289.816" y1="344.891" x2="293.608" y2="341.099"/>
<line x1="290.269" y1="339.919" x2="294.061" y2="339.919"/><line x1="292.165" y1="338.023" x2="292.165" y2="341.815"/><line x1="290.269" y1="338.023" x2="294.061" y2="341.815"/><line x1="290.269" y1="341.815" x2="294.061" y2="338.023"/>
<line x1="290.722" y1="340.854" x2="294.514" y2="340.854"/><line x1="292.618" y1="338.958" x2="292.618" y2="342.75"/><line x1="290.722" y1="338.958" x2="294.514" y2="342.75"/><line x1="290.722" y1="342.75" x2="294.514" y2="338.958"/>
<line x1="291.174" y1="338.356" x2="294.966" y2="338.356"/><line x1="293.07" y1="336.46" x2="293.07" y2="340.252"/><line x1="291.174" y1="336.46" x2="294.966" y2="340.252"/><line x1="291.174" y1="340.252" x2="294.966" y2="336.46"/>
<line x1="291.627" y1="331.013" x2="295.419" y2="331.013"/><line x1="293.523" y1="329.117" x2="293.523" y2="332.909"/><line x1="291.627" y1="329.117" x2="295.419" y2="332.909"/><line x1="291.627" y1="332.909" x2="295.419" y2="329.117"/>
<line x1="292.08" y1="324.67" x2="295.872" y2="324.67"/><line x1="293.976" y1="322.774" x2="293.976" y2="326.566"/><line x1="292.08" y1="322.774" x2="295.872" y2="326.566"/><line x1="292.08" y1="326.566" x2="295.872" y2="322.774"/>
<line x1="292.532" y1="321.325" x2="296.324" y2="321.325"/><line x1="294.428" y1="319.429" x2="294.428" y2="323.221"/><line x1="292.532" y1="319.429" x2="296.324" y2="323.221"/><line x1="292.532" y1="323.221" x2="296.324" y2="319.429"/>
<line x1="292.985" y1="316.758" x2="296.777" y2="316.758"/><line x1="294.881" y1="314.861" x2="294.881" y2="318.654"/><line x1="292.985" y1="314.861" x2="296.777" y2="318.654"/><line x1="292.985" y1="318.654" x2="296.777" y2="314.861"/>
<line x1="293.438" y1="315.588" x2="297.23" y2="315.588"/><line x1="295.334" y1="313.692" x2="295.334" y2="317.484"/><line x1="293.438" y1="313.692" x2="297.23" y2="317.484"/><line x1="293.438" y1="317.484" x2="297.23" y2="313.692"/>
<line x1="293.89" y1="323.101" x2="297.682" y2="323.101"/><line x1="295.786" y1="321.205" x2="295.786" y2="324.997"/><line x1="293.89" y1="321.205" x2="297.682" y2="324.997"/><line x1="293.89" y1="324.997" x2="297.682" y2="321.205"/>
<line x1="294.343" y1="319.751" x2="298.135" y2="319.751"/><line x1="296.239" y1="317.855" x2="296.239" y2="321.647"/><line x1="294.343" y1="317.855" x2="298.135" y2="321.647"/><line x1="294.343" y1="321.647" x2="298.135" y2="317.855"/>
<line x1="294.796" y1="320.848" x2="298.588" y2="320.848"/><line x1="296.692" y1="318.952" x2="296.692" y2="322.744"/><line x1="294.796" y1="318.952" x2="298.588" y2="322.744"/><line x1="294.796" y1="322.744" x2="298.588" y2="318.952"/>
<line x1="295.248" y1="313.633" x2="299.041" y2="313.633"/><line x1="297.144" y1="311.737" x2="297.144" y2="315.529"/><line x1="295.248" y1="311.737" x2="299.041" y2="315.529"/><line x1="295.248" y1="315.529" x2="299.041" y2="311.737"/>
<line x1="295.701" y1="312.108" x2="299.493" y2="312.108"/><line x1="297.597" y1="310.212" x2="297.597" y2="314.004"/><line x1="295.701" y1="310.212" x2="299.493" y2="314.004"/><line x1="295.701" y1="314.004" x2="299.493" y2="310.212"/>
<line x1="296.154" y1="314.454" x2="299.946" y2="314.454"/><line x1="298.05" y1="312.558" x2="298.05" y2="316.35"/><line x1="296.154" y1="312.558" x2="299.946" y2="316.35"/><line x1="296.154" y1="316.35" x2="299.946" y2="312.558"/>
<line x1="296.606" y1="313.168" x2="300.399" y2="313.168"/><line x1="298.503" y1="311.272" x2="298.503" y2="315.064"/><line x1="296.606" y1="311.272" x2="300.399" y2="315.064"/><line x1="296.606" y1="315.064" x2="300.399" y2="311.272"/>
<line x1="297.059" y1="316.31" x2="300.851" y2="316.31"/><line x1="298.955" y1="314.414" x2="298.955" y2="318.206"/><line x1="297.059" y1="314.414" x2="300.851" y2="318.206"/><line x1="297.059" y1="318.206" x2="300.851" y2="314.414"/>
<line x1="297.512" y1="324.03" x2="301.304" y2="324.03"/><line x1="299.408" y1="322.134" x2="299.408" y2="325.926"/><line x1="297.512" y1="322.134" x2="301.304" y2="325.926"/><line x1="297.512" y1="325.926" x2="301.304" y2="322.134"/>
<line x1="297.964" y1="321.065" x2="301.757" y2="321.065"/><line x1="299.861" y1="319.169" x2="299.861" y2="322.962"/><line x1="297.964" y1="319.169" x2="301.757" y2="322.962"/><line x1="297.964" y1="322.962" x2="301.757" y2="319.169"/>
<line x1="298.417" y1="317.767" x2="302.209" y2="317.767"/><line x1="300.313" y1="315.871" x2="300.313" y2="319.663"/><line x1="298.417" y1="315.871" x2="302.209" y2="319.663"/><line x1="298.417" y1="319.663" x2="302.209" y2="315.871"/>
<line x1="298.87" y1="313.976" x2="302.662" y2="313.976"/><line x1="300.766" y1="312.08" x2="300.766" y2="315.873"/><line x1="298.87" y1="312.08" x2="302.662" y2="315.873"/><line x1="298.87" y1="315.873" x2="302.662" y2="312.08"/>
<line x1="299.323" y1="313.653" x2="303.115" y2="313.653"/><line x1="301.219" y1="311.757" x2="301.219" y2="315.549"/><line x1="299.323" y1="311.757" x2="303.115" y2="315.549"/><line x1="299.323" y1="315.549" x2="303.115" y2="311.757"/>
<line x1="299.775" y1="310.247" x2="303.567" y2="310.247"/><line x1="301.671" y1="308.351" x2="301.671" y2="312.143"/><line x1="299.775" y1="308.351" x2="303.567" y2="312.143"/><line x1="299.775" y1="312.143" x2="303.567" y2="308.351"/>
<line x1="300.228" y1="312.936" x2="304.02" y2="312.936"/><line x1="302.124" y1="311.04" x2="302.124" y2="314.832"/><line x1="300.228" y1="311.04" x2="304.02" y2="314.832"/><line x1="300.228" y1="314.832" x2="304.02" y2="311.04"/>
<line x1="300.681" y1="315.935" x2="304.473" y2="315.935"/><line x1="302.577" y1="314.039" x2="302.577" y2="317.831"/><line x1="300.681" y1="314.039" x2="304.473" y2="317.831"/><line x1="300.681" y1="317.831" x2="304.473" y2="314.039"/>
<line x1="301.133" y1="308.578" x2="304.925" y2="308.578"/><line x1="303.029" y1="306.682" x2="303.029" y2="310.474"/><line x1="301.133" y1="306.682" x2="304.925" y2="310.474"/><line x1="301.133" y1="310.474" x2="304.925" y2="306.682"/>
<line x1="301.586" y1="309.7" x2="305.378" y2="309.7"/><line x1="303.482" y1="307.804" x2="303.482" y2="311.596"/><line x1="301.586" y1="307.804" x2="305.378" y2="311.596"/><line x1="301.586" y1="311.596" x2="305.378" y2="307.804"/>
<line x1="302.039" y1="308.677" x2="305.831" y2="308.677"/><line x1="303.935" y1="306.781" x2="303.935" y2="310.573"/><line x1="302.039" y1="306.781" x2="305.831" y2="310.573"/><line x1="302.039" y1="310.573" x2="305.831" y2="306.781"/>
<line x1="302.491" y1="313.915" x2="306.283" y2="313.915"/><line x1="304.387" y1="312.019" x2="304.387" y2="315.811"/><line x1="302.491" y1="312.019" x2="306.283" y2="315.811"/><line x1="302.491" y1="315.811" x2="306.283" y2="312.019"/>
<line x1="302.944" y1="314.96" x2="306.736" y2="314.96"/><line x1="304.84" y1="313.063" x2="304.84" y2="316.856"/><line x1="302.944" y1="313.063" x2="306.736" y2="316.856"/><line x1="302.944" y1="316.856" x2="306.736" y2="313.063"/>
<line x1="303.397" y1="312.236" x2="307.189" y2="312.236"/><line x1="305.293" y1="310.34" x2="305.293" y2="314.132"/><line x1="303.397" y1="310.34" x2="307.189" y2="314.132"/><line x1="303.397" y1="314.132" x2="307.189" y2="310.34"/>
<line x1="303.849" y1="310.772" x2="307.642" y2="310.772"/><line x1="305.745" y1="308.875" x2="305.745" y2="312.668"/><line x1="303.849" y1="308.875" x2="307.642" y2="312.668"/><line x1="303.849" y1="312.668" x2="307.642" y2="308.875"/>
<line x1="304.302" y1="312.526" x2="308.094" y2="312.526"/><line x1="306.198" y1="310.63" x2="306.198" y2="314.422"/><line x1="304.302" y1="310.63" x2="308.094" y2="314.422"/><line x1="304.302" y1="314.422" x2="308.094" y2="310.63"/>
<line x1="304.755" y1="308.267" x2="308.547" y2="308.267"/><line x1="306.651" y1="306.371" x2="306.651" y2="310.163"/><line x1="304.755" y1="306.371" x2="308.547" y2="310.163"/><line x1="304.755" y1="310.163" x2="308.547" y2="306.371"/>
<line x1="305.207" y1="306.642" x2="309" y2="306.642"/><line x1="307.103" y1="304.745" x2="307.103" y2="308.538"/><line x1="305.207" y1="304.745" x2="309" y2="308.538"/><line x1="305.207" y1="308.538" x2="309" y2="304.745"/>
<line x1="305.66" y1="307.556" x2="309.452" y2="307.556"/><line x1="307.556" y1="305.66" x2="307.556" y2="309.453"/><line x1="305.66" y1="305.66" x2="309.452" y2="309.453"/><line x1="305.66" y1="309.453" x2="309.452" y2="305.66"/>
<line x1="306.113" y1="315.339" x2="309.905" y2="315.339"/><line x1="308.009" y1="313.443" x2="308.009" y2="317.235"/><line x1="306.113" y1="313.443" x2="309.905" y2="317.235"/><line x1="306.113" y1="317.235" x2="309.905" y2="313.443"/>
<line x1="306.565" y1="319.132" x2="310.358" y2="319.132"/><line x1="308.462" y1="317.236" x2="308.462" y2="321.028"/><line x1="306.565" y1="317.236" x2="310.358" y2="321.028"/><line x1="306.565" y1="321.028" x2="310.358" y2="317.236"/>
<line x1="307.018" y1="320.247" x2="310.81" y2="320.247"/><line x1="308.914" y1="318.351" x2="308.914" y2="322.143"/><line x1="307.018" y1="318.351" x2="310.81" y2="322.143"/><line x1="307.018" y1="322.143" x2="310.81" y2="318.351"/>
<line x1="307.471" y1="320.837" x2="311.263" y2="320.837"/><line x1="309.367" y1="318.941" x2="309.367" y2="322.733"/><line x1="307.471" y1="318.941" x2="311.263" y2="322.733"/><line x1="307.471" y1="322.733" x2="311.263" y2="318.941"/>
<line x1="307.923" y1="323.319" x2="311.716" y2="323.319"/><line x1="309.82" y1="321.423" x2="309.82" y2="325.216"/><line x1="307.923" y1="321.423" x2="311.716" y2="325.216"/><line x1="307.923" y1="325.216" x2="311.716" y2="321.423"/>
<line x1="308.376" y1="322.186" x2="312.168" y2="322.186"/><line x1="310.272" y1="320.29" x2="310.272" y2="324.082"/><line x1="308.376" y1="320.29" x2="312.168" y2="324.082"/><line x1="308.376" y1="324.082" x2="312.168" y2="320.29"/>
<line x1="308.829" y1="319.34" x2="312.621" y2="319.34"/><line x1="310.725" y1="317.444" x2="310.725" y2="321.236"/><line x1="308.829" y1="317.444" x2="312.621" y2="321.236"/><line x1="308.829" y1="321.236" x2="312.621" y2="317.444"/>
<line x1="309.282" y1="319.134" x2="313.074" y2="319.134"/><line x1="311.178" y1="317.238" x2="311.178" y2="321.03"/><line x1="309.282" y1="317.238" x2="313.074" y2="321.03"/><line x1="309.282" y1="321.03" x2="313.074" y2="317.238"/>
<line x1="309.734" y1="314.242" x2="313.526" y2="314.242"/><line x1="311.63" y1="312.346" x2="311.63" y2="316.138"/><line x1="309.734" y1="312.346" x2="313.526" y2="316.138"/><line x1="309.734" y1="316.138" x2="313.526" y2="312.346"/>
<line x1="310.187" y1="315.739" x2="313.979" y2="315.739"/><line x1="312.083" y1="313.843" x2="312.083" y2="317.635"/><line x1="310.187" y1="313.843" x2="313.979" y2="317.635"/><line x1="310.187" y1="317.635" x2="313.979" y2="313.843"/>
<line x1="310.64" y1="323.304" x2="314.432" y2="323.304"/><line x1="312.536" y1="321.408" x2="312.536" y2="325.201"/><line x1="310.64" y1="321.408" x2="314.432" y2="325.201"/><line x1="310.64" y1="325.201" x2="314.432" y2="321.408"/>
<line x1="311.092" y1="325.076" x2="314.884" y2="325.076"/><line x1="312.988" y1="323.18" x2="312.988" y2="326.973"/><line x1="311.092" y1="323.18" x2="314.884" y2="326.973"/><line x1="311.092" y1="326.973" x2="314.884" y2="323.18"/>
<line x1="311.545" y1="321.748" x2="315.337" y2="321.748"/><line x1="313.441" y1="319.852" x2="313.441" y2="323.644"/><line x1="311.545" y1="319.852" x2="315.337" y2="323.644"/><line x1="311.545" y1="323.644" x2="315.337" y2="319.852"/>
<line x1="311.998" y1="323.354" x2="315.79" y2="323.354"/><line x1="313.894" y1="321.458" x2="313.894" y2="325.25"/><line x1="311.998" y1="321.458" x2="315.79" y2="325.25"/><line x1="311.998" y1="325.25" x2="315.79" y2="321.458"/>
<line x1="312.45" y1="323.218" x2="316.242" y2="323.218"/><line x1="314.346" y1="321.322" x2="314.346" y2="325.114"/><line x1="312.45" y1="321.322" x2="316.242" y2="325.114"/><line x1="312.45" y1="325.114" x2="316.242" y2="321.322"/>
<line x1="312.903" y1="319.094" x2="316.695" y2="319.094"/><line x1="314.799" y1="317.198" x2="314.799" y2="320.99"/><line x1="312.903" y1="317.198" x2="316.695" y2="320.99"/><line x1="312.903" y1="320.99" x2="316.695" y2="317.198"/>
<line x1="313.356" y1="314.797" x2="317.148" y2="314.797"/><line x1="315.252" y1="312.901" x2="315.252" y2="316.693"/><line x1="313.356" y1="312.901" x2="317.148" y2="316.693"/><line x1="313.356" y1="316.693" x2="317.148" y2="312.901"/>
<line x1="313.808" y1="315.692" x2="317.601" y2="315.692"/><line x1="315.704" y1="313.796" x2="315.704" y2="317.588"/><line x1="313.808" y1="313.796" x2="317.601" y2="317.588"/><line x1="313.808" y1="317.588" x2="317.601" y2="313.796"/>
<line x1="314.261" y1="306.882" x2="318.053" y2="306.882"/><line x1="316.157" y1="304.986" x2="316.157" y2="308.778"/><line x1="314.261" y1="304.986" x2="318.053" y2="308.778"/><line x1="314.261" y1="308.778" x2="318.053" y2="304.986"/>
<line x1="314.714" y1="298.988" x2="318.506" y2="298.988"/><line x1="316.61" y1="297.092" x2="316.61" y2="300.884"/><line x1="314.714" y1="297.092" x2="318.506" y2="300.884"/><line x1="314.714" y1="300.884" x2="318.506" y2="297.092"/>
<line x1="315.166" y1="294.525" x2="318.959" y2="294.525"/><line x1="317.062" y1="292.629" x2="317.062" y2="296.421"/><line x1="315.166" y1="292.629" x2="318.959" y2="296.421"/><line x1="315.166" y1="296.421" x2="318.959" y2="292.629"/>
<line x1="315.619" y1="294.548" x2="319.411" y2="294.548"/><line x1="317.515" y1="292.652" x2="317.515" y2="296.444"/><line x1="315.619" y1="292.652" x2="319.411" y2="296.444"/><line x1="315.619" y1="296.444" x2="319.411" y2="292.652"/>
<line x1="316.072" y1="298.83" x2="319.864" y2="298.83"/><line x1="317.968" y1="296.934" x2="317.968" y2="300.726"/><line x1="316.072" y1="296.934" x2="319.864" y2="300.726"/><line x1="316.072" y1="300.726" x2="319.864" y2="296.934"/>
<line x1="316.524" y1="297.657" x2="320.317" y2="297.657"/><line x1="318.421" y1="295.761" x2="318.421" y2="299.553"/><line x1="316.524" y1="295.761" x2="320.317" y2="299.553"/><line x1="316.524" y1="299.553" x2="320.317" y2="295.761"/>
<line x1="316.977" y1="294.951" x2="320.769" y2="294.951"/><line x1="318.873" y1="293.055" x2="318.873" y2="296.847"/><line x1="316.977" y1="293.055" x2="320.769" y2="296.847"/><line x1="316.977" y1="296.847" x2="320.769" y2="293.055"/>
<line x1="317.43" y1="290.195" x2="321.222" y2="290.195"/><line x1="319.326" y1="288.298" x2="319.326" y2="292.091"/><line x1="317.43" y1="288.298" x2="321.222" y2="292.091"/><line x1="317.43" y1="292.091" x2="321.222" y2="288.298"/>
<line x1="317.883" y1="284.971" x2="321.675" y2="284.971"/><line x1="319.779" y1="283.075" x2="319.779" y2="286.867"/><line x1="317.883" y1="283.075" x2="321.675" y2="286.867"/><line x1="317.883" y1="286.867" x2="321.675" y2="283.075"/>
<line x1="318.335" y1="286.936" x2="322.127" y2="286.936"/><line x1="320.231" y1="285.04" x2="320.231" y2="288.832"/><line x1="318.335" y1="285.04" x2="322.127" y2="288.832"/><line x1="318.335" y1="288.832" x2="322.127" y2="285.04"/>
<line x1="318.788" y1="281.705" x2="322.58" y2="281.705"/><line x1="320.684" y1="279.809" x2="320.684" y2="283.601"/><line x1="318.788" y1="279.809" x2="322.58" y2="283.601"/><line x1="318.788" y1="283.601" x2="322.58" y2="279.809"/>
<line x1="319.241" y1="287.303" x2="323.033" y2="287.303"/><line x1="321.137" y1="285.407" x2="321.137" y2="289.199"/><line x1="319.241" y1="285.407" x2="323.033" y2="289.199"/><line x1="319.241" y1="289.199" x2="323.033" y2="285.407"/>
<line x1="319.693" y1="285.587" x2="323.485" y2="285.587"/><line x1="321.589" y1="283.691" x2="321.589" y2="287.484"/><line x1="319.693" y1="283.691" x2="323.485" y2="287.484"/><line x1="319.693" y1="287.484" x2="323.485" y2="283.691"/>
<line x1="320.146" y1="280.815" x2="323.938" y2="280.815"/><line x1="322.042" y1="278.919" x2="322.042" y2="282.711"/><line x1="320.146" y1="278.919" x2="323.938" y2="282.711"/><line x1="320.146" y1="282.711" x2="323.938" y2="278.919"/>
<line x1="320.599" y1="277.377" x2="324.391" y2="277.377"/><line x1="322.495" y1="275.481" x2="322.495" y2="279.273"/><line x1="320.599" y1="275.481" x2="324.391" y2="279.273"/><line x1="320.599" y1="279.273" x2="324.391" y2="275.481"/>
<line x1="321.051" y1="273.358" x2="324.843" y2="273.358"/><line x1="322.947" y1="271.462" x2="322.947" y2="275.254"/><line x1="321.051" y1="271.462" x2="324.843" y2="275.254"/><line x1="321.051" y1="275.254" x2="324.843" y2="271.462"/>
<line x1="321.504" y1="273.759" x2="325.296" y2="273.759"/><line x1="323.4" y1="271.863" x2="323.4" y2="275.655"/><line x1="321.504" y1="271.863" x2="325.296" y2="275.655"/><line x1="321.504" y1="275.655" x2="325.296" y2="271.863"/>
<line x1="321.957" y1="273.392" x2="325.749" y2="273.392"/><line x1="323.853" y1="271.496" x2="323.853" y2="275.288"/><line x1="321.957" y1="271.496" x2="325.749" y2="275.288"/><line x1="321.957" y1="275.288" x2="325.749" y2="271.496"/>
<line x1="322.409" y1="273.272" x2="326.202" y2="273.272"/><line x1="324.305" y1="271.375" x2="324.305" y2="275.168"/><line x1="322.409" y1="271.375" x2="326.202" y2="275.168"/><line x1="322.409" y1="275.168" x2="326.202" y2="271.375"/>
<line x1="322.862" y1="273.131" x2="326.654" y2="273.131"/><line x1="324.758" y1="271.235" x2="324.758" y2="275.027"/><line x1="322.862" y1="271.235" x2="326.654" y2="275.027"/><line x1="322.862" y1="275.027" x2="326.654" y2="271.235"/>
<line x1="323.315" y1="268.565" x2="327.107" y2="268.565"/><line x1="325.211" y1="266.669" x2="325.211" y2="270.461"/><line x1="323.315" y1="266.669" x2="327.107" y2="270.461"/><line x1="323.315" y1="270.461" x2="327.107" y2="266.669"/>
<line x1="323.767" y1="270.506" x2="327.56" y2="270.506"/><line x1="325.663" y1="268.61" x2="325.663" y2="272.402"/><line x1="323.767" y1="268.61" x2="327.56" y2="272.402"/><line x1="323.767" y1="272.402" x2="327.56" y2="268.61"/>
<line x1="324.22" y1="261.827" x2="328.012" y2="261.827"/><line x1="326.116" y1="259.931" x2="326.116" y2="263.723"/><line x1="324.22" y1="259.931" x2="328.012" y2="263.723"/><line x1="324.22" y1="263.723" x2="328.012" y2="259.931"/>
<line x1="324.673" y1="263.255" x2="328.465" y2="263.255"/><line x1="326.569" y1="261.359" x2="326.569" y2="265.152"/><line x1="324.673" y1="261.359" x2="328.465" y2="265.152"/><line x1="324.673" y1="265.152" x2="328.465" y2="261.359"/>
<line x1="325.125" y1="256.396" x2="328.918" y2="256.396"/><line x1="327.022" y1="254.5" x2="327.022" y2="258.292"/><line x1="325.125" y1="254.5" x2="328.918" y2="258.292"/><line x1="325.125" y1="258.292" x2="328.918" y2="254.5"/>
<line x1="325.578" y1="252.749" x2="329.37" y2="252.749"/><line x1="327.474" y1="250.853" x2="327.474" y2="254.645"/><line x1="325.578" y1="250.853" x2="329.37" y2="254.645"/><line x1="325.578" y1="254.645" x2="329.37" y2="250.853"/>
<line x1="326.031" y1="249.115" x2="329.823" y2="249.115"/><line x1="327.927" y1="247.219" x2="327.927" y2="251.011"/><line x1="326.031" y1="247.219" x2="329.823" y2="251.011"/><line x1="326.031" y1="251.011" x2="329.823" y2="247.219"/>
<line x1="326.484" y1="247.309" x2="330.276" y2="247.309"/><line x1="328.38" y1="245.413" x2="328.38" y2="249.205"/><line x1="326.484" y1="245.413" x2="330.276" y2="249.205"/><line x1="326.484" y1="249.205" x2="330.276" y2="245.413"/>
<line x1="326.936" y1="238.825" x2="330.728" y2="238.825"/><line x1="328.832" y1="236.929" x2="328.832" y2="240.721"/><line x1="326.936" y1="236.929" x2="330.728" y2="240.721"/><line x1="326.936" y1="240.721" x2="330.728" y2="236.929"/>
<line x1="327.389" y1="235.581" x2="331.181" y2="235.581"/><line x1="329.285" y1="233.685" x2="329.285" y2="237.477"/><line x1="327.389" y1="233.685" x2="331.181" y2="237.477"/><line x1="327.389" y1="237.477" x2="331.181" y2="233.685"/>
<line x1="327.842" y1="223.328" x2="331.634" y2="223.328"/><line x1="329.738" y1="221.431" x2="329.738" y2="225.224"/><line x1="327.842" y1="221.431" x2="331.634" y2="225.224"/><line x1="327.842" y1="225.224" x2="331.634" y2="221.431"/>
<line x1="328.294" y1="216.549" x2="332.086" y2="216.549"/><line x1="330.19" y1="214.653" x2="330.19" y2="218.445"/><line x1="328.294" y1="214.653" x2="332.086" y2="218.445"/><line x1="328.294" y1="218.445" x2="332.086" y2="214.653"/>
<line x1="328.747" y1="219.177" x2="332.539" y2="219.177"/><line x1="330.643" y1="217.281" x2="330.643" y2="221.073"/><line x1="328.747" y1="217.281" x2="332.539" y2="221.073"/><line x1="328.747" y1="221.073" x2="332.539" y2="217.281"/>
<line x1="329.2" y1="211.125" x2="332.992" y2="211.125"/><line x1="331.096" y1="209.229" x2="331.096" y2="213.021"/><line x1="329.2" y1="209.229" x2="332.992" y2="213.021"/><line x1="329.2" y1="213.021" x2="332.992" y2="209.229"/>
<line x1="329.652" y1="213.49" x2="333.444" y2="213.49"/><line x1="331.548" y1="211.594" x2="331.548" y2="215.387"/><line x1="329.652" y1="211.594" x2="333.444" y2="215.387"/><line x1="329.652" y1="215.387" x2="333.444" y2="211.594"/>
<line x1="330.105" y1="218.117" x2="333.897" y2="218.117"/><line x1="332.001" y1="216.221" x2="332.001" y2="220.013"/><line x1="330.105" y1="216.221" x2="333.897" y2="220.013"/><line x1="330.105" y1="220.013" x2="333.897" y2="216.221"/>
<line x1="330.558" y1="212.162" x2="334.35" y2="212.162"/><line x1="332.454" y1="210.266" x2="332.454" y2="214.058"/><line x1="330.558" y1="210.266" x2="334.35" y2="214.058"/><line x1="330.558" y1="214.058" x2="334.35" y2="210.266"/>
<line x1="331.01" y1="210.055" x2="334.803" y2="210.055"/><line x1="332.906" y1="208.159" x2="332.906" y2="211.951"/><line x1="331.01" y1="208.159" x2="334.803" y2="211.951"/><line x1="331.01" y1="211.951" x2="334.803" y2="208.159"/>
<line x1="331.463" y1="207.869" x2="335.255" y2="207.869"/><line x1="333.359" y1="205.973" x2="333.359" y2="209.765"/><line x1="331.463" y1="205.973" x2="335.255" y2="209.765"/><line x1="331.463" y1="209.765" x2="335.255" y2="205.973"/>
<line x1="331.916" y1="200.375" x2="335.708" y2="200.375"/><line x1="333.812" y1="198.479" x2="333.812" y2="202.271"/><line x1="331.916" y1="198.479" x2="335.708" y2="202.271"/><line x1="331.916" y1="202.271" x2="335.708" y2="198.479"/>
<line x1="332.368" y1="196.007" x2="336.161" y2="196.007"/><line x1="334.264" y1="194.111" x2="334.264" y2="197.903"/><line x1="332.368" y1="194.111" x2="336.161" y2="197.903"/><line x1="332.368" y1="197.903" x2="336.161" y2="194.111"/>
<line x1="332.821" y1="191.616" x2="336.613" y2="191.616"/><line x1="334.717" y1="189.72" x2="334.717" y2="193.512"/><line x1="332.821" y1="189.72" x2="336.613" y2="193.512"/><line x1="332.821" y1="193.512" x2="336.613" y2="189.72"/>
<line x1="333.274" y1="189.989" x2="337.066" y2="189.989"/><line x1="335.17" y1="188.093" x2="335.17" y2="191.885"/><line x1="333.274" y1="188.093" x2="337.066" y2="191.885"/><line x1="333.274" y1="191.885" x2="337.066" y2="188.093"/>
<line x1="333.726" y1="191.632" x2="337.519" y2="191.632"/><line x1="335.623" y1="189.736" x2="335.623" y2="193.528"/><line x1="333.726" y1="189.736" x2="337.519" y2="193.528"/><line x1="333.726" y1="193.528" x2="337.519" y2="189.736"/>
<line x1="334.179" y1="183.386" x2="337.971" y2="183.386"/><line x1="336.075" y1="181.49" x2="336.075" y2="185.282"/><line x1="334.179" y1="181.49" x2="337.971" y2="185.282"/><line x1="334.179" y1="185.282" x2="337.971" y2="181.49"/>
<line x1="334.632" y1="176.832" x2="338.424" y2="176.832"/><line x1="336.528" y1="174.936" x2="336.528" y2="178.729"/><line x1="334.632" y1="174.936" x2="338.424" y2="178.729"/><line x1="334.632" y1="178.729" x2="338.424" y2="174.936"/>
<line x1="335.085" y1="180.703" x2="338.877" y2="180.703"/><line x1="336.981" y1="178.806" x2="336.981" y2="182.599"/><line x1="335.085" y1="178.806" x2="338.877" y2="182.599"/><line x1="335.085" y1="182.599" x2="338.877" y2="178.806"/>
<line x1="335.537" y1="179.614" x2="339.329" y2="179.614"/><line x1="337.433" y1="177.718" x2="337.433" y2="181.51"/><line x1="335.537" y1="177.718" x2="339.329" y2="181.51"/><line x1="335.537" y1="181.51" x2="339.329" y2="177.718"/>
<line x1="335.99" y1="183.089" x2="339.782" y2="183.089"/><line x1="337.886" y1="181.193" x2="337.886" y2="184.985"/><line x1="335.99" y1="181.193" x2="339.782" y2="184.985"/><line x1="335.99" y1="184.985" x2="339.782" y2="181.193"/>
<line x1="336.443" y1="183.603" x2="340.235" y2="183.603"/><line x1="338.339" y1="181.707" x2="338.339" y2="185.499"/><line x1="336.443" y1="181.707" x2="340.235" y2="185.499"/><line x1="336.443" y1="185.499" x2="340.235" y2="181.707"/>
<line x1="336.895" y1="180.708" x2="340.687" y2="180.708"/><line x1="338.791" y1="178.812" x2="338.791" y2="182.604"/><line x1="336.895" y1="178.812" x2="340.687" y2="182.604"/><line x1="336.895" y1="182.604" x2="340.687" y2="178.812"/>
<line x1="337.348" y1="174.062" x2="341.14" y2="174.062"/><line x1="339.244" y1="172.166" x2="339.244" y2="175.958"/><line x1="337.348" y1="172.166" x2="341.14" y2="175.958"/><line x1="337.348" y1="175.958" x2="341.14" y2="172.166"/>
<line x1="337.801" y1="175.976" x2="341.593" y2="175.976"/><line x1="339.697" y1="174.08" x2="339.697" y2="177.872"/><line x1="337.801" y1="174.08" x2="341.593" y2="177.872"/><line x1="337.801" y1="177.872" x2="341.593" y2="174.08"/>
<line x1="338.253" y1="179.532" x2="342.045" y2="179.532"/><line x1="340.149" y1="177.636" x2="340.149" y2="181.429"/><line x1="338.253" y1="177.636" x2="342.045" y2="181.429"/><line x1="338.253" y1="181.429" x2="342.045" y2="177.636"/>
<line x1="338.706" y1="175.434" x2="342.498" y2="175.434"/><line x1="340.602" y1="173.538" x2="340.602" y2="177.33"/><line x1="338.706" y1="173.538" x2="342.498" y2="177.33"/><line x1="338.706" y1="177.33" x2="342.498" y2="173.538"/>
<line x1="339.159" y1="177.164" x2="342.951" y2="177.164"/><line x1="341.055" y1="175.268" x2="341.055" y2="179.06"/><line x1="339.159" y1="175.268" x2="342.951" y2="179.06"/><line x1="339.159" y1="179.06" x2="342.951" y2="175.268"/>
<line x1="339.611" y1="179.027" x2="343.404" y2="179.027"/><line x1="341.507" y1="177.131" x2="341.507" y2="180.923"/><line x1="339.611" y1="177.131" x2="343.404" y2="180.923"/><line x1="339.611" y1="180.923" x2="343.404" y2="177.131"/>
<line x1="340.064" y1="183.062" x2="343.856" y2="183.062"/><line x1="341.96" y1="181.166" x2="341.96" y2="184.958"/><line x1="340.064" y1="181.166" x2="343.856" y2="184.958"/><line x1="340.064" y1="184.958" x2="343.856" y2="181.166"/>
<line x1="340.517" y1="181.999" x2="344.309" y2="181.999"/><line x1="342.413" y1="180.103" x2="342.413" y2="183.896"/><line x1="340.517" y1="180.103" x2="344.309" y2="183.896"/><line x1="340.517" y1="183.896" x2="344.309" y2="180.103"/>
<line x1="340.969" y1="181.967" x2="344.762" y2="181.967"/><line x1="342.865" y1="180.071" x2="342.865" y2="183.863"/><line x1="340.969" y1="180.071" x2="344.762" y2="183.863"/><line x1="340.969" y1="183.863" x2="344.762" y2="180.071"/>
<line x1="341.422" y1="182.527" x2="345.214" y2="182.527"/><line x1="343.318" y1="180.631" x2="343.318" y2="184.423"/><line x1="341.422" y1="180.631" x2="345.214" y2="184.423"/><line x1="341.422" y1="184.423" x2="345.214" y2="180.631"/>
<line x1="341.875" y1="181.934" x2="345.667" y2="181.934"/><line x1="343.771" y1="180.038" x2="343.771" y2="183.831"/><line x1="341.875" y1="180.038" x2="345.667" y2="183.831"/><line x1="341.875" y1="183.831" x2="345.667" y2="180.038"/>
<line x1="342.327" y1="182.288" x2="346.12" y2="182.288"/><line x1="344.224" y1="180.391" x2="344.224" y2="184.184"/><line x1="342.327" y1="180.391" x2="346.12" y2="184.184"/><line x1="342.327" y1="184.184" x2="346.12" y2="180.391"/>
<line x1="342.78" y1="173.057" x2="346.572" y2="173.057"/><line x1="344.676" y1="171.161" x2="344.676" y2="174.953"/><line x1="342.78" y1="171.161" x2="346.572" y2="174.953"/><line x1="342.78" y1="174.953" x2="346.572" y2="171.161"/>
<line x1="343.233" y1="175.22" x2="347.025" y2="175.22"/><line x1="345.129" y1="173.324" x2="345.129" y2="177.116"/><line x1="343.233" y1="173.324" x2="347.025" y2="177.116"/><line x1="343.233" y1="177.116" x2="347.025" y2="173.324"/>
<line x1="343.685" y1="176.144" x2="347.478" y2="176.144"/><line x1="345.582" y1="174.248" x2="345.582" y2="178.04"/><line x1="343.685" y1="174.248" x2="347.478" y2="178.04"/><line x1="343.685" y1="178.04" x2="347.478" y2="174.248"/>
<line x1="344.138" y1="175.408" x2="347.93" y2="175.408"/><line x1="346.034" y1="173.512" x2="346.034" y2="177.305"/><line x1="344.138" y1="173.512" x2="347.93" y2="177.305"/><line x1="344.138" y1="177.305" x2="347.93" y2="173.512"/>
<line x1="344.591" y1="177.985" x2="348.383" y2="177.985"/><line x1="346.487" y1="176.089" x2="346.487" y2="179.881"/><line x1="344.591" y1="176.089" x2="348.383" y2="179.881"/><line x1="344.591" y1="179.881" x2="348.383" y2="176.089"/>
<line x1="345.044" y1="172.945" x2="348.836" y2="172.945"/><line x1="346.94" y1="171.049" x2="346.94" y2="174.841"/><line x1="345.044" y1="171.049" x2="348.836" y2="174.841"/><line x1="345.044" y1="174.841" x2="348.836" y2="171.049"/>
<line x1="345.496" y1="172.102" x2="349.288" y2="172.102"/><line x1="347.392" y1="170.206" x2="347.392" y2="173.998"/><line x1="345.496" y1="170.206" x2="349.288" y2="173.998"/><line x1="345.496" y1="173.998" x2="349.288" y2="170.206"/>
<line x1="345.949" y1="165.881" x2="349.741" y2="165.881"/><line x1="347.845" y1="163.985" x2="347.845" y2="167.777"/><line x1="345.949" y1="163.985" x2="349.741" y2="167.777"/><line x1="345.949" y1="167.777" x2="349.741" y2="163.985"/>
<line x1="346.402" y1="165.65" x2="350.194" y2="165.65"/><line x1="348.298" y1="163.753" x2="348.298" y2="167.546"/><line x1="346.402" y1="163.753" x2="350.194" y2="167.546"/><line x1="346.402" y1="167.546" x2="350.194" y2="163.753"/>
<line x1="346.854" y1="158.213" x2="350.646" y2="158.213"/><line x1="348.75" y1="156.317" x2="348.75" y2="160.109"/><line x1="346.854" y1="156.317" x2="350.646" y2="160.109"/><line x1="346.854" y1="160.109" x2="350.646" y2="156.317"/>
<line x1="347.307" y1="155.04" x2="351.099" y2="155.04"/><line x1="349.203" y1="153.144" x2="349.203" y2="156.936"/><line x1="347.307" y1="153.144" x2="351.099" y2="156.936"/><line x1="347.307" y1="156.936" x2="351.099" y2="153.144"/>
<line x1="347.76" y1="154.767" x2="351.552" y2="154.767"/><line x1="349.656" y1="152.871" x2="349.656" y2="156.663"/><line x1="347.76" y1="152.871" x2="351.552" y2="156.663"/><line x1="347.76" y1="156.663" x2="351.552" y2="152.871"/>
<line x1="348.212" y1="155.139" x2="352.004" y2="155.139"/><line x1="350.108" y1="153.243" x2="350.108" y2="157.035"/><line x1="348.212" y1="153.243" x2="352.004" y2="157.035"/><line x1="348.212" y1="157.035" x2="352.004" y2="153.243"/>
<line x1="348.665" y1="150.986" x2="352.457" y2="150.986"/><line x1="350.561" y1="149.089" x2="350.561" y2="152.882"/><line x1="348.665" y1="149.089" x2="352.457" y2="152.882"/><line x1="348.665" y1="152.882" x2="352.457" y2="149.089"/>
<line x1="349.118" y1="145.059" x2="352.91" y2="145.059"/><line x1="351.014" y1="143.163" x2="351.014" y2="146.955"/><line x1="349.118" y1="143.163" x2="352.91" y2="146.955"/><line x1="349.118" y1="146.955" x2="352.91" y2="143.163"/>
<line x1="349.57" y1="140.516" x2="353.363" y2="140.516"/><line x1="351.466" y1="138.62" x2="351.466" y2="142.412"/><line x1="349.57" y1="138.62" x2="353.363" y2="142.412"/><line x1="349.57" y1="142.412" x2="353.363" y2="138.62"/>
<line x1="350.023" y1="139.631" x2="353.815" y2="139.631"/><line x1="351.919" y1="137.735" x2="351.919" y2="141.527"/><line x1="350.023" y1="137.735" x2="353.815" y2="141.527"/><line x1="350.023" y1="141.527" x2="353.815" y2="137.735"/>
<line x1="350.476" y1="134.595" x2="354.268" y2="134.595"/><line x1="352.372" y1="132.699" x2="352.372" y2="136.491"/><line x1="350.476" y1="132.699" x2="354.268" y2="136.491"/><line x1="350.476" y1="136.491" x2="354.268" y2="132.699"/>
<line x1="350.928" y1="129.051" x2="354.721" y2="129.051"/><line x1="352.824" y1="127.155" x2="352.824" y2="130.947"/><line x1="350.928" y1="127.155" x2="354.721" y2="130.947"/><line x1="350.928" y1="130.947" x2="354.721" y2="127.155"/>
<line x1="351.381" y1="122.377" x2="355.173" y2="122.377"/><line x1="353.277" y1="120.481" x2="353.277" y2="124.273"/><line x1="351.381" y1="120.481" x2="355.173" y2="124.273"/><line x1="351.381" y1="124.273" x2="355.173" y2="120.481"/>
<line x1="351.834" y1="114.665" x2="355.626" y2="114.665"/><line x1="353.73" y1="112.769" x2="353.73" y2="116.561"/><line x1="351.834" y1="112.769" x2="355.626" y2="116.561"/><line x1="351.834" y1="116.561" x2="355.626" y2="112.769"/>
<line x1="352.286" y1="116.345" x2="356.079" y2="116.345"/><line x1="354.183" y1="114.449" x2="354.183" y2="118.241"/><line x1="352.286" y1="114.449" x2="356.079" y2="118.241"/><line x1="352.286" y1="118.241" x2="356.079" y2="114.449"/>
<line x1="352.739" y1="115.3" x2="356.531" y2="115.3"/><line x1="354.635" y1="113.404" x2="354.635" y2="117.196"/><line x1="352.739" y1="113.404" x2="356.531" y2="117.196"/><line x1="352.739" y1="117.196" x2="356.531" y2="113.404"/>
<line x1="353.192" y1="112.512" x2="356.984" y2="112.512"/><line x1="355.088" y1="110.615" x2="355.088" y2="114.408"/><line x1="353.192" y1="110.615" x2="356.984" y2="114.408"/><line x1="353.192" y1="114.408" x2="356.984" y2="110.615"/>
<line x1="353.645" y1="111.317" x2="357.437" y2="111.317"/><line x1="355.541" y1="109.421" x2="355.541" y2="113.213"/><line x1="353.645" y1="109.421" x2="357.437" y2="113.213"/><line x1="353.645" y1="113.213" x2="357.437" y2="109.421"/>
<line x1="354.097" y1="108.289" x2="357.889" y2="108.289"/><line x1="355.993" y1="106.393" x2="355.993" y2="110.185"/><line x1="354.097" y1="106.393" x2="357.889" y2="110.185"/><line x1="354.097" y1="110.185" x2="357.889" y2="106.393"/>
<line x1="354.55" y1="106.534" x2="358.342" y2="106.534"/><line x1="356.446" y1="104.638" x2="356.446" y2="108.43"/><line x1="354.55" y1="104.638" x2="358.342" y2="108.43"/><line x1="354.55" y1="108.43" x2="358.342" y2="104.638"/>
<line x1="355.003" y1="103.163" x2="358.795" y2="103.163"/><line x1="356.899" y1="101.267" x2="356.899" y2="105.059"/><line x1="355.003" y1="101.267" x2="358.795" y2="105.059"/><line x1="355.003" y1="105.059" x2="358.795" y2="101.267"/>
<line x1="355.455" y1="96.9702" x2="359.247" y2="96.9702"/><line x1="357.351" y1="95.0741" x2="357.351" y2="98.8663"/><line x1="355.455" y1="95.0741" x2="359.247" y2="98.8663"/><line x1="355.455" y1="98.8663" x2="359.247" y2="95.0741"/>
<line x1="355.908" y1="96.9353" x2="359.7" y2="96.9353"/><line x1="357.804" y1="95.0392" x2="357.804" y2="98.8314"/><line x1="355.908" y1="95.0392" x2="359.7" y2="98.8314"/><line x1="355.908" y1="98.8314" x2="359.7" y2="95.0392"/>
<line x1="356.361" y1="91.7084" x2="360.153" y2="91.7084"/><line x1="358.257" y1="89.8123" x2="358.257" y2="93.6045"/><line x1="356.361" y1="89.8123" x2="360.153" y2="93.6045"/><line x1="356.361" y1="93.6045" x2="360.153" y2="89.8123"/>
<line x1="356.813" y1="93.0018" x2="360.605" y2="93.0018"/><line x1="358.709" y1="91.1057" x2="358.709" y2="94.8979"/><line x1="356.813" y1="91.1057" x2="360.605" y2="94.8979"/><line x1="356.813" y1="94.8979" x2="360.605" y2="91.1057"/>
<line x1="357.266" y1="87.5929" x2="361.058" y2="87.5929"/><line x1="359.162" y1="85.6968" x2="359.162" y2="89.489"/><line x1="357.266" y1="85.6968" x2="361.058" y2="89.489"/><line x1="357.266" y1="89.489" x2="361.058" y2="85.6968"/>
<line x1="357.719" y1="84.1382" x2="361.511" y2="84.1382"/><line x1="359.615" y1="82.2421" x2="359.615" y2="86.0342"/><line x1="357.719" y1="82.2421" x2="361.511" y2="86.0342"/><line x1="357.719" y1="86.0342" x2="361.511" y2="82.2421"/>
<line x1="358.171" y1="84.2915" x2="361.964" y2="84.2915"/><line x1="360.067" y1="82.3954" x2="360.067" y2="86.1876"/><line x1="358.171" y1="82.3954" x2="361.964" y2="86.1876"/><line x1="358.171" y1="86.1876" x2="361.964" y2="82.3954"/>
<line x1="358.624" y1="82.5359" x2="362.416" y2="82.5359"/><line x1="360.52" y1="80.6398" x2="360.52" y2="84.432"/><line x1="358.624" y1="80.6398" x2="362.416" y2="84.432"/><line x1="358.624" y1="84.432" x2="362.416" y2="80.6398"/>
<line x1="359.077" y1="84.9212" x2="362.869" y2="84.9212"/><line x1="360.973" y1="83.0251" x2="360.973" y2="86.8173"/><line x1="359.077" y1="83.0251" x2="362.869" y2="86.8173"/><line x1="359.077" y1="86.8173" x2="362.869" y2="83.0251"/>
<line x1="359.529" y1="81.5692" x2="363.322" y2="81.5692"/><line x1="361.425" y1="79.6731" x2="361.425" y2="83.4653"/><line x1="359.529" y1="79.6731" x2="363.322" y2="83.4653"/><line x1="359.529" y1="83.4653" x2="363.322" y2="79.6731"/>
<line x1="359.982" y1="77.0656" x2="363.774" y2="77.0656"/><line x1="361.878" y1="75.1695" x2="361.878" y2="78.9617"/><line x1="359.982" y1="75.1695" x2="363.774" y2="78.9617"/><line x1="359.982" y1="78.9617" x2="363.774" y2="75.1695"/>
<line x1="360.435" y1="69.531" x2="364.227" y2="69.531"/><line x1="362.331" y1="67.6349" x2="362.331" y2="71.4271"/><line x1="360.435" y1="67.6349" x2="364.227" y2="71.4271"/><line x1="360.435" y1="71.4271" x2="364.227" y2="67.6349"/>
<line x1="360.887" y1="68.3077" x2="364.68" y2="68.3077"/><line x1="362.784" y1="66.4116" x2="362.784" y2="70.2037"/><line x1="360.887" y1="66.4116" x2="364.68" y2="70.2037"/><line x1="360.887" y1="70.2037" x2="364.68" y2="66.4116"/>
<line x1="361.34" y1="72.1334" x2="365.132" y2="72.1334"/><line x1="363.236" y1="70.2374" x2="363.236" y2="74.0295"/><line x1="361.34" y1="70.2374" x2="365.132" y2="74.0295"/><line x1="361.34" y1="74.0295" x2="365.132" y2="70.2374"/>
<line x1="361.793" y1="63.0577" x2="365.585" y2="63.0577"/><line x1="363.689" y1="61.1617" x2="363.689" y2="64.9538"/><line x1="361.793" y1="61.1617" x2="365.585" y2="64.9538"/><line x1="361.793" y1="64.9538" x2="365.585" y2="61.1617"/>
<line x1="362.245" y1="52.5943" x2="366.038" y2="52.5943"/><line x1="364.142" y1="50.6982" x2="364.142" y2="54.4904"/><line x1="362.245" y1="50.6982" x2="366.038" y2="54.4904"/><line x1="362.245" y1="54.4904" x2="366.038" y2="50.6982"/>
<line x1="362.698" y1="55.4268" x2="366.49" y2="55.4268"/><line x1="364.594" y1="53.5307" x2="364.594" y2="57.3229"/><line x1="362.698" y1="53.5307" x2="366.49" y2="57.3229"/><line x1="362.698" y1="57.3229" x2="366.49" y2="53.5307"/>
<line x1="363.151" y1="57.7416" x2="366.943" y2="57.7416"/><line x1="365.047" y1="55.8456" x2="365.047" y2="59.6377"/><line x1="363.151" y1="55.8456" x2="366.943" y2="59.6377"/><line x1="363.151" y1="59.6377" x2="366.943" y2="55.8456"/>
<line x1="363.604" y1="52.7178" x2="367.396" y2="52.7178"/><line x1="365.5" y1="50.8217" x2="365.5" y2="54.6139"/><line x1="363.604" y1="50.8217" x2="367.396" y2="54.6139"/><line x1="363.604" y1="54.6139" x2="367.396" y2="50.8217"/>
<line x1="364.056" y1="48.8752" x2="367.848" y2="48.8752"/><line x1="365.952" y1="46.9792" x2="365.952" y2="50.7713"/><line x1="364.056" y1="46.9792" x2="367.848" y2="50.7713"/><line x1="364.056" y1="50.7713" x2="367.848" y2="46.9792"/>
<line x1="364.509" y1="47.4506" x2="368.301" y2="47.4506"/><line x1="366.405" y1="45.5545" x2="366.405" y2="49.3467"/><line x1="364.509" y1="45.5545" x2="368.301" y2="49.3467"/><line x1="364.509" y1="49.3467" x2="368.301" y2="45.5545"/>
</g>
<path d="M170.846,353.116h 226.342" fill="none" stroke="#0000ff"/>
<path d="M284.017,372.012v -47.2396" fill="none" stroke="#ff0000"/>
<rect x="57.1929" y="330.677" width="113.386" height="41.3346" fill="white"/>
<path d="M57.1929,372.012h 113.386" fill="none" stroke="black"/>
<path d="M170.579,372.012v -41.3346" fill="none" stroke="black"/>
<path d="M170.579,330.677h -113.386" fill="none" stroke="black"/>
<path d="M57.1929,330.677v 41.3346" fill="none" stroke="black"/>
<text xml:space="preserve" x="85.3498" y="354.568" fill="black" font-size="12.046" font-family="Helvetica">#p.e of PMTs7</text>
<path d="M61.4449,351.344h 19.8425" fill="none" stroke="black"/></svg>
