<?xml version="1.0" standalone="no"?>
<svg width="567.429" height="413.846" viewBox="0 0 567.429 413.846" xmlns="http://www.w3.org/2000/svg" shape-rendering="crispEdges">
<title>
figures/PMTnperes1PMTnpedata190929-01.svg
</title>
<desc>
Creator: ROOT Version 6.18/02
CreationDate: Sun Sep 29 20:57:56 2019</desc>
<defs>
</defs>
<rect x="0.5" y="0" width="566.929" height="413.346" fill="white"/>
<rect x="0.5" y="0" width="566.929" height="276.942" fill="white"/>
<rect x="57.1929" y="27.6942" width="453.543" height="249.245" fill="white"/>
<rect x="57.1929" y="27.6942" width="453.543" height="249.245" fill="none" stroke="black"/>
<rect x="57.1929" y="27.6942" width="453.543" height="249.245" fill="white"/>
<rect x="57.1929" y="27.6942" width="453.543" height="249.245" fill="none" stroke="black"/>
<path d="M57.1929,40.6664h 15.1181v 20.1236h 15.1181v 1.81765h 15.1181v 5.83385h 15.1181v 8.32561h 15.1181v 9.34618h 15.1181v 9.04171h 15.1181v 8.78774h 15.1181v 6.84758h 15.1181v 7.73752h 15.1181v 6.76169h 15.1181v 3.9314h 15.1181v 4.9253h 15.1181v
 4.12529h 15.1181v 6.40773h 15.1181v 2.76748h 15.1181v 6.22807h 15.1181v 3.90342h 15.1181v 5.65379h 15.1181v -1.53139h 15.1181v 2.45769h 15.1181v 4.1611h 15.1181v 1.3304h 15.1181v 0.776038h 15.1181v 3.60222h 15.1181v 0.953861h 15.1181v 1.20304h
 15.1181v 3.33723h 15.1181v 1.23743h 15.1181v 3.59344h 15.1181" fill="none" stroke="#ff0000" stroke-width="2"/>
<rect x="283.965" y="27.6942" width="113.386" height="55.3884" fill="white"/>
<path d="M283.965,83.0826h 113.386" fill="none" stroke="black"/>
<path d="M397.35,83.0826v -55.3884" fill="none" stroke="black"/>
<path d="M397.35,27.6942h -113.386" fill="none" stroke="black"/>
<path d="M283.965,27.6942v 55.3884" fill="none" stroke="black"/>
<text xml:space="preserve" x="292.023" y="37.9217" fill="#ff0000" font-size="12.1875" font-family="Helvetica">npe_PMT-S0-data</text>
<path d="M283.965,41.5413h 113.386" fill="none" stroke="black"/>
<text xml:space="preserve" x="289.179" y="53.0904" fill="#ff0000" font-size="12.1875" font-family="Helvetica">Entries </text>
<text xml:space="preserve" x="350.802" y="52.6163" fill="#ff0000" font-size="12.1875" font-family="Helvetica"> 147601</text>
<text xml:space="preserve" x="289.179" y="66.837" fill="#ff0000" font-size="12.1875" font-family="Helvetica">Mean  </text>
<text xml:space="preserve" x="355.542" y="66.3629" fill="#ff0000" font-size="12.1875" font-family="Helvetica">  5.855</text>
<text xml:space="preserve" x="289.179" y="80.5836" fill="#ff0000" font-size="12.1875" font-family="Helvetica">Std Dev   </text>
<text xml:space="preserve" x="355.542" y="80.1096" fill="#ff0000" font-size="12.1875" font-family="Helvetica">  7.105</text>
<path d="M57.1929,276.939h 453.543" fill="none" stroke="black"/>
<path d="M57.1929,270.293v 6.64661" fill="none" stroke="black"/>
<path d="M72.311,273.616v 3.3233" fill="none" stroke="black"/>
<path d="M87.4291,273.616v 3.3233" fill="none" stroke="black"/>
<path d="M102.547,273.616v 3.3233" fill="none" stroke="black"/>
<path d="M117.665,273.616v 3.3233" fill="none" stroke="black"/>
<path d="M132.783,270.293v 6.64661" fill="none" stroke="black"/>
<path d="M147.902,273.616v 3.3233" fill="none" stroke="black"/>
<path d="M163.02,273.616v 3.3233" fill="none" stroke="black"/>
<path d="M178.138,273.616v 3.3233" fill="none" stroke="black"/>
<path d="M193.256,273.616v 3.3233" fill="none" stroke="black"/>
<path d="M208.374,270.293v 6.64661" fill="none" stroke="black"/>
<path d="M223.492,273.616v 3.3233" fill="none" stroke="black"/>
<path d="M238.61,273.616v 3.3233" fill="none" stroke="black"/>
<path d="M253.728,273.616v 3.3233" fill="none" stroke="black"/>
<path d="M268.846,273.616v 3.3233" fill="none" stroke="black"/>
<path d="M283.965,270.293v 6.64661" fill="none" stroke="black"/>
<path d="M299.083,273.616v 3.3233" fill="none" stroke="black"/>
<path d="M314.201,273.616v 3.3233" fill="none" stroke="black"/>
<path d="M329.319,273.616v 3.3233" fill="none" stroke="black"/>
<path d="M344.437,273.616v 3.3233" fill="none" stroke="black"/>
<path d="M359.555,270.293v 6.64661" fill="none" stroke="black"/>
<path d="M374.673,273.616v 3.3233" fill="none" stroke="black"/>
<path d="M389.791,273.616v 3.3233" fill="none" stroke="black"/>
<path d="M404.909,273.616v 3.3233" fill="none" stroke="black"/>
<path d="M420.028,273.616v 3.3233" fill="none" stroke="black"/>
<path d="M435.146,270.293v 6.64661" fill="none" stroke="black"/>
<path d="M450.264,273.616v 3.3233" fill="none" stroke="black"/>
<path d="M465.382,273.616v 3.3233" fill="none" stroke="black"/>
<path d="M480.5,273.616v 3.3233" fill="none" stroke="black"/>
<path d="M495.618,273.616v 3.3233" fill="none" stroke="black"/>
<path d="M510.736,270.293v 6.64661" fill="none" stroke="black"/>
<text xml:space="preserve" x="54.5384" y="285.835" fill="black" font-size="9.39263" font-family="Helvetica">0</text>
<text xml:space="preserve" x="127.538" y="285.835" fill="black" font-size="9.39263" font-family="Helvetica">10</text>
<text xml:space="preserve" x="202.907" y="285.835" fill="black" font-size="9.39263" font-family="Helvetica">20</text>
<text xml:space="preserve" x="278.75" y="285.835" fill="black" font-size="9.39263" font-family="Helvetica">30</text>
<text xml:space="preserve" x="354.12" y="285.835" fill="black" font-size="9.39263" font-family="Helvetica">40</text>
<text xml:space="preserve" x="429.489" y="285.835" fill="black" font-size="9.39263" font-family="Helvetica">50</text>
<text xml:space="preserve" x="505.332" y="285.835" fill="black" font-size="9.39263" font-family="Helvetica">60</text>
<text xml:space="preserve" x="490.638" y="293.893" fill="black" font-size="9.39263" font-family="Helvetica">n.p.e</text>
<path d="M57.1929,276.939v -249.245" fill="none" stroke="black"/>
<path d="M72.4998,276.939h -15.3069" fill="none" stroke="black"/>
<text xml:space="preserve" x="49.3242" y="280.62" fill="black" font-size="9.39263" font-family="Helvetica">1</text>
<path d="M64.8464,261.933h -7.65346" fill="none" stroke="black"/>
<path d="M64.8464,253.155h -7.65346" fill="none" stroke="black"/>
<path d="M64.8464,246.927h -7.65346" fill="none" stroke="black"/>
<path d="M64.8464,242.096h -7.65346" fill="none" stroke="black"/>
<path d="M64.8464,238.149h -7.65346" fill="none" stroke="black"/>
<path d="M64.8464,234.812h -7.65346" fill="none" stroke="black"/>
<path d="M64.8464,231.921h -7.65346" fill="none" stroke="black"/>
<path d="M64.8464,229.371h -7.65346" fill="none" stroke="black"/>
<path d="M72.4998,227.09h -15.3069" fill="none" stroke="black"/>
<text xml:space="preserve" x="42.6879" y="230.374" fill="black" font-size="9.39263" font-family="Helvetica">10</text>
<path d="M64.8464,212.084h -7.65346" fill="none" stroke="black"/>
<path d="M64.8464,203.306h -7.65346" fill="none" stroke="black"/>
<path d="M64.8464,197.078h -7.65346" fill="none" stroke="black"/>
<path d="M64.8464,192.247h -7.65346" fill="none" stroke="black"/>
<path d="M64.8464,188.3h -7.65346" fill="none" stroke="black"/>
<path d="M64.8464,184.963h -7.65346" fill="none" stroke="black"/>
<path d="M64.8464,182.072h -7.65346" fill="none" stroke="black"/>
<path d="M64.8464,179.522h -7.65346" fill="none" stroke="black"/>
<path d="M72.4998,177.241h -15.3069" fill="none" stroke="black"/>
<text xml:space="preserve" x="49.3242" y="177.284" fill="black" font-size="6.42842" font-family="Helvetica">2</text>
<text xml:space="preserve" x="39.3697" y="181.076" fill="black" font-size="9.39263" font-family="Helvetica">10</text>
<path d="M64.8464,162.235h -7.65346" fill="none" stroke="black"/>
<path d="M64.8464,153.457h -7.65346" fill="none" stroke="black"/>
<path d="M64.8464,147.229h -7.65346" fill="none" stroke="black"/>
<path d="M64.8464,142.398h -7.65346" fill="none" stroke="black"/>
<path d="M64.8464,138.451h -7.65346" fill="none" stroke="black"/>
<path d="M64.8464,135.114h -7.65346" fill="none" stroke="black"/>
<path d="M64.8464,132.223h -7.65346" fill="none" stroke="black"/>
<path d="M64.8464,129.673h -7.65346" fill="none" stroke="black"/>
<path d="M72.4998,127.392h -15.3069" fill="none" stroke="black"/>
<text xml:space="preserve" x="49.3242" y="127.038" fill="black" font-size="6.42842" font-family="Helvetica">3</text>
<text xml:space="preserve" x="39.3697" y="131.304" fill="black" font-size="9.39263" font-family="Helvetica">10</text>
<path d="M64.8464,112.386h -7.65346" fill="none" stroke="black"/>
<path d="M64.8464,103.608h -7.65346" fill="none" stroke="black"/>
<path d="M64.8464,97.3801h -7.65346" fill="none" stroke="black"/>
<path d="M64.8464,92.5493h -7.65346" fill="none" stroke="black"/>
<path d="M64.8464,88.6021h -7.65346" fill="none" stroke="black"/>
<path d="M64.8464,85.2649h -7.65346" fill="none" stroke="black"/>
<path d="M64.8464,82.3741h -7.65346" fill="none" stroke="black"/>
<path d="M64.8464,79.8242h -7.65346" fill="none" stroke="black"/>
<path d="M72.4998,77.5432h -15.3069" fill="none" stroke="black"/>
<text xml:space="preserve" x="49.3242" y="77.7394" fill="black" font-size="6.42842" font-family="Helvetica">4</text>
<text xml:space="preserve" x="39.3697" y="81.5316" fill="black" font-size="9.39263" font-family="Helvetica">10</text>
<path d="M64.8464,62.5372h -7.65346" fill="none" stroke="black"/>
<path d="M64.8464,53.7592h -7.65346" fill="none" stroke="black"/>
<path d="M64.8464,47.5311h -7.65346" fill="none" stroke="black"/>
<path d="M64.8464,42.7002h -7.65346" fill="none" stroke="black"/>
<path d="M64.8464,38.7531h -7.65346" fill="none" stroke="black"/>
<path d="M64.8464,35.4159h -7.65346" fill="none" stroke="black"/>
<path d="M64.8464,32.5251h -7.65346" fill="none" stroke="black"/>
<path d="M64.8464,29.9752h -7.65346" fill="none" stroke="black"/>
<path d="M72.4998,27.6942h -15.3069" fill="none" stroke="black"/>
<text xml:space="preserve" x="49.3242" y="27.4932" fill="black" font-size="6.42842" font-family="Helvetica">5</text>
<text xml:space="preserve" x="39.3697" y="31.7594" fill="black" font-size="9.39263" font-family="Helvetica">10</text>
<rect x="283.965" y="27.6942" width="113.386" height="55.3884" fill="white"/>
<path d="M283.965,83.0826h 113.386" fill="none" stroke="black"/>
<path d="M397.35,83.0826v -55.3884" fill="none" stroke="black"/>
<path d="M397.35,27.6942h -113.386" fill="none" stroke="black"/>
<path d="M283.965,27.6942v 55.3884" fill="none" stroke="black"/>
<text xml:space="preserve" x="292.023" y="37.9217" fill="#ff0000" font-size="12.1875" font-family="Helvetica">npe_PMT-S0-data</text>
<path d="M283.965,41.5413h 113.386" fill="none" stroke="black"/>
<text xml:space="preserve" x="289.179" y="53.0904" fill="#ff0000" font-size="12.1875" font-family="Helvetica">Entries </text>
<text xml:space="preserve" x="350.802" y="52.6163" fill="#ff0000" font-size="12.1875" font-family="Helvetica"> 147601</text>
<text xml:space="preserve" x="289.179" y="66.837" fill="#ff0000" font-size="12.1875" font-family="Helvetica">Mean  </text>
<text xml:space="preserve" x="355.542" y="66.3629" fill="#ff0000" font-size="12.1875" font-family="Helvetica">  5.855</text>
<text xml:space="preserve" x="289.179" y="80.5836" fill="#ff0000" font-size="12.1875" font-family="Helvetica">Std Dev   </text>
<text xml:space="preserve" x="355.542" y="80.1096" fill="#ff0000" font-size="12.1875" font-family="Helvetica">  7.105</text>
<path d="M57.1929,43.5448h 15.1181v 12.683h 15.1181v 4.79208h 15.1181v 8.1636h 15.1181v 8.82364h 15.1181v 8.50216h 15.1181v 8.56772h 15.1181v 7.87029h 15.1181v 6.59276h 15.1181v 6.68527h 15.1181v 6.11206h 15.1181v 4.41493h 15.1181v 4.54377h 15.1181v
 3.66377h 15.1181v 4.33753h 15.1181v 0.919748h 15.1181v 6.16292h 15.1181v 0.526769h 15.1181v 4.09693h 15.1181v 2.52575h 15.1181v 2.61335h 15.1181v 1.78739h 15.1181v 2.53881h 15.1181v 7.00678h 15.1181v 2.79257h 15.1181v 6.33291h 15.1181v 3.65483h
 15.1181v 1.54703h 15.1181v 2.5499h 15.1181v 3.58926h 15.1181" fill="none" stroke="#006633" stroke-width="2"/>
<rect x="397.35" y="27.6942" width="113.386" height="55.3884" fill="white"/>
<path d="M397.35,83.0826h 113.386" fill="none" stroke="black"/>
<path d="M510.736,83.0826v -55.3884" fill="none" stroke="black"/>
<path d="M510.736,27.6942h -113.386" fill="none" stroke="black"/>
<path d="M397.35,27.6942v 55.3884" fill="none" stroke="black"/>
<text xml:space="preserve" x="407.684" y="37.9217" fill="#006633" font-size="12.1875" font-family="Helvetica">npe_PMT-S0-MC</text>
<path d="M397.35,41.5413h 113.386" fill="none" stroke="black"/>
<text xml:space="preserve" x="402.944" y="53.0904" fill="#006633" font-size="12.1875" font-family="Helvetica">Entries </text>
<text xml:space="preserve" x="464.093" y="52.6163" fill="#006633" font-size="12.1875" font-family="Helvetica"> 147601</text>
<text xml:space="preserve" x="402.944" y="66.837" fill="#006633" font-size="12.1875" font-family="Helvetica">Mean  </text>
<text xml:space="preserve" x="468.833" y="66.3629" fill="#006633" font-size="12.1875" font-family="Helvetica">  6.252</text>
<text xml:space="preserve" x="402.944" y="80.5836" fill="#006633" font-size="12.1875" font-family="Helvetica">Std Dev   </text>
<text xml:space="preserve" x="468.833" y="80.1096" fill="#006633" font-size="12.1875" font-family="Helvetica">  7.543</text>
<rect x="397.35" y="27.6942" width="113.386" height="55.3884" fill="white"/>
<path d="M397.35,83.0826h 113.386" fill="none" stroke="black"/>
<path d="M510.736,83.0826v -55.3884" fill="none" stroke="black"/>
<path d="M510.736,27.6942h -113.386" fill="none" stroke="black"/>
<path d="M397.35,27.6942v 55.3884" fill="none" stroke="black"/>
<text xml:space="preserve" x="407.684" y="37.9217" fill="#006633" font-size="12.1875" font-family="Helvetica">npe_PMT-S0-MC</text>
<path d="M397.35,41.5413h 113.386" fill="none" stroke="black"/>
<text xml:space="preserve" x="402.944" y="53.0904" fill="#006633" font-size="12.1875" font-family="Helvetica">Entries </text>
<text xml:space="preserve" x="464.093" y="52.6163" fill="#006633" font-size="12.1875" font-family="Helvetica"> 147601</text>
<text xml:space="preserve" x="402.944" y="66.837" fill="#006633" font-size="12.1875" font-family="Helvetica">Mean  </text>
<text xml:space="preserve" x="468.833" y="66.3629" fill="#006633" font-size="12.1875" font-family="Helvetica">  6.252</text>
<text xml:space="preserve" x="402.944" y="80.5836" fill="#006633" font-size="12.1875" font-family="Helvetica">Std Dev   </text>
<text xml:space="preserve" x="468.833" y="80.1096" fill="#006633" font-size="12.1875" font-family="Helvetica">  7.543</text>
<rect x="397.35" y="83.0826" width="113.386" height="27.6942" fill="white"/>
<path d="M397.35,110.777h 113.386" fill="none" stroke="black"/>
<path d="M510.736,110.777v -27.6942" fill="none" stroke="black"/>
<path d="M510.736,83.0826h -113.386" fill="none" stroke="black"/>
<path d="M397.35,83.0826v 27.6942" fill="none" stroke="black"/>
<text xml:space="preserve" x="425.697" y="92.9081" fill="black" font-size="11.372" font-family="Helvetica">Data</text>
<path d="M401.602,90.0062h 19.8425" fill="none" stroke="#ff0000" stroke-width="2"/>
<text xml:space="preserve" x="425.697" y="106.655" fill="black" font-size="11.372" font-family="Helvetica">MC by rat</text>
<path d="M401.602,103.853h 19.8425" fill="none" stroke="#006633" stroke-width="2"/>
<rect x="0.5" y="276.942" width="566.929" height="136.404" fill="white"/>
<rect x="57.1929" y="276.943" width="453.543" height="95.4816" fill="white"/>
<rect x="57.1929" y="276.943" width="453.543" height="95.4816" fill="none" stroke="black"/>
<rect x="0.5" y="0" width="566.929" height="276.942" fill="white"/>
<rect x="57.1929" y="27.6942" width="453.543" height="249.245" fill="white"/>
<rect x="57.1929" y="27.6942" width="453.543" height="249.245" fill="none" stroke="black"/>
<rect x="57.1929" y="27.6942" width="453.543" height="249.245" fill="white"/>
<rect x="57.1929" y="27.6942" width="453.543" height="249.245" fill="none" stroke="black"/>
<path d="M57.1929,44.6196h 15.1181v 14.4217h 15.1181v 1.57966h 15.1181v 5.19782h 15.1181v 8.19452h 15.1181v 9.96106h 15.1181v 9.54007h 15.1181v 8.48122h 15.1181v 7.34605h 15.1181v 7.75398h 15.1181v 6.31346h 15.1181v 4.66491h 15.1181v 4.64179h
 15.1181v 5.37756h 15.1181v 4.30495h 15.1181v 4.40216h 15.1181v 3.94711h 15.1181v 6.31314h 15.1181v -1.0806h 15.1181v 3.80165h 15.1181v 0.687332h 15.1181v 4.289h 15.1181v 0.616827h 15.1181v 2.80164h 15.1181v 2.56771h 15.1181v 6.49701h 30.2362v
 2.28097h 15.1181v 3.09801h 15.1181v 2.03565h 15.1181" fill="none" stroke="#ff0000" stroke-width="2"/>
<rect x="283.965" y="27.6942" width="113.386" height="55.3884" fill="white"/>
<path d="M283.965,83.0826h 113.386" fill="none" stroke="black"/>
<path d="M397.35,83.0826v -55.3884" fill="none" stroke="black"/>
<path d="M397.35,27.6942h -113.386" fill="none" stroke="black"/>
<path d="M283.965,27.6942v 55.3884" fill="none" stroke="black"/>
<text xml:space="preserve" x="292.023" y="37.9217" fill="#ff0000" font-size="12.1875" font-family="Helvetica">npe_PMT-S1-data</text>
<path d="M283.965,41.5413h 113.386" fill="none" stroke="black"/>
<text xml:space="preserve" x="289.179" y="53.0904" fill="#ff0000" font-size="12.1875" font-family="Helvetica">Entries </text>
<text xml:space="preserve" x="350.802" y="52.6163" fill="#ff0000" font-size="12.1875" font-family="Helvetica"> 147601</text>
<text xml:space="preserve" x="289.179" y="66.837" fill="#ff0000" font-size="12.1875" font-family="Helvetica">Mean  </text>
<text xml:space="preserve" x="355.542" y="66.3629" fill="#ff0000" font-size="12.1875" font-family="Helvetica">  6.326</text>
<text xml:space="preserve" x="289.179" y="80.5836" fill="#ff0000" font-size="12.1875" font-family="Helvetica">Std Dev   </text>
<text xml:space="preserve" x="355.542" y="80.1096" fill="#ff0000" font-size="12.1875" font-family="Helvetica">  7.218</text>
<path d="M57.1929,276.939h 453.543" fill="none" stroke="black"/>
<path d="M57.1929,270.293v 6.64661" fill="none" stroke="black"/>
<path d="M72.311,273.616v 3.3233" fill="none" stroke="black"/>
<path d="M87.4291,273.616v 3.3233" fill="none" stroke="black"/>
<path d="M102.547,273.616v 3.3233" fill="none" stroke="black"/>
<path d="M117.665,273.616v 3.3233" fill="none" stroke="black"/>
<path d="M132.783,270.293v 6.64661" fill="none" stroke="black"/>
<path d="M147.902,273.616v 3.3233" fill="none" stroke="black"/>
<path d="M163.02,273.616v 3.3233" fill="none" stroke="black"/>
<path d="M178.138,273.616v 3.3233" fill="none" stroke="black"/>
<path d="M193.256,273.616v 3.3233" fill="none" stroke="black"/>
<path d="M208.374,270.293v 6.64661" fill="none" stroke="black"/>
<path d="M223.492,273.616v 3.3233" fill="none" stroke="black"/>
<path d="M238.61,273.616v 3.3233" fill="none" stroke="black"/>
<path d="M253.728,273.616v 3.3233" fill="none" stroke="black"/>
<path d="M268.846,273.616v 3.3233" fill="none" stroke="black"/>
<path d="M283.965,270.293v 6.64661" fill="none" stroke="black"/>
<path d="M299.083,273.616v 3.3233" fill="none" stroke="black"/>
<path d="M314.201,273.616v 3.3233" fill="none" stroke="black"/>
<path d="M329.319,273.616v 3.3233" fill="none" stroke="black"/>
<path d="M344.437,273.616v 3.3233" fill="none" stroke="black"/>
<path d="M359.555,270.293v 6.64661" fill="none" stroke="black"/>
<path d="M374.673,273.616v 3.3233" fill="none" stroke="black"/>
<path d="M389.791,273.616v 3.3233" fill="none" stroke="black"/>
<path d="M404.909,273.616v 3.3233" fill="none" stroke="black"/>
<path d="M420.028,273.616v 3.3233" fill="none" stroke="black"/>
<path d="M435.146,270.293v 6.64661" fill="none" stroke="black"/>
<path d="M450.264,273.616v 3.3233" fill="none" stroke="black"/>
<path d="M465.382,273.616v 3.3233" fill="none" stroke="black"/>
<path d="M480.5,273.616v 3.3233" fill="none" stroke="black"/>
<path d="M495.618,273.616v 3.3233" fill="none" stroke="black"/>
<path d="M510.736,270.293v 6.64661" fill="none" stroke="black"/>
<text xml:space="preserve" x="54.5384" y="285.835" fill="black" font-size="9.39263" font-family="Helvetica">0</text>
<text xml:space="preserve" x="127.538" y="285.835" fill="black" font-size="9.39263" font-family="Helvetica">10</text>
<text xml:space="preserve" x="202.907" y="285.835" fill="black" font-size="9.39263" font-family="Helvetica">20</text>
<text xml:space="preserve" x="278.75" y="285.835" fill="black" font-size="9.39263" font-family="Helvetica">30</text>
<text xml:space="preserve" x="354.12" y="285.835" fill="black" font-size="9.39263" font-family="Helvetica">40</text>
<text xml:space="preserve" x="429.489" y="285.835" fill="black" font-size="9.39263" font-family="Helvetica">50</text>
<text xml:space="preserve" x="505.332" y="285.835" fill="black" font-size="9.39263" font-family="Helvetica">60</text>
<text xml:space="preserve" x="490.638" y="293.893" fill="black" font-size="9.39263" font-family="Helvetica">n.p.e</text>
<path d="M57.1929,276.939v -249.245" fill="none" stroke="black"/>
<path d="M72.4998,276.939h -15.3069" fill="none" stroke="black"/>
<text xml:space="preserve" x="49.3242" y="280.62" fill="black" font-size="9.39263" font-family="Helvetica">1</text>
<path d="M64.8464,261.933h -7.65346" fill="none" stroke="black"/>
<path d="M64.8464,253.155h -7.65346" fill="none" stroke="black"/>
<path d="M64.8464,246.927h -7.65346" fill="none" stroke="black"/>
<path d="M64.8464,242.096h -7.65346" fill="none" stroke="black"/>
<path d="M64.8464,238.149h -7.65346" fill="none" stroke="black"/>
<path d="M64.8464,234.812h -7.65346" fill="none" stroke="black"/>
<path d="M64.8464,231.921h -7.65346" fill="none" stroke="black"/>
<path d="M64.8464,229.371h -7.65346" fill="none" stroke="black"/>
<path d="M72.4998,227.09h -15.3069" fill="none" stroke="black"/>
<text xml:space="preserve" x="42.6879" y="230.374" fill="black" font-size="9.39263" font-family="Helvetica">10</text>
<path d="M64.8464,212.084h -7.65346" fill="none" stroke="black"/>
<path d="M64.8464,203.306h -7.65346" fill="none" stroke="black"/>
<path d="M64.8464,197.078h -7.65346" fill="none" stroke="black"/>
<path d="M64.8464,192.247h -7.65346" fill="none" stroke="black"/>
<path d="M64.8464,188.3h -7.65346" fill="none" stroke="black"/>
<path d="M64.8464,184.963h -7.65346" fill="none" stroke="black"/>
<path d="M64.8464,182.072h -7.65346" fill="none" stroke="black"/>
<path d="M64.8464,179.522h -7.65346" fill="none" stroke="black"/>
<path d="M72.4998,177.241h -15.3069" fill="none" stroke="black"/>
<text xml:space="preserve" x="49.3242" y="177.284" fill="black" font-size="6.42842" font-family="Helvetica">2</text>
<text xml:space="preserve" x="39.3697" y="181.076" fill="black" font-size="9.39263" font-family="Helvetica">10</text>
<path d="M64.8464,162.235h -7.65346" fill="none" stroke="black"/>
<path d="M64.8464,153.457h -7.65346" fill="none" stroke="black"/>
<path d="M64.8464,147.229h -7.65346" fill="none" stroke="black"/>
<path d="M64.8464,142.398h -7.65346" fill="none" stroke="black"/>
<path d="M64.8464,138.451h -7.65346" fill="none" stroke="black"/>
<path d="M64.8464,135.114h -7.65346" fill="none" stroke="black"/>
<path d="M64.8464,132.223h -7.65346" fill="none" stroke="black"/>
<path d="M64.8464,129.673h -7.65346" fill="none" stroke="black"/>
<path d="M72.4998,127.392h -15.3069" fill="none" stroke="black"/>
<text xml:space="preserve" x="49.3242" y="127.038" fill="black" font-size="6.42842" font-family="Helvetica">3</text>
<text xml:space="preserve" x="39.3697" y="131.304" fill="black" font-size="9.39263" font-family="Helvetica">10</text>
<path d="M64.8464,112.386h -7.65346" fill="none" stroke="black"/>
<path d="M64.8464,103.608h -7.65346" fill="none" stroke="black"/>
<path d="M64.8464,97.3801h -7.65346" fill="none" stroke="black"/>
<path d="M64.8464,92.5493h -7.65346" fill="none" stroke="black"/>
<path d="M64.8464,88.6021h -7.65346" fill="none" stroke="black"/>
<path d="M64.8464,85.2649h -7.65346" fill="none" stroke="black"/>
<path d="M64.8464,82.3741h -7.65346" fill="none" stroke="black"/>
<path d="M64.8464,79.8242h -7.65346" fill="none" stroke="black"/>
<path d="M72.4998,77.5432h -15.3069" fill="none" stroke="black"/>
<text xml:space="preserve" x="49.3242" y="77.7394" fill="black" font-size="6.42842" font-family="Helvetica">4</text>
<text xml:space="preserve" x="39.3697" y="81.5316" fill="black" font-size="9.39263" font-family="Helvetica">10</text>
<path d="M64.8464,62.5372h -7.65346" fill="none" stroke="black"/>
<path d="M64.8464,53.7592h -7.65346" fill="none" stroke="black"/>
<path d="M64.8464,47.5311h -7.65346" fill="none" stroke="black"/>
<path d="M64.8464,42.7002h -7.65346" fill="none" stroke="black"/>
<path d="M64.8464,38.7531h -7.65346" fill="none" stroke="black"/>
<path d="M64.8464,35.4159h -7.65346" fill="none" stroke="black"/>
<path d="M64.8464,32.5251h -7.65346" fill="none" stroke="black"/>
<path d="M64.8464,29.9752h -7.65346" fill="none" stroke="black"/>
<path d="M72.4998,27.6942h -15.3069" fill="none" stroke="black"/>
<text xml:space="preserve" x="49.3242" y="27.4932" fill="black" font-size="6.42842" font-family="Helvetica">5</text>
<text xml:space="preserve" x="39.3697" y="31.7594" fill="black" font-size="9.39263" font-family="Helvetica">10</text>
<rect x="283.965" y="27.6942" width="113.386" height="55.3884" fill="white"/>
<path d="M283.965,83.0826h 113.386" fill="none" stroke="black"/>
<path d="M397.35,83.0826v -55.3884" fill="none" stroke="black"/>
<path d="M397.35,27.6942h -113.386" fill="none" stroke="black"/>
<path d="M283.965,27.6942v 55.3884" fill="none" stroke="black"/>
<text xml:space="preserve" x="292.023" y="37.9217" fill="#ff0000" font-size="12.1875" font-family="Helvetica">npe_PMT-S1-data</text>
<path d="M283.965,41.5413h 113.386" fill="none" stroke="black"/>
<text xml:space="preserve" x="289.179" y="53.0904" fill="#ff0000" font-size="12.1875" font-family="Helvetica">Entries </text>
<text xml:space="preserve" x="350.802" y="52.6163" fill="#ff0000" font-size="12.1875" font-family="Helvetica"> 147601</text>
<text xml:space="preserve" x="289.179" y="66.837" fill="#ff0000" font-size="12.1875" font-family="Helvetica">Mean  </text>
<text xml:space="preserve" x="355.542" y="66.3629" fill="#ff0000" font-size="12.1875" font-family="Helvetica">  6.326</text>
<text xml:space="preserve" x="289.179" y="80.5836" fill="#ff0000" font-size="12.1875" font-family="Helvetica">Std Dev   </text>
<text xml:space="preserve" x="355.542" y="80.1096" fill="#ff0000" font-size="12.1875" font-family="Helvetica">  7.218</text>
<path d="M57.1929,49.1447h 15.1181v 3.34209h 15.1181v 5.60301h 15.1181v 8.84684h 15.1181v 9.14989h 15.1181v 9.38658h 15.1181v 8.36047h 15.1181v 8.4248h 15.1181v 6.50786h 15.1181v 5.76898h 15.1181v 6.76464h 15.1181v 4.79006h 15.1181v 5.8375h 15.1181v
 3.68707h 15.1181v 3.5333h 15.1181v 2.73702h 15.1181v 4.80974h 15.1181v 3.48736h 15.1181v 4.08401h 15.1181v 5.03786h 15.1181v 3.03991h 15.1181v 5.27046h 15.1181v 7.36776h 15.1181v 2.69668h 15.1181v 4.12456h 15.1181v 2.5499h 15.1181v 4.68105h 15.1181v
 2.36407h 15.1181v 2.65424h 15.1181v 1.96946h 15.1181" fill="none" stroke="#006633" stroke-width="2"/>
<rect x="397.35" y="27.6942" width="113.386" height="55.3884" fill="white"/>
<path d="M397.35,83.0826h 113.386" fill="none" stroke="black"/>
<path d="M510.736,83.0826v -55.3884" fill="none" stroke="black"/>
<path d="M510.736,27.6942h -113.386" fill="none" stroke="black"/>
<path d="M397.35,27.6942v 55.3884" fill="none" stroke="black"/>
<text xml:space="preserve" x="407.684" y="37.9217" fill="#006633" font-size="12.1875" font-family="Helvetica">npe_PMT-S1-MC</text>
<path d="M397.35,41.5413h 113.386" fill="none" stroke="black"/>
<text xml:space="preserve" x="402.944" y="53.0904" fill="#006633" font-size="12.1875" font-family="Helvetica">Entries </text>
<text xml:space="preserve" x="464.093" y="52.6163" fill="#006633" font-size="12.1875" font-family="Helvetica"> 147601</text>
<text xml:space="preserve" x="402.944" y="66.837" fill="#006633" font-size="12.1875" font-family="Helvetica">Mean  </text>
<text xml:space="preserve" x="468.833" y="66.3629" fill="#006633" font-size="12.1875" font-family="Helvetica">  6.395</text>
<text xml:space="preserve" x="402.944" y="80.5836" fill="#006633" font-size="12.1875" font-family="Helvetica">Std Dev   </text>
<text xml:space="preserve" x="472.151" y="80.1096" fill="#006633" font-size="12.1875" font-family="Helvetica">   6.96</text>
<rect x="397.35" y="27.6942" width="113.386" height="55.3884" fill="white"/>
<path d="M397.35,83.0826h 113.386" fill="none" stroke="black"/>
<path d="M510.736,83.0826v -55.3884" fill="none" stroke="black"/>
<path d="M510.736,27.6942h -113.386" fill="none" stroke="black"/>
<path d="M397.35,27.6942v 55.3884" fill="none" stroke="black"/>
<text xml:space="preserve" x="407.684" y="37.9217" fill="#006633" font-size="12.1875" font-family="Helvetica">npe_PMT-S1-MC</text>
<path d="M397.35,41.5413h 113.386" fill="none" stroke="black"/>
<text xml:space="preserve" x="402.944" y="53.0904" fill="#006633" font-size="12.1875" font-family="Helvetica">Entries </text>
<text xml:space="preserve" x="464.093" y="52.6163" fill="#006633" font-size="12.1875" font-family="Helvetica"> 147601</text>
<text xml:space="preserve" x="402.944" y="66.837" fill="#006633" font-size="12.1875" font-family="Helvetica">Mean  </text>
<text xml:space="preserve" x="468.833" y="66.3629" fill="#006633" font-size="12.1875" font-family="Helvetica">  6.395</text>
<text xml:space="preserve" x="402.944" y="80.5836" fill="#006633" font-size="12.1875" font-family="Helvetica">Std Dev   </text>
<text xml:space="preserve" x="472.151" y="80.1096" fill="#006633" font-size="12.1875" font-family="Helvetica">   6.96</text>
<rect x="397.35" y="83.0826" width="113.386" height="27.6942" fill="white"/>
<path d="M397.35,110.777h 113.386" fill="none" stroke="black"/>
<path d="M510.736,110.777v -27.6942" fill="none" stroke="black"/>
<path d="M510.736,83.0826h -113.386" fill="none" stroke="black"/>
<path d="M397.35,83.0826v 27.6942" fill="none" stroke="black"/>
<text xml:space="preserve" x="425.697" y="92.9081" fill="black" font-size="11.372" font-family="Helvetica">Data</text>
<path d="M401.602,90.0062h 19.8425" fill="none" stroke="#ff0000" stroke-width="2"/>
<text xml:space="preserve" x="425.697" y="106.655" fill="black" font-size="11.372" font-family="Helvetica">MC by rat</text>
<path d="M401.602,103.853h 19.8425" fill="none" stroke="#006633" stroke-width="2"/>
<rect x="0.5" y="276.942" width="566.929" height="136.404" fill="white"/>
<rect x="57.1929" y="276.943" width="453.543" height="95.4816" fill="white"/>
<rect x="57.1929" y="276.943" width="453.543" height="95.4816" fill="none" stroke="black"/>
<rect x="57.1929" y="276.943" width="453.543" height="95.4816" fill="white"/>
<rect x="57.1929" y="276.943" width="453.543" height="95.4816" fill="none" stroke="black"/>
<path d="M57.1929,372.425h 453.543" fill="none" stroke="black"/>
<path d="M57.1929,369.151v 3.2737" fill="none" stroke="black"/>
<path d="M72.311,370.788v 1.63685" fill="none" stroke="black"/>
<path d="M87.4291,370.788v 1.63685" fill="none" stroke="black"/>
<path d="M102.547,370.788v 1.63685" fill="none" stroke="black"/>
<path d="M117.665,370.788v 1.63685" fill="none" stroke="black"/>
<path d="M132.783,369.151v 3.2737" fill="none" stroke="black"/>
<path d="M147.902,370.788v 1.63685" fill="none" stroke="black"/>
<path d="M163.02,370.788v 1.63685" fill="none" stroke="black"/>
<path d="M178.138,370.788v 1.63685" fill="none" stroke="black"/>
<path d="M193.256,370.788v 1.63685" fill="none" stroke="black"/>
<path d="M208.374,369.151v 3.2737" fill="none" stroke="black"/>
<path d="M223.492,370.788v 1.63685" fill="none" stroke="black"/>
<path d="M238.61,370.788v 1.63685" fill="none" stroke="black"/>
<path d="M253.728,370.788v 1.63685" fill="none" stroke="black"/>
<path d="M268.846,370.788v 1.63685" fill="none" stroke="black"/>
<path d="M283.965,369.151v 3.2737" fill="none" stroke="black"/>
<path d="M299.083,370.788v 1.63685" fill="none" stroke="black"/>
<path d="M314.201,370.788v 1.63685" fill="none" stroke="black"/>
<path d="M329.319,370.788v 1.63685" fill="none" stroke="black"/>
<path d="M344.437,370.788v 1.63685" fill="none" stroke="black"/>
<path d="M359.555,369.151v 3.2737" fill="none" stroke="black"/>
<path d="M374.673,370.788v 1.63685" fill="none" stroke="black"/>
<path d="M389.791,370.788v 1.63685" fill="none" stroke="black"/>
<path d="M404.909,370.788v 1.63685" fill="none" stroke="black"/>
<path d="M420.028,370.788v 1.63685" fill="none" stroke="black"/>
<path d="M435.146,369.151v 3.2737" fill="none" stroke="black"/>
<path d="M450.264,370.788v 1.63685" fill="none" stroke="black"/>
<path d="M465.382,370.788v 1.63685" fill="none" stroke="black"/>
<path d="M480.5,370.788v 1.63685" fill="none" stroke="black"/>
<path d="M495.618,370.788v 1.63685" fill="none" stroke="black"/>
<path d="M510.736,369.151v 3.2737" fill="none" stroke="black"/>
<text xml:space="preserve" x="54.5384" y="380.639" fill="black" font-size="9.25991" font-family="Helvetica">0</text>
<text xml:space="preserve" x="127.538" y="380.639" fill="black" font-size="9.25991" font-family="Helvetica">10</text>
<text xml:space="preserve" x="202.907" y="380.639" fill="black" font-size="9.25991" font-family="Helvetica">20</text>
<text xml:space="preserve" x="278.75" y="380.639" fill="black" font-size="9.25991" font-family="Helvetica">30</text>
<text xml:space="preserve" x="354.12" y="380.639" fill="black" font-size="9.25991" font-family="Helvetica">40</text>
<text xml:space="preserve" x="429.489" y="380.639" fill="black" font-size="9.25991" font-family="Helvetica">50</text>
<text xml:space="preserve" x="505.332" y="380.639" fill="black" font-size="9.25991" font-family="Helvetica">60</text>
<text xml:space="preserve" x="443.71" y="393.437" fill="black" font-size="11.137" font-family="Helvetica">number of p.e</text>
<path d="M57.1929,372.425v -95.4816" fill="none" stroke="black"/>
<path d="M69.0983,362.843h -11.9053" fill="none" stroke="black"/>
<path d="M63.1456,360.508h -5.95267" fill="none" stroke="black"/>
<path d="M63.1456,358.172h -5.95267" fill="none" stroke="black"/>
<path d="M63.1456,355.836h -5.95267" fill="none" stroke="black"/>
<path d="M63.1456,353.501h -5.95267" fill="none" stroke="black"/>
<path d="M69.0983,351.165h -11.9053" fill="none" stroke="black"/>
<path d="M63.1456,348.83h -5.95267" fill="none" stroke="black"/>
<path d="M63.1456,346.494h -5.95267" fill="none" stroke="black"/>
<path d="M63.1456,344.159h -5.95267" fill="none" stroke="black"/>
<path d="M63.1456,341.823h -5.95267" fill="none" stroke="black"/>
<path d="M69.0983,339.488h -11.9053" fill="none" stroke="black"/>
<path d="M63.1456,337.152h -5.95267" fill="none" stroke="black"/>
<path d="M63.1456,334.817h -5.95267" fill="none" stroke="black"/>
<path d="M63.1456,332.481h -5.95267" fill="none" stroke="black"/>
<path d="M63.1456,330.146h -5.95267" fill="none" stroke="black"/>
<path d="M69.0983,327.81h -11.9053" fill="none" stroke="black"/>
<path d="M63.1456,325.475h -5.95267" fill="none" stroke="black"/>
<path d="M63.1456,323.139h -5.95267" fill="none" stroke="black"/>
<path d="M63.1456,320.804h -5.95267" fill="none" stroke="black"/>
<path d="M63.1456,318.468h -5.95267" fill="none" stroke="black"/>
<path d="M69.0983,316.133h -11.9053" fill="none" stroke="black"/>
<path d="M63.1456,313.797h -5.95267" fill="none" stroke="black"/>
<path d="M63.1456,311.461h -5.95267" fill="none" stroke="black"/>
<path d="M63.1456,309.126h -5.95267" fill="none" stroke="black"/>
<path d="M63.1456,306.79h -5.95267" fill="none" stroke="black"/>
<path d="M69.0983,304.455h -11.9053" fill="none" stroke="black"/>
<path d="M63.1456,302.119h -5.95267" fill="none" stroke="black"/>
<path d="M63.1456,299.784h -5.95267" fill="none" stroke="black"/>
<path d="M63.1456,297.448h -5.95267" fill="none" stroke="black"/>
<path d="M63.1456,295.113h -5.95267" fill="none" stroke="black"/>
<path d="M69.0983,292.777h -11.9053" fill="none" stroke="black"/>
<path d="M63.1456,290.442h -5.95267" fill="none" stroke="black"/>
<path d="M63.1456,288.106h -5.95267" fill="none" stroke="black"/>
<path d="M63.1456,285.771h -5.95267" fill="none" stroke="black"/>
<path d="M63.1456,283.435h -5.95267" fill="none" stroke="black"/>
<path d="M69.0983,281.1h -11.9053" fill="none" stroke="black"/>
<path d="M69.0983,362.843h -11.9053" fill="none" stroke="black"/>
<path d="M63.1456,365.179h -5.95267" fill="none" stroke="black"/>
<path d="M63.1456,367.514h -5.95267" fill="none" stroke="black"/>
<path d="M63.1456,369.85h -5.95267" fill="none" stroke="black"/>
<path d="M63.1456,372.185h -5.95267" fill="none" stroke="black"/>
<path d="M69.0983,281.1h -11.9053" fill="none" stroke="black"/>
<path d="M63.1456,278.764h -5.95267" fill="none" stroke="black"/>
<text xml:space="preserve" x="44.1099" y="365.944" fill="black" font-size="9.25991" font-family="Helvetica">30</text>
<text xml:space="preserve" x="38.8957" y="365.944" fill="black" font-size="9.25991" font-family="Times">&#8722;</text>
<text xml:space="preserve" x="44.1099" y="354.094" fill="black" font-size="9.25991" font-family="Helvetica">20</text>
<text xml:space="preserve" x="38.8957" y="354.094" fill="black" font-size="9.25991" font-family="Times">&#8722;</text>
<text xml:space="preserve" x="44.1099" y="342.717" fill="black" font-size="9.25991" font-family="Helvetica">10</text>
<text xml:space="preserve" x="38.8957" y="342.717" fill="black" font-size="9.25991" font-family="Times">&#8722;</text>
<text xml:space="preserve" x="49.3242" y="330.867" fill="black" font-size="9.25991" font-family="Helvetica">0</text>
<text xml:space="preserve" x="44.1099" y="319.016" fill="black" font-size="9.25991" font-family="Helvetica">10</text>
<text xml:space="preserve" x="44.1099" y="307.64" fill="black" font-size="9.25991" font-family="Helvetica">20</text>
<text xml:space="preserve" x="44.1099" y="295.789" fill="black" font-size="9.25991" font-family="Helvetica">30</text>
<text xml:space="preserve" x="44.1099" y="284.413" fill="black" font-size="9.25991" font-family="Helvetica">40</text>
<g transform="rotate(-90,35.5776,283.465)">
<text xml:space="preserve" x="35.5776" y="283.465" fill="black" font-size="11.137" font-family="Times">&#0963;</text>
</g>
<g transform="rotate(-90,35.5776,343.665)">
<text xml:space="preserve" x="35.5776" y="343.665" fill="black" font-size="11.137" font-family="Helvetica">(MC-DATA)/</text>
</g>
<g stroke="black" stroke-width="1" fill="none">
<line x1="56.1929" y1="327.81" x2="57.1929" y2="327.81"/>
<line x1="71.311" y1="362.819" x2="72.311" y2="362.819"/>
<line x1="86.4291" y1="286.547" x2="87.4291" y2="286.547"/>
<line x1="101.547" y1="313.121" x2="102.547" y2="313.121"/>
<line x1="116.665" y1="333.328" x2="117.665" y2="333.328"/>
<line x1="131.783" y1="336.185" x2="132.783" y2="336.185"/>
<line x1="146.902" y1="332.653" x2="147.902" y2="332.653"/>
<line x1="162.02" y1="328.649" x2="163.02" y2="328.649"/>
<line x1="177.138" y1="328.378" x2="178.138" y2="328.378"/>
<line x1="192.256" y1="326.75" x2="193.256" y2="326.75"/>
<line x1="207.374" y1="323.777" x2="208.374" y2="323.777"/>
<line x1="222.492" y1="324.953" x2="223.492" y2="324.953"/>
<line x1="237.61" y1="325.4" x2="238.61" y2="325.4"/>
<line x1="252.728" y1="326.962" x2="253.728" y2="326.962"/>
<line x1="267.846" y1="325.408" x2="268.846" y2="325.408"/>
<line x1="282.965" y1="324.933" x2="283.965" y2="324.933"/>
<line x1="298.083" y1="323.806" x2="299.083" y2="323.806"/>
<line x1="313.201" y1="324.825" x2="314.201" y2="324.825"/>
<line x1="328.319" y1="323.292" x2="329.319" y2="323.292"/>
<line x1="343.437" y1="326.721" x2="344.437" y2="326.721"/>
<line x1="358.555" y1="327.536" x2="359.555" y2="327.536"/>
<line x1="373.673" y1="328.841" x2="374.673" y2="328.841"/>
<line x1="388.791" y1="329.216" x2="389.791" y2="329.216"/>
<line x1="403.909" y1="332.106" x2="404.909" y2="332.106"/>
<line x1="419.028" y1="331.798" x2="420.028" y2="331.798"/>
<line x1="434.146" y1="332.101" x2="435.146" y2="332.101"/>
<line x1="449.264" y1="330.303" x2="450.264" y2="330.303"/>
<line x1="464.382" y1="331.712" x2="465.382" y2="331.712"/>
<line x1="479.5" y1="331.534" x2="480.5" y2="331.534"/>
<line x1="494.618" y1="331.166" x2="495.618" y2="331.166"/>
<line x1="509.736" y1="330.996" x2="510.736" y2="330.996"/>
</g>
<path d="M72.311,362.819v -1.64922" fill="none" stroke="black"/>
<path d="M71.363,361.17h 1.89608" fill="none" stroke="black"/>
<path d="M72.311,362.819v 1.64922" fill="none" stroke="black"/>
<path d="M71.363,364.468h 1.89608" fill="none" stroke="black"/>
<path d="M87.4291,286.547v -1.64677" fill="none" stroke="black"/>
<path d="M86.4811,284.9h 1.89608" fill="none" stroke="black"/>
<path d="M87.4291,286.547v 1.64677" fill="none" stroke="black"/>
<path d="M86.4811,288.194h 1.89608" fill="none" stroke="black"/>
<path d="M102.547,313.121v -1.65076" fill="none" stroke="black"/>
<path d="M101.599,311.47h 1.89608" fill="none" stroke="black"/>
<path d="M102.547,313.121v 1.65076" fill="none" stroke="black"/>
<path d="M101.599,314.771h 1.89608" fill="none" stroke="black"/>
<path d="M117.665,333.328v -1.65133" fill="none" stroke="black"/>
<path d="M116.717,331.677h 1.89608" fill="none" stroke="black"/>
<path d="M117.665,333.328v 1.65133" fill="none" stroke="black"/>
<path d="M116.717,334.98h 1.89608" fill="none" stroke="black"/>
<path d="M132.783,336.185v -1.65099" fill="none" stroke="black"/>
<path d="M131.835,334.534h 1.89608" fill="none" stroke="black"/>
<path d="M132.783,336.185v 1.65099" fill="none" stroke="black"/>
<path d="M131.835,337.836h 1.89608" fill="none" stroke="black"/>
<path d="M147.902,332.653v -1.65122" fill="none" stroke="black"/>
<path d="M146.954,331.002h 1.89608" fill="none" stroke="black"/>
<path d="M147.902,332.653v 1.65122" fill="none" stroke="black"/>
<path d="M146.954,334.304h 1.89608" fill="none" stroke="black"/>
<path d="M163.02,328.649v -1.65145" fill="none" stroke="black"/>
<path d="M162.072,326.998h 1.89608" fill="none" stroke="black"/>
<path d="M163.02,328.649v 1.65145" fill="none" stroke="black"/>
<path d="M162.072,330.301h 1.89608" fill="none" stroke="black"/>
<path d="M178.138,328.378v -1.65146" fill="none" stroke="black"/>
<path d="M177.19,326.727h 1.89608" fill="none" stroke="black"/>
<path d="M178.138,328.378v 1.65146" fill="none" stroke="black"/>
<path d="M177.19,330.03h 1.89608" fill="none" stroke="black"/>
<path d="M193.256,326.75v -1.65143" fill="none" stroke="black"/>
<path d="M192.308,325.099h 1.89608" fill="none" stroke="black"/>
<path d="M193.256,326.75v 1.65143" fill="none" stroke="black"/>
<path d="M192.308,328.402h 1.89608" fill="none" stroke="black"/>
<path d="M208.374,323.777v -1.65074" fill="none" stroke="black"/>
<path d="M207.426,322.126h 1.89608" fill="none" stroke="black"/>
<path d="M208.374,323.777v 1.65074" fill="none" stroke="black"/>
<path d="M207.426,325.427h 1.89608" fill="none" stroke="black"/>
<path d="M223.492,324.953v -1.65098" fill="none" stroke="black"/>
<path d="M222.544,323.302h 1.89608" fill="none" stroke="black"/>
<path d="M223.492,324.953v 1.65098" fill="none" stroke="black"/>
<path d="M222.544,326.604h 1.89608" fill="none" stroke="black"/>
<path d="M238.61,325.4v -1.65103" fill="none" stroke="black"/>
<path d="M237.662,323.749h 1.89608" fill="none" stroke="black"/>
<path d="M238.61,325.4v 1.65103" fill="none" stroke="black"/>
<path d="M237.662,327.051h 1.89608" fill="none" stroke="black"/>
<path d="M253.728,326.962v -1.6514" fill="none" stroke="black"/>
<path d="M252.78,325.31h 1.89608" fill="none" stroke="black"/>
<path d="M253.728,326.962v 1.6514" fill="none" stroke="black"/>
<path d="M252.78,328.613h 1.89608" fill="none" stroke="black"/>
<path d="M268.846,325.408v -1.65079" fill="none" stroke="black"/>
<path d="M267.898,323.757h 1.89608" fill="none" stroke="black"/>
<path d="M268.846,325.408v 1.65079" fill="none" stroke="black"/>
<path d="M267.898,327.059h 1.89608" fill="none" stroke="black"/>
<path d="M283.965,324.933v -1.6503" fill="none" stroke="black"/>
<path d="M283.017,323.283h 1.89608" fill="none" stroke="black"/>
<path d="M283.965,324.933v 1.6503" fill="none" stroke="black"/>
<path d="M283.017,326.584h 1.89608" fill="none" stroke="black"/>
<path d="M299.083,323.806v -1.64882" fill="none" stroke="black"/>
<path d="M298.135,322.157h 1.89608" fill="none" stroke="black"/>
<path d="M299.083,323.806v 1.64882" fill="none" stroke="black"/>
<path d="M298.135,325.455h 1.89608" fill="none" stroke="black"/>
<path d="M314.201,324.825v -1.64966" fill="none" stroke="black"/>
<path d="M313.253,323.176h 1.89608" fill="none" stroke="black"/>
<path d="M314.201,324.825v 1.64966" fill="none" stroke="black"/>
<path d="M313.253,326.475h 1.89608" fill="none" stroke="black"/>
<path d="M329.319,323.292v -1.6463" fill="none" stroke="black"/>
<path d="M328.371,321.646h 1.89608" fill="none" stroke="black"/>
<path d="M329.319,323.292v 1.6463" fill="none" stroke="black"/>
<path d="M328.371,324.939h 1.89608" fill="none" stroke="black"/>
<path d="M344.437,326.721v -1.65114" fill="none" stroke="black"/>
<path d="M343.489,325.069h 1.89608" fill="none" stroke="black"/>
<path d="M344.437,326.721v 1.65114" fill="none" stroke="black"/>
<path d="M343.489,328.372h 1.89608" fill="none" stroke="black"/>
<path d="M359.555,327.536v -1.65144" fill="none" stroke="black"/>
<path d="M358.607,325.884h 1.89608" fill="none" stroke="black"/>
<path d="M359.555,327.536v 1.65144" fill="none" stroke="black"/>
<path d="M358.607,329.187h 1.89608" fill="none" stroke="black"/>
<path d="M374.673,328.841v -1.65108" fill="none" stroke="black"/>
<path d="M373.725,327.19h 1.89608" fill="none" stroke="black"/>
<path d="M374.673,328.841v 1.65108" fill="none" stroke="black"/>
<path d="M373.725,330.492h 1.89608" fill="none" stroke="black"/>
<path d="M389.791,329.216v -1.65057" fill="none" stroke="black"/>
<path d="M388.843,327.565h 1.89608" fill="none" stroke="black"/>
<path d="M389.791,329.216v 1.65057" fill="none" stroke="black"/>
<path d="M388.843,330.866h 1.89608" fill="none" stroke="black"/>
<path d="M404.909,332.106v -1.64148" fill="none" stroke="black"/>
<path d="M403.961,330.465h 1.89608" fill="none" stroke="black"/>
<path d="M404.909,332.106v 1.64148" fill="none" stroke="black"/>
<path d="M403.961,333.748h 1.89608" fill="none" stroke="black"/>
<path d="M420.028,331.798v -1.64169" fill="none" stroke="black"/>
<path d="M419.08,330.157h 1.89608" fill="none" stroke="black"/>
<path d="M420.028,331.798v 1.64169" fill="none" stroke="black"/>
<path d="M419.08,333.44h 1.89608" fill="none" stroke="black"/>
<path d="M435.146,332.101v -1.6383" fill="none" stroke="black"/>
<path d="M434.198,330.462h 1.89608" fill="none" stroke="black"/>
<path d="M435.146,332.101v 1.6383" fill="none" stroke="black"/>
<path d="M434.198,333.739h 1.89608" fill="none" stroke="black"/>
<path d="M450.264,330.303v -1.64595" fill="none" stroke="black"/>
<path d="M449.316,328.657h 1.89608" fill="none" stroke="black"/>
<path d="M450.264,330.303v 1.64595" fill="none" stroke="black"/>
<path d="M449.316,331.949h 1.89608" fill="none" stroke="black"/>
<path d="M465.382,331.712v -1.63654" fill="none" stroke="black"/>
<path d="M464.434,330.076h 1.89608" fill="none" stroke="black"/>
<path d="M465.382,331.712v 1.63654" fill="none" stroke="black"/>
<path d="M464.434,333.349h 1.89608" fill="none" stroke="black"/>
<path d="M480.5,331.534v -1.63634" fill="none" stroke="black"/>
<path d="M479.552,329.898h 1.89608" fill="none" stroke="black"/>
<path d="M480.5,331.534v 1.63634" fill="none" stroke="black"/>
<path d="M479.552,333.17h 1.89608" fill="none" stroke="black"/>
<path d="M495.618,331.166v -1.63742" fill="none" stroke="black"/>
<path d="M494.67,329.529h 1.89608" fill="none" stroke="black"/>
<path d="M495.618,331.166v 1.63742" fill="none" stroke="black"/>
<path d="M494.67,332.803h 1.89608" fill="none" stroke="black"/>
<path d="M510.736,330.996v -1.63758" fill="none" stroke="black"/>
<path d="M509.788,329.358h 0.948042" fill="none" stroke="black"/>
<path d="M510.736,330.996v 1.63758" fill="none" stroke="black"/>
<path d="M509.788,332.634h 0.948042" fill="none" stroke="black"/></svg>
