<?xml version="1.0" standalone="no"?>
<svg width="567.429" height="413.846" viewBox="0 0 567.429 413.846" xmlns="http://www.w3.org/2000/svg" shape-rendering="crispEdges">
<title>
figures/chi2_2PMTnpedata190929-01.svg
</title>
<desc>
Creator: ROOT Version 6.18/02
CreationDate: Tue Oct  1 14:34:02 2019</desc>
<defs>
</defs>
<rect x="0.5" y="0" width="566.929" height="413.346" fill="white"/>
<rect x="57.1929" y="41.3346" width="453.543" height="330.677" fill="white"/>
<rect x="57.1929" y="41.3346" width="453.543" height="330.677" fill="none" stroke="black"/>
<path d="M57.1929,372.012h 453.543" fill="none" stroke="black"/>
<path d="M80.4547,41.3346v 330.677" fill="none" stroke="black" stroke-dasharray=" 1, 2"/>
<path d="M125.777,41.3346v 330.677" fill="none" stroke="black" stroke-dasharray=" 1, 2"/>
<path d="M171.1,41.3346v 330.677" fill="none" stroke="black" stroke-dasharray=" 1, 2"/>
<path d="M216.423,41.3346v 330.677" fill="none" stroke="black" stroke-dasharray=" 1, 2"/>
<path d="M261.745,41.3346v 330.677" fill="none" stroke="black" stroke-dasharray=" 1, 2"/>
<path d="M307.068,41.3346v 330.677" fill="none" stroke="black" stroke-dasharray=" 1, 2"/>
<path d="M352.39,41.3346v 330.677" fill="none" stroke="black" stroke-dasharray=" 1, 2"/>
<path d="M397.713,41.3346v 330.677" fill="none" stroke="black" stroke-dasharray=" 1, 2"/>
<path d="M443.036,41.3346v 330.677" fill="none" stroke="black" stroke-dasharray=" 1, 2"/>
<path d="M488.358,41.3346v 330.677" fill="none" stroke="black" stroke-dasharray=" 1, 2"/>
<path d="M80.4547,41.3346v 330.677" fill="none" stroke="black" stroke-dasharray=" 1, 2"/>
<path d="M488.358,41.3346v 330.677" fill="none" stroke="black" stroke-dasharray=" 1, 2"/>
<path d="M57.1929,372.012v -330.677" fill="none" stroke="black"/>
<path d="M510.736,332.016h -453.543" fill="none" stroke="black" stroke-dasharray=" 1, 2"/>
<path d="M510.736,269.03h -453.543" fill="none" stroke="black" stroke-dasharray=" 1, 2"/>
<path d="M510.736,206.044h -453.543" fill="none" stroke="black" stroke-dasharray=" 1, 2"/>
<path d="M510.736,143.058h -453.543" fill="none" stroke="black" stroke-dasharray=" 1, 2"/>
<path d="M510.736,80.0716h -453.543" fill="none" stroke="black" stroke-dasharray=" 1, 2"/>
<path d="M510.736,332.016h -453.543" fill="none" stroke="black" stroke-dasharray=" 1, 2"/>
<path d="M510.736,80.0716h -453.543" fill="none" stroke="black" stroke-dasharray=" 1, 2"/>
<path d="M57.1929,372.012h 453.543" fill="none" stroke="black"/>
<path d="M80.4547,362.091v 9.92031" fill="none" stroke="black"/>
<path d="M91.7853,367.052v 4.96016" fill="none" stroke="black"/>
<path d="M103.116,367.052v 4.96016" fill="none" stroke="black"/>
<path d="M114.447,367.052v 4.96016" fill="none" stroke="black"/>
<path d="M125.777,362.091v 9.92031" fill="none" stroke="black"/>
<path d="M137.108,367.052v 4.96016" fill="none" stroke="black"/>
<path d="M148.439,367.052v 4.96016" fill="none" stroke="black"/>
<path d="M159.769,367.052v 4.96016" fill="none" stroke="black"/>
<path d="M171.1,362.091v 9.92031" fill="none" stroke="black"/>
<path d="M182.431,367.052v 4.96016" fill="none" stroke="black"/>
<path d="M193.761,367.052v 4.96016" fill="none" stroke="black"/>
<path d="M205.092,367.052v 4.96016" fill="none" stroke="black"/>
<path d="M216.423,362.091v 9.92031" fill="none" stroke="black"/>
<path d="M227.753,367.052v 4.96016" fill="none" stroke="black"/>
<path d="M239.084,367.052v 4.96016" fill="none" stroke="black"/>
<path d="M250.414,367.052v 4.96016" fill="none" stroke="black"/>
<path d="M261.745,362.091v 9.92031" fill="none" stroke="black"/>
<path d="M273.076,367.052v 4.96016" fill="none" stroke="black"/>
<path d="M284.406,367.052v 4.96016" fill="none" stroke="black"/>
<path d="M295.737,367.052v 4.96016" fill="none" stroke="black"/>
<path d="M307.068,362.091v 9.92031" fill="none" stroke="black"/>
<path d="M318.398,367.052v 4.96016" fill="none" stroke="black"/>
<path d="M329.729,367.052v 4.96016" fill="none" stroke="black"/>
<path d="M341.06,367.052v 4.96016" fill="none" stroke="black"/>
<path d="M352.39,362.091v 9.92031" fill="none" stroke="black"/>
<path d="M363.721,367.052v 4.96016" fill="none" stroke="black"/>
<path d="M375.052,367.052v 4.96016" fill="none" stroke="black"/>
<path d="M386.382,367.052v 4.96016" fill="none" stroke="black"/>
<path d="M397.713,362.091v 9.92031" fill="none" stroke="black"/>
<path d="M409.044,367.052v 4.96016" fill="none" stroke="black"/>
<path d="M420.374,367.052v 4.96016" fill="none" stroke="black"/>
<path d="M431.705,367.052v 4.96016" fill="none" stroke="black"/>
<path d="M443.036,362.091v 9.92031" fill="none" stroke="black"/>
<path d="M454.366,367.052v 4.96016" fill="none" stroke="black"/>
<path d="M465.697,367.052v 4.96016" fill="none" stroke="black"/>
<path d="M477.027,367.052v 4.96016" fill="none" stroke="black"/>
<path d="M488.358,362.091v 9.92031" fill="none" stroke="black"/>
<path d="M80.4547,362.091v 9.92031" fill="none" stroke="black"/>
<path d="M69.124,367.052v 4.96016" fill="none" stroke="black"/>
<path d="M57.7934,367.052v 4.96016" fill="none" stroke="black"/>
<path d="M488.358,362.091v 9.92031" fill="none" stroke="black"/>
<path d="M499.689,367.052v 4.96016" fill="none" stroke="black"/>
<text xml:space="preserve" x="67.337" y="385.379" fill="black" font-size="13.7726" font-family="Helvetica">0.46</text>
<text xml:space="preserve" x="112.843" y="385.379" fill="black" font-size="13.7726" font-family="Helvetica">0.48</text>
<text xml:space="preserve" x="161.667" y="385.379" fill="black" font-size="13.7726" font-family="Helvetica">0.5</text>
<text xml:space="preserve" x="203.381" y="385.379" fill="black" font-size="13.7726" font-family="Helvetica">0.52</text>
<text xml:space="preserve" x="248.887" y="385.379" fill="black" font-size="13.7726" font-family="Helvetica">0.54</text>
<text xml:space="preserve" x="293.919" y="385.379" fill="black" font-size="13.7726" font-family="Helvetica">0.56</text>
<text xml:space="preserve" x="339.425" y="385.379" fill="black" font-size="13.7726" font-family="Helvetica">0.58</text>
<text xml:space="preserve" x="388.249" y="385.379" fill="black" font-size="13.7726" font-family="Helvetica">0.6</text>
<text xml:space="preserve" x="429.963" y="385.379" fill="black" font-size="13.7726" font-family="Helvetica">0.62</text>
<text xml:space="preserve" x="475.469" y="385.379" fill="black" font-size="13.7726" font-family="Helvetica">0.64</text>
<text xml:space="preserve" x="413.372" y="400.074" fill="black" font-size="13.7726" font-family="Helvetica">calibration factor</text>
<path d="M57.1929,372.012v -330.677" fill="none" stroke="black"/>
<path d="M70.7992,332.016h -13.6063" fill="none" stroke="black"/>
<path d="M63.9961,316.27h -6.80315" fill="none" stroke="black"/>
<path d="M63.9961,300.523h -6.80315" fill="none" stroke="black"/>
<path d="M63.9961,284.776h -6.80315" fill="none" stroke="black"/>
<path d="M70.7992,269.03h -13.6063" fill="none" stroke="black"/>
<path d="M63.9961,253.283h -6.80315" fill="none" stroke="black"/>
<path d="M63.9961,237.537h -6.80315" fill="none" stroke="black"/>
<path d="M63.9961,221.79h -6.80315" fill="none" stroke="black"/>
<path d="M70.7992,206.044h -13.6063" fill="none" stroke="black"/>
<path d="M63.9961,190.297h -6.80315" fill="none" stroke="black"/>
<path d="M63.9961,174.551h -6.80315" fill="none" stroke="black"/>
<path d="M63.9961,158.804h -6.80315" fill="none" stroke="black"/>
<path d="M70.7992,143.058h -13.6063" fill="none" stroke="black"/>
<path d="M63.9961,127.311h -6.80315" fill="none" stroke="black"/>
<path d="M63.9961,111.565h -6.80315" fill="none" stroke="black"/>
<path d="M63.9961,95.8181h -6.80315" fill="none" stroke="black"/>
<path d="M70.7992,80.0716h -13.6063" fill="none" stroke="black"/>
<path d="M70.7992,332.016h -13.6063" fill="none" stroke="black"/>
<path d="M63.9961,347.763h -6.80315" fill="none" stroke="black"/>
<path d="M63.9961,363.509h -6.80315" fill="none" stroke="black"/>
<path d="M70.7992,80.0716h -13.6063" fill="none" stroke="black"/>
<path d="M63.9961,64.3251h -6.80315" fill="none" stroke="black"/>
<path d="M63.9961,48.5785h -6.80315" fill="none" stroke="black"/>
<text xml:space="preserve" x="17.5648" y="336.555" fill="black" font-size="13.7726" font-family="Helvetica">20020</text>
<text xml:space="preserve" x="17.5648" y="273.51" fill="black" font-size="13.7726" font-family="Helvetica">20040</text>
<text xml:space="preserve" x="17.5648" y="210.465" fill="black" font-size="13.7726" font-family="Helvetica">20060</text>
<text xml:space="preserve" x="17.5648" y="147.421" fill="black" font-size="13.7726" font-family="Helvetica">20080</text>
<text xml:space="preserve" x="17.5648" y="84.3757" fill="black" font-size="13.7726" font-family="Helvetica">20100</text>
<g transform="rotate(-90,0.5,45.98)">
<text xml:space="preserve" x="0.5" y="45.98" fill="black" font-size="9.34839" font-family="Helvetica">2</text>
</g>
<g transform="rotate(-90,4.76619,50.2462)">
<text xml:space="preserve" x="4.76619" y="50.2462" fill="black" font-size="13.7726" font-family="Helvetica"> </text>
</g>
<g transform="rotate(-90,4.76619,57.3565)">
<text xml:space="preserve" x="4.76619" y="57.3565" fill="black" font-size="13.7726" font-family="Times">&#0967;</text>
</g>
<g stroke="black" stroke-width="1" fill="none">
<line x1="253.504" y1="66.0303" x2="257.296" y2="66.0303"/><line x1="255.4" y1="64.1343" x2="255.4" y2="67.9264"/><line x1="253.504" y1="64.1343" x2="257.296" y2="67.9264"/><line x1="253.504" y1="67.9264" x2="257.296" y2="64.1343"/>
<line x1="253.957" y1="67.7247" x2="257.749" y2="67.7247"/><line x1="255.853" y1="65.8287" x2="255.853" y2="69.6208"/><line x1="253.957" y1="65.8287" x2="257.749" y2="69.6208"/><line x1="253.957" y1="69.6208" x2="257.749" y2="65.8287"/>
<line x1="254.41" y1="100.206" x2="258.202" y2="100.206"/><line x1="256.306" y1="98.3099" x2="256.306" y2="102.102"/><line x1="254.41" y1="98.3099" x2="258.202" y2="102.102"/><line x1="254.41" y1="102.102" x2="258.202" y2="98.3099"/>
<line x1="254.864" y1="88.4689" x2="258.656" y2="88.4689"/><line x1="256.76" y1="86.5729" x2="256.76" y2="90.365"/><line x1="254.864" y1="86.5729" x2="258.656" y2="90.365"/><line x1="254.864" y1="90.365" x2="258.656" y2="86.5729"/>
<line x1="255.317" y1="112.242" x2="259.109" y2="112.242"/><line x1="257.213" y1="110.346" x2="257.213" y2="114.138"/><line x1="255.317" y1="110.346" x2="259.109" y2="114.138"/><line x1="255.317" y1="114.138" x2="259.109" y2="110.346"/>
<line x1="255.77" y1="105.722" x2="259.562" y2="105.722"/><line x1="257.666" y1="103.826" x2="257.666" y2="107.618"/><line x1="255.77" y1="103.826" x2="259.562" y2="107.618"/><line x1="255.77" y1="107.618" x2="259.562" y2="103.826"/>
<line x1="256.223" y1="91.2048" x2="260.015" y2="91.2048"/><line x1="258.119" y1="89.3087" x2="258.119" y2="93.1009"/><line x1="256.223" y1="89.3087" x2="260.015" y2="93.1009"/><line x1="256.223" y1="93.1009" x2="260.015" y2="89.3087"/>
<line x1="256.676" y1="98.6926" x2="260.469" y2="98.6926"/><line x1="258.573" y1="96.7965" x2="258.573" y2="100.589"/><line x1="256.676" y1="96.7965" x2="260.469" y2="100.589"/><line x1="256.676" y1="100.589" x2="260.469" y2="96.7965"/>
<line x1="257.13" y1="103.451" x2="260.922" y2="103.451"/><line x1="259.026" y1="101.555" x2="259.026" y2="105.347"/><line x1="257.13" y1="101.555" x2="260.922" y2="105.347"/><line x1="257.13" y1="105.347" x2="260.922" y2="101.555"/>
<line x1="257.583" y1="87.8535" x2="261.375" y2="87.8535"/><line x1="259.479" y1="85.9574" x2="259.479" y2="89.7496"/><line x1="257.583" y1="85.9574" x2="261.375" y2="89.7496"/><line x1="257.583" y1="89.7496" x2="261.375" y2="85.9574"/>
<line x1="258.036" y1="92.7816" x2="261.828" y2="92.7816"/><line x1="259.932" y1="90.8856" x2="259.932" y2="94.6777"/><line x1="258.036" y1="90.8856" x2="261.828" y2="94.6777"/><line x1="258.036" y1="94.6777" x2="261.828" y2="90.8856"/>
<line x1="258.489" y1="107.262" x2="262.282" y2="107.262"/><line x1="260.385" y1="105.366" x2="260.385" y2="109.158"/><line x1="258.489" y1="105.366" x2="262.282" y2="109.158"/><line x1="258.489" y1="109.158" x2="262.282" y2="105.366"/>
<line x1="258.943" y1="110.558" x2="262.735" y2="110.558"/><line x1="260.839" y1="108.662" x2="260.839" y2="112.454"/><line x1="258.943" y1="108.662" x2="262.735" y2="112.454"/><line x1="258.943" y1="112.454" x2="262.735" y2="108.662"/>
<line x1="259.396" y1="100.463" x2="263.188" y2="100.463"/><line x1="261.292" y1="98.5666" x2="261.292" y2="102.359"/><line x1="259.396" y1="98.5666" x2="263.188" y2="102.359"/><line x1="259.396" y1="102.359" x2="263.188" y2="98.5666"/>
<line x1="259.849" y1="129.768" x2="263.641" y2="129.768"/><line x1="261.745" y1="127.872" x2="261.745" y2="131.664"/><line x1="259.849" y1="127.872" x2="263.641" y2="131.664"/><line x1="259.849" y1="131.664" x2="263.641" y2="127.872"/>
<line x1="260.302" y1="154.053" x2="264.094" y2="154.053"/><line x1="262.198" y1="152.157" x2="262.198" y2="155.95"/><line x1="260.302" y1="152.157" x2="264.094" y2="155.95"/><line x1="260.302" y1="155.95" x2="264.094" y2="152.157"/>
<line x1="260.755" y1="184.818" x2="264.548" y2="184.818"/><line x1="262.652" y1="182.922" x2="262.652" y2="186.714"/><line x1="260.755" y1="182.922" x2="264.548" y2="186.714"/><line x1="260.755" y1="186.714" x2="264.548" y2="182.922"/>
<line x1="261.209" y1="201.176" x2="265.001" y2="201.176"/><line x1="263.105" y1="199.28" x2="263.105" y2="203.072"/><line x1="261.209" y1="199.28" x2="265.001" y2="203.072"/><line x1="261.209" y1="203.072" x2="265.001" y2="199.28"/>
<line x1="261.662" y1="173.909" x2="265.454" y2="173.909"/><line x1="263.558" y1="172.013" x2="263.558" y2="175.805"/><line x1="261.662" y1="172.013" x2="265.454" y2="175.805"/><line x1="261.662" y1="175.805" x2="265.454" y2="172.013"/>
<line x1="262.115" y1="167.442" x2="265.907" y2="167.442"/><line x1="264.011" y1="165.545" x2="264.011" y2="169.338"/><line x1="262.115" y1="165.545" x2="265.907" y2="169.338"/><line x1="262.115" y1="169.338" x2="265.907" y2="165.545"/>
<line x1="262.568" y1="141.567" x2="266.361" y2="141.567"/><line x1="264.464" y1="139.671" x2="264.464" y2="143.463"/><line x1="262.568" y1="139.671" x2="266.361" y2="143.463"/><line x1="262.568" y1="143.463" x2="266.361" y2="139.671"/>
<line x1="263.022" y1="141.507" x2="266.814" y2="141.507"/><line x1="264.918" y1="139.611" x2="264.918" y2="143.404"/><line x1="263.022" y1="139.611" x2="266.814" y2="143.404"/><line x1="263.022" y1="143.404" x2="266.814" y2="139.611"/>
<line x1="263.475" y1="152.923" x2="267.267" y2="152.923"/><line x1="265.371" y1="151.027" x2="265.371" y2="154.819"/><line x1="263.475" y1="151.027" x2="267.267" y2="154.819"/><line x1="263.475" y1="154.819" x2="267.267" y2="151.027"/>
<line x1="263.928" y1="182.891" x2="267.72" y2="182.891"/><line x1="265.824" y1="180.995" x2="265.824" y2="184.787"/><line x1="263.928" y1="180.995" x2="267.72" y2="184.787"/><line x1="263.928" y1="184.787" x2="267.72" y2="180.995"/>
<line x1="264.381" y1="159.076" x2="268.173" y2="159.076"/><line x1="266.277" y1="157.18" x2="266.277" y2="160.972"/><line x1="264.381" y1="157.18" x2="268.173" y2="160.972"/><line x1="264.381" y1="160.972" x2="268.173" y2="157.18"/>
<line x1="264.835" y1="145.817" x2="268.627" y2="145.817"/><line x1="266.731" y1="143.921" x2="266.731" y2="147.713"/><line x1="264.835" y1="143.921" x2="268.627" y2="147.713"/><line x1="264.835" y1="147.713" x2="268.627" y2="143.921"/>
<line x1="265.288" y1="149.139" x2="269.08" y2="149.139"/><line x1="267.184" y1="147.243" x2="267.184" y2="151.035"/><line x1="265.288" y1="147.243" x2="269.08" y2="151.035"/><line x1="265.288" y1="151.035" x2="269.08" y2="147.243"/>
<line x1="265.741" y1="147.046" x2="269.533" y2="147.046"/><line x1="267.637" y1="145.15" x2="267.637" y2="148.942"/><line x1="265.741" y1="145.15" x2="269.533" y2="148.942"/><line x1="265.741" y1="148.942" x2="269.533" y2="145.15"/>
<line x1="266.194" y1="170.558" x2="269.986" y2="170.558"/><line x1="268.09" y1="168.662" x2="268.09" y2="172.454"/><line x1="266.194" y1="168.662" x2="269.986" y2="172.454"/><line x1="266.194" y1="172.454" x2="269.986" y2="168.662"/>
<line x1="266.647" y1="147.168" x2="270.44" y2="147.168"/><line x1="268.544" y1="145.272" x2="268.544" y2="149.064"/><line x1="266.647" y1="145.272" x2="270.44" y2="149.064"/><line x1="266.647" y1="149.064" x2="270.44" y2="145.272"/>
<line x1="267.101" y1="161.745" x2="270.893" y2="161.745"/><line x1="268.997" y1="159.849" x2="268.997" y2="163.641"/><line x1="267.101" y1="159.849" x2="270.893" y2="163.641"/><line x1="267.101" y1="163.641" x2="270.893" y2="159.849"/>
<line x1="267.554" y1="176.392" x2="271.346" y2="176.392"/><line x1="269.45" y1="174.496" x2="269.45" y2="178.288"/><line x1="267.554" y1="174.496" x2="271.346" y2="178.288"/><line x1="267.554" y1="178.288" x2="271.346" y2="174.496"/>
<line x1="268.007" y1="167.581" x2="271.799" y2="167.581"/><line x1="269.903" y1="165.685" x2="269.903" y2="169.478"/><line x1="268.007" y1="165.685" x2="271.799" y2="169.478"/><line x1="268.007" y1="169.478" x2="271.799" y2="165.685"/>
<line x1="268.46" y1="170.663" x2="272.253" y2="170.663"/><line x1="270.356" y1="168.767" x2="270.356" y2="172.559"/><line x1="268.46" y1="168.767" x2="272.253" y2="172.559"/><line x1="268.46" y1="172.559" x2="272.253" y2="168.767"/>
<line x1="268.914" y1="185.193" x2="272.706" y2="185.193"/><line x1="270.81" y1="183.297" x2="270.81" y2="187.089"/><line x1="268.914" y1="183.297" x2="272.706" y2="187.089"/><line x1="268.914" y1="187.089" x2="272.706" y2="183.297"/>
<line x1="269.367" y1="202.053" x2="273.159" y2="202.053"/><line x1="271.263" y1="200.156" x2="271.263" y2="203.949"/><line x1="269.367" y1="200.156" x2="273.159" y2="203.949"/><line x1="269.367" y1="203.949" x2="273.159" y2="200.156"/>
<line x1="269.82" y1="195.08" x2="273.612" y2="195.08"/><line x1="271.716" y1="193.184" x2="271.716" y2="196.976"/><line x1="269.82" y1="193.184" x2="273.612" y2="196.976"/><line x1="269.82" y1="196.976" x2="273.612" y2="193.184"/>
<line x1="270.273" y1="208.983" x2="274.065" y2="208.983"/><line x1="272.169" y1="207.087" x2="272.169" y2="210.879"/><line x1="270.273" y1="207.087" x2="274.065" y2="210.879"/><line x1="270.273" y1="210.879" x2="274.065" y2="207.087"/>
<line x1="270.726" y1="222.651" x2="274.519" y2="222.651"/><line x1="272.623" y1="220.755" x2="272.623" y2="224.547"/><line x1="270.726" y1="220.755" x2="274.519" y2="224.547"/><line x1="270.726" y1="224.547" x2="274.519" y2="220.755"/>
<line x1="271.18" y1="233.821" x2="274.972" y2="233.821"/><line x1="273.076" y1="231.925" x2="273.076" y2="235.717"/><line x1="271.18" y1="231.925" x2="274.972" y2="235.717"/><line x1="271.18" y1="235.717" x2="274.972" y2="231.925"/>
<line x1="271.633" y1="229.641" x2="275.425" y2="229.641"/><line x1="273.529" y1="227.745" x2="273.529" y2="231.537"/><line x1="271.633" y1="227.745" x2="275.425" y2="231.537"/><line x1="271.633" y1="231.537" x2="275.425" y2="227.745"/>
<line x1="272.086" y1="221.435" x2="275.878" y2="221.435"/><line x1="273.982" y1="219.539" x2="273.982" y2="223.331"/><line x1="272.086" y1="219.539" x2="275.878" y2="223.331"/><line x1="272.086" y1="223.331" x2="275.878" y2="219.539"/>
<line x1="272.539" y1="224.135" x2="276.332" y2="224.135"/><line x1="274.435" y1="222.239" x2="274.435" y2="226.031"/><line x1="272.539" y1="222.239" x2="276.332" y2="226.031"/><line x1="272.539" y1="226.031" x2="276.332" y2="222.239"/>
<line x1="272.993" y1="233.228" x2="276.785" y2="233.228"/><line x1="274.889" y1="231.332" x2="274.889" y2="235.124"/><line x1="272.993" y1="231.332" x2="276.785" y2="235.124"/><line x1="272.993" y1="235.124" x2="276.785" y2="231.332"/>
<line x1="273.446" y1="241.501" x2="277.238" y2="241.501"/><line x1="275.342" y1="239.605" x2="275.342" y2="243.397"/><line x1="273.446" y1="239.605" x2="277.238" y2="243.397"/><line x1="273.446" y1="243.397" x2="277.238" y2="239.605"/>
<line x1="273.899" y1="238.738" x2="277.691" y2="238.738"/><line x1="275.795" y1="236.842" x2="275.795" y2="240.634"/><line x1="273.899" y1="236.842" x2="277.691" y2="240.634"/><line x1="273.899" y1="240.634" x2="277.691" y2="236.842"/>
<line x1="274.352" y1="255.548" x2="278.144" y2="255.548"/><line x1="276.248" y1="253.652" x2="276.248" y2="257.444"/><line x1="274.352" y1="253.652" x2="278.144" y2="257.444"/><line x1="274.352" y1="257.444" x2="278.144" y2="253.652"/>
<line x1="274.806" y1="276.127" x2="278.598" y2="276.127"/><line x1="276.702" y1="274.231" x2="276.702" y2="278.023"/><line x1="274.806" y1="274.231" x2="278.598" y2="278.023"/><line x1="274.806" y1="278.023" x2="278.598" y2="274.231"/>
<line x1="275.259" y1="288.133" x2="279.051" y2="288.133"/><line x1="277.155" y1="286.237" x2="277.155" y2="290.029"/><line x1="275.259" y1="286.237" x2="279.051" y2="290.029"/><line x1="275.259" y1="290.029" x2="279.051" y2="286.237"/>
<line x1="275.712" y1="281.866" x2="279.504" y2="281.866"/><line x1="277.608" y1="279.97" x2="277.608" y2="283.762"/><line x1="275.712" y1="279.97" x2="279.504" y2="283.762"/><line x1="275.712" y1="283.762" x2="279.504" y2="279.97"/>
<line x1="276.165" y1="284.423" x2="279.957" y2="284.423"/><line x1="278.061" y1="282.527" x2="278.061" y2="286.319"/><line x1="276.165" y1="282.527" x2="279.957" y2="286.319"/><line x1="276.165" y1="286.319" x2="279.957" y2="282.527"/>
<line x1="276.618" y1="295.393" x2="280.411" y2="295.393"/><line x1="278.514" y1="293.497" x2="278.514" y2="297.289"/><line x1="276.618" y1="293.497" x2="280.411" y2="297.289"/><line x1="276.618" y1="297.289" x2="280.411" y2="293.497"/>
<line x1="277.072" y1="286.997" x2="280.864" y2="286.997"/><line x1="278.968" y1="285.101" x2="278.968" y2="288.894"/><line x1="277.072" y1="285.101" x2="280.864" y2="288.894"/><line x1="277.072" y1="288.894" x2="280.864" y2="285.101"/>
<line x1="277.525" y1="284.165" x2="281.317" y2="284.165"/><line x1="279.421" y1="282.269" x2="279.421" y2="286.061"/><line x1="277.525" y1="282.269" x2="281.317" y2="286.061"/><line x1="277.525" y1="286.061" x2="281.317" y2="282.269"/>
<line x1="277.978" y1="277.219" x2="281.77" y2="277.219"/><line x1="279.874" y1="275.323" x2="279.874" y2="279.115"/><line x1="277.978" y1="275.323" x2="281.77" y2="279.115"/><line x1="277.978" y1="279.115" x2="281.77" y2="275.323"/>
<line x1="278.431" y1="306.458" x2="282.223" y2="306.458"/><line x1="280.327" y1="304.562" x2="280.327" y2="308.354"/><line x1="278.431" y1="304.562" x2="282.223" y2="308.354"/><line x1="278.431" y1="308.354" x2="282.223" y2="304.562"/>
<line x1="278.885" y1="309.166" x2="282.677" y2="309.166"/><line x1="280.781" y1="307.27" x2="280.781" y2="311.062"/><line x1="278.885" y1="307.27" x2="282.677" y2="311.062"/><line x1="278.885" y1="311.062" x2="282.677" y2="307.27"/>
<line x1="279.338" y1="305.266" x2="283.13" y2="305.266"/><line x1="281.234" y1="303.37" x2="281.234" y2="307.162"/><line x1="279.338" y1="303.37" x2="283.13" y2="307.162"/><line x1="279.338" y1="307.162" x2="283.13" y2="303.37"/>
<line x1="279.791" y1="303.104" x2="283.583" y2="303.104"/><line x1="281.687" y1="301.208" x2="281.687" y2="305"/><line x1="279.791" y1="301.208" x2="283.583" y2="305"/><line x1="279.791" y1="305" x2="283.583" y2="301.208"/>
<line x1="280.244" y1="304.102" x2="284.036" y2="304.102"/><line x1="282.14" y1="302.206" x2="282.14" y2="305.999"/><line x1="280.244" y1="302.206" x2="284.036" y2="305.999"/><line x1="280.244" y1="305.999" x2="284.036" y2="302.206"/>
<line x1="280.697" y1="327.013" x2="284.49" y2="327.013"/><line x1="282.594" y1="325.117" x2="282.594" y2="328.909"/><line x1="280.697" y1="325.117" x2="284.49" y2="328.909"/><line x1="280.697" y1="328.909" x2="284.49" y2="325.117"/>
<line x1="281.151" y1="325.875" x2="284.943" y2="325.875"/><line x1="283.047" y1="323.979" x2="283.047" y2="327.771"/><line x1="281.151" y1="323.979" x2="284.943" y2="327.771"/><line x1="281.151" y1="327.771" x2="284.943" y2="323.979"/>
<line x1="281.604" y1="338.924" x2="285.396" y2="338.924"/><line x1="283.5" y1="337.028" x2="283.5" y2="340.82"/><line x1="281.604" y1="337.028" x2="285.396" y2="340.82"/><line x1="281.604" y1="340.82" x2="285.396" y2="337.028"/>
<line x1="282.057" y1="356.265" x2="285.849" y2="356.265"/><line x1="283.953" y1="354.369" x2="283.953" y2="358.161"/><line x1="282.057" y1="354.369" x2="285.849" y2="358.161"/><line x1="282.057" y1="358.161" x2="285.849" y2="354.369"/>
<line x1="282.51" y1="323.216" x2="286.303" y2="323.216"/><line x1="284.406" y1="321.319" x2="284.406" y2="325.112"/><line x1="282.51" y1="321.319" x2="286.303" y2="325.112"/><line x1="282.51" y1="325.112" x2="286.303" y2="321.319"/>
<line x1="282.964" y1="305.233" x2="286.756" y2="305.233"/><line x1="284.86" y1="303.337" x2="284.86" y2="307.129"/><line x1="282.964" y1="303.337" x2="286.756" y2="307.129"/><line x1="282.964" y1="307.129" x2="286.756" y2="303.337"/>
<line x1="283.417" y1="284.621" x2="287.209" y2="284.621"/><line x1="285.313" y1="282.725" x2="285.313" y2="286.517"/><line x1="283.417" y1="282.725" x2="287.209" y2="286.517"/><line x1="283.417" y1="286.517" x2="287.209" y2="282.725"/>
<line x1="283.87" y1="271.579" x2="287.662" y2="271.579"/><line x1="285.766" y1="269.683" x2="285.766" y2="273.475"/><line x1="283.87" y1="269.683" x2="287.662" y2="273.475"/><line x1="283.87" y1="273.475" x2="287.662" y2="269.683"/>
<line x1="284.323" y1="290.125" x2="288.115" y2="290.125"/><line x1="286.219" y1="288.229" x2="286.219" y2="292.022"/><line x1="284.323" y1="288.229" x2="288.115" y2="292.022"/><line x1="284.323" y1="292.022" x2="288.115" y2="288.229"/>
<line x1="284.776" y1="286.758" x2="288.569" y2="286.758"/><line x1="286.673" y1="284.862" x2="286.673" y2="288.654"/><line x1="284.776" y1="284.862" x2="288.569" y2="288.654"/><line x1="284.776" y1="288.654" x2="288.569" y2="284.862"/>
<line x1="285.23" y1="287.143" x2="289.022" y2="287.143"/><line x1="287.126" y1="285.246" x2="287.126" y2="289.039"/><line x1="285.23" y1="285.246" x2="289.022" y2="289.039"/><line x1="285.23" y1="289.039" x2="289.022" y2="285.246"/>
<line x1="285.683" y1="284.381" x2="289.475" y2="284.381"/><line x1="287.579" y1="282.485" x2="287.579" y2="286.277"/><line x1="285.683" y1="282.485" x2="289.475" y2="286.277"/><line x1="285.683" y1="286.277" x2="289.475" y2="282.485"/>
<line x1="286.136" y1="276.292" x2="289.928" y2="276.292"/><line x1="288.032" y1="274.396" x2="288.032" y2="278.189"/><line x1="286.136" y1="274.396" x2="289.928" y2="278.189"/><line x1="286.136" y1="278.189" x2="289.928" y2="274.396"/>
<line x1="286.589" y1="254.906" x2="290.382" y2="254.906"/><line x1="288.485" y1="253.01" x2="288.485" y2="256.803"/><line x1="286.589" y1="253.01" x2="290.382" y2="256.803"/><line x1="286.589" y1="256.803" x2="290.382" y2="253.01"/>
<line x1="287.043" y1="249.701" x2="290.835" y2="249.701"/><line x1="288.939" y1="247.804" x2="288.939" y2="251.597"/><line x1="287.043" y1="247.804" x2="290.835" y2="251.597"/><line x1="287.043" y1="251.597" x2="290.835" y2="247.804"/>
<line x1="287.496" y1="224.448" x2="291.288" y2="224.448"/><line x1="289.392" y1="222.552" x2="289.392" y2="226.344"/><line x1="287.496" y1="222.552" x2="291.288" y2="226.344"/><line x1="287.496" y1="226.344" x2="291.288" y2="222.552"/>
<line x1="287.949" y1="220.573" x2="291.741" y2="220.573"/><line x1="289.845" y1="218.677" x2="289.845" y2="222.469"/><line x1="287.949" y1="218.677" x2="291.741" y2="222.469"/><line x1="287.949" y1="222.469" x2="291.741" y2="218.677"/>
<line x1="288.402" y1="242.132" x2="292.194" y2="242.132"/><line x1="290.298" y1="240.236" x2="290.298" y2="244.028"/><line x1="288.402" y1="240.236" x2="292.194" y2="244.028"/><line x1="288.402" y1="244.028" x2="292.194" y2="240.236"/>
<line x1="288.855" y1="247.743" x2="292.648" y2="247.743"/><line x1="290.752" y1="245.847" x2="290.752" y2="249.639"/><line x1="288.855" y1="245.847" x2="292.648" y2="249.639"/><line x1="288.855" y1="249.639" x2="292.648" y2="245.847"/>
<line x1="289.309" y1="255.632" x2="293.101" y2="255.632"/><line x1="291.205" y1="253.736" x2="291.205" y2="257.528"/><line x1="289.309" y1="253.736" x2="293.101" y2="257.528"/><line x1="289.309" y1="257.528" x2="293.101" y2="253.736"/>
<line x1="289.762" y1="258.66" x2="293.554" y2="258.66"/><line x1="291.658" y1="256.764" x2="291.658" y2="260.556"/><line x1="289.762" y1="256.764" x2="293.554" y2="260.556"/><line x1="289.762" y1="260.556" x2="293.554" y2="256.764"/>
<line x1="290.215" y1="279.455" x2="294.007" y2="279.455"/><line x1="292.111" y1="277.559" x2="292.111" y2="281.351"/><line x1="290.215" y1="277.559" x2="294.007" y2="281.351"/><line x1="290.215" y1="281.351" x2="294.007" y2="277.559"/>
<line x1="290.668" y1="263.327" x2="294.461" y2="263.327"/><line x1="292.564" y1="261.431" x2="292.564" y2="265.223"/><line x1="290.668" y1="261.431" x2="294.461" y2="265.223"/><line x1="290.668" y1="265.223" x2="294.461" y2="261.431"/>
<line x1="291.122" y1="249.96" x2="294.914" y2="249.96"/><line x1="293.018" y1="248.064" x2="293.018" y2="251.856"/><line x1="291.122" y1="248.064" x2="294.914" y2="251.856"/><line x1="291.122" y1="251.856" x2="294.914" y2="248.064"/>
<line x1="291.575" y1="256.41" x2="295.367" y2="256.41"/><line x1="293.471" y1="254.514" x2="293.471" y2="258.306"/><line x1="291.575" y1="254.514" x2="295.367" y2="258.306"/><line x1="291.575" y1="258.306" x2="295.367" y2="254.514"/>
<line x1="292.028" y1="225.929" x2="295.82" y2="225.929"/><line x1="293.924" y1="224.033" x2="293.924" y2="227.825"/><line x1="292.028" y1="224.033" x2="295.82" y2="227.825"/><line x1="292.028" y1="227.825" x2="295.82" y2="224.033"/>
<line x1="292.481" y1="218.533" x2="296.273" y2="218.533"/><line x1="294.377" y1="216.636" x2="294.377" y2="220.429"/><line x1="292.481" y1="216.636" x2="296.273" y2="220.429"/><line x1="292.481" y1="220.429" x2="296.273" y2="216.636"/>
<line x1="292.935" y1="229.163" x2="296.727" y2="229.163"/><line x1="294.831" y1="227.267" x2="294.831" y2="231.059"/><line x1="292.935" y1="227.267" x2="296.727" y2="231.059"/><line x1="292.935" y1="231.059" x2="296.727" y2="227.267"/>
<line x1="293.388" y1="220.465" x2="297.18" y2="220.465"/><line x1="295.284" y1="218.569" x2="295.284" y2="222.361"/><line x1="293.388" y1="218.569" x2="297.18" y2="222.361"/><line x1="293.388" y1="222.361" x2="297.18" y2="218.569"/>
<line x1="293.841" y1="208.381" x2="297.633" y2="208.381"/><line x1="295.737" y1="206.485" x2="295.737" y2="210.278"/><line x1="293.841" y1="206.485" x2="297.633" y2="210.278"/><line x1="293.841" y1="210.278" x2="297.633" y2="206.485"/>
<line x1="294.294" y1="221.9" x2="298.086" y2="221.9"/><line x1="296.19" y1="220.004" x2="296.19" y2="223.796"/><line x1="294.294" y1="220.004" x2="298.086" y2="223.796"/><line x1="294.294" y1="223.796" x2="298.086" y2="220.004"/>
<line x1="294.747" y1="206.131" x2="298.54" y2="206.131"/><line x1="296.644" y1="204.235" x2="296.644" y2="208.027"/><line x1="294.747" y1="204.235" x2="298.54" y2="208.027"/><line x1="294.747" y1="208.027" x2="298.54" y2="204.235"/>
<line x1="295.201" y1="209.249" x2="298.993" y2="209.249"/><line x1="297.097" y1="207.353" x2="297.097" y2="211.145"/><line x1="295.201" y1="207.353" x2="298.993" y2="211.145"/><line x1="295.201" y1="211.145" x2="298.993" y2="207.353"/>
<line x1="295.654" y1="216.355" x2="299.446" y2="216.355"/><line x1="297.55" y1="214.459" x2="297.55" y2="218.251"/><line x1="295.654" y1="214.459" x2="299.446" y2="218.251"/><line x1="295.654" y1="218.251" x2="299.446" y2="214.459"/>
<line x1="296.107" y1="225.777" x2="299.899" y2="225.777"/><line x1="298.003" y1="223.881" x2="298.003" y2="227.673"/><line x1="296.107" y1="223.881" x2="299.899" y2="227.673"/><line x1="296.107" y1="227.673" x2="299.899" y2="223.881"/>
<line x1="296.56" y1="209.501" x2="300.353" y2="209.501"/><line x1="298.456" y1="207.605" x2="298.456" y2="211.397"/><line x1="296.56" y1="207.605" x2="300.353" y2="211.397"/><line x1="296.56" y1="211.397" x2="300.353" y2="207.605"/>
<line x1="297.014" y1="227.509" x2="300.806" y2="227.509"/><line x1="298.91" y1="225.613" x2="298.91" y2="229.405"/><line x1="297.014" y1="225.613" x2="300.806" y2="229.405"/><line x1="297.014" y1="229.405" x2="300.806" y2="225.613"/>
<line x1="297.467" y1="223.291" x2="301.259" y2="223.291"/><line x1="299.363" y1="221.394" x2="299.363" y2="225.187"/><line x1="297.467" y1="221.394" x2="301.259" y2="225.187"/><line x1="297.467" y1="225.187" x2="301.259" y2="221.394"/>
<line x1="297.92" y1="248.452" x2="301.712" y2="248.452"/><line x1="299.816" y1="246.556" x2="299.816" y2="250.348"/><line x1="297.92" y1="246.556" x2="301.712" y2="250.348"/><line x1="297.92" y1="250.348" x2="301.712" y2="246.556"/>
<line x1="298.373" y1="234.791" x2="302.165" y2="234.791"/><line x1="300.269" y1="232.895" x2="300.269" y2="236.687"/><line x1="298.373" y1="232.895" x2="302.165" y2="236.687"/><line x1="298.373" y1="236.687" x2="302.165" y2="232.895"/>
<line x1="298.826" y1="242.672" x2="302.619" y2="242.672"/><line x1="300.723" y1="240.776" x2="300.723" y2="244.568"/><line x1="298.826" y1="240.776" x2="302.619" y2="244.568"/><line x1="298.826" y1="244.568" x2="302.619" y2="240.776"/>
<line x1="299.28" y1="243.573" x2="303.072" y2="243.573"/><line x1="301.176" y1="241.677" x2="301.176" y2="245.469"/><line x1="299.28" y1="241.677" x2="303.072" y2="245.469"/><line x1="299.28" y1="245.469" x2="303.072" y2="241.677"/>
<line x1="299.733" y1="233.603" x2="303.525" y2="233.603"/><line x1="301.629" y1="231.707" x2="301.629" y2="235.499"/><line x1="299.733" y1="231.707" x2="303.525" y2="235.499"/><line x1="299.733" y1="235.499" x2="303.525" y2="231.707"/>
<line x1="300.186" y1="252.619" x2="303.978" y2="252.619"/><line x1="302.082" y1="250.723" x2="302.082" y2="254.515"/><line x1="300.186" y1="250.723" x2="303.978" y2="254.515"/><line x1="300.186" y1="254.515" x2="303.978" y2="250.723"/>
<line x1="300.639" y1="259.376" x2="304.432" y2="259.376"/><line x1="302.535" y1="257.479" x2="302.535" y2="261.272"/><line x1="300.639" y1="257.479" x2="304.432" y2="261.272"/><line x1="300.639" y1="261.272" x2="304.432" y2="257.479"/>
<line x1="301.093" y1="283.831" x2="304.885" y2="283.831"/><line x1="302.989" y1="281.935" x2="302.989" y2="285.727"/><line x1="301.093" y1="281.935" x2="304.885" y2="285.727"/><line x1="301.093" y1="285.727" x2="304.885" y2="281.935"/>
<line x1="301.546" y1="262.835" x2="305.338" y2="262.835"/><line x1="303.442" y1="260.939" x2="303.442" y2="264.731"/><line x1="301.546" y1="260.939" x2="305.338" y2="264.731"/><line x1="301.546" y1="264.731" x2="305.338" y2="260.939"/>
<line x1="301.999" y1="247.749" x2="305.791" y2="247.749"/><line x1="303.895" y1="245.853" x2="303.895" y2="249.646"/><line x1="301.999" y1="245.853" x2="305.791" y2="249.646"/><line x1="301.999" y1="249.646" x2="305.791" y2="245.853"/>
<line x1="302.452" y1="238.996" x2="306.244" y2="238.996"/><line x1="304.348" y1="237.1" x2="304.348" y2="240.893"/><line x1="302.452" y1="237.1" x2="306.244" y2="240.893"/><line x1="302.452" y1="240.893" x2="306.244" y2="237.1"/>
<line x1="302.906" y1="221.148" x2="306.698" y2="221.148"/><line x1="304.802" y1="219.252" x2="304.802" y2="223.044"/><line x1="302.906" y1="219.252" x2="306.698" y2="223.044"/><line x1="302.906" y1="223.044" x2="306.698" y2="219.252"/>
<line x1="303.359" y1="204.31" x2="307.151" y2="204.31"/><line x1="305.255" y1="202.414" x2="305.255" y2="206.206"/><line x1="303.359" y1="202.414" x2="307.151" y2="206.206"/><line x1="303.359" y1="206.206" x2="307.151" y2="202.414"/>
<line x1="303.812" y1="207.862" x2="307.604" y2="207.862"/><line x1="305.708" y1="205.966" x2="305.708" y2="209.758"/><line x1="303.812" y1="205.966" x2="307.604" y2="209.758"/><line x1="303.812" y1="209.758" x2="307.604" y2="205.966"/>
<line x1="304.265" y1="185.646" x2="308.057" y2="185.646"/><line x1="306.161" y1="183.75" x2="306.161" y2="187.542"/><line x1="304.265" y1="183.75" x2="308.057" y2="187.542"/><line x1="304.265" y1="187.542" x2="308.057" y2="183.75"/>
<line x1="304.718" y1="175.947" x2="308.511" y2="175.947"/><line x1="306.615" y1="174.051" x2="306.615" y2="177.843"/><line x1="304.718" y1="174.051" x2="308.511" y2="177.843"/><line x1="304.718" y1="177.843" x2="308.511" y2="174.051"/>
<line x1="305.172" y1="165.355" x2="308.964" y2="165.355"/><line x1="307.068" y1="163.459" x2="307.068" y2="167.252"/><line x1="305.172" y1="163.459" x2="308.964" y2="167.252"/><line x1="305.172" y1="167.252" x2="308.964" y2="163.459"/>
<line x1="305.625" y1="138.989" x2="309.417" y2="138.989"/><line x1="307.521" y1="137.093" x2="307.521" y2="140.885"/><line x1="305.625" y1="137.093" x2="309.417" y2="140.885"/><line x1="305.625" y1="140.885" x2="309.417" y2="137.093"/>
<line x1="306.078" y1="156.083" x2="309.87" y2="156.083"/><line x1="307.974" y1="154.187" x2="307.974" y2="157.979"/><line x1="306.078" y1="154.187" x2="309.87" y2="157.979"/><line x1="306.078" y1="157.979" x2="309.87" y2="154.187"/>
<line x1="306.531" y1="187.198" x2="310.323" y2="187.198"/><line x1="308.427" y1="185.301" x2="308.427" y2="189.094"/><line x1="306.531" y1="185.301" x2="310.323" y2="189.094"/><line x1="306.531" y1="189.094" x2="310.323" y2="185.301"/>
<line x1="306.985" y1="174.975" x2="310.777" y2="174.975"/><line x1="308.881" y1="173.078" x2="308.881" y2="176.871"/><line x1="306.985" y1="173.078" x2="310.777" y2="176.871"/><line x1="306.985" y1="176.871" x2="310.777" y2="173.078"/>
<line x1="307.438" y1="156.642" x2="311.23" y2="156.642"/><line x1="309.334" y1="154.746" x2="309.334" y2="158.538"/><line x1="307.438" y1="154.746" x2="311.23" y2="158.538"/><line x1="307.438" y1="158.538" x2="311.23" y2="154.746"/>
<line x1="307.891" y1="168.52" x2="311.683" y2="168.52"/><line x1="309.787" y1="166.624" x2="309.787" y2="170.416"/><line x1="307.891" y1="166.624" x2="311.683" y2="170.416"/><line x1="307.891" y1="170.416" x2="311.683" y2="166.624"/>
<line x1="308.344" y1="145.959" x2="312.136" y2="145.959"/><line x1="310.24" y1="144.063" x2="310.24" y2="147.855"/><line x1="308.344" y1="144.063" x2="312.136" y2="147.855"/><line x1="308.344" y1="147.855" x2="312.136" y2="144.063"/>
<line x1="308.797" y1="153.713" x2="312.59" y2="153.713"/><line x1="310.694" y1="151.817" x2="310.694" y2="155.609"/><line x1="308.797" y1="151.817" x2="312.59" y2="155.609"/><line x1="308.797" y1="155.609" x2="312.59" y2="151.817"/>
<line x1="309.251" y1="171.883" x2="313.043" y2="171.883"/><line x1="311.147" y1="169.987" x2="311.147" y2="173.779"/><line x1="309.251" y1="169.987" x2="313.043" y2="173.779"/><line x1="309.251" y1="173.779" x2="313.043" y2="169.987"/>
<line x1="309.704" y1="159.216" x2="313.496" y2="159.216"/><line x1="311.6" y1="157.32" x2="311.6" y2="161.112"/><line x1="309.704" y1="157.32" x2="313.496" y2="161.112"/><line x1="309.704" y1="161.112" x2="313.496" y2="157.32"/>
<line x1="310.157" y1="161.822" x2="313.949" y2="161.822"/><line x1="312.053" y1="159.926" x2="312.053" y2="163.718"/><line x1="310.157" y1="159.926" x2="313.949" y2="163.718"/><line x1="310.157" y1="163.718" x2="313.949" y2="159.926"/>
<line x1="310.61" y1="148.394" x2="314.403" y2="148.394"/><line x1="312.506" y1="146.498" x2="312.506" y2="150.29"/><line x1="310.61" y1="146.498" x2="314.403" y2="150.29"/><line x1="310.61" y1="150.29" x2="314.403" y2="146.498"/>
<line x1="311.064" y1="169.596" x2="314.856" y2="169.596"/><line x1="312.96" y1="167.699" x2="312.96" y2="171.492"/><line x1="311.064" y1="167.699" x2="314.856" y2="171.492"/><line x1="311.064" y1="171.492" x2="314.856" y2="167.699"/>
<line x1="311.517" y1="196.001" x2="315.309" y2="196.001"/><line x1="313.413" y1="194.105" x2="313.413" y2="197.897"/><line x1="311.517" y1="194.105" x2="315.309" y2="197.897"/><line x1="311.517" y1="197.897" x2="315.309" y2="194.105"/>
<line x1="311.97" y1="172.832" x2="315.762" y2="172.832"/><line x1="313.866" y1="170.936" x2="313.866" y2="174.728"/><line x1="311.97" y1="170.936" x2="315.762" y2="174.728"/><line x1="311.97" y1="174.728" x2="315.762" y2="170.936"/>
<line x1="312.423" y1="184.831" x2="316.215" y2="184.831"/><line x1="314.319" y1="182.935" x2="314.319" y2="186.727"/><line x1="312.423" y1="182.935" x2="316.215" y2="186.727"/><line x1="312.423" y1="186.727" x2="316.215" y2="182.935"/>
<line x1="312.876" y1="179.933" x2="316.669" y2="179.933"/><line x1="314.773" y1="178.037" x2="314.773" y2="181.829"/><line x1="312.876" y1="178.037" x2="316.669" y2="181.829"/><line x1="312.876" y1="181.829" x2="316.669" y2="178.037"/>
<line x1="313.33" y1="159.382" x2="317.122" y2="159.382"/><line x1="315.226" y1="157.486" x2="315.226" y2="161.278"/><line x1="313.33" y1="157.486" x2="317.122" y2="161.278"/><line x1="313.33" y1="161.278" x2="317.122" y2="157.486"/>
<line x1="313.783" y1="141.316" x2="317.575" y2="141.316"/><line x1="315.679" y1="139.42" x2="315.679" y2="143.212"/><line x1="313.783" y1="139.42" x2="317.575" y2="143.212"/><line x1="313.783" y1="143.212" x2="317.575" y2="139.42"/>
<line x1="314.236" y1="124.541" x2="318.028" y2="124.541"/><line x1="316.132" y1="122.645" x2="316.132" y2="126.437"/><line x1="314.236" y1="122.645" x2="318.028" y2="126.437"/><line x1="314.236" y1="126.437" x2="318.028" y2="122.645"/>
<line x1="314.689" y1="139.016" x2="318.482" y2="139.016"/><line x1="316.585" y1="137.12" x2="316.585" y2="140.912"/><line x1="314.689" y1="137.12" x2="318.482" y2="140.912"/><line x1="314.689" y1="140.912" x2="318.482" y2="137.12"/>
<line x1="315.143" y1="165.702" x2="318.935" y2="165.702"/><line x1="317.039" y1="163.806" x2="317.039" y2="167.598"/><line x1="315.143" y1="163.806" x2="318.935" y2="167.598"/><line x1="315.143" y1="167.598" x2="318.935" y2="163.806"/>
<line x1="315.596" y1="165.376" x2="319.388" y2="165.376"/><line x1="317.492" y1="163.479" x2="317.492" y2="167.272"/><line x1="315.596" y1="163.479" x2="319.388" y2="167.272"/><line x1="315.596" y1="167.272" x2="319.388" y2="163.479"/>
<line x1="316.049" y1="164.931" x2="319.841" y2="164.931"/><line x1="317.945" y1="163.035" x2="317.945" y2="166.827"/><line x1="316.049" y1="163.035" x2="319.841" y2="166.827"/><line x1="316.049" y1="166.827" x2="319.841" y2="163.035"/>
<line x1="316.502" y1="161.674" x2="320.294" y2="161.674"/><line x1="318.398" y1="159.778" x2="318.398" y2="163.57"/><line x1="316.502" y1="159.778" x2="320.294" y2="163.57"/><line x1="316.502" y1="163.57" x2="320.294" y2="159.778"/>
<line x1="316.956" y1="169.838" x2="320.748" y2="169.838"/><line x1="318.852" y1="167.942" x2="318.852" y2="171.734"/><line x1="316.956" y1="167.942" x2="320.748" y2="171.734"/><line x1="316.956" y1="171.734" x2="320.748" y2="167.942"/>
<line x1="317.409" y1="149.537" x2="321.201" y2="149.537"/><line x1="319.305" y1="147.641" x2="319.305" y2="151.433"/><line x1="317.409" y1="147.641" x2="321.201" y2="151.433"/><line x1="317.409" y1="151.433" x2="321.201" y2="147.641"/>
<line x1="317.862" y1="169.232" x2="321.654" y2="169.232"/><line x1="319.758" y1="167.336" x2="319.758" y2="171.128"/><line x1="317.862" y1="167.336" x2="321.654" y2="171.128"/><line x1="317.862" y1="171.128" x2="321.654" y2="167.336"/>
<line x1="318.315" y1="166.649" x2="322.107" y2="166.649"/><line x1="320.211" y1="164.753" x2="320.211" y2="168.545"/><line x1="318.315" y1="164.753" x2="322.107" y2="168.545"/><line x1="318.315" y1="168.545" x2="322.107" y2="164.753"/>
<line x1="318.768" y1="171.692" x2="322.561" y2="171.692"/><line x1="320.665" y1="169.796" x2="320.665" y2="173.588"/><line x1="318.768" y1="169.796" x2="322.561" y2="173.588"/><line x1="318.768" y1="173.588" x2="322.561" y2="169.796"/>
<line x1="319.222" y1="171.485" x2="323.014" y2="171.485"/><line x1="321.118" y1="169.589" x2="321.118" y2="173.382"/><line x1="319.222" y1="169.589" x2="323.014" y2="173.382"/><line x1="319.222" y1="173.382" x2="323.014" y2="169.589"/>
<line x1="319.675" y1="200.272" x2="323.467" y2="200.272"/><line x1="321.571" y1="198.376" x2="321.571" y2="202.168"/><line x1="319.675" y1="198.376" x2="323.467" y2="202.168"/><line x1="319.675" y1="202.168" x2="323.467" y2="198.376"/>
<line x1="320.128" y1="200.389" x2="323.92" y2="200.389"/><line x1="322.024" y1="198.493" x2="322.024" y2="202.285"/><line x1="320.128" y1="198.493" x2="323.92" y2="202.285"/><line x1="320.128" y1="202.285" x2="323.92" y2="198.493"/>
<line x1="320.581" y1="173.536" x2="324.374" y2="173.536"/><line x1="322.477" y1="171.64" x2="322.477" y2="175.432"/><line x1="320.581" y1="171.64" x2="324.374" y2="175.432"/><line x1="320.581" y1="175.432" x2="324.374" y2="171.64"/>
<line x1="321.035" y1="198.721" x2="324.827" y2="198.721"/><line x1="322.931" y1="196.825" x2="322.931" y2="200.617"/><line x1="321.035" y1="196.825" x2="324.827" y2="200.617"/><line x1="321.035" y1="200.617" x2="324.827" y2="196.825"/>
<line x1="321.488" y1="183.806" x2="325.28" y2="183.806"/><line x1="323.384" y1="181.91" x2="323.384" y2="185.702"/><line x1="321.488" y1="181.91" x2="325.28" y2="185.702"/><line x1="321.488" y1="185.702" x2="325.28" y2="181.91"/>
<line x1="321.941" y1="211.188" x2="325.733" y2="211.188"/><line x1="323.837" y1="209.292" x2="323.837" y2="213.085"/><line x1="321.941" y1="209.292" x2="325.733" y2="213.085"/><line x1="321.941" y1="213.085" x2="325.733" y2="209.292"/>
<line x1="322.394" y1="204.639" x2="326.186" y2="204.639"/><line x1="324.29" y1="202.743" x2="324.29" y2="206.535"/><line x1="322.394" y1="202.743" x2="326.186" y2="206.535"/><line x1="322.394" y1="206.535" x2="326.186" y2="202.743"/>
<line x1="322.847" y1="163.665" x2="326.64" y2="163.665"/><line x1="324.744" y1="161.769" x2="324.744" y2="165.561"/><line x1="322.847" y1="161.769" x2="326.64" y2="165.561"/><line x1="322.847" y1="165.561" x2="326.64" y2="161.769"/>
<line x1="323.301" y1="154.915" x2="327.093" y2="154.915"/><line x1="325.197" y1="153.019" x2="325.197" y2="156.811"/><line x1="323.301" y1="153.019" x2="327.093" y2="156.811"/><line x1="323.301" y1="156.811" x2="327.093" y2="153.019"/>
<line x1="323.754" y1="154.5" x2="327.546" y2="154.5"/><line x1="325.65" y1="152.604" x2="325.65" y2="156.396"/><line x1="323.754" y1="152.604" x2="327.546" y2="156.396"/><line x1="323.754" y1="156.396" x2="327.546" y2="152.604"/>
<line x1="324.207" y1="166.375" x2="327.999" y2="166.375"/><line x1="326.103" y1="164.479" x2="326.103" y2="168.271"/><line x1="324.207" y1="164.479" x2="327.999" y2="168.271"/><line x1="324.207" y1="168.271" x2="327.999" y2="164.479"/>
<line x1="324.66" y1="153.147" x2="328.453" y2="153.147"/><line x1="326.556" y1="151.251" x2="326.556" y2="155.043"/><line x1="324.66" y1="151.251" x2="328.453" y2="155.043"/><line x1="324.66" y1="155.043" x2="328.453" y2="151.251"/>
<line x1="325.114" y1="195.225" x2="328.906" y2="195.225"/><line x1="327.01" y1="193.329" x2="327.01" y2="197.121"/><line x1="325.114" y1="193.329" x2="328.906" y2="197.121"/><line x1="325.114" y1="197.121" x2="328.906" y2="193.329"/>
<line x1="325.567" y1="187.352" x2="329.359" y2="187.352"/><line x1="327.463" y1="185.456" x2="327.463" y2="189.248"/><line x1="325.567" y1="185.456" x2="329.359" y2="189.248"/><line x1="325.567" y1="189.248" x2="329.359" y2="185.456"/>
<line x1="326.02" y1="215.023" x2="329.812" y2="215.023"/><line x1="327.916" y1="213.127" x2="327.916" y2="216.919"/><line x1="326.02" y1="213.127" x2="329.812" y2="216.919"/><line x1="326.02" y1="216.919" x2="329.812" y2="213.127"/>
<line x1="326.473" y1="225.335" x2="330.265" y2="225.335"/><line x1="328.369" y1="223.439" x2="328.369" y2="227.231"/><line x1="326.473" y1="223.439" x2="330.265" y2="227.231"/><line x1="326.473" y1="227.231" x2="330.265" y2="223.439"/>
<line x1="326.926" y1="222.118" x2="330.719" y2="222.118"/><line x1="328.823" y1="220.222" x2="328.823" y2="224.014"/><line x1="326.926" y1="220.222" x2="330.719" y2="224.014"/><line x1="326.926" y1="224.014" x2="330.719" y2="220.222"/>
<line x1="327.38" y1="213.63" x2="331.172" y2="213.63"/><line x1="329.276" y1="211.734" x2="329.276" y2="215.526"/><line x1="327.38" y1="211.734" x2="331.172" y2="215.526"/><line x1="327.38" y1="215.526" x2="331.172" y2="211.734"/>
<line x1="327.833" y1="211.377" x2="331.625" y2="211.377"/><line x1="329.729" y1="209.481" x2="329.729" y2="213.273"/><line x1="327.833" y1="209.481" x2="331.625" y2="213.273"/><line x1="327.833" y1="213.273" x2="331.625" y2="209.481"/>
<line x1="328.286" y1="197.157" x2="332.078" y2="197.157"/><line x1="330.182" y1="195.261" x2="330.182" y2="199.053"/><line x1="328.286" y1="195.261" x2="332.078" y2="199.053"/><line x1="328.286" y1="199.053" x2="332.078" y2="195.261"/>
<line x1="328.739" y1="189.304" x2="332.532" y2="189.304"/><line x1="330.635" y1="187.408" x2="330.635" y2="191.201"/><line x1="328.739" y1="187.408" x2="332.532" y2="191.201"/><line x1="328.739" y1="191.201" x2="332.532" y2="187.408"/>
<line x1="329.193" y1="227.817" x2="332.985" y2="227.817"/><line x1="331.089" y1="225.921" x2="331.089" y2="229.713"/><line x1="329.193" y1="225.921" x2="332.985" y2="229.713"/><line x1="329.193" y1="229.713" x2="332.985" y2="225.921"/>
<line x1="329.646" y1="225.613" x2="333.438" y2="225.613"/><line x1="331.542" y1="223.717" x2="331.542" y2="227.509"/><line x1="329.646" y1="223.717" x2="333.438" y2="227.509"/><line x1="329.646" y1="227.509" x2="333.438" y2="223.717"/>
<line x1="330.099" y1="233.235" x2="333.891" y2="233.235"/><line x1="331.995" y1="231.339" x2="331.995" y2="235.131"/><line x1="330.099" y1="231.339" x2="333.891" y2="235.131"/><line x1="330.099" y1="235.131" x2="333.891" y2="231.339"/>
<line x1="330.552" y1="243.503" x2="334.344" y2="243.503"/><line x1="332.448" y1="241.607" x2="332.448" y2="245.399"/><line x1="330.552" y1="241.607" x2="334.344" y2="245.399"/><line x1="330.552" y1="245.399" x2="334.344" y2="241.607"/>
<line x1="331.006" y1="246.858" x2="334.798" y2="246.858"/><line x1="332.902" y1="244.962" x2="332.902" y2="248.754"/><line x1="331.006" y1="244.962" x2="334.798" y2="248.754"/><line x1="331.006" y1="248.754" x2="334.798" y2="244.962"/>
<line x1="331.459" y1="266.073" x2="335.251" y2="266.073"/><line x1="333.355" y1="264.177" x2="333.355" y2="267.97"/><line x1="331.459" y1="264.177" x2="335.251" y2="267.97"/><line x1="331.459" y1="267.97" x2="335.251" y2="264.177"/>
<line x1="331.912" y1="264.046" x2="335.704" y2="264.046"/><line x1="333.808" y1="262.15" x2="333.808" y2="265.942"/><line x1="331.912" y1="262.15" x2="335.704" y2="265.942"/><line x1="331.912" y1="265.942" x2="335.704" y2="262.15"/>
<line x1="332.365" y1="270.571" x2="336.157" y2="270.571"/><line x1="334.261" y1="268.675" x2="334.261" y2="272.467"/><line x1="332.365" y1="268.675" x2="336.157" y2="272.467"/><line x1="332.365" y1="272.467" x2="336.157" y2="268.675"/>
<line x1="332.818" y1="274.45" x2="336.611" y2="274.45"/><line x1="334.715" y1="272.553" x2="334.715" y2="276.346"/><line x1="332.818" y1="272.553" x2="336.611" y2="276.346"/><line x1="332.818" y1="276.346" x2="336.611" y2="272.553"/>
<line x1="333.272" y1="261.658" x2="337.064" y2="261.658"/><line x1="335.168" y1="259.762" x2="335.168" y2="263.554"/><line x1="333.272" y1="259.762" x2="337.064" y2="263.554"/><line x1="333.272" y1="263.554" x2="337.064" y2="259.762"/>
<line x1="333.725" y1="274.204" x2="337.517" y2="274.204"/><line x1="335.621" y1="272.308" x2="335.621" y2="276.1"/><line x1="333.725" y1="272.308" x2="337.517" y2="276.1"/><line x1="333.725" y1="276.1" x2="337.517" y2="272.308"/>
<line x1="334.178" y1="272.108" x2="337.97" y2="272.108"/><line x1="336.074" y1="270.212" x2="336.074" y2="274.004"/><line x1="334.178" y1="270.212" x2="337.97" y2="274.004"/><line x1="334.178" y1="274.004" x2="337.97" y2="270.212"/>
<line x1="334.631" y1="266.604" x2="338.424" y2="266.604"/><line x1="336.527" y1="264.708" x2="336.527" y2="268.5"/><line x1="334.631" y1="264.708" x2="338.424" y2="268.5"/><line x1="334.631" y1="268.5" x2="338.424" y2="264.708"/>
<line x1="335.085" y1="258.497" x2="338.877" y2="258.497"/><line x1="336.981" y1="256.601" x2="336.981" y2="260.393"/><line x1="335.085" y1="256.601" x2="338.877" y2="260.393"/><line x1="335.085" y1="260.393" x2="338.877" y2="256.601"/>
<line x1="335.538" y1="258.55" x2="339.33" y2="258.55"/><line x1="337.434" y1="256.654" x2="337.434" y2="260.446"/><line x1="335.538" y1="256.654" x2="339.33" y2="260.446"/><line x1="335.538" y1="260.446" x2="339.33" y2="256.654"/>
<line x1="335.991" y1="255.314" x2="339.783" y2="255.314"/><line x1="337.887" y1="253.418" x2="337.887" y2="257.211"/><line x1="335.991" y1="253.418" x2="339.783" y2="257.211"/><line x1="335.991" y1="257.211" x2="339.783" y2="253.418"/>
<line x1="336.444" y1="267.425" x2="340.236" y2="267.425"/><line x1="338.34" y1="265.529" x2="338.34" y2="269.321"/><line x1="336.444" y1="265.529" x2="340.236" y2="269.321"/><line x1="336.444" y1="269.321" x2="340.236" y2="265.529"/>
<line x1="336.897" y1="254.541" x2="340.69" y2="254.541"/><line x1="338.794" y1="252.645" x2="338.794" y2="256.438"/><line x1="336.897" y1="252.645" x2="340.69" y2="256.438"/><line x1="336.897" y1="256.438" x2="340.69" y2="252.645"/>
<line x1="337.351" y1="255.224" x2="341.143" y2="255.224"/><line x1="339.247" y1="253.328" x2="339.247" y2="257.12"/><line x1="337.351" y1="253.328" x2="341.143" y2="257.12"/><line x1="337.351" y1="257.12" x2="341.143" y2="253.328"/>
<line x1="337.804" y1="256.29" x2="341.596" y2="256.29"/><line x1="339.7" y1="254.394" x2="339.7" y2="258.186"/><line x1="337.804" y1="254.394" x2="341.596" y2="258.186"/><line x1="337.804" y1="258.186" x2="341.596" y2="254.394"/>
<line x1="338.257" y1="215.271" x2="342.049" y2="215.271"/><line x1="340.153" y1="213.375" x2="340.153" y2="217.167"/><line x1="338.257" y1="213.375" x2="342.049" y2="217.167"/><line x1="338.257" y1="217.167" x2="342.049" y2="213.375"/>
<line x1="338.71" y1="213.821" x2="342.503" y2="213.821"/><line x1="340.606" y1="211.925" x2="340.606" y2="215.717"/><line x1="338.71" y1="211.925" x2="342.503" y2="215.717"/><line x1="338.71" y1="215.717" x2="342.503" y2="211.925"/>
<line x1="339.164" y1="201.242" x2="342.956" y2="201.242"/><line x1="341.06" y1="199.345" x2="341.06" y2="203.138"/><line x1="339.164" y1="199.345" x2="342.956" y2="203.138"/><line x1="339.164" y1="203.138" x2="342.956" y2="199.345"/>
<line x1="339.617" y1="198.463" x2="343.409" y2="198.463"/><line x1="341.513" y1="196.567" x2="341.513" y2="200.359"/><line x1="339.617" y1="196.567" x2="343.409" y2="200.359"/><line x1="339.617" y1="200.359" x2="343.409" y2="196.567"/>
<line x1="340.07" y1="197.578" x2="343.862" y2="197.578"/><line x1="341.966" y1="195.682" x2="341.966" y2="199.474"/><line x1="340.07" y1="195.682" x2="343.862" y2="199.474"/><line x1="340.07" y1="199.474" x2="343.862" y2="195.682"/>
<line x1="340.523" y1="207.203" x2="344.315" y2="207.203"/><line x1="342.419" y1="205.307" x2="342.419" y2="209.099"/><line x1="340.523" y1="205.307" x2="344.315" y2="209.099"/><line x1="340.523" y1="209.099" x2="344.315" y2="205.307"/>
<line x1="340.977" y1="207.327" x2="344.769" y2="207.327"/><line x1="342.873" y1="205.431" x2="342.873" y2="209.223"/><line x1="340.977" y1="205.431" x2="344.769" y2="209.223"/><line x1="340.977" y1="209.223" x2="344.769" y2="205.431"/>
<line x1="341.43" y1="230.318" x2="345.222" y2="230.318"/><line x1="343.326" y1="228.422" x2="343.326" y2="232.214"/><line x1="341.43" y1="228.422" x2="345.222" y2="232.214"/><line x1="341.43" y1="232.214" x2="345.222" y2="228.422"/>
<line x1="341.883" y1="225.593" x2="345.675" y2="225.593"/><line x1="343.779" y1="223.697" x2="343.779" y2="227.489"/><line x1="341.883" y1="223.697" x2="345.675" y2="227.489"/><line x1="341.883" y1="227.489" x2="345.675" y2="223.697"/>
<line x1="342.336" y1="162.789" x2="346.128" y2="162.789"/><line x1="344.232" y1="160.893" x2="344.232" y2="164.685"/><line x1="342.336" y1="160.893" x2="346.128" y2="164.685"/><line x1="342.336" y1="164.685" x2="346.128" y2="160.893"/>
<line x1="342.789" y1="135.522" x2="346.582" y2="135.522"/><line x1="344.685" y1="133.626" x2="344.685" y2="137.418"/><line x1="342.789" y1="133.626" x2="346.582" y2="137.418"/><line x1="342.789" y1="137.418" x2="346.582" y2="133.626"/>
<line x1="343.243" y1="134.774" x2="347.035" y2="134.774"/><line x1="345.139" y1="132.878" x2="345.139" y2="136.67"/><line x1="343.243" y1="132.878" x2="347.035" y2="136.67"/><line x1="343.243" y1="136.67" x2="347.035" y2="132.878"/>
<line x1="343.696" y1="131.695" x2="347.488" y2="131.695"/><line x1="345.592" y1="129.799" x2="345.592" y2="133.591"/><line x1="343.696" y1="129.799" x2="347.488" y2="133.591"/><line x1="343.696" y1="133.591" x2="347.488" y2="129.799"/>
<line x1="344.149" y1="125.592" x2="347.941" y2="125.592"/><line x1="346.045" y1="123.696" x2="346.045" y2="127.488"/><line x1="344.149" y1="123.696" x2="347.941" y2="127.488"/><line x1="344.149" y1="127.488" x2="347.941" y2="123.696"/>
<line x1="344.602" y1="141.995" x2="348.394" y2="141.995"/><line x1="346.498" y1="140.099" x2="346.498" y2="143.891"/><line x1="344.602" y1="140.099" x2="348.394" y2="143.891"/><line x1="344.602" y1="143.891" x2="348.394" y2="140.099"/>
<line x1="345.056" y1="159.89" x2="348.848" y2="159.89"/><line x1="346.952" y1="157.994" x2="346.952" y2="161.786"/><line x1="345.056" y1="157.994" x2="348.848" y2="161.786"/><line x1="345.056" y1="161.786" x2="348.848" y2="157.994"/>
<line x1="345.509" y1="141.772" x2="349.301" y2="141.772"/><line x1="347.405" y1="139.876" x2="347.405" y2="143.668"/><line x1="345.509" y1="139.876" x2="349.301" y2="143.668"/><line x1="345.509" y1="143.668" x2="349.301" y2="139.876"/>
<line x1="345.962" y1="143.866" x2="349.754" y2="143.866"/><line x1="347.858" y1="141.969" x2="347.858" y2="145.762"/><line x1="345.962" y1="141.969" x2="349.754" y2="145.762"/><line x1="345.962" y1="145.762" x2="349.754" y2="141.969"/>
<line x1="346.415" y1="131.308" x2="350.207" y2="131.308"/><line x1="348.311" y1="129.412" x2="348.311" y2="133.205"/><line x1="346.415" y1="129.412" x2="350.207" y2="133.205"/><line x1="346.415" y1="133.205" x2="350.207" y2="129.412"/>
<line x1="346.868" y1="147.466" x2="350.661" y2="147.466"/><line x1="348.765" y1="145.57" x2="348.765" y2="149.362"/><line x1="346.868" y1="145.57" x2="350.661" y2="149.362"/><line x1="346.868" y1="149.362" x2="350.661" y2="145.57"/>
<line x1="347.322" y1="130.328" x2="351.114" y2="130.328"/><line x1="349.218" y1="128.432" x2="349.218" y2="132.224"/><line x1="347.322" y1="128.432" x2="351.114" y2="132.224"/><line x1="347.322" y1="132.224" x2="351.114" y2="128.432"/>
<line x1="347.775" y1="124.261" x2="351.567" y2="124.261"/><line x1="349.671" y1="122.365" x2="349.671" y2="126.157"/><line x1="347.775" y1="122.365" x2="351.567" y2="126.157"/><line x1="347.775" y1="126.157" x2="351.567" y2="122.365"/>
<line x1="348.228" y1="129.247" x2="352.02" y2="129.247"/><line x1="350.124" y1="127.351" x2="350.124" y2="131.143"/><line x1="348.228" y1="127.351" x2="352.02" y2="131.143"/><line x1="348.228" y1="131.143" x2="352.02" y2="127.351"/>
<line x1="348.681" y1="156.705" x2="352.474" y2="156.705"/><line x1="350.577" y1="154.809" x2="350.577" y2="158.601"/><line x1="348.681" y1="154.809" x2="352.474" y2="158.601"/><line x1="348.681" y1="158.601" x2="352.474" y2="154.809"/>
<line x1="349.135" y1="151.831" x2="352.927" y2="151.831"/><line x1="351.031" y1="149.935" x2="351.031" y2="153.727"/><line x1="349.135" y1="149.935" x2="352.927" y2="153.727"/><line x1="349.135" y1="153.727" x2="352.927" y2="149.935"/>
<line x1="349.588" y1="160.631" x2="353.38" y2="160.631"/><line x1="351.484" y1="158.735" x2="351.484" y2="162.527"/><line x1="349.588" y1="158.735" x2="353.38" y2="162.527"/><line x1="349.588" y1="162.527" x2="353.38" y2="158.735"/>
<line x1="350.041" y1="146.141" x2="353.833" y2="146.141"/><line x1="351.937" y1="144.245" x2="351.937" y2="148.037"/><line x1="350.041" y1="144.245" x2="353.833" y2="148.037"/><line x1="350.041" y1="148.037" x2="353.833" y2="144.245"/>
<line x1="350.494" y1="154.715" x2="354.286" y2="154.715"/><line x1="352.39" y1="152.819" x2="352.39" y2="156.611"/><line x1="350.494" y1="152.819" x2="354.286" y2="156.611"/><line x1="350.494" y1="156.611" x2="354.286" y2="152.819"/>
<line x1="350.947" y1="148.672" x2="354.74" y2="148.672"/><line x1="352.844" y1="146.775" x2="352.844" y2="150.568"/><line x1="350.947" y1="146.775" x2="354.74" y2="150.568"/><line x1="350.947" y1="150.568" x2="354.74" y2="146.775"/>
<line x1="351.401" y1="163.526" x2="355.193" y2="163.526"/><line x1="353.297" y1="161.63" x2="353.297" y2="165.422"/><line x1="351.401" y1="161.63" x2="355.193" y2="165.422"/><line x1="351.401" y1="165.422" x2="355.193" y2="161.63"/>
<line x1="351.854" y1="179.082" x2="355.646" y2="179.082"/><line x1="353.75" y1="177.186" x2="353.75" y2="180.978"/><line x1="351.854" y1="177.186" x2="355.646" y2="180.978"/><line x1="351.854" y1="180.978" x2="355.646" y2="177.186"/>
<line x1="352.307" y1="187.459" x2="356.099" y2="187.459"/><line x1="354.203" y1="185.563" x2="354.203" y2="189.355"/><line x1="352.307" y1="185.563" x2="356.099" y2="189.355"/><line x1="352.307" y1="189.355" x2="356.099" y2="185.563"/>
<line x1="352.76" y1="179.285" x2="356.553" y2="179.285"/><line x1="354.656" y1="177.389" x2="354.656" y2="181.181"/><line x1="352.76" y1="177.389" x2="356.553" y2="181.181"/><line x1="352.76" y1="181.181" x2="356.553" y2="177.389"/>
<line x1="353.214" y1="165.699" x2="357.006" y2="165.699"/><line x1="355.11" y1="163.803" x2="355.11" y2="167.595"/><line x1="353.214" y1="163.803" x2="357.006" y2="167.595"/><line x1="353.214" y1="167.595" x2="357.006" y2="163.803"/>
<line x1="353.667" y1="133.56" x2="357.459" y2="133.56"/><line x1="355.563" y1="131.664" x2="355.563" y2="135.456"/><line x1="353.667" y1="131.664" x2="357.459" y2="135.456"/><line x1="353.667" y1="135.456" x2="357.459" y2="131.664"/>
<line x1="354.12" y1="125.288" x2="357.912" y2="125.288"/><line x1="356.016" y1="123.391" x2="356.016" y2="127.184"/><line x1="354.12" y1="123.391" x2="357.912" y2="127.184"/><line x1="354.12" y1="127.184" x2="357.912" y2="123.391"/>
<line x1="354.573" y1="119.584" x2="358.365" y2="119.584"/><line x1="356.469" y1="117.688" x2="356.469" y2="121.48"/><line x1="354.573" y1="117.688" x2="358.365" y2="121.48"/><line x1="354.573" y1="121.48" x2="358.365" y2="117.688"/>
<line x1="355.027" y1="118.767" x2="358.819" y2="118.767"/><line x1="356.923" y1="116.871" x2="356.923" y2="120.663"/><line x1="355.027" y1="116.871" x2="358.819" y2="120.663"/><line x1="355.027" y1="120.663" x2="358.819" y2="116.871"/>
<line x1="355.48" y1="113.494" x2="359.272" y2="113.494"/><line x1="357.376" y1="111.598" x2="357.376" y2="115.39"/><line x1="355.48" y1="111.598" x2="359.272" y2="115.39"/><line x1="355.48" y1="115.39" x2="359.272" y2="111.598"/>
<line x1="355.933" y1="125.352" x2="359.725" y2="125.352"/><line x1="357.829" y1="123.456" x2="357.829" y2="127.248"/><line x1="355.933" y1="123.456" x2="359.725" y2="127.248"/><line x1="355.933" y1="127.248" x2="359.725" y2="123.456"/>
<line x1="356.386" y1="136.708" x2="360.178" y2="136.708"/><line x1="358.282" y1="134.812" x2="358.282" y2="138.604"/><line x1="356.386" y1="134.812" x2="360.178" y2="138.604"/><line x1="356.386" y1="138.604" x2="360.178" y2="134.812"/>
<line x1="356.839" y1="139.456" x2="360.632" y2="139.456"/><line x1="358.736" y1="137.559" x2="358.736" y2="141.352"/><line x1="356.839" y1="137.559" x2="360.632" y2="141.352"/><line x1="356.839" y1="141.352" x2="360.632" y2="137.559"/>
<line x1="357.293" y1="102.705" x2="361.085" y2="102.705"/><line x1="359.189" y1="100.809" x2="359.189" y2="104.601"/><line x1="357.293" y1="100.809" x2="361.085" y2="104.601"/><line x1="357.293" y1="104.601" x2="361.085" y2="100.809"/>
<line x1="357.746" y1="71.4774" x2="361.538" y2="71.4774"/><line x1="359.642" y1="69.5814" x2="359.642" y2="73.3735"/><line x1="357.746" y1="69.5814" x2="361.538" y2="73.3735"/><line x1="357.746" y1="73.3735" x2="361.538" y2="69.5814"/>
<line x1="358.199" y1="43.441" x2="361.991" y2="43.441"/><line x1="360.095" y1="41.5449" x2="360.095" y2="45.3371"/><line x1="358.199" y1="41.5449" x2="361.991" y2="45.3371"/><line x1="358.199" y1="45.3371" x2="361.991" y2="41.5449"/>
<line x1="358.652" y1="44.552" x2="362.444" y2="44.552"/><line x1="360.548" y1="42.6559" x2="360.548" y2="46.4481"/><line x1="358.652" y1="42.6559" x2="362.444" y2="46.4481"/><line x1="358.652" y1="46.4481" x2="362.444" y2="42.6559"/>
</g>
<path d="M170.647,353.116h 226.613" fill="none" stroke="#0000ff"/>
<path d="M283.953,372.012v -47.2396" fill="none" stroke="#ff0000"/>
<rect x="57.1929" y="330.677" width="113.386" height="41.3346" fill="white"/>
<path d="M57.1929,372.012h 113.386" fill="none" stroke="black"/>
<path d="M170.579,372.012v -41.3346" fill="none" stroke="black"/>
<path d="M170.579,330.677h -113.386" fill="none" stroke="black"/>
<path d="M57.1929,330.677v 41.3346" fill="none" stroke="black"/>
<text xml:space="preserve" x="85.3498" y="354.568" fill="black" font-size="12.0704" font-family="Helvetica">#p.e of PMTs2</text>
<path d="M61.4449,351.344h 19.8425" fill="none" stroke="black"/></svg>
