<?xml version="1.0" standalone="no"?>
<svg width="567.429" height="413.846" viewBox="0 0 567.429 413.846" xmlns="http://www.w3.org/2000/svg" shape-rendering="crispEdges">
<title>
figures/chi2_3PMTnpedata190929-01.svg
</title>
<desc>
Creator: ROOT Version 6.18/02
CreationDate: Sun Sep 29 21:09:51 2019</desc>
<defs>
</defs>
<rect x="0.5" y="0" width="566.929" height="413.346" fill="white"/>
<rect x="57.1929" y="41.3346" width="453.543" height="330.677" fill="white"/>
<rect x="57.1929" y="41.3346" width="453.543" height="330.677" fill="none" stroke="black"/>
<path d="M57.1929,372.012h 453.543" fill="none" stroke="black"/>
<path d="M93.2163,41.3346v 330.677" fill="none" stroke="black" stroke-dasharray=" 1, 2"/>
<path d="M138.539,41.3346v 330.677" fill="none" stroke="black" stroke-dasharray=" 1, 2"/>
<path d="M183.861,41.3346v 330.677" fill="none" stroke="black" stroke-dasharray=" 1, 2"/>
<path d="M229.184,41.3346v 330.677" fill="none" stroke="black" stroke-dasharray=" 1, 2"/>
<path d="M274.507,41.3346v 330.677" fill="none" stroke="black" stroke-dasharray=" 1, 2"/>
<path d="M319.829,41.3346v 330.677" fill="none" stroke="black" stroke-dasharray=" 1, 2"/>
<path d="M365.152,41.3346v 330.677" fill="none" stroke="black" stroke-dasharray=" 1, 2"/>
<path d="M410.475,41.3346v 330.677" fill="none" stroke="black" stroke-dasharray=" 1, 2"/>
<path d="M455.797,41.3346v 330.677" fill="none" stroke="black" stroke-dasharray=" 1, 2"/>
<path d="M501.12,41.3346v 330.677" fill="none" stroke="black" stroke-dasharray=" 1, 2"/>
<path d="M93.2163,41.3346v 330.677" fill="none" stroke="black" stroke-dasharray=" 1, 2"/>
<path d="M501.12,41.3346v 330.677" fill="none" stroke="black" stroke-dasharray=" 1, 2"/>
<path d="M57.1929,372.012v -330.677" fill="none" stroke="black"/>
<path d="M510.736,369.524h -453.543" fill="none" stroke="black" stroke-dasharray=" 1, 2"/>
<path d="M510.736,306.538h -453.543" fill="none" stroke="black" stroke-dasharray=" 1, 2"/>
<path d="M510.736,243.551h -453.543" fill="none" stroke="black" stroke-dasharray=" 1, 2"/>
<path d="M510.736,180.565h -453.543" fill="none" stroke="black" stroke-dasharray=" 1, 2"/>
<path d="M510.736,117.579h -453.543" fill="none" stroke="black" stroke-dasharray=" 1, 2"/>
<path d="M510.736,54.5931h -453.543" fill="none" stroke="black" stroke-dasharray=" 1, 2"/>
<path d="M510.736,369.524h -453.543" fill="none" stroke="black" stroke-dasharray=" 1, 2"/>
<path d="M510.736,54.5931h -453.543" fill="none" stroke="black" stroke-dasharray=" 1, 2"/>
<path d="M57.1929,372.012h 453.543" fill="none" stroke="black"/>
<path d="M93.2163,362.091v 9.92031" fill="none" stroke="black"/>
<path d="M104.547,367.052v 4.96016" fill="none" stroke="black"/>
<path d="M115.878,367.052v 4.96016" fill="none" stroke="black"/>
<path d="M127.208,367.052v 4.96016" fill="none" stroke="black"/>
<path d="M138.539,362.091v 9.92031" fill="none" stroke="black"/>
<path d="M149.87,367.052v 4.96016" fill="none" stroke="black"/>
<path d="M161.2,367.052v 4.96016" fill="none" stroke="black"/>
<path d="M172.531,367.052v 4.96016" fill="none" stroke="black"/>
<path d="M183.861,362.091v 9.92031" fill="none" stroke="black"/>
<path d="M195.192,367.052v 4.96016" fill="none" stroke="black"/>
<path d="M206.523,367.052v 4.96016" fill="none" stroke="black"/>
<path d="M217.853,367.052v 4.96016" fill="none" stroke="black"/>
<path d="M229.184,362.091v 9.92031" fill="none" stroke="black"/>
<path d="M240.515,367.052v 4.96016" fill="none" stroke="black"/>
<path d="M251.845,367.052v 4.96016" fill="none" stroke="black"/>
<path d="M263.176,367.052v 4.96016" fill="none" stroke="black"/>
<path d="M274.507,362.091v 9.92031" fill="none" stroke="black"/>
<path d="M285.837,367.052v 4.96016" fill="none" stroke="black"/>
<path d="M297.168,367.052v 4.96016" fill="none" stroke="black"/>
<path d="M308.499,367.052v 4.96016" fill="none" stroke="black"/>
<path d="M319.829,362.091v 9.92031" fill="none" stroke="black"/>
<path d="M331.16,367.052v 4.96016" fill="none" stroke="black"/>
<path d="M342.491,367.052v 4.96016" fill="none" stroke="black"/>
<path d="M353.821,367.052v 4.96016" fill="none" stroke="black"/>
<path d="M365.152,362.091v 9.92031" fill="none" stroke="black"/>
<path d="M376.483,367.052v 4.96016" fill="none" stroke="black"/>
<path d="M387.813,367.052v 4.96016" fill="none" stroke="black"/>
<path d="M399.144,367.052v 4.96016" fill="none" stroke="black"/>
<path d="M410.475,362.091v 9.92031" fill="none" stroke="black"/>
<path d="M421.805,367.052v 4.96016" fill="none" stroke="black"/>
<path d="M433.136,367.052v 4.96016" fill="none" stroke="black"/>
<path d="M444.466,367.052v 4.96016" fill="none" stroke="black"/>
<path d="M455.797,362.091v 9.92031" fill="none" stroke="black"/>
<path d="M467.128,367.052v 4.96016" fill="none" stroke="black"/>
<path d="M478.458,367.052v 4.96016" fill="none" stroke="black"/>
<path d="M489.789,367.052v 4.96016" fill="none" stroke="black"/>
<path d="M501.12,362.091v 9.92031" fill="none" stroke="black"/>
<path d="M93.2163,362.091v 9.92031" fill="none" stroke="black"/>
<path d="M81.8856,367.052v 4.96016" fill="none" stroke="black"/>
<path d="M70.555,367.052v 4.96016" fill="none" stroke="black"/>
<path d="M59.2243,367.052v 4.96016" fill="none" stroke="black"/>
<path d="M501.12,362.091v 9.92031" fill="none" stroke="black"/>
<text xml:space="preserve" x="80.1355" y="385.379" fill="black" font-size="13.7726" font-family="Helvetica">0.78</text>
<text xml:space="preserve" x="129.434" y="385.379" fill="black" font-size="13.7726" font-family="Helvetica">0.8</text>
<text xml:space="preserve" x="170.674" y="385.379" fill="black" font-size="13.7726" font-family="Helvetica">0.82</text>
<text xml:space="preserve" x="216.18" y="385.379" fill="black" font-size="13.7726" font-family="Helvetica">0.84</text>
<text xml:space="preserve" x="261.686" y="385.379" fill="black" font-size="13.7726" font-family="Helvetica">0.86</text>
<text xml:space="preserve" x="306.718" y="385.379" fill="black" font-size="13.7726" font-family="Helvetica">0.88</text>
<text xml:space="preserve" x="356.016" y="385.379" fill="black" font-size="13.7726" font-family="Helvetica">0.9</text>
<text xml:space="preserve" x="397.256" y="385.379" fill="black" font-size="13.7726" font-family="Helvetica">0.92</text>
<text xml:space="preserve" x="442.762" y="385.379" fill="black" font-size="13.7726" font-family="Helvetica">0.94</text>
<text xml:space="preserve" x="488.268" y="385.379" fill="black" font-size="13.7726" font-family="Helvetica">0.96</text>
<text xml:space="preserve" x="413.372" y="400.074" fill="black" font-size="13.7726" font-family="Helvetica">calibration factor</text>
<path d="M57.1929,372.012v -330.677" fill="none" stroke="black"/>
<path d="M70.7992,369.524h -13.6063" fill="none" stroke="black"/>
<path d="M63.9961,353.777h -6.80315" fill="none" stroke="black"/>
<path d="M63.9961,338.031h -6.80315" fill="none" stroke="black"/>
<path d="M63.9961,322.284h -6.80315" fill="none" stroke="black"/>
<path d="M70.7992,306.538h -13.6063" fill="none" stroke="black"/>
<path d="M63.9961,290.791h -6.80315" fill="none" stroke="black"/>
<path d="M63.9961,275.044h -6.80315" fill="none" stroke="black"/>
<path d="M63.9961,259.298h -6.80315" fill="none" stroke="black"/>
<path d="M70.7992,243.551h -13.6063" fill="none" stroke="black"/>
<path d="M63.9961,227.805h -6.80315" fill="none" stroke="black"/>
<path d="M63.9961,212.058h -6.80315" fill="none" stroke="black"/>
<path d="M63.9961,196.312h -6.80315" fill="none" stroke="black"/>
<path d="M70.7992,180.565h -13.6063" fill="none" stroke="black"/>
<path d="M63.9961,164.819h -6.80315" fill="none" stroke="black"/>
<path d="M63.9961,149.072h -6.80315" fill="none" stroke="black"/>
<path d="M63.9961,133.326h -6.80315" fill="none" stroke="black"/>
<path d="M70.7992,117.579h -13.6063" fill="none" stroke="black"/>
<path d="M63.9961,101.833h -6.80315" fill="none" stroke="black"/>
<path d="M63.9961,86.0862h -6.80315" fill="none" stroke="black"/>
<path d="M63.9961,70.3396h -6.80315" fill="none" stroke="black"/>
<path d="M70.7992,54.5931h -13.6063" fill="none" stroke="black"/>
<path d="M70.7992,369.524h -13.6063" fill="none" stroke="black"/>
<path d="M70.7992,54.5931h -13.6063" fill="none" stroke="black"/>
<text xml:space="preserve" x="25.1491" y="374.003" fill="black" font-size="13.7726" font-family="Helvetica">5020</text>
<text xml:space="preserve" x="25.1491" y="310.958" fill="black" font-size="13.7726" font-family="Helvetica">5040</text>
<text xml:space="preserve" x="25.1491" y="247.913" fill="black" font-size="13.7726" font-family="Helvetica">5060</text>
<text xml:space="preserve" x="25.1491" y="184.868" fill="black" font-size="13.7726" font-family="Helvetica">5080</text>
<text xml:space="preserve" x="25.1491" y="122.297" fill="black" font-size="13.7726" font-family="Helvetica">5100</text>
<text xml:space="preserve" x="25.1491" y="59.2526" fill="black" font-size="13.7726" font-family="Helvetica">5120</text>
<g transform="rotate(-90,8.08434,45.98)">
<text xml:space="preserve" x="8.08434" y="45.98" fill="black" font-size="9.34839" font-family="Helvetica">2</text>
</g>
<g transform="rotate(-90,12.3505,50.2462)">
<text xml:space="preserve" x="12.3505" y="50.2462" fill="black" font-size="13.7726" font-family="Helvetica"> </text>
</g>
<g transform="rotate(-90,12.3505,57.3565)">
<text xml:space="preserve" x="12.3505" y="57.3565" fill="black" font-size="13.7726" font-family="Times">&#0967;</text>
</g>
<g stroke="black" stroke-width="1" fill="none">
<line x1="200.548" y1="43.8654" x2="204.34" y2="43.8654"/><line x1="202.444" y1="41.9694" x2="202.444" y2="45.7615"/><line x1="200.548" y1="41.9694" x2="204.34" y2="45.7615"/><line x1="200.548" y1="45.7615" x2="204.34" y2="41.9694"/>
<line x1="201.001" y1="70.8325" x2="204.793" y2="70.8325"/><line x1="202.897" y1="68.9364" x2="202.897" y2="72.7286"/><line x1="201.001" y1="68.9364" x2="204.793" y2="72.7286"/><line x1="201.001" y1="72.7286" x2="204.793" y2="68.9364"/>
<line x1="201.454" y1="75.1635" x2="205.246" y2="75.1635"/><line x1="203.35" y1="73.2674" x2="203.35" y2="77.0596"/><line x1="201.454" y1="73.2674" x2="205.246" y2="77.0596"/><line x1="201.454" y1="77.0596" x2="205.246" y2="73.2674"/>
<line x1="201.907" y1="89.003" x2="205.7" y2="89.003"/><line x1="203.803" y1="87.1069" x2="203.803" y2="90.899"/><line x1="201.907" y1="87.1069" x2="205.7" y2="90.899"/><line x1="201.907" y1="90.899" x2="205.7" y2="87.1069"/>
<line x1="202.361" y1="106.781" x2="206.153" y2="106.781"/><line x1="204.257" y1="104.884" x2="204.257" y2="108.677"/><line x1="202.361" y1="104.884" x2="206.153" y2="108.677"/><line x1="202.361" y1="108.677" x2="206.153" y2="104.884"/>
<line x1="202.814" y1="114.116" x2="206.606" y2="114.116"/><line x1="204.71" y1="112.219" x2="204.71" y2="116.012"/><line x1="202.814" y1="112.219" x2="206.606" y2="116.012"/><line x1="202.814" y1="116.012" x2="206.606" y2="112.219"/>
<line x1="203.267" y1="99.2901" x2="207.059" y2="99.2901"/><line x1="205.163" y1="97.394" x2="205.163" y2="101.186"/><line x1="203.267" y1="97.394" x2="207.059" y2="101.186"/><line x1="203.267" y1="101.186" x2="207.059" y2="97.394"/>
<line x1="203.72" y1="104.183" x2="207.512" y2="104.183"/><line x1="205.616" y1="102.287" x2="205.616" y2="106.079"/><line x1="203.72" y1="102.287" x2="207.512" y2="106.079"/><line x1="203.72" y1="106.079" x2="207.512" y2="102.287"/>
<line x1="204.173" y1="119.237" x2="207.966" y2="119.237"/><line x1="206.07" y1="117.341" x2="206.07" y2="121.133"/><line x1="204.173" y1="117.341" x2="207.966" y2="121.133"/><line x1="204.173" y1="121.133" x2="207.966" y2="117.341"/>
<line x1="204.627" y1="123.071" x2="208.419" y2="123.071"/><line x1="206.523" y1="121.175" x2="206.523" y2="124.967"/><line x1="204.627" y1="121.175" x2="208.419" y2="124.967"/><line x1="204.627" y1="124.967" x2="208.419" y2="121.175"/>
<line x1="205.08" y1="132.141" x2="208.872" y2="132.141"/><line x1="206.976" y1="130.245" x2="206.976" y2="134.037"/><line x1="205.08" y1="130.245" x2="208.872" y2="134.037"/><line x1="205.08" y1="134.037" x2="208.872" y2="130.245"/>
<line x1="205.533" y1="133.724" x2="209.325" y2="133.724"/><line x1="207.429" y1="131.828" x2="207.429" y2="135.62"/><line x1="205.533" y1="131.828" x2="209.325" y2="135.62"/><line x1="205.533" y1="135.62" x2="209.325" y2="131.828"/>
<line x1="205.986" y1="155.86" x2="209.779" y2="155.86"/><line x1="207.882" y1="153.963" x2="207.882" y2="157.756"/><line x1="205.986" y1="153.963" x2="209.779" y2="157.756"/><line x1="205.986" y1="157.756" x2="209.779" y2="153.963"/>
<line x1="206.44" y1="152.846" x2="210.232" y2="152.846"/><line x1="208.336" y1="150.95" x2="208.336" y2="154.742"/><line x1="206.44" y1="150.95" x2="210.232" y2="154.742"/><line x1="206.44" y1="154.742" x2="210.232" y2="150.95"/>
<line x1="206.893" y1="150.498" x2="210.685" y2="150.498"/><line x1="208.789" y1="148.602" x2="208.789" y2="152.394"/><line x1="206.893" y1="148.602" x2="210.685" y2="152.394"/><line x1="206.893" y1="152.394" x2="210.685" y2="148.602"/>
<line x1="207.346" y1="127.718" x2="211.138" y2="127.718"/><line x1="209.242" y1="125.822" x2="209.242" y2="129.614"/><line x1="207.346" y1="125.822" x2="211.138" y2="129.614"/><line x1="207.346" y1="129.614" x2="211.138" y2="125.822"/>
<line x1="207.799" y1="116.249" x2="211.591" y2="116.249"/><line x1="209.695" y1="114.352" x2="209.695" y2="118.145"/><line x1="207.799" y1="114.352" x2="211.591" y2="118.145"/><line x1="207.799" y1="118.145" x2="211.591" y2="114.352"/>
<line x1="208.253" y1="104.564" x2="212.045" y2="104.564"/><line x1="210.149" y1="102.668" x2="210.149" y2="106.46"/><line x1="208.253" y1="102.668" x2="212.045" y2="106.46"/><line x1="208.253" y1="106.46" x2="212.045" y2="102.668"/>
<line x1="208.706" y1="138.778" x2="212.498" y2="138.778"/><line x1="210.602" y1="136.882" x2="210.602" y2="140.674"/><line x1="208.706" y1="136.882" x2="212.498" y2="140.674"/><line x1="208.706" y1="140.674" x2="212.498" y2="136.882"/>
<line x1="209.159" y1="152.126" x2="212.951" y2="152.126"/><line x1="211.055" y1="150.23" x2="211.055" y2="154.022"/><line x1="209.159" y1="150.23" x2="212.951" y2="154.022"/><line x1="209.159" y1="154.022" x2="212.951" y2="150.23"/>
<line x1="209.612" y1="145.525" x2="213.404" y2="145.525"/><line x1="211.508" y1="143.629" x2="211.508" y2="147.421"/><line x1="209.612" y1="143.629" x2="213.404" y2="147.421"/><line x1="209.612" y1="147.421" x2="213.404" y2="143.629"/>
<line x1="210.065" y1="137.069" x2="213.858" y2="137.069"/><line x1="211.962" y1="135.173" x2="211.962" y2="138.965"/><line x1="210.065" y1="135.173" x2="213.858" y2="138.965"/><line x1="210.065" y1="138.965" x2="213.858" y2="135.173"/>
<line x1="210.519" y1="137.36" x2="214.311" y2="137.36"/><line x1="212.415" y1="135.464" x2="212.415" y2="139.256"/><line x1="210.519" y1="135.464" x2="214.311" y2="139.256"/><line x1="210.519" y1="139.256" x2="214.311" y2="135.464"/>
<line x1="210.972" y1="135.706" x2="214.764" y2="135.706"/><line x1="212.868" y1="133.81" x2="212.868" y2="137.602"/><line x1="210.972" y1="133.81" x2="214.764" y2="137.602"/><line x1="210.972" y1="137.602" x2="214.764" y2="133.81"/>
<line x1="211.425" y1="143.075" x2="215.217" y2="143.075"/><line x1="213.321" y1="141.179" x2="213.321" y2="144.971"/><line x1="211.425" y1="141.179" x2="215.217" y2="144.971"/><line x1="211.425" y1="144.971" x2="215.217" y2="141.179"/>
<line x1="211.878" y1="136.91" x2="215.67" y2="136.91"/><line x1="213.774" y1="135.014" x2="213.774" y2="138.806"/><line x1="211.878" y1="135.014" x2="215.67" y2="138.806"/><line x1="211.878" y1="138.806" x2="215.67" y2="135.014"/>
<line x1="212.332" y1="123.273" x2="216.124" y2="123.273"/><line x1="214.228" y1="121.377" x2="214.228" y2="125.17"/><line x1="212.332" y1="121.377" x2="216.124" y2="125.17"/><line x1="212.332" y1="125.17" x2="216.124" y2="121.377"/>
<line x1="212.785" y1="120.469" x2="216.577" y2="120.469"/><line x1="214.681" y1="118.573" x2="214.681" y2="122.366"/><line x1="212.785" y1="118.573" x2="216.577" y2="122.366"/><line x1="212.785" y1="122.366" x2="216.577" y2="118.573"/>
<line x1="213.238" y1="122.433" x2="217.03" y2="122.433"/><line x1="215.134" y1="120.537" x2="215.134" y2="124.329"/><line x1="213.238" y1="120.537" x2="217.03" y2="124.329"/><line x1="213.238" y1="124.329" x2="217.03" y2="120.537"/>
<line x1="213.691" y1="148.349" x2="217.483" y2="148.349"/><line x1="215.587" y1="146.453" x2="215.587" y2="150.245"/><line x1="213.691" y1="146.453" x2="217.483" y2="150.245"/><line x1="213.691" y1="150.245" x2="217.483" y2="146.453"/>
<line x1="214.144" y1="164.218" x2="217.937" y2="164.218"/><line x1="216.041" y1="162.322" x2="216.041" y2="166.114"/><line x1="214.144" y1="162.322" x2="217.937" y2="166.114"/><line x1="214.144" y1="166.114" x2="217.937" y2="162.322"/>
<line x1="214.598" y1="175.737" x2="218.39" y2="175.737"/><line x1="216.494" y1="173.841" x2="216.494" y2="177.633"/><line x1="214.598" y1="173.841" x2="218.39" y2="177.633"/><line x1="214.598" y1="177.633" x2="218.39" y2="173.841"/>
<line x1="215.051" y1="167.492" x2="218.843" y2="167.492"/><line x1="216.947" y1="165.596" x2="216.947" y2="169.388"/><line x1="215.051" y1="165.596" x2="218.843" y2="169.388"/><line x1="215.051" y1="169.388" x2="218.843" y2="165.596"/>
<line x1="215.504" y1="169.132" x2="219.296" y2="169.132"/><line x1="217.4" y1="167.236" x2="217.4" y2="171.028"/><line x1="215.504" y1="167.236" x2="219.296" y2="171.028"/><line x1="215.504" y1="171.028" x2="219.296" y2="167.236"/>
<line x1="215.957" y1="175.201" x2="219.75" y2="175.201"/><line x1="217.853" y1="173.305" x2="217.853" y2="177.097"/><line x1="215.957" y1="173.305" x2="219.75" y2="177.097"/><line x1="215.957" y1="177.097" x2="219.75" y2="173.305"/>
<line x1="216.411" y1="152.737" x2="220.203" y2="152.737"/><line x1="218.307" y1="150.841" x2="218.307" y2="154.633"/><line x1="216.411" y1="150.841" x2="220.203" y2="154.633"/><line x1="216.411" y1="154.633" x2="220.203" y2="150.841"/>
<line x1="216.864" y1="154.623" x2="220.656" y2="154.623"/><line x1="218.76" y1="152.727" x2="218.76" y2="156.519"/><line x1="216.864" y1="152.727" x2="220.656" y2="156.519"/><line x1="216.864" y1="156.519" x2="220.656" y2="152.727"/>
<line x1="217.317" y1="151.933" x2="221.109" y2="151.933"/><line x1="219.213" y1="150.037" x2="219.213" y2="153.829"/><line x1="217.317" y1="150.037" x2="221.109" y2="153.829"/><line x1="217.317" y1="153.829" x2="221.109" y2="150.037"/>
<line x1="217.77" y1="162.241" x2="221.562" y2="162.241"/><line x1="219.666" y1="160.345" x2="219.666" y2="164.137"/><line x1="217.77" y1="160.345" x2="221.562" y2="164.137"/><line x1="217.77" y1="164.137" x2="221.562" y2="160.345"/>
<line x1="218.223" y1="168.73" x2="222.016" y2="168.73"/><line x1="220.12" y1="166.834" x2="220.12" y2="170.627"/><line x1="218.223" y1="166.834" x2="222.016" y2="170.627"/><line x1="218.223" y1="170.627" x2="222.016" y2="166.834"/>
<line x1="218.677" y1="164.205" x2="222.469" y2="164.205"/><line x1="220.573" y1="162.309" x2="220.573" y2="166.101"/><line x1="218.677" y1="162.309" x2="222.469" y2="166.101"/><line x1="218.677" y1="166.101" x2="222.469" y2="162.309"/>
<line x1="219.13" y1="181.967" x2="222.922" y2="181.967"/><line x1="221.026" y1="180.07" x2="221.026" y2="183.863"/><line x1="219.13" y1="180.07" x2="222.922" y2="183.863"/><line x1="219.13" y1="183.863" x2="222.922" y2="180.07"/>
<line x1="219.583" y1="177.638" x2="223.375" y2="177.638"/><line x1="221.479" y1="175.742" x2="221.479" y2="179.534"/><line x1="219.583" y1="175.742" x2="223.375" y2="179.534"/><line x1="219.583" y1="179.534" x2="223.375" y2="175.742"/>
<line x1="220.036" y1="200.718" x2="223.829" y2="200.718"/><line x1="221.932" y1="198.822" x2="221.932" y2="202.614"/><line x1="220.036" y1="198.822" x2="223.829" y2="202.614"/><line x1="220.036" y1="202.614" x2="223.829" y2="198.822"/>
<line x1="220.49" y1="199.621" x2="224.282" y2="199.621"/><line x1="222.386" y1="197.725" x2="222.386" y2="201.517"/><line x1="220.49" y1="197.725" x2="224.282" y2="201.517"/><line x1="220.49" y1="201.517" x2="224.282" y2="197.725"/>
<line x1="220.943" y1="207.816" x2="224.735" y2="207.816"/><line x1="222.839" y1="205.92" x2="222.839" y2="209.712"/><line x1="220.943" y1="205.92" x2="224.735" y2="209.712"/><line x1="220.943" y1="209.712" x2="224.735" y2="205.92"/>
<line x1="221.396" y1="210.275" x2="225.188" y2="210.275"/><line x1="223.292" y1="208.379" x2="223.292" y2="212.171"/><line x1="221.396" y1="208.379" x2="225.188" y2="212.171"/><line x1="221.396" y1="212.171" x2="225.188" y2="208.379"/>
<line x1="221.849" y1="208.179" x2="225.641" y2="208.179"/><line x1="223.745" y1="206.283" x2="223.745" y2="210.075"/><line x1="221.849" y1="206.283" x2="225.641" y2="210.075"/><line x1="221.849" y1="210.075" x2="225.641" y2="206.283"/>
<line x1="222.303" y1="199.144" x2="226.095" y2="199.144"/><line x1="224.199" y1="197.247" x2="224.199" y2="201.04"/><line x1="222.303" y1="197.247" x2="226.095" y2="201.04"/><line x1="222.303" y1="201.04" x2="226.095" y2="197.247"/>
<line x1="222.756" y1="201.74" x2="226.548" y2="201.74"/><line x1="224.652" y1="199.844" x2="224.652" y2="203.636"/><line x1="222.756" y1="199.844" x2="226.548" y2="203.636"/><line x1="222.756" y1="203.636" x2="226.548" y2="199.844"/>
<line x1="223.209" y1="216.078" x2="227.001" y2="216.078"/><line x1="225.105" y1="214.182" x2="225.105" y2="217.974"/><line x1="223.209" y1="214.182" x2="227.001" y2="217.974"/><line x1="223.209" y1="217.974" x2="227.001" y2="214.182"/>
<line x1="223.662" y1="221.349" x2="227.454" y2="221.349"/><line x1="225.558" y1="219.453" x2="225.558" y2="223.245"/><line x1="223.662" y1="219.453" x2="227.454" y2="223.245"/><line x1="223.662" y1="223.245" x2="227.454" y2="219.453"/>
<line x1="224.115" y1="238.719" x2="227.908" y2="238.719"/><line x1="226.012" y1="236.823" x2="226.012" y2="240.616"/><line x1="224.115" y1="236.823" x2="227.908" y2="240.616"/><line x1="224.115" y1="240.616" x2="227.908" y2="236.823"/>
<line x1="224.569" y1="242.797" x2="228.361" y2="242.797"/><line x1="226.465" y1="240.901" x2="226.465" y2="244.694"/><line x1="224.569" y1="240.901" x2="228.361" y2="244.694"/><line x1="224.569" y1="244.694" x2="228.361" y2="240.901"/>
<line x1="225.022" y1="250.314" x2="228.814" y2="250.314"/><line x1="226.918" y1="248.418" x2="226.918" y2="252.21"/><line x1="225.022" y1="248.418" x2="228.814" y2="252.21"/><line x1="225.022" y1="252.21" x2="228.814" y2="248.418"/>
<line x1="225.475" y1="261.762" x2="229.267" y2="261.762"/><line x1="227.371" y1="259.866" x2="227.371" y2="263.658"/><line x1="225.475" y1="259.866" x2="229.267" y2="263.658"/><line x1="225.475" y1="263.658" x2="229.267" y2="259.866"/>
<line x1="225.928" y1="253.864" x2="229.721" y2="253.864"/><line x1="227.824" y1="251.968" x2="227.824" y2="255.76"/><line x1="225.928" y1="251.968" x2="229.721" y2="255.76"/><line x1="225.928" y1="255.76" x2="229.721" y2="251.968"/>
<line x1="226.382" y1="245.418" x2="230.174" y2="245.418"/><line x1="228.278" y1="243.521" x2="228.278" y2="247.314"/><line x1="226.382" y1="243.521" x2="230.174" y2="247.314"/><line x1="226.382" y1="247.314" x2="230.174" y2="243.521"/>
<line x1="226.835" y1="251.608" x2="230.627" y2="251.608"/><line x1="228.731" y1="249.712" x2="228.731" y2="253.504"/><line x1="226.835" y1="249.712" x2="230.627" y2="253.504"/><line x1="226.835" y1="253.504" x2="230.627" y2="249.712"/>
<line x1="227.288" y1="249.525" x2="231.08" y2="249.525"/><line x1="229.184" y1="247.629" x2="229.184" y2="251.421"/><line x1="227.288" y1="247.629" x2="231.08" y2="251.421"/><line x1="227.288" y1="251.421" x2="231.08" y2="247.629"/>
<line x1="227.741" y1="246.926" x2="231.533" y2="246.926"/><line x1="229.637" y1="245.029" x2="229.637" y2="248.822"/><line x1="227.741" y1="245.029" x2="231.533" y2="248.822"/><line x1="227.741" y1="248.822" x2="231.533" y2="245.029"/>
<line x1="228.194" y1="240.032" x2="231.987" y2="240.032"/><line x1="230.091" y1="238.136" x2="230.091" y2="241.928"/><line x1="228.194" y1="238.136" x2="231.987" y2="241.928"/><line x1="228.194" y1="241.928" x2="231.987" y2="238.136"/>
<line x1="228.648" y1="232.722" x2="232.44" y2="232.722"/><line x1="230.544" y1="230.826" x2="230.544" y2="234.618"/><line x1="228.648" y1="230.826" x2="232.44" y2="234.618"/><line x1="228.648" y1="234.618" x2="232.44" y2="230.826"/>
<line x1="229.101" y1="223.256" x2="232.893" y2="223.256"/><line x1="230.997" y1="221.36" x2="230.997" y2="225.152"/><line x1="229.101" y1="221.36" x2="232.893" y2="225.152"/><line x1="229.101" y1="225.152" x2="232.893" y2="221.36"/>
<line x1="229.554" y1="239.304" x2="233.346" y2="239.304"/><line x1="231.45" y1="237.408" x2="231.45" y2="241.2"/><line x1="229.554" y1="237.408" x2="233.346" y2="241.2"/><line x1="229.554" y1="241.2" x2="233.346" y2="237.408"/>
<line x1="230.007" y1="249.975" x2="233.8" y2="249.975"/><line x1="231.903" y1="248.079" x2="231.903" y2="251.872"/><line x1="230.007" y1="248.079" x2="233.8" y2="251.872"/><line x1="230.007" y1="251.872" x2="233.8" y2="248.079"/>
<line x1="230.461" y1="261.945" x2="234.253" y2="261.945"/><line x1="232.357" y1="260.049" x2="232.357" y2="263.841"/><line x1="230.461" y1="260.049" x2="234.253" y2="263.841"/><line x1="230.461" y1="263.841" x2="234.253" y2="260.049"/>
<line x1="230.914" y1="250.274" x2="234.706" y2="250.274"/><line x1="232.81" y1="248.378" x2="232.81" y2="252.17"/><line x1="230.914" y1="248.378" x2="234.706" y2="252.17"/><line x1="230.914" y1="252.17" x2="234.706" y2="248.378"/>
<line x1="231.367" y1="251.047" x2="235.159" y2="251.047"/><line x1="233.263" y1="249.151" x2="233.263" y2="252.944"/><line x1="231.367" y1="249.151" x2="235.159" y2="252.944"/><line x1="231.367" y1="252.944" x2="235.159" y2="249.151"/>
<line x1="231.82" y1="272.268" x2="235.612" y2="272.268"/><line x1="233.716" y1="270.372" x2="233.716" y2="274.164"/><line x1="231.82" y1="270.372" x2="235.612" y2="274.164"/><line x1="231.82" y1="274.164" x2="235.612" y2="270.372"/>
<line x1="232.273" y1="272.865" x2="236.066" y2="272.865"/><line x1="234.17" y1="270.969" x2="234.17" y2="274.761"/><line x1="232.273" y1="270.969" x2="236.066" y2="274.761"/><line x1="232.273" y1="274.761" x2="236.066" y2="270.969"/>
<line x1="232.727" y1="289.165" x2="236.519" y2="289.165"/><line x1="234.623" y1="287.269" x2="234.623" y2="291.061"/><line x1="232.727" y1="287.269" x2="236.519" y2="291.061"/><line x1="232.727" y1="291.061" x2="236.519" y2="287.269"/>
<line x1="233.18" y1="278.779" x2="236.972" y2="278.779"/><line x1="235.076" y1="276.883" x2="235.076" y2="280.675"/><line x1="233.18" y1="276.883" x2="236.972" y2="280.675"/><line x1="233.18" y1="280.675" x2="236.972" y2="276.883"/>
<line x1="233.633" y1="283.687" x2="237.425" y2="283.687"/><line x1="235.529" y1="281.79" x2="235.529" y2="285.583"/><line x1="233.633" y1="281.79" x2="237.425" y2="285.583"/><line x1="233.633" y1="285.583" x2="237.425" y2="281.79"/>
<line x1="234.086" y1="289.329" x2="237.879" y2="289.329"/><line x1="235.982" y1="287.433" x2="235.982" y2="291.225"/><line x1="234.086" y1="287.433" x2="237.879" y2="291.225"/><line x1="234.086" y1="291.225" x2="237.879" y2="287.433"/>
<line x1="234.54" y1="290.948" x2="238.332" y2="290.948"/><line x1="236.436" y1="289.052" x2="236.436" y2="292.844"/><line x1="234.54" y1="289.052" x2="238.332" y2="292.844"/><line x1="234.54" y1="292.844" x2="238.332" y2="289.052"/>
<line x1="234.993" y1="289.319" x2="238.785" y2="289.319"/><line x1="236.889" y1="287.422" x2="236.889" y2="291.215"/><line x1="234.993" y1="287.422" x2="238.785" y2="291.215"/><line x1="234.993" y1="291.215" x2="238.785" y2="287.422"/>
<line x1="235.446" y1="283.782" x2="239.238" y2="283.782"/><line x1="237.342" y1="281.886" x2="237.342" y2="285.679"/><line x1="235.446" y1="281.886" x2="239.238" y2="285.679"/><line x1="235.446" y1="285.679" x2="239.238" y2="281.886"/>
<line x1="235.899" y1="279.628" x2="239.691" y2="279.628"/><line x1="237.795" y1="277.732" x2="237.795" y2="281.524"/><line x1="235.899" y1="277.732" x2="239.691" y2="281.524"/><line x1="235.899" y1="281.524" x2="239.691" y2="277.732"/>
<line x1="236.353" y1="298.316" x2="240.145" y2="298.316"/><line x1="238.249" y1="296.42" x2="238.249" y2="300.212"/><line x1="236.353" y1="296.42" x2="240.145" y2="300.212"/><line x1="236.353" y1="300.212" x2="240.145" y2="296.42"/>
<line x1="236.806" y1="305.366" x2="240.598" y2="305.366"/><line x1="238.702" y1="303.47" x2="238.702" y2="307.262"/><line x1="236.806" y1="303.47" x2="240.598" y2="307.262"/><line x1="236.806" y1="307.262" x2="240.598" y2="303.47"/>
<line x1="237.259" y1="312.298" x2="241.051" y2="312.298"/><line x1="239.155" y1="310.402" x2="239.155" y2="314.194"/><line x1="237.259" y1="310.402" x2="241.051" y2="314.194"/><line x1="237.259" y1="314.194" x2="241.051" y2="310.402"/>
<line x1="237.712" y1="319.361" x2="241.504" y2="319.361"/><line x1="239.608" y1="317.465" x2="239.608" y2="321.257"/><line x1="237.712" y1="317.465" x2="241.504" y2="321.257"/><line x1="237.712" y1="321.257" x2="241.504" y2="317.465"/>
<line x1="238.165" y1="322.467" x2="241.958" y2="322.467"/><line x1="240.062" y1="320.571" x2="240.062" y2="324.364"/><line x1="238.165" y1="320.571" x2="241.958" y2="324.364"/><line x1="238.165" y1="324.364" x2="241.958" y2="320.571"/>
<line x1="238.619" y1="313.963" x2="242.411" y2="313.963"/><line x1="240.515" y1="312.067" x2="240.515" y2="315.859"/><line x1="238.619" y1="312.067" x2="242.411" y2="315.859"/><line x1="238.619" y1="315.859" x2="242.411" y2="312.067"/>
<line x1="239.072" y1="326.764" x2="242.864" y2="326.764"/><line x1="240.968" y1="324.868" x2="240.968" y2="328.66"/><line x1="239.072" y1="324.868" x2="242.864" y2="328.66"/><line x1="239.072" y1="328.66" x2="242.864" y2="324.868"/>
<line x1="239.525" y1="332.646" x2="243.317" y2="332.646"/><line x1="241.421" y1="330.749" x2="241.421" y2="334.542"/><line x1="239.525" y1="330.749" x2="243.317" y2="334.542"/><line x1="239.525" y1="334.542" x2="243.317" y2="330.749"/>
<line x1="239.978" y1="336.398" x2="243.771" y2="336.398"/><line x1="241.874" y1="334.502" x2="241.874" y2="338.294"/><line x1="239.978" y1="334.502" x2="243.771" y2="338.294"/><line x1="239.978" y1="338.294" x2="243.771" y2="334.502"/>
<line x1="240.432" y1="319.233" x2="244.224" y2="319.233"/><line x1="242.328" y1="317.337" x2="242.328" y2="321.129"/><line x1="240.432" y1="317.337" x2="244.224" y2="321.129"/><line x1="240.432" y1="321.129" x2="244.224" y2="317.337"/>
<line x1="240.885" y1="304.059" x2="244.677" y2="304.059"/><line x1="242.781" y1="302.163" x2="242.781" y2="305.955"/><line x1="240.885" y1="302.163" x2="244.677" y2="305.955"/><line x1="240.885" y1="305.955" x2="244.677" y2="302.163"/>
<line x1="241.338" y1="316.636" x2="245.13" y2="316.636"/><line x1="243.234" y1="314.739" x2="243.234" y2="318.532"/><line x1="241.338" y1="314.739" x2="245.13" y2="318.532"/><line x1="241.338" y1="318.532" x2="245.13" y2="314.739"/>
<line x1="241.791" y1="309.062" x2="245.583" y2="309.062"/><line x1="243.687" y1="307.166" x2="243.687" y2="310.958"/><line x1="241.791" y1="307.166" x2="245.583" y2="310.958"/><line x1="241.791" y1="310.958" x2="245.583" y2="307.166"/>
<line x1="242.244" y1="312.628" x2="246.037" y2="312.628"/><line x1="244.141" y1="310.732" x2="244.141" y2="314.524"/><line x1="242.244" y1="310.732" x2="246.037" y2="314.524"/><line x1="242.244" y1="314.524" x2="246.037" y2="310.732"/>
<line x1="242.698" y1="317.595" x2="246.49" y2="317.595"/><line x1="244.594" y1="315.699" x2="244.594" y2="319.491"/><line x1="242.698" y1="315.699" x2="246.49" y2="319.491"/><line x1="242.698" y1="319.491" x2="246.49" y2="315.699"/>
<line x1="243.151" y1="317.036" x2="246.943" y2="317.036"/><line x1="245.047" y1="315.14" x2="245.047" y2="318.932"/><line x1="243.151" y1="315.14" x2="246.943" y2="318.932"/><line x1="243.151" y1="318.932" x2="246.943" y2="315.14"/>
<line x1="243.604" y1="310.733" x2="247.396" y2="310.733"/><line x1="245.5" y1="308.837" x2="245.5" y2="312.629"/><line x1="243.604" y1="308.837" x2="247.396" y2="312.629"/><line x1="243.604" y1="312.629" x2="247.396" y2="308.837"/>
<line x1="244.057" y1="312.187" x2="247.85" y2="312.187"/><line x1="245.953" y1="310.291" x2="245.953" y2="314.083"/><line x1="244.057" y1="310.291" x2="247.85" y2="314.083"/><line x1="244.057" y1="314.083" x2="247.85" y2="310.291"/>
<line x1="244.511" y1="313.397" x2="248.303" y2="313.397"/><line x1="246.407" y1="311.501" x2="246.407" y2="315.293"/><line x1="244.511" y1="311.501" x2="248.303" y2="315.293"/><line x1="244.511" y1="315.293" x2="248.303" y2="311.501"/>
<line x1="244.964" y1="304.627" x2="248.756" y2="304.627"/><line x1="246.86" y1="302.731" x2="246.86" y2="306.523"/><line x1="244.964" y1="302.731" x2="248.756" y2="306.523"/><line x1="244.964" y1="306.523" x2="248.756" y2="302.731"/>
<line x1="245.417" y1="302.413" x2="249.209" y2="302.413"/><line x1="247.313" y1="300.517" x2="247.313" y2="304.309"/><line x1="245.417" y1="300.517" x2="249.209" y2="304.309"/><line x1="245.417" y1="304.309" x2="249.209" y2="300.517"/>
<line x1="245.87" y1="300.152" x2="249.662" y2="300.152"/><line x1="247.766" y1="298.256" x2="247.766" y2="302.048"/><line x1="245.87" y1="298.256" x2="249.662" y2="302.048"/><line x1="245.87" y1="302.048" x2="249.662" y2="298.256"/>
<line x1="246.324" y1="294.162" x2="250.116" y2="294.162"/><line x1="248.22" y1="292.266" x2="248.22" y2="296.058"/><line x1="246.324" y1="292.266" x2="250.116" y2="296.058"/><line x1="246.324" y1="296.058" x2="250.116" y2="292.266"/>
<line x1="246.777" y1="296.235" x2="250.569" y2="296.235"/><line x1="248.673" y1="294.339" x2="248.673" y2="298.131"/><line x1="246.777" y1="294.339" x2="250.569" y2="298.131"/><line x1="246.777" y1="298.131" x2="250.569" y2="294.339"/>
<line x1="247.23" y1="294.521" x2="251.022" y2="294.521"/><line x1="249.126" y1="292.625" x2="249.126" y2="296.417"/><line x1="247.23" y1="292.625" x2="251.022" y2="296.417"/><line x1="247.23" y1="296.417" x2="251.022" y2="292.625"/>
<line x1="247.683" y1="305.743" x2="251.475" y2="305.743"/><line x1="249.579" y1="303.847" x2="249.579" y2="307.639"/><line x1="247.683" y1="303.847" x2="251.475" y2="307.639"/><line x1="247.683" y1="307.639" x2="251.475" y2="303.847"/>
<line x1="248.136" y1="304.023" x2="251.929" y2="304.023"/><line x1="250.032" y1="302.127" x2="250.032" y2="305.919"/><line x1="248.136" y1="302.127" x2="251.929" y2="305.919"/><line x1="248.136" y1="305.919" x2="251.929" y2="302.127"/>
<line x1="248.59" y1="314.779" x2="252.382" y2="314.779"/><line x1="250.486" y1="312.883" x2="250.486" y2="316.675"/><line x1="248.59" y1="312.883" x2="252.382" y2="316.675"/><line x1="248.59" y1="316.675" x2="252.382" y2="312.883"/>
<line x1="249.043" y1="304.006" x2="252.835" y2="304.006"/><line x1="250.939" y1="302.11" x2="250.939" y2="305.902"/><line x1="249.043" y1="302.11" x2="252.835" y2="305.902"/><line x1="249.043" y1="305.902" x2="252.835" y2="302.11"/>
<line x1="249.496" y1="288.436" x2="253.288" y2="288.436"/><line x1="251.392" y1="286.539" x2="251.392" y2="290.332"/><line x1="249.496" y1="286.539" x2="253.288" y2="290.332"/><line x1="249.496" y1="290.332" x2="253.288" y2="286.539"/>
<line x1="249.949" y1="267.1" x2="253.741" y2="267.1"/><line x1="251.845" y1="265.204" x2="251.845" y2="268.996"/><line x1="249.949" y1="265.204" x2="253.741" y2="268.996"/><line x1="249.949" y1="268.996" x2="253.741" y2="265.204"/>
<line x1="250.403" y1="254.077" x2="254.195" y2="254.077"/><line x1="252.299" y1="252.181" x2="252.299" y2="255.973"/><line x1="250.403" y1="252.181" x2="254.195" y2="255.973"/><line x1="250.403" y1="255.973" x2="254.195" y2="252.181"/>
<line x1="250.856" y1="243.322" x2="254.648" y2="243.322"/><line x1="252.752" y1="241.426" x2="252.752" y2="245.218"/><line x1="250.856" y1="241.426" x2="254.648" y2="245.218"/><line x1="250.856" y1="245.218" x2="254.648" y2="241.426"/>
<line x1="251.309" y1="238.809" x2="255.101" y2="238.809"/><line x1="253.205" y1="236.913" x2="253.205" y2="240.705"/><line x1="251.309" y1="236.913" x2="255.101" y2="240.705"/><line x1="251.309" y1="240.705" x2="255.101" y2="236.913"/>
<line x1="251.762" y1="238.385" x2="255.554" y2="238.385"/><line x1="253.658" y1="236.489" x2="253.658" y2="240.282"/><line x1="251.762" y1="236.489" x2="255.554" y2="240.282"/><line x1="251.762" y1="240.282" x2="255.554" y2="236.489"/>
<line x1="252.215" y1="245.757" x2="256.008" y2="245.757"/><line x1="254.112" y1="243.861" x2="254.112" y2="247.653"/><line x1="252.215" y1="243.861" x2="256.008" y2="247.653"/><line x1="252.215" y1="247.653" x2="256.008" y2="243.861"/>
<line x1="252.669" y1="239.524" x2="256.461" y2="239.524"/><line x1="254.565" y1="237.628" x2="254.565" y2="241.42"/><line x1="252.669" y1="237.628" x2="256.461" y2="241.42"/><line x1="252.669" y1="241.42" x2="256.461" y2="237.628"/>
<line x1="253.122" y1="246.436" x2="256.914" y2="246.436"/><line x1="255.018" y1="244.54" x2="255.018" y2="248.333"/><line x1="253.122" y1="244.54" x2="256.914" y2="248.333"/><line x1="253.122" y1="248.333" x2="256.914" y2="244.54"/>
<line x1="253.575" y1="245.201" x2="257.367" y2="245.201"/><line x1="255.471" y1="243.305" x2="255.471" y2="247.097"/><line x1="253.575" y1="243.305" x2="257.367" y2="247.097"/><line x1="253.575" y1="247.097" x2="257.367" y2="243.305"/>
<line x1="254.028" y1="250.555" x2="257.821" y2="250.555"/><line x1="255.924" y1="248.659" x2="255.924" y2="252.451"/><line x1="254.028" y1="248.659" x2="257.821" y2="252.451"/><line x1="254.028" y1="252.451" x2="257.821" y2="248.659"/>
<line x1="254.482" y1="261.781" x2="258.274" y2="261.781"/><line x1="256.378" y1="259.885" x2="256.378" y2="263.677"/><line x1="254.482" y1="259.885" x2="258.274" y2="263.677"/><line x1="254.482" y1="263.677" x2="258.274" y2="259.885"/>
<line x1="254.935" y1="256.808" x2="258.727" y2="256.808"/><line x1="256.831" y1="254.911" x2="256.831" y2="258.704"/><line x1="254.935" y1="254.911" x2="258.727" y2="258.704"/><line x1="254.935" y1="258.704" x2="258.727" y2="254.911"/>
<line x1="255.388" y1="250.217" x2="259.18" y2="250.217"/><line x1="257.284" y1="248.321" x2="257.284" y2="252.113"/><line x1="255.388" y1="248.321" x2="259.18" y2="252.113"/><line x1="255.388" y1="252.113" x2="259.18" y2="248.321"/>
<line x1="255.841" y1="232.023" x2="259.633" y2="232.023"/><line x1="257.737" y1="230.127" x2="257.737" y2="233.919"/><line x1="255.841" y1="230.127" x2="259.633" y2="233.919"/><line x1="255.841" y1="233.919" x2="259.633" y2="230.127"/>
<line x1="256.294" y1="255.228" x2="260.087" y2="255.228"/><line x1="258.191" y1="253.332" x2="258.191" y2="257.125"/><line x1="256.294" y1="253.332" x2="260.087" y2="257.125"/><line x1="256.294" y1="257.125" x2="260.087" y2="253.332"/>
<line x1="256.748" y1="248.984" x2="260.54" y2="248.984"/><line x1="258.644" y1="247.088" x2="258.644" y2="250.88"/><line x1="256.748" y1="247.088" x2="260.54" y2="250.88"/><line x1="256.748" y1="250.88" x2="260.54" y2="247.088"/>
<line x1="257.201" y1="252.016" x2="260.993" y2="252.016"/><line x1="259.097" y1="250.12" x2="259.097" y2="253.912"/><line x1="257.201" y1="250.12" x2="260.993" y2="253.912"/><line x1="257.201" y1="253.912" x2="260.993" y2="250.12"/>
<line x1="257.654" y1="253.067" x2="261.446" y2="253.067"/><line x1="259.55" y1="251.171" x2="259.55" y2="254.963"/><line x1="257.654" y1="251.171" x2="261.446" y2="254.963"/><line x1="257.654" y1="254.963" x2="261.446" y2="251.171"/>
<line x1="258.107" y1="264.025" x2="261.9" y2="264.025"/><line x1="260.003" y1="262.129" x2="260.003" y2="265.921"/><line x1="258.107" y1="262.129" x2="261.9" y2="265.921"/><line x1="258.107" y1="265.921" x2="261.9" y2="262.129"/>
<line x1="258.561" y1="264.501" x2="262.353" y2="264.501"/><line x1="260.457" y1="262.604" x2="260.457" y2="266.397"/><line x1="258.561" y1="262.604" x2="262.353" y2="266.397"/><line x1="258.561" y1="266.397" x2="262.353" y2="262.604"/>
<line x1="259.014" y1="266.4" x2="262.806" y2="266.4"/><line x1="260.91" y1="264.504" x2="260.91" y2="268.296"/><line x1="259.014" y1="264.504" x2="262.806" y2="268.296"/><line x1="259.014" y1="268.296" x2="262.806" y2="264.504"/>
<line x1="259.467" y1="265.526" x2="263.259" y2="265.526"/><line x1="261.363" y1="263.63" x2="261.363" y2="267.422"/><line x1="259.467" y1="263.63" x2="263.259" y2="267.422"/><line x1="259.467" y1="267.422" x2="263.259" y2="263.63"/>
<line x1="259.92" y1="265.9" x2="263.712" y2="265.9"/><line x1="261.816" y1="264.004" x2="261.816" y2="267.796"/><line x1="259.92" y1="264.004" x2="263.712" y2="267.796"/><line x1="259.92" y1="267.796" x2="263.712" y2="264.004"/>
<line x1="260.374" y1="264.3" x2="264.166" y2="264.3"/><line x1="262.27" y1="262.404" x2="262.27" y2="266.196"/><line x1="260.374" y1="262.404" x2="264.166" y2="266.196"/><line x1="260.374" y1="266.196" x2="264.166" y2="262.404"/>
<line x1="260.827" y1="263.825" x2="264.619" y2="263.825"/><line x1="262.723" y1="261.929" x2="262.723" y2="265.721"/><line x1="260.827" y1="261.929" x2="264.619" y2="265.721"/><line x1="260.827" y1="265.721" x2="264.619" y2="261.929"/>
<line x1="261.28" y1="252.774" x2="265.072" y2="252.774"/><line x1="263.176" y1="250.878" x2="263.176" y2="254.67"/><line x1="261.28" y1="250.878" x2="265.072" y2="254.67"/><line x1="261.28" y1="254.67" x2="265.072" y2="250.878"/>
<line x1="261.733" y1="262.891" x2="265.525" y2="262.891"/><line x1="263.629" y1="260.995" x2="263.629" y2="264.787"/><line x1="261.733" y1="260.995" x2="265.525" y2="264.787"/><line x1="261.733" y1="264.787" x2="265.525" y2="260.995"/>
<line x1="262.186" y1="245.73" x2="265.979" y2="245.73"/><line x1="264.082" y1="243.834" x2="264.082" y2="247.626"/><line x1="262.186" y1="243.834" x2="265.979" y2="247.626"/><line x1="262.186" y1="247.626" x2="265.979" y2="243.834"/>
<line x1="262.64" y1="255.27" x2="266.432" y2="255.27"/><line x1="264.536" y1="253.374" x2="264.536" y2="257.166"/><line x1="262.64" y1="253.374" x2="266.432" y2="257.166"/><line x1="262.64" y1="257.166" x2="266.432" y2="253.374"/>
<line x1="263.093" y1="225.28" x2="266.885" y2="225.28"/><line x1="264.989" y1="223.384" x2="264.989" y2="227.176"/><line x1="263.093" y1="223.384" x2="266.885" y2="227.176"/><line x1="263.093" y1="227.176" x2="266.885" y2="223.384"/>
<line x1="263.546" y1="236.794" x2="267.338" y2="236.794"/><line x1="265.442" y1="234.898" x2="265.442" y2="238.69"/><line x1="263.546" y1="234.898" x2="267.338" y2="238.69"/><line x1="263.546" y1="238.69" x2="267.338" y2="234.898"/>
<line x1="263.999" y1="243.878" x2="267.791" y2="243.878"/><line x1="265.895" y1="241.982" x2="265.895" y2="245.774"/><line x1="263.999" y1="241.982" x2="267.791" y2="245.774"/><line x1="263.999" y1="245.774" x2="267.791" y2="241.982"/>
<line x1="264.453" y1="244.389" x2="268.245" y2="244.389"/><line x1="266.349" y1="242.493" x2="266.349" y2="246.285"/><line x1="264.453" y1="242.493" x2="268.245" y2="246.285"/><line x1="264.453" y1="246.285" x2="268.245" y2="242.493"/>
<line x1="264.906" y1="260.119" x2="268.698" y2="260.119"/><line x1="266.802" y1="258.223" x2="266.802" y2="262.015"/><line x1="264.906" y1="258.223" x2="268.698" y2="262.015"/><line x1="264.906" y1="262.015" x2="268.698" y2="258.223"/>
<line x1="265.359" y1="285.842" x2="269.151" y2="285.842"/><line x1="267.255" y1="283.945" x2="267.255" y2="287.738"/><line x1="265.359" y1="283.945" x2="269.151" y2="287.738"/><line x1="265.359" y1="287.738" x2="269.151" y2="283.945"/>
<line x1="265.812" y1="291.187" x2="269.604" y2="291.187"/><line x1="267.708" y1="289.291" x2="267.708" y2="293.083"/><line x1="265.812" y1="289.291" x2="269.604" y2="293.083"/><line x1="265.812" y1="293.083" x2="269.604" y2="289.291"/>
<line x1="266.265" y1="280.649" x2="270.058" y2="280.649"/><line x1="268.162" y1="278.753" x2="268.162" y2="282.546"/><line x1="266.265" y1="278.753" x2="270.058" y2="282.546"/><line x1="266.265" y1="282.546" x2="270.058" y2="278.753"/>
<line x1="266.719" y1="284.292" x2="270.511" y2="284.292"/><line x1="268.615" y1="282.395" x2="268.615" y2="286.188"/><line x1="266.719" y1="282.395" x2="270.511" y2="286.188"/><line x1="266.719" y1="286.188" x2="270.511" y2="282.395"/>
<line x1="267.172" y1="297.265" x2="270.964" y2="297.265"/><line x1="269.068" y1="295.369" x2="269.068" y2="299.161"/><line x1="267.172" y1="295.369" x2="270.964" y2="299.161"/><line x1="267.172" y1="299.161" x2="270.964" y2="295.369"/>
<line x1="267.625" y1="293.487" x2="271.417" y2="293.487"/><line x1="269.521" y1="291.591" x2="269.521" y2="295.383"/><line x1="267.625" y1="291.591" x2="271.417" y2="295.383"/><line x1="267.625" y1="295.383" x2="271.417" y2="291.591"/>
<line x1="268.078" y1="272.983" x2="271.871" y2="272.983"/><line x1="269.974" y1="271.087" x2="269.974" y2="274.88"/><line x1="268.078" y1="271.087" x2="271.871" y2="274.88"/><line x1="268.078" y1="274.88" x2="271.871" y2="271.087"/>
<line x1="268.532" y1="270.458" x2="272.324" y2="270.458"/><line x1="270.428" y1="268.562" x2="270.428" y2="272.354"/><line x1="268.532" y1="268.562" x2="272.324" y2="272.354"/><line x1="268.532" y1="272.354" x2="272.324" y2="268.562"/>
<line x1="268.985" y1="273.588" x2="272.777" y2="273.588"/><line x1="270.881" y1="271.692" x2="270.881" y2="275.484"/><line x1="268.985" y1="271.692" x2="272.777" y2="275.484"/><line x1="268.985" y1="275.484" x2="272.777" y2="271.692"/>
<line x1="269.438" y1="281.275" x2="273.23" y2="281.275"/><line x1="271.334" y1="279.379" x2="271.334" y2="283.171"/><line x1="269.438" y1="279.379" x2="273.23" y2="283.171"/><line x1="269.438" y1="283.171" x2="273.23" y2="279.379"/>
<line x1="269.891" y1="268.051" x2="273.683" y2="268.051"/><line x1="271.787" y1="266.155" x2="271.787" y2="269.948"/><line x1="269.891" y1="266.155" x2="273.683" y2="269.948"/><line x1="269.891" y1="269.948" x2="273.683" y2="266.155"/>
<line x1="270.344" y1="267.748" x2="274.137" y2="267.748"/><line x1="272.241" y1="265.852" x2="272.241" y2="269.644"/><line x1="270.344" y1="265.852" x2="274.137" y2="269.644"/><line x1="270.344" y1="269.644" x2="274.137" y2="265.852"/>
<line x1="270.798" y1="263.709" x2="274.59" y2="263.709"/><line x1="272.694" y1="261.812" x2="272.694" y2="265.605"/><line x1="270.798" y1="261.812" x2="274.59" y2="265.605"/><line x1="270.798" y1="265.605" x2="274.59" y2="261.812"/>
<line x1="271.251" y1="242.138" x2="275.043" y2="242.138"/><line x1="273.147" y1="240.242" x2="273.147" y2="244.034"/><line x1="271.251" y1="240.242" x2="275.043" y2="244.034"/><line x1="271.251" y1="244.034" x2="275.043" y2="240.242"/>
<line x1="271.704" y1="246.636" x2="275.496" y2="246.636"/><line x1="273.6" y1="244.739" x2="273.6" y2="248.532"/><line x1="271.704" y1="244.739" x2="275.496" y2="248.532"/><line x1="271.704" y1="248.532" x2="275.496" y2="244.739"/>
<line x1="272.157" y1="244.128" x2="275.95" y2="244.128"/><line x1="274.053" y1="242.232" x2="274.053" y2="246.024"/><line x1="272.157" y1="242.232" x2="275.95" y2="246.024"/><line x1="272.157" y1="246.024" x2="275.95" y2="242.232"/>
<line x1="272.611" y1="236.332" x2="276.403" y2="236.332"/><line x1="274.507" y1="234.436" x2="274.507" y2="238.228"/><line x1="272.611" y1="234.436" x2="276.403" y2="238.228"/><line x1="272.611" y1="238.228" x2="276.403" y2="234.436"/>
<line x1="273.064" y1="246.14" x2="276.856" y2="246.14"/><line x1="274.96" y1="244.244" x2="274.96" y2="248.036"/><line x1="273.064" y1="244.244" x2="276.856" y2="248.036"/><line x1="273.064" y1="248.036" x2="276.856" y2="244.244"/>
<line x1="273.517" y1="262.203" x2="277.309" y2="262.203"/><line x1="275.413" y1="260.307" x2="275.413" y2="264.099"/><line x1="273.517" y1="260.307" x2="277.309" y2="264.099"/><line x1="273.517" y1="264.099" x2="277.309" y2="260.307"/>
<line x1="273.97" y1="246.11" x2="277.762" y2="246.11"/><line x1="275.866" y1="244.214" x2="275.866" y2="248.006"/><line x1="273.97" y1="244.214" x2="277.762" y2="248.006"/><line x1="273.97" y1="248.006" x2="277.762" y2="244.214"/>
<line x1="274.424" y1="251.888" x2="278.216" y2="251.888"/><line x1="276.32" y1="249.992" x2="276.32" y2="253.784"/><line x1="274.424" y1="249.992" x2="278.216" y2="253.784"/><line x1="274.424" y1="253.784" x2="278.216" y2="249.992"/>
<line x1="274.877" y1="249.819" x2="278.669" y2="249.819"/><line x1="276.773" y1="247.923" x2="276.773" y2="251.715"/><line x1="274.877" y1="247.923" x2="278.669" y2="251.715"/><line x1="274.877" y1="251.715" x2="278.669" y2="247.923"/>
<line x1="275.33" y1="248.177" x2="279.122" y2="248.177"/><line x1="277.226" y1="246.281" x2="277.226" y2="250.073"/><line x1="275.33" y1="246.281" x2="279.122" y2="250.073"/><line x1="275.33" y1="250.073" x2="279.122" y2="246.281"/>
<line x1="275.783" y1="238.203" x2="279.575" y2="238.203"/><line x1="277.679" y1="236.307" x2="277.679" y2="240.099"/><line x1="275.783" y1="236.307" x2="279.575" y2="240.099"/><line x1="275.783" y1="240.099" x2="279.575" y2="236.307"/>
<line x1="276.236" y1="274.223" x2="280.029" y2="274.223"/><line x1="278.133" y1="272.327" x2="278.133" y2="276.119"/><line x1="276.236" y1="272.327" x2="280.029" y2="276.119"/><line x1="276.236" y1="276.119" x2="280.029" y2="272.327"/>
<line x1="276.69" y1="266.155" x2="280.482" y2="266.155"/><line x1="278.586" y1="264.259" x2="278.586" y2="268.051"/><line x1="276.69" y1="264.259" x2="280.482" y2="268.051"/><line x1="276.69" y1="268.051" x2="280.482" y2="264.259"/>
<line x1="277.143" y1="279.018" x2="280.935" y2="279.018"/><line x1="279.039" y1="277.122" x2="279.039" y2="280.914"/><line x1="277.143" y1="277.122" x2="280.935" y2="280.914"/><line x1="277.143" y1="280.914" x2="280.935" y2="277.122"/>
<line x1="277.596" y1="290.211" x2="281.388" y2="290.211"/><line x1="279.492" y1="288.315" x2="279.492" y2="292.107"/><line x1="277.596" y1="288.315" x2="281.388" y2="292.107"/><line x1="277.596" y1="292.107" x2="281.388" y2="288.315"/>
<line x1="278.049" y1="296.437" x2="281.841" y2="296.437"/><line x1="279.945" y1="294.541" x2="279.945" y2="298.333"/><line x1="278.049" y1="294.541" x2="281.841" y2="298.333"/><line x1="278.049" y1="298.333" x2="281.841" y2="294.541"/>
<line x1="278.503" y1="292.109" x2="282.295" y2="292.109"/><line x1="280.399" y1="290.213" x2="280.399" y2="294.005"/><line x1="278.503" y1="290.213" x2="282.295" y2="294.005"/><line x1="278.503" y1="294.005" x2="282.295" y2="290.213"/>
<line x1="278.956" y1="308.501" x2="282.748" y2="308.501"/><line x1="280.852" y1="306.605" x2="280.852" y2="310.398"/><line x1="278.956" y1="306.605" x2="282.748" y2="310.398"/><line x1="278.956" y1="310.398" x2="282.748" y2="306.605"/>
<line x1="279.409" y1="303.657" x2="283.201" y2="303.657"/><line x1="281.305" y1="301.761" x2="281.305" y2="305.553"/><line x1="279.409" y1="301.761" x2="283.201" y2="305.553"/><line x1="279.409" y1="305.553" x2="283.201" y2="301.761"/>
<line x1="279.862" y1="313.669" x2="283.654" y2="313.669"/><line x1="281.758" y1="311.773" x2="281.758" y2="315.565"/><line x1="279.862" y1="311.773" x2="283.654" y2="315.565"/><line x1="279.862" y1="315.565" x2="283.654" y2="311.773"/>
<line x1="280.315" y1="337.541" x2="284.108" y2="337.541"/><line x1="282.212" y1="335.645" x2="282.212" y2="339.437"/><line x1="280.315" y1="335.645" x2="284.108" y2="339.437"/><line x1="280.315" y1="339.437" x2="284.108" y2="335.645"/>
<line x1="280.769" y1="333.526" x2="284.561" y2="333.526"/><line x1="282.665" y1="331.63" x2="282.665" y2="335.422"/><line x1="280.769" y1="331.63" x2="284.561" y2="335.422"/><line x1="280.769" y1="335.422" x2="284.561" y2="331.63"/>
<line x1="281.222" y1="355.767" x2="285.014" y2="355.767"/><line x1="283.118" y1="353.871" x2="283.118" y2="357.663"/><line x1="281.222" y1="353.871" x2="285.014" y2="357.663"/><line x1="281.222" y1="357.663" x2="285.014" y2="353.871"/>
<line x1="281.675" y1="351.281" x2="285.467" y2="351.281"/><line x1="283.571" y1="349.385" x2="283.571" y2="353.177"/><line x1="281.675" y1="349.385" x2="285.467" y2="353.177"/><line x1="281.675" y1="353.177" x2="285.467" y2="349.385"/>
<line x1="282.128" y1="356.265" x2="285.921" y2="356.265"/><line x1="284.024" y1="354.369" x2="284.024" y2="358.161"/><line x1="282.128" y1="354.369" x2="285.921" y2="358.161"/><line x1="282.128" y1="358.161" x2="285.921" y2="354.369"/>
<line x1="282.582" y1="349.336" x2="286.374" y2="349.336"/><line x1="284.478" y1="347.439" x2="284.478" y2="351.232"/><line x1="282.582" y1="347.439" x2="286.374" y2="351.232"/><line x1="282.582" y1="351.232" x2="286.374" y2="347.439"/>
<line x1="283.035" y1="324.212" x2="286.827" y2="324.212"/><line x1="284.931" y1="322.316" x2="284.931" y2="326.108"/><line x1="283.035" y1="322.316" x2="286.827" y2="326.108"/><line x1="283.035" y1="326.108" x2="286.827" y2="322.316"/>
<line x1="283.488" y1="327.969" x2="287.28" y2="327.969"/><line x1="285.384" y1="326.072" x2="285.384" y2="329.865"/><line x1="283.488" y1="326.072" x2="287.28" y2="329.865"/><line x1="283.488" y1="329.865" x2="287.28" y2="326.072"/>
<line x1="283.941" y1="332.261" x2="287.733" y2="332.261"/><line x1="285.837" y1="330.365" x2="285.837" y2="334.157"/><line x1="283.941" y1="330.365" x2="287.733" y2="334.157"/><line x1="283.941" y1="334.157" x2="287.733" y2="330.365"/>
<line x1="284.395" y1="315.545" x2="288.187" y2="315.545"/><line x1="286.291" y1="313.649" x2="286.291" y2="317.441"/><line x1="284.395" y1="313.649" x2="288.187" y2="317.441"/><line x1="284.395" y1="317.441" x2="288.187" y2="313.649"/>
<line x1="284.848" y1="307.008" x2="288.64" y2="307.008"/><line x1="286.744" y1="305.112" x2="286.744" y2="308.904"/><line x1="284.848" y1="305.112" x2="288.64" y2="308.904"/><line x1="284.848" y1="308.904" x2="288.64" y2="305.112"/>
<line x1="285.301" y1="311.921" x2="289.093" y2="311.921"/><line x1="287.197" y1="310.025" x2="287.197" y2="313.817"/><line x1="285.301" y1="310.025" x2="289.093" y2="313.817"/><line x1="285.301" y1="313.817" x2="289.093" y2="310.025"/>
<line x1="285.754" y1="308.461" x2="289.546" y2="308.461"/><line x1="287.65" y1="306.565" x2="287.65" y2="310.357"/><line x1="285.754" y1="306.565" x2="289.546" y2="310.357"/><line x1="285.754" y1="310.357" x2="289.546" y2="306.565"/>
<line x1="286.207" y1="314.855" x2="290" y2="314.855"/><line x1="288.103" y1="312.959" x2="288.103" y2="316.751"/><line x1="286.207" y1="312.959" x2="290" y2="316.751"/><line x1="286.207" y1="316.751" x2="290" y2="312.959"/>
<line x1="286.661" y1="309.609" x2="290.453" y2="309.609"/><line x1="288.557" y1="307.713" x2="288.557" y2="311.505"/><line x1="286.661" y1="307.713" x2="290.453" y2="311.505"/><line x1="286.661" y1="311.505" x2="290.453" y2="307.713"/>
<line x1="287.114" y1="311.365" x2="290.906" y2="311.365"/><line x1="289.01" y1="309.469" x2="289.01" y2="313.261"/><line x1="287.114" y1="309.469" x2="290.906" y2="313.261"/><line x1="287.114" y1="313.261" x2="290.906" y2="309.469"/>
<line x1="287.567" y1="321.329" x2="291.359" y2="321.329"/><line x1="289.463" y1="319.433" x2="289.463" y2="323.225"/><line x1="287.567" y1="319.433" x2="291.359" y2="323.225"/><line x1="287.567" y1="323.225" x2="291.359" y2="319.433"/>
<line x1="288.02" y1="323.151" x2="291.812" y2="323.151"/><line x1="289.916" y1="321.255" x2="289.916" y2="325.047"/><line x1="288.02" y1="321.255" x2="291.812" y2="325.047"/><line x1="288.02" y1="325.047" x2="291.812" y2="321.255"/>
<line x1="288.474" y1="314.6" x2="292.266" y2="314.6"/><line x1="290.37" y1="312.703" x2="290.37" y2="316.496"/><line x1="288.474" y1="312.703" x2="292.266" y2="316.496"/><line x1="288.474" y1="316.496" x2="292.266" y2="312.703"/>
<line x1="288.927" y1="302.491" x2="292.719" y2="302.491"/><line x1="290.823" y1="300.594" x2="290.823" y2="304.387"/><line x1="288.927" y1="300.594" x2="292.719" y2="304.387"/><line x1="288.927" y1="304.387" x2="292.719" y2="300.594"/>
<line x1="289.38" y1="288.898" x2="293.172" y2="288.898"/><line x1="291.276" y1="287.002" x2="291.276" y2="290.794"/><line x1="289.38" y1="287.002" x2="293.172" y2="290.794"/><line x1="289.38" y1="290.794" x2="293.172" y2="287.002"/>
<line x1="289.833" y1="281.252" x2="293.625" y2="281.252"/><line x1="291.729" y1="279.356" x2="291.729" y2="283.148"/><line x1="289.833" y1="279.356" x2="293.625" y2="283.148"/><line x1="289.833" y1="283.148" x2="293.625" y2="279.356"/>
<line x1="290.286" y1="277.36" x2="294.079" y2="277.36"/><line x1="292.183" y1="275.464" x2="292.183" y2="279.256"/><line x1="290.286" y1="275.464" x2="294.079" y2="279.256"/><line x1="290.286" y1="279.256" x2="294.079" y2="275.464"/>
<line x1="290.74" y1="254.486" x2="294.532" y2="254.486"/><line x1="292.636" y1="252.59" x2="292.636" y2="256.382"/><line x1="290.74" y1="252.59" x2="294.532" y2="256.382"/><line x1="290.74" y1="256.382" x2="294.532" y2="252.59"/>
<line x1="291.193" y1="241.159" x2="294.985" y2="241.159"/><line x1="293.089" y1="239.263" x2="293.089" y2="243.055"/><line x1="291.193" y1="239.263" x2="294.985" y2="243.055"/><line x1="291.193" y1="243.055" x2="294.985" y2="239.263"/>
<line x1="291.646" y1="233.005" x2="295.438" y2="233.005"/><line x1="293.542" y1="231.109" x2="293.542" y2="234.901"/><line x1="291.646" y1="231.109" x2="295.438" y2="234.901"/><line x1="291.646" y1="234.901" x2="295.438" y2="231.109"/>
<line x1="292.099" y1="227.309" x2="295.892" y2="227.309"/><line x1="293.995" y1="225.413" x2="293.995" y2="229.205"/><line x1="292.099" y1="225.413" x2="295.892" y2="229.205"/><line x1="292.099" y1="229.205" x2="295.892" y2="225.413"/>
<line x1="292.553" y1="243.444" x2="296.345" y2="243.444"/><line x1="294.449" y1="241.548" x2="294.449" y2="245.34"/><line x1="292.553" y1="241.548" x2="296.345" y2="245.34"/><line x1="292.553" y1="245.34" x2="296.345" y2="241.548"/>
<line x1="293.006" y1="234.595" x2="296.798" y2="234.595"/><line x1="294.902" y1="232.699" x2="294.902" y2="236.491"/><line x1="293.006" y1="232.699" x2="296.798" y2="236.491"/><line x1="293.006" y1="236.491" x2="296.798" y2="232.699"/>
<line x1="293.459" y1="225.472" x2="297.251" y2="225.472"/><line x1="295.355" y1="223.576" x2="295.355" y2="227.368"/><line x1="293.459" y1="223.576" x2="297.251" y2="227.368"/><line x1="293.459" y1="227.368" x2="297.251" y2="223.576"/>
<line x1="293.912" y1="211.906" x2="297.704" y2="211.906"/><line x1="295.808" y1="210.01" x2="295.808" y2="213.802"/><line x1="293.912" y1="210.01" x2="297.704" y2="213.802"/><line x1="293.912" y1="213.802" x2="297.704" y2="210.01"/>
<line x1="294.365" y1="201.281" x2="298.158" y2="201.281"/><line x1="296.262" y1="199.385" x2="296.262" y2="203.177"/><line x1="294.365" y1="199.385" x2="298.158" y2="203.177"/><line x1="294.365" y1="203.177" x2="298.158" y2="199.385"/>
<line x1="294.819" y1="201.931" x2="298.611" y2="201.931"/><line x1="296.715" y1="200.035" x2="296.715" y2="203.827"/><line x1="294.819" y1="200.035" x2="298.611" y2="203.827"/><line x1="294.819" y1="203.827" x2="298.611" y2="200.035"/>
<line x1="295.272" y1="193.461" x2="299.064" y2="193.461"/><line x1="297.168" y1="191.564" x2="297.168" y2="195.357"/><line x1="295.272" y1="191.564" x2="299.064" y2="195.357"/><line x1="295.272" y1="195.357" x2="299.064" y2="191.564"/>
<line x1="295.725" y1="200.13" x2="299.517" y2="200.13"/><line x1="297.621" y1="198.234" x2="297.621" y2="202.026"/><line x1="295.725" y1="198.234" x2="299.517" y2="202.026"/><line x1="295.725" y1="202.026" x2="299.517" y2="198.234"/>
<line x1="296.178" y1="201.972" x2="299.971" y2="201.972"/><line x1="298.074" y1="200.076" x2="298.074" y2="203.868"/><line x1="296.178" y1="200.076" x2="299.971" y2="203.868"/><line x1="296.178" y1="203.868" x2="299.971" y2="200.076"/>
<line x1="296.632" y1="193.548" x2="300.424" y2="193.548"/><line x1="298.528" y1="191.652" x2="298.528" y2="195.444"/><line x1="296.632" y1="191.652" x2="300.424" y2="195.444"/><line x1="296.632" y1="195.444" x2="300.424" y2="191.652"/>
<line x1="297.085" y1="201.921" x2="300.877" y2="201.921"/><line x1="298.981" y1="200.025" x2="298.981" y2="203.817"/><line x1="297.085" y1="200.025" x2="300.877" y2="203.817"/><line x1="297.085" y1="203.817" x2="300.877" y2="200.025"/>
<line x1="297.538" y1="210.547" x2="301.33" y2="210.547"/><line x1="299.434" y1="208.65" x2="299.434" y2="212.443"/><line x1="297.538" y1="208.65" x2="301.33" y2="212.443"/><line x1="297.538" y1="212.443" x2="301.33" y2="208.65"/>
<line x1="297.991" y1="208.459" x2="301.783" y2="208.459"/><line x1="299.887" y1="206.563" x2="299.887" y2="210.355"/><line x1="297.991" y1="206.563" x2="301.783" y2="210.355"/><line x1="297.991" y1="210.355" x2="301.783" y2="206.563"/>
<line x1="298.444" y1="196.232" x2="302.237" y2="196.232"/><line x1="300.341" y1="194.336" x2="300.341" y2="198.128"/><line x1="298.444" y1="194.336" x2="302.237" y2="198.128"/><line x1="298.444" y1="198.128" x2="302.237" y2="194.336"/>
<line x1="298.898" y1="195.695" x2="302.69" y2="195.695"/><line x1="300.794" y1="193.799" x2="300.794" y2="197.591"/><line x1="298.898" y1="193.799" x2="302.69" y2="197.591"/><line x1="298.898" y1="197.591" x2="302.69" y2="193.799"/>
<line x1="299.351" y1="184.65" x2="303.143" y2="184.65"/><line x1="301.247" y1="182.754" x2="301.247" y2="186.546"/><line x1="299.351" y1="182.754" x2="303.143" y2="186.546"/><line x1="299.351" y1="186.546" x2="303.143" y2="182.754"/>
<line x1="299.804" y1="193.891" x2="303.596" y2="193.891"/><line x1="301.7" y1="191.995" x2="301.7" y2="195.787"/><line x1="299.804" y1="191.995" x2="303.596" y2="195.787"/><line x1="299.804" y1="195.787" x2="303.596" y2="191.995"/>
<line x1="300.257" y1="199.115" x2="304.05" y2="199.115"/><line x1="302.154" y1="197.219" x2="302.154" y2="201.011"/><line x1="300.257" y1="197.219" x2="304.05" y2="201.011"/><line x1="300.257" y1="201.011" x2="304.05" y2="197.219"/>
<line x1="300.711" y1="198.679" x2="304.503" y2="198.679"/><line x1="302.607" y1="196.783" x2="302.607" y2="200.575"/><line x1="300.711" y1="196.783" x2="304.503" y2="200.575"/><line x1="300.711" y1="200.575" x2="304.503" y2="196.783"/>
<line x1="301.164" y1="194.055" x2="304.956" y2="194.055"/><line x1="303.06" y1="192.159" x2="303.06" y2="195.951"/><line x1="301.164" y1="192.159" x2="304.956" y2="195.951"/><line x1="301.164" y1="195.951" x2="304.956" y2="192.159"/>
<line x1="301.617" y1="179.354" x2="305.409" y2="179.354"/><line x1="303.513" y1="177.458" x2="303.513" y2="181.251"/><line x1="301.617" y1="177.458" x2="305.409" y2="181.251"/><line x1="301.617" y1="181.251" x2="305.409" y2="177.458"/>
<line x1="302.07" y1="183.091" x2="305.862" y2="183.091"/><line x1="303.966" y1="181.195" x2="303.966" y2="184.987"/><line x1="302.07" y1="181.195" x2="305.862" y2="184.987"/><line x1="302.07" y1="184.987" x2="305.862" y2="181.195"/>
<line x1="302.524" y1="199.349" x2="306.316" y2="199.349"/><line x1="304.42" y1="197.453" x2="304.42" y2="201.245"/><line x1="302.524" y1="197.453" x2="306.316" y2="201.245"/><line x1="302.524" y1="201.245" x2="306.316" y2="197.453"/>
<line x1="302.977" y1="191.011" x2="306.769" y2="191.011"/><line x1="304.873" y1="189.115" x2="304.873" y2="192.907"/><line x1="302.977" y1="189.115" x2="306.769" y2="192.907"/><line x1="302.977" y1="192.907" x2="306.769" y2="189.115"/>
<line x1="303.43" y1="198.298" x2="307.222" y2="198.298"/><line x1="305.326" y1="196.402" x2="305.326" y2="200.194"/><line x1="303.43" y1="196.402" x2="307.222" y2="200.194"/><line x1="303.43" y1="200.194" x2="307.222" y2="196.402"/>
<line x1="303.883" y1="203.743" x2="307.675" y2="203.743"/><line x1="305.779" y1="201.847" x2="305.779" y2="205.639"/><line x1="303.883" y1="201.847" x2="307.675" y2="205.639"/><line x1="303.883" y1="205.639" x2="307.675" y2="201.847"/>
<line x1="304.336" y1="211.062" x2="308.129" y2="211.062"/><line x1="306.233" y1="209.166" x2="306.233" y2="212.958"/><line x1="304.336" y1="209.166" x2="308.129" y2="212.958"/><line x1="304.336" y1="212.958" x2="308.129" y2="209.166"/>
<line x1="304.79" y1="223.979" x2="308.582" y2="223.979"/><line x1="306.686" y1="222.083" x2="306.686" y2="225.875"/><line x1="304.79" y1="222.083" x2="308.582" y2="225.875"/><line x1="304.79" y1="225.875" x2="308.582" y2="222.083"/>
<line x1="305.243" y1="222.458" x2="309.035" y2="222.458"/><line x1="307.139" y1="220.562" x2="307.139" y2="224.354"/><line x1="305.243" y1="220.562" x2="309.035" y2="224.354"/><line x1="305.243" y1="224.354" x2="309.035" y2="220.562"/>
<line x1="305.696" y1="223.845" x2="309.488" y2="223.845"/><line x1="307.592" y1="221.949" x2="307.592" y2="225.741"/><line x1="305.696" y1="221.949" x2="309.488" y2="225.741"/><line x1="305.696" y1="225.741" x2="309.488" y2="221.949"/>
<line x1="306.149" y1="233.477" x2="309.942" y2="233.477"/><line x1="308.045" y1="231.581" x2="308.045" y2="235.373"/><line x1="306.149" y1="231.581" x2="309.942" y2="235.373"/><line x1="306.149" y1="235.373" x2="309.942" y2="231.581"/>
<line x1="306.603" y1="246.52" x2="310.395" y2="246.52"/><line x1="308.499" y1="244.624" x2="308.499" y2="248.416"/><line x1="306.603" y1="244.624" x2="310.395" y2="248.416"/><line x1="306.603" y1="248.416" x2="310.395" y2="244.624"/>
<line x1="307.056" y1="215.756" x2="310.848" y2="215.756"/><line x1="308.952" y1="213.86" x2="308.952" y2="217.652"/><line x1="307.056" y1="213.86" x2="310.848" y2="217.652"/><line x1="307.056" y1="217.652" x2="310.848" y2="213.86"/>
<line x1="307.509" y1="223.831" x2="311.301" y2="223.831"/><line x1="309.405" y1="221.935" x2="309.405" y2="225.727"/><line x1="307.509" y1="221.935" x2="311.301" y2="225.727"/><line x1="307.509" y1="225.727" x2="311.301" y2="221.935"/>
<line x1="307.962" y1="207.141" x2="311.754" y2="207.141"/><line x1="309.858" y1="205.245" x2="309.858" y2="209.037"/><line x1="307.962" y1="205.245" x2="311.754" y2="209.037"/><line x1="307.962" y1="209.037" x2="311.754" y2="205.245"/>
<line x1="308.415" y1="218.53" x2="312.208" y2="218.53"/><line x1="310.312" y1="216.634" x2="310.312" y2="220.426"/><line x1="308.415" y1="216.634" x2="312.208" y2="220.426"/><line x1="308.415" y1="220.426" x2="312.208" y2="216.634"/>
<line x1="308.869" y1="226.53" x2="312.661" y2="226.53"/><line x1="310.765" y1="224.634" x2="310.765" y2="228.426"/><line x1="308.869" y1="224.634" x2="312.661" y2="228.426"/><line x1="308.869" y1="228.426" x2="312.661" y2="224.634"/>
<line x1="309.322" y1="214.434" x2="313.114" y2="214.434"/><line x1="311.218" y1="212.538" x2="311.218" y2="216.33"/><line x1="309.322" y1="212.538" x2="313.114" y2="216.33"/><line x1="309.322" y1="216.33" x2="313.114" y2="212.538"/>
<line x1="309.775" y1="194.085" x2="313.567" y2="194.085"/><line x1="311.671" y1="192.189" x2="311.671" y2="195.981"/><line x1="309.775" y1="192.189" x2="313.567" y2="195.981"/><line x1="309.775" y1="195.981" x2="313.567" y2="192.189"/>
<line x1="310.228" y1="208.088" x2="314.021" y2="208.088"/><line x1="312.124" y1="206.191" x2="312.124" y2="209.984"/><line x1="310.228" y1="206.191" x2="314.021" y2="209.984"/><line x1="310.228" y1="209.984" x2="314.021" y2="206.191"/>
<line x1="310.682" y1="189.613" x2="314.474" y2="189.613"/><line x1="312.578" y1="187.717" x2="312.578" y2="191.509"/><line x1="310.682" y1="187.717" x2="314.474" y2="191.509"/><line x1="310.682" y1="191.509" x2="314.474" y2="187.717"/>
<line x1="311.135" y1="183.832" x2="314.927" y2="183.832"/><line x1="313.031" y1="181.936" x2="313.031" y2="185.728"/><line x1="311.135" y1="181.936" x2="314.927" y2="185.728"/><line x1="311.135" y1="185.728" x2="314.927" y2="181.936"/>
<line x1="311.588" y1="188.085" x2="315.38" y2="188.085"/><line x1="313.484" y1="186.189" x2="313.484" y2="189.981"/><line x1="311.588" y1="186.189" x2="315.38" y2="189.981"/><line x1="311.588" y1="189.981" x2="315.38" y2="186.189"/>
<line x1="312.041" y1="180.814" x2="315.833" y2="180.814"/><line x1="313.937" y1="178.918" x2="313.937" y2="182.71"/><line x1="312.041" y1="178.918" x2="315.833" y2="182.71"/><line x1="312.041" y1="182.71" x2="315.833" y2="178.918"/>
<line x1="312.495" y1="178.754" x2="316.287" y2="178.754"/><line x1="314.391" y1="176.858" x2="314.391" y2="180.65"/><line x1="312.495" y1="176.858" x2="316.287" y2="180.65"/><line x1="312.495" y1="180.65" x2="316.287" y2="176.858"/>
<line x1="312.948" y1="177.462" x2="316.74" y2="177.462"/><line x1="314.844" y1="175.566" x2="314.844" y2="179.358"/><line x1="312.948" y1="175.566" x2="316.74" y2="179.358"/><line x1="312.948" y1="179.358" x2="316.74" y2="175.566"/>
<line x1="313.401" y1="179.904" x2="317.193" y2="179.904"/><line x1="315.297" y1="178.007" x2="315.297" y2="181.8"/><line x1="313.401" y1="178.007" x2="317.193" y2="181.8"/><line x1="313.401" y1="181.8" x2="317.193" y2="178.007"/>
<line x1="313.854" y1="152.205" x2="317.646" y2="152.205"/><line x1="315.75" y1="150.309" x2="315.75" y2="154.101"/><line x1="313.854" y1="150.309" x2="317.646" y2="154.101"/><line x1="313.854" y1="154.101" x2="317.646" y2="150.309"/>
<line x1="314.307" y1="151.32" x2="318.1" y2="151.32"/><line x1="316.203" y1="149.424" x2="316.203" y2="153.217"/><line x1="314.307" y1="149.424" x2="318.1" y2="153.217"/><line x1="314.307" y1="153.217" x2="318.1" y2="149.424"/>
<line x1="314.761" y1="169.631" x2="318.553" y2="169.631"/><line x1="316.657" y1="167.735" x2="316.657" y2="171.527"/><line x1="314.761" y1="167.735" x2="318.553" y2="171.527"/><line x1="314.761" y1="171.527" x2="318.553" y2="167.735"/>
<line x1="315.214" y1="147.566" x2="319.006" y2="147.566"/><line x1="317.11" y1="145.67" x2="317.11" y2="149.462"/><line x1="315.214" y1="145.67" x2="319.006" y2="149.462"/><line x1="315.214" y1="149.462" x2="319.006" y2="145.67"/>
<line x1="315.667" y1="143.365" x2="319.459" y2="143.365"/><line x1="317.563" y1="141.469" x2="317.563" y2="145.261"/><line x1="315.667" y1="141.469" x2="319.459" y2="145.261"/><line x1="315.667" y1="145.261" x2="319.459" y2="141.469"/>
<line x1="316.12" y1="146.719" x2="319.912" y2="146.719"/><line x1="318.016" y1="144.823" x2="318.016" y2="148.615"/><line x1="316.12" y1="144.823" x2="319.912" y2="148.615"/><line x1="316.12" y1="148.615" x2="319.912" y2="144.823"/>
<line x1="316.574" y1="145.13" x2="320.366" y2="145.13"/><line x1="318.47" y1="143.234" x2="318.47" y2="147.026"/><line x1="316.574" y1="143.234" x2="320.366" y2="147.026"/><line x1="316.574" y1="147.026" x2="320.366" y2="143.234"/>
<line x1="317.027" y1="135.348" x2="320.819" y2="135.348"/><line x1="318.923" y1="133.452" x2="318.923" y2="137.244"/><line x1="317.027" y1="133.452" x2="320.819" y2="137.244"/><line x1="317.027" y1="137.244" x2="320.819" y2="133.452"/>
<line x1="317.48" y1="127.873" x2="321.272" y2="127.873"/><line x1="319.376" y1="125.976" x2="319.376" y2="129.769"/><line x1="317.48" y1="125.976" x2="321.272" y2="129.769"/><line x1="317.48" y1="129.769" x2="321.272" y2="125.976"/>
<line x1="317.933" y1="144.273" x2="321.725" y2="144.273"/><line x1="319.829" y1="142.377" x2="319.829" y2="146.169"/><line x1="317.933" y1="142.377" x2="321.725" y2="146.169"/><line x1="317.933" y1="146.169" x2="321.725" y2="142.377"/>
<line x1="318.386" y1="118.107" x2="322.179" y2="118.107"/><line x1="320.283" y1="116.211" x2="320.283" y2="120.003"/><line x1="318.386" y1="116.211" x2="322.179" y2="120.003"/><line x1="318.386" y1="120.003" x2="322.179" y2="116.211"/>
<line x1="318.84" y1="126.483" x2="322.632" y2="126.483"/><line x1="320.736" y1="124.587" x2="320.736" y2="128.379"/><line x1="318.84" y1="124.587" x2="322.632" y2="128.379"/><line x1="318.84" y1="128.379" x2="322.632" y2="124.587"/>
<line x1="319.293" y1="113.764" x2="323.085" y2="113.764"/><line x1="321.189" y1="111.868" x2="321.189" y2="115.66"/><line x1="319.293" y1="111.868" x2="323.085" y2="115.66"/><line x1="319.293" y1="115.66" x2="323.085" y2="111.868"/>
<line x1="319.746" y1="105.469" x2="323.538" y2="105.469"/><line x1="321.642" y1="103.573" x2="321.642" y2="107.365"/><line x1="319.746" y1="103.573" x2="323.538" y2="107.365"/><line x1="319.746" y1="107.365" x2="323.538" y2="103.573"/>
<line x1="320.199" y1="103.71" x2="323.992" y2="103.71"/><line x1="322.095" y1="101.814" x2="322.095" y2="105.606"/><line x1="320.199" y1="101.814" x2="323.992" y2="105.606"/><line x1="320.199" y1="105.606" x2="323.992" y2="101.814"/>
<line x1="320.653" y1="103.14" x2="324.445" y2="103.14"/><line x1="322.549" y1="101.244" x2="322.549" y2="105.037"/><line x1="320.653" y1="101.244" x2="324.445" y2="105.037"/><line x1="320.653" y1="105.037" x2="324.445" y2="101.244"/>
<line x1="321.106" y1="88.5623" x2="324.898" y2="88.5623"/><line x1="323.002" y1="86.6662" x2="323.002" y2="90.4584"/><line x1="321.106" y1="86.6662" x2="324.898" y2="90.4584"/><line x1="321.106" y1="90.4584" x2="324.898" y2="86.6662"/>
<line x1="321.559" y1="87.8625" x2="325.351" y2="87.8625"/><line x1="323.455" y1="85.9664" x2="323.455" y2="89.7586"/><line x1="321.559" y1="85.9664" x2="325.351" y2="89.7586"/><line x1="321.559" y1="89.7586" x2="325.351" y2="85.9664"/>
<line x1="322.012" y1="87.5621" x2="325.804" y2="87.5621"/><line x1="323.908" y1="85.6661" x2="323.908" y2="89.4582"/><line x1="322.012" y1="85.6661" x2="325.804" y2="89.4582"/><line x1="322.012" y1="89.4582" x2="325.804" y2="85.6661"/>
<line x1="322.465" y1="109.584" x2="326.258" y2="109.584"/><line x1="324.362" y1="107.688" x2="324.362" y2="111.48"/><line x1="322.465" y1="107.688" x2="326.258" y2="111.48"/><line x1="322.465" y1="111.48" x2="326.258" y2="107.688"/>
<line x1="322.919" y1="95.4385" x2="326.711" y2="95.4385"/><line x1="324.815" y1="93.5424" x2="324.815" y2="97.3346"/><line x1="322.919" y1="93.5424" x2="326.711" y2="97.3346"/><line x1="322.919" y1="97.3346" x2="326.711" y2="93.5424"/>
<line x1="323.372" y1="98.1795" x2="327.164" y2="98.1795"/><line x1="325.268" y1="96.2834" x2="325.268" y2="100.076"/><line x1="323.372" y1="96.2834" x2="327.164" y2="100.076"/><line x1="323.372" y1="100.076" x2="327.164" y2="96.2834"/>
<line x1="323.825" y1="94.5863" x2="327.617" y2="94.5863"/><line x1="325.721" y1="92.6902" x2="325.721" y2="96.4824"/><line x1="323.825" y1="92.6902" x2="327.617" y2="96.4824"/><line x1="323.825" y1="96.4824" x2="327.617" y2="92.6902"/>
<line x1="324.278" y1="77.2123" x2="328.071" y2="77.2123"/><line x1="326.174" y1="75.3162" x2="326.174" y2="79.1084"/><line x1="324.278" y1="75.3162" x2="328.071" y2="79.1084"/><line x1="324.278" y1="79.1084" x2="328.071" y2="75.3162"/>
<line x1="324.732" y1="74.1539" x2="328.524" y2="74.1539"/><line x1="326.628" y1="72.2579" x2="326.628" y2="76.05"/><line x1="324.732" y1="72.2579" x2="328.524" y2="76.05"/><line x1="324.732" y1="76.05" x2="328.524" y2="72.2579"/>
<line x1="325.185" y1="79.6746" x2="328.977" y2="79.6746"/><line x1="327.081" y1="77.7785" x2="327.081" y2="81.5707"/><line x1="325.185" y1="77.7785" x2="328.977" y2="81.5707"/><line x1="325.185" y1="81.5707" x2="328.977" y2="77.7785"/>
<line x1="325.638" y1="95.033" x2="329.43" y2="95.033"/><line x1="327.534" y1="93.1369" x2="327.534" y2="96.929"/><line x1="325.638" y1="93.1369" x2="329.43" y2="96.929"/><line x1="325.638" y1="96.929" x2="329.43" y2="93.1369"/>
<line x1="326.091" y1="80.9642" x2="329.883" y2="80.9642"/><line x1="327.987" y1="79.0681" x2="327.987" y2="82.8603"/><line x1="326.091" y1="79.0681" x2="329.883" y2="82.8603"/><line x1="326.091" y1="82.8603" x2="329.883" y2="79.0681"/>
<line x1="326.545" y1="76.3418" x2="330.337" y2="76.3418"/><line x1="328.441" y1="74.4457" x2="328.441" y2="78.2379"/><line x1="326.545" y1="74.4457" x2="330.337" y2="78.2379"/><line x1="326.545" y1="78.2379" x2="330.337" y2="74.4457"/>
<line x1="326.998" y1="73.9684" x2="330.79" y2="73.9684"/><line x1="328.894" y1="72.0723" x2="328.894" y2="75.8645"/><line x1="326.998" y1="72.0723" x2="330.79" y2="75.8645"/><line x1="326.998" y1="75.8645" x2="330.79" y2="72.0723"/>
<line x1="327.451" y1="83.1782" x2="331.243" y2="83.1782"/><line x1="329.347" y1="81.2821" x2="329.347" y2="85.0742"/><line x1="327.451" y1="81.2821" x2="331.243" y2="85.0742"/><line x1="327.451" y1="85.0742" x2="331.243" y2="81.2821"/>
<line x1="327.904" y1="94.1324" x2="331.696" y2="94.1324"/><line x1="329.8" y1="92.2363" x2="329.8" y2="96.0285"/><line x1="327.904" y1="92.2363" x2="331.696" y2="96.0285"/><line x1="327.904" y1="96.0285" x2="331.696" y2="92.2363"/>
<line x1="328.357" y1="91.967" x2="332.15" y2="91.967"/><line x1="330.254" y1="90.0709" x2="330.254" y2="93.8631"/><line x1="328.357" y1="90.0709" x2="332.15" y2="93.8631"/><line x1="328.357" y1="93.8631" x2="332.15" y2="90.0709"/>
<line x1="328.811" y1="79.5299" x2="332.603" y2="79.5299"/><line x1="330.707" y1="77.6338" x2="330.707" y2="81.426"/><line x1="328.811" y1="77.6338" x2="332.603" y2="81.426"/><line x1="328.811" y1="81.426" x2="332.603" y2="77.6338"/>
<line x1="329.264" y1="79.5243" x2="333.056" y2="79.5243"/><line x1="331.16" y1="77.6283" x2="331.16" y2="81.4204"/><line x1="329.264" y1="77.6283" x2="333.056" y2="81.4204"/><line x1="329.264" y1="81.4204" x2="333.056" y2="77.6283"/>
<line x1="329.717" y1="94.881" x2="333.509" y2="94.881"/><line x1="331.613" y1="92.9849" x2="331.613" y2="96.7771"/><line x1="329.717" y1="92.9849" x2="333.509" y2="96.7771"/><line x1="329.717" y1="96.7771" x2="333.509" y2="92.9849"/>
<line x1="330.17" y1="88.1927" x2="333.962" y2="88.1927"/><line x1="332.066" y1="86.2966" x2="332.066" y2="90.0888"/><line x1="330.17" y1="86.2966" x2="333.962" y2="90.0888"/><line x1="330.17" y1="90.0888" x2="333.962" y2="86.2966"/>
<line x1="330.624" y1="88.3001" x2="334.416" y2="88.3001"/><line x1="332.52" y1="86.404" x2="332.52" y2="90.1962"/><line x1="330.624" y1="86.404" x2="334.416" y2="90.1962"/><line x1="330.624" y1="90.1962" x2="334.416" y2="86.404"/>
<line x1="331.077" y1="88.8873" x2="334.869" y2="88.8873"/><line x1="332.973" y1="86.9912" x2="332.973" y2="90.7834"/><line x1="331.077" y1="86.9912" x2="334.869" y2="90.7834"/><line x1="331.077" y1="90.7834" x2="334.869" y2="86.9912"/>
<line x1="331.53" y1="81.2671" x2="335.322" y2="81.2671"/><line x1="333.426" y1="79.371" x2="333.426" y2="83.1632"/><line x1="331.53" y1="79.371" x2="335.322" y2="83.1632"/><line x1="331.53" y1="83.1632" x2="335.322" y2="79.371"/>
<line x1="331.983" y1="77.9264" x2="335.775" y2="77.9264"/><line x1="333.879" y1="76.0303" x2="333.879" y2="79.8224"/><line x1="331.983" y1="76.0303" x2="335.775" y2="79.8224"/><line x1="331.983" y1="79.8224" x2="335.775" y2="76.0303"/>
<line x1="332.436" y1="75.5455" x2="336.229" y2="75.5455"/><line x1="334.333" y1="73.6494" x2="334.333" y2="77.4415"/><line x1="332.436" y1="73.6494" x2="336.229" y2="77.4415"/><line x1="332.436" y1="77.4415" x2="336.229" y2="73.6494"/>
<line x1="332.89" y1="51.4975" x2="336.682" y2="51.4975"/><line x1="334.786" y1="49.6014" x2="334.786" y2="53.3935"/><line x1="332.89" y1="49.6014" x2="336.682" y2="53.3935"/><line x1="332.89" y1="53.3935" x2="336.682" y2="49.6014"/>
</g>
<path d="M170.718,353.116h 226.613" fill="none" stroke="#0000ff"/>
<path d="M284.024,372.012v -47.2396" fill="none" stroke="#ff0000"/>
<rect x="57.1929" y="330.677" width="113.386" height="41.3346" fill="white"/>
<path d="M57.1929,372.012h 113.386" fill="none" stroke="black"/>
<path d="M170.579,372.012v -41.3346" fill="none" stroke="black"/>
<path d="M170.579,330.677h -113.386" fill="none" stroke="black"/>
<path d="M57.1929,330.677v 41.3346" fill="none" stroke="black"/>
<text xml:space="preserve" x="85.3498" y="354.568" fill="black" font-size="12.0704" font-family="Helvetica">#p.e of PMTs3</text>
<path d="M61.4449,351.344h 19.8425" fill="none" stroke="black"/></svg>
