<?xml version="1.0" standalone="no"?>
<svg width="567.429" height="413.846" viewBox="0 0 567.429 413.846" xmlns="http://www.w3.org/2000/svg" shape-rendering="crispEdges">
<title>
figures/chi2_0PMTnpedata190929-01.svg
</title>
<desc>
Creator: ROOT Version 6.18/02
CreationDate: Sun Sep 29 21:08:45 2019</desc>
<defs>
</defs>
<rect x="0.5" y="0" width="566.929" height="413.346" fill="white"/>
<rect x="57.1929" y="41.3346" width="453.543" height="330.677" fill="white"/>
<rect x="57.1929" y="41.3346" width="453.543" height="330.677" fill="none" stroke="black"/>
<path d="M57.1929,372.012h 453.543" fill="none" stroke="black"/>
<path d="M70.4303,41.3346v 330.677" fill="none" stroke="black" stroke-dasharray=" 1, 2"/>
<path d="M115.753,41.3346v 330.677" fill="none" stroke="black" stroke-dasharray=" 1, 2"/>
<path d="M161.076,41.3346v 330.677" fill="none" stroke="black" stroke-dasharray=" 1, 2"/>
<path d="M206.398,41.3346v 330.677" fill="none" stroke="black" stroke-dasharray=" 1, 2"/>
<path d="M251.721,41.3346v 330.677" fill="none" stroke="black" stroke-dasharray=" 1, 2"/>
<path d="M297.043,41.3346v 330.677" fill="none" stroke="black" stroke-dasharray=" 1, 2"/>
<path d="M342.366,41.3346v 330.677" fill="none" stroke="black" stroke-dasharray=" 1, 2"/>
<path d="M387.689,41.3346v 330.677" fill="none" stroke="black" stroke-dasharray=" 1, 2"/>
<path d="M433.011,41.3346v 330.677" fill="none" stroke="black" stroke-dasharray=" 1, 2"/>
<path d="M478.334,41.3346v 330.677" fill="none" stroke="black" stroke-dasharray=" 1, 2"/>
<path d="M70.4303,41.3346v 330.677" fill="none" stroke="black" stroke-dasharray=" 1, 2"/>
<path d="M478.334,41.3346v 330.677" fill="none" stroke="black" stroke-dasharray=" 1, 2"/>
<path d="M57.1929,372.012v -330.677" fill="none" stroke="black"/>
<path d="M510.736,347.008h -453.543" fill="none" stroke="black" stroke-dasharray=" 1, 2"/>
<path d="M510.736,284.022h -453.543" fill="none" stroke="black" stroke-dasharray=" 1, 2"/>
<path d="M510.736,221.036h -453.543" fill="none" stroke="black" stroke-dasharray=" 1, 2"/>
<path d="M510.736,158.05h -453.543" fill="none" stroke="black" stroke-dasharray=" 1, 2"/>
<path d="M510.736,95.0639h -453.543" fill="none" stroke="black" stroke-dasharray=" 1, 2"/>
<path d="M510.736,347.008h -453.543" fill="none" stroke="black" stroke-dasharray=" 1, 2"/>
<path d="M510.736,95.0639h -453.543" fill="none" stroke="black" stroke-dasharray=" 1, 2"/>
<path d="M57.1929,372.012h 453.543" fill="none" stroke="black"/>
<path d="M70.4303,362.091v 9.92031" fill="none" stroke="black"/>
<path d="M81.761,367.052v 4.96016" fill="none" stroke="black"/>
<path d="M93.0917,367.052v 4.96016" fill="none" stroke="black"/>
<path d="M104.422,367.052v 4.96016" fill="none" stroke="black"/>
<path d="M115.753,362.091v 9.92031" fill="none" stroke="black"/>
<path d="M127.084,367.052v 4.96016" fill="none" stroke="black"/>
<path d="M138.414,367.052v 4.96016" fill="none" stroke="black"/>
<path d="M149.745,367.052v 4.96016" fill="none" stroke="black"/>
<path d="M161.076,362.091v 9.92031" fill="none" stroke="black"/>
<path d="M172.406,367.052v 4.96016" fill="none" stroke="black"/>
<path d="M183.737,367.052v 4.96016" fill="none" stroke="black"/>
<path d="M195.068,367.052v 4.96016" fill="none" stroke="black"/>
<path d="M206.398,362.091v 9.92031" fill="none" stroke="black"/>
<path d="M217.729,367.052v 4.96016" fill="none" stroke="black"/>
<path d="M229.059,367.052v 4.96016" fill="none" stroke="black"/>
<path d="M240.39,367.052v 4.96016" fill="none" stroke="black"/>
<path d="M251.721,362.091v 9.92031" fill="none" stroke="black"/>
<path d="M263.051,367.052v 4.96016" fill="none" stroke="black"/>
<path d="M274.382,367.052v 4.96016" fill="none" stroke="black"/>
<path d="M285.713,367.052v 4.96016" fill="none" stroke="black"/>
<path d="M297.043,362.091v 9.92031" fill="none" stroke="black"/>
<path d="M308.374,367.052v 4.96016" fill="none" stroke="black"/>
<path d="M319.705,367.052v 4.96016" fill="none" stroke="black"/>
<path d="M331.035,367.052v 4.96016" fill="none" stroke="black"/>
<path d="M342.366,362.091v 9.92031" fill="none" stroke="black"/>
<path d="M353.697,367.052v 4.96016" fill="none" stroke="black"/>
<path d="M365.027,367.052v 4.96016" fill="none" stroke="black"/>
<path d="M376.358,367.052v 4.96016" fill="none" stroke="black"/>
<path d="M387.689,362.091v 9.92031" fill="none" stroke="black"/>
<path d="M399.019,367.052v 4.96016" fill="none" stroke="black"/>
<path d="M410.35,367.052v 4.96016" fill="none" stroke="black"/>
<path d="M421.681,367.052v 4.96016" fill="none" stroke="black"/>
<path d="M433.011,362.091v 9.92031" fill="none" stroke="black"/>
<path d="M444.342,367.052v 4.96016" fill="none" stroke="black"/>
<path d="M455.673,367.052v 4.96016" fill="none" stroke="black"/>
<path d="M467.003,367.052v 4.96016" fill="none" stroke="black"/>
<path d="M478.334,362.091v 9.92031" fill="none" stroke="black"/>
<path d="M70.4303,362.091v 9.92031" fill="none" stroke="black"/>
<path d="M59.0997,367.052v 4.96016" fill="none" stroke="black"/>
<path d="M478.334,362.091v 9.92031" fill="none" stroke="black"/>
<path d="M489.664,367.052v 4.96016" fill="none" stroke="black"/>
<path d="M500.995,367.052v 4.96016" fill="none" stroke="black"/>
<text xml:space="preserve" x="57.3825" y="385.379" fill="black" font-size="13.7726" font-family="Helvetica">1.02</text>
<text xml:space="preserve" x="102.889" y="385.379" fill="black" font-size="13.7726" font-family="Helvetica">1.04</text>
<text xml:space="preserve" x="147.921" y="385.379" fill="black" font-size="13.7726" font-family="Helvetica">1.06</text>
<text xml:space="preserve" x="193.427" y="385.379" fill="black" font-size="13.7726" font-family="Helvetica">1.08</text>
<text xml:space="preserve" x="243.199" y="385.379" fill="black" font-size="13.7726" font-family="Helvetica">1.1</text>
<text xml:space="preserve" x="283.965" y="385.379" fill="black" font-size="13.7726" font-family="Helvetica">1.12</text>
<text xml:space="preserve" x="329.471" y="385.379" fill="black" font-size="13.7726" font-family="Helvetica">1.14</text>
<text xml:space="preserve" x="374.503" y="385.379" fill="black" font-size="13.7726" font-family="Helvetica">1.16</text>
<text xml:space="preserve" x="420.009" y="385.379" fill="black" font-size="13.7726" font-family="Helvetica">1.18</text>
<text xml:space="preserve" x="469.307" y="385.379" fill="black" font-size="13.7726" font-family="Helvetica">1.2</text>
<text xml:space="preserve" x="413.372" y="400.074" fill="black" font-size="13.7726" font-family="Helvetica">calibration factor</text>
<path d="M57.1929,372.012v -330.677" fill="none" stroke="black"/>
<path d="M70.7992,347.008h -13.6063" fill="none" stroke="black"/>
<path d="M63.9961,331.262h -6.80315" fill="none" stroke="black"/>
<path d="M63.9961,315.515h -6.80315" fill="none" stroke="black"/>
<path d="M63.9961,299.769h -6.80315" fill="none" stroke="black"/>
<path d="M70.7992,284.022h -13.6063" fill="none" stroke="black"/>
<path d="M63.9961,268.276h -6.80315" fill="none" stroke="black"/>
<path d="M63.9961,252.529h -6.80315" fill="none" stroke="black"/>
<path d="M63.9961,236.783h -6.80315" fill="none" stroke="black"/>
<path d="M70.7992,221.036h -13.6063" fill="none" stroke="black"/>
<path d="M63.9961,205.29h -6.80315" fill="none" stroke="black"/>
<path d="M63.9961,189.543h -6.80315" fill="none" stroke="black"/>
<path d="M63.9961,173.797h -6.80315" fill="none" stroke="black"/>
<path d="M70.7992,158.05h -13.6063" fill="none" stroke="black"/>
<path d="M63.9961,142.304h -6.80315" fill="none" stroke="black"/>
<path d="M63.9961,126.557h -6.80315" fill="none" stroke="black"/>
<path d="M63.9961,110.81h -6.80315" fill="none" stroke="black"/>
<path d="M70.7992,95.0639h -13.6063" fill="none" stroke="black"/>
<path d="M70.7992,347.008h -13.6063" fill="none" stroke="black"/>
<path d="M63.9961,362.755h -6.80315" fill="none" stroke="black"/>
<path d="M70.7992,95.0639h -13.6063" fill="none" stroke="black"/>
<path d="M63.9961,79.3174h -6.80315" fill="none" stroke="black"/>
<path d="M63.9961,63.5709h -6.80315" fill="none" stroke="black"/>
<path d="M63.9961,47.8244h -6.80315" fill="none" stroke="black"/>
<text xml:space="preserve" x="25.1491" y="351.724" fill="black" font-size="13.7726" font-family="Helvetica">2220</text>
<text xml:space="preserve" x="25.1491" y="288.679" fill="black" font-size="13.7726" font-family="Helvetica">2240</text>
<text xml:space="preserve" x="25.1491" y="225.634" fill="black" font-size="13.7726" font-family="Helvetica">2260</text>
<text xml:space="preserve" x="25.1491" y="162.589" fill="black" font-size="13.7726" font-family="Helvetica">2280</text>
<text xml:space="preserve" x="25.1491" y="99.5444" fill="black" font-size="13.7726" font-family="Helvetica">2300</text>
<g transform="rotate(-90,8.08434,45.98)">
<text xml:space="preserve" x="8.08434" y="45.98" fill="black" font-size="9.34839" font-family="Helvetica">2</text>
</g>
<g transform="rotate(-90,12.3505,50.2462)">
<text xml:space="preserve" x="12.3505" y="50.2462" fill="black" font-size="13.7726" font-family="Helvetica"> </text>
</g>
<g transform="rotate(-90,12.3505,57.3565)">
<text xml:space="preserve" x="12.3505" y="57.3565" fill="black" font-size="13.7726" font-family="Times">&#0967;</text>
</g>
<g stroke="black" stroke-width="1" fill="none">
<line x1="190.452" y1="50.6822" x2="194.244" y2="50.6822"/><line x1="192.348" y1="48.7861" x2="192.348" y2="52.5783"/><line x1="190.452" y1="48.7861" x2="194.244" y2="52.5783"/><line x1="190.452" y1="52.5783" x2="194.244" y2="48.7861"/>
<line x1="190.905" y1="42.6431" x2="194.697" y2="42.6431"/><line x1="192.801" y1="40.747" x2="192.801" y2="44.5392"/><line x1="190.905" y1="40.747" x2="194.697" y2="44.5392"/><line x1="190.905" y1="44.5392" x2="194.697" y2="40.747"/>
<line x1="191.359" y1="44.667" x2="195.151" y2="44.667"/><line x1="193.255" y1="42.771" x2="193.255" y2="46.5631"/><line x1="191.359" y1="42.771" x2="195.151" y2="46.5631"/><line x1="191.359" y1="46.5631" x2="195.151" y2="42.771"/>
<line x1="191.812" y1="46.842" x2="195.604" y2="46.842"/><line x1="193.708" y1="44.9459" x2="193.708" y2="48.7381"/><line x1="191.812" y1="44.9459" x2="195.604" y2="48.7381"/><line x1="191.812" y1="48.7381" x2="195.604" y2="44.9459"/>
</g>
<g stroke="black" stroke-width="1" fill="none">
<line x1="192.718" y1="41.8051" x2="196.51" y2="41.8051"/><line x1="194.614" y1="39.909" x2="194.614" y2="43.7011"/><line x1="192.718" y1="39.909" x2="196.51" y2="43.7011"/><line x1="192.718" y1="43.7011" x2="196.51" y2="39.909"/>
<line x1="193.171" y1="48.2973" x2="196.964" y2="48.2973"/><line x1="195.068" y1="46.4012" x2="195.068" y2="50.1934"/><line x1="193.171" y1="46.4012" x2="196.964" y2="50.1934"/><line x1="193.171" y1="50.1934" x2="196.964" y2="46.4012"/>
<line x1="193.625" y1="61.0532" x2="197.417" y2="61.0532"/><line x1="195.521" y1="59.1571" x2="195.521" y2="62.9493"/><line x1="193.625" y1="59.1571" x2="197.417" y2="62.9493"/><line x1="193.625" y1="62.9493" x2="197.417" y2="59.1571"/>
<line x1="194.078" y1="46.5287" x2="197.87" y2="46.5287"/><line x1="195.974" y1="44.6327" x2="195.974" y2="48.4248"/><line x1="194.078" y1="44.6327" x2="197.87" y2="48.4248"/><line x1="194.078" y1="48.4248" x2="197.87" y2="44.6327"/>
<line x1="194.531" y1="58.4114" x2="198.323" y2="58.4114"/><line x1="196.427" y1="56.5153" x2="196.427" y2="60.3075"/><line x1="194.531" y1="56.5153" x2="198.323" y2="60.3075"/><line x1="194.531" y1="60.3075" x2="198.323" y2="56.5153"/>
<line x1="194.984" y1="64.4478" x2="198.777" y2="64.4478"/><line x1="196.88" y1="62.5517" x2="196.88" y2="66.3438"/><line x1="194.984" y1="62.5517" x2="198.777" y2="66.3438"/><line x1="194.984" y1="66.3438" x2="198.777" y2="62.5517"/>
<line x1="195.438" y1="72.0647" x2="199.23" y2="72.0647"/><line x1="197.334" y1="70.1686" x2="197.334" y2="73.9608"/><line x1="195.438" y1="70.1686" x2="199.23" y2="73.9608"/><line x1="195.438" y1="73.9608" x2="199.23" y2="70.1686"/>
<line x1="195.891" y1="67.2165" x2="199.683" y2="67.2165"/><line x1="197.787" y1="65.3204" x2="197.787" y2="69.1126"/><line x1="195.891" y1="65.3204" x2="199.683" y2="69.1126"/><line x1="195.891" y1="69.1126" x2="199.683" y2="65.3204"/>
<line x1="196.344" y1="61.4482" x2="200.136" y2="61.4482"/><line x1="198.24" y1="59.5521" x2="198.24" y2="63.3442"/><line x1="196.344" y1="59.5521" x2="200.136" y2="63.3442"/><line x1="196.344" y1="63.3442" x2="200.136" y2="59.5521"/>
<line x1="196.797" y1="71.3264" x2="200.589" y2="71.3264"/><line x1="198.693" y1="69.4303" x2="198.693" y2="73.2225"/><line x1="196.797" y1="69.4303" x2="200.589" y2="73.2225"/><line x1="196.797" y1="73.2225" x2="200.589" y2="69.4303"/>
<line x1="197.25" y1="81.2791" x2="201.043" y2="81.2791"/><line x1="199.147" y1="79.383" x2="199.147" y2="83.1752"/><line x1="197.25" y1="79.383" x2="201.043" y2="83.1752"/><line x1="197.25" y1="83.1752" x2="201.043" y2="79.383"/>
<line x1="197.704" y1="61.9605" x2="201.496" y2="61.9605"/><line x1="199.6" y1="60.0644" x2="199.6" y2="63.8566"/><line x1="197.704" y1="60.0644" x2="201.496" y2="63.8566"/><line x1="197.704" y1="63.8566" x2="201.496" y2="60.0644"/>
<line x1="198.157" y1="78.091" x2="201.949" y2="78.091"/><line x1="200.053" y1="76.1949" x2="200.053" y2="79.9871"/><line x1="198.157" y1="76.1949" x2="201.949" y2="79.9871"/><line x1="198.157" y1="79.9871" x2="201.949" y2="76.1949"/>
<line x1="198.61" y1="80.7296" x2="202.402" y2="80.7296"/><line x1="200.506" y1="78.8335" x2="200.506" y2="82.6257"/><line x1="198.61" y1="78.8335" x2="202.402" y2="82.6257"/><line x1="198.61" y1="82.6257" x2="202.402" y2="78.8335"/>
<line x1="199.063" y1="79.8193" x2="202.856" y2="79.8193"/><line x1="200.959" y1="77.9232" x2="200.959" y2="81.7154"/><line x1="199.063" y1="77.9232" x2="202.856" y2="81.7154"/><line x1="199.063" y1="81.7154" x2="202.856" y2="77.9232"/>
<line x1="199.517" y1="81.141" x2="203.309" y2="81.141"/><line x1="201.413" y1="79.2449" x2="201.413" y2="83.0371"/><line x1="199.517" y1="79.2449" x2="203.309" y2="83.0371"/><line x1="199.517" y1="83.0371" x2="203.309" y2="79.2449"/>
<line x1="199.97" y1="79.6051" x2="203.762" y2="79.6051"/><line x1="201.866" y1="77.709" x2="201.866" y2="81.5012"/><line x1="199.97" y1="77.709" x2="203.762" y2="81.5012"/><line x1="199.97" y1="81.5012" x2="203.762" y2="77.709"/>
<line x1="200.423" y1="87.6121" x2="204.215" y2="87.6121"/><line x1="202.319" y1="85.716" x2="202.319" y2="89.5082"/><line x1="200.423" y1="85.716" x2="204.215" y2="89.5082"/><line x1="200.423" y1="89.5082" x2="204.215" y2="85.716"/>
<line x1="200.876" y1="99.6302" x2="204.668" y2="99.6302"/><line x1="202.772" y1="97.7341" x2="202.772" y2="101.526"/><line x1="200.876" y1="97.7341" x2="204.668" y2="101.526"/><line x1="200.876" y1="101.526" x2="204.668" y2="97.7341"/>
<line x1="201.329" y1="106.915" x2="205.122" y2="106.915"/><line x1="203.226" y1="105.019" x2="203.226" y2="108.811"/><line x1="201.329" y1="105.019" x2="205.122" y2="108.811"/><line x1="201.329" y1="108.811" x2="205.122" y2="105.019"/>
<line x1="201.783" y1="88.5142" x2="205.575" y2="88.5142"/><line x1="203.679" y1="86.6181" x2="203.679" y2="90.4103"/><line x1="201.783" y1="86.6181" x2="205.575" y2="90.4103"/><line x1="201.783" y1="90.4103" x2="205.575" y2="86.6181"/>
<line x1="202.236" y1="97.0626" x2="206.028" y2="97.0626"/><line x1="204.132" y1="95.1665" x2="204.132" y2="98.9587"/><line x1="202.236" y1="95.1665" x2="206.028" y2="98.9587"/><line x1="202.236" y1="98.9587" x2="206.028" y2="95.1665"/>
<line x1="202.689" y1="109.439" x2="206.481" y2="109.439"/><line x1="204.585" y1="107.543" x2="204.585" y2="111.336"/><line x1="202.689" y1="107.543" x2="206.481" y2="111.336"/><line x1="202.689" y1="111.336" x2="206.481" y2="107.543"/>
<line x1="203.142" y1="108.715" x2="206.935" y2="108.715"/><line x1="205.038" y1="106.819" x2="205.038" y2="110.611"/><line x1="203.142" y1="106.819" x2="206.935" y2="110.611"/><line x1="203.142" y1="110.611" x2="206.935" y2="106.819"/>
<line x1="203.596" y1="120.57" x2="207.388" y2="120.57"/><line x1="205.492" y1="118.674" x2="205.492" y2="122.467"/><line x1="203.596" y1="118.674" x2="207.388" y2="122.467"/><line x1="203.596" y1="122.467" x2="207.388" y2="118.674"/>
<line x1="204.049" y1="122.141" x2="207.841" y2="122.141"/><line x1="205.945" y1="120.244" x2="205.945" y2="124.037"/><line x1="204.049" y1="120.244" x2="207.841" y2="124.037"/><line x1="204.049" y1="124.037" x2="207.841" y2="120.244"/>
<line x1="204.502" y1="130.4" x2="208.294" y2="130.4"/><line x1="206.398" y1="128.504" x2="206.398" y2="132.296"/><line x1="204.502" y1="128.504" x2="208.294" y2="132.296"/><line x1="204.502" y1="132.296" x2="208.294" y2="128.504"/>
<line x1="204.955" y1="116.615" x2="208.747" y2="116.615"/><line x1="206.851" y1="114.719" x2="206.851" y2="118.511"/><line x1="204.955" y1="114.719" x2="208.747" y2="118.511"/><line x1="204.955" y1="118.511" x2="208.747" y2="114.719"/>
<line x1="205.409" y1="106.757" x2="209.201" y2="106.757"/><line x1="207.305" y1="104.861" x2="207.305" y2="108.653"/><line x1="205.409" y1="104.861" x2="209.201" y2="108.653"/><line x1="205.409" y1="108.653" x2="209.201" y2="104.861"/>
<line x1="205.862" y1="117.458" x2="209.654" y2="117.458"/><line x1="207.758" y1="115.562" x2="207.758" y2="119.354"/><line x1="205.862" y1="115.562" x2="209.654" y2="119.354"/><line x1="205.862" y1="119.354" x2="209.654" y2="115.562"/>
<line x1="206.315" y1="107.984" x2="210.107" y2="107.984"/><line x1="208.211" y1="106.088" x2="208.211" y2="109.88"/><line x1="206.315" y1="106.088" x2="210.107" y2="109.88"/><line x1="206.315" y1="109.88" x2="210.107" y2="106.088"/>
<line x1="206.768" y1="104.62" x2="210.56" y2="104.62"/><line x1="208.664" y1="102.724" x2="208.664" y2="106.516"/><line x1="206.768" y1="102.724" x2="210.56" y2="106.516"/><line x1="206.768" y1="106.516" x2="210.56" y2="102.724"/>
<line x1="207.221" y1="95.457" x2="211.014" y2="95.457"/><line x1="209.118" y1="93.561" x2="209.118" y2="97.3531"/><line x1="207.221" y1="93.561" x2="211.014" y2="97.3531"/><line x1="207.221" y1="97.3531" x2="211.014" y2="93.561"/>
<line x1="207.675" y1="81.7417" x2="211.467" y2="81.7417"/><line x1="209.571" y1="79.8457" x2="209.571" y2="83.6378"/><line x1="207.675" y1="79.8457" x2="211.467" y2="83.6378"/><line x1="207.675" y1="83.6378" x2="211.467" y2="79.8457"/>
<line x1="208.128" y1="87.556" x2="211.92" y2="87.556"/><line x1="210.024" y1="85.6599" x2="210.024" y2="89.4521"/><line x1="208.128" y1="85.6599" x2="211.92" y2="89.4521"/><line x1="208.128" y1="89.4521" x2="211.92" y2="85.6599"/>
<line x1="208.581" y1="105.115" x2="212.373" y2="105.115"/><line x1="210.477" y1="103.219" x2="210.477" y2="107.011"/><line x1="208.581" y1="103.219" x2="212.373" y2="107.011"/><line x1="208.581" y1="107.011" x2="212.373" y2="103.219"/>
<line x1="209.034" y1="101.569" x2="212.827" y2="101.569"/><line x1="210.93" y1="99.6733" x2="210.93" y2="103.465"/><line x1="209.034" y1="99.6733" x2="212.827" y2="103.465"/><line x1="209.034" y1="103.465" x2="212.827" y2="99.6733"/>
<line x1="209.488" y1="90.6673" x2="213.28" y2="90.6673"/><line x1="211.384" y1="88.7712" x2="211.384" y2="92.5634"/><line x1="209.488" y1="88.7712" x2="213.28" y2="92.5634"/><line x1="209.488" y1="92.5634" x2="213.28" y2="88.7712"/>
<line x1="209.941" y1="83.7221" x2="213.733" y2="83.7221"/><line x1="211.837" y1="81.826" x2="211.837" y2="85.6181"/><line x1="209.941" y1="81.826" x2="213.733" y2="85.6181"/><line x1="209.941" y1="85.6181" x2="213.733" y2="81.826"/>
<line x1="210.394" y1="100.409" x2="214.186" y2="100.409"/><line x1="212.29" y1="98.513" x2="212.29" y2="102.305"/><line x1="210.394" y1="98.513" x2="214.186" y2="102.305"/><line x1="210.394" y1="102.305" x2="214.186" y2="98.513"/>
<line x1="210.847" y1="107.099" x2="214.639" y2="107.099"/><line x1="212.743" y1="105.203" x2="212.743" y2="108.995"/><line x1="210.847" y1="105.203" x2="214.639" y2="108.995"/><line x1="210.847" y1="108.995" x2="214.639" y2="105.203"/>
<line x1="211.3" y1="90.6175" x2="215.093" y2="90.6175"/><line x1="213.197" y1="88.7214" x2="213.197" y2="92.5136"/><line x1="211.3" y1="88.7214" x2="215.093" y2="92.5136"/><line x1="211.3" y1="92.5136" x2="215.093" y2="88.7214"/>
<line x1="211.754" y1="89.1823" x2="215.546" y2="89.1823"/><line x1="213.65" y1="87.2862" x2="213.65" y2="91.0784"/><line x1="211.754" y1="87.2862" x2="215.546" y2="91.0784"/><line x1="211.754" y1="91.0784" x2="215.546" y2="87.2862"/>
<line x1="212.207" y1="82.8571" x2="215.999" y2="82.8571"/><line x1="214.103" y1="80.961" x2="214.103" y2="84.7531"/><line x1="212.207" y1="80.961" x2="215.999" y2="84.7531"/><line x1="212.207" y1="84.7531" x2="215.999" y2="80.961"/>
<line x1="212.66" y1="81.6996" x2="216.452" y2="81.6996"/><line x1="214.556" y1="79.8035" x2="214.556" y2="83.5957"/><line x1="212.66" y1="79.8035" x2="216.452" y2="83.5957"/><line x1="212.66" y1="83.5957" x2="216.452" y2="79.8035"/>
<line x1="213.113" y1="82.6065" x2="216.906" y2="82.6065"/><line x1="215.009" y1="80.7104" x2="215.009" y2="84.5025"/><line x1="213.113" y1="80.7104" x2="216.906" y2="84.5025"/><line x1="213.113" y1="84.5025" x2="216.906" y2="80.7104"/>
<line x1="213.567" y1="75.2276" x2="217.359" y2="75.2276"/><line x1="215.463" y1="73.3315" x2="215.463" y2="77.1237"/><line x1="213.567" y1="73.3315" x2="217.359" y2="77.1237"/><line x1="213.567" y1="77.1237" x2="217.359" y2="73.3315"/>
<line x1="214.02" y1="72.9982" x2="217.812" y2="72.9982"/><line x1="215.916" y1="71.1021" x2="215.916" y2="74.8943"/><line x1="214.02" y1="71.1021" x2="217.812" y2="74.8943"/><line x1="214.02" y1="74.8943" x2="217.812" y2="71.1021"/>
<line x1="214.473" y1="94.599" x2="218.265" y2="94.599"/><line x1="216.369" y1="92.7029" x2="216.369" y2="96.4951"/><line x1="214.473" y1="92.7029" x2="218.265" y2="96.4951"/><line x1="214.473" y1="96.4951" x2="218.265" y2="92.7029"/>
<line x1="214.926" y1="116.648" x2="218.718" y2="116.648"/><line x1="216.822" y1="114.752" x2="216.822" y2="118.544"/><line x1="214.926" y1="114.752" x2="218.718" y2="118.544"/><line x1="214.926" y1="118.544" x2="218.718" y2="114.752"/>
<line x1="215.38" y1="109.94" x2="219.172" y2="109.94"/><line x1="217.276" y1="108.044" x2="217.276" y2="111.836"/><line x1="215.38" y1="108.044" x2="219.172" y2="111.836"/><line x1="215.38" y1="111.836" x2="219.172" y2="108.044"/>
<line x1="215.833" y1="117.221" x2="219.625" y2="117.221"/><line x1="217.729" y1="115.325" x2="217.729" y2="119.117"/><line x1="215.833" y1="115.325" x2="219.625" y2="119.117"/><line x1="215.833" y1="119.117" x2="219.625" y2="115.325"/>
<line x1="216.286" y1="111.294" x2="220.078" y2="111.294"/><line x1="218.182" y1="109.398" x2="218.182" y2="113.19"/><line x1="216.286" y1="109.398" x2="220.078" y2="113.19"/><line x1="216.286" y1="113.19" x2="220.078" y2="109.398"/>
<line x1="216.739" y1="106.132" x2="220.531" y2="106.132"/><line x1="218.635" y1="104.236" x2="218.635" y2="108.028"/><line x1="216.739" y1="104.236" x2="220.531" y2="108.028"/><line x1="216.739" y1="108.028" x2="220.531" y2="104.236"/>
<line x1="217.192" y1="110.508" x2="220.985" y2="110.508"/><line x1="219.089" y1="108.611" x2="219.089" y2="112.404"/><line x1="217.192" y1="108.611" x2="220.985" y2="112.404"/><line x1="217.192" y1="112.404" x2="220.985" y2="108.611"/>
<line x1="217.646" y1="106.725" x2="221.438" y2="106.725"/><line x1="219.542" y1="104.829" x2="219.542" y2="108.621"/><line x1="217.646" y1="104.829" x2="221.438" y2="108.621"/><line x1="217.646" y1="108.621" x2="221.438" y2="104.829"/>
<line x1="218.099" y1="125.198" x2="221.891" y2="125.198"/><line x1="219.995" y1="123.302" x2="219.995" y2="127.094"/><line x1="218.099" y1="123.302" x2="221.891" y2="127.094"/><line x1="218.099" y1="127.094" x2="221.891" y2="123.302"/>
<line x1="218.552" y1="127.096" x2="222.344" y2="127.096"/><line x1="220.448" y1="125.2" x2="220.448" y2="128.993"/><line x1="218.552" y1="125.2" x2="222.344" y2="128.993"/><line x1="218.552" y1="128.993" x2="222.344" y2="125.2"/>
<line x1="219.005" y1="114.246" x2="222.797" y2="114.246"/><line x1="220.901" y1="112.35" x2="220.901" y2="116.142"/><line x1="219.005" y1="112.35" x2="222.797" y2="116.142"/><line x1="219.005" y1="116.142" x2="222.797" y2="112.35"/>
<line x1="219.459" y1="123.028" x2="223.251" y2="123.028"/><line x1="221.355" y1="121.132" x2="221.355" y2="124.924"/><line x1="219.459" y1="121.132" x2="223.251" y2="124.924"/><line x1="219.459" y1="124.924" x2="223.251" y2="121.132"/>
<line x1="219.912" y1="128.347" x2="223.704" y2="128.347"/><line x1="221.808" y1="126.45" x2="221.808" y2="130.243"/><line x1="219.912" y1="126.45" x2="223.704" y2="130.243"/><line x1="219.912" y1="130.243" x2="223.704" y2="126.45"/>
<line x1="220.365" y1="141.47" x2="224.157" y2="141.47"/><line x1="222.261" y1="139.574" x2="222.261" y2="143.366"/><line x1="220.365" y1="139.574" x2="224.157" y2="143.366"/><line x1="220.365" y1="143.366" x2="224.157" y2="139.574"/>
<line x1="220.818" y1="134.902" x2="224.61" y2="134.902"/><line x1="222.714" y1="133.006" x2="222.714" y2="136.798"/><line x1="220.818" y1="133.006" x2="224.61" y2="136.798"/><line x1="220.818" y1="136.798" x2="224.61" y2="133.006"/>
<line x1="221.271" y1="168.254" x2="225.064" y2="168.254"/><line x1="223.168" y1="166.358" x2="223.168" y2="170.15"/><line x1="221.271" y1="166.358" x2="225.064" y2="170.15"/><line x1="221.271" y1="170.15" x2="225.064" y2="166.358"/>
<line x1="221.725" y1="166.853" x2="225.517" y2="166.853"/><line x1="223.621" y1="164.957" x2="223.621" y2="168.749"/><line x1="221.725" y1="164.957" x2="225.517" y2="168.749"/><line x1="221.725" y1="168.749" x2="225.517" y2="164.957"/>
<line x1="222.178" y1="165.266" x2="225.97" y2="165.266"/><line x1="224.074" y1="163.369" x2="224.074" y2="167.162"/><line x1="222.178" y1="163.369" x2="225.97" y2="167.162"/><line x1="222.178" y1="167.162" x2="225.97" y2="163.369"/>
<line x1="222.631" y1="175.264" x2="226.423" y2="175.264"/><line x1="224.527" y1="173.368" x2="224.527" y2="177.16"/><line x1="222.631" y1="173.368" x2="226.423" y2="177.16"/><line x1="222.631" y1="177.16" x2="226.423" y2="173.368"/>
<line x1="223.084" y1="179.976" x2="226.877" y2="179.976"/><line x1="224.98" y1="178.08" x2="224.98" y2="181.872"/><line x1="223.084" y1="178.08" x2="226.877" y2="181.872"/><line x1="223.084" y1="181.872" x2="226.877" y2="178.08"/>
<line x1="223.538" y1="202.194" x2="227.33" y2="202.194"/><line x1="225.434" y1="200.297" x2="225.434" y2="204.09"/><line x1="223.538" y1="200.297" x2="227.33" y2="204.09"/><line x1="223.538" y1="204.09" x2="227.33" y2="200.297"/>
<line x1="223.991" y1="219.486" x2="227.783" y2="219.486"/><line x1="225.887" y1="217.59" x2="225.887" y2="221.382"/><line x1="223.991" y1="217.59" x2="227.783" y2="221.382"/><line x1="223.991" y1="221.382" x2="227.783" y2="217.59"/>
<line x1="224.444" y1="237.969" x2="228.236" y2="237.969"/><line x1="226.34" y1="236.072" x2="226.34" y2="239.865"/><line x1="224.444" y1="236.072" x2="228.236" y2="239.865"/><line x1="224.444" y1="239.865" x2="228.236" y2="236.072"/>
<line x1="224.897" y1="226.513" x2="228.689" y2="226.513"/><line x1="226.793" y1="224.617" x2="226.793" y2="228.409"/><line x1="224.897" y1="224.617" x2="228.689" y2="228.409"/><line x1="224.897" y1="228.409" x2="228.689" y2="224.617"/>
<line x1="225.35" y1="225.387" x2="229.143" y2="225.387"/><line x1="227.247" y1="223.491" x2="227.247" y2="227.283"/><line x1="225.35" y1="223.491" x2="229.143" y2="227.283"/><line x1="225.35" y1="227.283" x2="229.143" y2="223.491"/>
<line x1="225.804" y1="234.403" x2="229.596" y2="234.403"/><line x1="227.7" y1="232.507" x2="227.7" y2="236.299"/><line x1="225.804" y1="232.507" x2="229.596" y2="236.299"/><line x1="225.804" y1="236.299" x2="229.596" y2="232.507"/>
<line x1="226.257" y1="224.071" x2="230.049" y2="224.071"/><line x1="228.153" y1="222.175" x2="228.153" y2="225.967"/><line x1="226.257" y1="222.175" x2="230.049" y2="225.967"/><line x1="226.257" y1="225.967" x2="230.049" y2="222.175"/>
<line x1="226.71" y1="227.276" x2="230.502" y2="227.276"/><line x1="228.606" y1="225.38" x2="228.606" y2="229.172"/><line x1="226.71" y1="225.38" x2="230.502" y2="229.172"/><line x1="226.71" y1="229.172" x2="230.502" y2="225.38"/>
<line x1="227.163" y1="220.773" x2="230.956" y2="220.773"/><line x1="229.059" y1="218.877" x2="229.059" y2="222.67"/><line x1="227.163" y1="218.877" x2="230.956" y2="222.67"/><line x1="227.163" y1="222.67" x2="230.956" y2="218.877"/>
<line x1="227.617" y1="221.245" x2="231.409" y2="221.245"/><line x1="229.513" y1="219.349" x2="229.513" y2="223.141"/><line x1="227.617" y1="219.349" x2="231.409" y2="223.141"/><line x1="227.617" y1="223.141" x2="231.409" y2="219.349"/>
<line x1="228.07" y1="223.616" x2="231.862" y2="223.616"/><line x1="229.966" y1="221.72" x2="229.966" y2="225.512"/><line x1="228.07" y1="221.72" x2="231.862" y2="225.512"/><line x1="228.07" y1="225.512" x2="231.862" y2="221.72"/>
<line x1="228.523" y1="209.727" x2="232.315" y2="209.727"/><line x1="230.419" y1="207.831" x2="230.419" y2="211.623"/><line x1="228.523" y1="207.831" x2="232.315" y2="211.623"/><line x1="228.523" y1="211.623" x2="232.315" y2="207.831"/>
<line x1="228.976" y1="225.287" x2="232.768" y2="225.287"/><line x1="230.872" y1="223.391" x2="230.872" y2="227.183"/><line x1="228.976" y1="223.391" x2="232.768" y2="227.183"/><line x1="228.976" y1="227.183" x2="232.768" y2="223.391"/>
<line x1="229.43" y1="237.965" x2="233.222" y2="237.965"/><line x1="231.326" y1="236.069" x2="231.326" y2="239.861"/><line x1="229.43" y1="236.069" x2="233.222" y2="239.861"/><line x1="229.43" y1="239.861" x2="233.222" y2="236.069"/>
<line x1="229.883" y1="241.07" x2="233.675" y2="241.07"/><line x1="231.779" y1="239.174" x2="231.779" y2="242.966"/><line x1="229.883" y1="239.174" x2="233.675" y2="242.966"/><line x1="229.883" y1="242.966" x2="233.675" y2="239.174"/>
<line x1="230.336" y1="242.647" x2="234.128" y2="242.647"/><line x1="232.232" y1="240.751" x2="232.232" y2="244.543"/><line x1="230.336" y1="240.751" x2="234.128" y2="244.543"/><line x1="230.336" y1="244.543" x2="234.128" y2="240.751"/>
<line x1="230.789" y1="243.975" x2="234.581" y2="243.975"/><line x1="232.685" y1="242.079" x2="232.685" y2="245.871"/><line x1="230.789" y1="242.079" x2="234.581" y2="245.871"/><line x1="230.789" y1="245.871" x2="234.581" y2="242.079"/>
<line x1="231.242" y1="232.237" x2="235.035" y2="232.237"/><line x1="233.139" y1="230.341" x2="233.139" y2="234.133"/><line x1="231.242" y1="230.341" x2="235.035" y2="234.133"/><line x1="231.242" y1="234.133" x2="235.035" y2="230.341"/>
<line x1="231.696" y1="219.253" x2="235.488" y2="219.253"/><line x1="233.592" y1="217.357" x2="233.592" y2="221.149"/><line x1="231.696" y1="217.357" x2="235.488" y2="221.149"/><line x1="231.696" y1="221.149" x2="235.488" y2="217.357"/>
<line x1="232.149" y1="206.474" x2="235.941" y2="206.474"/><line x1="234.045" y1="204.578" x2="234.045" y2="208.37"/><line x1="232.149" y1="204.578" x2="235.941" y2="208.37"/><line x1="232.149" y1="208.37" x2="235.941" y2="204.578"/>
<line x1="232.602" y1="217.53" x2="236.394" y2="217.53"/><line x1="234.498" y1="215.634" x2="234.498" y2="219.426"/><line x1="232.602" y1="215.634" x2="236.394" y2="219.426"/><line x1="232.602" y1="219.426" x2="236.394" y2="215.634"/>
<line x1="233.055" y1="217.826" x2="236.847" y2="217.826"/><line x1="234.951" y1="215.93" x2="234.951" y2="219.722"/><line x1="233.055" y1="215.93" x2="236.847" y2="219.722"/><line x1="233.055" y1="219.722" x2="236.847" y2="215.93"/>
<line x1="233.509" y1="223.599" x2="237.301" y2="223.599"/><line x1="235.405" y1="221.703" x2="235.405" y2="225.495"/><line x1="233.509" y1="221.703" x2="237.301" y2="225.495"/><line x1="233.509" y1="225.495" x2="237.301" y2="221.703"/>
<line x1="233.962" y1="211.417" x2="237.754" y2="211.417"/><line x1="235.858" y1="209.521" x2="235.858" y2="213.313"/><line x1="233.962" y1="209.521" x2="237.754" y2="213.313"/><line x1="233.962" y1="213.313" x2="237.754" y2="209.521"/>
<line x1="234.415" y1="242.208" x2="238.207" y2="242.208"/><line x1="236.311" y1="240.312" x2="236.311" y2="244.104"/><line x1="234.415" y1="240.312" x2="238.207" y2="244.104"/><line x1="234.415" y1="244.104" x2="238.207" y2="240.312"/>
<line x1="234.868" y1="222.337" x2="238.66" y2="222.337"/><line x1="236.764" y1="220.441" x2="236.764" y2="224.233"/><line x1="234.868" y1="220.441" x2="238.66" y2="224.233"/><line x1="234.868" y1="224.233" x2="238.66" y2="220.441"/>
<line x1="235.321" y1="236.866" x2="239.114" y2="236.866"/><line x1="237.218" y1="234.97" x2="237.218" y2="238.762"/><line x1="235.321" y1="234.97" x2="239.114" y2="238.762"/><line x1="235.321" y1="238.762" x2="239.114" y2="234.97"/>
<line x1="235.775" y1="253.97" x2="239.567" y2="253.97"/><line x1="237.671" y1="252.073" x2="237.671" y2="255.866"/><line x1="235.775" y1="252.073" x2="239.567" y2="255.866"/><line x1="235.775" y1="255.866" x2="239.567" y2="252.073"/>
<line x1="236.228" y1="258.314" x2="240.02" y2="258.314"/><line x1="238.124" y1="256.418" x2="238.124" y2="260.21"/><line x1="236.228" y1="256.418" x2="240.02" y2="260.21"/><line x1="236.228" y1="260.21" x2="240.02" y2="256.418"/>
<line x1="236.681" y1="252.189" x2="240.473" y2="252.189"/><line x1="238.577" y1="250.293" x2="238.577" y2="254.085"/><line x1="236.681" y1="250.293" x2="240.473" y2="254.085"/><line x1="236.681" y1="254.085" x2="240.473" y2="250.293"/>
<line x1="237.134" y1="259.184" x2="240.927" y2="259.184"/><line x1="239.03" y1="257.288" x2="239.03" y2="261.08"/><line x1="237.134" y1="257.288" x2="240.927" y2="261.08"/><line x1="237.134" y1="261.08" x2="240.927" y2="257.288"/>
<line x1="237.588" y1="254.296" x2="241.38" y2="254.296"/><line x1="239.484" y1="252.399" x2="239.484" y2="256.192"/><line x1="237.588" y1="252.399" x2="241.38" y2="256.192"/><line x1="237.588" y1="256.192" x2="241.38" y2="252.399"/>
<line x1="238.041" y1="262.956" x2="241.833" y2="262.956"/><line x1="239.937" y1="261.06" x2="239.937" y2="264.852"/><line x1="238.041" y1="261.06" x2="241.833" y2="264.852"/><line x1="238.041" y1="264.852" x2="241.833" y2="261.06"/>
<line x1="238.494" y1="247.923" x2="242.286" y2="247.923"/><line x1="240.39" y1="246.027" x2="240.39" y2="249.819"/><line x1="238.494" y1="246.027" x2="242.286" y2="249.819"/><line x1="238.494" y1="249.819" x2="242.286" y2="246.027"/>
<line x1="238.947" y1="244.405" x2="242.739" y2="244.405"/><line x1="240.843" y1="242.509" x2="240.843" y2="246.302"/><line x1="238.947" y1="242.509" x2="242.739" y2="246.302"/><line x1="238.947" y1="246.302" x2="242.739" y2="242.509"/>
<line x1="239.4" y1="252.673" x2="243.193" y2="252.673"/><line x1="241.297" y1="250.777" x2="241.297" y2="254.569"/><line x1="239.4" y1="250.777" x2="243.193" y2="254.569"/><line x1="239.4" y1="254.569" x2="243.193" y2="250.777"/>
<line x1="239.854" y1="237.328" x2="243.646" y2="237.328"/><line x1="241.75" y1="235.432" x2="241.75" y2="239.224"/><line x1="239.854" y1="235.432" x2="243.646" y2="239.224"/><line x1="239.854" y1="239.224" x2="243.646" y2="235.432"/>
<line x1="240.307" y1="239.825" x2="244.099" y2="239.825"/><line x1="242.203" y1="237.928" x2="242.203" y2="241.721"/><line x1="240.307" y1="237.928" x2="244.099" y2="241.721"/><line x1="240.307" y1="241.721" x2="244.099" y2="237.928"/>
<line x1="240.76" y1="233.443" x2="244.552" y2="233.443"/><line x1="242.656" y1="231.547" x2="242.656" y2="235.339"/><line x1="240.76" y1="231.547" x2="244.552" y2="235.339"/><line x1="240.76" y1="235.339" x2="244.552" y2="231.547"/>
<line x1="241.213" y1="237.366" x2="245.006" y2="237.366"/><line x1="243.109" y1="235.469" x2="243.109" y2="239.262"/><line x1="241.213" y1="235.469" x2="245.006" y2="239.262"/><line x1="241.213" y1="239.262" x2="245.006" y2="235.469"/>
<line x1="241.667" y1="245.443" x2="245.459" y2="245.443"/><line x1="243.563" y1="243.547" x2="243.563" y2="247.339"/><line x1="241.667" y1="243.547" x2="245.459" y2="247.339"/><line x1="241.667" y1="247.339" x2="245.459" y2="243.547"/>
<line x1="242.12" y1="271.438" x2="245.912" y2="271.438"/><line x1="244.016" y1="269.542" x2="244.016" y2="273.334"/><line x1="242.12" y1="269.542" x2="245.912" y2="273.334"/><line x1="242.12" y1="273.334" x2="245.912" y2="269.542"/>
<line x1="242.573" y1="269.944" x2="246.365" y2="269.944"/><line x1="244.469" y1="268.048" x2="244.469" y2="271.84"/><line x1="242.573" y1="268.048" x2="246.365" y2="271.84"/><line x1="242.573" y1="271.84" x2="246.365" y2="268.048"/>
<line x1="243.026" y1="274.721" x2="246.818" y2="274.721"/><line x1="244.922" y1="272.825" x2="244.922" y2="276.617"/><line x1="243.026" y1="272.825" x2="246.818" y2="276.617"/><line x1="243.026" y1="276.617" x2="246.818" y2="272.825"/>
<line x1="243.48" y1="276.645" x2="247.272" y2="276.645"/><line x1="245.376" y1="274.749" x2="245.376" y2="278.541"/><line x1="243.48" y1="274.749" x2="247.272" y2="278.541"/><line x1="243.48" y1="278.541" x2="247.272" y2="274.749"/>
<line x1="243.933" y1="272.495" x2="247.725" y2="272.495"/><line x1="245.829" y1="270.599" x2="245.829" y2="274.391"/><line x1="243.933" y1="270.599" x2="247.725" y2="274.391"/><line x1="243.933" y1="274.391" x2="247.725" y2="270.599"/>
<line x1="244.386" y1="273.281" x2="248.178" y2="273.281"/><line x1="246.282" y1="271.385" x2="246.282" y2="275.177"/><line x1="244.386" y1="271.385" x2="248.178" y2="275.177"/><line x1="244.386" y1="275.177" x2="248.178" y2="271.385"/>
<line x1="244.839" y1="278.802" x2="248.631" y2="278.802"/><line x1="246.735" y1="276.906" x2="246.735" y2="280.699"/><line x1="244.839" y1="276.906" x2="248.631" y2="280.699"/><line x1="244.839" y1="280.699" x2="248.631" y2="276.906"/>
<line x1="245.292" y1="298.2" x2="249.085" y2="298.2"/><line x1="247.189" y1="296.304" x2="247.189" y2="300.096"/><line x1="245.292" y1="296.304" x2="249.085" y2="300.096"/><line x1="245.292" y1="300.096" x2="249.085" y2="296.304"/>
<line x1="245.746" y1="291.886" x2="249.538" y2="291.886"/><line x1="247.642" y1="289.99" x2="247.642" y2="293.782"/><line x1="245.746" y1="289.99" x2="249.538" y2="293.782"/><line x1="245.746" y1="293.782" x2="249.538" y2="289.99"/>
<line x1="246.199" y1="301.403" x2="249.991" y2="301.403"/><line x1="248.095" y1="299.507" x2="248.095" y2="303.299"/><line x1="246.199" y1="299.507" x2="249.991" y2="303.299"/><line x1="246.199" y1="303.299" x2="249.991" y2="299.507"/>
<line x1="246.652" y1="312.748" x2="250.444" y2="312.748"/><line x1="248.548" y1="310.852" x2="248.548" y2="314.644"/><line x1="246.652" y1="310.852" x2="250.444" y2="314.644"/><line x1="246.652" y1="314.644" x2="250.444" y2="310.852"/>
<line x1="247.105" y1="292.347" x2="250.898" y2="292.347"/><line x1="249.001" y1="290.451" x2="249.001" y2="294.243"/><line x1="247.105" y1="290.451" x2="250.898" y2="294.243"/><line x1="247.105" y1="294.243" x2="250.898" y2="290.451"/>
<line x1="247.559" y1="263.027" x2="251.351" y2="263.027"/><line x1="249.455" y1="261.131" x2="249.455" y2="264.923"/><line x1="247.559" y1="261.131" x2="251.351" y2="264.923"/><line x1="247.559" y1="264.923" x2="251.351" y2="261.131"/>
<line x1="248.012" y1="281.497" x2="251.804" y2="281.497"/><line x1="249.908" y1="279.601" x2="249.908" y2="283.393"/><line x1="248.012" y1="279.601" x2="251.804" y2="283.393"/><line x1="248.012" y1="283.393" x2="251.804" y2="279.601"/>
<line x1="248.465" y1="267.433" x2="252.257" y2="267.433"/><line x1="250.361" y1="265.537" x2="250.361" y2="269.329"/><line x1="248.465" y1="265.537" x2="252.257" y2="269.329"/><line x1="248.465" y1="269.329" x2="252.257" y2="265.537"/>
<line x1="248.918" y1="261.423" x2="252.71" y2="261.423"/><line x1="250.814" y1="259.527" x2="250.814" y2="263.319"/><line x1="248.918" y1="259.527" x2="252.71" y2="263.319"/><line x1="248.918" y1="263.319" x2="252.71" y2="259.527"/>
<line x1="249.371" y1="244.581" x2="253.164" y2="244.581"/><line x1="251.268" y1="242.685" x2="251.268" y2="246.477"/><line x1="249.371" y1="242.685" x2="253.164" y2="246.477"/><line x1="249.371" y1="246.477" x2="253.164" y2="242.685"/>
<line x1="249.825" y1="249.503" x2="253.617" y2="249.503"/><line x1="251.721" y1="247.607" x2="251.721" y2="251.399"/><line x1="249.825" y1="247.607" x2="253.617" y2="251.399"/><line x1="249.825" y1="251.399" x2="253.617" y2="247.607"/>
<line x1="250.278" y1="239.725" x2="254.07" y2="239.725"/><line x1="252.174" y1="237.829" x2="252.174" y2="241.621"/><line x1="250.278" y1="237.829" x2="254.07" y2="241.621"/><line x1="250.278" y1="241.621" x2="254.07" y2="237.829"/>
<line x1="250.731" y1="234.432" x2="254.523" y2="234.432"/><line x1="252.627" y1="232.536" x2="252.627" y2="236.328"/><line x1="250.731" y1="232.536" x2="254.523" y2="236.328"/><line x1="250.731" y1="236.328" x2="254.523" y2="232.536"/>
<line x1="251.184" y1="247.434" x2="254.977" y2="247.434"/><line x1="253.08" y1="245.538" x2="253.08" y2="249.33"/><line x1="251.184" y1="245.538" x2="254.977" y2="249.33"/><line x1="251.184" y1="249.33" x2="254.977" y2="245.538"/>
<line x1="251.638" y1="243.946" x2="255.43" y2="243.946"/><line x1="253.534" y1="242.05" x2="253.534" y2="245.842"/><line x1="251.638" y1="242.05" x2="255.43" y2="245.842"/><line x1="251.638" y1="245.842" x2="255.43" y2="242.05"/>
<line x1="252.091" y1="232.925" x2="255.883" y2="232.925"/><line x1="253.987" y1="231.029" x2="253.987" y2="234.821"/><line x1="252.091" y1="231.029" x2="255.883" y2="234.821"/><line x1="252.091" y1="234.821" x2="255.883" y2="231.029"/>
<line x1="252.544" y1="212.626" x2="256.336" y2="212.626"/><line x1="254.44" y1="210.73" x2="254.44" y2="214.522"/><line x1="252.544" y1="210.73" x2="256.336" y2="214.522"/><line x1="252.544" y1="214.522" x2="256.336" y2="210.73"/>
<line x1="252.997" y1="194.636" x2="256.789" y2="194.636"/><line x1="254.893" y1="192.74" x2="254.893" y2="196.532"/><line x1="252.997" y1="192.74" x2="256.789" y2="196.532"/><line x1="252.997" y1="196.532" x2="256.789" y2="192.74"/>
<line x1="253.451" y1="194.844" x2="257.243" y2="194.844"/><line x1="255.347" y1="192.948" x2="255.347" y2="196.74"/><line x1="253.451" y1="192.948" x2="257.243" y2="196.74"/><line x1="253.451" y1="196.74" x2="257.243" y2="192.948"/>
<line x1="253.904" y1="157.024" x2="257.696" y2="157.024"/><line x1="255.8" y1="155.128" x2="255.8" y2="158.92"/><line x1="253.904" y1="155.128" x2="257.696" y2="158.92"/><line x1="253.904" y1="158.92" x2="257.696" y2="155.128"/>
<line x1="254.357" y1="165.538" x2="258.149" y2="165.538"/><line x1="256.253" y1="163.642" x2="256.253" y2="167.434"/><line x1="254.357" y1="163.642" x2="258.149" y2="167.434"/><line x1="254.357" y1="167.434" x2="258.149" y2="163.642"/>
<line x1="254.81" y1="155.879" x2="258.602" y2="155.879"/><line x1="256.706" y1="153.983" x2="256.706" y2="157.775"/><line x1="254.81" y1="153.983" x2="258.602" y2="157.775"/><line x1="254.81" y1="157.775" x2="258.602" y2="153.983"/>
<line x1="255.263" y1="138.993" x2="259.056" y2="138.993"/><line x1="257.159" y1="137.096" x2="257.159" y2="140.889"/><line x1="255.263" y1="137.096" x2="259.056" y2="140.889"/><line x1="255.263" y1="140.889" x2="259.056" y2="137.096"/>
<line x1="255.717" y1="120.856" x2="259.509" y2="120.856"/><line x1="257.613" y1="118.96" x2="257.613" y2="122.752"/><line x1="255.717" y1="118.96" x2="259.509" y2="122.752"/><line x1="255.717" y1="122.752" x2="259.509" y2="118.96"/>
<line x1="256.17" y1="134.184" x2="259.962" y2="134.184"/><line x1="258.066" y1="132.288" x2="258.066" y2="136.08"/><line x1="256.17" y1="132.288" x2="259.962" y2="136.08"/><line x1="256.17" y1="136.08" x2="259.962" y2="132.288"/>
<line x1="256.623" y1="157.284" x2="260.415" y2="157.284"/><line x1="258.519" y1="155.388" x2="258.519" y2="159.18"/><line x1="256.623" y1="155.388" x2="260.415" y2="159.18"/><line x1="256.623" y1="159.18" x2="260.415" y2="155.388"/>
<line x1="257.076" y1="146.107" x2="260.868" y2="146.107"/><line x1="258.972" y1="144.211" x2="258.972" y2="148.004"/><line x1="257.076" y1="144.211" x2="260.868" y2="148.004"/><line x1="257.076" y1="148.004" x2="260.868" y2="144.211"/>
<line x1="257.53" y1="175.559" x2="261.322" y2="175.559"/><line x1="259.426" y1="173.663" x2="259.426" y2="177.455"/><line x1="257.53" y1="173.663" x2="261.322" y2="177.455"/><line x1="257.53" y1="177.455" x2="261.322" y2="173.663"/>
<line x1="257.983" y1="190.003" x2="261.775" y2="190.003"/><line x1="259.879" y1="188.107" x2="259.879" y2="191.899"/><line x1="257.983" y1="188.107" x2="261.775" y2="191.899"/><line x1="257.983" y1="191.899" x2="261.775" y2="188.107"/>
<line x1="258.436" y1="190.339" x2="262.228" y2="190.339"/><line x1="260.332" y1="188.443" x2="260.332" y2="192.235"/><line x1="258.436" y1="188.443" x2="262.228" y2="192.235"/><line x1="258.436" y1="192.235" x2="262.228" y2="188.443"/>
<line x1="258.889" y1="188.855" x2="262.681" y2="188.855"/><line x1="260.785" y1="186.959" x2="260.785" y2="190.751"/><line x1="258.889" y1="186.959" x2="262.681" y2="190.751"/><line x1="258.889" y1="190.751" x2="262.681" y2="186.959"/>
<line x1="259.342" y1="200.078" x2="263.135" y2="200.078"/><line x1="261.239" y1="198.182" x2="261.239" y2="201.975"/><line x1="259.342" y1="198.182" x2="263.135" y2="201.975"/><line x1="259.342" y1="201.975" x2="263.135" y2="198.182"/>
<line x1="259.796" y1="190.558" x2="263.588" y2="190.558"/><line x1="261.692" y1="188.662" x2="261.692" y2="192.454"/><line x1="259.796" y1="188.662" x2="263.588" y2="192.454"/><line x1="259.796" y1="192.454" x2="263.588" y2="188.662"/>
<line x1="260.249" y1="203.473" x2="264.041" y2="203.473"/><line x1="262.145" y1="201.577" x2="262.145" y2="205.369"/><line x1="260.249" y1="201.577" x2="264.041" y2="205.369"/><line x1="260.249" y1="205.369" x2="264.041" y2="201.577"/>
<line x1="260.702" y1="222.36" x2="264.494" y2="222.36"/><line x1="262.598" y1="220.464" x2="262.598" y2="224.256"/><line x1="260.702" y1="220.464" x2="264.494" y2="224.256"/><line x1="260.702" y1="224.256" x2="264.494" y2="220.464"/>
<line x1="261.155" y1="227.944" x2="264.948" y2="227.944"/><line x1="263.051" y1="226.048" x2="263.051" y2="229.84"/><line x1="261.155" y1="226.048" x2="264.948" y2="229.84"/><line x1="261.155" y1="229.84" x2="264.948" y2="226.048"/>
<line x1="261.609" y1="220.817" x2="265.401" y2="220.817"/><line x1="263.505" y1="218.921" x2="263.505" y2="222.713"/><line x1="261.609" y1="218.921" x2="265.401" y2="222.713"/><line x1="261.609" y1="222.713" x2="265.401" y2="218.921"/>
<line x1="262.062" y1="209.255" x2="265.854" y2="209.255"/><line x1="263.958" y1="207.359" x2="263.958" y2="211.151"/><line x1="262.062" y1="207.359" x2="265.854" y2="211.151"/><line x1="262.062" y1="211.151" x2="265.854" y2="207.359"/>
<line x1="262.515" y1="209.002" x2="266.307" y2="209.002"/><line x1="264.411" y1="207.105" x2="264.411" y2="210.898"/><line x1="262.515" y1="207.105" x2="266.307" y2="210.898"/><line x1="262.515" y1="210.898" x2="266.307" y2="207.105"/>
<line x1="262.968" y1="222.009" x2="266.76" y2="222.009"/><line x1="264.864" y1="220.113" x2="264.864" y2="223.905"/><line x1="262.968" y1="220.113" x2="266.76" y2="223.905"/><line x1="262.968" y1="223.905" x2="266.76" y2="220.113"/>
<line x1="263.421" y1="215.509" x2="267.214" y2="215.509"/><line x1="265.318" y1="213.613" x2="265.318" y2="217.405"/><line x1="263.421" y1="213.613" x2="267.214" y2="217.405"/><line x1="263.421" y1="217.405" x2="267.214" y2="213.613"/>
<line x1="263.875" y1="215.587" x2="267.667" y2="215.587"/><line x1="265.771" y1="213.691" x2="265.771" y2="217.483"/><line x1="263.875" y1="213.691" x2="267.667" y2="217.483"/><line x1="263.875" y1="217.483" x2="267.667" y2="213.691"/>
<line x1="264.328" y1="211.083" x2="268.12" y2="211.083"/><line x1="266.224" y1="209.187" x2="266.224" y2="212.979"/><line x1="264.328" y1="209.187" x2="268.12" y2="212.979"/><line x1="264.328" y1="212.979" x2="268.12" y2="209.187"/>
<line x1="264.781" y1="207.846" x2="268.573" y2="207.846"/><line x1="266.677" y1="205.95" x2="266.677" y2="209.742"/><line x1="264.781" y1="205.95" x2="268.573" y2="209.742"/><line x1="264.781" y1="209.742" x2="268.573" y2="205.95"/>
<line x1="265.234" y1="199.694" x2="269.027" y2="199.694"/><line x1="267.13" y1="197.798" x2="267.13" y2="201.59"/><line x1="265.234" y1="197.798" x2="269.027" y2="201.59"/><line x1="265.234" y1="201.59" x2="269.027" y2="197.798"/>
<line x1="265.688" y1="206.436" x2="269.48" y2="206.436"/><line x1="267.584" y1="204.539" x2="267.584" y2="208.332"/><line x1="265.688" y1="204.539" x2="269.48" y2="208.332"/><line x1="265.688" y1="208.332" x2="269.48" y2="204.539"/>
<line x1="266.141" y1="221.277" x2="269.933" y2="221.277"/><line x1="268.037" y1="219.381" x2="268.037" y2="223.173"/><line x1="266.141" y1="219.381" x2="269.933" y2="223.173"/><line x1="266.141" y1="223.173" x2="269.933" y2="219.381"/>
<line x1="266.594" y1="222.848" x2="270.386" y2="222.848"/><line x1="268.49" y1="220.951" x2="268.49" y2="224.744"/><line x1="266.594" y1="220.951" x2="270.386" y2="224.744"/><line x1="266.594" y1="224.744" x2="270.386" y2="220.951"/>
<line x1="267.047" y1="221.523" x2="270.839" y2="221.523"/><line x1="268.943" y1="219.627" x2="268.943" y2="223.419"/><line x1="267.047" y1="219.627" x2="270.839" y2="223.419"/><line x1="267.047" y1="223.419" x2="270.839" y2="219.627"/>
<line x1="267.501" y1="231.484" x2="271.293" y2="231.484"/><line x1="269.397" y1="229.588" x2="269.397" y2="233.38"/><line x1="267.501" y1="229.588" x2="271.293" y2="233.38"/><line x1="267.501" y1="233.38" x2="271.293" y2="229.588"/>
<line x1="267.954" y1="235.292" x2="271.746" y2="235.292"/><line x1="269.85" y1="233.395" x2="269.85" y2="237.188"/><line x1="267.954" y1="233.395" x2="271.746" y2="237.188"/><line x1="267.954" y1="237.188" x2="271.746" y2="233.395"/>
<line x1="268.407" y1="231.834" x2="272.199" y2="231.834"/><line x1="270.303" y1="229.938" x2="270.303" y2="233.73"/><line x1="268.407" y1="229.938" x2="272.199" y2="233.73"/><line x1="268.407" y1="233.73" x2="272.199" y2="229.938"/>
<line x1="268.86" y1="228.172" x2="272.652" y2="228.172"/><line x1="270.756" y1="226.276" x2="270.756" y2="230.069"/><line x1="268.86" y1="226.276" x2="272.652" y2="230.069"/><line x1="268.86" y1="230.069" x2="272.652" y2="226.276"/>
<line x1="269.313" y1="234.959" x2="273.106" y2="234.959"/><line x1="271.21" y1="233.063" x2="271.21" y2="236.855"/><line x1="269.313" y1="233.063" x2="273.106" y2="236.855"/><line x1="269.313" y1="236.855" x2="273.106" y2="233.063"/>
<line x1="269.767" y1="221.974" x2="273.559" y2="221.974"/><line x1="271.663" y1="220.078" x2="271.663" y2="223.87"/><line x1="269.767" y1="220.078" x2="273.559" y2="223.87"/><line x1="269.767" y1="223.87" x2="273.559" y2="220.078"/>
<line x1="270.22" y1="208.177" x2="274.012" y2="208.177"/><line x1="272.116" y1="206.281" x2="272.116" y2="210.074"/><line x1="270.22" y1="206.281" x2="274.012" y2="210.074"/><line x1="270.22" y1="210.074" x2="274.012" y2="206.281"/>
<line x1="270.673" y1="223.755" x2="274.465" y2="223.755"/><line x1="272.569" y1="221.859" x2="272.569" y2="225.651"/><line x1="270.673" y1="221.859" x2="274.465" y2="225.651"/><line x1="270.673" y1="225.651" x2="274.465" y2="221.859"/>
<line x1="271.126" y1="217.345" x2="274.918" y2="217.345"/><line x1="273.022" y1="215.449" x2="273.022" y2="219.241"/><line x1="271.126" y1="215.449" x2="274.918" y2="219.241"/><line x1="271.126" y1="219.241" x2="274.918" y2="215.449"/>
<line x1="271.58" y1="207.163" x2="275.372" y2="207.163"/><line x1="273.476" y1="205.267" x2="273.476" y2="209.059"/><line x1="271.58" y1="205.267" x2="275.372" y2="209.059"/><line x1="271.58" y1="209.059" x2="275.372" y2="205.267"/>
<line x1="272.033" y1="222.822" x2="275.825" y2="222.822"/><line x1="273.929" y1="220.926" x2="273.929" y2="224.719"/><line x1="272.033" y1="220.926" x2="275.825" y2="224.719"/><line x1="272.033" y1="224.719" x2="275.825" y2="220.926"/>
<line x1="272.486" y1="208.921" x2="276.278" y2="208.921"/><line x1="274.382" y1="207.025" x2="274.382" y2="210.817"/><line x1="272.486" y1="207.025" x2="276.278" y2="210.817"/><line x1="272.486" y1="210.817" x2="276.278" y2="207.025"/>
<line x1="272.939" y1="203.457" x2="276.731" y2="203.457"/><line x1="274.835" y1="201.561" x2="274.835" y2="205.353"/><line x1="272.939" y1="201.561" x2="276.731" y2="205.353"/><line x1="272.939" y1="205.353" x2="276.731" y2="201.561"/>
<line x1="273.392" y1="222.03" x2="277.185" y2="222.03"/><line x1="275.289" y1="220.134" x2="275.289" y2="223.926"/><line x1="273.392" y1="220.134" x2="277.185" y2="223.926"/><line x1="273.392" y1="223.926" x2="277.185" y2="220.134"/>
<line x1="273.846" y1="219.477" x2="277.638" y2="219.477"/><line x1="275.742" y1="217.581" x2="275.742" y2="221.373"/><line x1="273.846" y1="217.581" x2="277.638" y2="221.373"/><line x1="273.846" y1="221.373" x2="277.638" y2="217.581"/>
<line x1="274.299" y1="225.696" x2="278.091" y2="225.696"/><line x1="276.195" y1="223.8" x2="276.195" y2="227.592"/><line x1="274.299" y1="223.8" x2="278.091" y2="227.592"/><line x1="274.299" y1="227.592" x2="278.091" y2="223.8"/>
<line x1="274.752" y1="204.252" x2="278.544" y2="204.252"/><line x1="276.648" y1="202.356" x2="276.648" y2="206.148"/><line x1="274.752" y1="202.356" x2="278.544" y2="206.148"/><line x1="274.752" y1="206.148" x2="278.544" y2="202.356"/>
<line x1="275.205" y1="226.648" x2="278.998" y2="226.648"/><line x1="277.101" y1="224.752" x2="277.101" y2="228.544"/><line x1="275.205" y1="224.752" x2="278.998" y2="228.544"/><line x1="275.205" y1="228.544" x2="278.998" y2="224.752"/>
<line x1="275.659" y1="234.135" x2="279.451" y2="234.135"/><line x1="277.555" y1="232.239" x2="277.555" y2="236.032"/><line x1="275.659" y1="232.239" x2="279.451" y2="236.032"/><line x1="275.659" y1="236.032" x2="279.451" y2="232.239"/>
<line x1="276.112" y1="255.845" x2="279.904" y2="255.845"/><line x1="278.008" y1="253.949" x2="278.008" y2="257.741"/><line x1="276.112" y1="253.949" x2="279.904" y2="257.741"/><line x1="276.112" y1="257.741" x2="279.904" y2="253.949"/>
<line x1="276.565" y1="268.304" x2="280.357" y2="268.304"/><line x1="278.461" y1="266.408" x2="278.461" y2="270.2"/><line x1="276.565" y1="266.408" x2="280.357" y2="270.2"/><line x1="276.565" y1="270.2" x2="280.357" y2="266.408"/>
<line x1="277.018" y1="287.383" x2="280.81" y2="287.383"/><line x1="278.914" y1="285.487" x2="278.914" y2="289.279"/><line x1="277.018" y1="285.487" x2="280.81" y2="289.279"/><line x1="277.018" y1="289.279" x2="280.81" y2="285.487"/>
<line x1="277.471" y1="296.881" x2="281.264" y2="296.881"/><line x1="279.368" y1="294.985" x2="279.368" y2="298.777"/><line x1="277.471" y1="294.985" x2="281.264" y2="298.777"/><line x1="277.471" y1="298.777" x2="281.264" y2="294.985"/>
<line x1="277.925" y1="299.354" x2="281.717" y2="299.354"/><line x1="279.821" y1="297.458" x2="279.821" y2="301.25"/><line x1="277.925" y1="297.458" x2="281.717" y2="301.25"/><line x1="277.925" y1="301.25" x2="281.717" y2="297.458"/>
<line x1="278.378" y1="299.62" x2="282.17" y2="299.62"/><line x1="280.274" y1="297.724" x2="280.274" y2="301.516"/><line x1="278.378" y1="297.724" x2="282.17" y2="301.516"/><line x1="278.378" y1="301.516" x2="282.17" y2="297.724"/>
<line x1="278.831" y1="301.97" x2="282.623" y2="301.97"/><line x1="280.727" y1="300.074" x2="280.727" y2="303.866"/><line x1="278.831" y1="300.074" x2="282.623" y2="303.866"/><line x1="278.831" y1="303.866" x2="282.623" y2="300.074"/>
<line x1="279.284" y1="306.807" x2="283.077" y2="306.807"/><line x1="281.18" y1="304.911" x2="281.18" y2="308.703"/><line x1="279.284" y1="304.911" x2="283.077" y2="308.703"/><line x1="279.284" y1="308.703" x2="283.077" y2="304.911"/>
<line x1="279.738" y1="295.54" x2="283.53" y2="295.54"/><line x1="281.634" y1="293.644" x2="281.634" y2="297.437"/><line x1="279.738" y1="293.644" x2="283.53" y2="297.437"/><line x1="279.738" y1="297.437" x2="283.53" y2="293.644"/>
<line x1="280.191" y1="299.228" x2="283.983" y2="299.228"/><line x1="282.087" y1="297.332" x2="282.087" y2="301.124"/><line x1="280.191" y1="297.332" x2="283.983" y2="301.124"/><line x1="280.191" y1="301.124" x2="283.983" y2="297.332"/>
<line x1="280.644" y1="343.232" x2="284.436" y2="343.232"/><line x1="282.54" y1="341.336" x2="282.54" y2="345.128"/><line x1="280.644" y1="341.336" x2="284.436" y2="345.128"/><line x1="280.644" y1="345.128" x2="284.436" y2="341.336"/>
<line x1="281.097" y1="335.608" x2="284.889" y2="335.608"/><line x1="282.993" y1="333.712" x2="282.993" y2="337.504"/><line x1="281.097" y1="333.712" x2="284.889" y2="337.504"/><line x1="281.097" y1="337.504" x2="284.889" y2="333.712"/>
<line x1="281.551" y1="343.776" x2="285.343" y2="343.776"/><line x1="283.447" y1="341.88" x2="283.447" y2="345.672"/><line x1="281.551" y1="341.88" x2="285.343" y2="345.672"/><line x1="281.551" y1="345.672" x2="285.343" y2="341.88"/>
<line x1="282.004" y1="356.265" x2="285.796" y2="356.265"/><line x1="283.9" y1="354.369" x2="283.9" y2="358.161"/><line x1="282.004" y1="354.369" x2="285.796" y2="358.161"/><line x1="282.004" y1="358.161" x2="285.796" y2="354.369"/>
<line x1="282.457" y1="353.453" x2="286.249" y2="353.453"/><line x1="284.353" y1="351.556" x2="284.353" y2="355.349"/><line x1="282.457" y1="351.556" x2="286.249" y2="355.349"/><line x1="282.457" y1="355.349" x2="286.249" y2="351.556"/>
<line x1="282.91" y1="341.034" x2="286.702" y2="341.034"/><line x1="284.806" y1="339.138" x2="284.806" y2="342.931"/><line x1="282.91" y1="339.138" x2="286.702" y2="342.931"/><line x1="282.91" y1="342.931" x2="286.702" y2="339.138"/>
<line x1="283.363" y1="351.658" x2="287.156" y2="351.658"/><line x1="285.26" y1="349.762" x2="285.26" y2="353.554"/><line x1="283.363" y1="349.762" x2="287.156" y2="353.554"/><line x1="283.363" y1="353.554" x2="287.156" y2="349.762"/>
<line x1="283.817" y1="327.824" x2="287.609" y2="327.824"/><line x1="285.713" y1="325.928" x2="285.713" y2="329.72"/><line x1="283.817" y1="325.928" x2="287.609" y2="329.72"/><line x1="283.817" y1="329.72" x2="287.609" y2="325.928"/>
<line x1="284.27" y1="330.046" x2="288.062" y2="330.046"/><line x1="286.166" y1="328.15" x2="286.166" y2="331.942"/><line x1="284.27" y1="328.15" x2="288.062" y2="331.942"/><line x1="284.27" y1="331.942" x2="288.062" y2="328.15"/>
<line x1="284.723" y1="309.68" x2="288.515" y2="309.68"/><line x1="286.619" y1="307.784" x2="286.619" y2="311.576"/><line x1="284.723" y1="307.784" x2="288.515" y2="311.576"/><line x1="284.723" y1="311.576" x2="288.515" y2="307.784"/>
<line x1="285.176" y1="288.916" x2="288.969" y2="288.916"/><line x1="287.072" y1="287.02" x2="287.072" y2="290.812"/><line x1="285.176" y1="287.02" x2="288.969" y2="290.812"/><line x1="285.176" y1="290.812" x2="288.969" y2="287.02"/>
<line x1="285.63" y1="287.385" x2="289.422" y2="287.385"/><line x1="287.526" y1="285.489" x2="287.526" y2="289.281"/><line x1="285.63" y1="285.489" x2="289.422" y2="289.281"/><line x1="285.63" y1="289.281" x2="289.422" y2="285.489"/>
<line x1="286.083" y1="289.707" x2="289.875" y2="289.707"/><line x1="287.979" y1="287.811" x2="287.979" y2="291.603"/><line x1="286.083" y1="287.811" x2="289.875" y2="291.603"/><line x1="286.083" y1="291.603" x2="289.875" y2="287.811"/>
<line x1="286.536" y1="283.765" x2="290.328" y2="283.765"/><line x1="288.432" y1="281.869" x2="288.432" y2="285.661"/><line x1="286.536" y1="281.869" x2="290.328" y2="285.661"/><line x1="286.536" y1="285.661" x2="290.328" y2="281.869"/>
<line x1="286.989" y1="295.789" x2="290.781" y2="295.789"/><line x1="288.885" y1="293.893" x2="288.885" y2="297.685"/><line x1="286.989" y1="293.893" x2="290.781" y2="297.685"/><line x1="286.989" y1="297.685" x2="290.781" y2="293.893"/>
<line x1="287.442" y1="293.219" x2="291.235" y2="293.219"/><line x1="289.339" y1="291.322" x2="289.339" y2="295.115"/><line x1="287.442" y1="291.322" x2="291.235" y2="295.115"/><line x1="287.442" y1="295.115" x2="291.235" y2="291.322"/>
<line x1="287.896" y1="285.893" x2="291.688" y2="285.893"/><line x1="289.792" y1="283.997" x2="289.792" y2="287.789"/><line x1="287.896" y1="283.997" x2="291.688" y2="287.789"/><line x1="287.896" y1="287.789" x2="291.688" y2="283.997"/>
<line x1="288.349" y1="281.489" x2="292.141" y2="281.489"/><line x1="290.245" y1="279.593" x2="290.245" y2="283.385"/><line x1="288.349" y1="279.593" x2="292.141" y2="283.385"/><line x1="288.349" y1="283.385" x2="292.141" y2="279.593"/>
<line x1="288.802" y1="272.582" x2="292.594" y2="272.582"/><line x1="290.698" y1="270.686" x2="290.698" y2="274.478"/><line x1="288.802" y1="270.686" x2="292.594" y2="274.478"/><line x1="288.802" y1="274.478" x2="292.594" y2="270.686"/>
<line x1="289.255" y1="270.56" x2="293.048" y2="270.56"/><line x1="291.151" y1="268.664" x2="291.151" y2="272.456"/><line x1="289.255" y1="268.664" x2="293.048" y2="272.456"/><line x1="289.255" y1="272.456" x2="293.048" y2="268.664"/>
<line x1="289.709" y1="247.388" x2="293.501" y2="247.388"/><line x1="291.605" y1="245.492" x2="291.605" y2="249.284"/><line x1="289.709" y1="245.492" x2="293.501" y2="249.284"/><line x1="289.709" y1="249.284" x2="293.501" y2="245.492"/>
<line x1="290.162" y1="241.137" x2="293.954" y2="241.137"/><line x1="292.058" y1="239.241" x2="292.058" y2="243.033"/><line x1="290.162" y1="239.241" x2="293.954" y2="243.033"/><line x1="290.162" y1="243.033" x2="293.954" y2="239.241"/>
<line x1="290.615" y1="231.054" x2="294.407" y2="231.054"/><line x1="292.511" y1="229.158" x2="292.511" y2="232.95"/><line x1="290.615" y1="229.158" x2="294.407" y2="232.95"/><line x1="290.615" y1="232.95" x2="294.407" y2="229.158"/>
<line x1="291.068" y1="250.072" x2="294.86" y2="250.072"/><line x1="292.964" y1="248.176" x2="292.964" y2="251.968"/><line x1="291.068" y1="248.176" x2="294.86" y2="251.968"/><line x1="291.068" y1="251.968" x2="294.86" y2="248.176"/>
<line x1="291.521" y1="250.238" x2="295.314" y2="250.238"/><line x1="293.418" y1="248.342" x2="293.418" y2="252.134"/><line x1="291.521" y1="248.342" x2="295.314" y2="252.134"/><line x1="291.521" y1="252.134" x2="295.314" y2="248.342"/>
<line x1="291.975" y1="250.644" x2="295.767" y2="250.644"/><line x1="293.871" y1="248.748" x2="293.871" y2="252.54"/><line x1="291.975" y1="248.748" x2="295.767" y2="252.54"/><line x1="291.975" y1="252.54" x2="295.767" y2="248.748"/>
<line x1="292.428" y1="239.021" x2="296.22" y2="239.021"/><line x1="294.324" y1="237.125" x2="294.324" y2="240.917"/><line x1="292.428" y1="237.125" x2="296.22" y2="240.917"/><line x1="292.428" y1="240.917" x2="296.22" y2="237.125"/>
<line x1="292.881" y1="255.727" x2="296.673" y2="255.727"/><line x1="294.777" y1="253.831" x2="294.777" y2="257.623"/><line x1="292.881" y1="253.831" x2="296.673" y2="257.623"/><line x1="292.881" y1="257.623" x2="296.673" y2="253.831"/>
<line x1="293.334" y1="278.437" x2="297.127" y2="278.437"/><line x1="295.23" y1="276.541" x2="295.23" y2="280.333"/><line x1="293.334" y1="276.541" x2="297.127" y2="280.333"/><line x1="293.334" y1="280.333" x2="297.127" y2="276.541"/>
<line x1="293.788" y1="258.752" x2="297.58" y2="258.752"/><line x1="295.684" y1="256.856" x2="295.684" y2="260.648"/><line x1="293.788" y1="256.856" x2="297.58" y2="260.648"/><line x1="293.788" y1="260.648" x2="297.58" y2="256.856"/>
<line x1="294.241" y1="283.665" x2="298.033" y2="283.665"/><line x1="296.137" y1="281.769" x2="296.137" y2="285.561"/><line x1="294.241" y1="281.769" x2="298.033" y2="285.561"/><line x1="294.241" y1="285.561" x2="298.033" y2="281.769"/>
<line x1="294.694" y1="288.334" x2="298.486" y2="288.334"/><line x1="296.59" y1="286.438" x2="296.59" y2="290.23"/><line x1="294.694" y1="286.438" x2="298.486" y2="290.23"/><line x1="294.694" y1="290.23" x2="298.486" y2="286.438"/>
<line x1="295.147" y1="290.809" x2="298.939" y2="290.809"/><line x1="297.043" y1="288.913" x2="297.043" y2="292.705"/><line x1="295.147" y1="288.913" x2="298.939" y2="292.705"/><line x1="295.147" y1="292.705" x2="298.939" y2="288.913"/>
<line x1="295.601" y1="285.563" x2="299.393" y2="285.563"/><line x1="297.497" y1="283.667" x2="297.497" y2="287.459"/><line x1="295.601" y1="283.667" x2="299.393" y2="287.459"/><line x1="295.601" y1="287.459" x2="299.393" y2="283.667"/>
<line x1="296.054" y1="284.908" x2="299.846" y2="284.908"/><line x1="297.95" y1="283.012" x2="297.95" y2="286.804"/><line x1="296.054" y1="283.012" x2="299.846" y2="286.804"/><line x1="296.054" y1="286.804" x2="299.846" y2="283.012"/>
<line x1="296.507" y1="281.648" x2="300.299" y2="281.648"/><line x1="298.403" y1="279.752" x2="298.403" y2="283.544"/><line x1="296.507" y1="279.752" x2="300.299" y2="283.544"/><line x1="296.507" y1="283.544" x2="300.299" y2="279.752"/>
<line x1="296.96" y1="276.03" x2="300.752" y2="276.03"/><line x1="298.856" y1="274.134" x2="298.856" y2="277.926"/><line x1="296.96" y1="274.134" x2="300.752" y2="277.926"/><line x1="296.96" y1="277.926" x2="300.752" y2="274.134"/>
<line x1="297.413" y1="275.163" x2="301.206" y2="275.163"/><line x1="299.31" y1="273.267" x2="299.31" y2="277.059"/><line x1="297.413" y1="273.267" x2="301.206" y2="277.059"/><line x1="297.413" y1="277.059" x2="301.206" y2="273.267"/>
<line x1="297.867" y1="267.353" x2="301.659" y2="267.353"/><line x1="299.763" y1="265.457" x2="299.763" y2="269.249"/><line x1="297.867" y1="265.457" x2="301.659" y2="269.249"/><line x1="297.867" y1="269.249" x2="301.659" y2="265.457"/>
<line x1="298.32" y1="261.268" x2="302.112" y2="261.268"/><line x1="300.216" y1="259.372" x2="300.216" y2="263.164"/><line x1="298.32" y1="259.372" x2="302.112" y2="263.164"/><line x1="298.32" y1="263.164" x2="302.112" y2="259.372"/>
<line x1="298.773" y1="225.67" x2="302.565" y2="225.67"/><line x1="300.669" y1="223.774" x2="300.669" y2="227.566"/><line x1="298.773" y1="223.774" x2="302.565" y2="227.566"/><line x1="298.773" y1="227.566" x2="302.565" y2="223.774"/>
<line x1="299.226" y1="237.849" x2="303.018" y2="237.849"/><line x1="301.122" y1="235.953" x2="301.122" y2="239.745"/><line x1="299.226" y1="235.953" x2="303.018" y2="239.745"/><line x1="299.226" y1="239.745" x2="303.018" y2="235.953"/>
<line x1="299.68" y1="235.677" x2="303.472" y2="235.677"/><line x1="301.576" y1="233.781" x2="301.576" y2="237.573"/><line x1="299.68" y1="233.781" x2="303.472" y2="237.573"/><line x1="299.68" y1="237.573" x2="303.472" y2="233.781"/>
<line x1="300.133" y1="234.846" x2="303.925" y2="234.846"/><line x1="302.029" y1="232.95" x2="302.029" y2="236.742"/><line x1="300.133" y1="232.95" x2="303.925" y2="236.742"/><line x1="300.133" y1="236.742" x2="303.925" y2="232.95"/>
<line x1="300.586" y1="232.768" x2="304.378" y2="232.768"/><line x1="302.482" y1="230.872" x2="302.482" y2="234.664"/><line x1="300.586" y1="230.872" x2="304.378" y2="234.664"/><line x1="300.586" y1="234.664" x2="304.378" y2="230.872"/>
<line x1="301.039" y1="227.863" x2="304.831" y2="227.863"/><line x1="302.935" y1="225.967" x2="302.935" y2="229.759"/><line x1="301.039" y1="225.967" x2="304.831" y2="229.759"/><line x1="301.039" y1="229.759" x2="304.831" y2="225.967"/>
<line x1="301.492" y1="234.527" x2="305.285" y2="234.527"/><line x1="303.389" y1="232.631" x2="303.389" y2="236.424"/><line x1="301.492" y1="232.631" x2="305.285" y2="236.424"/><line x1="301.492" y1="236.424" x2="305.285" y2="232.631"/>
<line x1="301.946" y1="259.852" x2="305.738" y2="259.852"/><line x1="303.842" y1="257.956" x2="303.842" y2="261.748"/><line x1="301.946" y1="257.956" x2="305.738" y2="261.748"/><line x1="301.946" y1="261.748" x2="305.738" y2="257.956"/>
<line x1="302.399" y1="259.196" x2="306.191" y2="259.196"/><line x1="304.295" y1="257.3" x2="304.295" y2="261.092"/><line x1="302.399" y1="257.3" x2="306.191" y2="261.092"/><line x1="302.399" y1="261.092" x2="306.191" y2="257.3"/>
<line x1="302.852" y1="270.658" x2="306.644" y2="270.658"/><line x1="304.748" y1="268.762" x2="304.748" y2="272.554"/><line x1="302.852" y1="268.762" x2="306.644" y2="272.554"/><line x1="302.852" y1="272.554" x2="306.644" y2="268.762"/>
<line x1="303.305" y1="275.464" x2="307.098" y2="275.464"/><line x1="305.201" y1="273.568" x2="305.201" y2="277.36"/><line x1="303.305" y1="273.568" x2="307.098" y2="277.36"/><line x1="303.305" y1="277.36" x2="307.098" y2="273.568"/>
<line x1="303.759" y1="264.287" x2="307.551" y2="264.287"/><line x1="305.655" y1="262.391" x2="305.655" y2="266.183"/><line x1="303.759" y1="262.391" x2="307.551" y2="266.183"/><line x1="303.759" y1="266.183" x2="307.551" y2="262.391"/>
<line x1="304.212" y1="265.916" x2="308.004" y2="265.916"/><line x1="306.108" y1="264.02" x2="306.108" y2="267.812"/><line x1="304.212" y1="264.02" x2="308.004" y2="267.812"/><line x1="304.212" y1="267.812" x2="308.004" y2="264.02"/>
<line x1="304.665" y1="260.604" x2="308.457" y2="260.604"/><line x1="306.561" y1="258.707" x2="306.561" y2="262.5"/><line x1="304.665" y1="258.707" x2="308.457" y2="262.5"/><line x1="304.665" y1="262.5" x2="308.457" y2="258.707"/>
<line x1="305.118" y1="250.834" x2="308.91" y2="250.834"/><line x1="307.014" y1="248.938" x2="307.014" y2="252.73"/><line x1="305.118" y1="248.938" x2="308.91" y2="252.73"/><line x1="305.118" y1="252.73" x2="308.91" y2="248.938"/>
<line x1="305.572" y1="236.343" x2="309.364" y2="236.343"/><line x1="307.468" y1="234.447" x2="307.468" y2="238.24"/><line x1="305.572" y1="234.447" x2="309.364" y2="238.24"/><line x1="305.572" y1="238.24" x2="309.364" y2="234.447"/>
<line x1="306.025" y1="221.619" x2="309.817" y2="221.619"/><line x1="307.921" y1="219.723" x2="307.921" y2="223.515"/><line x1="306.025" y1="219.723" x2="309.817" y2="223.515"/><line x1="306.025" y1="223.515" x2="309.817" y2="219.723"/>
<line x1="306.478" y1="210.538" x2="310.27" y2="210.538"/><line x1="308.374" y1="208.642" x2="308.374" y2="212.434"/><line x1="306.478" y1="208.642" x2="310.27" y2="212.434"/><line x1="306.478" y1="212.434" x2="310.27" y2="208.642"/>
<line x1="306.931" y1="204.427" x2="310.723" y2="204.427"/><line x1="308.827" y1="202.53" x2="308.827" y2="206.323"/><line x1="306.931" y1="202.53" x2="310.723" y2="206.323"/><line x1="306.931" y1="206.323" x2="310.723" y2="202.53"/>
<line x1="307.384" y1="216.665" x2="311.177" y2="216.665"/><line x1="309.28" y1="214.769" x2="309.28" y2="218.561"/><line x1="307.384" y1="214.769" x2="311.177" y2="218.561"/><line x1="307.384" y1="218.561" x2="311.177" y2="214.769"/>
<line x1="307.838" y1="186.315" x2="311.63" y2="186.315"/><line x1="309.734" y1="184.418" x2="309.734" y2="188.211"/><line x1="307.838" y1="184.418" x2="311.63" y2="188.211"/><line x1="307.838" y1="188.211" x2="311.63" y2="184.418"/>
<line x1="308.291" y1="178.448" x2="312.083" y2="178.448"/><line x1="310.187" y1="176.552" x2="310.187" y2="180.344"/><line x1="308.291" y1="176.552" x2="312.083" y2="180.344"/><line x1="308.291" y1="180.344" x2="312.083" y2="176.552"/>
<line x1="308.744" y1="153.892" x2="312.536" y2="153.892"/><line x1="310.64" y1="151.996" x2="310.64" y2="155.789"/><line x1="308.744" y1="151.996" x2="312.536" y2="155.789"/><line x1="308.744" y1="155.789" x2="312.536" y2="151.996"/>
<line x1="309.197" y1="158.184" x2="312.989" y2="158.184"/><line x1="311.093" y1="156.288" x2="311.093" y2="160.08"/><line x1="309.197" y1="156.288" x2="312.989" y2="160.08"/><line x1="309.197" y1="160.08" x2="312.989" y2="156.288"/>
<line x1="309.651" y1="150.659" x2="313.443" y2="150.659"/><line x1="311.547" y1="148.763" x2="311.547" y2="152.556"/><line x1="309.651" y1="148.763" x2="313.443" y2="152.556"/><line x1="309.651" y1="152.556" x2="313.443" y2="148.763"/>
<line x1="310.104" y1="148.58" x2="313.896" y2="148.58"/><line x1="312" y1="146.683" x2="312" y2="150.476"/><line x1="310.104" y1="146.683" x2="313.896" y2="150.476"/><line x1="310.104" y1="150.476" x2="313.896" y2="146.683"/>
<line x1="310.557" y1="160.563" x2="314.349" y2="160.563"/><line x1="312.453" y1="158.667" x2="312.453" y2="162.459"/><line x1="310.557" y1="158.667" x2="314.349" y2="162.459"/><line x1="310.557" y1="162.459" x2="314.349" y2="158.667"/>
<line x1="311.01" y1="147.52" x2="314.802" y2="147.52"/><line x1="312.906" y1="145.623" x2="312.906" y2="149.416"/><line x1="311.01" y1="145.623" x2="314.802" y2="149.416"/><line x1="311.01" y1="149.416" x2="314.802" y2="145.623"/>
<line x1="311.463" y1="145.77" x2="315.256" y2="145.77"/><line x1="313.36" y1="143.874" x2="313.36" y2="147.666"/><line x1="311.463" y1="143.874" x2="315.256" y2="147.666"/><line x1="311.463" y1="147.666" x2="315.256" y2="143.874"/>
<line x1="311.917" y1="121.876" x2="315.709" y2="121.876"/><line x1="313.813" y1="119.98" x2="313.813" y2="123.772"/><line x1="311.917" y1="119.98" x2="315.709" y2="123.772"/><line x1="311.917" y1="123.772" x2="315.709" y2="119.98"/>
<line x1="312.37" y1="133.933" x2="316.162" y2="133.933"/><line x1="314.266" y1="132.037" x2="314.266" y2="135.829"/><line x1="312.37" y1="132.037" x2="316.162" y2="135.829"/><line x1="312.37" y1="135.829" x2="316.162" y2="132.037"/>
<line x1="312.823" y1="125.06" x2="316.615" y2="125.06"/><line x1="314.719" y1="123.164" x2="314.719" y2="126.956"/><line x1="312.823" y1="123.164" x2="316.615" y2="126.956"/><line x1="312.823" y1="126.956" x2="316.615" y2="123.164"/>
<line x1="313.276" y1="123.239" x2="317.069" y2="123.239"/><line x1="315.172" y1="121.343" x2="315.172" y2="125.135"/><line x1="313.276" y1="121.343" x2="317.069" y2="125.135"/><line x1="313.276" y1="125.135" x2="317.069" y2="121.343"/>
<line x1="313.73" y1="118.866" x2="317.522" y2="118.866"/><line x1="315.626" y1="116.97" x2="315.626" y2="120.762"/><line x1="313.73" y1="116.97" x2="317.522" y2="120.762"/><line x1="313.73" y1="120.762" x2="317.522" y2="116.97"/>
<line x1="314.183" y1="90.9466" x2="317.975" y2="90.9466"/><line x1="316.079" y1="89.0505" x2="316.079" y2="92.8427"/><line x1="314.183" y1="89.0505" x2="317.975" y2="92.8427"/><line x1="314.183" y1="92.8427" x2="317.975" y2="89.0505"/>
<line x1="314.636" y1="100.249" x2="318.428" y2="100.249"/><line x1="316.532" y1="98.3526" x2="316.532" y2="102.145"/><line x1="314.636" y1="98.3526" x2="318.428" y2="102.145"/><line x1="314.636" y1="102.145" x2="318.428" y2="98.3526"/>
<line x1="315.089" y1="106.149" x2="318.881" y2="106.149"/><line x1="316.985" y1="104.253" x2="316.985" y2="108.045"/><line x1="315.089" y1="104.253" x2="318.881" y2="108.045"/><line x1="315.089" y1="108.045" x2="318.881" y2="104.253"/>
<line x1="315.542" y1="117.68" x2="319.335" y2="117.68"/><line x1="317.439" y1="115.784" x2="317.439" y2="119.577"/><line x1="315.542" y1="115.784" x2="319.335" y2="119.577"/><line x1="315.542" y1="119.577" x2="319.335" y2="115.784"/>
<line x1="315.996" y1="116.997" x2="319.788" y2="116.997"/><line x1="317.892" y1="115.101" x2="317.892" y2="118.893"/><line x1="315.996" y1="115.101" x2="319.788" y2="118.893"/><line x1="315.996" y1="118.893" x2="319.788" y2="115.101"/>
<line x1="316.449" y1="119.921" x2="320.241" y2="119.921"/><line x1="318.345" y1="118.025" x2="318.345" y2="121.817"/><line x1="316.449" y1="118.025" x2="320.241" y2="121.817"/><line x1="316.449" y1="121.817" x2="320.241" y2="118.025"/>
<line x1="316.902" y1="132.896" x2="320.694" y2="132.896"/><line x1="318.798" y1="131" x2="318.798" y2="134.792"/><line x1="316.902" y1="131" x2="320.694" y2="134.792"/><line x1="316.902" y1="134.792" x2="320.694" y2="131"/>
<line x1="317.355" y1="149.609" x2="321.148" y2="149.609"/><line x1="319.251" y1="147.713" x2="319.251" y2="151.505"/><line x1="317.355" y1="147.713" x2="321.148" y2="151.505"/><line x1="317.355" y1="151.505" x2="321.148" y2="147.713"/>
<line x1="317.809" y1="131.072" x2="321.601" y2="131.072"/><line x1="319.705" y1="129.176" x2="319.705" y2="132.968"/><line x1="317.809" y1="129.176" x2="321.601" y2="132.968"/><line x1="317.809" y1="132.968" x2="321.601" y2="129.176"/>
<line x1="318.262" y1="128.359" x2="322.054" y2="128.359"/><line x1="320.158" y1="126.463" x2="320.158" y2="130.255"/><line x1="318.262" y1="126.463" x2="322.054" y2="130.255"/><line x1="318.262" y1="130.255" x2="322.054" y2="126.463"/>
<line x1="318.715" y1="132.145" x2="322.507" y2="132.145"/><line x1="320.611" y1="130.249" x2="320.611" y2="134.041"/><line x1="318.715" y1="130.249" x2="322.507" y2="134.041"/><line x1="318.715" y1="134.041" x2="322.507" y2="130.249"/>
<line x1="319.168" y1="143.35" x2="322.96" y2="143.35"/><line x1="321.064" y1="141.454" x2="321.064" y2="145.247"/><line x1="319.168" y1="141.454" x2="322.96" y2="145.247"/><line x1="319.168" y1="145.247" x2="322.96" y2="141.454"/>
<line x1="319.622" y1="130.176" x2="323.414" y2="130.176"/><line x1="321.518" y1="128.28" x2="321.518" y2="132.072"/><line x1="319.622" y1="128.28" x2="323.414" y2="132.072"/><line x1="319.622" y1="132.072" x2="323.414" y2="128.28"/>
<line x1="320.075" y1="129.117" x2="323.867" y2="129.117"/><line x1="321.971" y1="127.221" x2="321.971" y2="131.013"/><line x1="320.075" y1="127.221" x2="323.867" y2="131.013"/><line x1="320.075" y1="131.013" x2="323.867" y2="127.221"/>
<line x1="320.528" y1="115.288" x2="324.32" y2="115.288"/><line x1="322.424" y1="113.392" x2="322.424" y2="117.184"/><line x1="320.528" y1="113.392" x2="324.32" y2="117.184"/><line x1="320.528" y1="117.184" x2="324.32" y2="113.392"/>
<line x1="320.981" y1="91.1192" x2="324.773" y2="91.1192"/><line x1="322.877" y1="89.2231" x2="322.877" y2="93.0153"/><line x1="320.981" y1="89.2231" x2="324.773" y2="93.0153"/><line x1="320.981" y1="93.0153" x2="324.773" y2="89.2231"/>
<line x1="321.434" y1="91.1656" x2="325.227" y2="91.1656"/><line x1="323.331" y1="89.2695" x2="323.331" y2="93.0617"/><line x1="321.434" y1="89.2695" x2="325.227" y2="93.0617"/><line x1="321.434" y1="93.0617" x2="325.227" y2="89.2695"/>
<line x1="321.888" y1="89.1772" x2="325.68" y2="89.1772"/><line x1="323.784" y1="87.2812" x2="323.784" y2="91.0733"/><line x1="321.888" y1="87.2812" x2="325.68" y2="91.0733"/><line x1="321.888" y1="91.0733" x2="325.68" y2="87.2812"/>
<line x1="322.341" y1="107.173" x2="326.133" y2="107.173"/><line x1="324.237" y1="105.277" x2="324.237" y2="109.069"/><line x1="322.341" y1="105.277" x2="326.133" y2="109.069"/><line x1="322.341" y1="109.069" x2="326.133" y2="105.277"/>
<line x1="322.794" y1="110.736" x2="326.586" y2="110.736"/><line x1="324.69" y1="108.84" x2="324.69" y2="112.632"/><line x1="322.794" y1="108.84" x2="326.586" y2="112.632"/><line x1="322.794" y1="112.632" x2="326.586" y2="108.84"/>
<line x1="323.247" y1="109.338" x2="327.039" y2="109.338"/><line x1="325.143" y1="107.442" x2="325.143" y2="111.234"/><line x1="323.247" y1="107.442" x2="327.039" y2="111.234"/><line x1="323.247" y1="111.234" x2="327.039" y2="107.442"/>
<line x1="323.701" y1="110.339" x2="327.493" y2="110.339"/><line x1="325.597" y1="108.443" x2="325.597" y2="112.236"/><line x1="323.701" y1="108.443" x2="327.493" y2="112.236"/><line x1="323.701" y1="112.236" x2="327.493" y2="108.443"/>
<line x1="324.154" y1="102.674" x2="327.946" y2="102.674"/><line x1="326.05" y1="100.778" x2="326.05" y2="104.57"/><line x1="324.154" y1="100.778" x2="327.946" y2="104.57"/><line x1="324.154" y1="104.57" x2="327.946" y2="100.778"/>
<line x1="324.607" y1="85.8488" x2="328.399" y2="85.8488"/><line x1="326.503" y1="83.9527" x2="326.503" y2="87.7449"/><line x1="324.607" y1="83.9527" x2="328.399" y2="87.7449"/><line x1="324.607" y1="87.7449" x2="328.399" y2="83.9527"/>
<line x1="325.06" y1="88.7814" x2="328.852" y2="88.7814"/><line x1="326.956" y1="86.8853" x2="326.956" y2="90.6774"/><line x1="325.06" y1="86.8853" x2="328.852" y2="90.6774"/><line x1="325.06" y1="90.6774" x2="328.852" y2="86.8853"/>
<line x1="325.513" y1="98.4144" x2="329.306" y2="98.4144"/><line x1="327.41" y1="96.5183" x2="327.41" y2="100.31"/><line x1="325.513" y1="96.5183" x2="329.306" y2="100.31"/><line x1="325.513" y1="100.31" x2="329.306" y2="96.5183"/>
<line x1="325.967" y1="107.354" x2="329.759" y2="107.354"/><line x1="327.863" y1="105.458" x2="327.863" y2="109.25"/><line x1="325.967" y1="105.458" x2="329.759" y2="109.25"/><line x1="325.967" y1="109.25" x2="329.759" y2="105.458"/>
<line x1="326.42" y1="126.062" x2="330.212" y2="126.062"/><line x1="328.316" y1="124.165" x2="328.316" y2="127.958"/><line x1="326.42" y1="124.165" x2="330.212" y2="127.958"/><line x1="326.42" y1="127.958" x2="330.212" y2="124.165"/>
<line x1="326.873" y1="115.793" x2="330.665" y2="115.793"/><line x1="328.769" y1="113.897" x2="328.769" y2="117.689"/><line x1="326.873" y1="113.897" x2="330.665" y2="117.689"/><line x1="326.873" y1="117.689" x2="330.665" y2="113.897"/>
<line x1="327.326" y1="111.346" x2="331.119" y2="111.346"/><line x1="329.222" y1="109.45" x2="329.222" y2="113.242"/><line x1="327.326" y1="109.45" x2="331.119" y2="113.242"/><line x1="327.326" y1="113.242" x2="331.119" y2="109.45"/>
<line x1="327.78" y1="124.287" x2="331.572" y2="124.287"/><line x1="329.676" y1="122.391" x2="329.676" y2="126.183"/><line x1="327.78" y1="122.391" x2="331.572" y2="126.183"/><line x1="327.78" y1="126.183" x2="331.572" y2="122.391"/>
<line x1="328.233" y1="121.876" x2="332.025" y2="121.876"/><line x1="330.129" y1="119.98" x2="330.129" y2="123.772"/><line x1="328.233" y1="119.98" x2="332.025" y2="123.772"/><line x1="328.233" y1="123.772" x2="332.025" y2="119.98"/>
<line x1="328.686" y1="125.568" x2="332.478" y2="125.568"/><line x1="330.582" y1="123.672" x2="330.582" y2="127.464"/><line x1="328.686" y1="123.672" x2="332.478" y2="127.464"/><line x1="328.686" y1="127.464" x2="332.478" y2="123.672"/>
<line x1="329.139" y1="118.366" x2="332.931" y2="118.366"/><line x1="331.035" y1="116.47" x2="331.035" y2="120.262"/><line x1="329.139" y1="116.47" x2="332.931" y2="120.262"/><line x1="329.139" y1="120.262" x2="332.931" y2="116.47"/>
<line x1="329.592" y1="131.884" x2="333.385" y2="131.884"/><line x1="331.489" y1="129.988" x2="331.489" y2="133.78"/><line x1="329.592" y1="129.988" x2="333.385" y2="133.78"/><line x1="329.592" y1="133.78" x2="333.385" y2="129.988"/>
<line x1="330.046" y1="136.243" x2="333.838" y2="136.243"/><line x1="331.942" y1="134.347" x2="331.942" y2="138.139"/><line x1="330.046" y1="134.347" x2="333.838" y2="138.139"/><line x1="330.046" y1="138.139" x2="333.838" y2="134.347"/>
<line x1="330.499" y1="139.87" x2="334.291" y2="139.87"/><line x1="332.395" y1="137.974" x2="332.395" y2="141.766"/><line x1="330.499" y1="137.974" x2="334.291" y2="141.766"/><line x1="330.499" y1="141.766" x2="334.291" y2="137.974"/>
<line x1="330.952" y1="148.966" x2="334.744" y2="148.966"/><line x1="332.848" y1="147.07" x2="332.848" y2="150.862"/><line x1="330.952" y1="147.07" x2="334.744" y2="150.862"/><line x1="330.952" y1="150.862" x2="334.744" y2="147.07"/>
<line x1="331.405" y1="161.587" x2="335.198" y2="161.587"/><line x1="333.301" y1="159.691" x2="333.301" y2="163.483"/><line x1="331.405" y1="159.691" x2="335.198" y2="163.483"/><line x1="331.405" y1="163.483" x2="335.198" y2="159.691"/>
<line x1="331.859" y1="160.011" x2="335.651" y2="160.011"/><line x1="333.755" y1="158.114" x2="333.755" y2="161.907"/><line x1="331.859" y1="158.114" x2="335.651" y2="161.907"/><line x1="331.859" y1="161.907" x2="335.651" y2="158.114"/>
<line x1="332.312" y1="151.555" x2="336.104" y2="151.555"/><line x1="334.208" y1="149.659" x2="334.208" y2="153.451"/><line x1="332.312" y1="149.659" x2="336.104" y2="153.451"/><line x1="332.312" y1="153.451" x2="336.104" y2="149.659"/>
<line x1="332.765" y1="160.49" x2="336.557" y2="160.49"/><line x1="334.661" y1="158.594" x2="334.661" y2="162.386"/><line x1="332.765" y1="158.594" x2="336.557" y2="162.386"/><line x1="332.765" y1="162.386" x2="336.557" y2="158.594"/>
<line x1="333.218" y1="169.284" x2="337.01" y2="169.284"/><line x1="335.114" y1="167.388" x2="335.114" y2="171.18"/><line x1="333.218" y1="167.388" x2="337.01" y2="171.18"/><line x1="333.218" y1="171.18" x2="337.01" y2="167.388"/>
<line x1="333.672" y1="164.741" x2="337.464" y2="164.741"/><line x1="335.568" y1="162.845" x2="335.568" y2="166.637"/><line x1="333.672" y1="162.845" x2="337.464" y2="166.637"/><line x1="333.672" y1="166.637" x2="337.464" y2="162.845"/>
<line x1="334.125" y1="172.948" x2="337.917" y2="172.948"/><line x1="336.021" y1="171.052" x2="336.021" y2="174.844"/><line x1="334.125" y1="171.052" x2="337.917" y2="174.844"/><line x1="334.125" y1="174.844" x2="337.917" y2="171.052"/>
<line x1="334.578" y1="176.71" x2="338.37" y2="176.71"/><line x1="336.474" y1="174.814" x2="336.474" y2="178.606"/><line x1="334.578" y1="174.814" x2="338.37" y2="178.606"/><line x1="334.578" y1="178.606" x2="338.37" y2="174.814"/>
<line x1="335.031" y1="174.199" x2="338.823" y2="174.199"/><line x1="336.927" y1="172.303" x2="336.927" y2="176.095"/><line x1="335.031" y1="172.303" x2="338.823" y2="176.095"/><line x1="335.031" y1="176.095" x2="338.823" y2="172.303"/>
<line x1="335.484" y1="181.052" x2="339.277" y2="181.052"/><line x1="337.38" y1="179.156" x2="337.38" y2="182.948"/><line x1="335.484" y1="179.156" x2="339.277" y2="182.948"/><line x1="335.484" y1="182.948" x2="339.277" y2="179.156"/>
<line x1="335.938" y1="176.102" x2="339.73" y2="176.102"/><line x1="337.834" y1="174.206" x2="337.834" y2="177.998"/><line x1="335.938" y1="174.206" x2="339.73" y2="177.998"/><line x1="335.938" y1="177.998" x2="339.73" y2="174.206"/>
<line x1="336.391" y1="181.71" x2="340.183" y2="181.71"/><line x1="338.287" y1="179.814" x2="338.287" y2="183.606"/><line x1="336.391" y1="179.814" x2="340.183" y2="183.606"/><line x1="336.391" y1="183.606" x2="340.183" y2="179.814"/>
<line x1="336.844" y1="169.817" x2="340.636" y2="169.817"/><line x1="338.74" y1="167.921" x2="338.74" y2="171.713"/><line x1="336.844" y1="167.921" x2="340.636" y2="171.713"/><line x1="336.844" y1="171.713" x2="340.636" y2="167.921"/>
<line x1="337.297" y1="161.005" x2="341.09" y2="161.005"/><line x1="339.193" y1="159.109" x2="339.193" y2="162.901"/><line x1="337.297" y1="159.109" x2="341.09" y2="162.901"/><line x1="337.297" y1="162.901" x2="341.09" y2="159.109"/>
<line x1="337.751" y1="163.514" x2="341.543" y2="163.514"/><line x1="339.647" y1="161.618" x2="339.647" y2="165.41"/><line x1="337.751" y1="161.618" x2="341.543" y2="165.41"/><line x1="337.751" y1="165.41" x2="341.543" y2="161.618"/>
<line x1="338.204" y1="161.768" x2="341.996" y2="161.768"/><line x1="340.1" y1="159.872" x2="340.1" y2="163.664"/><line x1="338.204" y1="159.872" x2="341.996" y2="163.664"/><line x1="338.204" y1="163.664" x2="341.996" y2="159.872"/>
<line x1="338.657" y1="161.615" x2="342.449" y2="161.615"/><line x1="340.553" y1="159.719" x2="340.553" y2="163.511"/><line x1="338.657" y1="159.719" x2="342.449" y2="163.511"/><line x1="338.657" y1="163.511" x2="342.449" y2="159.719"/>
<line x1="339.11" y1="168.645" x2="342.902" y2="168.645"/><line x1="341.006" y1="166.749" x2="341.006" y2="170.541"/><line x1="339.11" y1="166.749" x2="342.902" y2="170.541"/><line x1="339.11" y1="170.541" x2="342.902" y2="166.749"/>
<line x1="339.563" y1="132.167" x2="343.356" y2="132.167"/><line x1="341.46" y1="130.271" x2="341.46" y2="134.063"/><line x1="339.563" y1="130.271" x2="343.356" y2="134.063"/><line x1="339.563" y1="134.063" x2="343.356" y2="130.271"/>
<line x1="340.017" y1="139.212" x2="343.809" y2="139.212"/><line x1="341.913" y1="137.316" x2="341.913" y2="141.108"/><line x1="340.017" y1="137.316" x2="343.809" y2="141.108"/><line x1="340.017" y1="141.108" x2="343.809" y2="137.316"/>
<line x1="340.47" y1="132.571" x2="344.262" y2="132.571"/><line x1="342.366" y1="130.675" x2="342.366" y2="134.467"/><line x1="340.47" y1="130.675" x2="344.262" y2="134.467"/><line x1="340.47" y1="134.467" x2="344.262" y2="130.675"/>
<line x1="340.923" y1="138.554" x2="344.715" y2="138.554"/><line x1="342.819" y1="136.658" x2="342.819" y2="140.45"/><line x1="340.923" y1="136.658" x2="344.715" y2="140.45"/><line x1="340.923" y1="140.45" x2="344.715" y2="136.658"/>
<line x1="341.376" y1="115.838" x2="345.169" y2="115.838"/><line x1="343.272" y1="113.942" x2="343.272" y2="117.734"/><line x1="341.376" y1="113.942" x2="345.169" y2="117.734"/><line x1="341.376" y1="117.734" x2="345.169" y2="113.942"/>
<line x1="341.83" y1="122.586" x2="345.622" y2="122.586"/><line x1="343.726" y1="120.69" x2="343.726" y2="124.482"/><line x1="341.83" y1="120.69" x2="345.622" y2="124.482"/><line x1="341.83" y1="124.482" x2="345.622" y2="120.69"/>
<line x1="342.283" y1="114.505" x2="346.075" y2="114.505"/><line x1="344.179" y1="112.609" x2="344.179" y2="116.401"/><line x1="342.283" y1="112.609" x2="346.075" y2="116.401"/><line x1="342.283" y1="116.401" x2="346.075" y2="112.609"/>
<line x1="342.736" y1="116.741" x2="346.528" y2="116.741"/><line x1="344.632" y1="114.845" x2="344.632" y2="118.637"/><line x1="342.736" y1="114.845" x2="346.528" y2="118.637"/><line x1="342.736" y1="118.637" x2="346.528" y2="114.845"/>
<line x1="343.189" y1="100.572" x2="346.981" y2="100.572"/><line x1="345.085" y1="98.6762" x2="345.085" y2="102.468"/><line x1="343.189" y1="98.6762" x2="346.981" y2="102.468"/><line x1="343.189" y1="102.468" x2="346.981" y2="98.6762"/>
<line x1="343.642" y1="95.2822" x2="347.435" y2="95.2822"/><line x1="345.539" y1="93.3862" x2="345.539" y2="97.1783"/><line x1="343.642" y1="93.3862" x2="347.435" y2="97.1783"/><line x1="343.642" y1="97.1783" x2="347.435" y2="93.3862"/>
<line x1="344.096" y1="107.808" x2="347.888" y2="107.808"/><line x1="345.992" y1="105.911" x2="345.992" y2="109.704"/><line x1="344.096" y1="105.911" x2="347.888" y2="109.704"/><line x1="344.096" y1="109.704" x2="347.888" y2="105.911"/>
<line x1="344.549" y1="110.569" x2="348.341" y2="110.569"/><line x1="346.445" y1="108.673" x2="346.445" y2="112.466"/><line x1="344.549" y1="108.673" x2="348.341" y2="112.466"/><line x1="344.549" y1="112.466" x2="348.341" y2="108.673"/>
<line x1="345.002" y1="106.728" x2="348.794" y2="106.728"/><line x1="346.898" y1="104.831" x2="346.898" y2="108.624"/><line x1="345.002" y1="104.831" x2="348.794" y2="108.624"/><line x1="345.002" y1="108.624" x2="348.794" y2="104.831"/>
<line x1="345.455" y1="97.9409" x2="349.248" y2="97.9409"/><line x1="347.351" y1="96.0448" x2="347.351" y2="99.837"/><line x1="345.455" y1="96.0448" x2="349.248" y2="99.837"/><line x1="345.455" y1="99.837" x2="349.248" y2="96.0448"/>
<line x1="345.909" y1="85.6642" x2="349.701" y2="85.6642"/><line x1="347.805" y1="83.7681" x2="347.805" y2="87.5602"/><line x1="345.909" y1="83.7681" x2="349.701" y2="87.5602"/><line x1="345.909" y1="87.5602" x2="349.701" y2="83.7681"/>
<line x1="346.362" y1="77.8271" x2="350.154" y2="77.8271"/><line x1="348.258" y1="75.931" x2="348.258" y2="79.7232"/><line x1="346.362" y1="75.931" x2="350.154" y2="79.7232"/><line x1="346.362" y1="79.7232" x2="350.154" y2="75.931"/>
<line x1="346.815" y1="87.88" x2="350.607" y2="87.88"/><line x1="348.711" y1="85.9839" x2="348.711" y2="89.7761"/><line x1="346.815" y1="85.9839" x2="350.607" y2="89.7761"/><line x1="346.815" y1="89.7761" x2="350.607" y2="85.9839"/>
<line x1="347.268" y1="63.5498" x2="351.06" y2="63.5498"/><line x1="349.164" y1="61.6537" x2="349.164" y2="65.4459"/><line x1="347.268" y1="61.6537" x2="351.06" y2="65.4459"/><line x1="347.268" y1="65.4459" x2="351.06" y2="61.6537"/>
<line x1="347.722" y1="52.6353" x2="351.514" y2="52.6353"/><line x1="349.618" y1="50.7392" x2="349.618" y2="54.5314"/><line x1="347.722" y1="50.7392" x2="351.514" y2="54.5314"/><line x1="347.722" y1="54.5314" x2="351.514" y2="50.7392"/>
</g>
<g stroke="black" stroke-width="1" fill="none">
<line x1="351.347" y1="50.052" x2="355.139" y2="50.052"/><line x1="353.243" y1="48.1559" x2="353.243" y2="51.948"/><line x1="351.347" y1="48.1559" x2="355.139" y2="51.948"/><line x1="351.347" y1="51.948" x2="355.139" y2="48.1559"/>
<line x1="351.801" y1="52.2569" x2="355.593" y2="52.2569"/><line x1="353.697" y1="50.3608" x2="353.697" y2="54.153"/><line x1="351.801" y1="50.3608" x2="355.593" y2="54.153"/><line x1="351.801" y1="54.153" x2="355.593" y2="50.3608"/>
</g>
<path d="M170.593,353.116h 226.613" fill="none" stroke="#0000ff"/>
<path d="M283.9,372.012v -47.2396" fill="none" stroke="#ff0000"/>
<rect x="57.1929" y="330.677" width="113.386" height="41.3346" fill="white"/>
<path d="M57.1929,372.012h 113.386" fill="none" stroke="black"/>
<path d="M170.579,372.012v -41.3346" fill="none" stroke="black"/>
<path d="M170.579,330.677h -113.386" fill="none" stroke="black"/>
<path d="M57.1929,330.677v 41.3346" fill="none" stroke="black"/>
<text xml:space="preserve" x="85.3498" y="354.568" fill="black" font-size="12.0704" font-family="Helvetica">#p.e of PMTs0</text>
<path d="M61.4449,351.344h 19.8425" fill="none" stroke="black"/></svg>
