<?xml version="1.0" standalone="no"?>
<svg width="567.429" height="413.846" viewBox="0 0 567.429 413.846" xmlns="http://www.w3.org/2000/svg" shape-rendering="crispEdges">
<title>
figures/chi2_0PMTnpedata190929-01.svg
</title>
<desc>
Creator: ROOT Version 6.18/02
CreationDate: Tue Oct  1 14:33:17 2019</desc>
<defs>
</defs>
<rect x="0.5" y="0" width="566.929" height="413.346" fill="white"/>
<rect x="57.1929" y="41.3346" width="453.543" height="330.677" fill="white"/>
<rect x="57.1929" y="41.3346" width="453.543" height="330.677" fill="none" stroke="black"/>
<path d="M57.1929,372.012h 453.543" fill="none" stroke="black"/>
<path d="M101.561,41.3346v 330.677" fill="none" stroke="black" stroke-dasharray=" 1, 2"/>
<path d="M146.829,41.3346v 330.677" fill="none" stroke="black" stroke-dasharray=" 1, 2"/>
<path d="M192.097,41.3346v 330.677" fill="none" stroke="black" stroke-dasharray=" 1, 2"/>
<path d="M237.366,41.3346v 330.677" fill="none" stroke="black" stroke-dasharray=" 1, 2"/>
<path d="M282.634,41.3346v 330.677" fill="none" stroke="black" stroke-dasharray=" 1, 2"/>
<path d="M327.902,41.3346v 330.677" fill="none" stroke="black" stroke-dasharray=" 1, 2"/>
<path d="M373.171,41.3346v 330.677" fill="none" stroke="black" stroke-dasharray=" 1, 2"/>
<path d="M418.439,41.3346v 330.677" fill="none" stroke="black" stroke-dasharray=" 1, 2"/>
<path d="M463.707,41.3346v 330.677" fill="none" stroke="black" stroke-dasharray=" 1, 2"/>
<path d="M508.975,41.3346v 330.677" fill="none" stroke="black" stroke-dasharray=" 1, 2"/>
<path d="M101.561,41.3346v 330.677" fill="none" stroke="black" stroke-dasharray=" 1, 2"/>
<path d="M508.975,41.3346v 330.677" fill="none" stroke="black" stroke-dasharray=" 1, 2"/>
<path d="M57.1929,372.012v -330.677" fill="none" stroke="black"/>
<path d="M510.736,362.662h -453.543" fill="none" stroke="black" stroke-dasharray=" 1, 2"/>
<path d="M510.736,299.676h -453.543" fill="none" stroke="black" stroke-dasharray=" 1, 2"/>
<path d="M510.736,236.69h -453.543" fill="none" stroke="black" stroke-dasharray=" 1, 2"/>
<path d="M510.736,173.703h -453.543" fill="none" stroke="black" stroke-dasharray=" 1, 2"/>
<path d="M510.736,110.717h -453.543" fill="none" stroke="black" stroke-dasharray=" 1, 2"/>
<path d="M510.736,47.7312h -453.543" fill="none" stroke="black" stroke-dasharray=" 1, 2"/>
<path d="M510.736,362.662h -453.543" fill="none" stroke="black" stroke-dasharray=" 1, 2"/>
<path d="M510.736,47.7312h -453.543" fill="none" stroke="black" stroke-dasharray=" 1, 2"/>
<path d="M57.1929,372.012h 453.543" fill="none" stroke="black"/>
<path d="M101.561,362.091v 9.92031" fill="none" stroke="black"/>
<path d="M112.878,367.052v 4.96016" fill="none" stroke="black"/>
<path d="M124.195,367.052v 4.96016" fill="none" stroke="black"/>
<path d="M135.512,367.052v 4.96016" fill="none" stroke="black"/>
<path d="M146.829,362.091v 9.92031" fill="none" stroke="black"/>
<path d="M158.146,367.052v 4.96016" fill="none" stroke="black"/>
<path d="M169.463,367.052v 4.96016" fill="none" stroke="black"/>
<path d="M180.78,367.052v 4.96016" fill="none" stroke="black"/>
<path d="M192.097,362.091v 9.92031" fill="none" stroke="black"/>
<path d="M203.414,367.052v 4.96016" fill="none" stroke="black"/>
<path d="M214.731,367.052v 4.96016" fill="none" stroke="black"/>
<path d="M226.048,367.052v 4.96016" fill="none" stroke="black"/>
<path d="M237.366,362.091v 9.92031" fill="none" stroke="black"/>
<path d="M248.683,367.052v 4.96016" fill="none" stroke="black"/>
<path d="M260,367.052v 4.96016" fill="none" stroke="black"/>
<path d="M271.317,367.052v 4.96016" fill="none" stroke="black"/>
<path d="M282.634,362.091v 9.92031" fill="none" stroke="black"/>
<path d="M293.951,367.052v 4.96016" fill="none" stroke="black"/>
<path d="M305.268,367.052v 4.96016" fill="none" stroke="black"/>
<path d="M316.585,367.052v 4.96016" fill="none" stroke="black"/>
<path d="M327.902,362.091v 9.92031" fill="none" stroke="black"/>
<path d="M339.219,367.052v 4.96016" fill="none" stroke="black"/>
<path d="M350.536,367.052v 4.96016" fill="none" stroke="black"/>
<path d="M361.853,367.052v 4.96016" fill="none" stroke="black"/>
<path d="M373.171,362.091v 9.92031" fill="none" stroke="black"/>
<path d="M384.488,367.052v 4.96016" fill="none" stroke="black"/>
<path d="M395.805,367.052v 4.96016" fill="none" stroke="black"/>
<path d="M407.122,367.052v 4.96016" fill="none" stroke="black"/>
<path d="M418.439,362.091v 9.92031" fill="none" stroke="black"/>
<path d="M429.756,367.052v 4.96016" fill="none" stroke="black"/>
<path d="M441.073,367.052v 4.96016" fill="none" stroke="black"/>
<path d="M452.39,367.052v 4.96016" fill="none" stroke="black"/>
<path d="M463.707,362.091v 9.92031" fill="none" stroke="black"/>
<path d="M475.024,367.052v 4.96016" fill="none" stroke="black"/>
<path d="M486.341,367.052v 4.96016" fill="none" stroke="black"/>
<path d="M497.658,367.052v 4.96016" fill="none" stroke="black"/>
<path d="M508.975,362.091v 9.92031" fill="none" stroke="black"/>
<path d="M101.561,362.091v 9.92031" fill="none" stroke="black"/>
<path d="M90.2434,367.052v 4.96016" fill="none" stroke="black"/>
<path d="M78.9264,367.052v 4.96016" fill="none" stroke="black"/>
<path d="M67.6093,367.052v 4.96016" fill="none" stroke="black"/>
<path d="M508.975,362.091v 9.92031" fill="none" stroke="black"/>
<text xml:space="preserve" x="88.6679" y="385.379" fill="black" font-size="13.7726" font-family="Helvetica">1.04</text>
<text xml:space="preserve" x="133.7" y="385.379" fill="black" font-size="13.7726" font-family="Helvetica">1.06</text>
<text xml:space="preserve" x="179.206" y="385.379" fill="black" font-size="13.7726" font-family="Helvetica">1.08</text>
<text xml:space="preserve" x="228.978" y="385.379" fill="black" font-size="13.7726" font-family="Helvetica">1.1</text>
<text xml:space="preserve" x="269.744" y="385.379" fill="black" font-size="13.7726" font-family="Helvetica">1.12</text>
<text xml:space="preserve" x="314.776" y="385.379" fill="black" font-size="13.7726" font-family="Helvetica">1.14</text>
<text xml:space="preserve" x="360.282" y="385.379" fill="black" font-size="13.7726" font-family="Helvetica">1.16</text>
<text xml:space="preserve" x="405.314" y="385.379" fill="black" font-size="13.7726" font-family="Helvetica">1.18</text>
<text xml:space="preserve" x="454.612" y="385.379" fill="black" font-size="13.7726" font-family="Helvetica">1.2</text>
<text xml:space="preserve" x="495.852" y="385.379" fill="black" font-size="13.7726" font-family="Helvetica">1.22</text>
<text xml:space="preserve" x="413.372" y="400.074" fill="black" font-size="13.7726" font-family="Helvetica">calibration factor</text>
<path d="M57.1929,372.012v -330.677" fill="none" stroke="black"/>
<path d="M70.7992,362.662h -13.6063" fill="none" stroke="black"/>
<path d="M63.9961,346.915h -6.80315" fill="none" stroke="black"/>
<path d="M63.9961,331.169h -6.80315" fill="none" stroke="black"/>
<path d="M63.9961,315.422h -6.80315" fill="none" stroke="black"/>
<path d="M70.7992,299.676h -13.6063" fill="none" stroke="black"/>
<path d="M63.9961,283.929h -6.80315" fill="none" stroke="black"/>
<path d="M63.9961,268.183h -6.80315" fill="none" stroke="black"/>
<path d="M63.9961,252.436h -6.80315" fill="none" stroke="black"/>
<path d="M70.7992,236.69h -13.6063" fill="none" stroke="black"/>
<path d="M63.9961,220.943h -6.80315" fill="none" stroke="black"/>
<path d="M63.9961,205.196h -6.80315" fill="none" stroke="black"/>
<path d="M63.9961,189.45h -6.80315" fill="none" stroke="black"/>
<path d="M70.7992,173.703h -13.6063" fill="none" stroke="black"/>
<path d="M63.9961,157.957h -6.80315" fill="none" stroke="black"/>
<path d="M63.9961,142.21h -6.80315" fill="none" stroke="black"/>
<path d="M63.9961,126.464h -6.80315" fill="none" stroke="black"/>
<path d="M70.7992,110.717h -13.6063" fill="none" stroke="black"/>
<path d="M63.9961,94.9708h -6.80315" fill="none" stroke="black"/>
<path d="M63.9961,79.2243h -6.80315" fill="none" stroke="black"/>
<path d="M63.9961,63.4777h -6.80315" fill="none" stroke="black"/>
<path d="M70.7992,47.7312h -13.6063" fill="none" stroke="black"/>
<path d="M70.7992,362.662h -13.6063" fill="none" stroke="black"/>
<path d="M70.7992,47.7312h -13.6063" fill="none" stroke="black"/>
<text xml:space="preserve" x="25.1491" y="367.366" fill="black" font-size="13.7726" font-family="Helvetica">2660</text>
<text xml:space="preserve" x="25.1491" y="304.322" fill="black" font-size="13.7726" font-family="Helvetica">2680</text>
<text xml:space="preserve" x="25.1491" y="241.277" fill="black" font-size="13.7726" font-family="Helvetica">2700</text>
<text xml:space="preserve" x="25.1491" y="178.232" fill="black" font-size="13.7726" font-family="Helvetica">2720</text>
<text xml:space="preserve" x="25.1491" y="115.187" fill="black" font-size="13.7726" font-family="Helvetica">2740</text>
<text xml:space="preserve" x="25.1491" y="52.1423" fill="black" font-size="13.7726" font-family="Helvetica">2760</text>
<g transform="rotate(-90,8.08434,45.98)">
<text xml:space="preserve" x="8.08434" y="45.98" fill="black" font-size="9.34839" font-family="Helvetica">2</text>
</g>
<g transform="rotate(-90,12.3505,50.2462)">
<text xml:space="preserve" x="12.3505" y="50.2462" fill="black" font-size="13.7726" font-family="Helvetica"> </text>
</g>
<g transform="rotate(-90,12.3505,57.3565)">
<text xml:space="preserve" x="12.3505" y="57.3565" fill="black" font-size="13.7726" font-family="Times">&#0967;</text>
</g>
<g stroke="black" stroke-width="1" fill="none">
<line x1="149.007" y1="55.9372" x2="152.799" y2="55.9372"/><line x1="150.903" y1="54.0411" x2="150.903" y2="57.8333"/><line x1="149.007" y1="54.0411" x2="152.799" y2="57.8333"/><line x1="149.007" y1="57.8333" x2="152.799" y2="54.0411"/>
<line x1="149.46" y1="52.9889" x2="153.252" y2="52.9889"/><line x1="151.356" y1="51.0928" x2="151.356" y2="54.885"/><line x1="149.46" y1="51.0928" x2="153.252" y2="54.885"/><line x1="149.46" y1="54.885" x2="153.252" y2="51.0928"/>
<line x1="149.912" y1="63.3199" x2="153.704" y2="63.3199"/><line x1="151.808" y1="61.4238" x2="151.808" y2="65.216"/><line x1="149.912" y1="61.4238" x2="153.704" y2="65.216"/><line x1="149.912" y1="65.216" x2="153.704" y2="61.4238"/>
</g>
<g stroke="black" stroke-width="1" fill="none">
<line x1="151.27" y1="50.6588" x2="155.062" y2="50.6588"/><line x1="153.166" y1="48.7627" x2="153.166" y2="52.5549"/><line x1="151.27" y1="48.7627" x2="155.062" y2="52.5549"/><line x1="151.27" y1="52.5549" x2="155.062" y2="48.7627"/>
<line x1="151.723" y1="56.9685" x2="155.515" y2="56.9685"/><line x1="153.619" y1="55.0724" x2="153.619" y2="58.8646"/><line x1="151.723" y1="55.0724" x2="155.515" y2="58.8646"/><line x1="151.723" y1="58.8646" x2="155.515" y2="55.0724"/>
<line x1="152.176" y1="54.8584" x2="155.968" y2="54.8584"/><line x1="154.072" y1="52.9623" x2="154.072" y2="56.7545"/><line x1="152.176" y1="52.9623" x2="155.968" y2="56.7545"/><line x1="152.176" y1="56.7545" x2="155.968" y2="52.9623"/>
<line x1="152.628" y1="70.7013" x2="156.421" y2="70.7013"/><line x1="154.524" y1="68.8052" x2="154.524" y2="72.5973"/><line x1="152.628" y1="68.8052" x2="156.421" y2="72.5973"/><line x1="152.628" y1="72.5973" x2="156.421" y2="68.8052"/>
<line x1="153.081" y1="87.1093" x2="156.873" y2="87.1093"/><line x1="154.977" y1="85.2133" x2="154.977" y2="89.0054"/><line x1="153.081" y1="85.2133" x2="156.873" y2="89.0054"/><line x1="153.081" y1="89.0054" x2="156.873" y2="85.2133"/>
<line x1="153.534" y1="109.958" x2="157.326" y2="109.958"/><line x1="155.43" y1="108.062" x2="155.43" y2="111.854"/><line x1="153.534" y1="108.062" x2="157.326" y2="111.854"/><line x1="153.534" y1="111.854" x2="157.326" y2="108.062"/>
<line x1="153.986" y1="111.817" x2="157.779" y2="111.817"/><line x1="155.883" y1="109.921" x2="155.883" y2="113.713"/><line x1="153.986" y1="109.921" x2="157.779" y2="113.713"/><line x1="153.986" y1="113.713" x2="157.779" y2="109.921"/>
<line x1="154.439" y1="95.9106" x2="158.231" y2="95.9106"/><line x1="156.335" y1="94.0145" x2="156.335" y2="97.8067"/><line x1="154.439" y1="94.0145" x2="158.231" y2="97.8067"/><line x1="154.439" y1="97.8067" x2="158.231" y2="94.0145"/>
<line x1="154.892" y1="82.1756" x2="158.684" y2="82.1756"/><line x1="156.788" y1="80.2795" x2="156.788" y2="84.0717"/><line x1="154.892" y1="80.2795" x2="158.684" y2="84.0717"/><line x1="154.892" y1="84.0717" x2="158.684" y2="80.2795"/>
<line x1="155.344" y1="85.8719" x2="159.137" y2="85.8719"/><line x1="157.241" y1="83.9758" x2="157.241" y2="87.768"/><line x1="155.344" y1="83.9758" x2="159.137" y2="87.768"/><line x1="155.344" y1="87.768" x2="159.137" y2="83.9758"/>
<line x1="155.797" y1="100.514" x2="159.589" y2="100.514"/><line x1="157.693" y1="98.6178" x2="157.693" y2="102.41"/><line x1="155.797" y1="98.6178" x2="159.589" y2="102.41"/><line x1="155.797" y1="102.41" x2="159.589" y2="98.6178"/>
<line x1="156.25" y1="97.5227" x2="160.042" y2="97.5227"/><line x1="158.146" y1="95.6266" x2="158.146" y2="99.4187"/><line x1="156.25" y1="95.6266" x2="160.042" y2="99.4187"/><line x1="156.25" y1="99.4187" x2="160.042" y2="95.6266"/>
<line x1="156.703" y1="97.2833" x2="160.495" y2="97.2833"/><line x1="158.599" y1="95.3872" x2="158.599" y2="99.1794"/><line x1="156.703" y1="95.3872" x2="160.495" y2="99.1794"/><line x1="156.703" y1="99.1794" x2="160.495" y2="95.3872"/>
<line x1="157.155" y1="100.807" x2="160.947" y2="100.807"/><line x1="159.051" y1="98.9107" x2="159.051" y2="102.703"/><line x1="157.155" y1="98.9107" x2="160.947" y2="102.703"/><line x1="157.155" y1="102.703" x2="160.947" y2="98.9107"/>
<line x1="157.608" y1="97.5711" x2="161.4" y2="97.5711"/><line x1="159.504" y1="95.675" x2="159.504" y2="99.4672"/><line x1="157.608" y1="95.675" x2="161.4" y2="99.4672"/><line x1="157.608" y1="99.4672" x2="161.4" y2="95.675"/>
<line x1="158.061" y1="100.389" x2="161.853" y2="100.389"/><line x1="159.957" y1="98.4934" x2="159.957" y2="102.286"/><line x1="158.061" y1="98.4934" x2="161.853" y2="102.286"/><line x1="158.061" y1="102.286" x2="161.853" y2="98.4934"/>
<line x1="158.513" y1="113.27" x2="162.305" y2="113.27"/><line x1="160.409" y1="111.374" x2="160.409" y2="115.166"/><line x1="158.513" y1="111.374" x2="162.305" y2="115.166"/><line x1="158.513" y1="115.166" x2="162.305" y2="111.374"/>
<line x1="158.966" y1="109.898" x2="162.758" y2="109.898"/><line x1="160.862" y1="108.002" x2="160.862" y2="111.794"/><line x1="158.966" y1="108.002" x2="162.758" y2="111.794"/><line x1="158.966" y1="111.794" x2="162.758" y2="108.002"/>
<line x1="159.419" y1="94.5846" x2="163.211" y2="94.5846"/><line x1="161.315" y1="92.6885" x2="161.315" y2="96.4807"/><line x1="159.419" y1="92.6885" x2="163.211" y2="96.4807"/><line x1="159.419" y1="96.4807" x2="163.211" y2="92.6885"/>
<line x1="159.871" y1="93.4025" x2="163.663" y2="93.4025"/><line x1="161.767" y1="91.5064" x2="161.767" y2="95.2986"/><line x1="159.871" y1="91.5064" x2="163.663" y2="95.2986"/><line x1="159.871" y1="95.2986" x2="163.663" y2="91.5064"/>
<line x1="160.324" y1="94.7165" x2="164.116" y2="94.7165"/><line x1="162.22" y1="92.8204" x2="162.22" y2="96.6126"/><line x1="160.324" y1="92.8204" x2="164.116" y2="96.6126"/><line x1="160.324" y1="96.6126" x2="164.116" y2="92.8204"/>
<line x1="160.777" y1="63.3495" x2="164.569" y2="63.3495"/><line x1="162.673" y1="61.4534" x2="162.673" y2="65.2456"/><line x1="160.777" y1="61.4534" x2="164.569" y2="65.2456"/><line x1="160.777" y1="65.2456" x2="164.569" y2="61.4534"/>
<line x1="161.229" y1="68.7973" x2="165.022" y2="68.7973"/><line x1="163.125" y1="66.9012" x2="163.125" y2="70.6934"/><line x1="161.229" y1="66.9012" x2="165.022" y2="70.6934"/><line x1="161.229" y1="70.6934" x2="165.022" y2="66.9012"/>
<line x1="161.682" y1="52.8733" x2="165.474" y2="52.8733"/><line x1="163.578" y1="50.9772" x2="163.578" y2="54.7693"/><line x1="161.682" y1="50.9772" x2="165.474" y2="54.7693"/><line x1="161.682" y1="54.7693" x2="165.474" y2="50.9772"/>
<line x1="162.135" y1="73.0202" x2="165.927" y2="73.0202"/><line x1="164.031" y1="71.1242" x2="164.031" y2="74.9163"/><line x1="162.135" y1="71.1242" x2="165.927" y2="74.9163"/><line x1="162.135" y1="74.9163" x2="165.927" y2="71.1242"/>
<line x1="162.587" y1="58.6886" x2="166.38" y2="58.6886"/><line x1="164.483" y1="56.7926" x2="164.483" y2="60.5847"/><line x1="162.587" y1="56.7926" x2="166.38" y2="60.5847"/><line x1="162.587" y1="60.5847" x2="166.38" y2="56.7926"/>
</g>
<g stroke="black" stroke-width="1" fill="none">
<line x1="170.283" y1="55.6613" x2="174.075" y2="55.6613"/><line x1="172.179" y1="53.7652" x2="172.179" y2="57.5574"/><line x1="170.283" y1="53.7652" x2="174.075" y2="57.5574"/><line x1="170.283" y1="57.5574" x2="174.075" y2="53.7652"/>
<line x1="170.736" y1="64.3706" x2="174.528" y2="64.3706"/><line x1="172.632" y1="62.4745" x2="172.632" y2="66.2667"/><line x1="170.736" y1="62.4745" x2="174.528" y2="66.2667"/><line x1="170.736" y1="66.2667" x2="174.528" y2="62.4745"/>
<line x1="171.188" y1="57.2558" x2="174.981" y2="57.2558"/><line x1="173.084" y1="55.3597" x2="173.084" y2="59.1519"/><line x1="171.188" y1="55.3597" x2="174.981" y2="59.1519"/><line x1="171.188" y1="59.1519" x2="174.981" y2="55.3597"/>
<line x1="171.641" y1="42.3777" x2="175.433" y2="42.3777"/><line x1="173.537" y1="40.4816" x2="173.537" y2="44.2738"/><line x1="171.641" y1="40.4816" x2="175.433" y2="44.2738"/><line x1="171.641" y1="44.2738" x2="175.433" y2="40.4816"/>
<line x1="172.094" y1="70.1124" x2="175.886" y2="70.1124"/><line x1="173.99" y1="68.2163" x2="173.99" y2="72.0085"/><line x1="172.094" y1="68.2163" x2="175.886" y2="72.0085"/><line x1="172.094" y1="72.0085" x2="175.886" y2="68.2163"/>
<line x1="172.546" y1="72.2974" x2="176.339" y2="72.2974"/><line x1="174.443" y1="70.4013" x2="174.443" y2="74.1935"/><line x1="172.546" y1="70.4013" x2="176.339" y2="74.1935"/><line x1="172.546" y1="74.1935" x2="176.339" y2="70.4013"/>
<line x1="172.999" y1="89.1482" x2="176.791" y2="89.1482"/><line x1="174.895" y1="87.2521" x2="174.895" y2="91.0443"/><line x1="172.999" y1="87.2521" x2="176.791" y2="91.0443"/><line x1="172.999" y1="91.0443" x2="176.791" y2="87.2521"/>
<line x1="173.452" y1="105.477" x2="177.244" y2="105.477"/><line x1="175.348" y1="103.581" x2="175.348" y2="107.373"/><line x1="173.452" y1="103.581" x2="177.244" y2="107.373"/><line x1="173.452" y1="107.373" x2="177.244" y2="103.581"/>
<line x1="173.904" y1="95.6548" x2="177.697" y2="95.6548"/><line x1="175.801" y1="93.7588" x2="175.801" y2="97.5509"/><line x1="173.904" y1="93.7588" x2="177.697" y2="97.5509"/><line x1="173.904" y1="97.5509" x2="177.697" y2="93.7588"/>
<line x1="174.357" y1="103.887" x2="178.149" y2="103.887"/><line x1="176.253" y1="101.991" x2="176.253" y2="105.783"/><line x1="174.357" y1="101.991" x2="178.149" y2="105.783"/><line x1="174.357" y1="105.783" x2="178.149" y2="101.991"/>
<line x1="174.81" y1="120.733" x2="178.602" y2="120.733"/><line x1="176.706" y1="118.837" x2="176.706" y2="122.629"/><line x1="174.81" y1="118.837" x2="178.602" y2="122.629"/><line x1="174.81" y1="122.629" x2="178.602" y2="118.837"/>
<line x1="175.263" y1="133.35" x2="179.055" y2="133.35"/><line x1="177.159" y1="131.454" x2="177.159" y2="135.246"/><line x1="175.263" y1="131.454" x2="179.055" y2="135.246"/><line x1="175.263" y1="135.246" x2="179.055" y2="131.454"/>
<line x1="175.715" y1="139.7" x2="179.507" y2="139.7"/><line x1="177.611" y1="137.804" x2="177.611" y2="141.596"/><line x1="175.715" y1="137.804" x2="179.507" y2="141.596"/><line x1="175.715" y1="141.596" x2="179.507" y2="137.804"/>
<line x1="176.168" y1="164.589" x2="179.96" y2="164.589"/><line x1="178.064" y1="162.693" x2="178.064" y2="166.485"/><line x1="176.168" y1="162.693" x2="179.96" y2="166.485"/><line x1="176.168" y1="166.485" x2="179.96" y2="162.693"/>
<line x1="176.621" y1="138.847" x2="180.413" y2="138.847"/><line x1="178.517" y1="136.951" x2="178.517" y2="140.744"/><line x1="176.621" y1="136.951" x2="180.413" y2="140.744"/><line x1="176.621" y1="140.744" x2="180.413" y2="136.951"/>
<line x1="177.073" y1="140.486" x2="180.865" y2="140.486"/><line x1="178.969" y1="138.59" x2="178.969" y2="142.382"/><line x1="177.073" y1="138.59" x2="180.865" y2="142.382"/><line x1="177.073" y1="142.382" x2="180.865" y2="138.59"/>
<line x1="177.526" y1="143.52" x2="181.318" y2="143.52"/><line x1="179.422" y1="141.624" x2="179.422" y2="145.416"/><line x1="177.526" y1="141.624" x2="181.318" y2="145.416"/><line x1="177.526" y1="145.416" x2="181.318" y2="141.624"/>
<line x1="177.979" y1="145.918" x2="181.771" y2="145.918"/><line x1="179.875" y1="144.022" x2="179.875" y2="147.814"/><line x1="177.979" y1="144.022" x2="181.771" y2="147.814"/><line x1="177.979" y1="147.814" x2="181.771" y2="144.022"/>
<line x1="178.431" y1="151.771" x2="182.223" y2="151.771"/><line x1="180.327" y1="149.874" x2="180.327" y2="153.667"/><line x1="178.431" y1="149.874" x2="182.223" y2="153.667"/><line x1="178.431" y1="153.667" x2="182.223" y2="149.874"/>
<line x1="178.884" y1="149.861" x2="182.676" y2="149.861"/><line x1="180.78" y1="147.965" x2="180.78" y2="151.757"/><line x1="178.884" y1="147.965" x2="182.676" y2="151.757"/><line x1="178.884" y1="151.757" x2="182.676" y2="147.965"/>
<line x1="179.337" y1="162.279" x2="183.129" y2="162.279"/><line x1="181.233" y1="160.383" x2="181.233" y2="164.175"/><line x1="179.337" y1="160.383" x2="183.129" y2="164.175"/><line x1="179.337" y1="164.175" x2="183.129" y2="160.383"/>
<line x1="179.789" y1="137.105" x2="183.582" y2="137.105"/><line x1="181.685" y1="135.209" x2="181.685" y2="139.001"/><line x1="179.789" y1="135.209" x2="183.582" y2="139.001"/><line x1="179.789" y1="139.001" x2="183.582" y2="135.209"/>
<line x1="180.242" y1="152.309" x2="184.034" y2="152.309"/><line x1="182.138" y1="150.413" x2="182.138" y2="154.205"/><line x1="180.242" y1="150.413" x2="184.034" y2="154.205"/><line x1="180.242" y1="154.205" x2="184.034" y2="150.413"/>
<line x1="180.695" y1="129.254" x2="184.487" y2="129.254"/><line x1="182.591" y1="127.358" x2="182.591" y2="131.15"/><line x1="180.695" y1="127.358" x2="184.487" y2="131.15"/><line x1="180.695" y1="131.15" x2="184.487" y2="127.358"/>
<line x1="181.147" y1="143.68" x2="184.94" y2="143.68"/><line x1="183.044" y1="141.784" x2="183.044" y2="145.577"/><line x1="181.147" y1="141.784" x2="184.94" y2="145.577"/><line x1="181.147" y1="145.577" x2="184.94" y2="141.784"/>
<line x1="181.6" y1="143.575" x2="185.392" y2="143.575"/><line x1="183.496" y1="141.679" x2="183.496" y2="145.471"/><line x1="181.6" y1="141.679" x2="185.392" y2="145.471"/><line x1="181.6" y1="145.471" x2="185.392" y2="141.679"/>
<line x1="182.053" y1="138.175" x2="185.845" y2="138.175"/><line x1="183.949" y1="136.278" x2="183.949" y2="140.071"/><line x1="182.053" y1="136.278" x2="185.845" y2="140.071"/><line x1="182.053" y1="140.071" x2="185.845" y2="136.278"/>
<line x1="182.505" y1="151.482" x2="186.298" y2="151.482"/><line x1="184.402" y1="149.586" x2="184.402" y2="153.378"/><line x1="182.505" y1="149.586" x2="186.298" y2="153.378"/><line x1="182.505" y1="153.378" x2="186.298" y2="149.586"/>
<line x1="182.958" y1="150.581" x2="186.75" y2="150.581"/><line x1="184.854" y1="148.685" x2="184.854" y2="152.477"/><line x1="182.958" y1="148.685" x2="186.75" y2="152.477"/><line x1="182.958" y1="152.477" x2="186.75" y2="148.685"/>
<line x1="183.411" y1="149.449" x2="187.203" y2="149.449"/><line x1="185.307" y1="147.553" x2="185.307" y2="151.345"/><line x1="183.411" y1="147.553" x2="187.203" y2="151.345"/><line x1="183.411" y1="151.345" x2="187.203" y2="147.553"/>
<line x1="183.864" y1="146.784" x2="187.656" y2="146.784"/><line x1="185.76" y1="144.888" x2="185.76" y2="148.68"/><line x1="183.864" y1="144.888" x2="187.656" y2="148.68"/><line x1="183.864" y1="148.68" x2="187.656" y2="144.888"/>
<line x1="184.316" y1="147.103" x2="188.108" y2="147.103"/><line x1="186.212" y1="145.207" x2="186.212" y2="148.999"/><line x1="184.316" y1="145.207" x2="188.108" y2="148.999"/><line x1="184.316" y1="148.999" x2="188.108" y2="145.207"/>
<line x1="184.769" y1="160.196" x2="188.561" y2="160.196"/><line x1="186.665" y1="158.3" x2="186.665" y2="162.092"/><line x1="184.769" y1="158.3" x2="188.561" y2="162.092"/><line x1="184.769" y1="162.092" x2="188.561" y2="158.3"/>
<line x1="185.222" y1="153.768" x2="189.014" y2="153.768"/><line x1="187.118" y1="151.871" x2="187.118" y2="155.664"/><line x1="185.222" y1="151.871" x2="189.014" y2="155.664"/><line x1="185.222" y1="155.664" x2="189.014" y2="151.871"/>
<line x1="185.674" y1="177.126" x2="189.466" y2="177.126"/><line x1="187.57" y1="175.23" x2="187.57" y2="179.022"/><line x1="185.674" y1="175.23" x2="189.466" y2="179.022"/><line x1="185.674" y1="179.022" x2="189.466" y2="175.23"/>
<line x1="186.127" y1="184.321" x2="189.919" y2="184.321"/><line x1="188.023" y1="182.425" x2="188.023" y2="186.217"/><line x1="186.127" y1="182.425" x2="189.919" y2="186.217"/><line x1="186.127" y1="186.217" x2="189.919" y2="182.425"/>
<line x1="186.58" y1="191.184" x2="190.372" y2="191.184"/><line x1="188.476" y1="189.288" x2="188.476" y2="193.08"/><line x1="186.58" y1="189.288" x2="190.372" y2="193.08"/><line x1="186.58" y1="193.08" x2="190.372" y2="189.288"/>
<line x1="187.032" y1="198.399" x2="190.824" y2="198.399"/><line x1="188.928" y1="196.503" x2="188.928" y2="200.295"/><line x1="187.032" y1="196.503" x2="190.824" y2="200.295"/><line x1="187.032" y1="200.295" x2="190.824" y2="196.503"/>
<line x1="187.485" y1="181.151" x2="191.277" y2="181.151"/><line x1="189.381" y1="179.255" x2="189.381" y2="183.047"/><line x1="187.485" y1="179.255" x2="191.277" y2="183.047"/><line x1="187.485" y1="183.047" x2="191.277" y2="179.255"/>
<line x1="187.938" y1="183.967" x2="191.73" y2="183.967"/><line x1="189.834" y1="182.071" x2="189.834" y2="185.863"/><line x1="187.938" y1="182.071" x2="191.73" y2="185.863"/><line x1="187.938" y1="185.863" x2="191.73" y2="182.071"/>
<line x1="188.39" y1="177.431" x2="192.183" y2="177.431"/><line x1="190.286" y1="175.535" x2="190.286" y2="179.327"/><line x1="188.39" y1="175.535" x2="192.183" y2="179.327"/><line x1="188.39" y1="179.327" x2="192.183" y2="175.535"/>
<line x1="188.843" y1="169.887" x2="192.635" y2="169.887"/><line x1="190.739" y1="167.991" x2="190.739" y2="171.783"/><line x1="188.843" y1="167.991" x2="192.635" y2="171.783"/><line x1="188.843" y1="171.783" x2="192.635" y2="167.991"/>
<line x1="189.296" y1="191.888" x2="193.088" y2="191.888"/><line x1="191.192" y1="189.992" x2="191.192" y2="193.784"/><line x1="189.296" y1="189.992" x2="193.088" y2="193.784"/><line x1="189.296" y1="193.784" x2="193.088" y2="189.992"/>
<line x1="189.748" y1="218.336" x2="193.541" y2="218.336"/><line x1="191.644" y1="216.44" x2="191.644" y2="220.232"/><line x1="189.748" y1="216.44" x2="193.541" y2="220.232"/><line x1="189.748" y1="220.232" x2="193.541" y2="216.44"/>
<line x1="190.201" y1="184.309" x2="193.993" y2="184.309"/><line x1="192.097" y1="182.413" x2="192.097" y2="186.205"/><line x1="190.201" y1="182.413" x2="193.993" y2="186.205"/><line x1="190.201" y1="186.205" x2="193.993" y2="182.413"/>
<line x1="190.654" y1="164.803" x2="194.446" y2="164.803"/><line x1="192.55" y1="162.907" x2="192.55" y2="166.699"/><line x1="190.654" y1="162.907" x2="194.446" y2="166.699"/><line x1="190.654" y1="166.699" x2="194.446" y2="162.907"/>
<line x1="191.106" y1="169.998" x2="194.899" y2="169.998"/><line x1="193.003" y1="168.102" x2="193.003" y2="171.894"/><line x1="191.106" y1="168.102" x2="194.899" y2="171.894"/><line x1="191.106" y1="171.894" x2="194.899" y2="168.102"/>
<line x1="191.559" y1="156.01" x2="195.351" y2="156.01"/><line x1="193.455" y1="154.114" x2="193.455" y2="157.906"/><line x1="191.559" y1="154.114" x2="195.351" y2="157.906"/><line x1="191.559" y1="157.906" x2="195.351" y2="154.114"/>
<line x1="192.012" y1="149.961" x2="195.804" y2="149.961"/><line x1="193.908" y1="148.065" x2="193.908" y2="151.857"/><line x1="192.012" y1="148.065" x2="195.804" y2="151.857"/><line x1="192.012" y1="151.857" x2="195.804" y2="148.065"/>
<line x1="192.465" y1="149.922" x2="196.257" y2="149.922"/><line x1="194.361" y1="148.026" x2="194.361" y2="151.818"/><line x1="192.465" y1="148.026" x2="196.257" y2="151.818"/><line x1="192.465" y1="151.818" x2="196.257" y2="148.026"/>
<line x1="192.917" y1="160.07" x2="196.709" y2="160.07"/><line x1="194.813" y1="158.173" x2="194.813" y2="161.966"/><line x1="192.917" y1="158.173" x2="196.709" y2="161.966"/><line x1="192.917" y1="161.966" x2="196.709" y2="158.173"/>
<line x1="193.37" y1="151.892" x2="197.162" y2="151.892"/><line x1="195.266" y1="149.996" x2="195.266" y2="153.788"/><line x1="193.37" y1="149.996" x2="197.162" y2="153.788"/><line x1="193.37" y1="153.788" x2="197.162" y2="149.996"/>
<line x1="193.823" y1="154.506" x2="197.615" y2="154.506"/><line x1="195.719" y1="152.61" x2="195.719" y2="156.402"/><line x1="193.823" y1="152.61" x2="197.615" y2="156.402"/><line x1="193.823" y1="156.402" x2="197.615" y2="152.61"/>
<line x1="194.275" y1="162.178" x2="198.067" y2="162.178"/><line x1="196.171" y1="160.282" x2="196.171" y2="164.074"/><line x1="194.275" y1="160.282" x2="198.067" y2="164.074"/><line x1="194.275" y1="164.074" x2="198.067" y2="160.282"/>
<line x1="194.728" y1="146.842" x2="198.52" y2="146.842"/><line x1="196.624" y1="144.946" x2="196.624" y2="148.739"/><line x1="194.728" y1="144.946" x2="198.52" y2="148.739"/><line x1="194.728" y1="148.739" x2="198.52" y2="144.946"/>
<line x1="195.181" y1="139.9" x2="198.973" y2="139.9"/><line x1="197.077" y1="138.004" x2="197.077" y2="141.796"/><line x1="195.181" y1="138.004" x2="198.973" y2="141.796"/><line x1="195.181" y1="141.796" x2="198.973" y2="138.004"/>
<line x1="195.633" y1="121.269" x2="199.425" y2="121.269"/><line x1="197.529" y1="119.373" x2="197.529" y2="123.165"/><line x1="195.633" y1="119.373" x2="199.425" y2="123.165"/><line x1="195.633" y1="123.165" x2="199.425" y2="119.373"/>
<line x1="196.086" y1="134.702" x2="199.878" y2="134.702"/><line x1="197.982" y1="132.806" x2="197.982" y2="136.598"/><line x1="196.086" y1="132.806" x2="199.878" y2="136.598"/><line x1="196.086" y1="136.598" x2="199.878" y2="132.806"/>
<line x1="196.539" y1="131.296" x2="200.331" y2="131.296"/><line x1="198.435" y1="129.4" x2="198.435" y2="133.192"/><line x1="196.539" y1="129.4" x2="200.331" y2="133.192"/><line x1="196.539" y1="133.192" x2="200.331" y2="129.4"/>
<line x1="196.991" y1="125.519" x2="200.784" y2="125.519"/><line x1="198.887" y1="123.623" x2="198.887" y2="127.415"/><line x1="196.991" y1="123.623" x2="200.784" y2="127.415"/><line x1="196.991" y1="127.415" x2="200.784" y2="123.623"/>
<line x1="197.444" y1="103.603" x2="201.236" y2="103.603"/><line x1="199.34" y1="101.707" x2="199.34" y2="105.499"/><line x1="197.444" y1="101.707" x2="201.236" y2="105.499"/><line x1="197.444" y1="105.499" x2="201.236" y2="101.707"/>
<line x1="197.897" y1="105.555" x2="201.689" y2="105.555"/><line x1="199.793" y1="103.659" x2="199.793" y2="107.451"/><line x1="197.897" y1="103.659" x2="201.689" y2="107.451"/><line x1="197.897" y1="107.451" x2="201.689" y2="103.659"/>
<line x1="198.349" y1="120.667" x2="202.142" y2="120.667"/><line x1="200.245" y1="118.771" x2="200.245" y2="122.564"/><line x1="198.349" y1="118.771" x2="202.142" y2="122.564"/><line x1="198.349" y1="122.564" x2="202.142" y2="118.771"/>
<line x1="198.802" y1="116.004" x2="202.594" y2="116.004"/><line x1="200.698" y1="114.108" x2="200.698" y2="117.9"/><line x1="198.802" y1="114.108" x2="202.594" y2="117.9"/><line x1="198.802" y1="117.9" x2="202.594" y2="114.108"/>
<line x1="199.255" y1="117.896" x2="203.047" y2="117.896"/><line x1="201.151" y1="116" x2="201.151" y2="119.793"/><line x1="199.255" y1="116" x2="203.047" y2="119.793"/><line x1="199.255" y1="119.793" x2="203.047" y2="116"/>
<line x1="199.707" y1="107.441" x2="203.5" y2="107.441"/><line x1="201.604" y1="105.545" x2="201.604" y2="109.337"/><line x1="199.707" y1="105.545" x2="203.5" y2="109.337"/><line x1="199.707" y1="109.337" x2="203.5" y2="105.545"/>
<line x1="200.16" y1="132.216" x2="203.952" y2="132.216"/><line x1="202.056" y1="130.32" x2="202.056" y2="134.112"/><line x1="200.16" y1="130.32" x2="203.952" y2="134.112"/><line x1="200.16" y1="134.112" x2="203.952" y2="130.32"/>
<line x1="200.613" y1="159.431" x2="204.405" y2="159.431"/><line x1="202.509" y1="157.535" x2="202.509" y2="161.327"/><line x1="200.613" y1="157.535" x2="204.405" y2="161.327"/><line x1="200.613" y1="161.327" x2="204.405" y2="157.535"/>
<line x1="201.065" y1="157.438" x2="204.858" y2="157.438"/><line x1="202.962" y1="155.542" x2="202.962" y2="159.334"/><line x1="201.065" y1="155.542" x2="204.858" y2="159.334"/><line x1="201.065" y1="159.334" x2="204.858" y2="155.542"/>
<line x1="201.518" y1="179.023" x2="205.31" y2="179.023"/><line x1="203.414" y1="177.127" x2="203.414" y2="180.919"/><line x1="201.518" y1="177.127" x2="205.31" y2="180.919"/><line x1="201.518" y1="180.919" x2="205.31" y2="177.127"/>
<line x1="201.971" y1="168.007" x2="205.763" y2="168.007"/><line x1="203.867" y1="166.111" x2="203.867" y2="169.903"/><line x1="201.971" y1="166.111" x2="205.763" y2="169.903"/><line x1="201.971" y1="169.903" x2="205.763" y2="166.111"/>
<line x1="202.424" y1="168.759" x2="206.216" y2="168.759"/><line x1="204.32" y1="166.863" x2="204.32" y2="170.655"/><line x1="202.424" y1="166.863" x2="206.216" y2="170.655"/><line x1="202.424" y1="170.655" x2="206.216" y2="166.863"/>
<line x1="202.876" y1="190.835" x2="206.668" y2="190.835"/><line x1="204.772" y1="188.939" x2="204.772" y2="192.731"/><line x1="202.876" y1="188.939" x2="206.668" y2="192.731"/><line x1="202.876" y1="192.731" x2="206.668" y2="188.939"/>
<line x1="203.329" y1="182.322" x2="207.121" y2="182.322"/><line x1="205.225" y1="180.426" x2="205.225" y2="184.218"/><line x1="203.329" y1="180.426" x2="207.121" y2="184.218"/><line x1="203.329" y1="184.218" x2="207.121" y2="180.426"/>
<line x1="203.782" y1="180.56" x2="207.574" y2="180.56"/><line x1="205.678" y1="178.664" x2="205.678" y2="182.456"/><line x1="203.782" y1="178.664" x2="207.574" y2="182.456"/><line x1="203.782" y1="182.456" x2="207.574" y2="178.664"/>
<line x1="204.234" y1="166.5" x2="208.026" y2="166.5"/><line x1="206.13" y1="164.604" x2="206.13" y2="168.396"/><line x1="204.234" y1="164.604" x2="208.026" y2="168.396"/><line x1="204.234" y1="168.396" x2="208.026" y2="164.604"/>
<line x1="204.687" y1="151.9" x2="208.479" y2="151.9"/><line x1="206.583" y1="150.004" x2="206.583" y2="153.796"/><line x1="204.687" y1="150.004" x2="208.479" y2="153.796"/><line x1="204.687" y1="153.796" x2="208.479" y2="150.004"/>
<line x1="205.14" y1="163.719" x2="208.932" y2="163.719"/><line x1="207.036" y1="161.822" x2="207.036" y2="165.615"/><line x1="205.14" y1="161.822" x2="208.932" y2="165.615"/><line x1="205.14" y1="165.615" x2="208.932" y2="161.822"/>
<line x1="205.592" y1="168.479" x2="209.384" y2="168.479"/><line x1="207.488" y1="166.583" x2="207.488" y2="170.375"/><line x1="205.592" y1="166.583" x2="209.384" y2="170.375"/><line x1="205.592" y1="170.375" x2="209.384" y2="166.583"/>
<line x1="206.045" y1="182.961" x2="209.837" y2="182.961"/><line x1="207.941" y1="181.064" x2="207.941" y2="184.857"/><line x1="206.045" y1="181.064" x2="209.837" y2="184.857"/><line x1="206.045" y1="184.857" x2="209.837" y2="181.064"/>
<line x1="206.498" y1="188.868" x2="210.29" y2="188.868"/><line x1="208.394" y1="186.972" x2="208.394" y2="190.765"/><line x1="206.498" y1="186.972" x2="210.29" y2="190.765"/><line x1="206.498" y1="190.765" x2="210.29" y2="186.972"/>
<line x1="206.95" y1="202.065" x2="210.743" y2="202.065"/><line x1="208.846" y1="200.169" x2="208.846" y2="203.961"/><line x1="206.95" y1="200.169" x2="210.743" y2="203.961"/><line x1="206.95" y1="203.961" x2="210.743" y2="200.169"/>
<line x1="207.403" y1="203.438" x2="211.195" y2="203.438"/><line x1="209.299" y1="201.541" x2="209.299" y2="205.334"/><line x1="207.403" y1="201.541" x2="211.195" y2="205.334"/><line x1="207.403" y1="205.334" x2="211.195" y2="201.541"/>
<line x1="207.856" y1="205.342" x2="211.648" y2="205.342"/><line x1="209.752" y1="203.446" x2="209.752" y2="207.238"/><line x1="207.856" y1="203.446" x2="211.648" y2="207.238"/><line x1="207.856" y1="207.238" x2="211.648" y2="203.446"/>
<line x1="208.308" y1="212.061" x2="212.101" y2="212.061"/><line x1="210.204" y1="210.165" x2="210.204" y2="213.957"/><line x1="208.308" y1="210.165" x2="212.101" y2="213.957"/><line x1="208.308" y1="213.957" x2="212.101" y2="210.165"/>
<line x1="208.761" y1="211.623" x2="212.553" y2="211.623"/><line x1="210.657" y1="209.727" x2="210.657" y2="213.519"/><line x1="208.761" y1="209.727" x2="212.553" y2="213.519"/><line x1="208.761" y1="213.519" x2="212.553" y2="209.727"/>
<line x1="209.214" y1="224.365" x2="213.006" y2="224.365"/><line x1="211.11" y1="222.468" x2="211.11" y2="226.261"/><line x1="209.214" y1="222.468" x2="213.006" y2="226.261"/><line x1="209.214" y1="226.261" x2="213.006" y2="222.468"/>
<line x1="209.666" y1="250.423" x2="213.459" y2="250.423"/><line x1="211.563" y1="248.527" x2="211.563" y2="252.319"/><line x1="209.666" y1="248.527" x2="213.459" y2="252.319"/><line x1="209.666" y1="252.319" x2="213.459" y2="248.527"/>
<line x1="210.119" y1="260.75" x2="213.911" y2="260.75"/><line x1="212.015" y1="258.854" x2="212.015" y2="262.646"/><line x1="210.119" y1="258.854" x2="213.911" y2="262.646"/><line x1="210.119" y1="262.646" x2="213.911" y2="258.854"/>
<line x1="210.572" y1="258.323" x2="214.364" y2="258.323"/><line x1="212.468" y1="256.427" x2="212.468" y2="260.219"/><line x1="210.572" y1="256.427" x2="214.364" y2="260.219"/><line x1="210.572" y1="260.219" x2="214.364" y2="256.427"/>
<line x1="211.025" y1="274.238" x2="214.817" y2="274.238"/><line x1="212.921" y1="272.342" x2="212.921" y2="276.134"/><line x1="211.025" y1="272.342" x2="214.817" y2="276.134"/><line x1="211.025" y1="276.134" x2="214.817" y2="272.342"/>
<line x1="211.477" y1="296.577" x2="215.269" y2="296.577"/><line x1="213.373" y1="294.681" x2="213.373" y2="298.474"/><line x1="211.477" y1="294.681" x2="215.269" y2="298.474"/><line x1="211.477" y1="298.474" x2="215.269" y2="294.681"/>
<line x1="211.93" y1="277.128" x2="215.722" y2="277.128"/><line x1="213.826" y1="275.232" x2="213.826" y2="279.024"/><line x1="211.93" y1="275.232" x2="215.722" y2="279.024"/><line x1="211.93" y1="279.024" x2="215.722" y2="275.232"/>
<line x1="212.383" y1="265.486" x2="216.175" y2="265.486"/><line x1="214.279" y1="263.59" x2="214.279" y2="267.382"/><line x1="212.383" y1="263.59" x2="216.175" y2="267.382"/><line x1="212.383" y1="267.382" x2="216.175" y2="263.59"/>
<line x1="212.835" y1="267.668" x2="216.627" y2="267.668"/><line x1="214.731" y1="265.772" x2="214.731" y2="269.564"/><line x1="212.835" y1="265.772" x2="216.627" y2="269.564"/><line x1="212.835" y1="269.564" x2="216.627" y2="265.772"/>
<line x1="213.288" y1="287.256" x2="217.08" y2="287.256"/><line x1="215.184" y1="285.36" x2="215.184" y2="289.152"/><line x1="213.288" y1="285.36" x2="217.08" y2="289.152"/><line x1="213.288" y1="289.152" x2="217.08" y2="285.36"/>
<line x1="213.741" y1="268.977" x2="217.533" y2="268.977"/><line x1="215.637" y1="267.081" x2="215.637" y2="270.873"/><line x1="213.741" y1="267.081" x2="217.533" y2="270.873"/><line x1="213.741" y1="270.873" x2="217.533" y2="267.081"/>
<line x1="214.193" y1="259.069" x2="217.985" y2="259.069"/><line x1="216.089" y1="257.173" x2="216.089" y2="260.965"/><line x1="214.193" y1="257.173" x2="217.985" y2="260.965"/><line x1="214.193" y1="260.965" x2="217.985" y2="257.173"/>
<line x1="214.646" y1="266.199" x2="218.438" y2="266.199"/><line x1="216.542" y1="264.303" x2="216.542" y2="268.095"/><line x1="214.646" y1="264.303" x2="218.438" y2="268.095"/><line x1="214.646" y1="268.095" x2="218.438" y2="264.303"/>
<line x1="215.099" y1="272.267" x2="218.891" y2="272.267"/><line x1="216.995" y1="270.37" x2="216.995" y2="274.163"/><line x1="215.099" y1="270.37" x2="218.891" y2="274.163"/><line x1="215.099" y1="274.163" x2="218.891" y2="270.37"/>
<line x1="215.551" y1="278.613" x2="219.344" y2="278.613"/><line x1="217.447" y1="276.717" x2="217.447" y2="280.509"/><line x1="215.551" y1="276.717" x2="219.344" y2="280.509"/><line x1="215.551" y1="280.509" x2="219.344" y2="276.717"/>
<line x1="216.004" y1="289.68" x2="219.796" y2="289.68"/><line x1="217.9" y1="287.784" x2="217.9" y2="291.576"/><line x1="216.004" y1="287.784" x2="219.796" y2="291.576"/><line x1="216.004" y1="291.576" x2="219.796" y2="287.784"/>
<line x1="216.457" y1="291.487" x2="220.249" y2="291.487"/><line x1="218.353" y1="289.591" x2="218.353" y2="293.383"/><line x1="216.457" y1="289.591" x2="220.249" y2="293.383"/><line x1="216.457" y1="293.383" x2="220.249" y2="289.591"/>
<line x1="216.909" y1="280.747" x2="220.702" y2="280.747"/><line x1="218.805" y1="278.851" x2="218.805" y2="282.643"/><line x1="216.909" y1="278.851" x2="220.702" y2="282.643"/><line x1="216.909" y1="282.643" x2="220.702" y2="278.851"/>
<line x1="217.362" y1="282.949" x2="221.154" y2="282.949"/><line x1="219.258" y1="281.053" x2="219.258" y2="284.845"/><line x1="217.362" y1="281.053" x2="221.154" y2="284.845"/><line x1="217.362" y1="284.845" x2="221.154" y2="281.053"/>
<line x1="217.815" y1="272.507" x2="221.607" y2="272.507"/><line x1="219.711" y1="270.611" x2="219.711" y2="274.403"/><line x1="217.815" y1="270.611" x2="221.607" y2="274.403"/><line x1="217.815" y1="274.403" x2="221.607" y2="270.611"/>
<line x1="218.267" y1="300.962" x2="222.06" y2="300.962"/><line x1="220.164" y1="299.066" x2="220.164" y2="302.859"/><line x1="218.267" y1="299.066" x2="222.06" y2="302.859"/><line x1="218.267" y1="302.859" x2="222.06" y2="299.066"/>
<line x1="218.72" y1="302.925" x2="222.512" y2="302.925"/><line x1="220.616" y1="301.029" x2="220.616" y2="304.821"/><line x1="218.72" y1="301.029" x2="222.512" y2="304.821"/><line x1="218.72" y1="304.821" x2="222.512" y2="301.029"/>
<line x1="219.173" y1="270.956" x2="222.965" y2="270.956"/><line x1="221.069" y1="269.06" x2="221.069" y2="272.852"/><line x1="219.173" y1="269.06" x2="222.965" y2="272.852"/><line x1="219.173" y1="272.852" x2="222.965" y2="269.06"/>
<line x1="219.626" y1="257.128" x2="223.418" y2="257.128"/><line x1="221.522" y1="255.232" x2="221.522" y2="259.024"/><line x1="219.626" y1="255.232" x2="223.418" y2="259.024"/><line x1="219.626" y1="259.024" x2="223.418" y2="255.232"/>
<line x1="220.078" y1="262.88" x2="223.87" y2="262.88"/><line x1="221.974" y1="260.984" x2="221.974" y2="264.776"/><line x1="220.078" y1="260.984" x2="223.87" y2="264.776"/><line x1="220.078" y1="264.776" x2="223.87" y2="260.984"/>
<line x1="220.531" y1="251.384" x2="224.323" y2="251.384"/><line x1="222.427" y1="249.488" x2="222.427" y2="253.28"/><line x1="220.531" y1="249.488" x2="224.323" y2="253.28"/><line x1="220.531" y1="253.28" x2="224.323" y2="249.488"/>
<line x1="220.984" y1="276.802" x2="224.776" y2="276.802"/><line x1="222.88" y1="274.906" x2="222.88" y2="278.698"/><line x1="220.984" y1="274.906" x2="224.776" y2="278.698"/><line x1="220.984" y1="278.698" x2="224.776" y2="274.906"/>
<line x1="221.436" y1="273.221" x2="225.228" y2="273.221"/><line x1="223.332" y1="271.325" x2="223.332" y2="275.117"/><line x1="221.436" y1="271.325" x2="225.228" y2="275.117"/><line x1="221.436" y1="275.117" x2="225.228" y2="271.325"/>
<line x1="221.889" y1="267.079" x2="225.681" y2="267.079"/><line x1="223.785" y1="265.183" x2="223.785" y2="268.976"/><line x1="221.889" y1="265.183" x2="225.681" y2="268.976"/><line x1="221.889" y1="268.976" x2="225.681" y2="265.183"/>
<line x1="222.342" y1="276.065" x2="226.134" y2="276.065"/><line x1="224.238" y1="274.169" x2="224.238" y2="277.961"/><line x1="222.342" y1="274.169" x2="226.134" y2="277.961"/><line x1="222.342" y1="277.961" x2="226.134" y2="274.169"/>
<line x1="222.794" y1="280.362" x2="226.586" y2="280.362"/><line x1="224.69" y1="278.466" x2="224.69" y2="282.258"/><line x1="222.794" y1="278.466" x2="226.586" y2="282.258"/><line x1="222.794" y1="282.258" x2="226.586" y2="278.466"/>
<line x1="223.247" y1="284.526" x2="227.039" y2="284.526"/><line x1="225.143" y1="282.63" x2="225.143" y2="286.422"/><line x1="223.247" y1="282.63" x2="227.039" y2="286.422"/><line x1="223.247" y1="286.422" x2="227.039" y2="282.63"/>
<line x1="223.7" y1="278.584" x2="227.492" y2="278.584"/><line x1="225.596" y1="276.688" x2="225.596" y2="280.48"/><line x1="223.7" y1="276.688" x2="227.492" y2="280.48"/><line x1="223.7" y1="280.48" x2="227.492" y2="276.688"/>
<line x1="224.152" y1="263.259" x2="227.945" y2="263.259"/><line x1="226.048" y1="261.363" x2="226.048" y2="265.155"/><line x1="224.152" y1="261.363" x2="227.945" y2="265.155"/><line x1="224.152" y1="265.155" x2="227.945" y2="261.363"/>
<line x1="224.605" y1="259.538" x2="228.397" y2="259.538"/><line x1="226.501" y1="257.642" x2="226.501" y2="261.434"/><line x1="224.605" y1="257.642" x2="228.397" y2="261.434"/><line x1="224.605" y1="261.434" x2="228.397" y2="257.642"/>
<line x1="225.058" y1="255.015" x2="228.85" y2="255.015"/><line x1="226.954" y1="253.119" x2="226.954" y2="256.911"/><line x1="225.058" y1="253.119" x2="228.85" y2="256.911"/><line x1="225.058" y1="256.911" x2="228.85" y2="253.119"/>
<line x1="225.51" y1="223.179" x2="229.303" y2="223.179"/><line x1="227.406" y1="221.283" x2="227.406" y2="225.075"/><line x1="225.51" y1="221.283" x2="229.303" y2="225.075"/><line x1="225.51" y1="225.075" x2="229.303" y2="221.283"/>
<line x1="225.963" y1="237.437" x2="229.755" y2="237.437"/><line x1="227.859" y1="235.541" x2="227.859" y2="239.333"/><line x1="225.963" y1="235.541" x2="229.755" y2="239.333"/><line x1="225.963" y1="239.333" x2="229.755" y2="235.541"/>
<line x1="226.416" y1="238.165" x2="230.208" y2="238.165"/><line x1="228.312" y1="236.269" x2="228.312" y2="240.061"/><line x1="226.416" y1="236.269" x2="230.208" y2="240.061"/><line x1="226.416" y1="240.061" x2="230.208" y2="236.269"/>
<line x1="226.868" y1="269.069" x2="230.661" y2="269.069"/><line x1="228.765" y1="267.173" x2="228.765" y2="270.965"/><line x1="226.868" y1="267.173" x2="230.661" y2="270.965"/><line x1="226.868" y1="270.965" x2="230.661" y2="267.173"/>
<line x1="227.321" y1="277.146" x2="231.113" y2="277.146"/><line x1="229.217" y1="275.25" x2="229.217" y2="279.042"/><line x1="227.321" y1="275.25" x2="231.113" y2="279.042"/><line x1="227.321" y1="279.042" x2="231.113" y2="275.25"/>
<line x1="227.774" y1="292.279" x2="231.566" y2="292.279"/><line x1="229.67" y1="290.383" x2="229.67" y2="294.175"/><line x1="227.774" y1="290.383" x2="231.566" y2="294.175"/><line x1="227.774" y1="294.175" x2="231.566" y2="290.383"/>
<line x1="228.226" y1="294.6" x2="232.019" y2="294.6"/><line x1="230.123" y1="292.703" x2="230.123" y2="296.496"/><line x1="228.226" y1="292.703" x2="232.019" y2="296.496"/><line x1="228.226" y1="296.496" x2="232.019" y2="292.703"/>
<line x1="228.679" y1="312.003" x2="232.471" y2="312.003"/><line x1="230.575" y1="310.107" x2="230.575" y2="313.899"/><line x1="228.679" y1="310.107" x2="232.471" y2="313.899"/><line x1="228.679" y1="313.899" x2="232.471" y2="310.107"/>
<line x1="229.132" y1="320.042" x2="232.924" y2="320.042"/><line x1="231.028" y1="318.146" x2="231.028" y2="321.938"/><line x1="229.132" y1="318.146" x2="232.924" y2="321.938"/><line x1="229.132" y1="321.938" x2="232.924" y2="318.146"/>
<line x1="229.585" y1="301.093" x2="233.377" y2="301.093"/><line x1="231.481" y1="299.197" x2="231.481" y2="302.99"/><line x1="229.585" y1="299.197" x2="233.377" y2="302.99"/><line x1="229.585" y1="302.99" x2="233.377" y2="299.197"/>
<line x1="230.037" y1="300.727" x2="233.829" y2="300.727"/><line x1="231.933" y1="298.83" x2="231.933" y2="302.623"/><line x1="230.037" y1="298.83" x2="233.829" y2="302.623"/><line x1="230.037" y1="302.623" x2="233.829" y2="298.83"/>
<line x1="230.49" y1="303.14" x2="234.282" y2="303.14"/><line x1="232.386" y1="301.244" x2="232.386" y2="305.036"/><line x1="230.49" y1="301.244" x2="234.282" y2="305.036"/><line x1="230.49" y1="305.036" x2="234.282" y2="301.244"/>
<line x1="230.943" y1="313.746" x2="234.735" y2="313.746"/><line x1="232.839" y1="311.85" x2="232.839" y2="315.642"/><line x1="230.943" y1="311.85" x2="234.735" y2="315.642"/><line x1="230.943" y1="315.642" x2="234.735" y2="311.85"/>
<line x1="231.395" y1="315.421" x2="235.187" y2="315.421"/><line x1="233.291" y1="313.525" x2="233.291" y2="317.317"/><line x1="231.395" y1="313.525" x2="235.187" y2="317.317"/><line x1="231.395" y1="317.317" x2="235.187" y2="313.525"/>
<line x1="231.848" y1="330.802" x2="235.64" y2="330.802"/><line x1="233.744" y1="328.906" x2="233.744" y2="332.698"/><line x1="231.848" y1="328.906" x2="235.64" y2="332.698"/><line x1="231.848" y1="332.698" x2="235.64" y2="328.906"/>
<line x1="232.301" y1="328.96" x2="236.093" y2="328.96"/><line x1="234.197" y1="327.064" x2="234.197" y2="330.856"/><line x1="232.301" y1="327.064" x2="236.093" y2="330.856"/><line x1="232.301" y1="330.856" x2="236.093" y2="327.064"/>
<line x1="232.753" y1="326.062" x2="236.545" y2="326.062"/><line x1="234.649" y1="324.166" x2="234.649" y2="327.958"/><line x1="232.753" y1="324.166" x2="236.545" y2="327.958"/><line x1="232.753" y1="327.958" x2="236.545" y2="324.166"/>
<line x1="233.206" y1="312.445" x2="236.998" y2="312.445"/><line x1="235.102" y1="310.548" x2="235.102" y2="314.341"/><line x1="233.206" y1="310.548" x2="236.998" y2="314.341"/><line x1="233.206" y1="314.341" x2="236.998" y2="310.548"/>
<line x1="233.659" y1="325.769" x2="237.451" y2="325.769"/><line x1="235.555" y1="323.873" x2="235.555" y2="327.665"/><line x1="233.659" y1="323.873" x2="237.451" y2="327.665"/><line x1="233.659" y1="327.665" x2="237.451" y2="323.873"/>
<line x1="234.111" y1="328.024" x2="237.904" y2="328.024"/><line x1="236.007" y1="326.128" x2="236.007" y2="329.92"/><line x1="234.111" y1="326.128" x2="237.904" y2="329.92"/><line x1="234.111" y1="329.92" x2="237.904" y2="326.128"/>
<line x1="234.564" y1="324.214" x2="238.356" y2="324.214"/><line x1="236.46" y1="322.318" x2="236.46" y2="326.11"/><line x1="234.564" y1="322.318" x2="238.356" y2="326.11"/><line x1="234.564" y1="326.11" x2="238.356" y2="322.318"/>
<line x1="235.017" y1="315.162" x2="238.809" y2="315.162"/><line x1="236.913" y1="313.266" x2="236.913" y2="317.058"/><line x1="235.017" y1="313.266" x2="238.809" y2="317.058"/><line x1="235.017" y1="317.058" x2="238.809" y2="313.266"/>
<line x1="235.469" y1="330.593" x2="239.262" y2="330.593"/><line x1="237.366" y1="328.697" x2="237.366" y2="332.489"/><line x1="235.469" y1="328.697" x2="239.262" y2="332.489"/><line x1="235.469" y1="332.489" x2="239.262" y2="328.697"/>
<line x1="235.922" y1="312.025" x2="239.714" y2="312.025"/><line x1="237.818" y1="310.129" x2="237.818" y2="313.921"/><line x1="235.922" y1="310.129" x2="239.714" y2="313.921"/><line x1="235.922" y1="313.921" x2="239.714" y2="310.129"/>
<line x1="236.375" y1="317.268" x2="240.167" y2="317.268"/><line x1="238.271" y1="315.372" x2="238.271" y2="319.164"/><line x1="236.375" y1="315.372" x2="240.167" y2="319.164"/><line x1="236.375" y1="319.164" x2="240.167" y2="315.372"/>
<line x1="236.827" y1="316.044" x2="240.62" y2="316.044"/><line x1="238.724" y1="314.148" x2="238.724" y2="317.94"/><line x1="236.827" y1="314.148" x2="240.62" y2="317.94"/><line x1="236.827" y1="317.94" x2="240.62" y2="314.148"/>
<line x1="237.28" y1="297.51" x2="241.072" y2="297.51"/><line x1="239.176" y1="295.614" x2="239.176" y2="299.406"/><line x1="237.28" y1="295.614" x2="241.072" y2="299.406"/><line x1="237.28" y1="299.406" x2="241.072" y2="295.614"/>
<line x1="237.733" y1="298.628" x2="241.525" y2="298.628"/><line x1="239.629" y1="296.732" x2="239.629" y2="300.524"/><line x1="237.733" y1="296.732" x2="241.525" y2="300.524"/><line x1="237.733" y1="300.524" x2="241.525" y2="296.732"/>
<line x1="238.186" y1="299.029" x2="241.978" y2="299.029"/><line x1="240.082" y1="297.133" x2="240.082" y2="300.925"/><line x1="238.186" y1="297.133" x2="241.978" y2="300.925"/><line x1="238.186" y1="300.925" x2="241.978" y2="297.133"/>
<line x1="238.638" y1="285.236" x2="242.43" y2="285.236"/><line x1="240.534" y1="283.34" x2="240.534" y2="287.132"/><line x1="238.638" y1="283.34" x2="242.43" y2="287.132"/><line x1="238.638" y1="287.132" x2="242.43" y2="283.34"/>
<line x1="239.091" y1="280.351" x2="242.883" y2="280.351"/><line x1="240.987" y1="278.455" x2="240.987" y2="282.247"/><line x1="239.091" y1="278.455" x2="242.883" y2="282.247"/><line x1="239.091" y1="282.247" x2="242.883" y2="278.455"/>
<line x1="239.544" y1="275.656" x2="243.336" y2="275.656"/><line x1="241.44" y1="273.76" x2="241.44" y2="277.552"/><line x1="239.544" y1="273.76" x2="243.336" y2="277.552"/><line x1="239.544" y1="277.552" x2="243.336" y2="273.76"/>
<line x1="239.996" y1="274.986" x2="243.788" y2="274.986"/><line x1="241.892" y1="273.09" x2="241.892" y2="276.882"/><line x1="239.996" y1="273.09" x2="243.788" y2="276.882"/><line x1="239.996" y1="276.882" x2="243.788" y2="273.09"/>
<line x1="240.449" y1="249.354" x2="244.241" y2="249.354"/><line x1="242.345" y1="247.458" x2="242.345" y2="251.25"/><line x1="240.449" y1="247.458" x2="244.241" y2="251.25"/><line x1="240.449" y1="251.25" x2="244.241" y2="247.458"/>
<line x1="240.902" y1="237.949" x2="244.694" y2="237.949"/><line x1="242.798" y1="236.053" x2="242.798" y2="239.845"/><line x1="240.902" y1="236.053" x2="244.694" y2="239.845"/><line x1="240.902" y1="239.845" x2="244.694" y2="236.053"/>
<line x1="241.354" y1="208.349" x2="245.146" y2="208.349"/><line x1="243.25" y1="206.453" x2="243.25" y2="210.246"/><line x1="241.354" y1="206.453" x2="245.146" y2="210.246"/><line x1="241.354" y1="210.246" x2="245.146" y2="206.453"/>
<line x1="241.807" y1="227.416" x2="245.599" y2="227.416"/><line x1="243.703" y1="225.52" x2="243.703" y2="229.312"/><line x1="241.807" y1="225.52" x2="245.599" y2="229.312"/><line x1="241.807" y1="229.312" x2="245.599" y2="225.52"/>
<line x1="242.26" y1="234.654" x2="246.052" y2="234.654"/><line x1="244.156" y1="232.758" x2="244.156" y2="236.55"/><line x1="242.26" y1="232.758" x2="246.052" y2="236.55"/><line x1="242.26" y1="236.55" x2="246.052" y2="232.758"/>
<line x1="242.712" y1="195.008" x2="246.505" y2="195.008"/><line x1="244.608" y1="193.112" x2="244.608" y2="196.905"/><line x1="242.712" y1="193.112" x2="246.505" y2="196.905"/><line x1="242.712" y1="196.905" x2="246.505" y2="193.112"/>
<line x1="243.165" y1="200.658" x2="246.957" y2="200.658"/><line x1="245.061" y1="198.762" x2="245.061" y2="202.554"/><line x1="243.165" y1="198.762" x2="246.957" y2="202.554"/><line x1="243.165" y1="202.554" x2="246.957" y2="198.762"/>
<line x1="243.618" y1="213.836" x2="247.41" y2="213.836"/><line x1="245.514" y1="211.94" x2="245.514" y2="215.732"/><line x1="243.618" y1="211.94" x2="247.41" y2="215.732"/><line x1="243.618" y1="215.732" x2="247.41" y2="211.94"/>
<line x1="244.07" y1="217.694" x2="247.863" y2="217.694"/><line x1="245.966" y1="215.798" x2="245.966" y2="219.59"/><line x1="244.07" y1="215.798" x2="247.863" y2="219.59"/><line x1="244.07" y1="219.59" x2="247.863" y2="215.798"/>
<line x1="244.523" y1="206.366" x2="248.315" y2="206.366"/><line x1="246.419" y1="204.47" x2="246.419" y2="208.262"/><line x1="244.523" y1="204.47" x2="248.315" y2="208.262"/><line x1="244.523" y1="208.262" x2="248.315" y2="204.47"/>
<line x1="244.976" y1="218.861" x2="248.768" y2="218.861"/><line x1="246.872" y1="216.965" x2="246.872" y2="220.757"/><line x1="244.976" y1="216.965" x2="248.768" y2="220.757"/><line x1="244.976" y1="220.757" x2="248.768" y2="216.965"/>
<line x1="245.428" y1="233.283" x2="249.221" y2="233.283"/><line x1="247.325" y1="231.387" x2="247.325" y2="235.179"/><line x1="245.428" y1="231.387" x2="249.221" y2="235.179"/><line x1="245.428" y1="235.179" x2="249.221" y2="231.387"/>
<line x1="245.881" y1="256.042" x2="249.673" y2="256.042"/><line x1="247.777" y1="254.145" x2="247.777" y2="257.938"/><line x1="245.881" y1="254.145" x2="249.673" y2="257.938"/><line x1="245.881" y1="257.938" x2="249.673" y2="254.145"/>
<line x1="246.334" y1="263.45" x2="250.126" y2="263.45"/><line x1="248.23" y1="261.554" x2="248.23" y2="265.346"/><line x1="246.334" y1="261.554" x2="250.126" y2="265.346"/><line x1="246.334" y1="265.346" x2="250.126" y2="261.554"/>
<line x1="246.786" y1="268.029" x2="250.579" y2="268.029"/><line x1="248.683" y1="266.133" x2="248.683" y2="269.925"/><line x1="246.786" y1="266.133" x2="250.579" y2="269.925"/><line x1="246.786" y1="269.925" x2="250.579" y2="266.133"/>
<line x1="247.239" y1="252.471" x2="251.031" y2="252.471"/><line x1="249.135" y1="250.575" x2="249.135" y2="254.367"/><line x1="247.239" y1="250.575" x2="251.031" y2="254.367"/><line x1="247.239" y1="254.367" x2="251.031" y2="250.575"/>
<line x1="247.692" y1="257.303" x2="251.484" y2="257.303"/><line x1="249.588" y1="255.407" x2="249.588" y2="259.199"/><line x1="247.692" y1="255.407" x2="251.484" y2="259.199"/><line x1="247.692" y1="259.199" x2="251.484" y2="255.407"/>
<line x1="248.145" y1="246.323" x2="251.937" y2="246.323"/><line x1="250.041" y1="244.427" x2="250.041" y2="248.219"/><line x1="248.145" y1="244.427" x2="251.937" y2="248.219"/><line x1="248.145" y1="248.219" x2="251.937" y2="244.427"/>
<line x1="248.597" y1="289.837" x2="252.389" y2="289.837"/><line x1="250.493" y1="287.941" x2="250.493" y2="291.733"/><line x1="248.597" y1="287.941" x2="252.389" y2="291.733"/><line x1="248.597" y1="291.733" x2="252.389" y2="287.941"/>
<line x1="249.05" y1="251.082" x2="252.842" y2="251.082"/><line x1="250.946" y1="249.186" x2="250.946" y2="252.978"/><line x1="249.05" y1="249.186" x2="252.842" y2="252.978"/><line x1="249.05" y1="252.978" x2="252.842" y2="249.186"/>
<line x1="249.503" y1="235.208" x2="253.295" y2="235.208"/><line x1="251.399" y1="233.312" x2="251.399" y2="237.104"/><line x1="249.503" y1="233.312" x2="253.295" y2="237.104"/><line x1="249.503" y1="237.104" x2="253.295" y2="233.312"/>
<line x1="249.955" y1="238.785" x2="253.747" y2="238.785"/><line x1="251.851" y1="236.889" x2="251.851" y2="240.681"/><line x1="249.955" y1="236.889" x2="253.747" y2="240.681"/><line x1="249.955" y1="240.681" x2="253.747" y2="236.889"/>
<line x1="250.408" y1="230.657" x2="254.2" y2="230.657"/><line x1="252.304" y1="228.76" x2="252.304" y2="232.553"/><line x1="250.408" y1="228.76" x2="254.2" y2="232.553"/><line x1="250.408" y1="232.553" x2="254.2" y2="228.76"/>
<line x1="250.861" y1="224.551" x2="254.653" y2="224.551"/><line x1="252.757" y1="222.655" x2="252.757" y2="226.448"/><line x1="250.861" y1="222.655" x2="254.653" y2="226.448"/><line x1="250.861" y1="226.448" x2="254.653" y2="222.655"/>
<line x1="251.313" y1="244.096" x2="255.105" y2="244.096"/><line x1="253.209" y1="242.2" x2="253.209" y2="245.992"/><line x1="251.313" y1="242.2" x2="255.105" y2="245.992"/><line x1="251.313" y1="245.992" x2="255.105" y2="242.2"/>
<line x1="251.766" y1="250.715" x2="255.558" y2="250.715"/><line x1="253.662" y1="248.819" x2="253.662" y2="252.611"/><line x1="251.766" y1="248.819" x2="255.558" y2="252.611"/><line x1="251.766" y1="252.611" x2="255.558" y2="248.819"/>
<line x1="252.219" y1="251.26" x2="256.011" y2="251.26"/><line x1="254.115" y1="249.364" x2="254.115" y2="253.156"/><line x1="252.219" y1="249.364" x2="256.011" y2="253.156"/><line x1="252.219" y1="253.156" x2="256.011" y2="249.364"/>
<line x1="252.671" y1="245.024" x2="256.464" y2="245.024"/><line x1="254.567" y1="243.128" x2="254.567" y2="246.92"/><line x1="252.671" y1="243.128" x2="256.464" y2="246.92"/><line x1="252.671" y1="246.92" x2="256.464" y2="243.128"/>
<line x1="253.124" y1="259.326" x2="256.916" y2="259.326"/><line x1="255.02" y1="257.43" x2="255.02" y2="261.222"/><line x1="253.124" y1="257.43" x2="256.916" y2="261.222"/><line x1="253.124" y1="261.222" x2="256.916" y2="257.43"/>
<line x1="253.577" y1="269.799" x2="257.369" y2="269.799"/><line x1="255.473" y1="267.903" x2="255.473" y2="271.695"/><line x1="253.577" y1="267.903" x2="257.369" y2="271.695"/><line x1="253.577" y1="271.695" x2="257.369" y2="267.903"/>
<line x1="254.029" y1="247.013" x2="257.822" y2="247.013"/><line x1="255.926" y1="245.117" x2="255.926" y2="248.909"/><line x1="254.029" y1="245.117" x2="257.822" y2="248.909"/><line x1="254.029" y1="248.909" x2="257.822" y2="245.117"/>
<line x1="254.482" y1="255.743" x2="258.274" y2="255.743"/><line x1="256.378" y1="253.847" x2="256.378" y2="257.639"/><line x1="254.482" y1="253.847" x2="258.274" y2="257.639"/><line x1="254.482" y1="257.639" x2="258.274" y2="253.847"/>
<line x1="254.935" y1="256.875" x2="258.727" y2="256.875"/><line x1="256.831" y1="254.979" x2="256.831" y2="258.771"/><line x1="254.935" y1="254.979" x2="258.727" y2="258.771"/><line x1="254.935" y1="258.771" x2="258.727" y2="254.979"/>
<line x1="255.387" y1="253.193" x2="259.18" y2="253.193"/><line x1="257.284" y1="251.296" x2="257.284" y2="255.089"/><line x1="255.387" y1="251.296" x2="259.18" y2="255.089"/><line x1="255.387" y1="255.089" x2="259.18" y2="251.296"/>
<line x1="255.84" y1="257.847" x2="259.632" y2="257.847"/><line x1="257.736" y1="255.951" x2="257.736" y2="259.743"/><line x1="255.84" y1="255.951" x2="259.632" y2="259.743"/><line x1="255.84" y1="259.743" x2="259.632" y2="255.951"/>
<line x1="256.293" y1="266.894" x2="260.085" y2="266.894"/><line x1="258.189" y1="264.998" x2="258.189" y2="268.79"/><line x1="256.293" y1="264.998" x2="260.085" y2="268.79"/><line x1="256.293" y1="268.79" x2="260.085" y2="264.998"/>
<line x1="256.746" y1="259.381" x2="260.538" y2="259.381"/><line x1="258.642" y1="257.485" x2="258.642" y2="261.277"/><line x1="256.746" y1="257.485" x2="260.538" y2="261.277"/><line x1="256.746" y1="261.277" x2="260.538" y2="257.485"/>
<line x1="257.198" y1="243.311" x2="260.99" y2="243.311"/><line x1="259.094" y1="241.415" x2="259.094" y2="245.207"/><line x1="257.198" y1="241.415" x2="260.99" y2="245.207"/><line x1="257.198" y1="245.207" x2="260.99" y2="241.415"/>
<line x1="257.651" y1="241.577" x2="261.443" y2="241.577"/><line x1="259.547" y1="239.681" x2="259.547" y2="243.474"/><line x1="257.651" y1="239.681" x2="261.443" y2="243.474"/><line x1="257.651" y1="243.474" x2="261.443" y2="239.681"/>
<line x1="258.104" y1="247.255" x2="261.896" y2="247.255"/><line x1="260" y1="245.359" x2="260" y2="249.151"/><line x1="258.104" y1="245.359" x2="261.896" y2="249.151"/><line x1="258.104" y1="249.151" x2="261.896" y2="245.359"/>
<line x1="258.556" y1="226.851" x2="262.348" y2="226.851"/><line x1="260.452" y1="224.955" x2="260.452" y2="228.747"/><line x1="258.556" y1="224.955" x2="262.348" y2="228.747"/><line x1="258.556" y1="228.747" x2="262.348" y2="224.955"/>
<line x1="259.009" y1="249.24" x2="262.801" y2="249.24"/><line x1="260.905" y1="247.344" x2="260.905" y2="251.136"/><line x1="259.009" y1="247.344" x2="262.801" y2="251.136"/><line x1="259.009" y1="251.136" x2="262.801" y2="247.344"/>
<line x1="259.462" y1="233.261" x2="263.254" y2="233.261"/><line x1="261.358" y1="231.365" x2="261.358" y2="235.157"/><line x1="259.462" y1="231.365" x2="263.254" y2="235.157"/><line x1="259.462" y1="235.157" x2="263.254" y2="231.365"/>
<line x1="259.914" y1="244.052" x2="263.706" y2="244.052"/><line x1="261.81" y1="242.156" x2="261.81" y2="245.948"/><line x1="259.914" y1="242.156" x2="263.706" y2="245.948"/><line x1="259.914" y1="245.948" x2="263.706" y2="242.156"/>
<line x1="260.367" y1="234.667" x2="264.159" y2="234.667"/><line x1="262.263" y1="232.771" x2="262.263" y2="236.564"/><line x1="260.367" y1="232.771" x2="264.159" y2="236.564"/><line x1="260.367" y1="236.564" x2="264.159" y2="232.771"/>
<line x1="260.82" y1="249.272" x2="264.612" y2="249.272"/><line x1="262.716" y1="247.376" x2="262.716" y2="251.168"/><line x1="260.82" y1="247.376" x2="264.612" y2="251.168"/><line x1="260.82" y1="251.168" x2="264.612" y2="247.376"/>
<line x1="261.272" y1="263.546" x2="265.065" y2="263.546"/><line x1="263.168" y1="261.65" x2="263.168" y2="265.442"/><line x1="261.272" y1="261.65" x2="265.065" y2="265.442"/><line x1="261.272" y1="265.442" x2="265.065" y2="261.65"/>
<line x1="261.725" y1="275.07" x2="265.517" y2="275.07"/><line x1="263.621" y1="273.174" x2="263.621" y2="276.966"/><line x1="261.725" y1="273.174" x2="265.517" y2="276.966"/><line x1="261.725" y1="276.966" x2="265.517" y2="273.174"/>
<line x1="262.178" y1="279.626" x2="265.97" y2="279.626"/><line x1="264.074" y1="277.73" x2="264.074" y2="281.522"/><line x1="262.178" y1="277.73" x2="265.97" y2="281.522"/><line x1="262.178" y1="281.522" x2="265.97" y2="277.73"/>
<line x1="262.63" y1="287.051" x2="266.423" y2="287.051"/><line x1="264.526" y1="285.155" x2="264.526" y2="288.947"/><line x1="262.63" y1="285.155" x2="266.423" y2="288.947"/><line x1="262.63" y1="288.947" x2="266.423" y2="285.155"/>
<line x1="263.083" y1="255.395" x2="266.875" y2="255.395"/><line x1="264.979" y1="253.499" x2="264.979" y2="257.291"/><line x1="263.083" y1="253.499" x2="266.875" y2="257.291"/><line x1="263.083" y1="257.291" x2="266.875" y2="253.499"/>
<line x1="263.536" y1="265.095" x2="267.328" y2="265.095"/><line x1="265.432" y1="263.199" x2="265.432" y2="266.991"/><line x1="263.536" y1="263.199" x2="267.328" y2="266.991"/><line x1="263.536" y1="266.991" x2="267.328" y2="263.199"/>
<line x1="263.988" y1="266.504" x2="267.781" y2="266.504"/><line x1="265.885" y1="264.608" x2="265.885" y2="268.4"/><line x1="263.988" y1="264.608" x2="267.781" y2="268.4"/><line x1="263.988" y1="268.4" x2="267.781" y2="264.608"/>
<line x1="264.441" y1="270.586" x2="268.233" y2="270.586"/><line x1="266.337" y1="268.69" x2="266.337" y2="272.482"/><line x1="264.441" y1="268.69" x2="268.233" y2="272.482"/><line x1="264.441" y1="272.482" x2="268.233" y2="268.69"/>
<line x1="264.894" y1="270.184" x2="268.686" y2="270.184"/><line x1="266.79" y1="268.288" x2="266.79" y2="272.08"/><line x1="264.894" y1="268.288" x2="268.686" y2="272.08"/><line x1="264.894" y1="272.08" x2="268.686" y2="268.288"/>
<line x1="265.347" y1="245.669" x2="269.139" y2="245.669"/><line x1="267.243" y1="243.773" x2="267.243" y2="247.565"/><line x1="265.347" y1="243.773" x2="269.139" y2="247.565"/><line x1="265.347" y1="247.565" x2="269.139" y2="243.773"/>
<line x1="265.799" y1="249.828" x2="269.591" y2="249.828"/><line x1="267.695" y1="247.932" x2="267.695" y2="251.724"/><line x1="265.799" y1="247.932" x2="269.591" y2="251.724"/><line x1="265.799" y1="251.724" x2="269.591" y2="247.932"/>
<line x1="266.252" y1="272.195" x2="270.044" y2="272.195"/><line x1="268.148" y1="270.299" x2="268.148" y2="274.091"/><line x1="266.252" y1="270.299" x2="270.044" y2="274.091"/><line x1="266.252" y1="274.091" x2="270.044" y2="270.299"/>
<line x1="266.705" y1="265.113" x2="270.497" y2="265.113"/><line x1="268.601" y1="263.217" x2="268.601" y2="267.009"/><line x1="266.705" y1="263.217" x2="270.497" y2="267.009"/><line x1="266.705" y1="267.009" x2="270.497" y2="263.217"/>
<line x1="267.157" y1="284.704" x2="270.949" y2="284.704"/><line x1="269.053" y1="282.808" x2="269.053" y2="286.6"/><line x1="267.157" y1="282.808" x2="270.949" y2="286.6"/><line x1="267.157" y1="286.6" x2="270.949" y2="282.808"/>
<line x1="267.61" y1="304.437" x2="271.402" y2="304.437"/><line x1="269.506" y1="302.541" x2="269.506" y2="306.333"/><line x1="267.61" y1="302.541" x2="271.402" y2="306.333"/><line x1="267.61" y1="306.333" x2="271.402" y2="302.541"/>
<line x1="268.063" y1="304.332" x2="271.855" y2="304.332"/><line x1="269.959" y1="302.436" x2="269.959" y2="306.228"/><line x1="268.063" y1="302.436" x2="271.855" y2="306.228"/><line x1="268.063" y1="306.228" x2="271.855" y2="302.436"/>
<line x1="268.515" y1="303.165" x2="272.307" y2="303.165"/><line x1="270.411" y1="301.269" x2="270.411" y2="305.062"/><line x1="268.515" y1="301.269" x2="272.307" y2="305.062"/><line x1="268.515" y1="305.062" x2="272.307" y2="301.269"/>
<line x1="268.968" y1="286.848" x2="272.76" y2="286.848"/><line x1="270.864" y1="284.952" x2="270.864" y2="288.744"/><line x1="268.968" y1="284.952" x2="272.76" y2="288.744"/><line x1="268.968" y1="288.744" x2="272.76" y2="284.952"/>
<line x1="269.421" y1="273.619" x2="273.213" y2="273.619"/><line x1="271.317" y1="271.723" x2="271.317" y2="275.515"/><line x1="269.421" y1="271.723" x2="273.213" y2="275.515"/><line x1="269.421" y1="275.515" x2="273.213" y2="271.723"/>
<line x1="269.873" y1="267.342" x2="273.666" y2="267.342"/><line x1="271.769" y1="265.446" x2="271.769" y2="269.238"/><line x1="269.873" y1="265.446" x2="273.666" y2="269.238"/><line x1="269.873" y1="269.238" x2="273.666" y2="265.446"/>
<line x1="270.326" y1="257.992" x2="274.118" y2="257.992"/><line x1="272.222" y1="256.096" x2="272.222" y2="259.888"/><line x1="270.326" y1="256.096" x2="274.118" y2="259.888"/><line x1="270.326" y1="259.888" x2="274.118" y2="256.096"/>
<line x1="270.779" y1="233.609" x2="274.571" y2="233.609"/><line x1="272.675" y1="231.713" x2="272.675" y2="235.505"/><line x1="270.779" y1="231.713" x2="274.571" y2="235.505"/><line x1="270.779" y1="235.505" x2="274.571" y2="231.713"/>
<line x1="271.231" y1="228.848" x2="275.024" y2="228.848"/><line x1="273.127" y1="226.952" x2="273.127" y2="230.744"/><line x1="271.231" y1="226.952" x2="275.024" y2="230.744"/><line x1="271.231" y1="230.744" x2="275.024" y2="226.952"/>
<line x1="271.684" y1="238.027" x2="275.476" y2="238.027"/><line x1="273.58" y1="236.131" x2="273.58" y2="239.923"/><line x1="271.684" y1="236.131" x2="275.476" y2="239.923"/><line x1="271.684" y1="239.923" x2="275.476" y2="236.131"/>
<line x1="272.137" y1="238.835" x2="275.929" y2="238.835"/><line x1="274.033" y1="236.939" x2="274.033" y2="240.731"/><line x1="272.137" y1="236.939" x2="275.929" y2="240.731"/><line x1="272.137" y1="240.731" x2="275.929" y2="236.939"/>
<line x1="272.589" y1="269.872" x2="276.382" y2="269.872"/><line x1="274.486" y1="267.976" x2="274.486" y2="271.768"/><line x1="272.589" y1="267.976" x2="276.382" y2="271.768"/><line x1="272.589" y1="271.768" x2="276.382" y2="267.976"/>
<line x1="273.042" y1="274.289" x2="276.834" y2="274.289"/><line x1="274.938" y1="272.393" x2="274.938" y2="276.185"/><line x1="273.042" y1="272.393" x2="276.834" y2="276.185"/><line x1="273.042" y1="276.185" x2="276.834" y2="272.393"/>
<line x1="273.495" y1="282.385" x2="277.287" y2="282.385"/><line x1="275.391" y1="280.488" x2="275.391" y2="284.281"/><line x1="273.495" y1="280.488" x2="277.287" y2="284.281"/><line x1="273.495" y1="284.281" x2="277.287" y2="280.488"/>
<line x1="273.948" y1="282.1" x2="277.74" y2="282.1"/><line x1="275.844" y1="280.204" x2="275.844" y2="283.996"/><line x1="273.948" y1="280.204" x2="277.74" y2="283.996"/><line x1="273.948" y1="283.996" x2="277.74" y2="280.204"/>
<line x1="274.4" y1="260.826" x2="278.192" y2="260.826"/><line x1="276.296" y1="258.93" x2="276.296" y2="262.723"/><line x1="274.4" y1="258.93" x2="278.192" y2="262.723"/><line x1="274.4" y1="262.723" x2="278.192" y2="258.93"/>
<line x1="274.853" y1="267.597" x2="278.645" y2="267.597"/><line x1="276.749" y1="265.701" x2="276.749" y2="269.493"/><line x1="274.853" y1="265.701" x2="278.645" y2="269.493"/><line x1="274.853" y1="269.493" x2="278.645" y2="265.701"/>
<line x1="275.306" y1="262.01" x2="279.098" y2="262.01"/><line x1="277.202" y1="260.114" x2="277.202" y2="263.906"/><line x1="275.306" y1="260.114" x2="279.098" y2="263.906"/><line x1="275.306" y1="263.906" x2="279.098" y2="260.114"/>
<line x1="275.758" y1="243.346" x2="279.55" y2="243.346"/><line x1="277.654" y1="241.45" x2="277.654" y2="245.242"/><line x1="275.758" y1="241.45" x2="279.55" y2="245.242"/><line x1="275.758" y1="245.242" x2="279.55" y2="241.45"/>
<line x1="276.211" y1="236.237" x2="280.003" y2="236.237"/><line x1="278.107" y1="234.341" x2="278.107" y2="238.133"/><line x1="276.211" y1="234.341" x2="280.003" y2="238.133"/><line x1="276.211" y1="238.133" x2="280.003" y2="234.341"/>
<line x1="276.664" y1="239.708" x2="280.456" y2="239.708"/><line x1="278.56" y1="237.812" x2="278.56" y2="241.604"/><line x1="276.664" y1="237.812" x2="280.456" y2="241.604"/><line x1="276.664" y1="241.604" x2="280.456" y2="237.812"/>
<line x1="277.116" y1="238.129" x2="280.908" y2="238.129"/><line x1="279.012" y1="236.233" x2="279.012" y2="240.025"/><line x1="277.116" y1="236.233" x2="280.908" y2="240.025"/><line x1="277.116" y1="240.025" x2="280.908" y2="236.233"/>
<line x1="277.569" y1="247.932" x2="281.361" y2="247.932"/><line x1="279.465" y1="246.036" x2="279.465" y2="249.828"/><line x1="277.569" y1="246.036" x2="281.361" y2="249.828"/><line x1="277.569" y1="249.828" x2="281.361" y2="246.036"/>
<line x1="278.022" y1="235.055" x2="281.814" y2="235.055"/><line x1="279.918" y1="233.159" x2="279.918" y2="236.951"/><line x1="278.022" y1="233.159" x2="281.814" y2="236.951"/><line x1="278.022" y1="236.951" x2="281.814" y2="233.159"/>
<line x1="278.474" y1="255.199" x2="282.267" y2="255.199"/><line x1="280.37" y1="253.303" x2="280.37" y2="257.095"/><line x1="278.474" y1="253.303" x2="282.267" y2="257.095"/><line x1="278.474" y1="257.095" x2="282.267" y2="253.303"/>
<line x1="278.927" y1="272.836" x2="282.719" y2="272.836"/><line x1="280.823" y1="270.94" x2="280.823" y2="274.732"/><line x1="278.927" y1="270.94" x2="282.719" y2="274.732"/><line x1="278.927" y1="274.732" x2="282.719" y2="270.94"/>
<line x1="279.38" y1="278.022" x2="283.172" y2="278.022"/><line x1="281.276" y1="276.126" x2="281.276" y2="279.918"/><line x1="279.38" y1="276.126" x2="283.172" y2="279.918"/><line x1="279.38" y1="279.918" x2="283.172" y2="276.126"/>
<line x1="279.832" y1="291.195" x2="283.625" y2="291.195"/><line x1="281.728" y1="289.299" x2="281.728" y2="293.091"/><line x1="279.832" y1="289.299" x2="283.625" y2="293.091"/><line x1="279.832" y1="293.091" x2="283.625" y2="289.299"/>
<line x1="280.285" y1="321.362" x2="284.077" y2="321.362"/><line x1="282.181" y1="319.466" x2="282.181" y2="323.258"/><line x1="280.285" y1="319.466" x2="284.077" y2="323.258"/><line x1="280.285" y1="323.258" x2="284.077" y2="319.466"/>
<line x1="280.738" y1="355.027" x2="284.53" y2="355.027"/><line x1="282.634" y1="353.131" x2="282.634" y2="356.923"/><line x1="280.738" y1="353.131" x2="284.53" y2="356.923"/><line x1="280.738" y1="356.923" x2="284.53" y2="353.131"/>
<line x1="281.19" y1="354.21" x2="284.983" y2="354.21"/><line x1="283.087" y1="352.314" x2="283.087" y2="356.106"/><line x1="281.19" y1="352.314" x2="284.983" y2="356.106"/><line x1="281.19" y1="356.106" x2="284.983" y2="352.314"/>
<line x1="281.643" y1="345.811" x2="285.435" y2="345.811"/><line x1="283.539" y1="343.915" x2="283.539" y2="347.707"/><line x1="281.643" y1="343.915" x2="285.435" y2="347.707"/><line x1="281.643" y1="347.707" x2="285.435" y2="343.915"/>
<line x1="282.096" y1="356.265" x2="285.888" y2="356.265"/><line x1="283.992" y1="354.369" x2="283.992" y2="358.161"/><line x1="282.096" y1="354.369" x2="285.888" y2="358.161"/><line x1="282.096" y1="358.161" x2="285.888" y2="354.369"/>
<line x1="282.548" y1="352.244" x2="286.341" y2="352.244"/><line x1="284.445" y1="350.348" x2="284.445" y2="354.14"/><line x1="282.548" y1="350.348" x2="286.341" y2="354.14"/><line x1="282.548" y1="354.14" x2="286.341" y2="350.348"/>
<line x1="283.001" y1="332.922" x2="286.793" y2="332.922"/><line x1="284.897" y1="331.026" x2="284.897" y2="334.818"/><line x1="283.001" y1="331.026" x2="286.793" y2="334.818"/><line x1="283.001" y1="334.818" x2="286.793" y2="331.026"/>
<line x1="283.454" y1="329.855" x2="287.246" y2="329.855"/><line x1="285.35" y1="327.959" x2="285.35" y2="331.751"/><line x1="283.454" y1="327.959" x2="287.246" y2="331.751"/><line x1="283.454" y1="331.751" x2="287.246" y2="327.959"/>
<line x1="283.907" y1="330.045" x2="287.699" y2="330.045"/><line x1="285.803" y1="328.148" x2="285.803" y2="331.941"/><line x1="283.907" y1="328.148" x2="287.699" y2="331.941"/><line x1="283.907" y1="331.941" x2="287.699" y2="328.148"/>
<line x1="284.359" y1="299.489" x2="288.151" y2="299.489"/><line x1="286.255" y1="297.593" x2="286.255" y2="301.385"/><line x1="284.359" y1="297.593" x2="288.151" y2="301.385"/><line x1="284.359" y1="301.385" x2="288.151" y2="297.593"/>
<line x1="284.812" y1="292.654" x2="288.604" y2="292.654"/><line x1="286.708" y1="290.758" x2="286.708" y2="294.55"/><line x1="284.812" y1="290.758" x2="288.604" y2="294.55"/><line x1="284.812" y1="294.55" x2="288.604" y2="290.758"/>
<line x1="285.265" y1="296.367" x2="289.057" y2="296.367"/><line x1="287.161" y1="294.471" x2="287.161" y2="298.263"/><line x1="285.265" y1="294.471" x2="289.057" y2="298.263"/><line x1="285.265" y1="298.263" x2="289.057" y2="294.471"/>
<line x1="285.717" y1="304.591" x2="289.509" y2="304.591"/><line x1="287.613" y1="302.695" x2="287.613" y2="306.487"/><line x1="285.717" y1="302.695" x2="289.509" y2="306.487"/><line x1="285.717" y1="306.487" x2="289.509" y2="302.695"/>
<line x1="286.17" y1="309.105" x2="289.962" y2="309.105"/><line x1="288.066" y1="307.209" x2="288.066" y2="311.001"/><line x1="286.17" y1="307.209" x2="289.962" y2="311.001"/><line x1="286.17" y1="311.001" x2="289.962" y2="307.209"/>
<line x1="286.623" y1="277.349" x2="290.415" y2="277.349"/><line x1="288.519" y1="275.453" x2="288.519" y2="279.245"/><line x1="286.623" y1="275.453" x2="290.415" y2="279.245"/><line x1="286.623" y1="279.245" x2="290.415" y2="275.453"/>
<line x1="287.075" y1="283.064" x2="290.867" y2="283.064"/><line x1="288.971" y1="281.168" x2="288.971" y2="284.96"/><line x1="287.075" y1="281.168" x2="290.867" y2="284.96"/><line x1="287.075" y1="284.96" x2="290.867" y2="281.168"/>
<line x1="287.528" y1="291.781" x2="291.32" y2="291.781"/><line x1="289.424" y1="289.885" x2="289.424" y2="293.677"/><line x1="287.528" y1="289.885" x2="291.32" y2="293.677"/><line x1="287.528" y1="293.677" x2="291.32" y2="289.885"/>
<line x1="287.981" y1="293.598" x2="291.773" y2="293.598"/><line x1="289.877" y1="291.701" x2="289.877" y2="295.494"/><line x1="287.981" y1="291.701" x2="291.773" y2="295.494"/><line x1="287.981" y1="295.494" x2="291.773" y2="291.701"/>
<line x1="288.433" y1="316.443" x2="292.226" y2="316.443"/><line x1="290.329" y1="314.547" x2="290.329" y2="318.339"/><line x1="288.433" y1="314.547" x2="292.226" y2="318.339"/><line x1="288.433" y1="318.339" x2="292.226" y2="314.547"/>
<line x1="288.886" y1="320.149" x2="292.678" y2="320.149"/><line x1="290.782" y1="318.253" x2="290.782" y2="322.045"/><line x1="288.886" y1="318.253" x2="292.678" y2="322.045"/><line x1="288.886" y1="322.045" x2="292.678" y2="318.253"/>
<line x1="289.339" y1="317.551" x2="293.131" y2="317.551"/><line x1="291.235" y1="315.655" x2="291.235" y2="319.447"/><line x1="289.339" y1="315.655" x2="293.131" y2="319.447"/><line x1="289.339" y1="319.447" x2="293.131" y2="315.655"/>
<line x1="289.791" y1="309.213" x2="293.584" y2="309.213"/><line x1="291.688" y1="307.317" x2="291.688" y2="311.109"/><line x1="289.791" y1="307.317" x2="293.584" y2="311.109"/><line x1="289.791" y1="311.109" x2="293.584" y2="307.317"/>
<line x1="290.244" y1="307.138" x2="294.036" y2="307.138"/><line x1="292.14" y1="305.242" x2="292.14" y2="309.034"/><line x1="290.244" y1="305.242" x2="294.036" y2="309.034"/><line x1="290.244" y1="309.034" x2="294.036" y2="305.242"/>
<line x1="290.697" y1="310.059" x2="294.489" y2="310.059"/><line x1="292.593" y1="308.163" x2="292.593" y2="311.955"/><line x1="290.697" y1="308.163" x2="294.489" y2="311.955"/><line x1="290.697" y1="311.955" x2="294.489" y2="308.163"/>
<line x1="291.149" y1="313.832" x2="294.942" y2="313.832"/><line x1="293.046" y1="311.936" x2="293.046" y2="315.728"/><line x1="291.149" y1="311.936" x2="294.942" y2="315.728"/><line x1="291.149" y1="315.728" x2="294.942" y2="311.936"/>
<line x1="291.602" y1="310.734" x2="295.394" y2="310.734"/><line x1="293.498" y1="308.838" x2="293.498" y2="312.63"/><line x1="291.602" y1="308.838" x2="295.394" y2="312.63"/><line x1="291.602" y1="312.63" x2="295.394" y2="308.838"/>
<line x1="292.055" y1="317.505" x2="295.847" y2="317.505"/><line x1="293.951" y1="315.609" x2="293.951" y2="319.401"/><line x1="292.055" y1="315.609" x2="295.847" y2="319.401"/><line x1="292.055" y1="319.401" x2="295.847" y2="315.609"/>
<line x1="292.508" y1="321.708" x2="296.3" y2="321.708"/><line x1="294.404" y1="319.812" x2="294.404" y2="323.604"/><line x1="292.508" y1="319.812" x2="296.3" y2="323.604"/><line x1="292.508" y1="323.604" x2="296.3" y2="319.812"/>
<line x1="292.96" y1="318.266" x2="296.752" y2="318.266"/><line x1="294.856" y1="316.37" x2="294.856" y2="320.162"/><line x1="292.96" y1="316.37" x2="296.752" y2="320.162"/><line x1="292.96" y1="320.162" x2="296.752" y2="316.37"/>
<line x1="293.413" y1="289.422" x2="297.205" y2="289.422"/><line x1="295.309" y1="287.526" x2="295.309" y2="291.318"/><line x1="293.413" y1="287.526" x2="297.205" y2="291.318"/><line x1="293.413" y1="291.318" x2="297.205" y2="287.526"/>
<line x1="293.866" y1="272.605" x2="297.658" y2="272.605"/><line x1="295.762" y1="270.708" x2="295.762" y2="274.501"/><line x1="293.866" y1="270.708" x2="297.658" y2="274.501"/><line x1="293.866" y1="274.501" x2="297.658" y2="270.708"/>
<line x1="294.318" y1="256.104" x2="298.11" y2="256.104"/><line x1="296.214" y1="254.208" x2="296.214" y2="258"/><line x1="294.318" y1="254.208" x2="298.11" y2="258"/><line x1="294.318" y1="258" x2="298.11" y2="254.208"/>
<line x1="294.771" y1="245.404" x2="298.563" y2="245.404"/><line x1="296.667" y1="243.508" x2="296.667" y2="247.3"/><line x1="294.771" y1="243.508" x2="298.563" y2="247.3"/><line x1="294.771" y1="247.3" x2="298.563" y2="243.508"/>
<line x1="295.224" y1="234.824" x2="299.016" y2="234.824"/><line x1="297.12" y1="232.928" x2="297.12" y2="236.721"/><line x1="295.224" y1="232.928" x2="299.016" y2="236.721"/><line x1="295.224" y1="236.721" x2="299.016" y2="232.928"/>
<line x1="295.676" y1="234.886" x2="299.468" y2="234.886"/><line x1="297.572" y1="232.99" x2="297.572" y2="236.782"/><line x1="295.676" y1="232.99" x2="299.468" y2="236.782"/><line x1="295.676" y1="236.782" x2="299.468" y2="232.99"/>
<line x1="296.129" y1="238.288" x2="299.921" y2="238.288"/><line x1="298.025" y1="236.392" x2="298.025" y2="240.184"/><line x1="296.129" y1="236.392" x2="299.921" y2="240.184"/><line x1="296.129" y1="240.184" x2="299.921" y2="236.392"/>
<line x1="296.582" y1="220.774" x2="300.374" y2="220.774"/><line x1="298.478" y1="218.877" x2="298.478" y2="222.67"/><line x1="296.582" y1="218.877" x2="300.374" y2="222.67"/><line x1="296.582" y1="222.67" x2="300.374" y2="218.877"/>
<line x1="297.034" y1="221.449" x2="300.827" y2="221.449"/><line x1="298.93" y1="219.553" x2="298.93" y2="223.345"/><line x1="297.034" y1="219.553" x2="300.827" y2="223.345"/><line x1="297.034" y1="223.345" x2="300.827" y2="219.553"/>
<line x1="297.487" y1="208.852" x2="301.279" y2="208.852"/><line x1="299.383" y1="206.956" x2="299.383" y2="210.748"/><line x1="297.487" y1="206.956" x2="301.279" y2="210.748"/><line x1="297.487" y1="210.748" x2="301.279" y2="206.956"/>
<line x1="297.94" y1="219.62" x2="301.732" y2="219.62"/><line x1="299.836" y1="217.724" x2="299.836" y2="221.516"/><line x1="297.94" y1="217.724" x2="301.732" y2="221.516"/><line x1="297.94" y1="221.516" x2="301.732" y2="217.724"/>
<line x1="298.392" y1="207.084" x2="302.185" y2="207.084"/><line x1="300.288" y1="205.188" x2="300.288" y2="208.981"/><line x1="298.392" y1="205.188" x2="302.185" y2="208.981"/><line x1="298.392" y1="208.981" x2="302.185" y2="205.188"/>
<line x1="298.845" y1="216.547" x2="302.637" y2="216.547"/><line x1="300.741" y1="214.651" x2="300.741" y2="218.443"/><line x1="298.845" y1="214.651" x2="302.637" y2="218.443"/><line x1="298.845" y1="218.443" x2="302.637" y2="214.651"/>
<line x1="299.298" y1="215.593" x2="303.09" y2="215.593"/><line x1="301.194" y1="213.697" x2="301.194" y2="217.489"/><line x1="299.298" y1="213.697" x2="303.09" y2="217.489"/><line x1="299.298" y1="217.489" x2="303.09" y2="213.697"/>
<line x1="299.75" y1="202.99" x2="303.543" y2="202.99"/><line x1="301.647" y1="201.094" x2="301.647" y2="204.886"/><line x1="299.75" y1="201.094" x2="303.543" y2="204.886"/><line x1="299.75" y1="204.886" x2="303.543" y2="201.094"/>
<line x1="300.203" y1="185.949" x2="303.995" y2="185.949"/><line x1="302.099" y1="184.053" x2="302.099" y2="187.846"/><line x1="300.203" y1="184.053" x2="303.995" y2="187.846"/><line x1="300.203" y1="187.846" x2="303.995" y2="184.053"/>
<line x1="300.656" y1="208.292" x2="304.448" y2="208.292"/><line x1="302.552" y1="206.396" x2="302.552" y2="210.188"/><line x1="300.656" y1="206.396" x2="304.448" y2="210.188"/><line x1="300.656" y1="210.188" x2="304.448" y2="206.396"/>
<line x1="301.108" y1="205.994" x2="304.901" y2="205.994"/><line x1="303.005" y1="204.098" x2="303.005" y2="207.89"/><line x1="301.108" y1="204.098" x2="304.901" y2="207.89"/><line x1="301.108" y1="207.89" x2="304.901" y2="204.098"/>
<line x1="301.561" y1="197.446" x2="305.353" y2="197.446"/><line x1="303.457" y1="195.55" x2="303.457" y2="199.342"/><line x1="301.561" y1="195.55" x2="305.353" y2="199.342"/><line x1="301.561" y1="199.342" x2="305.353" y2="195.55"/>
<line x1="302.014" y1="195.817" x2="305.806" y2="195.817"/><line x1="303.91" y1="193.921" x2="303.91" y2="197.713"/><line x1="302.014" y1="193.921" x2="305.806" y2="197.713"/><line x1="302.014" y1="197.713" x2="305.806" y2="193.921"/>
<line x1="302.467" y1="191.809" x2="306.259" y2="191.809"/><line x1="304.363" y1="189.913" x2="304.363" y2="193.706"/><line x1="302.467" y1="189.913" x2="306.259" y2="193.706"/><line x1="302.467" y1="193.706" x2="306.259" y2="189.913"/>
<line x1="302.919" y1="175.909" x2="306.711" y2="175.909"/><line x1="304.815" y1="174.012" x2="304.815" y2="177.805"/><line x1="302.919" y1="174.012" x2="306.711" y2="177.805"/><line x1="302.919" y1="177.805" x2="306.711" y2="174.012"/>
<line x1="303.372" y1="171.715" x2="307.164" y2="171.715"/><line x1="305.268" y1="169.819" x2="305.268" y2="173.611"/><line x1="303.372" y1="169.819" x2="307.164" y2="173.611"/><line x1="303.372" y1="173.611" x2="307.164" y2="169.819"/>
<line x1="303.825" y1="162.946" x2="307.617" y2="162.946"/><line x1="305.721" y1="161.05" x2="305.721" y2="164.842"/><line x1="303.825" y1="161.05" x2="307.617" y2="164.842"/><line x1="303.825" y1="164.842" x2="307.617" y2="161.05"/>
<line x1="304.277" y1="166.733" x2="308.069" y2="166.733"/><line x1="306.173" y1="164.836" x2="306.173" y2="168.629"/><line x1="304.277" y1="164.836" x2="308.069" y2="168.629"/><line x1="304.277" y1="168.629" x2="308.069" y2="164.836"/>
<line x1="304.73" y1="180.495" x2="308.522" y2="180.495"/><line x1="306.626" y1="178.599" x2="306.626" y2="182.391"/><line x1="304.73" y1="178.599" x2="308.522" y2="182.391"/><line x1="304.73" y1="182.391" x2="308.522" y2="178.599"/>
<line x1="305.183" y1="157.535" x2="308.975" y2="157.535"/><line x1="307.079" y1="155.639" x2="307.079" y2="159.431"/><line x1="305.183" y1="155.639" x2="308.975" y2="159.431"/><line x1="305.183" y1="159.431" x2="308.975" y2="155.639"/>
<line x1="305.635" y1="170.059" x2="309.427" y2="170.059"/><line x1="307.531" y1="168.163" x2="307.531" y2="171.955"/><line x1="305.635" y1="168.163" x2="309.427" y2="171.955"/><line x1="305.635" y1="171.955" x2="309.427" y2="168.163"/>
<line x1="306.088" y1="141.242" x2="309.88" y2="141.242"/><line x1="307.984" y1="139.346" x2="307.984" y2="143.138"/><line x1="306.088" y1="139.346" x2="309.88" y2="143.138"/><line x1="306.088" y1="143.138" x2="309.88" y2="139.346"/>
<line x1="306.541" y1="114.711" x2="310.333" y2="114.711"/><line x1="308.437" y1="112.815" x2="308.437" y2="116.607"/><line x1="306.541" y1="112.815" x2="310.333" y2="116.607"/><line x1="306.541" y1="116.607" x2="310.333" y2="112.815"/>
<line x1="306.993" y1="114.392" x2="310.786" y2="114.392"/><line x1="308.889" y1="112.496" x2="308.889" y2="116.288"/><line x1="306.993" y1="112.496" x2="310.786" y2="116.288"/><line x1="306.993" y1="116.288" x2="310.786" y2="112.496"/>
<line x1="307.446" y1="103.714" x2="311.238" y2="103.714"/><line x1="309.342" y1="101.817" x2="309.342" y2="105.61"/><line x1="307.446" y1="101.817" x2="311.238" y2="105.61"/><line x1="307.446" y1="105.61" x2="311.238" y2="101.817"/>
<line x1="307.899" y1="132.738" x2="311.691" y2="132.738"/><line x1="309.795" y1="130.842" x2="309.795" y2="134.634"/><line x1="307.899" y1="130.842" x2="311.691" y2="134.634"/><line x1="307.899" y1="134.634" x2="311.691" y2="130.842"/>
<line x1="308.351" y1="150.415" x2="312.144" y2="150.415"/><line x1="310.247" y1="148.519" x2="310.247" y2="152.311"/><line x1="308.351" y1="148.519" x2="312.144" y2="152.311"/><line x1="308.351" y1="152.311" x2="312.144" y2="148.519"/>
<line x1="308.804" y1="149.447" x2="312.596" y2="149.447"/><line x1="310.7" y1="147.551" x2="310.7" y2="151.343"/><line x1="308.804" y1="147.551" x2="312.596" y2="151.343"/><line x1="308.804" y1="151.343" x2="312.596" y2="147.551"/>
<line x1="309.257" y1="134.832" x2="313.049" y2="134.832"/><line x1="311.153" y1="132.936" x2="311.153" y2="136.728"/><line x1="309.257" y1="132.936" x2="313.049" y2="136.728"/><line x1="309.257" y1="136.728" x2="313.049" y2="132.936"/>
<line x1="309.709" y1="104.17" x2="313.502" y2="104.17"/><line x1="311.606" y1="102.274" x2="311.606" y2="106.066"/><line x1="309.709" y1="102.274" x2="313.502" y2="106.066"/><line x1="309.709" y1="106.066" x2="313.502" y2="102.274"/>
<line x1="310.162" y1="95.1715" x2="313.954" y2="95.1715"/><line x1="312.058" y1="93.2754" x2="312.058" y2="97.0675"/><line x1="310.162" y1="93.2754" x2="313.954" y2="97.0675"/><line x1="310.162" y1="97.0675" x2="313.954" y2="93.2754"/>
<line x1="310.615" y1="105.67" x2="314.407" y2="105.67"/><line x1="312.511" y1="103.774" x2="312.511" y2="107.566"/><line x1="310.615" y1="103.774" x2="314.407" y2="107.566"/><line x1="310.615" y1="107.566" x2="314.407" y2="103.774"/>
<line x1="311.068" y1="99.7073" x2="314.86" y2="99.7073"/><line x1="312.964" y1="97.8112" x2="312.964" y2="101.603"/><line x1="311.068" y1="97.8112" x2="314.86" y2="101.603"/><line x1="311.068" y1="101.603" x2="314.86" y2="97.8112"/>
<line x1="311.52" y1="100.289" x2="315.312" y2="100.289"/><line x1="313.416" y1="98.3929" x2="313.416" y2="102.185"/><line x1="311.52" y1="98.3929" x2="315.312" y2="102.185"/><line x1="311.52" y1="102.185" x2="315.312" y2="98.3929"/>
<line x1="311.973" y1="109.234" x2="315.765" y2="109.234"/><line x1="313.869" y1="107.338" x2="313.869" y2="111.13"/><line x1="311.973" y1="107.338" x2="315.765" y2="111.13"/><line x1="311.973" y1="111.13" x2="315.765" y2="107.338"/>
<line x1="312.426" y1="98.3676" x2="316.218" y2="98.3676"/><line x1="314.322" y1="96.4715" x2="314.322" y2="100.264"/><line x1="312.426" y1="96.4715" x2="316.218" y2="100.264"/><line x1="312.426" y1="100.264" x2="316.218" y2="96.4715"/>
<line x1="312.878" y1="86.2116" x2="316.67" y2="86.2116"/><line x1="314.774" y1="84.3155" x2="314.774" y2="88.1076"/><line x1="312.878" y1="84.3155" x2="316.67" y2="88.1076"/><line x1="312.878" y1="88.1076" x2="316.67" y2="84.3155"/>
<line x1="313.331" y1="74.9325" x2="317.123" y2="74.9325"/><line x1="315.227" y1="73.0364" x2="315.227" y2="76.8286"/><line x1="313.331" y1="73.0364" x2="317.123" y2="76.8286"/><line x1="313.331" y1="76.8286" x2="317.123" y2="73.0364"/>
<line x1="313.784" y1="86.9558" x2="317.576" y2="86.9558"/><line x1="315.68" y1="85.0597" x2="315.68" y2="88.8519"/><line x1="313.784" y1="85.0597" x2="317.576" y2="88.8519"/><line x1="313.784" y1="88.8519" x2="317.576" y2="85.0597"/>
<line x1="314.236" y1="83.8952" x2="318.028" y2="83.8952"/><line x1="316.132" y1="81.9991" x2="316.132" y2="85.7913"/><line x1="314.236" y1="81.9991" x2="318.028" y2="85.7913"/><line x1="314.236" y1="85.7913" x2="318.028" y2="81.9991"/>
<line x1="314.689" y1="64.1605" x2="318.481" y2="64.1605"/><line x1="316.585" y1="62.2644" x2="316.585" y2="66.0566"/><line x1="314.689" y1="62.2644" x2="318.481" y2="66.0566"/><line x1="314.689" y1="66.0566" x2="318.481" y2="62.2644"/>
<line x1="315.142" y1="62.9446" x2="318.934" y2="62.9446"/><line x1="317.038" y1="61.0485" x2="317.038" y2="64.8407"/><line x1="315.142" y1="61.0485" x2="318.934" y2="64.8407"/><line x1="315.142" y1="64.8407" x2="318.934" y2="61.0485"/>
<line x1="315.594" y1="69.6232" x2="319.387" y2="69.6232"/><line x1="317.49" y1="67.7271" x2="317.49" y2="71.5193"/><line x1="315.594" y1="67.7271" x2="319.387" y2="71.5193"/><line x1="315.594" y1="71.5193" x2="319.387" y2="67.7271"/>
<line x1="316.047" y1="58.0575" x2="319.839" y2="58.0575"/><line x1="317.943" y1="56.1614" x2="317.943" y2="59.9536"/><line x1="316.047" y1="56.1614" x2="319.839" y2="59.9536"/><line x1="316.047" y1="59.9536" x2="319.839" y2="56.1614"/>
<line x1="316.5" y1="73.8536" x2="320.292" y2="73.8536"/><line x1="318.396" y1="71.9575" x2="318.396" y2="75.7497"/><line x1="316.5" y1="71.9575" x2="320.292" y2="75.7497"/><line x1="316.5" y1="75.7497" x2="320.292" y2="71.9575"/>
<line x1="316.952" y1="87.5859" x2="320.745" y2="87.5859"/><line x1="318.848" y1="85.6898" x2="318.848" y2="89.4819"/><line x1="316.952" y1="85.6898" x2="320.745" y2="89.4819"/><line x1="316.952" y1="89.4819" x2="320.745" y2="85.6898"/>
<line x1="317.405" y1="95.2838" x2="321.197" y2="95.2838"/><line x1="319.301" y1="93.3877" x2="319.301" y2="97.1799"/><line x1="317.405" y1="93.3877" x2="321.197" y2="97.1799"/><line x1="317.405" y1="97.1799" x2="321.197" y2="93.3877"/>
<line x1="317.858" y1="94.2615" x2="321.65" y2="94.2615"/><line x1="319.754" y1="92.3654" x2="319.754" y2="96.1576"/><line x1="317.858" y1="92.3654" x2="321.65" y2="96.1576"/><line x1="317.858" y1="96.1576" x2="321.65" y2="92.3654"/>
<line x1="318.31" y1="101.403" x2="322.103" y2="101.403"/><line x1="320.207" y1="99.5073" x2="320.207" y2="103.299"/><line x1="318.31" y1="99.5073" x2="322.103" y2="103.299"/><line x1="318.31" y1="103.299" x2="322.103" y2="99.5073"/>
<line x1="318.763" y1="107.145" x2="322.555" y2="107.145"/><line x1="320.659" y1="105.249" x2="320.659" y2="109.041"/><line x1="318.763" y1="105.249" x2="322.555" y2="109.041"/><line x1="318.763" y1="109.041" x2="322.555" y2="105.249"/>
<line x1="319.216" y1="102.446" x2="323.008" y2="102.446"/><line x1="321.112" y1="100.55" x2="321.112" y2="104.342"/><line x1="319.216" y1="100.55" x2="323.008" y2="104.342"/><line x1="319.216" y1="104.342" x2="323.008" y2="100.55"/>
<line x1="319.669" y1="114.469" x2="323.461" y2="114.469"/><line x1="321.565" y1="112.573" x2="321.565" y2="116.365"/><line x1="319.669" y1="112.573" x2="323.461" y2="116.365"/><line x1="319.669" y1="116.365" x2="323.461" y2="112.573"/>
<line x1="320.121" y1="113.084" x2="323.913" y2="113.084"/><line x1="322.017" y1="111.188" x2="322.017" y2="114.98"/><line x1="320.121" y1="111.188" x2="323.913" y2="114.98"/><line x1="320.121" y1="114.98" x2="323.913" y2="111.188"/>
<line x1="320.574" y1="107.945" x2="324.366" y2="107.945"/><line x1="322.47" y1="106.049" x2="322.47" y2="109.841"/><line x1="320.574" y1="106.049" x2="324.366" y2="109.841"/><line x1="320.574" y1="109.841" x2="324.366" y2="106.049"/>
<line x1="321.027" y1="113.539" x2="324.819" y2="113.539"/><line x1="322.923" y1="111.643" x2="322.923" y2="115.436"/><line x1="321.027" y1="111.643" x2="324.819" y2="115.436"/><line x1="321.027" y1="115.436" x2="324.819" y2="111.643"/>
<line x1="321.479" y1="96.5639" x2="325.271" y2="96.5639"/><line x1="323.375" y1="94.6678" x2="323.375" y2="98.46"/><line x1="321.479" y1="94.6678" x2="325.271" y2="98.46"/><line x1="321.479" y1="98.46" x2="325.271" y2="94.6678"/>
<line x1="321.932" y1="82.97" x2="325.724" y2="82.97"/><line x1="323.828" y1="81.0739" x2="323.828" y2="84.8661"/><line x1="321.932" y1="81.0739" x2="325.724" y2="84.8661"/><line x1="321.932" y1="84.8661" x2="325.724" y2="81.0739"/>
<line x1="322.385" y1="67.0985" x2="326.177" y2="67.0985"/><line x1="324.281" y1="65.2024" x2="324.281" y2="68.9946"/><line x1="322.385" y1="65.2024" x2="326.177" y2="68.9946"/><line x1="322.385" y1="68.9946" x2="326.177" y2="65.2024"/>
<line x1="322.837" y1="51.86" x2="326.629" y2="51.86"/><line x1="324.733" y1="49.9639" x2="324.733" y2="53.7561"/><line x1="322.837" y1="49.9639" x2="326.629" y2="53.7561"/><line x1="322.837" y1="53.7561" x2="326.629" y2="49.9639"/>
<line x1="323.29" y1="63.6031" x2="327.082" y2="63.6031"/><line x1="325.186" y1="61.707" x2="325.186" y2="65.4991"/><line x1="323.29" y1="61.707" x2="327.082" y2="65.4991"/><line x1="323.29" y1="65.4991" x2="327.082" y2="61.707"/>
<line x1="323.743" y1="55.9495" x2="327.535" y2="55.9495"/><line x1="325.639" y1="54.0534" x2="325.639" y2="57.8455"/><line x1="323.743" y1="54.0534" x2="327.535" y2="57.8455"/><line x1="323.743" y1="57.8455" x2="327.535" y2="54.0534"/>
<line x1="324.195" y1="52.5281" x2="327.988" y2="52.5281"/><line x1="326.091" y1="50.632" x2="326.091" y2="54.4242"/><line x1="324.195" y1="50.632" x2="327.988" y2="54.4242"/><line x1="324.195" y1="54.4242" x2="327.988" y2="50.632"/>
<line x1="324.648" y1="55.8621" x2="328.44" y2="55.8621"/><line x1="326.544" y1="53.966" x2="326.544" y2="57.7582"/><line x1="324.648" y1="53.966" x2="328.44" y2="57.7582"/><line x1="324.648" y1="57.7582" x2="328.44" y2="53.966"/>
<line x1="325.101" y1="50.9629" x2="328.893" y2="50.9629"/><line x1="326.997" y1="49.0668" x2="326.997" y2="52.859"/><line x1="325.101" y1="49.0668" x2="328.893" y2="52.859"/><line x1="325.101" y1="52.859" x2="328.893" y2="49.0668"/>
<line x1="325.553" y1="49.6858" x2="329.346" y2="49.6858"/><line x1="327.449" y1="47.7897" x2="327.449" y2="51.5819"/><line x1="325.553" y1="47.7897" x2="329.346" y2="51.5819"/><line x1="325.553" y1="51.5819" x2="329.346" y2="47.7897"/>
<line x1="326.006" y1="49.6685" x2="329.798" y2="49.6685"/><line x1="327.902" y1="47.7724" x2="327.902" y2="51.5646"/><line x1="326.006" y1="47.7724" x2="329.798" y2="51.5646"/><line x1="326.006" y1="51.5646" x2="329.798" y2="47.7724"/>
</g>
<path d="M170.821,353.116h 226.342" fill="none" stroke="#0000ff"/>
<path d="M283.992,372.012v -47.2396" fill="none" stroke="#ff0000"/>
<rect x="57.1929" y="330.677" width="113.386" height="41.3346" fill="white"/>
<path d="M57.1929,372.012h 113.386" fill="none" stroke="black"/>
<path d="M170.579,372.012v -41.3346" fill="none" stroke="black"/>
<path d="M170.579,330.677h -113.386" fill="none" stroke="black"/>
<path d="M57.1929,330.677v 41.3346" fill="none" stroke="black"/>
<text xml:space="preserve" x="85.3498" y="354.568" fill="black" font-size="12.0704" font-family="Helvetica">#p.e of PMTs0</text>
<path d="M61.4449,351.344h 19.8425" fill="none" stroke="black"/></svg>
