<?xml version="1.0" standalone="no"?>
<svg width="567.429" height="413.846" viewBox="0 0 567.429 413.846" xmlns="http://www.w3.org/2000/svg" shape-rendering="crispEdges">
<title>
figures/chi2_3PMTnpedata190929-01.svg
</title>
<desc>
Creator: ROOT Version 6.18/02
CreationDate: Tue Oct  1 14:34:25 2019</desc>
<defs>
</defs>
<rect x="0.5" y="0" width="566.929" height="413.346" fill="white"/>
<rect x="57.1929" y="41.3346" width="453.543" height="330.677" fill="white"/>
<rect x="57.1929" y="41.3346" width="453.543" height="330.677" fill="none" stroke="black"/>
<path d="M57.1929,372.012h 453.543" fill="none" stroke="black"/>
<path d="M87.5559,41.3346v 330.677" fill="none" stroke="black" stroke-dasharray=" 1, 2"/>
<path d="M132.824,41.3346v 330.677" fill="none" stroke="black" stroke-dasharray=" 1, 2"/>
<path d="M178.093,41.3346v 330.677" fill="none" stroke="black" stroke-dasharray=" 1, 2"/>
<path d="M223.361,41.3346v 330.677" fill="none" stroke="black" stroke-dasharray=" 1, 2"/>
<path d="M268.629,41.3346v 330.677" fill="none" stroke="black" stroke-dasharray=" 1, 2"/>
<path d="M313.898,41.3346v 330.677" fill="none" stroke="black" stroke-dasharray=" 1, 2"/>
<path d="M359.166,41.3346v 330.677" fill="none" stroke="black" stroke-dasharray=" 1, 2"/>
<path d="M404.434,41.3346v 330.677" fill="none" stroke="black" stroke-dasharray=" 1, 2"/>
<path d="M449.703,41.3346v 330.677" fill="none" stroke="black" stroke-dasharray=" 1, 2"/>
<path d="M494.971,41.3346v 330.677" fill="none" stroke="black" stroke-dasharray=" 1, 2"/>
<path d="M87.5559,41.3346v 330.677" fill="none" stroke="black" stroke-dasharray=" 1, 2"/>
<path d="M494.971,41.3346v 330.677" fill="none" stroke="black" stroke-dasharray=" 1, 2"/>
<path d="M57.1929,372.012v -330.677" fill="none" stroke="black"/>
<path d="M510.736,315.801h -453.543" fill="none" stroke="black" stroke-dasharray=" 1, 2"/>
<path d="M510.736,252.815h -453.543" fill="none" stroke="black" stroke-dasharray=" 1, 2"/>
<path d="M510.736,189.829h -453.543" fill="none" stroke="black" stroke-dasharray=" 1, 2"/>
<path d="M510.736,126.843h -453.543" fill="none" stroke="black" stroke-dasharray=" 1, 2"/>
<path d="M510.736,63.8565h -453.543" fill="none" stroke="black" stroke-dasharray=" 1, 2"/>
<path d="M510.736,315.801h -453.543" fill="none" stroke="black" stroke-dasharray=" 1, 2"/>
<path d="M510.736,63.8565h -453.543" fill="none" stroke="black" stroke-dasharray=" 1, 2"/>
<path d="M57.1929,372.012h 453.543" fill="none" stroke="black"/>
<path d="M87.5559,362.091v 9.92031" fill="none" stroke="black"/>
<path d="M98.873,367.052v 4.96016" fill="none" stroke="black"/>
<path d="M110.19,367.052v 4.96016" fill="none" stroke="black"/>
<path d="M121.507,367.052v 4.96016" fill="none" stroke="black"/>
<path d="M132.824,362.091v 9.92031" fill="none" stroke="black"/>
<path d="M144.141,367.052v 4.96016" fill="none" stroke="black"/>
<path d="M155.458,367.052v 4.96016" fill="none" stroke="black"/>
<path d="M166.775,367.052v 4.96016" fill="none" stroke="black"/>
<path d="M178.093,362.091v 9.92031" fill="none" stroke="black"/>
<path d="M189.41,367.052v 4.96016" fill="none" stroke="black"/>
<path d="M200.727,367.052v 4.96016" fill="none" stroke="black"/>
<path d="M212.044,367.052v 4.96016" fill="none" stroke="black"/>
<path d="M223.361,362.091v 9.92031" fill="none" stroke="black"/>
<path d="M234.678,367.052v 4.96016" fill="none" stroke="black"/>
<path d="M245.995,367.052v 4.96016" fill="none" stroke="black"/>
<path d="M257.312,367.052v 4.96016" fill="none" stroke="black"/>
<path d="M268.629,362.091v 9.92031" fill="none" stroke="black"/>
<path d="M279.946,367.052v 4.96016" fill="none" stroke="black"/>
<path d="M291.263,367.052v 4.96016" fill="none" stroke="black"/>
<path d="M302.58,367.052v 4.96016" fill="none" stroke="black"/>
<path d="M313.898,362.091v 9.92031" fill="none" stroke="black"/>
<path d="M325.215,367.052v 4.96016" fill="none" stroke="black"/>
<path d="M336.532,367.052v 4.96016" fill="none" stroke="black"/>
<path d="M347.849,367.052v 4.96016" fill="none" stroke="black"/>
<path d="M359.166,362.091v 9.92031" fill="none" stroke="black"/>
<path d="M370.483,367.052v 4.96016" fill="none" stroke="black"/>
<path d="M381.8,367.052v 4.96016" fill="none" stroke="black"/>
<path d="M393.117,367.052v 4.96016" fill="none" stroke="black"/>
<path d="M404.434,362.091v 9.92031" fill="none" stroke="black"/>
<path d="M415.751,367.052v 4.96016" fill="none" stroke="black"/>
<path d="M427.068,367.052v 4.96016" fill="none" stroke="black"/>
<path d="M438.385,367.052v 4.96016" fill="none" stroke="black"/>
<path d="M449.703,362.091v 9.92031" fill="none" stroke="black"/>
<path d="M461.02,367.052v 4.96016" fill="none" stroke="black"/>
<path d="M472.337,367.052v 4.96016" fill="none" stroke="black"/>
<path d="M483.654,367.052v 4.96016" fill="none" stroke="black"/>
<path d="M494.971,362.091v 9.92031" fill="none" stroke="black"/>
<path d="M87.5559,362.091v 9.92031" fill="none" stroke="black"/>
<path d="M76.2388,367.052v 4.96016" fill="none" stroke="black"/>
<path d="M64.9217,367.052v 4.96016" fill="none" stroke="black"/>
<path d="M494.971,362.091v 9.92031" fill="none" stroke="black"/>
<path d="M506.288,367.052v 4.96016" fill="none" stroke="black"/>
<text xml:space="preserve" x="74.4473" y="385.379" fill="black" font-size="13.7726" font-family="Helvetica">0.76</text>
<text xml:space="preserve" x="119.953" y="385.379" fill="black" font-size="13.7726" font-family="Helvetica">0.78</text>
<text xml:space="preserve" x="168.777" y="385.379" fill="black" font-size="13.7726" font-family="Helvetica">0.8</text>
<text xml:space="preserve" x="210.491" y="385.379" fill="black" font-size="13.7726" font-family="Helvetica">0.82</text>
<text xml:space="preserve" x="255.523" y="385.379" fill="black" font-size="13.7726" font-family="Helvetica">0.84</text>
<text xml:space="preserve" x="301.029" y="385.379" fill="black" font-size="13.7726" font-family="Helvetica">0.86</text>
<text xml:space="preserve" x="346.061" y="385.379" fill="black" font-size="13.7726" font-family="Helvetica">0.88</text>
<text xml:space="preserve" x="395.359" y="385.379" fill="black" font-size="13.7726" font-family="Helvetica">0.9</text>
<text xml:space="preserve" x="436.599" y="385.379" fill="black" font-size="13.7726" font-family="Helvetica">0.92</text>
<text xml:space="preserve" x="482.105" y="385.379" fill="black" font-size="13.7726" font-family="Helvetica">0.94</text>
<text xml:space="preserve" x="413.372" y="400.074" fill="black" font-size="13.7726" font-family="Helvetica">calibration factor</text>
<path d="M57.1929,372.012v -330.677" fill="none" stroke="black"/>
<path d="M70.7992,315.801h -13.6063" fill="none" stroke="black"/>
<path d="M63.9961,300.054h -6.80315" fill="none" stroke="black"/>
<path d="M63.9961,284.308h -6.80315" fill="none" stroke="black"/>
<path d="M63.9961,268.561h -6.80315" fill="none" stroke="black"/>
<path d="M70.7992,252.815h -13.6063" fill="none" stroke="black"/>
<path d="M63.9961,237.068h -6.80315" fill="none" stroke="black"/>
<path d="M63.9961,221.322h -6.80315" fill="none" stroke="black"/>
<path d="M63.9961,205.575h -6.80315" fill="none" stroke="black"/>
<path d="M70.7992,189.829h -13.6063" fill="none" stroke="black"/>
<path d="M63.9961,174.082h -6.80315" fill="none" stroke="black"/>
<path d="M63.9961,158.336h -6.80315" fill="none" stroke="black"/>
<path d="M63.9961,142.589h -6.80315" fill="none" stroke="black"/>
<path d="M70.7992,126.843h -13.6063" fill="none" stroke="black"/>
<path d="M63.9961,111.096h -6.80315" fill="none" stroke="black"/>
<path d="M63.9961,95.3495h -6.80315" fill="none" stroke="black"/>
<path d="M63.9961,79.603h -6.80315" fill="none" stroke="black"/>
<path d="M70.7992,63.8565h -13.6063" fill="none" stroke="black"/>
<path d="M70.7992,315.801h -13.6063" fill="none" stroke="black"/>
<path d="M63.9961,331.547h -6.80315" fill="none" stroke="black"/>
<path d="M63.9961,347.294h -6.80315" fill="none" stroke="black"/>
<path d="M63.9961,363.04h -6.80315" fill="none" stroke="black"/>
<path d="M70.7992,63.8565h -13.6063" fill="none" stroke="black"/>
<path d="M63.9961,48.11h -6.80315" fill="none" stroke="black"/>
<text xml:space="preserve" x="25.1491" y="320.438" fill="black" font-size="13.7726" font-family="Helvetica">5380</text>
<text xml:space="preserve" x="25.1491" y="257.393" fill="black" font-size="13.7726" font-family="Helvetica">5400</text>
<text xml:space="preserve" x="25.1491" y="194.349" fill="black" font-size="13.7726" font-family="Helvetica">5420</text>
<text xml:space="preserve" x="25.1491" y="131.304" fill="black" font-size="13.7726" font-family="Helvetica">5440</text>
<text xml:space="preserve" x="25.1491" y="68.259" fill="black" font-size="13.7726" font-family="Helvetica">5460</text>
<g transform="rotate(-90,8.08434,45.98)">
<text xml:space="preserve" x="8.08434" y="45.98" fill="black" font-size="9.34839" font-family="Helvetica">2</text>
</g>
<g transform="rotate(-90,12.3505,50.2462)">
<text xml:space="preserve" x="12.3505" y="50.2462" fill="black" font-size="13.7726" font-family="Helvetica"> </text>
</g>
<g transform="rotate(-90,12.3505,57.3565)">
<text xml:space="preserve" x="12.3505" y="57.3565" fill="black" font-size="13.7726" font-family="Times">&#0967;</text>
</g>
<g stroke="black" stroke-width="1" fill="none">
<line x1="232.782" y1="42.6144" x2="236.574" y2="42.6144"/><line x1="234.678" y1="40.7184" x2="234.678" y2="44.5105"/><line x1="232.782" y1="40.7184" x2="236.574" y2="44.5105"/><line x1="232.782" y1="44.5105" x2="236.574" y2="40.7184"/>
<line x1="233.235" y1="49.9001" x2="237.027" y2="49.9001"/><line x1="235.131" y1="48.004" x2="235.131" y2="51.7962"/><line x1="233.235" y1="48.004" x2="237.027" y2="51.7962"/><line x1="233.235" y1="51.7962" x2="237.027" y2="48.004"/>
<line x1="233.687" y1="72.2882" x2="237.479" y2="72.2882"/><line x1="235.583" y1="70.3922" x2="235.583" y2="74.1843"/><line x1="233.687" y1="70.3922" x2="237.479" y2="74.1843"/><line x1="233.687" y1="74.1843" x2="237.479" y2="70.3922"/>
<line x1="234.14" y1="77.737" x2="237.932" y2="77.737"/><line x1="236.036" y1="75.8409" x2="236.036" y2="79.6331"/><line x1="234.14" y1="75.8409" x2="237.932" y2="79.6331"/><line x1="234.14" y1="79.6331" x2="237.932" y2="75.8409"/>
<line x1="234.593" y1="67.8956" x2="238.385" y2="67.8956"/><line x1="236.489" y1="65.9995" x2="236.489" y2="69.7917"/><line x1="234.593" y1="65.9995" x2="238.385" y2="69.7917"/><line x1="234.593" y1="69.7917" x2="238.385" y2="65.9995"/>
<line x1="235.045" y1="78.4395" x2="238.837" y2="78.4395"/><line x1="236.941" y1="76.5434" x2="236.941" y2="80.3355"/><line x1="235.045" y1="76.5434" x2="238.837" y2="80.3355"/><line x1="235.045" y1="80.3355" x2="238.837" y2="76.5434"/>
<line x1="235.498" y1="89.9459" x2="239.29" y2="89.9459"/><line x1="237.394" y1="88.0498" x2="237.394" y2="91.842"/><line x1="235.498" y1="88.0498" x2="239.29" y2="91.842"/><line x1="235.498" y1="91.842" x2="239.29" y2="88.0498"/>
<line x1="235.951" y1="99.9901" x2="239.743" y2="99.9901"/><line x1="237.847" y1="98.094" x2="237.847" y2="101.886"/><line x1="235.951" y1="98.094" x2="239.743" y2="101.886"/><line x1="235.951" y1="101.886" x2="239.743" y2="98.094"/>
<line x1="236.403" y1="110.249" x2="240.196" y2="110.249"/><line x1="238.299" y1="108.353" x2="238.299" y2="112.145"/><line x1="236.403" y1="108.353" x2="240.196" y2="112.145"/><line x1="236.403" y1="112.145" x2="240.196" y2="108.353"/>
<line x1="236.856" y1="132.954" x2="240.648" y2="132.954"/><line x1="238.752" y1="131.058" x2="238.752" y2="134.85"/><line x1="236.856" y1="131.058" x2="240.648" y2="134.85"/><line x1="236.856" y1="134.85" x2="240.648" y2="131.058"/>
<line x1="237.309" y1="117.32" x2="241.101" y2="117.32"/><line x1="239.205" y1="115.424" x2="239.205" y2="119.216"/><line x1="237.309" y1="115.424" x2="241.101" y2="119.216"/><line x1="237.309" y1="119.216" x2="241.101" y2="115.424"/>
<line x1="237.761" y1="121.622" x2="241.554" y2="121.622"/><line x1="239.657" y1="119.726" x2="239.657" y2="123.518"/><line x1="237.761" y1="119.726" x2="241.554" y2="123.518"/><line x1="237.761" y1="123.518" x2="241.554" y2="119.726"/>
<line x1="238.214" y1="127.35" x2="242.006" y2="127.35"/><line x1="240.11" y1="125.454" x2="240.11" y2="129.246"/><line x1="238.214" y1="125.454" x2="242.006" y2="129.246"/><line x1="238.214" y1="129.246" x2="242.006" y2="125.454"/>
<line x1="238.667" y1="125.792" x2="242.459" y2="125.792"/><line x1="240.563" y1="123.896" x2="240.563" y2="127.688"/><line x1="238.667" y1="123.896" x2="242.459" y2="127.688"/><line x1="238.667" y1="127.688" x2="242.459" y2="123.896"/>
<line x1="239.119" y1="137.204" x2="242.912" y2="137.204"/><line x1="241.016" y1="135.308" x2="241.016" y2="139.1"/><line x1="239.119" y1="135.308" x2="242.912" y2="139.1"/><line x1="239.119" y1="139.1" x2="242.912" y2="135.308"/>
<line x1="239.572" y1="168.712" x2="243.364" y2="168.712"/><line x1="241.468" y1="166.815" x2="241.468" y2="170.608"/><line x1="239.572" y1="166.815" x2="243.364" y2="170.608"/><line x1="239.572" y1="170.608" x2="243.364" y2="166.815"/>
<line x1="240.025" y1="164.926" x2="243.817" y2="164.926"/><line x1="241.921" y1="163.03" x2="241.921" y2="166.822"/><line x1="240.025" y1="163.03" x2="243.817" y2="166.822"/><line x1="240.025" y1="166.822" x2="243.817" y2="163.03"/>
<line x1="240.477" y1="170.429" x2="244.27" y2="170.429"/><line x1="242.374" y1="168.533" x2="242.374" y2="172.325"/><line x1="240.477" y1="168.533" x2="244.27" y2="172.325"/><line x1="240.477" y1="172.325" x2="244.27" y2="168.533"/>
<line x1="240.93" y1="174.76" x2="244.722" y2="174.76"/><line x1="242.826" y1="172.864" x2="242.826" y2="176.656"/><line x1="240.93" y1="172.864" x2="244.722" y2="176.656"/><line x1="240.93" y1="176.656" x2="244.722" y2="172.864"/>
<line x1="241.383" y1="176.53" x2="245.175" y2="176.53"/><line x1="243.279" y1="174.633" x2="243.279" y2="178.426"/><line x1="241.383" y1="174.633" x2="245.175" y2="178.426"/><line x1="241.383" y1="178.426" x2="245.175" y2="174.633"/>
<line x1="241.836" y1="172.646" x2="245.628" y2="172.646"/><line x1="243.732" y1="170.75" x2="243.732" y2="174.542"/><line x1="241.836" y1="170.75" x2="245.628" y2="174.542"/><line x1="241.836" y1="174.542" x2="245.628" y2="170.75"/>
<line x1="242.288" y1="155.685" x2="246.08" y2="155.685"/><line x1="244.184" y1="153.789" x2="244.184" y2="157.581"/><line x1="242.288" y1="153.789" x2="246.08" y2="157.581"/><line x1="242.288" y1="157.581" x2="246.08" y2="153.789"/>
<line x1="242.741" y1="159.434" x2="246.533" y2="159.434"/><line x1="244.637" y1="157.538" x2="244.637" y2="161.33"/><line x1="242.741" y1="157.538" x2="246.533" y2="161.33"/><line x1="242.741" y1="161.33" x2="246.533" y2="157.538"/>
<line x1="243.194" y1="164.327" x2="246.986" y2="164.327"/><line x1="245.09" y1="162.431" x2="245.09" y2="166.223"/><line x1="243.194" y1="162.431" x2="246.986" y2="166.223"/><line x1="243.194" y1="166.223" x2="246.986" y2="162.431"/>
<line x1="243.646" y1="179.381" x2="247.438" y2="179.381"/><line x1="245.542" y1="177.485" x2="245.542" y2="181.277"/><line x1="243.646" y1="177.485" x2="247.438" y2="181.277"/><line x1="243.646" y1="181.277" x2="247.438" y2="177.485"/>
<line x1="244.099" y1="183.215" x2="247.891" y2="183.215"/><line x1="245.995" y1="181.319" x2="245.995" y2="185.111"/><line x1="244.099" y1="181.319" x2="247.891" y2="185.111"/><line x1="244.099" y1="185.111" x2="247.891" y2="181.319"/>
<line x1="244.552" y1="180.121" x2="248.344" y2="180.121"/><line x1="246.448" y1="178.225" x2="246.448" y2="182.017"/><line x1="244.552" y1="178.225" x2="248.344" y2="182.017"/><line x1="244.552" y1="182.017" x2="248.344" y2="178.225"/>
<line x1="245.004" y1="218.398" x2="248.796" y2="218.398"/><line x1="246.9" y1="216.502" x2="246.9" y2="220.294"/><line x1="245.004" y1="216.502" x2="248.796" y2="220.294"/><line x1="245.004" y1="220.294" x2="248.796" y2="216.502"/>
<line x1="245.457" y1="231.262" x2="249.249" y2="231.262"/><line x1="247.353" y1="229.365" x2="247.353" y2="233.158"/><line x1="245.457" y1="229.365" x2="249.249" y2="233.158"/><line x1="245.457" y1="233.158" x2="249.249" y2="229.365"/>
<line x1="245.91" y1="194.528" x2="249.702" y2="194.528"/><line x1="247.806" y1="192.632" x2="247.806" y2="196.424"/><line x1="245.91" y1="192.632" x2="249.702" y2="196.424"/><line x1="245.91" y1="196.424" x2="249.702" y2="192.632"/>
<line x1="246.362" y1="179.984" x2="250.155" y2="179.984"/><line x1="248.258" y1="178.088" x2="248.258" y2="181.88"/><line x1="246.362" y1="178.088" x2="250.155" y2="181.88"/><line x1="246.362" y1="181.88" x2="250.155" y2="178.088"/>
<line x1="246.815" y1="193.961" x2="250.607" y2="193.961"/><line x1="248.711" y1="192.065" x2="248.711" y2="195.857"/><line x1="246.815" y1="192.065" x2="250.607" y2="195.857"/><line x1="246.815" y1="195.857" x2="250.607" y2="192.065"/>
<line x1="247.268" y1="218.431" x2="251.06" y2="218.431"/><line x1="249.164" y1="216.535" x2="249.164" y2="220.327"/><line x1="247.268" y1="216.535" x2="251.06" y2="220.327"/><line x1="247.268" y1="220.327" x2="251.06" y2="216.535"/>
<line x1="247.72" y1="224.353" x2="251.513" y2="224.353"/><line x1="249.617" y1="222.457" x2="249.617" y2="226.249"/><line x1="247.72" y1="222.457" x2="251.513" y2="226.249"/><line x1="247.72" y1="226.249" x2="251.513" y2="222.457"/>
<line x1="248.173" y1="253.031" x2="251.965" y2="253.031"/><line x1="250.069" y1="251.135" x2="250.069" y2="254.927"/><line x1="248.173" y1="251.135" x2="251.965" y2="254.927"/><line x1="248.173" y1="254.927" x2="251.965" y2="251.135"/>
<line x1="248.626" y1="263.23" x2="252.418" y2="263.23"/><line x1="250.522" y1="261.334" x2="250.522" y2="265.126"/><line x1="248.626" y1="261.334" x2="252.418" y2="265.126"/><line x1="248.626" y1="265.126" x2="252.418" y2="261.334"/>
<line x1="249.078" y1="256.629" x2="252.871" y2="256.629"/><line x1="250.975" y1="254.733" x2="250.975" y2="258.525"/><line x1="249.078" y1="254.733" x2="252.871" y2="258.525"/><line x1="249.078" y1="258.525" x2="252.871" y2="254.733"/>
<line x1="249.531" y1="236.103" x2="253.323" y2="236.103"/><line x1="251.427" y1="234.207" x2="251.427" y2="237.999"/><line x1="249.531" y1="234.207" x2="253.323" y2="237.999"/><line x1="249.531" y1="237.999" x2="253.323" y2="234.207"/>
<line x1="249.984" y1="236.394" x2="253.776" y2="236.394"/><line x1="251.88" y1="234.497" x2="251.88" y2="238.29"/><line x1="249.984" y1="234.497" x2="253.776" y2="238.29"/><line x1="249.984" y1="238.29" x2="253.776" y2="234.497"/>
<line x1="250.437" y1="261.236" x2="254.229" y2="261.236"/><line x1="252.333" y1="259.34" x2="252.333" y2="263.132"/><line x1="250.437" y1="259.34" x2="254.229" y2="263.132"/><line x1="250.437" y1="263.132" x2="254.229" y2="259.34"/>
<line x1="250.889" y1="256.77" x2="254.681" y2="256.77"/><line x1="252.785" y1="254.874" x2="252.785" y2="258.666"/><line x1="250.889" y1="254.874" x2="254.681" y2="258.666"/><line x1="250.889" y1="258.666" x2="254.681" y2="254.874"/>
<line x1="251.342" y1="250.605" x2="255.134" y2="250.605"/><line x1="253.238" y1="248.709" x2="253.238" y2="252.502"/><line x1="251.342" y1="248.709" x2="255.134" y2="252.502"/><line x1="251.342" y1="252.502" x2="255.134" y2="248.709"/>
<line x1="251.795" y1="254.513" x2="255.587" y2="254.513"/><line x1="253.691" y1="252.617" x2="253.691" y2="256.409"/><line x1="251.795" y1="252.617" x2="255.587" y2="256.409"/><line x1="251.795" y1="256.409" x2="255.587" y2="252.617"/>
<line x1="252.247" y1="251.709" x2="256.039" y2="251.709"/><line x1="254.143" y1="249.813" x2="254.143" y2="253.605"/><line x1="252.247" y1="249.813" x2="256.039" y2="253.605"/><line x1="252.247" y1="253.605" x2="256.039" y2="249.813"/>
<line x1="252.7" y1="253.673" x2="256.492" y2="253.673"/><line x1="254.596" y1="251.777" x2="254.596" y2="255.569"/><line x1="252.7" y1="251.777" x2="256.492" y2="255.569"/><line x1="252.7" y1="255.569" x2="256.492" y2="251.777"/>
<line x1="253.153" y1="270.903" x2="256.945" y2="270.903"/><line x1="255.049" y1="269.007" x2="255.049" y2="272.799"/><line x1="253.153" y1="269.007" x2="256.945" y2="272.799"/><line x1="253.153" y1="272.799" x2="256.945" y2="269.007"/>
<line x1="253.605" y1="253.819" x2="257.397" y2="253.819"/><line x1="255.501" y1="251.923" x2="255.501" y2="255.715"/><line x1="253.605" y1="251.923" x2="257.397" y2="255.715"/><line x1="253.605" y1="255.715" x2="257.397" y2="251.923"/>
<line x1="254.058" y1="244.168" x2="257.85" y2="244.168"/><line x1="255.954" y1="242.272" x2="255.954" y2="246.064"/><line x1="254.058" y1="242.272" x2="257.85" y2="246.064"/><line x1="254.058" y1="246.064" x2="257.85" y2="242.272"/>
<line x1="254.511" y1="241.874" x2="258.303" y2="241.874"/><line x1="256.407" y1="239.978" x2="256.407" y2="243.77"/><line x1="254.511" y1="239.978" x2="258.303" y2="243.77"/><line x1="254.511" y1="243.77" x2="258.303" y2="239.978"/>
<line x1="254.963" y1="234.414" x2="258.756" y2="234.414"/><line x1="256.859" y1="232.518" x2="256.859" y2="236.31"/><line x1="254.963" y1="232.518" x2="258.756" y2="236.31"/><line x1="254.963" y1="236.31" x2="258.756" y2="232.518"/>
<line x1="255.416" y1="243.632" x2="259.208" y2="243.632"/><line x1="257.312" y1="241.736" x2="257.312" y2="245.528"/><line x1="255.416" y1="241.736" x2="259.208" y2="245.528"/><line x1="255.416" y1="245.528" x2="259.208" y2="241.736"/>
<line x1="255.869" y1="256.984" x2="259.661" y2="256.984"/><line x1="257.765" y1="255.088" x2="257.765" y2="258.88"/><line x1="255.869" y1="255.088" x2="259.661" y2="258.88"/><line x1="255.869" y1="258.88" x2="259.661" y2="255.088"/>
<line x1="256.321" y1="234.76" x2="260.114" y2="234.76"/><line x1="258.217" y1="232.864" x2="258.217" y2="236.656"/><line x1="256.321" y1="232.864" x2="260.114" y2="236.656"/><line x1="256.321" y1="236.656" x2="260.114" y2="232.864"/>
<line x1="256.774" y1="232.07" x2="260.566" y2="232.07"/><line x1="258.67" y1="230.174" x2="258.67" y2="233.966"/><line x1="256.774" y1="230.174" x2="260.566" y2="233.966"/><line x1="256.774" y1="233.966" x2="260.566" y2="230.174"/>
<line x1="257.227" y1="242.378" x2="261.019" y2="242.378"/><line x1="259.123" y1="240.482" x2="259.123" y2="244.274"/><line x1="257.227" y1="240.482" x2="261.019" y2="244.274"/><line x1="257.227" y1="244.274" x2="261.019" y2="240.482"/>
<line x1="257.679" y1="266.474" x2="261.472" y2="266.474"/><line x1="259.576" y1="264.578" x2="259.576" y2="268.37"/><line x1="257.679" y1="264.578" x2="261.472" y2="268.37"/><line x1="257.679" y1="268.37" x2="261.472" y2="264.578"/>
<line x1="258.132" y1="261.949" x2="261.924" y2="261.949"/><line x1="260.028" y1="260.053" x2="260.028" y2="263.845"/><line x1="258.132" y1="260.053" x2="261.924" y2="263.845"/><line x1="258.132" y1="263.845" x2="261.924" y2="260.053"/>
<line x1="258.585" y1="271.025" x2="262.377" y2="271.025"/><line x1="260.481" y1="269.129" x2="260.481" y2="272.921"/><line x1="258.585" y1="269.129" x2="262.377" y2="272.921"/><line x1="258.585" y1="272.921" x2="262.377" y2="269.129"/>
<line x1="259.038" y1="284.272" x2="262.83" y2="284.272"/><line x1="260.934" y1="282.375" x2="260.934" y2="286.168"/><line x1="259.038" y1="282.375" x2="262.83" y2="286.168"/><line x1="259.038" y1="286.168" x2="262.83" y2="282.375"/>
<line x1="259.49" y1="277.722" x2="263.282" y2="277.722"/><line x1="261.386" y1="275.826" x2="261.386" y2="279.618"/><line x1="259.49" y1="275.826" x2="263.282" y2="279.618"/><line x1="259.49" y1="279.618" x2="263.282" y2="275.826"/>
<line x1="259.943" y1="276.625" x2="263.735" y2="276.625"/><line x1="261.839" y1="274.729" x2="261.839" y2="278.521"/><line x1="259.943" y1="274.729" x2="263.735" y2="278.521"/><line x1="259.943" y1="278.521" x2="263.735" y2="274.729"/>
<line x1="260.396" y1="275.72" x2="264.188" y2="275.72"/><line x1="262.292" y1="273.824" x2="262.292" y2="277.617"/><line x1="260.396" y1="273.824" x2="264.188" y2="277.617"/><line x1="260.396" y1="277.617" x2="264.188" y2="273.824"/>
<line x1="260.848" y1="278.179" x2="264.64" y2="278.179"/><line x1="262.744" y1="276.283" x2="262.744" y2="280.075"/><line x1="260.848" y1="276.283" x2="264.64" y2="280.075"/><line x1="260.848" y1="280.075" x2="264.64" y2="276.283"/>
<line x1="261.301" y1="276.084" x2="265.093" y2="276.084"/><line x1="263.197" y1="274.188" x2="263.197" y2="277.98"/><line x1="261.301" y1="274.188" x2="265.093" y2="277.98"/><line x1="261.301" y1="277.98" x2="265.093" y2="274.188"/>
<line x1="261.754" y1="267.048" x2="265.546" y2="267.048"/><line x1="263.65" y1="265.152" x2="263.65" y2="268.944"/><line x1="261.754" y1="265.152" x2="265.546" y2="268.944"/><line x1="261.754" y1="268.944" x2="265.546" y2="265.152"/>
<line x1="262.206" y1="245.473" x2="265.998" y2="245.473"/><line x1="264.102" y1="243.577" x2="264.102" y2="247.369"/><line x1="262.206" y1="243.577" x2="265.998" y2="247.369"/><line x1="262.206" y1="247.369" x2="265.998" y2="243.577"/>
<line x1="262.659" y1="259.491" x2="266.451" y2="259.491"/><line x1="264.555" y1="257.595" x2="264.555" y2="261.387"/><line x1="262.659" y1="257.595" x2="266.451" y2="261.387"/><line x1="262.659" y1="261.387" x2="266.451" y2="257.595"/>
<line x1="263.112" y1="273.683" x2="266.904" y2="273.683"/><line x1="265.008" y1="271.787" x2="265.008" y2="275.579"/><line x1="263.112" y1="271.787" x2="266.904" y2="275.579"/><line x1="263.112" y1="275.579" x2="266.904" y2="271.787"/>
<line x1="263.564" y1="269.559" x2="267.357" y2="269.559"/><line x1="265.46" y1="267.662" x2="265.46" y2="271.455"/><line x1="263.564" y1="267.662" x2="267.357" y2="271.455"/><line x1="263.564" y1="271.455" x2="267.357" y2="267.662"/>
<line x1="264.017" y1="261.535" x2="267.809" y2="261.535"/><line x1="265.913" y1="259.639" x2="265.913" y2="263.431"/><line x1="264.017" y1="259.639" x2="267.809" y2="263.431"/><line x1="264.017" y1="263.431" x2="267.809" y2="259.639"/>
<line x1="264.47" y1="232.561" x2="268.262" y2="232.561"/><line x1="266.366" y1="230.665" x2="266.366" y2="234.457"/><line x1="264.47" y1="230.665" x2="268.262" y2="234.457"/><line x1="264.47" y1="234.457" x2="268.262" y2="230.665"/>
<line x1="264.922" y1="244.009" x2="268.715" y2="244.009"/><line x1="266.818" y1="242.113" x2="266.818" y2="245.905"/><line x1="264.922" y1="242.113" x2="268.715" y2="245.905"/><line x1="264.922" y1="245.905" x2="268.715" y2="242.113"/>
<line x1="265.375" y1="242.386" x2="269.167" y2="242.386"/><line x1="267.271" y1="240.49" x2="267.271" y2="244.282"/><line x1="265.375" y1="240.49" x2="269.167" y2="244.282"/><line x1="265.375" y1="244.282" x2="269.167" y2="240.49"/>
<line x1="265.828" y1="252.257" x2="269.62" y2="252.257"/><line x1="267.724" y1="250.361" x2="267.724" y2="254.153"/><line x1="265.828" y1="250.361" x2="269.62" y2="254.153"/><line x1="265.828" y1="254.153" x2="269.62" y2="250.361"/>
<line x1="266.28" y1="258.448" x2="270.073" y2="258.448"/><line x1="268.177" y1="256.551" x2="268.177" y2="260.344"/><line x1="266.28" y1="256.551" x2="270.073" y2="260.344"/><line x1="266.28" y1="260.344" x2="270.073" y2="256.551"/>
<line x1="266.733" y1="250.242" x2="270.525" y2="250.242"/><line x1="268.629" y1="248.346" x2="268.629" y2="252.138"/><line x1="266.733" y1="248.346" x2="270.525" y2="252.138"/><line x1="266.733" y1="252.138" x2="270.525" y2="248.346"/>
<line x1="267.186" y1="247.643" x2="270.978" y2="247.643"/><line x1="269.082" y1="245.747" x2="269.082" y2="249.539"/><line x1="267.186" y1="245.747" x2="270.978" y2="249.539"/><line x1="267.186" y1="249.539" x2="270.978" y2="245.747"/>
<line x1="267.638" y1="234.677" x2="271.431" y2="234.677"/><line x1="269.535" y1="232.781" x2="269.535" y2="236.573"/><line x1="267.638" y1="232.781" x2="271.431" y2="236.573"/><line x1="267.638" y1="236.573" x2="271.431" y2="232.781"/>
<line x1="268.091" y1="233.318" x2="271.883" y2="233.318"/><line x1="269.987" y1="231.422" x2="269.987" y2="235.214"/><line x1="268.091" y1="231.422" x2="271.883" y2="235.214"/><line x1="268.091" y1="235.214" x2="271.883" y2="231.422"/>
<line x1="268.544" y1="241.802" x2="272.336" y2="241.802"/><line x1="270.44" y1="239.906" x2="270.44" y2="243.698"/><line x1="268.544" y1="239.906" x2="272.336" y2="243.698"/><line x1="268.544" y1="243.698" x2="272.336" y2="239.906"/>
<line x1="268.997" y1="239.9" x2="272.789" y2="239.9"/><line x1="270.893" y1="238.004" x2="270.893" y2="241.796"/><line x1="268.997" y1="238.004" x2="272.789" y2="241.796"/><line x1="268.997" y1="241.796" x2="272.789" y2="238.004"/>
<line x1="269.449" y1="250.571" x2="273.241" y2="250.571"/><line x1="271.345" y1="248.675" x2="271.345" y2="252.467"/><line x1="269.449" y1="248.675" x2="273.241" y2="252.467"/><line x1="269.449" y1="252.467" x2="273.241" y2="248.675"/>
<line x1="269.902" y1="262.54" x2="273.694" y2="262.54"/><line x1="271.798" y1="260.644" x2="271.798" y2="264.437"/><line x1="269.902" y1="260.644" x2="273.694" y2="264.437"/><line x1="269.902" y1="264.437" x2="273.694" y2="260.644"/>
<line x1="270.355" y1="268.82" x2="274.147" y2="268.82"/><line x1="272.251" y1="266.924" x2="272.251" y2="270.716"/><line x1="270.355" y1="266.924" x2="274.147" y2="270.716"/><line x1="270.355" y1="270.716" x2="274.147" y2="266.924"/>
<line x1="270.807" y1="278.608" x2="274.599" y2="278.608"/><line x1="272.703" y1="276.712" x2="272.703" y2="280.504"/><line x1="270.807" y1="276.712" x2="274.599" y2="280.504"/><line x1="270.807" y1="280.504" x2="274.599" y2="276.712"/>
<line x1="271.26" y1="272.552" x2="275.052" y2="272.552"/><line x1="273.156" y1="270.656" x2="273.156" y2="274.448"/><line x1="271.26" y1="270.656" x2="275.052" y2="274.448"/><line x1="271.26" y1="274.448" x2="275.052" y2="270.656"/>
<line x1="271.713" y1="279.271" x2="275.505" y2="279.271"/><line x1="273.609" y1="277.375" x2="273.609" y2="281.167"/><line x1="271.713" y1="277.375" x2="275.505" y2="281.167"/><line x1="271.713" y1="281.167" x2="275.505" y2="277.375"/>
<line x1="272.165" y1="257.634" x2="275.957" y2="257.634"/><line x1="274.061" y1="255.738" x2="274.061" y2="259.53"/><line x1="272.165" y1="255.738" x2="275.957" y2="259.53"/><line x1="272.165" y1="259.53" x2="275.957" y2="255.738"/>
<line x1="272.618" y1="265.912" x2="276.41" y2="265.912"/><line x1="274.514" y1="264.016" x2="274.514" y2="267.808"/><line x1="272.618" y1="264.016" x2="276.41" y2="267.808"/><line x1="272.618" y1="267.808" x2="276.41" y2="264.016"/>
<line x1="273.071" y1="246.523" x2="276.863" y2="246.523"/><line x1="274.967" y1="244.627" x2="274.967" y2="248.419"/><line x1="273.071" y1="244.627" x2="276.863" y2="248.419"/><line x1="273.071" y1="248.419" x2="276.863" y2="244.627"/>
<line x1="273.523" y1="252.166" x2="277.316" y2="252.166"/><line x1="275.419" y1="250.27" x2="275.419" y2="254.062"/><line x1="273.523" y1="250.27" x2="277.316" y2="254.062"/><line x1="273.523" y1="254.062" x2="277.316" y2="250.27"/>
<line x1="273.976" y1="253.785" x2="277.768" y2="253.785"/><line x1="275.872" y1="251.889" x2="275.872" y2="255.681"/><line x1="273.976" y1="251.889" x2="277.768" y2="255.681"/><line x1="273.976" y1="255.681" x2="277.768" y2="251.889"/>
<line x1="274.429" y1="252.155" x2="278.221" y2="252.155"/><line x1="276.325" y1="250.259" x2="276.325" y2="254.051"/><line x1="274.429" y1="250.259" x2="278.221" y2="254.051"/><line x1="274.429" y1="254.051" x2="278.221" y2="250.259"/>
<line x1="274.881" y1="234.424" x2="278.674" y2="234.424"/><line x1="276.777" y1="232.528" x2="276.777" y2="236.32"/><line x1="274.881" y1="232.528" x2="278.674" y2="236.32"/><line x1="274.881" y1="236.32" x2="278.674" y2="232.528"/>
<line x1="275.334" y1="230.27" x2="279.126" y2="230.27"/><line x1="277.23" y1="228.374" x2="277.23" y2="232.166"/><line x1="275.334" y1="228.374" x2="279.126" y2="232.166"/><line x1="275.334" y1="232.166" x2="279.126" y2="228.374"/>
<line x1="275.787" y1="239.277" x2="279.579" y2="239.277"/><line x1="277.683" y1="237.381" x2="277.683" y2="241.173"/><line x1="275.787" y1="237.381" x2="279.579" y2="241.173"/><line x1="275.787" y1="241.173" x2="279.579" y2="237.381"/>
<line x1="276.239" y1="252.858" x2="280.032" y2="252.858"/><line x1="278.136" y1="250.962" x2="278.136" y2="254.754"/><line x1="276.239" y1="250.962" x2="280.032" y2="254.754"/><line x1="276.239" y1="254.754" x2="280.032" y2="250.962"/>
<line x1="276.692" y1="268.836" x2="280.484" y2="268.836"/><line x1="278.588" y1="266.94" x2="278.588" y2="270.732"/><line x1="276.692" y1="266.94" x2="280.484" y2="270.732"/><line x1="276.692" y1="270.732" x2="280.484" y2="266.94"/>
<line x1="277.145" y1="284.914" x2="280.937" y2="284.914"/><line x1="279.041" y1="283.018" x2="279.041" y2="286.81"/><line x1="277.145" y1="283.018" x2="280.937" y2="286.81"/><line x1="277.145" y1="286.81" x2="280.937" y2="283.018"/>
<line x1="277.598" y1="306.563" x2="281.39" y2="306.563"/><line x1="279.494" y1="304.667" x2="279.494" y2="308.459"/><line x1="277.598" y1="304.667" x2="281.39" y2="308.459"/><line x1="277.598" y1="308.459" x2="281.39" y2="304.667"/>
<line x1="278.05" y1="298.059" x2="281.842" y2="298.059"/><line x1="279.946" y1="296.163" x2="279.946" y2="299.955"/><line x1="278.05" y1="296.163" x2="281.842" y2="299.955"/><line x1="278.05" y1="299.955" x2="281.842" y2="296.163"/>
<line x1="278.503" y1="310.859" x2="282.295" y2="310.859"/><line x1="280.399" y1="308.963" x2="280.399" y2="312.755"/><line x1="278.503" y1="308.963" x2="282.295" y2="312.755"/><line x1="278.503" y1="312.755" x2="282.295" y2="308.963"/>
<line x1="278.956" y1="316.741" x2="282.748" y2="316.741"/><line x1="280.852" y1="314.845" x2="280.852" y2="318.637"/><line x1="278.956" y1="314.845" x2="282.748" y2="318.637"/><line x1="278.956" y1="318.637" x2="282.748" y2="314.845"/>
<line x1="279.408" y1="320.494" x2="283.2" y2="320.494"/><line x1="281.304" y1="318.598" x2="281.304" y2="322.39"/><line x1="279.408" y1="318.598" x2="283.2" y2="322.39"/><line x1="279.408" y1="322.39" x2="283.2" y2="318.598"/>
<line x1="279.861" y1="309.604" x2="283.653" y2="309.604"/><line x1="281.757" y1="307.708" x2="281.757" y2="311.5"/><line x1="279.861" y1="307.708" x2="283.653" y2="311.5"/><line x1="279.861" y1="311.5" x2="283.653" y2="307.708"/>
<line x1="280.314" y1="330.674" x2="284.106" y2="330.674"/><line x1="282.21" y1="328.778" x2="282.21" y2="332.57"/><line x1="280.314" y1="328.778" x2="284.106" y2="332.57"/><line x1="280.314" y1="332.57" x2="284.106" y2="328.778"/>
<line x1="280.766" y1="334.33" x2="284.558" y2="334.33"/><line x1="282.662" y1="332.434" x2="282.662" y2="336.226"/><line x1="280.766" y1="332.434" x2="284.558" y2="336.226"/><line x1="280.766" y1="336.226" x2="284.558" y2="332.434"/>
<line x1="281.219" y1="344.583" x2="285.011" y2="344.583"/><line x1="283.115" y1="342.687" x2="283.115" y2="346.479"/><line x1="281.219" y1="342.687" x2="285.011" y2="346.479"/><line x1="281.219" y1="346.479" x2="285.011" y2="342.687"/>
<line x1="281.672" y1="348.149" x2="285.464" y2="348.149"/><line x1="283.568" y1="346.253" x2="283.568" y2="350.045"/><line x1="281.672" y1="346.253" x2="285.464" y2="350.045"/><line x1="281.672" y1="350.045" x2="285.464" y2="346.253"/>
<line x1="282.124" y1="356.265" x2="285.917" y2="356.265"/><line x1="284.02" y1="354.369" x2="284.02" y2="358.161"/><line x1="282.124" y1="354.369" x2="285.917" y2="358.161"/><line x1="282.124" y1="358.161" x2="285.917" y2="354.369"/>
<line x1="282.577" y1="343.636" x2="286.369" y2="343.636"/><line x1="284.473" y1="341.74" x2="284.473" y2="345.532"/><line x1="282.577" y1="341.74" x2="286.369" y2="345.532"/><line x1="282.577" y1="345.532" x2="286.369" y2="341.74"/>
<line x1="283.03" y1="325.232" x2="286.822" y2="325.232"/><line x1="284.926" y1="323.335" x2="284.926" y2="327.128"/><line x1="283.03" y1="323.335" x2="286.822" y2="327.128"/><line x1="283.03" y1="327.128" x2="286.822" y2="323.335"/>
<line x1="283.482" y1="326.685" x2="287.275" y2="326.685"/><line x1="285.378" y1="324.789" x2="285.378" y2="328.581"/><line x1="283.482" y1="324.789" x2="287.275" y2="328.581"/><line x1="283.482" y1="328.581" x2="287.275" y2="324.789"/>
<line x1="283.935" y1="327.896" x2="287.727" y2="327.896"/><line x1="285.831" y1="326" x2="285.831" y2="329.792"/><line x1="283.935" y1="326" x2="287.727" y2="329.792"/><line x1="283.935" y1="329.792" x2="287.727" y2="326"/>
<line x1="284.388" y1="328.077" x2="288.18" y2="328.077"/><line x1="286.284" y1="326.181" x2="286.284" y2="329.973"/><line x1="284.388" y1="326.181" x2="288.18" y2="329.973"/><line x1="284.388" y1="329.973" x2="288.18" y2="326.181"/>
<line x1="284.84" y1="325.863" x2="288.633" y2="325.863"/><line x1="286.737" y1="323.967" x2="286.737" y2="327.759"/><line x1="284.84" y1="323.967" x2="288.633" y2="327.759"/><line x1="284.84" y1="327.759" x2="288.633" y2="323.967"/>
<line x1="285.293" y1="299.369" x2="289.085" y2="299.369"/><line x1="287.189" y1="297.473" x2="287.189" y2="301.265"/><line x1="285.293" y1="297.473" x2="289.085" y2="301.265"/><line x1="285.293" y1="301.265" x2="289.085" y2="297.473"/>
<line x1="285.746" y1="281.215" x2="289.538" y2="281.215"/><line x1="287.642" y1="279.319" x2="287.642" y2="283.111"/><line x1="285.746" y1="279.319" x2="289.538" y2="283.111"/><line x1="285.746" y1="283.111" x2="289.538" y2="279.319"/>
<line x1="286.199" y1="283.288" x2="289.991" y2="283.288"/><line x1="288.095" y1="281.392" x2="288.095" y2="285.184"/><line x1="286.199" y1="281.392" x2="289.991" y2="285.184"/><line x1="286.199" y1="285.184" x2="289.991" y2="281.392"/>
<line x1="286.651" y1="299.273" x2="290.443" y2="299.273"/><line x1="288.547" y1="297.377" x2="288.547" y2="301.169"/><line x1="286.651" y1="297.377" x2="290.443" y2="301.169"/><line x1="286.651" y1="301.169" x2="290.443" y2="297.377"/>
<line x1="287.104" y1="310.495" x2="290.896" y2="310.495"/><line x1="289" y1="308.599" x2="289" y2="312.391"/><line x1="287.104" y1="308.599" x2="290.896" y2="312.391"/><line x1="287.104" y1="312.391" x2="290.896" y2="308.599"/>
<line x1="287.557" y1="296.612" x2="291.349" y2="296.612"/><line x1="289.453" y1="294.715" x2="289.453" y2="298.508"/><line x1="287.557" y1="294.715" x2="291.349" y2="298.508"/><line x1="287.557" y1="298.508" x2="291.349" y2="294.715"/>
<line x1="288.009" y1="316.382" x2="291.801" y2="316.382"/><line x1="289.905" y1="314.485" x2="289.905" y2="318.278"/><line x1="288.009" y1="314.485" x2="291.801" y2="318.278"/><line x1="288.009" y1="318.278" x2="291.801" y2="314.485"/>
<line x1="288.462" y1="310.894" x2="292.254" y2="310.894"/><line x1="290.358" y1="308.998" x2="290.358" y2="312.79"/><line x1="288.462" y1="308.998" x2="292.254" y2="312.79"/><line x1="288.462" y1="312.79" x2="292.254" y2="308.998"/>
<line x1="288.915" y1="309.306" x2="292.707" y2="309.306"/><line x1="290.811" y1="307.41" x2="290.811" y2="311.202"/><line x1="288.915" y1="307.41" x2="292.707" y2="311.202"/><line x1="288.915" y1="311.202" x2="292.707" y2="307.41"/>
<line x1="289.367" y1="321.112" x2="293.159" y2="321.112"/><line x1="291.263" y1="319.216" x2="291.263" y2="323.008"/><line x1="289.367" y1="319.216" x2="293.159" y2="323.008"/><line x1="289.367" y1="323.008" x2="293.159" y2="319.216"/>
<line x1="289.82" y1="320.844" x2="293.612" y2="320.844"/><line x1="291.716" y1="318.948" x2="291.716" y2="322.74"/><line x1="289.82" y1="318.948" x2="293.612" y2="322.74"/><line x1="289.82" y1="322.74" x2="293.612" y2="318.948"/>
<line x1="290.273" y1="310.089" x2="294.065" y2="310.089"/><line x1="292.169" y1="308.193" x2="292.169" y2="311.985"/><line x1="290.273" y1="308.193" x2="294.065" y2="311.985"/><line x1="290.273" y1="311.985" x2="294.065" y2="308.193"/>
<line x1="290.725" y1="305.576" x2="294.518" y2="305.576"/><line x1="292.621" y1="303.68" x2="292.621" y2="307.472"/><line x1="290.725" y1="303.68" x2="294.518" y2="307.472"/><line x1="290.725" y1="307.472" x2="294.518" y2="303.68"/>
<line x1="291.178" y1="305.152" x2="294.97" y2="305.152"/><line x1="293.074" y1="303.256" x2="293.074" y2="307.048"/><line x1="291.178" y1="303.256" x2="294.97" y2="307.048"/><line x1="291.178" y1="307.048" x2="294.97" y2="303.256"/>
<line x1="291.631" y1="298.063" x2="295.423" y2="298.063"/><line x1="293.527" y1="296.167" x2="293.527" y2="299.959"/><line x1="291.631" y1="296.167" x2="295.423" y2="299.959"/><line x1="291.631" y1="299.959" x2="295.423" y2="296.167"/>
<line x1="292.083" y1="291.831" x2="295.876" y2="291.831"/><line x1="293.979" y1="289.934" x2="293.979" y2="293.727"/><line x1="292.083" y1="289.934" x2="295.876" y2="293.727"/><line x1="292.083" y1="293.727" x2="295.876" y2="289.934"/>
<line x1="292.536" y1="298.743" x2="296.328" y2="298.743"/><line x1="294.432" y1="296.847" x2="294.432" y2="300.639"/><line x1="292.536" y1="296.847" x2="296.328" y2="300.639"/><line x1="292.536" y1="300.639" x2="296.328" y2="296.847"/>
<line x1="292.989" y1="289.685" x2="296.781" y2="289.685"/><line x1="294.885" y1="287.789" x2="294.885" y2="291.581"/><line x1="292.989" y1="287.789" x2="296.781" y2="291.581"/><line x1="292.989" y1="291.581" x2="296.781" y2="287.789"/>
<line x1="293.441" y1="283.741" x2="297.234" y2="283.741"/><line x1="295.338" y1="281.845" x2="295.338" y2="285.637"/><line x1="293.441" y1="281.845" x2="297.234" y2="285.637"/><line x1="293.441" y1="285.637" x2="297.234" y2="281.845"/>
<line x1="293.894" y1="303.826" x2="297.686" y2="303.826"/><line x1="295.79" y1="301.93" x2="295.79" y2="305.722"/><line x1="293.894" y1="301.93" x2="297.686" y2="305.722"/><line x1="293.894" y1="305.722" x2="297.686" y2="301.93"/>
<line x1="294.347" y1="291.844" x2="298.139" y2="291.844"/><line x1="296.243" y1="289.948" x2="296.243" y2="293.74"/><line x1="294.347" y1="289.948" x2="298.139" y2="293.74"/><line x1="294.347" y1="293.74" x2="298.139" y2="289.948"/>
<line x1="294.799" y1="273.214" x2="298.592" y2="273.214"/><line x1="296.696" y1="271.318" x2="296.696" y2="275.11"/><line x1="294.799" y1="271.318" x2="298.592" y2="275.11"/><line x1="294.799" y1="275.11" x2="298.592" y2="271.318"/>
<line x1="295.252" y1="255.02" x2="299.044" y2="255.02"/><line x1="297.148" y1="253.124" x2="297.148" y2="256.916"/><line x1="295.252" y1="253.124" x2="299.044" y2="256.916"/><line x1="295.252" y1="256.916" x2="299.044" y2="253.124"/>
<line x1="295.705" y1="270.076" x2="299.497" y2="270.076"/><line x1="297.601" y1="268.18" x2="297.601" y2="271.972"/><line x1="295.705" y1="268.18" x2="299.497" y2="271.972"/><line x1="295.705" y1="271.972" x2="299.497" y2="268.18"/>
<line x1="296.158" y1="263.832" x2="299.95" y2="263.832"/><line x1="298.054" y1="261.936" x2="298.054" y2="265.728"/><line x1="296.158" y1="261.936" x2="299.95" y2="265.728"/><line x1="296.158" y1="265.728" x2="299.95" y2="261.936"/>
<line x1="296.61" y1="266.864" x2="300.402" y2="266.864"/><line x1="298.506" y1="264.968" x2="298.506" y2="268.76"/><line x1="296.61" y1="264.968" x2="300.402" y2="268.76"/><line x1="296.61" y1="268.76" x2="300.402" y2="264.968"/>
<line x1="297.063" y1="267.915" x2="300.855" y2="267.915"/><line x1="298.959" y1="266.019" x2="298.959" y2="269.811"/><line x1="297.063" y1="266.019" x2="300.855" y2="269.811"/><line x1="297.063" y1="269.811" x2="300.855" y2="266.019"/>
<line x1="297.516" y1="254.702" x2="301.308" y2="254.702"/><line x1="299.412" y1="252.806" x2="299.412" y2="256.598"/><line x1="297.516" y1="252.806" x2="301.308" y2="256.598"/><line x1="297.516" y1="256.598" x2="301.308" y2="252.806"/>
<line x1="297.968" y1="237.76" x2="301.76" y2="237.76"/><line x1="299.864" y1="235.864" x2="299.864" y2="239.656"/><line x1="297.968" y1="235.864" x2="301.76" y2="239.656"/><line x1="297.968" y1="239.656" x2="301.76" y2="235.864"/>
<line x1="298.421" y1="227.495" x2="302.213" y2="227.495"/><line x1="300.317" y1="225.599" x2="300.317" y2="229.391"/><line x1="298.421" y1="225.599" x2="302.213" y2="229.391"/><line x1="298.421" y1="229.391" x2="302.213" y2="225.599"/>
<line x1="298.874" y1="226.621" x2="302.666" y2="226.621"/><line x1="300.77" y1="224.725" x2="300.77" y2="228.517"/><line x1="298.874" y1="224.725" x2="302.666" y2="228.517"/><line x1="298.874" y1="228.517" x2="302.666" y2="224.725"/>
<line x1="299.326" y1="226.996" x2="303.118" y2="226.996"/><line x1="301.222" y1="225.1" x2="301.222" y2="228.892"/><line x1="299.326" y1="225.1" x2="303.118" y2="228.892"/><line x1="299.326" y1="228.892" x2="303.118" y2="225.1"/>
<line x1="299.779" y1="228.545" x2="303.571" y2="228.545"/><line x1="301.675" y1="226.648" x2="301.675" y2="230.441"/><line x1="299.779" y1="226.648" x2="303.571" y2="230.441"/><line x1="299.779" y1="230.441" x2="303.571" y2="226.648"/>
<line x1="300.232" y1="228.07" x2="304.024" y2="228.07"/><line x1="302.128" y1="226.174" x2="302.128" y2="229.966"/><line x1="300.232" y1="226.174" x2="304.024" y2="229.966"/><line x1="300.232" y1="229.966" x2="304.024" y2="226.174"/>
<line x1="300.684" y1="217.018" x2="304.477" y2="217.018"/><line x1="302.58" y1="215.122" x2="302.58" y2="218.915"/><line x1="300.684" y1="215.122" x2="304.477" y2="218.915"/><line x1="300.684" y1="218.915" x2="304.477" y2="215.122"/>
<line x1="301.137" y1="227.136" x2="304.929" y2="227.136"/><line x1="303.033" y1="225.24" x2="303.033" y2="229.032"/><line x1="301.137" y1="225.24" x2="304.929" y2="229.032"/><line x1="301.137" y1="229.032" x2="304.929" y2="225.24"/>
<line x1="301.59" y1="197.78" x2="305.382" y2="197.78"/><line x1="303.486" y1="195.884" x2="303.486" y2="199.676"/><line x1="301.59" y1="195.884" x2="305.382" y2="199.676"/><line x1="301.59" y1="199.676" x2="305.382" y2="195.884"/>
<line x1="302.042" y1="227.949" x2="305.835" y2="227.949"/><line x1="303.939" y1="226.053" x2="303.939" y2="229.845"/><line x1="302.042" y1="226.053" x2="305.835" y2="229.845"/><line x1="302.042" y1="229.845" x2="305.835" y2="226.053"/>
<line x1="302.495" y1="197.959" x2="306.287" y2="197.959"/><line x1="304.391" y1="196.063" x2="304.391" y2="199.855"/><line x1="302.495" y1="196.063" x2="306.287" y2="199.855"/><line x1="302.495" y1="199.855" x2="306.287" y2="196.063"/>
<line x1="302.948" y1="201.039" x2="306.74" y2="201.039"/><line x1="304.844" y1="199.143" x2="304.844" y2="202.935"/><line x1="302.948" y1="199.143" x2="306.74" y2="202.935"/><line x1="302.948" y1="202.935" x2="306.74" y2="199.143"/>
<line x1="303.4" y1="208.123" x2="307.193" y2="208.123"/><line x1="305.297" y1="206.227" x2="305.297" y2="210.019"/><line x1="303.4" y1="206.227" x2="307.193" y2="210.019"/><line x1="303.4" y1="210.019" x2="307.193" y2="206.227"/>
<line x1="303.853" y1="196.439" x2="307.645" y2="196.439"/><line x1="305.749" y1="194.543" x2="305.749" y2="198.335"/><line x1="303.853" y1="194.543" x2="307.645" y2="198.335"/><line x1="303.853" y1="198.335" x2="307.645" y2="194.543"/>
<line x1="304.306" y1="203.484" x2="308.098" y2="203.484"/><line x1="306.202" y1="201.588" x2="306.202" y2="205.38"/><line x1="304.306" y1="201.588" x2="308.098" y2="205.38"/><line x1="304.306" y1="205.38" x2="308.098" y2="201.588"/>
<line x1="304.759" y1="220.301" x2="308.551" y2="220.301"/><line x1="306.655" y1="218.405" x2="306.655" y2="222.198"/><line x1="304.759" y1="218.405" x2="308.551" y2="222.198"/><line x1="304.759" y1="222.198" x2="308.551" y2="218.405"/>
<line x1="305.211" y1="225.647" x2="309.003" y2="225.647"/><line x1="307.107" y1="223.751" x2="307.107" y2="227.543"/><line x1="305.211" y1="223.751" x2="309.003" y2="227.543"/><line x1="305.211" y1="227.543" x2="309.003" y2="223.751"/>
<line x1="305.664" y1="220.865" x2="309.456" y2="220.865"/><line x1="307.56" y1="218.969" x2="307.56" y2="222.761"/><line x1="305.664" y1="218.969" x2="309.456" y2="222.761"/><line x1="305.664" y1="222.761" x2="309.456" y2="218.969"/>
<line x1="306.117" y1="178.828" x2="309.909" y2="178.828"/><line x1="308.013" y1="176.932" x2="308.013" y2="180.724"/><line x1="306.117" y1="176.932" x2="309.909" y2="180.724"/><line x1="306.117" y1="180.724" x2="309.909" y2="176.932"/>
<line x1="306.569" y1="200.942" x2="310.361" y2="200.942"/><line x1="308.465" y1="199.046" x2="308.465" y2="202.838"/><line x1="306.569" y1="199.046" x2="310.361" y2="202.838"/><line x1="306.569" y1="202.838" x2="310.361" y2="199.046"/>
<line x1="307.022" y1="160.199" x2="310.814" y2="160.199"/><line x1="308.918" y1="158.303" x2="308.918" y2="162.095"/><line x1="307.022" y1="158.303" x2="310.814" y2="162.095"/><line x1="307.022" y1="162.095" x2="310.814" y2="158.303"/>
<line x1="307.475" y1="145.452" x2="311.267" y2="145.452"/><line x1="309.371" y1="143.555" x2="309.371" y2="147.348"/><line x1="307.475" y1="143.555" x2="311.267" y2="147.348"/><line x1="307.475" y1="147.348" x2="311.267" y2="143.555"/>
<line x1="307.927" y1="142.926" x2="311.719" y2="142.926"/><line x1="309.823" y1="141.03" x2="309.823" y2="144.822"/><line x1="307.927" y1="141.03" x2="311.719" y2="144.822"/><line x1="307.927" y1="144.822" x2="311.719" y2="141.03"/>
<line x1="308.38" y1="146.056" x2="312.172" y2="146.056"/><line x1="310.276" y1="144.16" x2="310.276" y2="147.953"/><line x1="308.38" y1="144.16" x2="312.172" y2="147.953"/><line x1="308.38" y1="147.953" x2="312.172" y2="144.16"/>
<line x1="308.833" y1="156.892" x2="312.625" y2="156.892"/><line x1="310.729" y1="154.996" x2="310.729" y2="158.788"/><line x1="308.833" y1="154.996" x2="312.625" y2="158.788"/><line x1="308.833" y1="158.788" x2="312.625" y2="154.996"/>
<line x1="309.285" y1="179.165" x2="313.078" y2="179.165"/><line x1="311.181" y1="177.268" x2="311.181" y2="181.061"/><line x1="309.285" y1="177.268" x2="313.078" y2="181.061"/><line x1="309.285" y1="181.061" x2="313.078" y2="177.268"/>
<line x1="309.738" y1="178.861" x2="313.53" y2="178.861"/><line x1="311.634" y1="176.965" x2="311.634" y2="180.757"/><line x1="309.738" y1="176.965" x2="313.53" y2="180.757"/><line x1="309.738" y1="180.757" x2="313.53" y2="176.965"/>
<line x1="310.191" y1="166.387" x2="313.983" y2="166.387"/><line x1="312.087" y1="164.491" x2="312.087" y2="168.283"/><line x1="310.191" y1="164.491" x2="313.983" y2="168.283"/><line x1="310.191" y1="168.283" x2="313.983" y2="164.491"/>
<line x1="310.643" y1="162.392" x2="314.436" y2="162.392"/><line x1="312.539" y1="160.496" x2="312.539" y2="164.288"/><line x1="310.643" y1="160.496" x2="314.436" y2="164.288"/><line x1="310.643" y1="164.288" x2="314.436" y2="160.496"/>
<line x1="311.096" y1="163.74" x2="314.888" y2="163.74"/><line x1="312.992" y1="161.844" x2="312.992" y2="165.636"/><line x1="311.096" y1="161.844" x2="314.888" y2="165.636"/><line x1="311.096" y1="165.636" x2="314.888" y2="161.844"/>
<line x1="311.549" y1="183.162" x2="315.341" y2="183.162"/><line x1="313.445" y1="181.266" x2="313.445" y2="185.058"/><line x1="311.549" y1="181.266" x2="315.341" y2="185.058"/><line x1="311.549" y1="185.058" x2="315.341" y2="181.266"/>
<line x1="312.001" y1="163.109" x2="315.794" y2="163.109"/><line x1="313.898" y1="161.213" x2="313.898" y2="165.005"/><line x1="312.001" y1="161.213" x2="315.794" y2="165.005"/><line x1="312.001" y1="165.005" x2="315.794" y2="161.213"/>
<line x1="312.454" y1="165.094" x2="316.246" y2="165.094"/><line x1="314.35" y1="163.198" x2="314.35" y2="166.99"/><line x1="312.454" y1="163.198" x2="316.246" y2="166.99"/><line x1="312.454" y1="166.99" x2="316.246" y2="163.198"/>
<line x1="312.907" y1="173.008" x2="316.699" y2="173.008"/><line x1="314.803" y1="171.112" x2="314.803" y2="174.904"/><line x1="312.907" y1="171.112" x2="316.699" y2="174.904"/><line x1="312.907" y1="174.904" x2="316.699" y2="171.112"/>
<line x1="313.359" y1="174.173" x2="317.152" y2="174.173"/><line x1="315.256" y1="172.277" x2="315.256" y2="176.069"/><line x1="313.359" y1="172.277" x2="317.152" y2="176.069"/><line x1="313.359" y1="176.069" x2="317.152" y2="172.277"/>
<line x1="313.812" y1="179.951" x2="317.604" y2="179.951"/><line x1="315.708" y1="178.055" x2="315.708" y2="181.847"/><line x1="313.812" y1="178.055" x2="317.604" y2="181.847"/><line x1="313.812" y1="181.847" x2="317.604" y2="178.055"/>
<line x1="314.265" y1="181.032" x2="318.057" y2="181.032"/><line x1="316.161" y1="179.136" x2="316.161" y2="182.928"/><line x1="314.265" y1="179.136" x2="318.057" y2="182.928"/><line x1="314.265" y1="182.928" x2="318.057" y2="179.136"/>
<line x1="314.718" y1="179.39" x2="318.51" y2="179.39"/><line x1="316.614" y1="177.494" x2="316.614" y2="181.286"/><line x1="314.718" y1="177.494" x2="318.51" y2="181.286"/><line x1="314.718" y1="181.286" x2="318.51" y2="177.494"/>
<line x1="315.17" y1="169.416" x2="318.962" y2="169.416"/><line x1="317.066" y1="167.52" x2="317.066" y2="171.312"/><line x1="315.17" y1="167.52" x2="318.962" y2="171.312"/><line x1="315.17" y1="171.312" x2="318.962" y2="167.52"/>
<line x1="315.623" y1="180.339" x2="319.415" y2="180.339"/><line x1="317.519" y1="178.443" x2="317.519" y2="182.235"/><line x1="315.623" y1="178.443" x2="319.415" y2="182.235"/><line x1="315.623" y1="182.235" x2="319.415" y2="178.443"/>
<line x1="316.076" y1="172.272" x2="319.868" y2="172.272"/><line x1="317.972" y1="170.375" x2="317.972" y2="174.168"/><line x1="316.076" y1="170.375" x2="319.868" y2="174.168"/><line x1="316.076" y1="174.168" x2="319.868" y2="170.375"/>
<line x1="316.528" y1="185.135" x2="320.32" y2="185.135"/><line x1="318.424" y1="183.238" x2="318.424" y2="187.031"/><line x1="316.528" y1="183.238" x2="320.32" y2="187.031"/><line x1="316.528" y1="187.031" x2="320.32" y2="183.238"/>
<line x1="316.981" y1="196.327" x2="320.773" y2="196.327"/><line x1="318.877" y1="194.431" x2="318.877" y2="198.223"/><line x1="316.981" y1="194.431" x2="320.773" y2="198.223"/><line x1="316.981" y1="198.223" x2="320.773" y2="194.431"/>
<line x1="317.434" y1="202.553" x2="321.226" y2="202.553"/><line x1="319.33" y1="200.657" x2="319.33" y2="204.449"/><line x1="317.434" y1="200.657" x2="321.226" y2="204.449"/><line x1="317.434" y1="204.449" x2="321.226" y2="200.657"/>
<line x1="317.886" y1="198.225" x2="321.678" y2="198.225"/><line x1="319.782" y1="196.329" x2="319.782" y2="200.121"/><line x1="317.886" y1="196.329" x2="321.678" y2="200.121"/><line x1="317.886" y1="200.121" x2="321.678" y2="196.329"/>
<line x1="318.339" y1="214.618" x2="322.131" y2="214.618"/><line x1="320.235" y1="212.722" x2="320.235" y2="216.514"/><line x1="318.339" y1="212.722" x2="322.131" y2="216.514"/><line x1="318.339" y1="216.514" x2="322.131" y2="212.722"/>
<line x1="318.792" y1="209.773" x2="322.584" y2="209.773"/><line x1="320.688" y1="207.877" x2="320.688" y2="211.669"/><line x1="318.792" y1="207.877" x2="322.584" y2="211.669"/><line x1="318.792" y1="211.669" x2="322.584" y2="207.877"/>
<line x1="319.244" y1="210.708" x2="323.037" y2="210.708"/><line x1="321.14" y1="208.812" x2="321.14" y2="212.604"/><line x1="319.244" y1="208.812" x2="323.037" y2="212.604"/><line x1="319.244" y1="212.604" x2="323.037" y2="208.812"/>
<line x1="319.697" y1="225.48" x2="323.489" y2="225.48"/><line x1="321.593" y1="223.584" x2="321.593" y2="227.376"/><line x1="319.697" y1="223.584" x2="323.489" y2="227.376"/><line x1="319.697" y1="227.376" x2="323.489" y2="223.584"/>
<line x1="320.15" y1="221.465" x2="323.942" y2="221.465"/><line x1="322.046" y1="219.569" x2="322.046" y2="223.362"/><line x1="320.15" y1="219.569" x2="323.942" y2="223.362"/><line x1="320.15" y1="223.362" x2="323.942" y2="219.569"/>
<line x1="320.602" y1="234.435" x2="324.395" y2="234.435"/><line x1="322.499" y1="232.539" x2="322.499" y2="236.331"/><line x1="320.602" y1="232.539" x2="324.395" y2="236.331"/><line x1="320.602" y1="236.331" x2="324.395" y2="232.539"/>
<line x1="321.055" y1="251.447" x2="324.847" y2="251.447"/><line x1="322.951" y1="249.55" x2="322.951" y2="253.343"/><line x1="321.055" y1="249.55" x2="324.847" y2="253.343"/><line x1="321.055" y1="253.343" x2="324.847" y2="249.55"/>
<line x1="321.508" y1="256.431" x2="325.3" y2="256.431"/><line x1="323.404" y1="254.535" x2="323.404" y2="258.327"/><line x1="321.508" y1="254.535" x2="325.3" y2="258.327"/><line x1="321.508" y1="258.327" x2="325.3" y2="254.535"/>
<line x1="321.96" y1="249.501" x2="325.753" y2="249.501"/><line x1="323.857" y1="247.605" x2="323.857" y2="251.397"/><line x1="321.96" y1="247.605" x2="325.753" y2="251.397"/><line x1="321.96" y1="251.397" x2="325.753" y2="247.605"/>
<line x1="322.413" y1="260.443" x2="326.205" y2="260.443"/><line x1="324.309" y1="258.547" x2="324.309" y2="262.339"/><line x1="322.413" y1="258.547" x2="326.205" y2="262.339"/><line x1="322.413" y1="262.339" x2="326.205" y2="258.547"/>
<line x1="322.866" y1="264.199" x2="326.658" y2="264.199"/><line x1="324.762" y1="262.303" x2="324.762" y2="266.095"/><line x1="322.866" y1="262.303" x2="326.658" y2="266.095"/><line x1="322.866" y1="266.095" x2="326.658" y2="262.303"/>
<line x1="323.319" y1="247.423" x2="327.111" y2="247.423"/><line x1="325.215" y1="245.527" x2="325.215" y2="249.319"/><line x1="323.319" y1="245.527" x2="327.111" y2="249.319"/><line x1="323.319" y1="249.319" x2="327.111" y2="245.527"/>
<line x1="323.771" y1="248.627" x2="327.563" y2="248.627"/><line x1="325.667" y1="246.73" x2="325.667" y2="250.523"/><line x1="323.771" y1="246.73" x2="327.563" y2="250.523"/><line x1="323.771" y1="250.523" x2="327.563" y2="246.73"/>
<line x1="324.224" y1="245.625" x2="328.016" y2="245.625"/><line x1="326.12" y1="243.729" x2="326.12" y2="247.521"/><line x1="324.224" y1="243.729" x2="328.016" y2="247.521"/><line x1="324.224" y1="247.521" x2="328.016" y2="243.729"/>
<line x1="324.677" y1="250.538" x2="328.469" y2="250.538"/><line x1="326.573" y1="248.642" x2="326.573" y2="252.434"/><line x1="324.677" y1="248.642" x2="328.469" y2="252.434"/><line x1="324.677" y1="252.434" x2="328.469" y2="248.642"/>
<line x1="325.129" y1="234.915" x2="328.921" y2="234.915"/><line x1="327.025" y1="233.018" x2="327.025" y2="236.811"/><line x1="325.129" y1="233.018" x2="328.921" y2="236.811"/><line x1="325.129" y1="236.811" x2="328.921" y2="233.018"/>
<line x1="325.582" y1="247.607" x2="329.374" y2="247.607"/><line x1="327.478" y1="245.71" x2="327.478" y2="249.503"/><line x1="325.582" y1="245.71" x2="329.374" y2="249.503"/><line x1="325.582" y1="249.503" x2="329.374" y2="245.71"/>
<line x1="326.035" y1="242.361" x2="329.827" y2="242.361"/><line x1="327.931" y1="240.465" x2="327.931" y2="244.257"/><line x1="326.035" y1="240.465" x2="329.827" y2="244.257"/><line x1="326.035" y1="244.257" x2="329.827" y2="240.465"/>
<line x1="326.487" y1="244.117" x2="330.279" y2="244.117"/><line x1="328.383" y1="242.221" x2="328.383" y2="246.013"/><line x1="326.487" y1="242.221" x2="330.279" y2="246.013"/><line x1="326.487" y1="246.013" x2="330.279" y2="242.221"/>
<line x1="326.94" y1="220.975" x2="330.732" y2="220.975"/><line x1="328.836" y1="219.078" x2="328.836" y2="222.871"/><line x1="326.94" y1="219.078" x2="330.732" y2="222.871"/><line x1="326.94" y1="222.871" x2="330.732" y2="219.078"/>
<line x1="327.393" y1="222.797" x2="331.185" y2="222.797"/><line x1="329.289" y1="220.901" x2="329.289" y2="224.693"/><line x1="327.393" y1="220.901" x2="331.185" y2="224.693"/><line x1="327.393" y1="224.693" x2="331.185" y2="220.901"/>
<line x1="327.845" y1="214.245" x2="331.638" y2="214.245"/><line x1="329.741" y1="212.349" x2="329.741" y2="216.141"/><line x1="327.845" y1="212.349" x2="331.638" y2="216.141"/><line x1="327.845" y1="216.141" x2="331.638" y2="212.349"/>
<line x1="328.298" y1="198.987" x2="332.09" y2="198.987"/><line x1="330.194" y1="197.091" x2="330.194" y2="200.883"/><line x1="328.298" y1="197.091" x2="332.09" y2="200.883"/><line x1="328.298" y1="200.883" x2="332.09" y2="197.091"/>
<line x1="328.751" y1="190.93" x2="332.543" y2="190.93"/><line x1="330.647" y1="189.034" x2="330.647" y2="192.826"/><line x1="328.751" y1="189.034" x2="332.543" y2="192.826"/><line x1="328.751" y1="192.826" x2="332.543" y2="189.034"/>
<line x1="329.203" y1="158.736" x2="332.996" y2="158.736"/><line x1="331.099" y1="156.84" x2="331.099" y2="160.632"/><line x1="329.203" y1="156.84" x2="332.996" y2="160.632"/><line x1="329.203" y1="160.632" x2="332.996" y2="156.84"/>
<line x1="329.656" y1="154.844" x2="333.448" y2="154.844"/><line x1="331.552" y1="152.948" x2="331.552" y2="156.74"/><line x1="329.656" y1="152.948" x2="333.448" y2="156.74"/><line x1="329.656" y1="156.74" x2="333.448" y2="152.948"/>
<line x1="330.109" y1="149.545" x2="333.901" y2="149.545"/><line x1="332.005" y1="147.649" x2="332.005" y2="151.441"/><line x1="330.109" y1="147.649" x2="333.901" y2="151.441"/><line x1="330.109" y1="151.441" x2="333.901" y2="147.649"/>
<line x1="330.561" y1="145.327" x2="334.354" y2="145.327"/><line x1="332.458" y1="143.431" x2="332.458" y2="147.223"/><line x1="330.561" y1="143.431" x2="334.354" y2="147.223"/><line x1="330.561" y1="147.223" x2="334.354" y2="143.431"/>
<line x1="331.014" y1="119.63" x2="334.806" y2="119.63"/><line x1="332.91" y1="117.733" x2="332.91" y2="121.526"/><line x1="331.014" y1="117.733" x2="334.806" y2="121.526"/><line x1="331.014" y1="121.526" x2="334.806" y2="117.733"/>
<line x1="331.467" y1="113.933" x2="335.259" y2="113.933"/><line x1="333.363" y1="112.037" x2="333.363" y2="115.83"/><line x1="331.467" y1="112.037" x2="335.259" y2="115.83"/><line x1="331.467" y1="115.83" x2="335.259" y2="112.037"/>
<line x1="331.92" y1="121.384" x2="335.712" y2="121.384"/><line x1="333.816" y1="119.488" x2="333.816" y2="123.28"/><line x1="331.92" y1="119.488" x2="335.712" y2="123.28"/><line x1="331.92" y1="123.28" x2="335.712" y2="119.488"/>
<line x1="332.372" y1="112.535" x2="336.164" y2="112.535"/><line x1="334.268" y1="110.639" x2="334.268" y2="114.431"/><line x1="332.372" y1="110.639" x2="336.164" y2="114.431"/><line x1="332.372" y1="114.431" x2="336.164" y2="110.639"/>
<line x1="332.825" y1="103.412" x2="336.617" y2="103.412"/><line x1="334.721" y1="101.516" x2="334.721" y2="105.308"/><line x1="332.825" y1="101.516" x2="336.617" y2="105.308"/><line x1="332.825" y1="105.308" x2="336.617" y2="101.516"/>
<line x1="333.278" y1="122.001" x2="337.07" y2="122.001"/><line x1="335.174" y1="120.105" x2="335.174" y2="123.897"/><line x1="333.278" y1="120.105" x2="337.07" y2="123.897"/><line x1="333.278" y1="123.897" x2="337.07" y2="120.105"/>
<line x1="333.73" y1="145.408" x2="337.522" y2="145.408"/><line x1="335.626" y1="143.512" x2="335.626" y2="147.304"/><line x1="333.73" y1="143.512" x2="337.522" y2="147.304"/><line x1="333.73" y1="147.304" x2="337.522" y2="143.512"/>
<line x1="334.183" y1="149.207" x2="337.975" y2="149.207"/><line x1="336.079" y1="147.311" x2="336.079" y2="151.103"/><line x1="334.183" y1="147.311" x2="337.975" y2="151.103"/><line x1="334.183" y1="151.103" x2="337.975" y2="147.311"/>
<line x1="334.636" y1="132.914" x2="338.428" y2="132.914"/><line x1="336.532" y1="131.018" x2="336.532" y2="134.81"/><line x1="334.636" y1="131.018" x2="338.428" y2="134.81"/><line x1="334.636" y1="134.81" x2="338.428" y2="131.018"/>
<line x1="335.088" y1="131.435" x2="338.88" y2="131.435"/><line x1="336.984" y1="129.538" x2="336.984" y2="133.331"/><line x1="335.088" y1="129.538" x2="338.88" y2="133.331"/><line x1="335.088" y1="133.331" x2="338.88" y2="129.538"/>
<line x1="335.541" y1="133.277" x2="339.333" y2="133.277"/><line x1="337.437" y1="131.381" x2="337.437" y2="135.173"/><line x1="335.541" y1="131.381" x2="339.333" y2="135.173"/><line x1="335.541" y1="135.173" x2="339.333" y2="131.381"/>
<line x1="335.994" y1="124.853" x2="339.786" y2="124.853"/><line x1="337.89" y1="122.957" x2="337.89" y2="126.749"/><line x1="335.994" y1="122.957" x2="339.786" y2="126.749"/><line x1="335.994" y1="126.749" x2="339.786" y2="122.957"/>
<line x1="336.446" y1="116.106" x2="340.239" y2="116.106"/><line x1="338.342" y1="114.21" x2="338.342" y2="118.002"/><line x1="336.446" y1="114.21" x2="340.239" y2="118.002"/><line x1="336.446" y1="118.002" x2="340.239" y2="114.21"/>
<line x1="336.899" y1="124.732" x2="340.691" y2="124.732"/><line x1="338.795" y1="122.836" x2="338.795" y2="126.628"/><line x1="336.899" y1="122.836" x2="340.691" y2="126.628"/><line x1="336.899" y1="126.628" x2="340.691" y2="122.836"/>
<line x1="337.352" y1="125.793" x2="341.144" y2="125.793"/><line x1="339.248" y1="123.897" x2="339.248" y2="127.69"/><line x1="337.352" y1="123.897" x2="341.144" y2="127.69"/><line x1="337.352" y1="127.69" x2="341.144" y2="123.897"/>
<line x1="337.804" y1="131.235" x2="341.597" y2="131.235"/><line x1="339.7" y1="129.339" x2="339.7" y2="133.131"/><line x1="337.804" y1="129.339" x2="341.597" y2="133.131"/><line x1="337.804" y1="133.131" x2="341.597" y2="129.339"/>
<line x1="338.257" y1="130.698" x2="342.049" y2="130.698"/><line x1="340.153" y1="128.802" x2="340.153" y2="132.594"/><line x1="338.257" y1="128.802" x2="342.049" y2="132.594"/><line x1="338.257" y1="132.594" x2="342.049" y2="128.802"/>
<line x1="338.71" y1="124.938" x2="342.502" y2="124.938"/><line x1="340.606" y1="123.042" x2="340.606" y2="126.834"/><line x1="338.71" y1="123.042" x2="342.502" y2="126.834"/><line x1="338.71" y1="126.834" x2="342.502" y2="123.042"/>
<line x1="339.162" y1="134.179" x2="342.955" y2="134.179"/><line x1="341.059" y1="132.283" x2="341.059" y2="136.075"/><line x1="339.162" y1="132.283" x2="342.955" y2="136.075"/><line x1="339.162" y1="136.075" x2="342.955" y2="132.283"/>
<line x1="339.615" y1="122.283" x2="343.407" y2="122.283"/><line x1="341.511" y1="120.387" x2="341.511" y2="124.179"/><line x1="339.615" y1="120.387" x2="343.407" y2="124.179"/><line x1="339.615" y1="124.179" x2="343.407" y2="120.387"/>
<line x1="340.068" y1="109.715" x2="343.86" y2="109.715"/><line x1="341.964" y1="107.819" x2="341.964" y2="111.612"/><line x1="340.068" y1="107.819" x2="343.86" y2="111.612"/><line x1="340.068" y1="111.612" x2="343.86" y2="107.819"/>
<line x1="340.521" y1="84.0223" x2="344.313" y2="84.0223"/><line x1="342.417" y1="82.1262" x2="342.417" y2="85.9184"/><line x1="340.521" y1="82.1262" x2="344.313" y2="85.9184"/><line x1="340.521" y1="85.9184" x2="344.313" y2="82.1262"/>
<line x1="340.973" y1="69.3218" x2="344.765" y2="69.3218"/><line x1="342.869" y1="67.4257" x2="342.869" y2="71.2179"/><line x1="340.973" y1="67.4257" x2="344.765" y2="71.2179"/><line x1="340.973" y1="71.2179" x2="344.765" y2="67.4257"/>
<line x1="341.426" y1="78.8146" x2="345.218" y2="78.8146"/><line x1="343.322" y1="76.9185" x2="343.322" y2="80.7107"/><line x1="341.426" y1="76.9185" x2="345.218" y2="80.7107"/><line x1="341.426" y1="80.7107" x2="345.218" y2="76.9185"/>
<line x1="341.879" y1="73.9719" x2="345.671" y2="73.9719"/><line x1="343.775" y1="72.0758" x2="343.775" y2="75.868"/><line x1="341.879" y1="72.0758" x2="345.671" y2="75.868"/><line x1="341.879" y1="75.868" x2="345.671" y2="72.0758"/>
<line x1="342.331" y1="65.634" x2="346.123" y2="65.634"/><line x1="344.227" y1="63.7379" x2="344.227" y2="67.5301"/><line x1="342.331" y1="63.7379" x2="346.123" y2="67.5301"/><line x1="342.331" y1="67.5301" x2="346.123" y2="63.7379"/>
<line x1="342.784" y1="72.9211" x2="346.576" y2="72.9211"/><line x1="344.68" y1="71.025" x2="344.68" y2="74.8171"/><line x1="342.784" y1="71.025" x2="346.576" y2="74.8171"/><line x1="342.784" y1="74.8171" x2="346.576" y2="71.025"/>
<line x1="343.237" y1="78.3664" x2="347.029" y2="78.3664"/><line x1="345.133" y1="76.4703" x2="345.133" y2="80.2625"/><line x1="343.237" y1="76.4703" x2="347.029" y2="80.2625"/><line x1="343.237" y1="80.2625" x2="347.029" y2="76.4703"/>
<line x1="343.689" y1="85.6851" x2="347.481" y2="85.6851"/><line x1="345.585" y1="83.789" x2="345.585" y2="87.5812"/><line x1="343.689" y1="83.789" x2="347.481" y2="87.5812"/><line x1="343.689" y1="87.5812" x2="347.481" y2="83.789"/>
<line x1="344.142" y1="89.5021" x2="347.934" y2="89.5021"/><line x1="346.038" y1="87.606" x2="346.038" y2="91.3982"/><line x1="344.142" y1="87.606" x2="347.934" y2="91.3982"/><line x1="344.142" y1="91.3982" x2="347.934" y2="87.606"/>
<line x1="344.595" y1="78.7095" x2="348.387" y2="78.7095"/><line x1="346.491" y1="76.8135" x2="346.491" y2="80.6056"/><line x1="344.595" y1="76.8135" x2="348.387" y2="80.6056"/><line x1="344.595" y1="80.6056" x2="348.387" y2="76.8135"/>
<line x1="345.047" y1="98.4141" x2="348.84" y2="98.4141"/><line x1="346.943" y1="96.518" x2="346.943" y2="100.31"/><line x1="345.047" y1="96.518" x2="348.84" y2="100.31"/><line x1="345.047" y1="100.31" x2="348.84" y2="96.518"/>
<line x1="345.5" y1="98.7742" x2="349.292" y2="98.7742"/><line x1="347.396" y1="96.8781" x2="347.396" y2="100.67"/><line x1="345.5" y1="96.8781" x2="349.292" y2="100.67"/><line x1="345.5" y1="100.67" x2="349.292" y2="96.8781"/>
<line x1="345.953" y1="99.6225" x2="349.745" y2="99.6225"/><line x1="347.849" y1="97.7264" x2="347.849" y2="101.519"/><line x1="345.953" y1="97.7264" x2="349.745" y2="101.519"/><line x1="345.953" y1="101.519" x2="349.745" y2="97.7264"/>
<line x1="346.405" y1="87.1757" x2="350.198" y2="87.1757"/><line x1="348.301" y1="85.2797" x2="348.301" y2="89.0718"/><line x1="346.405" y1="85.2797" x2="350.198" y2="89.0718"/><line x1="346.405" y1="89.0718" x2="350.198" y2="85.2797"/>
<line x1="346.858" y1="83.0558" x2="350.65" y2="83.0558"/><line x1="348.754" y1="81.1598" x2="348.754" y2="84.9519"/><line x1="346.858" y1="81.1598" x2="350.65" y2="84.9519"/><line x1="346.858" y1="84.9519" x2="350.65" y2="81.1598"/>
<line x1="347.311" y1="66.3655" x2="351.103" y2="66.3655"/><line x1="349.207" y1="64.4695" x2="349.207" y2="68.2616"/><line x1="347.311" y1="64.4695" x2="351.103" y2="68.2616"/><line x1="347.311" y1="68.2616" x2="351.103" y2="64.4695"/>
<line x1="347.763" y1="65.5281" x2="351.556" y2="65.5281"/><line x1="349.66" y1="63.632" x2="349.66" y2="67.4242"/><line x1="347.763" y1="63.632" x2="351.556" y2="67.4242"/><line x1="347.763" y1="67.4242" x2="351.556" y2="63.632"/>
<line x1="348.216" y1="61.2708" x2="352.008" y2="61.2708"/><line x1="350.112" y1="59.3747" x2="350.112" y2="63.1669"/><line x1="348.216" y1="59.3747" x2="352.008" y2="63.1669"/><line x1="348.216" y1="63.1669" x2="352.008" y2="59.3747"/>
<line x1="348.669" y1="67.383" x2="352.461" y2="67.383"/><line x1="350.565" y1="65.4869" x2="350.565" y2="69.2791"/><line x1="348.669" y1="65.4869" x2="352.461" y2="69.2791"/><line x1="348.669" y1="69.2791" x2="352.461" y2="65.4869"/>
<line x1="349.121" y1="65.0165" x2="352.914" y2="65.0165"/><line x1="351.018" y1="63.1204" x2="351.018" y2="66.9126"/><line x1="349.121" y1="63.1204" x2="352.914" y2="66.9126"/><line x1="349.121" y1="66.9126" x2="352.914" y2="63.1204"/>
<line x1="349.574" y1="70.1134" x2="353.366" y2="70.1134"/><line x1="351.47" y1="68.2173" x2="351.47" y2="72.0095"/><line x1="349.574" y1="68.2173" x2="353.366" y2="72.0095"/><line x1="349.574" y1="72.0095" x2="353.366" y2="68.2173"/>
<line x1="350.027" y1="69.5896" x2="353.819" y2="69.5896"/><line x1="351.923" y1="67.6935" x2="351.923" y2="71.4857"/><line x1="350.027" y1="67.6935" x2="353.819" y2="71.4857"/><line x1="350.027" y1="71.4857" x2="353.819" y2="67.6935"/>
<line x1="350.48" y1="63.8086" x2="354.272" y2="63.8086"/><line x1="352.376" y1="61.9125" x2="352.376" y2="65.7047"/><line x1="350.48" y1="61.9125" x2="354.272" y2="65.7047"/><line x1="350.48" y1="65.7047" x2="354.272" y2="61.9125"/>
<line x1="350.932" y1="68.0614" x2="354.724" y2="68.0614"/><line x1="352.828" y1="66.1654" x2="352.828" y2="69.9575"/><line x1="350.932" y1="66.1654" x2="354.724" y2="69.9575"/><line x1="350.932" y1="69.9575" x2="354.724" y2="66.1654"/>
</g>
<path d="M170.85,353.116h 226.342" fill="none" stroke="#0000ff"/>
<path d="M284.02,372.012v -47.2396" fill="none" stroke="#ff0000"/>
<rect x="57.1929" y="330.677" width="113.386" height="41.3346" fill="white"/>
<path d="M57.1929,372.012h 113.386" fill="none" stroke="black"/>
<path d="M170.579,372.012v -41.3346" fill="none" stroke="black"/>
<path d="M170.579,330.677h -113.386" fill="none" stroke="black"/>
<path d="M57.1929,330.677v 41.3346" fill="none" stroke="black"/>
<text xml:space="preserve" x="85.3498" y="354.568" fill="black" font-size="12.0704" font-family="Helvetica">#p.e of PMTs3</text>
<path d="M61.4449,351.344h 19.8425" fill="none" stroke="black"/></svg>
