<?xml version="1.0" standalone="no"?>
<svg width="567.429" height="413.846" viewBox="0 0 567.429 413.846" xmlns="http://www.w3.org/2000/svg" shape-rendering="crispEdges">
<title>
figures/chi2_1PMTnpedata190929-01.svg
</title>
<desc>
Creator: ROOT Version 6.18/02
CreationDate: Tue Oct  1 14:33:39 2019</desc>
<defs>
</defs>
<rect x="0.5" y="0" width="566.929" height="413.346" fill="white"/>
<rect x="57.1929" y="41.3346" width="453.543" height="330.677" fill="white"/>
<rect x="57.1929" y="41.3346" width="453.543" height="330.677" fill="none" stroke="black"/>
<path d="M57.1929,372.012h 453.543" fill="none" stroke="black"/>
<path d="M90.1269,41.3346v 330.677" fill="none" stroke="black" stroke-dasharray=" 1, 2"/>
<path d="M135.395,41.3346v 330.677" fill="none" stroke="black" stroke-dasharray=" 1, 2"/>
<path d="M180.664,41.3346v 330.677" fill="none" stroke="black" stroke-dasharray=" 1, 2"/>
<path d="M225.932,41.3346v 330.677" fill="none" stroke="black" stroke-dasharray=" 1, 2"/>
<path d="M271.2,41.3346v 330.677" fill="none" stroke="black" stroke-dasharray=" 1, 2"/>
<path d="M316.469,41.3346v 330.677" fill="none" stroke="black" stroke-dasharray=" 1, 2"/>
<path d="M361.737,41.3346v 330.677" fill="none" stroke="black" stroke-dasharray=" 1, 2"/>
<path d="M407.005,41.3346v 330.677" fill="none" stroke="black" stroke-dasharray=" 1, 2"/>
<path d="M452.273,41.3346v 330.677" fill="none" stroke="black" stroke-dasharray=" 1, 2"/>
<path d="M497.542,41.3346v 330.677" fill="none" stroke="black" stroke-dasharray=" 1, 2"/>
<path d="M90.1269,41.3346v 330.677" fill="none" stroke="black" stroke-dasharray=" 1, 2"/>
<path d="M497.542,41.3346v 330.677" fill="none" stroke="black" stroke-dasharray=" 1, 2"/>
<path d="M57.1929,372.012v -330.677" fill="none" stroke="black"/>
<path d="M510.736,311.366h -453.543" fill="none" stroke="black" stroke-dasharray=" 1, 2"/>
<path d="M510.736,248.38h -453.543" fill="none" stroke="black" stroke-dasharray=" 1, 2"/>
<path d="M510.736,185.394h -453.543" fill="none" stroke="black" stroke-dasharray=" 1, 2"/>
<path d="M510.736,122.408h -453.543" fill="none" stroke="black" stroke-dasharray=" 1, 2"/>
<path d="M510.736,59.4216h -453.543" fill="none" stroke="black" stroke-dasharray=" 1, 2"/>
<path d="M510.736,311.366h -453.543" fill="none" stroke="black" stroke-dasharray=" 1, 2"/>
<path d="M510.736,59.4216h -453.543" fill="none" stroke="black" stroke-dasharray=" 1, 2"/>
<path d="M57.1929,372.012h 453.543" fill="none" stroke="black"/>
<path d="M90.1269,362.091v 9.92031" fill="none" stroke="black"/>
<path d="M101.444,367.052v 4.96016" fill="none" stroke="black"/>
<path d="M112.761,367.052v 4.96016" fill="none" stroke="black"/>
<path d="M124.078,367.052v 4.96016" fill="none" stroke="black"/>
<path d="M135.395,362.091v 9.92031" fill="none" stroke="black"/>
<path d="M146.712,367.052v 4.96016" fill="none" stroke="black"/>
<path d="M158.029,367.052v 4.96016" fill="none" stroke="black"/>
<path d="M169.346,367.052v 4.96016" fill="none" stroke="black"/>
<path d="M180.664,362.091v 9.92031" fill="none" stroke="black"/>
<path d="M191.981,367.052v 4.96016" fill="none" stroke="black"/>
<path d="M203.298,367.052v 4.96016" fill="none" stroke="black"/>
<path d="M214.615,367.052v 4.96016" fill="none" stroke="black"/>
<path d="M225.932,362.091v 9.92031" fill="none" stroke="black"/>
<path d="M237.249,367.052v 4.96016" fill="none" stroke="black"/>
<path d="M248.566,367.052v 4.96016" fill="none" stroke="black"/>
<path d="M259.883,367.052v 4.96016" fill="none" stroke="black"/>
<path d="M271.2,362.091v 9.92031" fill="none" stroke="black"/>
<path d="M282.517,367.052v 4.96016" fill="none" stroke="black"/>
<path d="M293.834,367.052v 4.96016" fill="none" stroke="black"/>
<path d="M305.151,367.052v 4.96016" fill="none" stroke="black"/>
<path d="M316.469,362.091v 9.92031" fill="none" stroke="black"/>
<path d="M327.786,367.052v 4.96016" fill="none" stroke="black"/>
<path d="M339.103,367.052v 4.96016" fill="none" stroke="black"/>
<path d="M350.42,367.052v 4.96016" fill="none" stroke="black"/>
<path d="M361.737,362.091v 9.92031" fill="none" stroke="black"/>
<path d="M373.054,367.052v 4.96016" fill="none" stroke="black"/>
<path d="M384.371,367.052v 4.96016" fill="none" stroke="black"/>
<path d="M395.688,367.052v 4.96016" fill="none" stroke="black"/>
<path d="M407.005,362.091v 9.92031" fill="none" stroke="black"/>
<path d="M418.322,367.052v 4.96016" fill="none" stroke="black"/>
<path d="M429.639,367.052v 4.96016" fill="none" stroke="black"/>
<path d="M440.956,367.052v 4.96016" fill="none" stroke="black"/>
<path d="M452.273,362.091v 9.92031" fill="none" stroke="black"/>
<path d="M463.591,367.052v 4.96016" fill="none" stroke="black"/>
<path d="M474.908,367.052v 4.96016" fill="none" stroke="black"/>
<path d="M486.225,367.052v 4.96016" fill="none" stroke="black"/>
<path d="M497.542,362.091v 9.92031" fill="none" stroke="black"/>
<path d="M90.1269,362.091v 9.92031" fill="none" stroke="black"/>
<path d="M78.8098,367.052v 4.96016" fill="none" stroke="black"/>
<path d="M67.4927,367.052v 4.96016" fill="none" stroke="black"/>
<path d="M497.542,362.091v 9.92031" fill="none" stroke="black"/>
<path d="M508.859,367.052v 4.96016" fill="none" stroke="black"/>
<text xml:space="preserve" x="77.2914" y="385.379" fill="black" font-size="13.7726" font-family="Helvetica">0.92</text>
<text xml:space="preserve" x="122.323" y="385.379" fill="black" font-size="13.7726" font-family="Helvetica">0.94</text>
<text xml:space="preserve" x="167.829" y="385.379" fill="black" font-size="13.7726" font-family="Helvetica">0.96</text>
<text xml:space="preserve" x="212.861" y="385.379" fill="black" font-size="13.7726" font-family="Helvetica">0.98</text>
<text xml:space="preserve" x="268.796" y="385.379" fill="black" font-size="13.7726" font-family="Helvetica">1</text>
<text xml:space="preserve" x="303.399" y="385.379" fill="black" font-size="13.7726" font-family="Helvetica">1.02</text>
<text xml:space="preserve" x="348.905" y="385.379" fill="black" font-size="13.7726" font-family="Helvetica">1.04</text>
<text xml:space="preserve" x="393.937" y="385.379" fill="black" font-size="13.7726" font-family="Helvetica">1.06</text>
<text xml:space="preserve" x="439.443" y="385.379" fill="black" font-size="13.7726" font-family="Helvetica">1.08</text>
<text xml:space="preserve" x="489.216" y="385.379" fill="black" font-size="13.7726" font-family="Helvetica">1.1</text>
<text xml:space="preserve" x="413.372" y="400.074" fill="black" font-size="13.7726" font-family="Helvetica">calibration factor</text>
<path d="M57.1929,372.012v -330.677" fill="none" stroke="black"/>
<path d="M70.7992,311.366h -13.6063" fill="none" stroke="black"/>
<path d="M63.9961,295.62h -6.80315" fill="none" stroke="black"/>
<path d="M63.9961,279.873h -6.80315" fill="none" stroke="black"/>
<path d="M63.9961,264.126h -6.80315" fill="none" stroke="black"/>
<path d="M70.7992,248.38h -13.6063" fill="none" stroke="black"/>
<path d="M63.9961,232.633h -6.80315" fill="none" stroke="black"/>
<path d="M63.9961,216.887h -6.80315" fill="none" stroke="black"/>
<path d="M63.9961,201.14h -6.80315" fill="none" stroke="black"/>
<path d="M70.7992,185.394h -13.6063" fill="none" stroke="black"/>
<path d="M63.9961,169.647h -6.80315" fill="none" stroke="black"/>
<path d="M63.9961,153.901h -6.80315" fill="none" stroke="black"/>
<path d="M63.9961,138.154h -6.80315" fill="none" stroke="black"/>
<path d="M70.7992,122.408h -13.6063" fill="none" stroke="black"/>
<path d="M63.9961,106.661h -6.80315" fill="none" stroke="black"/>
<path d="M63.9961,90.9147h -6.80315" fill="none" stroke="black"/>
<path d="M63.9961,75.1682h -6.80315" fill="none" stroke="black"/>
<path d="M70.7992,59.4216h -13.6063" fill="none" stroke="black"/>
<path d="M70.7992,311.366h -13.6063" fill="none" stroke="black"/>
<path d="M63.9961,327.113h -6.80315" fill="none" stroke="black"/>
<path d="M63.9961,342.859h -6.80315" fill="none" stroke="black"/>
<path d="M63.9961,358.606h -6.80315" fill="none" stroke="black"/>
<path d="M70.7992,59.4216h -13.6063" fill="none" stroke="black"/>
<path d="M63.9961,43.6751h -6.80315" fill="none" stroke="black"/>
<text xml:space="preserve" x="25.1491" y="315.698" fill="black" font-size="13.7726" font-family="Helvetica">7720</text>
<text xml:space="preserve" x="25.1491" y="252.653" fill="black" font-size="13.7726" font-family="Helvetica">7740</text>
<text xml:space="preserve" x="25.1491" y="190.082" fill="black" font-size="13.7726" font-family="Helvetica">7760</text>
<text xml:space="preserve" x="25.1491" y="127.038" fill="black" font-size="13.7726" font-family="Helvetica">7780</text>
<text xml:space="preserve" x="25.1491" y="63.9928" fill="black" font-size="13.7726" font-family="Helvetica">7800</text>
<g transform="rotate(-90,8.08434,45.98)">
<text xml:space="preserve" x="8.08434" y="45.98" fill="black" font-size="9.34839" font-family="Helvetica">2</text>
</g>
<g transform="rotate(-90,12.3505,50.2462)">
<text xml:space="preserve" x="12.3505" y="50.2462" fill="black" font-size="13.7726" font-family="Helvetica"> </text>
</g>
<g transform="rotate(-90,12.3505,57.3565)">
<text xml:space="preserve" x="12.3505" y="57.3565" fill="black" font-size="13.7726" font-family="Times">&#0967;</text>
</g>
<g stroke="black" stroke-width="1" fill="none">
<line x1="246.217" y1="60.3454" x2="250.009" y2="60.3454"/><line x1="248.113" y1="58.4493" x2="248.113" y2="62.2415"/><line x1="246.217" y1="58.4493" x2="250.009" y2="62.2415"/><line x1="246.217" y1="62.2415" x2="250.009" y2="58.4493"/>
<line x1="246.67" y1="87.468" x2="250.462" y2="87.468"/><line x1="248.566" y1="85.5719" x2="248.566" y2="89.3641"/><line x1="246.67" y1="85.5719" x2="250.462" y2="89.3641"/><line x1="246.67" y1="89.3641" x2="250.462" y2="85.5719"/>
<line x1="247.123" y1="89.897" x2="250.915" y2="89.897"/><line x1="249.019" y1="88.0009" x2="249.019" y2="91.7931"/><line x1="247.123" y1="88.0009" x2="250.915" y2="91.7931"/><line x1="247.123" y1="91.7931" x2="250.915" y2="88.0009"/>
<line x1="247.575" y1="88.116" x2="251.367" y2="88.116"/><line x1="249.471" y1="86.2199" x2="249.471" y2="90.012"/><line x1="247.575" y1="86.2199" x2="251.367" y2="90.012"/><line x1="247.575" y1="90.012" x2="251.367" y2="86.2199"/>
<line x1="248.028" y1="97.3806" x2="251.82" y2="97.3806"/><line x1="249.924" y1="95.4846" x2="249.924" y2="99.2767"/><line x1="248.028" y1="95.4846" x2="251.82" y2="99.2767"/><line x1="248.028" y1="99.2767" x2="251.82" y2="95.4846"/>
<line x1="248.481" y1="108.374" x2="252.273" y2="108.374"/><line x1="250.377" y1="106.478" x2="250.377" y2="110.27"/><line x1="248.481" y1="106.478" x2="252.273" y2="110.27"/><line x1="248.481" y1="110.27" x2="252.273" y2="106.478"/>
<line x1="248.933" y1="97.1667" x2="252.726" y2="97.1667"/><line x1="250.829" y1="95.2706" x2="250.829" y2="99.0628"/><line x1="248.933" y1="95.2706" x2="252.726" y2="99.0628"/><line x1="248.933" y1="99.0628" x2="252.726" y2="95.2706"/>
<line x1="249.386" y1="104.002" x2="253.178" y2="104.002"/><line x1="251.282" y1="102.106" x2="251.282" y2="105.898"/><line x1="249.386" y1="102.106" x2="253.178" y2="105.898"/><line x1="249.386" y1="105.898" x2="253.178" y2="102.106"/>
<line x1="249.839" y1="91.5137" x2="253.631" y2="91.5137"/><line x1="251.735" y1="89.6176" x2="251.735" y2="93.4098"/><line x1="249.839" y1="89.6176" x2="253.631" y2="93.4098"/><line x1="249.839" y1="93.4098" x2="253.631" y2="89.6176"/>
<line x1="250.291" y1="80.8837" x2="254.084" y2="80.8837"/><line x1="252.188" y1="78.9876" x2="252.188" y2="82.7798"/><line x1="250.291" y1="78.9876" x2="254.084" y2="82.7798"/><line x1="250.291" y1="82.7798" x2="254.084" y2="78.9876"/>
<line x1="250.744" y1="100.035" x2="254.536" y2="100.035"/><line x1="252.64" y1="98.1387" x2="252.64" y2="101.931"/><line x1="250.744" y1="98.1387" x2="254.536" y2="101.931"/><line x1="250.744" y1="101.931" x2="254.536" y2="98.1387"/>
<line x1="251.197" y1="113.003" x2="254.989" y2="113.003"/><line x1="253.093" y1="111.107" x2="253.093" y2="114.9"/><line x1="251.197" y1="111.107" x2="254.989" y2="114.9"/><line x1="251.197" y1="114.9" x2="254.989" y2="111.107"/>
<line x1="251.649" y1="117.491" x2="255.442" y2="117.491"/><line x1="253.546" y1="115.595" x2="253.546" y2="119.387"/><line x1="251.649" y1="115.595" x2="255.442" y2="119.387"/><line x1="251.649" y1="119.387" x2="255.442" y2="115.595"/>
<line x1="252.102" y1="128.37" x2="255.894" y2="128.37"/><line x1="253.998" y1="126.474" x2="253.998" y2="130.266"/><line x1="252.102" y1="126.474" x2="255.894" y2="130.266"/><line x1="252.102" y1="130.266" x2="255.894" y2="126.474"/>
<line x1="252.555" y1="135.469" x2="256.347" y2="135.469"/><line x1="254.451" y1="133.573" x2="254.451" y2="137.365"/><line x1="252.555" y1="133.573" x2="256.347" y2="137.365"/><line x1="252.555" y1="137.365" x2="256.347" y2="133.573"/>
<line x1="253.008" y1="136.967" x2="256.8" y2="136.967"/><line x1="254.904" y1="135.071" x2="254.904" y2="138.863"/><line x1="253.008" y1="135.071" x2="256.8" y2="138.863"/><line x1="253.008" y1="138.863" x2="256.8" y2="135.071"/>
<line x1="253.46" y1="140.346" x2="257.252" y2="140.346"/><line x1="255.356" y1="138.45" x2="255.356" y2="142.242"/><line x1="253.46" y1="138.45" x2="257.252" y2="142.242"/><line x1="253.46" y1="142.242" x2="257.252" y2="138.45"/>
<line x1="253.913" y1="148.755" x2="257.705" y2="148.755"/><line x1="255.809" y1="146.859" x2="255.809" y2="150.651"/><line x1="253.913" y1="146.859" x2="257.705" y2="150.651"/><line x1="253.913" y1="150.651" x2="257.705" y2="146.859"/>
<line x1="254.366" y1="158.734" x2="258.158" y2="158.734"/><line x1="256.262" y1="156.838" x2="256.262" y2="160.63"/><line x1="254.366" y1="156.838" x2="258.158" y2="160.63"/><line x1="254.366" y1="160.63" x2="258.158" y2="156.838"/>
<line x1="254.818" y1="175.679" x2="258.61" y2="175.679"/><line x1="256.714" y1="173.783" x2="256.714" y2="177.575"/><line x1="254.818" y1="173.783" x2="258.61" y2="177.575"/><line x1="254.818" y1="177.575" x2="258.61" y2="173.783"/>
<line x1="255.271" y1="199.39" x2="259.063" y2="199.39"/><line x1="257.167" y1="197.494" x2="257.167" y2="201.287"/><line x1="255.271" y1="197.494" x2="259.063" y2="201.287"/><line x1="255.271" y1="201.287" x2="259.063" y2="197.494"/>
<line x1="255.724" y1="194.254" x2="259.516" y2="194.254"/><line x1="257.62" y1="192.358" x2="257.62" y2="196.15"/><line x1="255.724" y1="192.358" x2="259.516" y2="196.15"/><line x1="255.724" y1="196.15" x2="259.516" y2="192.358"/>
<line x1="256.176" y1="206.176" x2="259.968" y2="206.176"/><line x1="258.072" y1="204.28" x2="258.072" y2="208.072"/><line x1="256.176" y1="204.28" x2="259.968" y2="208.072"/><line x1="256.176" y1="208.072" x2="259.968" y2="204.28"/>
<line x1="256.629" y1="194.48" x2="260.421" y2="194.48"/><line x1="258.525" y1="192.584" x2="258.525" y2="196.376"/><line x1="256.629" y1="192.584" x2="260.421" y2="196.376"/><line x1="256.629" y1="196.376" x2="260.421" y2="192.584"/>
<line x1="257.082" y1="197.141" x2="260.874" y2="197.141"/><line x1="258.978" y1="195.245" x2="258.978" y2="199.037"/><line x1="257.082" y1="195.245" x2="260.874" y2="199.037"/><line x1="257.082" y1="199.037" x2="260.874" y2="195.245"/>
<line x1="257.534" y1="202.415" x2="261.327" y2="202.415"/><line x1="259.43" y1="200.519" x2="259.43" y2="204.311"/><line x1="257.534" y1="200.519" x2="261.327" y2="204.311"/><line x1="257.534" y1="204.311" x2="261.327" y2="200.519"/>
<line x1="257.987" y1="209.411" x2="261.779" y2="209.411"/><line x1="259.883" y1="207.515" x2="259.883" y2="211.307"/><line x1="257.987" y1="207.515" x2="261.779" y2="211.307"/><line x1="257.987" y1="211.307" x2="261.779" y2="207.515"/>
<line x1="258.44" y1="209.584" x2="262.232" y2="209.584"/><line x1="260.336" y1="207.688" x2="260.336" y2="211.48"/><line x1="258.44" y1="207.688" x2="262.232" y2="211.48"/><line x1="258.44" y1="211.48" x2="262.232" y2="207.688"/>
<line x1="258.892" y1="222.271" x2="262.685" y2="222.271"/><line x1="260.788" y1="220.374" x2="260.788" y2="224.167"/><line x1="258.892" y1="220.374" x2="262.685" y2="224.167"/><line x1="258.892" y1="224.167" x2="262.685" y2="220.374"/>
<line x1="259.345" y1="233.992" x2="263.137" y2="233.992"/><line x1="261.241" y1="232.096" x2="261.241" y2="235.889"/><line x1="259.345" y1="232.096" x2="263.137" y2="235.889"/><line x1="259.345" y1="235.889" x2="263.137" y2="232.096"/>
<line x1="259.798" y1="245.099" x2="263.59" y2="245.099"/><line x1="261.694" y1="243.203" x2="261.694" y2="246.995"/><line x1="259.798" y1="243.203" x2="263.59" y2="246.995"/><line x1="259.798" y1="246.995" x2="263.59" y2="243.203"/>
<line x1="260.25" y1="239.833" x2="264.043" y2="239.833"/><line x1="262.147" y1="237.937" x2="262.147" y2="241.729"/><line x1="260.25" y1="237.937" x2="264.043" y2="241.729"/><line x1="260.25" y1="241.729" x2="264.043" y2="237.937"/>
<line x1="260.703" y1="259.897" x2="264.495" y2="259.897"/><line x1="262.599" y1="258.001" x2="262.599" y2="261.793"/><line x1="260.703" y1="258.001" x2="264.495" y2="261.793"/><line x1="260.703" y1="261.793" x2="264.495" y2="258.001"/>
<line x1="261.156" y1="279.624" x2="264.948" y2="279.624"/><line x1="263.052" y1="277.728" x2="263.052" y2="281.52"/><line x1="261.156" y1="277.728" x2="264.948" y2="281.52"/><line x1="261.156" y1="281.52" x2="264.948" y2="277.728"/>
<line x1="261.608" y1="264.879" x2="265.401" y2="264.879"/><line x1="263.505" y1="262.983" x2="263.505" y2="266.775"/><line x1="261.608" y1="262.983" x2="265.401" y2="266.775"/><line x1="261.608" y1="266.775" x2="265.401" y2="262.983"/>
<line x1="262.061" y1="265.593" x2="265.853" y2="265.593"/><line x1="263.957" y1="263.697" x2="263.957" y2="267.489"/><line x1="262.061" y1="263.697" x2="265.853" y2="267.489"/><line x1="262.061" y1="267.489" x2="265.853" y2="263.697"/>
<line x1="262.514" y1="276.29" x2="266.306" y2="276.29"/><line x1="264.41" y1="274.394" x2="264.41" y2="278.186"/><line x1="262.514" y1="274.394" x2="266.306" y2="278.186"/><line x1="262.514" y1="278.186" x2="266.306" y2="274.394"/>
<line x1="262.967" y1="281.9" x2="266.759" y2="281.9"/><line x1="264.863" y1="280.004" x2="264.863" y2="283.796"/><line x1="262.967" y1="280.004" x2="266.759" y2="283.796"/><line x1="262.967" y1="283.796" x2="266.759" y2="280.004"/>
<line x1="263.419" y1="282.733" x2="267.211" y2="282.733"/><line x1="265.315" y1="280.837" x2="265.315" y2="284.63"/><line x1="263.419" y1="280.837" x2="267.211" y2="284.63"/><line x1="263.419" y1="284.63" x2="267.211" y2="280.837"/>
<line x1="263.872" y1="282.291" x2="267.664" y2="282.291"/><line x1="265.768" y1="280.395" x2="265.768" y2="284.187"/><line x1="263.872" y1="280.395" x2="267.664" y2="284.187"/><line x1="263.872" y1="284.187" x2="267.664" y2="280.395"/>
<line x1="264.325" y1="294.767" x2="268.117" y2="294.767"/><line x1="266.221" y1="292.871" x2="266.221" y2="296.663"/><line x1="264.325" y1="292.871" x2="268.117" y2="296.663"/><line x1="264.325" y1="296.663" x2="268.117" y2="292.871"/>
<line x1="264.777" y1="294.98" x2="268.569" y2="294.98"/><line x1="266.673" y1="293.084" x2="266.673" y2="296.876"/><line x1="264.777" y1="293.084" x2="268.569" y2="296.876"/><line x1="264.777" y1="296.876" x2="268.569" y2="293.084"/>
<line x1="265.23" y1="311.85" x2="269.022" y2="311.85"/><line x1="267.126" y1="309.954" x2="267.126" y2="313.746"/><line x1="265.23" y1="309.954" x2="269.022" y2="313.746"/><line x1="265.23" y1="313.746" x2="269.022" y2="309.954"/>
<line x1="265.683" y1="322.082" x2="269.475" y2="322.082"/><line x1="267.579" y1="320.186" x2="267.579" y2="323.978"/><line x1="265.683" y1="320.186" x2="269.475" y2="323.978"/><line x1="265.683" y1="323.978" x2="269.475" y2="320.186"/>
<line x1="266.135" y1="307.453" x2="269.927" y2="307.453"/><line x1="268.031" y1="305.557" x2="268.031" y2="309.35"/><line x1="266.135" y1="305.557" x2="269.927" y2="309.35"/><line x1="266.135" y1="309.35" x2="269.927" y2="305.557"/>
<line x1="266.588" y1="302.369" x2="270.38" y2="302.369"/><line x1="268.484" y1="300.473" x2="268.484" y2="304.265"/><line x1="266.588" y1="300.473" x2="270.38" y2="304.265"/><line x1="266.588" y1="304.265" x2="270.38" y2="300.473"/>
<line x1="267.041" y1="317.938" x2="270.833" y2="317.938"/><line x1="268.937" y1="316.041" x2="268.937" y2="319.834"/><line x1="267.041" y1="316.041" x2="270.833" y2="319.834"/><line x1="267.041" y1="319.834" x2="270.833" y2="316.041"/>
<line x1="267.493" y1="306.207" x2="271.286" y2="306.207"/><line x1="269.389" y1="304.311" x2="269.389" y2="308.103"/><line x1="267.493" y1="304.311" x2="271.286" y2="308.103"/><line x1="267.493" y1="308.103" x2="271.286" y2="304.311"/>
<line x1="267.946" y1="319.158" x2="271.738" y2="319.158"/><line x1="269.842" y1="317.262" x2="269.842" y2="321.054"/><line x1="267.946" y1="317.262" x2="271.738" y2="321.054"/><line x1="267.946" y1="321.054" x2="271.738" y2="317.262"/>
<line x1="268.399" y1="330.601" x2="272.191" y2="330.601"/><line x1="270.295" y1="328.705" x2="270.295" y2="332.498"/><line x1="268.399" y1="328.705" x2="272.191" y2="332.498"/><line x1="268.399" y1="332.498" x2="272.191" y2="328.705"/>
<line x1="268.851" y1="324.078" x2="272.644" y2="324.078"/><line x1="270.747" y1="322.182" x2="270.747" y2="325.974"/><line x1="268.851" y1="322.182" x2="272.644" y2="325.974"/><line x1="268.851" y1="325.974" x2="272.644" y2="322.182"/>
<line x1="269.304" y1="340.099" x2="273.096" y2="340.099"/><line x1="271.2" y1="338.203" x2="271.2" y2="341.995"/><line x1="269.304" y1="338.203" x2="273.096" y2="341.995"/><line x1="269.304" y1="341.995" x2="273.096" y2="338.203"/>
<line x1="269.757" y1="339.675" x2="273.549" y2="339.675"/><line x1="271.653" y1="337.779" x2="271.653" y2="341.571"/><line x1="269.757" y1="337.779" x2="273.549" y2="341.571"/><line x1="269.757" y1="341.571" x2="273.549" y2="337.779"/>
<line x1="270.209" y1="314.433" x2="274.002" y2="314.433"/><line x1="272.106" y1="312.537" x2="272.106" y2="316.33"/><line x1="270.209" y1="312.537" x2="274.002" y2="316.33"/><line x1="270.209" y1="316.33" x2="274.002" y2="312.537"/>
<line x1="270.662" y1="320.075" x2="274.454" y2="320.075"/><line x1="272.558" y1="318.179" x2="272.558" y2="321.971"/><line x1="270.662" y1="318.179" x2="274.454" y2="321.971"/><line x1="270.662" y1="321.971" x2="274.454" y2="318.179"/>
<line x1="271.115" y1="326.333" x2="274.907" y2="326.333"/><line x1="273.011" y1="324.437" x2="273.011" y2="328.229"/><line x1="271.115" y1="324.437" x2="274.907" y2="328.229"/><line x1="271.115" y1="328.229" x2="274.907" y2="324.437"/>
<line x1="271.568" y1="328.671" x2="275.36" y2="328.671"/><line x1="273.464" y1="326.775" x2="273.464" y2="330.567"/><line x1="271.568" y1="326.775" x2="275.36" y2="330.567"/><line x1="271.568" y1="330.567" x2="275.36" y2="326.775"/>
<line x1="272.02" y1="320.6" x2="275.812" y2="320.6"/><line x1="273.916" y1="318.703" x2="273.916" y2="322.496"/><line x1="272.02" y1="318.703" x2="275.812" y2="322.496"/><line x1="272.02" y1="322.496" x2="275.812" y2="318.703"/>
<line x1="272.473" y1="331.097" x2="276.265" y2="331.097"/><line x1="274.369" y1="329.201" x2="274.369" y2="332.993"/><line x1="272.473" y1="329.201" x2="276.265" y2="332.993"/><line x1="272.473" y1="332.993" x2="276.265" y2="329.201"/>
<line x1="272.926" y1="319.93" x2="276.718" y2="319.93"/><line x1="274.822" y1="318.033" x2="274.822" y2="321.826"/><line x1="272.926" y1="318.033" x2="276.718" y2="321.826"/><line x1="272.926" y1="321.826" x2="276.718" y2="318.033"/>
<line x1="273.378" y1="324.352" x2="277.17" y2="324.352"/><line x1="275.274" y1="322.456" x2="275.274" y2="326.248"/><line x1="273.378" y1="322.456" x2="277.17" y2="326.248"/><line x1="273.378" y1="326.248" x2="277.17" y2="322.456"/>
<line x1="273.831" y1="344.802" x2="277.623" y2="344.802"/><line x1="275.727" y1="342.906" x2="275.727" y2="346.698"/><line x1="273.831" y1="342.906" x2="277.623" y2="346.698"/><line x1="273.831" y1="346.698" x2="277.623" y2="342.906"/>
<line x1="274.284" y1="341.521" x2="278.076" y2="341.521"/><line x1="276.18" y1="339.624" x2="276.18" y2="343.417"/><line x1="274.284" y1="339.624" x2="278.076" y2="343.417"/><line x1="274.284" y1="343.417" x2="278.076" y2="339.624"/>
<line x1="274.736" y1="317.586" x2="278.528" y2="317.586"/><line x1="276.632" y1="315.69" x2="276.632" y2="319.482"/><line x1="274.736" y1="315.69" x2="278.528" y2="319.482"/><line x1="274.736" y1="319.482" x2="278.528" y2="315.69"/>
<line x1="275.189" y1="310.008" x2="278.981" y2="310.008"/><line x1="277.085" y1="308.112" x2="277.085" y2="311.904"/><line x1="275.189" y1="308.112" x2="278.981" y2="311.904"/><line x1="275.189" y1="311.904" x2="278.981" y2="308.112"/>
<line x1="275.642" y1="301.341" x2="279.434" y2="301.341"/><line x1="277.538" y1="299.445" x2="277.538" y2="303.237"/><line x1="275.642" y1="299.445" x2="279.434" y2="303.237"/><line x1="275.642" y1="303.237" x2="279.434" y2="299.445"/>
<line x1="276.094" y1="301.006" x2="279.887" y2="301.006"/><line x1="277.99" y1="299.11" x2="277.99" y2="302.902"/><line x1="276.094" y1="299.11" x2="279.887" y2="302.902"/><line x1="276.094" y1="302.902" x2="279.887" y2="299.11"/>
<line x1="276.547" y1="292.164" x2="280.339" y2="292.164"/><line x1="278.443" y1="290.268" x2="278.443" y2="294.06"/><line x1="276.547" y1="290.268" x2="280.339" y2="294.06"/><line x1="276.547" y1="294.06" x2="280.339" y2="290.268"/>
<line x1="277" y1="296.945" x2="280.792" y2="296.945"/><line x1="278.896" y1="295.049" x2="278.896" y2="298.841"/><line x1="277" y1="295.049" x2="280.792" y2="298.841"/><line x1="277" y1="298.841" x2="280.792" y2="295.049"/>
<line x1="277.452" y1="314.53" x2="281.245" y2="314.53"/><line x1="279.348" y1="312.634" x2="279.348" y2="316.426"/><line x1="277.452" y1="312.634" x2="281.245" y2="316.426"/><line x1="277.452" y1="316.426" x2="281.245" y2="312.634"/>
<line x1="277.905" y1="306.552" x2="281.697" y2="306.552"/><line x1="279.801" y1="304.656" x2="279.801" y2="308.448"/><line x1="277.905" y1="304.656" x2="281.697" y2="308.448"/><line x1="277.905" y1="308.448" x2="281.697" y2="304.656"/>
<line x1="278.358" y1="286.599" x2="282.15" y2="286.599"/><line x1="280.254" y1="284.703" x2="280.254" y2="288.495"/><line x1="278.358" y1="284.703" x2="282.15" y2="288.495"/><line x1="278.358" y1="288.495" x2="282.15" y2="284.703"/>
<line x1="278.81" y1="315.347" x2="282.603" y2="315.347"/><line x1="280.707" y1="313.451" x2="280.707" y2="317.243"/><line x1="278.81" y1="313.451" x2="282.603" y2="317.243"/><line x1="278.81" y1="317.243" x2="282.603" y2="313.451"/>
<line x1="279.263" y1="314.7" x2="283.055" y2="314.7"/><line x1="281.159" y1="312.804" x2="281.159" y2="316.596"/><line x1="279.263" y1="312.804" x2="283.055" y2="316.596"/><line x1="279.263" y1="316.596" x2="283.055" y2="312.804"/>
<line x1="279.716" y1="324.549" x2="283.508" y2="324.549"/><line x1="281.612" y1="322.653" x2="281.612" y2="326.445"/><line x1="279.716" y1="322.653" x2="283.508" y2="326.445"/><line x1="279.716" y1="326.445" x2="283.508" y2="322.653"/>
<line x1="280.169" y1="329.538" x2="283.961" y2="329.538"/><line x1="282.065" y1="327.642" x2="282.065" y2="331.434"/><line x1="280.169" y1="327.642" x2="283.961" y2="331.434"/><line x1="280.169" y1="331.434" x2="283.961" y2="327.642"/>
<line x1="280.621" y1="311.311" x2="284.413" y2="311.311"/><line x1="282.517" y1="309.415" x2="282.517" y2="313.208"/><line x1="280.621" y1="309.415" x2="284.413" y2="313.208"/><line x1="280.621" y1="313.208" x2="284.413" y2="309.415"/>
<line x1="281.074" y1="324.176" x2="284.866" y2="324.176"/><line x1="282.97" y1="322.28" x2="282.97" y2="326.072"/><line x1="281.074" y1="322.28" x2="284.866" y2="326.072"/><line x1="281.074" y1="326.072" x2="284.866" y2="322.28"/>
<line x1="281.527" y1="322.989" x2="285.319" y2="322.989"/><line x1="283.423" y1="321.093" x2="283.423" y2="324.885"/><line x1="281.527" y1="321.093" x2="285.319" y2="324.885"/><line x1="281.527" y1="324.885" x2="285.319" y2="321.093"/>
<line x1="281.979" y1="356.265" x2="285.771" y2="356.265"/><line x1="283.875" y1="354.369" x2="283.875" y2="358.161"/><line x1="281.979" y1="354.369" x2="285.771" y2="358.161"/><line x1="281.979" y1="358.161" x2="285.771" y2="354.369"/>
<line x1="282.432" y1="352.789" x2="286.224" y2="352.789"/><line x1="284.328" y1="350.893" x2="284.328" y2="354.685"/><line x1="282.432" y1="350.893" x2="286.224" y2="354.685"/><line x1="282.432" y1="354.685" x2="286.224" y2="350.893"/>
<line x1="282.885" y1="353.19" x2="286.677" y2="353.19"/><line x1="284.781" y1="351.294" x2="284.781" y2="355.086"/><line x1="282.885" y1="351.294" x2="286.677" y2="355.086"/><line x1="282.885" y1="355.086" x2="286.677" y2="351.294"/>
<line x1="283.337" y1="340.847" x2="287.129" y2="340.847"/><line x1="285.233" y1="338.951" x2="285.233" y2="342.743"/><line x1="283.337" y1="338.951" x2="287.129" y2="342.743"/><line x1="283.337" y1="342.743" x2="287.129" y2="338.951"/>
<line x1="283.79" y1="346.178" x2="287.582" y2="346.178"/><line x1="285.686" y1="344.282" x2="285.686" y2="348.074"/><line x1="283.79" y1="344.282" x2="287.582" y2="348.074"/><line x1="283.79" y1="348.074" x2="287.582" y2="344.282"/>
<line x1="284.243" y1="316.102" x2="288.035" y2="316.102"/><line x1="286.139" y1="314.206" x2="286.139" y2="317.998"/><line x1="284.243" y1="314.206" x2="288.035" y2="317.998"/><line x1="284.243" y1="317.998" x2="288.035" y2="314.206"/>
<line x1="284.695" y1="308.144" x2="288.488" y2="308.144"/><line x1="286.591" y1="306.248" x2="286.591" y2="310.04"/><line x1="284.695" y1="306.248" x2="288.488" y2="310.04"/><line x1="284.695" y1="310.04" x2="288.488" y2="306.248"/>
<line x1="285.148" y1="337.566" x2="288.94" y2="337.566"/><line x1="287.044" y1="335.67" x2="287.044" y2="339.462"/><line x1="285.148" y1="335.67" x2="288.94" y2="339.462"/><line x1="285.148" y1="339.462" x2="288.94" y2="335.67"/>
<line x1="285.601" y1="347.963" x2="289.393" y2="347.963"/><line x1="287.497" y1="346.066" x2="287.497" y2="349.859"/><line x1="285.601" y1="346.066" x2="289.393" y2="349.859"/><line x1="285.601" y1="349.859" x2="289.393" y2="346.066"/>
<line x1="286.053" y1="325.824" x2="289.846" y2="325.824"/><line x1="287.949" y1="323.927" x2="287.949" y2="327.72"/><line x1="286.053" y1="323.927" x2="289.846" y2="327.72"/><line x1="286.053" y1="327.72" x2="289.846" y2="323.927"/>
<line x1="286.506" y1="314.7" x2="290.298" y2="314.7"/><line x1="288.402" y1="312.804" x2="288.402" y2="316.596"/><line x1="286.506" y1="312.804" x2="290.298" y2="316.596"/><line x1="286.506" y1="316.596" x2="290.298" y2="312.804"/>
<line x1="286.959" y1="323.048" x2="290.751" y2="323.048"/><line x1="288.855" y1="321.151" x2="288.855" y2="324.944"/><line x1="286.959" y1="321.151" x2="290.751" y2="324.944"/><line x1="286.959" y1="324.944" x2="290.751" y2="321.151"/>
<line x1="287.411" y1="313.32" x2="291.204" y2="313.32"/><line x1="289.308" y1="311.424" x2="289.308" y2="315.216"/><line x1="287.411" y1="311.424" x2="291.204" y2="315.216"/><line x1="287.411" y1="315.216" x2="291.204" y2="311.424"/>
<line x1="287.864" y1="324.015" x2="291.656" y2="324.015"/><line x1="289.76" y1="322.119" x2="289.76" y2="325.911"/><line x1="287.864" y1="322.119" x2="291.656" y2="325.911"/><line x1="287.864" y1="325.911" x2="291.656" y2="322.119"/>
<line x1="288.317" y1="312.413" x2="292.109" y2="312.413"/><line x1="290.213" y1="310.517" x2="290.213" y2="314.309"/><line x1="288.317" y1="310.517" x2="292.109" y2="314.309"/><line x1="288.317" y1="314.309" x2="292.109" y2="310.517"/>
<line x1="288.77" y1="298.236" x2="292.562" y2="298.236"/><line x1="290.666" y1="296.34" x2="290.666" y2="300.132"/><line x1="288.77" y1="296.34" x2="292.562" y2="300.132"/><line x1="288.77" y1="300.132" x2="292.562" y2="296.34"/>
<line x1="289.222" y1="288.102" x2="293.014" y2="288.102"/><line x1="291.118" y1="286.206" x2="291.118" y2="289.998"/><line x1="289.222" y1="286.206" x2="293.014" y2="289.998"/><line x1="289.222" y1="289.998" x2="293.014" y2="286.206"/>
<line x1="289.675" y1="277.135" x2="293.467" y2="277.135"/><line x1="291.571" y1="275.239" x2="291.571" y2="279.031"/><line x1="289.675" y1="275.239" x2="293.467" y2="279.031"/><line x1="289.675" y1="279.031" x2="293.467" y2="275.239"/>
<line x1="290.128" y1="283.826" x2="293.92" y2="283.826"/><line x1="292.024" y1="281.93" x2="292.024" y2="285.722"/><line x1="290.128" y1="281.93" x2="293.92" y2="285.722"/><line x1="290.128" y1="285.722" x2="293.92" y2="281.93"/>
<line x1="290.58" y1="299.06" x2="294.372" y2="299.06"/><line x1="292.476" y1="297.164" x2="292.476" y2="300.956"/><line x1="290.58" y1="297.164" x2="294.372" y2="300.956"/><line x1="290.58" y1="300.956" x2="294.372" y2="297.164"/>
<line x1="291.033" y1="279.914" x2="294.825" y2="279.914"/><line x1="292.929" y1="278.018" x2="292.929" y2="281.81"/><line x1="291.033" y1="278.018" x2="294.825" y2="281.81"/><line x1="291.033" y1="281.81" x2="294.825" y2="278.018"/>
<line x1="291.486" y1="290.932" x2="295.278" y2="290.932"/><line x1="293.382" y1="289.036" x2="293.382" y2="292.828"/><line x1="291.486" y1="289.036" x2="295.278" y2="292.828"/><line x1="291.486" y1="292.828" x2="295.278" y2="289.036"/>
<line x1="291.938" y1="292.135" x2="295.73" y2="292.135"/><line x1="293.834" y1="290.239" x2="293.834" y2="294.032"/><line x1="291.938" y1="290.239" x2="295.73" y2="294.032"/><line x1="291.938" y1="294.032" x2="295.73" y2="290.239"/>
<line x1="292.391" y1="256.146" x2="296.183" y2="256.146"/><line x1="294.287" y1="254.25" x2="294.287" y2="258.042"/><line x1="292.391" y1="254.25" x2="296.183" y2="258.042"/><line x1="292.391" y1="258.042" x2="296.183" y2="254.25"/>
<line x1="292.844" y1="274.374" x2="296.636" y2="274.374"/><line x1="294.74" y1="272.478" x2="294.74" y2="276.27"/><line x1="292.844" y1="272.478" x2="296.636" y2="276.27"/><line x1="292.844" y1="276.27" x2="296.636" y2="272.478"/>
<line x1="293.296" y1="288.841" x2="297.089" y2="288.841"/><line x1="295.192" y1="286.944" x2="295.192" y2="290.737"/><line x1="293.296" y1="286.944" x2="297.089" y2="290.737"/><line x1="293.296" y1="290.737" x2="297.089" y2="286.944"/>
<line x1="293.749" y1="297.567" x2="297.541" y2="297.567"/><line x1="295.645" y1="295.671" x2="295.645" y2="299.463"/><line x1="293.749" y1="295.671" x2="297.541" y2="299.463"/><line x1="293.749" y1="299.463" x2="297.541" y2="295.671"/>
<line x1="294.202" y1="302.235" x2="297.994" y2="302.235"/><line x1="296.098" y1="300.339" x2="296.098" y2="304.131"/><line x1="294.202" y1="300.339" x2="297.994" y2="304.131"/><line x1="294.202" y1="304.131" x2="297.994" y2="300.339"/>
<line x1="294.654" y1="296.892" x2="298.447" y2="296.892"/><line x1="296.55" y1="294.995" x2="296.55" y2="298.788"/><line x1="294.654" y1="294.995" x2="298.447" y2="298.788"/><line x1="294.654" y1="298.788" x2="298.447" y2="294.995"/>
<line x1="295.107" y1="301.666" x2="298.899" y2="301.666"/><line x1="297.003" y1="299.77" x2="297.003" y2="303.562"/><line x1="295.107" y1="299.77" x2="298.899" y2="303.562"/><line x1="295.107" y1="303.562" x2="298.899" y2="299.77"/>
<line x1="295.56" y1="290.366" x2="299.352" y2="290.366"/><line x1="297.456" y1="288.47" x2="297.456" y2="292.262"/><line x1="295.56" y1="288.47" x2="299.352" y2="292.262"/><line x1="295.56" y1="292.262" x2="299.352" y2="288.47"/>
<line x1="296.012" y1="300.612" x2="299.805" y2="300.612"/><line x1="297.909" y1="298.716" x2="297.909" y2="302.508"/><line x1="296.012" y1="298.716" x2="299.805" y2="302.508"/><line x1="296.012" y1="302.508" x2="299.805" y2="298.716"/>
<line x1="296.465" y1="315.464" x2="300.257" y2="315.464"/><line x1="298.361" y1="313.568" x2="298.361" y2="317.36"/><line x1="296.465" y1="313.568" x2="300.257" y2="317.36"/><line x1="296.465" y1="317.36" x2="300.257" y2="313.568"/>
<line x1="296.918" y1="324.656" x2="300.71" y2="324.656"/><line x1="298.814" y1="322.76" x2="298.814" y2="326.552"/><line x1="296.918" y1="322.76" x2="300.71" y2="326.552"/><line x1="296.918" y1="326.552" x2="300.71" y2="322.76"/>
<line x1="297.37" y1="323.762" x2="301.163" y2="323.762"/><line x1="299.267" y1="321.866" x2="299.267" y2="325.658"/><line x1="297.37" y1="321.866" x2="301.163" y2="325.658"/><line x1="297.37" y1="325.658" x2="301.163" y2="321.866"/>
<line x1="297.823" y1="328.473" x2="301.615" y2="328.473"/><line x1="299.719" y1="326.577" x2="299.719" y2="330.369"/><line x1="297.823" y1="326.577" x2="301.615" y2="330.369"/><line x1="297.823" y1="330.369" x2="301.615" y2="326.577"/>
<line x1="298.276" y1="338.783" x2="302.068" y2="338.783"/><line x1="300.172" y1="336.887" x2="300.172" y2="340.679"/><line x1="298.276" y1="336.887" x2="302.068" y2="340.679"/><line x1="298.276" y1="340.679" x2="302.068" y2="336.887"/>
<line x1="298.729" y1="342.374" x2="302.521" y2="342.374"/><line x1="300.625" y1="340.478" x2="300.625" y2="344.27"/><line x1="298.729" y1="340.478" x2="302.521" y2="344.27"/><line x1="298.729" y1="344.27" x2="302.521" y2="340.478"/>
<line x1="299.181" y1="337.949" x2="302.973" y2="337.949"/><line x1="301.077" y1="336.053" x2="301.077" y2="339.845"/><line x1="299.181" y1="336.053" x2="302.973" y2="339.845"/><line x1="299.181" y1="339.845" x2="302.973" y2="336.053"/>
<line x1="299.634" y1="316.202" x2="303.426" y2="316.202"/><line x1="301.53" y1="314.306" x2="301.53" y2="318.098"/><line x1="299.634" y1="314.306" x2="303.426" y2="318.098"/><line x1="299.634" y1="318.098" x2="303.426" y2="314.306"/>
<line x1="300.087" y1="317.166" x2="303.879" y2="317.166"/><line x1="301.983" y1="315.27" x2="301.983" y2="319.062"/><line x1="300.087" y1="315.27" x2="303.879" y2="319.062"/><line x1="300.087" y1="319.062" x2="303.879" y2="315.27"/>
<line x1="300.539" y1="303.934" x2="304.331" y2="303.934"/><line x1="302.435" y1="302.037" x2="302.435" y2="305.83"/><line x1="300.539" y1="302.037" x2="304.331" y2="305.83"/><line x1="300.539" y1="305.83" x2="304.331" y2="302.037"/>
<line x1="300.992" y1="316.634" x2="304.784" y2="316.634"/><line x1="302.888" y1="314.738" x2="302.888" y2="318.53"/><line x1="300.992" y1="314.738" x2="304.784" y2="318.53"/><line x1="300.992" y1="318.53" x2="304.784" y2="314.738"/>
<line x1="301.445" y1="330.242" x2="305.237" y2="330.242"/><line x1="303.341" y1="328.346" x2="303.341" y2="332.138"/><line x1="301.445" y1="328.346" x2="305.237" y2="332.138"/><line x1="301.445" y1="332.138" x2="305.237" y2="328.346"/>
<line x1="301.897" y1="341.363" x2="305.689" y2="341.363"/><line x1="303.793" y1="339.467" x2="303.793" y2="343.259"/><line x1="301.897" y1="339.467" x2="305.689" y2="343.259"/><line x1="301.897" y1="343.259" x2="305.689" y2="339.467"/>
<line x1="302.35" y1="340.674" x2="306.142" y2="340.674"/><line x1="304.246" y1="338.778" x2="304.246" y2="342.57"/><line x1="302.35" y1="338.778" x2="306.142" y2="342.57"/><line x1="302.35" y1="342.57" x2="306.142" y2="338.778"/>
<line x1="302.803" y1="316.055" x2="306.595" y2="316.055"/><line x1="304.699" y1="314.159" x2="304.699" y2="317.951"/><line x1="302.803" y1="314.159" x2="306.595" y2="317.951"/><line x1="302.803" y1="317.951" x2="306.595" y2="314.159"/>
<line x1="303.255" y1="333.664" x2="307.048" y2="333.664"/><line x1="305.151" y1="331.768" x2="305.151" y2="335.56"/><line x1="303.255" y1="331.768" x2="307.048" y2="335.56"/><line x1="303.255" y1="335.56" x2="307.048" y2="331.768"/>
<line x1="303.708" y1="334.161" x2="307.5" y2="334.161"/><line x1="305.604" y1="332.265" x2="305.604" y2="336.057"/><line x1="303.708" y1="332.265" x2="307.5" y2="336.057"/><line x1="303.708" y1="336.057" x2="307.5" y2="332.265"/>
<line x1="304.161" y1="319.004" x2="307.953" y2="319.004"/><line x1="306.057" y1="317.108" x2="306.057" y2="320.9"/><line x1="304.161" y1="317.108" x2="307.953" y2="320.9"/><line x1="304.161" y1="320.9" x2="307.953" y2="317.108"/>
<line x1="304.613" y1="314.549" x2="308.406" y2="314.549"/><line x1="306.509" y1="312.653" x2="306.509" y2="316.446"/><line x1="304.613" y1="312.653" x2="308.406" y2="316.446"/><line x1="304.613" y1="316.446" x2="308.406" y2="312.653"/>
<line x1="305.066" y1="337.491" x2="308.858" y2="337.491"/><line x1="306.962" y1="335.595" x2="306.962" y2="339.387"/><line x1="305.066" y1="335.595" x2="308.858" y2="339.387"/><line x1="305.066" y1="339.387" x2="308.858" y2="335.595"/>
<line x1="305.519" y1="323.143" x2="309.311" y2="323.143"/><line x1="307.415" y1="321.247" x2="307.415" y2="325.04"/><line x1="305.519" y1="321.247" x2="309.311" y2="325.04"/><line x1="305.519" y1="325.04" x2="309.311" y2="321.247"/>
<line x1="305.971" y1="330.29" x2="309.764" y2="330.29"/><line x1="307.868" y1="328.394" x2="307.868" y2="332.186"/><line x1="305.971" y1="328.394" x2="309.764" y2="332.186"/><line x1="305.971" y1="332.186" x2="309.764" y2="328.394"/>
<line x1="306.424" y1="313.94" x2="310.216" y2="313.94"/><line x1="308.32" y1="312.044" x2="308.32" y2="315.836"/><line x1="306.424" y1="312.044" x2="310.216" y2="315.836"/><line x1="306.424" y1="315.836" x2="310.216" y2="312.044"/>
<line x1="306.877" y1="318.994" x2="310.669" y2="318.994"/><line x1="308.773" y1="317.098" x2="308.773" y2="320.89"/><line x1="306.877" y1="317.098" x2="310.669" y2="320.89"/><line x1="306.877" y1="320.89" x2="310.669" y2="317.098"/>
<line x1="307.329" y1="300.233" x2="311.122" y2="300.233"/><line x1="309.226" y1="298.337" x2="309.226" y2="302.129"/><line x1="307.329" y1="298.337" x2="311.122" y2="302.129"/><line x1="307.329" y1="302.129" x2="311.122" y2="298.337"/>
<line x1="307.782" y1="295.336" x2="311.574" y2="295.336"/><line x1="309.678" y1="293.44" x2="309.678" y2="297.232"/><line x1="307.782" y1="293.44" x2="311.574" y2="297.232"/><line x1="307.782" y1="297.232" x2="311.574" y2="293.44"/>
<line x1="308.235" y1="280.128" x2="312.027" y2="280.128"/><line x1="310.131" y1="278.232" x2="310.131" y2="282.024"/><line x1="308.235" y1="278.232" x2="312.027" y2="282.024"/><line x1="308.235" y1="282.024" x2="312.027" y2="278.232"/>
<line x1="308.688" y1="283.1" x2="312.48" y2="283.1"/><line x1="310.584" y1="281.204" x2="310.584" y2="284.996"/><line x1="308.688" y1="281.204" x2="312.48" y2="284.996"/><line x1="308.688" y1="284.996" x2="312.48" y2="281.204"/>
<line x1="309.14" y1="285.224" x2="312.932" y2="285.224"/><line x1="311.036" y1="283.328" x2="311.036" y2="287.12"/><line x1="309.14" y1="283.328" x2="312.932" y2="287.12"/><line x1="309.14" y1="287.12" x2="312.932" y2="283.328"/>
<line x1="309.593" y1="279.616" x2="313.385" y2="279.616"/><line x1="311.489" y1="277.72" x2="311.489" y2="281.512"/><line x1="309.593" y1="277.72" x2="313.385" y2="281.512"/><line x1="309.593" y1="281.512" x2="313.385" y2="277.72"/>
<line x1="310.046" y1="273.843" x2="313.838" y2="273.843"/><line x1="311.942" y1="271.946" x2="311.942" y2="275.739"/><line x1="310.046" y1="271.946" x2="313.838" y2="275.739"/><line x1="310.046" y1="275.739" x2="313.838" y2="271.946"/>
<line x1="310.498" y1="248.224" x2="314.29" y2="248.224"/><line x1="312.394" y1="246.328" x2="312.394" y2="250.121"/><line x1="310.498" y1="246.328" x2="314.29" y2="250.121"/><line x1="310.498" y1="250.121" x2="314.29" y2="246.328"/>
<line x1="310.951" y1="241.391" x2="314.743" y2="241.391"/><line x1="312.847" y1="239.495" x2="312.847" y2="243.287"/><line x1="310.951" y1="239.495" x2="314.743" y2="243.287"/><line x1="310.951" y1="243.287" x2="314.743" y2="239.495"/>
<line x1="311.404" y1="264.843" x2="315.196" y2="264.843"/><line x1="313.3" y1="262.947" x2="313.3" y2="266.739"/><line x1="311.404" y1="262.947" x2="315.196" y2="266.739"/><line x1="311.404" y1="266.739" x2="315.196" y2="262.947"/>
<line x1="311.856" y1="273.873" x2="315.648" y2="273.873"/><line x1="313.752" y1="271.977" x2="313.752" y2="275.769"/><line x1="311.856" y1="271.977" x2="315.648" y2="275.769"/><line x1="311.856" y1="275.769" x2="315.648" y2="271.977"/>
<line x1="312.309" y1="279.103" x2="316.101" y2="279.103"/><line x1="314.205" y1="277.207" x2="314.205" y2="280.999"/><line x1="312.309" y1="277.207" x2="316.101" y2="280.999"/><line x1="312.309" y1="280.999" x2="316.101" y2="277.207"/>
<line x1="312.762" y1="283.277" x2="316.554" y2="283.277"/><line x1="314.658" y1="281.381" x2="314.658" y2="285.173"/><line x1="312.762" y1="281.381" x2="316.554" y2="285.173"/><line x1="312.762" y1="285.173" x2="316.554" y2="281.381"/>
<line x1="313.214" y1="315.662" x2="317.007" y2="315.662"/><line x1="315.11" y1="313.766" x2="315.11" y2="317.558"/><line x1="313.214" y1="313.766" x2="317.007" y2="317.558"/><line x1="313.214" y1="317.558" x2="317.007" y2="313.766"/>
<line x1="313.667" y1="300.055" x2="317.459" y2="300.055"/><line x1="315.563" y1="298.159" x2="315.563" y2="301.951"/><line x1="313.667" y1="298.159" x2="317.459" y2="301.951"/><line x1="313.667" y1="301.951" x2="317.459" y2="298.159"/>
<line x1="314.12" y1="294.184" x2="317.912" y2="294.184"/><line x1="316.016" y1="292.288" x2="316.016" y2="296.081"/><line x1="314.12" y1="292.288" x2="317.912" y2="296.081"/><line x1="314.12" y1="296.081" x2="317.912" y2="292.288"/>
<line x1="314.572" y1="282.761" x2="318.365" y2="282.761"/><line x1="316.469" y1="280.865" x2="316.469" y2="284.657"/><line x1="314.572" y1="280.865" x2="318.365" y2="284.657"/><line x1="314.572" y1="284.657" x2="318.365" y2="280.865"/>
<line x1="315.025" y1="267.745" x2="318.817" y2="267.745"/><line x1="316.921" y1="265.849" x2="316.921" y2="269.642"/><line x1="315.025" y1="265.849" x2="318.817" y2="269.642"/><line x1="315.025" y1="269.642" x2="318.817" y2="265.849"/>
<line x1="315.478" y1="283.03" x2="319.27" y2="283.03"/><line x1="317.374" y1="281.134" x2="317.374" y2="284.926"/><line x1="315.478" y1="281.134" x2="319.27" y2="284.926"/><line x1="315.478" y1="284.926" x2="319.27" y2="281.134"/>
<line x1="315.93" y1="274.335" x2="319.723" y2="274.335"/><line x1="317.827" y1="272.439" x2="317.827" y2="276.231"/><line x1="315.93" y1="272.439" x2="319.723" y2="276.231"/><line x1="315.93" y1="276.231" x2="319.723" y2="272.439"/>
<line x1="316.383" y1="290.39" x2="320.175" y2="290.39"/><line x1="318.279" y1="288.494" x2="318.279" y2="292.286"/><line x1="316.383" y1="288.494" x2="320.175" y2="292.286"/><line x1="316.383" y1="292.286" x2="320.175" y2="288.494"/>
<line x1="316.836" y1="301.134" x2="320.628" y2="301.134"/><line x1="318.732" y1="299.238" x2="318.732" y2="303.03"/><line x1="316.836" y1="299.238" x2="320.628" y2="303.03"/><line x1="316.836" y1="303.03" x2="320.628" y2="299.238"/>
<line x1="317.289" y1="303.729" x2="321.081" y2="303.729"/><line x1="319.185" y1="301.833" x2="319.185" y2="305.626"/><line x1="317.289" y1="301.833" x2="321.081" y2="305.626"/><line x1="317.289" y1="305.626" x2="321.081" y2="301.833"/>
<line x1="317.741" y1="302.256" x2="321.533" y2="302.256"/><line x1="319.637" y1="300.36" x2="319.637" y2="304.152"/><line x1="317.741" y1="300.36" x2="321.533" y2="304.152"/><line x1="317.741" y1="304.152" x2="321.533" y2="300.36"/>
<line x1="318.194" y1="333.813" x2="321.986" y2="333.813"/><line x1="320.09" y1="331.917" x2="320.09" y2="335.709"/><line x1="318.194" y1="331.917" x2="321.986" y2="335.709"/><line x1="318.194" y1="335.709" x2="321.986" y2="331.917"/>
<line x1="318.647" y1="320.759" x2="322.439" y2="320.759"/><line x1="320.543" y1="318.863" x2="320.543" y2="322.655"/><line x1="318.647" y1="318.863" x2="322.439" y2="322.655"/><line x1="318.647" y1="322.655" x2="322.439" y2="318.863"/>
<line x1="319.099" y1="319.366" x2="322.891" y2="319.366"/><line x1="320.995" y1="317.47" x2="320.995" y2="321.262"/><line x1="319.099" y1="317.47" x2="322.891" y2="321.262"/><line x1="319.099" y1="321.262" x2="322.891" y2="317.47"/>
<line x1="319.552" y1="326.287" x2="323.344" y2="326.287"/><line x1="321.448" y1="324.391" x2="321.448" y2="328.183"/><line x1="319.552" y1="324.391" x2="323.344" y2="328.183"/><line x1="319.552" y1="328.183" x2="323.344" y2="324.391"/>
<line x1="320.005" y1="331.747" x2="323.797" y2="331.747"/><line x1="321.901" y1="329.851" x2="321.901" y2="333.643"/><line x1="320.005" y1="329.851" x2="323.797" y2="333.643"/><line x1="320.005" y1="333.643" x2="323.797" y2="329.851"/>
<line x1="320.457" y1="331.784" x2="324.249" y2="331.784"/><line x1="322.353" y1="329.887" x2="322.353" y2="333.68"/><line x1="320.457" y1="329.887" x2="324.249" y2="333.68"/><line x1="320.457" y1="333.68" x2="324.249" y2="329.887"/>
<line x1="320.91" y1="344.099" x2="324.702" y2="344.099"/><line x1="322.806" y1="342.203" x2="322.806" y2="345.995"/><line x1="320.91" y1="342.203" x2="324.702" y2="345.995"/><line x1="320.91" y1="345.995" x2="324.702" y2="342.203"/>
<line x1="321.363" y1="321.183" x2="325.155" y2="321.183"/><line x1="323.259" y1="319.287" x2="323.259" y2="323.079"/><line x1="321.363" y1="319.287" x2="325.155" y2="323.079"/><line x1="321.363" y1="323.079" x2="325.155" y2="319.287"/>
<line x1="321.815" y1="326.814" x2="325.608" y2="326.814"/><line x1="323.711" y1="324.918" x2="323.711" y2="328.71"/><line x1="321.815" y1="324.918" x2="325.608" y2="328.71"/><line x1="321.815" y1="328.71" x2="325.608" y2="324.918"/>
<line x1="322.268" y1="323.065" x2="326.06" y2="323.065"/><line x1="324.164" y1="321.169" x2="324.164" y2="324.961"/><line x1="322.268" y1="321.169" x2="326.06" y2="324.961"/><line x1="322.268" y1="324.961" x2="326.06" y2="321.169"/>
<line x1="322.721" y1="304.784" x2="326.513" y2="304.784"/><line x1="324.617" y1="302.888" x2="324.617" y2="306.68"/><line x1="322.721" y1="302.888" x2="326.513" y2="306.68"/><line x1="322.721" y1="306.68" x2="326.513" y2="302.888"/>
<line x1="323.173" y1="277.245" x2="326.966" y2="277.245"/><line x1="325.07" y1="275.349" x2="325.07" y2="279.141"/><line x1="323.173" y1="275.349" x2="326.966" y2="279.141"/><line x1="323.173" y1="279.141" x2="326.966" y2="275.349"/>
<line x1="323.626" y1="244.445" x2="327.418" y2="244.445"/><line x1="325.522" y1="242.549" x2="325.522" y2="246.341"/><line x1="323.626" y1="242.549" x2="327.418" y2="246.341"/><line x1="323.626" y1="246.341" x2="327.418" y2="242.549"/>
<line x1="324.079" y1="219.955" x2="327.871" y2="219.955"/><line x1="325.975" y1="218.059" x2="325.975" y2="221.851"/><line x1="324.079" y1="218.059" x2="327.871" y2="221.851"/><line x1="324.079" y1="221.851" x2="327.871" y2="218.059"/>
<line x1="324.531" y1="227.763" x2="328.324" y2="227.763"/><line x1="326.428" y1="225.867" x2="326.428" y2="229.659"/><line x1="324.531" y1="225.867" x2="328.324" y2="229.659"/><line x1="324.531" y1="229.659" x2="328.324" y2="225.867"/>
<line x1="324.984" y1="257.594" x2="328.776" y2="257.594"/><line x1="326.88" y1="255.698" x2="326.88" y2="259.49"/><line x1="324.984" y1="255.698" x2="328.776" y2="259.49"/><line x1="324.984" y1="259.49" x2="328.776" y2="255.698"/>
<line x1="325.437" y1="267.243" x2="329.229" y2="267.243"/><line x1="327.333" y1="265.347" x2="327.333" y2="269.139"/><line x1="325.437" y1="265.347" x2="329.229" y2="269.139"/><line x1="325.437" y1="269.139" x2="329.229" y2="265.347"/>
<line x1="325.89" y1="270.709" x2="329.682" y2="270.709"/><line x1="327.786" y1="268.813" x2="327.786" y2="272.606"/><line x1="325.89" y1="268.813" x2="329.682" y2="272.606"/><line x1="325.89" y1="272.606" x2="329.682" y2="268.813"/>
<line x1="326.342" y1="272.795" x2="330.134" y2="272.795"/><line x1="328.238" y1="270.898" x2="328.238" y2="274.691"/><line x1="326.342" y1="270.898" x2="330.134" y2="274.691"/><line x1="326.342" y1="274.691" x2="330.134" y2="270.898"/>
<line x1="326.795" y1="262.582" x2="330.587" y2="262.582"/><line x1="328.691" y1="260.686" x2="328.691" y2="264.478"/><line x1="326.795" y1="260.686" x2="330.587" y2="264.478"/><line x1="326.795" y1="264.478" x2="330.587" y2="260.686"/>
<line x1="327.248" y1="266.808" x2="331.04" y2="266.808"/><line x1="329.144" y1="264.912" x2="329.144" y2="268.704"/><line x1="327.248" y1="264.912" x2="331.04" y2="268.704"/><line x1="327.248" y1="268.704" x2="331.04" y2="264.912"/>
<line x1="327.7" y1="254.241" x2="331.492" y2="254.241"/><line x1="329.596" y1="252.345" x2="329.596" y2="256.137"/><line x1="327.7" y1="252.345" x2="331.492" y2="256.137"/><line x1="327.7" y1="256.137" x2="331.492" y2="252.345"/>
<line x1="328.153" y1="245.508" x2="331.945" y2="245.508"/><line x1="330.049" y1="243.612" x2="330.049" y2="247.404"/><line x1="328.153" y1="243.612" x2="331.945" y2="247.404"/><line x1="328.153" y1="247.404" x2="331.945" y2="243.612"/>
<line x1="328.606" y1="227.362" x2="332.398" y2="227.362"/><line x1="330.502" y1="225.466" x2="330.502" y2="229.258"/><line x1="328.606" y1="225.466" x2="332.398" y2="229.258"/><line x1="328.606" y1="229.258" x2="332.398" y2="225.466"/>
<line x1="329.058" y1="232.322" x2="332.85" y2="232.322"/><line x1="330.954" y1="230.426" x2="330.954" y2="234.218"/><line x1="329.058" y1="230.426" x2="332.85" y2="234.218"/><line x1="329.058" y1="234.218" x2="332.85" y2="230.426"/>
<line x1="329.511" y1="231.283" x2="333.303" y2="231.283"/><line x1="331.407" y1="229.387" x2="331.407" y2="233.179"/><line x1="329.511" y1="229.387" x2="333.303" y2="233.179"/><line x1="329.511" y1="233.179" x2="333.303" y2="229.387"/>
<line x1="329.964" y1="238.457" x2="333.756" y2="238.457"/><line x1="331.86" y1="236.561" x2="331.86" y2="240.354"/><line x1="329.964" y1="236.561" x2="333.756" y2="240.354"/><line x1="329.964" y1="240.354" x2="333.756" y2="236.561"/>
<line x1="330.416" y1="242.516" x2="334.209" y2="242.516"/><line x1="332.312" y1="240.62" x2="332.312" y2="244.412"/><line x1="330.416" y1="240.62" x2="334.209" y2="244.412"/><line x1="330.416" y1="244.412" x2="334.209" y2="240.62"/>
<line x1="330.869" y1="201.797" x2="334.661" y2="201.797"/><line x1="332.765" y1="199.9" x2="332.765" y2="203.693"/><line x1="330.869" y1="199.9" x2="334.661" y2="203.693"/><line x1="330.869" y1="203.693" x2="334.661" y2="199.9"/>
<line x1="331.322" y1="176.938" x2="335.114" y2="176.938"/><line x1="333.218" y1="175.042" x2="333.218" y2="178.834"/><line x1="331.322" y1="175.042" x2="335.114" y2="178.834"/><line x1="331.322" y1="178.834" x2="335.114" y2="175.042"/>
<line x1="331.774" y1="187.44" x2="335.567" y2="187.44"/><line x1="333.671" y1="185.544" x2="333.671" y2="189.336"/><line x1="331.774" y1="185.544" x2="335.567" y2="189.336"/><line x1="331.774" y1="189.336" x2="335.567" y2="185.544"/>
<line x1="332.227" y1="192.642" x2="336.019" y2="192.642"/><line x1="334.123" y1="190.746" x2="334.123" y2="194.538"/><line x1="332.227" y1="190.746" x2="336.019" y2="194.538"/><line x1="332.227" y1="194.538" x2="336.019" y2="190.746"/>
<line x1="332.68" y1="205.069" x2="336.472" y2="205.069"/><line x1="334.576" y1="203.173" x2="334.576" y2="206.965"/><line x1="332.68" y1="203.173" x2="336.472" y2="206.965"/><line x1="332.68" y1="206.965" x2="336.472" y2="203.173"/>
<line x1="333.132" y1="244.971" x2="336.925" y2="244.971"/><line x1="335.029" y1="243.075" x2="335.029" y2="246.867"/><line x1="333.132" y1="243.075" x2="336.925" y2="246.867"/><line x1="333.132" y1="246.867" x2="336.925" y2="243.075"/>
<line x1="333.585" y1="254.456" x2="337.377" y2="254.456"/><line x1="335.481" y1="252.56" x2="335.481" y2="256.353"/><line x1="333.585" y1="252.56" x2="337.377" y2="256.353"/><line x1="333.585" y1="256.353" x2="337.377" y2="252.56"/>
<line x1="334.038" y1="258.802" x2="337.83" y2="258.802"/><line x1="335.934" y1="256.906" x2="335.934" y2="260.698"/><line x1="334.038" y1="256.906" x2="337.83" y2="260.698"/><line x1="334.038" y1="260.698" x2="337.83" y2="256.906"/>
<line x1="334.491" y1="246.395" x2="338.283" y2="246.395"/><line x1="336.387" y1="244.499" x2="336.387" y2="248.291"/><line x1="334.491" y1="244.499" x2="338.283" y2="248.291"/><line x1="334.491" y1="248.291" x2="338.283" y2="244.499"/>
<line x1="334.943" y1="256.088" x2="338.735" y2="256.088"/><line x1="336.839" y1="254.192" x2="336.839" y2="257.984"/><line x1="334.943" y1="254.192" x2="338.735" y2="257.984"/><line x1="334.943" y1="257.984" x2="338.735" y2="254.192"/>
<line x1="335.396" y1="236.15" x2="339.188" y2="236.15"/><line x1="337.292" y1="234.254" x2="337.292" y2="238.046"/><line x1="335.396" y1="234.254" x2="339.188" y2="238.046"/><line x1="335.396" y1="238.046" x2="339.188" y2="234.254"/>
<line x1="335.849" y1="240.906" x2="339.641" y2="240.906"/><line x1="337.745" y1="239.01" x2="337.745" y2="242.802"/><line x1="335.849" y1="239.01" x2="339.641" y2="242.802"/><line x1="335.849" y1="242.802" x2="339.641" y2="239.01"/>
<line x1="336.301" y1="250.649" x2="340.093" y2="250.649"/><line x1="338.197" y1="248.753" x2="338.197" y2="252.545"/><line x1="336.301" y1="248.753" x2="340.093" y2="252.545"/><line x1="336.301" y1="252.545" x2="340.093" y2="248.753"/>
<line x1="336.754" y1="232.097" x2="340.546" y2="232.097"/><line x1="338.65" y1="230.2" x2="338.65" y2="233.993"/><line x1="336.754" y1="230.2" x2="340.546" y2="233.993"/><line x1="336.754" y1="233.993" x2="340.546" y2="230.2"/>
<line x1="337.207" y1="223.408" x2="340.999" y2="223.408"/><line x1="339.103" y1="221.512" x2="339.103" y2="225.305"/><line x1="337.207" y1="221.512" x2="340.999" y2="225.305"/><line x1="337.207" y1="225.305" x2="340.999" y2="221.512"/>
<line x1="337.659" y1="237.136" x2="341.451" y2="237.136"/><line x1="339.555" y1="235.24" x2="339.555" y2="239.032"/><line x1="337.659" y1="235.24" x2="341.451" y2="239.032"/><line x1="337.659" y1="239.032" x2="341.451" y2="235.24"/>
<line x1="338.112" y1="233.123" x2="341.904" y2="233.123"/><line x1="340.008" y1="231.227" x2="340.008" y2="235.019"/><line x1="338.112" y1="231.227" x2="341.904" y2="235.019"/><line x1="338.112" y1="235.019" x2="341.904" y2="231.227"/>
<line x1="338.565" y1="243.478" x2="342.357" y2="243.478"/><line x1="340.461" y1="241.582" x2="340.461" y2="245.374"/><line x1="338.565" y1="241.582" x2="342.357" y2="245.374"/><line x1="338.565" y1="245.374" x2="342.357" y2="241.582"/>
<line x1="339.017" y1="260.671" x2="342.81" y2="260.671"/><line x1="340.913" y1="258.775" x2="340.913" y2="262.567"/><line x1="339.017" y1="258.775" x2="342.81" y2="262.567"/><line x1="339.017" y1="262.567" x2="342.81" y2="258.775"/>
<line x1="339.47" y1="267.187" x2="343.262" y2="267.187"/><line x1="341.366" y1="265.291" x2="341.366" y2="269.083"/><line x1="339.47" y1="265.291" x2="343.262" y2="269.083"/><line x1="339.47" y1="269.083" x2="343.262" y2="265.291"/>
<line x1="339.923" y1="257.153" x2="343.715" y2="257.153"/><line x1="341.819" y1="255.257" x2="341.819" y2="259.049"/><line x1="339.923" y1="255.257" x2="343.715" y2="259.049"/><line x1="339.923" y1="259.049" x2="343.715" y2="255.257"/>
<line x1="340.375" y1="247.689" x2="344.168" y2="247.689"/><line x1="342.271" y1="245.793" x2="342.271" y2="249.585"/><line x1="340.375" y1="245.793" x2="344.168" y2="249.585"/><line x1="340.375" y1="249.585" x2="344.168" y2="245.793"/>
<line x1="340.828" y1="238.647" x2="344.62" y2="238.647"/><line x1="342.724" y1="236.751" x2="342.724" y2="240.543"/><line x1="340.828" y1="236.751" x2="344.62" y2="240.543"/><line x1="340.828" y1="240.543" x2="344.62" y2="236.751"/>
<line x1="341.281" y1="248.001" x2="345.073" y2="248.001"/><line x1="343.177" y1="246.105" x2="343.177" y2="249.897"/><line x1="341.281" y1="246.105" x2="345.073" y2="249.897"/><line x1="341.281" y1="249.897" x2="345.073" y2="246.105"/>
<line x1="341.733" y1="258.506" x2="345.526" y2="258.506"/><line x1="343.63" y1="256.61" x2="343.63" y2="260.402"/><line x1="341.733" y1="256.61" x2="345.526" y2="260.402"/><line x1="341.733" y1="260.402" x2="345.526" y2="256.61"/>
<line x1="342.186" y1="250.366" x2="345.978" y2="250.366"/><line x1="344.082" y1="248.47" x2="344.082" y2="252.262"/><line x1="342.186" y1="248.47" x2="345.978" y2="252.262"/><line x1="342.186" y1="252.262" x2="345.978" y2="248.47"/>
<line x1="342.639" y1="240.969" x2="346.431" y2="240.969"/><line x1="344.535" y1="239.073" x2="344.535" y2="242.865"/><line x1="342.639" y1="239.073" x2="346.431" y2="242.865"/><line x1="342.639" y1="242.865" x2="346.431" y2="239.073"/>
<line x1="343.091" y1="244.576" x2="346.884" y2="244.576"/><line x1="344.988" y1="242.68" x2="344.988" y2="246.472"/><line x1="343.091" y1="242.68" x2="346.884" y2="246.472"/><line x1="343.091" y1="246.472" x2="346.884" y2="242.68"/>
<line x1="343.544" y1="234.974" x2="347.336" y2="234.974"/><line x1="345.44" y1="233.078" x2="345.44" y2="236.871"/><line x1="343.544" y1="233.078" x2="347.336" y2="236.871"/><line x1="343.544" y1="236.871" x2="347.336" y2="233.078"/>
<line x1="343.997" y1="235.801" x2="347.789" y2="235.801"/><line x1="345.893" y1="233.905" x2="345.893" y2="237.697"/><line x1="343.997" y1="233.905" x2="347.789" y2="237.697"/><line x1="343.997" y1="237.697" x2="347.789" y2="233.905"/>
<line x1="344.45" y1="256.761" x2="348.242" y2="256.761"/><line x1="346.346" y1="254.865" x2="346.346" y2="258.658"/><line x1="344.45" y1="254.865" x2="348.242" y2="258.658"/><line x1="344.45" y1="258.658" x2="348.242" y2="254.865"/>
<line x1="344.902" y1="253.25" x2="348.694" y2="253.25"/><line x1="346.798" y1="251.354" x2="346.798" y2="255.146"/><line x1="344.902" y1="251.354" x2="348.694" y2="255.146"/><line x1="344.902" y1="255.146" x2="348.694" y2="251.354"/>
<line x1="345.355" y1="259.393" x2="349.147" y2="259.393"/><line x1="347.251" y1="257.497" x2="347.251" y2="261.289"/><line x1="345.355" y1="257.497" x2="349.147" y2="261.289"/><line x1="345.355" y1="261.289" x2="349.147" y2="257.497"/>
<line x1="345.808" y1="257.512" x2="349.6" y2="257.512"/><line x1="347.704" y1="255.616" x2="347.704" y2="259.409"/><line x1="345.808" y1="255.616" x2="349.6" y2="259.409"/><line x1="345.808" y1="259.409" x2="349.6" y2="255.616"/>
<line x1="346.26" y1="226.128" x2="350.052" y2="226.128"/><line x1="348.156" y1="224.232" x2="348.156" y2="228.024"/><line x1="346.26" y1="224.232" x2="350.052" y2="228.024"/><line x1="346.26" y1="228.024" x2="350.052" y2="224.232"/>
<line x1="346.713" y1="195.087" x2="350.505" y2="195.087"/><line x1="348.609" y1="193.19" x2="348.609" y2="196.983"/><line x1="346.713" y1="193.19" x2="350.505" y2="196.983"/><line x1="346.713" y1="196.983" x2="350.505" y2="193.19"/>
<line x1="347.166" y1="190.628" x2="350.958" y2="190.628"/><line x1="349.062" y1="188.732" x2="349.062" y2="192.524"/><line x1="347.166" y1="188.732" x2="350.958" y2="192.524"/><line x1="347.166" y1="192.524" x2="350.958" y2="188.732"/>
<line x1="347.618" y1="195.316" x2="351.41" y2="195.316"/><line x1="349.514" y1="193.42" x2="349.514" y2="197.212"/><line x1="347.618" y1="193.42" x2="351.41" y2="197.212"/><line x1="347.618" y1="197.212" x2="351.41" y2="193.42"/>
<line x1="348.071" y1="213.911" x2="351.863" y2="213.911"/><line x1="349.967" y1="212.015" x2="349.967" y2="215.807"/><line x1="348.071" y1="212.015" x2="351.863" y2="215.807"/><line x1="348.071" y1="215.807" x2="351.863" y2="212.015"/>
<line x1="348.524" y1="207.414" x2="352.316" y2="207.414"/><line x1="350.42" y1="205.518" x2="350.42" y2="209.311"/><line x1="348.524" y1="205.518" x2="352.316" y2="209.311"/><line x1="348.524" y1="209.311" x2="352.316" y2="205.518"/>
<line x1="348.976" y1="220.169" x2="352.769" y2="220.169"/><line x1="350.872" y1="218.272" x2="350.872" y2="222.065"/><line x1="348.976" y1="218.272" x2="352.769" y2="222.065"/><line x1="348.976" y1="222.065" x2="352.769" y2="218.272"/>
<line x1="349.429" y1="233.908" x2="353.221" y2="233.908"/><line x1="351.325" y1="232.012" x2="351.325" y2="235.804"/><line x1="349.429" y1="232.012" x2="353.221" y2="235.804"/><line x1="349.429" y1="235.804" x2="353.221" y2="232.012"/>
<line x1="349.882" y1="219.411" x2="353.674" y2="219.411"/><line x1="351.778" y1="217.514" x2="351.778" y2="221.307"/><line x1="349.882" y1="217.514" x2="353.674" y2="221.307"/><line x1="349.882" y1="221.307" x2="353.674" y2="217.514"/>
<line x1="350.334" y1="209.601" x2="354.127" y2="209.601"/><line x1="352.23" y1="207.705" x2="352.23" y2="211.497"/><line x1="350.334" y1="207.705" x2="354.127" y2="211.497"/><line x1="350.334" y1="211.497" x2="354.127" y2="207.705"/>
<line x1="350.787" y1="179.653" x2="354.579" y2="179.653"/><line x1="352.683" y1="177.757" x2="352.683" y2="181.55"/><line x1="350.787" y1="177.757" x2="354.579" y2="181.55"/><line x1="350.787" y1="181.55" x2="354.579" y2="177.757"/>
<line x1="351.24" y1="175.243" x2="355.032" y2="175.243"/><line x1="353.136" y1="173.347" x2="353.136" y2="177.139"/><line x1="351.24" y1="173.347" x2="355.032" y2="177.139"/><line x1="351.24" y1="177.139" x2="355.032" y2="173.347"/>
<line x1="351.692" y1="159.27" x2="355.485" y2="159.27"/><line x1="353.589" y1="157.374" x2="353.589" y2="161.166"/><line x1="351.692" y1="157.374" x2="355.485" y2="161.166"/><line x1="351.692" y1="161.166" x2="355.485" y2="157.374"/>
<line x1="352.145" y1="166.703" x2="355.937" y2="166.703"/><line x1="354.041" y1="164.807" x2="354.041" y2="168.599"/><line x1="352.145" y1="164.807" x2="355.937" y2="168.599"/><line x1="352.145" y1="168.599" x2="355.937" y2="164.807"/>
<line x1="352.598" y1="164.352" x2="356.39" y2="164.352"/><line x1="354.494" y1="162.456" x2="354.494" y2="166.248"/><line x1="352.598" y1="162.456" x2="356.39" y2="166.248"/><line x1="352.598" y1="166.248" x2="356.39" y2="162.456"/>
<line x1="353.051" y1="158.369" x2="356.843" y2="158.369"/><line x1="354.947" y1="156.473" x2="354.947" y2="160.265"/><line x1="353.051" y1="156.473" x2="356.843" y2="160.265"/><line x1="353.051" y1="160.265" x2="356.843" y2="156.473"/>
<line x1="353.503" y1="165.614" x2="357.295" y2="165.614"/><line x1="355.399" y1="163.718" x2="355.399" y2="167.51"/><line x1="353.503" y1="163.718" x2="357.295" y2="167.51"/><line x1="353.503" y1="167.51" x2="357.295" y2="163.718"/>
<line x1="353.956" y1="151.739" x2="357.748" y2="151.739"/><line x1="355.852" y1="149.843" x2="355.852" y2="153.635"/><line x1="353.956" y1="149.843" x2="357.748" y2="153.635"/><line x1="353.956" y1="153.635" x2="357.748" y2="149.843"/>
<line x1="354.409" y1="160.278" x2="358.201" y2="160.278"/><line x1="356.305" y1="158.382" x2="356.305" y2="162.174"/><line x1="354.409" y1="158.382" x2="358.201" y2="162.174"/><line x1="354.409" y1="162.174" x2="358.201" y2="158.382"/>
<line x1="354.861" y1="165.219" x2="358.653" y2="165.219"/><line x1="356.757" y1="163.323" x2="356.757" y2="167.115"/><line x1="354.861" y1="163.323" x2="358.653" y2="167.115"/><line x1="354.861" y1="167.115" x2="358.653" y2="163.323"/>
<line x1="355.314" y1="140.19" x2="359.106" y2="140.19"/><line x1="357.21" y1="138.294" x2="357.21" y2="142.086"/><line x1="355.314" y1="138.294" x2="359.106" y2="142.086"/><line x1="355.314" y1="142.086" x2="359.106" y2="138.294"/>
<line x1="355.767" y1="168.903" x2="359.559" y2="168.903"/><line x1="357.663" y1="167.007" x2="357.663" y2="170.799"/><line x1="355.767" y1="167.007" x2="359.559" y2="170.799"/><line x1="355.767" y1="170.799" x2="359.559" y2="167.007"/>
<line x1="356.219" y1="183.279" x2="360.011" y2="183.279"/><line x1="358.115" y1="181.382" x2="358.115" y2="185.175"/><line x1="356.219" y1="181.382" x2="360.011" y2="185.175"/><line x1="356.219" y1="185.175" x2="360.011" y2="181.382"/>
<line x1="356.672" y1="176.421" x2="360.464" y2="176.421"/><line x1="358.568" y1="174.525" x2="358.568" y2="178.318"/><line x1="356.672" y1="174.525" x2="360.464" y2="178.318"/><line x1="356.672" y1="178.318" x2="360.464" y2="174.525"/>
<line x1="357.125" y1="184.35" x2="360.917" y2="184.35"/><line x1="359.021" y1="182.454" x2="359.021" y2="186.246"/><line x1="357.125" y1="182.454" x2="360.917" y2="186.246"/><line x1="357.125" y1="186.246" x2="360.917" y2="182.454"/>
<line x1="357.577" y1="177.735" x2="361.37" y2="177.735"/><line x1="359.473" y1="175.839" x2="359.473" y2="179.631"/><line x1="357.577" y1="175.839" x2="361.37" y2="179.631"/><line x1="357.577" y1="179.631" x2="361.37" y2="175.839"/>
<line x1="358.03" y1="166.131" x2="361.822" y2="166.131"/><line x1="359.926" y1="164.235" x2="359.926" y2="168.027"/><line x1="358.03" y1="164.235" x2="361.822" y2="168.027"/><line x1="358.03" y1="168.027" x2="361.822" y2="164.235"/>
<line x1="358.483" y1="171.328" x2="362.275" y2="171.328"/><line x1="360.379" y1="169.432" x2="360.379" y2="173.224"/><line x1="358.483" y1="169.432" x2="362.275" y2="173.224"/><line x1="358.483" y1="173.224" x2="362.275" y2="169.432"/>
<line x1="358.935" y1="172.029" x2="362.728" y2="172.029"/><line x1="360.831" y1="170.133" x2="360.831" y2="173.925"/><line x1="358.935" y1="170.133" x2="362.728" y2="173.925"/><line x1="358.935" y1="173.925" x2="362.728" y2="170.133"/>
<line x1="359.388" y1="148.927" x2="363.18" y2="148.927"/><line x1="361.284" y1="147.03" x2="361.284" y2="150.823"/><line x1="359.388" y1="147.03" x2="363.18" y2="150.823"/><line x1="359.388" y1="150.823" x2="363.18" y2="147.03"/>
<line x1="359.841" y1="155.207" x2="363.633" y2="155.207"/><line x1="361.737" y1="153.311" x2="361.737" y2="157.103"/><line x1="359.841" y1="153.311" x2="363.633" y2="157.103"/><line x1="359.841" y1="157.103" x2="363.633" y2="153.311"/>
<line x1="360.293" y1="131.063" x2="364.086" y2="131.063"/><line x1="362.19" y1="129.167" x2="362.19" y2="132.959"/><line x1="360.293" y1="129.167" x2="364.086" y2="132.959"/><line x1="360.293" y1="132.959" x2="364.086" y2="129.167"/>
<line x1="360.746" y1="138.093" x2="364.538" y2="138.093"/><line x1="362.642" y1="136.197" x2="362.642" y2="139.989"/><line x1="360.746" y1="136.197" x2="364.538" y2="139.989"/><line x1="360.746" y1="139.989" x2="364.538" y2="136.197"/>
<line x1="361.199" y1="121.276" x2="364.991" y2="121.276"/><line x1="363.095" y1="119.38" x2="363.095" y2="123.173"/><line x1="361.199" y1="119.38" x2="364.991" y2="123.173"/><line x1="361.199" y1="123.173" x2="364.991" y2="119.38"/>
<line x1="361.651" y1="124.015" x2="365.444" y2="124.015"/><line x1="363.548" y1="122.119" x2="363.548" y2="125.911"/><line x1="361.651" y1="122.119" x2="365.444" y2="125.911"/><line x1="361.651" y1="125.911" x2="365.444" y2="122.119"/>
<line x1="362.104" y1="108.894" x2="365.896" y2="108.894"/><line x1="364" y1="106.998" x2="364" y2="110.79"/><line x1="362.104" y1="106.998" x2="365.896" y2="110.79"/><line x1="362.104" y1="110.79" x2="365.896" y2="106.998"/>
<line x1="362.557" y1="105.685" x2="366.349" y2="105.685"/><line x1="364.453" y1="103.789" x2="364.453" y2="107.581"/><line x1="362.557" y1="103.789" x2="366.349" y2="107.581"/><line x1="362.557" y1="107.581" x2="366.349" y2="103.789"/>
<line x1="363.01" y1="95.3432" x2="366.802" y2="95.3432"/><line x1="364.906" y1="93.4471" x2="364.906" y2="97.2393"/><line x1="363.01" y1="93.4471" x2="366.802" y2="97.2393"/><line x1="363.01" y1="97.2393" x2="366.802" y2="93.4471"/>
<line x1="363.462" y1="87.0132" x2="367.254" y2="87.0132"/><line x1="365.358" y1="85.1171" x2="365.358" y2="88.9093"/><line x1="363.462" y1="85.1171" x2="367.254" y2="88.9093"/><line x1="363.462" y1="88.9093" x2="367.254" y2="85.1171"/>
<line x1="363.915" y1="74.328" x2="367.707" y2="74.328"/><line x1="365.811" y1="72.432" x2="365.811" y2="76.2241"/><line x1="363.915" y1="72.432" x2="367.707" y2="76.2241"/><line x1="363.915" y1="76.2241" x2="367.707" y2="72.432"/>
<line x1="364.368" y1="83.4273" x2="368.16" y2="83.4273"/><line x1="366.264" y1="81.5312" x2="366.264" y2="85.3234"/><line x1="364.368" y1="81.5312" x2="368.16" y2="85.3234"/><line x1="364.368" y1="85.3234" x2="368.16" y2="81.5312"/>
<line x1="364.82" y1="94.9233" x2="368.612" y2="94.9233"/><line x1="366.716" y1="93.0272" x2="366.716" y2="96.8194"/><line x1="364.82" y1="93.0272" x2="368.612" y2="96.8194"/><line x1="364.82" y1="96.8194" x2="368.612" y2="93.0272"/>
<line x1="365.273" y1="110.63" x2="369.065" y2="110.63"/><line x1="367.169" y1="108.734" x2="367.169" y2="112.526"/><line x1="365.273" y1="108.734" x2="369.065" y2="112.526"/><line x1="365.273" y1="112.526" x2="369.065" y2="108.734"/>
<line x1="365.726" y1="125.635" x2="369.518" y2="125.635"/><line x1="367.622" y1="123.739" x2="367.622" y2="127.531"/><line x1="365.726" y1="123.739" x2="369.518" y2="127.531"/><line x1="365.726" y1="127.531" x2="369.518" y2="123.739"/>
<line x1="366.178" y1="116.715" x2="369.97" y2="116.715"/><line x1="368.074" y1="114.819" x2="368.074" y2="118.611"/><line x1="366.178" y1="114.819" x2="369.97" y2="118.611"/><line x1="366.178" y1="118.611" x2="369.97" y2="114.819"/>
<line x1="366.631" y1="129.017" x2="370.423" y2="129.017"/><line x1="368.527" y1="127.121" x2="368.527" y2="130.913"/><line x1="366.631" y1="127.121" x2="370.423" y2="130.913"/><line x1="366.631" y1="130.913" x2="370.423" y2="127.121"/>
<line x1="367.084" y1="128.667" x2="370.876" y2="128.667"/><line x1="368.98" y1="126.771" x2="368.98" y2="130.564"/><line x1="367.084" y1="126.771" x2="370.876" y2="130.564"/><line x1="367.084" y1="130.564" x2="370.876" y2="126.771"/>
<line x1="367.536" y1="110.937" x2="371.329" y2="110.937"/><line x1="369.432" y1="109.041" x2="369.432" y2="112.834"/><line x1="367.536" y1="109.041" x2="371.329" y2="112.834"/><line x1="367.536" y1="112.834" x2="371.329" y2="109.041"/>
<line x1="367.989" y1="86.072" x2="371.781" y2="86.072"/><line x1="369.885" y1="84.1759" x2="369.885" y2="87.9681"/><line x1="367.989" y1="84.1759" x2="371.781" y2="87.9681"/><line x1="367.989" y1="87.9681" x2="371.781" y2="84.1759"/>
<line x1="368.442" y1="80.5135" x2="372.234" y2="80.5135"/><line x1="370.338" y1="78.6174" x2="370.338" y2="82.4095"/><line x1="368.442" y1="78.6174" x2="372.234" y2="82.4095"/><line x1="368.442" y1="82.4095" x2="372.234" y2="78.6174"/>
<line x1="368.894" y1="74.6701" x2="372.687" y2="74.6701"/><line x1="370.791" y1="72.774" x2="370.791" y2="76.5662"/><line x1="368.894" y1="72.774" x2="372.687" y2="76.5662"/><line x1="368.894" y1="76.5662" x2="372.687" y2="72.774"/>
<line x1="369.347" y1="85.0256" x2="373.139" y2="85.0256"/><line x1="371.243" y1="83.1295" x2="371.243" y2="86.9217"/><line x1="369.347" y1="83.1295" x2="373.139" y2="86.9217"/><line x1="369.347" y1="86.9217" x2="373.139" y2="83.1295"/>
<line x1="369.8" y1="100.254" x2="373.592" y2="100.254"/><line x1="371.696" y1="98.3583" x2="371.696" y2="102.15"/><line x1="369.8" y1="98.3583" x2="373.592" y2="102.15"/><line x1="369.8" y1="102.15" x2="373.592" y2="98.3583"/>
<line x1="370.252" y1="101.808" x2="374.045" y2="101.808"/><line x1="372.149" y1="99.912" x2="372.149" y2="103.704"/><line x1="370.252" y1="99.912" x2="374.045" y2="103.704"/><line x1="370.252" y1="103.704" x2="374.045" y2="99.912"/>
<line x1="370.705" y1="109.44" x2="374.497" y2="109.44"/><line x1="372.601" y1="107.544" x2="372.601" y2="111.336"/><line x1="370.705" y1="107.544" x2="374.497" y2="111.336"/><line x1="370.705" y1="111.336" x2="374.497" y2="107.544"/>
<line x1="371.158" y1="126.781" x2="374.95" y2="126.781"/><line x1="373.054" y1="124.885" x2="373.054" y2="128.677"/><line x1="371.158" y1="124.885" x2="374.95" y2="128.677"/><line x1="371.158" y1="128.677" x2="374.95" y2="124.885"/>
<line x1="371.611" y1="119.304" x2="375.403" y2="119.304"/><line x1="373.507" y1="117.407" x2="373.507" y2="121.2"/><line x1="371.611" y1="117.407" x2="375.403" y2="121.2"/><line x1="371.611" y1="121.2" x2="375.403" y2="117.407"/>
<line x1="372.063" y1="115.652" x2="375.855" y2="115.652"/><line x1="373.959" y1="113.756" x2="373.959" y2="117.548"/><line x1="372.063" y1="113.756" x2="375.855" y2="117.548"/><line x1="372.063" y1="117.548" x2="375.855" y2="113.756"/>
<line x1="372.516" y1="121.011" x2="376.308" y2="121.011"/><line x1="374.412" y1="119.115" x2="374.412" y2="122.908"/><line x1="372.516" y1="119.115" x2="376.308" y2="122.908"/><line x1="372.516" y1="122.908" x2="376.308" y2="119.115"/>
<line x1="372.969" y1="119.596" x2="376.761" y2="119.596"/><line x1="374.865" y1="117.7" x2="374.865" y2="121.492"/><line x1="372.969" y1="117.7" x2="376.761" y2="121.492"/><line x1="372.969" y1="121.492" x2="376.761" y2="117.7"/>
<line x1="373.421" y1="140.329" x2="377.213" y2="140.329"/><line x1="375.317" y1="138.433" x2="375.317" y2="142.225"/><line x1="373.421" y1="138.433" x2="377.213" y2="142.225"/><line x1="373.421" y1="142.225" x2="377.213" y2="138.433"/>
<line x1="373.874" y1="124.03" x2="377.666" y2="124.03"/><line x1="375.77" y1="122.134" x2="375.77" y2="125.926"/><line x1="373.874" y1="122.134" x2="377.666" y2="125.926"/><line x1="373.874" y1="125.926" x2="377.666" y2="122.134"/>
<line x1="374.327" y1="118.091" x2="378.119" y2="118.091"/><line x1="376.223" y1="116.195" x2="376.223" y2="119.988"/><line x1="374.327" y1="116.195" x2="378.119" y2="119.988"/><line x1="374.327" y1="119.988" x2="378.119" y2="116.195"/>
<line x1="374.779" y1="120.575" x2="378.571" y2="120.575"/><line x1="376.675" y1="118.679" x2="376.675" y2="122.471"/><line x1="374.779" y1="118.679" x2="378.571" y2="122.471"/><line x1="374.779" y1="122.471" x2="378.571" y2="118.679"/>
<line x1="375.232" y1="122.534" x2="379.024" y2="122.534"/><line x1="377.128" y1="120.638" x2="377.128" y2="124.43"/><line x1="375.232" y1="120.638" x2="379.024" y2="124.43"/><line x1="375.232" y1="124.43" x2="379.024" y2="120.638"/>
<line x1="375.685" y1="119.433" x2="379.477" y2="119.433"/><line x1="377.581" y1="117.537" x2="377.581" y2="121.329"/><line x1="375.685" y1="117.537" x2="379.477" y2="121.329"/><line x1="375.685" y1="121.329" x2="379.477" y2="117.537"/>
<line x1="376.137" y1="100.21" x2="379.93" y2="100.21"/><line x1="378.033" y1="98.3139" x2="378.033" y2="102.106"/><line x1="376.137" y1="98.3139" x2="379.93" y2="102.106"/><line x1="376.137" y1="102.106" x2="379.93" y2="98.3139"/>
<line x1="376.59" y1="118.373" x2="380.382" y2="118.373"/><line x1="378.486" y1="116.477" x2="378.486" y2="120.269"/><line x1="376.59" y1="116.477" x2="380.382" y2="120.269"/><line x1="376.59" y1="120.269" x2="380.382" y2="116.477"/>
<line x1="377.043" y1="111.512" x2="380.835" y2="111.512"/><line x1="378.939" y1="109.616" x2="378.939" y2="113.408"/><line x1="377.043" y1="109.616" x2="380.835" y2="113.408"/><line x1="377.043" y1="113.408" x2="380.835" y2="109.616"/>
<line x1="377.495" y1="101.475" x2="381.288" y2="101.475"/><line x1="379.392" y1="99.5793" x2="379.392" y2="103.371"/><line x1="377.495" y1="99.5793" x2="381.288" y2="103.371"/><line x1="377.495" y1="103.371" x2="381.288" y2="99.5793"/>
<line x1="377.948" y1="92.4881" x2="381.74" y2="92.4881"/><line x1="379.844" y1="90.592" x2="379.844" y2="94.3842"/><line x1="377.948" y1="90.592" x2="381.74" y2="94.3842"/><line x1="377.948" y1="94.3842" x2="381.74" y2="90.592"/>
<line x1="378.401" y1="121.609" x2="382.193" y2="121.609"/><line x1="380.297" y1="119.713" x2="380.297" y2="123.505"/><line x1="378.401" y1="119.713" x2="382.193" y2="123.505"/><line x1="378.401" y1="123.505" x2="382.193" y2="119.713"/>
<line x1="378.853" y1="119.923" x2="382.646" y2="119.923"/><line x1="380.75" y1="118.027" x2="380.75" y2="121.819"/><line x1="378.853" y1="118.027" x2="382.646" y2="121.819"/><line x1="378.853" y1="121.819" x2="382.646" y2="118.027"/>
<line x1="379.306" y1="115.318" x2="383.098" y2="115.318"/><line x1="381.202" y1="113.422" x2="381.202" y2="117.214"/><line x1="379.306" y1="113.422" x2="383.098" y2="117.214"/><line x1="379.306" y1="117.214" x2="383.098" y2="113.422"/>
<line x1="379.759" y1="105.059" x2="383.551" y2="105.059"/><line x1="381.655" y1="103.163" x2="381.655" y2="106.955"/><line x1="379.759" y1="103.163" x2="383.551" y2="106.955"/><line x1="379.759" y1="106.955" x2="383.551" y2="103.163"/>
<line x1="380.212" y1="95.6617" x2="384.004" y2="95.6617"/><line x1="382.108" y1="93.7656" x2="382.108" y2="97.5578"/><line x1="380.212" y1="93.7656" x2="384.004" y2="97.5578"/><line x1="380.212" y1="97.5578" x2="384.004" y2="93.7656"/>
<line x1="380.664" y1="101.5" x2="384.456" y2="101.5"/><line x1="382.56" y1="99.6037" x2="382.56" y2="103.396"/><line x1="380.664" y1="99.6037" x2="384.456" y2="103.396"/><line x1="380.664" y1="103.396" x2="384.456" y2="99.6037"/>
<line x1="381.117" y1="106.113" x2="384.909" y2="106.113"/><line x1="383.013" y1="104.217" x2="383.013" y2="108.009"/><line x1="381.117" y1="104.217" x2="384.909" y2="108.009"/><line x1="381.117" y1="108.009" x2="384.909" y2="104.217"/>
<line x1="381.57" y1="114.944" x2="385.362" y2="114.944"/><line x1="383.466" y1="113.048" x2="383.466" y2="116.84"/><line x1="381.57" y1="113.048" x2="385.362" y2="116.84"/><line x1="381.57" y1="116.84" x2="385.362" y2="113.048"/>
<line x1="382.022" y1="130.033" x2="385.814" y2="130.033"/><line x1="383.918" y1="128.137" x2="383.918" y2="131.929"/><line x1="382.022" y1="128.137" x2="385.814" y2="131.929"/><line x1="382.022" y1="131.929" x2="385.814" y2="128.137"/>
<line x1="382.475" y1="130.766" x2="386.267" y2="130.766"/><line x1="384.371" y1="128.87" x2="384.371" y2="132.662"/><line x1="382.475" y1="128.87" x2="386.267" y2="132.662"/><line x1="382.475" y1="132.662" x2="386.267" y2="128.87"/>
<line x1="382.928" y1="129.254" x2="386.72" y2="129.254"/><line x1="384.824" y1="127.358" x2="384.824" y2="131.15"/><line x1="382.928" y1="127.358" x2="386.72" y2="131.15"/><line x1="382.928" y1="131.15" x2="386.72" y2="127.358"/>
<line x1="383.38" y1="134.393" x2="387.172" y2="134.393"/><line x1="385.276" y1="132.497" x2="385.276" y2="136.289"/><line x1="383.38" y1="132.497" x2="387.172" y2="136.289"/><line x1="383.38" y1="136.289" x2="387.172" y2="132.497"/>
<line x1="383.833" y1="128.274" x2="387.625" y2="128.274"/><line x1="385.729" y1="126.378" x2="385.729" y2="130.171"/><line x1="383.833" y1="126.378" x2="387.625" y2="130.171"/><line x1="383.833" y1="130.171" x2="387.625" y2="126.378"/>
<line x1="384.286" y1="136.507" x2="388.078" y2="136.507"/><line x1="386.182" y1="134.611" x2="386.182" y2="138.403"/><line x1="384.286" y1="134.611" x2="388.078" y2="138.403"/><line x1="384.286" y1="138.403" x2="388.078" y2="134.611"/>
<line x1="384.738" y1="141.878" x2="388.531" y2="141.878"/><line x1="386.634" y1="139.982" x2="386.634" y2="143.774"/><line x1="384.738" y1="139.982" x2="388.531" y2="143.774"/><line x1="384.738" y1="143.774" x2="388.531" y2="139.982"/>
<line x1="385.191" y1="145.623" x2="388.983" y2="145.623"/><line x1="387.087" y1="143.727" x2="387.087" y2="147.519"/><line x1="385.191" y1="143.727" x2="388.983" y2="147.519"/><line x1="385.191" y1="147.519" x2="388.983" y2="143.727"/>
<line x1="385.644" y1="161.961" x2="389.436" y2="161.961"/><line x1="387.54" y1="160.065" x2="387.54" y2="163.857"/><line x1="385.644" y1="160.065" x2="389.436" y2="163.857"/><line x1="385.644" y1="163.857" x2="389.436" y2="160.065"/>
<line x1="386.096" y1="151.927" x2="389.889" y2="151.927"/><line x1="387.992" y1="150.031" x2="387.992" y2="153.823"/><line x1="386.096" y1="150.031" x2="389.889" y2="153.823"/><line x1="386.096" y1="153.823" x2="389.889" y2="150.031"/>
<line x1="386.549" y1="141.347" x2="390.341" y2="141.347"/><line x1="388.445" y1="139.451" x2="388.445" y2="143.243"/><line x1="386.549" y1="139.451" x2="390.341" y2="143.243"/><line x1="386.549" y1="143.243" x2="390.341" y2="139.451"/>
<line x1="387.002" y1="116.197" x2="390.794" y2="116.197"/><line x1="388.898" y1="114.301" x2="388.898" y2="118.093"/><line x1="387.002" y1="114.301" x2="390.794" y2="118.093"/><line x1="387.002" y1="118.093" x2="390.794" y2="114.301"/>
<line x1="387.454" y1="102.147" x2="391.247" y2="102.147"/><line x1="389.351" y1="100.251" x2="389.351" y2="104.044"/><line x1="387.454" y1="100.251" x2="391.247" y2="104.044"/><line x1="387.454" y1="104.044" x2="391.247" y2="100.251"/>
<line x1="387.907" y1="87.776" x2="391.699" y2="87.776"/><line x1="389.803" y1="85.8799" x2="389.803" y2="89.6721"/><line x1="387.907" y1="85.8799" x2="391.699" y2="89.6721"/><line x1="387.907" y1="89.6721" x2="391.699" y2="85.8799"/>
<line x1="388.36" y1="72.0208" x2="392.152" y2="72.0208"/><line x1="390.256" y1="70.1247" x2="390.256" y2="73.9169"/><line x1="388.36" y1="70.1247" x2="392.152" y2="73.9169"/><line x1="388.36" y1="73.9169" x2="392.152" y2="70.1247"/>
<line x1="388.812" y1="90.4389" x2="392.605" y2="90.4389"/><line x1="390.709" y1="88.5429" x2="390.709" y2="92.335"/><line x1="388.812" y1="88.5429" x2="392.605" y2="92.335"/><line x1="388.812" y1="92.335" x2="392.605" y2="88.5429"/>
<line x1="389.265" y1="84.9102" x2="393.057" y2="84.9102"/><line x1="391.161" y1="83.0142" x2="391.161" y2="86.8063"/><line x1="389.265" y1="83.0142" x2="393.057" y2="86.8063"/><line x1="389.265" y1="86.8063" x2="393.057" y2="83.0142"/>
<line x1="389.718" y1="85.4176" x2="393.51" y2="85.4176"/><line x1="391.614" y1="83.5215" x2="391.614" y2="87.3137"/><line x1="389.718" y1="83.5215" x2="393.51" y2="87.3137"/><line x1="389.718" y1="87.3137" x2="393.51" y2="83.5215"/>
<line x1="390.171" y1="93.5513" x2="393.963" y2="93.5513"/><line x1="392.067" y1="91.6552" x2="392.067" y2="95.4473"/><line x1="390.171" y1="91.6552" x2="393.963" y2="95.4473"/><line x1="390.171" y1="95.4473" x2="393.963" y2="91.6552"/>
<line x1="390.623" y1="100.142" x2="394.415" y2="100.142"/><line x1="392.519" y1="98.2459" x2="392.519" y2="102.038"/><line x1="390.623" y1="98.2459" x2="394.415" y2="102.038"/><line x1="390.623" y1="102.038" x2="394.415" y2="98.2459"/>
<line x1="391.076" y1="67.1567" x2="394.868" y2="67.1567"/><line x1="392.972" y1="65.2606" x2="392.972" y2="69.0528"/><line x1="391.076" y1="65.2606" x2="394.868" y2="69.0528"/><line x1="391.076" y1="69.0528" x2="394.868" y2="65.2606"/>
</g>
<g stroke="black" stroke-width="1" fill="none">
<line x1="393.792" y1="54.2742" x2="397.584" y2="54.2742"/><line x1="395.688" y1="52.3781" x2="395.688" y2="56.1703"/><line x1="393.792" y1="52.3781" x2="397.584" y2="56.1703"/><line x1="393.792" y1="56.1703" x2="397.584" y2="52.3781"/>
<line x1="394.245" y1="41.3899" x2="398.037" y2="41.3899"/><line x1="396.141" y1="39.4938" x2="396.141" y2="43.286"/><line x1="394.245" y1="39.4938" x2="398.037" y2="43.286"/><line x1="394.245" y1="43.286" x2="398.037" y2="39.4938"/>
</g>
<path d="M170.704,353.116h 226.342" fill="none" stroke="#0000ff"/>
<path d="M283.875,372.012v -47.2396" fill="none" stroke="#ff0000"/>
<rect x="57.1929" y="330.677" width="113.386" height="41.3346" fill="white"/>
<path d="M57.1929,372.012h 113.386" fill="none" stroke="black"/>
<path d="M170.579,372.012v -41.3346" fill="none" stroke="black"/>
<path d="M170.579,330.677h -113.386" fill="none" stroke="black"/>
<path d="M57.1929,330.677v 41.3346" fill="none" stroke="black"/>
<text xml:space="preserve" x="85.3498" y="354.568" fill="black" font-size="12.3723" font-family="Helvetica">#p.e of PMTs1</text>
<path d="M61.4449,351.344h 19.8425" fill="none" stroke="black"/></svg>
