<?xml version="1.0" standalone="no"?>
<svg width="567.429" height="413.846" viewBox="0 0 567.429 413.846" xmlns="http://www.w3.org/2000/svg" shape-rendering="crispEdges">
<title>
figures/PMTnperes0PMTnpedata190929-01.svg
</title>
<desc>
Creator: ROOT Version 6.18/02
CreationDate: Tue Oct  1 14:32:54 2019</desc>
<defs>
</defs>
<rect x="0.5" y="0" width="566.929" height="413.346" fill="white"/>
<rect x="0.5" y="0" width="566.929" height="276.942" fill="white"/>
<rect x="57.1929" y="27.6942" width="453.543" height="249.245" fill="white"/>
<rect x="57.1929" y="27.6942" width="453.543" height="249.245" fill="none" stroke="black"/>
<rect x="57.1929" y="27.6942" width="453.543" height="249.245" fill="white"/>
<rect x="57.1929" y="27.6942" width="453.543" height="249.245" fill="none" stroke="black"/>
<path d="M57.1929,49.6163h 2.26772v 83.5187h 2.26772v -33.51h 2.26772v -7.52571h 2.26772v 3.99891h 2.26772v 8.05807h 2.26772v -0.620153h 2.26772v -2.0503h 2.26772v 1.03175h 2.26772v -0.401111h 2.26772v -0.722036h 2.26772v 0.574352h 2.26772v
 -0.338534h 2.26772v 0.198496h 2.26772v 0.524772h 2.26772v 0.734175h 2.26772v 0.198163h 2.26772v 0.60561h 2.26772v 1.66351h 2.26772v -0.266792h 2.26772v 1.58519h 2.26772v 0.586872h 2.26772v 1.02396h 2.26772v 0.791681h 2.26772v 2.0437h 2.26772v
 0.733585h 2.26772v 1.42067h 2.26772v 0.87096h 2.26772v 1.6363h 2.26772v 1.0876h 2.26772v 1.08854h 2.26772v 2.43539h 2.26772v 0.334664h 2.26772v 2.51781h 2.26772v 0.126656h 2.26772v 1.75707h 2.26772v 2.7228h 2.26772v 0.134328h 2.26772v 1.82663h
 2.26772v 2.23757h 2.26772v -0.588038h 2.26772v 1.75704h 2.26772v 1.84995h 2.26772v 3.36321h 2.26772v -0.503491h 2.26772v 0.612923h 2.26772v 1.59313h 2.26772v 2.23727h 2.26772v 1.53733h 2.26772v 0.714558h 2.26772v 0.341707h 2.26772v 2.50076h 2.26772v
 -0.866082h 2.26772v 2.35183h 2.26772v 0.782948h 2.26772v 0.123007h 2.26772v 1.07478h 2.26772v 0.994776h 2.26772v 2.516h 2.26772v 1.17474h 2.26772v 2.55997h 2.26772v 0.457716h 2.26772v -2.19754h 2.26772v 4.95661h 2.26772v -2.19673h 2.26772v 2.19673h
 2.26772v -0.313005h 2.26772v 1.06145h 2.26772v 0.439592h 2.26772v 5.82477h 2.26772v -2.33901h 2.26772v 2.63157h 2.26772v 1.68382h 2.26772v -1.8306h 2.26772v 0.294551h 2.26772v 0.754402h 2.26772v 2.78145h 2.26772v -0.855809h 2.26772v -0.497704h
 2.26772v -0.325557h 2.26772v 0.991738h 2.26772v 2.13114h 2.26772v 0.18744h 2.26772v 3.02573h 2.26772v -1.86567h 2.26772v 0.199533h 2.26772v 2.10351h 2.26772v -0.437371h 2.26772v 6.51867h 2.26772v -4.71353h 2.26772v 4.13618h 2.26772v -5.28191h
 4.53543v 5.56866h 2.26772v 3.43366h 2.26772v -2.5499h 2.26772v -0.593165h 2.26772v -0.860344h 2.26772v 6.13456h 2.26772v 0.376516h 2.26772v -6.51107h 2.26772v 4.00341h 2.26772v -1.94003h 2.26772v 6.02287h 2.26772v 1.26147h 2.26772v -0.849095h
 2.26772v 3.13006h 2.26772v -3.13006h 2.26772v 1.28647h 2.26772v 1.84359h 2.26772v -0.475825h 2.26772v 3.57384h 2.26772v 3.61658h 2.26772v -4.16469h 2.26772v 1.11046h 6.80315v 1.17051h 2.26772v -2.81554h 2.26772v 3.42542h 2.26772v 4.07117h 2.26772v
 3.21317h 2.26772v -3.94711h 2.26772v 4.83087h 2.26772v -4.83087h 2.26772v -0.709872h 2.26772v 3.80788h 2.26772v -5.1614h 2.26772v -1.27385h 2.26772v 3.33723h 2.26772v -5.11762h 2.26772v 5.11762h 2.26772v 3.94711h 2.26772v -3.94711h 2.26772v 7.72171h
 2.26772v -15.5155h 2.26772v 13.546h 2.26772v 7.8566h 2.26772v -18.7265h 2.26772v 11.8322h 2.26772v 1.00712h 2.26772v -3.7746h 2.26772v -3.94711h 2.26772v 5.75225h 2.26772v -0.92138h 2.26772v 10.1752h 2.26772v -10.1752h 2.26772v -0.883762h 2.26772v
 1.80514h 2.26772v 10.7474h 2.26772v -9.78509h 2.26772v 4.34435h 2.26772v -5.30669h 2.26772v 1.96946h 2.26772v 3.33723h 2.26772v -4.34435h 2.26772v -1.88372h 2.26772v 5.05756h 2.26772v -2.16672h 2.26772v 3.33723h 2.26772v -5.30669h 2.26772v 5.30669h
 2.26772v 5.44074h 2.26772v -5.44074h 2.26772v 2.5499h 2.26772v 2.89084h 2.26772v -2.89084h 2.26772v -4.83087h 4.53543v 9.32608h 2.26772v 3.61658h 2.26772v -8.1118h 2.26772v -4.83087h 2.26772v -2.06338h 2.26772v 4.34435h 2.26772v -62.3052h 2.26772v
 124.879h 54.4252" fill="none" stroke="#ff0000" stroke-width="2"/>
<rect x="283.965" y="27.6942" width="113.386" height="55.3884" fill="white"/>
<path d="M283.965,83.0826h 113.386" fill="none" stroke="black"/>
<path d="M397.35,83.0826v -55.3884" fill="none" stroke="black"/>
<path d="M397.35,27.6942h -113.386" fill="none" stroke="black"/>
<path d="M283.965,27.6942v 55.3884" fill="none" stroke="black"/>
<text xml:space="preserve" x="292.023" y="37.9217" fill="#ff0000" font-size="12.1875" font-family="Helvetica">npe_PMT-S0-data</text>
<path d="M283.965,41.5413h 113.386" fill="none" stroke="black"/>
<text xml:space="preserve" x="289.179" y="53.0904" fill="#ff0000" font-size="12.1624" font-family="Helvetica">Entries </text>
<text xml:space="preserve" x="348.905" y="52.6163" fill="#ff0000" font-size="12.1624" font-family="Helvetica"> 147626</text>
<text xml:space="preserve" x="289.179" y="66.837" fill="#ff0000" font-size="12.1624" font-family="Helvetica">Mean  </text>
<text xml:space="preserve" x="358.86" y="66.3629" fill="#ff0000" font-size="12.1624" font-family="Helvetica">   5.64</text>
<text xml:space="preserve" x="289.179" y="80.5836" fill="#ff0000" font-size="12.1624" font-family="Helvetica">Std Dev   </text>
<text xml:space="preserve" x="355.542" y="80.1096" fill="#ff0000" font-size="12.1624" font-family="Helvetica">  7.188</text>
<path d="M57.1929,276.939h 453.543" fill="none" stroke="black"/>
<path d="M57.1929,270.293v 6.64661" fill="none" stroke="black"/>
<path d="M72.311,273.616v 3.3233" fill="none" stroke="black"/>
<path d="M87.4291,273.616v 3.3233" fill="none" stroke="black"/>
<path d="M102.547,273.616v 3.3233" fill="none" stroke="black"/>
<path d="M117.665,273.616v 3.3233" fill="none" stroke="black"/>
<path d="M132.783,270.293v 6.64661" fill="none" stroke="black"/>
<path d="M147.902,273.616v 3.3233" fill="none" stroke="black"/>
<path d="M163.02,273.616v 3.3233" fill="none" stroke="black"/>
<path d="M178.138,273.616v 3.3233" fill="none" stroke="black"/>
<path d="M193.256,273.616v 3.3233" fill="none" stroke="black"/>
<path d="M208.374,270.293v 6.64661" fill="none" stroke="black"/>
<path d="M223.492,273.616v 3.3233" fill="none" stroke="black"/>
<path d="M238.61,273.616v 3.3233" fill="none" stroke="black"/>
<path d="M253.728,273.616v 3.3233" fill="none" stroke="black"/>
<path d="M268.846,273.616v 3.3233" fill="none" stroke="black"/>
<path d="M283.965,270.293v 6.64661" fill="none" stroke="black"/>
<path d="M299.083,273.616v 3.3233" fill="none" stroke="black"/>
<path d="M314.201,273.616v 3.3233" fill="none" stroke="black"/>
<path d="M329.319,273.616v 3.3233" fill="none" stroke="black"/>
<path d="M344.437,273.616v 3.3233" fill="none" stroke="black"/>
<path d="M359.555,270.293v 6.64661" fill="none" stroke="black"/>
<path d="M374.673,273.616v 3.3233" fill="none" stroke="black"/>
<path d="M389.791,273.616v 3.3233" fill="none" stroke="black"/>
<path d="M404.909,273.616v 3.3233" fill="none" stroke="black"/>
<path d="M420.028,273.616v 3.3233" fill="none" stroke="black"/>
<path d="M435.146,270.293v 6.64661" fill="none" stroke="black"/>
<path d="M450.264,273.616v 3.3233" fill="none" stroke="black"/>
<path d="M465.382,273.616v 3.3233" fill="none" stroke="black"/>
<path d="M480.5,273.616v 3.3233" fill="none" stroke="black"/>
<path d="M495.618,273.616v 3.3233" fill="none" stroke="black"/>
<path d="M510.736,270.293v 6.64661" fill="none" stroke="black"/>
<text xml:space="preserve" x="54.5384" y="285.835" fill="black" font-size="9.39263" font-family="Helvetica">0</text>
<text xml:space="preserve" x="127.538" y="285.835" fill="black" font-size="9.39263" font-family="Helvetica">10</text>
<text xml:space="preserve" x="202.907" y="285.835" fill="black" font-size="9.39263" font-family="Helvetica">20</text>
<text xml:space="preserve" x="278.75" y="285.835" fill="black" font-size="9.39263" font-family="Helvetica">30</text>
<text xml:space="preserve" x="354.12" y="285.835" fill="black" font-size="9.39263" font-family="Helvetica">40</text>
<text xml:space="preserve" x="429.489" y="285.835" fill="black" font-size="9.39263" font-family="Helvetica">50</text>
<text xml:space="preserve" x="505.332" y="285.835" fill="black" font-size="9.39263" font-family="Helvetica">60</text>
<text xml:space="preserve" x="490.638" y="293.893" fill="black" font-size="9.39263" font-family="Helvetica">n.p.e</text>
<path d="M57.1929,276.939v -249.245" fill="none" stroke="black"/>
<path d="M72.4998,276.939h -15.3069" fill="none" stroke="black"/>
<text xml:space="preserve" x="49.3242" y="280.62" fill="black" font-size="9.39263" font-family="Helvetica">1</text>
<path d="M64.8464,261.933h -7.65346" fill="none" stroke="black"/>
<path d="M64.8464,253.155h -7.65346" fill="none" stroke="black"/>
<path d="M64.8464,246.927h -7.65346" fill="none" stroke="black"/>
<path d="M64.8464,242.096h -7.65346" fill="none" stroke="black"/>
<path d="M64.8464,238.149h -7.65346" fill="none" stroke="black"/>
<path d="M64.8464,234.812h -7.65346" fill="none" stroke="black"/>
<path d="M64.8464,231.921h -7.65346" fill="none" stroke="black"/>
<path d="M64.8464,229.371h -7.65346" fill="none" stroke="black"/>
<path d="M72.4998,227.09h -15.3069" fill="none" stroke="black"/>
<text xml:space="preserve" x="42.6879" y="230.374" fill="black" font-size="9.39263" font-family="Helvetica">10</text>
<path d="M64.8464,212.084h -7.65346" fill="none" stroke="black"/>
<path d="M64.8464,203.306h -7.65346" fill="none" stroke="black"/>
<path d="M64.8464,197.078h -7.65346" fill="none" stroke="black"/>
<path d="M64.8464,192.247h -7.65346" fill="none" stroke="black"/>
<path d="M64.8464,188.3h -7.65346" fill="none" stroke="black"/>
<path d="M64.8464,184.963h -7.65346" fill="none" stroke="black"/>
<path d="M64.8464,182.072h -7.65346" fill="none" stroke="black"/>
<path d="M64.8464,179.522h -7.65346" fill="none" stroke="black"/>
<path d="M72.4998,177.241h -15.3069" fill="none" stroke="black"/>
<text xml:space="preserve" x="49.3242" y="177.284" fill="black" font-size="6.42842" font-family="Helvetica">2</text>
<text xml:space="preserve" x="39.3697" y="181.076" fill="black" font-size="9.39263" font-family="Helvetica">10</text>
<path d="M64.8464,162.235h -7.65346" fill="none" stroke="black"/>
<path d="M64.8464,153.457h -7.65346" fill="none" stroke="black"/>
<path d="M64.8464,147.229h -7.65346" fill="none" stroke="black"/>
<path d="M64.8464,142.398h -7.65346" fill="none" stroke="black"/>
<path d="M64.8464,138.451h -7.65346" fill="none" stroke="black"/>
<path d="M64.8464,135.114h -7.65346" fill="none" stroke="black"/>
<path d="M64.8464,132.223h -7.65346" fill="none" stroke="black"/>
<path d="M64.8464,129.673h -7.65346" fill="none" stroke="black"/>
<path d="M72.4998,127.392h -15.3069" fill="none" stroke="black"/>
<text xml:space="preserve" x="49.3242" y="127.038" fill="black" font-size="6.42842" font-family="Helvetica">3</text>
<text xml:space="preserve" x="39.3697" y="131.304" fill="black" font-size="9.39263" font-family="Helvetica">10</text>
<path d="M64.8464,112.386h -7.65346" fill="none" stroke="black"/>
<path d="M64.8464,103.608h -7.65346" fill="none" stroke="black"/>
<path d="M64.8464,97.3801h -7.65346" fill="none" stroke="black"/>
<path d="M64.8464,92.5493h -7.65346" fill="none" stroke="black"/>
<path d="M64.8464,88.6021h -7.65346" fill="none" stroke="black"/>
<path d="M64.8464,85.2649h -7.65346" fill="none" stroke="black"/>
<path d="M64.8464,82.3741h -7.65346" fill="none" stroke="black"/>
<path d="M64.8464,79.8242h -7.65346" fill="none" stroke="black"/>
<path d="M72.4998,77.5432h -15.3069" fill="none" stroke="black"/>
<text xml:space="preserve" x="49.3242" y="77.7394" fill="black" font-size="6.42842" font-family="Helvetica">4</text>
<text xml:space="preserve" x="39.3697" y="81.5316" fill="black" font-size="9.39263" font-family="Helvetica">10</text>
<path d="M64.8464,62.5372h -7.65346" fill="none" stroke="black"/>
<path d="M64.8464,53.7592h -7.65346" fill="none" stroke="black"/>
<path d="M64.8464,47.5311h -7.65346" fill="none" stroke="black"/>
<path d="M64.8464,42.7002h -7.65346" fill="none" stroke="black"/>
<path d="M64.8464,38.7531h -7.65346" fill="none" stroke="black"/>
<path d="M64.8464,35.4159h -7.65346" fill="none" stroke="black"/>
<path d="M64.8464,32.5251h -7.65346" fill="none" stroke="black"/>
<path d="M64.8464,29.9752h -7.65346" fill="none" stroke="black"/>
<path d="M72.4998,27.6942h -15.3069" fill="none" stroke="black"/>
<text xml:space="preserve" x="49.3242" y="27.4932" fill="black" font-size="6.42842" font-family="Helvetica">5</text>
<text xml:space="preserve" x="39.3697" y="31.7594" fill="black" font-size="9.39263" font-family="Helvetica">10</text>
<rect x="283.965" y="27.6942" width="113.386" height="55.3884" fill="white"/>
<path d="M283.965,83.0826h 113.386" fill="none" stroke="black"/>
<path d="M397.35,83.0826v -55.3884" fill="none" stroke="black"/>
<path d="M397.35,27.6942h -113.386" fill="none" stroke="black"/>
<path d="M283.965,27.6942v 55.3884" fill="none" stroke="black"/>
<text xml:space="preserve" x="292.023" y="37.9217" fill="#ff0000" font-size="12.1875" font-family="Helvetica">npe_PMT-S0-data</text>
<path d="M283.965,41.5413h 113.386" fill="none" stroke="black"/>
<text xml:space="preserve" x="289.179" y="53.0904" fill="#ff0000" font-size="12.1624" font-family="Helvetica">Entries </text>
<text xml:space="preserve" x="348.905" y="52.6163" fill="#ff0000" font-size="12.1624" font-family="Helvetica"> 147626</text>
<text xml:space="preserve" x="289.179" y="66.837" fill="#ff0000" font-size="12.1624" font-family="Helvetica">Mean  </text>
<text xml:space="preserve" x="358.86" y="66.3629" fill="#ff0000" font-size="12.1624" font-family="Helvetica">   5.64</text>
<text xml:space="preserve" x="289.179" y="80.5836" fill="#ff0000" font-size="12.1624" font-family="Helvetica">Std Dev   </text>
<text xml:space="preserve" x="355.542" y="80.1096" fill="#ff0000" font-size="12.1624" font-family="Helvetica">  7.188</text>
<path d="M57.1929,54.6219h 2.26772v 76.7261h 2.26772v -25.2979h 2.26772v -12.4132h 2.26772v 1.10686h 2.26772v 5.38537h 2.26772v 0.160365h 2.26772v -4.11464h 2.26772v 0.460472h 2.26772v 1.06097h 2.26772v 0.387889h 2.26772v 0.913602h 2.26772v -0.1569h
 2.26772v 0.391454h 2.26772v 1.28743h 2.26772v 0.712375h 2.26772v 0.207917h 2.26772v 1.64761h 2.26772v 0.73807h 2.26772v 1.82416h 2.26772v 0.416343h 2.26772v 0.449253h 2.26772v 2.48089h 2.26772v 2.43682h 2.26772v 0.313005h 2.26772v 1.53496h 2.26772v
 1.65216h 2.26772v 0.380789h 2.26772v 0.949954h 2.26772v 2.30688h 2.26772v 1.29088h 2.26772v 0.07658h 2.26772v 1.84053h 2.26772v 2.64407h 2.26772v 0.32327h 2.26772v 1.30289h 2.26772v 1.53874h 2.26772v 0.463692h 2.26772v 0.224346h 2.26772v 2.03184h
 2.26772v 1.17051h 2.26772v 2.19977h 2.26772v 0.174357h 2.26772v 2.01675h 2.26772v 0.915811h 2.26772v 1.5941h 2.26772v 1.14455h 2.26772v -0.0756964h 2.26772v 3.12418h 2.26772v 0.982192h 2.26772v -0.136588h 2.26772v 1.11762h 2.26772v 2.31817h 2.26772v
 -0.211729h 2.26772v -0.468953h 2.26772v 1.99648h 2.26772v 1.52192h 2.26772v 1.76826h 2.26772v -0.520125h 2.26772v 0.985716h 2.26772v 1.53209h 2.26772v 2.12119h 2.26772v -1.23743h 2.26772v 3.58926h 2.26772v 0.630165h 2.26772v -0.362337h 2.26772v
 -0.793744h 2.26772v 4.19095h 2.26772v -1.81355h 2.26772v 2.89084h 2.26772v -1.18213h 2.26772v -0.311504h 2.26772v 4.32145h 2.26772v 1.16352h 2.26772v 0.402163h 2.26772v -1.69118h 2.26772v 5.05098h 2.26772v -1.81778h 2.26772v -0.144811h 2.26772v
 -1.3972h 2.26772v 0.827457h 2.26772v 4.00341h 2.26772v -0.66618h 2.26772v 2.98476h 2.26772v 0.572258h 2.26772v -4.04354h 2.26772v 2.91376h 2.26772v -1.59127h 2.26772v 1.77552h 2.26772v -4.64504h 2.26772v 10.0858h 2.26772v -1.38233h 2.26772v
 -3.30532h 2.26772v 1.38444h 2.26772v 5.8234h 2.26772v -1.04353h 2.26772v -3.30082h 2.26772v 1.12197h 2.26772v -1.55497h 2.26772v 3.99002h 2.26772v 2.16672h 2.26772v 2.72867h 2.26772v 0.325557h 2.26772v -5.47716h 2.26772v 5.1516h 2.26772v -6.62825h
 2.26772v 0.973159h 2.26772v 0.759697h 2.26772v 1.88372h 2.26772v 3.66776h 2.26772v -2.80741h 2.26772v 1.51454h 2.26772v 3.02573h 2.26772v 0.73394h 2.26772v 1.14978h 4.53543v -3.61658h 2.26772v 2.4668h 2.26772v 1.14978h 2.26772v -2.93999h 2.26772v
 2.93999h 2.26772v 2.94715h 2.26772v -7.54054h 2.26772v 8.46192h 2.26772v 0.475825h 2.26772v -2.70968h 2.26772v -3.5184h 2.26772v 6.22807h 2.26772v -3.54244h 2.26772v 2.14523h 2.26772v 5.63491h 2.26772v -3.75119h 2.26772v -0.486518h 2.26772v
 -3.13006h 2.26772v 3.13006h 4.53543v 3.66036h 2.26772v 6.61125h 2.26772v -15.006h 2.26772v 10.1752h 2.26772v -7.28434h 2.26772v 4.3935h 2.26772v 5.5182h 2.26772v -0.687332h 2.26772v -6.39655h 2.26772v 4.45652h 2.26772v -1.78039h 2.26772v 4.40774h
 4.53543v -1.9998h 2.26772v -0.627556h 2.26772v 2.62736h 4.53543v -5.5182h 2.26772v 7.72171h 2.26772v -2.20351h 2.26772v -2.62736h 2.26772v 10.0518h 2.26772v -3.61658h 2.26772v -0.817046h 2.26772v 2.5499h 2.26772v 3.94711h 2.26772v -4.83087h 2.26772v
 4.83087h 2.26772v 2.28097h 2.26772v 2.5499h 2.26772v -8.77798h 2.26772v 3.94711h 2.26772v -5.67996h 2.26772v 10.5108h 2.26772v -3.72041h 2.26772v 2.40794h 2.26772v 5.80769h 2.26772v 1.73286h 2.26772v -14.0847h 2.26772v -55.6733h 2.26772v 123.554h
 54.4252" fill="none" stroke="#006633" stroke-width="2"/>
<rect x="397.35" y="27.6942" width="113.386" height="55.3884" fill="white"/>
<path d="M397.35,83.0826h 113.386" fill="none" stroke="black"/>
<path d="M510.736,83.0826v -55.3884" fill="none" stroke="black"/>
<path d="M510.736,27.6942h -113.386" fill="none" stroke="black"/>
<path d="M397.35,27.6942v 55.3884" fill="none" stroke="black"/>
<text xml:space="preserve" x="407.684" y="37.9217" fill="#006633" font-size="12.1875" font-family="Helvetica">npe_PMT-S0-MC</text>
<path d="M397.35,41.5413h 113.386" fill="none" stroke="black"/>
<text xml:space="preserve" x="402.944" y="53.0904" fill="#006633" font-size="12.1624" font-family="Helvetica">Entries </text>
<text xml:space="preserve" x="462.196" y="52.6163" fill="#006633" font-size="12.1624" font-family="Helvetica"> 147626</text>
<text xml:space="preserve" x="402.944" y="66.837" fill="#006633" font-size="12.1624" font-family="Helvetica">Mean  </text>
<text xml:space="preserve" x="472.151" y="66.3629" fill="#006633" font-size="12.1624" font-family="Helvetica">   6.23</text>
<text xml:space="preserve" x="402.944" y="80.5836" fill="#006633" font-size="12.1624" font-family="Helvetica">Std Dev   </text>
<text xml:space="preserve" x="470.729" y="80.1096" fill="#006633" font-size="12.1624" font-family="Helvetica">  7.761</text>
<rect x="397.35" y="27.6942" width="113.386" height="55.3884" fill="white"/>
<path d="M397.35,83.0826h 113.386" fill="none" stroke="black"/>
<path d="M510.736,83.0826v -55.3884" fill="none" stroke="black"/>
<path d="M510.736,27.6942h -113.386" fill="none" stroke="black"/>
<path d="M397.35,27.6942v 55.3884" fill="none" stroke="black"/>
<text xml:space="preserve" x="407.684" y="37.9217" fill="#006633" font-size="12.1875" font-family="Helvetica">npe_PMT-S0-MC</text>
<path d="M397.35,41.5413h 113.386" fill="none" stroke="black"/>
<text xml:space="preserve" x="402.944" y="53.0904" fill="#006633" font-size="12.1624" font-family="Helvetica">Entries </text>
<text xml:space="preserve" x="462.196" y="52.6163" fill="#006633" font-size="12.1624" font-family="Helvetica"> 147626</text>
<text xml:space="preserve" x="402.944" y="66.837" fill="#006633" font-size="12.1624" font-family="Helvetica">Mean  </text>
<text xml:space="preserve" x="472.151" y="66.3629" fill="#006633" font-size="12.1624" font-family="Helvetica">   6.23</text>
<text xml:space="preserve" x="402.944" y="80.5836" fill="#006633" font-size="12.1624" font-family="Helvetica">Std Dev   </text>
<text xml:space="preserve" x="470.729" y="80.1096" fill="#006633" font-size="12.1624" font-family="Helvetica">  7.761</text>
<rect x="397.35" y="83.0826" width="113.386" height="27.6942" fill="white"/>
<path d="M397.35,110.777h 113.386" fill="none" stroke="black"/>
<path d="M510.736,110.777v -27.6942" fill="none" stroke="black"/>
<path d="M510.736,83.0826h -113.386" fill="none" stroke="black"/>
<path d="M397.35,83.0826v 27.6942" fill="none" stroke="black"/>
<text xml:space="preserve" x="425.697" y="92.9081" fill="black" font-size="11.372" font-family="Helvetica">Data</text>
<path d="M401.602,90.0062h 19.8425" fill="none" stroke="#ff0000" stroke-width="2"/>
<text xml:space="preserve" x="425.697" y="106.655" fill="black" font-size="11.372" font-family="Helvetica">MC by rat</text>
<path d="M401.602,103.853h 19.8425" fill="none" stroke="#006633" stroke-width="2"/>
<rect x="0.5" y="276.942" width="566.929" height="136.404" fill="white"/>
<rect x="57.1929" y="276.943" width="453.543" height="95.4816" fill="white"/>
<rect x="57.1929" y="276.943" width="453.543" height="95.4816" fill="none" stroke="black"/>
<rect x="57.1929" y="276.943" width="453.543" height="95.4816" fill="white"/>
<rect x="57.1929" y="276.943" width="453.543" height="95.4816" fill="none" stroke="black"/>
<path d="M57.1929,372.425h 453.543" fill="none" stroke="black"/>
<path d="M57.1929,369.151v 3.2737" fill="none" stroke="black"/>
<path d="M72.311,370.788v 1.63685" fill="none" stroke="black"/>
<path d="M87.4291,370.788v 1.63685" fill="none" stroke="black"/>
<path d="M102.547,370.788v 1.63685" fill="none" stroke="black"/>
<path d="M117.665,370.788v 1.63685" fill="none" stroke="black"/>
<path d="M132.783,369.151v 3.2737" fill="none" stroke="black"/>
<path d="M147.902,370.788v 1.63685" fill="none" stroke="black"/>
<path d="M163.02,370.788v 1.63685" fill="none" stroke="black"/>
<path d="M178.138,370.788v 1.63685" fill="none" stroke="black"/>
<path d="M193.256,370.788v 1.63685" fill="none" stroke="black"/>
<path d="M208.374,369.151v 3.2737" fill="none" stroke="black"/>
<path d="M223.492,370.788v 1.63685" fill="none" stroke="black"/>
<path d="M238.61,370.788v 1.63685" fill="none" stroke="black"/>
<path d="M253.728,370.788v 1.63685" fill="none" stroke="black"/>
<path d="M268.846,370.788v 1.63685" fill="none" stroke="black"/>
<path d="M283.965,369.151v 3.2737" fill="none" stroke="black"/>
<path d="M299.083,370.788v 1.63685" fill="none" stroke="black"/>
<path d="M314.201,370.788v 1.63685" fill="none" stroke="black"/>
<path d="M329.319,370.788v 1.63685" fill="none" stroke="black"/>
<path d="M344.437,370.788v 1.63685" fill="none" stroke="black"/>
<path d="M359.555,369.151v 3.2737" fill="none" stroke="black"/>
<path d="M374.673,370.788v 1.63685" fill="none" stroke="black"/>
<path d="M389.791,370.788v 1.63685" fill="none" stroke="black"/>
<path d="M404.909,370.788v 1.63685" fill="none" stroke="black"/>
<path d="M420.028,370.788v 1.63685" fill="none" stroke="black"/>
<path d="M435.146,369.151v 3.2737" fill="none" stroke="black"/>
<path d="M450.264,370.788v 1.63685" fill="none" stroke="black"/>
<path d="M465.382,370.788v 1.63685" fill="none" stroke="black"/>
<path d="M480.5,370.788v 1.63685" fill="none" stroke="black"/>
<path d="M495.618,370.788v 1.63685" fill="none" stroke="black"/>
<path d="M510.736,369.151v 3.2737" fill="none" stroke="black"/>
<text xml:space="preserve" x="54.5384" y="380.639" fill="black" font-size="9.25991" font-family="Helvetica">0</text>
<text xml:space="preserve" x="127.538" y="380.639" fill="black" font-size="9.25991" font-family="Helvetica">10</text>
<text xml:space="preserve" x="202.907" y="380.639" fill="black" font-size="9.25991" font-family="Helvetica">20</text>
<text xml:space="preserve" x="278.75" y="380.639" fill="black" font-size="9.25991" font-family="Helvetica">30</text>
<text xml:space="preserve" x="354.12" y="380.639" fill="black" font-size="9.25991" font-family="Helvetica">40</text>
<text xml:space="preserve" x="429.489" y="380.639" fill="black" font-size="9.25991" font-family="Helvetica">50</text>
<text xml:space="preserve" x="505.332" y="380.639" fill="black" font-size="9.25991" font-family="Helvetica">60</text>
<text xml:space="preserve" x="443.71" y="393.437" fill="black" font-size="11.137" font-family="Helvetica">number of p.e</text>
<path d="M57.1929,372.425v -95.4816" fill="none" stroke="black"/>
<path d="M69.0983,363.03h -11.9053" fill="none" stroke="black"/>
<path d="M63.1456,359.392h -5.95267" fill="none" stroke="black"/>
<path d="M63.1456,355.753h -5.95267" fill="none" stroke="black"/>
<path d="M63.1456,352.114h -5.95267" fill="none" stroke="black"/>
<path d="M63.1456,348.475h -5.95267" fill="none" stroke="black"/>
<path d="M69.0983,344.837h -11.9053" fill="none" stroke="black"/>
<path d="M63.1456,341.198h -5.95267" fill="none" stroke="black"/>
<path d="M63.1456,337.559h -5.95267" fill="none" stroke="black"/>
<path d="M63.1456,333.92h -5.95267" fill="none" stroke="black"/>
<path d="M63.1456,330.282h -5.95267" fill="none" stroke="black"/>
<path d="M69.0983,326.643h -11.9053" fill="none" stroke="black"/>
<path d="M63.1456,323.004h -5.95267" fill="none" stroke="black"/>
<path d="M63.1456,319.365h -5.95267" fill="none" stroke="black"/>
<path d="M63.1456,315.727h -5.95267" fill="none" stroke="black"/>
<path d="M63.1456,312.088h -5.95267" fill="none" stroke="black"/>
<path d="M69.0983,308.449h -11.9053" fill="none" stroke="black"/>
<path d="M63.1456,304.81h -5.95267" fill="none" stroke="black"/>
<path d="M63.1456,301.172h -5.95267" fill="none" stroke="black"/>
<path d="M63.1456,297.533h -5.95267" fill="none" stroke="black"/>
<path d="M63.1456,293.894h -5.95267" fill="none" stroke="black"/>
<path d="M69.0983,290.255h -11.9053" fill="none" stroke="black"/>
<path d="M69.0983,363.03h -11.9053" fill="none" stroke="black"/>
<path d="M63.1456,366.669h -5.95267" fill="none" stroke="black"/>
<path d="M63.1456,370.308h -5.95267" fill="none" stroke="black"/>
<path d="M69.0983,290.255h -11.9053" fill="none" stroke="black"/>
<path d="M63.1456,286.617h -5.95267" fill="none" stroke="black"/>
<path d="M63.1456,282.978h -5.95267" fill="none" stroke="black"/>
<path d="M63.1456,279.339h -5.95267" fill="none" stroke="black"/>
<text xml:space="preserve" x="44.1099" y="365.944" fill="black" font-size="9.25991" font-family="Helvetica">30</text>
<text xml:space="preserve" x="38.8957" y="365.944" fill="black" font-size="9.25991" font-family="Times">&#8722;</text>
<text xml:space="preserve" x="44.1099" y="347.931" fill="black" font-size="9.25991" font-family="Helvetica">20</text>
<text xml:space="preserve" x="38.8957" y="347.931" fill="black" font-size="9.25991" font-family="Times">&#8722;</text>
<text xml:space="preserve" x="44.1099" y="329.919" fill="black" font-size="9.25991" font-family="Helvetica">10</text>
<text xml:space="preserve" x="38.8957" y="329.919" fill="black" font-size="9.25991" font-family="Times">&#8722;</text>
<text xml:space="preserve" x="49.3242" y="311.432" fill="black" font-size="9.25991" font-family="Helvetica">0</text>
<text xml:space="preserve" x="44.1099" y="293.419" fill="black" font-size="9.25991" font-family="Helvetica">10</text>
<g transform="rotate(-90,35.5776,283.465)">
<text xml:space="preserve" x="35.5776" y="283.465" fill="black" font-size="11.137" font-family="Times">&#0963;</text>
</g>
<g transform="rotate(-90,35.5776,343.665)">
<text xml:space="preserve" x="35.5776" y="343.665" fill="black" font-size="11.137" font-family="Helvetica">(MC-DATA)/</text>
</g>
<g stroke="black" stroke-width="1" fill="none">
<line x1="56.1929" y1="308.449" x2="57.1929" y2="308.449"/>
<line x1="58.4606" y1="361.9" x2="59.4606" y2="361.9"/>
<line x1="60.7284" y1="305.447" x2="61.7284" y2="305.447"/>
<line x1="62.9961" y1="329.698" x2="63.9961" y2="329.698"/>
<line x1="65.2638" y1="314.862" x2="66.2638" y2="314.862"/>
<line x1="67.5315" y1="303.124" x2="68.5315" y2="303.124"/>
<line x1="69.7992" y1="294.9" x2="70.7992" y2="294.9"/>
<line x1="72.0669" y1="297.465" x2="73.0669" y2="297.465"/>
<line x1="74.3346" y1="289.17" x2="75.3346" y2="289.17"/>
<line x1="76.6024" y1="287.467" x2="77.6024" y2="287.467"/>
<line x1="78.8701" y1="292.792" x2="79.8701" y2="292.792"/>
<line x1="81.1378" y1="296.674" x2="82.1378" y2="296.674"/>
<line x1="83.4055" y1="298.06" x2="84.4055" y2="298.06"/>
<line x1="85.6732" y1="298.638" x2="86.6732" y2="298.638"/>
<line x1="87.9409" y1="299.379" x2="88.9409" y2="299.379"/>
<line x1="90.2087" y1="302.175" x2="91.2087" y2="302.175"/>
<line x1="92.4764" y1="302.205" x2="93.4764" y2="302.205"/>
<line x1="94.7441" y1="302.267" x2="95.7441" y2="302.267"/>
<line x1="97.0118" y1="305.826" x2="98.0118" y2="305.826"/>
<line x1="99.2795" y1="302.961" x2="100.28" y2="302.961"/>
<line x1="101.547" y1="309.577" x2="102.547" y2="309.577"/>
<line x1="103.815" y1="305.99" x2="104.815" y2="305.99"/>
<line x1="106.083" y1="305.605" x2="107.083" y2="305.605"/>
<line x1="108.35" y1="309.93" x2="109.35" y2="309.93"/>
<line x1="110.618" y1="314.457" x2="111.618" y2="314.457"/>
<line x1="112.886" y1="309.606" x2="113.886" y2="309.606"/>
<line x1="115.154" y1="311.691" x2="116.154" y2="311.691"/>
<line x1="117.421" y1="312.168" x2="118.421" y2="312.168"/>
<line x1="119.689" y1="310.884" x2="120.689" y2="310.884"/>
<line x1="121.957" y1="309.139" x2="122.957" y2="309.139"/>
<line x1="124.224" y1="311.97" x2="125.224" y2="311.97"/>
<line x1="126.492" y1="312.336" x2="127.492" y2="312.336"/>
<line x1="128.76" y1="307" x2="129.76" y2="307"/>
<line x1="131.028" y1="310.289" x2="132.028" y2="310.289"/>
<line x1="133.295" y1="310.44" x2="134.295" y2="310.44"/>
<line x1="135.563" y1="310.827" x2="136.563" y2="310.827"/>
<line x1="137.831" y1="309.857" x2="138.831" y2="309.857"/>
<line x1="140.098" y1="307.586" x2="141.098" y2="307.586"/>
<line x1="142.366" y1="308.201" x2="143.366" y2="308.201"/>
<line x1="144.634" y1="305.316" x2="145.634" y2="305.316"/>
<line x1="146.902" y1="305.113" x2="147.902" y2="305.113"/>
<line x1="149.169" y1="308.136" x2="150.169" y2="308.136"/>
<line x1="151.437" y1="308.871" x2="152.437" y2="308.871"/>
<line x1="153.705" y1="306.193" x2="154.705" y2="306.193"/>
<line x1="155.972" y1="304.316" x2="156.972" y2="304.316"/>
<line x1="158.24" y1="306.448" x2="159.24" y2="306.448"/>
<line x1="160.508" y1="307.923" x2="161.508" y2="307.923"/>
<line x1="162.776" y1="307.308" x2="163.776" y2="307.308"/>
<line x1="165.043" y1="304.164" x2="166.043" y2="304.164"/>
<line x1="167.311" y1="306.451" x2="168.311" y2="306.451"/>
<line x1="169.579" y1="306.831" x2="170.579" y2="306.831"/>
<line x1="171.846" y1="306.226" x2="172.846" y2="306.226"/>
<line x1="174.114" y1="304.631" x2="175.114" y2="304.631"/>
<line x1="176.382" y1="308.513" x2="177.382" y2="308.513"/>
<line x1="178.65" y1="305.512" x2="179.65" y2="305.512"/>
<line x1="180.917" y1="304.065" x2="181.917" y2="304.065"/>
<line x1="183.185" y1="306.3" x2="184.185" y2="306.3"/>
<line x1="185.453" y1="306.857" x2="186.453" y2="306.857"/>
<line x1="187.72" y1="307.734" x2="188.72" y2="307.734"/>
<line x1="189.988" y1="304.58" x2="190.988" y2="304.58"/>
<line x1="192.256" y1="304.483" x2="193.256" y2="304.483"/>
<line x1="194.524" y1="303.669" x2="195.524" y2="303.669"/>
<line x1="196.791" y1="305.376" x2="197.791" y2="305.376"/>
<line x1="199.059" y1="306.193" x2="200.059" y2="306.193"/>
<line x1="201.327" y1="305.19" x2="202.327" y2="305.19"/>
<line x1="203.594" y1="307.69" x2="204.594" y2="307.69"/>
<line x1="205.862" y1="305.437" x2="206.862" y2="305.437"/>
<line x1="208.13" y1="304.967" x2="209.13" y2="304.967"/>
<line x1="210.398" y1="307.816" x2="211.398" y2="307.816"/>
<line x1="212.665" y1="305.872" x2="213.665" y2="305.872"/>
<line x1="214.933" y1="303.845" x2="215.933" y2="303.845"/>
<line x1="217.201" y1="304.587" x2="218.201" y2="304.587"/>
<line x1="219.469" y1="302.383" x2="220.469" y2="302.383"/>
<line x1="221.736" y1="304.717" x2="222.736" y2="304.717"/>
<line x1="224.004" y1="306.902" x2="225.004" y2="306.902"/>
<line x1="226.272" y1="306.993" x2="227.272" y2="306.993"/>
<line x1="228.539" y1="305.164" x2="229.539" y2="305.164"/>
<line x1="230.807" y1="306.985" x2="231.807" y2="306.985"/>
<line x1="233.075" y1="306.267" x2="234.075" y2="306.267"/>
<line x1="235.343" y1="306.499" x2="236.343" y2="306.499"/>
<line x1="237.61" y1="305.69" x2="238.61" y2="305.69"/>
<line x1="239.878" y1="305.632" x2="240.878" y2="305.632"/>
<line x1="242.146" y1="307.052" x2="243.146" y2="307.052"/>
<line x1="244.413" y1="306.481" x2="245.413" y2="306.481"/>
<line x1="246.681" y1="306.588" x2="247.681" y2="306.588"/>
<line x1="248.949" y1="308.082" x2="249.949" y2="308.082"/>
<line x1="251.217" y1="305.298" x2="252.217" y2="305.298"/>
<line x1="253.484" y1="305.973" x2="254.484" y2="305.973"/>
<line x1="255.752" y1="305.189" x2="256.752" y2="305.189"/>
<line x1="258.02" y1="302.788" x2="259.02" y2="302.788"/>
<line x1="260.287" y1="302.186" x2="261.287" y2="302.186"/>
<line x1="262.555" y1="306.337" x2="263.555" y2="306.337"/>
<line x1="264.823" y1="308.449" x2="265.823" y2="308.449"/>
<line x1="267.091" y1="306.44" x2="268.091" y2="306.44"/>
<line x1="269.358" y1="304.257" x2="270.358" y2="304.257"/>
<line x1="271.626" y1="305.881" x2="272.626" y2="305.881"/>
<line x1="273.894" y1="306.562" x2="274.894" y2="306.562"/>
<line x1="276.161" y1="304.991" x2="277.161" y2="304.991"/>
<line x1="278.429" y1="306.084" x2="279.429" y2="306.084"/>
<line x1="280.697" y1="302.245" x2="281.697" y2="302.245"/>
<line x1="282.965" y1="304.312" x2="283.965" y2="304.312"/>
<line x1="285.232" y1="308.596" x2="286.232" y2="308.596"/>
<line x1="287.5" y1="307.972" x2="288.5" y2="307.972"/>
<line x1="289.768" y1="309.073" x2="290.768" y2="309.073"/>
<line x1="292.035" y1="303.493" x2="293.035" y2="303.493"/>
<line x1="294.303" y1="305.59" x2="295.303" y2="305.59"/>
<line x1="296.571" y1="302.516" x2="297.571" y2="302.516"/>
<line x1="298.839" y1="301.798" x2="299.839" y2="301.798"/>
<line x1="301.106" y1="303.457" x2="302.106" y2="303.457"/>
<line x1="303.374" y1="303.911" x2="304.374" y2="303.911"/>
<line x1="305.642" y1="304.98" x2="306.642" y2="304.98"/>
<line x1="307.909" y1="303.799" x2="308.909" y2="303.799"/>
<line x1="310.177" y1="303.197" x2="311.177" y2="303.197"/>
<line x1="312.445" y1="303.355" x2="313.445" y2="303.355"/>
<line x1="314.713" y1="305.141" x2="315.713" y2="305.141"/>
<line x1="316.98" y1="305.242" x2="317.98" y2="305.242"/>
<line x1="319.248" y1="305.242" x2="320.248" y2="305.242"/>
<line x1="321.516" y1="303.609" x2="322.516" y2="303.609"/>
<line x1="323.783" y1="304.321" x2="324.783" y2="304.321"/>
<line x1="326.051" y1="305.85" x2="327.051" y2="305.85"/>
<line x1="328.319" y1="303.303" x2="329.319" y2="303.303"/>
<line x1="330.587" y1="303.288" x2="331.587" y2="303.288"/>
<line x1="332.854" y1="303.552" x2="333.854" y2="303.552"/>
<line x1="335.122" y1="301.465" x2="336.122" y2="301.465"/>
<line x1="337.39" y1="303.665" x2="338.39" y2="303.665"/>
<line x1="339.657" y1="305.298" x2="340.657" y2="305.298"/>
<line x1="341.925" y1="304.431" x2="342.925" y2="304.431"/>
<line x1="344.193" y1="301.779" x2="345.193" y2="301.779"/>
<line x1="346.461" y1="305.977" x2="347.461" y2="305.977"/>
<line x1="348.728" y1="304.958" x2="349.728" y2="304.958"/>
<line x1="350.996" y1="304.741" x2="351.996" y2="304.741"/>
<line x1="353.264" y1="308.659" x2="354.264" y2="308.659"/>
<line x1="355.531" y1="305.488" x2="356.531" y2="305.488"/>
<line x1="357.799" y1="304.1" x2="358.799" y2="304.1"/>
<line x1="360.067" y1="304.029" x2="361.067" y2="304.029"/>
<line x1="362.335" y1="303.074" x2="363.335" y2="303.074"/>
<line x1="364.602" y1="308.061" x2="365.602" y2="308.061"/>
<line x1="366.87" y1="304.955" x2="367.87" y2="304.955"/>
<line x1="369.138" y1="305.158" x2="370.138" y2="305.158"/>
<line x1="371.406" y1="305.071" x2="372.406" y2="305.071"/>
<line x1="373.673" y1="305.316" x2="374.673" y2="305.316"/>
<line x1="375.941" y1="302.36" x2="376.941" y2="302.36"/>
<line x1="378.209" y1="305.064" x2="379.209" y2="305.064"/>
<line x1="380.476" y1="308.216" x2="381.476" y2="308.216"/>
<line x1="382.744" y1="306.241" x2="383.744" y2="306.241"/>
<line x1="385.012" y1="304.226" x2="386.012" y2="304.226"/>
<line x1="387.28" y1="303.303" x2="388.28" y2="303.303"/>
<line x1="389.547" y1="305.214" x2="390.547" y2="305.214"/>
<line x1="391.815" y1="306.99" x2="392.815" y2="306.99"/>
<line x1="394.083" y1="306.469" x2="395.083" y2="306.469"/>
<line x1="396.35" y1="303.197" x2="397.35" y2="303.197"/>
<line x1="398.618" y1="305.316" x2="399.618" y2="305.316"/>
<line x1="400.886" y1="305.07" x2="401.886" y2="305.07"/>
<line x1="403.154" y1="306.469" x2="404.154" y2="306.469"/>
<line x1="405.421" y1="304.023" x2="406.421" y2="304.023"/>
<line x1="407.689" y1="305.767" x2="408.689" y2="305.767"/>
<line x1="409.957" y1="306.2" x2="410.957" y2="306.2"/>
<line x1="412.224" y1="305.844" x2="413.224" y2="305.844"/>
<line x1="414.492" y1="307.597" x2="415.492" y2="307.597"/>
<line x1="416.76" y1="307.122" x2="417.76" y2="307.122"/>
<line x1="419.028" y1="306.008" x2="420.028" y2="306.008"/>
<line x1="421.295" y1="308.184" x2="422.295" y2="308.184"/>
<line x1="423.563" y1="307.859" x2="424.563" y2="307.859"/>
<line x1="425.831" y1="305.245" x2="426.831" y2="305.245"/>
<line x1="428.098" y1="307.859" x2="429.098" y2="307.859"/>
<line x1="430.366" y1="307.825" x2="431.366" y2="307.825"/>
<line x1="432.634" y1="307.785" x2="433.634" y2="307.785"/>
<line x1="434.902" y1="306.148" x2="435.902" y2="306.148"/>
<line x1="437.169" y1="308.449" x2="438.169" y2="308.449"/>
<line x1="439.437" y1="306.84" x2="440.437" y2="306.84"/>
<line x1="441.705" y1="307.436" x2="442.705" y2="307.436"/>
<line x1="443.972" y1="305.792" x2="444.972" y2="305.792"/>
<line x1="446.24" y1="308.132" x2="447.24" y2="308.132"/>
<line x1="448.508" y1="310.666" x2="449.508" y2="310.666"/>
<line x1="450.776" y1="311.569" x2="451.776" y2="311.569"/>
<line x1="453.043" y1="307.028" x2="454.043" y2="307.028"/>
<line x1="455.311" y1="309.836" x2="456.311" y2="309.836"/>
</g>
<path d="M59.4606,361.9v -2.5687" fill="none" stroke="black"/>
<path d="M58.5126,359.331h 1.89608" fill="none" stroke="black"/>
<path d="M59.4606,361.9v 2.5687" fill="none" stroke="black"/>
<path d="M58.5126,364.468h 1.89608" fill="none" stroke="black"/>
<path d="M61.7284,305.447v -2.57243" fill="none" stroke="black"/>
<path d="M60.7803,302.875h 1.89608" fill="none" stroke="black"/>
<path d="M61.7284,305.447v 2.57243" fill="none" stroke="black"/>
<path d="M60.7803,308.02h 1.89608" fill="none" stroke="black"/>
<path d="M63.9961,329.698v -2.56595" fill="none" stroke="black"/>
<path d="M63.048,327.133h 1.89608" fill="none" stroke="black"/>
<path d="M63.9961,329.698v 2.56595" fill="none" stroke="black"/>
<path d="M63.048,332.264h 1.89608" fill="none" stroke="black"/>
<path d="M66.2638,314.862v -2.57257" fill="none" stroke="black"/>
<path d="M65.3157,312.289h 1.89608" fill="none" stroke="black"/>
<path d="M66.2638,314.862v 2.57257" fill="none" stroke="black"/>
<path d="M65.3157,317.435h 1.89608" fill="none" stroke="black"/>
<path d="M68.5315,303.124v -2.57266" fill="none" stroke="black"/>
<path d="M67.5835,300.551h 1.89608" fill="none" stroke="black"/>
<path d="M68.5315,303.124v 2.57266" fill="none" stroke="black"/>
<path d="M67.5835,305.696h 1.89608" fill="none" stroke="black"/>
<path d="M70.7992,294.9v -2.5702" fill="none" stroke="black"/>
<path d="M69.8512,292.33h 1.89608" fill="none" stroke="black"/>
<path d="M70.7992,294.9v 2.5702" fill="none" stroke="black"/>
<path d="M69.8512,297.47h 1.89608" fill="none" stroke="black"/>
<path d="M73.0669,297.465v -2.57117" fill="none" stroke="black"/>
<path d="M72.1189,294.894h 1.89608" fill="none" stroke="black"/>
<path d="M73.0669,297.465v 2.57117" fill="none" stroke="black"/>
<path d="M72.1189,300.036h 1.89608" fill="none" stroke="black"/>
<path d="M75.3346,289.17v -2.56816" fill="none" stroke="black"/>
<path d="M74.3866,286.602h 1.89608" fill="none" stroke="black"/>
<path d="M75.3346,289.17v 2.56816" fill="none" stroke="black"/>
<path d="M74.3866,291.738h 1.89608" fill="none" stroke="black"/>
<path d="M77.6024,287.467v -2.56708" fill="none" stroke="black"/>
<path d="M76.6543,284.9h 1.89608" fill="none" stroke="black"/>
<path d="M77.6024,287.467v 2.56708" fill="none" stroke="black"/>
<path d="M76.6543,290.034h 1.89608" fill="none" stroke="black"/>
<path d="M79.8701,292.792v -2.56964" fill="none" stroke="black"/>
<path d="M78.922,290.222h 1.89608" fill="none" stroke="black"/>
<path d="M79.8701,292.792v 2.56964" fill="none" stroke="black"/>
<path d="M78.922,295.362h 1.89608" fill="none" stroke="black"/>
<path d="M82.1378,296.674v -2.5711" fill="none" stroke="black"/>
<path d="M81.1898,294.103h 1.89608" fill="none" stroke="black"/>
<path d="M82.1378,296.674v 2.5711" fill="none" stroke="black"/>
<path d="M81.1898,299.245h 1.89608" fill="none" stroke="black"/>
<path d="M84.4055,298.06v -2.57147" fill="none" stroke="black"/>
<path d="M83.4575,295.488h 1.89608" fill="none" stroke="black"/>
<path d="M84.4055,298.06v 2.57147" fill="none" stroke="black"/>
<path d="M83.4575,300.631h 1.89608" fill="none" stroke="black"/>
<path d="M86.6732,298.638v -2.57165" fill="none" stroke="black"/>
<path d="M85.7252,296.067h 1.89608" fill="none" stroke="black"/>
<path d="M86.6732,298.638v 2.57165" fill="none" stroke="black"/>
<path d="M85.7252,301.21h 1.89608" fill="none" stroke="black"/>
<path d="M88.9409,299.379v -2.57182" fill="none" stroke="black"/>
<path d="M87.9929,296.807h 1.89608" fill="none" stroke="black"/>
<path d="M88.9409,299.379v 2.57182" fill="none" stroke="black"/>
<path d="M87.9929,301.95h 1.89608" fill="none" stroke="black"/>
<path d="M91.2087,302.175v -2.5724" fill="none" stroke="black"/>
<path d="M90.2606,299.602h 1.89608" fill="none" stroke="black"/>
<path d="M91.2087,302.175v 2.5724" fill="none" stroke="black"/>
<path d="M90.2606,304.747h 1.89608" fill="none" stroke="black"/>
<path d="M93.4764,302.205v -2.57239" fill="none" stroke="black"/>
<path d="M92.5283,299.633h 1.89608" fill="none" stroke="black"/>
<path d="M93.4764,302.205v 2.57239" fill="none" stroke="black"/>
<path d="M92.5283,304.778h 1.89608" fill="none" stroke="black"/>
<path d="M95.7441,302.267v -2.57239" fill="none" stroke="black"/>
<path d="M94.7961,299.695h 1.89608" fill="none" stroke="black"/>
<path d="M95.7441,302.267v 2.57239" fill="none" stroke="black"/>
<path d="M94.7961,304.84h 1.89608" fill="none" stroke="black"/>
<path d="M98.0118,305.826v -2.57287" fill="none" stroke="black"/>
<path d="M97.0638,303.253h 1.89608" fill="none" stroke="black"/>
<path d="M98.0118,305.826v 2.57287" fill="none" stroke="black"/>
<path d="M97.0638,308.399h 1.89608" fill="none" stroke="black"/>
<path d="M100.28,302.961v -2.57247" fill="none" stroke="black"/>
<path d="M99.3315,300.388h 1.89608" fill="none" stroke="black"/>
<path d="M100.28,302.961v 2.57247" fill="none" stroke="black"/>
<path d="M99.3315,305.533h 1.89608" fill="none" stroke="black"/>
<path d="M102.547,309.577v -2.57296" fill="none" stroke="black"/>
<path d="M101.599,307.004h 1.89608" fill="none" stroke="black"/>
<path d="M102.547,309.577v 2.57296" fill="none" stroke="black"/>
<path d="M101.599,312.15h 1.89608" fill="none" stroke="black"/>
<path d="M104.815,305.99v -2.57287" fill="none" stroke="black"/>
<path d="M103.867,303.417h 1.89608" fill="none" stroke="black"/>
<path d="M104.815,305.99v 2.57287" fill="none" stroke="black"/>
<path d="M103.867,308.563h 1.89608" fill="none" stroke="black"/>
<path d="M107.083,305.605v -2.57283" fill="none" stroke="black"/>
<path d="M106.135,303.032h 1.89608" fill="none" stroke="black"/>
<path d="M107.083,305.605v 2.57283" fill="none" stroke="black"/>
<path d="M106.135,308.178h 1.89608" fill="none" stroke="black"/>
<path d="M109.35,309.93v -2.57293" fill="none" stroke="black"/>
<path d="M108.402,307.357h 1.89608" fill="none" stroke="black"/>
<path d="M109.35,309.93v 2.57293" fill="none" stroke="black"/>
<path d="M108.402,312.503h 1.89608" fill="none" stroke="black"/>
<path d="M111.618,314.457v -2.57218" fill="none" stroke="black"/>
<path d="M110.67,311.884h 1.89608" fill="none" stroke="black"/>
<path d="M111.618,314.457v 2.57218" fill="none" stroke="black"/>
<path d="M110.67,317.029h 1.89608" fill="none" stroke="black"/>
<path d="M113.886,309.606v -2.57295" fill="none" stroke="black"/>
<path d="M112.938,307.033h 1.89608" fill="none" stroke="black"/>
<path d="M113.886,309.606v 2.57295" fill="none" stroke="black"/>
<path d="M112.938,312.179h 1.89608" fill="none" stroke="black"/>
<path d="M116.154,311.691v -2.57272" fill="none" stroke="black"/>
<path d="M115.206,309.119h 1.89608" fill="none" stroke="black"/>
<path d="M116.154,311.691v 2.57272" fill="none" stroke="black"/>
<path d="M115.206,314.264h 1.89608" fill="none" stroke="black"/>
<path d="M118.421,312.168v -2.57261" fill="none" stroke="black"/>
<path d="M117.473,309.595h 1.89608" fill="none" stroke="black"/>
<path d="M118.421,312.168v 2.57261" fill="none" stroke="black"/>
<path d="M117.473,314.741h 1.89608" fill="none" stroke="black"/>
<path d="M120.689,310.884v -2.57282" fill="none" stroke="black"/>
<path d="M119.741,308.311h 1.89608" fill="none" stroke="black"/>
<path d="M120.689,310.884v 2.57282" fill="none" stroke="black"/>
<path d="M119.741,313.457h 1.89608" fill="none" stroke="black"/>
<path d="M122.957,309.139v -2.57296" fill="none" stroke="black"/>
<path d="M122.009,306.566h 1.89608" fill="none" stroke="black"/>
<path d="M122.957,309.139v 2.57296" fill="none" stroke="black"/>
<path d="M122.009,311.712h 1.89608" fill="none" stroke="black"/>
<path d="M125.224,311.97v -2.57259" fill="none" stroke="black"/>
<path d="M124.276,309.398h 1.89608" fill="none" stroke="black"/>
<path d="M125.224,311.97v 2.57259" fill="none" stroke="black"/>
<path d="M124.276,314.543h 1.89608" fill="none" stroke="black"/>
<path d="M127.492,312.336v -2.57248" fill="none" stroke="black"/>
<path d="M126.544,309.764h 1.89608" fill="none" stroke="black"/>
<path d="M127.492,312.336v 2.57248" fill="none" stroke="black"/>
<path d="M126.544,314.909h 1.89608" fill="none" stroke="black"/>
<path d="M129.76,307v -2.5729" fill="none" stroke="black"/>
<path d="M128.812,304.427h 1.89608" fill="none" stroke="black"/>
<path d="M129.76,307v 2.5729" fill="none" stroke="black"/>
<path d="M128.812,309.573h 1.89608" fill="none" stroke="black"/>
<path d="M132.028,310.289v -2.57285" fill="none" stroke="black"/>
<path d="M131.08,307.716h 1.89608" fill="none" stroke="black"/>
<path d="M132.028,310.289v 2.57285" fill="none" stroke="black"/>
<path d="M131.08,312.862h 1.89608" fill="none" stroke="black"/>
<path d="M134.295,310.44v -2.57281" fill="none" stroke="black"/>
<path d="M133.347,307.867h 1.89608" fill="none" stroke="black"/>
<path d="M134.295,310.44v 2.57281" fill="none" stroke="black"/>
<path d="M133.347,313.012h 1.89608" fill="none" stroke="black"/>
<path d="M136.563,310.827v -2.57274" fill="none" stroke="black"/>
<path d="M135.615,308.255h 1.89608" fill="none" stroke="black"/>
<path d="M136.563,310.827v 2.57274" fill="none" stroke="black"/>
<path d="M135.615,313.4h 1.89608" fill="none" stroke="black"/>
<path d="M138.831,309.857v -2.57289" fill="none" stroke="black"/>
<path d="M137.883,307.284h 1.89608" fill="none" stroke="black"/>
<path d="M138.831,309.857v 2.57289" fill="none" stroke="black"/>
<path d="M137.883,312.43h 1.89608" fill="none" stroke="black"/>
<path d="M141.098,307.586v -2.57294" fill="none" stroke="black"/>
<path d="M140.15,305.013h 1.89608" fill="none" stroke="black"/>
<path d="M141.098,307.586v 2.57294" fill="none" stroke="black"/>
<path d="M140.15,310.159h 1.89608" fill="none" stroke="black"/>
<path d="M143.366,308.201v -2.57298" fill="none" stroke="black"/>
<path d="M142.418,305.628h 1.89608" fill="none" stroke="black"/>
<path d="M143.366,308.201v 2.57298" fill="none" stroke="black"/>
<path d="M142.418,310.774h 1.89608" fill="none" stroke="black"/>
<path d="M145.634,305.316v -2.57246" fill="none" stroke="black"/>
<path d="M144.686,302.743h 1.89608" fill="none" stroke="black"/>
<path d="M145.634,305.316v 2.57246" fill="none" stroke="black"/>
<path d="M144.686,307.888h 1.89608" fill="none" stroke="black"/>
<path d="M147.902,305.113v -2.57233" fill="none" stroke="black"/>
<path d="M146.954,302.541h 1.89608" fill="none" stroke="black"/>
<path d="M147.902,305.113v 2.57233" fill="none" stroke="black"/>
<path d="M146.954,307.685h 1.89608" fill="none" stroke="black"/>
<path d="M150.169,308.136v -2.57297" fill="none" stroke="black"/>
<path d="M149.221,305.563h 1.89608" fill="none" stroke="black"/>
<path d="M150.169,308.136v 2.57297" fill="none" stroke="black"/>
<path d="M149.221,310.709h 1.89608" fill="none" stroke="black"/>
<path d="M152.437,308.871v -2.57297" fill="none" stroke="black"/>
<path d="M151.489,306.298h 1.89608" fill="none" stroke="black"/>
<path d="M152.437,308.871v 2.57297" fill="none" stroke="black"/>
<path d="M151.489,311.444h 1.89608" fill="none" stroke="black"/>
<path d="M154.705,306.193v -2.57263" fill="none" stroke="black"/>
<path d="M153.757,303.621h 1.89608" fill="none" stroke="black"/>
<path d="M154.705,306.193v 2.57263" fill="none" stroke="black"/>
<path d="M153.757,308.766h 1.89608" fill="none" stroke="black"/>
<path d="M156.972,304.316v -2.57167" fill="none" stroke="black"/>
<path d="M156.024,301.744h 1.89608" fill="none" stroke="black"/>
<path d="M156.972,304.316v 2.57167" fill="none" stroke="black"/>
<path d="M156.024,306.887h 1.89608" fill="none" stroke="black"/>
<path d="M159.24,306.448v -2.57267" fill="none" stroke="black"/>
<path d="M158.292,303.875h 1.89608" fill="none" stroke="black"/>
<path d="M159.24,306.448v 2.57267" fill="none" stroke="black"/>
<path d="M158.292,309.021h 1.89608" fill="none" stroke="black"/>
<path d="M161.508,307.923v -2.57296" fill="none" stroke="black"/>
<path d="M160.56,305.35h 1.89608" fill="none" stroke="black"/>
<path d="M161.508,307.923v 2.57296" fill="none" stroke="black"/>
<path d="M160.56,310.496h 1.89608" fill="none" stroke="black"/>
<path d="M163.776,307.308v -2.57287" fill="none" stroke="black"/>
<path d="M162.828,304.735h 1.89608" fill="none" stroke="black"/>
<path d="M163.776,307.308v 2.57287" fill="none" stroke="black"/>
<path d="M162.828,309.881h 1.89608" fill="none" stroke="black"/>
<path d="M166.043,304.164v -2.57131" fill="none" stroke="black"/>
<path d="M165.095,301.593h 1.89608" fill="none" stroke="black"/>
<path d="M166.043,304.164v 2.57131" fill="none" stroke="black"/>
<path d="M165.095,306.736h 1.89608" fill="none" stroke="black"/>
<path d="M168.311,306.451v -2.57257" fill="none" stroke="black"/>
<path d="M167.363,303.878h 1.89608" fill="none" stroke="black"/>
<path d="M168.311,306.451v 2.57257" fill="none" stroke="black"/>
<path d="M167.363,309.023h 1.89608" fill="none" stroke="black"/>
<path d="M170.579,306.831v -2.5727" fill="none" stroke="black"/>
<path d="M169.631,304.258h 1.89608" fill="none" stroke="black"/>
<path d="M170.579,306.831v 2.5727" fill="none" stroke="black"/>
<path d="M169.631,309.403h 1.89608" fill="none" stroke="black"/>
<path d="M172.846,306.226v -2.57245" fill="none" stroke="black"/>
<path d="M171.898,303.654h 1.89608" fill="none" stroke="black"/>
<path d="M172.846,306.226v 2.57245" fill="none" stroke="black"/>
<path d="M171.898,308.799h 1.89608" fill="none" stroke="black"/>
<path d="M175.114,304.631v -2.5713" fill="none" stroke="black"/>
<path d="M174.166,302.06h 1.89608" fill="none" stroke="black"/>
<path d="M175.114,304.631v 2.5713" fill="none" stroke="black"/>
<path d="M174.166,307.203h 1.89608" fill="none" stroke="black"/>
<path d="M177.382,308.513v -2.57298" fill="none" stroke="black"/>
<path d="M176.434,305.94h 1.89608" fill="none" stroke="black"/>
<path d="M177.382,308.513v 2.57298" fill="none" stroke="black"/>
<path d="M176.434,311.086h 1.89608" fill="none" stroke="black"/>
<path d="M179.65,305.512v -2.5719" fill="none" stroke="black"/>
<path d="M178.702,302.94h 1.89608" fill="none" stroke="black"/>
<path d="M179.65,305.512v 2.5719" fill="none" stroke="black"/>
<path d="M178.702,308.084h 1.89608" fill="none" stroke="black"/>
<path d="M181.917,304.065v -2.57056" fill="none" stroke="black"/>
<path d="M180.969,301.494h 1.89608" fill="none" stroke="black"/>
<path d="M181.917,304.065v 2.57056" fill="none" stroke="black"/>
<path d="M180.969,306.635h 1.89608" fill="none" stroke="black"/>
<path d="M184.185,306.3v -2.57237" fill="none" stroke="black"/>
<path d="M183.237,303.728h 1.89608" fill="none" stroke="black"/>
<path d="M184.185,306.3v 2.57237" fill="none" stroke="black"/>
<path d="M183.237,308.873h 1.89608" fill="none" stroke="black"/>
<path d="M186.453,306.857v -2.57262" fill="none" stroke="black"/>
<path d="M185.505,304.285h 1.89608" fill="none" stroke="black"/>
<path d="M186.453,306.857v 2.57262" fill="none" stroke="black"/>
<path d="M185.505,309.43h 1.89608" fill="none" stroke="black"/>
<path d="M188.72,307.734v -2.5729" fill="none" stroke="black"/>
<path d="M187.772,305.162h 1.89608" fill="none" stroke="black"/>
<path d="M188.72,307.734v 2.5729" fill="none" stroke="black"/>
<path d="M187.772,310.307h 1.89608" fill="none" stroke="black"/>
<path d="M190.988,304.58v -2.57063" fill="none" stroke="black"/>
<path d="M190.04,302.009h 1.89608" fill="none" stroke="black"/>
<path d="M190.988,304.58v 2.57063" fill="none" stroke="black"/>
<path d="M190.04,307.15h 1.89608" fill="none" stroke="black"/>
<path d="M193.256,304.483v -2.57038" fill="none" stroke="black"/>
<path d="M192.308,301.912h 1.89608" fill="none" stroke="black"/>
<path d="M193.256,304.483v 2.57038" fill="none" stroke="black"/>
<path d="M192.308,307.053h 1.89608" fill="none" stroke="black"/>
<path d="M195.524,303.669v -2.56884" fill="none" stroke="black"/>
<path d="M194.576,301.1h 1.89608" fill="none" stroke="black"/>
<path d="M195.524,303.669v 2.56884" fill="none" stroke="black"/>
<path d="M194.576,306.238h 1.89608" fill="none" stroke="black"/>
<path d="M197.791,305.376v -2.57116" fill="none" stroke="black"/>
<path d="M196.843,302.805h 1.89608" fill="none" stroke="black"/>
<path d="M197.791,305.376v 2.57116" fill="none" stroke="black"/>
<path d="M196.843,307.947h 1.89608" fill="none" stroke="black"/>
<path d="M200.059,306.193v -2.57207" fill="none" stroke="black"/>
<path d="M199.111,303.621h 1.89608" fill="none" stroke="black"/>
<path d="M200.059,306.193v 2.57207" fill="none" stroke="black"/>
<path d="M199.111,308.765h 1.89608" fill="none" stroke="black"/>
<path d="M202.327,305.19v -2.57068" fill="none" stroke="black"/>
<path d="M201.379,302.619h 1.89608" fill="none" stroke="black"/>
<path d="M202.327,305.19v 2.57068" fill="none" stroke="black"/>
<path d="M201.379,307.761h 1.89608" fill="none" stroke="black"/>
<path d="M204.594,307.69v -2.57286" fill="none" stroke="black"/>
<path d="M203.646,305.117h 1.89608" fill="none" stroke="black"/>
<path d="M204.594,307.69v 2.57286" fill="none" stroke="black"/>
<path d="M203.646,310.263h 1.89608" fill="none" stroke="black"/>
<path d="M206.862,305.437v -2.571" fill="none" stroke="black"/>
<path d="M205.914,302.866h 1.89608" fill="none" stroke="black"/>
<path d="M206.862,305.437v 2.571" fill="none" stroke="black"/>
<path d="M205.914,308.008h 1.89608" fill="none" stroke="black"/>
<path d="M209.13,304.967v -2.57041" fill="none" stroke="black"/>
<path d="M208.182,302.397h 1.89608" fill="none" stroke="black"/>
<path d="M209.13,304.967v 2.57041" fill="none" stroke="black"/>
<path d="M208.182,307.538h 1.89608" fill="none" stroke="black"/>
<path d="M211.398,307.816v -2.57288" fill="none" stroke="black"/>
<path d="M210.45,305.243h 1.89608" fill="none" stroke="black"/>
<path d="M211.398,307.816v 2.57288" fill="none" stroke="black"/>
<path d="M210.45,310.389h 1.89608" fill="none" stroke="black"/>
<path d="M213.665,305.872v -2.57144" fill="none" stroke="black"/>
<path d="M212.717,303.3h 1.89608" fill="none" stroke="black"/>
<path d="M213.665,305.872v 2.57144" fill="none" stroke="black"/>
<path d="M212.717,308.443h 1.89608" fill="none" stroke="black"/>
<path d="M215.933,303.845v -2.56697" fill="none" stroke="black"/>
<path d="M214.985,301.278h 1.89608" fill="none" stroke="black"/>
<path d="M215.933,303.845v 2.56697" fill="none" stroke="black"/>
<path d="M214.985,306.412h 1.89608" fill="none" stroke="black"/>
<path d="M218.201,304.587v -2.56908" fill="none" stroke="black"/>
<path d="M217.253,302.018h 1.89608" fill="none" stroke="black"/>
<path d="M218.201,304.587v 2.56908" fill="none" stroke="black"/>
<path d="M217.253,307.156h 1.89608" fill="none" stroke="black"/>
<path d="M220.469,302.383v -2.56286" fill="none" stroke="black"/>
<path d="M219.52,299.82h 1.89608" fill="none" stroke="black"/>
<path d="M220.469,302.383v 2.56286" fill="none" stroke="black"/>
<path d="M219.52,304.946h 1.89608" fill="none" stroke="black"/>
<path d="M222.736,304.717v -2.56857" fill="none" stroke="black"/>
<path d="M221.788,302.149h 1.89608" fill="none" stroke="black"/>
<path d="M222.736,304.717v 2.56857" fill="none" stroke="black"/>
<path d="M221.788,307.286h 1.89608" fill="none" stroke="black"/>
<path d="M225.004,306.902v -2.57223" fill="none" stroke="black"/>
<path d="M224.056,304.329h 1.89608" fill="none" stroke="black"/>
<path d="M225.004,306.902v 2.57223" fill="none" stroke="black"/>
<path d="M224.056,309.474h 1.89608" fill="none" stroke="black"/>
<path d="M227.272,306.993v -2.5723" fill="none" stroke="black"/>
<path d="M226.324,304.421h 1.89608" fill="none" stroke="black"/>
<path d="M227.272,306.993v 2.5723" fill="none" stroke="black"/>
<path d="M226.324,309.565h 1.89608" fill="none" stroke="black"/>
<path d="M229.539,305.164v -2.56963" fill="none" stroke="black"/>
<path d="M228.591,302.594h 1.89608" fill="none" stroke="black"/>
<path d="M229.539,305.164v 2.56963" fill="none" stroke="black"/>
<path d="M228.591,307.733h 1.89608" fill="none" stroke="black"/>
<path d="M231.807,306.985v -2.57218" fill="none" stroke="black"/>
<path d="M230.859,304.413h 1.89608" fill="none" stroke="black"/>
<path d="M231.807,306.985v 2.57218" fill="none" stroke="black"/>
<path d="M230.859,309.557h 1.89608" fill="none" stroke="black"/>
<path d="M234.075,306.267v -2.57131" fill="none" stroke="black"/>
<path d="M233.127,303.695h 1.89608" fill="none" stroke="black"/>
<path d="M234.075,306.267v 2.57131" fill="none" stroke="black"/>
<path d="M233.127,308.838h 1.89608" fill="none" stroke="black"/>
<path d="M236.343,306.499v -2.57167" fill="none" stroke="black"/>
<path d="M235.394,303.927h 1.89608" fill="none" stroke="black"/>
<path d="M236.343,306.499v 2.57167" fill="none" stroke="black"/>
<path d="M235.394,309.071h 1.89608" fill="none" stroke="black"/>
<path d="M238.61,305.69v -2.57046" fill="none" stroke="black"/>
<path d="M237.662,303.12h 1.89608" fill="none" stroke="black"/>
<path d="M238.61,305.69v 2.57046" fill="none" stroke="black"/>
<path d="M237.662,308.261h 1.89608" fill="none" stroke="black"/>
<path d="M240.878,305.632v -2.57024" fill="none" stroke="black"/>
<path d="M239.93,303.062h 1.89608" fill="none" stroke="black"/>
<path d="M240.878,305.632v 2.57024" fill="none" stroke="black"/>
<path d="M239.93,308.203h 1.89608" fill="none" stroke="black"/>
<path d="M243.146,307.052v -2.5722" fill="none" stroke="black"/>
<path d="M242.198,304.479h 1.89608" fill="none" stroke="black"/>
<path d="M243.146,307.052v 2.5722" fill="none" stroke="black"/>
<path d="M242.198,309.624h 1.89608" fill="none" stroke="black"/>
<path d="M245.413,306.481v -2.57145" fill="none" stroke="black"/>
<path d="M244.465,303.91h 1.89608" fill="none" stroke="black"/>
<path d="M245.413,306.481v 2.57145" fill="none" stroke="black"/>
<path d="M244.465,309.053h 1.89608" fill="none" stroke="black"/>
<path d="M247.681,306.588v -2.57141" fill="none" stroke="black"/>
<path d="M246.733,304.017h 1.89608" fill="none" stroke="black"/>
<path d="M247.681,306.588v 2.57141" fill="none" stroke="black"/>
<path d="M246.733,309.159h 1.89608" fill="none" stroke="black"/>
<path d="M249.949,308.082v -2.57292" fill="none" stroke="black"/>
<path d="M249.001,305.509h 1.89608" fill="none" stroke="black"/>
<path d="M249.949,308.082v 2.57292" fill="none" stroke="black"/>
<path d="M249.001,310.655h 1.89608" fill="none" stroke="black"/>
<path d="M252.217,305.298v -2.56899" fill="none" stroke="black"/>
<path d="M251.268,302.729h 1.89608" fill="none" stroke="black"/>
<path d="M252.217,305.298v 2.56899" fill="none" stroke="black"/>
<path d="M251.268,307.867h 1.89608" fill="none" stroke="black"/>
<path d="M254.484,305.973v -2.57021" fill="none" stroke="black"/>
<path d="M253.536,303.403h 1.89608" fill="none" stroke="black"/>
<path d="M254.484,305.973v 2.57021" fill="none" stroke="black"/>
<path d="M253.536,308.544h 1.89608" fill="none" stroke="black"/>
<path d="M256.752,305.189v -2.56841" fill="none" stroke="black"/>
<path d="M255.804,302.62h 1.89608" fill="none" stroke="black"/>
<path d="M256.752,305.189v 2.56841" fill="none" stroke="black"/>
<path d="M255.804,307.757h 1.89608" fill="none" stroke="black"/>
<path d="M259.02,302.788v -2.55641" fill="none" stroke="black"/>
<path d="M258.072,300.232h 1.89608" fill="none" stroke="black"/>
<path d="M259.02,302.788v 2.55641" fill="none" stroke="black"/>
<path d="M258.072,305.345h 1.89608" fill="none" stroke="black"/>
<path d="M261.287,302.186v -2.55664" fill="none" stroke="black"/>
<path d="M260.339,299.629h 1.89608" fill="none" stroke="black"/>
<path d="M261.287,302.186v 2.55664" fill="none" stroke="black"/>
<path d="M260.339,304.742h 1.89608" fill="none" stroke="black"/>
<path d="M263.555,306.337v -2.57038" fill="none" stroke="black"/>
<path d="M262.607,303.767h 1.89608" fill="none" stroke="black"/>
<path d="M263.555,306.337v 2.57038" fill="none" stroke="black"/>
<path d="M262.607,308.908h 1.89608" fill="none" stroke="black"/>
<path d="M265.823,308.449v -2.57298" fill="none" stroke="black"/>
<path d="M264.875,305.876h 1.89608" fill="none" stroke="black"/>
<path d="M265.823,308.449v 2.57298" fill="none" stroke="black"/>
<path d="M264.875,311.022h 1.89608" fill="none" stroke="black"/>
<path d="M268.091,306.44v -2.57111" fill="none" stroke="black"/>
<path d="M267.143,303.869h 1.89608" fill="none" stroke="black"/>
<path d="M268.091,306.44v 2.57111" fill="none" stroke="black"/>
<path d="M267.143,309.012h 1.89608" fill="none" stroke="black"/>
<path d="M270.358,304.257v -2.56346" fill="none" stroke="black"/>
<path d="M269.41,301.694h 1.89608" fill="none" stroke="black"/>
<path d="M270.358,304.257v 2.56346" fill="none" stroke="black"/>
<path d="M269.41,306.82h 1.89608" fill="none" stroke="black"/>
<path d="M272.626,305.881v -2.56854" fill="none" stroke="black"/>
<path d="M271.678,303.312h 1.89608" fill="none" stroke="black"/>
<path d="M272.626,305.881v 2.56854" fill="none" stroke="black"/>
<path d="M271.678,308.449h 1.89608" fill="none" stroke="black"/>
<path d="M274.894,306.562v -2.57077" fill="none" stroke="black"/>
<path d="M273.946,303.991h 1.89608" fill="none" stroke="black"/>
<path d="M274.894,306.562v 2.57077" fill="none" stroke="black"/>
<path d="M273.946,309.132h 1.89608" fill="none" stroke="black"/>
<path d="M277.161,304.991v -2.56622" fill="none" stroke="black"/>
<path d="M276.213,302.425h 1.89608" fill="none" stroke="black"/>
<path d="M277.161,304.991v 2.56622" fill="none" stroke="black"/>
<path d="M276.213,307.557h 1.89608" fill="none" stroke="black"/>
<path d="M279.429,306.084v -2.56979" fill="none" stroke="black"/>
<path d="M278.481,303.514h 1.89608" fill="none" stroke="black"/>
<path d="M279.429,306.084v 2.56979" fill="none" stroke="black"/>
<path d="M278.481,308.654h 1.89608" fill="none" stroke="black"/>
<path d="M281.697,302.245v -2.5489" fill="none" stroke="black"/>
<path d="M280.749,299.696h 1.89608" fill="none" stroke="black"/>
<path d="M281.697,302.245v 2.5489" fill="none" stroke="black"/>
<path d="M280.749,304.794h 1.89608" fill="none" stroke="black"/>
<path d="M283.965,304.312v -2.56105" fill="none" stroke="black"/>
<path d="M283.017,301.751h 1.89608" fill="none" stroke="black"/>
<path d="M283.965,304.312v 2.56105" fill="none" stroke="black"/>
<path d="M283.017,306.873h 1.89608" fill="none" stroke="black"/>
<path d="M286.232,308.596v -2.57296" fill="none" stroke="black"/>
<path d="M285.284,306.023h 1.89608" fill="none" stroke="black"/>
<path d="M286.232,308.596v 2.57296" fill="none" stroke="black"/>
<path d="M285.284,311.169h 1.89608" fill="none" stroke="black"/>
<path d="M288.5,307.972v -2.57281" fill="none" stroke="black"/>
<path d="M287.552,305.4h 1.89608" fill="none" stroke="black"/>
<path d="M288.5,307.972v 2.57281" fill="none" stroke="black"/>
<path d="M287.552,310.545h 1.89608" fill="none" stroke="black"/>
<path d="M290.768,309.073v -2.5727" fill="none" stroke="black"/>
<path d="M289.82,306.501h 1.89608" fill="none" stroke="black"/>
<path d="M290.768,309.073v 2.5727" fill="none" stroke="black"/>
<path d="M289.82,311.646h 1.89608" fill="none" stroke="black"/>
<path d="M293.035,303.493v -2.55539" fill="none" stroke="black"/>
<path d="M292.087,300.938h 1.89608" fill="none" stroke="black"/>
<path d="M293.035,303.493v 2.55539" fill="none" stroke="black"/>
<path d="M292.087,306.049h 1.89608" fill="none" stroke="black"/>
<path d="M295.303,305.59v -2.56614" fill="none" stroke="black"/>
<path d="M294.355,303.024h 1.89608" fill="none" stroke="black"/>
<path d="M295.303,305.59v 2.56614" fill="none" stroke="black"/>
<path d="M294.355,308.156h 1.89608" fill="none" stroke="black"/>
<path d="M297.571,302.516v -2.54848" fill="none" stroke="black"/>
<path d="M296.623,299.967h 1.89608" fill="none" stroke="black"/>
<path d="M297.571,302.516v 2.54848" fill="none" stroke="black"/>
<path d="M296.623,305.064h 1.89608" fill="none" stroke="black"/>
<path d="M299.839,301.798v -2.53933" fill="none" stroke="black"/>
<path d="M298.891,299.259h 1.89608" fill="none" stroke="black"/>
<path d="M299.839,301.798v 2.53933" fill="none" stroke="black"/>
<path d="M298.891,304.338h 1.89608" fill="none" stroke="black"/>
<path d="M302.106,303.457v -2.55485" fill="none" stroke="black"/>
<path d="M301.158,300.902h 1.89608" fill="none" stroke="black"/>
<path d="M302.106,303.457v 2.55485" fill="none" stroke="black"/>
<path d="M301.158,306.012h 1.89608" fill="none" stroke="black"/>
<path d="M304.374,303.911v -2.55684" fill="none" stroke="black"/>
<path d="M303.426,301.354h 1.89608" fill="none" stroke="black"/>
<path d="M304.374,303.911v 2.55684" fill="none" stroke="black"/>
<path d="M303.426,306.468h 1.89608" fill="none" stroke="black"/>
<path d="M306.642,304.98v -2.56223" fill="none" stroke="black"/>
<path d="M305.694,302.418h 1.89608" fill="none" stroke="black"/>
<path d="M306.642,304.98v 2.56223" fill="none" stroke="black"/>
<path d="M305.694,307.542h 1.89608" fill="none" stroke="black"/>
<path d="M308.909,303.799v -2.55516" fill="none" stroke="black"/>
<path d="M307.961,301.244h 1.89608" fill="none" stroke="black"/>
<path d="M308.909,303.799v 2.55516" fill="none" stroke="black"/>
<path d="M307.961,306.354h 1.89608" fill="none" stroke="black"/>
<path d="M311.177,303.197v -2.54754" fill="none" stroke="black"/>
<path d="M310.229,300.65h 1.89608" fill="none" stroke="black"/>
<path d="M311.177,303.197v 2.54754" fill="none" stroke="black"/>
<path d="M310.229,305.745h 1.89608" fill="none" stroke="black"/>
<path d="M313.445,303.355v -2.54512" fill="none" stroke="black"/>
<path d="M312.497,300.81h 1.89608" fill="none" stroke="black"/>
<path d="M313.445,303.355v 2.54512" fill="none" stroke="black"/>
<path d="M312.497,305.9h 1.89608" fill="none" stroke="black"/>
<path d="M315.713,305.141v -2.56201" fill="none" stroke="black"/>
<path d="M314.765,302.579h 1.89608" fill="none" stroke="black"/>
<path d="M315.713,305.141v 2.56201" fill="none" stroke="black"/>
<path d="M314.765,307.703h 1.89608" fill="none" stroke="black"/>
<path d="M317.98,305.242v -2.56212" fill="none" stroke="black"/>
<path d="M317.032,302.68h 1.89608" fill="none" stroke="black"/>
<path d="M317.98,305.242v 2.56212" fill="none" stroke="black"/>
<path d="M317.032,307.804h 1.89608" fill="none" stroke="black"/>
<path d="M320.248,305.242v -2.56212" fill="none" stroke="black"/>
<path d="M319.3,302.68h 1.89608" fill="none" stroke="black"/>
<path d="M320.248,305.242v 2.56212" fill="none" stroke="black"/>
<path d="M319.3,307.804h 1.89608" fill="none" stroke="black"/>
<path d="M322.516,303.609v -2.55039" fill="none" stroke="black"/>
<path d="M321.568,301.059h 1.89608" fill="none" stroke="black"/>
<path d="M322.516,303.609v 2.55039" fill="none" stroke="black"/>
<path d="M321.568,306.159h 1.89608" fill="none" stroke="black"/>
<path d="M324.783,304.321v -2.55505" fill="none" stroke="black"/>
<path d="M323.835,301.766h 1.89608" fill="none" stroke="black"/>
<path d="M324.783,304.321v 2.55505" fill="none" stroke="black"/>
<path d="M323.835,306.876h 1.89608" fill="none" stroke="black"/>
<path d="M327.051,305.85v -2.56609" fill="none" stroke="black"/>
<path d="M326.103,303.283h 1.89608" fill="none" stroke="black"/>
<path d="M327.051,305.85v 2.56609" fill="none" stroke="black"/>
<path d="M326.103,308.416h 1.89608" fill="none" stroke="black"/>
<path d="M329.319,303.303v -2.54602" fill="none" stroke="black"/>
<path d="M328.371,300.757h 1.89608" fill="none" stroke="black"/>
<path d="M329.319,303.303v 2.54602" fill="none" stroke="black"/>
<path d="M328.371,305.849h 1.89608" fill="none" stroke="black"/>
<path d="M331.587,303.288v -2.54119" fill="none" stroke="black"/>
<path d="M330.639,300.747h 1.89608" fill="none" stroke="black"/>
<path d="M331.587,303.288v 2.54119" fill="none" stroke="black"/>
<path d="M330.639,305.829h 1.89608" fill="none" stroke="black"/>
<path d="M333.854,303.552v -2.54001" fill="none" stroke="black"/>
<path d="M332.906,301.012h 1.89608" fill="none" stroke="black"/>
<path d="M333.854,303.552v 2.54001" fill="none" stroke="black"/>
<path d="M332.906,306.092h 1.89608" fill="none" stroke="black"/>
<path d="M336.122,301.465v -2.52215" fill="none" stroke="black"/>
<path d="M335.174,298.943h 1.89608" fill="none" stroke="black"/>
<path d="M336.122,301.465v 2.52215" fill="none" stroke="black"/>
<path d="M335.174,303.988h 1.89608" fill="none" stroke="black"/>
<path d="M338.39,303.665v -2.54017" fill="none" stroke="black"/>
<path d="M337.442,301.125h 1.89608" fill="none" stroke="black"/>
<path d="M338.39,303.665v 2.54017" fill="none" stroke="black"/>
<path d="M337.442,306.205h 1.89608" fill="none" stroke="black"/>
<path d="M340.657,305.298v -2.55995" fill="none" stroke="black"/>
<path d="M339.709,302.738h 1.89608" fill="none" stroke="black"/>
<path d="M340.657,305.298v 2.55995" fill="none" stroke="black"/>
<path d="M339.709,307.858h 1.89608" fill="none" stroke="black"/>
<path d="M342.925,304.431v -2.55348" fill="none" stroke="black"/>
<path d="M341.977,301.877h 1.89608" fill="none" stroke="black"/>
<path d="M342.925,304.431v 2.55348" fill="none" stroke="black"/>
<path d="M341.977,306.984h 1.89608" fill="none" stroke="black"/>
<path d="M345.193,301.779v -2.52003" fill="none" stroke="black"/>
<path d="M344.245,299.259h 1.89608" fill="none" stroke="black"/>
<path d="M345.193,301.779v 2.52003" fill="none" stroke="black"/>
<path d="M344.245,304.299h 1.89608" fill="none" stroke="black"/>
<path d="M347.461,305.977v -2.56531" fill="none" stroke="black"/>
<path d="M346.513,303.412h 1.89608" fill="none" stroke="black"/>
<path d="M347.461,305.977v 2.56531" fill="none" stroke="black"/>
<path d="M346.513,308.542h 1.89608" fill="none" stroke="black"/>
<path d="M349.728,304.958v -2.55934" fill="none" stroke="black"/>
<path d="M348.78,302.399h 1.89608" fill="none" stroke="black"/>
<path d="M349.728,304.958v 2.55934" fill="none" stroke="black"/>
<path d="M348.78,307.517h 1.89608" fill="none" stroke="black"/>
<path d="M351.996,304.741v -2.55556" fill="none" stroke="black"/>
<path d="M351.048,302.186h 1.89608" fill="none" stroke="black"/>
<path d="M351.996,304.741v 2.55556" fill="none" stroke="black"/>
<path d="M351.048,307.297h 1.89608" fill="none" stroke="black"/>
<path d="M354.264,308.659v -2.57292" fill="none" stroke="black"/>
<path d="M353.316,306.086h 1.89608" fill="none" stroke="black"/>
<path d="M354.264,308.659v 2.57292" fill="none" stroke="black"/>
<path d="M353.316,311.232h 1.89608" fill="none" stroke="black"/>
<path d="M356.531,305.488v -2.56134" fill="none" stroke="black"/>
<path d="M355.583,302.927h 1.89608" fill="none" stroke="black"/>
<path d="M356.531,305.488v 2.56134" fill="none" stroke="black"/>
<path d="M355.583,308.05h 1.89608" fill="none" stroke="black"/>
<path d="M358.799,304.1v -2.54602" fill="none" stroke="black"/>
<path d="M357.851,301.554h 1.89608" fill="none" stroke="black"/>
<path d="M358.799,304.1v 2.54602" fill="none" stroke="black"/>
<path d="M357.851,306.646h 1.89608" fill="none" stroke="black"/>
<path d="M361.067,304.029v -2.54929" fill="none" stroke="black"/>
<path d="M360.119,301.48h 1.89608" fill="none" stroke="black"/>
<path d="M361.067,304.029v 2.54929" fill="none" stroke="black"/>
<path d="M360.119,306.578h 1.89608" fill="none" stroke="black"/>
<path d="M363.335,303.074v -2.52856" fill="none" stroke="black"/>
<path d="M362.387,300.546h 1.89608" fill="none" stroke="black"/>
<path d="M363.335,303.074v 2.52856" fill="none" stroke="black"/>
<path d="M362.387,305.603h 1.89608" fill="none" stroke="black"/>
<path d="M365.602,308.061v -2.57281" fill="none" stroke="black"/>
<path d="M364.654,305.488h 1.89608" fill="none" stroke="black"/>
<path d="M365.602,308.061v 2.57281" fill="none" stroke="black"/>
<path d="M364.654,310.634h 1.89608" fill="none" stroke="black"/>
<path d="M367.87,304.955v -2.55315" fill="none" stroke="black"/>
<path d="M366.922,302.402h 1.89608" fill="none" stroke="black"/>
<path d="M367.87,304.955v 2.55315" fill="none" stroke="black"/>
<path d="M366.922,307.508h 1.89608" fill="none" stroke="black"/>
<path d="M370.138,305.158v -2.54848" fill="none" stroke="black"/>
<path d="M369.19,302.609h 1.89608" fill="none" stroke="black"/>
<path d="M370.138,305.158v 2.54848" fill="none" stroke="black"/>
<path d="M369.19,307.706h 1.89608" fill="none" stroke="black"/>
<path d="M372.406,305.071v -2.56105" fill="none" stroke="black"/>
<path d="M371.457,302.51h 1.89608" fill="none" stroke="black"/>
<path d="M372.406,305.071v 2.56105" fill="none" stroke="black"/>
<path d="M371.457,307.632h 1.89608" fill="none" stroke="black"/>
<path d="M374.673,305.316v -2.55597" fill="none" stroke="black"/>
<path d="M373.725,302.76h 1.89608" fill="none" stroke="black"/>
<path d="M374.673,305.316v 2.55597" fill="none" stroke="black"/>
<path d="M373.725,307.872h 1.89608" fill="none" stroke="black"/>
<path d="M376.941,302.36v -2.5187" fill="none" stroke="black"/>
<path d="M375.993,299.842h 1.89608" fill="none" stroke="black"/>
<path d="M376.941,302.36v 2.5187" fill="none" stroke="black"/>
<path d="M375.993,304.879h 1.89608" fill="none" stroke="black"/>
<path d="M379.209,305.064v -2.55556" fill="none" stroke="black"/>
<path d="M378.261,302.509h 1.89608" fill="none" stroke="black"/>
<path d="M379.209,305.064v 2.55556" fill="none" stroke="black"/>
<path d="M378.261,307.62h 1.89608" fill="none" stroke="black"/>
<path d="M381.476,308.216v -2.57289" fill="none" stroke="black"/>
<path d="M380.528,305.643h 1.89608" fill="none" stroke="black"/>
<path d="M381.476,308.216v 2.57289" fill="none" stroke="black"/>
<path d="M380.528,310.789h 1.89608" fill="none" stroke="black"/>
<path d="M383.744,306.241v -2.56429" fill="none" stroke="black"/>
<path d="M382.796,303.677h 1.89608" fill="none" stroke="black"/>
<path d="M383.744,306.241v 2.56429" fill="none" stroke="black"/>
<path d="M382.796,308.806h 1.89608" fill="none" stroke="black"/>
<path d="M386.012,304.226v -2.54643" fill="none" stroke="black"/>
<path d="M385.064,301.68h 1.89608" fill="none" stroke="black"/>
<path d="M386.012,304.226v 2.54643" fill="none" stroke="black"/>
<path d="M385.064,306.772h 1.89608" fill="none" stroke="black"/>
<path d="M388.28,303.303v -2.5187" fill="none" stroke="black"/>
<path d="M387.331,300.785h 1.89608" fill="none" stroke="black"/>
<path d="M388.28,303.303v 2.5187" fill="none" stroke="black"/>
<path d="M387.331,305.822h 1.89608" fill="none" stroke="black"/>
<path d="M390.547,305.214v -2.55631" fill="none" stroke="black"/>
<path d="M389.599,302.658h 1.89608" fill="none" stroke="black"/>
<path d="M390.547,305.214v 2.55631" fill="none" stroke="black"/>
<path d="M389.599,307.771h 1.89608" fill="none" stroke="black"/>
<path d="M392.815,306.99v -2.56927" fill="none" stroke="black"/>
<path d="M391.867,304.421h 1.89608" fill="none" stroke="black"/>
<path d="M392.815,306.99v 2.56927" fill="none" stroke="black"/>
<path d="M391.867,309.56h 1.89608" fill="none" stroke="black"/>
<path d="M395.083,306.469v -2.56587" fill="none" stroke="black"/>
<path d="M394.135,303.903h 1.89608" fill="none" stroke="black"/>
<path d="M395.083,306.469v 2.56587" fill="none" stroke="black"/>
<path d="M394.135,309.034h 1.89608" fill="none" stroke="black"/>
<path d="M397.35,303.197v -2.5138" fill="none" stroke="black"/>
<path d="M396.402,300.683h 1.89608" fill="none" stroke="black"/>
<path d="M397.35,303.197v 2.5138" fill="none" stroke="black"/>
<path d="M396.402,305.711h 1.89608" fill="none" stroke="black"/>
<path d="M399.618,305.316v -2.55597" fill="none" stroke="black"/>
<path d="M398.67,302.76h 1.89608" fill="none" stroke="black"/>
<path d="M399.618,305.316v 2.55597" fill="none" stroke="black"/>
<path d="M398.67,307.872h 1.89608" fill="none" stroke="black"/>
<path d="M401.886,305.07v -2.54982" fill="none" stroke="black"/>
<path d="M400.938,302.521h 1.89608" fill="none" stroke="black"/>
<path d="M401.886,305.07v 2.54982" fill="none" stroke="black"/>
<path d="M400.938,307.62h 1.89608" fill="none" stroke="black"/>
<path d="M404.154,306.469v -2.56587" fill="none" stroke="black"/>
<path d="M403.206,303.903h 1.89608" fill="none" stroke="black"/>
<path d="M404.154,306.469v 2.56587" fill="none" stroke="black"/>
<path d="M403.206,309.034h 1.89608" fill="none" stroke="black"/>
<path d="M406.421,304.023v -2.54078" fill="none" stroke="black"/>
<path d="M405.473,301.482h 1.89608" fill="none" stroke="black"/>
<path d="M406.421,304.023v 2.54078" fill="none" stroke="black"/>
<path d="M405.473,306.564h 1.89608" fill="none" stroke="black"/>
<path d="M408.689,305.767v -2.55755" fill="none" stroke="black"/>
<path d="M407.741,303.209h 1.89608" fill="none" stroke="black"/>
<path d="M408.689,305.767v 2.55755" fill="none" stroke="black"/>
<path d="M407.741,308.324h 1.89608" fill="none" stroke="black"/>
<path d="M410.957,306.2v -2.56362" fill="none" stroke="black"/>
<path d="M410.009,303.636h 1.89608" fill="none" stroke="black"/>
<path d="M410.957,306.2v 2.56362" fill="none" stroke="black"/>
<path d="M410.009,308.764h 1.89608" fill="none" stroke="black"/>
<path d="M413.224,305.844v -2.56167" fill="none" stroke="black"/>
<path d="M412.276,303.282h 1.89608" fill="none" stroke="black"/>
<path d="M413.224,305.844v 2.56167" fill="none" stroke="black"/>
<path d="M412.276,308.405h 1.89608" fill="none" stroke="black"/>
<path d="M415.492,307.597v -2.57125" fill="none" stroke="black"/>
<path d="M414.544,305.026h 1.89608" fill="none" stroke="black"/>
<path d="M415.492,307.597v 2.57125" fill="none" stroke="black"/>
<path d="M414.544,310.168h 1.89608" fill="none" stroke="black"/>
<path d="M417.76,307.122v -2.56933" fill="none" stroke="black"/>
<path d="M416.812,304.553h 1.89608" fill="none" stroke="black"/>
<path d="M417.76,307.122v 2.56933" fill="none" stroke="black"/>
<path d="M416.812,309.692h 1.89608" fill="none" stroke="black"/>
<path d="M420.028,306.008v -2.55995" fill="none" stroke="black"/>
<path d="M419.08,303.448h 1.89608" fill="none" stroke="black"/>
<path d="M420.028,306.008v 2.55995" fill="none" stroke="black"/>
<path d="M419.08,308.568h 1.89608" fill="none" stroke="black"/>
<path d="M422.295,308.184v -2.57283" fill="none" stroke="black"/>
<path d="M421.347,305.611h 1.89608" fill="none" stroke="black"/>
<path d="M422.295,308.184v 2.57283" fill="none" stroke="black"/>
<path d="M421.347,310.757h 1.89608" fill="none" stroke="black"/>
<path d="M424.563,307.859v -2.57209" fill="none" stroke="black"/>
<path d="M423.615,305.287h 1.89608" fill="none" stroke="black"/>
<path d="M424.563,307.859v 2.57209" fill="none" stroke="black"/>
<path d="M423.615,310.431h 1.89608" fill="none" stroke="black"/>
<path d="M426.831,305.245v -2.54673" fill="none" stroke="black"/>
<path d="M425.883,302.698h 1.89608" fill="none" stroke="black"/>
<path d="M426.831,305.245v 2.54673" fill="none" stroke="black"/>
<path d="M425.883,307.791h 1.89608" fill="none" stroke="black"/>
<path d="M429.098,307.859v -2.57209" fill="none" stroke="black"/>
<path d="M428.15,305.287h 1.89608" fill="none" stroke="black"/>
<path d="M429.098,307.859v 2.57209" fill="none" stroke="black"/>
<path d="M428.15,310.431h 1.89608" fill="none" stroke="black"/>
<path d="M431.366,307.825v -2.57186" fill="none" stroke="black"/>
<path d="M430.418,305.253h 1.89608" fill="none" stroke="black"/>
<path d="M431.366,307.825v 2.57186" fill="none" stroke="black"/>
<path d="M430.418,310.397h 1.89608" fill="none" stroke="black"/>
<path d="M433.634,307.785v -2.57155" fill="none" stroke="black"/>
<path d="M432.686,305.213h 1.89608" fill="none" stroke="black"/>
<path d="M433.634,307.785v 2.57155" fill="none" stroke="black"/>
<path d="M432.686,310.356h 1.89608" fill="none" stroke="black"/>
<path d="M435.902,306.148v -2.55995" fill="none" stroke="black"/>
<path d="M434.954,303.588h 1.89608" fill="none" stroke="black"/>
<path d="M435.902,306.148v 2.55995" fill="none" stroke="black"/>
<path d="M434.954,308.708h 1.89608" fill="none" stroke="black"/>
<path d="M438.169,308.449v -2.57298" fill="none" stroke="black"/>
<path d="M437.221,305.876h 1.89608" fill="none" stroke="black"/>
<path d="M438.169,308.449v 2.57298" fill="none" stroke="black"/>
<path d="M437.221,311.022h 1.89608" fill="none" stroke="black"/>
<path d="M440.437,306.84v -2.56748" fill="none" stroke="black"/>
<path d="M439.489,304.272h 1.89608" fill="none" stroke="black"/>
<path d="M440.437,306.84v 2.56748" fill="none" stroke="black"/>
<path d="M439.489,309.407h 1.89608" fill="none" stroke="black"/>
<path d="M442.705,307.436v -2.56952" fill="none" stroke="black"/>
<path d="M441.757,304.866h 1.89608" fill="none" stroke="black"/>
<path d="M442.705,307.436v 2.56952" fill="none" stroke="black"/>
<path d="M441.757,310.005h 1.89608" fill="none" stroke="black"/>
<path d="M444.972,305.792v -2.54958" fill="none" stroke="black"/>
<path d="M444.024,303.242h 1.89608" fill="none" stroke="black"/>
<path d="M444.972,305.792v 2.54958" fill="none" stroke="black"/>
<path d="M444.024,308.341h 1.89608" fill="none" stroke="black"/>
<path d="M447.24,308.132v -2.57268" fill="none" stroke="black"/>
<path d="M446.292,305.56h 1.89608" fill="none" stroke="black"/>
<path d="M447.24,308.132v 2.57268" fill="none" stroke="black"/>
<path d="M446.292,310.705h 1.89608" fill="none" stroke="black"/>
<path d="M449.508,310.666v -2.5583" fill="none" stroke="black"/>
<path d="M448.56,308.108h 1.89608" fill="none" stroke="black"/>
<path d="M449.508,310.666v 2.5583" fill="none" stroke="black"/>
<path d="M448.56,313.224h 1.89608" fill="none" stroke="black"/>
<path d="M451.776,311.569v -2.54437" fill="none" stroke="black"/>
<path d="M450.828,309.025h 1.89608" fill="none" stroke="black"/>
<path d="M451.776,311.569v 2.54437" fill="none" stroke="black"/>
<path d="M450.828,314.114h 1.89608" fill="none" stroke="black"/>
<path d="M454.043,307.028v -2.56817" fill="none" stroke="black"/>
<path d="M453.095,304.46h 1.89608" fill="none" stroke="black"/>
<path d="M454.043,307.028v 2.56817" fill="none" stroke="black"/>
<path d="M453.095,309.597h 1.89608" fill="none" stroke="black"/>
<path d="M456.311,309.836v -2.57268" fill="none" stroke="black"/>
<path d="M455.363,307.264h 1.89608" fill="none" stroke="black"/>
<path d="M456.311,309.836v 2.57268" fill="none" stroke="black"/>
<path d="M455.363,312.409h 1.89608" fill="none" stroke="black"/></svg>
