<?xml version="1.0" standalone="no"?>
<svg width="567.429" height="413.846" viewBox="0 0 567.429 413.846" xmlns="http://www.w3.org/2000/svg" shape-rendering="crispEdges">
<title>
figures/PMTnperes2PMTnpedata190929-01.svg
</title>
<desc>
Creator: ROOT Version 6.18/02
CreationDate: Tue Oct  1 14:32:54 2019</desc>
<defs>
</defs>
<rect x="0.5" y="0" width="566.929" height="413.346" fill="white"/>
<rect x="0.5" y="0" width="566.929" height="276.942" fill="white"/>
<rect x="57.1929" y="27.6942" width="453.543" height="249.245" fill="white"/>
<rect x="57.1929" y="27.6942" width="453.543" height="249.245" fill="none" stroke="black"/>
<rect x="57.1929" y="27.6942" width="453.543" height="249.245" fill="white"/>
<rect x="57.1929" y="27.6942" width="453.543" height="249.245" fill="none" stroke="black"/>
<path d="M57.1929,49.6163h 2.26772v 83.5187h 2.26772v -33.51h 2.26772v -7.52571h 2.26772v 3.99891h 2.26772v 8.05807h 2.26772v -0.620153h 2.26772v -2.0503h 2.26772v 1.03175h 2.26772v -0.401111h 2.26772v -0.722036h 2.26772v 0.574352h 2.26772v
 -0.338534h 2.26772v 0.198496h 2.26772v 0.524772h 2.26772v 0.734175h 2.26772v 0.198163h 2.26772v 0.60561h 2.26772v 1.66351h 2.26772v -0.266792h 2.26772v 1.58519h 2.26772v 0.586872h 2.26772v 1.02396h 2.26772v 0.791681h 2.26772v 2.0437h 2.26772v
 0.733585h 2.26772v 1.42067h 2.26772v 0.87096h 2.26772v 1.6363h 2.26772v 1.0876h 2.26772v 1.08854h 2.26772v 2.43539h 2.26772v 0.334664h 2.26772v 2.51781h 2.26772v 0.126656h 2.26772v 1.75707h 2.26772v 2.7228h 2.26772v 0.134328h 2.26772v 1.82663h
 2.26772v 2.23757h 2.26772v -0.588038h 2.26772v 1.75704h 2.26772v 1.84995h 2.26772v 3.36321h 2.26772v -0.503491h 2.26772v 0.612923h 2.26772v 1.59313h 2.26772v 2.23727h 2.26772v 1.53733h 2.26772v 0.714558h 2.26772v 0.341707h 2.26772v 2.50076h 2.26772v
 -0.866082h 2.26772v 2.35183h 2.26772v 0.782948h 2.26772v 0.123007h 2.26772v 1.07478h 2.26772v 0.994776h 2.26772v 2.516h 2.26772v 1.17474h 2.26772v 2.55997h 2.26772v 0.457716h 2.26772v -2.19754h 2.26772v 4.95661h 2.26772v -2.19673h 2.26772v 2.19673h
 2.26772v -0.313005h 2.26772v 1.06145h 2.26772v 0.439592h 2.26772v 5.82477h 2.26772v -2.33901h 2.26772v 2.63157h 2.26772v 1.68382h 2.26772v -1.8306h 2.26772v 0.294551h 2.26772v 0.754402h 2.26772v 2.78145h 2.26772v -0.855809h 2.26772v -0.497704h
 2.26772v -0.325557h 2.26772v 0.991738h 2.26772v 2.13114h 2.26772v 0.18744h 2.26772v 3.02573h 2.26772v -1.86567h 2.26772v 0.199533h 2.26772v 2.10351h 2.26772v -0.437371h 2.26772v 6.51867h 2.26772v -4.71353h 2.26772v 4.13618h 2.26772v -5.28191h
 4.53543v 5.56866h 2.26772v 3.43366h 2.26772v -2.5499h 2.26772v -0.593165h 2.26772v -0.860344h 2.26772v 6.13456h 2.26772v 0.376516h 2.26772v -6.51107h 2.26772v 4.00341h 2.26772v -1.94003h 2.26772v 6.02287h 2.26772v 1.26147h 2.26772v -0.849095h
 2.26772v 3.13006h 2.26772v -3.13006h 2.26772v 1.28647h 2.26772v 1.84359h 2.26772v -0.475825h 2.26772v 3.57384h 2.26772v 3.61658h 2.26772v -4.16469h 2.26772v 1.11046h 6.80315v 1.17051h 2.26772v -2.81554h 2.26772v 3.42542h 2.26772v 4.07117h 2.26772v
 3.21317h 2.26772v -3.94711h 2.26772v 4.83087h 2.26772v -4.83087h 2.26772v -0.709872h 2.26772v 3.80788h 2.26772v -5.1614h 2.26772v -1.27385h 2.26772v 3.33723h 2.26772v -5.11762h 2.26772v 5.11762h 2.26772v 3.94711h 2.26772v -3.94711h 2.26772v 7.72171h
 2.26772v -15.5155h 2.26772v 13.546h 2.26772v 7.8566h 2.26772v -18.7265h 2.26772v 11.8322h 2.26772v 1.00712h 2.26772v -3.7746h 2.26772v -3.94711h 2.26772v 5.75225h 2.26772v -0.92138h 2.26772v 10.1752h 2.26772v -10.1752h 2.26772v -0.883762h 2.26772v
 1.80514h 2.26772v 10.7474h 2.26772v -9.78509h 2.26772v 4.34435h 2.26772v -5.30669h 2.26772v 1.96946h 2.26772v 3.33723h 2.26772v -4.34435h 2.26772v -1.88372h 2.26772v 5.05756h 2.26772v -2.16672h 2.26772v 3.33723h 2.26772v -5.30669h 2.26772v 5.30669h
 2.26772v 5.44074h 2.26772v -5.44074h 2.26772v 2.5499h 2.26772v 2.89084h 2.26772v -2.89084h 2.26772v -4.83087h 4.53543v 9.32608h 2.26772v 3.61658h 2.26772v -8.1118h 2.26772v -4.83087h 2.26772v -2.06338h 2.26772v 4.34435h 2.26772v -62.3052h 2.26772v
 124.879h 54.4252" fill="none" stroke="#ff0000" stroke-width="2"/>
<rect x="283.965" y="27.6942" width="113.386" height="55.3884" fill="white"/>
<path d="M283.965,83.0826h 113.386" fill="none" stroke="black"/>
<path d="M397.35,83.0826v -55.3884" fill="none" stroke="black"/>
<path d="M397.35,27.6942h -113.386" fill="none" stroke="black"/>
<path d="M283.965,27.6942v 55.3884" fill="none" stroke="black"/>
<text xml:space="preserve" x="292.023" y="37.9217" fill="#ff0000" font-size="12.1875" font-family="Helvetica">npe_PMT-S0-data</text>
<path d="M283.965,41.5413h 113.386" fill="none" stroke="black"/>
<text xml:space="preserve" x="289.179" y="53.0904" fill="#ff0000" font-size="12.1624" font-family="Helvetica">Entries </text>
<text xml:space="preserve" x="348.905" y="52.6163" fill="#ff0000" font-size="12.1624" font-family="Helvetica"> 147626</text>
<text xml:space="preserve" x="289.179" y="66.837" fill="#ff0000" font-size="12.1624" font-family="Helvetica">Mean  </text>
<text xml:space="preserve" x="358.86" y="66.3629" fill="#ff0000" font-size="12.1624" font-family="Helvetica">   5.64</text>
<text xml:space="preserve" x="289.179" y="80.5836" fill="#ff0000" font-size="12.1624" font-family="Helvetica">Std Dev   </text>
<text xml:space="preserve" x="355.542" y="80.1096" fill="#ff0000" font-size="12.1624" font-family="Helvetica">  7.188</text>
<path d="M57.1929,276.939h 453.543" fill="none" stroke="black"/>
<path d="M57.1929,270.293v 6.64661" fill="none" stroke="black"/>
<path d="M72.311,273.616v 3.3233" fill="none" stroke="black"/>
<path d="M87.4291,273.616v 3.3233" fill="none" stroke="black"/>
<path d="M102.547,273.616v 3.3233" fill="none" stroke="black"/>
<path d="M117.665,273.616v 3.3233" fill="none" stroke="black"/>
<path d="M132.783,270.293v 6.64661" fill="none" stroke="black"/>
<path d="M147.902,273.616v 3.3233" fill="none" stroke="black"/>
<path d="M163.02,273.616v 3.3233" fill="none" stroke="black"/>
<path d="M178.138,273.616v 3.3233" fill="none" stroke="black"/>
<path d="M193.256,273.616v 3.3233" fill="none" stroke="black"/>
<path d="M208.374,270.293v 6.64661" fill="none" stroke="black"/>
<path d="M223.492,273.616v 3.3233" fill="none" stroke="black"/>
<path d="M238.61,273.616v 3.3233" fill="none" stroke="black"/>
<path d="M253.728,273.616v 3.3233" fill="none" stroke="black"/>
<path d="M268.846,273.616v 3.3233" fill="none" stroke="black"/>
<path d="M283.965,270.293v 6.64661" fill="none" stroke="black"/>
<path d="M299.083,273.616v 3.3233" fill="none" stroke="black"/>
<path d="M314.201,273.616v 3.3233" fill="none" stroke="black"/>
<path d="M329.319,273.616v 3.3233" fill="none" stroke="black"/>
<path d="M344.437,273.616v 3.3233" fill="none" stroke="black"/>
<path d="M359.555,270.293v 6.64661" fill="none" stroke="black"/>
<path d="M374.673,273.616v 3.3233" fill="none" stroke="black"/>
<path d="M389.791,273.616v 3.3233" fill="none" stroke="black"/>
<path d="M404.909,273.616v 3.3233" fill="none" stroke="black"/>
<path d="M420.028,273.616v 3.3233" fill="none" stroke="black"/>
<path d="M435.146,270.293v 6.64661" fill="none" stroke="black"/>
<path d="M450.264,273.616v 3.3233" fill="none" stroke="black"/>
<path d="M465.382,273.616v 3.3233" fill="none" stroke="black"/>
<path d="M480.5,273.616v 3.3233" fill="none" stroke="black"/>
<path d="M495.618,273.616v 3.3233" fill="none" stroke="black"/>
<path d="M510.736,270.293v 6.64661" fill="none" stroke="black"/>
<text xml:space="preserve" x="54.5384" y="285.835" fill="black" font-size="9.39263" font-family="Helvetica">0</text>
<text xml:space="preserve" x="127.538" y="285.835" fill="black" font-size="9.39263" font-family="Helvetica">10</text>
<text xml:space="preserve" x="202.907" y="285.835" fill="black" font-size="9.39263" font-family="Helvetica">20</text>
<text xml:space="preserve" x="278.75" y="285.835" fill="black" font-size="9.39263" font-family="Helvetica">30</text>
<text xml:space="preserve" x="354.12" y="285.835" fill="black" font-size="9.39263" font-family="Helvetica">40</text>
<text xml:space="preserve" x="429.489" y="285.835" fill="black" font-size="9.39263" font-family="Helvetica">50</text>
<text xml:space="preserve" x="505.332" y="285.835" fill="black" font-size="9.39263" font-family="Helvetica">60</text>
<text xml:space="preserve" x="490.638" y="293.893" fill="black" font-size="9.39263" font-family="Helvetica">n.p.e</text>
<path d="M57.1929,276.939v -249.245" fill="none" stroke="black"/>
<path d="M72.4998,276.939h -15.3069" fill="none" stroke="black"/>
<text xml:space="preserve" x="49.3242" y="280.62" fill="black" font-size="9.39263" font-family="Helvetica">1</text>
<path d="M64.8464,261.933h -7.65346" fill="none" stroke="black"/>
<path d="M64.8464,253.155h -7.65346" fill="none" stroke="black"/>
<path d="M64.8464,246.927h -7.65346" fill="none" stroke="black"/>
<path d="M64.8464,242.096h -7.65346" fill="none" stroke="black"/>
<path d="M64.8464,238.149h -7.65346" fill="none" stroke="black"/>
<path d="M64.8464,234.812h -7.65346" fill="none" stroke="black"/>
<path d="M64.8464,231.921h -7.65346" fill="none" stroke="black"/>
<path d="M64.8464,229.371h -7.65346" fill="none" stroke="black"/>
<path d="M72.4998,227.09h -15.3069" fill="none" stroke="black"/>
<text xml:space="preserve" x="42.6879" y="230.374" fill="black" font-size="9.39263" font-family="Helvetica">10</text>
<path d="M64.8464,212.084h -7.65346" fill="none" stroke="black"/>
<path d="M64.8464,203.306h -7.65346" fill="none" stroke="black"/>
<path d="M64.8464,197.078h -7.65346" fill="none" stroke="black"/>
<path d="M64.8464,192.247h -7.65346" fill="none" stroke="black"/>
<path d="M64.8464,188.3h -7.65346" fill="none" stroke="black"/>
<path d="M64.8464,184.963h -7.65346" fill="none" stroke="black"/>
<path d="M64.8464,182.072h -7.65346" fill="none" stroke="black"/>
<path d="M64.8464,179.522h -7.65346" fill="none" stroke="black"/>
<path d="M72.4998,177.241h -15.3069" fill="none" stroke="black"/>
<text xml:space="preserve" x="49.3242" y="177.284" fill="black" font-size="6.42842" font-family="Helvetica">2</text>
<text xml:space="preserve" x="39.3697" y="181.076" fill="black" font-size="9.39263" font-family="Helvetica">10</text>
<path d="M64.8464,162.235h -7.65346" fill="none" stroke="black"/>
<path d="M64.8464,153.457h -7.65346" fill="none" stroke="black"/>
<path d="M64.8464,147.229h -7.65346" fill="none" stroke="black"/>
<path d="M64.8464,142.398h -7.65346" fill="none" stroke="black"/>
<path d="M64.8464,138.451h -7.65346" fill="none" stroke="black"/>
<path d="M64.8464,135.114h -7.65346" fill="none" stroke="black"/>
<path d="M64.8464,132.223h -7.65346" fill="none" stroke="black"/>
<path d="M64.8464,129.673h -7.65346" fill="none" stroke="black"/>
<path d="M72.4998,127.392h -15.3069" fill="none" stroke="black"/>
<text xml:space="preserve" x="49.3242" y="127.038" fill="black" font-size="6.42842" font-family="Helvetica">3</text>
<text xml:space="preserve" x="39.3697" y="131.304" fill="black" font-size="9.39263" font-family="Helvetica">10</text>
<path d="M64.8464,112.386h -7.65346" fill="none" stroke="black"/>
<path d="M64.8464,103.608h -7.65346" fill="none" stroke="black"/>
<path d="M64.8464,97.3801h -7.65346" fill="none" stroke="black"/>
<path d="M64.8464,92.5493h -7.65346" fill="none" stroke="black"/>
<path d="M64.8464,88.6021h -7.65346" fill="none" stroke="black"/>
<path d="M64.8464,85.2649h -7.65346" fill="none" stroke="black"/>
<path d="M64.8464,82.3741h -7.65346" fill="none" stroke="black"/>
<path d="M64.8464,79.8242h -7.65346" fill="none" stroke="black"/>
<path d="M72.4998,77.5432h -15.3069" fill="none" stroke="black"/>
<text xml:space="preserve" x="49.3242" y="77.7394" fill="black" font-size="6.42842" font-family="Helvetica">4</text>
<text xml:space="preserve" x="39.3697" y="81.5316" fill="black" font-size="9.39263" font-family="Helvetica">10</text>
<path d="M64.8464,62.5372h -7.65346" fill="none" stroke="black"/>
<path d="M64.8464,53.7592h -7.65346" fill="none" stroke="black"/>
<path d="M64.8464,47.5311h -7.65346" fill="none" stroke="black"/>
<path d="M64.8464,42.7002h -7.65346" fill="none" stroke="black"/>
<path d="M64.8464,38.7531h -7.65346" fill="none" stroke="black"/>
<path d="M64.8464,35.4159h -7.65346" fill="none" stroke="black"/>
<path d="M64.8464,32.5251h -7.65346" fill="none" stroke="black"/>
<path d="M64.8464,29.9752h -7.65346" fill="none" stroke="black"/>
<path d="M72.4998,27.6942h -15.3069" fill="none" stroke="black"/>
<text xml:space="preserve" x="49.3242" y="27.4932" fill="black" font-size="6.42842" font-family="Helvetica">5</text>
<text xml:space="preserve" x="39.3697" y="31.7594" fill="black" font-size="9.39263" font-family="Helvetica">10</text>
<rect x="283.965" y="27.6942" width="113.386" height="55.3884" fill="white"/>
<path d="M283.965,83.0826h 113.386" fill="none" stroke="black"/>
<path d="M397.35,83.0826v -55.3884" fill="none" stroke="black"/>
<path d="M397.35,27.6942h -113.386" fill="none" stroke="black"/>
<path d="M283.965,27.6942v 55.3884" fill="none" stroke="black"/>
<text xml:space="preserve" x="292.023" y="37.9217" fill="#ff0000" font-size="12.1875" font-family="Helvetica">npe_PMT-S0-data</text>
<path d="M283.965,41.5413h 113.386" fill="none" stroke="black"/>
<text xml:space="preserve" x="289.179" y="53.0904" fill="#ff0000" font-size="12.1624" font-family="Helvetica">Entries </text>
<text xml:space="preserve" x="348.905" y="52.6163" fill="#ff0000" font-size="12.1624" font-family="Helvetica"> 147626</text>
<text xml:space="preserve" x="289.179" y="66.837" fill="#ff0000" font-size="12.1624" font-family="Helvetica">Mean  </text>
<text xml:space="preserve" x="358.86" y="66.3629" fill="#ff0000" font-size="12.1624" font-family="Helvetica">   5.64</text>
<text xml:space="preserve" x="289.179" y="80.5836" fill="#ff0000" font-size="12.1624" font-family="Helvetica">Std Dev   </text>
<text xml:space="preserve" x="355.542" y="80.1096" fill="#ff0000" font-size="12.1624" font-family="Helvetica">  7.188</text>
<path d="M57.1929,54.6219h 2.26772v 76.7261h 2.26772v -25.2979h 2.26772v -12.4132h 2.26772v 1.10686h 2.26772v 5.38537h 2.26772v 0.160365h 2.26772v -4.11464h 2.26772v 0.460472h 2.26772v 1.06097h 2.26772v 0.387889h 2.26772v 0.913602h 2.26772v -0.1569h
 2.26772v 0.391454h 2.26772v 1.28743h 2.26772v 0.712375h 2.26772v 0.207917h 2.26772v 1.64761h 2.26772v 0.73807h 2.26772v 1.82416h 2.26772v 0.416343h 2.26772v 0.449253h 2.26772v 2.48089h 2.26772v 2.43682h 2.26772v 0.313005h 2.26772v 1.53496h 2.26772v
 1.65216h 2.26772v 0.380789h 2.26772v 0.949954h 2.26772v 2.30688h 2.26772v 1.29088h 2.26772v 0.07658h 2.26772v 1.84053h 2.26772v 2.64407h 2.26772v 0.32327h 2.26772v 1.30289h 2.26772v 1.53874h 2.26772v 0.463692h 2.26772v 0.224346h 2.26772v 2.03184h
 2.26772v 1.17051h 2.26772v 2.19977h 2.26772v 0.174357h 2.26772v 2.01675h 2.26772v 0.915811h 2.26772v 1.5941h 2.26772v 1.14455h 2.26772v -0.0756964h 2.26772v 3.12418h 2.26772v 0.982192h 2.26772v -0.136588h 2.26772v 1.11762h 2.26772v 2.31817h 2.26772v
 -0.211729h 2.26772v -0.468953h 2.26772v 1.99648h 2.26772v 1.52192h 2.26772v 1.76826h 2.26772v -0.520125h 2.26772v 0.985716h 2.26772v 1.53209h 2.26772v 2.12119h 2.26772v -1.23743h 2.26772v 3.58926h 2.26772v 0.630165h 2.26772v -0.362337h 2.26772v
 -0.793744h 2.26772v 4.19095h 2.26772v -1.81355h 2.26772v 2.89084h 2.26772v -1.18213h 2.26772v -0.311504h 2.26772v 4.32145h 2.26772v 1.16352h 2.26772v 0.402163h 2.26772v -1.69118h 2.26772v 5.05098h 2.26772v -1.81778h 2.26772v -0.144811h 2.26772v
 -1.3972h 2.26772v 0.827457h 2.26772v 4.00341h 2.26772v -0.66618h 2.26772v 2.98476h 2.26772v 0.572258h 2.26772v -4.04354h 2.26772v 2.91376h 2.26772v -1.59127h 2.26772v 1.77552h 2.26772v -4.64504h 2.26772v 10.0858h 2.26772v -1.38233h 2.26772v
 -3.30532h 2.26772v 1.38444h 2.26772v 5.8234h 2.26772v -1.04353h 2.26772v -3.30082h 2.26772v 1.12197h 2.26772v -1.55497h 2.26772v 3.99002h 2.26772v 2.16672h 2.26772v 2.72867h 2.26772v 0.325557h 2.26772v -5.47716h 2.26772v 5.1516h 2.26772v -6.62825h
 2.26772v 0.973159h 2.26772v 0.759697h 2.26772v 1.88372h 2.26772v 3.66776h 2.26772v -2.80741h 2.26772v 1.51454h 2.26772v 3.02573h 2.26772v 0.73394h 2.26772v 1.14978h 4.53543v -3.61658h 2.26772v 2.4668h 2.26772v 1.14978h 2.26772v -2.93999h 2.26772v
 2.93999h 2.26772v 2.94715h 2.26772v -7.54054h 2.26772v 8.46192h 2.26772v 0.475825h 2.26772v -2.70968h 2.26772v -3.5184h 2.26772v 6.22807h 2.26772v -3.54244h 2.26772v 2.14523h 2.26772v 5.63491h 2.26772v -3.75119h 2.26772v -0.486518h 2.26772v
 -3.13006h 2.26772v 3.13006h 4.53543v 3.66036h 2.26772v 6.61125h 2.26772v -15.006h 2.26772v 10.1752h 2.26772v -7.28434h 2.26772v 4.3935h 2.26772v 5.5182h 2.26772v -0.687332h 2.26772v -6.39655h 2.26772v 4.45652h 2.26772v -1.78039h 2.26772v 4.40774h
 4.53543v -1.9998h 2.26772v -0.627556h 2.26772v 2.62736h 4.53543v -5.5182h 2.26772v 7.72171h 2.26772v -2.20351h 2.26772v -2.62736h 2.26772v 10.0518h 2.26772v -3.61658h 2.26772v -0.817046h 2.26772v 2.5499h 2.26772v 3.94711h 2.26772v -4.83087h 2.26772v
 4.83087h 2.26772v 2.28097h 2.26772v 2.5499h 2.26772v -8.77798h 2.26772v 3.94711h 2.26772v -5.67996h 2.26772v 10.5108h 2.26772v -3.72041h 2.26772v 2.40794h 2.26772v 5.80769h 2.26772v 1.73286h 2.26772v -14.0847h 2.26772v -55.6733h 2.26772v 123.554h
 54.4252" fill="none" stroke="#006633" stroke-width="2"/>
<rect x="397.35" y="27.6942" width="113.386" height="55.3884" fill="white"/>
<path d="M397.35,83.0826h 113.386" fill="none" stroke="black"/>
<path d="M510.736,83.0826v -55.3884" fill="none" stroke="black"/>
<path d="M510.736,27.6942h -113.386" fill="none" stroke="black"/>
<path d="M397.35,27.6942v 55.3884" fill="none" stroke="black"/>
<text xml:space="preserve" x="407.684" y="37.9217" fill="#006633" font-size="12.1875" font-family="Helvetica">npe_PMT-S0-MC</text>
<path d="M397.35,41.5413h 113.386" fill="none" stroke="black"/>
<text xml:space="preserve" x="402.944" y="53.0904" fill="#006633" font-size="12.1624" font-family="Helvetica">Entries </text>
<text xml:space="preserve" x="462.196" y="52.6163" fill="#006633" font-size="12.1624" font-family="Helvetica"> 147626</text>
<text xml:space="preserve" x="402.944" y="66.837" fill="#006633" font-size="12.1624" font-family="Helvetica">Mean  </text>
<text xml:space="preserve" x="472.151" y="66.3629" fill="#006633" font-size="12.1624" font-family="Helvetica">   6.23</text>
<text xml:space="preserve" x="402.944" y="80.5836" fill="#006633" font-size="12.1624" font-family="Helvetica">Std Dev   </text>
<text xml:space="preserve" x="470.729" y="80.1096" fill="#006633" font-size="12.1624" font-family="Helvetica">  7.761</text>
<rect x="397.35" y="27.6942" width="113.386" height="55.3884" fill="white"/>
<path d="M397.35,83.0826h 113.386" fill="none" stroke="black"/>
<path d="M510.736,83.0826v -55.3884" fill="none" stroke="black"/>
<path d="M510.736,27.6942h -113.386" fill="none" stroke="black"/>
<path d="M397.35,27.6942v 55.3884" fill="none" stroke="black"/>
<text xml:space="preserve" x="407.684" y="37.9217" fill="#006633" font-size="12.1875" font-family="Helvetica">npe_PMT-S0-MC</text>
<path d="M397.35,41.5413h 113.386" fill="none" stroke="black"/>
<text xml:space="preserve" x="402.944" y="53.0904" fill="#006633" font-size="12.1624" font-family="Helvetica">Entries </text>
<text xml:space="preserve" x="462.196" y="52.6163" fill="#006633" font-size="12.1624" font-family="Helvetica"> 147626</text>
<text xml:space="preserve" x="402.944" y="66.837" fill="#006633" font-size="12.1624" font-family="Helvetica">Mean  </text>
<text xml:space="preserve" x="472.151" y="66.3629" fill="#006633" font-size="12.1624" font-family="Helvetica">   6.23</text>
<text xml:space="preserve" x="402.944" y="80.5836" fill="#006633" font-size="12.1624" font-family="Helvetica">Std Dev   </text>
<text xml:space="preserve" x="470.729" y="80.1096" fill="#006633" font-size="12.1624" font-family="Helvetica">  7.761</text>
<rect x="397.35" y="83.0826" width="113.386" height="27.6942" fill="white"/>
<path d="M397.35,110.777h 113.386" fill="none" stroke="black"/>
<path d="M510.736,110.777v -27.6942" fill="none" stroke="black"/>
<path d="M510.736,83.0826h -113.386" fill="none" stroke="black"/>
<path d="M397.35,83.0826v 27.6942" fill="none" stroke="black"/>
<text xml:space="preserve" x="425.697" y="92.9081" fill="black" font-size="11.372" font-family="Helvetica">Data</text>
<path d="M401.602,90.0062h 19.8425" fill="none" stroke="#ff0000" stroke-width="2"/>
<text xml:space="preserve" x="425.697" y="106.655" fill="black" font-size="11.372" font-family="Helvetica">MC by rat</text>
<path d="M401.602,103.853h 19.8425" fill="none" stroke="#006633" stroke-width="2"/>
<rect x="0.5" y="276.942" width="566.929" height="136.404" fill="white"/>
<rect x="57.1929" y="276.943" width="453.543" height="95.4816" fill="white"/>
<rect x="57.1929" y="276.943" width="453.543" height="95.4816" fill="none" stroke="black"/>
<rect x="0.5" y="0" width="566.929" height="276.942" fill="white"/>
<rect x="57.1929" y="27.6942" width="453.543" height="249.245" fill="white"/>
<rect x="57.1929" y="27.6942" width="453.543" height="249.245" fill="none" stroke="black"/>
<rect x="57.1929" y="27.6942" width="453.543" height="249.245" fill="white"/>
<rect x="57.1929" y="27.6942" width="453.543" height="249.245" fill="none" stroke="black"/>
<path d="M57.1929,54.2113h 2.26772v 80.4436h 2.26772v -29.6918h 2.26772v -7.75549h 2.26772v 1.68548h 2.26772v 4.69346h 2.26772v -1.12379h 2.26772v -2.14226h 2.26772v -0.320005h 2.26772v -0.387467h 2.26772v 0.732285h 2.26772v -0.478793h 2.26772v
 0.176779h 2.26772v -0.115983h 2.26772v 0.699119h 2.26772v 0.361409h 2.26772v 1.04125h 4.53543v 0.577889h 2.26772v 0.593739h 2.26772v 1.11157h 2.26772v 1.20325h 2.26772v -0.344017h 2.26772v 2.34916h 2.26772v 0.622725h 2.26772v 1.21703h 2.26772v
 0.932841h 2.26772v 2.13623h 2.26772v 0.515872h 2.26772v 1.53017h 2.26772v 1.62089h 2.26772v 0.612445h 2.26772v 1.59015h 2.26772v 2.67651h 2.26772v 1.05546h 2.26772v 0.478454h 2.26772v 2.44863h 2.26772v 1.41914h 2.26772v 2.60938h 2.26772v 0.0934161h
 2.26772v 1.3271h 2.26772v 2.14316h 2.26772v 0.248685h 2.26772v 2.75233h 2.26772v 0.705664h 2.26772v 0.830845h 2.26772v 2.51182h 2.26772v 0.0762295h 2.26772v 1.33874h 2.26772v 0.534574h 2.26772v 3.03406h 2.26772v 1.4868h 2.26772v 1.59648h 2.26772v
 0.559441h 2.26772v 2.3314h 2.26772v -1.34586h 2.26772v 0.0593941h 2.26772v 0.119279h 2.26772v 1.93816h 2.26772v 3.01265h 2.26772v 1.23743h 2.26772v -1.31247h 2.26772v 1.63321h 2.26772v 3.02977h 2.26772v 2.14717h 2.26772v -0.10236h 2.26772v 2.14523h
 2.26772v -0.883762h 2.26772v -0.744762h 2.26772v 1.51606h 2.26772v 3.79063h 2.26772v -3.90252h 2.26772v 7.53125h 2.26772v 0.158603h 2.26772v -2.69094h 2.26772v 0.425899h 2.26772v -0.981036h 2.26772v 3.56681h 2.26772v -1.55817h 2.26772v 1.72033h
 2.26772v -0.482901h 2.26772v 2.35183h 2.26772v 2.04565h 2.26772v -1.32394h 2.26772v 2.94332h 2.26772v -4.01706h 2.26772v 5.54074h 2.26772v 0.226695h 2.26772v -0.45104h 2.26772v 1.62155h 2.26772v -2.70968h 2.26772v 5.25958h 2.26772v -3.02573h
 2.26772v 8.89596h 2.26772v -7.1827h 2.26772v -0.253209h 2.26772v 1.56568h 2.26772v 1.98235h 2.26772v 2.18234h 2.26772v -2.76748h 2.26772v 2.44193h 2.26772v 2.0311h 2.26772v 0.357845h 2.26772v 3.94711h 2.26772v -7.28434h 2.26772v 0.311504h 2.26772v
 9.74032h 2.26772v -6.35073h 2.26772v 4.02062h 2.26772v -2.89084h 2.26772v 0.787329h 4.53543v 3.47128h 2.26772v 3.02573h 2.26772v 2.28097h 2.26772v 0.609876h 2.26772v 6.43524h 2.26772v -6.43524h 2.26772v -6.38216h 2.26772v 1.42793h 2.26772v 1.52881h
 2.26772v -4.29629h 2.26772v 10.3491h 2.26772v 2.99084h 2.26772v -16.1766h 2.26772v 9.94848h 2.26772v -2.28097h 2.26772v -3.02573h 2.26772v 8.54393h 4.53543v 4.65698h 2.26772v -6.01049h 2.26772v 0.66618h 2.26772v -1.94003h 2.26772v 1.94003h 4.53543v
 -0.66618h 2.26772v -2.47689h 2.26772v 4.54027h 2.26772v 0.73394h 2.26772v 4.09693h 2.26772v -2.5499h 2.26772v -0.787329h 2.26772v 3.33723h 2.26772v -9.37114h 2.26772v 6.82124h 2.26772v 8.77798h 2.26772v -14.3962h 2.26772v 15.6336h 2.26772v -7.4655h
 2.26772v -1.73286h 4.53543v -3.09801h 2.26772v 3.94711h 2.26772v 0.883762h 2.26772v 1.88372h 6.80315v -2.76748h 2.26772v 4.83087h 4.53543v 2.28097h 2.26772v 1.23743h 2.26772v -4.57466h 2.26772v -1.96946h 2.26772v 3.02573h 2.26772v -3.02573h 2.26772v
 14.0847h 2.26772v -6.22807h 2.26772v 8.1118h 4.53543v -11.8322h 2.26772v 3.72041h 2.26772v -4.83087h 2.26772v 2.28097h 2.26772v 5.44074h 2.26772v 1.60437h 2.26772v -7.04512h 2.26772v 7.04512h 2.26772v 1.73286h 2.26772v -9.94848h 2.26772v -53.0229h
 2.26772v 116.767h 40.8189" fill="none" stroke="#ff0000" stroke-width="2"/>
<rect x="283.965" y="27.6942" width="113.386" height="55.3884" fill="white"/>
<path d="M283.965,83.0826h 113.386" fill="none" stroke="black"/>
<path d="M397.35,83.0826v -55.3884" fill="none" stroke="black"/>
<path d="M397.35,27.6942h -113.386" fill="none" stroke="black"/>
<path d="M283.965,27.6942v 55.3884" fill="none" stroke="black"/>
<text xml:space="preserve" x="292.023" y="37.9217" fill="#ff0000" font-size="12.1875" font-family="Helvetica">npe_PMT-S1-data</text>
<path d="M283.965,41.5413h 113.386" fill="none" stroke="black"/>
<text xml:space="preserve" x="289.179" y="53.0904" fill="#ff0000" font-size="12.1624" font-family="Helvetica">Entries </text>
<text xml:space="preserve" x="348.905" y="52.6163" fill="#ff0000" font-size="12.1624" font-family="Helvetica"> 147620</text>
<text xml:space="preserve" x="289.179" y="66.837" fill="#ff0000" font-size="12.1624" font-family="Helvetica">Mean  </text>
<text xml:space="preserve" x="355.542" y="66.3629" fill="#ff0000" font-size="12.1624" font-family="Helvetica">  6.156</text>
<text xml:space="preserve" x="289.179" y="80.5836" fill="#ff0000" font-size="12.1624" font-family="Helvetica">Std Dev   </text>
<text xml:space="preserve" x="355.542" y="80.1096" fill="#ff0000" font-size="12.1624" font-family="Helvetica">  7.305</text>
<path d="M57.1929,276.939h 453.543" fill="none" stroke="black"/>
<path d="M57.1929,270.293v 6.64661" fill="none" stroke="black"/>
<path d="M72.311,273.616v 3.3233" fill="none" stroke="black"/>
<path d="M87.4291,273.616v 3.3233" fill="none" stroke="black"/>
<path d="M102.547,273.616v 3.3233" fill="none" stroke="black"/>
<path d="M117.665,273.616v 3.3233" fill="none" stroke="black"/>
<path d="M132.783,270.293v 6.64661" fill="none" stroke="black"/>
<path d="M147.902,273.616v 3.3233" fill="none" stroke="black"/>
<path d="M163.02,273.616v 3.3233" fill="none" stroke="black"/>
<path d="M178.138,273.616v 3.3233" fill="none" stroke="black"/>
<path d="M193.256,273.616v 3.3233" fill="none" stroke="black"/>
<path d="M208.374,270.293v 6.64661" fill="none" stroke="black"/>
<path d="M223.492,273.616v 3.3233" fill="none" stroke="black"/>
<path d="M238.61,273.616v 3.3233" fill="none" stroke="black"/>
<path d="M253.728,273.616v 3.3233" fill="none" stroke="black"/>
<path d="M268.846,273.616v 3.3233" fill="none" stroke="black"/>
<path d="M283.965,270.293v 6.64661" fill="none" stroke="black"/>
<path d="M299.083,273.616v 3.3233" fill="none" stroke="black"/>
<path d="M314.201,273.616v 3.3233" fill="none" stroke="black"/>
<path d="M329.319,273.616v 3.3233" fill="none" stroke="black"/>
<path d="M344.437,273.616v 3.3233" fill="none" stroke="black"/>
<path d="M359.555,270.293v 6.64661" fill="none" stroke="black"/>
<path d="M374.673,273.616v 3.3233" fill="none" stroke="black"/>
<path d="M389.791,273.616v 3.3233" fill="none" stroke="black"/>
<path d="M404.909,273.616v 3.3233" fill="none" stroke="black"/>
<path d="M420.028,273.616v 3.3233" fill="none" stroke="black"/>
<path d="M435.146,270.293v 6.64661" fill="none" stroke="black"/>
<path d="M450.264,273.616v 3.3233" fill="none" stroke="black"/>
<path d="M465.382,273.616v 3.3233" fill="none" stroke="black"/>
<path d="M480.5,273.616v 3.3233" fill="none" stroke="black"/>
<path d="M495.618,273.616v 3.3233" fill="none" stroke="black"/>
<path d="M510.736,270.293v 6.64661" fill="none" stroke="black"/>
<text xml:space="preserve" x="54.5384" y="285.835" fill="black" font-size="9.39263" font-family="Helvetica">0</text>
<text xml:space="preserve" x="127.538" y="285.835" fill="black" font-size="9.39263" font-family="Helvetica">10</text>
<text xml:space="preserve" x="202.907" y="285.835" fill="black" font-size="9.39263" font-family="Helvetica">20</text>
<text xml:space="preserve" x="278.75" y="285.835" fill="black" font-size="9.39263" font-family="Helvetica">30</text>
<text xml:space="preserve" x="354.12" y="285.835" fill="black" font-size="9.39263" font-family="Helvetica">40</text>
<text xml:space="preserve" x="429.489" y="285.835" fill="black" font-size="9.39263" font-family="Helvetica">50</text>
<text xml:space="preserve" x="505.332" y="285.835" fill="black" font-size="9.39263" font-family="Helvetica">60</text>
<text xml:space="preserve" x="490.638" y="293.893" fill="black" font-size="9.39263" font-family="Helvetica">n.p.e</text>
<path d="M57.1929,276.939v -249.245" fill="none" stroke="black"/>
<path d="M72.4998,276.939h -15.3069" fill="none" stroke="black"/>
<text xml:space="preserve" x="49.3242" y="280.62" fill="black" font-size="9.39263" font-family="Helvetica">1</text>
<path d="M64.8464,261.933h -7.65346" fill="none" stroke="black"/>
<path d="M64.8464,253.155h -7.65346" fill="none" stroke="black"/>
<path d="M64.8464,246.927h -7.65346" fill="none" stroke="black"/>
<path d="M64.8464,242.096h -7.65346" fill="none" stroke="black"/>
<path d="M64.8464,238.149h -7.65346" fill="none" stroke="black"/>
<path d="M64.8464,234.812h -7.65346" fill="none" stroke="black"/>
<path d="M64.8464,231.921h -7.65346" fill="none" stroke="black"/>
<path d="M64.8464,229.371h -7.65346" fill="none" stroke="black"/>
<path d="M72.4998,227.09h -15.3069" fill="none" stroke="black"/>
<text xml:space="preserve" x="42.6879" y="230.374" fill="black" font-size="9.39263" font-family="Helvetica">10</text>
<path d="M64.8464,212.084h -7.65346" fill="none" stroke="black"/>
<path d="M64.8464,203.306h -7.65346" fill="none" stroke="black"/>
<path d="M64.8464,197.078h -7.65346" fill="none" stroke="black"/>
<path d="M64.8464,192.247h -7.65346" fill="none" stroke="black"/>
<path d="M64.8464,188.3h -7.65346" fill="none" stroke="black"/>
<path d="M64.8464,184.963h -7.65346" fill="none" stroke="black"/>
<path d="M64.8464,182.072h -7.65346" fill="none" stroke="black"/>
<path d="M64.8464,179.522h -7.65346" fill="none" stroke="black"/>
<path d="M72.4998,177.241h -15.3069" fill="none" stroke="black"/>
<text xml:space="preserve" x="49.3242" y="177.284" fill="black" font-size="6.42842" font-family="Helvetica">2</text>
<text xml:space="preserve" x="39.3697" y="181.076" fill="black" font-size="9.39263" font-family="Helvetica">10</text>
<path d="M64.8464,162.235h -7.65346" fill="none" stroke="black"/>
<path d="M64.8464,153.457h -7.65346" fill="none" stroke="black"/>
<path d="M64.8464,147.229h -7.65346" fill="none" stroke="black"/>
<path d="M64.8464,142.398h -7.65346" fill="none" stroke="black"/>
<path d="M64.8464,138.451h -7.65346" fill="none" stroke="black"/>
<path d="M64.8464,135.114h -7.65346" fill="none" stroke="black"/>
<path d="M64.8464,132.223h -7.65346" fill="none" stroke="black"/>
<path d="M64.8464,129.673h -7.65346" fill="none" stroke="black"/>
<path d="M72.4998,127.392h -15.3069" fill="none" stroke="black"/>
<text xml:space="preserve" x="49.3242" y="127.038" fill="black" font-size="6.42842" font-family="Helvetica">3</text>
<text xml:space="preserve" x="39.3697" y="131.304" fill="black" font-size="9.39263" font-family="Helvetica">10</text>
<path d="M64.8464,112.386h -7.65346" fill="none" stroke="black"/>
<path d="M64.8464,103.608h -7.65346" fill="none" stroke="black"/>
<path d="M64.8464,97.3801h -7.65346" fill="none" stroke="black"/>
<path d="M64.8464,92.5493h -7.65346" fill="none" stroke="black"/>
<path d="M64.8464,88.6021h -7.65346" fill="none" stroke="black"/>
<path d="M64.8464,85.2649h -7.65346" fill="none" stroke="black"/>
<path d="M64.8464,82.3741h -7.65346" fill="none" stroke="black"/>
<path d="M64.8464,79.8242h -7.65346" fill="none" stroke="black"/>
<path d="M72.4998,77.5432h -15.3069" fill="none" stroke="black"/>
<text xml:space="preserve" x="49.3242" y="77.7394" fill="black" font-size="6.42842" font-family="Helvetica">4</text>
<text xml:space="preserve" x="39.3697" y="81.5316" fill="black" font-size="9.39263" font-family="Helvetica">10</text>
<path d="M64.8464,62.5372h -7.65346" fill="none" stroke="black"/>
<path d="M64.8464,53.7592h -7.65346" fill="none" stroke="black"/>
<path d="M64.8464,47.5311h -7.65346" fill="none" stroke="black"/>
<path d="M64.8464,42.7002h -7.65346" fill="none" stroke="black"/>
<path d="M64.8464,38.7531h -7.65346" fill="none" stroke="black"/>
<path d="M64.8464,35.4159h -7.65346" fill="none" stroke="black"/>
<path d="M64.8464,32.5251h -7.65346" fill="none" stroke="black"/>
<path d="M64.8464,29.9752h -7.65346" fill="none" stroke="black"/>
<path d="M72.4998,27.6942h -15.3069" fill="none" stroke="black"/>
<text xml:space="preserve" x="49.3242" y="27.4932" fill="black" font-size="6.42842" font-family="Helvetica">5</text>
<text xml:space="preserve" x="39.3697" y="31.7594" fill="black" font-size="9.39263" font-family="Helvetica">10</text>
<rect x="283.965" y="27.6942" width="113.386" height="55.3884" fill="white"/>
<path d="M283.965,83.0826h 113.386" fill="none" stroke="black"/>
<path d="M397.35,83.0826v -55.3884" fill="none" stroke="black"/>
<path d="M397.35,27.6942h -113.386" fill="none" stroke="black"/>
<path d="M283.965,27.6942v 55.3884" fill="none" stroke="black"/>
<text xml:space="preserve" x="292.023" y="37.9217" fill="#ff0000" font-size="12.1875" font-family="Helvetica">npe_PMT-S1-data</text>
<path d="M283.965,41.5413h 113.386" fill="none" stroke="black"/>
<text xml:space="preserve" x="289.179" y="53.0904" fill="#ff0000" font-size="12.1624" font-family="Helvetica">Entries </text>
<text xml:space="preserve" x="348.905" y="52.6163" fill="#ff0000" font-size="12.1624" font-family="Helvetica"> 147620</text>
<text xml:space="preserve" x="289.179" y="66.837" fill="#ff0000" font-size="12.1624" font-family="Helvetica">Mean  </text>
<text xml:space="preserve" x="355.542" y="66.3629" fill="#ff0000" font-size="12.1624" font-family="Helvetica">  6.156</text>
<text xml:space="preserve" x="289.179" y="80.5836" fill="#ff0000" font-size="12.1624" font-family="Helvetica">Std Dev   </text>
<text xml:space="preserve" x="355.542" y="80.1096" fill="#ff0000" font-size="12.1624" font-family="Helvetica">  7.305</text>
<path d="M57.1929,70.4562h 2.26772v 55.4309h 2.26772v -24.2502h 2.26772v -7.5165h 2.26772v 3.99745h 2.26772v 1.74873h 2.26772v -4.16757h 2.26772v -0.244007h 2.26772v -0.123442h 2.26772v 0.792253h 2.26772v -0.0510112h 2.26772v -0.243195h 2.26772v
 0.187221h 2.26772v 1.14258h 2.26772v 0.400121h 2.26772v 1.4617h 2.26772v 0.436418h 2.26772v 0.494102h 2.26772v 2.06399h 2.26772v 0.868681h 2.26772v 1.01443h 2.26772v 0.301966h 2.26772v 1.28329h 2.26772v 1.39773h 2.26772v 2.07766h 2.26772v 0.953945h
 2.26772v 0.927258h 2.26772v 0.758977h 2.26772v 2.21843h 2.26772v 0.741119h 2.26772v 1.6145h 2.26772v 0.895047h 2.26772v 0.406951h 2.26772v 1.9473h 2.26772v 1.81166h 2.26772v 0.29522h 2.26772v 1.03151h 2.26772v 2.76748h 2.26772v 0.639136h 2.26772v
 0.471321h 2.26772v 2.10901h 2.26772v 1.05284h 2.26772v 1.4372h 2.26772v 0.0256355h 2.26772v 0.783529h 2.26772v 1.45757h 2.26772v 0.373023h 2.26772v 2.64417h 2.26772v 1.55914h 2.26772v 2.10208h 2.26772v -1.05811h 2.26772v 0.750479h 2.26772v 1.1366h
 2.26772v 4.01159h 2.26772v -0.526304h 2.26772v 0.91727h 2.26772v -1.56912h 2.26772v 3.91044h 2.26772v -0.164217h 2.26772v 1.29203h 2.26772v 0.7659h 2.26772v -0.881363h 2.26772v 2.30657h 2.26772v 1.32048h 2.26772v 3.4624h 2.26772v -0.159186h 2.26772v
 -2.75162h 2.26772v 2.04942h 2.26772v 1.18331h 2.26772v 0.910806h 2.26772v 0.513443h 2.26772v 0.261361h 2.26772v 1.26323h 2.26772v -0.99867h 2.26772v 4.19698h 2.26772v -0.741119h 2.26772v 0.314521h 2.26772v 0.534574h 2.26772v 3.26519h 2.26772v
 -1.10416h 2.26772v 3.35718h 2.26772v -0.139223h 2.26772v 1.58303h 2.26772v -0.148792h 2.26772v -0.440337h 2.26772v 0.889816h 2.26772v -0.150866h 2.26772v -3.07796h 2.26772v 5.45938h 2.26772v 1.74685h 2.26772v -2.57011h 2.26772v 1.33268h 2.26772v
 -1.00712h 2.26772v 6.22807h 2.26772v -1.27385h 2.26772v 2.16672h 2.26772v -1.53917h 2.26772v 2.23385h 2.26772v -1.58756h 2.26772v 2.30528h 2.26772v -3.98761h 2.26772v 3.03585h 2.26772v 3.25977h 2.26772v -2.78912h 2.26772v 1.99213h 4.53543v -0.76869h
 2.26772v 3.25348h 2.26772v -3.50376h 2.26772v 8.77798h 2.26772v -6.13456h 2.26772v 2.06338h 2.26772v -3.68783h 2.26772v 2.48479h 2.26772v -0.860344h 2.26772v 4.69074h 2.26772v 1.07373h 2.26772v -6.59193h 2.26772v 3.83913h 2.26772v -1.25537h 2.26772v
 4.75477h 2.26772v -1.11046h 2.26772v 2.28097h 2.26772v 3.00569h 2.26772v -5.99653h 2.26772v 5.54074h 2.26772v -2.14523h 2.26772v 1.26147h 2.26772v -2.45347h 2.26772v 2.89084h 4.53543v 2.33011h 4.53543v 1.52881h 2.26772v -5.14539h 2.26772v 4.6237h
 2.26772v -3.33723h 2.26772v 2.82782h 2.26772v -1.92564h 2.26772v 5.77228h 2.26772v 3.23724h 2.26772v -0.687332h 2.26772v -3.72041h 2.26772v 7.39858h 2.26772v -5.6182h 2.26772v 9.08948h 2.26772v -10.8699h 2.26772v 7.39858h 2.26772v -5.6182h 2.26772v
 2.62736h 2.26772v 4.65698h 2.26772v 0.883762h 2.26772v -8.77798h 2.26772v 7.89421h 2.26772v -4.65698h 2.26772v 5.54074h 2.26772v -2.5499h 2.26772v 3.47128h 2.26772v 1.96946h 2.26772v 3.33723h 2.26772v -6.22807h 2.26772v 3.94711h 2.26772v -9.48785h
 2.26772v 17.2096h 2.26772v -6.61125h 2.26772v -2.16672h 2.26772v 1.05627h 2.26772v 2.28097h 2.26772v 3.94711h 2.26772v 6.71459h 2.26772v -3.61658h 2.26772v -5.80769h 2.26772v 5.80769h 2.26772v 3.61658h 2.26772v -3.61658h 2.26772v 5.67996h 2.26772v
 -7.28434h 2.26772v 3.33723h 2.26772v 3.94711h 2.26772v -11.4877h 2.26772v 2.70968h 2.26772v -54.3893h 2.26772v 113.016h 40.8189" fill="none" stroke="#006633" stroke-width="2"/>
<rect x="397.35" y="27.6942" width="113.386" height="55.3884" fill="white"/>
<path d="M397.35,83.0826h 113.386" fill="none" stroke="black"/>
<path d="M510.736,83.0826v -55.3884" fill="none" stroke="black"/>
<path d="M510.736,27.6942h -113.386" fill="none" stroke="black"/>
<path d="M397.35,27.6942v 55.3884" fill="none" stroke="black"/>
<text xml:space="preserve" x="407.684" y="37.9217" fill="#006633" font-size="12.1875" font-family="Helvetica">npe_PMT-S1-MC</text>
<path d="M397.35,41.5413h 113.386" fill="none" stroke="black"/>
<text xml:space="preserve" x="402.944" y="53.0904" fill="#006633" font-size="12.1624" font-family="Helvetica">Entries </text>
<text xml:space="preserve" x="462.196" y="52.6163" fill="#006633" font-size="12.1624" font-family="Helvetica"> 147620</text>
<text xml:space="preserve" x="402.944" y="66.837" fill="#006633" font-size="12.1624" font-family="Helvetica">Mean  </text>
<text xml:space="preserve" x="468.833" y="66.3629" fill="#006633" font-size="12.1624" font-family="Helvetica">  7.098</text>
<text xml:space="preserve" x="402.944" y="80.5836" fill="#006633" font-size="12.1624" font-family="Helvetica">Std Dev   </text>
<text xml:space="preserve" x="468.833" y="80.1096" fill="#006633" font-size="12.1624" font-family="Helvetica">  7.694</text>
<rect x="397.35" y="27.6942" width="113.386" height="55.3884" fill="white"/>
<path d="M397.35,83.0826h 113.386" fill="none" stroke="black"/>
<path d="M510.736,83.0826v -55.3884" fill="none" stroke="black"/>
<path d="M510.736,27.6942h -113.386" fill="none" stroke="black"/>
<path d="M397.35,27.6942v 55.3884" fill="none" stroke="black"/>
<text xml:space="preserve" x="407.684" y="37.9217" fill="#006633" font-size="12.1875" font-family="Helvetica">npe_PMT-S1-MC</text>
<path d="M397.35,41.5413h 113.386" fill="none" stroke="black"/>
<text xml:space="preserve" x="402.944" y="53.0904" fill="#006633" font-size="12.1624" font-family="Helvetica">Entries </text>
<text xml:space="preserve" x="462.196" y="52.6163" fill="#006633" font-size="12.1624" font-family="Helvetica"> 147620</text>
<text xml:space="preserve" x="402.944" y="66.837" fill="#006633" font-size="12.1624" font-family="Helvetica">Mean  </text>
<text xml:space="preserve" x="468.833" y="66.3629" fill="#006633" font-size="12.1624" font-family="Helvetica">  7.098</text>
<text xml:space="preserve" x="402.944" y="80.5836" fill="#006633" font-size="12.1624" font-family="Helvetica">Std Dev   </text>
<text xml:space="preserve" x="468.833" y="80.1096" fill="#006633" font-size="12.1624" font-family="Helvetica">  7.694</text>
<rect x="397.35" y="83.0826" width="113.386" height="27.6942" fill="white"/>
<path d="M397.35,110.777h 113.386" fill="none" stroke="black"/>
<path d="M510.736,110.777v -27.6942" fill="none" stroke="black"/>
<path d="M510.736,83.0826h -113.386" fill="none" stroke="black"/>
<path d="M397.35,83.0826v 27.6942" fill="none" stroke="black"/>
<text xml:space="preserve" x="425.697" y="92.9081" fill="black" font-size="11.372" font-family="Helvetica">Data</text>
<path d="M401.602,90.0062h 19.8425" fill="none" stroke="#ff0000" stroke-width="2"/>
<text xml:space="preserve" x="425.697" y="106.655" fill="black" font-size="11.372" font-family="Helvetica">MC by rat</text>
<path d="M401.602,103.853h 19.8425" fill="none" stroke="#006633" stroke-width="2"/>
<rect x="0.5" y="276.942" width="566.929" height="136.404" fill="white"/>
<rect x="57.1929" y="276.943" width="453.543" height="95.4816" fill="white"/>
<rect x="57.1929" y="276.943" width="453.543" height="95.4816" fill="none" stroke="black"/>
<rect x="0.5" y="0" width="566.929" height="276.942" fill="white"/>
<rect x="57.1929" y="27.6942" width="453.543" height="249.245" fill="white"/>
<rect x="57.1929" y="27.6942" width="453.543" height="249.245" fill="none" stroke="black"/>
<rect x="57.1929" y="27.6942" width="453.543" height="249.245" fill="white"/>
<rect x="57.1929" y="27.6942" width="453.543" height="249.245" fill="none" stroke="black"/>
<path d="M57.1929,45.1983h 2.26772v 76.0363h 2.26772v -31.1736h 2.26772v -7.53759h 2.26772v 1.26229h 2.26772v 3.77048h 2.26772v 0.844832h 2.26772v 0.320521h 2.26772v 1.29321h 2.26772v 2.17808h 2.26772v 1.71441h 2.26772v 1.75669h 2.26772v 1.474h
 2.26772v 1.99445h 2.26772v 2.82304h 2.26772v 2.46149h 2.26772v 1.96696h 2.26772v 1.96517h 2.26772v 1.83641h 2.26772v 3.26564h 2.26772v 1.61662h 2.26772v 2.18995h 2.26772v 3.81466h 2.26772v 2.62684h 2.26772v 2.37039h 2.26772v 1.10724h 2.26772v
 4.48533h 2.26772v 2.72198h 2.26772v 1.2304h 2.26772v 1.84922h 2.26772v 3.26839h 2.26772v 1.62289h 2.26772v 2.90937h 2.26772v -0.536985h 2.26772v 3.44195h 2.26772v 1.46136h 2.26772v 4.56044h 2.26772v 1.54703h 2.26772v 2.19206h 2.26772v -1.03936h
 2.26772v 4.59955h 2.26772v -3.38201h 2.26772v 7.64517h 2.26772v -0.627556h 2.26772v 1.01301h 2.26772v 1.33679h 2.26772v 0.558719h 2.26772v 2.5499h 2.26772v 4.99064h 2.26772v -2.99084h 2.26772v 7.42446h 2.26772v -1.42793h 2.26772v -0.902178h 2.26772v
 6.0813h 2.26772v -4.94758h 2.26772v 2.46278h 2.26772v 0.262417h 2.26772v -0.262417h 2.26772v 4.63612h 2.26772v 2.0311h 4.53543v 0.721705h 2.26772v -3.07354h 2.26772v 2.35183h 2.26772v 7.07244h 2.26772v 4.34435h 2.26772v -10.6951h 2.26772v 1.51986h
 2.26772v -0.773266h 2.26772v 6.10184h 2.26772v -4.52666h 2.26772v 8.37331h 2.26772v -2.81554h 2.26772v 4.69926h 2.26772v -4.16469h 2.26772v 2.28097h 2.26772v 1.88372h 2.26772v 2.06338h 2.26772v -2.70968h 2.26772v 0.646291h 2.26772v 1.35351h 2.26772v
 1.44381h 2.26772v 14.2721h 2.26772v -9.2538h 2.26772v -0.92138h 2.26772v 10.1752h 2.26772v -7.28434h 2.26772v 2.16672h 2.26772v -5.94132h 2.26772v 0.883762h 2.26772v 10.1752h 2.26772v -7.28434h 2.26772v -1.96946h 2.26772v 1.96946h 2.26772v -3.7746h
 2.26772v 9.66174h 4.53543v 6.22807h 2.26772v -13.1223h 4.53543v -77.1662h 2.26772v 144.085h 224.504" fill="none" stroke="#ff0000" stroke-width="2"/>
<rect x="283.965" y="27.6942" width="113.386" height="55.3884" fill="white"/>
<path d="M283.965,83.0826h 113.386" fill="none" stroke="black"/>
<path d="M397.35,83.0826v -55.3884" fill="none" stroke="black"/>
<path d="M397.35,27.6942h -113.386" fill="none" stroke="black"/>
<path d="M283.965,27.6942v 55.3884" fill="none" stroke="black"/>
<text xml:space="preserve" x="292.023" y="37.9217" fill="#ff0000" font-size="12.1875" font-family="Helvetica">npe_PMT-S2-data</text>
<path d="M283.965,41.5413h 113.386" fill="none" stroke="black"/>
<text xml:space="preserve" x="289.179" y="53.0904" fill="#ff0000" font-size="12.1875" font-family="Helvetica">Entries </text>
<text xml:space="preserve" x="350.802" y="52.6163" fill="#ff0000" font-size="12.1875" font-family="Helvetica"> 147701</text>
<text xml:space="preserve" x="289.179" y="66.837" fill="#ff0000" font-size="12.1875" font-family="Helvetica">Mean  </text>
<text xml:space="preserve" x="355.542" y="66.3629" fill="#ff0000" font-size="12.1875" font-family="Helvetica">  2.964</text>
<text xml:space="preserve" x="289.179" y="80.5836" fill="#ff0000" font-size="12.1875" font-family="Helvetica">Std Dev   </text>
<text xml:space="preserve" x="357.438" y="80.1096" fill="#ff0000" font-size="12.1875" font-family="Helvetica">  4.011</text>
<path d="M57.1929,276.939h 453.543" fill="none" stroke="black"/>
<path d="M57.1929,270.293v 6.64661" fill="none" stroke="black"/>
<path d="M72.311,273.616v 3.3233" fill="none" stroke="black"/>
<path d="M87.4291,273.616v 3.3233" fill="none" stroke="black"/>
<path d="M102.547,273.616v 3.3233" fill="none" stroke="black"/>
<path d="M117.665,273.616v 3.3233" fill="none" stroke="black"/>
<path d="M132.783,270.293v 6.64661" fill="none" stroke="black"/>
<path d="M147.902,273.616v 3.3233" fill="none" stroke="black"/>
<path d="M163.02,273.616v 3.3233" fill="none" stroke="black"/>
<path d="M178.138,273.616v 3.3233" fill="none" stroke="black"/>
<path d="M193.256,273.616v 3.3233" fill="none" stroke="black"/>
<path d="M208.374,270.293v 6.64661" fill="none" stroke="black"/>
<path d="M223.492,273.616v 3.3233" fill="none" stroke="black"/>
<path d="M238.61,273.616v 3.3233" fill="none" stroke="black"/>
<path d="M253.728,273.616v 3.3233" fill="none" stroke="black"/>
<path d="M268.846,273.616v 3.3233" fill="none" stroke="black"/>
<path d="M283.965,270.293v 6.64661" fill="none" stroke="black"/>
<path d="M299.083,273.616v 3.3233" fill="none" stroke="black"/>
<path d="M314.201,273.616v 3.3233" fill="none" stroke="black"/>
<path d="M329.319,273.616v 3.3233" fill="none" stroke="black"/>
<path d="M344.437,273.616v 3.3233" fill="none" stroke="black"/>
<path d="M359.555,270.293v 6.64661" fill="none" stroke="black"/>
<path d="M374.673,273.616v 3.3233" fill="none" stroke="black"/>
<path d="M389.791,273.616v 3.3233" fill="none" stroke="black"/>
<path d="M404.909,273.616v 3.3233" fill="none" stroke="black"/>
<path d="M420.028,273.616v 3.3233" fill="none" stroke="black"/>
<path d="M435.146,270.293v 6.64661" fill="none" stroke="black"/>
<path d="M450.264,273.616v 3.3233" fill="none" stroke="black"/>
<path d="M465.382,273.616v 3.3233" fill="none" stroke="black"/>
<path d="M480.5,273.616v 3.3233" fill="none" stroke="black"/>
<path d="M495.618,273.616v 3.3233" fill="none" stroke="black"/>
<path d="M510.736,270.293v 6.64661" fill="none" stroke="black"/>
<text xml:space="preserve" x="54.5384" y="285.835" fill="black" font-size="9.39263" font-family="Helvetica">0</text>
<text xml:space="preserve" x="127.538" y="285.835" fill="black" font-size="9.39263" font-family="Helvetica">10</text>
<text xml:space="preserve" x="202.907" y="285.835" fill="black" font-size="9.39263" font-family="Helvetica">20</text>
<text xml:space="preserve" x="278.75" y="285.835" fill="black" font-size="9.39263" font-family="Helvetica">30</text>
<text xml:space="preserve" x="354.12" y="285.835" fill="black" font-size="9.39263" font-family="Helvetica">40</text>
<text xml:space="preserve" x="429.489" y="285.835" fill="black" font-size="9.39263" font-family="Helvetica">50</text>
<text xml:space="preserve" x="505.332" y="285.835" fill="black" font-size="9.39263" font-family="Helvetica">60</text>
<text xml:space="preserve" x="490.638" y="293.893" fill="black" font-size="9.39263" font-family="Helvetica">n.p.e</text>
<path d="M57.1929,276.939v -249.245" fill="none" stroke="black"/>
<path d="M72.4998,276.939h -15.3069" fill="none" stroke="black"/>
<text xml:space="preserve" x="49.3242" y="280.62" fill="black" font-size="9.39263" font-family="Helvetica">1</text>
<path d="M64.8464,261.933h -7.65346" fill="none" stroke="black"/>
<path d="M64.8464,253.155h -7.65346" fill="none" stroke="black"/>
<path d="M64.8464,246.927h -7.65346" fill="none" stroke="black"/>
<path d="M64.8464,242.096h -7.65346" fill="none" stroke="black"/>
<path d="M64.8464,238.149h -7.65346" fill="none" stroke="black"/>
<path d="M64.8464,234.812h -7.65346" fill="none" stroke="black"/>
<path d="M64.8464,231.921h -7.65346" fill="none" stroke="black"/>
<path d="M64.8464,229.371h -7.65346" fill="none" stroke="black"/>
<path d="M72.4998,227.09h -15.3069" fill="none" stroke="black"/>
<text xml:space="preserve" x="42.6879" y="230.374" fill="black" font-size="9.39263" font-family="Helvetica">10</text>
<path d="M64.8464,212.084h -7.65346" fill="none" stroke="black"/>
<path d="M64.8464,203.306h -7.65346" fill="none" stroke="black"/>
<path d="M64.8464,197.078h -7.65346" fill="none" stroke="black"/>
<path d="M64.8464,192.247h -7.65346" fill="none" stroke="black"/>
<path d="M64.8464,188.3h -7.65346" fill="none" stroke="black"/>
<path d="M64.8464,184.963h -7.65346" fill="none" stroke="black"/>
<path d="M64.8464,182.072h -7.65346" fill="none" stroke="black"/>
<path d="M64.8464,179.522h -7.65346" fill="none" stroke="black"/>
<path d="M72.4998,177.241h -15.3069" fill="none" stroke="black"/>
<text xml:space="preserve" x="49.3242" y="177.284" fill="black" font-size="6.42842" font-family="Helvetica">2</text>
<text xml:space="preserve" x="39.3697" y="181.076" fill="black" font-size="9.39263" font-family="Helvetica">10</text>
<path d="M64.8464,162.235h -7.65346" fill="none" stroke="black"/>
<path d="M64.8464,153.457h -7.65346" fill="none" stroke="black"/>
<path d="M64.8464,147.229h -7.65346" fill="none" stroke="black"/>
<path d="M64.8464,142.398h -7.65346" fill="none" stroke="black"/>
<path d="M64.8464,138.451h -7.65346" fill="none" stroke="black"/>
<path d="M64.8464,135.114h -7.65346" fill="none" stroke="black"/>
<path d="M64.8464,132.223h -7.65346" fill="none" stroke="black"/>
<path d="M64.8464,129.673h -7.65346" fill="none" stroke="black"/>
<path d="M72.4998,127.392h -15.3069" fill="none" stroke="black"/>
<text xml:space="preserve" x="49.3242" y="127.038" fill="black" font-size="6.42842" font-family="Helvetica">3</text>
<text xml:space="preserve" x="39.3697" y="131.304" fill="black" font-size="9.39263" font-family="Helvetica">10</text>
<path d="M64.8464,112.386h -7.65346" fill="none" stroke="black"/>
<path d="M64.8464,103.608h -7.65346" fill="none" stroke="black"/>
<path d="M64.8464,97.3801h -7.65346" fill="none" stroke="black"/>
<path d="M64.8464,92.5493h -7.65346" fill="none" stroke="black"/>
<path d="M64.8464,88.6021h -7.65346" fill="none" stroke="black"/>
<path d="M64.8464,85.2649h -7.65346" fill="none" stroke="black"/>
<path d="M64.8464,82.3741h -7.65346" fill="none" stroke="black"/>
<path d="M64.8464,79.8242h -7.65346" fill="none" stroke="black"/>
<path d="M72.4998,77.5432h -15.3069" fill="none" stroke="black"/>
<text xml:space="preserve" x="49.3242" y="77.7394" fill="black" font-size="6.42842" font-family="Helvetica">4</text>
<text xml:space="preserve" x="39.3697" y="81.5316" fill="black" font-size="9.39263" font-family="Helvetica">10</text>
<path d="M64.8464,62.5372h -7.65346" fill="none" stroke="black"/>
<path d="M64.8464,53.7592h -7.65346" fill="none" stroke="black"/>
<path d="M64.8464,47.5311h -7.65346" fill="none" stroke="black"/>
<path d="M64.8464,42.7002h -7.65346" fill="none" stroke="black"/>
<path d="M64.8464,38.7531h -7.65346" fill="none" stroke="black"/>
<path d="M64.8464,35.4159h -7.65346" fill="none" stroke="black"/>
<path d="M64.8464,32.5251h -7.65346" fill="none" stroke="black"/>
<path d="M64.8464,29.9752h -7.65346" fill="none" stroke="black"/>
<path d="M72.4998,27.6942h -15.3069" fill="none" stroke="black"/>
<text xml:space="preserve" x="49.3242" y="27.4932" fill="black" font-size="6.42842" font-family="Helvetica">5</text>
<text xml:space="preserve" x="39.3697" y="31.7594" fill="black" font-size="9.39263" font-family="Helvetica">10</text>
<rect x="283.965" y="27.6942" width="113.386" height="55.3884" fill="white"/>
<path d="M283.965,83.0826h 113.386" fill="none" stroke="black"/>
<path d="M397.35,83.0826v -55.3884" fill="none" stroke="black"/>
<path d="M397.35,27.6942h -113.386" fill="none" stroke="black"/>
<path d="M283.965,27.6942v 55.3884" fill="none" stroke="black"/>
<text xml:space="preserve" x="292.023" y="37.9217" fill="#ff0000" font-size="12.1875" font-family="Helvetica">npe_PMT-S2-data</text>
<path d="M283.965,41.5413h 113.386" fill="none" stroke="black"/>
<text xml:space="preserve" x="289.179" y="53.0904" fill="#ff0000" font-size="12.1875" font-family="Helvetica">Entries </text>
<text xml:space="preserve" x="350.802" y="52.6163" fill="#ff0000" font-size="12.1875" font-family="Helvetica"> 147701</text>
<text xml:space="preserve" x="289.179" y="66.837" fill="#ff0000" font-size="12.1875" font-family="Helvetica">Mean  </text>
<text xml:space="preserve" x="355.542" y="66.3629" fill="#ff0000" font-size="12.1875" font-family="Helvetica">  2.964</text>
<text xml:space="preserve" x="289.179" y="80.5836" fill="#ff0000" font-size="12.1875" font-family="Helvetica">Std Dev   </text>
<text xml:space="preserve" x="357.438" y="80.1096" fill="#ff0000" font-size="12.1875" font-family="Helvetica">  4.011</text>
<path d="M57.1929,66.3324h 2.26772v 21.7916h 2.26772v -4.88022h 2.26772v -0.845303h 2.26772v -1.53207h 2.26772v 0.169778h 2.26772v 0.408317h 2.26772v 1.52217h 2.26772v 1.31873h 2.26772v 1.83112h 2.26772v 2.66319h 2.26772v 1.98749h 2.26772v 2.59381h
 2.26772v 2.33798h 2.26772v 2.64966h 2.26772v 2.31558h 2.26772v 2.90074h 2.26772v 2.81074h 2.26772v 2.42724h 2.26772v 2.10838h 2.26772v 2.22374h 2.26772v 2.83329h 2.26772v 2.8198h 2.26772v 3.07452h 2.26772v 1.74544h 2.26772v 1.17657h 2.26772v
 2.54271h 2.26772v 2.01164h 2.26772v 2.56175h 2.26772v 0.677014h 2.26772v 2.62913h 2.26772v 1.31247h 2.26772v 1.36203h 2.26772v 4.5602h 2.26772v 0.705534h 2.26772v 0.915534h 2.26772v 1.70171h 2.26772v 1.68233h 2.26772v 0.722632h 2.26772v 2.77005h
 2.26772v 2.8084h 2.26772v -1.20897h 2.26772v 3.3603h 2.26772v 2.20928h 2.26772v -0.266728h 2.26772v 2.52782h 2.26772v -0.197711h 2.26772v 3.75119h 2.26772v 2.21605h 2.26772v -2.90704h 2.26772v 3.56512h 2.26772v 5.2696h 2.26772v -3.45865h 2.26772v
 2.9532h 2.26772v 3.03406h 2.26772v -1.12003h 2.26772v 0.740214h 2.26772v -1.27922h 2.26772v 4.08954h 2.26772v 2.02056h 2.26772v -2.02056h 2.26772v 1.32587h 2.26772v 0.460638h 2.26772v 1.9473h 2.26772v -0.253209h 2.26772v -0.250282h 2.26772v 7.68619h
 2.26772v -4.18243h 2.26772v 2.80741h 2.26772v 7.01951h 2.26772v -8.31238h 2.26772v 3.75967h 2.26772v -1.09179h 2.26772v 1.09179h 2.26772v 2.36407h 2.26772v -2.73415h 2.26772v 7.87954h 2.26772v -5.96244h 2.26772v 3.94711h 2.26772v 3.66036h 2.26772v
 -2.16672h 2.26772v 8.77798h 2.26772v -10.7474h 2.26772v 4.71353h 2.26772v 1.8306h 2.26772v 4.20331h 2.26772v -2.20351h 2.26772v 0.709872h 2.26772v 3.94711h 2.26772v -3.94711h 2.26772v 9.88843h 2.26772v -1.11046h 2.26772v -3.94711h 2.26772v -4.83087h
 2.26772v 3.94711h 2.26772v 5.94132h 2.26772v -9.15449h 2.26772v 8.04404h 2.26772v 2.28097h 2.26772v 5.44074h 2.26772v -84.599h 2.26772v 141.732h 224.504" fill="none" stroke="#006633" stroke-width="2"/>
<rect x="397.35" y="27.6942" width="113.386" height="55.3884" fill="white"/>
<path d="M397.35,83.0826h 113.386" fill="none" stroke="black"/>
<path d="M510.736,83.0826v -55.3884" fill="none" stroke="black"/>
<path d="M510.736,27.6942h -113.386" fill="none" stroke="black"/>
<path d="M397.35,27.6942v 55.3884" fill="none" stroke="black"/>
<text xml:space="preserve" x="407.684" y="37.9217" fill="#006633" font-size="12.1875" font-family="Helvetica">npe_PMT-S2-MC</text>
<path d="M397.35,41.5413h 113.386" fill="none" stroke="black"/>
<text xml:space="preserve" x="402.944" y="53.0904" fill="#006633" font-size="12.1875" font-family="Helvetica">Entries </text>
<text xml:space="preserve" x="464.093" y="52.6163" fill="#006633" font-size="12.1875" font-family="Helvetica"> 147701</text>
<text xml:space="preserve" x="402.944" y="66.837" fill="#006633" font-size="12.1875" font-family="Helvetica">Mean  </text>
<text xml:space="preserve" x="468.833" y="66.3629" fill="#006633" font-size="12.1875" font-family="Helvetica">  3.608</text>
<text xml:space="preserve" x="402.944" y="80.5836" fill="#006633" font-size="12.1875" font-family="Helvetica">Std Dev   </text>
<text xml:space="preserve" x="472.151" y="80.1096" fill="#006633" font-size="12.1875" font-family="Helvetica">   4.15</text>
<rect x="397.35" y="27.6942" width="113.386" height="55.3884" fill="white"/>
<path d="M397.35,83.0826h 113.386" fill="none" stroke="black"/>
<path d="M510.736,83.0826v -55.3884" fill="none" stroke="black"/>
<path d="M510.736,27.6942h -113.386" fill="none" stroke="black"/>
<path d="M397.35,27.6942v 55.3884" fill="none" stroke="black"/>
<text xml:space="preserve" x="407.684" y="37.9217" fill="#006633" font-size="12.1875" font-family="Helvetica">npe_PMT-S2-MC</text>
<path d="M397.35,41.5413h 113.386" fill="none" stroke="black"/>
<text xml:space="preserve" x="402.944" y="53.0904" fill="#006633" font-size="12.1875" font-family="Helvetica">Entries </text>
<text xml:space="preserve" x="464.093" y="52.6163" fill="#006633" font-size="12.1875" font-family="Helvetica"> 147701</text>
<text xml:space="preserve" x="402.944" y="66.837" fill="#006633" font-size="12.1875" font-family="Helvetica">Mean  </text>
<text xml:space="preserve" x="468.833" y="66.3629" fill="#006633" font-size="12.1875" font-family="Helvetica">  3.608</text>
<text xml:space="preserve" x="402.944" y="80.5836" fill="#006633" font-size="12.1875" font-family="Helvetica">Std Dev   </text>
<text xml:space="preserve" x="472.151" y="80.1096" fill="#006633" font-size="12.1875" font-family="Helvetica">   4.15</text>
<rect x="397.35" y="83.0826" width="113.386" height="27.6942" fill="white"/>
<path d="M397.35,110.777h 113.386" fill="none" stroke="black"/>
<path d="M510.736,110.777v -27.6942" fill="none" stroke="black"/>
<path d="M510.736,83.0826h -113.386" fill="none" stroke="black"/>
<path d="M397.35,83.0826v 27.6942" fill="none" stroke="black"/>
<text xml:space="preserve" x="425.697" y="92.9081" fill="black" font-size="11.372" font-family="Helvetica">Data</text>
<path d="M401.602,90.0062h 19.8425" fill="none" stroke="#ff0000" stroke-width="2"/>
<text xml:space="preserve" x="425.697" y="106.655" fill="black" font-size="11.372" font-family="Helvetica">MC by rat</text>
<path d="M401.602,103.853h 19.8425" fill="none" stroke="#006633" stroke-width="2"/>
<rect x="0.5" y="276.942" width="566.929" height="136.404" fill="white"/>
<rect x="57.1929" y="276.943" width="453.543" height="95.4816" fill="white"/>
<rect x="57.1929" y="276.943" width="453.543" height="95.4816" fill="none" stroke="black"/>
<rect x="57.1929" y="276.943" width="453.543" height="95.4816" fill="white"/>
<rect x="57.1929" y="276.943" width="453.543" height="95.4816" fill="none" stroke="black"/>
<path d="M57.1929,372.425h 453.543" fill="none" stroke="black"/>
<path d="M57.1929,369.151v 3.2737" fill="none" stroke="black"/>
<path d="M72.311,370.788v 1.63685" fill="none" stroke="black"/>
<path d="M87.4291,370.788v 1.63685" fill="none" stroke="black"/>
<path d="M102.547,370.788v 1.63685" fill="none" stroke="black"/>
<path d="M117.665,370.788v 1.63685" fill="none" stroke="black"/>
<path d="M132.783,369.151v 3.2737" fill="none" stroke="black"/>
<path d="M147.902,370.788v 1.63685" fill="none" stroke="black"/>
<path d="M163.02,370.788v 1.63685" fill="none" stroke="black"/>
<path d="M178.138,370.788v 1.63685" fill="none" stroke="black"/>
<path d="M193.256,370.788v 1.63685" fill="none" stroke="black"/>
<path d="M208.374,369.151v 3.2737" fill="none" stroke="black"/>
<path d="M223.492,370.788v 1.63685" fill="none" stroke="black"/>
<path d="M238.61,370.788v 1.63685" fill="none" stroke="black"/>
<path d="M253.728,370.788v 1.63685" fill="none" stroke="black"/>
<path d="M268.846,370.788v 1.63685" fill="none" stroke="black"/>
<path d="M283.965,369.151v 3.2737" fill="none" stroke="black"/>
<path d="M299.083,370.788v 1.63685" fill="none" stroke="black"/>
<path d="M314.201,370.788v 1.63685" fill="none" stroke="black"/>
<path d="M329.319,370.788v 1.63685" fill="none" stroke="black"/>
<path d="M344.437,370.788v 1.63685" fill="none" stroke="black"/>
<path d="M359.555,369.151v 3.2737" fill="none" stroke="black"/>
<path d="M374.673,370.788v 1.63685" fill="none" stroke="black"/>
<path d="M389.791,370.788v 1.63685" fill="none" stroke="black"/>
<path d="M404.909,370.788v 1.63685" fill="none" stroke="black"/>
<path d="M420.028,370.788v 1.63685" fill="none" stroke="black"/>
<path d="M435.146,369.151v 3.2737" fill="none" stroke="black"/>
<path d="M450.264,370.788v 1.63685" fill="none" stroke="black"/>
<path d="M465.382,370.788v 1.63685" fill="none" stroke="black"/>
<path d="M480.5,370.788v 1.63685" fill="none" stroke="black"/>
<path d="M495.618,370.788v 1.63685" fill="none" stroke="black"/>
<path d="M510.736,369.151v 3.2737" fill="none" stroke="black"/>
<text xml:space="preserve" x="54.5384" y="380.639" fill="black" font-size="9.25991" font-family="Helvetica">0</text>
<text xml:space="preserve" x="127.538" y="380.639" fill="black" font-size="9.25991" font-family="Helvetica">10</text>
<text xml:space="preserve" x="202.907" y="380.639" fill="black" font-size="9.25991" font-family="Helvetica">20</text>
<text xml:space="preserve" x="278.75" y="380.639" fill="black" font-size="9.25991" font-family="Helvetica">30</text>
<text xml:space="preserve" x="354.12" y="380.639" fill="black" font-size="9.25991" font-family="Helvetica">40</text>
<text xml:space="preserve" x="429.489" y="380.639" fill="black" font-size="9.25991" font-family="Helvetica">50</text>
<text xml:space="preserve" x="505.332" y="380.639" fill="black" font-size="9.25991" font-family="Helvetica">60</text>
<text xml:space="preserve" x="443.71" y="393.437" fill="black" font-size="11.137" font-family="Helvetica">number of p.e</text>
<path d="M57.1929,372.425v -95.4816" fill="none" stroke="black"/>
<path d="M69.0983,367.506h -11.9053" fill="none" stroke="black"/>
<path d="M63.1456,365.172h -5.95267" fill="none" stroke="black"/>
<path d="M63.1456,362.837h -5.95267" fill="none" stroke="black"/>
<path d="M63.1456,360.503h -5.95267" fill="none" stroke="black"/>
<path d="M69.0983,358.169h -11.9053" fill="none" stroke="black"/>
<path d="M63.1456,355.835h -5.95267" fill="none" stroke="black"/>
<path d="M63.1456,353.501h -5.95267" fill="none" stroke="black"/>
<path d="M63.1456,351.167h -5.95267" fill="none" stroke="black"/>
<path d="M69.0983,348.833h -11.9053" fill="none" stroke="black"/>
<path d="M63.1456,346.498h -5.95267" fill="none" stroke="black"/>
<path d="M63.1456,344.164h -5.95267" fill="none" stroke="black"/>
<path d="M63.1456,341.83h -5.95267" fill="none" stroke="black"/>
<path d="M69.0983,339.496h -11.9053" fill="none" stroke="black"/>
<path d="M63.1456,337.162h -5.95267" fill="none" stroke="black"/>
<path d="M63.1456,334.828h -5.95267" fill="none" stroke="black"/>
<path d="M63.1456,332.493h -5.95267" fill="none" stroke="black"/>
<path d="M69.0983,330.159h -11.9053" fill="none" stroke="black"/>
<path d="M63.1456,327.825h -5.95267" fill="none" stroke="black"/>
<path d="M63.1456,325.491h -5.95267" fill="none" stroke="black"/>
<path d="M63.1456,323.157h -5.95267" fill="none" stroke="black"/>
<path d="M69.0983,320.823h -11.9053" fill="none" stroke="black"/>
<path d="M63.1456,318.488h -5.95267" fill="none" stroke="black"/>
<path d="M63.1456,316.154h -5.95267" fill="none" stroke="black"/>
<path d="M63.1456,313.82h -5.95267" fill="none" stroke="black"/>
<path d="M69.0983,311.486h -11.9053" fill="none" stroke="black"/>
<path d="M63.1456,309.152h -5.95267" fill="none" stroke="black"/>
<path d="M63.1456,306.818h -5.95267" fill="none" stroke="black"/>
<path d="M63.1456,304.483h -5.95267" fill="none" stroke="black"/>
<path d="M69.0983,302.149h -11.9053" fill="none" stroke="black"/>
<path d="M63.1456,299.815h -5.95267" fill="none" stroke="black"/>
<path d="M63.1456,297.481h -5.95267" fill="none" stroke="black"/>
<path d="M63.1456,295.147h -5.95267" fill="none" stroke="black"/>
<path d="M69.0983,292.813h -11.9053" fill="none" stroke="black"/>
<path d="M63.1456,290.479h -5.95267" fill="none" stroke="black"/>
<path d="M63.1456,288.144h -5.95267" fill="none" stroke="black"/>
<path d="M63.1456,285.81h -5.95267" fill="none" stroke="black"/>
<path d="M69.0983,283.476h -11.9053" fill="none" stroke="black"/>
<path d="M69.0983,367.506h -11.9053" fill="none" stroke="black"/>
<path d="M63.1456,369.84h -5.95267" fill="none" stroke="black"/>
<path d="M63.1456,372.174h -5.95267" fill="none" stroke="black"/>
<path d="M69.0983,283.476h -11.9053" fill="none" stroke="black"/>
<path d="M63.1456,281.142h -5.95267" fill="none" stroke="black"/>
<path d="M63.1456,278.808h -5.95267" fill="none" stroke="black"/>
<text xml:space="preserve" x="39.3697" y="370.684" fill="black" font-size="9.25991" font-family="Helvetica">120</text>
<text xml:space="preserve" x="34.1555" y="370.684" fill="black" font-size="9.25991" font-family="Times">&#8722;</text>
<text xml:space="preserve" x="39.3697" y="361.204" fill="black" font-size="9.25991" font-family="Helvetica">100</text>
<text xml:space="preserve" x="34.1555" y="361.204" fill="black" font-size="9.25991" font-family="Times">&#8722;</text>
<text xml:space="preserve" x="44.1099" y="351.724" fill="black" font-size="9.25991" font-family="Helvetica">80</text>
<text xml:space="preserve" x="38.8957" y="351.724" fill="black" font-size="9.25991" font-family="Times">&#8722;</text>
<text xml:space="preserve" x="44.1099" y="342.717" fill="black" font-size="9.25991" font-family="Helvetica">60</text>
<text xml:space="preserve" x="38.8957" y="342.717" fill="black" font-size="9.25991" font-family="Times">&#8722;</text>
<text xml:space="preserve" x="44.1099" y="333.237" fill="black" font-size="9.25991" font-family="Helvetica">40</text>
<text xml:space="preserve" x="38.8957" y="333.237" fill="black" font-size="9.25991" font-family="Times">&#8722;</text>
<text xml:space="preserve" x="44.1099" y="323.756" fill="black" font-size="9.25991" font-family="Helvetica">20</text>
<text xml:space="preserve" x="38.8957" y="323.756" fill="black" font-size="9.25991" font-family="Times">&#8722;</text>
<text xml:space="preserve" x="49.3242" y="314.75" fill="black" font-size="9.25991" font-family="Helvetica">0</text>
<text xml:space="preserve" x="44.1099" y="305.27" fill="black" font-size="9.25991" font-family="Helvetica">20</text>
<text xml:space="preserve" x="44.1099" y="295.789" fill="black" font-size="9.25991" font-family="Helvetica">40</text>
<text xml:space="preserve" x="44.1099" y="286.783" fill="black" font-size="9.25991" font-family="Helvetica">60</text>
<g transform="rotate(-90,35.5776,283.465)">
<text xml:space="preserve" x="35.5776" y="283.465" fill="black" font-size="11.137" font-family="Times">&#0963;</text>
</g>
<g transform="rotate(-90,35.5776,343.665)">
<text xml:space="preserve" x="35.5776" y="343.665" fill="black" font-size="11.137" font-family="Helvetica">(MC-DATA)/</text>
</g>
<g stroke="black" stroke-width="1" fill="none">
<line x1="56.1929" y1="311.486" x2="57.1929" y2="311.486"/>
<line x1="58.4606" y1="363.826" x2="59.4606" y2="363.826"/>
<line x1="60.7284" y1="285.52" x2="61.7284" y2="285.52"/>
<line x1="62.9961" y1="303.081" x2="63.9961" y2="303.081"/>
<line x1="65.2638" y1="311.316" x2="66.2638" y2="311.316"/>
<line x1="67.5315" y1="307.502" x2="68.5315" y2="307.502"/>
<line x1="69.7992" y1="302.996" x2="70.7992" y2="302.996"/>
<line x1="72.0669" y1="302.56" x2="73.0669" y2="302.56"/>
<line x1="74.3346" y1="304.252" x2="75.3346" y2="304.252"/>
<line x1="76.6024" y1="304.498" x2="77.6024" y2="304.498"/>
<line x1="78.8701" y1="304.412" x2="79.8701" y2="304.412"/>
<line x1="81.1378" y1="305.808" x2="82.1378" y2="305.808"/>
<line x1="83.4055" y1="306.293" x2="84.4055" y2="306.293"/>
<line x1="85.6732" y1="307.662" x2="86.6732" y2="307.662"/>
<line x1="87.9409" y1="308.179" x2="88.9409" y2="308.179"/>
<line x1="90.2087" y1="308.225" x2="91.2087" y2="308.225"/>
<line x1="92.4764" y1="308.276" x2="93.4764" y2="308.276"/>
<line x1="94.7441" y1="309.206" x2="95.7441" y2="309.206"/>
<line x1="97.0118" y1="309.975" x2="98.0118" y2="309.975"/>
<line x1="99.2795" y1="310.478" x2="100.28" y2="310.478"/>
<line x1="101.547" y1="309.746" x2="102.547" y2="309.746"/>
<line x1="103.815" y1="310.219" x2="104.815" y2="310.219"/>
<line x1="106.083" y1="310.689" x2="107.083" y2="310.689"/>
<line x1="108.35" y1="310.178" x2="109.35" y2="310.178"/>
<line x1="110.618" y1="310.501" x2="111.618" y2="310.501"/>
<line x1="112.886" y1="310.227" x2="113.886" y2="310.227"/>
<line x1="115.154" y1="310.295" x2="116.154" y2="310.295"/>
<line x1="117.421" y1="309.497" x2="118.421" y2="309.497"/>
<line x1="119.689" y1="309.294" x2="120.689" y2="309.294"/>
<line x1="121.957" y1="309.941" x2="122.957" y2="309.941"/>
<line x1="124.224" y1="309.513" x2="125.224" y2="309.513"/>
<line x1="126.492" y1="309.402" x2="127.492" y2="309.402"/>
<line x1="128.76" y1="309.359" x2="129.76" y2="309.359"/>
<line x1="131.028" y1="308.926" x2="132.028" y2="308.926"/>
<line x1="133.295" y1="310.728" x2="134.295" y2="310.728"/>
<line x1="135.563" y1="309.9" x2="136.563" y2="309.9"/>
<line x1="137.831" y1="309.775" x2="138.831" y2="309.775"/>
<line x1="140.098" y1="309.082" x2="141.098" y2="309.082"/>
<line x1="142.366" y1="309.207" x2="143.366" y2="309.207"/>
<line x1="144.634" y1="308.895" x2="145.634" y2="308.895"/>
<line x1="146.902" y1="309.933" x2="147.902" y2="309.933"/>
<line x1="149.169" y1="309.633" x2="150.169" y2="309.633"/>
<line x1="151.437" y1="310.079" x2="152.437" y2="310.079"/>
<line x1="153.705" y1="309.3" x2="154.705" y2="309.3"/>
<line x1="155.972" y1="309.954" x2="156.972" y2="309.954"/>
<line x1="158.24" y1="309.692" x2="159.24" y2="309.692"/>
<line x1="160.508" y1="310.015" x2="161.508" y2="310.015"/>
<line x1="162.776" y1="309.866" x2="163.776" y2="309.866"/>
<line x1="165.043" y1="310.209" x2="166.043" y2="310.209"/>
<line x1="167.311" y1="309.825" x2="168.311" y2="309.825"/>
<line x1="169.579" y1="309.724" x2="170.579" y2="309.724"/>
<line x1="171.846" y1="309.301" x2="172.846" y2="309.301"/>
<line x1="174.114" y1="310.45" x2="175.114" y2="310.45"/>
<line x1="176.382" y1="309.971" x2="177.382" y2="309.971"/>
<line x1="178.65" y1="309.656" x2="179.65" y2="309.656"/>
<line x1="180.917" y1="310.835" x2="181.917" y2="310.835"/>
<line x1="183.185" y1="310.303" x2="184.185" y2="310.303"/>
<line x1="185.453" y1="310.388" x2="186.453" y2="310.388"/>
<line x1="187.72" y1="310.214" x2="188.72" y2="310.214"/>
<line x1="189.988" y1="310.261" x2="190.988" y2="310.261"/>
<line x1="192.256" y1="310.316" x2="193.256" y2="310.316"/>
<line x1="194.524" y1="310.019" x2="195.524" y2="310.019"/>
<line x1="196.791" y1="310.132" x2="197.791" y2="310.132"/>
<line x1="199.059" y1="310.566" x2="200.059" y2="310.566"/>
<line x1="201.327" y1="310.559" x2="202.327" y2="310.559"/>
<line x1="203.594" y1="309.766" x2="204.594" y2="309.766"/>
<line x1="205.862" y1="309.339" x2="206.862" y2="309.339"/>
<line x1="208.13" y1="311.401" x2="209.13" y2="311.401"/>
<line x1="210.398" y1="310.705" x2="211.398" y2="310.705"/>
<line x1="212.665" y1="311.148" x2="213.665" y2="311.148"/>
<line x1="214.933" y1="311.289" x2="215.933" y2="311.289"/>
<line x1="217.201" y1="310.81" x2="218.201" y2="310.81"/>
<line x1="219.469" y1="310.427" x2="220.469" y2="310.427"/>
<line x1="221.736" y1="310.561" x2="222.736" y2="310.561"/>
<line x1="224.004" y1="310.263" x2="225.004" y2="310.263"/>
<line x1="226.272" y1="310.902" x2="227.272" y2="310.902"/>
<line x1="228.539" y1="310.384" x2="229.539" y2="310.384"/>
<line x1="230.807" y1="311.052" x2="231.807" y2="311.052"/>
<line x1="233.075" y1="310.264" x2="234.075" y2="310.264"/>
<line x1="235.343" y1="310.908" x2="236.343" y2="310.908"/>
<line x1="237.61" y1="311.209" x2="238.61" y2="311.209"/>
<line x1="239.878" y1="310.885" x2="240.878" y2="310.885"/>
<line x1="242.146" y1="311.548" x2="243.146" y2="311.548"/>
<line x1="244.413" y1="309.633" x2="245.413" y2="309.633"/>
<line x1="246.681" y1="310.642" x2="247.681" y2="310.642"/>
<line x1="248.949" y1="310.873" x2="249.949" y2="310.873"/>
<line x1="251.217" y1="310.56" x2="252.217" y2="310.56"/>
<line x1="253.484" y1="310.839" x2="254.484" y2="310.839"/>
<line x1="255.752" y1="310.752" x2="256.752" y2="310.752"/>
<line x1="258.02" y1="311.486" x2="259.02" y2="311.486"/>
<line x1="260.287" y1="311.105" x2="261.287" y2="311.105"/>
<line x1="262.555" y1="311.166" x2="263.555" y2="311.166"/>
<line x1="264.823" y1="311.559" x2="265.823" y2="311.559"/>
<line x1="267.091" y1="311.418" x2="268.091" y2="311.418"/>
<line x1="269.358" y1="310.898" x2="270.358" y2="310.898"/>
<line x1="271.626" y1="311.486" x2="272.626" y2="311.486"/>
<line x1="273.894" y1="311.249" x2="274.894" y2="311.249"/>
<line x1="276.161" y1="310.581" x2="277.161" y2="310.581"/>
<line x1="278.429" y1="310.826" x2="279.429" y2="310.826"/>
<line x1="280.697" y1="311.781" x2="281.697" y2="311.781"/>
<line x1="282.965" y1="312.108" x2="283.965" y2="312.108"/>
<line x1="285.232" y1="312.459" x2="286.232" y2="312.459"/>
</g>
<path d="M59.4606,363.826v -0.642069" fill="none" stroke="black"/>
<path d="M58.5126,363.184h 1.89608" fill="none" stroke="black"/>
<path d="M59.4606,363.826v 0.642069" fill="none" stroke="black"/>
<path d="M58.5126,364.468h 1.89608" fill="none" stroke="black"/>
<path d="M61.7284,285.52v -0.620229" fill="none" stroke="black"/>
<path d="M60.7803,284.9h 1.89608" fill="none" stroke="black"/>
<path d="M61.7284,285.52v 0.620229" fill="none" stroke="black"/>
<path d="M60.7803,286.141h 1.89608" fill="none" stroke="black"/>
<path d="M63.9961,303.081v -0.658172" fill="none" stroke="black"/>
<path d="M63.048,302.422h 1.89608" fill="none" stroke="black"/>
<path d="M63.9961,303.081v 0.658172" fill="none" stroke="black"/>
<path d="M63.048,303.739h 1.89608" fill="none" stroke="black"/>
<path d="M66.2638,311.316v -0.660199" fill="none" stroke="black"/>
<path d="M65.3157,310.656h 1.89608" fill="none" stroke="black"/>
<path d="M66.2638,311.316v 0.660199" fill="none" stroke="black"/>
<path d="M65.3157,311.976h 1.89608" fill="none" stroke="black"/>
<path d="M68.5315,307.502v -0.659826" fill="none" stroke="black"/>
<path d="M67.5835,306.842h 1.89608" fill="none" stroke="black"/>
<path d="M68.5315,307.502v 0.659826" fill="none" stroke="black"/>
<path d="M67.5835,308.161h 1.89608" fill="none" stroke="black"/>
<path d="M70.7992,302.996v -0.658344" fill="none" stroke="black"/>
<path d="M69.8512,302.338h 1.89608" fill="none" stroke="black"/>
<path d="M70.7992,302.996v 0.658344" fill="none" stroke="black"/>
<path d="M69.8512,303.654h 1.89608" fill="none" stroke="black"/>
<path d="M73.0669,302.56v -0.658089" fill="none" stroke="black"/>
<path d="M72.1189,301.902h 1.89608" fill="none" stroke="black"/>
<path d="M73.0669,302.56v 0.658089" fill="none" stroke="black"/>
<path d="M72.1189,303.218h 1.89608" fill="none" stroke="black"/>
<path d="M75.3346,304.252v -0.658751" fill="none" stroke="black"/>
<path d="M74.3866,303.594h 1.89608" fill="none" stroke="black"/>
<path d="M75.3346,304.252v 0.658751" fill="none" stroke="black"/>
<path d="M74.3866,304.911h 1.89608" fill="none" stroke="black"/>
<path d="M77.6024,304.498v -0.658764" fill="none" stroke="black"/>
<path d="M76.6543,303.84h 1.89608" fill="none" stroke="black"/>
<path d="M77.6024,304.498v 0.658764" fill="none" stroke="black"/>
<path d="M76.6543,305.157h 1.89608" fill="none" stroke="black"/>
<path d="M79.8701,304.412v -0.658586" fill="none" stroke="black"/>
<path d="M78.922,303.753h 1.89608" fill="none" stroke="black"/>
<path d="M79.8701,304.412v 0.658586" fill="none" stroke="black"/>
<path d="M78.922,305.07h 1.89608" fill="none" stroke="black"/>
<path d="M82.1378,305.808v -0.659048" fill="none" stroke="black"/>
<path d="M81.1898,305.149h 1.89608" fill="none" stroke="black"/>
<path d="M82.1378,305.808v 0.659048" fill="none" stroke="black"/>
<path d="M81.1898,306.467h 1.89608" fill="none" stroke="black"/>
<path d="M84.4055,306.293v -0.659149" fill="none" stroke="black"/>
<path d="M83.4575,305.633h 1.89608" fill="none" stroke="black"/>
<path d="M84.4055,306.293v 0.659149" fill="none" stroke="black"/>
<path d="M83.4575,306.952h 1.89608" fill="none" stroke="black"/>
<path d="M86.6732,307.662v -0.659574" fill="none" stroke="black"/>
<path d="M85.7252,307.003h 1.89608" fill="none" stroke="black"/>
<path d="M86.6732,307.662v 0.659574" fill="none" stroke="black"/>
<path d="M85.7252,308.322h 1.89608" fill="none" stroke="black"/>
<path d="M88.9409,308.179v -0.659682" fill="none" stroke="black"/>
<path d="M87.9929,307.52h 1.89608" fill="none" stroke="black"/>
<path d="M88.9409,308.179v 0.659682" fill="none" stroke="black"/>
<path d="M87.9929,308.839h 1.89608" fill="none" stroke="black"/>
<path d="M91.2087,308.225v -0.659629" fill="none" stroke="black"/>
<path d="M90.2606,307.566h 1.89608" fill="none" stroke="black"/>
<path d="M91.2087,308.225v 0.659629" fill="none" stroke="black"/>
<path d="M90.2606,308.885h 1.89608" fill="none" stroke="black"/>
<path d="M93.4764,308.276v -0.659582" fill="none" stroke="black"/>
<path d="M92.5283,307.616h 1.89608" fill="none" stroke="black"/>
<path d="M93.4764,308.276v 0.659582" fill="none" stroke="black"/>
<path d="M92.5283,308.935h 1.89608" fill="none" stroke="black"/>
<path d="M95.7441,309.206v -0.659851" fill="none" stroke="black"/>
<path d="M94.7961,308.546h 1.89608" fill="none" stroke="black"/>
<path d="M95.7441,309.206v 0.659851" fill="none" stroke="black"/>
<path d="M94.7961,309.866h 1.89608" fill="none" stroke="black"/>
<path d="M98.0118,309.975v -0.660029" fill="none" stroke="black"/>
<path d="M97.0638,309.315h 1.89608" fill="none" stroke="black"/>
<path d="M98.0118,309.975v 0.660029" fill="none" stroke="black"/>
<path d="M97.0638,310.635h 1.89608" fill="none" stroke="black"/>
<path d="M100.28,310.478v -0.660116" fill="none" stroke="black"/>
<path d="M99.3315,309.818h 1.89608" fill="none" stroke="black"/>
<path d="M100.28,310.478v 0.660116" fill="none" stroke="black"/>
<path d="M99.3315,311.138h 1.89608" fill="none" stroke="black"/>
<path d="M102.547,309.746v -0.659916" fill="none" stroke="black"/>
<path d="M101.599,309.086h 1.89608" fill="none" stroke="black"/>
<path d="M102.547,309.746v 0.659916" fill="none" stroke="black"/>
<path d="M101.599,310.406h 1.89608" fill="none" stroke="black"/>
<path d="M104.815,310.219v -0.660036" fill="none" stroke="black"/>
<path d="M103.867,309.559h 1.89608" fill="none" stroke="black"/>
<path d="M104.815,310.219v 0.660036" fill="none" stroke="black"/>
<path d="M103.867,310.88h 1.89608" fill="none" stroke="black"/>
<path d="M107.083,310.689v -0.660127" fill="none" stroke="black"/>
<path d="M106.135,310.028h 1.89608" fill="none" stroke="black"/>
<path d="M107.083,310.689v 0.660127" fill="none" stroke="black"/>
<path d="M106.135,311.349h 1.89608" fill="none" stroke="black"/>
<path d="M109.35,310.178v -0.659971" fill="none" stroke="black"/>
<path d="M108.402,309.518h 1.89608" fill="none" stroke="black"/>
<path d="M109.35,310.178v 0.659971" fill="none" stroke="black"/>
<path d="M108.402,310.838h 1.89608" fill="none" stroke="black"/>
<path d="M111.618,310.501v -0.660052" fill="none" stroke="black"/>
<path d="M110.67,309.841h 1.89608" fill="none" stroke="black"/>
<path d="M111.618,310.501v 0.660052" fill="none" stroke="black"/>
<path d="M110.67,311.161h 1.89608" fill="none" stroke="black"/>
<path d="M113.886,310.227v -0.659934" fill="none" stroke="black"/>
<path d="M112.938,309.567h 1.89608" fill="none" stroke="black"/>
<path d="M113.886,310.227v 0.659934" fill="none" stroke="black"/>
<path d="M112.938,310.887h 1.89608" fill="none" stroke="black"/>
<path d="M116.154,310.295v -0.659948" fill="none" stroke="black"/>
<path d="M115.206,309.635h 1.89608" fill="none" stroke="black"/>
<path d="M116.154,310.295v 0.659948" fill="none" stroke="black"/>
<path d="M115.206,310.955h 1.89608" fill="none" stroke="black"/>
<path d="M118.421,309.497v -0.659376" fill="none" stroke="black"/>
<path d="M117.473,308.837h 1.89608" fill="none" stroke="black"/>
<path d="M118.421,309.497v 0.659376" fill="none" stroke="black"/>
<path d="M117.473,310.156h 1.89608" fill="none" stroke="black"/>
<path d="M120.689,309.294v -0.659085" fill="none" stroke="black"/>
<path d="M119.741,308.635h 1.89608" fill="none" stroke="black"/>
<path d="M120.689,309.294v 0.659085" fill="none" stroke="black"/>
<path d="M119.741,309.953h 1.89608" fill="none" stroke="black"/>
<path d="M122.957,309.941v -0.659595" fill="none" stroke="black"/>
<path d="M122.009,309.281h 1.89608" fill="none" stroke="black"/>
<path d="M122.957,309.941v 0.659595" fill="none" stroke="black"/>
<path d="M122.009,310.601h 1.89608" fill="none" stroke="black"/>
<path d="M125.224,309.513v -0.659154" fill="none" stroke="black"/>
<path d="M124.276,308.854h 1.89608" fill="none" stroke="black"/>
<path d="M125.224,309.513v 0.659154" fill="none" stroke="black"/>
<path d="M124.276,310.172h 1.89608" fill="none" stroke="black"/>
<path d="M127.492,309.402v -0.658864" fill="none" stroke="black"/>
<path d="M126.544,308.743h 1.89608" fill="none" stroke="black"/>
<path d="M127.492,309.402v 0.658864" fill="none" stroke="black"/>
<path d="M126.544,310.061h 1.89608" fill="none" stroke="black"/>
<path d="M129.76,309.359v -0.658711" fill="none" stroke="black"/>
<path d="M128.812,308.7h 1.89608" fill="none" stroke="black"/>
<path d="M129.76,309.359v 0.658711" fill="none" stroke="black"/>
<path d="M128.812,310.017h 1.89608" fill="none" stroke="black"/>
<path d="M132.028,308.926v -0.657825" fill="none" stroke="black"/>
<path d="M131.08,308.269h 1.89608" fill="none" stroke="black"/>
<path d="M132.028,308.926v 0.657825" fill="none" stroke="black"/>
<path d="M131.08,309.584h 1.89608" fill="none" stroke="black"/>
<path d="M134.295,310.728v -0.65997" fill="none" stroke="black"/>
<path d="M133.347,310.068h 1.89608" fill="none" stroke="black"/>
<path d="M134.295,310.728v 0.65997" fill="none" stroke="black"/>
<path d="M133.347,311.388h 1.89608" fill="none" stroke="black"/>
<path d="M136.563,309.9v -0.659095" fill="none" stroke="black"/>
<path d="M135.615,309.241h 1.89608" fill="none" stroke="black"/>
<path d="M136.563,309.9v 0.659095" fill="none" stroke="black"/>
<path d="M135.615,310.559h 1.89608" fill="none" stroke="black"/>
<path d="M138.831,309.775v -0.658843" fill="none" stroke="black"/>
<path d="M137.883,309.116h 1.89608" fill="none" stroke="black"/>
<path d="M138.831,309.775v 0.658843" fill="none" stroke="black"/>
<path d="M137.883,310.434h 1.89608" fill="none" stroke="black"/>
<path d="M141.098,309.082v -0.657116" fill="none" stroke="black"/>
<path d="M140.15,308.425h 1.89608" fill="none" stroke="black"/>
<path d="M141.098,309.082v 0.657116" fill="none" stroke="black"/>
<path d="M140.15,309.739h 1.89608" fill="none" stroke="black"/>
<path d="M143.366,309.207v -0.657213" fill="none" stroke="black"/>
<path d="M142.418,308.549h 1.89608" fill="none" stroke="black"/>
<path d="M143.366,309.207v 0.657213" fill="none" stroke="black"/>
<path d="M142.418,309.864h 1.89608" fill="none" stroke="black"/>
<path d="M145.634,308.895v -0.65608" fill="none" stroke="black"/>
<path d="M144.686,308.238h 1.89608" fill="none" stroke="black"/>
<path d="M145.634,308.895v 0.65608" fill="none" stroke="black"/>
<path d="M144.686,309.551h 1.89608" fill="none" stroke="black"/>
<path d="M147.902,309.933v -0.658651" fill="none" stroke="black"/>
<path d="M146.954,309.275h 1.89608" fill="none" stroke="black"/>
<path d="M147.902,309.933v 0.658651" fill="none" stroke="black"/>
<path d="M146.954,310.592h 1.89608" fill="none" stroke="black"/>
<path d="M150.169,309.633v -0.657591" fill="none" stroke="black"/>
<path d="M149.221,308.976h 1.89608" fill="none" stroke="black"/>
<path d="M150.169,309.633v 0.657591" fill="none" stroke="black"/>
<path d="M149.221,310.291h 1.89608" fill="none" stroke="black"/>
<path d="M152.437,310.079v -0.658843" fill="none" stroke="black"/>
<path d="M151.489,309.42h 1.89608" fill="none" stroke="black"/>
<path d="M152.437,310.079v 0.658843" fill="none" stroke="black"/>
<path d="M151.489,310.738h 1.89608" fill="none" stroke="black"/>
<path d="M154.705,309.3v -0.656002" fill="none" stroke="black"/>
<path d="M153.757,308.644h 1.89608" fill="none" stroke="black"/>
<path d="M154.705,309.3v 0.656002" fill="none" stroke="black"/>
<path d="M153.757,309.956h 1.89608" fill="none" stroke="black"/>
<path d="M156.972,309.954v -0.658052" fill="none" stroke="black"/>
<path d="M156.024,309.296h 1.89608" fill="none" stroke="black"/>
<path d="M156.972,309.954v 0.658052" fill="none" stroke="black"/>
<path d="M156.024,310.612h 1.89608" fill="none" stroke="black"/>
<path d="M159.24,309.692v -0.657208" fill="none" stroke="black"/>
<path d="M158.292,309.035h 1.89608" fill="none" stroke="black"/>
<path d="M159.24,309.692v 0.657208" fill="none" stroke="black"/>
<path d="M158.292,310.349h 1.89608" fill="none" stroke="black"/>
<path d="M161.508,310.015v -0.657998" fill="none" stroke="black"/>
<path d="M160.56,309.357h 1.89608" fill="none" stroke="black"/>
<path d="M161.508,310.015v 0.657998" fill="none" stroke="black"/>
<path d="M160.56,310.673h 1.89608" fill="none" stroke="black"/>
<path d="M163.776,309.866v -0.65751" fill="none" stroke="black"/>
<path d="M162.828,309.209h 1.89608" fill="none" stroke="black"/>
<path d="M163.776,309.866v 0.65751" fill="none" stroke="black"/>
<path d="M162.828,310.524h 1.89608" fill="none" stroke="black"/>
<path d="M166.043,310.209v -0.658263" fill="none" stroke="black"/>
<path d="M165.095,309.551h 1.89608" fill="none" stroke="black"/>
<path d="M166.043,310.209v 0.658263" fill="none" stroke="black"/>
<path d="M165.095,310.867h 1.89608" fill="none" stroke="black"/>
<path d="M168.311,309.825v -0.656345" fill="none" stroke="black"/>
<path d="M167.363,309.169h 1.89608" fill="none" stroke="black"/>
<path d="M168.311,309.825v 0.656345" fill="none" stroke="black"/>
<path d="M167.363,310.481h 1.89608" fill="none" stroke="black"/>
<path d="M170.579,309.724v -0.656413" fill="none" stroke="black"/>
<path d="M169.631,309.067h 1.89608" fill="none" stroke="black"/>
<path d="M170.579,309.724v 0.656413" fill="none" stroke="black"/>
<path d="M169.631,310.38h 1.89608" fill="none" stroke="black"/>
<path d="M172.846,309.301v -0.652762" fill="none" stroke="black"/>
<path d="M171.898,308.648h 1.89608" fill="none" stroke="black"/>
<path d="M172.846,309.301v 0.652762" fill="none" stroke="black"/>
<path d="M171.898,309.954h 1.89608" fill="none" stroke="black"/>
<path d="M175.114,310.45v -0.658347" fill="none" stroke="black"/>
<path d="M174.166,309.791h 1.89608" fill="none" stroke="black"/>
<path d="M175.114,310.45v 0.658347" fill="none" stroke="black"/>
<path d="M174.166,311.108h 1.89608" fill="none" stroke="black"/>
<path d="M177.382,309.971v -0.656634" fill="none" stroke="black"/>
<path d="M176.434,309.314h 1.89608" fill="none" stroke="black"/>
<path d="M177.382,309.971v 0.656634" fill="none" stroke="black"/>
<path d="M176.434,310.628h 1.89608" fill="none" stroke="black"/>
<path d="M179.65,309.656v -0.653829" fill="none" stroke="black"/>
<path d="M178.702,309.002h 1.89608" fill="none" stroke="black"/>
<path d="M179.65,309.656v 0.653829" fill="none" stroke="black"/>
<path d="M178.702,310.309h 1.89608" fill="none" stroke="black"/>
<path d="M181.917,310.835v -0.65942" fill="none" stroke="black"/>
<path d="M180.969,310.176h 1.89608" fill="none" stroke="black"/>
<path d="M181.917,310.835v 0.65942" fill="none" stroke="black"/>
<path d="M180.969,311.495h 1.89608" fill="none" stroke="black"/>
<path d="M184.185,310.303v -0.657552" fill="none" stroke="black"/>
<path d="M183.237,309.646h 1.89608" fill="none" stroke="black"/>
<path d="M184.185,310.303v 0.657552" fill="none" stroke="black"/>
<path d="M183.237,310.961h 1.89608" fill="none" stroke="black"/>
<path d="M186.453,310.388v -0.657864" fill="none" stroke="black"/>
<path d="M185.505,309.73h 1.89608" fill="none" stroke="black"/>
<path d="M186.453,310.388v 0.657864" fill="none" stroke="black"/>
<path d="M185.505,311.046h 1.89608" fill="none" stroke="black"/>
<path d="M188.72,310.214v -0.657179" fill="none" stroke="black"/>
<path d="M187.772,309.557h 1.89608" fill="none" stroke="black"/>
<path d="M188.72,310.214v 0.657179" fill="none" stroke="black"/>
<path d="M187.772,310.872h 1.89608" fill="none" stroke="black"/>
<path d="M190.988,310.261v -0.656776" fill="none" stroke="black"/>
<path d="M190.04,309.605h 1.89608" fill="none" stroke="black"/>
<path d="M190.988,310.261v 0.656776" fill="none" stroke="black"/>
<path d="M190.04,310.918h 1.89608" fill="none" stroke="black"/>
<path d="M193.256,310.316v -0.656768" fill="none" stroke="black"/>
<path d="M192.308,309.659h 1.89608" fill="none" stroke="black"/>
<path d="M193.256,310.316v 0.656768" fill="none" stroke="black"/>
<path d="M192.308,310.973h 1.89608" fill="none" stroke="black"/>
<path d="M195.524,310.019v -0.65507" fill="none" stroke="black"/>
<path d="M194.576,309.364h 1.89608" fill="none" stroke="black"/>
<path d="M195.524,310.019v 0.65507" fill="none" stroke="black"/>
<path d="M194.576,310.674h 1.89608" fill="none" stroke="black"/>
<path d="M197.791,310.132v -0.655611" fill="none" stroke="black"/>
<path d="M196.843,309.476h 1.89608" fill="none" stroke="black"/>
<path d="M197.791,310.132v 0.655611" fill="none" stroke="black"/>
<path d="M196.843,310.787h 1.89608" fill="none" stroke="black"/>
<path d="M200.059,310.566v -0.658195" fill="none" stroke="black"/>
<path d="M199.111,309.908h 1.89608" fill="none" stroke="black"/>
<path d="M200.059,310.566v 0.658195" fill="none" stroke="black"/>
<path d="M199.111,311.224h 1.89608" fill="none" stroke="black"/>
<path d="M202.327,310.559v -0.657951" fill="none" stroke="black"/>
<path d="M201.379,309.901h 1.89608" fill="none" stroke="black"/>
<path d="M202.327,310.559v 0.657951" fill="none" stroke="black"/>
<path d="M201.379,311.217h 1.89608" fill="none" stroke="black"/>
<path d="M204.594,309.766v -0.651289" fill="none" stroke="black"/>
<path d="M203.646,309.115h 1.89608" fill="none" stroke="black"/>
<path d="M204.594,309.766v 0.651289" fill="none" stroke="black"/>
<path d="M203.646,310.418h 1.89608" fill="none" stroke="black"/>
<path d="M206.862,309.339v -0.645173" fill="none" stroke="black"/>
<path d="M205.914,308.694h 1.89608" fill="none" stroke="black"/>
<path d="M206.862,309.339v 0.645173" fill="none" stroke="black"/>
<path d="M205.914,309.984h 1.89608" fill="none" stroke="black"/>
<path d="M209.13,311.401v -0.660177" fill="none" stroke="black"/>
<path d="M208.182,310.741h 1.89608" fill="none" stroke="black"/>
<path d="M209.13,311.401v 0.660177" fill="none" stroke="black"/>
<path d="M208.182,312.061h 1.89608" fill="none" stroke="black"/>
<path d="M211.398,310.705v -0.658398" fill="none" stroke="black"/>
<path d="M210.45,310.047h 1.89608" fill="none" stroke="black"/>
<path d="M211.398,310.705v 0.658398" fill="none" stroke="black"/>
<path d="M210.45,311.363h 1.89608" fill="none" stroke="black"/>
<path d="M213.665,311.148v -0.659845" fill="none" stroke="black"/>
<path d="M212.717,310.488h 1.89608" fill="none" stroke="black"/>
<path d="M213.665,311.148v 0.659845" fill="none" stroke="black"/>
<path d="M212.717,311.808h 1.89608" fill="none" stroke="black"/>
<path d="M215.933,311.289v -0.660037" fill="none" stroke="black"/>
<path d="M214.985,310.629h 1.89608" fill="none" stroke="black"/>
<path d="M215.933,311.289v 0.660037" fill="none" stroke="black"/>
<path d="M214.985,311.949h 1.89608" fill="none" stroke="black"/>
<path d="M218.201,310.81v -0.658773" fill="none" stroke="black"/>
<path d="M217.253,310.151h 1.89608" fill="none" stroke="black"/>
<path d="M218.201,310.81v 0.658773" fill="none" stroke="black"/>
<path d="M217.253,311.469h 1.89608" fill="none" stroke="black"/>
<path d="M220.469,310.427v -0.6556" fill="none" stroke="black"/>
<path d="M219.52,309.771h 1.89608" fill="none" stroke="black"/>
<path d="M220.469,310.427v 0.6556" fill="none" stroke="black"/>
<path d="M219.52,311.082h 1.89608" fill="none" stroke="black"/>
<path d="M222.736,310.561v -0.656988" fill="none" stroke="black"/>
<path d="M221.788,309.905h 1.89608" fill="none" stroke="black"/>
<path d="M222.736,310.561v 0.656988" fill="none" stroke="black"/>
<path d="M221.788,311.218h 1.89608" fill="none" stroke="black"/>
<path d="M225.004,310.263v -0.653819" fill="none" stroke="black"/>
<path d="M224.056,309.609h 1.89608" fill="none" stroke="black"/>
<path d="M225.004,310.263v 0.653819" fill="none" stroke="black"/>
<path d="M224.056,310.916h 1.89608" fill="none" stroke="black"/>
<path d="M227.272,310.902v -0.658789" fill="none" stroke="black"/>
<path d="M226.324,310.243h 1.89608" fill="none" stroke="black"/>
<path d="M227.272,310.902v 0.658789" fill="none" stroke="black"/>
<path d="M226.324,311.561h 1.89608" fill="none" stroke="black"/>
<path d="M229.539,310.384v -0.655271" fill="none" stroke="black"/>
<path d="M228.591,309.729h 1.89608" fill="none" stroke="black"/>
<path d="M229.539,310.384v 0.655271" fill="none" stroke="black"/>
<path d="M228.591,311.04h 1.89608" fill="none" stroke="black"/>
<path d="M231.807,311.052v -0.659232" fill="none" stroke="black"/>
<path d="M230.859,310.393h 1.89608" fill="none" stroke="black"/>
<path d="M231.807,311.052v 0.659232" fill="none" stroke="black"/>
<path d="M230.859,311.711h 1.89608" fill="none" stroke="black"/>
<path d="M234.075,310.264v -0.653284" fill="none" stroke="black"/>
<path d="M233.127,309.61h 1.89608" fill="none" stroke="black"/>
<path d="M234.075,310.264v 0.653284" fill="none" stroke="black"/>
<path d="M233.127,310.917h 1.89608" fill="none" stroke="black"/>
<path d="M236.343,310.908v -0.65859" fill="none" stroke="black"/>
<path d="M235.394,310.25h 1.89608" fill="none" stroke="black"/>
<path d="M236.343,310.908v 0.65859" fill="none" stroke="black"/>
<path d="M235.394,311.567h 1.89608" fill="none" stroke="black"/>
<path d="M238.61,311.209v -0.65979" fill="none" stroke="black"/>
<path d="M237.662,310.549h 1.89608" fill="none" stroke="black"/>
<path d="M238.61,311.209v 0.65979" fill="none" stroke="black"/>
<path d="M237.662,311.869h 1.89608" fill="none" stroke="black"/>
<path d="M240.878,310.885v -0.658313" fill="none" stroke="black"/>
<path d="M239.93,310.227h 1.89608" fill="none" stroke="black"/>
<path d="M240.878,310.885v 0.658313" fill="none" stroke="black"/>
<path d="M239.93,311.543h 1.89608" fill="none" stroke="black"/>
<path d="M243.146,311.548v -0.660175" fill="none" stroke="black"/>
<path d="M242.198,310.888h 1.89608" fill="none" stroke="black"/>
<path d="M243.146,311.548v 0.660175" fill="none" stroke="black"/>
<path d="M242.198,312.208h 1.89608" fill="none" stroke="black"/>
<path d="M245.413,309.633v -0.636886" fill="none" stroke="black"/>
<path d="M244.465,308.996h 1.89608" fill="none" stroke="black"/>
<path d="M245.413,309.633v 0.636886" fill="none" stroke="black"/>
<path d="M244.465,310.27h 1.89608" fill="none" stroke="black"/>
<path d="M247.681,310.642v -0.655628" fill="none" stroke="black"/>
<path d="M246.733,309.987h 1.89608" fill="none" stroke="black"/>
<path d="M247.681,310.642v 0.655628" fill="none" stroke="black"/>
<path d="M246.733,311.298h 1.89608" fill="none" stroke="black"/>
<path d="M249.949,310.873v -0.657724" fill="none" stroke="black"/>
<path d="M249.001,310.215h 1.89608" fill="none" stroke="black"/>
<path d="M249.949,310.873v 0.657724" fill="none" stroke="black"/>
<path d="M249.001,311.531h 1.89608" fill="none" stroke="black"/>
<path d="M252.217,310.56v -0.652431" fill="none" stroke="black"/>
<path d="M251.268,309.908h 1.89608" fill="none" stroke="black"/>
<path d="M252.217,310.56v 0.652431" fill="none" stroke="black"/>
<path d="M251.268,311.213h 1.89608" fill="none" stroke="black"/>
<path d="M254.484,310.839v -0.657112" fill="none" stroke="black"/>
<path d="M253.536,310.181h 1.89608" fill="none" stroke="black"/>
<path d="M254.484,310.839v 0.657112" fill="none" stroke="black"/>
<path d="M253.536,311.496h 1.89608" fill="none" stroke="black"/>
<path d="M256.752,310.752v -0.655974" fill="none" stroke="black"/>
<path d="M255.804,310.096h 1.89608" fill="none" stroke="black"/>
<path d="M256.752,310.752v 0.655974" fill="none" stroke="black"/>
<path d="M255.804,311.408h 1.89608" fill="none" stroke="black"/>
<path d="M259.02,311.486v -0.6602" fill="none" stroke="black"/>
<path d="M258.072,310.826h 1.89608" fill="none" stroke="black"/>
<path d="M259.02,311.486v 0.6602" fill="none" stroke="black"/>
<path d="M258.072,312.146h 1.89608" fill="none" stroke="black"/>
<path d="M261.287,311.105v -0.659177" fill="none" stroke="black"/>
<path d="M260.339,310.446h 1.89608" fill="none" stroke="black"/>
<path d="M261.287,311.105v 0.659177" fill="none" stroke="black"/>
<path d="M260.339,311.764h 1.89608" fill="none" stroke="black"/>
<path d="M263.555,311.166v -0.659053" fill="none" stroke="black"/>
<path d="M262.607,310.507h 1.89608" fill="none" stroke="black"/>
<path d="M263.555,311.166v 0.659053" fill="none" stroke="black"/>
<path d="M262.607,311.825h 1.89608" fill="none" stroke="black"/>
<path d="M265.823,311.559v -0.660151" fill="none" stroke="black"/>
<path d="M264.875,310.899h 1.89608" fill="none" stroke="black"/>
<path d="M265.823,311.559v 0.660151" fill="none" stroke="black"/>
<path d="M264.875,312.219h 1.89608" fill="none" stroke="black"/>
<path d="M268.091,311.418v -0.660163" fill="none" stroke="black"/>
<path d="M267.143,310.758h 1.89608" fill="none" stroke="black"/>
<path d="M268.091,311.418v 0.660163" fill="none" stroke="black"/>
<path d="M267.143,312.078h 1.89608" fill="none" stroke="black"/>
<path d="M270.358,310.898v -0.657605" fill="none" stroke="black"/>
<path d="M269.41,310.24h 1.89608" fill="none" stroke="black"/>
<path d="M270.358,310.898v 0.657605" fill="none" stroke="black"/>
<path d="M269.41,311.555h 1.89608" fill="none" stroke="black"/>
<path d="M272.626,311.486v -0.6602" fill="none" stroke="black"/>
<path d="M271.678,310.826h 1.89608" fill="none" stroke="black"/>
<path d="M272.626,311.486v 0.6602" fill="none" stroke="black"/>
<path d="M271.678,312.146h 1.89608" fill="none" stroke="black"/>
<path d="M274.894,311.249v -0.659592" fill="none" stroke="black"/>
<path d="M273.946,310.59h 1.89608" fill="none" stroke="black"/>
<path d="M274.894,311.249v 0.659592" fill="none" stroke="black"/>
<path d="M273.946,311.909h 1.89608" fill="none" stroke="black"/>
<path d="M277.161,310.581v -0.653125" fill="none" stroke="black"/>
<path d="M276.213,309.928h 1.89608" fill="none" stroke="black"/>
<path d="M277.161,310.581v 0.653125" fill="none" stroke="black"/>
<path d="M276.213,311.234h 1.89608" fill="none" stroke="black"/>
<path d="M279.429,310.826v -0.654938" fill="none" stroke="black"/>
<path d="M278.481,310.171h 1.89608" fill="none" stroke="black"/>
<path d="M279.429,310.826v 0.654938" fill="none" stroke="black"/>
<path d="M278.481,311.481h 1.89608" fill="none" stroke="black"/>
<path d="M281.697,311.781v -0.659372" fill="none" stroke="black"/>
<path d="M280.749,311.122h 1.89608" fill="none" stroke="black"/>
<path d="M281.697,311.781v 0.659372" fill="none" stroke="black"/>
<path d="M280.749,312.441h 1.89608" fill="none" stroke="black"/>
<path d="M283.965,312.108v -0.65606" fill="none" stroke="black"/>
<path d="M283.017,311.452h 1.89608" fill="none" stroke="black"/>
<path d="M283.965,312.108v 0.65606" fill="none" stroke="black"/>
<path d="M283.017,312.764h 1.89608" fill="none" stroke="black"/>
<path d="M286.232,312.459v -0.659957" fill="none" stroke="black"/>
<path d="M285.284,311.799h 1.89608" fill="none" stroke="black"/>
<path d="M286.232,312.459v 0.659957" fill="none" stroke="black"/>
<path d="M285.284,313.119h 1.89608" fill="none" stroke="black"/></svg>
