<?xml version="1.0" standalone="no"?>
<svg width="567.429" height="413.846" viewBox="0 0 567.429 413.846" xmlns="http://www.w3.org/2000/svg" shape-rendering="crispEdges">
<title>
figures/chi2zoomin_1PMTnpefilelist20.svg
</title>
<desc>
Creator: ROOT Version 6.18/04
CreationDate: Wed Nov  6 13:55:22 2019</desc>
<defs>
</defs>
<rect x="0.5" y="0" width="566.929" height="413.346" fill="white"/>
<rect x="57.1929" y="41.3346" width="453.543" height="330.677" fill="white"/>
<rect x="57.1929" y="41.3346" width="453.543" height="330.677" fill="none" stroke="black"/>
<path d="M57.1929,372.012h 453.543" fill="none" stroke="black"/>
<path d="M87.8848,41.3346v 330.677" fill="none" stroke="black" stroke-dasharray=" 1, 2"/>
<path d="M144.133,41.3346v 330.677" fill="none" stroke="black" stroke-dasharray=" 1, 2"/>
<path d="M200.382,41.3346v 330.677" fill="none" stroke="black" stroke-dasharray=" 1, 2"/>
<path d="M256.631,41.3346v 330.677" fill="none" stroke="black" stroke-dasharray=" 1, 2"/>
<path d="M312.879,41.3346v 330.677" fill="none" stroke="black" stroke-dasharray=" 1, 2"/>
<path d="M369.128,41.3346v 330.677" fill="none" stroke="black" stroke-dasharray=" 1, 2"/>
<path d="M425.376,41.3346v 330.677" fill="none" stroke="black" stroke-dasharray=" 1, 2"/>
<path d="M481.625,41.3346v 330.677" fill="none" stroke="black" stroke-dasharray=" 1, 2"/>
<path d="M87.8848,41.3346v 330.677" fill="none" stroke="black" stroke-dasharray=" 1, 2"/>
<path d="M481.625,41.3346v 330.677" fill="none" stroke="black" stroke-dasharray=" 1, 2"/>
<path d="M57.1929,372.012v -330.677" fill="none" stroke="black"/>
<path d="M57.1929,372.012h 453.543" fill="none" stroke="black"/>
<path d="M87.8848,362.091v 9.92031" fill="none" stroke="black"/>
<path d="M99.1345,367.052v 4.96016" fill="none" stroke="black"/>
<path d="M110.384,367.052v 4.96016" fill="none" stroke="black"/>
<path d="M121.634,367.052v 4.96016" fill="none" stroke="black"/>
<path d="M132.884,367.052v 4.96016" fill="none" stroke="black"/>
<path d="M144.133,362.091v 9.92031" fill="none" stroke="black"/>
<path d="M155.383,367.052v 4.96016" fill="none" stroke="black"/>
<path d="M166.633,367.052v 4.96016" fill="none" stroke="black"/>
<path d="M177.883,367.052v 4.96016" fill="none" stroke="black"/>
<path d="M189.132,367.052v 4.96016" fill="none" stroke="black"/>
<path d="M200.382,362.091v 9.92031" fill="none" stroke="black"/>
<path d="M211.632,367.052v 4.96016" fill="none" stroke="black"/>
<path d="M222.881,367.052v 4.96016" fill="none" stroke="black"/>
<path d="M234.131,367.052v 4.96016" fill="none" stroke="black"/>
<path d="M245.381,367.052v 4.96016" fill="none" stroke="black"/>
<path d="M256.631,362.091v 9.92031" fill="none" stroke="black"/>
<path d="M267.88,367.052v 4.96016" fill="none" stroke="black"/>
<path d="M279.13,367.052v 4.96016" fill="none" stroke="black"/>
<path d="M290.38,367.052v 4.96016" fill="none" stroke="black"/>
<path d="M301.629,367.052v 4.96016" fill="none" stroke="black"/>
<path d="M312.879,362.091v 9.92031" fill="none" stroke="black"/>
<path d="M324.129,367.052v 4.96016" fill="none" stroke="black"/>
<path d="M335.379,367.052v 4.96016" fill="none" stroke="black"/>
<path d="M346.628,367.052v 4.96016" fill="none" stroke="black"/>
<path d="M357.878,367.052v 4.96016" fill="none" stroke="black"/>
<path d="M369.128,362.091v 9.92031" fill="none" stroke="black"/>
<path d="M380.377,367.052v 4.96016" fill="none" stroke="black"/>
<path d="M391.627,367.052v 4.96016" fill="none" stroke="black"/>
<path d="M402.877,367.052v 4.96016" fill="none" stroke="black"/>
<path d="M414.127,367.052v 4.96016" fill="none" stroke="black"/>
<path d="M425.376,362.091v 9.92031" fill="none" stroke="black"/>
<path d="M436.626,367.052v 4.96016" fill="none" stroke="black"/>
<path d="M447.876,367.052v 4.96016" fill="none" stroke="black"/>
<path d="M459.125,367.052v 4.96016" fill="none" stroke="black"/>
<path d="M470.375,367.052v 4.96016" fill="none" stroke="black"/>
<path d="M481.625,362.091v 9.92031" fill="none" stroke="black"/>
<path d="M87.8848,362.091v 9.92031" fill="none" stroke="black"/>
<path d="M76.635,367.052v 4.96016" fill="none" stroke="black"/>
<path d="M65.3853,367.052v 4.96016" fill="none" stroke="black"/>
<path d="M481.625,362.091v 9.92031" fill="none" stroke="black"/>
<path d="M492.875,367.052v 4.96016" fill="none" stroke="black"/>
<path d="M504.124,367.052v 4.96016" fill="none" stroke="black"/>
<text xml:space="preserve" x="71.1291" y="385.379" fill="black" font-size="13.7726" font-family="Helvetica">0.685</text>
<text xml:space="preserve" x="131.33" y="385.379" fill="black" font-size="13.7726" font-family="Helvetica">0.69</text>
<text xml:space="preserve" x="183.472" y="385.379" fill="black" font-size="13.7726" font-family="Helvetica">0.695</text>
<text xml:space="preserve" x="247.465" y="385.379" fill="black" font-size="13.7726" font-family="Helvetica">0.7</text>
<text xml:space="preserve" x="295.815" y="385.379" fill="black" font-size="13.7726" font-family="Helvetica">0.705</text>
<text xml:space="preserve" x="356.964" y="385.379" fill="black" font-size="13.7726" font-family="Helvetica">0.71</text>
<text xml:space="preserve" x="408.632" y="385.379" fill="black" font-size="13.7726" font-family="Helvetica">0.715</text>
<text xml:space="preserve" x="468.359" y="385.379" fill="black" font-size="13.7726" font-family="Helvetica">0.72</text>
<text xml:space="preserve" x="413.372" y="400.074" fill="black" font-size="13.7726" font-family="Helvetica">calibration factor</text>
<path d="M57.1929,372.012v -330.677" fill="none" stroke="black"/>
<path d="M70.7992,344.166h -13.6063" fill="none" stroke="black"/>
<path d="M63.9961,330.388h -6.80315" fill="none" stroke="black"/>
<path d="M63.9961,316.61h -6.80315" fill="none" stroke="black"/>
<path d="M63.9961,302.832h -6.80315" fill="none" stroke="black"/>
<path d="M70.7992,289.053h -13.6063" fill="none" stroke="black"/>
<path d="M63.9961,275.275h -6.80315" fill="none" stroke="black"/>
<path d="M63.9961,261.497h -6.80315" fill="none" stroke="black"/>
<path d="M63.9961,247.719h -6.80315" fill="none" stroke="black"/>
<path d="M70.7992,233.94h -13.6063" fill="none" stroke="black"/>
<path d="M63.9961,220.162h -6.80315" fill="none" stroke="black"/>
<path d="M63.9961,206.384h -6.80315" fill="none" stroke="black"/>
<path d="M63.9961,192.606h -6.80315" fill="none" stroke="black"/>
<path d="M70.7992,178.828h -13.6063" fill="none" stroke="black"/>
<path d="M63.9961,165.049h -6.80315" fill="none" stroke="black"/>
<path d="M63.9961,151.271h -6.80315" fill="none" stroke="black"/>
<path d="M63.9961,137.493h -6.80315" fill="none" stroke="black"/>
<path d="M70.7992,123.715h -13.6063" fill="none" stroke="black"/>
<path d="M63.9961,109.937h -6.80315" fill="none" stroke="black"/>
<path d="M63.9961,96.1584h -6.80315" fill="none" stroke="black"/>
<path d="M63.9961,82.3802h -6.80315" fill="none" stroke="black"/>
<path d="M70.7992,68.602h -13.6063" fill="none" stroke="black"/>
<path d="M70.7992,344.166h -13.6063" fill="none" stroke="black"/>
<path d="M63.9961,357.944h -6.80315" fill="none" stroke="black"/>
<path d="M63.9961,371.723h -6.80315" fill="none" stroke="black"/>
<path d="M70.7992,68.602h -13.6063" fill="none" stroke="black"/>
<path d="M63.9961,54.8237h -6.80315" fill="none" stroke="black"/>
<text xml:space="preserve" x="32.2594" y="348.879" fill="black" font-size="13.7726" font-family="Helvetica">228</text>
<text xml:space="preserve" x="32.2594" y="293.419" fill="black" font-size="13.7726" font-family="Helvetica">230</text>
<text xml:space="preserve" x="32.2594" y="238.433" fill="black" font-size="13.7726" font-family="Helvetica">232</text>
<text xml:space="preserve" x="32.2594" y="183.446" fill="black" font-size="13.7726" font-family="Helvetica">234</text>
<text xml:space="preserve" x="32.2594" y="127.986" fill="black" font-size="13.7726" font-family="Helvetica">236</text>
<text xml:space="preserve" x="32.2594" y="72.9992" fill="black" font-size="13.7726" font-family="Helvetica">238</text>
<g transform="rotate(-90,15.1947,45.98)">
<text xml:space="preserve" x="15.1947" y="45.98" fill="black" font-size="9.34839" font-family="Helvetica">2</text>
</g>
<g transform="rotate(-90,19.4608,50.2462)">
<text xml:space="preserve" x="19.4608" y="50.2462" fill="black" font-size="13.7726" font-family="Helvetica"> </text>
</g>
<g transform="rotate(-90,19.4608,57.3565)">
<text xml:space="preserve" x="19.4608" y="57.3565" fill="black" font-size="13.7726" font-family="Times">&#0967;</text>
</g>
<text xml:space="preserve" x="109.525" y="18.0128" fill="black" font-size="14.0403" font-family="Helvetica">^2 v.s. calibration factor without 1st bin and without last bin</text>
<text xml:space="preserve" x="101.94" y="18.0128" fill="black" font-size="14.0403" font-family="Times">&#0967;</text>
<g stroke="black" stroke-width="1" fill="none">
<line x1="121.988" y1="43.7204" x2="125.78" y2="43.7204"/><line x1="123.884" y1="41.8244" x2="123.884" y2="45.6165"/><line x1="121.988" y1="41.8244" x2="125.78" y2="45.6165"/><line x1="121.988" y1="45.6165" x2="125.78" y2="41.8244"/>
</g>
<g stroke="black" stroke-width="1" fill="none">
<line x1="126.488" y1="49.4848" x2="130.28" y2="49.4848"/><line x1="128.384" y1="47.5887" x2="128.384" y2="51.3809"/><line x1="126.488" y1="47.5887" x2="130.28" y2="51.3809"/><line x1="126.488" y1="51.3809" x2="130.28" y2="47.5887"/>
<line x1="128.738" y1="41.5115" x2="132.53" y2="41.5115"/><line x1="130.634" y1="39.6154" x2="130.634" y2="43.4076"/><line x1="128.738" y1="39.6154" x2="132.53" y2="43.4076"/><line x1="128.738" y1="43.4076" x2="132.53" y2="39.6154"/>
<line x1="130.988" y1="75.1655" x2="134.78" y2="75.1655"/><line x1="132.884" y1="73.2694" x2="132.884" y2="77.0616"/><line x1="130.988" y1="73.2694" x2="134.78" y2="77.0616"/><line x1="130.988" y1="77.0616" x2="134.78" y2="73.2694"/>
<line x1="133.237" y1="71.994" x2="137.03" y2="71.994"/><line x1="135.134" y1="70.098" x2="135.134" y2="73.8901"/><line x1="133.237" y1="70.098" x2="137.03" y2="73.8901"/><line x1="133.237" y1="73.8901" x2="137.03" y2="70.098"/>
<line x1="135.487" y1="88.8139" x2="139.28" y2="88.8139"/><line x1="137.384" y1="86.9178" x2="137.384" y2="90.71"/><line x1="135.487" y1="86.9178" x2="139.28" y2="90.71"/><line x1="135.487" y1="90.71" x2="139.28" y2="86.9178"/>
<line x1="137.737" y1="86.356" x2="141.53" y2="86.356"/><line x1="139.633" y1="84.46" x2="139.633" y2="88.2521"/><line x1="137.737" y1="84.46" x2="141.53" y2="88.2521"/><line x1="137.737" y1="88.2521" x2="141.53" y2="84.46"/>
<line x1="139.987" y1="89.1638" x2="143.779" y2="89.1638"/><line x1="141.883" y1="87.2677" x2="141.883" y2="91.0599"/><line x1="139.987" y1="87.2677" x2="143.779" y2="91.0599"/><line x1="139.987" y1="91.0599" x2="143.779" y2="87.2677"/>
<line x1="142.237" y1="112.544" x2="146.029" y2="112.544"/><line x1="144.133" y1="110.648" x2="144.133" y2="114.44"/><line x1="142.237" y1="110.648" x2="146.029" y2="114.44"/><line x1="142.237" y1="114.44" x2="146.029" y2="110.648"/>
<line x1="144.487" y1="121.784" x2="148.279" y2="121.784"/><line x1="146.383" y1="119.888" x2="146.383" y2="123.681"/><line x1="144.487" y1="119.888" x2="148.279" y2="123.681"/><line x1="144.487" y1="123.681" x2="148.279" y2="119.888"/>
<line x1="146.737" y1="96.3497" x2="150.529" y2="96.3497"/><line x1="148.633" y1="94.4537" x2="148.633" y2="98.2458"/><line x1="146.737" y1="94.4537" x2="150.529" y2="98.2458"/><line x1="146.737" y1="98.2458" x2="150.529" y2="94.4537"/>
<line x1="148.987" y1="95.37" x2="152.779" y2="95.37"/><line x1="150.883" y1="93.4739" x2="150.883" y2="97.2661"/><line x1="148.987" y1="93.4739" x2="152.779" y2="97.2661"/><line x1="148.987" y1="97.2661" x2="152.779" y2="93.4739"/>
<line x1="151.237" y1="90.8044" x2="155.029" y2="90.8044"/><line x1="153.133" y1="88.9083" x2="153.133" y2="92.7005"/><line x1="151.237" y1="88.9083" x2="155.029" y2="92.7005"/><line x1="151.237" y1="92.7005" x2="155.029" y2="88.9083"/>
<line x1="153.487" y1="106.495" x2="157.279" y2="106.495"/><line x1="155.383" y1="104.599" x2="155.383" y2="108.391"/><line x1="153.487" y1="104.599" x2="157.279" y2="108.391"/><line x1="153.487" y1="108.391" x2="157.279" y2="104.599"/>
<line x1="155.737" y1="80.8954" x2="159.529" y2="80.8954"/><line x1="157.633" y1="78.9993" x2="157.633" y2="82.7915"/><line x1="155.737" y1="78.9993" x2="159.529" y2="82.7915"/><line x1="155.737" y1="82.7915" x2="159.529" y2="78.9993"/>
<line x1="157.987" y1="93.887" x2="161.779" y2="93.887"/><line x1="159.883" y1="91.9909" x2="159.883" y2="95.7831"/><line x1="157.987" y1="91.9909" x2="161.779" y2="95.7831"/><line x1="157.987" y1="95.7831" x2="161.779" y2="91.9909"/>
<line x1="160.237" y1="81.3524" x2="164.029" y2="81.3524"/><line x1="162.133" y1="79.4563" x2="162.133" y2="83.2485"/><line x1="160.237" y1="79.4563" x2="164.029" y2="83.2485"/><line x1="160.237" y1="83.2485" x2="164.029" y2="79.4563"/>
<line x1="162.487" y1="75.8632" x2="166.279" y2="75.8632"/><line x1="164.383" y1="73.9672" x2="164.383" y2="77.7593"/><line x1="162.487" y1="73.9672" x2="166.279" y2="77.7593"/><line x1="162.487" y1="77.7593" x2="166.279" y2="73.9672"/>
<line x1="164.737" y1="81.5179" x2="168.529" y2="81.5179"/><line x1="166.633" y1="79.6218" x2="166.633" y2="83.414"/><line x1="164.737" y1="79.6218" x2="168.529" y2="83.414"/><line x1="164.737" y1="83.414" x2="168.529" y2="79.6218"/>
<line x1="166.987" y1="96.0859" x2="170.779" y2="96.0859"/><line x1="168.883" y1="94.1898" x2="168.883" y2="97.982"/><line x1="166.987" y1="94.1898" x2="170.779" y2="97.982"/><line x1="166.987" y1="97.982" x2="170.779" y2="94.1898"/>
<line x1="169.237" y1="114.582" x2="173.029" y2="114.582"/><line x1="171.133" y1="112.686" x2="171.133" y2="116.478"/><line x1="169.237" y1="112.686" x2="173.029" y2="116.478"/><line x1="169.237" y1="116.478" x2="173.029" y2="112.686"/>
<line x1="171.487" y1="107.964" x2="175.279" y2="107.964"/><line x1="173.383" y1="106.068" x2="173.383" y2="109.86"/><line x1="171.487" y1="106.068" x2="175.279" y2="109.86"/><line x1="171.487" y1="109.86" x2="175.279" y2="106.068"/>
<line x1="173.736" y1="108.072" x2="177.529" y2="108.072"/><line x1="175.633" y1="106.176" x2="175.633" y2="109.968"/><line x1="173.736" y1="106.176" x2="177.529" y2="109.968"/><line x1="173.736" y1="109.968" x2="177.529" y2="106.176"/>
<line x1="175.986" y1="90.9544" x2="179.779" y2="90.9544"/><line x1="177.883" y1="89.0583" x2="177.883" y2="92.8505"/><line x1="175.986" y1="89.0583" x2="179.779" y2="92.8505"/><line x1="175.986" y1="92.8505" x2="179.779" y2="89.0583"/>
<line x1="178.236" y1="91.6484" x2="182.029" y2="91.6484"/><line x1="180.132" y1="89.7523" x2="180.132" y2="93.5445"/><line x1="178.236" y1="89.7523" x2="182.029" y2="93.5445"/><line x1="178.236" y1="93.5445" x2="182.029" y2="89.7523"/>
<line x1="180.486" y1="77.1586" x2="184.278" y2="77.1586"/><line x1="182.382" y1="75.2625" x2="182.382" y2="79.0547"/><line x1="180.486" y1="75.2625" x2="184.278" y2="79.0547"/><line x1="180.486" y1="79.0547" x2="184.278" y2="75.2625"/>
<line x1="182.736" y1="69.6198" x2="186.528" y2="69.6198"/><line x1="184.632" y1="67.7237" x2="184.632" y2="71.5159"/><line x1="182.736" y1="67.7237" x2="186.528" y2="71.5159"/><line x1="182.736" y1="71.5159" x2="186.528" y2="67.7237"/>
<line x1="184.986" y1="86.1279" x2="188.778" y2="86.1279"/><line x1="186.882" y1="84.2318" x2="186.882" y2="88.024"/><line x1="184.986" y1="84.2318" x2="188.778" y2="88.024"/><line x1="184.986" y1="88.024" x2="188.778" y2="84.2318"/>
<line x1="187.236" y1="95.778" x2="191.028" y2="95.778"/><line x1="189.132" y1="93.8819" x2="189.132" y2="97.6741"/><line x1="187.236" y1="93.8819" x2="191.028" y2="97.6741"/><line x1="187.236" y1="97.6741" x2="191.028" y2="93.8819"/>
<line x1="189.486" y1="93.8893" x2="193.278" y2="93.8893"/><line x1="191.382" y1="91.9932" x2="191.382" y2="95.7854"/><line x1="189.486" y1="91.9932" x2="193.278" y2="95.7854"/><line x1="189.486" y1="95.7854" x2="193.278" y2="91.9932"/>
<line x1="191.736" y1="105.697" x2="195.528" y2="105.697"/><line x1="193.632" y1="103.801" x2="193.632" y2="107.593"/><line x1="191.736" y1="103.801" x2="195.528" y2="107.593"/><line x1="191.736" y1="107.593" x2="195.528" y2="103.801"/>
<line x1="193.986" y1="96.6249" x2="197.778" y2="96.6249"/><line x1="195.882" y1="94.7288" x2="195.882" y2="98.521"/><line x1="193.986" y1="94.7288" x2="197.778" y2="98.521"/><line x1="193.986" y1="98.521" x2="197.778" y2="94.7288"/>
<line x1="196.236" y1="109.194" x2="200.028" y2="109.194"/><line x1="198.132" y1="107.298" x2="198.132" y2="111.09"/><line x1="196.236" y1="107.298" x2="200.028" y2="111.09"/><line x1="196.236" y1="111.09" x2="200.028" y2="107.298"/>
<line x1="198.486" y1="129.065" x2="202.278" y2="129.065"/><line x1="200.382" y1="127.169" x2="200.382" y2="130.961"/><line x1="198.486" y1="127.169" x2="202.278" y2="130.961"/><line x1="198.486" y1="130.961" x2="202.278" y2="127.169"/>
<line x1="200.736" y1="154.3" x2="204.528" y2="154.3"/><line x1="202.632" y1="152.404" x2="202.632" y2="156.196"/><line x1="200.736" y1="152.404" x2="204.528" y2="156.196"/><line x1="200.736" y1="156.196" x2="204.528" y2="152.404"/>
<line x1="202.986" y1="173.501" x2="206.778" y2="173.501"/><line x1="204.882" y1="171.605" x2="204.882" y2="175.397"/><line x1="202.986" y1="171.605" x2="206.778" y2="175.397"/><line x1="202.986" y1="175.397" x2="206.778" y2="171.605"/>
<line x1="205.236" y1="208.764" x2="209.028" y2="208.764"/><line x1="207.132" y1="206.868" x2="207.132" y2="210.66"/><line x1="205.236" y1="206.868" x2="209.028" y2="210.66"/><line x1="205.236" y1="210.66" x2="209.028" y2="206.868"/>
<line x1="207.486" y1="216.923" x2="211.278" y2="216.923"/><line x1="209.382" y1="215.027" x2="209.382" y2="218.819"/><line x1="207.486" y1="215.027" x2="211.278" y2="218.819"/><line x1="207.486" y1="218.819" x2="211.278" y2="215.027"/>
<line x1="209.736" y1="188.631" x2="213.528" y2="188.631"/><line x1="211.632" y1="186.735" x2="211.632" y2="190.527"/><line x1="209.736" y1="186.735" x2="213.528" y2="190.527"/><line x1="209.736" y1="190.527" x2="213.528" y2="186.735"/>
<line x1="211.986" y1="194.264" x2="215.778" y2="194.264"/><line x1="213.882" y1="192.368" x2="213.882" y2="196.16"/><line x1="211.986" y1="192.368" x2="215.778" y2="196.16"/><line x1="211.986" y1="196.16" x2="215.778" y2="192.368"/>
<line x1="214.235" y1="216.153" x2="218.028" y2="216.153"/><line x1="216.132" y1="214.257" x2="216.132" y2="218.049"/><line x1="214.235" y1="214.257" x2="218.028" y2="218.049"/><line x1="214.235" y1="218.049" x2="218.028" y2="214.257"/>
<line x1="216.485" y1="238.662" x2="220.278" y2="238.662"/><line x1="218.382" y1="236.766" x2="218.382" y2="240.558"/><line x1="216.485" y1="236.766" x2="220.278" y2="240.558"/><line x1="216.485" y1="240.558" x2="220.278" y2="236.766"/>
<line x1="218.735" y1="213.14" x2="222.528" y2="213.14"/><line x1="220.631" y1="211.244" x2="220.631" y2="215.036"/><line x1="218.735" y1="211.244" x2="222.528" y2="215.036"/><line x1="218.735" y1="215.036" x2="222.528" y2="211.244"/>
<line x1="220.985" y1="223.875" x2="224.777" y2="223.875"/><line x1="222.881" y1="221.979" x2="222.881" y2="225.771"/><line x1="220.985" y1="221.979" x2="224.777" y2="225.771"/><line x1="220.985" y1="225.771" x2="224.777" y2="221.979"/>
<line x1="223.235" y1="204.308" x2="227.027" y2="204.308"/><line x1="225.131" y1="202.412" x2="225.131" y2="206.204"/><line x1="223.235" y1="202.412" x2="227.027" y2="206.204"/><line x1="223.235" y1="206.204" x2="227.027" y2="202.412"/>
<line x1="225.485" y1="208.279" x2="229.277" y2="208.279"/><line x1="227.381" y1="206.383" x2="227.381" y2="210.175"/><line x1="225.485" y1="206.383" x2="229.277" y2="210.175"/><line x1="225.485" y1="210.175" x2="229.277" y2="206.383"/>
<line x1="227.735" y1="207.347" x2="231.527" y2="207.347"/><line x1="229.631" y1="205.451" x2="229.631" y2="209.243"/><line x1="227.735" y1="205.451" x2="231.527" y2="209.243"/><line x1="227.735" y1="209.243" x2="231.527" y2="205.451"/>
<line x1="229.985" y1="228.509" x2="233.777" y2="228.509"/><line x1="231.881" y1="226.613" x2="231.881" y2="230.405"/><line x1="229.985" y1="226.613" x2="233.777" y2="230.405"/><line x1="229.985" y1="230.405" x2="233.777" y2="226.613"/>
<line x1="232.235" y1="226.109" x2="236.027" y2="226.109"/><line x1="234.131" y1="224.213" x2="234.131" y2="228.005"/><line x1="232.235" y1="224.213" x2="236.027" y2="228.005"/><line x1="232.235" y1="228.005" x2="236.027" y2="224.213"/>
<line x1="234.485" y1="213.998" x2="238.277" y2="213.998"/><line x1="236.381" y1="212.102" x2="236.381" y2="215.894"/><line x1="234.485" y1="212.102" x2="238.277" y2="215.894"/><line x1="234.485" y1="215.894" x2="238.277" y2="212.102"/>
<line x1="236.735" y1="213.784" x2="240.527" y2="213.784"/><line x1="238.631" y1="211.888" x2="238.631" y2="215.68"/><line x1="236.735" y1="211.888" x2="240.527" y2="215.68"/><line x1="236.735" y1="215.68" x2="240.527" y2="211.888"/>
<line x1="238.985" y1="214.761" x2="242.777" y2="214.761"/><line x1="240.881" y1="212.865" x2="240.881" y2="216.657"/><line x1="238.985" y1="212.865" x2="242.777" y2="216.657"/><line x1="238.985" y1="216.657" x2="242.777" y2="212.865"/>
<line x1="241.235" y1="202.164" x2="245.027" y2="202.164"/><line x1="243.131" y1="200.268" x2="243.131" y2="204.06"/><line x1="241.235" y1="200.268" x2="245.027" y2="204.06"/><line x1="241.235" y1="204.06" x2="245.027" y2="200.268"/>
<line x1="243.485" y1="218.542" x2="247.277" y2="218.542"/><line x1="245.381" y1="216.646" x2="245.381" y2="220.438"/><line x1="243.485" y1="216.646" x2="247.277" y2="220.438"/><line x1="243.485" y1="220.438" x2="247.277" y2="216.646"/>
<line x1="245.735" y1="221.843" x2="249.527" y2="221.843"/><line x1="247.631" y1="219.947" x2="247.631" y2="223.739"/><line x1="245.735" y1="219.947" x2="249.527" y2="223.739"/><line x1="245.735" y1="223.739" x2="249.527" y2="219.947"/>
<line x1="247.985" y1="217.454" x2="251.777" y2="217.454"/><line x1="249.881" y1="215.558" x2="249.881" y2="219.35"/><line x1="247.985" y1="215.558" x2="251.777" y2="219.35"/><line x1="247.985" y1="219.35" x2="251.777" y2="215.558"/>
<line x1="250.235" y1="209.33" x2="254.027" y2="209.33"/><line x1="252.131" y1="207.434" x2="252.131" y2="211.226"/><line x1="250.235" y1="207.434" x2="254.027" y2="211.226"/><line x1="250.235" y1="211.226" x2="254.027" y2="207.434"/>
<line x1="252.485" y1="210.622" x2="256.277" y2="210.622"/><line x1="254.381" y1="208.725" x2="254.381" y2="212.518"/><line x1="252.485" y1="208.725" x2="256.277" y2="212.518"/><line x1="252.485" y1="212.518" x2="256.277" y2="208.725"/>
<line x1="254.734" y1="207.478" x2="258.527" y2="207.478"/><line x1="256.631" y1="205.581" x2="256.631" y2="209.374"/><line x1="254.734" y1="205.581" x2="258.527" y2="209.374"/><line x1="254.734" y1="209.374" x2="258.527" y2="205.581"/>
<line x1="256.984" y1="214.771" x2="260.777" y2="214.771"/><line x1="258.88" y1="212.875" x2="258.88" y2="216.667"/><line x1="256.984" y1="212.875" x2="260.777" y2="216.667"/><line x1="256.984" y1="216.667" x2="260.777" y2="212.875"/>
<line x1="259.234" y1="243.094" x2="263.027" y2="243.094"/><line x1="261.13" y1="241.198" x2="261.13" y2="244.99"/><line x1="259.234" y1="241.198" x2="263.027" y2="244.99"/><line x1="259.234" y1="244.99" x2="263.027" y2="241.198"/>
<line x1="261.484" y1="254.484" x2="265.276" y2="254.484"/><line x1="263.38" y1="252.588" x2="263.38" y2="256.38"/><line x1="261.484" y1="252.588" x2="265.276" y2="256.38"/><line x1="261.484" y1="256.38" x2="265.276" y2="252.588"/>
<line x1="263.734" y1="266.019" x2="267.526" y2="266.019"/><line x1="265.63" y1="264.123" x2="265.63" y2="267.915"/><line x1="263.734" y1="264.123" x2="267.526" y2="267.915"/><line x1="263.734" y1="267.915" x2="267.526" y2="264.123"/>
<line x1="265.984" y1="254.946" x2="269.776" y2="254.946"/><line x1="267.88" y1="253.05" x2="267.88" y2="256.842"/><line x1="265.984" y1="253.05" x2="269.776" y2="256.842"/><line x1="265.984" y1="256.842" x2="269.776" y2="253.05"/>
<line x1="268.234" y1="254.588" x2="272.026" y2="254.588"/><line x1="270.13" y1="252.692" x2="270.13" y2="256.485"/><line x1="268.234" y1="252.692" x2="272.026" y2="256.485"/><line x1="268.234" y1="256.485" x2="272.026" y2="252.692"/>
<line x1="270.484" y1="274.145" x2="274.276" y2="274.145"/><line x1="272.38" y1="272.249" x2="272.38" y2="276.041"/><line x1="270.484" y1="272.249" x2="274.276" y2="276.041"/><line x1="270.484" y1="276.041" x2="274.276" y2="272.249"/>
<line x1="272.734" y1="270.276" x2="276.526" y2="270.276"/><line x1="274.63" y1="268.38" x2="274.63" y2="272.172"/><line x1="272.734" y1="268.38" x2="276.526" y2="272.172"/><line x1="272.734" y1="272.172" x2="276.526" y2="268.38"/>
<line x1="274.984" y1="294.989" x2="278.776" y2="294.989"/><line x1="276.88" y1="293.093" x2="276.88" y2="296.885"/><line x1="274.984" y1="293.093" x2="278.776" y2="296.885"/><line x1="274.984" y1="296.885" x2="278.776" y2="293.093"/>
<line x1="277.234" y1="307.069" x2="281.026" y2="307.069"/><line x1="279.13" y1="305.173" x2="279.13" y2="308.965"/><line x1="277.234" y1="305.173" x2="281.026" y2="308.965"/><line x1="277.234" y1="308.965" x2="281.026" y2="305.173"/>
<line x1="279.484" y1="297.46" x2="283.276" y2="297.46"/><line x1="281.38" y1="295.564" x2="281.38" y2="299.356"/><line x1="279.484" y1="295.564" x2="283.276" y2="299.356"/><line x1="279.484" y1="299.356" x2="283.276" y2="295.564"/>
<line x1="281.734" y1="316.899" x2="285.526" y2="316.899"/><line x1="283.63" y1="315.003" x2="283.63" y2="318.795"/><line x1="281.734" y1="315.003" x2="285.526" y2="318.795"/><line x1="281.734" y1="318.795" x2="285.526" y2="315.003"/>
<line x1="283.984" y1="306.159" x2="287.776" y2="306.159"/><line x1="285.88" y1="304.263" x2="285.88" y2="308.055"/><line x1="283.984" y1="304.263" x2="287.776" y2="308.055"/><line x1="283.984" y1="308.055" x2="287.776" y2="304.263"/>
<line x1="286.234" y1="301.874" x2="290.026" y2="301.874"/><line x1="288.13" y1="299.978" x2="288.13" y2="303.77"/><line x1="286.234" y1="299.978" x2="290.026" y2="303.77"/><line x1="286.234" y1="303.77" x2="290.026" y2="299.978"/>
<line x1="288.484" y1="300.1" x2="292.276" y2="300.1"/><line x1="290.38" y1="298.204" x2="290.38" y2="301.996"/><line x1="288.484" y1="298.204" x2="292.276" y2="301.996"/><line x1="288.484" y1="301.996" x2="292.276" y2="298.204"/>
<line x1="290.734" y1="295.589" x2="294.526" y2="295.589"/><line x1="292.63" y1="293.692" x2="292.63" y2="297.485"/><line x1="290.734" y1="293.692" x2="294.526" y2="297.485"/><line x1="290.734" y1="297.485" x2="294.526" y2="293.692"/>
<line x1="292.983" y1="296.802" x2="296.776" y2="296.802"/><line x1="294.88" y1="294.905" x2="294.88" y2="298.698"/><line x1="292.983" y1="294.905" x2="296.776" y2="298.698"/><line x1="292.983" y1="298.698" x2="296.776" y2="294.905"/>
<line x1="295.233" y1="276.401" x2="299.026" y2="276.401"/><line x1="297.13" y1="274.505" x2="297.13" y2="278.297"/><line x1="295.233" y1="274.505" x2="299.026" y2="278.297"/><line x1="295.233" y1="278.297" x2="299.026" y2="274.505"/>
<line x1="297.483" y1="272.766" x2="301.276" y2="272.766"/><line x1="299.379" y1="270.87" x2="299.379" y2="274.662"/><line x1="297.483" y1="270.87" x2="301.276" y2="274.662"/><line x1="297.483" y1="274.662" x2="301.276" y2="270.87"/>
<line x1="299.733" y1="256.453" x2="303.526" y2="256.453"/><line x1="301.629" y1="254.557" x2="301.629" y2="258.349"/><line x1="299.733" y1="254.557" x2="303.526" y2="258.349"/><line x1="299.733" y1="258.349" x2="303.526" y2="254.557"/>
<line x1="301.983" y1="244.366" x2="305.775" y2="244.366"/><line x1="303.879" y1="242.47" x2="303.879" y2="246.262"/><line x1="301.983" y1="242.47" x2="305.775" y2="246.262"/><line x1="301.983" y1="246.262" x2="305.775" y2="242.47"/>
<line x1="304.233" y1="226.673" x2="308.025" y2="226.673"/><line x1="306.129" y1="224.777" x2="306.129" y2="228.569"/><line x1="304.233" y1="224.777" x2="308.025" y2="228.569"/><line x1="304.233" y1="228.569" x2="308.025" y2="224.777"/>
<line x1="306.483" y1="230.192" x2="310.275" y2="230.192"/><line x1="308.379" y1="228.296" x2="308.379" y2="232.088"/><line x1="306.483" y1="228.296" x2="310.275" y2="232.088"/><line x1="306.483" y1="232.088" x2="310.275" y2="228.296"/>
<line x1="308.733" y1="236.25" x2="312.525" y2="236.25"/><line x1="310.629" y1="234.354" x2="310.629" y2="238.146"/><line x1="308.733" y1="234.354" x2="312.525" y2="238.146"/><line x1="308.733" y1="238.146" x2="312.525" y2="234.354"/>
<line x1="310.983" y1="218.467" x2="314.775" y2="218.467"/><line x1="312.879" y1="216.571" x2="312.879" y2="220.363"/><line x1="310.983" y1="216.571" x2="314.775" y2="220.363"/><line x1="310.983" y1="220.363" x2="314.775" y2="216.571"/>
<line x1="313.233" y1="217.266" x2="317.025" y2="217.266"/><line x1="315.129" y1="215.37" x2="315.129" y2="219.162"/><line x1="313.233" y1="215.37" x2="317.025" y2="219.162"/><line x1="313.233" y1="219.162" x2="317.025" y2="215.37"/>
<line x1="315.483" y1="194.306" x2="319.275" y2="194.306"/><line x1="317.379" y1="192.41" x2="317.379" y2="196.202"/><line x1="315.483" y1="192.41" x2="319.275" y2="196.202"/><line x1="315.483" y1="196.202" x2="319.275" y2="192.41"/>
<line x1="317.733" y1="183.802" x2="321.525" y2="183.802"/><line x1="319.629" y1="181.906" x2="319.629" y2="185.698"/><line x1="317.733" y1="181.906" x2="321.525" y2="185.698"/><line x1="317.733" y1="185.698" x2="321.525" y2="181.906"/>
<line x1="319.983" y1="167.086" x2="323.775" y2="167.086"/><line x1="321.879" y1="165.19" x2="321.879" y2="168.982"/><line x1="319.983" y1="165.19" x2="323.775" y2="168.982"/><line x1="319.983" y1="168.982" x2="323.775" y2="165.19"/>
<line x1="322.233" y1="157.019" x2="326.025" y2="157.019"/><line x1="324.129" y1="155.123" x2="324.129" y2="158.915"/><line x1="322.233" y1="155.123" x2="326.025" y2="158.915"/><line x1="322.233" y1="158.915" x2="326.025" y2="155.123"/>
<line x1="324.483" y1="176.343" x2="328.275" y2="176.343"/><line x1="326.379" y1="174.447" x2="326.379" y2="178.239"/><line x1="324.483" y1="174.447" x2="328.275" y2="178.239"/><line x1="324.483" y1="178.239" x2="328.275" y2="174.447"/>
<line x1="326.733" y1="206.922" x2="330.525" y2="206.922"/><line x1="328.629" y1="205.026" x2="328.629" y2="208.818"/><line x1="326.733" y1="205.026" x2="330.525" y2="208.818"/><line x1="326.733" y1="208.818" x2="330.525" y2="205.026"/>
<line x1="328.983" y1="184.248" x2="332.775" y2="184.248"/><line x1="330.879" y1="182.352" x2="330.879" y2="186.145"/><line x1="328.983" y1="182.352" x2="332.775" y2="186.145"/><line x1="328.983" y1="186.145" x2="332.775" y2="182.352"/>
<line x1="331.233" y1="151.129" x2="335.025" y2="151.129"/><line x1="333.129" y1="149.233" x2="333.129" y2="153.025"/><line x1="331.233" y1="149.233" x2="335.025" y2="153.025"/><line x1="331.233" y1="153.025" x2="335.025" y2="149.233"/>
<line x1="333.482" y1="155.152" x2="337.275" y2="155.152"/><line x1="335.379" y1="153.256" x2="335.379" y2="157.048"/><line x1="333.482" y1="153.256" x2="337.275" y2="157.048"/><line x1="333.482" y1="157.048" x2="337.275" y2="153.256"/>
<line x1="335.732" y1="155.815" x2="339.525" y2="155.815"/><line x1="337.629" y1="153.919" x2="337.629" y2="157.711"/><line x1="335.732" y1="153.919" x2="339.525" y2="157.711"/><line x1="335.732" y1="157.711" x2="339.525" y2="153.919"/>
<line x1="337.982" y1="162.838" x2="341.775" y2="162.838"/><line x1="339.878" y1="160.942" x2="339.878" y2="164.734"/><line x1="337.982" y1="160.942" x2="341.775" y2="164.734"/><line x1="337.982" y1="164.734" x2="341.775" y2="160.942"/>
<line x1="340.232" y1="166.169" x2="344.024" y2="166.169"/><line x1="342.128" y1="164.273" x2="342.128" y2="168.066"/><line x1="340.232" y1="164.273" x2="344.024" y2="168.066"/><line x1="340.232" y1="168.066" x2="344.024" y2="164.273"/>
<line x1="342.482" y1="194.327" x2="346.274" y2="194.327"/><line x1="344.378" y1="192.431" x2="344.378" y2="196.223"/><line x1="342.482" y1="192.431" x2="346.274" y2="196.223"/><line x1="342.482" y1="196.223" x2="346.274" y2="192.431"/>
<line x1="344.732" y1="208.81" x2="348.524" y2="208.81"/><line x1="346.628" y1="206.914" x2="346.628" y2="210.706"/><line x1="344.732" y1="206.914" x2="348.524" y2="210.706"/><line x1="344.732" y1="210.706" x2="348.524" y2="206.914"/>
<line x1="346.982" y1="192.43" x2="350.774" y2="192.43"/><line x1="348.878" y1="190.534" x2="348.878" y2="194.326"/><line x1="346.982" y1="190.534" x2="350.774" y2="194.326"/><line x1="346.982" y1="194.326" x2="350.774" y2="190.534"/>
<line x1="349.232" y1="202.033" x2="353.024" y2="202.033"/><line x1="351.128" y1="200.137" x2="351.128" y2="203.929"/><line x1="349.232" y1="200.137" x2="353.024" y2="203.929"/><line x1="349.232" y1="203.929" x2="353.024" y2="200.137"/>
<line x1="351.482" y1="214.153" x2="355.274" y2="214.153"/><line x1="353.378" y1="212.257" x2="353.378" y2="216.05"/><line x1="351.482" y1="212.257" x2="355.274" y2="216.05"/><line x1="351.482" y1="216.05" x2="355.274" y2="212.257"/>
<line x1="353.732" y1="223.373" x2="357.524" y2="223.373"/><line x1="355.628" y1="221.477" x2="355.628" y2="225.269"/><line x1="353.732" y1="221.477" x2="357.524" y2="225.269"/><line x1="353.732" y1="225.269" x2="357.524" y2="221.477"/>
<line x1="355.982" y1="202.568" x2="359.774" y2="202.568"/><line x1="357.878" y1="200.672" x2="357.878" y2="204.464"/><line x1="355.982" y1="200.672" x2="359.774" y2="204.464"/><line x1="355.982" y1="204.464" x2="359.774" y2="200.672"/>
<line x1="358.232" y1="225.66" x2="362.024" y2="225.66"/><line x1="360.128" y1="223.764" x2="360.128" y2="227.556"/><line x1="358.232" y1="223.764" x2="362.024" y2="227.556"/><line x1="358.232" y1="227.556" x2="362.024" y2="223.764"/>
<line x1="360.482" y1="209.948" x2="364.274" y2="209.948"/><line x1="362.378" y1="208.052" x2="362.378" y2="211.844"/><line x1="360.482" y1="208.052" x2="364.274" y2="211.844"/><line x1="360.482" y1="211.844" x2="364.274" y2="208.052"/>
<line x1="362.732" y1="217.448" x2="366.524" y2="217.448"/><line x1="364.628" y1="215.552" x2="364.628" y2="219.344"/><line x1="362.732" y1="215.552" x2="366.524" y2="219.344"/><line x1="362.732" y1="219.344" x2="366.524" y2="215.552"/>
<line x1="364.982" y1="210.313" x2="368.774" y2="210.313"/><line x1="366.878" y1="208.416" x2="366.878" y2="212.209"/><line x1="364.982" y1="208.416" x2="368.774" y2="212.209"/><line x1="364.982" y1="212.209" x2="368.774" y2="208.416"/>
<line x1="367.232" y1="202.321" x2="371.024" y2="202.321"/><line x1="369.128" y1="200.425" x2="369.128" y2="204.217"/><line x1="367.232" y1="200.425" x2="371.024" y2="204.217"/><line x1="367.232" y1="204.217" x2="371.024" y2="200.425"/>
<line x1="369.482" y1="196.798" x2="373.274" y2="196.798"/><line x1="371.378" y1="194.902" x2="371.378" y2="198.694"/><line x1="369.482" y1="194.902" x2="373.274" y2="198.694"/><line x1="369.482" y1="198.694" x2="373.274" y2="194.902"/>
<line x1="371.732" y1="188.76" x2="375.524" y2="188.76"/><line x1="373.628" y1="186.864" x2="373.628" y2="190.656"/><line x1="371.732" y1="186.864" x2="375.524" y2="190.656"/><line x1="371.732" y1="190.656" x2="375.524" y2="186.864"/>
<line x1="373.981" y1="194.48" x2="377.774" y2="194.48"/><line x1="375.878" y1="192.584" x2="375.878" y2="196.376"/><line x1="373.981" y1="192.584" x2="377.774" y2="196.376"/><line x1="373.981" y1="196.376" x2="377.774" y2="192.584"/>
<line x1="376.231" y1="187.257" x2="380.024" y2="187.257"/><line x1="378.128" y1="185.361" x2="378.128" y2="189.153"/><line x1="376.231" y1="185.361" x2="380.024" y2="189.153"/><line x1="376.231" y1="189.153" x2="380.024" y2="185.361"/>
<line x1="378.481" y1="186.32" x2="382.274" y2="186.32"/><line x1="380.377" y1="184.424" x2="380.377" y2="188.216"/><line x1="378.481" y1="184.424" x2="382.274" y2="188.216"/><line x1="378.481" y1="188.216" x2="382.274" y2="184.424"/>
<line x1="380.731" y1="225.37" x2="384.523" y2="225.37"/><line x1="382.627" y1="223.474" x2="382.627" y2="227.266"/><line x1="380.731" y1="223.474" x2="384.523" y2="227.266"/><line x1="380.731" y1="227.266" x2="384.523" y2="223.474"/>
<line x1="382.981" y1="228.733" x2="386.773" y2="228.733"/><line x1="384.877" y1="226.837" x2="384.877" y2="230.629"/><line x1="382.981" y1="226.837" x2="386.773" y2="230.629"/><line x1="382.981" y1="230.629" x2="386.773" y2="226.837"/>
<line x1="385.231" y1="230.369" x2="389.023" y2="230.369"/><line x1="387.127" y1="228.473" x2="387.127" y2="232.265"/><line x1="385.231" y1="228.473" x2="389.023" y2="232.265"/><line x1="385.231" y1="232.265" x2="389.023" y2="228.473"/>
<line x1="387.481" y1="220.917" x2="391.273" y2="220.917"/><line x1="389.377" y1="219.021" x2="389.377" y2="222.813"/><line x1="387.481" y1="219.021" x2="391.273" y2="222.813"/><line x1="387.481" y1="222.813" x2="391.273" y2="219.021"/>
<line x1="389.731" y1="228.626" x2="393.523" y2="228.626"/><line x1="391.627" y1="226.73" x2="391.627" y2="230.522"/><line x1="389.731" y1="226.73" x2="393.523" y2="230.522"/><line x1="389.731" y1="230.522" x2="393.523" y2="226.73"/>
<line x1="391.981" y1="234.531" x2="395.773" y2="234.531"/><line x1="393.877" y1="232.634" x2="393.877" y2="236.427"/><line x1="391.981" y1="232.634" x2="395.773" y2="236.427"/><line x1="391.981" y1="236.427" x2="395.773" y2="232.634"/>
<line x1="394.231" y1="241.628" x2="398.023" y2="241.628"/><line x1="396.127" y1="239.732" x2="396.127" y2="243.524"/><line x1="394.231" y1="239.732" x2="398.023" y2="243.524"/><line x1="394.231" y1="243.524" x2="398.023" y2="239.732"/>
<line x1="396.481" y1="216.645" x2="400.273" y2="216.645"/><line x1="398.377" y1="214.749" x2="398.377" y2="218.541"/><line x1="396.481" y1="214.749" x2="400.273" y2="218.541"/><line x1="396.481" y1="218.541" x2="400.273" y2="214.749"/>
<line x1="398.731" y1="200.153" x2="402.523" y2="200.153"/><line x1="400.627" y1="198.257" x2="400.627" y2="202.049"/><line x1="398.731" y1="198.257" x2="402.523" y2="202.049"/><line x1="398.731" y1="202.049" x2="402.523" y2="198.257"/>
<line x1="400.981" y1="193.047" x2="404.773" y2="193.047"/><line x1="402.877" y1="191.151" x2="402.877" y2="194.943"/><line x1="400.981" y1="191.151" x2="404.773" y2="194.943"/><line x1="400.981" y1="194.943" x2="404.773" y2="191.151"/>
<line x1="403.231" y1="191.048" x2="407.023" y2="191.048"/><line x1="405.127" y1="189.152" x2="405.127" y2="192.944"/><line x1="403.231" y1="189.152" x2="407.023" y2="192.944"/><line x1="403.231" y1="192.944" x2="407.023" y2="189.152"/>
<line x1="405.481" y1="170" x2="409.273" y2="170"/><line x1="407.377" y1="168.104" x2="407.377" y2="171.896"/><line x1="405.481" y1="168.104" x2="409.273" y2="171.896"/><line x1="405.481" y1="171.896" x2="409.273" y2="168.104"/>
<line x1="407.731" y1="145.612" x2="411.523" y2="145.612"/><line x1="409.627" y1="143.716" x2="409.627" y2="147.508"/><line x1="407.731" y1="143.716" x2="411.523" y2="147.508"/><line x1="407.731" y1="147.508" x2="411.523" y2="143.716"/>
<line x1="409.981" y1="162.708" x2="413.773" y2="162.708"/><line x1="411.877" y1="160.812" x2="411.877" y2="164.604"/><line x1="409.981" y1="160.812" x2="413.773" y2="164.604"/><line x1="409.981" y1="164.604" x2="413.773" y2="160.812"/>
<line x1="412.231" y1="140.649" x2="416.023" y2="140.649"/><line x1="414.127" y1="138.753" x2="414.127" y2="142.545"/><line x1="412.231" y1="138.753" x2="416.023" y2="142.545"/><line x1="412.231" y1="142.545" x2="416.023" y2="138.753"/>
<line x1="414.48" y1="149.035" x2="418.273" y2="149.035"/><line x1="416.377" y1="147.139" x2="416.377" y2="150.931"/><line x1="414.48" y1="147.139" x2="418.273" y2="150.931"/><line x1="414.48" y1="150.931" x2="418.273" y2="147.139"/>
<line x1="416.73" y1="155.818" x2="420.523" y2="155.818"/><line x1="418.626" y1="153.922" x2="418.626" y2="157.714"/><line x1="416.73" y1="153.922" x2="420.523" y2="157.714"/><line x1="416.73" y1="157.714" x2="420.523" y2="153.922"/>
<line x1="418.98" y1="126.118" x2="422.773" y2="126.118"/><line x1="420.876" y1="124.221" x2="420.876" y2="128.014"/><line x1="418.98" y1="124.221" x2="422.773" y2="128.014"/><line x1="418.98" y1="128.014" x2="422.773" y2="124.221"/>
<line x1="421.23" y1="81.755" x2="425.022" y2="81.755"/><line x1="423.126" y1="79.8589" x2="423.126" y2="83.6511"/><line x1="421.23" y1="79.8589" x2="425.022" y2="83.6511"/><line x1="421.23" y1="83.6511" x2="425.022" y2="79.8589"/>
<line x1="423.48" y1="42.2768" x2="427.272" y2="42.2768"/><line x1="425.376" y1="40.3807" x2="425.376" y2="44.1729"/><line x1="423.48" y1="40.3807" x2="427.272" y2="44.1729"/><line x1="423.48" y1="44.1729" x2="427.272" y2="40.3807"/>
<line x1="425.73" y1="50.1609" x2="429.522" y2="50.1609"/><line x1="427.626" y1="48.2648" x2="427.626" y2="52.057"/><line x1="425.73" y1="48.2648" x2="429.522" y2="52.057"/><line x1="425.73" y1="52.057" x2="429.522" y2="48.2648"/>
</g>
<path d="M0.5,289.342h 566.929" fill="none" stroke="#0000ff"/>
<path d="M222.881,399.568v -358.233" fill="none" stroke="#0000ff"/>
<path d="M281.38,399.568v -358.233" fill="none" stroke="#0000ff"/>
<text xml:space="preserve" x="109.525" y="18.0128" fill="black" font-size="14.0403" font-family="Helvetica">^2 v.s. calibration factor without 1st bin and without last bin</text>
<text xml:space="preserve" x="101.94" y="18.0128" fill="black" font-size="14.0403" font-family="Times">&#0967;</text></svg>
