<?xml version="1.0" standalone="no"?>
<svg width="567.429" height="413.846" viewBox="0 0 567.429 413.846" xmlns="http://www.w3.org/2000/svg" shape-rendering="crispEdges">
<title>
figures/PMTnperes0PMTnpedata190929-01.svg
</title>
<desc>
Creator: ROOT Version 6.18/02
CreationDate: Sun Sep 29 19:52:24 2019</desc>
<defs>
</defs>
<rect x="0.5" y="0" width="566.929" height="413.346" fill="white"/>
<rect x="0.5" y="0" width="566.929" height="276.942" fill="white"/>
<rect x="57.1929" y="27.6942" width="453.543" height="249.245" fill="white"/>
<rect x="57.1929" y="27.6942" width="453.543" height="249.245" fill="none" stroke="black"/>
<rect x="57.1929" y="27.6942" width="453.543" height="249.245" fill="white"/>
<rect x="57.1929" y="27.6942" width="453.543" height="249.245" fill="none" stroke="black"/>
<path d="M57.1929,44.5974h 9.07087v 26.4681h 9.07087v 0.91803h 9.07087v 0.222183h 9.07087v 2.26668h 9.07087v 3.51928h 9.07087v 4.76191h 9.07087v 5.1178h 9.07087v 5.37755h 9.07087v 6.29825h 9.07087v 5.03522h 9.07087v 5.2828h 9.07087v 5.52349h 9.07087v
 3.54548h 9.07087v 4.40302h 9.07087v 5.44074h 9.07087v 2.33746h 9.07087v 5.37107h 9.07087v 3.03726h 9.07087v 2.06718h 9.07087v 2.65968h 9.07087v 2.18162h 9.07087v 4.37916h 9.07087v 2.07616h 9.07087v 3.17384h 9.07087v 0.163391h 9.07087v 6.11901h
 9.07087v 2.29306h 9.07087v 3.97131h 9.07087v -0.144811h 9.07087v 7.11183h 9.07087v -2.28097h 9.07087v -2.22678h 9.07087v 2.40794h 9.07087v 3.98352h 18.1417v 2.5499h 9.07087v 2.89084h 9.07087v -1.88372h 9.07087v 0.521692h 9.07087v 2.51693h 9.07087v
 2.18234h 9.07087v 2.06338h 9.07087v -3.02573h 9.07087v 1.62852h 9.07087v 3.67817h 9.07087v -0.397243h 9.07087v 0.397243h 9.07087v 5.44074h 18.1417" fill="none" stroke="#ff0000" stroke-width="2"/>
<rect x="283.965" y="27.6942" width="113.386" height="55.3884" fill="white"/>
<path d="M283.965,83.0826h 113.386" fill="none" stroke="black"/>
<path d="M397.35,83.0826v -55.3884" fill="none" stroke="black"/>
<path d="M397.35,27.6942h -113.386" fill="none" stroke="black"/>
<path d="M283.965,27.6942v 55.3884" fill="none" stroke="black"/>
<text xml:space="preserve" x="292.023" y="37.9217" fill="#ff0000" font-size="12.1875" font-family="Helvetica">npe_PMT-S0-data</text>
<path d="M283.965,41.5413h 113.386" fill="none" stroke="black"/>
<text xml:space="preserve" x="289.179" y="53.0904" fill="#ff0000" font-size="12.1875" font-family="Helvetica">Entries </text>
<text xml:space="preserve" x="350.802" y="52.6163" fill="#ff0000" font-size="12.1875" font-family="Helvetica"> 147601</text>
<text xml:space="preserve" x="289.179" y="66.837" fill="#ff0000" font-size="12.1875" font-family="Helvetica">Mean  </text>
<text xml:space="preserve" x="357.438" y="66.3629" fill="#ff0000" font-size="12.1875" font-family="Helvetica">  5.751</text>
<text xml:space="preserve" x="289.179" y="80.5836" fill="#ff0000" font-size="12.1875" font-family="Helvetica">Std Dev   </text>
<text xml:space="preserve" x="355.542" y="80.1096" fill="#ff0000" font-size="12.1875" font-family="Helvetica">  7.167</text>
<path d="M57.1929,276.939h 453.543" fill="none" stroke="black"/>
<path d="M57.1929,270.293v 6.64661" fill="none" stroke="black"/>
<path d="M72.311,273.616v 3.3233" fill="none" stroke="black"/>
<path d="M87.4291,273.616v 3.3233" fill="none" stroke="black"/>
<path d="M102.547,273.616v 3.3233" fill="none" stroke="black"/>
<path d="M117.665,273.616v 3.3233" fill="none" stroke="black"/>
<path d="M132.783,270.293v 6.64661" fill="none" stroke="black"/>
<path d="M147.902,273.616v 3.3233" fill="none" stroke="black"/>
<path d="M163.02,273.616v 3.3233" fill="none" stroke="black"/>
<path d="M178.138,273.616v 3.3233" fill="none" stroke="black"/>
<path d="M193.256,273.616v 3.3233" fill="none" stroke="black"/>
<path d="M208.374,270.293v 6.64661" fill="none" stroke="black"/>
<path d="M223.492,273.616v 3.3233" fill="none" stroke="black"/>
<path d="M238.61,273.616v 3.3233" fill="none" stroke="black"/>
<path d="M253.728,273.616v 3.3233" fill="none" stroke="black"/>
<path d="M268.846,273.616v 3.3233" fill="none" stroke="black"/>
<path d="M283.965,270.293v 6.64661" fill="none" stroke="black"/>
<path d="M299.083,273.616v 3.3233" fill="none" stroke="black"/>
<path d="M314.201,273.616v 3.3233" fill="none" stroke="black"/>
<path d="M329.319,273.616v 3.3233" fill="none" stroke="black"/>
<path d="M344.437,273.616v 3.3233" fill="none" stroke="black"/>
<path d="M359.555,270.293v 6.64661" fill="none" stroke="black"/>
<path d="M374.673,273.616v 3.3233" fill="none" stroke="black"/>
<path d="M389.791,273.616v 3.3233" fill="none" stroke="black"/>
<path d="M404.909,273.616v 3.3233" fill="none" stroke="black"/>
<path d="M420.028,273.616v 3.3233" fill="none" stroke="black"/>
<path d="M435.146,270.293v 6.64661" fill="none" stroke="black"/>
<path d="M450.264,273.616v 3.3233" fill="none" stroke="black"/>
<path d="M465.382,273.616v 3.3233" fill="none" stroke="black"/>
<path d="M480.5,273.616v 3.3233" fill="none" stroke="black"/>
<path d="M495.618,273.616v 3.3233" fill="none" stroke="black"/>
<path d="M510.736,270.293v 6.64661" fill="none" stroke="black"/>
<text xml:space="preserve" x="54.5384" y="285.835" fill="black" font-size="9.39263" font-family="Helvetica">0</text>
<text xml:space="preserve" x="127.538" y="285.835" fill="black" font-size="9.39263" font-family="Helvetica">10</text>
<text xml:space="preserve" x="202.907" y="285.835" fill="black" font-size="9.39263" font-family="Helvetica">20</text>
<text xml:space="preserve" x="278.75" y="285.835" fill="black" font-size="9.39263" font-family="Helvetica">30</text>
<text xml:space="preserve" x="354.12" y="285.835" fill="black" font-size="9.39263" font-family="Helvetica">40</text>
<text xml:space="preserve" x="429.489" y="285.835" fill="black" font-size="9.39263" font-family="Helvetica">50</text>
<text xml:space="preserve" x="505.332" y="285.835" fill="black" font-size="9.39263" font-family="Helvetica">60</text>
<text xml:space="preserve" x="490.638" y="293.893" fill="black" font-size="9.39263" font-family="Helvetica">n.p.e</text>
<path d="M57.1929,276.939v -249.245" fill="none" stroke="black"/>
<path d="M72.4998,276.939h -15.3069" fill="none" stroke="black"/>
<text xml:space="preserve" x="49.3242" y="280.62" fill="black" font-size="9.39263" font-family="Helvetica">1</text>
<path d="M64.8464,261.933h -7.65346" fill="none" stroke="black"/>
<path d="M64.8464,253.155h -7.65346" fill="none" stroke="black"/>
<path d="M64.8464,246.927h -7.65346" fill="none" stroke="black"/>
<path d="M64.8464,242.096h -7.65346" fill="none" stroke="black"/>
<path d="M64.8464,238.149h -7.65346" fill="none" stroke="black"/>
<path d="M64.8464,234.812h -7.65346" fill="none" stroke="black"/>
<path d="M64.8464,231.921h -7.65346" fill="none" stroke="black"/>
<path d="M64.8464,229.371h -7.65346" fill="none" stroke="black"/>
<path d="M72.4998,227.09h -15.3069" fill="none" stroke="black"/>
<text xml:space="preserve" x="42.6879" y="230.374" fill="black" font-size="9.39263" font-family="Helvetica">10</text>
<path d="M64.8464,212.084h -7.65346" fill="none" stroke="black"/>
<path d="M64.8464,203.306h -7.65346" fill="none" stroke="black"/>
<path d="M64.8464,197.078h -7.65346" fill="none" stroke="black"/>
<path d="M64.8464,192.247h -7.65346" fill="none" stroke="black"/>
<path d="M64.8464,188.3h -7.65346" fill="none" stroke="black"/>
<path d="M64.8464,184.963h -7.65346" fill="none" stroke="black"/>
<path d="M64.8464,182.072h -7.65346" fill="none" stroke="black"/>
<path d="M64.8464,179.522h -7.65346" fill="none" stroke="black"/>
<path d="M72.4998,177.241h -15.3069" fill="none" stroke="black"/>
<text xml:space="preserve" x="49.3242" y="177.284" fill="black" font-size="6.42842" font-family="Helvetica">2</text>
<text xml:space="preserve" x="39.3697" y="181.076" fill="black" font-size="9.39263" font-family="Helvetica">10</text>
<path d="M64.8464,162.235h -7.65346" fill="none" stroke="black"/>
<path d="M64.8464,153.457h -7.65346" fill="none" stroke="black"/>
<path d="M64.8464,147.229h -7.65346" fill="none" stroke="black"/>
<path d="M64.8464,142.398h -7.65346" fill="none" stroke="black"/>
<path d="M64.8464,138.451h -7.65346" fill="none" stroke="black"/>
<path d="M64.8464,135.114h -7.65346" fill="none" stroke="black"/>
<path d="M64.8464,132.223h -7.65346" fill="none" stroke="black"/>
<path d="M64.8464,129.673h -7.65346" fill="none" stroke="black"/>
<path d="M72.4998,127.392h -15.3069" fill="none" stroke="black"/>
<text xml:space="preserve" x="49.3242" y="127.038" fill="black" font-size="6.42842" font-family="Helvetica">3</text>
<text xml:space="preserve" x="39.3697" y="131.304" fill="black" font-size="9.39263" font-family="Helvetica">10</text>
<path d="M64.8464,112.386h -7.65346" fill="none" stroke="black"/>
<path d="M64.8464,103.608h -7.65346" fill="none" stroke="black"/>
<path d="M64.8464,97.3801h -7.65346" fill="none" stroke="black"/>
<path d="M64.8464,92.5493h -7.65346" fill="none" stroke="black"/>
<path d="M64.8464,88.6021h -7.65346" fill="none" stroke="black"/>
<path d="M64.8464,85.2649h -7.65346" fill="none" stroke="black"/>
<path d="M64.8464,82.3741h -7.65346" fill="none" stroke="black"/>
<path d="M64.8464,79.8242h -7.65346" fill="none" stroke="black"/>
<path d="M72.4998,77.5432h -15.3069" fill="none" stroke="black"/>
<text xml:space="preserve" x="49.3242" y="77.7394" fill="black" font-size="6.42842" font-family="Helvetica">4</text>
<text xml:space="preserve" x="39.3697" y="81.5316" fill="black" font-size="9.39263" font-family="Helvetica">10</text>
<path d="M64.8464,62.5372h -7.65346" fill="none" stroke="black"/>
<path d="M64.8464,53.7592h -7.65346" fill="none" stroke="black"/>
<path d="M64.8464,47.5311h -7.65346" fill="none" stroke="black"/>
<path d="M64.8464,42.7002h -7.65346" fill="none" stroke="black"/>
<path d="M64.8464,38.7531h -7.65346" fill="none" stroke="black"/>
<path d="M64.8464,35.4159h -7.65346" fill="none" stroke="black"/>
<path d="M64.8464,32.5251h -7.65346" fill="none" stroke="black"/>
<path d="M64.8464,29.9752h -7.65346" fill="none" stroke="black"/>
<path d="M72.4998,27.6942h -15.3069" fill="none" stroke="black"/>
<text xml:space="preserve" x="49.3242" y="27.4932" fill="black" font-size="6.42842" font-family="Helvetica">5</text>
<text xml:space="preserve" x="39.3697" y="31.7594" fill="black" font-size="9.39263" font-family="Helvetica">10</text>
<rect x="283.965" y="27.6942" width="113.386" height="55.3884" fill="white"/>
<path d="M283.965,83.0826h 113.386" fill="none" stroke="black"/>
<path d="M397.35,83.0826v -55.3884" fill="none" stroke="black"/>
<path d="M397.35,27.6942h -113.386" fill="none" stroke="black"/>
<path d="M283.965,27.6942v 55.3884" fill="none" stroke="black"/>
<text xml:space="preserve" x="292.023" y="37.9217" fill="#ff0000" font-size="12.1875" font-family="Helvetica">npe_PMT-S0-data</text>
<path d="M283.965,41.5413h 113.386" fill="none" stroke="black"/>
<text xml:space="preserve" x="289.179" y="53.0904" fill="#ff0000" font-size="12.1875" font-family="Helvetica">Entries </text>
<text xml:space="preserve" x="350.802" y="52.6163" fill="#ff0000" font-size="12.1875" font-family="Helvetica"> 147601</text>
<text xml:space="preserve" x="289.179" y="66.837" fill="#ff0000" font-size="12.1875" font-family="Helvetica">Mean  </text>
<text xml:space="preserve" x="357.438" y="66.3629" fill="#ff0000" font-size="12.1875" font-family="Helvetica">  5.751</text>
<text xml:space="preserve" x="289.179" y="80.5836" fill="#ff0000" font-size="12.1875" font-family="Helvetica">Std Dev   </text>
<text xml:space="preserve" x="355.542" y="80.1096" fill="#ff0000" font-size="12.1875" font-family="Helvetica">  7.167</text>
<path d="M57.1929,48.9249h 9.07087v 18.3285h 9.07087v 0.190612h 9.07087v 2.22913h 9.07087v 3.77919h 9.07087v 4.84207h 9.07087v 5.6363h 9.07087v 5.01704h 9.07087v 5.90662h 9.07087v 4.03881h 9.07087v 5.51633h 9.07087v 5.01701h 9.07087v 4.74136h
 9.07087v 3.30787h 9.07087v 4.26993h 9.07087v 4.44652h 9.07087v 2.86452h 9.07087v 3.4662h 9.07087v 5.18357h 9.07087v 0.210188h 9.07087v 3.926h 9.07087v 0.0845671h 9.07087v 4.34906h 9.07087v 3.05423h 9.07087v 1.73783h 9.07087v 0.722801h 9.07087v
 0.541257h 9.07087v 4.47415h 9.07087v 1.48161h 9.07087v 0.455788h 9.07087v 3.06261h 9.07087v 1.31247h 9.07087v 0.571251h 9.07087v 1.31247h 9.07087v 2.61149h 18.1417v 4.45256h 9.07087v -1.48227h 9.07087v 2.70968h 9.07087v 6.46996h 9.07087v 3.13547h
 9.07087v -2.13993h 9.07087v 4.51482h 9.07087v 6.97283h 9.07087v 1.80514h 9.07087v -4.64179h 9.07087v 5.11762h 9.07087v -0.475825h 9.07087v 0.475825h 9.07087v 8.77798h 9.07087" fill="none" stroke="#006633" stroke-width="2"/>
<rect x="397.35" y="27.6942" width="113.386" height="55.3884" fill="white"/>
<path d="M397.35,83.0826h 113.386" fill="none" stroke="black"/>
<path d="M510.736,83.0826v -55.3884" fill="none" stroke="black"/>
<path d="M510.736,27.6942h -113.386" fill="none" stroke="black"/>
<path d="M397.35,27.6942v 55.3884" fill="none" stroke="black"/>
<text xml:space="preserve" x="407.684" y="37.9217" fill="#006633" font-size="12.1875" font-family="Helvetica">npe_PMT-S0-MC</text>
<path d="M397.35,41.5413h 113.386" fill="none" stroke="black"/>
<text xml:space="preserve" x="402.944" y="53.0904" fill="#006633" font-size="12.1875" font-family="Helvetica">Entries </text>
<text xml:space="preserve" x="464.093" y="52.6163" fill="#006633" font-size="12.1875" font-family="Helvetica"> 147601</text>
<text xml:space="preserve" x="402.944" y="66.837" fill="#006633" font-size="12.1875" font-family="Helvetica">Mean  </text>
<text xml:space="preserve" x="475.469" y="66.3629" fill="#006633" font-size="12.1875" font-family="Helvetica">    6.2</text>
<text xml:space="preserve" x="402.944" y="80.5836" fill="#006633" font-size="12.1875" font-family="Helvetica">Std Dev   </text>
<text xml:space="preserve" x="468.833" y="80.1096" fill="#006633" font-size="12.1875" font-family="Helvetica">  7.622</text>
<rect x="397.35" y="27.6942" width="113.386" height="55.3884" fill="white"/>
<path d="M397.35,83.0826h 113.386" fill="none" stroke="black"/>
<path d="M510.736,83.0826v -55.3884" fill="none" stroke="black"/>
<path d="M510.736,27.6942h -113.386" fill="none" stroke="black"/>
<path d="M397.35,27.6942v 55.3884" fill="none" stroke="black"/>
<text xml:space="preserve" x="407.684" y="37.9217" fill="#006633" font-size="12.1875" font-family="Helvetica">npe_PMT-S0-MC</text>
<path d="M397.35,41.5413h 113.386" fill="none" stroke="black"/>
<text xml:space="preserve" x="402.944" y="53.0904" fill="#006633" font-size="12.1875" font-family="Helvetica">Entries </text>
<text xml:space="preserve" x="464.093" y="52.6163" fill="#006633" font-size="12.1875" font-family="Helvetica"> 147601</text>
<text xml:space="preserve" x="402.944" y="66.837" fill="#006633" font-size="12.1875" font-family="Helvetica">Mean  </text>
<text xml:space="preserve" x="475.469" y="66.3629" fill="#006633" font-size="12.1875" font-family="Helvetica">    6.2</text>
<text xml:space="preserve" x="402.944" y="80.5836" fill="#006633" font-size="12.1875" font-family="Helvetica">Std Dev   </text>
<text xml:space="preserve" x="468.833" y="80.1096" fill="#006633" font-size="12.1875" font-family="Helvetica">  7.622</text>
<rect x="397.35" y="83.0826" width="113.386" height="27.6942" fill="white"/>
<path d="M397.35,110.777h 113.386" fill="none" stroke="black"/>
<path d="M510.736,110.777v -27.6942" fill="none" stroke="black"/>
<path d="M510.736,83.0826h -113.386" fill="none" stroke="black"/>
<path d="M397.35,83.0826v 27.6942" fill="none" stroke="black"/>
<text xml:space="preserve" x="425.697" y="92.9081" fill="black" font-size="11.372" font-family="Helvetica">Data</text>
<path d="M401.602,90.0062h 19.8425" fill="none" stroke="#ff0000" stroke-width="2"/>
<text xml:space="preserve" x="425.697" y="106.655" fill="black" font-size="11.372" font-family="Helvetica">MC by rat</text>
<path d="M401.602,103.853h 19.8425" fill="none" stroke="#006633" stroke-width="2"/>
<rect x="0.5" y="276.942" width="566.929" height="136.404" fill="white"/>
<rect x="57.1929" y="276.943" width="453.543" height="95.4816" fill="white"/>
<rect x="57.1929" y="276.943" width="453.543" height="95.4816" fill="none" stroke="black"/>
<rect x="57.1929" y="276.943" width="453.543" height="95.4816" fill="white"/>
<rect x="57.1929" y="276.943" width="453.543" height="95.4816" fill="none" stroke="black"/>
<path d="M57.1929,372.425h 453.543" fill="none" stroke="black"/>
<path d="M57.1929,369.151v 3.2737" fill="none" stroke="black"/>
<path d="M72.311,370.788v 1.63685" fill="none" stroke="black"/>
<path d="M87.4291,370.788v 1.63685" fill="none" stroke="black"/>
<path d="M102.547,370.788v 1.63685" fill="none" stroke="black"/>
<path d="M117.665,370.788v 1.63685" fill="none" stroke="black"/>
<path d="M132.783,369.151v 3.2737" fill="none" stroke="black"/>
<path d="M147.902,370.788v 1.63685" fill="none" stroke="black"/>
<path d="M163.02,370.788v 1.63685" fill="none" stroke="black"/>
<path d="M178.138,370.788v 1.63685" fill="none" stroke="black"/>
<path d="M193.256,370.788v 1.63685" fill="none" stroke="black"/>
<path d="M208.374,369.151v 3.2737" fill="none" stroke="black"/>
<path d="M223.492,370.788v 1.63685" fill="none" stroke="black"/>
<path d="M238.61,370.788v 1.63685" fill="none" stroke="black"/>
<path d="M253.728,370.788v 1.63685" fill="none" stroke="black"/>
<path d="M268.846,370.788v 1.63685" fill="none" stroke="black"/>
<path d="M283.965,369.151v 3.2737" fill="none" stroke="black"/>
<path d="M299.083,370.788v 1.63685" fill="none" stroke="black"/>
<path d="M314.201,370.788v 1.63685" fill="none" stroke="black"/>
<path d="M329.319,370.788v 1.63685" fill="none" stroke="black"/>
<path d="M344.437,370.788v 1.63685" fill="none" stroke="black"/>
<path d="M359.555,369.151v 3.2737" fill="none" stroke="black"/>
<path d="M374.673,370.788v 1.63685" fill="none" stroke="black"/>
<path d="M389.791,370.788v 1.63685" fill="none" stroke="black"/>
<path d="M404.909,370.788v 1.63685" fill="none" stroke="black"/>
<path d="M420.028,370.788v 1.63685" fill="none" stroke="black"/>
<path d="M435.146,369.151v 3.2737" fill="none" stroke="black"/>
<path d="M450.264,370.788v 1.63685" fill="none" stroke="black"/>
<path d="M465.382,370.788v 1.63685" fill="none" stroke="black"/>
<path d="M480.5,370.788v 1.63685" fill="none" stroke="black"/>
<path d="M495.618,370.788v 1.63685" fill="none" stroke="black"/>
<path d="M510.736,369.151v 3.2737" fill="none" stroke="black"/>
<text xml:space="preserve" x="54.5384" y="380.639" fill="black" font-size="9.25991" font-family="Helvetica">0</text>
<text xml:space="preserve" x="127.538" y="380.639" fill="black" font-size="9.25991" font-family="Helvetica">10</text>
<text xml:space="preserve" x="202.907" y="380.639" fill="black" font-size="9.25991" font-family="Helvetica">20</text>
<text xml:space="preserve" x="278.75" y="380.639" fill="black" font-size="9.25991" font-family="Helvetica">30</text>
<text xml:space="preserve" x="354.12" y="380.639" fill="black" font-size="9.25991" font-family="Helvetica">40</text>
<text xml:space="preserve" x="429.489" y="380.639" fill="black" font-size="9.25991" font-family="Helvetica">50</text>
<text xml:space="preserve" x="505.332" y="380.639" fill="black" font-size="9.25991" font-family="Helvetica">60</text>
<text xml:space="preserve" x="443.71" y="393.437" fill="black" font-size="11.137" font-family="Helvetica">number of p.e</text>
<path d="M57.1929,372.425v -95.4816" fill="none" stroke="black"/>
<path d="M69.0983,364.202h -11.9053" fill="none" stroke="black"/>
<path d="M63.1456,360.976h -5.95267" fill="none" stroke="black"/>
<path d="M63.1456,357.75h -5.95267" fill="none" stroke="black"/>
<path d="M63.1456,354.524h -5.95267" fill="none" stroke="black"/>
<path d="M63.1456,351.298h -5.95267" fill="none" stroke="black"/>
<path d="M69.0983,348.072h -11.9053" fill="none" stroke="black"/>
<path d="M63.1456,344.845h -5.95267" fill="none" stroke="black"/>
<path d="M63.1456,341.619h -5.95267" fill="none" stroke="black"/>
<path d="M63.1456,338.393h -5.95267" fill="none" stroke="black"/>
<path d="M63.1456,335.167h -5.95267" fill="none" stroke="black"/>
<path d="M69.0983,331.941h -11.9053" fill="none" stroke="black"/>
<path d="M63.1456,328.715h -5.95267" fill="none" stroke="black"/>
<path d="M63.1456,325.488h -5.95267" fill="none" stroke="black"/>
<path d="M63.1456,322.262h -5.95267" fill="none" stroke="black"/>
<path d="M63.1456,319.036h -5.95267" fill="none" stroke="black"/>
<path d="M69.0983,315.81h -11.9053" fill="none" stroke="black"/>
<path d="M63.1456,312.584h -5.95267" fill="none" stroke="black"/>
<path d="M63.1456,309.358h -5.95267" fill="none" stroke="black"/>
<path d="M63.1456,306.132h -5.95267" fill="none" stroke="black"/>
<path d="M63.1456,302.905h -5.95267" fill="none" stroke="black"/>
<path d="M69.0983,299.679h -11.9053" fill="none" stroke="black"/>
<path d="M63.1456,296.453h -5.95267" fill="none" stroke="black"/>
<path d="M63.1456,293.227h -5.95267" fill="none" stroke="black"/>
<path d="M63.1456,290.001h -5.95267" fill="none" stroke="black"/>
<path d="M63.1456,286.775h -5.95267" fill="none" stroke="black"/>
<path d="M69.0983,283.549h -11.9053" fill="none" stroke="black"/>
<path d="M69.0983,364.202h -11.9053" fill="none" stroke="black"/>
<path d="M63.1456,367.428h -5.95267" fill="none" stroke="black"/>
<path d="M63.1456,370.655h -5.95267" fill="none" stroke="black"/>
<path d="M69.0983,283.549h -11.9053" fill="none" stroke="black"/>
<path d="M63.1456,280.322h -5.95267" fill="none" stroke="black"/>
<path d="M63.1456,277.096h -5.95267" fill="none" stroke="black"/>
<text xml:space="preserve" x="44.1099" y="367.366" fill="black" font-size="9.25991" font-family="Helvetica">30</text>
<text xml:space="preserve" x="38.8957" y="367.366" fill="black" font-size="9.25991" font-family="Times">&#8722;</text>
<text xml:space="preserve" x="44.1099" y="351.25" fill="black" font-size="9.25991" font-family="Helvetica">20</text>
<text xml:space="preserve" x="38.8957" y="351.25" fill="black" font-size="9.25991" font-family="Times">&#8722;</text>
<text xml:space="preserve" x="44.1099" y="335.133" fill="black" font-size="9.25991" font-family="Helvetica">10</text>
<text xml:space="preserve" x="38.8957" y="335.133" fill="black" font-size="9.25991" font-family="Times">&#8722;</text>
<text xml:space="preserve" x="49.3242" y="319.016" fill="black" font-size="9.25991" font-family="Helvetica">0</text>
<text xml:space="preserve" x="44.1099" y="302.899" fill="black" font-size="9.25991" font-family="Helvetica">10</text>
<text xml:space="preserve" x="44.1099" y="286.783" fill="black" font-size="9.25991" font-family="Helvetica">20</text>
<g transform="rotate(-90,35.5776,283.465)">
<text xml:space="preserve" x="35.5776" y="283.465" fill="black" font-size="11.137" font-family="Times">&#0963;</text>
</g>
<g transform="rotate(-90,35.5776,343.665)">
<text xml:space="preserve" x="35.5776" y="343.665" fill="black" font-size="11.137" font-family="Helvetica">(MC-DATA)/</text>
</g>
<g stroke="black" stroke-width="1" fill="none">
<line x1="56.1929" y1="315.81" x2="57.1929" y2="315.81"/>
<line x1="65.2638" y1="362.19" x2="66.2638" y2="362.19"/>
<line x1="74.3346" y1="291.45" x2="75.3346" y2="291.45"/>
<line x1="83.4055" y1="287.178" x2="84.4055" y2="287.178"/>
<line x1="92.4764" y1="300.273" x2="93.4764" y2="300.273"/>
<line x1="101.547" y1="309.972" x2="102.547" y2="309.972"/>
<line x1="110.618" y1="317.383" x2="111.618" y2="317.383"/>
<line x1="119.689" y1="321.234" x2="120.689" y2="321.234"/>
<line x1="128.76" y1="320.222" x2="129.76" y2="320.222"/>
<line x1="137.831" y1="321.586" x2="138.831" y2="321.586"/>
<line x1="146.902" y1="313.721" x2="147.902" y2="313.721"/>
<line x1="155.972" y1="315.321" x2="156.972" y2="315.321"/>
<line x1="165.043" y1="314.709" x2="166.043" y2="314.709"/>
<line x1="174.114" y1="313.088" x2="175.114" y2="313.088"/>
<line x1="183.185" y1="312.806" x2="184.185" y2="312.806"/>
<line x1="192.256" y1="312.844" x2="193.256" y2="312.844"/>
<line x1="201.327" y1="311.512" x2="202.327" y2="311.512"/>
<line x1="210.398" y1="312.588" x2="211.398" y2="312.588"/>
<line x1="219.469" y1="310.211" x2="220.469" y2="310.211"/>
<line x1="228.539" y1="313.474" x2="229.539" y2="313.474"/>
<line x1="237.61" y1="311.211" x2="238.61" y2="311.211"/>
<line x1="246.681" y1="313.016" x2="247.681" y2="313.016"/>
<line x1="255.752" y1="310.721" x2="256.752" y2="310.721"/>
<line x1="264.823" y1="311.178" x2="265.823" y2="311.178"/>
<line x1="273.894" y1="312.385" x2="274.894" y2="312.385"/>
<line x1="282.965" y1="311.27" x2="283.965" y2="311.27"/>
<line x1="292.035" y1="311.819" x2="293.035" y2="311.819"/>
<line x1="301.106" y1="307.494" x2="302.106" y2="307.494"/>
<line x1="310.177" y1="309.784" x2="311.177" y2="309.784"/>
<line x1="319.248" y1="308.367" x2="320.248" y2="308.367"/>
<line x1="328.319" y1="308.822" x2="329.319" y2="308.822"/>
<line x1="337.39" y1="307.043" x2="338.39" y2="307.043"/>
<line x1="346.461" y1="309.235" x2="347.461" y2="309.235"/>
<line x1="355.531" y1="310.941" x2="356.531" y2="310.941"/>
<line x1="364.602" y1="310.457" x2="365.602" y2="310.457"/>
<line x1="373.673" y1="310.052" x2="374.673" y2="310.052"/>
<line x1="382.744" y1="310.052" x2="383.744" y2="310.052"/>
<line x1="391.815" y1="311.52" x2="392.815" y2="311.52"/>
<line x1="400.886" y1="309.289" x2="401.886" y2="309.289"/>
<line x1="409.957" y1="311.744" x2="410.957" y2="311.744"/>
<line x1="419.028" y1="314.947" x2="420.028" y2="314.947"/>
<line x1="428.098" y1="315.283" x2="429.098" y2="315.283"/>
<line x1="437.169" y1="313.316" x2="438.169" y2="313.316"/>
<line x1="446.24" y1="314.532" x2="447.24" y2="314.532"/>
<line x1="455.311" y1="318.62" x2="456.311" y2="318.62"/>
<line x1="464.382" y1="318.578" x2="465.382" y2="318.578"/>
<line x1="473.453" y1="315.351" x2="474.453" y2="315.351"/>
<line x1="482.524" y1="317.423" x2="483.524" y2="317.423"/>
<line x1="491.594" y1="317.1" x2="492.594" y2="317.1"/>
<line x1="500.665" y1="315.291" x2="501.665" y2="315.291"/>
<line x1="509.736" y1="318.091" x2="510.736" y2="318.091"/>
</g>
<path d="M66.2638,362.19v -2.27839" fill="none" stroke="black"/>
<path d="M65.3157,359.911h 1.89608" fill="none" stroke="black"/>
<path d="M66.2638,362.19v 2.27839" fill="none" stroke="black"/>
<path d="M65.3157,364.468h 1.89608" fill="none" stroke="black"/>
<path d="M75.3346,291.45v -2.27903" fill="none" stroke="black"/>
<path d="M74.3866,289.171h 1.89608" fill="none" stroke="black"/>
<path d="M75.3346,291.45v 2.27903" fill="none" stroke="black"/>
<path d="M74.3866,293.729h 1.89608" fill="none" stroke="black"/>
<path d="M84.4055,287.178v -2.27811" fill="none" stroke="black"/>
<path d="M83.4575,284.9h 1.89608" fill="none" stroke="black"/>
<path d="M84.4055,287.178v 2.27811" fill="none" stroke="black"/>
<path d="M83.4575,289.456h 1.89608" fill="none" stroke="black"/>
<path d="M93.4764,300.273v -2.28026" fill="none" stroke="black"/>
<path d="M92.5283,297.992h 1.89608" fill="none" stroke="black"/>
<path d="M93.4764,300.273v 2.28026" fill="none" stroke="black"/>
<path d="M92.5283,302.553h 1.89608" fill="none" stroke="black"/>
<path d="M102.547,309.972v -2.28107" fill="none" stroke="black"/>
<path d="M101.599,307.691h 1.89608" fill="none" stroke="black"/>
<path d="M102.547,309.972v 2.28107" fill="none" stroke="black"/>
<path d="M101.599,312.253h 1.89608" fill="none" stroke="black"/>
<path d="M111.618,317.383v -2.28122" fill="none" stroke="black"/>
<path d="M110.67,315.102h 1.89608" fill="none" stroke="black"/>
<path d="M111.618,317.383v 2.28122" fill="none" stroke="black"/>
<path d="M110.67,319.664h 1.89608" fill="none" stroke="black"/>
<path d="M120.689,321.234v -2.28102" fill="none" stroke="black"/>
<path d="M119.741,318.953h 1.89608" fill="none" stroke="black"/>
<path d="M120.689,321.234v 2.28102" fill="none" stroke="black"/>
<path d="M119.741,323.515h 1.89608" fill="none" stroke="black"/>
<path d="M129.76,320.222v -2.28106" fill="none" stroke="black"/>
<path d="M128.812,317.941h 1.89608" fill="none" stroke="black"/>
<path d="M129.76,320.222v 2.28106" fill="none" stroke="black"/>
<path d="M128.812,322.503h 1.89608" fill="none" stroke="black"/>
<path d="M138.831,321.586v -2.28084" fill="none" stroke="black"/>
<path d="M137.883,319.305h 1.89608" fill="none" stroke="black"/>
<path d="M138.831,321.586v 2.28084" fill="none" stroke="black"/>
<path d="M137.883,323.867h 1.89608" fill="none" stroke="black"/>
<path d="M147.902,313.721v -2.28117" fill="none" stroke="black"/>
<path d="M146.954,311.44h 1.89608" fill="none" stroke="black"/>
<path d="M147.902,313.721v 2.28117" fill="none" stroke="black"/>
<path d="M146.954,316.003h 1.89608" fill="none" stroke="black"/>
<path d="M156.972,315.321v -2.28123" fill="none" stroke="black"/>
<path d="M156.024,313.04h 1.89608" fill="none" stroke="black"/>
<path d="M156.972,315.321v 2.28123" fill="none" stroke="black"/>
<path d="M156.024,317.602h 1.89608" fill="none" stroke="black"/>
<path d="M166.043,314.709v -2.2812" fill="none" stroke="black"/>
<path d="M165.095,312.428h 1.89608" fill="none" stroke="black"/>
<path d="M166.043,314.709v 2.2812" fill="none" stroke="black"/>
<path d="M165.095,316.99h 1.89608" fill="none" stroke="black"/>
<path d="M175.114,313.088v -2.28101" fill="none" stroke="black"/>
<path d="M174.166,310.807h 1.89608" fill="none" stroke="black"/>
<path d="M175.114,313.088v 2.28101" fill="none" stroke="black"/>
<path d="M174.166,315.369h 1.89608" fill="none" stroke="black"/>
<path d="M184.185,312.806v -2.28091" fill="none" stroke="black"/>
<path d="M183.237,310.525h 1.89608" fill="none" stroke="black"/>
<path d="M184.185,312.806v 2.28091" fill="none" stroke="black"/>
<path d="M183.237,315.087h 1.89608" fill="none" stroke="black"/>
<path d="M193.256,312.844v -2.28085" fill="none" stroke="black"/>
<path d="M192.308,310.564h 1.89608" fill="none" stroke="black"/>
<path d="M193.256,312.844v 2.28085" fill="none" stroke="black"/>
<path d="M192.308,315.125h 1.89608" fill="none" stroke="black"/>
<path d="M202.327,311.512v -2.28022" fill="none" stroke="black"/>
<path d="M201.379,309.232h 1.89608" fill="none" stroke="black"/>
<path d="M202.327,311.512v 2.28022" fill="none" stroke="black"/>
<path d="M201.379,313.793h 1.89608" fill="none" stroke="black"/>
<path d="M211.398,312.588v -2.28059" fill="none" stroke="black"/>
<path d="M210.45,310.307h 1.89608" fill="none" stroke="black"/>
<path d="M211.398,312.588v 2.28059" fill="none" stroke="black"/>
<path d="M210.45,314.868h 1.89608" fill="none" stroke="black"/>
<path d="M220.469,310.211v -2.27885" fill="none" stroke="black"/>
<path d="M219.52,307.932h 1.89608" fill="none" stroke="black"/>
<path d="M220.469,310.211v 2.27885" fill="none" stroke="black"/>
<path d="M219.52,312.489h 1.89608" fill="none" stroke="black"/>
<path d="M229.539,313.474v -2.28073" fill="none" stroke="black"/>
<path d="M228.591,311.193h 1.89608" fill="none" stroke="black"/>
<path d="M229.539,313.474v 2.28073" fill="none" stroke="black"/>
<path d="M228.591,315.755h 1.89608" fill="none" stroke="black"/>
<path d="M238.61,311.211v -2.27918" fill="none" stroke="black"/>
<path d="M237.662,308.932h 1.89608" fill="none" stroke="black"/>
<path d="M238.61,311.211v 2.27918" fill="none" stroke="black"/>
<path d="M237.662,313.491h 1.89608" fill="none" stroke="black"/>
<path d="M247.681,313.016v -2.28035" fill="none" stroke="black"/>
<path d="M246.733,310.736h 1.89608" fill="none" stroke="black"/>
<path d="M247.681,313.016v 2.28035" fill="none" stroke="black"/>
<path d="M246.733,315.296h 1.89608" fill="none" stroke="black"/>
<path d="M256.752,310.721v -2.27816" fill="none" stroke="black"/>
<path d="M255.804,308.443h 1.89608" fill="none" stroke="black"/>
<path d="M256.752,310.721v 2.27816" fill="none" stroke="black"/>
<path d="M255.804,312.999h 1.89608" fill="none" stroke="black"/>
<path d="M265.823,311.178v -2.27812" fill="none" stroke="black"/>
<path d="M264.875,308.9h 1.89608" fill="none" stroke="black"/>
<path d="M265.823,311.178v 2.27812" fill="none" stroke="black"/>
<path d="M264.875,313.457h 1.89608" fill="none" stroke="black"/>
<path d="M274.894,312.385v -2.27931" fill="none" stroke="black"/>
<path d="M273.946,310.106h 1.89608" fill="none" stroke="black"/>
<path d="M274.894,312.385v 2.27931" fill="none" stroke="black"/>
<path d="M273.946,314.664h 1.89608" fill="none" stroke="black"/>
<path d="M283.965,311.27v -2.27746" fill="none" stroke="black"/>
<path d="M283.017,308.992h 1.89608" fill="none" stroke="black"/>
<path d="M283.965,311.27v 2.27746" fill="none" stroke="black"/>
<path d="M283.017,313.547h 1.89608" fill="none" stroke="black"/>
<path d="M293.035,311.819v -2.27825" fill="none" stroke="black"/>
<path d="M292.087,309.54h 1.89608" fill="none" stroke="black"/>
<path d="M293.035,311.819v 2.27825" fill="none" stroke="black"/>
<path d="M292.087,314.097h 1.89608" fill="none" stroke="black"/>
<path d="M302.106,307.494v -2.26627" fill="none" stroke="black"/>
<path d="M301.158,305.227h 1.89608" fill="none" stroke="black"/>
<path d="M302.106,307.494v 2.26627" fill="none" stroke="black"/>
<path d="M301.158,309.76h 1.89608" fill="none" stroke="black"/>
<path d="M311.177,309.784v -2.27201" fill="none" stroke="black"/>
<path d="M310.229,307.512h 1.89608" fill="none" stroke="black"/>
<path d="M311.177,309.784v 2.27201" fill="none" stroke="black"/>
<path d="M310.229,312.056h 1.89608" fill="none" stroke="black"/>
<path d="M320.248,308.367v -2.26535" fill="none" stroke="black"/>
<path d="M319.3,306.102h 1.89608" fill="none" stroke="black"/>
<path d="M320.248,308.367v 2.26535" fill="none" stroke="black"/>
<path d="M319.3,310.633h 1.89608" fill="none" stroke="black"/>
<path d="M329.319,308.822v -2.26712" fill="none" stroke="black"/>
<path d="M328.371,306.555h 1.89608" fill="none" stroke="black"/>
<path d="M329.319,308.822v 2.26712" fill="none" stroke="black"/>
<path d="M328.371,311.089h 1.89608" fill="none" stroke="black"/>
<path d="M338.39,307.043v -2.25339" fill="none" stroke="black"/>
<path d="M337.442,304.79h 1.89608" fill="none" stroke="black"/>
<path d="M338.39,307.043v 2.25339" fill="none" stroke="black"/>
<path d="M337.442,309.296h 1.89608" fill="none" stroke="black"/>
<path d="M347.461,309.235v -2.26579" fill="none" stroke="black"/>
<path d="M346.513,306.969h 1.89608" fill="none" stroke="black"/>
<path d="M347.461,309.235v 2.26579" fill="none" stroke="black"/>
<path d="M346.513,311.501h 1.89608" fill="none" stroke="black"/>
<path d="M356.531,310.941v -2.27304" fill="none" stroke="black"/>
<path d="M355.583,308.668h 1.89608" fill="none" stroke="black"/>
<path d="M356.531,310.941v 2.27304" fill="none" stroke="black"/>
<path d="M355.583,313.214h 1.89608" fill="none" stroke="black"/>
<path d="M365.602,310.457v -2.27046" fill="none" stroke="black"/>
<path d="M364.654,308.186h 1.89608" fill="none" stroke="black"/>
<path d="M365.602,310.457v 2.27046" fill="none" stroke="black"/>
<path d="M364.654,312.727h 1.89608" fill="none" stroke="black"/>
<path d="M374.673,310.052v -2.26676" fill="none" stroke="black"/>
<path d="M373.725,307.785h 1.89608" fill="none" stroke="black"/>
<path d="M374.673,310.052v 2.26676" fill="none" stroke="black"/>
<path d="M373.725,312.319h 1.89608" fill="none" stroke="black"/>
<path d="M383.744,310.052v -2.26676" fill="none" stroke="black"/>
<path d="M382.796,307.785h 1.89608" fill="none" stroke="black"/>
<path d="M383.744,310.052v 2.26676" fill="none" stroke="black"/>
<path d="M382.796,312.319h 1.89608" fill="none" stroke="black"/>
<path d="M392.815,311.52v -2.27175" fill="none" stroke="black"/>
<path d="M391.867,309.248h 1.89608" fill="none" stroke="black"/>
<path d="M392.815,311.52v 2.27175" fill="none" stroke="black"/>
<path d="M391.867,313.791h 1.89608" fill="none" stroke="black"/>
<path d="M401.886,309.289v -2.25881" fill="none" stroke="black"/>
<path d="M400.938,307.03h 1.89608" fill="none" stroke="black"/>
<path d="M401.886,309.289v 2.25881" fill="none" stroke="black"/>
<path d="M400.938,311.548h 1.89608" fill="none" stroke="black"/>
<path d="M410.957,311.744v -2.27226" fill="none" stroke="black"/>
<path d="M410.009,309.472h 1.89608" fill="none" stroke="black"/>
<path d="M410.957,311.744v 2.27226" fill="none" stroke="black"/>
<path d="M410.009,314.017h 1.89608" fill="none" stroke="black"/>
<path d="M420.028,314.947v -2.28075" fill="none" stroke="black"/>
<path d="M419.08,312.666h 1.89608" fill="none" stroke="black"/>
<path d="M420.028,314.947v 2.28075" fill="none" stroke="black"/>
<path d="M419.08,317.227h 1.89608" fill="none" stroke="black"/>
<path d="M429.098,315.283v -2.28103" fill="none" stroke="black"/>
<path d="M428.15,313.002h 1.89608" fill="none" stroke="black"/>
<path d="M429.098,315.283v 2.28103" fill="none" stroke="black"/>
<path d="M428.15,317.564h 1.89608" fill="none" stroke="black"/>
<path d="M438.169,313.316v -2.27669" fill="none" stroke="black"/>
<path d="M437.221,311.039h 1.89608" fill="none" stroke="black"/>
<path d="M438.169,313.316v 2.27669" fill="none" stroke="black"/>
<path d="M437.221,315.593h 1.89608" fill="none" stroke="black"/>
<path d="M447.24,314.532v -2.27984" fill="none" stroke="black"/>
<path d="M446.292,312.252h 1.89608" fill="none" stroke="black"/>
<path d="M447.24,314.532v 2.27984" fill="none" stroke="black"/>
<path d="M446.292,316.812h 1.89608" fill="none" stroke="black"/>
<path d="M456.311,318.62v -2.2739" fill="none" stroke="black"/>
<path d="M455.363,316.346h 1.89608" fill="none" stroke="black"/>
<path d="M456.311,318.62v 2.2739" fill="none" stroke="black"/>
<path d="M455.363,320.893h 1.89608" fill="none" stroke="black"/>
<path d="M465.382,318.578v -2.27353" fill="none" stroke="black"/>
<path d="M464.434,316.305h 1.89608" fill="none" stroke="black"/>
<path d="M465.382,318.578v 2.27353" fill="none" stroke="black"/>
<path d="M464.434,320.852h 1.89608" fill="none" stroke="black"/>
<path d="M474.453,315.351v -2.28102" fill="none" stroke="black"/>
<path d="M473.505,313.07h 1.89608" fill="none" stroke="black"/>
<path d="M474.453,315.351v 2.28102" fill="none" stroke="black"/>
<path d="M473.505,317.632h 1.89608" fill="none" stroke="black"/>
<path d="M483.524,317.423v -2.27837" fill="none" stroke="black"/>
<path d="M482.576,315.145h 1.89608" fill="none" stroke="black"/>
<path d="M483.524,317.423v 2.27837" fill="none" stroke="black"/>
<path d="M482.576,319.701h 1.89608" fill="none" stroke="black"/>
<path d="M492.594,317.1v -2.2794" fill="none" stroke="black"/>
<path d="M491.646,314.821h 1.89608" fill="none" stroke="black"/>
<path d="M492.594,317.1v 2.2794" fill="none" stroke="black"/>
<path d="M491.646,319.38h 1.89608" fill="none" stroke="black"/>
<path d="M501.665,315.291v -2.28089" fill="none" stroke="black"/>
<path d="M500.717,313.01h 1.89608" fill="none" stroke="black"/>
<path d="M501.665,315.291v 2.28089" fill="none" stroke="black"/>
<path d="M500.717,317.572h 1.89608" fill="none" stroke="black"/>
<path d="M510.736,318.091v -2.27324" fill="none" stroke="black"/>
<path d="M509.788,315.818h 0.948042" fill="none" stroke="black"/>
<path d="M510.736,318.091v 2.27324" fill="none" stroke="black"/>
<path d="M509.788,320.365h 0.948042" fill="none" stroke="black"/></svg>
