<?xml version="1.0" standalone="no"?>
<svg width="567.429" height="413.846" viewBox="0 0 567.429 413.846" xmlns="http://www.w3.org/2000/svg" shape-rendering="crispEdges">
<title>
figures/PMTnperes0PMTnpedata190929-01.svg
</title>
<desc>
Creator: ROOT Version 6.18/02
CreationDate: Tue Oct  1 14:44:58 2019</desc>
<defs>
</defs>
<rect x="0.5" y="0" width="566.929" height="413.346" fill="white"/>
<rect x="0.5" y="0" width="566.929" height="276.942" fill="white"/>
<rect x="57.1929" y="27.6942" width="453.543" height="249.245" fill="white"/>
<rect x="57.1929" y="27.6942" width="453.543" height="249.245" fill="none" stroke="black"/>
<rect x="57.1929" y="27.6942" width="453.543" height="249.245" fill="white"/>
<rect x="57.1929" y="27.6942" width="453.543" height="249.245" fill="none" stroke="black"/>
<path d="M57.1929,49.6163h 2.26772v 83.5187h 2.26772v -33.51h 2.26772v -7.52571h 2.26772v 3.99891h 2.26772v 8.05807h 2.26772v -0.620153h 2.26772v -2.0503h 2.26772v 1.03175h 2.26772v -0.401111h 2.26772v -0.722036h 2.26772v 0.574352h 2.26772v
 -0.338534h 2.26772v 0.198496h 2.26772v 0.524772h 2.26772v 0.734175h 2.26772v 0.198163h 2.26772v 0.60561h 2.26772v 1.66351h 2.26772v -0.266792h 2.26772v 1.58519h 2.26772v 0.586872h 2.26772v 1.02396h 2.26772v 0.791681h 2.26772v 2.0437h 2.26772v
 0.733585h 2.26772v 1.42067h 2.26772v 0.87096h 2.26772v 1.6363h 2.26772v 1.0876h 2.26772v 1.08854h 2.26772v 2.43539h 2.26772v 0.334664h 2.26772v 2.51781h 2.26772v 0.126656h 2.26772v 1.75707h 2.26772v 2.7228h 2.26772v 0.134328h 2.26772v 1.82663h
 2.26772v 2.23757h 2.26772v -0.588038h 2.26772v 1.75704h 2.26772v 1.84995h 2.26772v 3.36321h 2.26772v -0.503491h 2.26772v 0.612923h 2.26772v 1.59313h 2.26772v 2.23727h 2.26772v 1.53733h 2.26772v 0.714558h 2.26772v 0.341707h 2.26772v 2.50076h 2.26772v
 -0.866082h 2.26772v 2.35183h 2.26772v 0.782948h 2.26772v 0.123007h 2.26772v 1.07478h 2.26772v 0.994776h 2.26772v 2.516h 2.26772v 1.17474h 2.26772v 2.55997h 2.26772v 0.457716h 2.26772v -2.19754h 2.26772v 4.95661h 2.26772v -2.19673h 2.26772v 2.19673h
 2.26772v -0.313005h 2.26772v 1.06145h 2.26772v 0.439592h 2.26772v 5.82477h 2.26772v -2.33901h 2.26772v 2.63157h 2.26772v 1.68382h 2.26772v -1.8306h 2.26772v 0.294551h 2.26772v 0.754402h 2.26772v 2.78145h 2.26772v -0.855809h 2.26772v -0.497704h
 2.26772v -0.325557h 2.26772v 0.991738h 2.26772v 2.13114h 2.26772v 0.18744h 2.26772v 3.02573h 2.26772v -1.86567h 2.26772v 0.199533h 2.26772v 2.10351h 2.26772v -0.437371h 2.26772v 6.51867h 2.26772v -4.71353h 2.26772v 4.13618h 2.26772v -5.28191h
 4.53543v 5.56866h 2.26772v 3.43366h 2.26772v -2.5499h 2.26772v -0.593165h 2.26772v -0.860344h 2.26772v 6.13456h 2.26772v 0.376516h 2.26772v -6.51107h 2.26772v 4.00341h 2.26772v -1.94003h 2.26772v 6.02287h 2.26772v 1.26147h 2.26772v -0.849095h
 2.26772v 3.13006h 2.26772v -3.13006h 2.26772v 1.28647h 2.26772v 1.84359h 2.26772v -0.475825h 2.26772v 3.57384h 2.26772v 3.61658h 2.26772v -4.16469h 2.26772v 1.11046h 6.80315v 1.17051h 2.26772v -2.81554h 2.26772v 3.42542h 2.26772v 4.07117h 2.26772v
 3.21317h 2.26772v -3.94711h 2.26772v 4.83087h 2.26772v -4.83087h 2.26772v -0.709872h 2.26772v 3.80788h 2.26772v -5.1614h 2.26772v -1.27385h 2.26772v 3.33723h 2.26772v -5.11762h 2.26772v 5.11762h 2.26772v 3.94711h 2.26772v -3.94711h 2.26772v 7.72171h
 2.26772v -15.5155h 2.26772v 13.546h 2.26772v 7.8566h 2.26772v -18.7265h 2.26772v 11.8322h 2.26772v 1.00712h 2.26772v -3.7746h 2.26772v -3.94711h 2.26772v 5.75225h 2.26772v -0.92138h 2.26772v 10.1752h 2.26772v -10.1752h 2.26772v -0.883762h 2.26772v
 1.80514h 2.26772v 10.7474h 2.26772v -9.78509h 2.26772v 4.34435h 2.26772v -5.30669h 2.26772v 1.96946h 2.26772v 3.33723h 2.26772v -4.34435h 2.26772v -1.88372h 2.26772v 5.05756h 2.26772v -2.16672h 2.26772v 3.33723h 2.26772v -5.30669h 2.26772v 5.30669h
 2.26772v 5.44074h 2.26772v -5.44074h 2.26772v 2.5499h 2.26772v 2.89084h 2.26772v -2.89084h 2.26772v -4.83087h 4.53543v 9.32608h 2.26772v 3.61658h 2.26772v -8.1118h 2.26772v -4.83087h 2.26772v -2.06338h 2.26772v 4.34435h 2.26772v -62.3052h 2.26772v
 124.879h 54.4252" fill="none" stroke="#ff0000" stroke-width="2"/>
<rect x="283.965" y="27.6942" width="113.386" height="55.3884" fill="white"/>
<path d="M283.965,83.0826h 113.386" fill="none" stroke="black"/>
<path d="M397.35,83.0826v -55.3884" fill="none" stroke="black"/>
<path d="M397.35,27.6942h -113.386" fill="none" stroke="black"/>
<path d="M283.965,27.6942v 55.3884" fill="none" stroke="black"/>
<text xml:space="preserve" x="292.023" y="37.9217" fill="#ff0000" font-size="12.1875" font-family="Helvetica">npe_PMT-S0-data</text>
<path d="M283.965,41.5413h 113.386" fill="none" stroke="black"/>
<text xml:space="preserve" x="289.179" y="53.0904" fill="#ff0000" font-size="12.1624" font-family="Helvetica">Entries </text>
<text xml:space="preserve" x="348.905" y="52.6163" fill="#ff0000" font-size="12.1624" font-family="Helvetica"> 147626</text>
<text xml:space="preserve" x="289.179" y="66.837" fill="#ff0000" font-size="12.1624" font-family="Helvetica">Mean  </text>
<text xml:space="preserve" x="358.86" y="66.3629" fill="#ff0000" font-size="12.1624" font-family="Helvetica">   5.64</text>
<text xml:space="preserve" x="289.179" y="80.5836" fill="#ff0000" font-size="12.1624" font-family="Helvetica">Std Dev   </text>
<text xml:space="preserve" x="355.542" y="80.1096" fill="#ff0000" font-size="12.1624" font-family="Helvetica">  7.188</text>
<path d="M57.1929,276.939h 453.543" fill="none" stroke="black"/>
<path d="M57.1929,270.293v 6.64661" fill="none" stroke="black"/>
<path d="M72.311,273.616v 3.3233" fill="none" stroke="black"/>
<path d="M87.4291,273.616v 3.3233" fill="none" stroke="black"/>
<path d="M102.547,273.616v 3.3233" fill="none" stroke="black"/>
<path d="M117.665,273.616v 3.3233" fill="none" stroke="black"/>
<path d="M132.783,270.293v 6.64661" fill="none" stroke="black"/>
<path d="M147.902,273.616v 3.3233" fill="none" stroke="black"/>
<path d="M163.02,273.616v 3.3233" fill="none" stroke="black"/>
<path d="M178.138,273.616v 3.3233" fill="none" stroke="black"/>
<path d="M193.256,273.616v 3.3233" fill="none" stroke="black"/>
<path d="M208.374,270.293v 6.64661" fill="none" stroke="black"/>
<path d="M223.492,273.616v 3.3233" fill="none" stroke="black"/>
<path d="M238.61,273.616v 3.3233" fill="none" stroke="black"/>
<path d="M253.728,273.616v 3.3233" fill="none" stroke="black"/>
<path d="M268.846,273.616v 3.3233" fill="none" stroke="black"/>
<path d="M283.965,270.293v 6.64661" fill="none" stroke="black"/>
<path d="M299.083,273.616v 3.3233" fill="none" stroke="black"/>
<path d="M314.201,273.616v 3.3233" fill="none" stroke="black"/>
<path d="M329.319,273.616v 3.3233" fill="none" stroke="black"/>
<path d="M344.437,273.616v 3.3233" fill="none" stroke="black"/>
<path d="M359.555,270.293v 6.64661" fill="none" stroke="black"/>
<path d="M374.673,273.616v 3.3233" fill="none" stroke="black"/>
<path d="M389.791,273.616v 3.3233" fill="none" stroke="black"/>
<path d="M404.909,273.616v 3.3233" fill="none" stroke="black"/>
<path d="M420.028,273.616v 3.3233" fill="none" stroke="black"/>
<path d="M435.146,270.293v 6.64661" fill="none" stroke="black"/>
<path d="M450.264,273.616v 3.3233" fill="none" stroke="black"/>
<path d="M465.382,273.616v 3.3233" fill="none" stroke="black"/>
<path d="M480.5,273.616v 3.3233" fill="none" stroke="black"/>
<path d="M495.618,273.616v 3.3233" fill="none" stroke="black"/>
<path d="M510.736,270.293v 6.64661" fill="none" stroke="black"/>
<text xml:space="preserve" x="54.5384" y="285.835" fill="black" font-size="9.39263" font-family="Helvetica">0</text>
<text xml:space="preserve" x="127.538" y="285.835" fill="black" font-size="9.39263" font-family="Helvetica">10</text>
<text xml:space="preserve" x="202.907" y="285.835" fill="black" font-size="9.39263" font-family="Helvetica">20</text>
<text xml:space="preserve" x="278.75" y="285.835" fill="black" font-size="9.39263" font-family="Helvetica">30</text>
<text xml:space="preserve" x="354.12" y="285.835" fill="black" font-size="9.39263" font-family="Helvetica">40</text>
<text xml:space="preserve" x="429.489" y="285.835" fill="black" font-size="9.39263" font-family="Helvetica">50</text>
<text xml:space="preserve" x="505.332" y="285.835" fill="black" font-size="9.39263" font-family="Helvetica">60</text>
<text xml:space="preserve" x="490.638" y="293.893" fill="black" font-size="9.39263" font-family="Helvetica">n.p.e</text>
<path d="M57.1929,276.939v -249.245" fill="none" stroke="black"/>
<path d="M72.4998,276.939h -15.3069" fill="none" stroke="black"/>
<text xml:space="preserve" x="49.3242" y="280.62" fill="black" font-size="9.39263" font-family="Helvetica">1</text>
<path d="M64.8464,261.933h -7.65346" fill="none" stroke="black"/>
<path d="M64.8464,253.155h -7.65346" fill="none" stroke="black"/>
<path d="M64.8464,246.927h -7.65346" fill="none" stroke="black"/>
<path d="M64.8464,242.096h -7.65346" fill="none" stroke="black"/>
<path d="M64.8464,238.149h -7.65346" fill="none" stroke="black"/>
<path d="M64.8464,234.812h -7.65346" fill="none" stroke="black"/>
<path d="M64.8464,231.921h -7.65346" fill="none" stroke="black"/>
<path d="M64.8464,229.371h -7.65346" fill="none" stroke="black"/>
<path d="M72.4998,227.09h -15.3069" fill="none" stroke="black"/>
<text xml:space="preserve" x="42.6879" y="230.374" fill="black" font-size="9.39263" font-family="Helvetica">10</text>
<path d="M64.8464,212.084h -7.65346" fill="none" stroke="black"/>
<path d="M64.8464,203.306h -7.65346" fill="none" stroke="black"/>
<path d="M64.8464,197.078h -7.65346" fill="none" stroke="black"/>
<path d="M64.8464,192.247h -7.65346" fill="none" stroke="black"/>
<path d="M64.8464,188.3h -7.65346" fill="none" stroke="black"/>
<path d="M64.8464,184.963h -7.65346" fill="none" stroke="black"/>
<path d="M64.8464,182.072h -7.65346" fill="none" stroke="black"/>
<path d="M64.8464,179.522h -7.65346" fill="none" stroke="black"/>
<path d="M72.4998,177.241h -15.3069" fill="none" stroke="black"/>
<text xml:space="preserve" x="49.3242" y="177.284" fill="black" font-size="6.42842" font-family="Helvetica">2</text>
<text xml:space="preserve" x="39.3697" y="181.076" fill="black" font-size="9.39263" font-family="Helvetica">10</text>
<path d="M64.8464,162.235h -7.65346" fill="none" stroke="black"/>
<path d="M64.8464,153.457h -7.65346" fill="none" stroke="black"/>
<path d="M64.8464,147.229h -7.65346" fill="none" stroke="black"/>
<path d="M64.8464,142.398h -7.65346" fill="none" stroke="black"/>
<path d="M64.8464,138.451h -7.65346" fill="none" stroke="black"/>
<path d="M64.8464,135.114h -7.65346" fill="none" stroke="black"/>
<path d="M64.8464,132.223h -7.65346" fill="none" stroke="black"/>
<path d="M64.8464,129.673h -7.65346" fill="none" stroke="black"/>
<path d="M72.4998,127.392h -15.3069" fill="none" stroke="black"/>
<text xml:space="preserve" x="49.3242" y="127.038" fill="black" font-size="6.42842" font-family="Helvetica">3</text>
<text xml:space="preserve" x="39.3697" y="131.304" fill="black" font-size="9.39263" font-family="Helvetica">10</text>
<path d="M64.8464,112.386h -7.65346" fill="none" stroke="black"/>
<path d="M64.8464,103.608h -7.65346" fill="none" stroke="black"/>
<path d="M64.8464,97.3801h -7.65346" fill="none" stroke="black"/>
<path d="M64.8464,92.5493h -7.65346" fill="none" stroke="black"/>
<path d="M64.8464,88.6021h -7.65346" fill="none" stroke="black"/>
<path d="M64.8464,85.2649h -7.65346" fill="none" stroke="black"/>
<path d="M64.8464,82.3741h -7.65346" fill="none" stroke="black"/>
<path d="M64.8464,79.8242h -7.65346" fill="none" stroke="black"/>
<path d="M72.4998,77.5432h -15.3069" fill="none" stroke="black"/>
<text xml:space="preserve" x="49.3242" y="77.7394" fill="black" font-size="6.42842" font-family="Helvetica">4</text>
<text xml:space="preserve" x="39.3697" y="81.5316" fill="black" font-size="9.39263" font-family="Helvetica">10</text>
<path d="M64.8464,62.5372h -7.65346" fill="none" stroke="black"/>
<path d="M64.8464,53.7592h -7.65346" fill="none" stroke="black"/>
<path d="M64.8464,47.5311h -7.65346" fill="none" stroke="black"/>
<path d="M64.8464,42.7002h -7.65346" fill="none" stroke="black"/>
<path d="M64.8464,38.7531h -7.65346" fill="none" stroke="black"/>
<path d="M64.8464,35.4159h -7.65346" fill="none" stroke="black"/>
<path d="M64.8464,32.5251h -7.65346" fill="none" stroke="black"/>
<path d="M64.8464,29.9752h -7.65346" fill="none" stroke="black"/>
<path d="M72.4998,27.6942h -15.3069" fill="none" stroke="black"/>
<text xml:space="preserve" x="49.3242" y="27.4932" fill="black" font-size="6.42842" font-family="Helvetica">5</text>
<text xml:space="preserve" x="39.3697" y="31.7594" fill="black" font-size="9.39263" font-family="Helvetica">10</text>
<rect x="283.965" y="27.6942" width="113.386" height="55.3884" fill="white"/>
<path d="M283.965,83.0826h 113.386" fill="none" stroke="black"/>
<path d="M397.35,83.0826v -55.3884" fill="none" stroke="black"/>
<path d="M397.35,27.6942h -113.386" fill="none" stroke="black"/>
<path d="M283.965,27.6942v 55.3884" fill="none" stroke="black"/>
<text xml:space="preserve" x="292.023" y="37.9217" fill="#ff0000" font-size="12.1875" font-family="Helvetica">npe_PMT-S0-data</text>
<path d="M283.965,41.5413h 113.386" fill="none" stroke="black"/>
<text xml:space="preserve" x="289.179" y="53.0904" fill="#ff0000" font-size="12.1624" font-family="Helvetica">Entries </text>
<text xml:space="preserve" x="348.905" y="52.6163" fill="#ff0000" font-size="12.1624" font-family="Helvetica"> 147626</text>
<text xml:space="preserve" x="289.179" y="66.837" fill="#ff0000" font-size="12.1624" font-family="Helvetica">Mean  </text>
<text xml:space="preserve" x="358.86" y="66.3629" fill="#ff0000" font-size="12.1624" font-family="Helvetica">   5.64</text>
<text xml:space="preserve" x="289.179" y="80.5836" fill="#ff0000" font-size="12.1624" font-family="Helvetica">Std Dev   </text>
<text xml:space="preserve" x="355.542" y="80.1096" fill="#ff0000" font-size="12.1624" font-family="Helvetica">  7.188</text>
<path d="M57.1929,54.6152h 2.26772v 74.986h 2.26772v -24.6073h 2.26772v -11.9674h 2.26772v 1.65995h 2.26772v 5.52283h 2.26772v -1.04158h 2.26772v -3.42355h 2.26772v 0.812993h 2.26772v 0.725856h 2.26772v 0.829276h 2.26772v 0.140415h 2.26772v 0.249365h
 2.26772v 0.842712h 2.26772v 0.852177h 2.26772v 0.739892h 2.26772v 0.444663h 2.26772v 1.90445h 2.26772v 0.156982h 2.26772v 2.59919h 2.26772v -0.800591h 2.26772v 2.19295h 2.26772v 2.30586h 2.26772v 1.39465h 2.26772v 0.685026h 2.26772v 1.7109h 2.26772v
 1.69675h 2.26772v 0.086572h 2.26772v 1.95707h 2.26772v 0.985168h 2.26772v 1.59018h 2.26772v 0.588497h 2.26772v 2.10896h 2.26772v 2.47217h 4.53543v 1.79924h 2.26772v 0.0633325h 2.26772v 0.731024h 2.26772v 1.75291h 2.26772v 1.70126h 2.26772v 1.84644h
 2.26772v 0.366227h 2.26772v 1.28763h 2.26772v 2.32121h 2.26772v 0.543806h 2.26772v 0.913899h 2.26772v 1.7568h 2.26772v 1.65836h 2.26772v 0.945153h 2.26772v 0.759697h 2.26772v 0.136876h 2.26772v 2.8843h 2.26772v 0.157449h 2.26772v -1.27836h 2.26772v
 2.46936h 2.26772v 1.43806h 2.26772v 1.79738h 2.26772v -0.320734h 2.26772v 0.976819h 2.26772v 1.30415h 2.26772v 1.61526h 2.26772v -0.0760955h 2.26772v 2.66415h 2.26772v 1.79021h 2.26772v -1.18033h 2.26772v -0.695615h 2.26772v 3.82764h 2.26772v
 -0.304209h 2.26772v 0.820919h 2.26772v -0.208167h 2.26772v 0.418354h 2.26772v 2.81554h 2.26772v 4.09192h 2.26772v -2.2082h 2.26772v -2.24157h 2.26772v 6.58592h 2.26772v -4.47516h 2.26772v 2.48479h 2.26772v -2.48479h 2.26772v 4.15679h 2.26772v
 0.969527h 2.26772v -0.328024h 2.26772v 3.72041h 2.26772v -3.22649h 2.26772v 2.09672h 2.26772v -1.42013h 2.26772v -1.00712h 2.26772v 1.00712h 2.26772v 3.33723h 2.26772v 0.201389h 2.26772v 0.615657h 2.26772v -1.41021h 2.26772v 4.54027h 2.26772v
 -0.709872h 2.26772v -0.911678h 2.26772v 1.14573h 2.26772v -0.92138h 2.26772v -0.66618h 2.26772v 6.89425h 4.53543v 1.23743h 2.26772v -5.58178h 2.26772v 5.58178h 2.26772v -6.77817h 2.26772v 0.709872h 2.26772v 3.09801h 2.26772v 0.279348h 2.26772v
 1.1549h 2.26772v -0.294551h 2.26772v 1.20304h 2.26772v 2.97939h 2.26772v 0.357845h 2.26772v 1.88372h 2.26772v -0.773266h 2.26772v -2.50766h 2.26772v 1.03936h 2.26772v 0.357845h 2.26772v -0.357845h 2.26772v 3.04348h 2.26772v 0.832762h 2.26772v
 -6.22807h 2.26772v 9.92197h 2.26772v -3.6939h 2.26772v -1.63467h 2.26772v -0.390085h 2.26772v 5.71866h 2.26772v -4.93133h 2.26772v 4.43363h 2.26772v 0.497704h 2.26772v -2.38143h 2.26772v 2.38143h 2.26772v -4.52666h 2.26772v 3.54244h 2.26772v
 3.09801h 2.26772v 0.562347h 2.26772v -1.64503h 2.26772v -3.85892h 2.26772v 0.902178h 2.26772v 5.77228h 2.26772v -4.34435h 2.26772v 11.3895h 2.26772v -12.8174h 2.26772v 6.38216h 4.53543v -1.78039h 2.26772v 8.21563h 2.26772v -7.04512h 2.26772v
 -0.593165h 2.26772v 6.82124h 2.26772v -6.82124h 2.26772v 0.593165h 2.26772v 2.5499h 2.26772v 1.3972h 2.26772v -3.33723h 2.26772v 9.08948h 2.26772v -5.01831h 4.53543v 4.09693h 2.26772v 3.94711h 2.26772v -4.83087h 2.26772v 2.76748h 2.26772v 4.34435h
 2.26772v 2.5499h 2.26772v -7.8566h 2.26772v 1.96946h 2.26772v -5.44074h 2.26772v 12.7251h 2.26772v -6.22807h 2.26772v 2.28097h 2.26772v 10.6617h 2.26772v -9.42427h 2.26772v -7.4655h 2.26772v 13.2732h 2.26772v 1.73286h 2.26772v 1.88372h 2.26772v
 -70.6859h 2.26772v 122.598h 54.4252" fill="none" stroke="#006633" stroke-width="2"/>
<rect x="397.35" y="27.6942" width="113.386" height="55.3884" fill="white"/>
<path d="M397.35,83.0826h 113.386" fill="none" stroke="black"/>
<path d="M510.736,83.0826v -55.3884" fill="none" stroke="black"/>
<path d="M510.736,27.6942h -113.386" fill="none" stroke="black"/>
<path d="M397.35,27.6942v 55.3884" fill="none" stroke="black"/>
<text xml:space="preserve" x="407.684" y="37.9217" fill="#006633" font-size="12.1875" font-family="Helvetica">npe_PMT-S0-MC</text>
<path d="M397.35,41.5413h 113.386" fill="none" stroke="black"/>
<text xml:space="preserve" x="402.944" y="53.0904" fill="#006633" font-size="12.1624" font-family="Helvetica">Entries </text>
<text xml:space="preserve" x="462.196" y="52.6163" fill="#006633" font-size="12.1624" font-family="Helvetica"> 147626</text>
<text xml:space="preserve" x="402.944" y="66.837" fill="#006633" font-size="12.1624" font-family="Helvetica">Mean  </text>
<text xml:space="preserve" x="470.729" y="66.3629" fill="#006633" font-size="12.1624" font-family="Helvetica">  6.131</text>
<text xml:space="preserve" x="402.944" y="80.5836" fill="#006633" font-size="12.1624" font-family="Helvetica">Std Dev   </text>
<text xml:space="preserve" x="472.151" y="80.1096" fill="#006633" font-size="12.1624" font-family="Helvetica">   7.66</text>
<rect x="397.35" y="27.6942" width="113.386" height="55.3884" fill="white"/>
<path d="M397.35,83.0826h 113.386" fill="none" stroke="black"/>
<path d="M510.736,83.0826v -55.3884" fill="none" stroke="black"/>
<path d="M510.736,27.6942h -113.386" fill="none" stroke="black"/>
<path d="M397.35,27.6942v 55.3884" fill="none" stroke="black"/>
<text xml:space="preserve" x="407.684" y="37.9217" fill="#006633" font-size="12.1875" font-family="Helvetica">npe_PMT-S0-MC</text>
<path d="M397.35,41.5413h 113.386" fill="none" stroke="black"/>
<text xml:space="preserve" x="402.944" y="53.0904" fill="#006633" font-size="12.1624" font-family="Helvetica">Entries </text>
<text xml:space="preserve" x="462.196" y="52.6163" fill="#006633" font-size="12.1624" font-family="Helvetica"> 147626</text>
<text xml:space="preserve" x="402.944" y="66.837" fill="#006633" font-size="12.1624" font-family="Helvetica">Mean  </text>
<text xml:space="preserve" x="470.729" y="66.3629" fill="#006633" font-size="12.1624" font-family="Helvetica">  6.131</text>
<text xml:space="preserve" x="402.944" y="80.5836" fill="#006633" font-size="12.1624" font-family="Helvetica">Std Dev   </text>
<text xml:space="preserve" x="472.151" y="80.1096" fill="#006633" font-size="12.1624" font-family="Helvetica">   7.66</text>
<rect x="397.35" y="83.0826" width="113.386" height="27.6942" fill="white"/>
<path d="M397.35,110.777h 113.386" fill="none" stroke="black"/>
<path d="M510.736,110.777v -27.6942" fill="none" stroke="black"/>
<path d="M510.736,83.0826h -113.386" fill="none" stroke="black"/>
<path d="M397.35,83.0826v 27.6942" fill="none" stroke="black"/>
<text xml:space="preserve" x="425.697" y="92.9081" fill="black" font-size="11.372" font-family="Helvetica">Data</text>
<path d="M401.602,90.0062h 19.8425" fill="none" stroke="#ff0000" stroke-width="2"/>
<text xml:space="preserve" x="425.697" y="106.655" fill="black" font-size="11.372" font-family="Helvetica">MC by rat</text>
<path d="M401.602,103.853h 19.8425" fill="none" stroke="#006633" stroke-width="2"/>
<rect x="0.5" y="276.942" width="566.929" height="136.404" fill="white"/>
<rect x="57.1929" y="276.943" width="453.543" height="95.4816" fill="white"/>
<rect x="57.1929" y="276.943" width="453.543" height="95.4816" fill="none" stroke="black"/>
<rect x="57.1929" y="276.943" width="453.543" height="95.4816" fill="white"/>
<rect x="57.1929" y="276.943" width="453.543" height="95.4816" fill="none" stroke="black"/>
<path d="M57.1929,372.425h 453.543" fill="none" stroke="black"/>
<path d="M57.1929,369.151v 3.2737" fill="none" stroke="black"/>
<path d="M72.311,370.788v 1.63685" fill="none" stroke="black"/>
<path d="M87.4291,370.788v 1.63685" fill="none" stroke="black"/>
<path d="M102.547,370.788v 1.63685" fill="none" stroke="black"/>
<path d="M117.665,370.788v 1.63685" fill="none" stroke="black"/>
<path d="M132.783,369.151v 3.2737" fill="none" stroke="black"/>
<path d="M147.902,370.788v 1.63685" fill="none" stroke="black"/>
<path d="M163.02,370.788v 1.63685" fill="none" stroke="black"/>
<path d="M178.138,370.788v 1.63685" fill="none" stroke="black"/>
<path d="M193.256,370.788v 1.63685" fill="none" stroke="black"/>
<path d="M208.374,369.151v 3.2737" fill="none" stroke="black"/>
<path d="M223.492,370.788v 1.63685" fill="none" stroke="black"/>
<path d="M238.61,370.788v 1.63685" fill="none" stroke="black"/>
<path d="M253.728,370.788v 1.63685" fill="none" stroke="black"/>
<path d="M268.846,370.788v 1.63685" fill="none" stroke="black"/>
<path d="M283.965,369.151v 3.2737" fill="none" stroke="black"/>
<path d="M299.083,370.788v 1.63685" fill="none" stroke="black"/>
<path d="M314.201,370.788v 1.63685" fill="none" stroke="black"/>
<path d="M329.319,370.788v 1.63685" fill="none" stroke="black"/>
<path d="M344.437,370.788v 1.63685" fill="none" stroke="black"/>
<path d="M359.555,369.151v 3.2737" fill="none" stroke="black"/>
<path d="M374.673,370.788v 1.63685" fill="none" stroke="black"/>
<path d="M389.791,370.788v 1.63685" fill="none" stroke="black"/>
<path d="M404.909,370.788v 1.63685" fill="none" stroke="black"/>
<path d="M420.028,370.788v 1.63685" fill="none" stroke="black"/>
<path d="M435.146,369.151v 3.2737" fill="none" stroke="black"/>
<path d="M450.264,370.788v 1.63685" fill="none" stroke="black"/>
<path d="M465.382,370.788v 1.63685" fill="none" stroke="black"/>
<path d="M480.5,370.788v 1.63685" fill="none" stroke="black"/>
<path d="M495.618,370.788v 1.63685" fill="none" stroke="black"/>
<path d="M510.736,369.151v 3.2737" fill="none" stroke="black"/>
<text xml:space="preserve" x="54.5384" y="380.639" fill="black" font-size="9.25991" font-family="Helvetica">0</text>
<text xml:space="preserve" x="127.538" y="380.639" fill="black" font-size="9.25991" font-family="Helvetica">10</text>
<text xml:space="preserve" x="202.907" y="380.639" fill="black" font-size="9.25991" font-family="Helvetica">20</text>
<text xml:space="preserve" x="278.75" y="380.639" fill="black" font-size="9.25991" font-family="Helvetica">30</text>
<text xml:space="preserve" x="354.12" y="380.639" fill="black" font-size="9.25991" font-family="Helvetica">40</text>
<text xml:space="preserve" x="429.489" y="380.639" fill="black" font-size="9.25991" font-family="Helvetica">50</text>
<text xml:space="preserve" x="505.332" y="380.639" fill="black" font-size="9.25991" font-family="Helvetica">60</text>
<text xml:space="preserve" x="443.71" y="393.437" fill="black" font-size="11.137" font-family="Helvetica">number of p.e</text>
<path d="M57.1929,372.425v -95.4816" fill="none" stroke="black"/>
<path d="M69.0983,363.102h -11.9053" fill="none" stroke="black"/>
<path d="M63.1456,359.474h -5.95267" fill="none" stroke="black"/>
<path d="M63.1456,355.846h -5.95267" fill="none" stroke="black"/>
<path d="M63.1456,352.217h -5.95267" fill="none" stroke="black"/>
<path d="M63.1456,348.589h -5.95267" fill="none" stroke="black"/>
<path d="M69.0983,344.961h -11.9053" fill="none" stroke="black"/>
<path d="M63.1456,341.332h -5.95267" fill="none" stroke="black"/>
<path d="M63.1456,337.704h -5.95267" fill="none" stroke="black"/>
<path d="M63.1456,334.076h -5.95267" fill="none" stroke="black"/>
<path d="M63.1456,330.448h -5.95267" fill="none" stroke="black"/>
<path d="M69.0983,326.819h -11.9053" fill="none" stroke="black"/>
<path d="M63.1456,323.191h -5.95267" fill="none" stroke="black"/>
<path d="M63.1456,319.563h -5.95267" fill="none" stroke="black"/>
<path d="M63.1456,315.935h -5.95267" fill="none" stroke="black"/>
<path d="M63.1456,312.306h -5.95267" fill="none" stroke="black"/>
<path d="M69.0983,308.678h -11.9053" fill="none" stroke="black"/>
<path d="M63.1456,305.05h -5.95267" fill="none" stroke="black"/>
<path d="M63.1456,301.422h -5.95267" fill="none" stroke="black"/>
<path d="M63.1456,297.793h -5.95267" fill="none" stroke="black"/>
<path d="M63.1456,294.165h -5.95267" fill="none" stroke="black"/>
<path d="M69.0983,290.537h -11.9053" fill="none" stroke="black"/>
<path d="M69.0983,363.102h -11.9053" fill="none" stroke="black"/>
<path d="M63.1456,366.73h -5.95267" fill="none" stroke="black"/>
<path d="M63.1456,370.359h -5.95267" fill="none" stroke="black"/>
<path d="M69.0983,290.537h -11.9053" fill="none" stroke="black"/>
<path d="M63.1456,286.908h -5.95267" fill="none" stroke="black"/>
<path d="M63.1456,283.28h -5.95267" fill="none" stroke="black"/>
<path d="M63.1456,279.652h -5.95267" fill="none" stroke="black"/>
<text xml:space="preserve" x="44.1099" y="366.418" fill="black" font-size="9.25991" font-family="Helvetica">30</text>
<text xml:space="preserve" x="38.8957" y="366.418" fill="black" font-size="9.25991" font-family="Times">&#8722;</text>
<text xml:space="preserve" x="44.1099" y="347.931" fill="black" font-size="9.25991" font-family="Helvetica">20</text>
<text xml:space="preserve" x="38.8957" y="347.931" fill="black" font-size="9.25991" font-family="Times">&#8722;</text>
<text xml:space="preserve" x="44.1099" y="329.919" fill="black" font-size="9.25991" font-family="Helvetica">10</text>
<text xml:space="preserve" x="38.8957" y="329.919" fill="black" font-size="9.25991" font-family="Times">&#8722;</text>
<text xml:space="preserve" x="49.3242" y="311.906" fill="black" font-size="9.25991" font-family="Helvetica">0</text>
<text xml:space="preserve" x="44.1099" y="293.419" fill="black" font-size="9.25991" font-family="Helvetica">10</text>
<g transform="rotate(-90,35.5776,283.465)">
<text xml:space="preserve" x="35.5776" y="283.465" fill="black" font-size="11.137" font-family="Times">&#0963;</text>
</g>
<g transform="rotate(-90,35.5776,343.665)">
<text xml:space="preserve" x="35.5776" y="343.665" fill="black" font-size="11.137" font-family="Helvetica">(MC-DATA)/</text>
</g>
<g stroke="black" stroke-width="1" fill="none">
<line x1="56.1929" y1="308.678" x2="57.1929" y2="308.678"/>
<line x1="58.4606" y1="361.907" x2="59.4606" y2="361.907"/>
<line x1="60.7284" y1="302.641" x2="61.7284" y2="302.641"/>
<line x1="62.9961" y1="326.61" x2="63.9961" y2="326.61"/>
<line x1="65.2638" y1="312.561" x2="66.2638" y2="312.561"/>
<line x1="67.5315" y1="303.139" x2="68.5315" y2="303.139"/>
<line x1="69.7992" y1="295.448" x2="70.7992" y2="295.448"/>
<line x1="72.0669" y1="293.754" x2="73.0669" y2="293.754"/>
<line x1="74.3346" y1="287.796" x2="75.3346" y2="287.796"/>
<line x1="76.6024" y1="287.46" x2="77.6024" y2="287.46"/>
<line x1="78.8701" y1="291.527" x2="79.8701" y2="291.527"/>
<line x1="81.1378" y1="297.039" x2="82.1378" y2="297.039"/>
<line x1="83.4055" y1="295.611" x2="84.4055" y2="295.611"/>
<line x1="85.6732" y1="297.665" x2="86.6732" y2="297.665"/>
<line x1="87.9409" y1="300.036" x2="88.9409" y2="300.036"/>
<line x1="90.2087" y1="301.293" x2="91.2087" y2="301.293"/>
<line x1="92.4764" y1="301.437" x2="93.4764" y2="301.437"/>
<line x1="94.7441" y1="302.314" x2="95.7441" y2="302.314"/>
<line x1="97.0118" y1="306.712" x2="98.0118" y2="306.712"/>
<line x1="99.2795" y1="301.964" x2="100.28" y2="301.964"/>
<line x1="101.547" y1="311.011" x2="102.547" y2="311.011"/>
<line x1="103.815" y1="303.674" x2="104.815" y2="303.674"/>
<line x1="106.083" y1="308.601" x2="107.083" y2="308.601"/>
<line x1="108.35" y1="312.268" x2="109.35" y2="312.268"/>
<line x1="110.618" y1="313.858" x2="111.618" y2="313.858"/>
<line x1="112.886" y1="310.029" x2="113.886" y2="310.029"/>
<line x1="115.154" y1="312.557" x2="116.154" y2="312.557"/>
<line x1="117.421" y1="313.118" x2="118.421" y2="313.118"/>
<line x1="119.689" y1="311.106" x2="120.689" y2="311.106"/>
<line x1="121.957" y1="311.778" x2="122.957" y2="311.778"/>
<line x1="124.224" y1="311.464" x2="125.224" y2="311.464"/>
<line x1="126.492" y1="312.52" x2="127.492" y2="312.52"/>
<line x1="128.76" y1="308.332" x2="129.76" y2="308.332"/>
<line x1="131.028" y1="312.13" x2="132.028" y2="312.13"/>
<line x1="133.295" y1="311.845" x2="134.295" y2="311.845"/>
<line x1="135.563" y1="311.585" x2="136.563" y2="311.585"/>
<line x1="137.831" y1="311.55" x2="138.831" y2="311.55"/>
<line x1="140.098" y1="306.484" x2="141.098" y2="306.484"/>
<line x1="142.366" y1="307.611" x2="143.366" y2="307.611"/>
<line x1="144.634" y1="307.523" x2="145.634" y2="307.523"/>
<line x1="146.902" y1="306.664" x2="147.902" y2="306.664"/>
<line x1="149.169" y1="310.767" x2="150.169" y2="310.767"/>
<line x1="151.437" y1="308.445" x2="152.437" y2="308.445"/>
<line x1="153.705" y1="307.568" x2="154.705" y2="307.568"/>
<line x1="155.972" y1="306.102" x2="156.972" y2="306.102"/>
<line x1="158.24" y1="307.647" x2="159.24" y2="307.647"/>
<line x1="160.508" y1="308.101" x2="161.508" y2="308.101"/>
<line x1="162.776" y1="308.351" x2="163.776" y2="308.351"/>
<line x1="165.043" y1="307.594" x2="166.043" y2="307.594"/>
<line x1="167.311" y1="306.858" x2="168.311" y2="306.858"/>
<line x1="169.579" y1="306.946" x2="170.579" y2="306.946"/>
<line x1="171.846" y1="306.697" x2="172.846" y2="306.697"/>
<line x1="174.114" y1="307.272" x2="175.114" y2="307.272"/>
<line x1="176.382" y1="308.488" x2="177.382" y2="308.488"/>
<line x1="178.65" y1="304.194" x2="179.65" y2="304.194"/>
<line x1="180.917" y1="306.28" x2="181.917" y2="306.28"/>
<line x1="183.185" y1="307.796" x2="184.185" y2="307.796"/>
<line x1="185.453" y1="308.608" x2="186.453" y2="308.608"/>
<line x1="187.72" y1="307.194" x2="188.72" y2="307.194"/>
<line x1="189.988" y1="305.664" x2="190.988" y2="305.664"/>
<line x1="192.256" y1="305.879" x2="193.256" y2="305.879"/>
<line x1="194.524" y1="305.108" x2="195.524" y2="305.108"/>
<line x1="196.791" y1="304.617" x2="197.791" y2="304.617"/>
<line x1="199.059" y1="309.24" x2="200.059" y2="309.24"/>
<line x1="201.327" y1="306.424" x2="202.327" y2="306.424"/>
<line x1="203.594" y1="307.26" x2="204.594" y2="307.26"/>
<line x1="205.862" y1="304.698" x2="206.862" y2="304.698"/>
<line x1="208.13" y1="308.413" x2="209.13" y2="308.413"/>
<line x1="210.398" y1="307.251" x2="211.398" y2="307.251"/>
<line x1="212.665" y1="307.592" x2="213.665" y2="307.592"/>
<line x1="214.933" y1="302.925" x2="215.933" y2="302.925"/>
<line x1="217.201" y1="305.005" x2="218.201" y2="305.005"/>
<line x1="219.469" y1="305.367" x2="220.469" y2="305.367"/>
<line x1="221.736" y1="307.281" x2="222.736" y2="307.281"/>
<line x1="224.004" y1="306.935" x2="225.004" y2="306.935"/>
<line x1="226.272" y1="304.977" x2="227.272" y2="304.977"/>
<line x1="228.539" y1="309.333" x2="229.539" y2="309.333"/>
<line x1="230.807" y1="304.204" x2="231.807" y2="304.204"/>
<line x1="233.075" y1="306.607" x2="234.075" y2="306.607"/>
<line x1="235.343" y1="305.105" x2="236.343" y2="305.105"/>
<line x1="237.61" y1="308.347" x2="238.61" y2="308.347"/>
<line x1="239.878" y1="308.34" x2="240.878" y2="308.34"/>
<line x1="242.146" y1="306.724" x2="243.146" y2="306.724"/>
<line x1="244.413" y1="309.039" x2="245.413" y2="309.039"/>
<line x1="246.681" y1="305.089" x2="247.681" y2="305.089"/>
<line x1="248.949" y1="307.594" x2="249.949" y2="307.594"/>
<line x1="251.217" y1="306.543" x2="252.217" y2="306.543"/>
<line x1="253.484" y1="304.611" x2="254.484" y2="304.611"/>
<line x1="255.752" y1="305.54" x2="256.752" y2="305.54"/>
<line x1="258.02" y1="304.106" x2="259.02" y2="304.106"/>
<line x1="260.287" y1="306.749" x2="261.287" y2="306.749"/>
<line x1="262.555" y1="304.892" x2="263.555" y2="304.892"/>
<line x1="264.823" y1="306.917" x2="265.823" y2="306.917"/>
<line x1="267.091" y1="309.607" x2="268.091" y2="309.607"/>
<line x1="269.358" y1="306.159" x2="270.358" y2="306.159"/>
<line x1="271.626" y1="303.96" x2="272.626" y2="303.96"/>
<line x1="273.894" y1="305.845" x2="274.894" y2="305.845"/>
<line x1="276.161" y1="305.617" x2="277.161" y2="305.617"/>
<line x1="278.429" y1="305.67" x2="279.429" y2="305.67"/>
<line x1="280.697" y1="306.451" x2="281.697" y2="306.451"/>
<line x1="282.965" y1="306.282" x2="283.965" y2="306.282"/>
<line x1="285.232" y1="310.034" x2="286.232" y2="310.034"/>
<line x1="287.5" y1="305.147" x2="288.5" y2="305.147"/>
<line x1="289.768" y1="308.987" x2="290.768" y2="308.987"/>
<line x1="292.035" y1="302.672" x2="293.035" y2="302.672"/>
<line x1="294.303" y1="302.545" x2="295.303" y2="302.545"/>
<line x1="296.571" y1="304.541" x2="297.571" y2="304.541"/>
<line x1="298.839" y1="303.422" x2="299.839" y2="303.422"/>
<line x1="301.106" y1="305.271" x2="302.106" y2="305.271"/>
<line x1="303.374" y1="304.589" x2="304.374" y2="304.589"/>
<line x1="305.642" y1="304.449" x2="306.642" y2="304.449"/>
<line x1="307.909" y1="306.047" x2="308.909" y2="306.047"/>
<line x1="310.177" y1="304.849" x2="311.177" y2="304.849"/>
<line x1="312.445" y1="304.424" x2="313.445" y2="304.424"/>
<line x1="314.713" y1="305.547" x2="315.713" y2="305.547"/>
<line x1="316.98" y1="304.008" x2="317.98" y2="304.008"/>
<line x1="319.248" y1="304.485" x2="320.248" y2="304.485"/>
<line x1="321.516" y1="304.646" x2="322.516" y2="304.646"/>
<line x1="323.783" y1="304.073" x2="324.783" y2="304.073"/>
<line x1="326.051" y1="306.433" x2="327.051" y2="306.433"/>
<line x1="328.319" y1="305.548" x2="329.319" y2="305.548"/>
<line x1="330.587" y1="301.494" x2="331.587" y2="301.494"/>
<line x1="332.854" y1="304.718" x2="333.854" y2="304.718"/>
<line x1="335.122" y1="304.445" x2="336.122" y2="304.445"/>
<line x1="337.39" y1="302.351" x2="338.39" y2="302.351"/>
<line x1="339.657" y1="303.592" x2="340.657" y2="303.592"/>
<line x1="341.925" y1="306.147" x2="342.925" y2="306.147"/>
<line x1="344.193" y1="302.999" x2="345.193" y2="302.999"/>
<line x1="346.461" y1="306.404" x2="347.461" y2="306.404"/>
<line x1="348.728" y1="307.035" x2="349.728" y2="307.035"/>
<line x1="350.996" y1="304.981" x2="351.996" y2="304.981"/>
<line x1="353.264" y1="307.67" x2="354.264" y2="307.67"/>
<line x1="355.531" y1="304.098" x2="356.531" y2="304.098"/>
<line x1="357.799" y1="304.341" x2="358.799" y2="304.341"/>
<line x1="360.067" y1="306.712" x2="361.067" y2="306.712"/>
<line x1="362.335" y1="304.663" x2="363.335" y2="304.663"/>
<line x1="364.602" y1="309.074" x2="365.602" y2="309.074"/>
<line x1="366.87" y1="303.119" x2="367.87" y2="303.119"/>
<line x1="369.138" y1="301.593" x2="370.138" y2="301.593"/>
<line x1="371.406" y1="309.1" x2="372.406" y2="309.1"/>
<line x1="373.673" y1="303.765" x2="374.673" y2="303.765"/>
<line x1="375.941" y1="307.355" x2="376.941" y2="307.355"/>
<line x1="378.209" y1="303.974" x2="379.209" y2="303.974"/>
<line x1="380.476" y1="307.553" x2="381.476" y2="307.553"/>
<line x1="382.744" y1="305.82" x2="383.744" y2="305.82"/>
<line x1="385.012" y1="305.453" x2="386.012" y2="305.453"/>
<line x1="387.28" y1="305.562" x2="388.28" y2="305.562"/>
<line x1="389.547" y1="305.868" x2="390.547" y2="305.868"/>
<line x1="391.815" y1="305.913" x2="392.815" y2="305.913"/>
<line x1="394.083" y1="307.652" x2="395.083" y2="307.652"/>
<line x1="396.35" y1="302.835" x2="397.35" y2="302.835"/>
<line x1="398.618" y1="305.343" x2="399.618" y2="305.343"/>
<line x1="400.886" y1="305.086" x2="401.886" y2="305.086"/>
<line x1="403.154" y1="306.934" x2="404.154" y2="306.934"/>
<line x1="405.421" y1="305.284" x2="406.421" y2="305.284"/>
<line x1="407.689" y1="307.261" x2="408.689" y2="307.261"/>
<line x1="409.957" y1="306.9" x2="410.957" y2="306.9"/>
<line x1="412.224" y1="307.432" x2="413.224" y2="307.432"/>
<line x1="414.492" y1="307.295" x2="415.492" y2="307.295"/>
<line x1="416.76" y1="308.961" x2="417.76" y2="308.961"/>
<line x1="419.028" y1="306.741" x2="420.028" y2="306.741"/>
<line x1="421.295" y1="308.948" x2="422.295" y2="308.948"/>
<line x1="423.563" y1="308.678" x2="424.563" y2="308.678"/>
<line x1="425.831" y1="308.016" x2="426.831" y2="308.016"/>
<line x1="428.098" y1="307.261" x2="429.098" y2="307.261"/>
<line x1="430.366" y1="307.187" x2="431.366" y2="307.187"/>
<line x1="432.634" y1="304.995" x2="433.634" y2="304.995"/>
<line x1="434.902" y1="309.004" x2="435.902" y2="309.004"/>
<line x1="437.169" y1="308.678" x2="438.169" y2="308.678"/>
<line x1="439.437" y1="309.267" x2="440.437" y2="309.267"/>
<line x1="441.705" y1="309.419" x2="442.705" y2="309.419"/>
<line x1="443.972" y1="306.621" x2="444.972" y2="306.621"/>
<line x1="446.24" y1="306.383" x2="447.24" y2="306.383"/>
<line x1="448.508" y1="310.889" x2="449.508" y2="310.889"/>
<line x1="450.776" y1="311.789" x2="451.776" y2="311.789"/>
<line x1="453.043" y1="311.036" x2="454.043" y2="311.036"/>
<line x1="455.311" y1="311.032" x2="456.311" y2="311.032"/>
</g>
<path d="M59.4606,361.907v -2.56132" fill="none" stroke="black"/>
<path d="M58.5126,359.346h 1.89608" fill="none" stroke="black"/>
<path d="M59.4606,361.907v 2.56132" fill="none" stroke="black"/>
<path d="M58.5126,364.468h 1.89608" fill="none" stroke="black"/>
<path d="M61.7284,302.641v -2.56344" fill="none" stroke="black"/>
<path d="M60.7803,300.077h 1.89608" fill="none" stroke="black"/>
<path d="M61.7284,302.641v 2.56344" fill="none" stroke="black"/>
<path d="M60.7803,305.204h 1.89608" fill="none" stroke="black"/>
<path d="M63.9961,326.61v -2.56067" fill="none" stroke="black"/>
<path d="M63.048,324.049h 1.89608" fill="none" stroke="black"/>
<path d="M63.9961,326.61v 2.56067" fill="none" stroke="black"/>
<path d="M63.048,329.171h 1.89608" fill="none" stroke="black"/>
<path d="M66.2638,312.561v -2.56543" fill="none" stroke="black"/>
<path d="M65.3157,309.996h 1.89608" fill="none" stroke="black"/>
<path d="M66.2638,312.561v 2.56543" fill="none" stroke="black"/>
<path d="M65.3157,315.126h 1.89608" fill="none" stroke="black"/>
<path d="M68.5315,303.139v -2.56523" fill="none" stroke="black"/>
<path d="M67.5835,300.574h 1.89608" fill="none" stroke="black"/>
<path d="M68.5315,303.139v 2.56523" fill="none" stroke="black"/>
<path d="M67.5835,305.704h 1.89608" fill="none" stroke="black"/>
<path d="M70.7992,295.448v -2.56292" fill="none" stroke="black"/>
<path d="M69.8512,292.885h 1.89608" fill="none" stroke="black"/>
<path d="M70.7992,295.448v 2.56292" fill="none" stroke="black"/>
<path d="M69.8512,298.011h 1.89608" fill="none" stroke="black"/>
<path d="M73.0669,293.754v -2.56232" fill="none" stroke="black"/>
<path d="M72.1189,291.192h 1.89608" fill="none" stroke="black"/>
<path d="M73.0669,293.754v 2.56232" fill="none" stroke="black"/>
<path d="M72.1189,296.317h 1.89608" fill="none" stroke="black"/>
<path d="M75.3346,287.796v -2.55997" fill="none" stroke="black"/>
<path d="M74.3866,285.236h 1.89608" fill="none" stroke="black"/>
<path d="M75.3346,287.796v 2.55997" fill="none" stroke="black"/>
<path d="M74.3866,290.356h 1.89608" fill="none" stroke="black"/>
<path d="M77.6024,287.46v -2.55954" fill="none" stroke="black"/>
<path d="M76.6543,284.9h 1.89608" fill="none" stroke="black"/>
<path d="M77.6024,287.46v 2.55954" fill="none" stroke="black"/>
<path d="M76.6543,290.019h 1.89608" fill="none" stroke="black"/>
<path d="M79.8701,291.527v -2.56159" fill="none" stroke="black"/>
<path d="M78.922,288.965h 1.89608" fill="none" stroke="black"/>
<path d="M79.8701,291.527v 2.56159" fill="none" stroke="black"/>
<path d="M78.922,294.088h 1.89608" fill="none" stroke="black"/>
<path d="M82.1378,297.039v -2.56373" fill="none" stroke="black"/>
<path d="M81.1898,294.476h 1.89608" fill="none" stroke="black"/>
<path d="M82.1378,297.039v 2.56373" fill="none" stroke="black"/>
<path d="M81.1898,299.603h 1.89608" fill="none" stroke="black"/>
<path d="M84.4055,295.611v -2.56322" fill="none" stroke="black"/>
<path d="M83.4575,293.047h 1.89608" fill="none" stroke="black"/>
<path d="M84.4055,295.611v 2.56322" fill="none" stroke="black"/>
<path d="M83.4575,298.174h 1.89608" fill="none" stroke="black"/>
<path d="M86.6732,297.665v -2.5639" fill="none" stroke="black"/>
<path d="M85.7252,295.101h 1.89608" fill="none" stroke="black"/>
<path d="M86.6732,297.665v 2.5639" fill="none" stroke="black"/>
<path d="M85.7252,300.229h 1.89608" fill="none" stroke="black"/>
<path d="M88.9409,300.036v -2.56452" fill="none" stroke="black"/>
<path d="M87.9929,297.471h 1.89608" fill="none" stroke="black"/>
<path d="M88.9409,300.036v 2.56452" fill="none" stroke="black"/>
<path d="M87.9929,302.6h 1.89608" fill="none" stroke="black"/>
<path d="M91.2087,301.293v -2.56478" fill="none" stroke="black"/>
<path d="M90.2606,298.728h 1.89608" fill="none" stroke="black"/>
<path d="M91.2087,301.293v 2.56478" fill="none" stroke="black"/>
<path d="M90.2606,303.858h 1.89608" fill="none" stroke="black"/>
<path d="M93.4764,301.437v -2.56478" fill="none" stroke="black"/>
<path d="M92.5283,298.872h 1.89608" fill="none" stroke="black"/>
<path d="M93.4764,301.437v 2.56478" fill="none" stroke="black"/>
<path d="M92.5283,304.001h 1.89608" fill="none" stroke="black"/>
<path d="M95.7441,302.314v -2.56495" fill="none" stroke="black"/>
<path d="M94.7961,299.749h 1.89608" fill="none" stroke="black"/>
<path d="M95.7441,302.314v 2.56495" fill="none" stroke="black"/>
<path d="M94.7961,304.879h 1.89608" fill="none" stroke="black"/>
<path d="M98.0118,306.712v -2.56551" fill="none" stroke="black"/>
<path d="M97.0638,304.146h 1.89608" fill="none" stroke="black"/>
<path d="M98.0118,306.712v 2.56551" fill="none" stroke="black"/>
<path d="M97.0638,309.277h 1.89608" fill="none" stroke="black"/>
<path d="M100.28,301.964v -2.56481" fill="none" stroke="black"/>
<path d="M99.3315,299.399h 1.89608" fill="none" stroke="black"/>
<path d="M100.28,301.964v 2.56481" fill="none" stroke="black"/>
<path d="M99.3315,304.529h 1.89608" fill="none" stroke="black"/>
<path d="M102.547,311.011v -2.56548" fill="none" stroke="black"/>
<path d="M101.599,308.446h 1.89608" fill="none" stroke="black"/>
<path d="M102.547,311.011v 2.56548" fill="none" stroke="black"/>
<path d="M101.599,313.577h 1.89608" fill="none" stroke="black"/>
<path d="M104.815,303.674v -2.56512" fill="none" stroke="black"/>
<path d="M103.867,301.108h 1.89608" fill="none" stroke="black"/>
<path d="M104.815,303.674v 2.56512" fill="none" stroke="black"/>
<path d="M103.867,306.239h 1.89608" fill="none" stroke="black"/>
<path d="M107.083,308.601v -2.56557" fill="none" stroke="black"/>
<path d="M106.135,306.036h 1.89608" fill="none" stroke="black"/>
<path d="M107.083,308.601v 2.56557" fill="none" stroke="black"/>
<path d="M106.135,311.167h 1.89608" fill="none" stroke="black"/>
<path d="M109.35,312.268v -2.5653" fill="none" stroke="black"/>
<path d="M108.402,309.702h 1.89608" fill="none" stroke="black"/>
<path d="M109.35,312.268v 2.5653" fill="none" stroke="black"/>
<path d="M108.402,314.833h 1.89608" fill="none" stroke="black"/>
<path d="M111.618,313.858v -2.56498" fill="none" stroke="black"/>
<path d="M110.67,311.293h 1.89608" fill="none" stroke="black"/>
<path d="M111.618,313.858v 2.56498" fill="none" stroke="black"/>
<path d="M110.67,316.423h 1.89608" fill="none" stroke="black"/>
<path d="M113.886,310.029v -2.56553" fill="none" stroke="black"/>
<path d="M112.938,307.464h 1.89608" fill="none" stroke="black"/>
<path d="M113.886,310.029v 2.56553" fill="none" stroke="black"/>
<path d="M112.938,312.595h 1.89608" fill="none" stroke="black"/>
<path d="M116.154,312.557v -2.5652" fill="none" stroke="black"/>
<path d="M115.206,309.992h 1.89608" fill="none" stroke="black"/>
<path d="M116.154,312.557v 2.5652" fill="none" stroke="black"/>
<path d="M115.206,315.122h 1.89608" fill="none" stroke="black"/>
<path d="M118.421,313.118v -2.56505" fill="none" stroke="black"/>
<path d="M117.473,310.553h 1.89608" fill="none" stroke="black"/>
<path d="M118.421,313.118v 2.56505" fill="none" stroke="black"/>
<path d="M117.473,315.684h 1.89608" fill="none" stroke="black"/>
<path d="M120.689,311.106v -2.56541" fill="none" stroke="black"/>
<path d="M119.741,308.54h 1.89608" fill="none" stroke="black"/>
<path d="M120.689,311.106v 2.56541" fill="none" stroke="black"/>
<path d="M119.741,313.671h 1.89608" fill="none" stroke="black"/>
<path d="M122.957,311.778v -2.56529" fill="none" stroke="black"/>
<path d="M122.009,309.212h 1.89608" fill="none" stroke="black"/>
<path d="M122.957,311.778v 2.56529" fill="none" stroke="black"/>
<path d="M122.009,314.343h 1.89608" fill="none" stroke="black"/>
<path d="M125.224,311.464v -2.56533" fill="none" stroke="black"/>
<path d="M124.276,308.899h 1.89608" fill="none" stroke="black"/>
<path d="M125.224,311.464v 2.56533" fill="none" stroke="black"/>
<path d="M124.276,314.029h 1.89608" fill="none" stroke="black"/>
<path d="M127.492,312.52v -2.56508" fill="none" stroke="black"/>
<path d="M126.544,309.955h 1.89608" fill="none" stroke="black"/>
<path d="M127.492,312.52v 2.56508" fill="none" stroke="black"/>
<path d="M126.544,315.085h 1.89608" fill="none" stroke="black"/>
<path d="M129.76,308.332v -2.56557" fill="none" stroke="black"/>
<path d="M128.812,305.766h 1.89608" fill="none" stroke="black"/>
<path d="M129.76,308.332v 2.56557" fill="none" stroke="black"/>
<path d="M128.812,310.898h 1.89608" fill="none" stroke="black"/>
<path d="M132.028,312.13v -2.56513" fill="none" stroke="black"/>
<path d="M131.08,309.565h 1.89608" fill="none" stroke="black"/>
<path d="M132.028,312.13v 2.56513" fill="none" stroke="black"/>
<path d="M131.08,314.695h 1.89608" fill="none" stroke="black"/>
<path d="M134.295,311.845v -2.56515" fill="none" stroke="black"/>
<path d="M133.347,309.279h 1.89608" fill="none" stroke="black"/>
<path d="M134.295,311.845v 2.56515" fill="none" stroke="black"/>
<path d="M133.347,314.41h 1.89608" fill="none" stroke="black"/>
<path d="M136.563,311.585v -2.56522" fill="none" stroke="black"/>
<path d="M135.615,309.02h 1.89608" fill="none" stroke="black"/>
<path d="M136.563,311.585v 2.56522" fill="none" stroke="black"/>
<path d="M135.615,314.15h 1.89608" fill="none" stroke="black"/>
<path d="M138.831,311.55v -2.56519" fill="none" stroke="black"/>
<path d="M137.883,308.984h 1.89608" fill="none" stroke="black"/>
<path d="M138.831,311.55v 2.56519" fill="none" stroke="black"/>
<path d="M137.883,314.115h 1.89608" fill="none" stroke="black"/>
<path d="M141.098,306.484v -2.56534" fill="none" stroke="black"/>
<path d="M140.15,303.919h 1.89608" fill="none" stroke="black"/>
<path d="M141.098,306.484v 2.56534" fill="none" stroke="black"/>
<path d="M140.15,309.05h 1.89608" fill="none" stroke="black"/>
<path d="M143.366,307.611v -2.56552" fill="none" stroke="black"/>
<path d="M142.418,305.045h 1.89608" fill="none" stroke="black"/>
<path d="M143.366,307.611v 2.56552" fill="none" stroke="black"/>
<path d="M142.418,310.177h 1.89608" fill="none" stroke="black"/>
<path d="M145.634,307.523v -2.5655" fill="none" stroke="black"/>
<path d="M144.686,304.958h 1.89608" fill="none" stroke="black"/>
<path d="M145.634,307.523v 2.5655" fill="none" stroke="black"/>
<path d="M144.686,310.089h 1.89608" fill="none" stroke="black"/>
<path d="M147.902,306.664v -2.56533" fill="none" stroke="black"/>
<path d="M146.954,304.099h 1.89608" fill="none" stroke="black"/>
<path d="M147.902,306.664v 2.56533" fill="none" stroke="black"/>
<path d="M146.954,309.229h 1.89608" fill="none" stroke="black"/>
<path d="M150.169,310.767v -2.56531" fill="none" stroke="black"/>
<path d="M149.221,308.202h 1.89608" fill="none" stroke="black"/>
<path d="M150.169,310.767v 2.56531" fill="none" stroke="black"/>
<path d="M149.221,313.332h 1.89608" fill="none" stroke="black"/>
<path d="M152.437,308.445v -2.56557" fill="none" stroke="black"/>
<path d="M151.489,305.88h 1.89608" fill="none" stroke="black"/>
<path d="M152.437,308.445v 2.56557" fill="none" stroke="black"/>
<path d="M151.489,311.011h 1.89608" fill="none" stroke="black"/>
<path d="M154.705,307.568v -2.56549" fill="none" stroke="black"/>
<path d="M153.757,305.003h 1.89608" fill="none" stroke="black"/>
<path d="M154.705,307.568v 2.56549" fill="none" stroke="black"/>
<path d="M153.757,310.134h 1.89608" fill="none" stroke="black"/>
<path d="M156.972,306.102v -2.56505" fill="none" stroke="black"/>
<path d="M156.024,303.537h 1.89608" fill="none" stroke="black"/>
<path d="M156.972,306.102v 2.56505" fill="none" stroke="black"/>
<path d="M156.024,308.667h 1.89608" fill="none" stroke="black"/>
<path d="M159.24,307.647v -2.56549" fill="none" stroke="black"/>
<path d="M158.292,305.081h 1.89608" fill="none" stroke="black"/>
<path d="M159.24,307.647v 2.56549" fill="none" stroke="black"/>
<path d="M158.292,310.212h 1.89608" fill="none" stroke="black"/>
<path d="M161.508,308.101v -2.56555" fill="none" stroke="black"/>
<path d="M160.56,305.535h 1.89608" fill="none" stroke="black"/>
<path d="M161.508,308.101v 2.56555" fill="none" stroke="black"/>
<path d="M160.56,310.666h 1.89608" fill="none" stroke="black"/>
<path d="M163.776,308.351v -2.56556" fill="none" stroke="black"/>
<path d="M162.828,305.785h 1.89608" fill="none" stroke="black"/>
<path d="M163.776,308.351v 2.56556" fill="none" stroke="black"/>
<path d="M162.828,310.916h 1.89608" fill="none" stroke="black"/>
<path d="M166.043,307.594v -2.56546" fill="none" stroke="black"/>
<path d="M165.095,305.029h 1.89608" fill="none" stroke="black"/>
<path d="M166.043,307.594v 2.56546" fill="none" stroke="black"/>
<path d="M165.095,310.159h 1.89608" fill="none" stroke="black"/>
<path d="M168.311,306.858v -2.56523" fill="none" stroke="black"/>
<path d="M167.363,304.293h 1.89608" fill="none" stroke="black"/>
<path d="M168.311,306.858v 2.56523" fill="none" stroke="black"/>
<path d="M167.363,309.423h 1.89608" fill="none" stroke="black"/>
<path d="M170.579,306.946v -2.56526" fill="none" stroke="black"/>
<path d="M169.631,304.381h 1.89608" fill="none" stroke="black"/>
<path d="M170.579,306.946v 2.56526" fill="none" stroke="black"/>
<path d="M169.631,309.512h 1.89608" fill="none" stroke="black"/>
<path d="M172.846,306.697v -2.56515" fill="none" stroke="black"/>
<path d="M171.898,304.132h 1.89608" fill="none" stroke="black"/>
<path d="M172.846,306.697v 2.56515" fill="none" stroke="black"/>
<path d="M171.898,309.262h 1.89608" fill="none" stroke="black"/>
<path d="M175.114,307.272v -2.56533" fill="none" stroke="black"/>
<path d="M174.166,304.707h 1.89608" fill="none" stroke="black"/>
<path d="M175.114,307.272v 2.56533" fill="none" stroke="black"/>
<path d="M174.166,309.838h 1.89608" fill="none" stroke="black"/>
<path d="M177.382,308.488v -2.56557" fill="none" stroke="black"/>
<path d="M176.434,305.922h 1.89608" fill="none" stroke="black"/>
<path d="M177.382,308.488v 2.56557" fill="none" stroke="black"/>
<path d="M176.434,311.053h 1.89608" fill="none" stroke="black"/>
<path d="M179.65,304.194v -2.56312" fill="none" stroke="black"/>
<path d="M178.702,301.631h 1.89608" fill="none" stroke="black"/>
<path d="M179.65,304.194v 2.56312" fill="none" stroke="black"/>
<path d="M178.702,306.757h 1.89608" fill="none" stroke="black"/>
<path d="M181.917,306.28v -2.56482" fill="none" stroke="black"/>
<path d="M180.969,303.716h 1.89608" fill="none" stroke="black"/>
<path d="M181.917,306.28v 2.56482" fill="none" stroke="black"/>
<path d="M180.969,308.845h 1.89608" fill="none" stroke="black"/>
<path d="M184.185,307.796v -2.56547" fill="none" stroke="black"/>
<path d="M183.237,305.231h 1.89608" fill="none" stroke="black"/>
<path d="M184.185,307.796v 2.56547" fill="none" stroke="black"/>
<path d="M183.237,310.362h 1.89608" fill="none" stroke="black"/>
<path d="M186.453,308.608v -2.56557" fill="none" stroke="black"/>
<path d="M185.505,306.042h 1.89608" fill="none" stroke="black"/>
<path d="M186.453,308.608v 2.56557" fill="none" stroke="black"/>
<path d="M185.505,311.173h 1.89608" fill="none" stroke="black"/>
<path d="M188.72,307.194v -2.56525" fill="none" stroke="black"/>
<path d="M187.772,304.629h 1.89608" fill="none" stroke="black"/>
<path d="M188.72,307.194v 2.56525" fill="none" stroke="black"/>
<path d="M187.772,309.759h 1.89608" fill="none" stroke="black"/>
<path d="M190.988,305.664v -2.56412" fill="none" stroke="black"/>
<path d="M190.04,303.1h 1.89608" fill="none" stroke="black"/>
<path d="M190.988,305.664v 2.56412" fill="none" stroke="black"/>
<path d="M190.04,308.228h 1.89608" fill="none" stroke="black"/>
<path d="M193.256,305.879v -2.56424" fill="none" stroke="black"/>
<path d="M192.308,303.315h 1.89608" fill="none" stroke="black"/>
<path d="M193.256,305.879v 2.56424" fill="none" stroke="black"/>
<path d="M192.308,308.443h 1.89608" fill="none" stroke="black"/>
<path d="M195.524,305.108v -2.56319" fill="none" stroke="black"/>
<path d="M194.576,302.545h 1.89608" fill="none" stroke="black"/>
<path d="M195.524,305.108v 2.56319" fill="none" stroke="black"/>
<path d="M194.576,307.672h 1.89608" fill="none" stroke="black"/>
<path d="M197.791,304.617v -2.56247" fill="none" stroke="black"/>
<path d="M196.843,302.054h 1.89608" fill="none" stroke="black"/>
<path d="M197.791,304.617v 2.56247" fill="none" stroke="black"/>
<path d="M196.843,307.179h 1.89608" fill="none" stroke="black"/>
<path d="M200.059,309.24v -2.56551" fill="none" stroke="black"/>
<path d="M199.111,306.674h 1.89608" fill="none" stroke="black"/>
<path d="M200.059,309.24v 2.56551" fill="none" stroke="black"/>
<path d="M199.111,311.805h 1.89608" fill="none" stroke="black"/>
<path d="M202.327,306.424v -2.56444" fill="none" stroke="black"/>
<path d="M201.379,303.86h 1.89608" fill="none" stroke="black"/>
<path d="M202.327,306.424v 2.56444" fill="none" stroke="black"/>
<path d="M201.379,308.989h 1.89608" fill="none" stroke="black"/>
<path d="M204.594,307.26v -2.56516" fill="none" stroke="black"/>
<path d="M203.646,304.695h 1.89608" fill="none" stroke="black"/>
<path d="M204.594,307.26v 2.56516" fill="none" stroke="black"/>
<path d="M203.646,309.825h 1.89608" fill="none" stroke="black"/>
<path d="M206.862,304.698v -2.5622" fill="none" stroke="black"/>
<path d="M205.914,302.136h 1.89608" fill="none" stroke="black"/>
<path d="M206.862,304.698v 2.5622" fill="none" stroke="black"/>
<path d="M205.914,307.26h 1.89608" fill="none" stroke="black"/>
<path d="M209.13,308.413v -2.56556" fill="none" stroke="black"/>
<path d="M208.182,305.847h 1.89608" fill="none" stroke="black"/>
<path d="M209.13,308.413v 2.56556" fill="none" stroke="black"/>
<path d="M208.182,310.978h 1.89608" fill="none" stroke="black"/>
<path d="M211.398,307.251v -2.56509" fill="none" stroke="black"/>
<path d="M210.45,304.686h 1.89608" fill="none" stroke="black"/>
<path d="M211.398,307.251v 2.56509" fill="none" stroke="black"/>
<path d="M210.45,309.817h 1.89608" fill="none" stroke="black"/>
<path d="M213.665,307.592v -2.56529" fill="none" stroke="black"/>
<path d="M212.717,305.027h 1.89608" fill="none" stroke="black"/>
<path d="M213.665,307.592v 2.56529" fill="none" stroke="black"/>
<path d="M212.717,310.158h 1.89608" fill="none" stroke="black"/>
<path d="M215.933,302.925v -2.55648" fill="none" stroke="black"/>
<path d="M214.985,300.369h 1.89608" fill="none" stroke="black"/>
<path d="M215.933,302.925v 2.55648" fill="none" stroke="black"/>
<path d="M214.985,305.482h 1.89608" fill="none" stroke="black"/>
<path d="M218.201,305.005v -2.56202" fill="none" stroke="black"/>
<path d="M217.253,302.443h 1.89608" fill="none" stroke="black"/>
<path d="M218.201,305.005v 2.56202" fill="none" stroke="black"/>
<path d="M217.253,307.567h 1.89608" fill="none" stroke="black"/>
<path d="M220.469,305.367v -2.5623" fill="none" stroke="black"/>
<path d="M219.52,302.805h 1.89608" fill="none" stroke="black"/>
<path d="M220.469,305.367v 2.5623" fill="none" stroke="black"/>
<path d="M219.52,307.93h 1.89608" fill="none" stroke="black"/>
<path d="M222.736,307.281v -2.5649" fill="none" stroke="black"/>
<path d="M221.788,304.716h 1.89608" fill="none" stroke="black"/>
<path d="M222.736,307.281v 2.5649" fill="none" stroke="black"/>
<path d="M221.788,309.846h 1.89608" fill="none" stroke="black"/>
<path d="M225.004,306.935v -2.56463" fill="none" stroke="black"/>
<path d="M224.056,304.37h 1.89608" fill="none" stroke="black"/>
<path d="M225.004,306.935v 2.56463" fill="none" stroke="black"/>
<path d="M224.056,309.499h 1.89608" fill="none" stroke="black"/>
<path d="M227.272,304.977v -2.5615" fill="none" stroke="black"/>
<path d="M226.324,302.416h 1.89608" fill="none" stroke="black"/>
<path d="M227.272,304.977v 2.5615" fill="none" stroke="black"/>
<path d="M226.324,307.539h 1.89608" fill="none" stroke="black"/>
<path d="M229.539,309.333v -2.56542" fill="none" stroke="black"/>
<path d="M228.591,306.768h 1.89608" fill="none" stroke="black"/>
<path d="M229.539,309.333v 2.56542" fill="none" stroke="black"/>
<path d="M228.591,311.899h 1.89608" fill="none" stroke="black"/>
<path d="M231.807,304.204v -2.5588" fill="none" stroke="black"/>
<path d="M230.859,301.645h 1.89608" fill="none" stroke="black"/>
<path d="M231.807,304.204v 2.5588" fill="none" stroke="black"/>
<path d="M230.859,306.763h 1.89608" fill="none" stroke="black"/>
<path d="M234.075,306.607v -2.56406" fill="none" stroke="black"/>
<path d="M233.127,304.043h 1.89608" fill="none" stroke="black"/>
<path d="M234.075,306.607v 2.56406" fill="none" stroke="black"/>
<path d="M233.127,309.171h 1.89608" fill="none" stroke="black"/>
<path d="M236.343,305.105v -2.56138" fill="none" stroke="black"/>
<path d="M235.394,302.544h 1.89608" fill="none" stroke="black"/>
<path d="M236.343,305.105v 2.56138" fill="none" stroke="black"/>
<path d="M235.394,307.666h 1.89608" fill="none" stroke="black"/>
<path d="M238.61,308.347v -2.56553" fill="none" stroke="black"/>
<path d="M237.662,305.782h 1.89608" fill="none" stroke="black"/>
<path d="M238.61,308.347v 2.56553" fill="none" stroke="black"/>
<path d="M237.662,310.913h 1.89608" fill="none" stroke="black"/>
<path d="M240.878,308.34v -2.56553" fill="none" stroke="black"/>
<path d="M239.93,305.774h 1.89608" fill="none" stroke="black"/>
<path d="M240.878,308.34v 2.56553" fill="none" stroke="black"/>
<path d="M239.93,310.905h 1.89608" fill="none" stroke="black"/>
<path d="M243.146,306.724v -2.56408" fill="none" stroke="black"/>
<path d="M242.198,304.16h 1.89608" fill="none" stroke="black"/>
<path d="M243.146,306.724v 2.56408" fill="none" stroke="black"/>
<path d="M242.198,309.288h 1.89608" fill="none" stroke="black"/>
<path d="M245.413,309.039v -2.56552" fill="none" stroke="black"/>
<path d="M244.465,306.474h 1.89608" fill="none" stroke="black"/>
<path d="M245.413,309.039v 2.56552" fill="none" stroke="black"/>
<path d="M244.465,311.605h 1.89608" fill="none" stroke="black"/>
<path d="M247.681,305.089v -2.56009" fill="none" stroke="black"/>
<path d="M246.733,302.529h 1.89608" fill="none" stroke="black"/>
<path d="M247.681,305.089v 2.56009" fill="none" stroke="black"/>
<path d="M246.733,307.65h 1.89608" fill="none" stroke="black"/>
<path d="M249.949,307.594v -2.56507" fill="none" stroke="black"/>
<path d="M249.001,305.029h 1.89608" fill="none" stroke="black"/>
<path d="M249.949,307.594v 2.56507" fill="none" stroke="black"/>
<path d="M249.001,310.159h 1.89608" fill="none" stroke="black"/>
<path d="M252.217,306.543v -2.56367" fill="none" stroke="black"/>
<path d="M251.268,303.98h 1.89608" fill="none" stroke="black"/>
<path d="M252.217,306.543v 2.56367" fill="none" stroke="black"/>
<path d="M251.268,309.107h 1.89608" fill="none" stroke="black"/>
<path d="M254.484,304.611v -2.55852" fill="none" stroke="black"/>
<path d="M253.536,302.052h 1.89608" fill="none" stroke="black"/>
<path d="M254.484,304.611v 2.55852" fill="none" stroke="black"/>
<path d="M253.536,307.169h 1.89608" fill="none" stroke="black"/>
<path d="M256.752,305.54v -2.56131" fill="none" stroke="black"/>
<path d="M255.804,302.979h 1.89608" fill="none" stroke="black"/>
<path d="M256.752,305.54v 2.56131" fill="none" stroke="black"/>
<path d="M255.804,308.102h 1.89608" fill="none" stroke="black"/>
<path d="M259.02,304.106v -2.55426" fill="none" stroke="black"/>
<path d="M258.072,301.552h 1.89608" fill="none" stroke="black"/>
<path d="M259.02,304.106v 2.55426" fill="none" stroke="black"/>
<path d="M258.072,306.66h 1.89608" fill="none" stroke="black"/>
<path d="M261.287,306.749v -2.56375" fill="none" stroke="black"/>
<path d="M260.339,304.185h 1.89608" fill="none" stroke="black"/>
<path d="M261.287,306.749v 2.56375" fill="none" stroke="black"/>
<path d="M260.339,309.313h 1.89608" fill="none" stroke="black"/>
<path d="M263.555,304.892v -2.55775" fill="none" stroke="black"/>
<path d="M262.607,302.334h 1.89608" fill="none" stroke="black"/>
<path d="M263.555,304.892v 2.55775" fill="none" stroke="black"/>
<path d="M262.607,307.45h 1.89608" fill="none" stroke="black"/>
<path d="M265.823,306.917v -2.56412" fill="none" stroke="black"/>
<path d="M264.875,304.353h 1.89608" fill="none" stroke="black"/>
<path d="M265.823,306.917v 2.56412" fill="none" stroke="black"/>
<path d="M264.875,309.481h 1.89608" fill="none" stroke="black"/>
<path d="M268.091,309.607v -2.56512" fill="none" stroke="black"/>
<path d="M267.143,307.042h 1.89608" fill="none" stroke="black"/>
<path d="M268.091,309.607v 2.56512" fill="none" stroke="black"/>
<path d="M267.143,312.172h 1.89608" fill="none" stroke="black"/>
<path d="M270.358,306.159v -2.56188" fill="none" stroke="black"/>
<path d="M269.41,303.597h 1.89608" fill="none" stroke="black"/>
<path d="M270.358,306.159v 2.56188" fill="none" stroke="black"/>
<path d="M269.41,308.721h 1.89608" fill="none" stroke="black"/>
<path d="M272.626,303.96v -2.55192" fill="none" stroke="black"/>
<path d="M271.678,301.408h 1.89608" fill="none" stroke="black"/>
<path d="M272.626,303.96v 2.55192" fill="none" stroke="black"/>
<path d="M271.678,306.512h 1.89608" fill="none" stroke="black"/>
<path d="M274.894,305.845v -2.56078" fill="none" stroke="black"/>
<path d="M273.946,303.284h 1.89608" fill="none" stroke="black"/>
<path d="M274.894,305.845v 2.56078" fill="none" stroke="black"/>
<path d="M273.946,308.406h 1.89608" fill="none" stroke="black"/>
<path d="M277.161,305.617v -2.56017" fill="none" stroke="black"/>
<path d="M276.213,303.057h 1.89608" fill="none" stroke="black"/>
<path d="M277.161,305.617v 2.56017" fill="none" stroke="black"/>
<path d="M276.213,308.177h 1.89608" fill="none" stroke="black"/>
<path d="M279.429,305.67v -2.56054" fill="none" stroke="black"/>
<path d="M278.481,303.109h 1.89608" fill="none" stroke="black"/>
<path d="M279.429,305.67v 2.56054" fill="none" stroke="black"/>
<path d="M278.481,308.23h 1.89608" fill="none" stroke="black"/>
<path d="M281.697,306.451v -2.56184" fill="none" stroke="black"/>
<path d="M280.749,303.889h 1.89608" fill="none" stroke="black"/>
<path d="M281.697,306.451v 2.56184" fill="none" stroke="black"/>
<path d="M280.749,309.012h 1.89608" fill="none" stroke="black"/>
<path d="M283.965,306.282v -2.56122" fill="none" stroke="black"/>
<path d="M283.017,303.721h 1.89608" fill="none" stroke="black"/>
<path d="M283.965,306.282v 2.56122" fill="none" stroke="black"/>
<path d="M283.017,308.843h 1.89608" fill="none" stroke="black"/>
<path d="M286.232,310.034v -2.56434" fill="none" stroke="black"/>
<path d="M285.284,307.47h 1.89608" fill="none" stroke="black"/>
<path d="M286.232,310.034v 2.56434" fill="none" stroke="black"/>
<path d="M285.284,312.598h 1.89608" fill="none" stroke="black"/>
<path d="M288.5,305.147v -2.55751" fill="none" stroke="black"/>
<path d="M287.552,302.589h 1.89608" fill="none" stroke="black"/>
<path d="M288.5,305.147v 2.55751" fill="none" stroke="black"/>
<path d="M287.552,307.704h 1.89608" fill="none" stroke="black"/>
<path d="M290.768,308.987v -2.56551" fill="none" stroke="black"/>
<path d="M289.82,306.421h 1.89608" fill="none" stroke="black"/>
<path d="M290.768,308.987v 2.56551" fill="none" stroke="black"/>
<path d="M289.82,311.552h 1.89608" fill="none" stroke="black"/>
<path d="M293.035,302.672v -2.54091" fill="none" stroke="black"/>
<path d="M292.087,300.132h 1.89608" fill="none" stroke="black"/>
<path d="M293.035,302.672v 2.54091" fill="none" stroke="black"/>
<path d="M292.087,305.213h 1.89608" fill="none" stroke="black"/>
<path d="M295.303,302.545v -2.5387" fill="none" stroke="black"/>
<path d="M294.355,300.006h 1.89608" fill="none" stroke="black"/>
<path d="M295.303,302.545v 2.5387" fill="none" stroke="black"/>
<path d="M294.355,305.084h 1.89608" fill="none" stroke="black"/>
<path d="M297.571,304.541v -2.55258" fill="none" stroke="black"/>
<path d="M296.623,301.989h 1.89608" fill="none" stroke="black"/>
<path d="M297.571,304.541v 2.55258" fill="none" stroke="black"/>
<path d="M296.623,307.094h 1.89608" fill="none" stroke="black"/>
<path d="M299.839,303.422v -2.54302" fill="none" stroke="black"/>
<path d="M298.891,300.879h 1.89608" fill="none" stroke="black"/>
<path d="M299.839,303.422v 2.54302" fill="none" stroke="black"/>
<path d="M298.891,305.965h 1.89608" fill="none" stroke="black"/>
<path d="M302.106,305.271v -2.55644" fill="none" stroke="black"/>
<path d="M301.158,302.714h 1.89608" fill="none" stroke="black"/>
<path d="M302.106,305.271v 2.55644" fill="none" stroke="black"/>
<path d="M301.158,307.827h 1.89608" fill="none" stroke="black"/>
<path d="M304.374,304.589v -2.55215" fill="none" stroke="black"/>
<path d="M303.426,302.037h 1.89608" fill="none" stroke="black"/>
<path d="M304.374,304.589v 2.55215" fill="none" stroke="black"/>
<path d="M303.426,307.141h 1.89608" fill="none" stroke="black"/>
<path d="M306.642,304.449v -2.55019" fill="none" stroke="black"/>
<path d="M305.694,301.899h 1.89608" fill="none" stroke="black"/>
<path d="M306.642,304.449v 2.55019" fill="none" stroke="black"/>
<path d="M305.694,306.999h 1.89608" fill="none" stroke="black"/>
<path d="M308.909,306.047v -2.55923" fill="none" stroke="black"/>
<path d="M307.961,303.488h 1.89608" fill="none" stroke="black"/>
<path d="M308.909,306.047v 2.55923" fill="none" stroke="black"/>
<path d="M307.961,308.607h 1.89608" fill="none" stroke="black"/>
<path d="M311.177,304.849v -2.55094" fill="none" stroke="black"/>
<path d="M310.229,302.298h 1.89608" fill="none" stroke="black"/>
<path d="M311.177,304.849v 2.55094" fill="none" stroke="black"/>
<path d="M310.229,307.4h 1.89608" fill="none" stroke="black"/>
<path d="M313.445,304.424v -2.54512" fill="none" stroke="black"/>
<path d="M312.497,301.878h 1.89608" fill="none" stroke="black"/>
<path d="M313.445,304.424v 2.54512" fill="none" stroke="black"/>
<path d="M312.497,306.969h 1.89608" fill="none" stroke="black"/>
<path d="M315.713,305.547v -2.55563" fill="none" stroke="black"/>
<path d="M314.765,302.991h 1.89608" fill="none" stroke="black"/>
<path d="M315.713,305.547v 2.55563" fill="none" stroke="black"/>
<path d="M314.765,308.102h 1.89608" fill="none" stroke="black"/>
<path d="M317.98,304.008v -2.5443" fill="none" stroke="black"/>
<path d="M317.032,301.463h 1.89608" fill="none" stroke="black"/>
<path d="M317.98,304.008v 2.5443" fill="none" stroke="black"/>
<path d="M317.032,306.552h 1.89608" fill="none" stroke="black"/>
<path d="M320.248,304.485v -2.54796" fill="none" stroke="black"/>
<path d="M319.3,301.937h 1.89608" fill="none" stroke="black"/>
<path d="M320.248,304.485v 2.54796" fill="none" stroke="black"/>
<path d="M319.3,307.032h 1.89608" fill="none" stroke="black"/>
<path d="M322.516,304.646v -2.54915" fill="none" stroke="black"/>
<path d="M321.568,302.097h 1.89608" fill="none" stroke="black"/>
<path d="M322.516,304.646v 2.54915" fill="none" stroke="black"/>
<path d="M321.568,307.196h 1.89608" fill="none" stroke="black"/>
<path d="M324.783,304.073v -2.54381" fill="none" stroke="black"/>
<path d="M323.835,301.529h 1.89608" fill="none" stroke="black"/>
<path d="M324.783,304.073v 2.54381" fill="none" stroke="black"/>
<path d="M323.835,306.617h 1.89608" fill="none" stroke="black"/>
<path d="M327.051,306.433v -2.56032" fill="none" stroke="black"/>
<path d="M326.103,303.872h 1.89608" fill="none" stroke="black"/>
<path d="M327.051,306.433v 2.56032" fill="none" stroke="black"/>
<path d="M326.103,308.993h 1.89608" fill="none" stroke="black"/>
<path d="M329.319,305.548v -2.55435" fill="none" stroke="black"/>
<path d="M328.371,302.994h 1.89608" fill="none" stroke="black"/>
<path d="M329.319,305.548v 2.55435" fill="none" stroke="black"/>
<path d="M328.371,308.102h 1.89608" fill="none" stroke="black"/>
<path d="M331.587,301.494v -2.51086" fill="none" stroke="black"/>
<path d="M330.639,298.983h 1.89608" fill="none" stroke="black"/>
<path d="M331.587,301.494v 2.51086" fill="none" stroke="black"/>
<path d="M330.639,304.005h 1.89608" fill="none" stroke="black"/>
<path d="M333.854,304.718v -2.54259" fill="none" stroke="black"/>
<path d="M332.906,302.176h 1.89608" fill="none" stroke="black"/>
<path d="M333.854,304.718v 2.54259" fill="none" stroke="black"/>
<path d="M332.906,307.261h 1.89608" fill="none" stroke="black"/>
<path d="M336.122,304.445v -2.54355" fill="none" stroke="black"/>
<path d="M335.174,301.902h 1.89608" fill="none" stroke="black"/>
<path d="M336.122,304.445v 2.54355" fill="none" stroke="black"/>
<path d="M335.174,306.989h 1.89608" fill="none" stroke="black"/>
<path d="M338.39,302.351v -2.5136" fill="none" stroke="black"/>
<path d="M337.442,299.837h 1.89608" fill="none" stroke="black"/>
<path d="M338.39,302.351v 2.5136" fill="none" stroke="black"/>
<path d="M337.442,304.864h 1.89608" fill="none" stroke="black"/>
<path d="M340.657,303.592v -2.53538" fill="none" stroke="black"/>
<path d="M339.709,301.056h 1.89608" fill="none" stroke="black"/>
<path d="M340.657,303.592v 2.53538" fill="none" stroke="black"/>
<path d="M339.709,306.127h 1.89608" fill="none" stroke="black"/>
<path d="M342.925,306.147v -2.55707" fill="none" stroke="black"/>
<path d="M341.977,303.59h 1.89608" fill="none" stroke="black"/>
<path d="M342.925,306.147v 2.55707" fill="none" stroke="black"/>
<path d="M341.977,308.704h 1.89608" fill="none" stroke="black"/>
<path d="M345.193,302.999v -2.52468" fill="none" stroke="black"/>
<path d="M344.245,300.474h 1.89608" fill="none" stroke="black"/>
<path d="M345.193,302.999v 2.52468" fill="none" stroke="black"/>
<path d="M344.245,305.524h 1.89608" fill="none" stroke="black"/>
<path d="M347.461,306.404v -2.55899" fill="none" stroke="black"/>
<path d="M346.513,303.845h 1.89608" fill="none" stroke="black"/>
<path d="M347.461,306.404v 2.55899" fill="none" stroke="black"/>
<path d="M346.513,308.963h 1.89608" fill="none" stroke="black"/>
<path d="M349.728,307.035v -2.56219" fill="none" stroke="black"/>
<path d="M348.78,304.473h 1.89608" fill="none" stroke="black"/>
<path d="M349.728,307.035v 2.56219" fill="none" stroke="black"/>
<path d="M348.78,309.597h 1.89608" fill="none" stroke="black"/>
<path d="M351.996,304.981v -2.5482" fill="none" stroke="black"/>
<path d="M351.048,302.432h 1.89608" fill="none" stroke="black"/>
<path d="M351.996,304.981v 2.5482" fill="none" stroke="black"/>
<path d="M351.048,307.529h 1.89608" fill="none" stroke="black"/>
<path d="M354.264,307.67v -2.56435" fill="none" stroke="black"/>
<path d="M353.316,305.106h 1.89608" fill="none" stroke="black"/>
<path d="M354.264,307.67v 2.56435" fill="none" stroke="black"/>
<path d="M353.316,310.235h 1.89608" fill="none" stroke="black"/>
<path d="M356.531,304.098v -2.54033" fill="none" stroke="black"/>
<path d="M355.583,301.558h 1.89608" fill="none" stroke="black"/>
<path d="M356.531,304.098v 2.54033" fill="none" stroke="black"/>
<path d="M355.583,306.638h 1.89608" fill="none" stroke="black"/>
<path d="M358.799,304.341v -2.5387" fill="none" stroke="black"/>
<path d="M357.851,301.803h 1.89608" fill="none" stroke="black"/>
<path d="M358.799,304.341v 2.5387" fill="none" stroke="black"/>
<path d="M357.851,306.88h 1.89608" fill="none" stroke="black"/>
<path d="M361.067,306.712v -2.56009" fill="none" stroke="black"/>
<path d="M360.119,304.152h 1.89608" fill="none" stroke="black"/>
<path d="M361.067,306.712v 2.56009" fill="none" stroke="black"/>
<path d="M360.119,309.273h 1.89608" fill="none" stroke="black"/>
<path d="M363.335,304.663v -2.53823" fill="none" stroke="black"/>
<path d="M362.387,302.125h 1.89608" fill="none" stroke="black"/>
<path d="M363.335,304.663v 2.53823" fill="none" stroke="black"/>
<path d="M362.387,307.201h 1.89608" fill="none" stroke="black"/>
<path d="M365.602,309.074v -2.56539" fill="none" stroke="black"/>
<path d="M364.654,306.509h 1.89608" fill="none" stroke="black"/>
<path d="M365.602,309.074v 2.56539" fill="none" stroke="black"/>
<path d="M364.654,311.639h 1.89608" fill="none" stroke="black"/>
<path d="M367.87,303.119v -2.52192" fill="none" stroke="black"/>
<path d="M366.922,300.597h 1.89608" fill="none" stroke="black"/>
<path d="M367.87,303.119v 2.52192" fill="none" stroke="black"/>
<path d="M366.922,305.641h 1.89608" fill="none" stroke="black"/>
<path d="M370.138,301.593v -2.48116" fill="none" stroke="black"/>
<path d="M369.19,299.112h 1.89608" fill="none" stroke="black"/>
<path d="M370.138,301.593v 2.48116" fill="none" stroke="black"/>
<path d="M369.19,304.074h 1.89608" fill="none" stroke="black"/>
<path d="M372.406,309.1v -2.56534" fill="none" stroke="black"/>
<path d="M371.457,306.534h 1.89608" fill="none" stroke="black"/>
<path d="M372.406,309.1v 2.56534" fill="none" stroke="black"/>
<path d="M371.457,311.665h 1.89608" fill="none" stroke="black"/>
<path d="M374.673,303.765v -2.52862" fill="none" stroke="black"/>
<path d="M373.725,301.237h 1.89608" fill="none" stroke="black"/>
<path d="M374.673,303.765v 2.52862" fill="none" stroke="black"/>
<path d="M373.725,306.294h 1.89608" fill="none" stroke="black"/>
<path d="M376.941,307.355v -2.56193" fill="none" stroke="black"/>
<path d="M375.993,304.793h 1.89608" fill="none" stroke="black"/>
<path d="M376.941,307.355v 2.56193" fill="none" stroke="black"/>
<path d="M375.993,309.917h 1.89608" fill="none" stroke="black"/>
<path d="M379.209,303.974v -2.53471" fill="none" stroke="black"/>
<path d="M378.261,301.44h 1.89608" fill="none" stroke="black"/>
<path d="M379.209,303.974v 2.53471" fill="none" stroke="black"/>
<path d="M378.261,306.509h 1.89608" fill="none" stroke="black"/>
<path d="M381.476,307.553v -2.56367" fill="none" stroke="black"/>
<path d="M380.528,304.989h 1.89608" fill="none" stroke="black"/>
<path d="M381.476,307.553v 2.56367" fill="none" stroke="black"/>
<path d="M380.528,310.117h 1.89608" fill="none" stroke="black"/>
<path d="M383.744,305.82v -2.55166" fill="none" stroke="black"/>
<path d="M382.796,303.268h 1.89608" fill="none" stroke="black"/>
<path d="M383.744,305.82v 2.55166" fill="none" stroke="black"/>
<path d="M382.796,308.371h 1.89608" fill="none" stroke="black"/>
<path d="M386.012,305.453v -2.54895" fill="none" stroke="black"/>
<path d="M385.064,302.904h 1.89608" fill="none" stroke="black"/>
<path d="M386.012,305.453v 2.54895" fill="none" stroke="black"/>
<path d="M385.064,308.001h 1.89608" fill="none" stroke="black"/>
<path d="M388.28,305.562v -2.54195" fill="none" stroke="black"/>
<path d="M387.331,303.02h 1.89608" fill="none" stroke="black"/>
<path d="M388.28,305.562v 2.54195" fill="none" stroke="black"/>
<path d="M387.331,308.103h 1.89608" fill="none" stroke="black"/>
<path d="M390.547,305.868v -2.55258" fill="none" stroke="black"/>
<path d="M389.599,303.315h 1.89608" fill="none" stroke="black"/>
<path d="M390.547,305.868v 2.55258" fill="none" stroke="black"/>
<path d="M389.599,308.42h 1.89608" fill="none" stroke="black"/>
<path d="M392.815,305.913v -2.55342" fill="none" stroke="black"/>
<path d="M391.867,303.36h 1.89608" fill="none" stroke="black"/>
<path d="M392.815,305.913v 2.55342" fill="none" stroke="black"/>
<path d="M391.867,308.467h 1.89608" fill="none" stroke="black"/>
<path d="M395.083,307.652v -2.56352" fill="none" stroke="black"/>
<path d="M394.135,305.088h 1.89608" fill="none" stroke="black"/>
<path d="M395.083,307.652v 2.56352" fill="none" stroke="black"/>
<path d="M394.135,310.215h 1.89608" fill="none" stroke="black"/>
<path d="M397.35,302.835v -2.49569" fill="none" stroke="black"/>
<path d="M396.402,300.34h 1.89608" fill="none" stroke="black"/>
<path d="M397.35,302.835v 2.49569" fill="none" stroke="black"/>
<path d="M396.402,305.331h 1.89608" fill="none" stroke="black"/>
<path d="M399.618,305.343v -2.54654" fill="none" stroke="black"/>
<path d="M398.67,302.797h 1.89608" fill="none" stroke="black"/>
<path d="M399.618,305.343v 2.54654" fill="none" stroke="black"/>
<path d="M398.67,307.89h 1.89608" fill="none" stroke="black"/>
<path d="M401.886,305.086v -2.53979" fill="none" stroke="black"/>
<path d="M400.938,302.546h 1.89608" fill="none" stroke="black"/>
<path d="M401.886,305.086v 2.53979" fill="none" stroke="black"/>
<path d="M400.938,307.626h 1.89608" fill="none" stroke="black"/>
<path d="M404.154,306.934v -2.55995" fill="none" stroke="black"/>
<path d="M403.206,304.374h 1.89608" fill="none" stroke="black"/>
<path d="M404.154,306.934v 2.55995" fill="none" stroke="black"/>
<path d="M403.206,309.494h 1.89608" fill="none" stroke="black"/>
<path d="M406.421,305.284v -2.54512" fill="none" stroke="black"/>
<path d="M405.473,302.739h 1.89608" fill="none" stroke="black"/>
<path d="M406.421,305.284v 2.54512" fill="none" stroke="black"/>
<path d="M405.473,307.829h 1.89608" fill="none" stroke="black"/>
<path d="M408.689,307.261v -2.56078" fill="none" stroke="black"/>
<path d="M407.741,304.701h 1.89608" fill="none" stroke="black"/>
<path d="M408.689,307.261v 2.56078" fill="none" stroke="black"/>
<path d="M407.741,309.822h 1.89608" fill="none" stroke="black"/>
<path d="M410.957,306.9v -2.5595" fill="none" stroke="black"/>
<path d="M410.009,304.34h 1.89608" fill="none" stroke="black"/>
<path d="M410.957,306.9v 2.5595" fill="none" stroke="black"/>
<path d="M410.009,309.459h 1.89608" fill="none" stroke="black"/>
<path d="M413.224,307.432v -2.56271" fill="none" stroke="black"/>
<path d="M412.276,304.869h 1.89608" fill="none" stroke="black"/>
<path d="M413.224,307.432v 2.56271" fill="none" stroke="black"/>
<path d="M412.276,309.995h 1.89608" fill="none" stroke="black"/>
<path d="M415.492,307.295v -2.56122" fill="none" stroke="black"/>
<path d="M414.544,304.734h 1.89608" fill="none" stroke="black"/>
<path d="M415.492,307.295v 2.56122" fill="none" stroke="black"/>
<path d="M414.544,309.856h 1.89608" fill="none" stroke="black"/>
<path d="M417.76,308.961v -2.56538" fill="none" stroke="black"/>
<path d="M416.812,306.396h 1.89608" fill="none" stroke="black"/>
<path d="M417.76,308.961v 2.56538" fill="none" stroke="black"/>
<path d="M416.812,311.527h 1.89608" fill="none" stroke="black"/>
<path d="M420.028,306.741v -2.557" fill="none" stroke="black"/>
<path d="M419.08,304.184h 1.89608" fill="none" stroke="black"/>
<path d="M420.028,306.741v 2.557" fill="none" stroke="black"/>
<path d="M419.08,309.298h 1.89608" fill="none" stroke="black"/>
<path d="M422.295,308.948v -2.56541" fill="none" stroke="black"/>
<path d="M421.347,306.383h 1.89608" fill="none" stroke="black"/>
<path d="M422.295,308.948v 2.56541" fill="none" stroke="black"/>
<path d="M421.347,311.514h 1.89608" fill="none" stroke="black"/>
<path d="M424.563,308.678v -2.56557" fill="none" stroke="black"/>
<path d="M423.615,306.112h 1.89608" fill="none" stroke="black"/>
<path d="M424.563,308.678v 2.56557" fill="none" stroke="black"/>
<path d="M423.615,311.244h 1.89608" fill="none" stroke="black"/>
<path d="M426.831,308.016v -2.56415" fill="none" stroke="black"/>
<path d="M425.883,305.451h 1.89608" fill="none" stroke="black"/>
<path d="M426.831,308.016v 2.56415" fill="none" stroke="black"/>
<path d="M425.883,310.58h 1.89608" fill="none" stroke="black"/>
<path d="M429.098,307.261v -2.56078" fill="none" stroke="black"/>
<path d="M428.15,304.701h 1.89608" fill="none" stroke="black"/>
<path d="M429.098,307.261v 2.56078" fill="none" stroke="black"/>
<path d="M428.15,309.822h 1.89608" fill="none" stroke="black"/>
<path d="M431.366,307.187v -2.55968" fill="none" stroke="black"/>
<path d="M430.418,304.627h 1.89608" fill="none" stroke="black"/>
<path d="M431.366,307.187v 2.55968" fill="none" stroke="black"/>
<path d="M430.418,309.747h 1.89608" fill="none" stroke="black"/>
<path d="M433.634,304.995v -2.53226" fill="none" stroke="black"/>
<path d="M432.686,302.463h 1.89608" fill="none" stroke="black"/>
<path d="M433.634,304.995v 2.53226" fill="none" stroke="black"/>
<path d="M432.686,307.527h 1.89608" fill="none" stroke="black"/>
<path d="M435.902,309.004v -2.56524" fill="none" stroke="black"/>
<path d="M434.954,306.439h 1.89608" fill="none" stroke="black"/>
<path d="M435.902,309.004v 2.56524" fill="none" stroke="black"/>
<path d="M434.954,311.569h 1.89608" fill="none" stroke="black"/>
<path d="M438.169,308.678v -2.56557" fill="none" stroke="black"/>
<path d="M437.221,306.112h 1.89608" fill="none" stroke="black"/>
<path d="M438.169,308.678v 2.56557" fill="none" stroke="black"/>
<path d="M437.221,311.244h 1.89608" fill="none" stroke="black"/>
<path d="M440.437,309.267v -2.56468" fill="none" stroke="black"/>
<path d="M439.489,306.702h 1.89608" fill="none" stroke="black"/>
<path d="M440.437,309.267v 2.56468" fill="none" stroke="black"/>
<path d="M439.489,311.831h 1.89608" fill="none" stroke="black"/>
<path d="M442.705,309.419v -2.56334" fill="none" stroke="black"/>
<path d="M441.757,306.855h 1.89608" fill="none" stroke="black"/>
<path d="M442.705,309.419v 2.56334" fill="none" stroke="black"/>
<path d="M441.757,311.982h 1.89608" fill="none" stroke="black"/>
<path d="M444.972,306.621v -2.55063" fill="none" stroke="black"/>
<path d="M444.024,304.07h 1.89608" fill="none" stroke="black"/>
<path d="M444.972,306.621v 2.55063" fill="none" stroke="black"/>
<path d="M444.024,309.172h 1.89608" fill="none" stroke="black"/>
<path d="M447.24,306.383v -2.55258" fill="none" stroke="black"/>
<path d="M446.292,303.831h 1.89608" fill="none" stroke="black"/>
<path d="M447.24,306.383v 2.55258" fill="none" stroke="black"/>
<path d="M446.292,308.936h 1.89608" fill="none" stroke="black"/>
<path d="M449.508,310.889v -2.55094" fill="none" stroke="black"/>
<path d="M448.56,308.338h 1.89608" fill="none" stroke="black"/>
<path d="M449.508,310.889v 2.55094" fill="none" stroke="black"/>
<path d="M448.56,313.44h 1.89608" fill="none" stroke="black"/>
<path d="M451.776,311.789v -2.53704" fill="none" stroke="black"/>
<path d="M450.828,309.252h 1.89608" fill="none" stroke="black"/>
<path d="M451.776,311.789v 2.53704" fill="none" stroke="black"/>
<path d="M450.828,314.326h 1.89608" fill="none" stroke="black"/>
<path d="M454.043,311.036v -2.54654" fill="none" stroke="black"/>
<path d="M453.095,308.49h 1.89608" fill="none" stroke="black"/>
<path d="M454.043,311.036v 2.54654" fill="none" stroke="black"/>
<path d="M453.095,313.583h 1.89608" fill="none" stroke="black"/>
<path d="M456.311,311.032v -2.56468" fill="none" stroke="black"/>
<path d="M455.363,308.468h 1.89608" fill="none" stroke="black"/>
<path d="M456.311,311.032v 2.56468" fill="none" stroke="black"/>
<path d="M455.363,313.597h 1.89608" fill="none" stroke="black"/></svg>
