<?xml version="1.0" standalone="no"?>
<svg width="567.429" height="413.846" viewBox="0 0 567.429 413.846" xmlns="http://www.w3.org/2000/svg" shape-rendering="crispEdges">
<title>
figures/chi2zoomin_0PMTnpefilelist20.svg
</title>
<desc>
Creator: ROOT Version 6.18/04
CreationDate: Wed Nov  6 14:43:22 2019</desc>
<defs>
</defs>
<rect x="0.5" y="0" width="566.929" height="413.346" fill="white"/>
<rect x="57.1929" y="41.3346" width="453.543" height="330.677" fill="white"/>
<rect x="57.1929" y="41.3346" width="453.543" height="330.677" fill="none" stroke="black"/>
<path d="M57.1929,372.012h 453.543" fill="none" stroke="black"/>
<path d="M64.7577,41.3346v 330.677" fill="none" stroke="black" stroke-dasharray=" 1, 2"/>
<path d="M121.343,41.3346v 330.677" fill="none" stroke="black" stroke-dasharray=" 1, 2"/>
<path d="M177.929,41.3346v 330.677" fill="none" stroke="black" stroke-dasharray=" 1, 2"/>
<path d="M234.514,41.3346v 330.677" fill="none" stroke="black" stroke-dasharray=" 1, 2"/>
<path d="M291.099,41.3346v 330.677" fill="none" stroke="black" stroke-dasharray=" 1, 2"/>
<path d="M347.685,41.3346v 330.677" fill="none" stroke="black" stroke-dasharray=" 1, 2"/>
<path d="M404.27,41.3346v 330.677" fill="none" stroke="black" stroke-dasharray=" 1, 2"/>
<path d="M460.856,41.3346v 330.677" fill="none" stroke="black" stroke-dasharray=" 1, 2"/>
<path d="M64.7577,41.3346v 330.677" fill="none" stroke="black" stroke-dasharray=" 1, 2"/>
<path d="M460.856,41.3346v 330.677" fill="none" stroke="black" stroke-dasharray=" 1, 2"/>
<path d="M57.1929,372.012v -330.677" fill="none" stroke="black"/>
<path d="M57.1929,372.012h 453.543" fill="none" stroke="black"/>
<path d="M64.7577,362.091v 9.92031" fill="none" stroke="black"/>
<path d="M76.0748,367.052v 4.96016" fill="none" stroke="black"/>
<path d="M87.3919,367.052v 4.96016" fill="none" stroke="black"/>
<path d="M98.709,367.052v 4.96016" fill="none" stroke="black"/>
<path d="M110.026,367.052v 4.96016" fill="none" stroke="black"/>
<path d="M121.343,362.091v 9.92031" fill="none" stroke="black"/>
<path d="M132.66,367.052v 4.96016" fill="none" stroke="black"/>
<path d="M143.977,367.052v 4.96016" fill="none" stroke="black"/>
<path d="M155.294,367.052v 4.96016" fill="none" stroke="black"/>
<path d="M166.611,367.052v 4.96016" fill="none" stroke="black"/>
<path d="M177.929,362.091v 9.92031" fill="none" stroke="black"/>
<path d="M189.246,367.052v 4.96016" fill="none" stroke="black"/>
<path d="M200.563,367.052v 4.96016" fill="none" stroke="black"/>
<path d="M211.88,367.052v 4.96016" fill="none" stroke="black"/>
<path d="M223.197,367.052v 4.96016" fill="none" stroke="black"/>
<path d="M234.514,362.091v 9.92031" fill="none" stroke="black"/>
<path d="M245.831,367.052v 4.96016" fill="none" stroke="black"/>
<path d="M257.148,367.052v 4.96016" fill="none" stroke="black"/>
<path d="M268.465,367.052v 4.96016" fill="none" stroke="black"/>
<path d="M279.782,367.052v 4.96016" fill="none" stroke="black"/>
<path d="M291.099,362.091v 9.92031" fill="none" stroke="black"/>
<path d="M302.416,367.052v 4.96016" fill="none" stroke="black"/>
<path d="M313.734,367.052v 4.96016" fill="none" stroke="black"/>
<path d="M325.051,367.052v 4.96016" fill="none" stroke="black"/>
<path d="M336.368,367.052v 4.96016" fill="none" stroke="black"/>
<path d="M347.685,362.091v 9.92031" fill="none" stroke="black"/>
<path d="M359.002,367.052v 4.96016" fill="none" stroke="black"/>
<path d="M370.319,367.052v 4.96016" fill="none" stroke="black"/>
<path d="M381.636,367.052v 4.96016" fill="none" stroke="black"/>
<path d="M392.953,367.052v 4.96016" fill="none" stroke="black"/>
<path d="M404.27,362.091v 9.92031" fill="none" stroke="black"/>
<path d="M415.587,367.052v 4.96016" fill="none" stroke="black"/>
<path d="M426.904,367.052v 4.96016" fill="none" stroke="black"/>
<path d="M438.221,367.052v 4.96016" fill="none" stroke="black"/>
<path d="M449.539,367.052v 4.96016" fill="none" stroke="black"/>
<path d="M460.856,362.091v 9.92031" fill="none" stroke="black"/>
<path d="M64.7577,362.091v 9.92031" fill="none" stroke="black"/>
<path d="M460.856,362.091v 9.92031" fill="none" stroke="black"/>
<path d="M472.173,367.052v 4.96016" fill="none" stroke="black"/>
<path d="M483.49,367.052v 4.96016" fill="none" stroke="black"/>
<path d="M494.807,367.052v 4.96016" fill="none" stroke="black"/>
<path d="M506.124,367.052v 4.96016" fill="none" stroke="black"/>
<text xml:space="preserve" x="47.9021" y="385.379" fill="black" font-size="13.7726" font-family="Helvetica">0.885</text>
<text xml:space="preserve" x="108.103" y="385.379" fill="black" font-size="13.7726" font-family="Helvetica">0.89</text>
<text xml:space="preserve" x="161.193" y="385.379" fill="black" font-size="13.7726" font-family="Helvetica">0.895</text>
<text xml:space="preserve" x="225.186" y="385.379" fill="black" font-size="13.7726" font-family="Helvetica">0.9</text>
<text xml:space="preserve" x="274.484" y="385.379" fill="black" font-size="13.7726" font-family="Helvetica">0.905</text>
<text xml:space="preserve" x="335.633" y="385.379" fill="black" font-size="13.7726" font-family="Helvetica">0.91</text>
<text xml:space="preserve" x="387.301" y="385.379" fill="black" font-size="13.7726" font-family="Helvetica">0.915</text>
<text xml:space="preserve" x="447.976" y="385.379" fill="black" font-size="13.7726" font-family="Helvetica">0.92</text>
<text xml:space="preserve" x="413.372" y="400.074" fill="black" font-size="13.7726" font-family="Helvetica">calibration factor</text>
<path d="M57.1929,372.012v -330.677" fill="none" stroke="black"/>
<path d="M70.7992,350.69h -13.6063" fill="none" stroke="black"/>
<path d="M63.9961,336.911h -6.80315" fill="none" stroke="black"/>
<path d="M63.9961,323.133h -6.80315" fill="none" stroke="black"/>
<path d="M63.9961,309.355h -6.80315" fill="none" stroke="black"/>
<path d="M70.7992,295.577h -13.6063" fill="none" stroke="black"/>
<path d="M63.9961,281.798h -6.80315" fill="none" stroke="black"/>
<path d="M63.9961,268.02h -6.80315" fill="none" stroke="black"/>
<path d="M63.9961,254.242h -6.80315" fill="none" stroke="black"/>
<path d="M70.7992,240.464h -13.6063" fill="none" stroke="black"/>
<path d="M63.9961,226.686h -6.80315" fill="none" stroke="black"/>
<path d="M63.9961,212.907h -6.80315" fill="none" stroke="black"/>
<path d="M63.9961,199.129h -6.80315" fill="none" stroke="black"/>
<path d="M70.7992,185.351h -13.6063" fill="none" stroke="black"/>
<path d="M63.9961,171.573h -6.80315" fill="none" stroke="black"/>
<path d="M63.9961,157.795h -6.80315" fill="none" stroke="black"/>
<path d="M63.9961,144.016h -6.80315" fill="none" stroke="black"/>
<path d="M70.7992,130.238h -13.6063" fill="none" stroke="black"/>
<path d="M63.9961,116.46h -6.80315" fill="none" stroke="black"/>
<path d="M63.9961,102.682h -6.80315" fill="none" stroke="black"/>
<path d="M63.9961,88.9035h -6.80315" fill="none" stroke="black"/>
<path d="M70.7992,75.1253h -13.6063" fill="none" stroke="black"/>
<path d="M70.7992,350.69h -13.6063" fill="none" stroke="black"/>
<path d="M63.9961,364.468h -6.80315" fill="none" stroke="black"/>
<path d="M70.7992,75.1253h -13.6063" fill="none" stroke="black"/>
<path d="M63.9961,61.3471h -6.80315" fill="none" stroke="black"/>
<path d="M63.9961,47.5689h -6.80315" fill="none" stroke="black"/>
<text xml:space="preserve" x="32.2594" y="355.042" fill="black" font-size="13.7726" font-family="Helvetica">116</text>
<text xml:space="preserve" x="32.2594" y="300.055" fill="black" font-size="13.7726" font-family="Helvetica">118</text>
<text xml:space="preserve" x="32.2594" y="245.069" fill="black" font-size="13.7726" font-family="Helvetica">120</text>
<text xml:space="preserve" x="32.2594" y="190.556" fill="black" font-size="13.7726" font-family="Helvetica">122</text>
<text xml:space="preserve" x="32.2594" y="135.096" fill="black" font-size="13.7726" font-family="Helvetica">124</text>
<text xml:space="preserve" x="32.2594" y="79.6355" fill="black" font-size="13.7726" font-family="Helvetica">126</text>
<g transform="rotate(-90,15.1947,45.98)">
<text xml:space="preserve" x="15.1947" y="45.98" fill="black" font-size="9.34839" font-family="Helvetica">2</text>
</g>
<g transform="rotate(-90,19.4608,50.2462)">
<text xml:space="preserve" x="19.4608" y="50.2462" fill="black" font-size="13.7726" font-family="Helvetica"> </text>
</g>
<g transform="rotate(-90,19.4608,57.3565)">
<text xml:space="preserve" x="19.4608" y="57.3565" fill="black" font-size="13.7726" font-family="Times">&#0967;</text>
</g>
<text xml:space="preserve" x="109.525" y="18.0128" fill="black" font-size="14.0403" font-family="Helvetica">^2 v.s. calibration factor without 1st bin and without last bin</text>
<text xml:space="preserve" x="101.94" y="18.0128" fill="black" font-size="14.0403" font-family="Times">&#0967;</text>
<g stroke="black" stroke-width="1" fill="none">
<line x1="128.501" y1="74.325" x2="132.293" y2="74.325"/><line x1="130.397" y1="72.4289" x2="130.397" y2="76.221"/><line x1="128.501" y1="72.4289" x2="132.293" y2="76.221"/><line x1="128.501" y1="76.221" x2="132.293" y2="72.4289"/>
<line x1="130.764" y1="93.7772" x2="134.556" y2="93.7772"/><line x1="132.66" y1="91.8811" x2="132.66" y2="95.6733"/><line x1="130.764" y1="91.8811" x2="134.556" y2="95.6733"/><line x1="130.764" y1="95.6733" x2="134.556" y2="91.8811"/>
<line x1="133.028" y1="76.6826" x2="136.82" y2="76.6826"/><line x1="134.924" y1="74.7866" x2="134.924" y2="78.5787"/><line x1="133.028" y1="74.7866" x2="136.82" y2="78.5787"/><line x1="133.028" y1="78.5787" x2="136.82" y2="74.7866"/>
<line x1="135.291" y1="90.0249" x2="139.083" y2="90.0249"/><line x1="137.187" y1="88.1288" x2="137.187" y2="91.921"/><line x1="135.291" y1="88.1288" x2="139.083" y2="91.921"/><line x1="135.291" y1="91.921" x2="139.083" y2="88.1288"/>
<line x1="137.554" y1="119.231" x2="141.347" y2="119.231"/><line x1="139.45" y1="117.335" x2="139.45" y2="121.128"/><line x1="137.554" y1="117.335" x2="141.347" y2="121.128"/><line x1="137.554" y1="121.128" x2="141.347" y2="117.335"/>
<line x1="139.818" y1="125.263" x2="143.61" y2="125.263"/><line x1="141.714" y1="123.367" x2="141.714" y2="127.159"/><line x1="139.818" y1="123.367" x2="143.61" y2="127.159"/><line x1="139.818" y1="127.159" x2="143.61" y2="123.367"/>
<line x1="142.081" y1="132.453" x2="145.873" y2="132.453"/><line x1="143.977" y1="130.557" x2="143.977" y2="134.349"/><line x1="142.081" y1="130.557" x2="145.873" y2="134.349"/><line x1="142.081" y1="134.349" x2="145.873" y2="130.557"/>
<line x1="144.345" y1="128.774" x2="148.137" y2="128.774"/><line x1="146.241" y1="126.878" x2="146.241" y2="130.67"/><line x1="144.345" y1="126.878" x2="148.137" y2="130.67"/><line x1="144.345" y1="130.67" x2="148.137" y2="126.878"/>
<line x1="146.608" y1="145.711" x2="150.4" y2="145.711"/><line x1="148.504" y1="143.814" x2="148.504" y2="147.607"/><line x1="146.608" y1="143.814" x2="150.4" y2="147.607"/><line x1="146.608" y1="147.607" x2="150.4" y2="143.814"/>
<line x1="148.871" y1="143.791" x2="152.664" y2="143.791"/><line x1="150.768" y1="141.895" x2="150.768" y2="145.687"/><line x1="148.871" y1="141.895" x2="152.664" y2="145.687"/><line x1="148.871" y1="145.687" x2="152.664" y2="141.895"/>
<line x1="151.135" y1="148.834" x2="154.927" y2="148.834"/><line x1="153.031" y1="146.938" x2="153.031" y2="150.73"/><line x1="151.135" y1="146.938" x2="154.927" y2="150.73"/><line x1="151.135" y1="150.73" x2="154.927" y2="146.938"/>
<line x1="153.398" y1="159.015" x2="157.19" y2="159.015"/><line x1="155.294" y1="157.119" x2="155.294" y2="160.911"/><line x1="153.398" y1="157.119" x2="157.19" y2="160.911"/><line x1="153.398" y1="160.911" x2="157.19" y2="157.119"/>
<line x1="155.662" y1="146.231" x2="159.454" y2="146.231"/><line x1="157.558" y1="144.335" x2="157.558" y2="148.127"/><line x1="155.662" y1="144.335" x2="159.454" y2="148.127"/><line x1="155.662" y1="148.127" x2="159.454" y2="144.335"/>
<line x1="157.925" y1="151.232" x2="161.717" y2="151.232"/><line x1="159.821" y1="149.336" x2="159.821" y2="153.128"/><line x1="157.925" y1="149.336" x2="161.717" y2="153.128"/><line x1="157.925" y1="153.128" x2="161.717" y2="149.336"/>
<line x1="160.189" y1="142.859" x2="163.981" y2="142.859"/><line x1="162.085" y1="140.963" x2="162.085" y2="144.756"/><line x1="160.189" y1="140.963" x2="163.981" y2="144.756"/><line x1="160.189" y1="144.756" x2="163.981" y2="140.963"/>
<line x1="162.452" y1="154.808" x2="166.244" y2="154.808"/><line x1="164.348" y1="152.912" x2="164.348" y2="156.704"/><line x1="162.452" y1="152.912" x2="166.244" y2="156.704"/><line x1="162.452" y1="156.704" x2="166.244" y2="152.912"/>
<line x1="164.715" y1="153.076" x2="168.508" y2="153.076"/><line x1="166.611" y1="151.18" x2="166.611" y2="154.972"/><line x1="164.715" y1="151.18" x2="168.508" y2="154.972"/><line x1="164.715" y1="154.972" x2="168.508" y2="151.18"/>
<line x1="166.979" y1="175.078" x2="170.771" y2="175.078"/><line x1="168.875" y1="173.182" x2="168.875" y2="176.974"/><line x1="166.979" y1="173.182" x2="170.771" y2="176.974"/><line x1="166.979" y1="176.974" x2="170.771" y2="173.182"/>
<line x1="169.242" y1="172.555" x2="173.034" y2="172.555"/><line x1="171.138" y1="170.659" x2="171.138" y2="174.451"/><line x1="169.242" y1="170.659" x2="173.034" y2="174.451"/><line x1="169.242" y1="174.451" x2="173.034" y2="170.659"/>
<line x1="171.506" y1="169.655" x2="175.298" y2="169.655"/><line x1="173.402" y1="167.759" x2="173.402" y2="171.551"/><line x1="171.506" y1="167.759" x2="175.298" y2="171.551"/><line x1="171.506" y1="171.551" x2="175.298" y2="167.759"/>
<line x1="173.769" y1="185.421" x2="177.561" y2="185.421"/><line x1="175.665" y1="183.525" x2="175.665" y2="187.317"/><line x1="173.769" y1="183.525" x2="177.561" y2="187.317"/><line x1="173.769" y1="187.317" x2="177.561" y2="183.525"/>
<line x1="176.032" y1="196.527" x2="179.825" y2="196.527"/><line x1="177.929" y1="194.631" x2="177.929" y2="198.423"/><line x1="176.032" y1="194.631" x2="179.825" y2="198.423"/><line x1="176.032" y1="198.423" x2="179.825" y2="194.631"/>
<line x1="178.296" y1="194.334" x2="182.088" y2="194.334"/><line x1="180.192" y1="192.438" x2="180.192" y2="196.23"/><line x1="178.296" y1="192.438" x2="182.088" y2="196.23"/><line x1="178.296" y1="196.23" x2="182.088" y2="192.438"/>
<line x1="180.559" y1="196.762" x2="184.351" y2="196.762"/><line x1="182.455" y1="194.866" x2="182.455" y2="198.658"/><line x1="180.559" y1="194.866" x2="184.351" y2="198.658"/><line x1="180.559" y1="198.658" x2="184.351" y2="194.866"/>
<line x1="182.823" y1="208.43" x2="186.615" y2="208.43"/><line x1="184.719" y1="206.534" x2="184.719" y2="210.326"/><line x1="182.823" y1="206.534" x2="186.615" y2="210.326"/><line x1="182.823" y1="210.326" x2="186.615" y2="206.534"/>
<line x1="185.086" y1="187.344" x2="188.878" y2="187.344"/><line x1="186.982" y1="185.448" x2="186.982" y2="189.24"/><line x1="185.086" y1="185.448" x2="188.878" y2="189.24"/><line x1="185.086" y1="189.24" x2="188.878" y2="185.448"/>
<line x1="187.35" y1="183.603" x2="191.142" y2="183.603"/><line x1="189.246" y1="181.707" x2="189.246" y2="185.5"/><line x1="187.35" y1="181.707" x2="191.142" y2="185.5"/><line x1="187.35" y1="185.5" x2="191.142" y2="181.707"/>
<line x1="189.613" y1="161.546" x2="193.405" y2="161.546"/><line x1="191.509" y1="159.65" x2="191.509" y2="163.442"/><line x1="189.613" y1="159.65" x2="193.405" y2="163.442"/><line x1="189.613" y1="163.442" x2="193.405" y2="159.65"/>
<line x1="191.876" y1="171.613" x2="195.669" y2="171.613"/><line x1="193.772" y1="169.717" x2="193.772" y2="173.509"/><line x1="191.876" y1="169.717" x2="195.669" y2="173.509"/><line x1="191.876" y1="173.509" x2="195.669" y2="169.717"/>
<line x1="194.14" y1="177.445" x2="197.932" y2="177.445"/><line x1="196.036" y1="175.548" x2="196.036" y2="179.341"/><line x1="194.14" y1="175.548" x2="197.932" y2="179.341"/><line x1="194.14" y1="179.341" x2="197.932" y2="175.548"/>
<line x1="196.403" y1="202.052" x2="200.195" y2="202.052"/><line x1="198.299" y1="200.156" x2="198.299" y2="203.948"/><line x1="196.403" y1="200.156" x2="200.195" y2="203.948"/><line x1="196.403" y1="203.948" x2="200.195" y2="200.156"/>
<line x1="198.667" y1="195.571" x2="202.459" y2="195.571"/><line x1="200.563" y1="193.675" x2="200.563" y2="197.467"/><line x1="198.667" y1="193.675" x2="202.459" y2="197.467"/><line x1="198.667" y1="197.467" x2="202.459" y2="193.675"/>
<line x1="200.93" y1="186.102" x2="204.722" y2="186.102"/><line x1="202.826" y1="184.206" x2="202.826" y2="187.998"/><line x1="200.93" y1="184.206" x2="204.722" y2="187.998"/><line x1="200.93" y1="187.998" x2="204.722" y2="184.206"/>
<line x1="203.193" y1="161.026" x2="206.986" y2="161.026"/><line x1="205.09" y1="159.13" x2="205.09" y2="162.922"/><line x1="203.193" y1="159.13" x2="206.986" y2="162.922"/><line x1="203.193" y1="162.922" x2="206.986" y2="159.13"/>
<line x1="205.457" y1="160.411" x2="209.249" y2="160.411"/><line x1="207.353" y1="158.515" x2="207.353" y2="162.307"/><line x1="205.457" y1="158.515" x2="209.249" y2="162.307"/><line x1="205.457" y1="162.307" x2="209.249" y2="158.515"/>
<line x1="207.72" y1="150.784" x2="211.512" y2="150.784"/><line x1="209.616" y1="148.888" x2="209.616" y2="152.68"/><line x1="207.72" y1="148.888" x2="211.512" y2="152.68"/><line x1="207.72" y1="152.68" x2="211.512" y2="148.888"/>
<line x1="209.984" y1="152.642" x2="213.776" y2="152.642"/><line x1="211.88" y1="150.746" x2="211.88" y2="154.538"/><line x1="209.984" y1="150.746" x2="213.776" y2="154.538"/><line x1="209.984" y1="154.538" x2="213.776" y2="150.746"/>
<line x1="212.247" y1="184.025" x2="216.039" y2="184.025"/><line x1="214.143" y1="182.129" x2="214.143" y2="185.921"/><line x1="212.247" y1="182.129" x2="216.039" y2="185.921"/><line x1="212.247" y1="185.921" x2="216.039" y2="182.129"/>
<line x1="214.511" y1="182.245" x2="218.303" y2="182.245"/><line x1="216.407" y1="180.349" x2="216.407" y2="184.141"/><line x1="214.511" y1="180.349" x2="218.303" y2="184.141"/><line x1="214.511" y1="184.141" x2="218.303" y2="180.349"/>
<line x1="216.774" y1="182.486" x2="220.566" y2="182.486"/><line x1="218.67" y1="180.59" x2="218.67" y2="184.382"/><line x1="216.774" y1="180.59" x2="220.566" y2="184.382"/><line x1="216.774" y1="184.382" x2="220.566" y2="180.59"/>
<line x1="219.037" y1="183.733" x2="222.83" y2="183.733"/><line x1="220.933" y1="181.837" x2="220.933" y2="185.629"/><line x1="219.037" y1="181.837" x2="222.83" y2="185.629"/><line x1="219.037" y1="185.629" x2="222.83" y2="181.837"/>
<line x1="221.301" y1="202.402" x2="225.093" y2="202.402"/><line x1="223.197" y1="200.506" x2="223.197" y2="204.298"/><line x1="221.301" y1="200.506" x2="225.093" y2="204.298"/><line x1="221.301" y1="204.298" x2="225.093" y2="200.506"/>
<line x1="223.564" y1="204.073" x2="227.356" y2="204.073"/><line x1="225.46" y1="202.177" x2="225.46" y2="205.969"/><line x1="223.564" y1="202.177" x2="227.356" y2="205.969"/><line x1="223.564" y1="205.969" x2="227.356" y2="202.177"/>
<line x1="225.828" y1="198.585" x2="229.62" y2="198.585"/><line x1="227.724" y1="196.689" x2="227.724" y2="200.481"/><line x1="225.828" y1="196.689" x2="229.62" y2="200.481"/><line x1="225.828" y1="200.481" x2="229.62" y2="196.689"/>
<line x1="228.091" y1="201.064" x2="231.883" y2="201.064"/><line x1="229.987" y1="199.168" x2="229.987" y2="202.96"/><line x1="228.091" y1="199.168" x2="231.883" y2="202.96"/><line x1="228.091" y1="202.96" x2="231.883" y2="199.168"/>
<line x1="230.354" y1="215.656" x2="234.147" y2="215.656"/><line x1="232.251" y1="213.76" x2="232.251" y2="217.552"/><line x1="230.354" y1="213.76" x2="234.147" y2="217.552"/><line x1="230.354" y1="217.552" x2="234.147" y2="213.76"/>
<line x1="232.618" y1="220.229" x2="236.41" y2="220.229"/><line x1="234.514" y1="218.333" x2="234.514" y2="222.125"/><line x1="232.618" y1="218.333" x2="236.41" y2="222.125"/><line x1="232.618" y1="222.125" x2="236.41" y2="218.333"/>
<line x1="234.881" y1="239.331" x2="238.673" y2="239.331"/><line x1="236.777" y1="237.435" x2="236.777" y2="241.227"/><line x1="234.881" y1="237.435" x2="238.673" y2="241.227"/><line x1="234.881" y1="241.227" x2="238.673" y2="237.435"/>
<line x1="237.145" y1="232.413" x2="240.937" y2="232.413"/><line x1="239.041" y1="230.517" x2="239.041" y2="234.31"/><line x1="237.145" y1="230.517" x2="240.937" y2="234.31"/><line x1="237.145" y1="234.31" x2="240.937" y2="230.517"/>
<line x1="239.408" y1="241.727" x2="243.2" y2="241.727"/><line x1="241.304" y1="239.831" x2="241.304" y2="243.623"/><line x1="239.408" y1="239.831" x2="243.2" y2="243.623"/><line x1="239.408" y1="243.623" x2="243.2" y2="239.831"/>
<line x1="241.672" y1="262.647" x2="245.464" y2="262.647"/><line x1="243.568" y1="260.751" x2="243.568" y2="264.543"/><line x1="241.672" y1="260.751" x2="245.464" y2="264.543"/><line x1="241.672" y1="264.543" x2="245.464" y2="260.751"/>
<line x1="243.935" y1="250.846" x2="247.727" y2="250.846"/><line x1="245.831" y1="248.95" x2="245.831" y2="252.742"/><line x1="243.935" y1="248.95" x2="247.727" y2="252.742"/><line x1="243.935" y1="252.742" x2="247.727" y2="248.95"/>
<line x1="246.198" y1="242.041" x2="249.991" y2="242.041"/><line x1="248.094" y1="240.145" x2="248.094" y2="243.937"/><line x1="246.198" y1="240.145" x2="249.991" y2="243.937"/><line x1="246.198" y1="243.937" x2="249.991" y2="240.145"/>
<line x1="248.462" y1="239.677" x2="252.254" y2="239.677"/><line x1="250.358" y1="237.781" x2="250.358" y2="241.573"/><line x1="248.462" y1="237.781" x2="252.254" y2="241.573"/><line x1="248.462" y1="241.573" x2="252.254" y2="237.781"/>
<line x1="250.725" y1="259.585" x2="254.517" y2="259.585"/><line x1="252.621" y1="257.689" x2="252.621" y2="261.481"/><line x1="250.725" y1="257.689" x2="254.517" y2="261.481"/><line x1="250.725" y1="261.481" x2="254.517" y2="257.689"/>
<line x1="252.989" y1="283.832" x2="256.781" y2="283.832"/><line x1="254.885" y1="281.936" x2="254.885" y2="285.728"/><line x1="252.989" y1="281.936" x2="256.781" y2="285.728"/><line x1="252.989" y1="285.728" x2="256.781" y2="281.936"/>
<line x1="255.252" y1="277.279" x2="259.044" y2="277.279"/><line x1="257.148" y1="275.383" x2="257.148" y2="279.175"/><line x1="255.252" y1="275.383" x2="259.044" y2="279.175"/><line x1="255.252" y1="279.175" x2="259.044" y2="275.383"/>
<line x1="257.515" y1="276.328" x2="261.308" y2="276.328"/><line x1="259.412" y1="274.431" x2="259.412" y2="278.224"/><line x1="257.515" y1="274.431" x2="261.308" y2="278.224"/><line x1="257.515" y1="278.224" x2="261.308" y2="274.431"/>
<line x1="259.779" y1="279.092" x2="263.571" y2="279.092"/><line x1="261.675" y1="277.196" x2="261.675" y2="280.988"/><line x1="259.779" y1="277.196" x2="263.571" y2="280.988"/><line x1="259.779" y1="280.988" x2="263.571" y2="277.196"/>
<line x1="262.042" y1="296.188" x2="265.834" y2="296.188"/><line x1="263.938" y1="294.292" x2="263.938" y2="298.084"/><line x1="262.042" y1="294.292" x2="265.834" y2="298.084"/><line x1="262.042" y1="298.084" x2="265.834" y2="294.292"/>
<line x1="264.306" y1="296.258" x2="268.098" y2="296.258"/><line x1="266.202" y1="294.362" x2="266.202" y2="298.154"/><line x1="264.306" y1="294.362" x2="268.098" y2="298.154"/><line x1="264.306" y1="298.154" x2="268.098" y2="294.362"/>
<line x1="266.569" y1="277.596" x2="270.361" y2="277.596"/><line x1="268.465" y1="275.7" x2="268.465" y2="279.492"/><line x1="266.569" y1="275.7" x2="270.361" y2="279.492"/><line x1="266.569" y1="279.492" x2="270.361" y2="275.7"/>
<line x1="268.833" y1="275.712" x2="272.625" y2="275.712"/><line x1="270.729" y1="273.816" x2="270.729" y2="277.608"/><line x1="268.833" y1="273.816" x2="272.625" y2="277.608"/><line x1="268.833" y1="277.608" x2="272.625" y2="273.816"/>
<line x1="271.096" y1="285.984" x2="274.888" y2="285.984"/><line x1="272.992" y1="284.088" x2="272.992" y2="287.88"/><line x1="271.096" y1="284.088" x2="274.888" y2="287.88"/><line x1="271.096" y1="287.88" x2="274.888" y2="284.088"/>
<line x1="273.359" y1="272.685" x2="277.152" y2="272.685"/><line x1="275.255" y1="270.789" x2="275.255" y2="274.581"/><line x1="273.359" y1="270.789" x2="277.152" y2="274.581"/><line x1="273.359" y1="274.581" x2="277.152" y2="270.789"/>
<line x1="275.623" y1="269.348" x2="279.415" y2="269.348"/><line x1="277.519" y1="267.451" x2="277.519" y2="271.244"/><line x1="275.623" y1="267.451" x2="279.415" y2="271.244"/><line x1="275.623" y1="271.244" x2="279.415" y2="267.451"/>
<line x1="277.886" y1="281.963" x2="281.678" y2="281.963"/><line x1="279.782" y1="280.067" x2="279.782" y2="283.859"/><line x1="277.886" y1="280.067" x2="281.678" y2="283.859"/><line x1="277.886" y1="283.859" x2="281.678" y2="280.067"/>
<line x1="280.15" y1="289.495" x2="283.942" y2="289.495"/><line x1="282.046" y1="287.598" x2="282.046" y2="291.391"/><line x1="280.15" y1="287.598" x2="283.942" y2="291.391"/><line x1="280.15" y1="291.391" x2="283.942" y2="287.598"/>
<line x1="282.413" y1="316.899" x2="286.205" y2="316.899"/><line x1="284.309" y1="315.003" x2="284.309" y2="318.795"/><line x1="282.413" y1="315.003" x2="286.205" y2="318.795"/><line x1="282.413" y1="318.795" x2="286.205" y2="315.003"/>
<line x1="284.676" y1="310.382" x2="288.469" y2="310.382"/><line x1="286.573" y1="308.486" x2="286.573" y2="312.278"/><line x1="284.676" y1="308.486" x2="288.469" y2="312.278"/><line x1="284.676" y1="312.278" x2="288.469" y2="308.486"/>
<line x1="286.94" y1="291.011" x2="290.732" y2="291.011"/><line x1="288.836" y1="289.115" x2="288.836" y2="292.907"/><line x1="286.94" y1="289.115" x2="290.732" y2="292.907"/><line x1="286.94" y1="292.907" x2="290.732" y2="289.115"/>
<line x1="289.203" y1="277.012" x2="292.995" y2="277.012"/><line x1="291.099" y1="275.115" x2="291.099" y2="278.908"/><line x1="289.203" y1="275.115" x2="292.995" y2="278.908"/><line x1="289.203" y1="278.908" x2="292.995" y2="275.115"/>
<line x1="291.467" y1="259.819" x2="295.259" y2="259.819"/><line x1="293.363" y1="257.923" x2="293.363" y2="261.715"/><line x1="291.467" y1="257.923" x2="295.259" y2="261.715"/><line x1="291.467" y1="261.715" x2="295.259" y2="257.923"/>
<line x1="293.73" y1="250.701" x2="297.522" y2="250.701"/><line x1="295.626" y1="248.804" x2="295.626" y2="252.597"/><line x1="293.73" y1="248.804" x2="297.522" y2="252.597"/><line x1="293.73" y1="252.597" x2="297.522" y2="248.804"/>
<line x1="295.994" y1="220.314" x2="299.786" y2="220.314"/><line x1="297.89" y1="218.418" x2="297.89" y2="222.21"/><line x1="295.994" y1="218.418" x2="299.786" y2="222.21"/><line x1="295.994" y1="222.21" x2="299.786" y2="218.418"/>
<line x1="298.257" y1="228.7" x2="302.049" y2="228.7"/><line x1="300.153" y1="226.804" x2="300.153" y2="230.596"/><line x1="298.257" y1="226.804" x2="302.049" y2="230.596"/><line x1="298.257" y1="230.596" x2="302.049" y2="226.804"/>
<line x1="300.52" y1="215.173" x2="304.313" y2="215.173"/><line x1="302.416" y1="213.277" x2="302.416" y2="217.069"/><line x1="300.52" y1="213.277" x2="304.313" y2="217.069"/><line x1="300.52" y1="217.069" x2="304.313" y2="213.277"/>
<line x1="302.784" y1="230.949" x2="306.576" y2="230.949"/><line x1="304.68" y1="229.053" x2="304.68" y2="232.845"/><line x1="302.784" y1="229.053" x2="306.576" y2="232.845"/><line x1="302.784" y1="232.845" x2="306.576" y2="229.053"/>
<line x1="305.047" y1="223.548" x2="308.839" y2="223.548"/><line x1="306.943" y1="221.652" x2="306.943" y2="225.444"/><line x1="305.047" y1="221.652" x2="308.839" y2="225.444"/><line x1="305.047" y1="225.444" x2="308.839" y2="221.652"/>
<line x1="307.311" y1="206.582" x2="311.103" y2="206.582"/><line x1="309.207" y1="204.686" x2="309.207" y2="208.478"/><line x1="307.311" y1="204.686" x2="311.103" y2="208.478"/><line x1="307.311" y1="208.478" x2="311.103" y2="204.686"/>
<line x1="309.574" y1="218.057" x2="313.366" y2="218.057"/><line x1="311.47" y1="216.161" x2="311.47" y2="219.953"/><line x1="309.574" y1="216.161" x2="313.366" y2="219.953"/><line x1="309.574" y1="219.953" x2="313.366" y2="216.161"/>
<line x1="311.837" y1="206.604" x2="315.63" y2="206.604"/><line x1="313.734" y1="204.708" x2="313.734" y2="208.5"/><line x1="311.837" y1="204.708" x2="315.63" y2="208.5"/><line x1="311.837" y1="208.5" x2="315.63" y2="204.708"/>
<line x1="314.101" y1="178.301" x2="317.893" y2="178.301"/><line x1="315.997" y1="176.405" x2="315.997" y2="180.197"/><line x1="314.101" y1="176.405" x2="317.893" y2="180.197"/><line x1="314.101" y1="180.197" x2="317.893" y2="176.405"/>
<line x1="316.364" y1="197.226" x2="320.156" y2="197.226"/><line x1="318.26" y1="195.329" x2="318.26" y2="199.122"/><line x1="316.364" y1="195.329" x2="320.156" y2="199.122"/><line x1="316.364" y1="199.122" x2="320.156" y2="195.329"/>
<line x1="318.628" y1="210.372" x2="322.42" y2="210.372"/><line x1="320.524" y1="208.476" x2="320.524" y2="212.269"/><line x1="318.628" y1="208.476" x2="322.42" y2="212.269"/><line x1="318.628" y1="212.269" x2="322.42" y2="208.476"/>
<line x1="320.891" y1="216.001" x2="324.683" y2="216.001"/><line x1="322.787" y1="214.105" x2="322.787" y2="217.897"/><line x1="320.891" y1="214.105" x2="324.683" y2="217.897"/><line x1="320.891" y1="217.897" x2="324.683" y2="214.105"/>
<line x1="323.155" y1="231.576" x2="326.947" y2="231.576"/><line x1="325.051" y1="229.68" x2="325.051" y2="233.473"/><line x1="323.155" y1="229.68" x2="326.947" y2="233.473"/><line x1="323.155" y1="233.473" x2="326.947" y2="229.68"/>
<line x1="325.418" y1="235.939" x2="329.21" y2="235.939"/><line x1="327.314" y1="234.043" x2="327.314" y2="237.835"/><line x1="325.418" y1="234.043" x2="329.21" y2="237.835"/><line x1="325.418" y1="237.835" x2="329.21" y2="234.043"/>
<line x1="327.681" y1="226.946" x2="331.474" y2="226.946"/><line x1="329.577" y1="225.05" x2="329.577" y2="228.842"/><line x1="327.681" y1="225.05" x2="331.474" y2="228.842"/><line x1="327.681" y1="228.842" x2="331.474" y2="225.05"/>
<line x1="329.945" y1="222.327" x2="333.737" y2="222.327"/><line x1="331.841" y1="220.431" x2="331.841" y2="224.223"/><line x1="329.945" y1="220.431" x2="333.737" y2="224.223"/><line x1="329.945" y1="224.223" x2="333.737" y2="220.431"/>
<line x1="332.208" y1="244.685" x2="336" y2="244.685"/><line x1="334.104" y1="242.789" x2="334.104" y2="246.581"/><line x1="332.208" y1="242.789" x2="336" y2="246.581"/><line x1="332.208" y1="246.581" x2="336" y2="242.789"/>
<line x1="334.472" y1="236.488" x2="338.264" y2="236.488"/><line x1="336.368" y1="234.592" x2="336.368" y2="238.384"/><line x1="334.472" y1="234.592" x2="338.264" y2="238.384"/><line x1="334.472" y1="238.384" x2="338.264" y2="234.592"/>
<line x1="336.735" y1="233.391" x2="340.527" y2="233.391"/><line x1="338.631" y1="231.495" x2="338.631" y2="235.287"/><line x1="336.735" y1="231.495" x2="340.527" y2="235.287"/><line x1="336.735" y1="235.287" x2="340.527" y2="231.495"/>
<line x1="338.998" y1="238.012" x2="342.791" y2="238.012"/><line x1="340.895" y1="236.116" x2="340.895" y2="239.908"/><line x1="338.998" y1="236.116" x2="342.791" y2="239.908"/><line x1="338.998" y1="239.908" x2="342.791" y2="236.116"/>
<line x1="341.262" y1="241.128" x2="345.054" y2="241.128"/><line x1="343.158" y1="239.232" x2="343.158" y2="243.024"/><line x1="341.262" y1="239.232" x2="345.054" y2="243.024"/><line x1="341.262" y1="243.024" x2="345.054" y2="239.232"/>
<line x1="343.525" y1="229.36" x2="347.317" y2="229.36"/><line x1="345.421" y1="227.464" x2="345.421" y2="231.256"/><line x1="343.525" y1="227.464" x2="347.317" y2="231.256"/><line x1="343.525" y1="231.256" x2="347.317" y2="227.464"/>
<line x1="345.789" y1="253.151" x2="349.581" y2="253.151"/><line x1="347.685" y1="251.255" x2="347.685" y2="255.047"/><line x1="345.789" y1="251.255" x2="349.581" y2="255.047"/><line x1="345.789" y1="255.047" x2="349.581" y2="251.255"/>
<line x1="348.052" y1="231.487" x2="351.844" y2="231.487"/><line x1="349.948" y1="229.591" x2="349.948" y2="233.383"/><line x1="348.052" y1="229.591" x2="351.844" y2="233.383"/><line x1="348.052" y1="233.383" x2="351.844" y2="229.591"/>
<line x1="350.316" y1="237.991" x2="354.108" y2="237.991"/><line x1="352.212" y1="236.095" x2="352.212" y2="239.887"/><line x1="350.316" y1="236.095" x2="354.108" y2="239.887"/><line x1="350.316" y1="239.887" x2="354.108" y2="236.095"/>
<line x1="352.579" y1="245.697" x2="356.371" y2="245.697"/><line x1="354.475" y1="243.801" x2="354.475" y2="247.593"/><line x1="352.579" y1="243.801" x2="356.371" y2="247.593"/><line x1="352.579" y1="247.593" x2="356.371" y2="243.801"/>
<line x1="354.842" y1="248.806" x2="358.635" y2="248.806"/><line x1="356.738" y1="246.91" x2="356.738" y2="250.703"/><line x1="354.842" y1="246.91" x2="358.635" y2="250.703"/><line x1="354.842" y1="250.703" x2="358.635" y2="246.91"/>
<line x1="357.106" y1="235.502" x2="360.898" y2="235.502"/><line x1="359.002" y1="233.605" x2="359.002" y2="237.398"/><line x1="357.106" y1="233.605" x2="360.898" y2="237.398"/><line x1="357.106" y1="237.398" x2="360.898" y2="233.605"/>
<line x1="359.369" y1="226.548" x2="363.161" y2="226.548"/><line x1="361.265" y1="224.652" x2="361.265" y2="228.444"/><line x1="359.369" y1="224.652" x2="363.161" y2="228.444"/><line x1="359.369" y1="228.444" x2="363.161" y2="224.652"/>
<line x1="361.633" y1="218.26" x2="365.425" y2="218.26"/><line x1="363.529" y1="216.363" x2="363.529" y2="220.156"/><line x1="361.633" y1="216.363" x2="365.425" y2="220.156"/><line x1="361.633" y1="220.156" x2="365.425" y2="216.363"/>
<line x1="363.896" y1="203.468" x2="367.688" y2="203.468"/><line x1="365.792" y1="201.571" x2="365.792" y2="205.364"/><line x1="363.896" y1="201.571" x2="367.688" y2="205.364"/><line x1="363.896" y1="205.364" x2="367.688" y2="201.571"/>
<line x1="366.159" y1="178.676" x2="369.952" y2="178.676"/><line x1="368.056" y1="176.78" x2="368.056" y2="180.572"/><line x1="366.159" y1="176.78" x2="369.952" y2="180.572"/><line x1="366.159" y1="180.572" x2="369.952" y2="176.78"/>
<line x1="368.423" y1="167.501" x2="372.215" y2="167.501"/><line x1="370.319" y1="165.605" x2="370.319" y2="169.397"/><line x1="368.423" y1="165.605" x2="372.215" y2="169.397"/><line x1="368.423" y1="169.397" x2="372.215" y2="165.605"/>
<line x1="370.686" y1="184.269" x2="374.478" y2="184.269"/><line x1="372.582" y1="182.373" x2="372.582" y2="186.165"/><line x1="370.686" y1="182.373" x2="374.478" y2="186.165"/><line x1="370.686" y1="186.165" x2="374.478" y2="182.373"/>
<line x1="372.95" y1="157.373" x2="376.742" y2="157.373"/><line x1="374.846" y1="155.477" x2="374.846" y2="159.269"/><line x1="372.95" y1="155.477" x2="376.742" y2="159.269"/><line x1="372.95" y1="159.269" x2="376.742" y2="155.477"/>
<line x1="375.213" y1="129.274" x2="379.005" y2="129.274"/><line x1="377.109" y1="127.378" x2="377.109" y2="131.17"/><line x1="375.213" y1="127.378" x2="379.005" y2="131.17"/><line x1="375.213" y1="131.17" x2="379.005" y2="127.378"/>
<line x1="377.477" y1="117.603" x2="381.269" y2="117.603"/><line x1="379.373" y1="115.707" x2="379.373" y2="119.499"/><line x1="377.477" y1="115.707" x2="381.269" y2="119.499"/><line x1="377.477" y1="119.499" x2="381.269" y2="115.707"/>
<line x1="379.74" y1="114.115" x2="383.532" y2="114.115"/><line x1="381.636" y1="112.219" x2="381.636" y2="116.011"/><line x1="379.74" y1="112.219" x2="383.532" y2="116.011"/><line x1="379.74" y1="116.011" x2="383.532" y2="112.219"/>
<line x1="382.003" y1="99.4457" x2="385.796" y2="99.4457"/><line x1="383.899" y1="97.5497" x2="383.899" y2="101.342"/><line x1="382.003" y1="97.5497" x2="385.796" y2="101.342"/><line x1="382.003" y1="101.342" x2="385.796" y2="97.5497"/>
<line x1="384.267" y1="87.2743" x2="388.059" y2="87.2743"/><line x1="386.163" y1="85.3782" x2="386.163" y2="89.1704"/><line x1="384.267" y1="85.3782" x2="388.059" y2="89.1704"/><line x1="384.267" y1="89.1704" x2="388.059" y2="85.3782"/>
<line x1="386.53" y1="81.8413" x2="390.322" y2="81.8413"/><line x1="388.426" y1="79.9452" x2="388.426" y2="83.7374"/><line x1="386.53" y1="79.9452" x2="390.322" y2="83.7374"/><line x1="386.53" y1="83.7374" x2="390.322" y2="79.9452"/>
<line x1="388.794" y1="48.725" x2="392.586" y2="48.725"/><line x1="390.69" y1="46.8289" x2="390.69" y2="50.6211"/><line x1="388.794" y1="46.8289" x2="392.586" y2="50.6211"/><line x1="388.794" y1="50.6211" x2="392.586" y2="46.8289"/>
</g>
<path d="M0.5,289.342h 566.929" fill="none" stroke="#0000ff"/>
<path d="M263.938,399.568v -358.233" fill="none" stroke="#0000ff"/>
<path d="M266.202,399.568v -358.233" fill="none" stroke="#0000ff"/>
<text xml:space="preserve" x="109.525" y="18.0128" fill="black" font-size="14.0403" font-family="Helvetica">^2 v.s. calibration factor without 1st bin and without last bin</text>
<text xml:space="preserve" x="101.94" y="18.0128" fill="black" font-size="14.0403" font-family="Times">&#0967;</text></svg>
