<?xml version="1.0" standalone="no"?>
<svg width="567.429" height="413.846" viewBox="0 0 567.429 413.846" xmlns="http://www.w3.org/2000/svg" shape-rendering="crispEdges">
<title>
figures/chi2zoomin_4PMTnpefilelist20.svg
</title>
<desc>
Creator: ROOT Version 6.18/04
CreationDate: Wed Nov  6 14:44:37 2019</desc>
<defs>
</defs>
<rect x="0.5" y="0" width="566.929" height="413.346" fill="white"/>
<rect x="57.1929" y="41.3346" width="453.543" height="330.677" fill="white"/>
<rect x="57.1929" y="41.3346" width="453.543" height="330.677" fill="none" stroke="black"/>
<path d="M57.1929,372.012h 453.543" fill="none" stroke="black"/>
<path d="M66.3438,41.3346v 330.677" fill="none" stroke="black" stroke-dasharray=" 1, 2"/>
<path d="M122.592,41.3346v 330.677" fill="none" stroke="black" stroke-dasharray=" 1, 2"/>
<path d="M178.841,41.3346v 330.677" fill="none" stroke="black" stroke-dasharray=" 1, 2"/>
<path d="M235.09,41.3346v 330.677" fill="none" stroke="black" stroke-dasharray=" 1, 2"/>
<path d="M291.338,41.3346v 330.677" fill="none" stroke="black" stroke-dasharray=" 1, 2"/>
<path d="M347.587,41.3346v 330.677" fill="none" stroke="black" stroke-dasharray=" 1, 2"/>
<path d="M403.835,41.3346v 330.677" fill="none" stroke="black" stroke-dasharray=" 1, 2"/>
<path d="M460.084,41.3346v 330.677" fill="none" stroke="black" stroke-dasharray=" 1, 2"/>
<path d="M66.3438,41.3346v 330.677" fill="none" stroke="black" stroke-dasharray=" 1, 2"/>
<path d="M460.084,41.3346v 330.677" fill="none" stroke="black" stroke-dasharray=" 1, 2"/>
<path d="M57.1929,372.012v -330.677" fill="none" stroke="black"/>
<path d="M57.1929,372.012h 453.543" fill="none" stroke="black"/>
<path d="M66.3438,362.091v 9.92031" fill="none" stroke="black"/>
<path d="M77.5935,367.052v 4.96016" fill="none" stroke="black"/>
<path d="M88.8432,367.052v 4.96016" fill="none" stroke="black"/>
<path d="M100.093,367.052v 4.96016" fill="none" stroke="black"/>
<path d="M111.343,367.052v 4.96016" fill="none" stroke="black"/>
<path d="M122.592,362.091v 9.92031" fill="none" stroke="black"/>
<path d="M133.842,367.052v 4.96016" fill="none" stroke="black"/>
<path d="M145.092,367.052v 4.96016" fill="none" stroke="black"/>
<path d="M156.342,367.052v 4.96016" fill="none" stroke="black"/>
<path d="M167.591,367.052v 4.96016" fill="none" stroke="black"/>
<path d="M178.841,362.091v 9.92031" fill="none" stroke="black"/>
<path d="M190.091,367.052v 4.96016" fill="none" stroke="black"/>
<path d="M201.34,367.052v 4.96016" fill="none" stroke="black"/>
<path d="M212.59,367.052v 4.96016" fill="none" stroke="black"/>
<path d="M223.84,367.052v 4.96016" fill="none" stroke="black"/>
<path d="M235.09,362.091v 9.92031" fill="none" stroke="black"/>
<path d="M246.339,367.052v 4.96016" fill="none" stroke="black"/>
<path d="M257.589,367.052v 4.96016" fill="none" stroke="black"/>
<path d="M268.839,367.052v 4.96016" fill="none" stroke="black"/>
<path d="M280.088,367.052v 4.96016" fill="none" stroke="black"/>
<path d="M291.338,362.091v 9.92031" fill="none" stroke="black"/>
<path d="M302.588,367.052v 4.96016" fill="none" stroke="black"/>
<path d="M313.838,367.052v 4.96016" fill="none" stroke="black"/>
<path d="M325.087,367.052v 4.96016" fill="none" stroke="black"/>
<path d="M336.337,367.052v 4.96016" fill="none" stroke="black"/>
<path d="M347.587,362.091v 9.92031" fill="none" stroke="black"/>
<path d="M358.836,367.052v 4.96016" fill="none" stroke="black"/>
<path d="M370.086,367.052v 4.96016" fill="none" stroke="black"/>
<path d="M381.336,367.052v 4.96016" fill="none" stroke="black"/>
<path d="M392.586,367.052v 4.96016" fill="none" stroke="black"/>
<path d="M403.835,362.091v 9.92031" fill="none" stroke="black"/>
<path d="M415.085,367.052v 4.96016" fill="none" stroke="black"/>
<path d="M426.335,367.052v 4.96016" fill="none" stroke="black"/>
<path d="M437.585,367.052v 4.96016" fill="none" stroke="black"/>
<path d="M448.834,367.052v 4.96016" fill="none" stroke="black"/>
<path d="M460.084,362.091v 9.92031" fill="none" stroke="black"/>
<path d="M66.3438,362.091v 9.92031" fill="none" stroke="black"/>
<path d="M460.084,362.091v 9.92031" fill="none" stroke="black"/>
<path d="M471.334,367.052v 4.96016" fill="none" stroke="black"/>
<path d="M482.583,367.052v 4.96016" fill="none" stroke="black"/>
<path d="M493.833,367.052v 4.96016" fill="none" stroke="black"/>
<path d="M505.083,367.052v 4.96016" fill="none" stroke="black"/>
<text xml:space="preserve" x="49.3242" y="385.379" fill="black" font-size="13.7726" font-family="Helvetica">1.535</text>
<text xml:space="preserve" x="109.525" y="385.379" fill="black" font-size="13.7726" font-family="Helvetica">1.54</text>
<text xml:space="preserve" x="162.141" y="385.379" fill="black" font-size="13.7726" font-family="Helvetica">1.545</text>
<text xml:space="preserve" x="221.868" y="385.379" fill="black" font-size="13.7726" font-family="Helvetica">1.55</text>
<text xml:space="preserve" x="274.484" y="385.379" fill="black" font-size="13.7726" font-family="Helvetica">1.555</text>
<text xml:space="preserve" x="334.685" y="385.379" fill="black" font-size="13.7726" font-family="Helvetica">1.56</text>
<text xml:space="preserve" x="386.827" y="385.379" fill="black" font-size="13.7726" font-family="Helvetica">1.565</text>
<text xml:space="preserve" x="447.028" y="385.379" fill="black" font-size="13.7726" font-family="Helvetica">1.57</text>
<text xml:space="preserve" x="413.372" y="400.074" fill="black" font-size="13.7726" font-family="Helvetica">calibration factor</text>
<path d="M57.1929,372.012v -330.677" fill="none" stroke="black"/>
<path d="M70.7992,343.531h -13.6063" fill="none" stroke="black"/>
<path d="M63.9961,329.752h -6.80315" fill="none" stroke="black"/>
<path d="M63.9961,315.974h -6.80315" fill="none" stroke="black"/>
<path d="M63.9961,302.196h -6.80315" fill="none" stroke="black"/>
<path d="M70.7992,288.418h -13.6063" fill="none" stroke="black"/>
<path d="M63.9961,274.639h -6.80315" fill="none" stroke="black"/>
<path d="M63.9961,260.861h -6.80315" fill="none" stroke="black"/>
<path d="M63.9961,247.083h -6.80315" fill="none" stroke="black"/>
<path d="M70.7992,233.305h -13.6063" fill="none" stroke="black"/>
<path d="M63.9961,219.527h -6.80315" fill="none" stroke="black"/>
<path d="M63.9961,205.748h -6.80315" fill="none" stroke="black"/>
<path d="M63.9961,191.97h -6.80315" fill="none" stroke="black"/>
<path d="M70.7992,178.192h -13.6063" fill="none" stroke="black"/>
<path d="M63.9961,164.414h -6.80315" fill="none" stroke="black"/>
<path d="M63.9961,150.636h -6.80315" fill="none" stroke="black"/>
<path d="M63.9961,136.857h -6.80315" fill="none" stroke="black"/>
<path d="M70.7992,123.079h -13.6063" fill="none" stroke="black"/>
<path d="M63.9961,109.301h -6.80315" fill="none" stroke="black"/>
<path d="M63.9961,95.5227h -6.80315" fill="none" stroke="black"/>
<path d="M63.9961,81.7445h -6.80315" fill="none" stroke="black"/>
<path d="M70.7992,67.9663h -13.6063" fill="none" stroke="black"/>
<path d="M70.7992,343.531h -13.6063" fill="none" stroke="black"/>
<path d="M63.9961,357.309h -6.80315" fill="none" stroke="black"/>
<path d="M63.9961,371.087h -6.80315" fill="none" stroke="black"/>
<path d="M70.7992,67.9663h -13.6063" fill="none" stroke="black"/>
<path d="M63.9961,54.1881h -6.80315" fill="none" stroke="black"/>
<text xml:space="preserve" x="24.6751" y="347.931" fill="black" font-size="13.7726" font-family="Helvetica">2052</text>
<text xml:space="preserve" x="24.6751" y="292.945" fill="black" font-size="13.7726" font-family="Helvetica">2054</text>
<text xml:space="preserve" x="24.6751" y="237.959" fill="black" font-size="13.7726" font-family="Helvetica">2056</text>
<text xml:space="preserve" x="24.6751" y="182.498" fill="black" font-size="13.7726" font-family="Helvetica">2058</text>
<text xml:space="preserve" x="25.1491" y="127.512" fill="black" font-size="13.7726" font-family="Helvetica">2060</text>
<text xml:space="preserve" x="24.6751" y="72.5252" fill="black" font-size="13.7726" font-family="Helvetica">2062</text>
<g transform="rotate(-90,7.61032,45.98)">
<text xml:space="preserve" x="7.61032" y="45.98" fill="black" font-size="9.34839" font-family="Helvetica">2</text>
</g>
<g transform="rotate(-90,11.8765,50.2462)">
<text xml:space="preserve" x="11.8765" y="50.2462" fill="black" font-size="13.7726" font-family="Helvetica"> </text>
</g>
<g transform="rotate(-90,11.8765,57.3565)">
<text xml:space="preserve" x="11.8765" y="57.3565" fill="black" font-size="13.7726" font-family="Times">&#0967;</text>
</g>
<text xml:space="preserve" x="109.525" y="18.0128" fill="black" font-size="14.0403" font-family="Helvetica">^2 v.s. calibration factor without 1st bin and without last bin</text>
<text xml:space="preserve" x="101.94" y="18.0128" fill="black" font-size="14.0403" font-family="Times">&#0967;</text>
<g stroke="black" stroke-width="1" fill="none">
<line x1="55.4479" y1="279.814" x2="59.2401" y2="279.814"/><line x1="57.344" y1="277.918" x2="57.344" y2="281.71"/><line x1="55.4479" y1="277.918" x2="59.2401" y2="281.71"/><line x1="55.4479" y1="281.71" x2="59.2401" y2="277.918"/>
<line x1="57.6979" y1="279.814" x2="61.4901" y2="279.814"/><line x1="59.594" y1="277.918" x2="59.594" y2="281.71"/><line x1="57.6979" y1="277.918" x2="61.4901" y2="281.71"/><line x1="57.6979" y1="281.71" x2="61.4901" y2="277.918"/>
<line x1="59.9478" y1="278.79" x2="63.74" y2="278.79"/><line x1="61.8439" y1="276.894" x2="61.8439" y2="280.686"/><line x1="59.9478" y1="276.894" x2="63.74" y2="280.686"/><line x1="59.9478" y1="280.686" x2="63.74" y2="276.894"/>
<line x1="62.1978" y1="278.79" x2="65.9899" y2="278.79"/><line x1="64.0939" y1="276.894" x2="64.0939" y2="280.686"/><line x1="62.1978" y1="276.894" x2="65.9899" y2="280.686"/><line x1="62.1978" y1="280.686" x2="65.9899" y2="276.894"/>
<line x1="64.4477" y1="278.838" x2="68.2399" y2="278.838"/><line x1="66.3438" y1="276.942" x2="66.3438" y2="280.734"/><line x1="64.4477" y1="276.942" x2="68.2399" y2="280.734"/><line x1="64.4477" y1="280.734" x2="68.2399" y2="276.942"/>
<line x1="66.6977" y1="277.814" x2="70.4898" y2="277.814"/><line x1="68.5937" y1="275.917" x2="68.5937" y2="279.71"/><line x1="66.6977" y1="275.917" x2="70.4898" y2="279.71"/><line x1="66.6977" y1="279.71" x2="70.4898" y2="275.917"/>
<line x1="68.9476" y1="276.785" x2="72.7398" y2="276.785"/><line x1="70.8437" y1="274.888" x2="70.8437" y2="278.681"/><line x1="68.9476" y1="274.888" x2="72.7398" y2="278.681"/><line x1="68.9476" y1="278.681" x2="72.7398" y2="274.888"/>
<line x1="71.1975" y1="276.785" x2="74.9897" y2="276.785"/><line x1="73.0936" y1="274.888" x2="73.0936" y2="278.681"/><line x1="71.1975" y1="274.888" x2="74.9897" y2="278.681"/><line x1="71.1975" y1="278.681" x2="74.9897" y2="274.888"/>
<line x1="73.4475" y1="274.719" x2="77.2397" y2="274.719"/><line x1="75.3436" y1="272.823" x2="75.3436" y2="276.615"/><line x1="73.4475" y1="272.823" x2="77.2397" y2="276.615"/><line x1="73.4475" y1="276.615" x2="77.2397" y2="272.823"/>
<line x1="75.6974" y1="279.004" x2="79.4896" y2="279.004"/><line x1="77.5935" y1="277.108" x2="77.5935" y2="280.9"/><line x1="75.6974" y1="277.108" x2="79.4896" y2="280.9"/><line x1="75.6974" y1="280.9" x2="79.4896" y2="277.108"/>
<line x1="77.9474" y1="283.288" x2="81.7395" y2="283.288"/><line x1="79.8435" y1="281.392" x2="79.8435" y2="285.184"/><line x1="77.9474" y1="281.392" x2="81.7395" y2="285.184"/><line x1="77.9474" y1="285.184" x2="81.7395" y2="281.392"/>
<line x1="80.1973" y1="282.488" x2="83.9895" y2="282.488"/><line x1="82.0934" y1="280.592" x2="82.0934" y2="284.384"/><line x1="80.1973" y1="280.592" x2="83.9895" y2="284.384"/><line x1="80.1973" y1="284.384" x2="83.9895" y2="280.592"/>
<line x1="82.4473" y1="285.739" x2="86.2394" y2="285.739"/><line x1="84.3433" y1="283.843" x2="84.3433" y2="287.635"/><line x1="82.4473" y1="283.843" x2="86.2394" y2="287.635"/><line x1="82.4473" y1="287.635" x2="86.2394" y2="283.843"/>
<line x1="84.6972" y1="285.739" x2="88.4894" y2="285.739"/><line x1="86.5933" y1="283.843" x2="86.5933" y2="287.635"/><line x1="84.6972" y1="283.843" x2="88.4894" y2="287.635"/><line x1="84.6972" y1="287.635" x2="88.4894" y2="283.843"/>
<line x1="86.9472" y1="284.703" x2="90.7393" y2="284.703"/><line x1="88.8432" y1="282.807" x2="88.8432" y2="286.599"/><line x1="86.9472" y1="282.807" x2="90.7393" y2="286.599"/><line x1="86.9472" y1="286.599" x2="90.7393" y2="282.807"/>
<line x1="89.1971" y1="287.949" x2="92.9893" y2="287.949"/><line x1="91.0932" y1="286.053" x2="91.0932" y2="289.845"/><line x1="89.1971" y1="286.053" x2="92.9893" y2="289.845"/><line x1="89.1971" y1="289.845" x2="92.9893" y2="286.053"/>
<line x1="91.447" y1="285.865" x2="95.2392" y2="285.865"/><line x1="93.3431" y1="283.969" x2="93.3431" y2="287.761"/><line x1="91.447" y1="283.969" x2="95.2392" y2="287.761"/><line x1="91.447" y1="287.761" x2="95.2392" y2="283.969"/>
<line x1="93.697" y1="284.82" x2="97.4892" y2="284.82"/><line x1="95.5931" y1="282.924" x2="95.5931" y2="286.716"/><line x1="93.697" y1="282.924" x2="97.4892" y2="286.716"/><line x1="93.697" y1="286.716" x2="97.4892" y2="282.924"/>
<line x1="95.9469" y1="283.771" x2="99.7391" y2="283.771"/><line x1="97.843" y1="281.875" x2="97.843" y2="285.667"/><line x1="95.9469" y1="281.875" x2="99.7391" y2="285.667"/><line x1="95.9469" y1="285.667" x2="99.7391" y2="281.875"/>
<line x1="98.1969" y1="283.896" x2="101.989" y2="283.896"/><line x1="100.093" y1="282" x2="100.093" y2="285.792"/><line x1="98.1969" y1="282" x2="101.989" y2="285.792"/><line x1="98.1969" y1="285.792" x2="101.989" y2="282"/>
<line x1="100.447" y1="282.844" x2="104.239" y2="282.844"/><line x1="102.343" y1="280.948" x2="102.343" y2="284.741"/><line x1="100.447" y1="280.948" x2="104.239" y2="284.741"/><line x1="100.447" y1="284.741" x2="104.239" y2="280.948"/>
<line x1="102.697" y1="284.536" x2="106.489" y2="284.536"/><line x1="104.593" y1="282.64" x2="104.593" y2="286.432"/><line x1="102.697" y1="282.64" x2="106.489" y2="286.432"/><line x1="102.697" y1="286.432" x2="106.489" y2="282.64"/>
<line x1="104.947" y1="284.536" x2="108.739" y2="284.536"/><line x1="106.843" y1="282.64" x2="106.843" y2="286.432"/><line x1="104.947" y1="282.64" x2="108.739" y2="286.432"/><line x1="104.947" y1="286.432" x2="108.739" y2="282.64"/>
<line x1="107.197" y1="283.482" x2="110.989" y2="283.482"/><line x1="109.093" y1="281.586" x2="109.093" y2="285.378"/><line x1="107.197" y1="281.586" x2="110.989" y2="285.378"/><line x1="107.197" y1="285.378" x2="110.989" y2="281.586"/>
<line x1="109.447" y1="287.769" x2="113.239" y2="287.769"/><line x1="111.343" y1="285.873" x2="111.343" y2="289.665"/><line x1="109.447" y1="285.873" x2="113.239" y2="289.665"/><line x1="109.447" y1="289.665" x2="113.239" y2="285.873"/>
<line x1="111.697" y1="283.53" x2="115.489" y2="283.53"/><line x1="113.593" y1="281.634" x2="113.593" y2="285.426"/><line x1="111.697" y1="281.634" x2="115.489" y2="285.426"/><line x1="111.697" y1="285.426" x2="115.489" y2="281.634"/>
<line x1="113.946" y1="286.752" x2="117.739" y2="286.752"/><line x1="115.843" y1="284.855" x2="115.843" y2="288.648"/><line x1="113.946" y1="284.855" x2="117.739" y2="288.648"/><line x1="113.946" y1="288.648" x2="117.739" y2="284.855"/>
<line x1="116.196" y1="286.752" x2="119.989" y2="286.752"/><line x1="118.093" y1="284.855" x2="118.093" y2="288.648"/><line x1="116.196" y1="284.855" x2="119.989" y2="288.648"/><line x1="116.196" y1="288.648" x2="119.989" y2="284.855"/>
<line x1="118.446" y1="283.051" x2="122.239" y2="283.051"/><line x1="120.342" y1="281.155" x2="120.342" y2="284.947"/><line x1="118.446" y1="281.155" x2="122.239" y2="284.947"/><line x1="118.446" y1="284.947" x2="122.239" y2="281.155"/>
<line x1="120.696" y1="283.051" x2="124.488" y2="283.051"/><line x1="122.592" y1="281.155" x2="122.592" y2="284.947"/><line x1="120.696" y1="281.155" x2="124.488" y2="284.947"/><line x1="120.696" y1="284.947" x2="124.488" y2="281.155"/>
<line x1="122.946" y1="283.051" x2="126.738" y2="283.051"/><line x1="124.842" y1="281.155" x2="124.842" y2="284.947"/><line x1="122.946" y1="281.155" x2="126.738" y2="284.947"/><line x1="122.946" y1="284.947" x2="126.738" y2="281.155"/>
<line x1="125.196" y1="281.203" x2="128.988" y2="281.203"/><line x1="127.092" y1="279.307" x2="127.092" y2="283.1"/><line x1="125.196" y1="279.307" x2="128.988" y2="283.1"/><line x1="125.196" y1="283.1" x2="128.988" y2="279.307"/>
<line x1="127.446" y1="281.203" x2="131.238" y2="281.203"/><line x1="129.342" y1="279.307" x2="129.342" y2="283.1"/><line x1="127.446" y1="279.307" x2="131.238" y2="283.1"/><line x1="127.446" y1="283.1" x2="131.238" y2="279.307"/>
<line x1="129.696" y1="281.203" x2="133.488" y2="281.203"/><line x1="131.592" y1="279.307" x2="131.592" y2="283.1"/><line x1="129.696" y1="279.307" x2="133.488" y2="283.1"/><line x1="129.696" y1="283.1" x2="133.488" y2="279.307"/>
<line x1="131.946" y1="284.716" x2="135.738" y2="284.716"/><line x1="133.842" y1="282.82" x2="133.842" y2="286.613"/><line x1="131.946" y1="282.82" x2="135.738" y2="286.613"/><line x1="131.946" y1="286.613" x2="135.738" y2="282.82"/>
<line x1="134.196" y1="283.927" x2="137.988" y2="283.927"/><line x1="136.092" y1="282.031" x2="136.092" y2="285.823"/><line x1="134.196" y1="282.031" x2="137.988" y2="285.823"/><line x1="134.196" y1="285.823" x2="137.988" y2="282.031"/>
<line x1="136.446" y1="288.256" x2="140.238" y2="288.256"/><line x1="138.342" y1="286.36" x2="138.342" y2="290.152"/><line x1="136.446" y1="286.36" x2="140.238" y2="290.152"/><line x1="136.446" y1="290.152" x2="140.238" y2="286.36"/>
<line x1="138.696" y1="292.544" x2="142.488" y2="292.544"/><line x1="140.592" y1="290.648" x2="140.592" y2="294.44"/><line x1="138.696" y1="290.648" x2="142.488" y2="294.44"/><line x1="138.696" y1="294.44" x2="142.488" y2="290.648"/>
<line x1="140.946" y1="292.544" x2="144.738" y2="292.544"/><line x1="142.842" y1="290.648" x2="142.842" y2="294.44"/><line x1="140.946" y1="290.648" x2="144.738" y2="294.44"/><line x1="140.946" y1="294.44" x2="144.738" y2="290.648"/>
<line x1="143.196" y1="291.469" x2="146.988" y2="291.469"/><line x1="145.092" y1="289.573" x2="145.092" y2="293.365"/><line x1="143.196" y1="289.573" x2="146.988" y2="293.365"/><line x1="143.196" y1="293.365" x2="146.988" y2="289.573"/>
<line x1="145.446" y1="289.575" x2="149.238" y2="289.575"/><line x1="147.342" y1="287.679" x2="147.342" y2="291.471"/><line x1="145.446" y1="287.679" x2="149.238" y2="291.471"/><line x1="145.446" y1="291.471" x2="149.238" y2="287.679"/>
<line x1="147.696" y1="291.273" x2="151.488" y2="291.273"/><line x1="149.592" y1="289.377" x2="149.592" y2="293.169"/><line x1="147.696" y1="289.377" x2="151.488" y2="293.169"/><line x1="147.696" y1="293.169" x2="151.488" y2="289.377"/>
<line x1="149.946" y1="291.273" x2="153.738" y2="291.273"/><line x1="151.842" y1="289.377" x2="151.842" y2="293.169"/><line x1="149.946" y1="289.377" x2="153.738" y2="293.169"/><line x1="149.946" y1="293.169" x2="153.738" y2="289.377"/>
<line x1="152.196" y1="294.483" x2="155.988" y2="294.483"/><line x1="154.092" y1="292.587" x2="154.092" y2="296.379"/><line x1="152.196" y1="292.587" x2="155.988" y2="296.379"/><line x1="152.196" y1="296.379" x2="155.988" y2="292.587"/>
<line x1="154.445" y1="295.815" x2="158.238" y2="295.815"/><line x1="156.342" y1="293.919" x2="156.342" y2="297.711"/><line x1="154.445" y1="293.919" x2="158.238" y2="297.711"/><line x1="154.445" y1="297.711" x2="158.238" y2="293.919"/>
<line x1="156.695" y1="295.815" x2="160.488" y2="295.815"/><line x1="158.591" y1="293.919" x2="158.591" y2="297.711"/><line x1="156.695" y1="293.919" x2="160.488" y2="297.711"/><line x1="156.695" y1="297.711" x2="160.488" y2="293.919"/>
<line x1="158.945" y1="294.73" x2="162.738" y2="294.73"/><line x1="160.841" y1="292.834" x2="160.841" y2="296.626"/><line x1="158.945" y1="292.834" x2="162.738" y2="296.626"/><line x1="158.945" y1="296.626" x2="162.738" y2="292.834"/>
<line x1="161.195" y1="298.235" x2="164.987" y2="298.235"/><line x1="163.091" y1="296.339" x2="163.091" y2="300.131"/><line x1="161.195" y1="296.339" x2="164.987" y2="300.131"/><line x1="161.195" y1="300.131" x2="164.987" y2="296.339"/>
<line x1="163.445" y1="298.235" x2="167.237" y2="298.235"/><line x1="165.341" y1="296.339" x2="165.341" y2="300.131"/><line x1="163.445" y1="296.339" x2="167.237" y2="300.131"/><line x1="163.445" y1="300.131" x2="167.237" y2="296.339"/>
<line x1="165.695" y1="296.063" x2="169.487" y2="296.063"/><line x1="167.591" y1="294.167" x2="167.591" y2="297.959"/><line x1="165.695" y1="294.167" x2="169.487" y2="297.959"/><line x1="165.695" y1="297.959" x2="169.487" y2="294.167"/>
<line x1="167.945" y1="296.063" x2="171.737" y2="296.063"/><line x1="169.841" y1="294.167" x2="169.841" y2="297.959"/><line x1="167.945" y1="294.167" x2="171.737" y2="297.959"/><line x1="167.945" y1="297.959" x2="171.737" y2="294.167"/>
<line x1="170.195" y1="294.975" x2="173.987" y2="294.975"/><line x1="172.091" y1="293.078" x2="172.091" y2="296.871"/><line x1="170.195" y1="293.078" x2="173.987" y2="296.871"/><line x1="170.195" y1="296.871" x2="173.987" y2="293.078"/>
<line x1="172.445" y1="297.369" x2="176.237" y2="297.369"/><line x1="174.341" y1="295.473" x2="174.341" y2="299.265"/><line x1="172.445" y1="295.473" x2="176.237" y2="299.265"/><line x1="172.445" y1="299.265" x2="176.237" y2="295.473"/>
<line x1="174.695" y1="297.348" x2="178.487" y2="297.348"/><line x1="176.591" y1="295.452" x2="176.591" y2="299.244"/><line x1="174.695" y1="295.452" x2="178.487" y2="299.244"/><line x1="174.695" y1="299.244" x2="178.487" y2="295.452"/>
<line x1="176.945" y1="297.348" x2="180.737" y2="297.348"/><line x1="178.841" y1="295.452" x2="178.841" y2="299.244"/><line x1="176.945" y1="295.452" x2="180.737" y2="299.244"/><line x1="176.945" y1="299.244" x2="180.737" y2="295.452"/>
<line x1="179.195" y1="301.638" x2="182.987" y2="301.638"/><line x1="181.091" y1="299.742" x2="181.091" y2="303.534"/><line x1="179.195" y1="299.742" x2="182.987" y2="303.534"/><line x1="179.195" y1="303.534" x2="182.987" y2="299.742"/>
<line x1="181.445" y1="299.452" x2="185.237" y2="299.452"/><line x1="183.341" y1="297.556" x2="183.341" y2="301.348"/><line x1="181.445" y1="297.556" x2="185.237" y2="301.348"/><line x1="181.445" y1="301.348" x2="185.237" y2="297.556"/>
<line x1="183.695" y1="298.355" x2="187.487" y2="298.355"/><line x1="185.591" y1="296.459" x2="185.591" y2="300.251"/><line x1="183.695" y1="296.459" x2="187.487" y2="300.251"/><line x1="183.695" y1="300.251" x2="187.487" y2="296.459"/>
<line x1="185.945" y1="298.355" x2="189.737" y2="298.355"/><line x1="187.841" y1="296.459" x2="187.841" y2="300.251"/><line x1="185.945" y1="296.459" x2="189.737" y2="300.251"/><line x1="185.945" y1="300.251" x2="189.737" y2="296.459"/>
<line x1="188.195" y1="296.78" x2="191.987" y2="296.78"/><line x1="190.091" y1="294.883" x2="190.091" y2="298.676"/><line x1="188.195" y1="294.883" x2="191.987" y2="298.676"/><line x1="188.195" y1="298.676" x2="191.987" y2="294.883"/>
<line x1="190.445" y1="295.672" x2="194.237" y2="295.672"/><line x1="192.341" y1="293.776" x2="192.341" y2="297.568"/><line x1="190.445" y1="293.776" x2="194.237" y2="297.568"/><line x1="190.445" y1="297.568" x2="194.237" y2="293.776"/>
<line x1="192.695" y1="295.672" x2="196.487" y2="295.672"/><line x1="194.591" y1="293.776" x2="194.591" y2="297.568"/><line x1="192.695" y1="293.776" x2="196.487" y2="297.568"/><line x1="192.695" y1="297.568" x2="196.487" y2="293.776"/>
<line x1="194.944" y1="298.855" x2="198.737" y2="298.855"/><line x1="196.841" y1="296.959" x2="196.841" y2="300.752"/><line x1="194.944" y1="296.959" x2="198.737" y2="300.752"/><line x1="194.944" y1="300.752" x2="198.737" y2="296.959"/>
<line x1="197.194" y1="298.811" x2="200.987" y2="298.811"/><line x1="199.09" y1="296.915" x2="199.09" y2="300.707"/><line x1="197.194" y1="296.915" x2="200.987" y2="300.707"/><line x1="197.194" y1="300.707" x2="200.987" y2="296.915"/>
<line x1="199.444" y1="300.532" x2="203.237" y2="300.532"/><line x1="201.34" y1="298.636" x2="201.34" y2="302.428"/><line x1="199.444" y1="298.636" x2="203.237" y2="302.428"/><line x1="199.444" y1="302.428" x2="203.237" y2="298.636"/>
<line x1="201.694" y1="298.304" x2="205.486" y2="298.304"/><line x1="203.59" y1="296.408" x2="203.59" y2="300.2"/><line x1="201.694" y1="296.408" x2="205.486" y2="300.2"/><line x1="201.694" y1="300.2" x2="205.486" y2="296.408"/>
<line x1="203.944" y1="302.599" x2="207.736" y2="302.599"/><line x1="205.84" y1="300.703" x2="205.84" y2="304.495"/><line x1="203.944" y1="300.703" x2="207.736" y2="304.495"/><line x1="203.944" y1="304.495" x2="207.736" y2="300.703"/>
<line x1="206.194" y1="301.481" x2="209.986" y2="301.481"/><line x1="208.09" y1="299.585" x2="208.09" y2="303.377"/><line x1="206.194" y1="299.585" x2="209.986" y2="303.377"/><line x1="206.194" y1="303.377" x2="209.986" y2="299.585"/>
<line x1="208.444" y1="301.481" x2="212.236" y2="301.481"/><line x1="210.34" y1="299.585" x2="210.34" y2="303.377"/><line x1="208.444" y1="299.585" x2="212.236" y2="303.377"/><line x1="208.444" y1="303.377" x2="212.236" y2="299.585"/>
<line x1="210.694" y1="300.293" x2="214.486" y2="300.293"/><line x1="212.59" y1="298.397" x2="212.59" y2="302.189"/><line x1="210.694" y1="298.397" x2="214.486" y2="302.189"/><line x1="210.694" y1="302.189" x2="214.486" y2="298.397"/>
<line x1="212.944" y1="300.293" x2="216.736" y2="300.293"/><line x1="214.84" y1="298.397" x2="214.84" y2="302.189"/><line x1="212.944" y1="298.397" x2="216.736" y2="302.189"/><line x1="212.944" y1="302.189" x2="216.736" y2="298.397"/>
<line x1="215.194" y1="298.047" x2="218.986" y2="298.047"/><line x1="217.09" y1="296.151" x2="217.09" y2="299.943"/><line x1="215.194" y1="296.151" x2="218.986" y2="299.943"/><line x1="215.194" y1="299.943" x2="218.986" y2="296.151"/>
<line x1="217.444" y1="302.342" x2="221.236" y2="302.342"/><line x1="219.34" y1="300.446" x2="219.34" y2="304.238"/><line x1="217.444" y1="300.446" x2="221.236" y2="304.238"/><line x1="217.444" y1="304.238" x2="221.236" y2="300.446"/>
<line x1="219.694" y1="301.11" x2="223.486" y2="301.11"/><line x1="221.59" y1="299.214" x2="221.59" y2="303.006"/><line x1="219.694" y1="299.214" x2="223.486" y2="303.006"/><line x1="219.694" y1="303.006" x2="223.486" y2="299.214"/>
<line x1="221.944" y1="301.11" x2="225.736" y2="301.11"/><line x1="223.84" y1="299.214" x2="223.84" y2="303.006"/><line x1="221.944" y1="299.214" x2="225.736" y2="303.006"/><line x1="221.944" y1="303.006" x2="225.736" y2="299.214"/>
<line x1="224.194" y1="301.11" x2="227.986" y2="301.11"/><line x1="226.09" y1="299.214" x2="226.09" y2="303.006"/><line x1="224.194" y1="299.214" x2="227.986" y2="303.006"/><line x1="224.194" y1="303.006" x2="227.986" y2="299.214"/>
<line x1="226.444" y1="299.98" x2="230.236" y2="299.98"/><line x1="228.34" y1="298.084" x2="228.34" y2="301.876"/><line x1="226.444" y1="298.084" x2="230.236" y2="301.876"/><line x1="226.444" y1="301.876" x2="230.236" y2="298.084"/>
<line x1="228.694" y1="300.039" x2="232.486" y2="300.039"/><line x1="230.59" y1="298.143" x2="230.59" y2="301.935"/><line x1="228.694" y1="298.143" x2="232.486" y2="301.935"/><line x1="228.694" y1="301.935" x2="232.486" y2="298.143"/>
<line x1="230.944" y1="304.335" x2="234.736" y2="304.335"/><line x1="232.84" y1="302.438" x2="232.84" y2="306.231"/><line x1="230.944" y1="302.438" x2="234.736" y2="306.231"/><line x1="230.944" y1="306.231" x2="234.736" y2="302.438"/>
<line x1="233.193" y1="303.573" x2="236.986" y2="303.573"/><line x1="235.09" y1="301.677" x2="235.09" y2="305.469"/><line x1="233.193" y1="301.677" x2="236.986" y2="305.469"/><line x1="233.193" y1="305.469" x2="236.986" y2="301.677"/>
<line x1="235.443" y1="302.443" x2="239.236" y2="302.443"/><line x1="237.34" y1="300.547" x2="237.34" y2="304.339"/><line x1="235.443" y1="300.547" x2="239.236" y2="304.339"/><line x1="235.443" y1="304.339" x2="239.236" y2="300.547"/>
<line x1="237.693" y1="302.443" x2="241.486" y2="302.443"/><line x1="239.589" y1="300.547" x2="239.589" y2="304.339"/><line x1="237.693" y1="300.547" x2="241.486" y2="304.339"/><line x1="237.693" y1="304.339" x2="241.486" y2="300.547"/>
<line x1="239.943" y1="302.443" x2="243.735" y2="302.443"/><line x1="241.839" y1="300.547" x2="241.839" y2="304.339"/><line x1="239.943" y1="300.547" x2="243.735" y2="304.339"/><line x1="239.943" y1="304.339" x2="243.735" y2="300.547"/>
<line x1="242.193" y1="301.672" x2="245.985" y2="301.672"/><line x1="244.089" y1="299.776" x2="244.089" y2="303.568"/><line x1="242.193" y1="299.776" x2="245.985" y2="303.568"/><line x1="242.193" y1="303.568" x2="245.985" y2="299.776"/>
<line x1="244.443" y1="301.514" x2="248.235" y2="301.514"/><line x1="246.339" y1="299.618" x2="246.339" y2="303.41"/><line x1="244.443" y1="299.618" x2="248.235" y2="303.41"/><line x1="244.443" y1="303.41" x2="248.235" y2="299.618"/>
<line x1="246.693" y1="305.81" x2="250.485" y2="305.81"/><line x1="248.589" y1="303.914" x2="248.589" y2="307.706"/><line x1="246.693" y1="303.914" x2="250.485" y2="307.706"/><line x1="246.693" y1="307.706" x2="250.485" y2="303.914"/>
<line x1="248.943" y1="305.81" x2="252.735" y2="305.81"/><line x1="250.839" y1="303.914" x2="250.839" y2="307.706"/><line x1="248.943" y1="303.914" x2="252.735" y2="307.706"/><line x1="248.943" y1="307.706" x2="252.735" y2="303.914"/>
<line x1="251.193" y1="305.81" x2="254.985" y2="305.81"/><line x1="253.089" y1="303.914" x2="253.089" y2="307.706"/><line x1="251.193" y1="303.914" x2="254.985" y2="307.706"/><line x1="251.193" y1="307.706" x2="254.985" y2="303.914"/>
<line x1="253.443" y1="308.976" x2="257.235" y2="308.976"/><line x1="255.339" y1="307.08" x2="255.339" y2="310.872"/><line x1="253.443" y1="307.08" x2="257.235" y2="310.872"/><line x1="253.443" y1="310.872" x2="257.235" y2="307.08"/>
<line x1="255.693" y1="307.843" x2="259.485" y2="307.843"/><line x1="257.589" y1="305.947" x2="257.589" y2="309.739"/><line x1="255.693" y1="305.947" x2="259.485" y2="309.739"/><line x1="255.693" y1="309.739" x2="259.485" y2="305.947"/>
<line x1="257.943" y1="305.571" x2="261.735" y2="305.571"/><line x1="259.839" y1="303.675" x2="259.839" y2="307.467"/><line x1="257.943" y1="303.675" x2="261.735" y2="307.467"/><line x1="257.943" y1="307.467" x2="261.735" y2="303.675"/>
<line x1="260.193" y1="304.431" x2="263.985" y2="304.431"/><line x1="262.089" y1="302.535" x2="262.089" y2="306.327"/><line x1="260.193" y1="302.535" x2="263.985" y2="306.327"/><line x1="260.193" y1="306.327" x2="263.985" y2="302.535"/>
<line x1="262.443" y1="308.728" x2="266.235" y2="308.728"/><line x1="264.339" y1="306.832" x2="264.339" y2="310.624"/><line x1="262.443" y1="306.832" x2="266.235" y2="310.624"/><line x1="262.443" y1="310.624" x2="266.235" y2="306.832"/>
<line x1="264.693" y1="311.113" x2="268.485" y2="311.113"/><line x1="266.589" y1="309.217" x2="266.589" y2="313.009"/><line x1="264.693" y1="309.217" x2="268.485" y2="313.009"/><line x1="264.693" y1="313.009" x2="268.485" y2="309.217"/>
<line x1="266.943" y1="309.076" x2="270.735" y2="309.076"/><line x1="268.839" y1="307.18" x2="268.839" y2="310.972"/><line x1="266.943" y1="307.18" x2="270.735" y2="310.972"/><line x1="266.943" y1="310.972" x2="270.735" y2="307.18"/>
<line x1="269.193" y1="306" x2="272.985" y2="306"/><line x1="271.089" y1="304.104" x2="271.089" y2="307.896"/><line x1="269.193" y1="304.104" x2="272.985" y2="307.896"/><line x1="269.193" y1="307.896" x2="272.985" y2="304.104"/>
<line x1="271.443" y1="304.854" x2="275.235" y2="304.854"/><line x1="273.339" y1="302.958" x2="273.339" y2="306.75"/><line x1="271.443" y1="302.958" x2="275.235" y2="306.75"/><line x1="271.443" y1="306.75" x2="275.235" y2="302.958"/>
<line x1="273.692" y1="310.912" x2="277.485" y2="310.912"/><line x1="275.589" y1="309.016" x2="275.589" y2="312.808"/><line x1="273.692" y1="309.016" x2="277.485" y2="312.808"/><line x1="273.692" y1="312.808" x2="277.485" y2="309.016"/>
<line x1="275.942" y1="312.648" x2="279.735" y2="312.648"/><line x1="277.839" y1="310.752" x2="277.839" y2="314.544"/><line x1="275.942" y1="310.752" x2="279.735" y2="314.544"/><line x1="275.942" y1="314.544" x2="279.735" y2="310.752"/>
<line x1="278.192" y1="311.5" x2="281.985" y2="311.5"/><line x1="280.088" y1="309.604" x2="280.088" y2="313.396"/><line x1="278.192" y1="309.604" x2="281.985" y2="313.396"/><line x1="278.192" y1="313.396" x2="281.985" y2="309.604"/>
<line x1="280.442" y1="312.6" x2="284.234" y2="312.6"/><line x1="282.338" y1="310.704" x2="282.338" y2="314.496"/><line x1="280.442" y1="310.704" x2="284.234" y2="314.496"/><line x1="280.442" y1="314.496" x2="284.234" y2="310.704"/>
<line x1="282.692" y1="316.899" x2="286.484" y2="316.899"/><line x1="284.588" y1="315.003" x2="284.588" y2="318.795"/><line x1="282.692" y1="315.003" x2="286.484" y2="318.795"/><line x1="282.692" y1="318.795" x2="286.484" y2="315.003"/>
<line x1="284.942" y1="314.585" x2="288.734" y2="314.585"/><line x1="286.838" y1="312.688" x2="286.838" y2="316.481"/><line x1="284.942" y1="312.688" x2="288.734" y2="316.481"/><line x1="284.942" y1="316.481" x2="288.734" y2="312.688"/>
<line x1="287.192" y1="313.838" x2="290.984" y2="313.838"/><line x1="289.088" y1="311.942" x2="289.088" y2="315.734"/><line x1="287.192" y1="311.942" x2="290.984" y2="315.734"/><line x1="287.192" y1="315.734" x2="290.984" y2="311.942"/>
<line x1="289.442" y1="312.679" x2="293.234" y2="312.679"/><line x1="291.338" y1="310.783" x2="291.338" y2="314.575"/><line x1="289.442" y1="310.783" x2="293.234" y2="314.575"/><line x1="289.442" y1="314.575" x2="293.234" y2="310.783"/>
<line x1="291.692" y1="312.679" x2="295.484" y2="312.679"/><line x1="293.588" y1="310.783" x2="293.588" y2="314.575"/><line x1="291.692" y1="310.783" x2="295.484" y2="314.575"/><line x1="291.692" y1="314.575" x2="295.484" y2="310.783"/>
<line x1="293.942" y1="313.395" x2="297.734" y2="313.395"/><line x1="295.838" y1="311.499" x2="295.838" y2="315.291"/><line x1="293.942" y1="311.499" x2="297.734" y2="315.291"/><line x1="293.942" y1="315.291" x2="297.734" y2="311.499"/>
<line x1="296.192" y1="311.071" x2="299.984" y2="311.071"/><line x1="298.088" y1="309.175" x2="298.088" y2="312.967"/><line x1="296.192" y1="309.175" x2="299.984" y2="312.967"/><line x1="296.192" y1="312.967" x2="299.984" y2="309.175"/>
<line x1="298.442" y1="311.071" x2="302.234" y2="311.071"/><line x1="300.338" y1="309.175" x2="300.338" y2="312.967"/><line x1="298.442" y1="309.175" x2="302.234" y2="312.967"/><line x1="298.442" y1="312.967" x2="302.234" y2="309.175"/>
<line x1="300.692" y1="311.071" x2="304.484" y2="311.071"/><line x1="302.588" y1="309.175" x2="302.588" y2="312.967"/><line x1="300.692" y1="309.175" x2="304.484" y2="312.967"/><line x1="300.692" y1="312.967" x2="304.484" y2="309.175"/>
<line x1="302.942" y1="309.905" x2="306.734" y2="309.905"/><line x1="304.838" y1="308.008" x2="304.838" y2="311.801"/><line x1="302.942" y1="308.008" x2="306.734" y2="311.801"/><line x1="302.942" y1="311.801" x2="306.734" y2="308.008"/>
<line x1="305.192" y1="309.155" x2="308.984" y2="309.155"/><line x1="307.088" y1="307.259" x2="307.088" y2="311.051"/><line x1="305.192" y1="307.259" x2="308.984" y2="311.051"/><line x1="305.192" y1="311.051" x2="308.984" y2="307.259"/>
<line x1="307.442" y1="305.646" x2="311.234" y2="305.646"/><line x1="309.338" y1="303.75" x2="309.338" y2="307.542"/><line x1="307.442" y1="303.75" x2="311.234" y2="307.542"/><line x1="307.442" y1="307.542" x2="311.234" y2="303.75"/>
<line x1="309.692" y1="305.646" x2="313.484" y2="305.646"/><line x1="311.588" y1="303.75" x2="311.588" y2="307.542"/><line x1="309.692" y1="303.75" x2="313.484" y2="307.542"/><line x1="309.692" y1="307.542" x2="313.484" y2="303.75"/>
<line x1="311.942" y1="304.472" x2="315.734" y2="304.472"/><line x1="313.838" y1="302.576" x2="313.838" y2="306.368"/><line x1="311.942" y1="302.576" x2="315.734" y2="306.368"/><line x1="311.942" y1="306.368" x2="315.734" y2="302.576"/>
<line x1="314.191" y1="303.295" x2="317.984" y2="303.295"/><line x1="316.088" y1="301.399" x2="316.088" y2="305.191"/><line x1="314.191" y1="301.399" x2="317.984" y2="305.191"/><line x1="314.191" y1="305.191" x2="317.984" y2="301.399"/>
<line x1="316.441" y1="302.115" x2="320.234" y2="302.115"/><line x1="318.337" y1="300.219" x2="318.337" y2="304.011"/><line x1="316.441" y1="300.219" x2="320.234" y2="304.011"/><line x1="316.441" y1="304.011" x2="320.234" y2="300.219"/>
<line x1="318.691" y1="302.115" x2="322.484" y2="302.115"/><line x1="320.587" y1="300.219" x2="320.587" y2="304.011"/><line x1="318.691" y1="300.219" x2="322.484" y2="304.011"/><line x1="318.691" y1="304.011" x2="322.484" y2="300.219"/>
<line x1="320.941" y1="302.115" x2="324.733" y2="302.115"/><line x1="322.837" y1="300.219" x2="322.837" y2="304.011"/><line x1="320.941" y1="300.219" x2="324.733" y2="304.011"/><line x1="320.941" y1="304.011" x2="324.733" y2="300.219"/>
<line x1="323.191" y1="300.187" x2="326.983" y2="300.187"/><line x1="325.087" y1="298.291" x2="325.087" y2="302.083"/><line x1="323.191" y1="298.291" x2="326.983" y2="302.083"/><line x1="323.191" y1="302.083" x2="326.983" y2="298.291"/>
<line x1="325.441" y1="300.187" x2="329.233" y2="300.187"/><line x1="327.337" y1="298.291" x2="327.337" y2="302.083"/><line x1="325.441" y1="298.291" x2="329.233" y2="302.083"/><line x1="325.441" y1="302.083" x2="329.233" y2="298.291"/>
<line x1="327.691" y1="299.004" x2="331.483" y2="299.004"/><line x1="329.587" y1="297.107" x2="329.587" y2="300.9"/><line x1="327.691" y1="297.107" x2="331.483" y2="300.9"/><line x1="327.691" y1="300.9" x2="331.483" y2="297.107"/>
<line x1="329.941" y1="293.93" x2="333.733" y2="293.93"/><line x1="331.837" y1="292.034" x2="331.837" y2="295.826"/><line x1="329.941" y1="292.034" x2="333.733" y2="295.826"/><line x1="329.941" y1="295.826" x2="333.733" y2="292.034"/>
<line x1="332.191" y1="294.662" x2="335.983" y2="294.662"/><line x1="334.087" y1="292.766" x2="334.087" y2="296.558"/><line x1="332.191" y1="292.766" x2="335.983" y2="296.558"/><line x1="332.191" y1="296.558" x2="335.983" y2="292.766"/>
<line x1="334.441" y1="293.467" x2="338.233" y2="293.467"/><line x1="336.337" y1="291.571" x2="336.337" y2="295.363"/><line x1="334.441" y1="291.571" x2="338.233" y2="295.363"/><line x1="334.441" y1="295.363" x2="338.233" y2="291.571"/>
<line x1="336.691" y1="293.467" x2="340.483" y2="293.467"/><line x1="338.587" y1="291.571" x2="338.587" y2="295.363"/><line x1="336.691" y1="291.571" x2="340.483" y2="295.363"/><line x1="336.691" y1="295.363" x2="340.483" y2="291.571"/>
<line x1="338.941" y1="292.268" x2="342.733" y2="292.268"/><line x1="340.837" y1="290.372" x2="340.837" y2="294.164"/><line x1="338.941" y1="290.372" x2="342.733" y2="294.164"/><line x1="338.941" y1="294.164" x2="342.733" y2="290.372"/>
<line x1="341.191" y1="292.268" x2="344.983" y2="292.268"/><line x1="343.087" y1="290.372" x2="343.087" y2="294.164"/><line x1="341.191" y1="290.372" x2="344.983" y2="294.164"/><line x1="341.191" y1="294.164" x2="344.983" y2="290.372"/>
<line x1="343.441" y1="291.066" x2="347.233" y2="291.066"/><line x1="345.337" y1="289.17" x2="345.337" y2="292.962"/><line x1="343.441" y1="289.17" x2="347.233" y2="292.962"/><line x1="343.441" y1="292.962" x2="347.233" y2="289.17"/>
<line x1="345.691" y1="291.001" x2="349.483" y2="291.001"/><line x1="347.587" y1="289.105" x2="347.587" y2="292.897"/><line x1="345.691" y1="289.105" x2="349.483" y2="292.897"/><line x1="345.691" y1="292.897" x2="349.483" y2="289.105"/>
<line x1="347.941" y1="291.001" x2="351.733" y2="291.001"/><line x1="349.837" y1="289.105" x2="349.837" y2="292.897"/><line x1="347.941" y1="289.105" x2="351.733" y2="292.897"/><line x1="347.941" y1="292.897" x2="351.733" y2="289.105"/>
<line x1="350.191" y1="289.793" x2="353.983" y2="289.793"/><line x1="352.087" y1="287.897" x2="352.087" y2="291.689"/><line x1="350.191" y1="287.897" x2="353.983" y2="291.689"/><line x1="350.191" y1="291.689" x2="353.983" y2="287.897"/>
<line x1="352.441" y1="290.45" x2="356.233" y2="290.45"/><line x1="354.337" y1="288.554" x2="354.337" y2="292.347"/><line x1="352.441" y1="288.554" x2="356.233" y2="292.347"/><line x1="352.441" y1="292.347" x2="356.233" y2="288.554"/>
<line x1="354.69" y1="293.547" x2="358.483" y2="293.547"/><line x1="356.587" y1="291.651" x2="356.587" y2="295.443"/><line x1="354.69" y1="291.651" x2="358.483" y2="295.443"/><line x1="354.69" y1="295.443" x2="358.483" y2="291.651"/>
<line x1="356.94" y1="291.115" x2="360.733" y2="291.115"/><line x1="358.836" y1="289.219" x2="358.836" y2="293.012"/><line x1="356.94" y1="289.219" x2="360.733" y2="293.012"/><line x1="356.94" y1="293.012" x2="360.733" y2="289.219"/>
<line x1="359.19" y1="289.896" x2="362.983" y2="289.896"/><line x1="361.086" y1="288" x2="361.086" y2="291.792"/><line x1="359.19" y1="288" x2="362.983" y2="291.792"/><line x1="359.19" y1="291.792" x2="362.983" y2="288"/>
<line x1="361.44" y1="289.896" x2="365.232" y2="289.896"/><line x1="363.336" y1="288" x2="363.336" y2="291.792"/><line x1="361.44" y1="288" x2="365.232" y2="291.792"/><line x1="361.44" y1="291.792" x2="365.232" y2="288"/>
<line x1="363.69" y1="289.273" x2="367.482" y2="289.273"/><line x1="365.586" y1="287.377" x2="365.586" y2="291.169"/><line x1="363.69" y1="287.377" x2="367.482" y2="291.169"/><line x1="363.69" y1="291.169" x2="367.482" y2="287.377"/>
<line x1="365.94" y1="288.402" x2="369.732" y2="288.402"/><line x1="367.836" y1="286.506" x2="367.836" y2="290.298"/><line x1="365.94" y1="286.506" x2="369.732" y2="290.298"/><line x1="365.94" y1="290.298" x2="369.732" y2="286.506"/>
<line x1="368.19" y1="287.653" x2="371.982" y2="287.653"/><line x1="370.086" y1="285.757" x2="370.086" y2="289.549"/><line x1="368.19" y1="285.757" x2="371.982" y2="289.549"/><line x1="368.19" y1="289.549" x2="371.982" y2="285.757"/>
<line x1="370.44" y1="285.2" x2="374.232" y2="285.2"/><line x1="372.336" y1="283.304" x2="372.336" y2="287.096"/><line x1="370.44" y1="283.304" x2="374.232" y2="287.096"/><line x1="370.44" y1="287.096" x2="374.232" y2="283.304"/>
<line x1="372.69" y1="281.878" x2="376.482" y2="281.878"/><line x1="374.586" y1="279.982" x2="374.586" y2="283.774"/><line x1="372.69" y1="279.982" x2="376.482" y2="283.774"/><line x1="372.69" y1="283.774" x2="376.482" y2="279.982"/>
<line x1="374.94" y1="281.727" x2="378.732" y2="281.727"/><line x1="376.836" y1="279.831" x2="376.836" y2="283.623"/><line x1="374.94" y1="279.831" x2="378.732" y2="283.623"/><line x1="374.94" y1="283.623" x2="378.732" y2="279.831"/>
<line x1="377.19" y1="286.039" x2="380.982" y2="286.039"/><line x1="379.086" y1="284.143" x2="379.086" y2="287.935"/><line x1="377.19" y1="284.143" x2="380.982" y2="287.935"/><line x1="377.19" y1="287.935" x2="380.982" y2="284.143"/>
<line x1="379.44" y1="290.349" x2="383.232" y2="290.349"/><line x1="381.336" y1="288.453" x2="381.336" y2="292.246"/><line x1="379.44" y1="288.453" x2="383.232" y2="292.246"/><line x1="379.44" y1="292.246" x2="383.232" y2="288.453"/>
<line x1="381.69" y1="290.349" x2="385.482" y2="290.349"/><line x1="383.586" y1="288.453" x2="383.586" y2="292.246"/><line x1="381.69" y1="288.453" x2="385.482" y2="292.246"/><line x1="381.69" y1="292.246" x2="385.482" y2="288.453"/>
<line x1="383.94" y1="287.108" x2="387.732" y2="287.108"/><line x1="385.836" y1="285.212" x2="385.836" y2="289.004"/><line x1="383.94" y1="285.212" x2="387.732" y2="289.004"/><line x1="383.94" y1="289.004" x2="387.732" y2="285.212"/>
<line x1="386.19" y1="287.108" x2="389.982" y2="287.108"/><line x1="388.086" y1="285.212" x2="388.086" y2="289.004"/><line x1="386.19" y1="285.212" x2="389.982" y2="289.004"/><line x1="386.19" y1="289.004" x2="389.982" y2="285.212"/>
<line x1="388.44" y1="285.093" x2="392.232" y2="285.093"/><line x1="390.336" y1="283.197" x2="390.336" y2="286.989"/><line x1="388.44" y1="283.197" x2="392.232" y2="286.989"/><line x1="388.44" y1="286.989" x2="392.232" y2="283.197"/>
<line x1="390.69" y1="289.405" x2="394.482" y2="289.405"/><line x1="392.586" y1="287.509" x2="392.586" y2="291.301"/><line x1="390.69" y1="287.509" x2="394.482" y2="291.301"/><line x1="390.69" y1="291.301" x2="394.482" y2="287.509"/>
<line x1="392.94" y1="289.405" x2="396.732" y2="289.405"/><line x1="394.836" y1="287.509" x2="394.836" y2="291.301"/><line x1="392.94" y1="287.509" x2="396.732" y2="291.301"/><line x1="392.94" y1="291.301" x2="396.732" y2="287.509"/>
<line x1="395.189" y1="286.921" x2="398.982" y2="286.921"/><line x1="397.086" y1="285.025" x2="397.086" y2="288.817"/><line x1="395.189" y1="285.025" x2="398.982" y2="288.817"/><line x1="395.189" y1="288.817" x2="398.982" y2="285.025"/>
<line x1="397.439" y1="285.675" x2="401.232" y2="285.675"/><line x1="399.335" y1="283.779" x2="399.335" y2="287.571"/><line x1="397.439" y1="283.779" x2="401.232" y2="287.571"/><line x1="397.439" y1="287.571" x2="401.232" y2="283.779"/>
<line x1="399.689" y1="285.675" x2="403.482" y2="285.675"/><line x1="401.585" y1="283.779" x2="401.585" y2="287.571"/><line x1="399.689" y1="283.779" x2="403.482" y2="287.571"/><line x1="399.689" y1="287.571" x2="403.482" y2="283.779"/>
<line x1="401.939" y1="285.675" x2="405.731" y2="285.675"/><line x1="403.835" y1="283.779" x2="403.835" y2="287.571"/><line x1="401.939" y1="283.779" x2="405.731" y2="287.571"/><line x1="401.939" y1="287.571" x2="405.731" y2="283.779"/>
<line x1="404.189" y1="285.675" x2="407.981" y2="285.675"/><line x1="406.085" y1="283.779" x2="406.085" y2="287.571"/><line x1="404.189" y1="283.779" x2="407.981" y2="287.571"/><line x1="404.189" y1="287.571" x2="407.981" y2="283.779"/>
<line x1="406.439" y1="287.998" x2="410.231" y2="287.998"/><line x1="408.335" y1="286.102" x2="408.335" y2="289.894"/><line x1="406.439" y1="286.102" x2="410.231" y2="289.894"/><line x1="406.439" y1="289.894" x2="410.231" y2="286.102"/>
<line x1="408.689" y1="287.998" x2="412.481" y2="287.998"/><line x1="410.585" y1="286.102" x2="410.585" y2="289.894"/><line x1="408.689" y1="286.102" x2="412.481" y2="289.894"/><line x1="408.689" y1="289.894" x2="412.481" y2="286.102"/>
<line x1="410.939" y1="287.998" x2="414.731" y2="287.998"/><line x1="412.835" y1="286.102" x2="412.835" y2="289.894"/><line x1="410.939" y1="286.102" x2="414.731" y2="289.894"/><line x1="410.939" y1="289.894" x2="414.731" y2="286.102"/>
<line x1="413.189" y1="286.75" x2="416.981" y2="286.75"/><line x1="415.085" y1="284.854" x2="415.085" y2="288.646"/><line x1="413.189" y1="284.854" x2="416.981" y2="288.646"/><line x1="413.189" y1="288.646" x2="416.981" y2="284.854"/>
<line x1="415.439" y1="287.249" x2="419.231" y2="287.249"/><line x1="417.335" y1="285.353" x2="417.335" y2="289.145"/><line x1="415.439" y1="285.353" x2="419.231" y2="289.145"/><line x1="415.439" y1="289.145" x2="419.231" y2="285.353"/>
<line x1="417.689" y1="287.539" x2="421.481" y2="287.539"/><line x1="419.585" y1="285.643" x2="419.585" y2="289.435"/><line x1="417.689" y1="285.643" x2="421.481" y2="289.435"/><line x1="417.689" y1="289.435" x2="421.481" y2="285.643"/>
<line x1="419.939" y1="287.539" x2="423.731" y2="287.539"/><line x1="421.835" y1="285.643" x2="421.835" y2="289.435"/><line x1="419.939" y1="285.643" x2="423.731" y2="289.435"/><line x1="419.939" y1="289.435" x2="423.731" y2="285.643"/>
<line x1="422.189" y1="287.539" x2="425.981" y2="287.539"/><line x1="424.085" y1="285.643" x2="424.085" y2="289.435"/><line x1="422.189" y1="285.643" x2="425.981" y2="289.435"/><line x1="422.189" y1="289.435" x2="425.981" y2="285.643"/>
<line x1="424.439" y1="287.539" x2="428.231" y2="287.539"/><line x1="426.335" y1="285.643" x2="426.335" y2="289.435"/><line x1="424.439" y1="285.643" x2="428.231" y2="289.435"/><line x1="424.439" y1="289.435" x2="428.231" y2="285.643"/>
<line x1="426.689" y1="285.24" x2="430.481" y2="285.24"/><line x1="428.585" y1="283.344" x2="428.585" y2="287.136"/><line x1="426.689" y1="283.344" x2="430.481" y2="287.136"/><line x1="426.689" y1="287.136" x2="430.481" y2="283.344"/>
<line x1="428.939" y1="285.24" x2="432.731" y2="285.24"/><line x1="430.835" y1="283.344" x2="430.835" y2="287.136"/><line x1="428.939" y1="283.344" x2="432.731" y2="287.136"/><line x1="428.939" y1="287.136" x2="432.731" y2="283.344"/>
<line x1="431.189" y1="290.522" x2="434.981" y2="290.522"/><line x1="433.085" y1="288.626" x2="433.085" y2="292.419"/><line x1="431.189" y1="288.626" x2="434.981" y2="292.419"/><line x1="431.189" y1="292.419" x2="434.981" y2="288.626"/>
<line x1="433.438" y1="286.759" x2="437.231" y2="286.759"/><line x1="435.335" y1="284.863" x2="435.335" y2="288.655"/><line x1="433.438" y1="284.863" x2="437.231" y2="288.655"/><line x1="433.438" y1="288.655" x2="437.231" y2="284.863"/>
<line x1="435.688" y1="285.499" x2="439.481" y2="285.499"/><line x1="437.585" y1="283.603" x2="437.585" y2="287.395"/><line x1="435.688" y1="283.603" x2="439.481" y2="287.395"/><line x1="435.688" y1="287.395" x2="439.481" y2="283.603"/>
<line x1="437.938" y1="284.236" x2="441.731" y2="284.236"/><line x1="439.834" y1="282.34" x2="439.834" y2="286.132"/><line x1="437.938" y1="282.34" x2="441.731" y2="286.132"/><line x1="437.938" y1="286.132" x2="441.731" y2="282.34"/>
<line x1="440.188" y1="287.288" x2="443.98" y2="287.288"/><line x1="442.084" y1="285.391" x2="442.084" y2="289.184"/><line x1="440.188" y1="285.391" x2="443.98" y2="289.184"/><line x1="440.188" y1="289.184" x2="443.98" y2="285.391"/>
<line x1="442.438" y1="287.288" x2="446.23" y2="287.288"/><line x1="444.334" y1="285.391" x2="444.334" y2="289.184"/><line x1="442.438" y1="285.391" x2="446.23" y2="289.184"/><line x1="442.438" y1="289.184" x2="446.23" y2="285.391"/>
<line x1="444.688" y1="289.08" x2="448.48" y2="289.08"/><line x1="446.584" y1="287.184" x2="446.584" y2="290.976"/><line x1="444.688" y1="287.184" x2="448.48" y2="290.976"/><line x1="444.688" y1="290.976" x2="448.48" y2="287.184"/>
<line x1="446.938" y1="291.398" x2="450.73" y2="291.398"/><line x1="448.834" y1="289.502" x2="448.834" y2="293.294"/><line x1="446.938" y1="289.502" x2="450.73" y2="293.294"/><line x1="446.938" y1="293.294" x2="450.73" y2="289.502"/>
<line x1="449.188" y1="290.644" x2="452.98" y2="290.644"/><line x1="451.084" y1="288.748" x2="451.084" y2="292.54"/><line x1="449.188" y1="288.748" x2="452.98" y2="292.54"/><line x1="449.188" y1="292.54" x2="452.98" y2="288.748"/>
<line x1="451.438" y1="292.428" x2="455.23" y2="292.428"/><line x1="453.334" y1="290.532" x2="453.334" y2="294.324"/><line x1="451.438" y1="290.532" x2="455.23" y2="294.324"/><line x1="451.438" y1="294.324" x2="455.23" y2="290.532"/>
<line x1="453.688" y1="292.864" x2="457.48" y2="292.864"/><line x1="455.584" y1="290.968" x2="455.584" y2="294.76"/><line x1="453.688" y1="290.968" x2="457.48" y2="294.76"/><line x1="453.688" y1="294.76" x2="457.48" y2="290.968"/>
<line x1="455.938" y1="291.592" x2="459.73" y2="291.592"/><line x1="457.834" y1="289.695" x2="457.834" y2="293.488"/><line x1="455.938" y1="289.695" x2="459.73" y2="293.488"/><line x1="455.938" y1="293.488" x2="459.73" y2="289.695"/>
<line x1="458.188" y1="291.592" x2="461.98" y2="291.592"/><line x1="460.084" y1="289.695" x2="460.084" y2="293.488"/><line x1="458.188" y1="289.695" x2="461.98" y2="293.488"/><line x1="458.188" y1="293.488" x2="461.98" y2="289.695"/>
<line x1="460.438" y1="292.952" x2="464.23" y2="292.952"/><line x1="462.334" y1="291.056" x2="462.334" y2="294.848"/><line x1="460.438" y1="291.056" x2="464.23" y2="294.848"/><line x1="460.438" y1="294.848" x2="464.23" y2="291.056"/>
<line x1="462.688" y1="291.669" x2="466.48" y2="291.669"/><line x1="464.584" y1="289.773" x2="464.584" y2="293.565"/><line x1="462.688" y1="289.773" x2="466.48" y2="293.565"/><line x1="462.688" y1="293.565" x2="466.48" y2="289.773"/>
<line x1="464.938" y1="289.649" x2="468.73" y2="289.649"/><line x1="466.834" y1="287.753" x2="466.834" y2="291.545"/><line x1="464.938" y1="287.753" x2="468.73" y2="291.545"/><line x1="464.938" y1="291.545" x2="468.73" y2="287.753"/>
<line x1="467.188" y1="289.649" x2="470.98" y2="289.649"/><line x1="469.084" y1="287.753" x2="469.084" y2="291.545"/><line x1="467.188" y1="287.753" x2="470.98" y2="291.545"/><line x1="467.188" y1="291.545" x2="470.98" y2="287.753"/>
<line x1="469.438" y1="293.967" x2="473.23" y2="293.967"/><line x1="471.334" y1="292.071" x2="471.334" y2="295.863"/><line x1="469.438" y1="292.071" x2="473.23" y2="295.863"/><line x1="469.438" y1="295.863" x2="473.23" y2="292.071"/>
<line x1="471.688" y1="292.683" x2="475.48" y2="292.683"/><line x1="473.584" y1="290.787" x2="473.584" y2="294.579"/><line x1="471.688" y1="290.787" x2="475.48" y2="294.579"/><line x1="471.688" y1="294.579" x2="475.48" y2="290.787"/>
<line x1="473.937" y1="291.394" x2="477.73" y2="291.394"/><line x1="475.834" y1="289.498" x2="475.834" y2="293.291"/><line x1="473.937" y1="289.498" x2="477.73" y2="293.291"/><line x1="473.937" y1="293.291" x2="477.73" y2="289.498"/>
<line x1="476.187" y1="294.424" x2="479.98" y2="294.424"/><line x1="478.083" y1="292.528" x2="478.083" y2="296.32"/><line x1="476.187" y1="292.528" x2="479.98" y2="296.32"/><line x1="476.187" y1="296.32" x2="479.98" y2="292.528"/>
<line x1="478.437" y1="294.424" x2="482.23" y2="294.424"/><line x1="480.333" y1="292.528" x2="480.333" y2="296.32"/><line x1="478.437" y1="292.528" x2="482.23" y2="296.32"/><line x1="478.437" y1="296.32" x2="482.23" y2="292.528"/>
<line x1="480.687" y1="294.424" x2="484.479" y2="294.424"/><line x1="482.583" y1="292.528" x2="482.583" y2="296.32"/><line x1="480.687" y1="292.528" x2="484.479" y2="296.32"/><line x1="480.687" y1="296.32" x2="484.479" y2="292.528"/>
<line x1="482.937" y1="294.424" x2="486.729" y2="294.424"/><line x1="484.833" y1="292.528" x2="484.833" y2="296.32"/><line x1="482.937" y1="292.528" x2="486.729" y2="296.32"/><line x1="482.937" y1="296.32" x2="486.729" y2="292.528"/>
<line x1="485.187" y1="293.131" x2="488.979" y2="293.131"/><line x1="487.083" y1="291.235" x2="487.083" y2="295.027"/><line x1="485.187" y1="291.235" x2="488.979" y2="295.027"/><line x1="485.187" y1="295.027" x2="488.979" y2="291.235"/>
<line x1="487.437" y1="290.537" x2="491.229" y2="290.537"/><line x1="489.333" y1="288.641" x2="489.333" y2="292.433"/><line x1="487.437" y1="288.641" x2="491.229" y2="292.433"/><line x1="487.437" y1="292.433" x2="491.229" y2="288.641"/>
<line x1="489.687" y1="289.802" x2="493.479" y2="289.802"/><line x1="491.583" y1="287.906" x2="491.583" y2="291.698"/><line x1="489.687" y1="287.906" x2="493.479" y2="291.698"/><line x1="489.687" y1="291.698" x2="493.479" y2="287.906"/>
<line x1="491.937" y1="289.802" x2="495.729" y2="289.802"/><line x1="493.833" y1="287.906" x2="493.833" y2="291.698"/><line x1="491.937" y1="287.906" x2="495.729" y2="291.698"/><line x1="491.937" y1="291.698" x2="495.729" y2="287.906"/>
<line x1="494.187" y1="287.204" x2="497.979" y2="287.204"/><line x1="496.083" y1="285.308" x2="496.083" y2="289.1"/><line x1="494.187" y1="285.308" x2="497.979" y2="289.1"/><line x1="494.187" y1="289.1" x2="497.979" y2="285.308"/>
<line x1="496.437" y1="283.856" x2="500.229" y2="283.856"/><line x1="498.333" y1="281.96" x2="498.333" y2="285.752"/><line x1="496.437" y1="281.96" x2="500.229" y2="285.752"/><line x1="496.437" y1="285.752" x2="500.229" y2="281.96"/>
<line x1="498.687" y1="283.856" x2="502.479" y2="283.856"/><line x1="500.583" y1="281.96" x2="500.583" y2="285.752"/><line x1="498.687" y1="281.96" x2="502.479" y2="285.752"/><line x1="498.687" y1="285.752" x2="502.479" y2="281.96"/>
<line x1="500.937" y1="283.856" x2="504.729" y2="283.856"/><line x1="502.833" y1="281.96" x2="502.833" y2="285.752"/><line x1="500.937" y1="281.96" x2="504.729" y2="285.752"/><line x1="500.937" y1="285.752" x2="504.729" y2="281.96"/>
<line x1="503.187" y1="292.5" x2="506.979" y2="292.5"/><line x1="505.083" y1="290.604" x2="505.083" y2="294.396"/><line x1="503.187" y1="290.604" x2="506.979" y2="294.396"/><line x1="503.187" y1="294.396" x2="506.979" y2="290.604"/>
<line x1="505.437" y1="291.75" x2="509.229" y2="291.75"/><line x1="507.333" y1="289.854" x2="507.333" y2="293.646"/><line x1="505.437" y1="289.854" x2="509.229" y2="293.646"/><line x1="505.437" y1="293.646" x2="509.229" y2="289.854"/>
<line x1="507.687" y1="297.806" x2="511.479" y2="297.806"/><line x1="509.583" y1="295.91" x2="509.583" y2="299.702"/><line x1="507.687" y1="295.91" x2="511.479" y2="299.702"/><line x1="507.687" y1="299.702" x2="511.479" y2="295.91"/>
</g>
<path d="M0.5,289.342h 566.929" fill="none" stroke="#0000ff"/>
<path d="M284.588,399.568v -358.233" fill="none" stroke="#0000ff"/>
<path d="M235.09,399.568v -358.233" fill="none" stroke="#0000ff"/>
<text xml:space="preserve" x="109.525" y="18.0128" fill="black" font-size="14.0403" font-family="Helvetica">^2 v.s. calibration factor without 1st bin and without last bin</text>
<text xml:space="preserve" x="101.94" y="18.0128" fill="black" font-size="14.0403" font-family="Times">&#0967;</text></svg>
