<?xml version="1.0" standalone="no"?>
<svg width="567.429" height="413.846" viewBox="0 0 567.429 413.846" xmlns="http://www.w3.org/2000/svg" shape-rendering="crispEdges">
<title>
figures/chi2zoomin_2PMTnpefilelist20.svg
</title>
<desc>
Creator: ROOT Version 6.18/04
CreationDate: Sun Nov  3 23:30:23 2019</desc>
<defs>
</defs>
<rect x="0.5" y="0" width="566.929" height="413.346" fill="white"/>
<rect x="57.1929" y="41.3346" width="453.543" height="330.677" fill="white"/>
<rect x="57.1929" y="41.3346" width="453.543" height="330.677" fill="none" stroke="black"/>
<path d="M57.1929,372.012h 453.543" fill="none" stroke="black"/>
<path d="M72.1896,41.3346v 330.677" fill="none" stroke="black" stroke-dasharray=" 1, 2"/>
<path d="M117.188,41.3346v 330.677" fill="none" stroke="black" stroke-dasharray=" 1, 2"/>
<path d="M162.187,41.3346v 330.677" fill="none" stroke="black" stroke-dasharray=" 1, 2"/>
<path d="M207.186,41.3346v 330.677" fill="none" stroke="black" stroke-dasharray=" 1, 2"/>
<path d="M252.185,41.3346v 330.677" fill="none" stroke="black" stroke-dasharray=" 1, 2"/>
<path d="M297.184,41.3346v 330.677" fill="none" stroke="black" stroke-dasharray=" 1, 2"/>
<path d="M342.183,41.3346v 330.677" fill="none" stroke="black" stroke-dasharray=" 1, 2"/>
<path d="M387.182,41.3346v 330.677" fill="none" stroke="black" stroke-dasharray=" 1, 2"/>
<path d="M432.181,41.3346v 330.677" fill="none" stroke="black" stroke-dasharray=" 1, 2"/>
<path d="M477.179,41.3346v 330.677" fill="none" stroke="black" stroke-dasharray=" 1, 2"/>
<path d="M72.1896,41.3346v 330.677" fill="none" stroke="black" stroke-dasharray=" 1, 2"/>
<path d="M477.179,41.3346v 330.677" fill="none" stroke="black" stroke-dasharray=" 1, 2"/>
<path d="M57.1929,372.012v -330.677" fill="none" stroke="black"/>
<path d="M57.1929,372.012h 453.543" fill="none" stroke="black"/>
<path d="M72.1896,362.091v 9.92031" fill="none" stroke="black"/>
<path d="M83.4393,367.052v 4.96016" fill="none" stroke="black"/>
<path d="M94.689,367.052v 4.96016" fill="none" stroke="black"/>
<path d="M105.939,367.052v 4.96016" fill="none" stroke="black"/>
<path d="M117.188,362.091v 9.92031" fill="none" stroke="black"/>
<path d="M128.438,367.052v 4.96016" fill="none" stroke="black"/>
<path d="M139.688,367.052v 4.96016" fill="none" stroke="black"/>
<path d="M150.938,367.052v 4.96016" fill="none" stroke="black"/>
<path d="M162.187,362.091v 9.92031" fill="none" stroke="black"/>
<path d="M173.437,367.052v 4.96016" fill="none" stroke="black"/>
<path d="M184.687,367.052v 4.96016" fill="none" stroke="black"/>
<path d="M195.937,367.052v 4.96016" fill="none" stroke="black"/>
<path d="M207.186,362.091v 9.92031" fill="none" stroke="black"/>
<path d="M218.436,367.052v 4.96016" fill="none" stroke="black"/>
<path d="M229.686,367.052v 4.96016" fill="none" stroke="black"/>
<path d="M240.935,367.052v 4.96016" fill="none" stroke="black"/>
<path d="M252.185,362.091v 9.92031" fill="none" stroke="black"/>
<path d="M263.435,367.052v 4.96016" fill="none" stroke="black"/>
<path d="M274.685,367.052v 4.96016" fill="none" stroke="black"/>
<path d="M285.934,367.052v 4.96016" fill="none" stroke="black"/>
<path d="M297.184,362.091v 9.92031" fill="none" stroke="black"/>
<path d="M308.434,367.052v 4.96016" fill="none" stroke="black"/>
<path d="M319.683,367.052v 4.96016" fill="none" stroke="black"/>
<path d="M330.933,367.052v 4.96016" fill="none" stroke="black"/>
<path d="M342.183,362.091v 9.92031" fill="none" stroke="black"/>
<path d="M353.433,367.052v 4.96016" fill="none" stroke="black"/>
<path d="M364.682,367.052v 4.96016" fill="none" stroke="black"/>
<path d="M375.932,367.052v 4.96016" fill="none" stroke="black"/>
<path d="M387.182,362.091v 9.92031" fill="none" stroke="black"/>
<path d="M398.431,367.052v 4.96016" fill="none" stroke="black"/>
<path d="M409.681,367.052v 4.96016" fill="none" stroke="black"/>
<path d="M420.931,367.052v 4.96016" fill="none" stroke="black"/>
<path d="M432.181,362.091v 9.92031" fill="none" stroke="black"/>
<path d="M443.43,367.052v 4.96016" fill="none" stroke="black"/>
<path d="M454.68,367.052v 4.96016" fill="none" stroke="black"/>
<path d="M465.93,367.052v 4.96016" fill="none" stroke="black"/>
<path d="M477.179,362.091v 9.92031" fill="none" stroke="black"/>
<path d="M72.1896,362.091v 9.92031" fill="none" stroke="black"/>
<path d="M60.9399,367.052v 4.96016" fill="none" stroke="black"/>
<path d="M477.179,362.091v 9.92031" fill="none" stroke="black"/>
<path d="M488.429,367.052v 4.96016" fill="none" stroke="black"/>
<path d="M499.679,367.052v 4.96016" fill="none" stroke="black"/>
<text xml:space="preserve" x="55.4864" y="385.379" fill="black" font-size="13.7726" font-family="Helvetica">0.466</text>
<text xml:space="preserve" x="100.518" y="385.379" fill="black" font-size="13.7726" font-family="Helvetica">0.468</text>
<text xml:space="preserve" x="149.343" y="385.379" fill="black" font-size="13.7726" font-family="Helvetica">0.47</text>
<text xml:space="preserve" x="190.582" y="385.379" fill="black" font-size="13.7726" font-family="Helvetica">0.472</text>
<text xml:space="preserve" x="235.14" y="385.379" fill="black" font-size="13.7726" font-family="Helvetica">0.474</text>
<text xml:space="preserve" x="280.172" y="385.379" fill="black" font-size="13.7726" font-family="Helvetica">0.476</text>
<text xml:space="preserve" x="325.204" y="385.379" fill="black" font-size="13.7726" font-family="Helvetica">0.478</text>
<text xml:space="preserve" x="374.029" y="385.379" fill="black" font-size="13.7726" font-family="Helvetica">0.48</text>
<text xml:space="preserve" x="415.268" y="385.379" fill="black" font-size="13.7726" font-family="Helvetica">0.482</text>
<text xml:space="preserve" x="460.3" y="385.379" fill="black" font-size="13.7726" font-family="Helvetica">0.484</text>
<text xml:space="preserve" x="413.372" y="400.074" fill="black" font-size="13.7726" font-family="Helvetica">calibration factor</text>
<path d="M57.1929,372.012v -330.677" fill="none" stroke="black"/>
<path d="M70.7992,361.141h -13.6063" fill="none" stroke="black"/>
<path d="M63.9961,354.528h -6.80315" fill="none" stroke="black"/>
<path d="M63.9961,347.914h -6.80315" fill="none" stroke="black"/>
<path d="M63.9961,341.301h -6.80315" fill="none" stroke="black"/>
<path d="M63.9961,334.687h -6.80315" fill="none" stroke="black"/>
<path d="M70.7992,328.074h -13.6063" fill="none" stroke="black"/>
<path d="M63.9961,321.46h -6.80315" fill="none" stroke="black"/>
<path d="M63.9961,314.846h -6.80315" fill="none" stroke="black"/>
<path d="M63.9961,308.233h -6.80315" fill="none" stroke="black"/>
<path d="M63.9961,301.619h -6.80315" fill="none" stroke="black"/>
<path d="M70.7992,295.006h -13.6063" fill="none" stroke="black"/>
<path d="M63.9961,288.392h -6.80315" fill="none" stroke="black"/>
<path d="M63.9961,281.779h -6.80315" fill="none" stroke="black"/>
<path d="M63.9961,275.165h -6.80315" fill="none" stroke="black"/>
<path d="M63.9961,268.552h -6.80315" fill="none" stroke="black"/>
<path d="M70.7992,261.938h -13.6063" fill="none" stroke="black"/>
<path d="M63.9961,255.325h -6.80315" fill="none" stroke="black"/>
<path d="M63.9961,248.711h -6.80315" fill="none" stroke="black"/>
<path d="M63.9961,242.098h -6.80315" fill="none" stroke="black"/>
<path d="M63.9961,235.484h -6.80315" fill="none" stroke="black"/>
<path d="M70.7992,228.87h -13.6063" fill="none" stroke="black"/>
<path d="M63.9961,222.257h -6.80315" fill="none" stroke="black"/>
<path d="M63.9961,215.643h -6.80315" fill="none" stroke="black"/>
<path d="M63.9961,209.03h -6.80315" fill="none" stroke="black"/>
<path d="M63.9961,202.416h -6.80315" fill="none" stroke="black"/>
<path d="M70.7992,195.803h -13.6063" fill="none" stroke="black"/>
<path d="M63.9961,189.189h -6.80315" fill="none" stroke="black"/>
<path d="M63.9961,182.576h -6.80315" fill="none" stroke="black"/>
<path d="M63.9961,175.962h -6.80315" fill="none" stroke="black"/>
<path d="M63.9961,169.349h -6.80315" fill="none" stroke="black"/>
<path d="M70.7992,162.735h -13.6063" fill="none" stroke="black"/>
<path d="M63.9961,156.121h -6.80315" fill="none" stroke="black"/>
<path d="M63.9961,149.508h -6.80315" fill="none" stroke="black"/>
<path d="M63.9961,142.894h -6.80315" fill="none" stroke="black"/>
<path d="M63.9961,136.281h -6.80315" fill="none" stroke="black"/>
<path d="M70.7992,129.667h -13.6063" fill="none" stroke="black"/>
<path d="M63.9961,123.054h -6.80315" fill="none" stroke="black"/>
<path d="M63.9961,116.44h -6.80315" fill="none" stroke="black"/>
<path d="M63.9961,109.827h -6.80315" fill="none" stroke="black"/>
<path d="M63.9961,103.213h -6.80315" fill="none" stroke="black"/>
<path d="M70.7992,96.5996h -13.6063" fill="none" stroke="black"/>
<path d="M63.9961,89.9861h -6.80315" fill="none" stroke="black"/>
<path d="M63.9961,83.3725h -6.80315" fill="none" stroke="black"/>
<path d="M63.9961,76.759h -6.80315" fill="none" stroke="black"/>
<path d="M63.9961,70.1455h -6.80315" fill="none" stroke="black"/>
<path d="M70.7992,63.5319h -13.6063" fill="none" stroke="black"/>
<path d="M70.7992,361.141h -13.6063" fill="none" stroke="black"/>
<path d="M63.9961,367.755h -6.80315" fill="none" stroke="black"/>
<path d="M70.7992,63.5319h -13.6063" fill="none" stroke="black"/>
<path d="M63.9961,56.9184h -6.80315" fill="none" stroke="black"/>
<path d="M63.9961,50.3048h -6.80315" fill="none" stroke="black"/>
<path d="M63.9961,43.6913h -6.80315" fill="none" stroke="black"/>
<text xml:space="preserve" x="24.6751" y="365.47" fill="black" font-size="13.7726" font-family="Helvetica">1457</text>
<text xml:space="preserve" x="24.6751" y="332.763" fill="black" font-size="13.7726" font-family="Helvetica">1458</text>
<text xml:space="preserve" x="25.1491" y="299.581" fill="black" font-size="13.7726" font-family="Helvetica">1459</text>
<text xml:space="preserve" x="25.1491" y="266.4" fill="black" font-size="13.7726" font-family="Helvetica">1460</text>
<text xml:space="preserve" x="27.0452" y="233.218" fill="black" font-size="13.7726" font-family="Helvetica">1461</text>
<text xml:space="preserve" x="24.6751" y="200.511" fill="black" font-size="13.7726" font-family="Helvetica">1462</text>
<text xml:space="preserve" x="25.1491" y="167.329" fill="black" font-size="13.7726" font-family="Helvetica">1463</text>
<text xml:space="preserve" x="24.6751" y="134.148" fill="black" font-size="13.7726" font-family="Helvetica">1464</text>
<text xml:space="preserve" x="24.6751" y="100.966" fill="black" font-size="13.7726" font-family="Helvetica">1465</text>
<text xml:space="preserve" x="24.6751" y="68.259" fill="black" font-size="13.7726" font-family="Helvetica">1466</text>
<g transform="rotate(-90,7.61032,45.98)">
<text xml:space="preserve" x="7.61032" y="45.98" fill="black" font-size="9.34839" font-family="Helvetica">2</text>
</g>
<g transform="rotate(-90,11.8765,50.2462)">
<text xml:space="preserve" x="11.8765" y="50.2462" fill="black" font-size="13.7726" font-family="Helvetica"> </text>
</g>
<g transform="rotate(-90,11.8765,57.3565)">
<text xml:space="preserve" x="11.8765" y="57.3565" fill="black" font-size="13.7726" font-family="Times">&#0967;</text>
</g>
<text xml:space="preserve" x="111.895" y="18.4868" fill="black" font-size="15.1181" font-family="Helvetica">^2 v.s. calibration factorwithout 1st binand with last bin</text>
<text xml:space="preserve" x="103.837" y="18.4868" fill="black" font-size="15.1181" font-family="Times">&#0967;</text>
<g stroke="black" stroke-width="1" fill="none">
<line x1="191.79" y1="60.399" x2="195.583" y2="60.399"/><line x1="193.687" y1="58.5029" x2="193.687" y2="62.2951"/><line x1="191.79" y1="58.5029" x2="195.583" y2="62.2951"/><line x1="191.79" y1="62.2951" x2="195.583" y2="58.5029"/>
<line x1="196.29" y1="80.9244" x2="200.083" y2="80.9244"/><line x1="198.186" y1="79.0283" x2="198.186" y2="82.8205"/><line x1="196.29" y1="79.0283" x2="200.083" y2="82.8205"/><line x1="196.29" y1="82.8205" x2="200.083" y2="79.0283"/>
<line x1="200.79" y1="69.6924" x2="204.582" y2="69.6924"/><line x1="202.686" y1="67.7963" x2="202.686" y2="71.5884"/><line x1="200.79" y1="67.7963" x2="204.582" y2="71.5884"/><line x1="200.79" y1="71.5884" x2="204.582" y2="67.7963"/>
<line x1="205.29" y1="80.2885" x2="209.082" y2="80.2885"/><line x1="207.186" y1="78.3924" x2="207.186" y2="82.1846"/><line x1="205.29" y1="78.3924" x2="209.082" y2="82.1846"/><line x1="205.29" y1="82.1846" x2="209.082" y2="78.3924"/>
<line x1="209.79" y1="86.2817" x2="213.582" y2="86.2817"/><line x1="211.686" y1="84.3856" x2="211.686" y2="88.1778"/><line x1="209.79" y1="84.3856" x2="213.582" y2="88.1778"/><line x1="209.79" y1="88.1778" x2="213.582" y2="84.3856"/>
<line x1="214.29" y1="104.556" x2="218.082" y2="104.556"/><line x1="216.186" y1="102.66" x2="216.186" y2="106.452"/><line x1="214.29" y1="102.66" x2="218.082" y2="106.452"/><line x1="214.29" y1="106.452" x2="218.082" y2="102.66"/>
<line x1="218.79" y1="90.5741" x2="222.582" y2="90.5741"/><line x1="220.686" y1="88.678" x2="220.686" y2="92.4702"/><line x1="218.79" y1="88.678" x2="222.582" y2="92.4702"/><line x1="218.79" y1="92.4702" x2="222.582" y2="88.678"/>
<line x1="223.29" y1="94.2789" x2="227.082" y2="94.2789"/><line x1="225.186" y1="92.3829" x2="225.186" y2="96.175"/><line x1="223.29" y1="92.3829" x2="227.082" y2="96.175"/><line x1="223.29" y1="96.175" x2="227.082" y2="92.3829"/>
<line x1="227.79" y1="119.121" x2="231.582" y2="119.121"/><line x1="229.686" y1="117.225" x2="229.686" y2="121.017"/><line x1="227.79" y1="117.225" x2="231.582" y2="121.017"/><line x1="227.79" y1="121.017" x2="231.582" y2="117.225"/>
<line x1="232.289" y1="168.933" x2="236.082" y2="168.933"/><line x1="234.186" y1="167.037" x2="234.186" y2="170.829"/><line x1="232.289" y1="167.037" x2="236.082" y2="170.829"/><line x1="232.289" y1="170.829" x2="236.082" y2="167.037"/>
<line x1="236.789" y1="177.142" x2="240.582" y2="177.142"/><line x1="238.685" y1="175.246" x2="238.685" y2="179.038"/><line x1="236.789" y1="175.246" x2="240.582" y2="179.038"/><line x1="236.789" y1="179.038" x2="240.582" y2="175.246"/>
<line x1="241.289" y1="182.503" x2="245.081" y2="182.503"/><line x1="243.185" y1="180.607" x2="243.185" y2="184.399"/><line x1="241.289" y1="180.607" x2="245.081" y2="184.399"/><line x1="241.289" y1="184.399" x2="245.081" y2="180.607"/>
<line x1="245.789" y1="223.866" x2="249.581" y2="223.866"/><line x1="247.685" y1="221.97" x2="247.685" y2="225.762"/><line x1="245.789" y1="221.97" x2="249.581" y2="225.762"/><line x1="245.789" y1="225.762" x2="249.581" y2="221.97"/>
<line x1="250.289" y1="239.906" x2="254.081" y2="239.906"/><line x1="252.185" y1="238.01" x2="252.185" y2="241.802"/><line x1="250.289" y1="238.01" x2="254.081" y2="241.802"/><line x1="250.289" y1="241.802" x2="254.081" y2="238.01"/>
<line x1="254.789" y1="218.919" x2="258.581" y2="218.919"/><line x1="256.685" y1="217.023" x2="256.685" y2="220.815"/><line x1="254.789" y1="217.023" x2="258.581" y2="220.815"/><line x1="254.789" y1="220.815" x2="258.581" y2="217.023"/>
<line x1="259.289" y1="219.95" x2="263.081" y2="219.95"/><line x1="261.185" y1="218.053" x2="261.185" y2="221.846"/><line x1="259.289" y1="218.053" x2="263.081" y2="221.846"/><line x1="259.289" y1="221.846" x2="263.081" y2="218.053"/>
<line x1="263.789" y1="257.938" x2="267.581" y2="257.938"/><line x1="265.685" y1="256.042" x2="265.685" y2="259.834"/><line x1="263.789" y1="256.042" x2="267.581" y2="259.834"/><line x1="263.789" y1="259.834" x2="267.581" y2="256.042"/>
<line x1="268.289" y1="274.929" x2="272.081" y2="274.929"/><line x1="270.185" y1="273.033" x2="270.185" y2="276.825"/><line x1="268.289" y1="273.033" x2="272.081" y2="276.825"/><line x1="268.289" y1="276.825" x2="272.081" y2="273.033"/>
<line x1="272.788" y1="279.34" x2="276.581" y2="279.34"/><line x1="274.685" y1="277.444" x2="274.685" y2="281.236"/><line x1="272.788" y1="277.444" x2="276.581" y2="281.236"/><line x1="272.788" y1="281.236" x2="276.581" y2="277.444"/>
<line x1="277.288" y1="285.58" x2="281.081" y2="285.58"/><line x1="279.184" y1="283.684" x2="279.184" y2="287.476"/><line x1="277.288" y1="283.684" x2="281.081" y2="287.476"/><line x1="277.288" y1="287.476" x2="281.081" y2="283.684"/>
<line x1="281.788" y1="305.876" x2="285.58" y2="305.876"/><line x1="283.684" y1="303.98" x2="283.684" y2="307.772"/><line x1="281.788" y1="303.98" x2="285.58" y2="307.772"/><line x1="281.788" y1="307.772" x2="285.58" y2="303.98"/>
<line x1="286.288" y1="279.325" x2="290.08" y2="279.325"/><line x1="288.184" y1="277.429" x2="288.184" y2="281.221"/><line x1="286.288" y1="277.429" x2="290.08" y2="281.221"/><line x1="286.288" y1="281.221" x2="290.08" y2="277.429"/>
<line x1="290.788" y1="229.81" x2="294.58" y2="229.81"/><line x1="292.684" y1="227.914" x2="292.684" y2="231.706"/><line x1="290.788" y1="227.914" x2="294.58" y2="231.706"/><line x1="290.788" y1="231.706" x2="294.58" y2="227.914"/>
<line x1="295.288" y1="224.763" x2="299.08" y2="224.763"/><line x1="297.184" y1="222.867" x2="297.184" y2="226.659"/><line x1="295.288" y1="222.867" x2="299.08" y2="226.659"/><line x1="295.288" y1="226.659" x2="299.08" y2="222.867"/>
<line x1="299.788" y1="246.319" x2="303.58" y2="246.319"/><line x1="301.684" y1="244.423" x2="301.684" y2="248.216"/><line x1="299.788" y1="244.423" x2="303.58" y2="248.216"/><line x1="299.788" y1="248.216" x2="303.58" y2="244.423"/>
<line x1="304.288" y1="216.888" x2="308.08" y2="216.888"/><line x1="306.184" y1="214.992" x2="306.184" y2="218.784"/><line x1="304.288" y1="214.992" x2="308.08" y2="218.784"/><line x1="304.288" y1="218.784" x2="308.08" y2="214.992"/>
<line x1="308.788" y1="201.476" x2="312.58" y2="201.476"/><line x1="310.684" y1="199.579" x2="310.684" y2="203.372"/><line x1="308.788" y1="199.579" x2="312.58" y2="203.372"/><line x1="308.788" y1="203.372" x2="312.58" y2="199.579"/>
<line x1="313.287" y1="209.409" x2="317.08" y2="209.409"/><line x1="315.184" y1="207.512" x2="315.184" y2="211.305"/><line x1="313.287" y1="207.512" x2="317.08" y2="211.305"/><line x1="313.287" y1="211.305" x2="317.08" y2="207.512"/>
<line x1="317.787" y1="178.291" x2="321.579" y2="178.291"/><line x1="319.683" y1="176.395" x2="319.683" y2="180.187"/><line x1="317.787" y1="176.395" x2="321.579" y2="180.187"/><line x1="317.787" y1="180.187" x2="321.579" y2="176.395"/>
<line x1="322.287" y1="170.96" x2="326.079" y2="170.96"/><line x1="324.183" y1="169.064" x2="324.183" y2="172.856"/><line x1="322.287" y1="169.064" x2="326.079" y2="172.856"/><line x1="322.287" y1="172.856" x2="326.079" y2="169.064"/>
<line x1="326.787" y1="196.78" x2="330.579" y2="196.78"/><line x1="328.683" y1="194.884" x2="328.683" y2="198.676"/><line x1="326.787" y1="194.884" x2="330.579" y2="198.676"/><line x1="326.787" y1="198.676" x2="330.579" y2="194.884"/>
<line x1="331.287" y1="240.382" x2="335.079" y2="240.382"/><line x1="333.183" y1="238.486" x2="333.183" y2="242.278"/><line x1="331.287" y1="238.486" x2="335.079" y2="242.278"/><line x1="331.287" y1="242.278" x2="335.079" y2="238.486"/>
<line x1="335.787" y1="240.428" x2="339.579" y2="240.428"/><line x1="337.683" y1="238.532" x2="337.683" y2="242.324"/><line x1="335.787" y1="238.532" x2="339.579" y2="242.324"/><line x1="335.787" y1="242.324" x2="339.579" y2="238.532"/>
<line x1="340.287" y1="278.017" x2="344.079" y2="278.017"/><line x1="342.183" y1="276.121" x2="342.183" y2="279.913"/><line x1="340.287" y1="276.121" x2="344.079" y2="279.913"/><line x1="340.287" y1="279.913" x2="344.079" y2="276.121"/>
<line x1="344.787" y1="254.435" x2="348.579" y2="254.435"/><line x1="346.683" y1="252.539" x2="346.683" y2="256.331"/><line x1="344.787" y1="252.539" x2="348.579" y2="256.331"/><line x1="344.787" y1="256.331" x2="348.579" y2="252.539"/>
<line x1="349.287" y1="214.703" x2="353.079" y2="214.703"/><line x1="351.183" y1="212.807" x2="351.183" y2="216.599"/><line x1="349.287" y1="212.807" x2="353.079" y2="216.599"/><line x1="349.287" y1="216.599" x2="353.079" y2="212.807"/>
<line x1="353.786" y1="210.801" x2="357.579" y2="210.801"/><line x1="355.683" y1="208.905" x2="355.683" y2="212.697"/><line x1="353.786" y1="208.905" x2="357.579" y2="212.697"/><line x1="353.786" y1="212.697" x2="357.579" y2="208.905"/>
<line x1="358.286" y1="156.176" x2="362.078" y2="156.176"/><line x1="360.182" y1="154.28" x2="360.182" y2="158.072"/><line x1="358.286" y1="154.28" x2="362.078" y2="158.072"/><line x1="358.286" y1="158.072" x2="362.078" y2="154.28"/>
<line x1="362.786" y1="136.573" x2="366.578" y2="136.573"/><line x1="364.682" y1="134.677" x2="364.682" y2="138.469"/><line x1="362.786" y1="134.677" x2="366.578" y2="138.469"/><line x1="362.786" y1="138.469" x2="366.578" y2="134.677"/>
<line x1="367.286" y1="137.478" x2="371.078" y2="137.478"/><line x1="369.182" y1="135.582" x2="369.182" y2="139.374"/><line x1="367.286" y1="135.582" x2="371.078" y2="139.374"/><line x1="367.286" y1="139.374" x2="371.078" y2="135.582"/>
<line x1="371.786" y1="156.242" x2="375.578" y2="156.242"/><line x1="373.682" y1="154.346" x2="373.682" y2="158.138"/><line x1="371.786" y1="154.346" x2="375.578" y2="158.138"/><line x1="371.786" y1="158.138" x2="375.578" y2="154.346"/>
<line x1="376.286" y1="156.372" x2="380.078" y2="156.372"/><line x1="378.182" y1="154.476" x2="378.182" y2="158.268"/><line x1="376.286" y1="154.476" x2="380.078" y2="158.268"/><line x1="376.286" y1="158.268" x2="380.078" y2="154.476"/>
<line x1="380.786" y1="161.363" x2="384.578" y2="161.363"/><line x1="382.682" y1="159.467" x2="382.682" y2="163.259"/><line x1="380.786" y1="159.467" x2="384.578" y2="163.259"/><line x1="380.786" y1="163.259" x2="384.578" y2="159.467"/>
<line x1="385.286" y1="117.495" x2="389.078" y2="117.495"/><line x1="387.182" y1="115.599" x2="387.182" y2="119.391"/><line x1="385.286" y1="115.599" x2="389.078" y2="119.391"/><line x1="385.286" y1="119.391" x2="389.078" y2="115.599"/>
<line x1="389.786" y1="117.777" x2="393.578" y2="117.777"/><line x1="391.682" y1="115.881" x2="391.682" y2="119.673"/><line x1="389.786" y1="115.881" x2="393.578" y2="119.673"/><line x1="389.786" y1="119.673" x2="393.578" y2="115.881"/>
<line x1="394.285" y1="116.997" x2="398.078" y2="116.997"/><line x1="396.181" y1="115.101" x2="396.181" y2="118.893"/><line x1="394.285" y1="115.101" x2="398.078" y2="118.893"/><line x1="394.285" y1="118.893" x2="398.078" y2="115.101"/>
<line x1="398.785" y1="74.3127" x2="402.577" y2="74.3127"/><line x1="400.681" y1="72.4166" x2="400.681" y2="76.2088"/><line x1="398.785" y1="72.4166" x2="402.577" y2="76.2088"/><line x1="398.785" y1="76.2088" x2="402.577" y2="72.4166"/>
<line x1="403.285" y1="63.9914" x2="407.077" y2="63.9914"/><line x1="405.181" y1="62.0953" x2="405.181" y2="65.8875"/><line x1="403.285" y1="62.0953" x2="407.077" y2="65.8875"/><line x1="403.285" y1="65.8875" x2="407.077" y2="62.0953"/>
<line x1="407.785" y1="49.5308" x2="411.577" y2="49.5308"/><line x1="409.681" y1="47.6347" x2="409.681" y2="51.4269"/><line x1="407.785" y1="47.6347" x2="411.577" y2="51.4269"/><line x1="407.785" y1="51.4269" x2="411.577" y2="47.6347"/>
<line x1="412.285" y1="74.3839" x2="416.077" y2="74.3839"/><line x1="414.181" y1="72.4878" x2="414.181" y2="76.28"/><line x1="412.285" y1="72.4878" x2="416.077" y2="76.28"/><line x1="412.285" y1="76.28" x2="416.077" y2="72.4878"/>
<line x1="416.785" y1="90.1482" x2="420.577" y2="90.1482"/><line x1="418.681" y1="88.2521" x2="418.681" y2="92.0443"/><line x1="416.785" y1="88.2521" x2="420.577" y2="92.0443"/><line x1="416.785" y1="92.0443" x2="420.577" y2="88.2521"/>
<line x1="421.285" y1="98.2777" x2="425.077" y2="98.2777"/><line x1="423.181" y1="96.3816" x2="423.181" y2="100.174"/><line x1="421.285" y1="96.3816" x2="425.077" y2="100.174"/><line x1="421.285" y1="100.174" x2="425.077" y2="96.3816"/>
<line x1="425.785" y1="118.158" x2="429.577" y2="118.158"/><line x1="427.681" y1="116.262" x2="427.681" y2="120.054"/><line x1="425.785" y1="116.262" x2="429.577" y2="120.054"/><line x1="425.785" y1="120.054" x2="429.577" y2="116.262"/>
<line x1="430.285" y1="119.105" x2="434.077" y2="119.105"/><line x1="432.181" y1="117.209" x2="432.181" y2="121.001"/><line x1="430.285" y1="117.209" x2="434.077" y2="121.001"/><line x1="430.285" y1="121.001" x2="434.077" y2="117.209"/>
<line x1="434.784" y1="87.9878" x2="438.577" y2="87.9878"/><line x1="436.68" y1="86.0917" x2="436.68" y2="89.8838"/><line x1="434.784" y1="86.0917" x2="438.577" y2="89.8838"/><line x1="434.784" y1="89.8838" x2="438.577" y2="86.0917"/>
<line x1="439.284" y1="45.0183" x2="443.076" y2="45.0183"/><line x1="441.18" y1="43.1223" x2="441.18" y2="46.9144"/><line x1="439.284" y1="43.1223" x2="443.076" y2="46.9144"/><line x1="439.284" y1="46.9144" x2="443.076" y2="43.1223"/>
</g>
<g stroke="black" stroke-width="1" fill="none">
<line x1="448.284" y1="46.2699" x2="452.076" y2="46.2699"/><line x1="450.18" y1="44.3738" x2="450.18" y2="48.166"/><line x1="448.284" y1="44.3738" x2="452.076" y2="48.166"/><line x1="448.284" y1="48.166" x2="452.076" y2="44.3738"/>
</g>
<path d="M0.5,272.809h 566.929" fill="none" stroke="#0000ff"/>
<text xml:space="preserve" x="111.895" y="18.4868" fill="black" font-size="15.1181" font-family="Helvetica">^2 v.s. calibration factorwithout 1st binand with last bin</text>
<text xml:space="preserve" x="103.837" y="18.4868" fill="black" font-size="15.1181" font-family="Times">&#0967;</text></svg>
