<?xml version="1.0" standalone="no"?>
<svg width="567.429" height="413.846" viewBox="0 0 567.429 413.846" xmlns="http://www.w3.org/2000/svg" shape-rendering="crispEdges">
<title>
figures/chi2zoomin_7PMTnpefilelist20.svg
</title>
<desc>
Creator: ROOT Version 6.18/04
CreationDate: Sun Nov  3 23:32:13 2019</desc>
<defs>
</defs>
<rect x="0.5" y="0" width="566.929" height="413.346" fill="white"/>
<rect x="57.1929" y="41.3346" width="453.543" height="330.677" fill="white"/>
<rect x="57.1929" y="41.3346" width="453.543" height="330.677" fill="none" stroke="black"/>
<path d="M57.1929,372.012h 453.543" fill="none" stroke="black"/>
<path d="M60.4102,41.3346v 330.677" fill="none" stroke="black" stroke-dasharray=" 1, 2"/>
<path d="M172.907,41.3346v 330.677" fill="none" stroke="black" stroke-dasharray=" 1, 2"/>
<path d="M285.405,41.3346v 330.677" fill="none" stroke="black" stroke-dasharray=" 1, 2"/>
<path d="M397.902,41.3346v 330.677" fill="none" stroke="black" stroke-dasharray=" 1, 2"/>
<path d="M510.399,41.3346v 330.677" fill="none" stroke="black" stroke-dasharray=" 1, 2"/>
<path d="M60.4102,41.3346v 330.677" fill="none" stroke="black" stroke-dasharray=" 1, 2"/>
<path d="M510.399,41.3346v 330.677" fill="none" stroke="black" stroke-dasharray=" 1, 2"/>
<path d="M57.1929,372.012v -330.677" fill="none" stroke="black"/>
<path d="M57.1929,372.012h 453.543" fill="none" stroke="black"/>
<path d="M60.4102,362.091v 9.92031" fill="none" stroke="black"/>
<path d="M82.9096,367.052v 4.96016" fill="none" stroke="black"/>
<path d="M105.409,367.052v 4.96016" fill="none" stroke="black"/>
<path d="M127.908,367.052v 4.96016" fill="none" stroke="black"/>
<path d="M150.408,367.052v 4.96016" fill="none" stroke="black"/>
<path d="M172.907,362.091v 9.92031" fill="none" stroke="black"/>
<path d="M195.407,367.052v 4.96016" fill="none" stroke="black"/>
<path d="M217.906,367.052v 4.96016" fill="none" stroke="black"/>
<path d="M240.406,367.052v 4.96016" fill="none" stroke="black"/>
<path d="M262.905,367.052v 4.96016" fill="none" stroke="black"/>
<path d="M285.405,362.091v 9.92031" fill="none" stroke="black"/>
<path d="M307.904,367.052v 4.96016" fill="none" stroke="black"/>
<path d="M330.403,367.052v 4.96016" fill="none" stroke="black"/>
<path d="M352.903,367.052v 4.96016" fill="none" stroke="black"/>
<path d="M375.402,367.052v 4.96016" fill="none" stroke="black"/>
<path d="M397.902,362.091v 9.92031" fill="none" stroke="black"/>
<path d="M420.401,367.052v 4.96016" fill="none" stroke="black"/>
<path d="M442.901,367.052v 4.96016" fill="none" stroke="black"/>
<path d="M465.4,367.052v 4.96016" fill="none" stroke="black"/>
<path d="M487.899,367.052v 4.96016" fill="none" stroke="black"/>
<path d="M510.399,362.091v 9.92031" fill="none" stroke="black"/>
<path d="M60.4102,362.091v 9.92031" fill="none" stroke="black"/>
<path d="M510.399,362.091v 9.92031" fill="none" stroke="black"/>
<text xml:space="preserve" x="47.4281" y="385.379" fill="black" font-size="13.7726" font-family="Helvetica">0.83</text>
<text xml:space="preserve" x="155.979" y="385.379" fill="black" font-size="13.7726" font-family="Helvetica">0.835</text>
<text xml:space="preserve" x="272.588" y="385.379" fill="black" font-size="13.7726" font-family="Helvetica">0.84</text>
<text xml:space="preserve" x="381.139" y="385.379" fill="black" font-size="13.7726" font-family="Helvetica">0.845</text>
<text xml:space="preserve" x="497.274" y="385.379" fill="black" font-size="13.7726" font-family="Helvetica">0.85</text>
<text xml:space="preserve" x="413.372" y="400.074" fill="black" font-size="13.7726" font-family="Helvetica">calibration factor</text>
<path d="M57.1929,372.012v -330.677" fill="none" stroke="black"/>
<path d="M70.7992,350.849h -13.6063" fill="none" stroke="black"/>
<path d="M63.9961,344.236h -6.80315" fill="none" stroke="black"/>
<path d="M63.9961,337.622h -6.80315" fill="none" stroke="black"/>
<path d="M63.9961,331.008h -6.80315" fill="none" stroke="black"/>
<path d="M63.9961,324.395h -6.80315" fill="none" stroke="black"/>
<path d="M70.7992,317.781h -13.6063" fill="none" stroke="black"/>
<path d="M63.9961,311.168h -6.80315" fill="none" stroke="black"/>
<path d="M63.9961,304.554h -6.80315" fill="none" stroke="black"/>
<path d="M63.9961,297.941h -6.80315" fill="none" stroke="black"/>
<path d="M63.9961,291.327h -6.80315" fill="none" stroke="black"/>
<path d="M70.7992,284.714h -13.6063" fill="none" stroke="black"/>
<path d="M63.9961,278.1h -6.80315" fill="none" stroke="black"/>
<path d="M63.9961,271.487h -6.80315" fill="none" stroke="black"/>
<path d="M63.9961,264.873h -6.80315" fill="none" stroke="black"/>
<path d="M63.9961,258.26h -6.80315" fill="none" stroke="black"/>
<path d="M70.7992,251.646h -13.6063" fill="none" stroke="black"/>
<path d="M63.9961,245.032h -6.80315" fill="none" stroke="black"/>
<path d="M63.9961,238.419h -6.80315" fill="none" stroke="black"/>
<path d="M63.9961,231.805h -6.80315" fill="none" stroke="black"/>
<path d="M63.9961,225.192h -6.80315" fill="none" stroke="black"/>
<path d="M70.7992,218.578h -13.6063" fill="none" stroke="black"/>
<path d="M63.9961,211.965h -6.80315" fill="none" stroke="black"/>
<path d="M63.9961,205.351h -6.80315" fill="none" stroke="black"/>
<path d="M63.9961,198.738h -6.80315" fill="none" stroke="black"/>
<path d="M63.9961,192.124h -6.80315" fill="none" stroke="black"/>
<path d="M70.7992,185.511h -13.6063" fill="none" stroke="black"/>
<path d="M63.9961,178.897h -6.80315" fill="none" stroke="black"/>
<path d="M63.9961,172.283h -6.80315" fill="none" stroke="black"/>
<path d="M63.9961,165.67h -6.80315" fill="none" stroke="black"/>
<path d="M63.9961,159.056h -6.80315" fill="none" stroke="black"/>
<path d="M70.7992,152.443h -13.6063" fill="none" stroke="black"/>
<path d="M63.9961,145.829h -6.80315" fill="none" stroke="black"/>
<path d="M63.9961,139.216h -6.80315" fill="none" stroke="black"/>
<path d="M63.9961,132.602h -6.80315" fill="none" stroke="black"/>
<path d="M63.9961,125.989h -6.80315" fill="none" stroke="black"/>
<path d="M70.7992,119.375h -13.6063" fill="none" stroke="black"/>
<path d="M63.9961,112.762h -6.80315" fill="none" stroke="black"/>
<path d="M63.9961,106.148h -6.80315" fill="none" stroke="black"/>
<path d="M63.9961,99.5345h -6.80315" fill="none" stroke="black"/>
<path d="M63.9961,92.921h -6.80315" fill="none" stroke="black"/>
<path d="M70.7992,86.3074h -13.6063" fill="none" stroke="black"/>
<path d="M63.9961,79.6939h -6.80315" fill="none" stroke="black"/>
<path d="M63.9961,73.0804h -6.80315" fill="none" stroke="black"/>
<path d="M63.9961,66.4668h -6.80315" fill="none" stroke="black"/>
<path d="M63.9961,59.8533h -6.80315" fill="none" stroke="black"/>
<path d="M70.7992,53.2397h -13.6063" fill="none" stroke="black"/>
<path d="M70.7992,350.849h -13.6063" fill="none" stroke="black"/>
<path d="M63.9961,357.463h -6.80315" fill="none" stroke="black"/>
<path d="M63.9961,364.076h -6.80315" fill="none" stroke="black"/>
<path d="M63.9961,370.69h -6.80315" fill="none" stroke="black"/>
<path d="M70.7992,53.2397h -13.6063" fill="none" stroke="black"/>
<path d="M63.9961,46.6262h -6.80315" fill="none" stroke="black"/>
<text xml:space="preserve" x="32.2594" y="355.516" fill="black" font-size="13.7726" font-family="Helvetica">128</text>
<text xml:space="preserve" x="32.2594" y="322.334" fill="black" font-size="13.7726" font-family="Helvetica">129</text>
<text xml:space="preserve" x="32.2594" y="289.153" fill="black" font-size="13.7726" font-family="Helvetica">130</text>
<text xml:space="preserve" x="34.6295" y="255.971" fill="black" font-size="13.7726" font-family="Helvetica">131</text>
<text xml:space="preserve" x="32.2594" y="223.264" fill="black" font-size="13.7726" font-family="Helvetica">132</text>
<text xml:space="preserve" x="32.2594" y="190.082" fill="black" font-size="13.7726" font-family="Helvetica">133</text>
<text xml:space="preserve" x="32.2594" y="156.901" fill="black" font-size="13.7726" font-family="Helvetica">134</text>
<text xml:space="preserve" x="32.2594" y="123.719" fill="black" font-size="13.7726" font-family="Helvetica">135</text>
<text xml:space="preserve" x="32.2594" y="91.012" fill="black" font-size="13.7726" font-family="Helvetica">136</text>
<text xml:space="preserve" x="32.2594" y="57.8306" fill="black" font-size="13.7726" font-family="Helvetica">137</text>
<g transform="rotate(-90,15.1947,45.98)">
<text xml:space="preserve" x="15.1947" y="45.98" fill="black" font-size="9.34839" font-family="Helvetica">2</text>
</g>
<g transform="rotate(-90,19.4608,50.2462)">
<text xml:space="preserve" x="19.4608" y="50.2462" fill="black" font-size="13.7726" font-family="Helvetica"> </text>
</g>
<g transform="rotate(-90,19.4608,57.3565)">
<text xml:space="preserve" x="19.4608" y="57.3565" fill="black" font-size="13.7726" font-family="Times">&#0967;</text>
</g>
<text xml:space="preserve" x="111.895" y="18.4868" fill="black" font-size="15.1181" font-family="Helvetica">^2 v.s. calibration factorwithout 1st binand with last bin</text>
<text xml:space="preserve" x="103.837" y="18.4868" fill="black" font-size="15.1181" font-family="Times">&#0967;</text>
<g stroke="black" stroke-width="1" fill="none">
<line x1="85.5134" y1="55.4743" x2="89.3056" y2="55.4743"/><line x1="87.4095" y1="53.5783" x2="87.4095" y2="57.3704"/><line x1="85.5134" y1="53.5783" x2="89.3056" y2="57.3704"/><line x1="85.5134" y1="57.3704" x2="89.3056" y2="53.5783"/>
<line x1="90.0133" y1="62.3346" x2="93.8055" y2="62.3346"/><line x1="91.9094" y1="60.4385" x2="91.9094" y2="64.2307"/><line x1="90.0133" y1="60.4385" x2="93.8055" y2="64.2307"/><line x1="90.0133" y1="64.2307" x2="93.8055" y2="60.4385"/>
<line x1="94.5132" y1="58.9071" x2="98.3053" y2="58.9071"/><line x1="96.4093" y1="57.011" x2="96.4093" y2="60.8032"/><line x1="94.5132" y1="57.011" x2="98.3053" y2="60.8032"/><line x1="94.5132" y1="60.8032" x2="98.3053" y2="57.011"/>
<line x1="99.0131" y1="73.4265" x2="102.805" y2="73.4265"/><line x1="100.909" y1="71.5304" x2="100.909" y2="75.3226"/><line x1="99.0131" y1="71.5304" x2="102.805" y2="75.3226"/><line x1="99.0131" y1="75.3226" x2="102.805" y2="71.5304"/>
<line x1="103.513" y1="94.4786" x2="107.305" y2="94.4786"/><line x1="105.409" y1="92.5825" x2="105.409" y2="96.3747"/><line x1="103.513" y1="92.5825" x2="107.305" y2="96.3747"/><line x1="103.513" y1="96.3747" x2="107.305" y2="92.5825"/>
<line x1="108.013" y1="111.394" x2="111.805" y2="111.394"/><line x1="109.909" y1="109.498" x2="109.909" y2="113.29"/><line x1="108.013" y1="109.498" x2="111.805" y2="113.29"/><line x1="108.013" y1="113.29" x2="111.805" y2="109.498"/>
<line x1="112.513" y1="113.162" x2="116.305" y2="113.162"/><line x1="114.409" y1="111.266" x2="114.409" y2="115.059"/><line x1="112.513" y1="111.266" x2="116.305" y2="115.059"/><line x1="112.513" y1="115.059" x2="116.305" y2="111.266"/>
<line x1="117.013" y1="104.767" x2="120.805" y2="104.767"/><line x1="118.909" y1="102.871" x2="118.909" y2="106.663"/><line x1="117.013" y1="102.871" x2="120.805" y2="106.663"/><line x1="117.013" y1="106.663" x2="120.805" y2="102.871"/>
<line x1="121.512" y1="122.867" x2="125.305" y2="122.867"/><line x1="123.409" y1="120.971" x2="123.409" y2="124.763"/><line x1="121.512" y1="120.971" x2="125.305" y2="124.763"/><line x1="121.512" y1="124.763" x2="125.305" y2="120.971"/>
<line x1="126.012" y1="117.055" x2="129.805" y2="117.055"/><line x1="127.908" y1="115.159" x2="127.908" y2="118.951"/><line x1="126.012" y1="115.159" x2="129.805" y2="118.951"/><line x1="126.012" y1="118.951" x2="129.805" y2="115.159"/>
<line x1="130.512" y1="115.237" x2="134.304" y2="115.237"/><line x1="132.408" y1="113.341" x2="132.408" y2="117.133"/><line x1="130.512" y1="113.341" x2="134.304" y2="117.133"/><line x1="130.512" y1="117.133" x2="134.304" y2="113.341"/>
<line x1="135.012" y1="123.823" x2="138.804" y2="123.823"/><line x1="136.908" y1="121.927" x2="136.908" y2="125.719"/><line x1="135.012" y1="121.927" x2="138.804" y2="125.719"/><line x1="135.012" y1="125.719" x2="138.804" y2="121.927"/>
<line x1="139.512" y1="114.428" x2="143.304" y2="114.428"/><line x1="141.408" y1="112.531" x2="141.408" y2="116.324"/><line x1="139.512" y1="112.531" x2="143.304" y2="116.324"/><line x1="139.512" y1="116.324" x2="143.304" y2="112.531"/>
<line x1="144.012" y1="121.354" x2="147.804" y2="121.354"/><line x1="145.908" y1="119.458" x2="145.908" y2="123.25"/><line x1="144.012" y1="119.458" x2="147.804" y2="123.25"/><line x1="144.012" y1="123.25" x2="147.804" y2="119.458"/>
<line x1="148.512" y1="109.711" x2="152.304" y2="109.711"/><line x1="150.408" y1="107.814" x2="150.408" y2="111.607"/><line x1="148.512" y1="107.814" x2="152.304" y2="111.607"/><line x1="148.512" y1="111.607" x2="152.304" y2="107.814"/>
<line x1="153.012" y1="106.273" x2="156.804" y2="106.273"/><line x1="154.908" y1="104.377" x2="154.908" y2="108.169"/><line x1="153.012" y1="104.377" x2="156.804" y2="108.169"/><line x1="153.012" y1="108.169" x2="156.804" y2="104.377"/>
<line x1="157.512" y1="110.938" x2="161.304" y2="110.938"/><line x1="159.408" y1="109.042" x2="159.408" y2="112.834"/><line x1="157.512" y1="109.042" x2="161.304" y2="112.834"/><line x1="157.512" y1="112.834" x2="161.304" y2="109.042"/>
<line x1="162.011" y1="104.834" x2="165.804" y2="104.834"/><line x1="163.908" y1="102.938" x2="163.908" y2="106.73"/><line x1="162.011" y1="102.938" x2="165.804" y2="106.73"/><line x1="162.011" y1="106.73" x2="165.804" y2="102.938"/>
<line x1="166.511" y1="122.963" x2="170.304" y2="122.963"/><line x1="168.407" y1="121.067" x2="168.407" y2="124.859"/><line x1="166.511" y1="121.067" x2="170.304" y2="124.859"/><line x1="166.511" y1="124.859" x2="170.304" y2="121.067"/>
<line x1="171.011" y1="114.948" x2="174.803" y2="114.948"/><line x1="172.907" y1="113.052" x2="172.907" y2="116.844"/><line x1="171.011" y1="113.052" x2="174.803" y2="116.844"/><line x1="171.011" y1="116.844" x2="174.803" y2="113.052"/>
<line x1="175.511" y1="125.311" x2="179.303" y2="125.311"/><line x1="177.407" y1="123.414" x2="177.407" y2="127.207"/><line x1="175.511" y1="123.414" x2="179.303" y2="127.207"/><line x1="175.511" y1="127.207" x2="179.303" y2="123.414"/>
<line x1="180.011" y1="129.518" x2="183.803" y2="129.518"/><line x1="181.907" y1="127.622" x2="181.907" y2="131.414"/><line x1="180.011" y1="127.622" x2="183.803" y2="131.414"/><line x1="180.011" y1="131.414" x2="183.803" y2="127.622"/>
<line x1="184.511" y1="134.44" x2="188.303" y2="134.44"/><line x1="186.407" y1="132.544" x2="186.407" y2="136.337"/><line x1="184.511" y1="132.544" x2="188.303" y2="136.337"/><line x1="184.511" y1="136.337" x2="188.303" y2="132.544"/>
<line x1="189.011" y1="118.225" x2="192.803" y2="118.225"/><line x1="190.907" y1="116.329" x2="190.907" y2="120.121"/><line x1="189.011" y1="116.329" x2="192.803" y2="120.121"/><line x1="189.011" y1="120.121" x2="192.803" y2="116.329"/>
<line x1="193.511" y1="149.554" x2="197.303" y2="149.554"/><line x1="195.407" y1="147.657" x2="195.407" y2="151.45"/><line x1="193.511" y1="147.657" x2="197.303" y2="151.45"/><line x1="193.511" y1="151.45" x2="197.303" y2="147.657"/>
<line x1="198.011" y1="161.857" x2="201.803" y2="161.857"/><line x1="199.907" y1="159.961" x2="199.907" y2="163.753"/><line x1="198.011" y1="159.961" x2="201.803" y2="163.753"/><line x1="198.011" y1="163.753" x2="201.803" y2="159.961"/>
<line x1="202.51" y1="199.682" x2="206.303" y2="199.682"/><line x1="204.407" y1="197.786" x2="204.407" y2="201.578"/><line x1="202.51" y1="197.786" x2="206.303" y2="201.578"/><line x1="202.51" y1="201.578" x2="206.303" y2="197.786"/>
<line x1="207.01" y1="225.524" x2="210.803" y2="225.524"/><line x1="208.906" y1="223.628" x2="208.906" y2="227.42"/><line x1="207.01" y1="223.628" x2="210.803" y2="227.42"/><line x1="207.01" y1="227.42" x2="210.803" y2="223.628"/>
<line x1="211.51" y1="236.135" x2="215.302" y2="236.135"/><line x1="213.406" y1="234.239" x2="213.406" y2="238.031"/><line x1="211.51" y1="234.239" x2="215.302" y2="238.031"/><line x1="211.51" y1="238.031" x2="215.302" y2="234.239"/>
<line x1="216.01" y1="234.647" x2="219.802" y2="234.647"/><line x1="217.906" y1="232.751" x2="217.906" y2="236.543"/><line x1="216.01" y1="232.751" x2="219.802" y2="236.543"/><line x1="216.01" y1="236.543" x2="219.802" y2="232.751"/>
<line x1="220.51" y1="240.822" x2="224.302" y2="240.822"/><line x1="222.406" y1="238.925" x2="222.406" y2="242.718"/><line x1="220.51" y1="238.925" x2="224.302" y2="242.718"/><line x1="220.51" y1="242.718" x2="224.302" y2="238.925"/>
<line x1="225.01" y1="244.088" x2="228.802" y2="244.088"/><line x1="226.906" y1="242.192" x2="226.906" y2="245.984"/><line x1="225.01" y1="242.192" x2="228.802" y2="245.984"/><line x1="225.01" y1="245.984" x2="228.802" y2="242.192"/>
<line x1="229.51" y1="253.524" x2="233.302" y2="253.524"/><line x1="231.406" y1="251.628" x2="231.406" y2="255.42"/><line x1="229.51" y1="251.628" x2="233.302" y2="255.42"/><line x1="229.51" y1="255.42" x2="233.302" y2="251.628"/>
<line x1="234.01" y1="225.229" x2="237.802" y2="225.229"/><line x1="235.906" y1="223.333" x2="235.906" y2="227.125"/><line x1="234.01" y1="223.333" x2="237.802" y2="227.125"/><line x1="234.01" y1="227.125" x2="237.802" y2="223.333"/>
<line x1="238.51" y1="230.53" x2="242.302" y2="230.53"/><line x1="240.406" y1="228.634" x2="240.406" y2="232.426"/><line x1="238.51" y1="228.634" x2="242.302" y2="232.426"/><line x1="238.51" y1="232.426" x2="242.302" y2="228.634"/>
<line x1="243.009" y1="239.453" x2="246.802" y2="239.453"/><line x1="244.906" y1="237.557" x2="244.906" y2="241.349"/><line x1="243.009" y1="237.557" x2="246.802" y2="241.349"/><line x1="243.009" y1="241.349" x2="246.802" y2="237.557"/>
<line x1="247.509" y1="260.414" x2="251.302" y2="260.414"/><line x1="249.405" y1="258.518" x2="249.405" y2="262.31"/><line x1="247.509" y1="258.518" x2="251.302" y2="262.31"/><line x1="247.509" y1="262.31" x2="251.302" y2="258.518"/>
<line x1="252.009" y1="275.928" x2="255.801" y2="275.928"/><line x1="253.905" y1="274.032" x2="253.905" y2="277.824"/><line x1="252.009" y1="274.032" x2="255.801" y2="277.824"/><line x1="252.009" y1="277.824" x2="255.801" y2="274.032"/>
<line x1="256.509" y1="256.496" x2="260.301" y2="256.496"/><line x1="258.405" y1="254.6" x2="258.405" y2="258.392"/><line x1="256.509" y1="254.6" x2="260.301" y2="258.392"/><line x1="256.509" y1="258.392" x2="260.301" y2="254.6"/>
<line x1="261.009" y1="263.037" x2="264.801" y2="263.037"/><line x1="262.905" y1="261.141" x2="262.905" y2="264.933"/><line x1="261.009" y1="261.141" x2="264.801" y2="264.933"/><line x1="261.009" y1="264.933" x2="264.801" y2="261.141"/>
<line x1="265.509" y1="266.847" x2="269.301" y2="266.847"/><line x1="267.405" y1="264.951" x2="267.405" y2="268.744"/><line x1="265.509" y1="264.951" x2="269.301" y2="268.744"/><line x1="265.509" y1="268.744" x2="269.301" y2="264.951"/>
<line x1="270.009" y1="293.85" x2="273.801" y2="293.85"/><line x1="271.905" y1="291.954" x2="271.905" y2="295.746"/><line x1="270.009" y1="291.954" x2="273.801" y2="295.746"/><line x1="270.009" y1="295.746" x2="273.801" y2="291.954"/>
<line x1="274.509" y1="278.802" x2="278.301" y2="278.802"/><line x1="276.405" y1="276.906" x2="276.405" y2="280.698"/><line x1="274.509" y1="276.906" x2="278.301" y2="280.698"/><line x1="274.509" y1="280.698" x2="278.301" y2="276.906"/>
<line x1="279.009" y1="277.244" x2="282.801" y2="277.244"/><line x1="280.905" y1="275.348" x2="280.905" y2="279.14"/><line x1="279.009" y1="275.348" x2="282.801" y2="279.14"/><line x1="279.009" y1="279.14" x2="282.801" y2="275.348"/>
<line x1="283.508" y1="305.876" x2="287.301" y2="305.876"/><line x1="285.405" y1="303.98" x2="285.405" y2="307.772"/><line x1="283.508" y1="303.98" x2="287.301" y2="307.772"/><line x1="283.508" y1="307.772" x2="287.301" y2="303.98"/>
<line x1="288.008" y1="297.007" x2="291.801" y2="297.007"/><line x1="289.904" y1="295.111" x2="289.904" y2="298.903"/><line x1="288.008" y1="295.111" x2="291.801" y2="298.903"/><line x1="288.008" y1="298.903" x2="291.801" y2="295.111"/>
<line x1="292.508" y1="272.571" x2="296.3" y2="272.571"/><line x1="294.404" y1="270.675" x2="294.404" y2="274.467"/><line x1="292.508" y1="270.675" x2="296.3" y2="274.467"/><line x1="292.508" y1="274.467" x2="296.3" y2="270.675"/>
<line x1="297.008" y1="264.961" x2="300.8" y2="264.961"/><line x1="298.904" y1="263.065" x2="298.904" y2="266.857"/><line x1="297.008" y1="263.065" x2="300.8" y2="266.857"/><line x1="297.008" y1="266.857" x2="300.8" y2="263.065"/>
<line x1="301.508" y1="252.955" x2="305.3" y2="252.955"/><line x1="303.404" y1="251.058" x2="303.404" y2="254.851"/><line x1="301.508" y1="251.058" x2="305.3" y2="254.851"/><line x1="301.508" y1="254.851" x2="305.3" y2="251.058"/>
<line x1="306.008" y1="263.818" x2="309.8" y2="263.818"/><line x1="307.904" y1="261.922" x2="307.904" y2="265.714"/><line x1="306.008" y1="261.922" x2="309.8" y2="265.714"/><line x1="306.008" y1="265.714" x2="309.8" y2="261.922"/>
<line x1="310.508" y1="268.94" x2="314.3" y2="268.94"/><line x1="312.404" y1="267.044" x2="312.404" y2="270.836"/><line x1="310.508" y1="267.044" x2="314.3" y2="270.836"/><line x1="310.508" y1="270.836" x2="314.3" y2="267.044"/>
<line x1="315.008" y1="274.882" x2="318.8" y2="274.882"/><line x1="316.904" y1="272.986" x2="316.904" y2="276.778"/><line x1="315.008" y1="272.986" x2="318.8" y2="276.778"/><line x1="315.008" y1="276.778" x2="318.8" y2="272.986"/>
<line x1="319.508" y1="269.215" x2="323.3" y2="269.215"/><line x1="321.404" y1="267.319" x2="321.404" y2="271.111"/><line x1="319.508" y1="267.319" x2="323.3" y2="271.111"/><line x1="319.508" y1="271.111" x2="323.3" y2="267.319"/>
<line x1="324.007" y1="267.191" x2="327.8" y2="267.191"/><line x1="325.904" y1="265.295" x2="325.904" y2="269.087"/><line x1="324.007" y1="265.295" x2="327.8" y2="269.087"/><line x1="324.007" y1="269.087" x2="327.8" y2="265.295"/>
<line x1="328.507" y1="264.349" x2="332.299" y2="264.349"/><line x1="330.403" y1="262.453" x2="330.403" y2="266.245"/><line x1="328.507" y1="262.453" x2="332.299" y2="266.245"/><line x1="328.507" y1="266.245" x2="332.299" y2="262.453"/>
<line x1="333.007" y1="238.144" x2="336.799" y2="238.144"/><line x1="334.903" y1="236.248" x2="334.903" y2="240.04"/><line x1="333.007" y1="236.248" x2="336.799" y2="240.04"/><line x1="333.007" y1="240.04" x2="336.799" y2="236.248"/>
<line x1="337.507" y1="237.849" x2="341.299" y2="237.849"/><line x1="339.403" y1="235.953" x2="339.403" y2="239.745"/><line x1="337.507" y1="235.953" x2="341.299" y2="239.745"/><line x1="337.507" y1="239.745" x2="341.299" y2="235.953"/>
<line x1="342.007" y1="242.762" x2="345.799" y2="242.762"/><line x1="343.903" y1="240.866" x2="343.903" y2="244.658"/><line x1="342.007" y1="240.866" x2="345.799" y2="244.658"/><line x1="342.007" y1="244.658" x2="345.799" y2="240.866"/>
<line x1="346.507" y1="232.595" x2="350.299" y2="232.595"/><line x1="348.403" y1="230.699" x2="348.403" y2="234.491"/><line x1="346.507" y1="230.699" x2="350.299" y2="234.491"/><line x1="346.507" y1="234.491" x2="350.299" y2="230.699"/>
<line x1="351.007" y1="236.955" x2="354.799" y2="236.955"/><line x1="352.903" y1="235.059" x2="352.903" y2="238.851"/><line x1="351.007" y1="235.059" x2="354.799" y2="238.851"/><line x1="351.007" y1="238.851" x2="354.799" y2="235.059"/>
<line x1="355.507" y1="217.709" x2="359.299" y2="217.709"/><line x1="357.403" y1="215.813" x2="357.403" y2="219.605"/><line x1="355.507" y1="215.813" x2="359.299" y2="219.605"/><line x1="355.507" y1="219.605" x2="359.299" y2="215.813"/>
<line x1="360.007" y1="241.57" x2="363.799" y2="241.57"/><line x1="361.903" y1="239.673" x2="361.903" y2="243.466"/><line x1="360.007" y1="239.673" x2="363.799" y2="243.466"/><line x1="360.007" y1="243.466" x2="363.799" y2="239.673"/>
<line x1="364.506" y1="249.487" x2="368.299" y2="249.487"/><line x1="366.402" y1="247.591" x2="366.402" y2="251.383"/><line x1="364.506" y1="247.591" x2="368.299" y2="251.383"/><line x1="364.506" y1="251.383" x2="368.299" y2="247.591"/>
<line x1="369.006" y1="257.59" x2="372.798" y2="257.59"/><line x1="370.902" y1="255.694" x2="370.902" y2="259.486"/><line x1="369.006" y1="255.694" x2="372.798" y2="259.486"/><line x1="369.006" y1="259.486" x2="372.798" y2="255.694"/>
<line x1="373.506" y1="230.393" x2="377.298" y2="230.393"/><line x1="375.402" y1="228.497" x2="375.402" y2="232.289"/><line x1="373.506" y1="228.497" x2="377.298" y2="232.289"/><line x1="373.506" y1="232.289" x2="377.298" y2="228.497"/>
<line x1="378.006" y1="213.752" x2="381.798" y2="213.752"/><line x1="379.902" y1="211.856" x2="379.902" y2="215.648"/><line x1="378.006" y1="211.856" x2="381.798" y2="215.648"/><line x1="378.006" y1="215.648" x2="381.798" y2="211.856"/>
<line x1="382.506" y1="187.633" x2="386.298" y2="187.633"/><line x1="384.402" y1="185.737" x2="384.402" y2="189.529"/><line x1="382.506" y1="185.737" x2="386.298" y2="189.529"/><line x1="382.506" y1="189.529" x2="386.298" y2="185.737"/>
<line x1="387.006" y1="177.28" x2="390.798" y2="177.28"/><line x1="388.902" y1="175.384" x2="388.902" y2="179.176"/><line x1="387.006" y1="175.384" x2="390.798" y2="179.176"/><line x1="387.006" y1="179.176" x2="390.798" y2="175.384"/>
<line x1="391.506" y1="203.038" x2="395.298" y2="203.038"/><line x1="393.402" y1="201.142" x2="393.402" y2="204.934"/><line x1="391.506" y1="201.142" x2="395.298" y2="204.934"/><line x1="391.506" y1="204.934" x2="395.298" y2="201.142"/>
<line x1="396.006" y1="200.358" x2="399.798" y2="200.358"/><line x1="397.902" y1="198.462" x2="397.902" y2="202.254"/><line x1="396.006" y1="198.462" x2="399.798" y2="202.254"/><line x1="396.006" y1="202.254" x2="399.798" y2="198.462"/>
<line x1="400.506" y1="201.44" x2="404.298" y2="201.44"/><line x1="402.402" y1="199.544" x2="402.402" y2="203.336"/><line x1="400.506" y1="199.544" x2="404.298" y2="203.336"/><line x1="400.506" y1="203.336" x2="404.298" y2="199.544"/>
<line x1="405.005" y1="175.658" x2="408.798" y2="175.658"/><line x1="406.901" y1="173.762" x2="406.901" y2="177.554"/><line x1="405.005" y1="173.762" x2="408.798" y2="177.554"/><line x1="405.005" y1="177.554" x2="408.798" y2="173.762"/>
<line x1="409.505" y1="156.275" x2="413.297" y2="156.275"/><line x1="411.401" y1="154.379" x2="411.401" y2="158.171"/><line x1="409.505" y1="154.379" x2="413.297" y2="158.171"/><line x1="409.505" y1="158.171" x2="413.297" y2="154.379"/>
<line x1="414.005" y1="143.152" x2="417.797" y2="143.152"/><line x1="415.901" y1="141.256" x2="415.901" y2="145.048"/><line x1="414.005" y1="141.256" x2="417.797" y2="145.048"/><line x1="414.005" y1="145.048" x2="417.797" y2="141.256"/>
<line x1="418.505" y1="150.118" x2="422.297" y2="150.118"/><line x1="420.401" y1="148.222" x2="420.401" y2="152.014"/><line x1="418.505" y1="148.222" x2="422.297" y2="152.014"/><line x1="418.505" y1="152.014" x2="422.297" y2="148.222"/>
<line x1="423.005" y1="164.07" x2="426.797" y2="164.07"/><line x1="424.901" y1="162.174" x2="424.901" y2="165.967"/><line x1="423.005" y1="162.174" x2="426.797" y2="165.967"/><line x1="423.005" y1="165.967" x2="426.797" y2="162.174"/>
<line x1="427.505" y1="192.81" x2="431.297" y2="192.81"/><line x1="429.401" y1="190.913" x2="429.401" y2="194.706"/><line x1="427.505" y1="190.913" x2="431.297" y2="194.706"/><line x1="427.505" y1="194.706" x2="431.297" y2="190.913"/>
<line x1="432.005" y1="197.794" x2="435.797" y2="197.794"/><line x1="433.901" y1="195.898" x2="433.901" y2="199.69"/><line x1="432.005" y1="195.898" x2="435.797" y2="199.69"/><line x1="432.005" y1="199.69" x2="435.797" y2="195.898"/>
<line x1="436.505" y1="222.663" x2="440.297" y2="222.663"/><line x1="438.401" y1="220.767" x2="438.401" y2="224.559"/><line x1="436.505" y1="220.767" x2="440.297" y2="224.559"/><line x1="436.505" y1="224.559" x2="440.297" y2="220.767"/>
<line x1="441.005" y1="229.461" x2="444.797" y2="229.461"/><line x1="442.901" y1="227.565" x2="442.901" y2="231.358"/><line x1="441.005" y1="227.565" x2="444.797" y2="231.358"/><line x1="441.005" y1="231.358" x2="444.797" y2="227.565"/>
<line x1="445.504" y1="222.862" x2="449.297" y2="222.862"/><line x1="447.4" y1="220.966" x2="447.4" y2="224.758"/><line x1="445.504" y1="220.966" x2="449.297" y2="224.758"/><line x1="445.504" y1="224.758" x2="449.297" y2="220.966"/>
<line x1="450.004" y1="207.928" x2="453.796" y2="207.928"/><line x1="451.9" y1="206.032" x2="451.9" y2="209.824"/><line x1="450.004" y1="206.032" x2="453.796" y2="209.824"/><line x1="450.004" y1="209.824" x2="453.796" y2="206.032"/>
<line x1="454.504" y1="198.435" x2="458.296" y2="198.435"/><line x1="456.4" y1="196.539" x2="456.4" y2="200.331"/><line x1="454.504" y1="196.539" x2="458.296" y2="200.331"/><line x1="454.504" y1="200.331" x2="458.296" y2="196.539"/>
<line x1="459.004" y1="201.777" x2="462.796" y2="201.777"/><line x1="460.9" y1="199.881" x2="460.9" y2="203.673"/><line x1="459.004" y1="199.881" x2="462.796" y2="203.673"/><line x1="459.004" y1="203.673" x2="462.796" y2="199.881"/>
<line x1="463.504" y1="202.612" x2="467.296" y2="202.612"/><line x1="465.4" y1="200.715" x2="465.4" y2="204.508"/><line x1="463.504" y1="200.715" x2="467.296" y2="204.508"/><line x1="463.504" y1="204.508" x2="467.296" y2="200.715"/>
<line x1="468.004" y1="211.726" x2="471.796" y2="211.726"/><line x1="469.9" y1="209.83" x2="469.9" y2="213.622"/><line x1="468.004" y1="209.83" x2="471.796" y2="213.622"/><line x1="468.004" y1="213.622" x2="471.796" y2="209.83"/>
<line x1="472.504" y1="227.265" x2="476.296" y2="227.265"/><line x1="474.4" y1="225.369" x2="474.4" y2="229.161"/><line x1="472.504" y1="225.369" x2="476.296" y2="229.161"/><line x1="472.504" y1="229.161" x2="476.296" y2="225.369"/>
<line x1="477.004" y1="218.884" x2="480.796" y2="218.884"/><line x1="478.9" y1="216.988" x2="478.9" y2="220.78"/><line x1="477.004" y1="216.988" x2="480.796" y2="220.78"/><line x1="477.004" y1="220.78" x2="480.796" y2="216.988"/>
<line x1="481.504" y1="226.16" x2="485.296" y2="226.16"/><line x1="483.4" y1="224.264" x2="483.4" y2="228.056"/><line x1="481.504" y1="224.264" x2="485.296" y2="228.056"/><line x1="481.504" y1="228.056" x2="485.296" y2="224.264"/>
<line x1="486.003" y1="196.924" x2="489.796" y2="196.924"/><line x1="487.899" y1="195.027" x2="487.899" y2="198.82"/><line x1="486.003" y1="195.027" x2="489.796" y2="198.82"/><line x1="486.003" y1="198.82" x2="489.796" y2="195.027"/>
<line x1="490.503" y1="201.445" x2="494.295" y2="201.445"/><line x1="492.399" y1="199.549" x2="492.399" y2="203.341"/><line x1="490.503" y1="199.549" x2="494.295" y2="203.341"/><line x1="490.503" y1="203.341" x2="494.295" y2="199.549"/>
<line x1="495.003" y1="189.014" x2="498.795" y2="189.014"/><line x1="496.899" y1="187.118" x2="496.899" y2="190.91"/><line x1="495.003" y1="187.118" x2="498.795" y2="190.91"/><line x1="495.003" y1="190.91" x2="498.795" y2="187.118"/>
<line x1="499.503" y1="166.78" x2="503.295" y2="166.78"/><line x1="501.399" y1="164.884" x2="501.399" y2="168.676"/><line x1="499.503" y1="164.884" x2="503.295" y2="168.676"/><line x1="499.503" y1="168.676" x2="503.295" y2="164.884"/>
<line x1="504.003" y1="169.919" x2="507.795" y2="169.919"/><line x1="505.899" y1="168.023" x2="505.899" y2="171.815"/><line x1="504.003" y1="168.023" x2="507.795" y2="171.815"/><line x1="504.003" y1="171.815" x2="507.795" y2="168.023"/>
<line x1="508.503" y1="162.377" x2="512.295" y2="162.377"/><line x1="510.399" y1="160.481" x2="510.399" y2="164.273"/><line x1="508.503" y1="160.481" x2="512.295" y2="164.273"/><line x1="508.503" y1="164.273" x2="512.295" y2="160.481"/>
</g>
<path d="M0.5,272.809h 566.929" fill="none" stroke="#0000ff"/>
<text xml:space="preserve" x="111.895" y="18.4868" fill="black" font-size="15.1181" font-family="Helvetica">^2 v.s. calibration factorwithout 1st binand with last bin</text>
<text xml:space="preserve" x="103.837" y="18.4868" fill="black" font-size="15.1181" font-family="Times">&#0967;</text></svg>
