<?xml version="1.0" standalone="no"?>
<svg width="567.429" height="413.846" viewBox="0 0 567.429 413.846" xmlns="http://www.w3.org/2000/svg" shape-rendering="crispEdges">
<title>
figures/chi2zoomin_5PMTnpefilelist20.svg
</title>
<desc>
Creator: ROOT Version 6.18/04
CreationDate: Sun Nov  3 23:31:26 2019</desc>
<defs>
</defs>
<rect x="0.5" y="0" width="566.929" height="413.346" fill="white"/>
<rect x="57.1929" y="41.3346" width="453.543" height="330.677" fill="white"/>
<rect x="57.1929" y="41.3346" width="453.543" height="330.677" fill="none" stroke="black"/>
<path d="M57.1929,372.012h 453.543" fill="none" stroke="black"/>
<path d="M62.2056,41.3346v 330.677" fill="none" stroke="black" stroke-dasharray=" 1, 2"/>
<path d="M107.204,41.3346v 330.677" fill="none" stroke="black" stroke-dasharray=" 1, 2"/>
<path d="M152.203,41.3346v 330.677" fill="none" stroke="black" stroke-dasharray=" 1, 2"/>
<path d="M197.202,41.3346v 330.677" fill="none" stroke="black" stroke-dasharray=" 1, 2"/>
<path d="M242.201,41.3346v 330.677" fill="none" stroke="black" stroke-dasharray=" 1, 2"/>
<path d="M287.2,41.3346v 330.677" fill="none" stroke="black" stroke-dasharray=" 1, 2"/>
<path d="M332.199,41.3346v 330.677" fill="none" stroke="black" stroke-dasharray=" 1, 2"/>
<path d="M377.198,41.3346v 330.677" fill="none" stroke="black" stroke-dasharray=" 1, 2"/>
<path d="M422.197,41.3346v 330.677" fill="none" stroke="black" stroke-dasharray=" 1, 2"/>
<path d="M467.195,41.3346v 330.677" fill="none" stroke="black" stroke-dasharray=" 1, 2"/>
<path d="M62.2056,41.3346v 330.677" fill="none" stroke="black" stroke-dasharray=" 1, 2"/>
<path d="M467.195,41.3346v 330.677" fill="none" stroke="black" stroke-dasharray=" 1, 2"/>
<path d="M57.1929,372.012v -330.677" fill="none" stroke="black"/>
<path d="M57.1929,372.012h 453.543" fill="none" stroke="black"/>
<path d="M62.2056,362.091v 9.92031" fill="none" stroke="black"/>
<path d="M73.4553,367.052v 4.96016" fill="none" stroke="black"/>
<path d="M84.705,367.052v 4.96016" fill="none" stroke="black"/>
<path d="M95.9548,367.052v 4.96016" fill="none" stroke="black"/>
<path d="M107.204,362.091v 9.92031" fill="none" stroke="black"/>
<path d="M118.454,367.052v 4.96016" fill="none" stroke="black"/>
<path d="M129.704,367.052v 4.96016" fill="none" stroke="black"/>
<path d="M140.954,367.052v 4.96016" fill="none" stroke="black"/>
<path d="M152.203,362.091v 9.92031" fill="none" stroke="black"/>
<path d="M163.453,367.052v 4.96016" fill="none" stroke="black"/>
<path d="M174.703,367.052v 4.96016" fill="none" stroke="black"/>
<path d="M185.953,367.052v 4.96016" fill="none" stroke="black"/>
<path d="M197.202,362.091v 9.92031" fill="none" stroke="black"/>
<path d="M208.452,367.052v 4.96016" fill="none" stroke="black"/>
<path d="M219.702,367.052v 4.96016" fill="none" stroke="black"/>
<path d="M230.951,367.052v 4.96016" fill="none" stroke="black"/>
<path d="M242.201,362.091v 9.92031" fill="none" stroke="black"/>
<path d="M253.451,367.052v 4.96016" fill="none" stroke="black"/>
<path d="M264.701,367.052v 4.96016" fill="none" stroke="black"/>
<path d="M275.95,367.052v 4.96016" fill="none" stroke="black"/>
<path d="M287.2,362.091v 9.92031" fill="none" stroke="black"/>
<path d="M298.45,367.052v 4.96016" fill="none" stroke="black"/>
<path d="M309.699,367.052v 4.96016" fill="none" stroke="black"/>
<path d="M320.949,367.052v 4.96016" fill="none" stroke="black"/>
<path d="M332.199,362.091v 9.92031" fill="none" stroke="black"/>
<path d="M343.449,367.052v 4.96016" fill="none" stroke="black"/>
<path d="M354.698,367.052v 4.96016" fill="none" stroke="black"/>
<path d="M365.948,367.052v 4.96016" fill="none" stroke="black"/>
<path d="M377.198,362.091v 9.92031" fill="none" stroke="black"/>
<path d="M388.447,367.052v 4.96016" fill="none" stroke="black"/>
<path d="M399.697,367.052v 4.96016" fill="none" stroke="black"/>
<path d="M410.947,367.052v 4.96016" fill="none" stroke="black"/>
<path d="M422.197,362.091v 9.92031" fill="none" stroke="black"/>
<path d="M433.446,367.052v 4.96016" fill="none" stroke="black"/>
<path d="M444.696,367.052v 4.96016" fill="none" stroke="black"/>
<path d="M455.946,367.052v 4.96016" fill="none" stroke="black"/>
<path d="M467.195,362.091v 9.92031" fill="none" stroke="black"/>
<path d="M62.2056,362.091v 9.92031" fill="none" stroke="black"/>
<path d="M467.195,362.091v 9.92031" fill="none" stroke="black"/>
<path d="M478.445,367.052v 4.96016" fill="none" stroke="black"/>
<path d="M489.695,367.052v 4.96016" fill="none" stroke="black"/>
<path d="M500.945,367.052v 4.96016" fill="none" stroke="black"/>
<text xml:space="preserve" x="45.532" y="385.379" fill="black" font-size="13.7726" font-family="Helvetica">1.628</text>
<text xml:space="preserve" x="94.3562" y="385.379" fill="black" font-size="13.7726" font-family="Helvetica">1.63</text>
<text xml:space="preserve" x="135.596" y="385.379" fill="black" font-size="13.7726" font-family="Helvetica">1.632</text>
<text xml:space="preserve" x="180.154" y="385.379" fill="black" font-size="13.7726" font-family="Helvetica">1.634</text>
<text xml:space="preserve" x="225.186" y="385.379" fill="black" font-size="13.7726" font-family="Helvetica">1.636</text>
<text xml:space="preserve" x="270.218" y="385.379" fill="black" font-size="13.7726" font-family="Helvetica">1.638</text>
<text xml:space="preserve" x="319.042" y="385.379" fill="black" font-size="13.7726" font-family="Helvetica">1.64</text>
<text xml:space="preserve" x="360.282" y="385.379" fill="black" font-size="13.7726" font-family="Helvetica">1.642</text>
<text xml:space="preserve" x="405.314" y="385.379" fill="black" font-size="13.7726" font-family="Helvetica">1.644</text>
<text xml:space="preserve" x="450.346" y="385.379" fill="black" font-size="13.7726" font-family="Helvetica">1.646</text>
<text xml:space="preserve" x="413.372" y="400.074" fill="black" font-size="13.7726" font-family="Helvetica">calibration factor</text>
<path d="M57.1929,372.012v -330.677" fill="none" stroke="black"/>
<path d="M70.7992,369.995h -13.6063" fill="none" stroke="black"/>
<path d="M63.9961,363.382h -6.80315" fill="none" stroke="black"/>
<path d="M63.9961,356.768h -6.80315" fill="none" stroke="black"/>
<path d="M63.9961,350.155h -6.80315" fill="none" stroke="black"/>
<path d="M63.9961,343.541h -6.80315" fill="none" stroke="black"/>
<path d="M70.7992,336.928h -13.6063" fill="none" stroke="black"/>
<path d="M63.9961,330.314h -6.80315" fill="none" stroke="black"/>
<path d="M63.9961,323.7h -6.80315" fill="none" stroke="black"/>
<path d="M63.9961,317.087h -6.80315" fill="none" stroke="black"/>
<path d="M63.9961,310.473h -6.80315" fill="none" stroke="black"/>
<path d="M70.7992,303.86h -13.6063" fill="none" stroke="black"/>
<path d="M63.9961,297.246h -6.80315" fill="none" stroke="black"/>
<path d="M63.9961,290.633h -6.80315" fill="none" stroke="black"/>
<path d="M63.9961,284.019h -6.80315" fill="none" stroke="black"/>
<path d="M63.9961,277.406h -6.80315" fill="none" stroke="black"/>
<path d="M70.7992,270.792h -13.6063" fill="none" stroke="black"/>
<path d="M63.9961,264.179h -6.80315" fill="none" stroke="black"/>
<path d="M63.9961,257.565h -6.80315" fill="none" stroke="black"/>
<path d="M63.9961,250.952h -6.80315" fill="none" stroke="black"/>
<path d="M63.9961,244.338h -6.80315" fill="none" stroke="black"/>
<path d="M70.7992,237.724h -13.6063" fill="none" stroke="black"/>
<path d="M63.9961,231.111h -6.80315" fill="none" stroke="black"/>
<path d="M63.9961,224.497h -6.80315" fill="none" stroke="black"/>
<path d="M63.9961,217.884h -6.80315" fill="none" stroke="black"/>
<path d="M63.9961,211.27h -6.80315" fill="none" stroke="black"/>
<path d="M70.7992,204.657h -13.6063" fill="none" stroke="black"/>
<path d="M63.9961,198.043h -6.80315" fill="none" stroke="black"/>
<path d="M63.9961,191.43h -6.80315" fill="none" stroke="black"/>
<path d="M63.9961,184.816h -6.80315" fill="none" stroke="black"/>
<path d="M63.9961,178.203h -6.80315" fill="none" stroke="black"/>
<path d="M70.7992,171.589h -13.6063" fill="none" stroke="black"/>
<path d="M63.9961,164.975h -6.80315" fill="none" stroke="black"/>
<path d="M63.9961,158.362h -6.80315" fill="none" stroke="black"/>
<path d="M63.9961,151.748h -6.80315" fill="none" stroke="black"/>
<path d="M63.9961,145.135h -6.80315" fill="none" stroke="black"/>
<path d="M70.7992,138.521h -13.6063" fill="none" stroke="black"/>
<path d="M63.9961,131.908h -6.80315" fill="none" stroke="black"/>
<path d="M63.9961,125.294h -6.80315" fill="none" stroke="black"/>
<path d="M63.9961,118.681h -6.80315" fill="none" stroke="black"/>
<path d="M63.9961,112.067h -6.80315" fill="none" stroke="black"/>
<path d="M70.7992,105.454h -13.6063" fill="none" stroke="black"/>
<path d="M63.9961,98.8401h -6.80315" fill="none" stroke="black"/>
<path d="M63.9961,92.2265h -6.80315" fill="none" stroke="black"/>
<path d="M63.9961,85.613h -6.80315" fill="none" stroke="black"/>
<path d="M63.9961,78.9994h -6.80315" fill="none" stroke="black"/>
<path d="M70.7992,72.3859h -13.6063" fill="none" stroke="black"/>
<path d="M70.7992,369.995h -13.6063" fill="none" stroke="black"/>
<path d="M70.7992,72.3859h -13.6063" fill="none" stroke="black"/>
<path d="M63.9961,65.7724h -6.80315" fill="none" stroke="black"/>
<path d="M63.9961,59.1588h -6.80315" fill="none" stroke="black"/>
<path d="M63.9961,52.5453h -6.80315" fill="none" stroke="black"/>
<path d="M63.9961,45.9317h -6.80315" fill="none" stroke="black"/>
<text xml:space="preserve" x="25.1491" y="374.477" fill="black" font-size="13.7726" font-family="Helvetica">1553</text>
<text xml:space="preserve" x="24.6751" y="341.295" fill="black" font-size="13.7726" font-family="Helvetica">1554</text>
<text xml:space="preserve" x="24.6751" y="308.588" fill="black" font-size="13.7726" font-family="Helvetica">1555</text>
<text xml:space="preserve" x="24.6751" y="275.406" fill="black" font-size="13.7726" font-family="Helvetica">1556</text>
<text xml:space="preserve" x="24.6751" y="242.225" fill="black" font-size="13.7726" font-family="Helvetica">1557</text>
<text xml:space="preserve" x="24.6751" y="209.043" fill="black" font-size="13.7726" font-family="Helvetica">1558</text>
<text xml:space="preserve" x="25.1491" y="175.862" fill="black" font-size="13.7726" font-family="Helvetica">1559</text>
<text xml:space="preserve" x="25.1491" y="143.154" fill="black" font-size="13.7726" font-family="Helvetica">1560</text>
<text xml:space="preserve" x="27.0452" y="109.973" fill="black" font-size="13.7726" font-family="Helvetica">1561</text>
<text xml:space="preserve" x="24.6751" y="76.7914" fill="black" font-size="13.7726" font-family="Helvetica">1562</text>
<g transform="rotate(-90,7.61032,45.98)">
<text xml:space="preserve" x="7.61032" y="45.98" fill="black" font-size="9.34839" font-family="Helvetica">2</text>
</g>
<g transform="rotate(-90,11.8765,50.2462)">
<text xml:space="preserve" x="11.8765" y="50.2462" fill="black" font-size="13.7726" font-family="Helvetica"> </text>
</g>
<g transform="rotate(-90,11.8765,57.3565)">
<text xml:space="preserve" x="11.8765" y="57.3565" fill="black" font-size="13.7726" font-family="Times">&#0967;</text>
</g>
<text xml:space="preserve" x="111.895" y="18.4868" fill="black" font-size="15.1181" font-family="Helvetica">^2 v.s. calibration factorwithout 1st binand with last bin</text>
<text xml:space="preserve" x="103.837" y="18.4868" fill="black" font-size="15.1181" font-family="Times">&#0967;</text>
<g stroke="black" stroke-width="1" fill="none">
<line x1="55.8096" y1="271.036" x2="59.6018" y2="271.036"/><line x1="57.7057" y1="269.14" x2="57.7057" y2="272.932"/><line x1="55.8096" y1="269.14" x2="59.6018" y2="272.932"/><line x1="55.8096" y1="272.932" x2="59.6018" y2="269.14"/>
<line x1="60.3095" y1="271.036" x2="64.1017" y2="271.036"/><line x1="62.2056" y1="269.14" x2="62.2056" y2="272.932"/><line x1="60.3095" y1="269.14" x2="64.1017" y2="272.932"/><line x1="60.3095" y1="272.932" x2="64.1017" y2="269.14"/>
<line x1="64.8094" y1="269.304" x2="68.6016" y2="269.304"/><line x1="66.7055" y1="267.408" x2="66.7055" y2="271.2"/><line x1="64.8094" y1="267.408" x2="68.6016" y2="271.2"/><line x1="64.8094" y1="271.2" x2="68.6016" y2="267.408"/>
<line x1="69.3093" y1="267.568" x2="73.1015" y2="267.568"/><line x1="71.2054" y1="265.672" x2="71.2054" y2="269.464"/><line x1="69.3093" y1="265.672" x2="73.1015" y2="269.464"/><line x1="69.3093" y1="269.464" x2="73.1015" y2="265.672"/>
<line x1="73.8092" y1="267.568" x2="77.6014" y2="267.568"/><line x1="75.7053" y1="265.672" x2="75.7053" y2="269.464"/><line x1="73.8092" y1="265.672" x2="77.6014" y2="269.464"/><line x1="73.8092" y1="269.464" x2="77.6014" y2="265.672"/>
<line x1="78.3091" y1="267.568" x2="82.1012" y2="267.568"/><line x1="80.2052" y1="265.672" x2="80.2052" y2="269.464"/><line x1="78.3091" y1="265.672" x2="82.1012" y2="269.464"/><line x1="78.3091" y1="269.464" x2="82.1012" y2="265.672"/>
<line x1="82.809" y1="265.828" x2="86.6011" y2="265.828"/><line x1="84.705" y1="263.932" x2="84.705" y2="267.724"/><line x1="82.809" y1="263.932" x2="86.6011" y2="267.724"/><line x1="82.809" y1="267.724" x2="86.6011" y2="263.932"/>
<line x1="87.3089" y1="274.572" x2="91.101" y2="274.572"/><line x1="89.2049" y1="272.676" x2="89.2049" y2="276.468"/><line x1="87.3089" y1="272.676" x2="91.101" y2="276.468"/><line x1="87.3089" y1="276.468" x2="91.101" y2="272.676"/>
<line x1="91.8087" y1="271.074" x2="95.6009" y2="271.074"/><line x1="93.7048" y1="269.178" x2="93.7048" y2="272.97"/><line x1="91.8087" y1="269.178" x2="95.6009" y2="272.97"/><line x1="91.8087" y1="272.97" x2="95.6009" y2="269.178"/>
<line x1="96.3086" y1="271.074" x2="100.101" y2="271.074"/><line x1="98.2047" y1="269.178" x2="98.2047" y2="272.97"/><line x1="96.3086" y1="269.178" x2="100.101" y2="272.97"/><line x1="96.3086" y1="272.97" x2="100.101" y2="269.178"/>
<line x1="100.809" y1="276.319" x2="104.601" y2="276.319"/><line x1="102.705" y1="274.423" x2="102.705" y2="278.215"/><line x1="100.809" y1="274.423" x2="104.601" y2="278.215"/><line x1="100.809" y1="278.215" x2="104.601" y2="274.423"/>
<line x1="105.308" y1="276.319" x2="109.101" y2="276.319"/><line x1="107.204" y1="274.423" x2="107.204" y2="278.215"/><line x1="105.308" y1="274.423" x2="109.101" y2="278.215"/><line x1="105.308" y1="278.215" x2="109.101" y2="274.423"/>
<line x1="109.808" y1="285.053" x2="113.6" y2="285.053"/><line x1="111.704" y1="283.157" x2="111.704" y2="286.949"/><line x1="109.808" y1="283.157" x2="113.6" y2="286.949"/><line x1="109.808" y1="286.949" x2="113.6" y2="283.157"/>
<line x1="114.308" y1="288.693" x2="118.1" y2="288.693"/><line x1="116.204" y1="286.797" x2="116.204" y2="290.589"/><line x1="114.308" y1="286.797" x2="118.1" y2="290.589"/><line x1="114.308" y1="290.589" x2="118.1" y2="286.797"/>
<line x1="118.808" y1="286.943" x2="122.6" y2="286.943"/><line x1="120.704" y1="285.047" x2="120.704" y2="288.839"/><line x1="118.808" y1="285.047" x2="122.6" y2="288.839"/><line x1="118.808" y1="288.839" x2="122.6" y2="285.047"/>
<line x1="123.308" y1="292.187" x2="127.1" y2="292.187"/><line x1="125.204" y1="290.291" x2="125.204" y2="294.083"/><line x1="123.308" y1="290.291" x2="127.1" y2="294.083"/><line x1="123.308" y1="294.083" x2="127.1" y2="290.291"/>
<line x1="127.808" y1="293.989" x2="131.6" y2="293.989"/><line x1="129.704" y1="292.093" x2="129.704" y2="295.885"/><line x1="127.808" y1="292.093" x2="131.6" y2="295.885"/><line x1="127.808" y1="295.885" x2="131.6" y2="292.093"/>
<line x1="132.308" y1="293.989" x2="136.1" y2="293.989"/><line x1="134.204" y1="292.093" x2="134.204" y2="295.885"/><line x1="132.308" y1="292.093" x2="136.1" y2="295.885"/><line x1="132.308" y1="295.885" x2="136.1" y2="292.093"/>
<line x1="136.808" y1="293.989" x2="140.6" y2="293.989"/><line x1="138.704" y1="292.093" x2="138.704" y2="295.885"/><line x1="136.808" y1="292.093" x2="140.6" y2="295.885"/><line x1="136.808" y1="295.885" x2="140.6" y2="292.093"/>
<line x1="141.307" y1="295.808" x2="145.1" y2="295.808"/><line x1="143.204" y1="293.912" x2="143.204" y2="297.704"/><line x1="141.307" y1="293.912" x2="145.1" y2="297.704"/><line x1="141.307" y1="297.704" x2="145.1" y2="293.912"/>
<line x1="145.807" y1="295.808" x2="149.6" y2="295.808"/><line x1="147.703" y1="293.912" x2="147.703" y2="297.704"/><line x1="145.807" y1="293.912" x2="149.6" y2="297.704"/><line x1="145.807" y1="297.704" x2="149.6" y2="293.912"/>
<line x1="150.307" y1="294.06" x2="154.099" y2="294.06"/><line x1="152.203" y1="292.164" x2="152.203" y2="295.956"/><line x1="150.307" y1="292.164" x2="154.099" y2="295.956"/><line x1="150.307" y1="295.956" x2="154.099" y2="292.164"/>
<line x1="154.807" y1="294.06" x2="158.599" y2="294.06"/><line x1="156.703" y1="292.164" x2="156.703" y2="295.956"/><line x1="154.807" y1="292.164" x2="158.599" y2="295.956"/><line x1="154.807" y1="295.956" x2="158.599" y2="292.164"/>
<line x1="159.307" y1="292.311" x2="163.099" y2="292.311"/><line x1="161.203" y1="290.415" x2="161.203" y2="294.207"/><line x1="159.307" y1="290.415" x2="163.099" y2="294.207"/><line x1="159.307" y1="294.207" x2="163.099" y2="290.415"/>
<line x1="163.807" y1="290.555" x2="167.599" y2="290.555"/><line x1="165.703" y1="288.659" x2="165.703" y2="292.451"/><line x1="163.807" y1="288.659" x2="167.599" y2="292.451"/><line x1="163.807" y1="292.451" x2="167.599" y2="288.659"/>
<line x1="168.307" y1="290.555" x2="172.099" y2="290.555"/><line x1="170.203" y1="288.659" x2="170.203" y2="292.451"/><line x1="168.307" y1="288.659" x2="172.099" y2="292.451"/><line x1="168.307" y1="292.451" x2="172.099" y2="288.659"/>
<line x1="172.807" y1="287.033" x2="176.599" y2="287.033"/><line x1="174.703" y1="285.137" x2="174.703" y2="288.929"/><line x1="172.807" y1="285.137" x2="176.599" y2="288.929"/><line x1="172.807" y1="288.929" x2="176.599" y2="285.137"/>
<line x1="177.307" y1="288.813" x2="181.099" y2="288.813"/><line x1="179.203" y1="286.917" x2="179.203" y2="290.709"/><line x1="177.307" y1="286.917" x2="181.099" y2="290.709"/><line x1="177.307" y1="290.709" x2="181.099" y2="286.917"/>
<line x1="181.806" y1="299.306" x2="185.599" y2="299.306"/><line x1="183.703" y1="297.41" x2="183.703" y2="301.202"/><line x1="181.806" y1="297.41" x2="185.599" y2="301.202"/><line x1="181.806" y1="301.202" x2="185.599" y2="297.41"/>
<line x1="186.306" y1="294.006" x2="190.099" y2="294.006"/><line x1="188.202" y1="292.11" x2="188.202" y2="295.902"/><line x1="186.306" y1="292.11" x2="190.099" y2="295.902"/><line x1="186.306" y1="295.902" x2="190.099" y2="292.11"/>
<line x1="190.806" y1="299.253" x2="194.598" y2="299.253"/><line x1="192.702" y1="297.357" x2="192.702" y2="301.149"/><line x1="190.806" y1="297.357" x2="194.598" y2="301.149"/><line x1="190.806" y1="301.149" x2="194.598" y2="297.357"/>
<line x1="195.306" y1="297.479" x2="199.098" y2="297.479"/><line x1="197.202" y1="295.583" x2="197.202" y2="299.376"/><line x1="195.306" y1="295.583" x2="199.098" y2="299.376"/><line x1="195.306" y1="299.376" x2="199.098" y2="295.583"/>
<line x1="199.806" y1="302.726" x2="203.598" y2="302.726"/><line x1="201.702" y1="300.83" x2="201.702" y2="304.623"/><line x1="199.806" y1="300.83" x2="203.598" y2="304.623"/><line x1="199.806" y1="304.623" x2="203.598" y2="300.83"/>
<line x1="204.306" y1="302.726" x2="208.098" y2="302.726"/><line x1="206.202" y1="300.83" x2="206.202" y2="304.623"/><line x1="204.306" y1="300.83" x2="208.098" y2="304.623"/><line x1="204.306" y1="304.623" x2="208.098" y2="300.83"/>
<line x1="208.806" y1="302.726" x2="212.598" y2="302.726"/><line x1="210.702" y1="300.83" x2="210.702" y2="304.623"/><line x1="208.806" y1="300.83" x2="212.598" y2="304.623"/><line x1="208.806" y1="304.623" x2="212.598" y2="300.83"/>
<line x1="213.306" y1="300.949" x2="217.098" y2="300.949"/><line x1="215.202" y1="299.053" x2="215.202" y2="302.845"/><line x1="213.306" y1="299.053" x2="217.098" y2="302.845"/><line x1="213.306" y1="302.845" x2="217.098" y2="299.053"/>
<line x1="217.806" y1="299.17" x2="221.598" y2="299.17"/><line x1="219.702" y1="297.274" x2="219.702" y2="301.066"/><line x1="217.806" y1="297.274" x2="221.598" y2="301.066"/><line x1="217.806" y1="301.066" x2="221.598" y2="297.274"/>
<line x1="222.305" y1="299.17" x2="226.098" y2="299.17"/><line x1="224.202" y1="297.274" x2="224.202" y2="301.066"/><line x1="222.305" y1="297.274" x2="226.098" y2="301.066"/><line x1="222.305" y1="301.066" x2="226.098" y2="297.274"/>
<line x1="226.805" y1="299.716" x2="230.598" y2="299.716"/><line x1="228.701" y1="297.82" x2="228.701" y2="301.612"/><line x1="226.805" y1="297.82" x2="230.598" y2="301.612"/><line x1="226.805" y1="301.612" x2="230.598" y2="297.82"/>
<line x1="231.305" y1="298.555" x2="235.097" y2="298.555"/><line x1="233.201" y1="296.659" x2="233.201" y2="300.451"/><line x1="231.305" y1="296.659" x2="235.097" y2="300.451"/><line x1="231.305" y1="300.451" x2="235.097" y2="296.659"/>
<line x1="235.805" y1="296.755" x2="239.597" y2="296.755"/><line x1="237.701" y1="294.859" x2="237.701" y2="298.651"/><line x1="235.805" y1="294.859" x2="239.597" y2="298.651"/><line x1="235.805" y1="298.651" x2="239.597" y2="294.859"/>
<line x1="240.305" y1="294.952" x2="244.097" y2="294.952"/><line x1="242.201" y1="293.056" x2="242.201" y2="296.848"/><line x1="240.305" y1="293.056" x2="244.097" y2="296.848"/><line x1="240.305" y1="296.848" x2="244.097" y2="293.056"/>
<line x1="244.805" y1="298.395" x2="248.597" y2="298.395"/><line x1="246.701" y1="296.499" x2="246.701" y2="300.291"/><line x1="244.805" y1="296.499" x2="248.597" y2="300.291"/><line x1="244.805" y1="300.291" x2="248.597" y2="296.499"/>
<line x1="249.305" y1="298.395" x2="253.097" y2="298.395"/><line x1="251.201" y1="296.499" x2="251.201" y2="300.291"/><line x1="249.305" y1="296.499" x2="253.097" y2="300.291"/><line x1="249.305" y1="300.291" x2="253.097" y2="296.499"/>
<line x1="253.805" y1="296.584" x2="257.597" y2="296.584"/><line x1="255.701" y1="294.688" x2="255.701" y2="298.48"/><line x1="253.805" y1="294.688" x2="257.597" y2="298.48"/><line x1="253.805" y1="298.48" x2="257.597" y2="294.688"/>
<line x1="258.305" y1="296.584" x2="262.097" y2="296.584"/><line x1="260.201" y1="294.688" x2="260.201" y2="298.48"/><line x1="258.305" y1="294.688" x2="262.097" y2="298.48"/><line x1="258.305" y1="298.48" x2="262.097" y2="294.688"/>
<line x1="262.804" y1="296.584" x2="266.597" y2="296.584"/><line x1="264.701" y1="294.688" x2="264.701" y2="298.48"/><line x1="262.804" y1="294.688" x2="266.597" y2="298.48"/><line x1="262.804" y1="298.48" x2="266.597" y2="294.688"/>
<line x1="267.304" y1="296.584" x2="271.097" y2="296.584"/><line x1="269.2" y1="294.688" x2="269.2" y2="298.48"/><line x1="267.304" y1="294.688" x2="271.097" y2="298.48"/><line x1="267.304" y1="298.48" x2="271.097" y2="294.688"/>
<line x1="271.804" y1="294.769" x2="275.596" y2="294.769"/><line x1="273.7" y1="292.872" x2="273.7" y2="296.665"/><line x1="271.804" y1="292.872" x2="275.596" y2="296.665"/><line x1="271.804" y1="296.665" x2="275.596" y2="292.872"/>
<line x1="276.304" y1="300.626" x2="280.096" y2="300.626"/><line x1="278.2" y1="298.73" x2="278.2" y2="302.522"/><line x1="276.304" y1="298.73" x2="280.096" y2="302.522"/><line x1="276.304" y1="302.522" x2="280.096" y2="298.73"/>
<line x1="280.804" y1="305.876" x2="284.596" y2="305.876"/><line x1="282.7" y1="303.98" x2="282.7" y2="307.772"/><line x1="280.804" y1="303.98" x2="284.596" y2="307.772"/><line x1="280.804" y1="307.772" x2="284.596" y2="303.98"/>
<line x1="285.304" y1="304.058" x2="289.096" y2="304.058"/><line x1="287.2" y1="302.162" x2="287.2" y2="305.954"/><line x1="285.304" y1="302.162" x2="289.096" y2="305.954"/><line x1="285.304" y1="305.954" x2="289.096" y2="302.162"/>
<line x1="289.804" y1="302.236" x2="293.596" y2="302.236"/><line x1="291.7" y1="300.34" x2="291.7" y2="304.132"/><line x1="289.804" y1="300.34" x2="293.596" y2="304.132"/><line x1="289.804" y1="304.132" x2="293.596" y2="300.34"/>
<line x1="294.304" y1="300.41" x2="298.096" y2="300.41"/><line x1="296.2" y1="298.514" x2="296.2" y2="302.306"/><line x1="294.304" y1="298.514" x2="298.096" y2="302.306"/><line x1="294.304" y1="302.306" x2="298.096" y2="298.514"/>
<line x1="298.804" y1="303.833" x2="302.596" y2="303.833"/><line x1="300.7" y1="301.937" x2="300.7" y2="305.729"/><line x1="298.804" y1="301.937" x2="302.596" y2="305.729"/><line x1="298.804" y1="305.729" x2="302.596" y2="301.937"/>
<line x1="303.303" y1="303.833" x2="307.096" y2="303.833"/><line x1="305.2" y1="301.937" x2="305.2" y2="305.729"/><line x1="303.303" y1="301.937" x2="307.096" y2="305.729"/><line x1="303.303" y1="305.729" x2="307.096" y2="301.937"/>
<line x1="307.803" y1="301.999" x2="311.596" y2="301.999"/><line x1="309.699" y1="300.103" x2="309.699" y2="303.895"/><line x1="307.803" y1="300.103" x2="311.596" y2="303.895"/><line x1="307.803" y1="303.895" x2="311.596" y2="300.103"/>
<line x1="312.303" y1="302.576" x2="316.095" y2="302.576"/><line x1="314.199" y1="300.68" x2="314.199" y2="304.473"/><line x1="312.303" y1="300.68" x2="316.095" y2="304.473"/><line x1="312.303" y1="304.473" x2="316.095" y2="300.68"/>
<line x1="316.803" y1="302.576" x2="320.595" y2="302.576"/><line x1="318.699" y1="300.68" x2="318.699" y2="304.473"/><line x1="316.803" y1="300.68" x2="320.595" y2="304.473"/><line x1="316.803" y1="304.473" x2="320.595" y2="300.68"/>
<line x1="321.303" y1="300.741" x2="325.095" y2="300.741"/><line x1="323.199" y1="298.845" x2="323.199" y2="302.637"/><line x1="321.303" y1="298.845" x2="325.095" y2="302.637"/><line x1="321.303" y1="302.637" x2="325.095" y2="298.845"/>
<line x1="325.803" y1="300.741" x2="329.595" y2="300.741"/><line x1="327.699" y1="298.845" x2="327.699" y2="302.637"/><line x1="325.803" y1="298.845" x2="329.595" y2="302.637"/><line x1="325.803" y1="302.637" x2="329.595" y2="298.845"/>
<line x1="330.303" y1="302.621" x2="334.095" y2="302.621"/><line x1="332.199" y1="300.725" x2="332.199" y2="304.517"/><line x1="330.303" y1="300.725" x2="334.095" y2="304.517"/><line x1="330.303" y1="304.517" x2="334.095" y2="300.725"/>
<line x1="334.803" y1="300.784" x2="338.595" y2="300.784"/><line x1="336.699" y1="298.888" x2="336.699" y2="302.68"/><line x1="334.803" y1="298.888" x2="338.595" y2="302.68"/><line x1="334.803" y1="302.68" x2="338.595" y2="298.888"/>
<line x1="339.303" y1="300.784" x2="343.095" y2="300.784"/><line x1="341.199" y1="298.888" x2="341.199" y2="302.68"/><line x1="339.303" y1="298.888" x2="343.095" y2="302.68"/><line x1="339.303" y1="302.68" x2="343.095" y2="298.888"/>
<line x1="343.802" y1="300.784" x2="347.595" y2="300.784"/><line x1="345.699" y1="298.888" x2="345.699" y2="302.68"/><line x1="343.802" y1="298.888" x2="347.595" y2="302.68"/><line x1="343.802" y1="302.68" x2="347.595" y2="298.888"/>
<line x1="348.302" y1="297.097" x2="352.094" y2="297.097"/><line x1="350.198" y1="295.201" x2="350.198" y2="298.993"/><line x1="348.302" y1="295.201" x2="352.094" y2="298.993"/><line x1="348.302" y1="298.993" x2="352.094" y2="295.201"/>
<line x1="352.802" y1="297.097" x2="356.594" y2="297.097"/><line x1="354.698" y1="295.201" x2="354.698" y2="298.993"/><line x1="352.802" y1="295.201" x2="356.594" y2="298.993"/><line x1="352.802" y1="298.993" x2="356.594" y2="295.201"/>
<line x1="357.302" y1="295.247" x2="361.094" y2="295.247"/><line x1="359.198" y1="293.351" x2="359.198" y2="297.144"/><line x1="357.302" y1="293.351" x2="361.094" y2="297.144"/><line x1="357.302" y1="297.144" x2="361.094" y2="293.351"/>
<line x1="361.802" y1="295.247" x2="365.594" y2="295.247"/><line x1="363.698" y1="293.351" x2="363.698" y2="297.144"/><line x1="361.802" y1="293.351" x2="365.594" y2="297.144"/><line x1="361.802" y1="297.144" x2="365.594" y2="293.351"/>
<line x1="366.302" y1="295.247" x2="370.094" y2="295.247"/><line x1="368.198" y1="293.351" x2="368.198" y2="297.144"/><line x1="366.302" y1="293.351" x2="370.094" y2="297.144"/><line x1="366.302" y1="297.144" x2="370.094" y2="293.351"/>
<line x1="370.802" y1="295.247" x2="374.594" y2="295.247"/><line x1="372.698" y1="293.351" x2="372.698" y2="297.144"/><line x1="370.802" y1="293.351" x2="374.594" y2="297.144"/><line x1="370.802" y1="297.144" x2="374.594" y2="293.351"/>
<line x1="375.302" y1="300.502" x2="379.094" y2="300.502"/><line x1="377.198" y1="298.606" x2="377.198" y2="302.398"/><line x1="375.302" y1="298.606" x2="379.094" y2="302.398"/><line x1="375.302" y1="302.398" x2="379.094" y2="298.606"/>
<line x1="379.802" y1="300.502" x2="383.594" y2="300.502"/><line x1="381.698" y1="298.606" x2="381.698" y2="302.398"/><line x1="379.802" y1="298.606" x2="383.594" y2="302.398"/><line x1="379.802" y1="302.398" x2="383.594" y2="298.606"/>
<line x1="384.301" y1="300.502" x2="388.094" y2="300.502"/><line x1="386.198" y1="298.606" x2="386.198" y2="302.398"/><line x1="384.301" y1="298.606" x2="388.094" y2="302.398"/><line x1="384.301" y1="302.398" x2="388.094" y2="298.606"/>
<line x1="388.801" y1="300.502" x2="392.593" y2="300.502"/><line x1="390.697" y1="298.606" x2="390.697" y2="302.398"/><line x1="388.801" y1="298.606" x2="392.593" y2="302.398"/><line x1="388.801" y1="302.398" x2="392.593" y2="298.606"/>
<line x1="393.301" y1="300.502" x2="397.093" y2="300.502"/><line x1="395.197" y1="298.606" x2="395.197" y2="302.398"/><line x1="393.301" y1="298.606" x2="397.093" y2="302.398"/><line x1="393.301" y1="302.398" x2="397.093" y2="298.606"/>
<line x1="397.801" y1="298.649" x2="401.593" y2="298.649"/><line x1="399.697" y1="296.753" x2="399.697" y2="300.545"/><line x1="397.801" y1="296.753" x2="401.593" y2="300.545"/><line x1="397.801" y1="300.545" x2="401.593" y2="296.753"/>
<line x1="402.301" y1="296.794" x2="406.093" y2="296.794"/><line x1="404.197" y1="294.898" x2="404.197" y2="298.69"/><line x1="402.301" y1="294.898" x2="406.093" y2="298.69"/><line x1="402.301" y1="298.69" x2="406.093" y2="294.898"/>
<line x1="406.801" y1="294.934" x2="410.593" y2="294.934"/><line x1="408.697" y1="293.038" x2="408.697" y2="296.83"/><line x1="406.801" y1="293.038" x2="410.593" y2="296.83"/><line x1="406.801" y1="296.83" x2="410.593" y2="293.038"/>
<line x1="411.301" y1="293.069" x2="415.093" y2="293.069"/><line x1="413.197" y1="291.173" x2="413.197" y2="294.965"/><line x1="411.301" y1="291.173" x2="415.093" y2="294.965"/><line x1="411.301" y1="294.965" x2="415.093" y2="291.173"/>
<line x1="415.801" y1="289.329" x2="419.593" y2="289.329"/><line x1="417.697" y1="287.433" x2="417.697" y2="291.225"/><line x1="415.801" y1="287.433" x2="419.593" y2="291.225"/><line x1="415.801" y1="291.225" x2="419.593" y2="287.433"/>
<line x1="420.301" y1="287.454" x2="424.093" y2="287.454"/><line x1="422.197" y1="285.558" x2="422.197" y2="289.35"/><line x1="420.301" y1="285.558" x2="424.093" y2="289.35"/><line x1="420.301" y1="289.35" x2="424.093" y2="285.558"/>
<line x1="424.8" y1="288.013" x2="428.593" y2="288.013"/><line x1="426.697" y1="286.117" x2="426.697" y2="289.909"/><line x1="424.8" y1="286.117" x2="428.593" y2="289.909"/><line x1="424.8" y1="289.909" x2="428.593" y2="286.117"/>
<line x1="429.3" y1="284.249" x2="433.092" y2="284.249"/><line x1="431.196" y1="282.353" x2="431.196" y2="286.145"/><line x1="429.3" y1="282.353" x2="433.092" y2="286.145"/><line x1="429.3" y1="286.145" x2="433.092" y2="282.353"/>
<line x1="433.8" y1="284.249" x2="437.592" y2="284.249"/><line x1="435.696" y1="282.353" x2="435.696" y2="286.145"/><line x1="433.8" y1="282.353" x2="437.592" y2="286.145"/><line x1="433.8" y1="286.145" x2="437.592" y2="282.353"/>
<line x1="438.3" y1="282.361" x2="442.092" y2="282.361"/><line x1="440.196" y1="280.465" x2="440.196" y2="284.257"/><line x1="438.3" y1="280.465" x2="442.092" y2="284.257"/><line x1="438.3" y1="284.257" x2="442.092" y2="280.465"/>
<line x1="442.8" y1="282.361" x2="446.592" y2="282.361"/><line x1="444.696" y1="280.465" x2="444.696" y2="284.257"/><line x1="442.8" y1="280.465" x2="446.592" y2="284.257"/><line x1="442.8" y1="284.257" x2="446.592" y2="280.465"/>
<line x1="447.3" y1="278.575" x2="451.092" y2="278.575"/><line x1="449.196" y1="276.679" x2="449.196" y2="280.471"/><line x1="447.3" y1="276.679" x2="451.092" y2="280.471"/><line x1="447.3" y1="280.471" x2="451.092" y2="276.679"/>
<line x1="451.8" y1="274.772" x2="455.592" y2="274.772"/><line x1="453.696" y1="272.876" x2="453.696" y2="276.668"/><line x1="451.8" y1="272.876" x2="455.592" y2="276.668"/><line x1="451.8" y1="276.668" x2="455.592" y2="272.876"/>
<line x1="456.3" y1="270.953" x2="460.092" y2="270.953"/><line x1="458.196" y1="269.057" x2="458.196" y2="272.849"/><line x1="456.3" y1="269.057" x2="460.092" y2="272.849"/><line x1="456.3" y1="272.849" x2="460.092" y2="269.057"/>
<line x1="460.799" y1="270.953" x2="464.592" y2="270.953"/><line x1="462.696" y1="269.057" x2="462.696" y2="272.849"/><line x1="460.799" y1="269.057" x2="464.592" y2="272.849"/><line x1="460.799" y1="272.849" x2="464.592" y2="269.057"/>
<line x1="465.299" y1="269.04" x2="469.092" y2="269.04"/><line x1="467.195" y1="267.143" x2="467.195" y2="270.936"/><line x1="465.299" y1="267.143" x2="469.092" y2="270.936"/><line x1="465.299" y1="270.936" x2="469.092" y2="267.143"/>
<line x1="469.799" y1="267.12" x2="473.591" y2="267.12"/><line x1="471.695" y1="265.224" x2="471.695" y2="269.016"/><line x1="469.799" y1="265.224" x2="473.591" y2="269.016"/><line x1="469.799" y1="269.016" x2="473.591" y2="265.224"/>
<line x1="474.299" y1="265.198" x2="478.091" y2="265.198"/><line x1="476.195" y1="263.301" x2="476.195" y2="267.094"/><line x1="474.299" y1="263.301" x2="478.091" y2="267.094"/><line x1="474.299" y1="267.094" x2="478.091" y2="263.301"/>
<line x1="478.799" y1="267.173" x2="482.591" y2="267.173"/><line x1="480.695" y1="265.277" x2="480.695" y2="269.069"/><line x1="478.799" y1="265.277" x2="482.591" y2="269.069"/><line x1="478.799" y1="269.069" x2="482.591" y2="265.277"/>
<line x1="483.299" y1="267.173" x2="487.091" y2="267.173"/><line x1="485.195" y1="265.277" x2="485.195" y2="269.069"/><line x1="483.299" y1="265.277" x2="487.091" y2="269.069"/><line x1="483.299" y1="269.069" x2="487.091" y2="265.277"/>
<line x1="487.799" y1="267.173" x2="491.591" y2="267.173"/><line x1="489.695" y1="265.277" x2="489.695" y2="269.069"/><line x1="487.799" y1="265.277" x2="491.591" y2="269.069"/><line x1="487.799" y1="269.069" x2="491.591" y2="265.277"/>
<line x1="492.299" y1="267.725" x2="496.091" y2="267.725"/><line x1="494.195" y1="265.829" x2="494.195" y2="269.621"/><line x1="492.299" y1="265.829" x2="496.091" y2="269.621"/><line x1="492.299" y1="269.621" x2="496.091" y2="265.829"/>
<line x1="496.799" y1="267.725" x2="500.591" y2="267.725"/><line x1="498.695" y1="265.829" x2="498.695" y2="269.621"/><line x1="496.799" y1="265.829" x2="500.591" y2="269.621"/><line x1="496.799" y1="269.621" x2="500.591" y2="265.829"/>
<line x1="501.298" y1="267.725" x2="505.091" y2="267.725"/><line x1="503.195" y1="265.829" x2="503.195" y2="269.621"/><line x1="501.298" y1="265.829" x2="505.091" y2="269.621"/><line x1="501.298" y1="269.621" x2="505.091" y2="265.829"/>
<line x1="505.798" y1="263.874" x2="509.591" y2="263.874"/><line x1="507.694" y1="261.978" x2="507.694" y2="265.77"/><line x1="505.798" y1="261.978" x2="509.591" y2="265.77"/><line x1="505.798" y1="265.77" x2="509.591" y2="261.978"/>
</g>
<path d="M0.5,272.809h 566.929" fill="none" stroke="#0000ff"/>
<text xml:space="preserve" x="111.895" y="18.4868" fill="black" font-size="15.1181" font-family="Helvetica">^2 v.s. calibration factorwithout 1st binand with last bin</text>
<text xml:space="preserve" x="103.837" y="18.4868" fill="black" font-size="15.1181" font-family="Times">&#0967;</text></svg>
