<?xml version="1.0" standalone="no"?>
<svg width="567.429" height="413.846" viewBox="0 0 567.429 413.846" xmlns="http://www.w3.org/2000/svg" shape-rendering="crispEdges">
<title>
figures/chi2zoomin_6PMTnpefilelist20.svg
</title>
<desc>
Creator: ROOT Version 6.18/04
CreationDate: Sun Nov  3 23:31:48 2019</desc>
<defs>
</defs>
<rect x="0.5" y="0" width="566.929" height="413.346" fill="white"/>
<rect x="57.1929" y="41.3346" width="453.543" height="330.677" fill="white"/>
<rect x="57.1929" y="41.3346" width="453.543" height="330.677" fill="none" stroke="black"/>
<path d="M57.1929,372.012h 453.543" fill="none" stroke="black"/>
<path d="M57.4226,41.3346v 330.677" fill="none" stroke="black" stroke-dasharray=" 1, 2"/>
<path d="M102.421,41.3346v 330.677" fill="none" stroke="black" stroke-dasharray=" 1, 2"/>
<path d="M147.42,41.3346v 330.677" fill="none" stroke="black" stroke-dasharray=" 1, 2"/>
<path d="M192.419,41.3346v 330.677" fill="none" stroke="black" stroke-dasharray=" 1, 2"/>
<path d="M237.418,41.3346v 330.677" fill="none" stroke="black" stroke-dasharray=" 1, 2"/>
<path d="M282.417,41.3346v 330.677" fill="none" stroke="black" stroke-dasharray=" 1, 2"/>
<path d="M327.416,41.3346v 330.677" fill="none" stroke="black" stroke-dasharray=" 1, 2"/>
<path d="M372.415,41.3346v 330.677" fill="none" stroke="black" stroke-dasharray=" 1, 2"/>
<path d="M417.414,41.3346v 330.677" fill="none" stroke="black" stroke-dasharray=" 1, 2"/>
<path d="M462.412,41.3346v 330.677" fill="none" stroke="black" stroke-dasharray=" 1, 2"/>
<path d="M507.411,41.3346v 330.677" fill="none" stroke="black" stroke-dasharray=" 1, 2"/>
<path d="M57.4226,41.3346v 330.677" fill="none" stroke="black" stroke-dasharray=" 1, 2"/>
<path d="M507.411,41.3346v 330.677" fill="none" stroke="black" stroke-dasharray=" 1, 2"/>
<path d="M57.1929,372.012v -330.677" fill="none" stroke="black"/>
<path d="M57.1929,372.012h 453.543" fill="none" stroke="black"/>
<path d="M57.4226,362.091v 9.92031" fill="none" stroke="black"/>
<path d="M68.6723,367.052v 4.96016" fill="none" stroke="black"/>
<path d="M79.922,367.052v 4.96016" fill="none" stroke="black"/>
<path d="M91.1717,367.052v 4.96016" fill="none" stroke="black"/>
<path d="M102.421,362.091v 9.92031" fill="none" stroke="black"/>
<path d="M113.671,367.052v 4.96016" fill="none" stroke="black"/>
<path d="M124.921,367.052v 4.96016" fill="none" stroke="black"/>
<path d="M136.171,367.052v 4.96016" fill="none" stroke="black"/>
<path d="M147.42,362.091v 9.92031" fill="none" stroke="black"/>
<path d="M158.67,367.052v 4.96016" fill="none" stroke="black"/>
<path d="M169.92,367.052v 4.96016" fill="none" stroke="black"/>
<path d="M181.169,367.052v 4.96016" fill="none" stroke="black"/>
<path d="M192.419,362.091v 9.92031" fill="none" stroke="black"/>
<path d="M203.669,367.052v 4.96016" fill="none" stroke="black"/>
<path d="M214.919,367.052v 4.96016" fill="none" stroke="black"/>
<path d="M226.168,367.052v 4.96016" fill="none" stroke="black"/>
<path d="M237.418,362.091v 9.92031" fill="none" stroke="black"/>
<path d="M248.668,367.052v 4.96016" fill="none" stroke="black"/>
<path d="M259.918,367.052v 4.96016" fill="none" stroke="black"/>
<path d="M271.167,367.052v 4.96016" fill="none" stroke="black"/>
<path d="M282.417,362.091v 9.92031" fill="none" stroke="black"/>
<path d="M293.667,367.052v 4.96016" fill="none" stroke="black"/>
<path d="M304.916,367.052v 4.96016" fill="none" stroke="black"/>
<path d="M316.166,367.052v 4.96016" fill="none" stroke="black"/>
<path d="M327.416,362.091v 9.92031" fill="none" stroke="black"/>
<path d="M338.666,367.052v 4.96016" fill="none" stroke="black"/>
<path d="M349.915,367.052v 4.96016" fill="none" stroke="black"/>
<path d="M361.165,367.052v 4.96016" fill="none" stroke="black"/>
<path d="M372.415,362.091v 9.92031" fill="none" stroke="black"/>
<path d="M383.664,367.052v 4.96016" fill="none" stroke="black"/>
<path d="M394.914,367.052v 4.96016" fill="none" stroke="black"/>
<path d="M406.164,367.052v 4.96016" fill="none" stroke="black"/>
<path d="M417.414,362.091v 9.92031" fill="none" stroke="black"/>
<path d="M428.663,367.052v 4.96016" fill="none" stroke="black"/>
<path d="M439.913,367.052v 4.96016" fill="none" stroke="black"/>
<path d="M451.163,367.052v 4.96016" fill="none" stroke="black"/>
<path d="M462.412,362.091v 9.92031" fill="none" stroke="black"/>
<path d="M473.662,367.052v 4.96016" fill="none" stroke="black"/>
<path d="M484.912,367.052v 4.96016" fill="none" stroke="black"/>
<path d="M496.162,367.052v 4.96016" fill="none" stroke="black"/>
<path d="M507.411,362.091v 9.92031" fill="none" stroke="black"/>
<path d="M57.4226,362.091v 9.92031" fill="none" stroke="black"/>
<path d="M507.411,362.091v 9.92031" fill="none" stroke="black"/>
<text xml:space="preserve" x="40.7918" y="385.379" fill="black" font-size="13.7726" font-family="Helvetica">1.102</text>
<text xml:space="preserve" x="85.8238" y="385.379" fill="black" font-size="13.7726" font-family="Helvetica">1.104</text>
<text xml:space="preserve" x="130.382" y="385.379" fill="black" font-size="13.7726" font-family="Helvetica">1.106</text>
<text xml:space="preserve" x="175.414" y="385.379" fill="black" font-size="13.7726" font-family="Helvetica">1.108</text>
<text xml:space="preserve" x="225.186" y="385.379" fill="black" font-size="13.7726" font-family="Helvetica">1.11</text>
<text xml:space="preserve" x="265.478" y="385.379" fill="black" font-size="13.7726" font-family="Helvetica">1.112</text>
<text xml:space="preserve" x="310.51" y="385.379" fill="black" font-size="13.7726" font-family="Helvetica">1.114</text>
<text xml:space="preserve" x="355.542" y="385.379" fill="black" font-size="13.7726" font-family="Helvetica">1.116</text>
<text xml:space="preserve" x="400.574" y="385.379" fill="black" font-size="13.7726" font-family="Helvetica">1.118</text>
<text xml:space="preserve" x="449.398" y="385.379" fill="black" font-size="13.7726" font-family="Helvetica">1.12</text>
<text xml:space="preserve" x="490.638" y="385.379" fill="black" font-size="13.7726" font-family="Helvetica">1.122</text>
<text xml:space="preserve" x="413.372" y="400.074" fill="black" font-size="13.7726" font-family="Helvetica">calibration factor</text>
<path d="M57.1929,372.012v -330.677" fill="none" stroke="black"/>
<path d="M70.7992,362.035h -13.6063" fill="none" stroke="black"/>
<path d="M63.9961,355.421h -6.80315" fill="none" stroke="black"/>
<path d="M63.9961,348.808h -6.80315" fill="none" stroke="black"/>
<path d="M63.9961,342.194h -6.80315" fill="none" stroke="black"/>
<path d="M63.9961,335.581h -6.80315" fill="none" stroke="black"/>
<path d="M70.7992,328.967h -13.6063" fill="none" stroke="black"/>
<path d="M63.9961,322.354h -6.80315" fill="none" stroke="black"/>
<path d="M63.9961,315.74h -6.80315" fill="none" stroke="black"/>
<path d="M63.9961,309.127h -6.80315" fill="none" stroke="black"/>
<path d="M63.9961,302.513h -6.80315" fill="none" stroke="black"/>
<path d="M70.7992,295.9h -13.6063" fill="none" stroke="black"/>
<path d="M63.9961,289.286h -6.80315" fill="none" stroke="black"/>
<path d="M63.9961,282.672h -6.80315" fill="none" stroke="black"/>
<path d="M63.9961,276.059h -6.80315" fill="none" stroke="black"/>
<path d="M63.9961,269.445h -6.80315" fill="none" stroke="black"/>
<path d="M70.7992,262.832h -13.6063" fill="none" stroke="black"/>
<path d="M63.9961,256.218h -6.80315" fill="none" stroke="black"/>
<path d="M63.9961,249.605h -6.80315" fill="none" stroke="black"/>
<path d="M63.9961,242.991h -6.80315" fill="none" stroke="black"/>
<path d="M63.9961,236.378h -6.80315" fill="none" stroke="black"/>
<path d="M70.7992,229.764h -13.6063" fill="none" stroke="black"/>
<path d="M63.9961,223.151h -6.80315" fill="none" stroke="black"/>
<path d="M63.9961,216.537h -6.80315" fill="none" stroke="black"/>
<path d="M63.9961,209.923h -6.80315" fill="none" stroke="black"/>
<path d="M63.9961,203.31h -6.80315" fill="none" stroke="black"/>
<path d="M70.7992,196.696h -13.6063" fill="none" stroke="black"/>
<path d="M63.9961,190.083h -6.80315" fill="none" stroke="black"/>
<path d="M63.9961,183.469h -6.80315" fill="none" stroke="black"/>
<path d="M63.9961,176.856h -6.80315" fill="none" stroke="black"/>
<path d="M63.9961,170.242h -6.80315" fill="none" stroke="black"/>
<path d="M70.7992,163.629h -13.6063" fill="none" stroke="black"/>
<path d="M63.9961,157.015h -6.80315" fill="none" stroke="black"/>
<path d="M63.9961,150.402h -6.80315" fill="none" stroke="black"/>
<path d="M63.9961,143.788h -6.80315" fill="none" stroke="black"/>
<path d="M63.9961,137.175h -6.80315" fill="none" stroke="black"/>
<path d="M70.7992,130.561h -13.6063" fill="none" stroke="black"/>
<path d="M63.9961,123.947h -6.80315" fill="none" stroke="black"/>
<path d="M63.9961,117.334h -6.80315" fill="none" stroke="black"/>
<path d="M63.9961,110.72h -6.80315" fill="none" stroke="black"/>
<path d="M63.9961,104.107h -6.80315" fill="none" stroke="black"/>
<path d="M70.7992,97.4933h -13.6063" fill="none" stroke="black"/>
<path d="M63.9961,90.8797h -6.80315" fill="none" stroke="black"/>
<path d="M63.9961,84.2662h -6.80315" fill="none" stroke="black"/>
<path d="M63.9961,77.6527h -6.80315" fill="none" stroke="black"/>
<path d="M63.9961,71.0391h -6.80315" fill="none" stroke="black"/>
<path d="M70.7992,64.4256h -13.6063" fill="none" stroke="black"/>
<path d="M70.7992,362.035h -13.6063" fill="none" stroke="black"/>
<path d="M63.9961,368.648h -6.80315" fill="none" stroke="black"/>
<path d="M70.7992,64.4256h -13.6063" fill="none" stroke="black"/>
<path d="M63.9961,57.812h -6.80315" fill="none" stroke="black"/>
<path d="M63.9961,51.1985h -6.80315" fill="none" stroke="black"/>
<path d="M63.9961,44.585h -6.80315" fill="none" stroke="black"/>
<text xml:space="preserve" x="32.2594" y="366.418" fill="black" font-size="13.7726" font-family="Helvetica">148</text>
<text xml:space="preserve" x="32.2594" y="333.237" fill="black" font-size="13.7726" font-family="Helvetica">149</text>
<text xml:space="preserve" x="32.2594" y="300.529" fill="black" font-size="13.7726" font-family="Helvetica">150</text>
<text xml:space="preserve" x="34.6295" y="267.348" fill="black" font-size="13.7726" font-family="Helvetica">151</text>
<text xml:space="preserve" x="32.2594" y="234.166" fill="black" font-size="13.7726" font-family="Helvetica">152</text>
<text xml:space="preserve" x="32.2594" y="200.985" fill="black" font-size="13.7726" font-family="Helvetica">153</text>
<text xml:space="preserve" x="32.2594" y="168.277" fill="black" font-size="13.7726" font-family="Helvetica">154</text>
<text xml:space="preserve" x="32.2594" y="135.096" fill="black" font-size="13.7726" font-family="Helvetica">155</text>
<text xml:space="preserve" x="32.2594" y="101.915" fill="black" font-size="13.7726" font-family="Helvetica">156</text>
<text xml:space="preserve" x="32.2594" y="68.733" fill="black" font-size="13.7726" font-family="Helvetica">157</text>
<g transform="rotate(-90,15.1947,45.98)">
<text xml:space="preserve" x="15.1947" y="45.98" fill="black" font-size="9.34839" font-family="Helvetica">2</text>
</g>
<g transform="rotate(-90,19.4608,50.2462)">
<text xml:space="preserve" x="19.4608" y="50.2462" fill="black" font-size="13.7726" font-family="Helvetica"> </text>
</g>
<g transform="rotate(-90,19.4608,57.3565)">
<text xml:space="preserve" x="19.4608" y="57.3565" fill="black" font-size="13.7726" font-family="Times">&#0967;</text>
</g>
<text xml:space="preserve" x="111.895" y="18.4868" fill="black" font-size="15.1181" font-family="Helvetica">^2 v.s. calibration factorwithout 1st binand with last bin</text>
<text xml:space="preserve" x="103.837" y="18.4868" fill="black" font-size="15.1181" font-family="Times">&#0967;</text>
<g stroke="black" stroke-width="1" fill="none">
<line x1="55.5265" y1="245.998" x2="59.3187" y2="245.998"/><line x1="57.4226" y1="244.102" x2="57.4226" y2="247.894"/><line x1="55.5265" y1="244.102" x2="59.3187" y2="247.894"/><line x1="55.5265" y1="247.894" x2="59.3187" y2="244.102"/>
<line x1="60.0264" y1="248.523" x2="63.8186" y2="248.523"/><line x1="61.9225" y1="246.627" x2="61.9225" y2="250.419"/><line x1="60.0264" y1="246.627" x2="63.8186" y2="250.419"/><line x1="60.0264" y1="250.419" x2="63.8186" y2="246.627"/>
<line x1="64.5263" y1="229.856" x2="68.3185" y2="229.856"/><line x1="66.4224" y1="227.96" x2="66.4224" y2="231.752"/><line x1="64.5263" y1="227.96" x2="68.3185" y2="231.752"/><line x1="64.5263" y1="231.752" x2="68.3185" y2="227.96"/>
<line x1="69.0262" y1="217.751" x2="72.8183" y2="217.751"/><line x1="70.9223" y1="215.855" x2="70.9223" y2="219.647"/><line x1="69.0262" y1="215.855" x2="72.8183" y2="219.647"/><line x1="69.0262" y1="219.647" x2="72.8183" y2="215.855"/>
<line x1="73.5261" y1="216.597" x2="77.3182" y2="216.597"/><line x1="75.4221" y1="214.701" x2="75.4221" y2="218.493"/><line x1="73.5261" y1="214.701" x2="77.3182" y2="218.493"/><line x1="73.5261" y1="218.493" x2="77.3182" y2="214.701"/>
<line x1="78.0259" y1="209.651" x2="81.8181" y2="209.651"/><line x1="79.922" y1="207.755" x2="79.922" y2="211.547"/><line x1="78.0259" y1="207.755" x2="81.8181" y2="211.547"/><line x1="78.0259" y1="211.547" x2="81.8181" y2="207.755"/>
<line x1="82.5258" y1="205.768" x2="86.318" y2="205.768"/><line x1="84.4219" y1="203.872" x2="84.4219" y2="207.664"/><line x1="82.5258" y1="203.872" x2="86.318" y2="207.664"/><line x1="82.5258" y1="207.664" x2="86.318" y2="203.872"/>
<line x1="87.0257" y1="180.438" x2="90.8179" y2="180.438"/><line x1="88.9218" y1="178.541" x2="88.9218" y2="182.334"/><line x1="87.0257" y1="178.541" x2="90.8179" y2="182.334"/><line x1="87.0257" y1="182.334" x2="90.8179" y2="178.541"/>
<line x1="91.5256" y1="162.489" x2="95.3178" y2="162.489"/><line x1="93.4217" y1="160.592" x2="93.4217" y2="164.385"/><line x1="91.5256" y1="160.592" x2="95.3178" y2="164.385"/><line x1="91.5256" y1="164.385" x2="95.3178" y2="160.592"/>
<line x1="96.0255" y1="153.451" x2="99.8177" y2="153.451"/><line x1="97.9216" y1="151.555" x2="97.9216" y2="155.347"/><line x1="96.0255" y1="151.555" x2="99.8177" y2="155.347"/><line x1="96.0255" y1="155.347" x2="99.8177" y2="151.555"/>
<line x1="100.525" y1="146.455" x2="104.318" y2="146.455"/><line x1="102.421" y1="144.559" x2="102.421" y2="148.351"/><line x1="100.525" y1="144.559" x2="104.318" y2="148.351"/><line x1="100.525" y1="148.351" x2="104.318" y2="144.559"/>
<line x1="105.025" y1="168.713" x2="108.817" y2="168.713"/><line x1="106.921" y1="166.816" x2="106.921" y2="170.609"/><line x1="105.025" y1="166.816" x2="108.817" y2="170.609"/><line x1="105.025" y1="170.609" x2="108.817" y2="166.816"/>
<line x1="109.525" y1="167.94" x2="113.317" y2="167.94"/><line x1="111.421" y1="166.044" x2="111.421" y2="169.836"/><line x1="109.525" y1="166.044" x2="113.317" y2="169.836"/><line x1="109.525" y1="169.836" x2="113.317" y2="166.044"/>
<line x1="114.025" y1="210.54" x2="117.817" y2="210.54"/><line x1="115.921" y1="208.644" x2="115.921" y2="212.436"/><line x1="114.025" y1="208.644" x2="117.817" y2="212.436"/><line x1="114.025" y1="212.436" x2="117.817" y2="208.644"/>
<line x1="118.525" y1="208.164" x2="122.317" y2="208.164"/><line x1="120.421" y1="206.268" x2="120.421" y2="210.06"/><line x1="118.525" y1="206.268" x2="122.317" y2="210.06"/><line x1="118.525" y1="210.06" x2="122.317" y2="206.268"/>
<line x1="123.025" y1="194.834" x2="126.817" y2="194.834"/><line x1="124.921" y1="192.938" x2="124.921" y2="196.73"/><line x1="123.025" y1="192.938" x2="126.817" y2="196.73"/><line x1="123.025" y1="196.73" x2="126.817" y2="192.938"/>
<line x1="127.525" y1="221.503" x2="131.317" y2="221.503"/><line x1="129.421" y1="219.606" x2="129.421" y2="223.399"/><line x1="127.525" y1="219.606" x2="131.317" y2="223.399"/><line x1="127.525" y1="223.399" x2="131.317" y2="219.606"/>
<line x1="132.025" y1="223.656" x2="135.817" y2="223.656"/><line x1="133.921" y1="221.76" x2="133.921" y2="225.552"/><line x1="132.025" y1="221.76" x2="135.817" y2="225.552"/><line x1="132.025" y1="225.552" x2="135.817" y2="221.76"/>
<line x1="136.524" y1="224.643" x2="140.317" y2="224.643"/><line x1="138.421" y1="222.747" x2="138.421" y2="226.539"/><line x1="136.524" y1="222.747" x2="140.317" y2="226.539"/><line x1="136.524" y1="226.539" x2="140.317" y2="222.747"/>
<line x1="141.024" y1="208.629" x2="144.817" y2="208.629"/><line x1="142.92" y1="206.733" x2="142.92" y2="210.525"/><line x1="141.024" y1="206.733" x2="144.817" y2="210.525"/><line x1="141.024" y1="210.525" x2="144.817" y2="206.733"/>
<line x1="145.524" y1="222.257" x2="149.316" y2="222.257"/><line x1="147.42" y1="220.361" x2="147.42" y2="224.154"/><line x1="145.524" y1="220.361" x2="149.316" y2="224.154"/><line x1="145.524" y1="224.154" x2="149.316" y2="220.361"/>
<line x1="150.024" y1="224.391" x2="153.816" y2="224.391"/><line x1="151.92" y1="222.495" x2="151.92" y2="226.287"/><line x1="150.024" y1="222.495" x2="153.816" y2="226.287"/><line x1="150.024" y1="226.287" x2="153.816" y2="222.495"/>
<line x1="154.524" y1="228.028" x2="158.316" y2="228.028"/><line x1="156.42" y1="226.132" x2="156.42" y2="229.924"/><line x1="154.524" y1="226.132" x2="158.316" y2="229.924"/><line x1="154.524" y1="229.924" x2="158.316" y2="226.132"/>
<line x1="159.024" y1="255.427" x2="162.816" y2="255.427"/><line x1="160.92" y1="253.531" x2="160.92" y2="257.323"/><line x1="159.024" y1="253.531" x2="162.816" y2="257.323"/><line x1="159.024" y1="257.323" x2="162.816" y2="253.531"/>
<line x1="163.524" y1="239.34" x2="167.316" y2="239.34"/><line x1="165.42" y1="237.444" x2="165.42" y2="241.236"/><line x1="163.524" y1="237.444" x2="167.316" y2="241.236"/><line x1="163.524" y1="241.236" x2="167.316" y2="237.444"/>
<line x1="168.024" y1="247.225" x2="171.816" y2="247.225"/><line x1="169.92" y1="245.328" x2="169.92" y2="249.121"/><line x1="168.024" y1="245.328" x2="171.816" y2="249.121"/><line x1="168.024" y1="249.121" x2="171.816" y2="245.328"/>
<line x1="172.524" y1="230.669" x2="176.316" y2="230.669"/><line x1="174.42" y1="228.773" x2="174.42" y2="232.565"/><line x1="172.524" y1="228.773" x2="176.316" y2="232.565"/><line x1="172.524" y1="232.565" x2="176.316" y2="228.773"/>
<line x1="177.023" y1="234.984" x2="180.816" y2="234.984"/><line x1="178.92" y1="233.088" x2="178.92" y2="236.88"/><line x1="177.023" y1="233.088" x2="180.816" y2="236.88"/><line x1="177.023" y1="236.88" x2="180.816" y2="233.088"/>
<line x1="181.523" y1="247.845" x2="185.316" y2="247.845"/><line x1="183.419" y1="245.949" x2="183.419" y2="249.742"/><line x1="181.523" y1="245.949" x2="185.316" y2="249.742"/><line x1="181.523" y1="249.742" x2="185.316" y2="245.949"/>
<line x1="186.023" y1="254.033" x2="189.815" y2="254.033"/><line x1="187.919" y1="252.136" x2="187.919" y2="255.929"/><line x1="186.023" y1="252.136" x2="189.815" y2="255.929"/><line x1="186.023" y1="255.929" x2="189.815" y2="252.136"/>
<line x1="190.523" y1="259.67" x2="194.315" y2="259.67"/><line x1="192.419" y1="257.774" x2="192.419" y2="261.566"/><line x1="190.523" y1="257.774" x2="194.315" y2="261.566"/><line x1="190.523" y1="261.566" x2="194.315" y2="257.774"/>
<line x1="195.023" y1="239.918" x2="198.815" y2="239.918"/><line x1="196.919" y1="238.021" x2="196.919" y2="241.814"/><line x1="195.023" y1="238.021" x2="198.815" y2="241.814"/><line x1="195.023" y1="241.814" x2="198.815" y2="238.021"/>
<line x1="199.523" y1="251.105" x2="203.315" y2="251.105"/><line x1="201.419" y1="249.209" x2="201.419" y2="253.001"/><line x1="199.523" y1="249.209" x2="203.315" y2="253.001"/><line x1="199.523" y1="253.001" x2="203.315" y2="249.209"/>
<line x1="204.023" y1="258.334" x2="207.815" y2="258.334"/><line x1="205.919" y1="256.438" x2="205.919" y2="260.23"/><line x1="204.023" y1="256.438" x2="207.815" y2="260.23"/><line x1="204.023" y1="260.23" x2="207.815" y2="256.438"/>
<line x1="208.523" y1="249.505" x2="212.315" y2="249.505"/><line x1="210.419" y1="247.609" x2="210.419" y2="251.401"/><line x1="208.523" y1="247.609" x2="212.315" y2="251.401"/><line x1="208.523" y1="251.401" x2="212.315" y2="247.609"/>
<line x1="213.023" y1="269.997" x2="216.815" y2="269.997"/><line x1="214.919" y1="268.1" x2="214.919" y2="271.893"/><line x1="213.023" y1="268.1" x2="216.815" y2="271.893"/><line x1="213.023" y1="271.893" x2="216.815" y2="268.1"/>
<line x1="217.522" y1="271.998" x2="221.315" y2="271.998"/><line x1="219.419" y1="270.102" x2="219.419" y2="273.894"/><line x1="217.522" y1="270.102" x2="221.315" y2="273.894"/><line x1="217.522" y1="273.894" x2="221.315" y2="270.102"/>
<line x1="222.022" y1="285.367" x2="225.815" y2="285.367"/><line x1="223.918" y1="283.471" x2="223.918" y2="287.263"/><line x1="222.022" y1="283.471" x2="225.815" y2="287.263"/><line x1="222.022" y1="287.263" x2="225.815" y2="283.471"/>
<line x1="226.522" y1="285.086" x2="230.314" y2="285.086"/><line x1="228.418" y1="283.189" x2="228.418" y2="286.982"/><line x1="226.522" y1="283.189" x2="230.314" y2="286.982"/><line x1="226.522" y1="286.982" x2="230.314" y2="283.189"/>
<line x1="231.022" y1="260.067" x2="234.814" y2="260.067"/><line x1="232.918" y1="258.171" x2="232.918" y2="261.963"/><line x1="231.022" y1="258.171" x2="234.814" y2="261.963"/><line x1="231.022" y1="261.963" x2="234.814" y2="258.171"/>
<line x1="235.522" y1="268.851" x2="239.314" y2="268.851"/><line x1="237.418" y1="266.955" x2="237.418" y2="270.747"/><line x1="235.522" y1="266.955" x2="239.314" y2="270.747"/><line x1="235.522" y1="270.747" x2="239.314" y2="266.955"/>
<line x1="240.022" y1="255.757" x2="243.814" y2="255.757"/><line x1="241.918" y1="253.861" x2="241.918" y2="257.653"/><line x1="240.022" y1="253.861" x2="243.814" y2="257.653"/><line x1="240.022" y1="257.653" x2="243.814" y2="253.861"/>
<line x1="244.522" y1="257.036" x2="248.314" y2="257.036"/><line x1="246.418" y1="255.139" x2="246.418" y2="258.932"/><line x1="244.522" y1="255.139" x2="248.314" y2="258.932"/><line x1="244.522" y1="258.932" x2="248.314" y2="255.139"/>
<line x1="249.022" y1="255.118" x2="252.814" y2="255.118"/><line x1="250.918" y1="253.222" x2="250.918" y2="257.014"/><line x1="249.022" y1="253.222" x2="252.814" y2="257.014"/><line x1="249.022" y1="257.014" x2="252.814" y2="253.222"/>
<line x1="253.522" y1="240.723" x2="257.314" y2="240.723"/><line x1="255.418" y1="238.827" x2="255.418" y2="242.619"/><line x1="253.522" y1="238.827" x2="257.314" y2="242.619"/><line x1="253.522" y1="242.619" x2="257.314" y2="238.827"/>
<line x1="258.021" y1="238.926" x2="261.814" y2="238.926"/><line x1="259.918" y1="237.03" x2="259.918" y2="240.822"/><line x1="258.021" y1="237.03" x2="261.814" y2="240.822"/><line x1="258.021" y1="240.822" x2="261.814" y2="237.03"/>
<line x1="262.521" y1="248.762" x2="266.314" y2="248.762"/><line x1="264.417" y1="246.866" x2="264.417" y2="250.658"/><line x1="262.521" y1="246.866" x2="266.314" y2="250.658"/><line x1="262.521" y1="250.658" x2="266.314" y2="246.866"/>
<line x1="267.021" y1="265.965" x2="270.813" y2="265.965"/><line x1="268.917" y1="264.069" x2="268.917" y2="267.861"/><line x1="267.021" y1="264.069" x2="270.813" y2="267.861"/><line x1="267.021" y1="267.861" x2="270.813" y2="264.069"/>
<line x1="271.521" y1="298.833" x2="275.313" y2="298.833"/><line x1="273.417" y1="296.937" x2="273.417" y2="300.729"/><line x1="271.521" y1="296.937" x2="275.313" y2="300.729"/><line x1="271.521" y1="300.729" x2="275.313" y2="296.937"/>
<line x1="276.021" y1="299.266" x2="279.813" y2="299.266"/><line x1="277.917" y1="297.37" x2="277.917" y2="301.162"/><line x1="276.021" y1="297.37" x2="279.813" y2="301.162"/><line x1="276.021" y1="301.162" x2="279.813" y2="297.37"/>
<line x1="280.521" y1="305.876" x2="284.313" y2="305.876"/><line x1="282.417" y1="303.98" x2="282.417" y2="307.772"/><line x1="280.521" y1="303.98" x2="284.313" y2="307.772"/><line x1="280.521" y1="307.772" x2="284.313" y2="303.98"/>
<line x1="285.021" y1="278.594" x2="288.813" y2="278.594"/><line x1="286.917" y1="276.698" x2="286.917" y2="280.49"/><line x1="285.021" y1="276.698" x2="288.813" y2="280.49"/><line x1="285.021" y1="280.49" x2="288.813" y2="276.698"/>
<line x1="289.521" y1="299.335" x2="293.313" y2="299.335"/><line x1="291.417" y1="297.438" x2="291.417" y2="301.231"/><line x1="289.521" y1="297.438" x2="293.313" y2="301.231"/><line x1="289.521" y1="301.231" x2="293.313" y2="297.438"/>
<line x1="294.021" y1="305.001" x2="297.813" y2="305.001"/><line x1="295.917" y1="303.105" x2="295.917" y2="306.898"/><line x1="294.021" y1="303.105" x2="297.813" y2="306.898"/><line x1="294.021" y1="306.898" x2="297.813" y2="303.105"/>
<line x1="298.52" y1="269.831" x2="302.313" y2="269.831"/><line x1="300.417" y1="267.935" x2="300.417" y2="271.727"/><line x1="298.52" y1="267.935" x2="302.313" y2="271.727"/><line x1="298.52" y1="271.727" x2="302.313" y2="267.935"/>
<line x1="303.02" y1="265.126" x2="306.812" y2="265.126"/><line x1="304.916" y1="263.23" x2="304.916" y2="267.022"/><line x1="303.02" y1="263.23" x2="306.812" y2="267.022"/><line x1="303.02" y1="267.022" x2="306.812" y2="263.23"/>
<line x1="307.52" y1="251.021" x2="311.312" y2="251.021"/><line x1="309.416" y1="249.125" x2="309.416" y2="252.917"/><line x1="307.52" y1="249.125" x2="311.312" y2="252.917"/><line x1="307.52" y1="252.917" x2="311.312" y2="249.125"/>
<line x1="312.02" y1="259.777" x2="315.812" y2="259.777"/><line x1="313.916" y1="257.881" x2="313.916" y2="261.673"/><line x1="312.02" y1="257.881" x2="315.812" y2="261.673"/><line x1="312.02" y1="261.673" x2="315.812" y2="257.881"/>
<line x1="316.52" y1="257.59" x2="320.312" y2="257.59"/><line x1="318.416" y1="255.694" x2="318.416" y2="259.486"/><line x1="316.52" y1="255.694" x2="320.312" y2="259.486"/><line x1="316.52" y1="259.486" x2="320.312" y2="255.694"/>
<line x1="321.02" y1="242.35" x2="324.812" y2="242.35"/><line x1="322.916" y1="240.454" x2="322.916" y2="244.247"/><line x1="321.02" y1="240.454" x2="324.812" y2="244.247"/><line x1="321.02" y1="244.247" x2="324.812" y2="240.454"/>
<line x1="325.52" y1="275.879" x2="329.312" y2="275.879"/><line x1="327.416" y1="273.983" x2="327.416" y2="277.775"/><line x1="325.52" y1="273.983" x2="329.312" y2="277.775"/><line x1="325.52" y1="277.775" x2="329.312" y2="273.983"/>
<line x1="330.02" y1="272.515" x2="333.812" y2="272.515"/><line x1="331.916" y1="270.619" x2="331.916" y2="274.411"/><line x1="330.02" y1="270.619" x2="333.812" y2="274.411"/><line x1="330.02" y1="274.411" x2="333.812" y2="270.619"/>
<line x1="334.52" y1="239.886" x2="338.312" y2="239.886"/><line x1="336.416" y1="237.99" x2="336.416" y2="241.782"/><line x1="334.52" y1="237.99" x2="338.312" y2="241.782"/><line x1="334.52" y1="241.782" x2="338.312" y2="237.99"/>
<line x1="339.019" y1="253.438" x2="342.812" y2="253.438"/><line x1="340.915" y1="251.542" x2="340.915" y2="255.334"/><line x1="339.019" y1="251.542" x2="342.812" y2="255.334"/><line x1="339.019" y1="255.334" x2="342.812" y2="251.542"/>
<line x1="343.519" y1="255.433" x2="347.311" y2="255.433"/><line x1="345.415" y1="253.537" x2="345.415" y2="257.329"/><line x1="343.519" y1="253.537" x2="347.311" y2="257.329"/><line x1="343.519" y1="257.329" x2="347.311" y2="253.537"/>
<line x1="348.019" y1="217.056" x2="351.811" y2="217.056"/><line x1="349.915" y1="215.16" x2="349.915" y2="218.952"/><line x1="348.019" y1="215.16" x2="351.811" y2="218.952"/><line x1="348.019" y1="218.952" x2="351.811" y2="215.16"/>
<line x1="352.519" y1="173.702" x2="356.311" y2="173.702"/><line x1="354.415" y1="171.806" x2="354.415" y2="175.598"/><line x1="352.519" y1="171.806" x2="356.311" y2="175.598"/><line x1="352.519" y1="175.598" x2="356.311" y2="171.806"/>
<line x1="357.019" y1="176.908" x2="360.811" y2="176.908"/><line x1="358.915" y1="175.012" x2="358.915" y2="178.804"/><line x1="357.019" y1="175.012" x2="360.811" y2="178.804"/><line x1="357.019" y1="178.804" x2="360.811" y2="175.012"/>
<line x1="361.519" y1="165.08" x2="365.311" y2="165.08"/><line x1="363.415" y1="163.184" x2="363.415" y2="166.976"/><line x1="361.519" y1="163.184" x2="365.311" y2="166.976"/><line x1="361.519" y1="166.976" x2="365.311" y2="163.184"/>
<line x1="366.019" y1="173.602" x2="369.811" y2="173.602"/><line x1="367.915" y1="171.706" x2="367.915" y2="175.498"/><line x1="366.019" y1="171.706" x2="369.811" y2="175.498"/><line x1="366.019" y1="175.498" x2="369.811" y2="171.706"/>
<line x1="370.519" y1="151.362" x2="374.311" y2="151.362"/><line x1="372.415" y1="149.466" x2="372.415" y2="153.258"/><line x1="370.519" y1="149.466" x2="374.311" y2="153.258"/><line x1="370.519" y1="153.258" x2="374.311" y2="149.466"/>
<line x1="375.019" y1="134.569" x2="378.811" y2="134.569"/><line x1="376.915" y1="132.673" x2="376.915" y2="136.465"/><line x1="375.019" y1="132.673" x2="378.811" y2="136.465"/><line x1="375.019" y1="136.465" x2="378.811" y2="132.673"/>
<line x1="379.518" y1="134.767" x2="383.311" y2="134.767"/><line x1="381.414" y1="132.871" x2="381.414" y2="136.663"/><line x1="379.518" y1="132.871" x2="383.311" y2="136.663"/><line x1="379.518" y1="136.663" x2="383.311" y2="132.871"/>
<line x1="384.018" y1="121.47" x2="387.81" y2="121.47"/><line x1="385.914" y1="119.574" x2="385.914" y2="123.366"/><line x1="384.018" y1="119.574" x2="387.81" y2="123.366"/><line x1="384.018" y1="123.366" x2="387.81" y2="119.574"/>
<line x1="388.518" y1="114.264" x2="392.31" y2="114.264"/><line x1="390.414" y1="112.368" x2="390.414" y2="116.16"/><line x1="388.518" y1="112.368" x2="392.31" y2="116.16"/><line x1="388.518" y1="116.16" x2="392.31" y2="112.368"/>
<line x1="393.018" y1="86.6872" x2="396.81" y2="86.6872"/><line x1="394.914" y1="84.7912" x2="394.914" y2="88.5833"/><line x1="393.018" y1="84.7912" x2="396.81" y2="88.5833"/><line x1="393.018" y1="88.5833" x2="396.81" y2="84.7912"/>
<line x1="397.518" y1="81.9861" x2="401.31" y2="81.9861"/><line x1="399.414" y1="80.09" x2="399.414" y2="83.8821"/><line x1="397.518" y1="80.09" x2="401.31" y2="83.8821"/><line x1="397.518" y1="83.8821" x2="401.31" y2="80.09"/>
<line x1="402.018" y1="81.2644" x2="405.81" y2="81.2644"/><line x1="403.914" y1="79.3683" x2="403.914" y2="83.1605"/><line x1="402.018" y1="79.3683" x2="405.81" y2="83.1605"/><line x1="402.018" y1="83.1605" x2="405.81" y2="79.3683"/>
<line x1="406.518" y1="74.1887" x2="410.31" y2="74.1887"/><line x1="408.414" y1="72.2926" x2="408.414" y2="76.0848"/><line x1="406.518" y1="72.2926" x2="410.31" y2="76.0848"/><line x1="406.518" y1="76.0848" x2="410.31" y2="72.2926"/>
<line x1="411.018" y1="93.5175" x2="414.81" y2="93.5175"/><line x1="412.914" y1="91.6214" x2="412.914" y2="95.4136"/><line x1="411.018" y1="91.6214" x2="414.81" y2="95.4136"/><line x1="411.018" y1="95.4136" x2="414.81" y2="91.6214"/>
<line x1="415.518" y1="95.5125" x2="419.31" y2="95.5125"/><line x1="417.414" y1="93.6164" x2="417.414" y2="97.4086"/><line x1="415.518" y1="93.6164" x2="419.31" y2="97.4086"/><line x1="415.518" y1="97.4086" x2="419.31" y2="93.6164"/>
<line x1="420.017" y1="92.6033" x2="423.81" y2="92.6033"/><line x1="421.913" y1="90.7072" x2="421.913" y2="94.4994"/><line x1="420.017" y1="90.7072" x2="423.81" y2="94.4994"/><line x1="420.017" y1="94.4994" x2="423.81" y2="90.7072"/>
<line x1="424.517" y1="107.442" x2="428.309" y2="107.442"/><line x1="426.413" y1="105.546" x2="426.413" y2="109.338"/><line x1="424.517" y1="105.546" x2="428.309" y2="109.338"/><line x1="424.517" y1="109.338" x2="428.309" y2="105.546"/>
<line x1="429.017" y1="107.564" x2="432.809" y2="107.564"/><line x1="430.913" y1="105.668" x2="430.913" y2="109.46"/><line x1="429.017" y1="105.668" x2="432.809" y2="109.46"/><line x1="429.017" y1="109.46" x2="432.809" y2="105.668"/>
<line x1="433.517" y1="103.233" x2="437.309" y2="103.233"/><line x1="435.413" y1="101.337" x2="435.413" y2="105.129"/><line x1="433.517" y1="101.337" x2="437.309" y2="105.129"/><line x1="433.517" y1="105.129" x2="437.309" y2="101.337"/>
<line x1="438.017" y1="85.7127" x2="441.809" y2="85.7127"/><line x1="439.913" y1="83.8166" x2="439.913" y2="87.6088"/><line x1="438.017" y1="83.8166" x2="441.809" y2="87.6088"/><line x1="438.017" y1="87.6088" x2="441.809" y2="83.8166"/>
<line x1="442.517" y1="84.409" x2="446.309" y2="84.409"/><line x1="444.413" y1="82.513" x2="444.413" y2="86.3051"/><line x1="442.517" y1="82.513" x2="446.309" y2="86.3051"/><line x1="442.517" y1="86.3051" x2="446.309" y2="82.513"/>
<line x1="447.017" y1="108.876" x2="450.809" y2="108.876"/><line x1="448.913" y1="106.98" x2="448.913" y2="110.772"/><line x1="447.017" y1="106.98" x2="450.809" y2="110.772"/><line x1="447.017" y1="110.772" x2="450.809" y2="106.98"/>
<line x1="451.517" y1="127.039" x2="455.309" y2="127.039"/><line x1="453.413" y1="125.143" x2="453.413" y2="128.935"/><line x1="451.517" y1="125.143" x2="455.309" y2="128.935"/><line x1="451.517" y1="128.935" x2="455.309" y2="125.143"/>
<line x1="456.016" y1="109.576" x2="459.809" y2="109.576"/><line x1="457.913" y1="107.68" x2="457.913" y2="111.472"/><line x1="456.016" y1="107.68" x2="459.809" y2="111.472"/><line x1="456.016" y1="111.472" x2="459.809" y2="107.68"/>
<line x1="460.516" y1="81.7586" x2="464.309" y2="81.7586"/><line x1="462.412" y1="79.8626" x2="462.412" y2="83.6547"/><line x1="460.516" y1="79.8626" x2="464.309" y2="83.6547"/><line x1="460.516" y1="83.6547" x2="464.309" y2="79.8626"/>
<line x1="465.016" y1="92.8751" x2="468.808" y2="92.8751"/><line x1="466.912" y1="90.979" x2="466.912" y2="94.7712"/><line x1="465.016" y1="90.979" x2="468.808" y2="94.7712"/><line x1="465.016" y1="94.7712" x2="468.808" y2="90.979"/>
<line x1="469.516" y1="115.349" x2="473.308" y2="115.349"/><line x1="471.412" y1="113.453" x2="471.412" y2="117.245"/><line x1="469.516" y1="113.453" x2="473.308" y2="117.245"/><line x1="469.516" y1="117.245" x2="473.308" y2="113.453"/>
<line x1="474.016" y1="87.5227" x2="477.808" y2="87.5227"/><line x1="475.912" y1="85.6266" x2="475.912" y2="89.4188"/><line x1="474.016" y1="85.6266" x2="477.808" y2="89.4188"/><line x1="474.016" y1="89.4188" x2="477.808" y2="85.6266"/>
<line x1="478.516" y1="94.4741" x2="482.308" y2="94.4741"/><line x1="480.412" y1="92.5781" x2="480.412" y2="96.3702"/><line x1="478.516" y1="92.5781" x2="482.308" y2="96.3702"/><line x1="478.516" y1="96.3702" x2="482.308" y2="92.5781"/>
<line x1="483.016" y1="109.09" x2="486.808" y2="109.09"/><line x1="484.912" y1="107.194" x2="484.912" y2="110.986"/><line x1="483.016" y1="107.194" x2="486.808" y2="110.986"/><line x1="483.016" y1="110.986" x2="486.808" y2="107.194"/>
<line x1="487.516" y1="90.8104" x2="491.308" y2="90.8104"/><line x1="489.412" y1="88.9144" x2="489.412" y2="92.7065"/><line x1="487.516" y1="88.9144" x2="491.308" y2="92.7065"/><line x1="487.516" y1="92.7065" x2="491.308" y2="88.9144"/>
<line x1="492.016" y1="48.8403" x2="495.808" y2="48.8403"/><line x1="493.912" y1="46.9442" x2="493.912" y2="50.7364"/><line x1="492.016" y1="46.9442" x2="495.808" y2="50.7364"/><line x1="492.016" y1="50.7364" x2="495.808" y2="46.9442"/>
<line x1="496.515" y1="51.1092" x2="500.308" y2="51.1092"/><line x1="498.412" y1="49.2132" x2="498.412" y2="53.0053"/><line x1="496.515" y1="49.2132" x2="500.308" y2="53.0053"/><line x1="496.515" y1="53.0053" x2="500.308" y2="49.2132"/>
<line x1="501.015" y1="60.5286" x2="504.808" y2="60.5286"/><line x1="502.911" y1="58.6325" x2="502.911" y2="62.4247"/><line x1="501.015" y1="58.6325" x2="504.808" y2="62.4247"/><line x1="501.015" y1="62.4247" x2="504.808" y2="58.6325"/>
<line x1="505.515" y1="44.2892" x2="509.307" y2="44.2892"/><line x1="507.411" y1="42.3931" x2="507.411" y2="46.1852"/><line x1="505.515" y1="42.3931" x2="509.307" y2="46.1852"/><line x1="505.515" y1="46.1852" x2="509.307" y2="42.3931"/>
</g>
<path d="M0.5,272.809h 566.929" fill="none" stroke="#0000ff"/>
<text xml:space="preserve" x="111.895" y="18.4868" fill="black" font-size="15.1181" font-family="Helvetica">^2 v.s. calibration factorwithout 1st binand with last bin</text>
<text xml:space="preserve" x="103.837" y="18.4868" fill="black" font-size="15.1181" font-family="Times">&#0967;</text></svg>
