<?xml version="1.0" standalone="no"?>
<svg width="567.429" height="413.846" viewBox="0 0 567.429 413.846" xmlns="http://www.w3.org/2000/svg" shape-rendering="crispEdges">
<title>
figures/chi2zoomin_1PMTnpefilelist20.svg
</title>
<desc>
Creator: ROOT Version 6.18/04
CreationDate: Sun Nov  3 23:30:00 2019</desc>
<defs>
</defs>
<rect x="0.5" y="0" width="566.929" height="413.346" fill="white"/>
<rect x="57.1929" y="41.3346" width="453.543" height="330.677" fill="white"/>
<rect x="57.1929" y="41.3346" width="453.543" height="330.677" fill="none" stroke="black"/>
<path d="M57.1929,372.012h 453.543" fill="none" stroke="black"/>
<path d="M94.2999,41.3346v 330.677" fill="none" stroke="black" stroke-dasharray=" 1, 2"/>
<path d="M139.299,41.3346v 330.677" fill="none" stroke="black" stroke-dasharray=" 1, 2"/>
<path d="M184.298,41.3346v 330.677" fill="none" stroke="black" stroke-dasharray=" 1, 2"/>
<path d="M229.297,41.3346v 330.677" fill="none" stroke="black" stroke-dasharray=" 1, 2"/>
<path d="M274.295,41.3346v 330.677" fill="none" stroke="black" stroke-dasharray=" 1, 2"/>
<path d="M319.294,41.3346v 330.677" fill="none" stroke="black" stroke-dasharray=" 1, 2"/>
<path d="M364.293,41.3346v 330.677" fill="none" stroke="black" stroke-dasharray=" 1, 2"/>
<path d="M409.292,41.3346v 330.677" fill="none" stroke="black" stroke-dasharray=" 1, 2"/>
<path d="M454.291,41.3346v 330.677" fill="none" stroke="black" stroke-dasharray=" 1, 2"/>
<path d="M499.29,41.3346v 330.677" fill="none" stroke="black" stroke-dasharray=" 1, 2"/>
<path d="M94.2999,41.3346v 330.677" fill="none" stroke="black" stroke-dasharray=" 1, 2"/>
<path d="M499.29,41.3346v 330.677" fill="none" stroke="black" stroke-dasharray=" 1, 2"/>
<path d="M57.1929,372.012v -330.677" fill="none" stroke="black"/>
<path d="M57.1929,372.012h 453.543" fill="none" stroke="black"/>
<path d="M94.2999,362.091v 9.92031" fill="none" stroke="black"/>
<path d="M105.55,367.052v 4.96016" fill="none" stroke="black"/>
<path d="M116.799,367.052v 4.96016" fill="none" stroke="black"/>
<path d="M128.049,367.052v 4.96016" fill="none" stroke="black"/>
<path d="M139.299,362.091v 9.92031" fill="none" stroke="black"/>
<path d="M150.548,367.052v 4.96016" fill="none" stroke="black"/>
<path d="M161.798,367.052v 4.96016" fill="none" stroke="black"/>
<path d="M173.048,367.052v 4.96016" fill="none" stroke="black"/>
<path d="M184.298,362.091v 9.92031" fill="none" stroke="black"/>
<path d="M195.547,367.052v 4.96016" fill="none" stroke="black"/>
<path d="M206.797,367.052v 4.96016" fill="none" stroke="black"/>
<path d="M218.047,367.052v 4.96016" fill="none" stroke="black"/>
<path d="M229.297,362.091v 9.92031" fill="none" stroke="black"/>
<path d="M240.546,367.052v 4.96016" fill="none" stroke="black"/>
<path d="M251.796,367.052v 4.96016" fill="none" stroke="black"/>
<path d="M263.046,367.052v 4.96016" fill="none" stroke="black"/>
<path d="M274.295,362.091v 9.92031" fill="none" stroke="black"/>
<path d="M285.545,367.052v 4.96016" fill="none" stroke="black"/>
<path d="M296.795,367.052v 4.96016" fill="none" stroke="black"/>
<path d="M308.045,367.052v 4.96016" fill="none" stroke="black"/>
<path d="M319.294,362.091v 9.92031" fill="none" stroke="black"/>
<path d="M330.544,367.052v 4.96016" fill="none" stroke="black"/>
<path d="M341.794,367.052v 4.96016" fill="none" stroke="black"/>
<path d="M353.043,367.052v 4.96016" fill="none" stroke="black"/>
<path d="M364.293,362.091v 9.92031" fill="none" stroke="black"/>
<path d="M375.543,367.052v 4.96016" fill="none" stroke="black"/>
<path d="M386.793,367.052v 4.96016" fill="none" stroke="black"/>
<path d="M398.042,367.052v 4.96016" fill="none" stroke="black"/>
<path d="M409.292,362.091v 9.92031" fill="none" stroke="black"/>
<path d="M420.542,367.052v 4.96016" fill="none" stroke="black"/>
<path d="M431.791,367.052v 4.96016" fill="none" stroke="black"/>
<path d="M443.041,367.052v 4.96016" fill="none" stroke="black"/>
<path d="M454.291,362.091v 9.92031" fill="none" stroke="black"/>
<path d="M465.541,367.052v 4.96016" fill="none" stroke="black"/>
<path d="M476.79,367.052v 4.96016" fill="none" stroke="black"/>
<path d="M488.04,367.052v 4.96016" fill="none" stroke="black"/>
<path d="M499.29,362.091v 9.92031" fill="none" stroke="black"/>
<path d="M94.2999,362.091v 9.92031" fill="none" stroke="black"/>
<path d="M83.0502,367.052v 4.96016" fill="none" stroke="black"/>
<path d="M71.8005,367.052v 4.96016" fill="none" stroke="black"/>
<path d="M60.5507,367.052v 4.96016" fill="none" stroke="black"/>
<path d="M499.29,362.091v 9.92031" fill="none" stroke="black"/>
<path d="M510.539,367.052v 4.96016" fill="none" stroke="black"/>
<text xml:space="preserve" x="77.2914" y="385.379" fill="black" font-size="13.7726" font-family="Helvetica">0.694</text>
<text xml:space="preserve" x="122.323" y="385.379" fill="black" font-size="13.7726" font-family="Helvetica">0.696</text>
<text xml:space="preserve" x="167.355" y="385.379" fill="black" font-size="13.7726" font-family="Helvetica">0.698</text>
<text xml:space="preserve" x="219.972" y="385.379" fill="black" font-size="13.7726" font-family="Helvetica">0.7</text>
<text xml:space="preserve" x="257.419" y="385.379" fill="black" font-size="13.7726" font-family="Helvetica">0.702</text>
<text xml:space="preserve" x="302.451" y="385.379" fill="black" font-size="13.7726" font-family="Helvetica">0.704</text>
<text xml:space="preserve" x="347.483" y="385.379" fill="black" font-size="13.7726" font-family="Helvetica">0.706</text>
<text xml:space="preserve" x="392.515" y="385.379" fill="black" font-size="13.7726" font-family="Helvetica">0.708</text>
<text xml:space="preserve" x="442.288" y="385.379" fill="black" font-size="13.7726" font-family="Helvetica">0.71</text>
<text xml:space="preserve" x="482.579" y="385.379" fill="black" font-size="13.7726" font-family="Helvetica">0.712</text>
<text xml:space="preserve" x="413.372" y="400.074" fill="black" font-size="13.7726" font-family="Helvetica">calibration factor</text>
<path d="M57.1929,372.012v -330.677" fill="none" stroke="black"/>
<path d="M70.7992,370.647h -13.6063" fill="none" stroke="black"/>
<path d="M63.9961,364.033h -6.80315" fill="none" stroke="black"/>
<path d="M63.9961,357.42h -6.80315" fill="none" stroke="black"/>
<path d="M63.9961,350.806h -6.80315" fill="none" stroke="black"/>
<path d="M63.9961,344.193h -6.80315" fill="none" stroke="black"/>
<path d="M70.7992,337.579h -13.6063" fill="none" stroke="black"/>
<path d="M63.9961,330.966h -6.80315" fill="none" stroke="black"/>
<path d="M63.9961,324.352h -6.80315" fill="none" stroke="black"/>
<path d="M63.9961,317.739h -6.80315" fill="none" stroke="black"/>
<path d="M63.9961,311.125h -6.80315" fill="none" stroke="black"/>
<path d="M70.7992,304.512h -13.6063" fill="none" stroke="black"/>
<path d="M63.9961,297.898h -6.80315" fill="none" stroke="black"/>
<path d="M63.9961,291.284h -6.80315" fill="none" stroke="black"/>
<path d="M63.9961,284.671h -6.80315" fill="none" stroke="black"/>
<path d="M63.9961,278.057h -6.80315" fill="none" stroke="black"/>
<path d="M70.7992,271.444h -13.6063" fill="none" stroke="black"/>
<path d="M63.9961,264.83h -6.80315" fill="none" stroke="black"/>
<path d="M63.9961,258.217h -6.80315" fill="none" stroke="black"/>
<path d="M63.9961,251.603h -6.80315" fill="none" stroke="black"/>
<path d="M63.9961,244.99h -6.80315" fill="none" stroke="black"/>
<path d="M70.7992,238.376h -13.6063" fill="none" stroke="black"/>
<path d="M63.9961,231.763h -6.80315" fill="none" stroke="black"/>
<path d="M63.9961,225.149h -6.80315" fill="none" stroke="black"/>
<path d="M63.9961,218.535h -6.80315" fill="none" stroke="black"/>
<path d="M63.9961,211.922h -6.80315" fill="none" stroke="black"/>
<path d="M70.7992,205.308h -13.6063" fill="none" stroke="black"/>
<path d="M63.9961,198.695h -6.80315" fill="none" stroke="black"/>
<path d="M63.9961,192.081h -6.80315" fill="none" stroke="black"/>
<path d="M63.9961,185.468h -6.80315" fill="none" stroke="black"/>
<path d="M63.9961,178.854h -6.80315" fill="none" stroke="black"/>
<path d="M70.7992,172.241h -13.6063" fill="none" stroke="black"/>
<path d="M63.9961,165.627h -6.80315" fill="none" stroke="black"/>
<path d="M63.9961,159.014h -6.80315" fill="none" stroke="black"/>
<path d="M63.9961,152.4h -6.80315" fill="none" stroke="black"/>
<path d="M63.9961,145.786h -6.80315" fill="none" stroke="black"/>
<path d="M70.7992,139.173h -13.6063" fill="none" stroke="black"/>
<path d="M63.9961,132.559h -6.80315" fill="none" stroke="black"/>
<path d="M63.9961,125.946h -6.80315" fill="none" stroke="black"/>
<path d="M63.9961,119.332h -6.80315" fill="none" stroke="black"/>
<path d="M63.9961,112.719h -6.80315" fill="none" stroke="black"/>
<path d="M70.7992,106.105h -13.6063" fill="none" stroke="black"/>
<path d="M63.9961,99.4917h -6.80315" fill="none" stroke="black"/>
<path d="M63.9961,92.8782h -6.80315" fill="none" stroke="black"/>
<path d="M63.9961,86.2646h -6.80315" fill="none" stroke="black"/>
<path d="M63.9961,79.6511h -6.80315" fill="none" stroke="black"/>
<path d="M70.7992,73.0376h -13.6063" fill="none" stroke="black"/>
<path d="M70.7992,370.647h -13.6063" fill="none" stroke="black"/>
<path d="M70.7992,73.0376h -13.6063" fill="none" stroke="black"/>
<path d="M63.9961,66.424h -6.80315" fill="none" stroke="black"/>
<path d="M63.9961,59.8105h -6.80315" fill="none" stroke="black"/>
<path d="M63.9961,53.1969h -6.80315" fill="none" stroke="black"/>
<path d="M63.9961,46.5834h -6.80315" fill="none" stroke="black"/>
<text xml:space="preserve" x="32.2594" y="374.951" fill="black" font-size="13.7726" font-family="Helvetica">258</text>
<text xml:space="preserve" x="32.2594" y="342.243" fill="black" font-size="13.7726" font-family="Helvetica">259</text>
<text xml:space="preserve" x="32.2594" y="309.062" fill="black" font-size="13.7726" font-family="Helvetica">260</text>
<text xml:space="preserve" x="34.6295" y="275.88" fill="black" font-size="13.7726" font-family="Helvetica">261</text>
<text xml:space="preserve" x="32.2594" y="242.699" fill="black" font-size="13.7726" font-family="Helvetica">262</text>
<text xml:space="preserve" x="32.2594" y="209.991" fill="black" font-size="13.7726" font-family="Helvetica">263</text>
<text xml:space="preserve" x="32.2594" y="176.81" fill="black" font-size="13.7726" font-family="Helvetica">264</text>
<text xml:space="preserve" x="32.2594" y="143.628" fill="black" font-size="13.7726" font-family="Helvetica">265</text>
<text xml:space="preserve" x="32.2594" y="110.447" fill="black" font-size="13.7726" font-family="Helvetica">266</text>
<text xml:space="preserve" x="32.2594" y="77.7394" fill="black" font-size="13.7726" font-family="Helvetica">267</text>
<g transform="rotate(-90,15.1947,45.98)">
<text xml:space="preserve" x="15.1947" y="45.98" fill="black" font-size="9.34839" font-family="Helvetica">2</text>
</g>
<g transform="rotate(-90,19.4608,50.2462)">
<text xml:space="preserve" x="19.4608" y="50.2462" fill="black" font-size="13.7726" font-family="Helvetica"> </text>
</g>
<g transform="rotate(-90,19.4608,57.3565)">
<text xml:space="preserve" x="19.4608" y="57.3565" fill="black" font-size="13.7726" font-family="Times">&#0967;</text>
</g>
<text xml:space="preserve" x="111.895" y="18.4868" fill="black" font-size="15.1181" font-family="Helvetica">^2 v.s. calibration factorwithout 1st binand with last bin</text>
<text xml:space="preserve" x="103.837" y="18.4868" fill="black" font-size="15.1181" font-family="Times">&#0967;</text>
<g stroke="black" stroke-width="1" fill="none">
<line x1="56.4047" y1="197.139" x2="60.1969" y2="197.139"/><line x1="58.3008" y1="195.242" x2="58.3008" y2="199.035"/><line x1="56.4047" y1="195.242" x2="60.1969" y2="199.035"/><line x1="56.4047" y1="199.035" x2="60.1969" y2="195.242"/>
<line x1="60.9046" y1="181.165" x2="64.6968" y2="181.165"/><line x1="62.8007" y1="179.269" x2="62.8007" y2="183.061"/><line x1="60.9046" y1="179.269" x2="64.6968" y2="183.061"/><line x1="60.9046" y1="183.061" x2="64.6968" y2="179.269"/>
<line x1="65.4045" y1="174.32" x2="69.1966" y2="174.32"/><line x1="67.3006" y1="172.424" x2="67.3006" y2="176.216"/><line x1="65.4045" y1="172.424" x2="69.1966" y2="176.216"/><line x1="65.4045" y1="176.216" x2="69.1966" y2="172.424"/>
<line x1="69.9044" y1="149.739" x2="73.6965" y2="149.739"/><line x1="71.8005" y1="147.842" x2="71.8005" y2="151.635"/><line x1="69.9044" y1="147.842" x2="73.6965" y2="151.635"/><line x1="69.9044" y1="151.635" x2="73.6965" y2="147.842"/>
<line x1="74.4043" y1="153.44" x2="78.1964" y2="153.44"/><line x1="76.3003" y1="151.544" x2="76.3003" y2="155.336"/><line x1="74.4043" y1="151.544" x2="78.1964" y2="155.336"/><line x1="74.4043" y1="155.336" x2="78.1964" y2="151.544"/>
<line x1="78.9041" y1="132.192" x2="82.6963" y2="132.192"/><line x1="80.8002" y1="130.296" x2="80.8002" y2="134.088"/><line x1="78.9041" y1="130.296" x2="82.6963" y2="134.088"/><line x1="78.9041" y1="134.088" x2="82.6963" y2="130.296"/>
<line x1="83.404" y1="126.139" x2="87.1962" y2="126.139"/><line x1="85.3001" y1="124.243" x2="85.3001" y2="128.035"/><line x1="83.404" y1="124.243" x2="87.1962" y2="128.035"/><line x1="83.404" y1="128.035" x2="87.1962" y2="124.243"/>
<line x1="87.9039" y1="130.69" x2="91.6961" y2="130.69"/><line x1="89.8" y1="128.794" x2="89.8" y2="132.586"/><line x1="87.9039" y1="128.794" x2="91.6961" y2="132.586"/><line x1="87.9039" y1="132.586" x2="91.6961" y2="128.794"/>
<line x1="92.4038" y1="136.552" x2="96.196" y2="136.552"/><line x1="94.2999" y1="134.656" x2="94.2999" y2="138.448"/><line x1="92.4038" y1="134.656" x2="96.196" y2="138.448"/><line x1="92.4038" y1="138.448" x2="96.196" y2="134.656"/>
<line x1="96.9037" y1="133.174" x2="100.696" y2="133.174"/><line x1="98.7998" y1="131.278" x2="98.7998" y2="135.071"/><line x1="96.9037" y1="131.278" x2="100.696" y2="135.071"/><line x1="96.9037" y1="135.071" x2="100.696" y2="131.278"/>
<line x1="101.404" y1="128.225" x2="105.196" y2="128.225"/><line x1="103.3" y1="126.329" x2="103.3" y2="130.121"/><line x1="101.404" y1="126.329" x2="105.196" y2="130.121"/><line x1="101.404" y1="130.121" x2="105.196" y2="126.329"/>
<line x1="105.903" y1="127.103" x2="109.696" y2="127.103"/><line x1="107.8" y1="125.207" x2="107.8" y2="128.999"/><line x1="105.903" y1="125.207" x2="109.696" y2="128.999"/><line x1="105.903" y1="128.999" x2="109.696" y2="125.207"/>
<line x1="110.403" y1="138.194" x2="114.196" y2="138.194"/><line x1="112.299" y1="136.298" x2="112.299" y2="140.09"/><line x1="110.403" y1="136.298" x2="114.196" y2="140.09"/><line x1="110.403" y1="140.09" x2="114.196" y2="136.298"/>
<line x1="114.903" y1="165.238" x2="118.695" y2="165.238"/><line x1="116.799" y1="163.342" x2="116.799" y2="167.134"/><line x1="114.903" y1="163.342" x2="118.695" y2="167.134"/><line x1="114.903" y1="167.134" x2="118.695" y2="163.342"/>
<line x1="119.403" y1="193.746" x2="123.195" y2="193.746"/><line x1="121.299" y1="191.85" x2="121.299" y2="195.642"/><line x1="119.403" y1="191.85" x2="123.195" y2="195.642"/><line x1="119.403" y1="195.642" x2="123.195" y2="191.85"/>
<line x1="123.903" y1="214.826" x2="127.695" y2="214.826"/><line x1="125.799" y1="212.93" x2="125.799" y2="216.722"/><line x1="123.903" y1="212.93" x2="127.695" y2="216.722"/><line x1="123.903" y1="216.722" x2="127.695" y2="212.93"/>
<line x1="128.403" y1="250.259" x2="132.195" y2="250.259"/><line x1="130.299" y1="248.363" x2="130.299" y2="252.155"/><line x1="128.403" y1="248.363" x2="132.195" y2="252.155"/><line x1="128.403" y1="252.155" x2="132.195" y2="248.363"/>
<line x1="132.903" y1="256.766" x2="136.695" y2="256.766"/><line x1="134.799" y1="254.87" x2="134.799" y2="258.663"/><line x1="132.903" y1="254.87" x2="136.695" y2="258.663"/><line x1="132.903" y1="258.663" x2="136.695" y2="254.87"/>
<line x1="137.403" y1="221.234" x2="141.195" y2="221.234"/><line x1="139.299" y1="219.338" x2="139.299" y2="223.13"/><line x1="137.403" y1="219.338" x2="141.195" y2="223.13"/><line x1="137.403" y1="223.13" x2="141.195" y2="219.338"/>
<line x1="141.903" y1="210.719" x2="145.695" y2="210.719"/><line x1="143.799" y1="208.823" x2="143.799" y2="212.615"/><line x1="141.903" y1="208.823" x2="145.695" y2="212.615"/><line x1="141.903" y1="212.615" x2="145.695" y2="208.823"/>
<line x1="146.402" y1="258.685" x2="150.195" y2="258.685"/><line x1="148.299" y1="256.789" x2="148.299" y2="260.581"/><line x1="146.402" y1="256.789" x2="150.195" y2="260.581"/><line x1="146.402" y1="260.581" x2="150.195" y2="256.789"/>
<line x1="150.902" y1="294.227" x2="154.695" y2="294.227"/><line x1="152.798" y1="292.331" x2="152.798" y2="296.123"/><line x1="150.902" y1="292.331" x2="154.695" y2="296.123"/><line x1="150.902" y1="296.123" x2="154.695" y2="292.331"/>
<line x1="155.402" y1="269.244" x2="159.194" y2="269.244"/><line x1="157.298" y1="267.348" x2="157.298" y2="271.14"/><line x1="155.402" y1="267.348" x2="159.194" y2="271.14"/><line x1="155.402" y1="271.14" x2="159.194" y2="267.348"/>
<line x1="159.902" y1="278.096" x2="163.694" y2="278.096"/><line x1="161.798" y1="276.2" x2="161.798" y2="279.992"/><line x1="159.902" y1="276.2" x2="163.694" y2="279.992"/><line x1="159.902" y1="279.992" x2="163.694" y2="276.2"/>
<line x1="164.402" y1="251.369" x2="168.194" y2="251.369"/><line x1="166.298" y1="249.473" x2="166.298" y2="253.265"/><line x1="164.402" y1="249.473" x2="168.194" y2="253.265"/><line x1="164.402" y1="253.265" x2="168.194" y2="249.473"/>
<line x1="168.902" y1="253.575" x2="172.694" y2="253.575"/><line x1="170.798" y1="251.679" x2="170.798" y2="255.472"/><line x1="168.902" y1="251.679" x2="172.694" y2="255.472"/><line x1="168.902" y1="255.472" x2="172.694" y2="251.679"/>
<line x1="173.402" y1="251.03" x2="177.194" y2="251.03"/><line x1="175.298" y1="249.134" x2="175.298" y2="252.926"/><line x1="173.402" y1="249.134" x2="177.194" y2="252.926"/><line x1="173.402" y1="252.926" x2="177.194" y2="249.134"/>
<line x1="177.902" y1="269.48" x2="181.694" y2="269.48"/><line x1="179.798" y1="267.584" x2="179.798" y2="271.376"/><line x1="177.902" y1="267.584" x2="181.694" y2="271.376"/><line x1="177.902" y1="271.376" x2="181.694" y2="267.584"/>
<line x1="182.402" y1="260.48" x2="186.194" y2="260.48"/><line x1="184.298" y1="258.584" x2="184.298" y2="262.376"/><line x1="182.402" y1="258.584" x2="186.194" y2="262.376"/><line x1="182.402" y1="262.376" x2="186.194" y2="258.584"/>
<line x1="186.901" y1="243.326" x2="190.694" y2="243.326"/><line x1="188.798" y1="241.43" x2="188.798" y2="245.222"/><line x1="186.901" y1="241.43" x2="190.694" y2="245.222"/><line x1="186.901" y1="245.222" x2="190.694" y2="241.43"/>
<line x1="191.401" y1="228.026" x2="195.193" y2="228.026"/><line x1="193.297" y1="226.13" x2="193.297" y2="229.922"/><line x1="191.401" y1="226.13" x2="195.193" y2="229.922"/><line x1="191.401" y1="229.922" x2="195.193" y2="226.13"/>
<line x1="195.901" y1="222.796" x2="199.693" y2="222.796"/><line x1="197.797" y1="220.9" x2="197.797" y2="224.692"/><line x1="195.901" y1="220.9" x2="199.693" y2="224.692"/><line x1="195.901" y1="224.692" x2="199.693" y2="220.9"/>
<line x1="200.401" y1="203.612" x2="204.193" y2="203.612"/><line x1="202.297" y1="201.716" x2="202.297" y2="205.508"/><line x1="200.401" y1="201.716" x2="204.193" y2="205.508"/><line x1="200.401" y1="205.508" x2="204.193" y2="201.716"/>
<line x1="204.901" y1="225.096" x2="208.693" y2="225.096"/><line x1="206.797" y1="223.2" x2="206.797" y2="226.992"/><line x1="204.901" y1="223.2" x2="208.693" y2="226.992"/><line x1="204.901" y1="226.992" x2="208.693" y2="223.2"/>
<line x1="209.401" y1="239.117" x2="213.193" y2="239.117"/><line x1="211.297" y1="237.221" x2="211.297" y2="241.013"/><line x1="209.401" y1="237.221" x2="213.193" y2="241.013"/><line x1="209.401" y1="241.013" x2="213.193" y2="237.221"/>
<line x1="213.901" y1="224.397" x2="217.693" y2="224.397"/><line x1="215.797" y1="222.501" x2="215.797" y2="226.293"/><line x1="213.901" y1="222.501" x2="217.693" y2="226.293"/><line x1="213.901" y1="226.293" x2="217.693" y2="222.501"/>
<line x1="218.401" y1="205.1" x2="222.193" y2="205.1"/><line x1="220.297" y1="203.204" x2="220.297" y2="206.996"/><line x1="218.401" y1="203.204" x2="222.193" y2="206.996"/><line x1="218.401" y1="206.996" x2="222.193" y2="203.204"/>
<line x1="222.901" y1="222.76" x2="226.693" y2="222.76"/><line x1="224.797" y1="220.864" x2="224.797" y2="224.657"/><line x1="222.901" y1="220.864" x2="226.693" y2="224.657"/><line x1="222.901" y1="224.657" x2="226.693" y2="220.864"/>
<line x1="227.4" y1="230.277" x2="231.193" y2="230.277"/><line x1="229.297" y1="228.381" x2="229.297" y2="232.173"/><line x1="227.4" y1="228.381" x2="231.193" y2="232.173"/><line x1="227.4" y1="232.173" x2="231.193" y2="228.381"/>
<line x1="231.9" y1="239.393" x2="235.692" y2="239.393"/><line x1="233.796" y1="237.497" x2="233.796" y2="241.289"/><line x1="231.9" y1="237.497" x2="235.692" y2="241.289"/><line x1="231.9" y1="241.289" x2="235.692" y2="237.497"/>
<line x1="236.4" y1="264.937" x2="240.192" y2="264.937"/><line x1="238.296" y1="263.041" x2="238.296" y2="266.833"/><line x1="236.4" y1="263.041" x2="240.192" y2="266.833"/><line x1="236.4" y1="266.833" x2="240.192" y2="263.041"/>
<line x1="240.9" y1="265.035" x2="244.692" y2="265.035"/><line x1="242.796" y1="263.139" x2="242.796" y2="266.931"/><line x1="240.9" y1="263.139" x2="244.692" y2="266.931"/><line x1="240.9" y1="266.931" x2="244.692" y2="263.139"/>
<line x1="245.4" y1="284.984" x2="249.192" y2="284.984"/><line x1="247.296" y1="283.088" x2="247.296" y2="286.88"/><line x1="245.4" y1="283.088" x2="249.192" y2="286.88"/><line x1="245.4" y1="286.88" x2="249.192" y2="283.088"/>
<line x1="249.9" y1="261.918" x2="253.692" y2="261.918"/><line x1="251.796" y1="260.022" x2="251.796" y2="263.815"/><line x1="249.9" y1="260.022" x2="253.692" y2="263.815"/><line x1="249.9" y1="263.815" x2="253.692" y2="260.022"/>
<line x1="254.4" y1="260.567" x2="258.192" y2="260.567"/><line x1="256.296" y1="258.671" x2="256.296" y2="262.463"/><line x1="254.4" y1="258.671" x2="258.192" y2="262.463"/><line x1="254.4" y1="262.463" x2="258.192" y2="258.671"/>
<line x1="258.9" y1="288.981" x2="262.692" y2="288.981"/><line x1="260.796" y1="287.085" x2="260.796" y2="290.877"/><line x1="258.9" y1="287.085" x2="262.692" y2="290.877"/><line x1="258.9" y1="290.877" x2="262.692" y2="287.085"/>
<line x1="263.4" y1="277.702" x2="267.192" y2="277.702"/><line x1="265.296" y1="275.806" x2="265.296" y2="279.598"/><line x1="263.4" y1="275.806" x2="267.192" y2="279.598"/><line x1="263.4" y1="279.598" x2="267.192" y2="275.806"/>
<line x1="267.899" y1="305.41" x2="271.692" y2="305.41"/><line x1="269.796" y1="303.514" x2="269.796" y2="307.306"/><line x1="267.899" y1="303.514" x2="271.692" y2="307.306"/><line x1="267.899" y1="307.306" x2="271.692" y2="303.514"/>
<line x1="272.399" y1="301.721" x2="276.191" y2="301.721"/><line x1="274.295" y1="299.824" x2="274.295" y2="303.617"/><line x1="272.399" y1="299.824" x2="276.191" y2="303.617"/><line x1="272.399" y1="303.617" x2="276.191" y2="299.824"/>
<line x1="276.899" y1="291.849" x2="280.691" y2="291.849"/><line x1="278.795" y1="289.953" x2="278.795" y2="293.745"/><line x1="276.899" y1="289.953" x2="280.691" y2="293.745"/><line x1="276.899" y1="293.745" x2="280.691" y2="289.953"/>
<line x1="281.399" y1="305.876" x2="285.191" y2="305.876"/><line x1="283.295" y1="303.98" x2="283.295" y2="307.772"/><line x1="281.399" y1="303.98" x2="285.191" y2="307.772"/><line x1="281.399" y1="307.772" x2="285.191" y2="303.98"/>
<line x1="285.899" y1="289.823" x2="289.691" y2="289.823"/><line x1="287.795" y1="287.927" x2="287.795" y2="291.719"/><line x1="285.899" y1="287.927" x2="289.691" y2="291.719"/><line x1="285.899" y1="291.719" x2="289.691" y2="287.927"/>
<line x1="290.399" y1="263.853" x2="294.191" y2="263.853"/><line x1="292.295" y1="261.957" x2="292.295" y2="265.749"/><line x1="290.399" y1="261.957" x2="294.191" y2="265.749"/><line x1="290.399" y1="265.749" x2="294.191" y2="261.957"/>
<line x1="294.899" y1="255.124" x2="298.691" y2="255.124"/><line x1="296.795" y1="253.228" x2="296.795" y2="257.02"/><line x1="294.899" y1="253.228" x2="298.691" y2="257.02"/><line x1="294.899" y1="257.02" x2="298.691" y2="253.228"/>
<line x1="299.399" y1="252.875" x2="303.191" y2="252.875"/><line x1="301.295" y1="250.979" x2="301.295" y2="254.771"/><line x1="299.399" y1="250.979" x2="303.191" y2="254.771"/><line x1="299.399" y1="254.771" x2="303.191" y2="250.979"/>
<line x1="303.899" y1="265.204" x2="307.691" y2="265.204"/><line x1="305.795" y1="263.308" x2="305.795" y2="267.1"/><line x1="303.899" y1="263.308" x2="307.691" y2="267.1"/><line x1="303.899" y1="267.1" x2="307.691" y2="263.308"/>
<line x1="308.398" y1="238.797" x2="312.191" y2="238.797"/><line x1="310.294" y1="236.901" x2="310.294" y2="240.693"/><line x1="308.398" y1="236.901" x2="312.191" y2="240.693"/><line x1="308.398" y1="240.693" x2="312.191" y2="236.901"/>
<line x1="312.898" y1="235.236" x2="316.69" y2="235.236"/><line x1="314.794" y1="233.34" x2="314.794" y2="237.132"/><line x1="312.898" y1="233.34" x2="316.69" y2="237.132"/><line x1="312.898" y1="237.132" x2="316.69" y2="233.34"/>
<line x1="317.398" y1="219.43" x2="321.19" y2="219.43"/><line x1="319.294" y1="217.534" x2="319.294" y2="221.326"/><line x1="317.398" y1="217.534" x2="321.19" y2="221.326"/><line x1="317.398" y1="221.326" x2="321.19" y2="217.534"/>
<line x1="321.898" y1="205.696" x2="325.69" y2="205.696"/><line x1="323.794" y1="203.8" x2="323.794" y2="207.592"/><line x1="321.898" y1="203.8" x2="325.69" y2="207.592"/><line x1="321.898" y1="207.592" x2="325.69" y2="203.8"/>
<line x1="326.398" y1="203.156" x2="330.19" y2="203.156"/><line x1="328.294" y1="201.259" x2="328.294" y2="205.052"/><line x1="326.398" y1="201.259" x2="330.19" y2="205.052"/><line x1="326.398" y1="205.052" x2="330.19" y2="201.259"/>
<line x1="330.898" y1="198.699" x2="334.69" y2="198.699"/><line x1="332.794" y1="196.803" x2="332.794" y2="200.596"/><line x1="330.898" y1="196.803" x2="334.69" y2="200.596"/><line x1="330.898" y1="200.596" x2="334.69" y2="196.803"/>
<line x1="335.398" y1="200.366" x2="339.19" y2="200.366"/><line x1="337.294" y1="198.47" x2="337.294" y2="202.262"/><line x1="335.398" y1="198.47" x2="339.19" y2="202.262"/><line x1="335.398" y1="202.262" x2="339.19" y2="198.47"/>
<line x1="339.898" y1="186.002" x2="343.69" y2="186.002"/><line x1="341.794" y1="184.106" x2="341.794" y2="187.898"/><line x1="339.898" y1="184.106" x2="343.69" y2="187.898"/><line x1="339.898" y1="187.898" x2="343.69" y2="184.106"/>
<line x1="344.397" y1="181.799" x2="348.19" y2="181.799"/><line x1="346.294" y1="179.903" x2="346.294" y2="183.696"/><line x1="344.397" y1="179.903" x2="348.19" y2="183.696"/><line x1="344.397" y1="183.696" x2="348.19" y2="179.903"/>
<line x1="348.897" y1="157.555" x2="352.69" y2="157.555"/><line x1="350.793" y1="155.659" x2="350.793" y2="159.451"/><line x1="348.897" y1="155.659" x2="352.69" y2="159.451"/><line x1="348.897" y1="159.451" x2="352.69" y2="155.659"/>
<line x1="353.397" y1="146.78" x2="357.189" y2="146.78"/><line x1="355.293" y1="144.884" x2="355.293" y2="148.676"/><line x1="353.397" y1="144.884" x2="357.189" y2="148.676"/><line x1="353.397" y1="148.676" x2="357.189" y2="144.884"/>
<line x1="357.897" y1="130.946" x2="361.689" y2="130.946"/><line x1="359.793" y1="129.05" x2="359.793" y2="132.842"/><line x1="357.897" y1="129.05" x2="361.689" y2="132.842"/><line x1="357.897" y1="132.842" x2="361.689" y2="129.05"/>
<line x1="362.397" y1="109.402" x2="366.189" y2="109.402"/><line x1="364.293" y1="107.506" x2="364.293" y2="111.298"/><line x1="362.397" y1="107.506" x2="366.189" y2="111.298"/><line x1="362.397" y1="111.298" x2="366.189" y2="107.506"/>
<line x1="366.897" y1="140.905" x2="370.689" y2="140.905"/><line x1="368.793" y1="139.009" x2="368.793" y2="142.801"/><line x1="366.897" y1="139.009" x2="370.689" y2="142.801"/><line x1="366.897" y1="142.801" x2="370.689" y2="139.009"/>
<line x1="371.397" y1="184.823" x2="375.189" y2="184.823"/><line x1="373.293" y1="182.927" x2="373.293" y2="186.719"/><line x1="371.397" y1="182.927" x2="375.189" y2="186.719"/><line x1="371.397" y1="186.719" x2="375.189" y2="182.927"/>
<line x1="375.897" y1="150.839" x2="379.689" y2="150.839"/><line x1="377.793" y1="148.943" x2="377.793" y2="152.735"/><line x1="375.897" y1="148.943" x2="379.689" y2="152.735"/><line x1="375.897" y1="152.735" x2="379.689" y2="148.943"/>
<line x1="380.397" y1="104.794" x2="384.189" y2="104.794"/><line x1="382.293" y1="102.898" x2="382.293" y2="106.69"/><line x1="380.397" y1="102.898" x2="384.189" y2="106.69"/><line x1="380.397" y1="106.69" x2="384.189" y2="102.898"/>
<line x1="384.896" y1="108.997" x2="388.689" y2="108.997"/><line x1="386.793" y1="107.101" x2="386.793" y2="110.893"/><line x1="384.896" y1="107.101" x2="388.689" y2="110.893"/><line x1="384.896" y1="110.893" x2="388.689" y2="107.101"/>
<line x1="389.396" y1="108.112" x2="393.189" y2="108.112"/><line x1="391.292" y1="106.216" x2="391.292" y2="110.008"/><line x1="389.396" y1="106.216" x2="393.189" y2="110.008"/><line x1="389.396" y1="110.008" x2="393.189" y2="106.216"/>
<line x1="393.896" y1="125.467" x2="397.688" y2="125.467"/><line x1="395.792" y1="123.571" x2="395.792" y2="127.363"/><line x1="393.896" y1="123.571" x2="397.688" y2="127.363"/><line x1="393.896" y1="127.363" x2="397.688" y2="123.571"/>
<line x1="398.396" y1="129.978" x2="402.188" y2="129.978"/><line x1="400.292" y1="128.082" x2="400.292" y2="131.874"/><line x1="398.396" y1="128.082" x2="402.188" y2="131.874"/><line x1="398.396" y1="131.874" x2="402.188" y2="128.082"/>
<line x1="402.896" y1="162.316" x2="406.688" y2="162.316"/><line x1="404.792" y1="160.42" x2="404.792" y2="164.212"/><line x1="402.896" y1="160.42" x2="406.688" y2="164.212"/><line x1="402.896" y1="164.212" x2="406.688" y2="160.42"/>
<line x1="407.396" y1="184.286" x2="411.188" y2="184.286"/><line x1="409.292" y1="182.39" x2="409.292" y2="186.182"/><line x1="407.396" y1="182.39" x2="411.188" y2="186.182"/><line x1="407.396" y1="186.182" x2="411.188" y2="182.39"/>
<line x1="411.896" y1="167.53" x2="415.688" y2="167.53"/><line x1="413.792" y1="165.634" x2="413.792" y2="169.426"/><line x1="411.896" y1="165.634" x2="415.688" y2="169.426"/><line x1="411.896" y1="169.426" x2="415.688" y2="165.634"/>
<line x1="416.396" y1="174.482" x2="420.188" y2="174.482"/><line x1="418.292" y1="172.586" x2="418.292" y2="176.378"/><line x1="416.396" y1="172.586" x2="420.188" y2="176.378"/><line x1="416.396" y1="176.378" x2="420.188" y2="172.586"/>
<line x1="420.896" y1="182.414" x2="424.688" y2="182.414"/><line x1="422.792" y1="180.518" x2="422.792" y2="184.31"/><line x1="420.896" y1="180.518" x2="424.688" y2="184.31"/><line x1="420.896" y1="184.31" x2="424.688" y2="180.518"/>
<line x1="425.395" y1="204.696" x2="429.188" y2="204.696"/><line x1="427.292" y1="202.8" x2="427.292" y2="206.592"/><line x1="425.395" y1="202.8" x2="429.188" y2="206.592"/><line x1="425.395" y1="206.592" x2="429.188" y2="202.8"/>
<line x1="429.895" y1="181.612" x2="433.688" y2="181.612"/><line x1="431.791" y1="179.716" x2="431.791" y2="183.508"/><line x1="429.895" y1="179.716" x2="433.688" y2="183.508"/><line x1="429.895" y1="183.508" x2="433.688" y2="179.716"/>
<line x1="434.395" y1="200.765" x2="438.187" y2="200.765"/><line x1="436.291" y1="198.869" x2="436.291" y2="202.661"/><line x1="434.395" y1="198.869" x2="438.187" y2="202.661"/><line x1="434.395" y1="202.661" x2="438.187" y2="198.869"/>
<line x1="438.895" y1="187.217" x2="442.687" y2="187.217"/><line x1="440.791" y1="185.321" x2="440.791" y2="189.113"/><line x1="438.895" y1="185.321" x2="442.687" y2="189.113"/><line x1="438.895" y1="189.113" x2="442.687" y2="185.321"/>
<line x1="443.395" y1="195.286" x2="447.187" y2="195.286"/><line x1="445.291" y1="193.39" x2="445.291" y2="197.182"/><line x1="443.395" y1="193.39" x2="447.187" y2="197.182"/><line x1="443.395" y1="197.182" x2="447.187" y2="193.39"/>
<line x1="447.895" y1="194.3" x2="451.687" y2="194.3"/><line x1="449.791" y1="192.404" x2="449.791" y2="196.196"/><line x1="447.895" y1="192.404" x2="451.687" y2="196.196"/><line x1="447.895" y1="196.196" x2="451.687" y2="192.404"/>
<line x1="452.395" y1="180.913" x2="456.187" y2="180.913"/><line x1="454.291" y1="179.017" x2="454.291" y2="182.809"/><line x1="452.395" y1="179.017" x2="456.187" y2="182.809"/><line x1="452.395" y1="182.809" x2="456.187" y2="179.017"/>
<line x1="456.895" y1="182.454" x2="460.687" y2="182.454"/><line x1="458.791" y1="180.558" x2="458.791" y2="184.35"/><line x1="456.895" y1="180.558" x2="460.687" y2="184.35"/><line x1="456.895" y1="184.35" x2="460.687" y2="180.558"/>
<line x1="461.395" y1="181.874" x2="465.187" y2="181.874"/><line x1="463.291" y1="179.978" x2="463.291" y2="183.77"/><line x1="461.395" y1="179.978" x2="465.187" y2="183.77"/><line x1="461.395" y1="183.77" x2="465.187" y2="179.978"/>
<line x1="465.894" y1="173.628" x2="469.687" y2="173.628"/><line x1="467.791" y1="171.732" x2="467.791" y2="175.524"/><line x1="465.894" y1="171.732" x2="469.687" y2="175.524"/><line x1="465.894" y1="175.524" x2="469.687" y2="171.732"/>
<line x1="470.394" y1="171.898" x2="474.187" y2="171.898"/><line x1="472.29" y1="170.001" x2="472.29" y2="173.794"/><line x1="470.394" y1="170.001" x2="474.187" y2="173.794"/><line x1="470.394" y1="173.794" x2="474.187" y2="170.001"/>
<line x1="474.894" y1="158.456" x2="478.686" y2="158.456"/><line x1="476.79" y1="156.56" x2="476.79" y2="160.352"/><line x1="474.894" y1="156.56" x2="478.686" y2="160.352"/><line x1="474.894" y1="160.352" x2="478.686" y2="156.56"/>
<line x1="479.394" y1="193.788" x2="483.186" y2="193.788"/><line x1="481.29" y1="191.892" x2="481.29" y2="195.684"/><line x1="479.394" y1="191.892" x2="483.186" y2="195.684"/><line x1="479.394" y1="195.684" x2="483.186" y2="191.892"/>
<line x1="483.894" y1="188.886" x2="487.686" y2="188.886"/><line x1="485.79" y1="186.99" x2="485.79" y2="190.782"/><line x1="483.894" y1="186.99" x2="487.686" y2="190.782"/><line x1="483.894" y1="190.782" x2="487.686" y2="186.99"/>
<line x1="488.394" y1="196.022" x2="492.186" y2="196.022"/><line x1="490.29" y1="194.126" x2="490.29" y2="197.918"/><line x1="488.394" y1="194.126" x2="492.186" y2="197.918"/><line x1="488.394" y1="197.918" x2="492.186" y2="194.126"/>
<line x1="492.894" y1="175.105" x2="496.686" y2="175.105"/><line x1="494.79" y1="173.209" x2="494.79" y2="177.001"/><line x1="492.894" y1="173.209" x2="496.686" y2="177.001"/><line x1="492.894" y1="177.001" x2="496.686" y2="173.209"/>
<line x1="497.394" y1="181.473" x2="501.186" y2="181.473"/><line x1="499.29" y1="179.577" x2="499.29" y2="183.369"/><line x1="497.394" y1="179.577" x2="501.186" y2="183.369"/><line x1="497.394" y1="183.369" x2="501.186" y2="179.577"/>
<line x1="501.894" y1="191.783" x2="505.686" y2="191.783"/><line x1="503.79" y1="189.887" x2="503.79" y2="193.679"/><line x1="501.894" y1="189.887" x2="505.686" y2="193.679"/><line x1="501.894" y1="193.679" x2="505.686" y2="189.887"/>
<line x1="506.393" y1="200.527" x2="510.186" y2="200.527"/><line x1="508.29" y1="198.631" x2="508.29" y2="202.424"/><line x1="506.393" y1="198.631" x2="510.186" y2="202.424"/><line x1="506.393" y1="202.424" x2="510.186" y2="198.631"/>
</g>
<path d="M0.5,272.809h 566.929" fill="none" stroke="#0000ff"/>
<text xml:space="preserve" x="111.895" y="18.4868" fill="black" font-size="15.1181" font-family="Helvetica">^2 v.s. calibration factorwithout 1st binand with last bin</text>
<text xml:space="preserve" x="103.837" y="18.4868" fill="black" font-size="15.1181" font-family="Times">&#0967;</text></svg>
