<?xml version="1.0" standalone="no"?>
<svg width="567.429" height="413.846" viewBox="0 0 567.429 413.846" xmlns="http://www.w3.org/2000/svg" shape-rendering="crispEdges">
<title>
figures/chi2zoomin_3PMTnpefilelist20.svg
</title>
<desc>
Creator: ROOT Version 6.18/04
CreationDate: Sun Nov  3 23:30:46 2019</desc>
<defs>
</defs>
<rect x="0.5" y="0" width="566.929" height="413.346" fill="white"/>
<rect x="57.1929" y="41.3346" width="453.543" height="330.677" fill="white"/>
<rect x="57.1929" y="41.3346" width="453.543" height="330.677" fill="none" stroke="black"/>
<path d="M57.1929,372.012h 453.543" fill="none" stroke="black"/>
<path d="M65.7481,41.3346v 330.677" fill="none" stroke="black" stroke-dasharray=" 1, 2"/>
<path d="M110.218,41.3346v 330.677" fill="none" stroke="black" stroke-dasharray=" 1, 2"/>
<path d="M154.687,41.3346v 330.677" fill="none" stroke="black" stroke-dasharray=" 1, 2"/>
<path d="M199.157,41.3346v 330.677" fill="none" stroke="black" stroke-dasharray=" 1, 2"/>
<path d="M243.626,41.3346v 330.677" fill="none" stroke="black" stroke-dasharray=" 1, 2"/>
<path d="M288.096,41.3346v 330.677" fill="none" stroke="black" stroke-dasharray=" 1, 2"/>
<path d="M332.565,41.3346v 330.677" fill="none" stroke="black" stroke-dasharray=" 1, 2"/>
<path d="M377.034,41.3346v 330.677" fill="none" stroke="black" stroke-dasharray=" 1, 2"/>
<path d="M421.504,41.3346v 330.677" fill="none" stroke="black" stroke-dasharray=" 1, 2"/>
<path d="M465.973,41.3346v 330.677" fill="none" stroke="black" stroke-dasharray=" 1, 2"/>
<path d="M510.443,41.3346v 330.677" fill="none" stroke="black" stroke-dasharray=" 1, 2"/>
<path d="M65.7481,41.3346v 330.677" fill="none" stroke="black" stroke-dasharray=" 1, 2"/>
<path d="M510.443,41.3346v 330.677" fill="none" stroke="black" stroke-dasharray=" 1, 2"/>
<path d="M57.1929,372.012v -330.677" fill="none" stroke="black"/>
<path d="M57.1929,372.012h 453.543" fill="none" stroke="black"/>
<path d="M65.7481,362.091v 9.92031" fill="none" stroke="black"/>
<path d="M76.8655,367.052v 4.96016" fill="none" stroke="black"/>
<path d="M87.9829,367.052v 4.96016" fill="none" stroke="black"/>
<path d="M99.1002,367.052v 4.96016" fill="none" stroke="black"/>
<path d="M110.218,362.091v 9.92031" fill="none" stroke="black"/>
<path d="M121.335,367.052v 4.96016" fill="none" stroke="black"/>
<path d="M132.452,367.052v 4.96016" fill="none" stroke="black"/>
<path d="M143.57,367.052v 4.96016" fill="none" stroke="black"/>
<path d="M154.687,362.091v 9.92031" fill="none" stroke="black"/>
<path d="M165.804,367.052v 4.96016" fill="none" stroke="black"/>
<path d="M176.922,367.052v 4.96016" fill="none" stroke="black"/>
<path d="M188.039,367.052v 4.96016" fill="none" stroke="black"/>
<path d="M199.157,362.091v 9.92031" fill="none" stroke="black"/>
<path d="M210.274,367.052v 4.96016" fill="none" stroke="black"/>
<path d="M221.391,367.052v 4.96016" fill="none" stroke="black"/>
<path d="M232.509,367.052v 4.96016" fill="none" stroke="black"/>
<path d="M243.626,362.091v 9.92031" fill="none" stroke="black"/>
<path d="M254.743,367.052v 4.96016" fill="none" stroke="black"/>
<path d="M265.861,367.052v 4.96016" fill="none" stroke="black"/>
<path d="M276.978,367.052v 4.96016" fill="none" stroke="black"/>
<path d="M288.096,362.091v 9.92031" fill="none" stroke="black"/>
<path d="M299.213,367.052v 4.96016" fill="none" stroke="black"/>
<path d="M310.33,367.052v 4.96016" fill="none" stroke="black"/>
<path d="M321.448,367.052v 4.96016" fill="none" stroke="black"/>
<path d="M332.565,362.091v 9.92031" fill="none" stroke="black"/>
<path d="M343.682,367.052v 4.96016" fill="none" stroke="black"/>
<path d="M354.8,367.052v 4.96016" fill="none" stroke="black"/>
<path d="M365.917,367.052v 4.96016" fill="none" stroke="black"/>
<path d="M377.034,362.091v 9.92031" fill="none" stroke="black"/>
<path d="M388.152,367.052v 4.96016" fill="none" stroke="black"/>
<path d="M399.269,367.052v 4.96016" fill="none" stroke="black"/>
<path d="M410.387,367.052v 4.96016" fill="none" stroke="black"/>
<path d="M421.504,362.091v 9.92031" fill="none" stroke="black"/>
<path d="M432.621,367.052v 4.96016" fill="none" stroke="black"/>
<path d="M443.739,367.052v 4.96016" fill="none" stroke="black"/>
<path d="M454.856,367.052v 4.96016" fill="none" stroke="black"/>
<path d="M465.973,362.091v 9.92031" fill="none" stroke="black"/>
<path d="M477.091,367.052v 4.96016" fill="none" stroke="black"/>
<path d="M488.208,367.052v 4.96016" fill="none" stroke="black"/>
<path d="M499.326,367.052v 4.96016" fill="none" stroke="black"/>
<path d="M510.443,362.091v 9.92031" fill="none" stroke="black"/>
<path d="M65.7481,362.091v 9.92031" fill="none" stroke="black"/>
<path d="M510.443,362.091v 9.92031" fill="none" stroke="black"/>
<text xml:space="preserve" x="48.8501" y="385.379" fill="black" font-size="13.7726" font-family="Helvetica">0.848</text>
<text xml:space="preserve" x="97.2003" y="385.379" fill="black" font-size="13.7726" font-family="Helvetica">0.85</text>
<text xml:space="preserve" x="137.966" y="385.379" fill="black" font-size="13.7726" font-family="Helvetica">0.852</text>
<text xml:space="preserve" x="182.524" y="385.379" fill="black" font-size="13.7726" font-family="Helvetica">0.854</text>
<text xml:space="preserve" x="226.608" y="385.379" fill="black" font-size="13.7726" font-family="Helvetica">0.856</text>
<text xml:space="preserve" x="271.166" y="385.379" fill="black" font-size="13.7726" font-family="Helvetica">0.858</text>
<text xml:space="preserve" x="319.516" y="385.379" fill="black" font-size="13.7726" font-family="Helvetica">0.86</text>
<text xml:space="preserve" x="360.282" y="385.379" fill="black" font-size="13.7726" font-family="Helvetica">0.862</text>
<text xml:space="preserve" x="404.84" y="385.379" fill="black" font-size="13.7726" font-family="Helvetica">0.864</text>
<text xml:space="preserve" x="448.924" y="385.379" fill="black" font-size="13.7726" font-family="Helvetica">0.866</text>
<text xml:space="preserve" x="493.482" y="385.379" fill="black" font-size="13.7726" font-family="Helvetica">0.868</text>
<text xml:space="preserve" x="413.372" y="400.074" fill="black" font-size="13.7726" font-family="Helvetica">calibration factor</text>
<path d="M57.1929,372.012v -330.677" fill="none" stroke="black"/>
<path d="M70.7992,359.854h -13.6063" fill="none" stroke="black"/>
<path d="M63.9961,353.24h -6.80315" fill="none" stroke="black"/>
<path d="M63.9961,346.626h -6.80315" fill="none" stroke="black"/>
<path d="M63.9961,340.013h -6.80315" fill="none" stroke="black"/>
<path d="M63.9961,333.399h -6.80315" fill="none" stroke="black"/>
<path d="M70.7992,326.786h -13.6063" fill="none" stroke="black"/>
<path d="M63.9961,320.172h -6.80315" fill="none" stroke="black"/>
<path d="M63.9961,313.559h -6.80315" fill="none" stroke="black"/>
<path d="M63.9961,306.945h -6.80315" fill="none" stroke="black"/>
<path d="M63.9961,300.332h -6.80315" fill="none" stroke="black"/>
<path d="M70.7992,293.718h -13.6063" fill="none" stroke="black"/>
<path d="M63.9961,287.105h -6.80315" fill="none" stroke="black"/>
<path d="M63.9961,280.491h -6.80315" fill="none" stroke="black"/>
<path d="M63.9961,273.878h -6.80315" fill="none" stroke="black"/>
<path d="M63.9961,267.264h -6.80315" fill="none" stroke="black"/>
<path d="M70.7992,260.65h -13.6063" fill="none" stroke="black"/>
<path d="M63.9961,254.037h -6.80315" fill="none" stroke="black"/>
<path d="M63.9961,247.423h -6.80315" fill="none" stroke="black"/>
<path d="M63.9961,240.81h -6.80315" fill="none" stroke="black"/>
<path d="M63.9961,234.196h -6.80315" fill="none" stroke="black"/>
<path d="M70.7992,227.583h -13.6063" fill="none" stroke="black"/>
<path d="M63.9961,220.969h -6.80315" fill="none" stroke="black"/>
<path d="M63.9961,214.356h -6.80315" fill="none" stroke="black"/>
<path d="M63.9961,207.742h -6.80315" fill="none" stroke="black"/>
<path d="M63.9961,201.129h -6.80315" fill="none" stroke="black"/>
<path d="M70.7992,194.515h -13.6063" fill="none" stroke="black"/>
<path d="M63.9961,187.902h -6.80315" fill="none" stroke="black"/>
<path d="M63.9961,181.288h -6.80315" fill="none" stroke="black"/>
<path d="M63.9961,174.674h -6.80315" fill="none" stroke="black"/>
<path d="M63.9961,168.061h -6.80315" fill="none" stroke="black"/>
<path d="M70.7992,161.447h -13.6063" fill="none" stroke="black"/>
<path d="M63.9961,154.834h -6.80315" fill="none" stroke="black"/>
<path d="M63.9961,148.22h -6.80315" fill="none" stroke="black"/>
<path d="M63.9961,141.607h -6.80315" fill="none" stroke="black"/>
<path d="M63.9961,134.993h -6.80315" fill="none" stroke="black"/>
<path d="M70.7992,128.38h -13.6063" fill="none" stroke="black"/>
<path d="M63.9961,121.766h -6.80315" fill="none" stroke="black"/>
<path d="M63.9961,115.153h -6.80315" fill="none" stroke="black"/>
<path d="M63.9961,108.539h -6.80315" fill="none" stroke="black"/>
<path d="M63.9961,101.925h -6.80315" fill="none" stroke="black"/>
<path d="M70.7992,95.312h -13.6063" fill="none" stroke="black"/>
<path d="M63.9961,88.6984h -6.80315" fill="none" stroke="black"/>
<path d="M63.9961,82.0849h -6.80315" fill="none" stroke="black"/>
<path d="M63.9961,75.4713h -6.80315" fill="none" stroke="black"/>
<path d="M63.9961,68.8578h -6.80315" fill="none" stroke="black"/>
<path d="M70.7992,62.2442h -13.6063" fill="none" stroke="black"/>
<path d="M70.7992,359.854h -13.6063" fill="none" stroke="black"/>
<path d="M63.9961,366.467h -6.80315" fill="none" stroke="black"/>
<path d="M70.7992,62.2442h -13.6063" fill="none" stroke="black"/>
<path d="M63.9961,55.6307h -6.80315" fill="none" stroke="black"/>
<path d="M63.9961,49.0172h -6.80315" fill="none" stroke="black"/>
<path d="M63.9961,42.4036h -6.80315" fill="none" stroke="black"/>
<text xml:space="preserve" x="34.6295" y="364.522" fill="black" font-size="13.7726" font-family="Helvetica">381</text>
<text xml:space="preserve" x="32.2594" y="331.341" fill="black" font-size="13.7726" font-family="Helvetica">382</text>
<text xml:space="preserve" x="32.2594" y="298.159" fill="black" font-size="13.7726" font-family="Helvetica">383</text>
<text xml:space="preserve" x="32.2594" y="264.978" fill="black" font-size="13.7726" font-family="Helvetica">384</text>
<text xml:space="preserve" x="32.2594" y="232.27" fill="black" font-size="13.7726" font-family="Helvetica">385</text>
<text xml:space="preserve" x="32.2594" y="199.089" fill="black" font-size="13.7726" font-family="Helvetica">386</text>
<text xml:space="preserve" x="32.2594" y="165.907" fill="black" font-size="13.7726" font-family="Helvetica">387</text>
<text xml:space="preserve" x="32.2594" y="132.726" fill="black" font-size="13.7726" font-family="Helvetica">388</text>
<text xml:space="preserve" x="32.2594" y="100.018" fill="black" font-size="13.7726" font-family="Helvetica">389</text>
<text xml:space="preserve" x="32.2594" y="66.837" fill="black" font-size="13.7726" font-family="Helvetica">390</text>
<g transform="rotate(-90,15.1947,45.98)">
<text xml:space="preserve" x="15.1947" y="45.98" fill="black" font-size="9.34839" font-family="Helvetica">2</text>
</g>
<g transform="rotate(-90,19.4608,50.2462)">
<text xml:space="preserve" x="19.4608" y="50.2462" fill="black" font-size="13.7726" font-family="Helvetica"> </text>
</g>
<g transform="rotate(-90,19.4608,57.3565)">
<text xml:space="preserve" x="19.4608" y="57.3565" fill="black" font-size="13.7726" font-family="Times">&#0967;</text>
</g>
<text xml:space="preserve" x="111.895" y="18.4868" fill="black" font-size="15.1181" font-family="Helvetica">^2 v.s. calibration factorwithout 1st binand with last bin</text>
<text xml:space="preserve" x="103.837" y="18.4868" fill="black" font-size="15.1181" font-family="Times">&#0967;</text>
<g stroke="black" stroke-width="1" fill="none">
<line x1="94.9807" y1="45.782" x2="98.7729" y2="45.782"/><line x1="96.8768" y1="43.886" x2="96.8768" y2="47.6781"/><line x1="94.9807" y1="43.886" x2="98.7729" y2="47.6781"/><line x1="94.9807" y1="47.6781" x2="98.7729" y2="43.886"/>
<line x1="99.4276" y1="60.2714" x2="103.22" y2="60.2714"/><line x1="101.324" y1="58.3753" x2="101.324" y2="62.1675"/><line x1="99.4276" y1="58.3753" x2="103.22" y2="62.1675"/><line x1="99.4276" y1="62.1675" x2="103.22" y2="58.3753"/>
<line x1="103.875" y1="70.4199" x2="107.667" y2="70.4199"/><line x1="105.771" y1="68.5238" x2="105.771" y2="72.3159"/><line x1="103.875" y1="68.5238" x2="107.667" y2="72.3159"/><line x1="103.875" y1="72.3159" x2="107.667" y2="68.5238"/>
<line x1="108.322" y1="76.4077" x2="112.114" y2="76.4077"/><line x1="110.218" y1="74.5116" x2="110.218" y2="78.3037"/><line x1="108.322" y1="74.5116" x2="112.114" y2="78.3037"/><line x1="108.322" y1="78.3037" x2="112.114" y2="74.5116"/>
<line x1="112.768" y1="84.426" x2="116.561" y2="84.426"/><line x1="114.665" y1="82.5299" x2="114.665" y2="86.3221"/><line x1="112.768" y1="82.5299" x2="116.561" y2="86.3221"/><line x1="112.768" y1="86.3221" x2="116.561" y2="82.5299"/>
<line x1="117.215" y1="99.0142" x2="121.008" y2="99.0142"/><line x1="119.112" y1="97.1181" x2="119.112" y2="100.91"/><line x1="117.215" y1="97.1181" x2="121.008" y2="100.91"/><line x1="117.215" y1="100.91" x2="121.008" y2="97.1181"/>
<line x1="121.662" y1="110.062" x2="125.455" y2="110.062"/><line x1="123.558" y1="108.166" x2="123.558" y2="111.958"/><line x1="121.662" y1="108.166" x2="125.455" y2="111.958"/><line x1="121.662" y1="111.958" x2="125.455" y2="108.166"/>
<line x1="126.109" y1="117.018" x2="129.901" y2="117.018"/><line x1="128.005" y1="115.122" x2="128.005" y2="118.914"/><line x1="126.109" y1="115.122" x2="129.901" y2="118.914"/><line x1="126.109" y1="118.914" x2="129.901" y2="115.122"/>
<line x1="130.556" y1="121.272" x2="134.348" y2="121.272"/><line x1="132.452" y1="119.376" x2="132.452" y2="123.168"/><line x1="130.556" y1="119.376" x2="134.348" y2="123.168"/><line x1="130.556" y1="123.168" x2="134.348" y2="119.376"/>
<line x1="135.003" y1="123.952" x2="138.795" y2="123.952"/><line x1="136.899" y1="122.056" x2="136.899" y2="125.848"/><line x1="135.003" y1="122.056" x2="138.795" y2="125.848"/><line x1="135.003" y1="125.848" x2="138.795" y2="122.056"/>
<line x1="139.45" y1="125.333" x2="143.242" y2="125.333"/><line x1="141.346" y1="123.436" x2="141.346" y2="127.229"/><line x1="139.45" y1="123.436" x2="143.242" y2="127.229"/><line x1="139.45" y1="127.229" x2="143.242" y2="123.436"/>
<line x1="143.897" y1="128.94" x2="147.689" y2="128.94"/><line x1="145.793" y1="127.044" x2="145.793" y2="130.836"/><line x1="143.897" y1="127.044" x2="147.689" y2="130.836"/><line x1="143.897" y1="130.836" x2="147.689" y2="127.044"/>
<line x1="148.344" y1="146.23" x2="152.136" y2="146.23"/><line x1="150.24" y1="144.334" x2="150.24" y2="148.126"/><line x1="148.344" y1="144.334" x2="152.136" y2="148.126"/><line x1="148.344" y1="148.126" x2="152.136" y2="144.334"/>
<line x1="152.791" y1="157.154" x2="156.583" y2="157.154"/><line x1="154.687" y1="155.258" x2="154.687" y2="159.05"/><line x1="152.791" y1="155.258" x2="156.583" y2="159.05"/><line x1="152.791" y1="159.05" x2="156.583" y2="155.258"/>
<line x1="157.238" y1="160.873" x2="161.03" y2="160.873"/><line x1="159.134" y1="158.977" x2="159.134" y2="162.769"/><line x1="157.238" y1="158.977" x2="161.03" y2="162.769"/><line x1="157.238" y1="162.769" x2="161.03" y2="158.977"/>
<line x1="161.685" y1="167.884" x2="165.477" y2="167.884"/><line x1="163.581" y1="165.988" x2="163.581" y2="169.78"/><line x1="161.685" y1="165.988" x2="165.477" y2="169.78"/><line x1="161.685" y1="169.78" x2="165.477" y2="165.988"/>
<line x1="166.132" y1="179.944" x2="169.924" y2="179.944"/><line x1="168.028" y1="178.048" x2="168.028" y2="181.84"/><line x1="166.132" y1="178.048" x2="169.924" y2="181.84"/><line x1="166.132" y1="181.84" x2="169.924" y2="178.048"/>
<line x1="170.579" y1="190.862" x2="174.371" y2="190.862"/><line x1="172.475" y1="188.966" x2="172.475" y2="192.758"/><line x1="170.579" y1="188.966" x2="174.371" y2="192.758"/><line x1="170.579" y1="192.758" x2="174.371" y2="188.966"/>
<line x1="175.026" y1="196.069" x2="178.818" y2="196.069"/><line x1="176.922" y1="194.172" x2="176.922" y2="197.965"/><line x1="175.026" y1="194.172" x2="178.818" y2="197.965"/><line x1="175.026" y1="197.965" x2="178.818" y2="194.172"/>
<line x1="179.473" y1="202.273" x2="183.265" y2="202.273"/><line x1="181.369" y1="200.377" x2="181.369" y2="204.169"/><line x1="179.473" y1="200.377" x2="183.265" y2="204.169"/><line x1="179.473" y1="204.169" x2="183.265" y2="200.377"/>
<line x1="183.92" y1="216.267" x2="187.712" y2="216.267"/><line x1="185.816" y1="214.371" x2="185.816" y2="218.163"/><line x1="183.92" y1="214.371" x2="187.712" y2="218.163"/><line x1="183.92" y1="218.163" x2="187.712" y2="214.371"/>
<line x1="188.367" y1="222.603" x2="192.159" y2="222.603"/><line x1="190.263" y1="220.707" x2="190.263" y2="224.5"/><line x1="188.367" y1="220.707" x2="192.159" y2="224.5"/><line x1="188.367" y1="224.5" x2="192.159" y2="220.707"/>
<line x1="192.814" y1="222.637" x2="196.606" y2="222.637"/><line x1="194.71" y1="220.741" x2="194.71" y2="224.533"/><line x1="192.814" y1="220.741" x2="196.606" y2="224.533"/><line x1="192.814" y1="224.533" x2="196.606" y2="220.741"/>
<line x1="197.26" y1="230.799" x2="201.053" y2="230.799"/><line x1="199.157" y1="228.903" x2="199.157" y2="232.695"/><line x1="197.26" y1="228.903" x2="201.053" y2="232.695"/><line x1="197.26" y1="232.695" x2="201.053" y2="228.903"/>
<line x1="201.707" y1="239.571" x2="205.5" y2="239.571"/><line x1="203.604" y1="237.675" x2="203.604" y2="241.467"/><line x1="201.707" y1="237.675" x2="205.5" y2="241.467"/><line x1="201.707" y1="241.467" x2="205.5" y2="237.675"/>
<line x1="206.154" y1="242.491" x2="209.947" y2="242.491"/><line x1="208.05" y1="240.595" x2="208.05" y2="244.387"/><line x1="206.154" y1="240.595" x2="209.947" y2="244.387"/><line x1="206.154" y1="244.387" x2="209.947" y2="240.595"/>
<line x1="210.601" y1="241.538" x2="214.393" y2="241.538"/><line x1="212.497" y1="239.642" x2="212.497" y2="243.434"/><line x1="210.601" y1="239.642" x2="214.393" y2="243.434"/><line x1="210.601" y1="243.434" x2="214.393" y2="239.642"/>
<line x1="215.048" y1="250.494" x2="218.84" y2="250.494"/><line x1="216.944" y1="248.598" x2="216.944" y2="252.39"/><line x1="215.048" y1="248.598" x2="218.84" y2="252.39"/><line x1="215.048" y1="252.39" x2="218.84" y2="248.598"/>
<line x1="219.495" y1="253.854" x2="223.287" y2="253.854"/><line x1="221.391" y1="251.958" x2="221.391" y2="255.75"/><line x1="219.495" y1="251.958" x2="223.287" y2="255.75"/><line x1="219.495" y1="255.75" x2="223.287" y2="251.958"/>
<line x1="223.942" y1="257.491" x2="227.734" y2="257.491"/><line x1="225.838" y1="255.595" x2="225.838" y2="259.387"/><line x1="223.942" y1="255.595" x2="227.734" y2="259.387"/><line x1="223.942" y1="259.387" x2="227.734" y2="255.595"/>
<line x1="228.389" y1="258.984" x2="232.181" y2="258.984"/><line x1="230.285" y1="257.088" x2="230.285" y2="260.881"/><line x1="228.389" y1="257.088" x2="232.181" y2="260.881"/><line x1="228.389" y1="260.881" x2="232.181" y2="257.088"/>
<line x1="232.836" y1="260.752" x2="236.628" y2="260.752"/><line x1="234.732" y1="258.856" x2="234.732" y2="262.648"/><line x1="232.836" y1="258.856" x2="236.628" y2="262.648"/><line x1="232.836" y1="262.648" x2="236.628" y2="258.856"/>
<line x1="237.283" y1="265.072" x2="241.075" y2="265.072"/><line x1="239.179" y1="263.176" x2="239.179" y2="266.968"/><line x1="237.283" y1="263.176" x2="241.075" y2="266.968"/><line x1="237.283" y1="266.968" x2="241.075" y2="263.176"/>
<line x1="241.73" y1="275.98" x2="245.522" y2="275.98"/><line x1="243.626" y1="274.084" x2="243.626" y2="277.876"/><line x1="241.73" y1="274.084" x2="245.522" y2="277.876"/><line x1="241.73" y1="277.876" x2="245.522" y2="274.084"/>
<line x1="246.177" y1="281.737" x2="249.969" y2="281.737"/><line x1="248.073" y1="279.841" x2="248.073" y2="283.633"/><line x1="246.177" y1="279.841" x2="249.969" y2="283.633"/><line x1="246.177" y1="283.633" x2="249.969" y2="279.841"/>
<line x1="250.624" y1="290.596" x2="254.416" y2="290.596"/><line x1="252.52" y1="288.7" x2="252.52" y2="292.492"/><line x1="250.624" y1="288.7" x2="254.416" y2="292.492"/><line x1="250.624" y1="292.492" x2="254.416" y2="288.7"/>
<line x1="255.071" y1="288.17" x2="258.863" y2="288.17"/><line x1="256.967" y1="286.274" x2="256.967" y2="290.066"/><line x1="255.071" y1="286.274" x2="258.863" y2="290.066"/><line x1="255.071" y1="290.066" x2="258.863" y2="286.274"/>
<line x1="259.518" y1="287.433" x2="263.31" y2="287.433"/><line x1="261.414" y1="285.537" x2="261.414" y2="289.329"/><line x1="259.518" y1="285.537" x2="263.31" y2="289.329"/><line x1="259.518" y1="289.329" x2="263.31" y2="285.537"/>
<line x1="263.965" y1="282.157" x2="267.757" y2="282.157"/><line x1="265.861" y1="280.26" x2="265.861" y2="284.053"/><line x1="263.965" y1="280.26" x2="267.757" y2="284.053"/><line x1="263.965" y1="284.053" x2="267.757" y2="280.26"/>
<line x1="268.412" y1="284.062" x2="272.204" y2="284.062"/><line x1="270.308" y1="282.166" x2="270.308" y2="285.958"/><line x1="268.412" y1="282.166" x2="272.204" y2="285.958"/><line x1="268.412" y1="285.958" x2="272.204" y2="282.166"/>
<line x1="272.859" y1="296.234" x2="276.651" y2="296.234"/><line x1="274.755" y1="294.338" x2="274.755" y2="298.13"/><line x1="272.859" y1="294.338" x2="276.651" y2="298.13"/><line x1="272.859" y1="298.13" x2="276.651" y2="294.338"/>
<line x1="277.306" y1="304.873" x2="281.098" y2="304.873"/><line x1="279.202" y1="302.977" x2="279.202" y2="306.77"/><line x1="277.306" y1="302.977" x2="281.098" y2="306.77"/><line x1="277.306" y1="306.77" x2="281.098" y2="302.977"/>
<line x1="281.752" y1="305.876" x2="285.545" y2="305.876"/><line x1="283.649" y1="303.98" x2="283.649" y2="307.772"/><line x1="281.752" y1="303.98" x2="285.545" y2="307.772"/><line x1="281.752" y1="307.772" x2="285.545" y2="303.98"/>
<line x1="286.199" y1="303.137" x2="289.992" y2="303.137"/><line x1="288.096" y1="301.241" x2="288.096" y2="305.033"/><line x1="286.199" y1="301.241" x2="289.992" y2="305.033"/><line x1="286.199" y1="305.033" x2="289.992" y2="301.241"/>
<line x1="290.646" y1="301.644" x2="294.439" y2="301.644"/><line x1="292.542" y1="299.748" x2="292.542" y2="303.54"/><line x1="290.646" y1="299.748" x2="294.439" y2="303.54"/><line x1="290.646" y1="303.54" x2="294.439" y2="299.748"/>
<line x1="295.093" y1="294.361" x2="298.885" y2="294.361"/><line x1="296.989" y1="292.465" x2="296.989" y2="296.257"/><line x1="295.093" y1="292.465" x2="298.885" y2="296.257"/><line x1="295.093" y1="296.257" x2="298.885" y2="292.465"/>
<line x1="299.54" y1="302.661" x2="303.332" y2="302.661"/><line x1="301.436" y1="300.765" x2="301.436" y2="304.557"/><line x1="299.54" y1="300.765" x2="303.332" y2="304.557"/><line x1="299.54" y1="304.557" x2="303.332" y2="300.765"/>
<line x1="303.987" y1="299.71" x2="307.779" y2="299.71"/><line x1="305.883" y1="297.814" x2="305.883" y2="301.606"/><line x1="303.987" y1="297.814" x2="307.779" y2="301.606"/><line x1="303.987" y1="301.606" x2="307.779" y2="297.814"/>
<line x1="308.434" y1="301.943" x2="312.226" y2="301.943"/><line x1="310.33" y1="300.047" x2="310.33" y2="303.839"/><line x1="308.434" y1="300.047" x2="312.226" y2="303.839"/><line x1="308.434" y1="303.839" x2="312.226" y2="300.047"/>
<line x1="312.881" y1="302.904" x2="316.673" y2="302.904"/><line x1="314.777" y1="301.008" x2="314.777" y2="304.8"/><line x1="312.881" y1="301.008" x2="316.673" y2="304.8"/><line x1="312.881" y1="304.8" x2="316.673" y2="301.008"/>
<line x1="317.328" y1="299.728" x2="321.12" y2="299.728"/><line x1="319.224" y1="297.832" x2="319.224" y2="301.624"/><line x1="317.328" y1="297.832" x2="321.12" y2="301.624"/><line x1="317.328" y1="301.624" x2="321.12" y2="297.832"/>
<line x1="321.775" y1="293.994" x2="325.567" y2="293.994"/><line x1="323.671" y1="292.098" x2="323.671" y2="295.89"/><line x1="321.775" y1="292.098" x2="325.567" y2="295.89"/><line x1="321.775" y1="295.89" x2="325.567" y2="292.098"/>
<line x1="326.222" y1="295.376" x2="330.014" y2="295.376"/><line x1="328.118" y1="293.48" x2="328.118" y2="297.272"/><line x1="326.222" y1="293.48" x2="330.014" y2="297.272"/><line x1="326.222" y1="297.272" x2="330.014" y2="293.48"/>
<line x1="330.669" y1="295.385" x2="334.461" y2="295.385"/><line x1="332.565" y1="293.488" x2="332.565" y2="297.281"/><line x1="330.669" y1="293.488" x2="334.461" y2="297.281"/><line x1="330.669" y1="297.281" x2="334.461" y2="293.488"/>
<line x1="335.116" y1="286.833" x2="338.908" y2="286.833"/><line x1="337.012" y1="284.937" x2="337.012" y2="288.729"/><line x1="335.116" y1="284.937" x2="338.908" y2="288.729"/><line x1="335.116" y1="288.729" x2="338.908" y2="284.937"/>
<line x1="339.563" y1="288.109" x2="343.355" y2="288.109"/><line x1="341.459" y1="286.213" x2="341.459" y2="290.005"/><line x1="339.563" y1="286.213" x2="343.355" y2="290.005"/><line x1="339.563" y1="290.005" x2="343.355" y2="286.213"/>
<line x1="344.01" y1="288.52" x2="347.802" y2="288.52"/><line x1="345.906" y1="286.624" x2="345.906" y2="290.416"/><line x1="344.01" y1="286.624" x2="347.802" y2="290.416"/><line x1="344.01" y1="290.416" x2="347.802" y2="286.624"/>
<line x1="348.457" y1="284.854" x2="352.249" y2="284.854"/><line x1="350.353" y1="282.958" x2="350.353" y2="286.75"/><line x1="348.457" y1="282.958" x2="352.249" y2="286.75"/><line x1="348.457" y1="286.75" x2="352.249" y2="282.958"/>
<line x1="352.904" y1="286.809" x2="356.696" y2="286.809"/><line x1="354.8" y1="284.913" x2="354.8" y2="288.705"/><line x1="352.904" y1="284.913" x2="356.696" y2="288.705"/><line x1="352.904" y1="288.705" x2="356.696" y2="284.913"/>
<line x1="357.351" y1="282.761" x2="361.143" y2="282.761"/><line x1="359.247" y1="280.865" x2="359.247" y2="284.657"/><line x1="357.351" y1="280.865" x2="361.143" y2="284.657"/><line x1="357.351" y1="284.657" x2="361.143" y2="280.865"/>
<line x1="361.798" y1="280.014" x2="365.59" y2="280.014"/><line x1="363.694" y1="278.118" x2="363.694" y2="281.91"/><line x1="361.798" y1="278.118" x2="365.59" y2="281.91"/><line x1="361.798" y1="281.91" x2="365.59" y2="278.118"/>
<line x1="366.244" y1="280.52" x2="370.037" y2="280.52"/><line x1="368.141" y1="278.624" x2="368.141" y2="282.417"/><line x1="366.244" y1="278.624" x2="370.037" y2="282.417"/><line x1="366.244" y1="282.417" x2="370.037" y2="278.624"/>
<line x1="370.691" y1="279.894" x2="374.484" y2="279.894"/><line x1="372.588" y1="277.998" x2="372.588" y2="281.79"/><line x1="370.691" y1="277.998" x2="374.484" y2="281.79"/><line x1="370.691" y1="281.79" x2="374.484" y2="277.998"/>
<line x1="375.138" y1="276.774" x2="378.931" y2="276.774"/><line x1="377.034" y1="274.878" x2="377.034" y2="278.67"/><line x1="375.138" y1="274.878" x2="378.931" y2="278.67"/><line x1="375.138" y1="278.67" x2="378.931" y2="274.878"/>
<line x1="379.585" y1="288.85" x2="383.378" y2="288.85"/><line x1="381.481" y1="286.954" x2="381.481" y2="290.746"/><line x1="379.585" y1="286.954" x2="383.378" y2="290.746"/><line x1="379.585" y1="290.746" x2="383.378" y2="286.954"/>
<line x1="384.032" y1="294.23" x2="387.824" y2="294.23"/><line x1="385.928" y1="292.333" x2="385.928" y2="296.126"/><line x1="384.032" y1="292.333" x2="387.824" y2="296.126"/><line x1="384.032" y1="296.126" x2="387.824" y2="292.333"/>
<line x1="388.479" y1="295.725" x2="392.271" y2="295.725"/><line x1="390.375" y1="293.829" x2="390.375" y2="297.621"/><line x1="388.479" y1="293.829" x2="392.271" y2="297.621"/><line x1="388.479" y1="297.621" x2="392.271" y2="293.829"/>
<line x1="392.926" y1="302.459" x2="396.718" y2="302.459"/><line x1="394.822" y1="300.563" x2="394.822" y2="304.355"/><line x1="392.926" y1="300.563" x2="396.718" y2="304.355"/><line x1="392.926" y1="304.355" x2="396.718" y2="300.563"/>
<line x1="397.373" y1="301.608" x2="401.165" y2="301.608"/><line x1="399.269" y1="299.712" x2="399.269" y2="303.504"/><line x1="397.373" y1="299.712" x2="401.165" y2="303.504"/><line x1="397.373" y1="303.504" x2="401.165" y2="299.712"/>
<line x1="401.82" y1="295.081" x2="405.612" y2="295.081"/><line x1="403.716" y1="293.185" x2="403.716" y2="296.977"/><line x1="401.82" y1="293.185" x2="405.612" y2="296.977"/><line x1="401.82" y1="296.977" x2="405.612" y2="293.185"/>
<line x1="406.267" y1="298.788" x2="410.059" y2="298.788"/><line x1="408.163" y1="296.892" x2="408.163" y2="300.684"/><line x1="406.267" y1="296.892" x2="410.059" y2="300.684"/><line x1="406.267" y1="300.684" x2="410.059" y2="296.892"/>
<line x1="410.714" y1="297.555" x2="414.506" y2="297.555"/><line x1="412.61" y1="295.659" x2="412.61" y2="299.451"/><line x1="410.714" y1="295.659" x2="414.506" y2="299.451"/><line x1="410.714" y1="299.451" x2="414.506" y2="295.659"/>
<line x1="415.161" y1="291.107" x2="418.953" y2="291.107"/><line x1="417.057" y1="289.211" x2="417.057" y2="293.003"/><line x1="415.161" y1="289.211" x2="418.953" y2="293.003"/><line x1="415.161" y1="293.003" x2="418.953" y2="289.211"/>
<line x1="419.608" y1="296.907" x2="423.4" y2="296.907"/><line x1="421.504" y1="295.01" x2="421.504" y2="298.803"/><line x1="419.608" y1="295.01" x2="423.4" y2="298.803"/><line x1="419.608" y1="298.803" x2="423.4" y2="295.01"/>
<line x1="424.055" y1="285.798" x2="427.847" y2="285.798"/><line x1="425.951" y1="283.902" x2="425.951" y2="287.694"/><line x1="424.055" y1="283.902" x2="427.847" y2="287.694"/><line x1="424.055" y1="287.694" x2="427.847" y2="283.902"/>
<line x1="428.502" y1="280.992" x2="432.294" y2="280.992"/><line x1="430.398" y1="279.096" x2="430.398" y2="282.888"/><line x1="428.502" y1="279.096" x2="432.294" y2="282.888"/><line x1="428.502" y1="282.888" x2="432.294" y2="279.096"/>
<line x1="432.949" y1="274.869" x2="436.741" y2="274.869"/><line x1="434.845" y1="272.973" x2="434.845" y2="276.765"/><line x1="432.949" y1="272.973" x2="436.741" y2="276.765"/><line x1="432.949" y1="276.765" x2="436.741" y2="272.973"/>
<line x1="437.396" y1="262.578" x2="441.188" y2="262.578"/><line x1="439.292" y1="260.682" x2="439.292" y2="264.474"/><line x1="437.396" y1="260.682" x2="441.188" y2="264.474"/><line x1="437.396" y1="264.474" x2="441.188" y2="260.682"/>
<line x1="441.843" y1="248.727" x2="445.635" y2="248.727"/><line x1="443.739" y1="246.831" x2="443.739" y2="250.623"/><line x1="441.843" y1="246.831" x2="445.635" y2="250.623"/><line x1="441.843" y1="250.623" x2="445.635" y2="246.831"/>
<line x1="446.29" y1="258.646" x2="450.082" y2="258.646"/><line x1="448.186" y1="256.75" x2="448.186" y2="260.542"/><line x1="446.29" y1="256.75" x2="450.082" y2="260.542"/><line x1="446.29" y1="260.542" x2="450.082" y2="256.75"/>
<line x1="450.736" y1="255.211" x2="454.529" y2="255.211"/><line x1="452.633" y1="253.314" x2="452.633" y2="257.107"/><line x1="450.736" y1="253.314" x2="454.529" y2="257.107"/><line x1="450.736" y1="257.107" x2="454.529" y2="253.314"/>
<line x1="455.183" y1="255.262" x2="458.976" y2="255.262"/><line x1="457.08" y1="253.366" x2="457.08" y2="257.158"/><line x1="455.183" y1="253.366" x2="458.976" y2="257.158"/><line x1="455.183" y1="257.158" x2="458.976" y2="253.366"/>
<line x1="459.63" y1="249.175" x2="463.423" y2="249.175"/><line x1="461.526" y1="247.279" x2="461.526" y2="251.071"/><line x1="459.63" y1="247.279" x2="463.423" y2="251.071"/><line x1="459.63" y1="251.071" x2="463.423" y2="247.279"/>
<line x1="464.077" y1="242.824" x2="467.87" y2="242.824"/><line x1="465.973" y1="240.928" x2="465.973" y2="244.72"/><line x1="464.077" y1="240.928" x2="467.87" y2="244.72"/><line x1="464.077" y1="244.72" x2="467.87" y2="240.928"/>
<line x1="468.524" y1="233.841" x2="472.316" y2="233.841"/><line x1="470.42" y1="231.945" x2="470.42" y2="235.738"/><line x1="468.524" y1="231.945" x2="472.316" y2="235.738"/><line x1="468.524" y1="235.738" x2="472.316" y2="231.945"/>
<line x1="472.971" y1="240.764" x2="476.763" y2="240.764"/><line x1="474.867" y1="238.868" x2="474.867" y2="242.66"/><line x1="472.971" y1="238.868" x2="476.763" y2="242.66"/><line x1="472.971" y1="242.66" x2="476.763" y2="238.868"/>
<line x1="477.418" y1="234.581" x2="481.21" y2="234.581"/><line x1="479.314" y1="232.685" x2="479.314" y2="236.477"/><line x1="477.418" y1="232.685" x2="481.21" y2="236.477"/><line x1="477.418" y1="236.477" x2="481.21" y2="232.685"/>
<line x1="481.865" y1="232.034" x2="485.657" y2="232.034"/><line x1="483.761" y1="230.138" x2="483.761" y2="233.93"/><line x1="481.865" y1="230.138" x2="485.657" y2="233.93"/><line x1="481.865" y1="233.93" x2="485.657" y2="230.138"/>
<line x1="486.312" y1="234.631" x2="490.104" y2="234.631"/><line x1="488.208" y1="232.735" x2="488.208" y2="236.527"/><line x1="486.312" y1="232.735" x2="490.104" y2="236.527"/><line x1="486.312" y1="236.527" x2="490.104" y2="232.735"/>
<line x1="490.759" y1="231.686" x2="494.551" y2="231.686"/><line x1="492.655" y1="229.79" x2="492.655" y2="233.582"/><line x1="490.759" y1="229.79" x2="494.551" y2="233.582"/><line x1="490.759" y1="233.582" x2="494.551" y2="229.79"/>
<line x1="495.206" y1="235.079" x2="498.998" y2="235.079"/><line x1="497.102" y1="233.183" x2="497.102" y2="236.975"/><line x1="495.206" y1="233.183" x2="498.998" y2="236.975"/><line x1="495.206" y1="236.975" x2="498.998" y2="233.183"/>
<line x1="499.653" y1="229.404" x2="503.445" y2="229.404"/><line x1="501.549" y1="227.508" x2="501.549" y2="231.301"/><line x1="499.653" y1="227.508" x2="503.445" y2="231.301"/><line x1="499.653" y1="231.301" x2="503.445" y2="227.508"/>
<line x1="504.1" y1="228.097" x2="507.892" y2="228.097"/><line x1="505.996" y1="226.201" x2="505.996" y2="229.993"/><line x1="504.1" y1="226.201" x2="507.892" y2="229.993"/><line x1="504.1" y1="229.993" x2="507.892" y2="226.201"/>
<line x1="508.547" y1="232.794" x2="512.339" y2="232.794"/><line x1="510.443" y1="230.898" x2="510.443" y2="234.69"/><line x1="508.547" y1="230.898" x2="512.339" y2="234.69"/><line x1="508.547" y1="234.69" x2="512.339" y2="230.898"/>
</g>
<path d="M0.5,272.809h 566.929" fill="none" stroke="#0000ff"/>
<text xml:space="preserve" x="111.895" y="18.4868" fill="black" font-size="15.1181" font-family="Helvetica">^2 v.s. calibration factorwithout 1st binand with last bin</text>
<text xml:space="preserve" x="103.837" y="18.4868" fill="black" font-size="15.1181" font-family="Times">&#0967;</text></svg>
