<?xml version="1.0" standalone="no"?>
<svg width="567.429" height="413.846" viewBox="0 0 567.429 413.846" xmlns="http://www.w3.org/2000/svg" shape-rendering="crispEdges">
<title>
figures/chi2zoomin_0PMTnpefilelist20.svg
</title>
<desc>
Creator: ROOT Version 6.18/04
CreationDate: Sun Nov  3 12:58:24 2019</desc>
<defs>
</defs>
<rect x="0.5" y="0" width="566.929" height="413.346" fill="white"/>
<rect x="57.1929" y="41.3346" width="453.543" height="330.677" fill="white"/>
<rect x="57.1929" y="41.3346" width="453.543" height="330.677" fill="none" stroke="black"/>
<path d="M57.1929,372.012h 453.543" fill="none" stroke="black"/>
<path d="M97.8697,41.3346v 330.677" fill="none" stroke="black" stroke-dasharray=" 1, 2"/>
<path d="M142.339,41.3346v 330.677" fill="none" stroke="black" stroke-dasharray=" 1, 2"/>
<path d="M186.809,41.3346v 330.677" fill="none" stroke="black" stroke-dasharray=" 1, 2"/>
<path d="M231.278,41.3346v 330.677" fill="none" stroke="black" stroke-dasharray=" 1, 2"/>
<path d="M275.748,41.3346v 330.677" fill="none" stroke="black" stroke-dasharray=" 1, 2"/>
<path d="M320.217,41.3346v 330.677" fill="none" stroke="black" stroke-dasharray=" 1, 2"/>
<path d="M364.687,41.3346v 330.677" fill="none" stroke="black" stroke-dasharray=" 1, 2"/>
<path d="M409.156,41.3346v 330.677" fill="none" stroke="black" stroke-dasharray=" 1, 2"/>
<path d="M453.625,41.3346v 330.677" fill="none" stroke="black" stroke-dasharray=" 1, 2"/>
<path d="M498.095,41.3346v 330.677" fill="none" stroke="black" stroke-dasharray=" 1, 2"/>
<path d="M97.8697,41.3346v 330.677" fill="none" stroke="black" stroke-dasharray=" 1, 2"/>
<path d="M498.095,41.3346v 330.677" fill="none" stroke="black" stroke-dasharray=" 1, 2"/>
<path d="M57.1929,372.012v -330.677" fill="none" stroke="black"/>
<path d="M57.1929,372.012h 453.543" fill="none" stroke="black"/>
<path d="M97.8697,362.091v 9.92031" fill="none" stroke="black"/>
<path d="M108.987,367.052v 4.96016" fill="none" stroke="black"/>
<path d="M120.104,367.052v 4.96016" fill="none" stroke="black"/>
<path d="M131.222,367.052v 4.96016" fill="none" stroke="black"/>
<path d="M142.339,362.091v 9.92031" fill="none" stroke="black"/>
<path d="M153.457,367.052v 4.96016" fill="none" stroke="black"/>
<path d="M164.574,367.052v 4.96016" fill="none" stroke="black"/>
<path d="M175.691,367.052v 4.96016" fill="none" stroke="black"/>
<path d="M186.809,362.091v 9.92031" fill="none" stroke="black"/>
<path d="M197.926,367.052v 4.96016" fill="none" stroke="black"/>
<path d="M209.043,367.052v 4.96016" fill="none" stroke="black"/>
<path d="M220.161,367.052v 4.96016" fill="none" stroke="black"/>
<path d="M231.278,362.091v 9.92031" fill="none" stroke="black"/>
<path d="M242.395,367.052v 4.96016" fill="none" stroke="black"/>
<path d="M253.513,367.052v 4.96016" fill="none" stroke="black"/>
<path d="M264.63,367.052v 4.96016" fill="none" stroke="black"/>
<path d="M275.748,362.091v 9.92031" fill="none" stroke="black"/>
<path d="M286.865,367.052v 4.96016" fill="none" stroke="black"/>
<path d="M297.982,367.052v 4.96016" fill="none" stroke="black"/>
<path d="M309.1,367.052v 4.96016" fill="none" stroke="black"/>
<path d="M320.217,362.091v 9.92031" fill="none" stroke="black"/>
<path d="M331.334,367.052v 4.96016" fill="none" stroke="black"/>
<path d="M342.452,367.052v 4.96016" fill="none" stroke="black"/>
<path d="M353.569,367.052v 4.96016" fill="none" stroke="black"/>
<path d="M364.687,362.091v 9.92031" fill="none" stroke="black"/>
<path d="M375.804,367.052v 4.96016" fill="none" stroke="black"/>
<path d="M386.921,367.052v 4.96016" fill="none" stroke="black"/>
<path d="M398.039,367.052v 4.96016" fill="none" stroke="black"/>
<path d="M409.156,362.091v 9.92031" fill="none" stroke="black"/>
<path d="M420.273,367.052v 4.96016" fill="none" stroke="black"/>
<path d="M431.391,367.052v 4.96016" fill="none" stroke="black"/>
<path d="M442.508,367.052v 4.96016" fill="none" stroke="black"/>
<path d="M453.625,362.091v 9.92031" fill="none" stroke="black"/>
<path d="M464.743,367.052v 4.96016" fill="none" stroke="black"/>
<path d="M475.86,367.052v 4.96016" fill="none" stroke="black"/>
<path d="M486.978,367.052v 4.96016" fill="none" stroke="black"/>
<path d="M498.095,362.091v 9.92031" fill="none" stroke="black"/>
<path d="M97.8697,362.091v 9.92031" fill="none" stroke="black"/>
<path d="M86.7523,367.052v 4.96016" fill="none" stroke="black"/>
<path d="M75.6349,367.052v 4.96016" fill="none" stroke="black"/>
<path d="M64.5176,367.052v 4.96016" fill="none" stroke="black"/>
<path d="M498.095,362.091v 9.92031" fill="none" stroke="black"/>
<path d="M509.212,367.052v 4.96016" fill="none" stroke="black"/>
<text xml:space="preserve" x="81.0836" y="385.379" fill="black" font-size="13.7726" font-family="Helvetica">0.896</text>
<text xml:space="preserve" x="125.642" y="385.379" fill="black" font-size="13.7726" font-family="Helvetica">0.898</text>
<text xml:space="preserve" x="177.784" y="385.379" fill="black" font-size="13.7726" font-family="Helvetica">0.9</text>
<text xml:space="preserve" x="214.283" y="385.379" fill="black" font-size="13.7726" font-family="Helvetica">0.902</text>
<text xml:space="preserve" x="258.841" y="385.379" fill="black" font-size="13.7726" font-family="Helvetica">0.904</text>
<text xml:space="preserve" x="303.399" y="385.379" fill="black" font-size="13.7726" font-family="Helvetica">0.906</text>
<text xml:space="preserve" x="347.957" y="385.379" fill="black" font-size="13.7726" font-family="Helvetica">0.908</text>
<text xml:space="preserve" x="397.256" y="385.379" fill="black" font-size="13.7726" font-family="Helvetica">0.91</text>
<text xml:space="preserve" x="436.599" y="385.379" fill="black" font-size="13.7726" font-family="Helvetica">0.912</text>
<text xml:space="preserve" x="481.157" y="385.379" fill="black" font-size="13.7726" font-family="Helvetica">0.914</text>
<text xml:space="preserve" x="413.372" y="400.074" fill="black" font-size="13.7726" font-family="Helvetica">calibration factor</text>
<path d="M57.1929,372.012v -330.677" fill="none" stroke="black"/>
<path d="M70.7992,339.835h -13.6063" fill="none" stroke="black"/>
<path d="M63.9961,333.221h -6.80315" fill="none" stroke="black"/>
<path d="M63.9961,326.608h -6.80315" fill="none" stroke="black"/>
<path d="M63.9961,319.994h -6.80315" fill="none" stroke="black"/>
<path d="M63.9961,313.381h -6.80315" fill="none" stroke="black"/>
<path d="M70.7992,306.767h -13.6063" fill="none" stroke="black"/>
<path d="M63.9961,300.154h -6.80315" fill="none" stroke="black"/>
<path d="M63.9961,293.54h -6.80315" fill="none" stroke="black"/>
<path d="M63.9961,286.927h -6.80315" fill="none" stroke="black"/>
<path d="M63.9961,280.313h -6.80315" fill="none" stroke="black"/>
<path d="M70.7992,273.699h -13.6063" fill="none" stroke="black"/>
<path d="M63.9961,267.086h -6.80315" fill="none" stroke="black"/>
<path d="M63.9961,260.472h -6.80315" fill="none" stroke="black"/>
<path d="M63.9961,253.859h -6.80315" fill="none" stroke="black"/>
<path d="M63.9961,247.245h -6.80315" fill="none" stroke="black"/>
<path d="M70.7992,240.632h -13.6063" fill="none" stroke="black"/>
<path d="M63.9961,234.018h -6.80315" fill="none" stroke="black"/>
<path d="M63.9961,227.405h -6.80315" fill="none" stroke="black"/>
<path d="M63.9961,220.791h -6.80315" fill="none" stroke="black"/>
<path d="M63.9961,214.178h -6.80315" fill="none" stroke="black"/>
<path d="M70.7992,207.564h -13.6063" fill="none" stroke="black"/>
<path d="M63.9961,200.951h -6.80315" fill="none" stroke="black"/>
<path d="M63.9961,194.337h -6.80315" fill="none" stroke="black"/>
<path d="M63.9961,187.723h -6.80315" fill="none" stroke="black"/>
<path d="M63.9961,181.11h -6.80315" fill="none" stroke="black"/>
<path d="M70.7992,174.496h -13.6063" fill="none" stroke="black"/>
<path d="M63.9961,167.883h -6.80315" fill="none" stroke="black"/>
<path d="M63.9961,161.269h -6.80315" fill="none" stroke="black"/>
<path d="M63.9961,154.656h -6.80315" fill="none" stroke="black"/>
<path d="M63.9961,148.042h -6.80315" fill="none" stroke="black"/>
<path d="M70.7992,141.429h -13.6063" fill="none" stroke="black"/>
<path d="M63.9961,134.815h -6.80315" fill="none" stroke="black"/>
<path d="M63.9961,128.202h -6.80315" fill="none" stroke="black"/>
<path d="M63.9961,121.588h -6.80315" fill="none" stroke="black"/>
<path d="M63.9961,114.974h -6.80315" fill="none" stroke="black"/>
<path d="M70.7992,108.361h -13.6063" fill="none" stroke="black"/>
<path d="M63.9961,101.747h -6.80315" fill="none" stroke="black"/>
<path d="M63.9961,95.1339h -6.80315" fill="none" stroke="black"/>
<path d="M63.9961,88.5203h -6.80315" fill="none" stroke="black"/>
<path d="M63.9961,81.9068h -6.80315" fill="none" stroke="black"/>
<path d="M70.7992,75.2932h -13.6063" fill="none" stroke="black"/>
<path d="M63.9961,68.6797h -6.80315" fill="none" stroke="black"/>
<path d="M63.9961,62.0662h -6.80315" fill="none" stroke="black"/>
<path d="M63.9961,55.4526h -6.80315" fill="none" stroke="black"/>
<path d="M63.9961,48.8391h -6.80315" fill="none" stroke="black"/>
<path d="M70.7992,42.2255h -13.6063" fill="none" stroke="black"/>
<path d="M70.7992,339.835h -13.6063" fill="none" stroke="black"/>
<path d="M63.9961,346.448h -6.80315" fill="none" stroke="black"/>
<path d="M63.9961,353.062h -6.80315" fill="none" stroke="black"/>
<path d="M63.9961,359.676h -6.80315" fill="none" stroke="black"/>
<path d="M63.9961,366.289h -6.80315" fill="none" stroke="black"/>
<path d="M70.7992,42.2255h -13.6063" fill="none" stroke="black"/>
<text xml:space="preserve" x="32.2594" y="344.139" fill="black" font-size="13.7726" font-family="Helvetica">118</text>
<text xml:space="preserve" x="32.2594" y="311.432" fill="black" font-size="13.7726" font-family="Helvetica">119</text>
<text xml:space="preserve" x="32.2594" y="278.25" fill="black" font-size="13.7726" font-family="Helvetica">120</text>
<text xml:space="preserve" x="34.6295" y="245.543" fill="black" font-size="13.7726" font-family="Helvetica">121</text>
<text xml:space="preserve" x="32.2594" y="212.361" fill="black" font-size="13.7726" font-family="Helvetica">122</text>
<text xml:space="preserve" x="32.2594" y="179.18" fill="black" font-size="13.7726" font-family="Helvetica">123</text>
<text xml:space="preserve" x="32.2594" y="146.472" fill="black" font-size="13.7726" font-family="Helvetica">124</text>
<text xml:space="preserve" x="32.2594" y="112.817" fill="black" font-size="13.7726" font-family="Helvetica">125</text>
<text xml:space="preserve" x="32.2594" y="79.6355" fill="black" font-size="13.7726" font-family="Helvetica">126</text>
<text xml:space="preserve" x="32.2594" y="47.4021" fill="black" font-size="13.7726" font-family="Helvetica">127</text>
<g transform="rotate(-90,15.1947,45.98)">
<text xml:space="preserve" x="15.1947" y="45.98" fill="black" font-size="9.34839" font-family="Helvetica">2</text>
</g>
<g transform="rotate(-90,19.4608,50.2462)">
<text xml:space="preserve" x="19.4608" y="50.2462" fill="black" font-size="13.7726" font-family="Helvetica"> </text>
</g>
<g transform="rotate(-90,19.4608,57.3565)">
<text xml:space="preserve" x="19.4608" y="57.3565" fill="black" font-size="13.7726" font-family="Times">&#0967;</text>
</g>
<text xml:space="preserve" x="107.155" y="18.0128" fill="black" font-size="14.3335" font-family="Helvetica">^2 v.s. calibration factorwithout 1st binand without last bin</text>
<text xml:space="preserve" x="99.5704" y="18.0128" fill="black" font-size="14.3335" font-family="Times">&#0967;</text>
<g stroke="black" stroke-width="1" fill="none">
<line x1="55.9511" y1="42.0303" x2="59.7432" y2="42.0303"/><line x1="57.8472" y1="40.1342" x2="57.8472" y2="43.9263"/><line x1="55.9511" y1="40.1342" x2="59.7432" y2="43.9263"/><line x1="55.9511" y1="43.9263" x2="59.7432" y2="40.1342"/>
</g>
<g stroke="black" stroke-width="1" fill="none">
<line x1="73.7389" y1="53.6811" x2="77.531" y2="53.6811"/><line x1="75.6349" y1="51.785" x2="75.6349" y2="55.5772"/><line x1="73.7389" y1="51.785" x2="77.531" y2="55.5772"/><line x1="73.7389" y1="55.5772" x2="77.531" y2="51.785"/>
<line x1="78.1858" y1="54.9898" x2="81.978" y2="54.9898"/><line x1="80.0819" y1="53.0938" x2="80.0819" y2="56.8859"/><line x1="78.1858" y1="53.0938" x2="81.978" y2="56.8859"/><line x1="78.1858" y1="56.8859" x2="81.978" y2="53.0938"/>
<line x1="82.6328" y1="65.7748" x2="86.4249" y2="65.7748"/><line x1="84.5288" y1="63.8788" x2="84.5288" y2="67.6709"/><line x1="82.6328" y1="63.8788" x2="86.4249" y2="67.6709"/><line x1="82.6328" y1="67.6709" x2="86.4249" y2="63.8788"/>
<line x1="87.0797" y1="87.1733" x2="90.8719" y2="87.1733"/><line x1="88.9758" y1="85.2772" x2="88.9758" y2="89.0693"/><line x1="87.0797" y1="85.2772" x2="90.8719" y2="89.0693"/><line x1="87.0797" y1="89.0693" x2="90.8719" y2="85.2772"/>
<line x1="91.5266" y1="68.5317" x2="95.3188" y2="68.5317"/><line x1="93.4227" y1="66.6356" x2="93.4227" y2="70.4278"/><line x1="91.5266" y1="66.6356" x2="95.3188" y2="70.4278"/><line x1="91.5266" y1="70.4278" x2="95.3188" y2="66.6356"/>
<line x1="95.9736" y1="72.0363" x2="99.7658" y2="72.0363"/><line x1="97.8697" y1="70.1402" x2="97.8697" y2="73.9324"/><line x1="95.9736" y1="70.1402" x2="99.7658" y2="73.9324"/><line x1="95.9736" y1="73.9324" x2="99.7658" y2="70.1402"/>
<line x1="100.421" y1="52.4296" x2="104.213" y2="52.4296"/><line x1="102.317" y1="50.5335" x2="102.317" y2="54.3257"/><line x1="100.421" y1="50.5335" x2="104.213" y2="54.3257"/><line x1="100.421" y1="54.3257" x2="104.213" y2="50.5335"/>
<line x1="104.867" y1="65.6674" x2="108.66" y2="65.6674"/><line x1="106.764" y1="63.7713" x2="106.764" y2="67.5635"/><line x1="104.867" y1="63.7713" x2="108.66" y2="67.5635"/><line x1="104.867" y1="67.5635" x2="108.66" y2="63.7713"/>
<line x1="109.314" y1="73.3598" x2="113.107" y2="73.3598"/><line x1="111.211" y1="71.4637" x2="111.211" y2="75.2559"/><line x1="109.314" y1="71.4637" x2="113.107" y2="75.2559"/><line x1="109.314" y1="75.2559" x2="113.107" y2="71.4637"/>
<line x1="113.761" y1="107.375" x2="117.554" y2="107.375"/><line x1="115.657" y1="105.479" x2="115.657" y2="109.271"/><line x1="113.761" y1="105.479" x2="117.554" y2="109.271"/><line x1="113.761" y1="109.271" x2="117.554" y2="105.479"/>
<line x1="118.208" y1="100.898" x2="122.001" y2="100.898"/><line x1="120.104" y1="99.0021" x2="120.104" y2="102.794"/><line x1="118.208" y1="99.0021" x2="122.001" y2="102.794"/><line x1="118.208" y1="102.794" x2="122.001" y2="99.0021"/>
<line x1="122.655" y1="94.5603" x2="126.447" y2="94.5603"/><line x1="124.551" y1="92.6642" x2="124.551" y2="96.4564"/><line x1="122.655" y1="92.6642" x2="126.447" y2="96.4564"/><line x1="122.655" y1="96.4564" x2="126.447" y2="92.6642"/>
<line x1="127.102" y1="61.4296" x2="130.894" y2="61.4296"/><line x1="128.998" y1="59.5335" x2="128.998" y2="63.3257"/><line x1="127.102" y1="59.5335" x2="130.894" y2="63.3257"/><line x1="127.102" y1="63.3257" x2="130.894" y2="59.5335"/>
<line x1="131.549" y1="63.7522" x2="135.341" y2="63.7522"/><line x1="133.445" y1="61.8562" x2="133.445" y2="65.6483"/><line x1="131.549" y1="61.8562" x2="135.341" y2="65.6483"/><line x1="131.549" y1="65.6483" x2="135.341" y2="61.8562"/>
<line x1="135.996" y1="59.7071" x2="139.788" y2="59.7071"/><line x1="137.892" y1="57.811" x2="137.892" y2="61.6031"/><line x1="135.996" y1="57.811" x2="139.788" y2="61.6031"/><line x1="135.996" y1="61.6031" x2="139.788" y2="57.811"/>
<line x1="140.443" y1="62.1434" x2="144.235" y2="62.1434"/><line x1="142.339" y1="60.2473" x2="142.339" y2="64.0395"/><line x1="140.443" y1="60.2473" x2="144.235" y2="64.0395"/><line x1="140.443" y1="64.0395" x2="144.235" y2="60.2473"/>
<line x1="144.89" y1="98.8346" x2="148.682" y2="98.8346"/><line x1="146.786" y1="96.9385" x2="146.786" y2="100.731"/><line x1="144.89" y1="96.9385" x2="148.682" y2="100.731"/><line x1="144.89" y1="100.731" x2="148.682" y2="96.9385"/>
<line x1="149.337" y1="93.7526" x2="153.129" y2="93.7526"/><line x1="151.233" y1="91.8566" x2="151.233" y2="95.6487"/><line x1="149.337" y1="91.8566" x2="153.129" y2="95.6487"/><line x1="149.337" y1="95.6487" x2="153.129" y2="91.8566"/>
<line x1="153.784" y1="100.509" x2="157.576" y2="100.509"/><line x1="155.68" y1="98.6128" x2="155.68" y2="102.405"/><line x1="153.784" y1="98.6128" x2="157.576" y2="102.405"/><line x1="153.784" y1="102.405" x2="157.576" y2="98.6128"/>
<line x1="158.231" y1="107.452" x2="162.023" y2="107.452"/><line x1="160.127" y1="105.556" x2="160.127" y2="109.348"/><line x1="158.231" y1="105.556" x2="162.023" y2="109.348"/><line x1="158.231" y1="109.348" x2="162.023" y2="105.556"/>
<line x1="162.678" y1="131.045" x2="166.47" y2="131.045"/><line x1="164.574" y1="129.149" x2="164.574" y2="132.941"/><line x1="162.678" y1="129.149" x2="166.47" y2="132.941"/><line x1="162.678" y1="132.941" x2="166.47" y2="129.149"/>
<line x1="167.125" y1="144.831" x2="170.917" y2="144.831"/><line x1="169.021" y1="142.935" x2="169.021" y2="146.727"/><line x1="167.125" y1="142.935" x2="170.917" y2="146.727"/><line x1="167.125" y1="146.727" x2="170.917" y2="142.935"/>
<line x1="171.572" y1="136.928" x2="175.364" y2="136.928"/><line x1="173.468" y1="135.032" x2="173.468" y2="138.824"/><line x1="171.572" y1="135.032" x2="175.364" y2="138.824"/><line x1="171.572" y1="138.824" x2="175.364" y2="135.032"/>
<line x1="176.019" y1="134.27" x2="179.811" y2="134.27"/><line x1="177.915" y1="132.374" x2="177.915" y2="136.167"/><line x1="176.019" y1="132.374" x2="179.811" y2="136.167"/><line x1="176.019" y1="136.167" x2="179.811" y2="132.374"/>
<line x1="180.466" y1="141.673" x2="184.258" y2="141.673"/><line x1="182.362" y1="139.776" x2="182.362" y2="143.569"/><line x1="180.466" y1="139.776" x2="184.258" y2="143.569"/><line x1="180.466" y1="143.569" x2="184.258" y2="139.776"/>
<line x1="184.913" y1="150.286" x2="188.705" y2="150.286"/><line x1="186.809" y1="148.39" x2="186.809" y2="152.182"/><line x1="184.913" y1="148.39" x2="188.705" y2="152.182"/><line x1="184.913" y1="152.182" x2="188.705" y2="148.39"/>
<line x1="189.359" y1="170.64" x2="193.152" y2="170.64"/><line x1="191.256" y1="168.744" x2="191.256" y2="172.536"/><line x1="189.359" y1="168.744" x2="193.152" y2="172.536"/><line x1="189.359" y1="172.536" x2="193.152" y2="168.744"/>
<line x1="193.806" y1="155.304" x2="197.599" y2="155.304"/><line x1="195.703" y1="153.407" x2="195.703" y2="157.2"/><line x1="193.806" y1="153.407" x2="197.599" y2="157.2"/><line x1="193.806" y1="157.2" x2="197.599" y2="153.407"/>
<line x1="198.253" y1="164.79" x2="202.046" y2="164.79"/><line x1="200.149" y1="162.894" x2="200.149" y2="166.686"/><line x1="198.253" y1="162.894" x2="202.046" y2="166.686"/><line x1="198.253" y1="166.686" x2="202.046" y2="162.894"/>
<line x1="202.7" y1="184.35" x2="206.493" y2="184.35"/><line x1="204.596" y1="182.454" x2="204.596" y2="186.247"/><line x1="202.7" y1="182.454" x2="206.493" y2="186.247"/><line x1="202.7" y1="186.247" x2="206.493" y2="182.454"/>
<line x1="207.147" y1="171.129" x2="210.939" y2="171.129"/><line x1="209.043" y1="169.233" x2="209.043" y2="173.025"/><line x1="207.147" y1="169.233" x2="210.939" y2="173.025"/><line x1="207.147" y1="173.025" x2="210.939" y2="169.233"/>
<line x1="211.594" y1="152.058" x2="215.386" y2="152.058"/><line x1="213.49" y1="150.162" x2="213.49" y2="153.954"/><line x1="211.594" y1="150.162" x2="215.386" y2="153.954"/><line x1="211.594" y1="153.954" x2="215.386" y2="150.162"/>
<line x1="216.041" y1="153.745" x2="219.833" y2="153.745"/><line x1="217.937" y1="151.848" x2="217.937" y2="155.641"/><line x1="216.041" y1="151.848" x2="219.833" y2="155.641"/><line x1="216.041" y1="155.641" x2="219.833" y2="151.848"/>
<line x1="220.488" y1="173.566" x2="224.28" y2="173.566"/><line x1="222.384" y1="171.67" x2="222.384" y2="175.462"/><line x1="220.488" y1="171.67" x2="224.28" y2="175.462"/><line x1="220.488" y1="175.462" x2="224.28" y2="171.67"/>
<line x1="224.935" y1="210.07" x2="228.727" y2="210.07"/><line x1="226.831" y1="208.174" x2="226.831" y2="211.966"/><line x1="224.935" y1="208.174" x2="228.727" y2="211.966"/><line x1="224.935" y1="211.966" x2="228.727" y2="208.174"/>
<line x1="229.382" y1="212.458" x2="233.174" y2="212.458"/><line x1="231.278" y1="210.562" x2="231.278" y2="214.354"/><line x1="229.382" y1="210.562" x2="233.174" y2="214.354"/><line x1="229.382" y1="214.354" x2="233.174" y2="210.562"/>
<line x1="233.829" y1="217.144" x2="237.621" y2="217.144"/><line x1="235.725" y1="215.248" x2="235.725" y2="219.04"/><line x1="233.829" y1="215.248" x2="237.621" y2="219.04"/><line x1="233.829" y1="219.04" x2="237.621" y2="215.248"/>
<line x1="238.276" y1="227.333" x2="242.068" y2="227.333"/><line x1="240.172" y1="225.437" x2="240.172" y2="229.229"/><line x1="238.276" y1="225.437" x2="242.068" y2="229.229"/><line x1="238.276" y1="229.229" x2="242.068" y2="225.437"/>
<line x1="242.723" y1="252.003" x2="246.515" y2="252.003"/><line x1="244.619" y1="250.107" x2="244.619" y2="253.899"/><line x1="242.723" y1="250.107" x2="246.515" y2="253.899"/><line x1="242.723" y1="253.899" x2="246.515" y2="250.107"/>
<line x1="247.17" y1="253.148" x2="250.962" y2="253.148"/><line x1="249.066" y1="251.252" x2="249.066" y2="255.044"/><line x1="247.17" y1="251.252" x2="250.962" y2="255.044"/><line x1="247.17" y1="255.044" x2="250.962" y2="251.252"/>
<line x1="251.617" y1="235.883" x2="255.409" y2="235.883"/><line x1="253.513" y1="233.987" x2="253.513" y2="237.779"/><line x1="251.617" y1="233.987" x2="255.409" y2="237.779"/><line x1="251.617" y1="237.779" x2="255.409" y2="233.987"/>
<line x1="256.064" y1="234.329" x2="259.856" y2="234.329"/><line x1="257.96" y1="232.433" x2="257.96" y2="236.225"/><line x1="256.064" y1="232.433" x2="259.856" y2="236.225"/><line x1="256.064" y1="236.225" x2="259.856" y2="232.433"/>
<line x1="260.511" y1="237.816" x2="264.303" y2="237.816"/><line x1="262.407" y1="235.92" x2="262.407" y2="239.712"/><line x1="260.511" y1="235.92" x2="264.303" y2="239.712"/><line x1="260.511" y1="239.712" x2="264.303" y2="235.92"/>
<line x1="264.958" y1="232.248" x2="268.75" y2="232.248"/><line x1="266.854" y1="230.352" x2="266.854" y2="234.144"/><line x1="264.958" y1="230.352" x2="268.75" y2="234.144"/><line x1="264.958" y1="234.144" x2="268.75" y2="230.352"/>
<line x1="269.405" y1="236.933" x2="273.197" y2="236.933"/><line x1="271.301" y1="235.037" x2="271.301" y2="238.829"/><line x1="269.405" y1="235.037" x2="273.197" y2="238.829"/><line x1="269.405" y1="238.829" x2="273.197" y2="235.037"/>
<line x1="273.852" y1="258.354" x2="277.644" y2="258.354"/><line x1="275.748" y1="256.458" x2="275.748" y2="260.25"/><line x1="273.852" y1="256.458" x2="277.644" y2="260.25"/><line x1="273.852" y1="260.25" x2="277.644" y2="256.458"/>
<line x1="278.298" y1="274.549" x2="282.091" y2="274.549"/><line x1="280.195" y1="272.653" x2="280.195" y2="276.445"/><line x1="278.298" y1="272.653" x2="282.091" y2="276.445"/><line x1="278.298" y1="276.445" x2="282.091" y2="272.653"/>
<line x1="282.745" y1="305.876" x2="286.538" y2="305.876"/><line x1="284.641" y1="303.98" x2="284.641" y2="307.772"/><line x1="282.745" y1="303.98" x2="286.538" y2="307.772"/><line x1="282.745" y1="307.772" x2="286.538" y2="303.98"/>
<line x1="287.192" y1="294.752" x2="290.985" y2="294.752"/><line x1="289.088" y1="292.856" x2="289.088" y2="296.648"/><line x1="287.192" y1="292.856" x2="290.985" y2="296.648"/><line x1="287.192" y1="296.648" x2="290.985" y2="292.856"/>
<line x1="291.639" y1="273.224" x2="295.431" y2="273.224"/><line x1="293.535" y1="271.328" x2="293.535" y2="275.12"/><line x1="291.639" y1="271.328" x2="295.431" y2="275.12"/><line x1="291.639" y1="275.12" x2="295.431" y2="271.328"/>
<line x1="296.086" y1="254.254" x2="299.878" y2="254.254"/><line x1="297.982" y1="252.358" x2="297.982" y2="256.15"/><line x1="296.086" y1="252.358" x2="299.878" y2="256.15"/><line x1="296.086" y1="256.15" x2="299.878" y2="252.358"/>
<line x1="300.533" y1="243.12" x2="304.325" y2="243.12"/><line x1="302.429" y1="241.224" x2="302.429" y2="245.016"/><line x1="300.533" y1="241.224" x2="304.325" y2="245.016"/><line x1="300.533" y1="245.016" x2="304.325" y2="241.224"/>
<line x1="304.98" y1="233.392" x2="308.772" y2="233.392"/><line x1="306.876" y1="231.496" x2="306.876" y2="235.288"/><line x1="304.98" y1="231.496" x2="308.772" y2="235.288"/><line x1="304.98" y1="235.288" x2="308.772" y2="231.496"/>
<line x1="309.427" y1="206.549" x2="313.219" y2="206.549"/><line x1="311.323" y1="204.653" x2="311.323" y2="208.445"/><line x1="309.427" y1="204.653" x2="313.219" y2="208.445"/><line x1="309.427" y1="208.445" x2="313.219" y2="204.653"/>
<line x1="313.874" y1="230.568" x2="317.666" y2="230.568"/><line x1="315.77" y1="228.672" x2="315.77" y2="232.464"/><line x1="313.874" y1="228.672" x2="317.666" y2="232.464"/><line x1="313.874" y1="232.464" x2="317.666" y2="228.672"/>
<line x1="318.321" y1="213.807" x2="322.113" y2="213.807"/><line x1="320.217" y1="211.911" x2="320.217" y2="215.703"/><line x1="318.321" y1="211.911" x2="322.113" y2="215.703"/><line x1="318.321" y1="215.703" x2="322.113" y2="211.911"/>
<line x1="322.768" y1="220.688" x2="326.56" y2="220.688"/><line x1="324.664" y1="218.792" x2="324.664" y2="222.585"/><line x1="322.768" y1="218.792" x2="326.56" y2="222.585"/><line x1="322.768" y1="222.585" x2="326.56" y2="218.792"/>
<line x1="327.215" y1="212.5" x2="331.007" y2="212.5"/><line x1="329.111" y1="210.604" x2="329.111" y2="214.396"/><line x1="327.215" y1="210.604" x2="331.007" y2="214.396"/><line x1="327.215" y1="214.396" x2="331.007" y2="210.604"/>
<line x1="331.662" y1="211.396" x2="335.454" y2="211.396"/><line x1="333.558" y1="209.5" x2="333.558" y2="213.293"/><line x1="331.662" y1="209.5" x2="335.454" y2="213.293"/><line x1="331.662" y1="213.293" x2="335.454" y2="209.5"/>
<line x1="336.109" y1="223.427" x2="339.901" y2="223.427"/><line x1="338.005" y1="221.531" x2="338.005" y2="225.323"/><line x1="336.109" y1="221.531" x2="339.901" y2="225.323"/><line x1="336.109" y1="225.323" x2="339.901" y2="221.531"/>
<line x1="340.556" y1="206.7" x2="344.348" y2="206.7"/><line x1="342.452" y1="204.804" x2="342.452" y2="208.596"/><line x1="340.556" y1="204.804" x2="344.348" y2="208.596"/><line x1="340.556" y1="208.596" x2="344.348" y2="204.804"/>
<line x1="345.003" y1="169.413" x2="348.795" y2="169.413"/><line x1="346.899" y1="167.517" x2="346.899" y2="171.309"/><line x1="345.003" y1="167.517" x2="348.795" y2="171.309"/><line x1="345.003" y1="171.309" x2="348.795" y2="167.517"/>
<line x1="349.45" y1="202.319" x2="353.242" y2="202.319"/><line x1="351.346" y1="200.423" x2="351.346" y2="204.215"/><line x1="349.45" y1="200.423" x2="353.242" y2="204.215"/><line x1="349.45" y1="204.215" x2="353.242" y2="200.423"/>
<line x1="353.897" y1="212.161" x2="357.689" y2="212.161"/><line x1="355.793" y1="210.265" x2="355.793" y2="214.058"/><line x1="353.897" y1="210.265" x2="357.689" y2="214.058"/><line x1="353.897" y1="214.058" x2="357.689" y2="210.265"/>
<line x1="358.344" y1="212.325" x2="362.136" y2="212.325"/><line x1="360.24" y1="210.429" x2="360.24" y2="214.221"/><line x1="358.344" y1="210.429" x2="362.136" y2="214.221"/><line x1="358.344" y1="214.221" x2="362.136" y2="210.429"/>
<line x1="362.79" y1="232.955" x2="366.583" y2="232.955"/><line x1="364.687" y1="231.059" x2="364.687" y2="234.851"/><line x1="362.79" y1="231.059" x2="366.583" y2="234.851"/><line x1="362.79" y1="234.851" x2="366.583" y2="231.059"/>
<line x1="367.237" y1="239.771" x2="371.03" y2="239.771"/><line x1="369.133" y1="237.874" x2="369.133" y2="241.667"/><line x1="367.237" y1="237.874" x2="371.03" y2="241.667"/><line x1="367.237" y1="241.667" x2="371.03" y2="237.874"/>
<line x1="371.684" y1="245.45" x2="375.477" y2="245.45"/><line x1="373.58" y1="243.554" x2="373.58" y2="247.346"/><line x1="371.684" y1="243.554" x2="375.477" y2="247.346"/><line x1="371.684" y1="247.346" x2="375.477" y2="243.554"/>
<line x1="376.131" y1="253.644" x2="379.923" y2="253.644"/><line x1="378.027" y1="251.748" x2="378.027" y2="255.54"/><line x1="376.131" y1="251.748" x2="379.923" y2="255.54"/><line x1="376.131" y1="255.54" x2="379.923" y2="251.748"/>
<line x1="380.578" y1="277.908" x2="384.37" y2="277.908"/><line x1="382.474" y1="276.012" x2="382.474" y2="279.804"/><line x1="380.578" y1="276.012" x2="384.37" y2="279.804"/><line x1="380.578" y1="279.804" x2="384.37" y2="276.012"/>
<line x1="385.025" y1="271.616" x2="388.817" y2="271.616"/><line x1="386.921" y1="269.72" x2="386.921" y2="273.512"/><line x1="385.025" y1="269.72" x2="388.817" y2="273.512"/><line x1="385.025" y1="273.512" x2="388.817" y2="269.72"/>
<line x1="389.472" y1="270.953" x2="393.264" y2="270.953"/><line x1="391.368" y1="269.057" x2="391.368" y2="272.849"/><line x1="389.472" y1="269.057" x2="393.264" y2="272.849"/><line x1="389.472" y1="272.849" x2="393.264" y2="269.057"/>
<line x1="393.919" y1="273.349" x2="397.711" y2="273.349"/><line x1="395.815" y1="271.453" x2="395.815" y2="275.246"/><line x1="393.919" y1="271.453" x2="397.711" y2="275.246"/><line x1="393.919" y1="275.246" x2="397.711" y2="271.453"/>
<line x1="398.366" y1="270.327" x2="402.158" y2="270.327"/><line x1="400.262" y1="268.431" x2="400.262" y2="272.223"/><line x1="398.366" y1="268.431" x2="402.158" y2="272.223"/><line x1="398.366" y1="272.223" x2="402.158" y2="268.431"/>
<line x1="402.813" y1="272.391" x2="406.605" y2="272.391"/><line x1="404.709" y1="270.494" x2="404.709" y2="274.287"/><line x1="402.813" y1="270.494" x2="406.605" y2="274.287"/><line x1="402.813" y1="274.287" x2="406.605" y2="270.494"/>
<line x1="407.26" y1="284.94" x2="411.052" y2="284.94"/><line x1="409.156" y1="283.044" x2="409.156" y2="286.836"/><line x1="407.26" y1="283.044" x2="411.052" y2="286.836"/><line x1="407.26" y1="286.836" x2="411.052" y2="283.044"/>
<line x1="411.707" y1="269.996" x2="415.499" y2="269.996"/><line x1="413.603" y1="268.1" x2="413.603" y2="271.892"/><line x1="411.707" y1="268.1" x2="415.499" y2="271.892"/><line x1="411.707" y1="271.892" x2="415.499" y2="268.1"/>
<line x1="416.154" y1="275.505" x2="419.946" y2="275.505"/><line x1="418.05" y1="273.609" x2="418.05" y2="277.401"/><line x1="416.154" y1="273.609" x2="419.946" y2="277.401"/><line x1="416.154" y1="277.401" x2="419.946" y2="273.609"/>
<line x1="420.601" y1="270.669" x2="424.393" y2="270.669"/><line x1="422.497" y1="268.773" x2="422.497" y2="272.565"/><line x1="420.601" y1="268.773" x2="424.393" y2="272.565"/><line x1="420.601" y1="272.565" x2="424.393" y2="268.773"/>
<line x1="425.048" y1="276.844" x2="428.84" y2="276.844"/><line x1="426.944" y1="274.948" x2="426.944" y2="278.74"/><line x1="425.048" y1="274.948" x2="428.84" y2="278.74"/><line x1="425.048" y1="278.74" x2="428.84" y2="274.948"/>
<line x1="429.495" y1="267.6" x2="433.287" y2="267.6"/><line x1="431.391" y1="265.704" x2="431.391" y2="269.496"/><line x1="429.495" y1="265.704" x2="433.287" y2="269.496"/><line x1="429.495" y1="269.496" x2="433.287" y2="265.704"/>
<line x1="433.942" y1="271.113" x2="437.734" y2="271.113"/><line x1="435.838" y1="269.217" x2="435.838" y2="273.009"/><line x1="433.942" y1="269.217" x2="437.734" y2="273.009"/><line x1="433.942" y1="273.009" x2="437.734" y2="269.217"/>
<line x1="438.389" y1="262.116" x2="442.181" y2="262.116"/><line x1="440.285" y1="260.22" x2="440.285" y2="264.012"/><line x1="438.389" y1="260.22" x2="442.181" y2="264.012"/><line x1="438.389" y1="264.012" x2="442.181" y2="260.22"/>
<line x1="442.836" y1="254.183" x2="446.628" y2="254.183"/><line x1="444.732" y1="252.287" x2="444.732" y2="256.079"/><line x1="442.836" y1="252.287" x2="446.628" y2="256.079"/><line x1="442.836" y1="256.079" x2="446.628" y2="252.287"/>
<line x1="447.282" y1="232.49" x2="451.075" y2="232.49"/><line x1="449.179" y1="230.594" x2="449.179" y2="234.386"/><line x1="447.282" y1="230.594" x2="451.075" y2="234.386"/><line x1="447.282" y1="234.386" x2="451.075" y2="230.594"/>
<line x1="451.729" y1="220.544" x2="455.522" y2="220.544"/><line x1="453.625" y1="218.648" x2="453.625" y2="222.441"/><line x1="451.729" y1="218.648" x2="455.522" y2="222.441"/><line x1="451.729" y1="222.441" x2="455.522" y2="218.648"/>
<line x1="456.176" y1="242.248" x2="459.969" y2="242.248"/><line x1="458.072" y1="240.352" x2="458.072" y2="244.144"/><line x1="456.176" y1="240.352" x2="459.969" y2="244.144"/><line x1="456.176" y1="244.144" x2="459.969" y2="240.352"/>
<line x1="460.623" y1="209.703" x2="464.415" y2="209.703"/><line x1="462.519" y1="207.807" x2="462.519" y2="211.599"/><line x1="460.623" y1="207.807" x2="464.415" y2="211.599"/><line x1="460.623" y1="211.599" x2="464.415" y2="207.807"/>
<line x1="465.07" y1="172.956" x2="468.862" y2="172.956"/><line x1="466.966" y1="171.06" x2="466.966" y2="174.852"/><line x1="465.07" y1="171.06" x2="468.862" y2="174.852"/><line x1="465.07" y1="174.852" x2="468.862" y2="171.06"/>
<line x1="469.517" y1="172.006" x2="473.309" y2="172.006"/><line x1="471.413" y1="170.11" x2="471.413" y2="173.902"/><line x1="469.517" y1="170.11" x2="473.309" y2="173.902"/><line x1="469.517" y1="173.902" x2="473.309" y2="170.11"/>
<line x1="473.964" y1="158.713" x2="477.756" y2="158.713"/><line x1="475.86" y1="156.816" x2="475.86" y2="160.609"/><line x1="473.964" y1="156.816" x2="477.756" y2="160.609"/><line x1="473.964" y1="160.609" x2="477.756" y2="156.816"/>
<line x1="478.411" y1="140.757" x2="482.203" y2="140.757"/><line x1="480.307" y1="138.86" x2="480.307" y2="142.653"/><line x1="478.411" y1="138.86" x2="482.203" y2="142.653"/><line x1="478.411" y1="142.653" x2="482.203" y2="138.86"/>
<line x1="482.858" y1="119.886" x2="486.65" y2="119.886"/><line x1="484.754" y1="117.99" x2="484.754" y2="121.782"/><line x1="482.858" y1="117.99" x2="486.65" y2="121.782"/><line x1="482.858" y1="121.782" x2="486.65" y2="117.99"/>
<line x1="487.305" y1="117.806" x2="491.097" y2="117.806"/><line x1="489.201" y1="115.91" x2="489.201" y2="119.703"/><line x1="487.305" y1="115.91" x2="491.097" y2="119.703"/><line x1="487.305" y1="119.703" x2="491.097" y2="115.91"/>
<line x1="491.752" y1="89.4994" x2="495.544" y2="89.4994"/><line x1="493.648" y1="87.6033" x2="493.648" y2="91.3955"/><line x1="491.752" y1="87.6033" x2="495.544" y2="91.3955"/><line x1="491.752" y1="91.3955" x2="495.544" y2="87.6033"/>
<line x1="496.199" y1="57.121" x2="499.991" y2="57.121"/><line x1="498.095" y1="55.2249" x2="498.095" y2="59.017"/><line x1="496.199" y1="55.2249" x2="499.991" y2="59.017"/><line x1="496.199" y1="59.017" x2="499.991" y2="55.2249"/>
<line x1="500.646" y1="54.1652" x2="504.438" y2="54.1652"/><line x1="502.542" y1="52.2691" x2="502.542" y2="56.0613"/><line x1="500.646" y1="52.2691" x2="504.438" y2="56.0613"/><line x1="500.646" y1="56.0613" x2="504.438" y2="52.2691"/>
<line x1="505.093" y1="60.9297" x2="508.885" y2="60.9297"/><line x1="506.989" y1="59.0336" x2="506.989" y2="62.8258"/><line x1="505.093" y1="59.0336" x2="508.885" y2="62.8258"/><line x1="505.093" y1="62.8258" x2="508.885" y2="59.0336"/>
</g>
<path d="M0.5,272.809h 566.929" fill="none" stroke="#0000ff"/>
<text xml:space="preserve" x="107.155" y="18.0128" fill="black" font-size="14.3335" font-family="Helvetica">^2 v.s. calibration factorwithout 1st binand without last bin</text>
<text xml:space="preserve" x="99.5704" y="18.0128" fill="black" font-size="14.3335" font-family="Times">&#0967;</text></svg>
