<?xml version="1.0" standalone="no"?>
<svg width="567.429" height="413.846" viewBox="0 0 567.429 413.846" xmlns="http://www.w3.org/2000/svg" shape-rendering="crispEdges">
<title>
figures/chi2zoomin_7PMTnpefilelist20.svg
</title>
<desc>
Creator: ROOT Version 6.18/04
CreationDate: Sun Nov  3 13:00:55 2019</desc>
<defs>
</defs>
<rect x="0.5" y="0" width="566.929" height="413.346" fill="white"/>
<rect x="57.1929" y="41.3346" width="453.543" height="330.677" fill="white"/>
<rect x="57.1929" y="41.3346" width="453.543" height="330.677" fill="none" stroke="black"/>
<path d="M57.1929,372.012h 453.543" fill="none" stroke="black"/>
<path d="M60.4102,41.3346v 330.677" fill="none" stroke="black" stroke-dasharray=" 1, 2"/>
<path d="M172.907,41.3346v 330.677" fill="none" stroke="black" stroke-dasharray=" 1, 2"/>
<path d="M285.405,41.3346v 330.677" fill="none" stroke="black" stroke-dasharray=" 1, 2"/>
<path d="M397.902,41.3346v 330.677" fill="none" stroke="black" stroke-dasharray=" 1, 2"/>
<path d="M510.399,41.3346v 330.677" fill="none" stroke="black" stroke-dasharray=" 1, 2"/>
<path d="M60.4102,41.3346v 330.677" fill="none" stroke="black" stroke-dasharray=" 1, 2"/>
<path d="M510.399,41.3346v 330.677" fill="none" stroke="black" stroke-dasharray=" 1, 2"/>
<path d="M57.1929,372.012v -330.677" fill="none" stroke="black"/>
<path d="M57.1929,372.012h 453.543" fill="none" stroke="black"/>
<path d="M60.4102,362.091v 9.92031" fill="none" stroke="black"/>
<path d="M82.9096,367.052v 4.96016" fill="none" stroke="black"/>
<path d="M105.409,367.052v 4.96016" fill="none" stroke="black"/>
<path d="M127.908,367.052v 4.96016" fill="none" stroke="black"/>
<path d="M150.408,367.052v 4.96016" fill="none" stroke="black"/>
<path d="M172.907,362.091v 9.92031" fill="none" stroke="black"/>
<path d="M195.407,367.052v 4.96016" fill="none" stroke="black"/>
<path d="M217.906,367.052v 4.96016" fill="none" stroke="black"/>
<path d="M240.406,367.052v 4.96016" fill="none" stroke="black"/>
<path d="M262.905,367.052v 4.96016" fill="none" stroke="black"/>
<path d="M285.405,362.091v 9.92031" fill="none" stroke="black"/>
<path d="M307.904,367.052v 4.96016" fill="none" stroke="black"/>
<path d="M330.403,367.052v 4.96016" fill="none" stroke="black"/>
<path d="M352.903,367.052v 4.96016" fill="none" stroke="black"/>
<path d="M375.402,367.052v 4.96016" fill="none" stroke="black"/>
<path d="M397.902,362.091v 9.92031" fill="none" stroke="black"/>
<path d="M420.401,367.052v 4.96016" fill="none" stroke="black"/>
<path d="M442.901,367.052v 4.96016" fill="none" stroke="black"/>
<path d="M465.4,367.052v 4.96016" fill="none" stroke="black"/>
<path d="M487.899,367.052v 4.96016" fill="none" stroke="black"/>
<path d="M510.399,362.091v 9.92031" fill="none" stroke="black"/>
<path d="M60.4102,362.091v 9.92031" fill="none" stroke="black"/>
<path d="M510.399,362.091v 9.92031" fill="none" stroke="black"/>
<text xml:space="preserve" x="47.4281" y="385.379" fill="black" font-size="13.7726" font-family="Helvetica">0.83</text>
<text xml:space="preserve" x="155.979" y="385.379" fill="black" font-size="13.7726" font-family="Helvetica">0.835</text>
<text xml:space="preserve" x="272.588" y="385.379" fill="black" font-size="13.7726" font-family="Helvetica">0.84</text>
<text xml:space="preserve" x="381.139" y="385.379" fill="black" font-size="13.7726" font-family="Helvetica">0.845</text>
<text xml:space="preserve" x="497.274" y="385.379" fill="black" font-size="13.7726" font-family="Helvetica">0.85</text>
<text xml:space="preserve" x="413.372" y="400.074" fill="black" font-size="13.7726" font-family="Helvetica">calibration factor</text>
<path d="M57.1929,372.012v -330.677" fill="none" stroke="black"/>
<path d="M70.7992,355.198h -13.6063" fill="none" stroke="black"/>
<path d="M63.9961,348.584h -6.80315" fill="none" stroke="black"/>
<path d="M63.9961,341.971h -6.80315" fill="none" stroke="black"/>
<path d="M63.9961,335.357h -6.80315" fill="none" stroke="black"/>
<path d="M63.9961,328.744h -6.80315" fill="none" stroke="black"/>
<path d="M70.7992,322.13h -13.6063" fill="none" stroke="black"/>
<path d="M63.9961,315.517h -6.80315" fill="none" stroke="black"/>
<path d="M63.9961,308.903h -6.80315" fill="none" stroke="black"/>
<path d="M63.9961,302.29h -6.80315" fill="none" stroke="black"/>
<path d="M63.9961,295.676h -6.80315" fill="none" stroke="black"/>
<path d="M70.7992,289.063h -13.6063" fill="none" stroke="black"/>
<path d="M63.9961,282.449h -6.80315" fill="none" stroke="black"/>
<path d="M63.9961,275.835h -6.80315" fill="none" stroke="black"/>
<path d="M63.9961,269.222h -6.80315" fill="none" stroke="black"/>
<path d="M63.9961,262.608h -6.80315" fill="none" stroke="black"/>
<path d="M70.7992,255.995h -13.6063" fill="none" stroke="black"/>
<path d="M63.9961,249.381h -6.80315" fill="none" stroke="black"/>
<path d="M63.9961,242.768h -6.80315" fill="none" stroke="black"/>
<path d="M63.9961,236.154h -6.80315" fill="none" stroke="black"/>
<path d="M63.9961,229.541h -6.80315" fill="none" stroke="black"/>
<path d="M70.7992,222.927h -13.6063" fill="none" stroke="black"/>
<path d="M63.9961,216.314h -6.80315" fill="none" stroke="black"/>
<path d="M63.9961,209.7h -6.80315" fill="none" stroke="black"/>
<path d="M63.9961,203.087h -6.80315" fill="none" stroke="black"/>
<path d="M63.9961,196.473h -6.80315" fill="none" stroke="black"/>
<path d="M70.7992,189.859h -13.6063" fill="none" stroke="black"/>
<path d="M63.9961,183.246h -6.80315" fill="none" stroke="black"/>
<path d="M63.9961,176.632h -6.80315" fill="none" stroke="black"/>
<path d="M63.9961,170.019h -6.80315" fill="none" stroke="black"/>
<path d="M63.9961,163.405h -6.80315" fill="none" stroke="black"/>
<path d="M70.7992,156.792h -13.6063" fill="none" stroke="black"/>
<path d="M63.9961,150.178h -6.80315" fill="none" stroke="black"/>
<path d="M63.9961,143.565h -6.80315" fill="none" stroke="black"/>
<path d="M63.9961,136.951h -6.80315" fill="none" stroke="black"/>
<path d="M63.9961,130.338h -6.80315" fill="none" stroke="black"/>
<path d="M70.7992,123.724h -13.6063" fill="none" stroke="black"/>
<path d="M63.9961,117.11h -6.80315" fill="none" stroke="black"/>
<path d="M63.9961,110.497h -6.80315" fill="none" stroke="black"/>
<path d="M63.9961,103.883h -6.80315" fill="none" stroke="black"/>
<path d="M63.9961,97.2698h -6.80315" fill="none" stroke="black"/>
<path d="M70.7992,90.6563h -13.6063" fill="none" stroke="black"/>
<path d="M63.9961,84.0428h -6.80315" fill="none" stroke="black"/>
<path d="M63.9961,77.4292h -6.80315" fill="none" stroke="black"/>
<path d="M63.9961,70.8157h -6.80315" fill="none" stroke="black"/>
<path d="M63.9961,64.2021h -6.80315" fill="none" stroke="black"/>
<path d="M70.7992,57.5886h -13.6063" fill="none" stroke="black"/>
<path d="M70.7992,355.198h -13.6063" fill="none" stroke="black"/>
<path d="M63.9961,361.811h -6.80315" fill="none" stroke="black"/>
<path d="M63.9961,368.425h -6.80315" fill="none" stroke="black"/>
<path d="M70.7992,57.5886h -13.6063" fill="none" stroke="black"/>
<path d="M63.9961,50.9751h -6.80315" fill="none" stroke="black"/>
<path d="M63.9961,44.3615h -6.80315" fill="none" stroke="black"/>
<text xml:space="preserve" x="32.2594" y="360.256" fill="black" font-size="13.7726" font-family="Helvetica">127</text>
<text xml:space="preserve" x="32.2594" y="326.6" fill="black" font-size="13.7726" font-family="Helvetica">128</text>
<text xml:space="preserve" x="32.2594" y="293.419" fill="black" font-size="13.7726" font-family="Helvetica">129</text>
<text xml:space="preserve" x="32.2594" y="260.712" fill="black" font-size="13.7726" font-family="Helvetica">130</text>
<text xml:space="preserve" x="34.6295" y="227.53" fill="black" font-size="13.7726" font-family="Helvetica">131</text>
<text xml:space="preserve" x="32.2594" y="194.349" fill="black" font-size="13.7726" font-family="Helvetica">132</text>
<text xml:space="preserve" x="32.2594" y="161.167" fill="black" font-size="13.7726" font-family="Helvetica">133</text>
<text xml:space="preserve" x="32.2594" y="128.46" fill="black" font-size="13.7726" font-family="Helvetica">134</text>
<text xml:space="preserve" x="32.2594" y="95.2782" fill="black" font-size="13.7726" font-family="Helvetica">135</text>
<text xml:space="preserve" x="32.2594" y="62.0968" fill="black" font-size="13.7726" font-family="Helvetica">136</text>
<g transform="rotate(-90,15.1947,45.98)">
<text xml:space="preserve" x="15.1947" y="45.98" fill="black" font-size="9.34839" font-family="Helvetica">2</text>
</g>
<g transform="rotate(-90,19.4608,50.2462)">
<text xml:space="preserve" x="19.4608" y="50.2462" fill="black" font-size="13.7726" font-family="Helvetica"> </text>
</g>
<g transform="rotate(-90,19.4608,57.3565)">
<text xml:space="preserve" x="19.4608" y="57.3565" fill="black" font-size="13.7726" font-family="Times">&#0967;</text>
</g>
<text xml:space="preserve" x="107.155" y="18.0128" fill="black" font-size="14.3335" font-family="Helvetica">^2 v.s. calibration factorwithout 1st binand without last bin</text>
<text xml:space="preserve" x="99.5704" y="18.0128" fill="black" font-size="14.3335" font-family="Times">&#0967;</text>
<g stroke="black" stroke-width="1" fill="none">
<line x1="85.5134" y1="47.8476" x2="89.3056" y2="47.8476"/><line x1="87.4095" y1="45.9515" x2="87.4095" y2="49.7437"/><line x1="85.5134" y1="45.9515" x2="89.3056" y2="49.7437"/><line x1="85.5134" y1="49.7437" x2="89.3056" y2="45.9515"/>
<line x1="90.0133" y1="51.9867" x2="93.8055" y2="51.9867"/><line x1="91.9094" y1="50.0906" x2="91.9094" y2="53.8828"/><line x1="90.0133" y1="50.0906" x2="93.8055" y2="53.8828"/><line x1="90.0133" y1="53.8828" x2="93.8055" y2="50.0906"/>
<line x1="94.5132" y1="51.2803" x2="98.3053" y2="51.2803"/><line x1="96.4093" y1="49.3843" x2="96.4093" y2="53.1764"/><line x1="94.5132" y1="49.3843" x2="98.3053" y2="53.1764"/><line x1="94.5132" y1="53.1764" x2="98.3053" y2="49.3843"/>
<line x1="99.0131" y1="70.2345" x2="102.805" y2="70.2345"/><line x1="100.909" y1="68.3384" x2="100.909" y2="72.1306"/><line x1="99.0131" y1="68.3384" x2="102.805" y2="72.1306"/><line x1="99.0131" y1="72.1306" x2="102.805" y2="68.3384"/>
<line x1="103.513" y1="86.8519" x2="107.305" y2="86.8519"/><line x1="105.409" y1="84.9558" x2="105.409" y2="88.7479"/><line x1="103.513" y1="84.9558" x2="107.305" y2="88.7479"/><line x1="103.513" y1="88.7479" x2="107.305" y2="84.9558"/>
<line x1="108.013" y1="103.767" x2="111.805" y2="103.767"/><line x1="109.909" y1="101.871" x2="109.909" y2="105.663"/><line x1="108.013" y1="101.871" x2="111.805" y2="105.663"/><line x1="108.013" y1="105.663" x2="111.805" y2="101.871"/>
<line x1="112.513" y1="108.445" x2="116.305" y2="108.445"/><line x1="114.409" y1="106.549" x2="114.409" y2="110.341"/><line x1="112.513" y1="106.549" x2="116.305" y2="110.341"/><line x1="112.513" y1="110.341" x2="116.305" y2="106.549"/>
<line x1="117.013" y1="101.575" x2="120.805" y2="101.575"/><line x1="118.909" y1="99.679" x2="118.909" y2="103.471"/><line x1="117.013" y1="99.679" x2="120.805" y2="103.471"/><line x1="117.013" y1="103.471" x2="120.805" y2="99.679"/>
<line x1="121.512" y1="119.675" x2="125.305" y2="119.675"/><line x1="123.409" y1="117.779" x2="123.409" y2="121.571"/><line x1="121.512" y1="117.779" x2="125.305" y2="121.571"/><line x1="121.512" y1="121.571" x2="125.305" y2="117.779"/>
<line x1="126.012" y1="109.428" x2="129.805" y2="109.428"/><line x1="127.908" y1="107.532" x2="127.908" y2="111.325"/><line x1="126.012" y1="107.532" x2="129.805" y2="111.325"/><line x1="126.012" y1="111.325" x2="129.805" y2="107.532"/>
<line x1="130.512" y1="112.045" x2="134.304" y2="112.045"/><line x1="132.408" y1="110.149" x2="132.408" y2="113.941"/><line x1="130.512" y1="110.149" x2="134.304" y2="113.941"/><line x1="130.512" y1="113.941" x2="134.304" y2="110.149"/>
<line x1="135.012" y1="117.628" x2="138.804" y2="117.628"/><line x1="136.908" y1="115.732" x2="136.908" y2="119.524"/><line x1="135.012" y1="115.732" x2="138.804" y2="119.524"/><line x1="135.012" y1="119.524" x2="138.804" y2="115.732"/>
<line x1="139.512" y1="106.801" x2="143.304" y2="106.801"/><line x1="141.408" y1="104.905" x2="141.408" y2="108.697"/><line x1="139.512" y1="104.905" x2="143.304" y2="108.697"/><line x1="139.512" y1="108.697" x2="143.304" y2="104.905"/>
<line x1="144.012" y1="113.727" x2="147.804" y2="113.727"/><line x1="145.908" y1="111.831" x2="145.908" y2="115.623"/><line x1="144.012" y1="111.831" x2="147.804" y2="115.623"/><line x1="144.012" y1="115.623" x2="147.804" y2="111.831"/>
<line x1="148.512" y1="104.993" x2="152.304" y2="104.993"/><line x1="150.408" y1="103.097" x2="150.408" y2="106.889"/><line x1="148.512" y1="103.097" x2="152.304" y2="106.889"/><line x1="148.512" y1="106.889" x2="152.304" y2="103.097"/>
<line x1="153.012" y1="101.555" x2="156.804" y2="101.555"/><line x1="154.908" y1="99.6594" x2="154.908" y2="103.452"/><line x1="153.012" y1="99.6594" x2="156.804" y2="103.452"/><line x1="153.012" y1="103.452" x2="156.804" y2="99.6594"/>
<line x1="157.512" y1="106.221" x2="161.304" y2="106.221"/><line x1="159.408" y1="104.325" x2="159.408" y2="108.117"/><line x1="157.512" y1="104.325" x2="161.304" y2="108.117"/><line x1="157.512" y1="108.117" x2="161.304" y2="104.325"/>
<line x1="162.011" y1="97.2074" x2="165.804" y2="97.2074"/><line x1="163.908" y1="95.3114" x2="163.908" y2="99.1035"/><line x1="162.011" y1="95.3114" x2="165.804" y2="99.1035"/><line x1="162.011" y1="99.1035" x2="165.804" y2="95.3114"/>
<line x1="166.511" y1="116.768" x2="170.304" y2="116.768"/><line x1="168.407" y1="114.872" x2="168.407" y2="118.664"/><line x1="166.511" y1="114.872" x2="170.304" y2="118.664"/><line x1="166.511" y1="118.664" x2="170.304" y2="114.872"/>
<line x1="171.011" y1="107.321" x2="174.803" y2="107.321"/><line x1="172.907" y1="105.425" x2="172.907" y2="109.217"/><line x1="171.011" y1="105.425" x2="174.803" y2="109.217"/><line x1="171.011" y1="109.217" x2="174.803" y2="105.425"/>
<line x1="175.511" y1="116.3" x2="179.303" y2="116.3"/><line x1="177.407" y1="114.404" x2="177.407" y2="118.196"/><line x1="175.511" y1="114.404" x2="179.303" y2="118.196"/><line x1="175.511" y1="118.196" x2="179.303" y2="114.404"/>
<line x1="180.011" y1="121.891" x2="183.803" y2="121.891"/><line x1="181.907" y1="119.995" x2="181.907" y2="123.787"/><line x1="180.011" y1="119.995" x2="183.803" y2="123.787"/><line x1="180.011" y1="123.787" x2="183.803" y2="119.995"/>
<line x1="184.511" y1="126.814" x2="188.303" y2="126.814"/><line x1="186.407" y1="124.918" x2="186.407" y2="128.71"/><line x1="184.511" y1="124.918" x2="188.303" y2="128.71"/><line x1="184.511" y1="128.71" x2="188.303" y2="124.918"/>
<line x1="189.011" y1="109.214" x2="192.803" y2="109.214"/><line x1="190.907" y1="107.318" x2="190.907" y2="111.111"/><line x1="189.011" y1="107.318" x2="192.803" y2="111.111"/><line x1="189.011" y1="111.111" x2="192.803" y2="107.318"/>
<line x1="193.511" y1="141.927" x2="197.303" y2="141.927"/><line x1="195.407" y1="140.031" x2="195.407" y2="143.823"/><line x1="193.511" y1="140.031" x2="197.303" y2="143.823"/><line x1="193.511" y1="143.823" x2="197.303" y2="140.031"/>
<line x1="198.011" y1="155.662" x2="201.803" y2="155.662"/><line x1="199.907" y1="153.765" x2="199.907" y2="157.558"/><line x1="198.011" y1="153.765" x2="201.803" y2="157.558"/><line x1="198.011" y1="157.558" x2="201.803" y2="153.765"/>
<line x1="202.51" y1="190.671" x2="206.303" y2="190.671"/><line x1="204.407" y1="188.775" x2="204.407" y2="192.567"/><line x1="202.51" y1="188.775" x2="206.303" y2="192.567"/><line x1="202.51" y1="192.567" x2="206.303" y2="188.775"/>
<line x1="207.01" y1="217.897" x2="210.803" y2="217.897"/><line x1="208.906" y1="216.001" x2="208.906" y2="219.793"/><line x1="207.01" y1="216.001" x2="210.803" y2="219.793"/><line x1="207.01" y1="219.793" x2="210.803" y2="216.001"/>
<line x1="211.51" y1="231.418" x2="215.302" y2="231.418"/><line x1="213.406" y1="229.522" x2="213.406" y2="233.314"/><line x1="211.51" y1="229.522" x2="215.302" y2="233.314"/><line x1="211.51" y1="233.314" x2="215.302" y2="229.522"/>
<line x1="216.01" y1="233.028" x2="219.802" y2="233.028"/><line x1="217.906" y1="231.132" x2="217.906" y2="234.924"/><line x1="216.01" y1="231.132" x2="219.802" y2="234.924"/><line x1="216.01" y1="234.924" x2="219.802" y2="231.132"/>
<line x1="220.51" y1="237.63" x2="224.302" y2="237.63"/><line x1="222.406" y1="235.733" x2="222.406" y2="239.526"/><line x1="220.51" y1="235.733" x2="224.302" y2="239.526"/><line x1="220.51" y1="239.526" x2="224.302" y2="235.733"/>
<line x1="225.01" y1="237.893" x2="228.802" y2="237.893"/><line x1="226.906" y1="235.996" x2="226.906" y2="239.789"/><line x1="225.01" y1="235.996" x2="228.802" y2="239.789"/><line x1="225.01" y1="239.789" x2="228.802" y2="235.996"/>
<line x1="229.51" y1="245.897" x2="233.302" y2="245.897"/><line x1="231.406" y1="244.001" x2="231.406" y2="247.793"/><line x1="229.51" y1="244.001" x2="233.302" y2="247.793"/><line x1="229.51" y1="247.793" x2="233.302" y2="244.001"/>
<line x1="234.01" y1="220.512" x2="237.802" y2="220.512"/><line x1="235.906" y1="218.616" x2="235.906" y2="222.408"/><line x1="234.01" y1="218.616" x2="237.802" y2="222.408"/><line x1="234.01" y1="222.408" x2="237.802" y2="218.616"/>
<line x1="238.51" y1="227.338" x2="242.302" y2="227.338"/><line x1="240.406" y1="225.442" x2="240.406" y2="229.234"/><line x1="238.51" y1="225.442" x2="242.302" y2="229.234"/><line x1="238.51" y1="229.234" x2="242.302" y2="225.442"/>
<line x1="243.009" y1="236.261" x2="246.802" y2="236.261"/><line x1="244.906" y1="234.365" x2="244.906" y2="238.157"/><line x1="243.009" y1="234.365" x2="246.802" y2="238.157"/><line x1="243.009" y1="238.157" x2="246.802" y2="234.365"/>
<line x1="247.509" y1="260.414" x2="251.302" y2="260.414"/><line x1="249.405" y1="258.518" x2="249.405" y2="262.31"/><line x1="247.509" y1="258.518" x2="251.302" y2="262.31"/><line x1="247.509" y1="262.31" x2="251.302" y2="258.518"/>
<line x1="252.009" y1="277.595" x2="255.801" y2="277.595"/><line x1="253.905" y1="275.699" x2="253.905" y2="279.491"/><line x1="252.009" y1="275.699" x2="255.801" y2="279.491"/><line x1="252.009" y1="279.491" x2="255.801" y2="275.699"/>
<line x1="256.509" y1="259.877" x2="260.301" y2="259.877"/><line x1="258.405" y1="257.98" x2="258.405" y2="261.773"/><line x1="256.509" y1="257.98" x2="260.301" y2="261.773"/><line x1="256.509" y1="261.773" x2="260.301" y2="257.98"/>
<line x1="261.009" y1="268.178" x2="264.801" y2="268.178"/><line x1="262.905" y1="266.282" x2="262.905" y2="270.074"/><line x1="261.009" y1="266.282" x2="264.801" y2="270.074"/><line x1="261.009" y1="270.074" x2="264.801" y2="266.282"/>
<line x1="265.509" y1="270.228" x2="269.301" y2="270.228"/><line x1="267.405" y1="268.332" x2="267.405" y2="272.124"/><line x1="265.509" y1="268.332" x2="269.301" y2="272.124"/><line x1="265.509" y1="272.124" x2="269.301" y2="268.332"/>
<line x1="270.009" y1="295.517" x2="273.801" y2="295.517"/><line x1="271.905" y1="293.621" x2="271.905" y2="297.413"/><line x1="270.009" y1="293.621" x2="273.801" y2="297.413"/><line x1="270.009" y1="297.413" x2="273.801" y2="293.621"/>
<line x1="274.509" y1="285.752" x2="278.301" y2="285.752"/><line x1="276.405" y1="283.856" x2="276.405" y2="287.648"/><line x1="274.509" y1="283.856" x2="278.301" y2="287.648"/><line x1="274.509" y1="287.648" x2="278.301" y2="283.856"/>
<line x1="279.009" y1="278.911" x2="282.801" y2="278.911"/><line x1="280.905" y1="277.015" x2="280.905" y2="280.807"/><line x1="279.009" y1="277.015" x2="282.801" y2="280.807"/><line x1="279.009" y1="280.807" x2="282.801" y2="277.015"/>
<line x1="283.508" y1="305.876" x2="287.301" y2="305.876"/><line x1="285.405" y1="303.98" x2="285.405" y2="307.772"/><line x1="283.508" y1="303.98" x2="287.301" y2="307.772"/><line x1="283.508" y1="307.772" x2="287.301" y2="303.98"/>
<line x1="288.008" y1="303.957" x2="291.801" y2="303.957"/><line x1="289.904" y1="302.061" x2="289.904" y2="305.853"/><line x1="288.008" y1="302.061" x2="291.801" y2="305.853"/><line x1="288.008" y1="305.853" x2="291.801" y2="302.061"/>
<line x1="292.508" y1="281.376" x2="296.3" y2="281.376"/><line x1="294.404" y1="279.48" x2="294.404" y2="283.272"/><line x1="292.508" y1="279.48" x2="296.3" y2="283.272"/><line x1="292.508" y1="283.272" x2="296.3" y2="279.48"/>
<line x1="297.008" y1="275.668" x2="300.8" y2="275.668"/><line x1="298.904" y1="273.772" x2="298.904" y2="277.564"/><line x1="297.008" y1="273.772" x2="300.8" y2="277.564"/><line x1="297.008" y1="277.564" x2="300.8" y2="273.772"/>
<line x1="301.508" y1="261.759" x2="305.3" y2="261.759"/><line x1="303.404" y1="259.863" x2="303.404" y2="263.655"/><line x1="301.508" y1="259.863" x2="305.3" y2="263.655"/><line x1="301.508" y1="263.655" x2="305.3" y2="259.863"/>
<line x1="306.008" y1="272.623" x2="309.8" y2="272.623"/><line x1="307.904" y1="270.727" x2="307.904" y2="274.519"/><line x1="306.008" y1="270.727" x2="309.8" y2="274.519"/><line x1="306.008" y1="274.519" x2="309.8" y2="270.727"/>
<line x1="310.508" y1="281.597" x2="314.3" y2="281.597"/><line x1="312.404" y1="279.701" x2="312.404" y2="283.493"/><line x1="310.508" y1="279.701" x2="314.3" y2="283.493"/><line x1="310.508" y1="283.493" x2="314.3" y2="279.701"/>
<line x1="315.008" y1="283.687" x2="318.8" y2="283.687"/><line x1="316.904" y1="281.791" x2="316.904" y2="285.583"/><line x1="315.008" y1="281.791" x2="318.8" y2="285.583"/><line x1="315.008" y1="285.583" x2="318.8" y2="281.791"/>
<line x1="319.508" y1="276.165" x2="323.3" y2="276.165"/><line x1="321.404" y1="274.269" x2="321.404" y2="278.061"/><line x1="319.508" y1="274.269" x2="323.3" y2="278.061"/><line x1="319.508" y1="278.061" x2="323.3" y2="274.269"/>
<line x1="324.007" y1="274.14" x2="327.8" y2="274.14"/><line x1="325.904" y1="272.244" x2="325.904" y2="276.036"/><line x1="324.007" y1="272.244" x2="327.8" y2="276.036"/><line x1="324.007" y1="276.036" x2="327.8" y2="272.244"/>
<line x1="328.507" y1="269.49" x2="332.299" y2="269.49"/><line x1="330.403" y1="267.594" x2="330.403" y2="271.387"/><line x1="328.507" y1="267.594" x2="332.299" y2="271.387"/><line x1="328.507" y1="271.387" x2="332.299" y2="267.594"/>
<line x1="333.007" y1="239.811" x2="336.799" y2="239.811"/><line x1="334.903" y1="237.915" x2="334.903" y2="241.707"/><line x1="333.007" y1="237.915" x2="336.799" y2="241.707"/><line x1="333.007" y1="241.707" x2="336.799" y2="237.915"/>
<line x1="337.507" y1="237.849" x2="341.299" y2="237.849"/><line x1="339.403" y1="235.953" x2="339.403" y2="239.745"/><line x1="337.507" y1="235.953" x2="341.299" y2="239.745"/><line x1="337.507" y1="239.745" x2="341.299" y2="235.953"/>
<line x1="342.007" y1="241.143" x2="345.799" y2="241.143"/><line x1="343.903" y1="239.247" x2="343.903" y2="243.039"/><line x1="342.007" y1="239.247" x2="345.799" y2="243.039"/><line x1="342.007" y1="243.039" x2="345.799" y2="239.247"/>
<line x1="346.507" y1="232.595" x2="350.299" y2="232.595"/><line x1="348.403" y1="230.699" x2="348.403" y2="234.491"/><line x1="346.507" y1="230.699" x2="350.299" y2="234.491"/><line x1="346.507" y1="234.491" x2="350.299" y2="230.699"/>
<line x1="351.007" y1="236.955" x2="354.799" y2="236.955"/><line x1="352.903" y1="235.059" x2="352.903" y2="238.851"/><line x1="351.007" y1="235.059" x2="354.799" y2="238.851"/><line x1="351.007" y1="238.851" x2="354.799" y2="235.059"/>
<line x1="355.507" y1="214.517" x2="359.299" y2="214.517"/><line x1="357.403" y1="212.621" x2="357.403" y2="216.413"/><line x1="355.507" y1="212.621" x2="359.299" y2="216.413"/><line x1="355.507" y1="216.413" x2="359.299" y2="212.621"/>
<line x1="360.007" y1="238.378" x2="363.799" y2="238.378"/><line x1="361.903" y1="236.481" x2="361.903" y2="240.274"/><line x1="360.007" y1="236.481" x2="363.799" y2="240.274"/><line x1="360.007" y1="240.274" x2="363.799" y2="236.481"/>
<line x1="364.506" y1="243.291" x2="368.299" y2="243.291"/><line x1="366.402" y1="241.395" x2="366.402" y2="245.187"/><line x1="364.506" y1="241.395" x2="368.299" y2="245.187"/><line x1="364.506" y1="245.187" x2="368.299" y2="241.395"/>
<line x1="369.006" y1="251.394" x2="372.798" y2="251.394"/><line x1="370.902" y1="249.498" x2="370.902" y2="253.29"/><line x1="369.006" y1="249.498" x2="372.798" y2="253.29"/><line x1="369.006" y1="253.29" x2="372.798" y2="249.498"/>
<line x1="373.506" y1="222.766" x2="377.298" y2="222.766"/><line x1="375.402" y1="220.87" x2="375.402" y2="224.662"/><line x1="373.506" y1="220.87" x2="377.298" y2="224.662"/><line x1="373.506" y1="224.662" x2="377.298" y2="220.87"/>
<line x1="378.006" y1="206.125" x2="381.798" y2="206.125"/><line x1="379.902" y1="204.229" x2="379.902" y2="208.021"/><line x1="378.006" y1="204.229" x2="381.798" y2="208.021"/><line x1="378.006" y1="208.021" x2="381.798" y2="204.229"/>
<line x1="382.506" y1="182.915" x2="386.298" y2="182.915"/><line x1="384.402" y1="181.019" x2="384.402" y2="184.811"/><line x1="382.506" y1="181.019" x2="386.298" y2="184.811"/><line x1="382.506" y1="184.811" x2="386.298" y2="181.019"/>
<line x1="387.006" y1="171.085" x2="390.798" y2="171.085"/><line x1="388.902" y1="169.189" x2="388.902" y2="172.981"/><line x1="387.006" y1="169.189" x2="390.798" y2="172.981"/><line x1="387.006" y1="172.981" x2="390.798" y2="169.189"/>
<line x1="391.506" y1="199.846" x2="395.298" y2="199.846"/><line x1="393.402" y1="197.95" x2="393.402" y2="201.742"/><line x1="391.506" y1="197.95" x2="395.298" y2="201.742"/><line x1="391.506" y1="201.742" x2="395.298" y2="197.95"/>
<line x1="396.006" y1="197.166" x2="399.798" y2="197.166"/><line x1="397.902" y1="195.27" x2="397.902" y2="199.062"/><line x1="396.006" y1="195.27" x2="399.798" y2="199.062"/><line x1="396.006" y1="199.062" x2="399.798" y2="195.27"/>
<line x1="400.506" y1="195.244" x2="404.298" y2="195.244"/><line x1="402.402" y1="193.348" x2="402.402" y2="197.14"/><line x1="400.506" y1="193.348" x2="404.298" y2="197.14"/><line x1="400.506" y1="197.14" x2="404.298" y2="193.348"/>
<line x1="405.005" y1="168.031" x2="408.798" y2="168.031"/><line x1="406.901" y1="166.135" x2="406.901" y2="169.928"/><line x1="405.005" y1="166.135" x2="408.798" y2="169.928"/><line x1="405.005" y1="169.928" x2="408.798" y2="166.135"/>
<line x1="409.505" y1="145.927" x2="413.297" y2="145.927"/><line x1="411.401" y1="144.031" x2="411.401" y2="147.823"/><line x1="409.505" y1="144.031" x2="413.297" y2="147.823"/><line x1="409.505" y1="147.823" x2="413.297" y2="144.031"/>
<line x1="414.005" y1="135.526" x2="417.797" y2="135.526"/><line x1="415.901" y1="133.63" x2="415.901" y2="137.422"/><line x1="414.005" y1="133.63" x2="417.797" y2="137.422"/><line x1="414.005" y1="137.422" x2="417.797" y2="133.63"/>
<line x1="418.505" y1="142.491" x2="422.297" y2="142.491"/><line x1="420.401" y1="140.595" x2="420.401" y2="144.387"/><line x1="418.505" y1="140.595" x2="422.297" y2="144.387"/><line x1="418.505" y1="144.387" x2="422.297" y2="140.595"/>
<line x1="423.005" y1="155.06" x2="426.797" y2="155.06"/><line x1="424.901" y1="153.163" x2="424.901" y2="156.956"/><line x1="423.005" y1="153.163" x2="426.797" y2="156.956"/><line x1="423.005" y1="156.956" x2="426.797" y2="153.163"/>
<line x1="427.505" y1="182.462" x2="431.297" y2="182.462"/><line x1="429.401" y1="180.566" x2="429.401" y2="184.358"/><line x1="427.505" y1="180.566" x2="431.297" y2="184.358"/><line x1="427.505" y1="184.358" x2="431.297" y2="180.566"/>
<line x1="432.005" y1="188.783" x2="435.797" y2="188.783"/><line x1="433.901" y1="186.887" x2="433.901" y2="190.679"/><line x1="432.005" y1="186.887" x2="435.797" y2="190.679"/><line x1="432.005" y1="190.679" x2="435.797" y2="186.887"/>
<line x1="436.505" y1="213.652" x2="440.297" y2="213.652"/><line x1="438.401" y1="211.756" x2="438.401" y2="215.548"/><line x1="436.505" y1="211.756" x2="440.297" y2="215.548"/><line x1="436.505" y1="215.548" x2="440.297" y2="211.756"/>
<line x1="441.005" y1="221.835" x2="444.797" y2="221.835"/><line x1="442.901" y1="219.939" x2="442.901" y2="223.731"/><line x1="441.005" y1="219.939" x2="444.797" y2="223.731"/><line x1="441.005" y1="223.731" x2="444.797" y2="219.939"/>
<line x1="445.504" y1="218.145" x2="449.297" y2="218.145"/><line x1="447.4" y1="216.249" x2="447.4" y2="220.041"/><line x1="445.504" y1="216.249" x2="449.297" y2="220.041"/><line x1="445.504" y1="220.041" x2="449.297" y2="216.249"/>
<line x1="450.004" y1="203.21" x2="453.796" y2="203.21"/><line x1="451.9" y1="201.314" x2="451.9" y2="205.107"/><line x1="450.004" y1="201.314" x2="453.796" y2="205.107"/><line x1="450.004" y1="205.107" x2="453.796" y2="201.314"/>
<line x1="454.504" y1="195.243" x2="458.296" y2="195.243"/><line x1="456.4" y1="193.347" x2="456.4" y2="197.139"/><line x1="454.504" y1="193.347" x2="458.296" y2="197.139"/><line x1="454.504" y1="197.139" x2="458.296" y2="193.347"/>
<line x1="459.004" y1="201.777" x2="462.796" y2="201.777"/><line x1="460.9" y1="199.881" x2="460.9" y2="203.673"/><line x1="459.004" y1="199.881" x2="462.796" y2="203.673"/><line x1="459.004" y1="203.673" x2="462.796" y2="199.881"/>
<line x1="463.504" y1="199.42" x2="467.296" y2="199.42"/><line x1="465.4" y1="197.523" x2="465.4" y2="201.316"/><line x1="463.504" y1="197.523" x2="467.296" y2="201.316"/><line x1="463.504" y1="201.316" x2="467.296" y2="197.523"/>
<line x1="468.004" y1="208.534" x2="471.796" y2="208.534"/><line x1="469.9" y1="206.638" x2="469.9" y2="210.43"/><line x1="468.004" y1="206.638" x2="471.796" y2="210.43"/><line x1="468.004" y1="210.43" x2="471.796" y2="206.638"/>
<line x1="472.504" y1="224.073" x2="476.296" y2="224.073"/><line x1="474.4" y1="222.177" x2="474.4" y2="225.969"/><line x1="472.504" y1="222.177" x2="476.296" y2="225.969"/><line x1="472.504" y1="225.969" x2="476.296" y2="222.177"/>
<line x1="477.004" y1="215.692" x2="480.796" y2="215.692"/><line x1="478.9" y1="213.796" x2="478.9" y2="217.588"/><line x1="477.004" y1="213.796" x2="480.796" y2="217.588"/><line x1="477.004" y1="217.588" x2="480.796" y2="213.796"/>
<line x1="481.504" y1="226.16" x2="485.296" y2="226.16"/><line x1="483.4" y1="224.264" x2="483.4" y2="228.056"/><line x1="481.504" y1="224.264" x2="485.296" y2="228.056"/><line x1="481.504" y1="228.056" x2="485.296" y2="224.264"/>
<line x1="486.003" y1="195.304" x2="489.796" y2="195.304"/><line x1="487.899" y1="193.408" x2="487.899" y2="197.2"/><line x1="486.003" y1="193.408" x2="489.796" y2="197.2"/><line x1="486.003" y1="197.2" x2="489.796" y2="193.408"/>
<line x1="490.503" y1="201.445" x2="494.295" y2="201.445"/><line x1="492.399" y1="199.549" x2="492.399" y2="203.341"/><line x1="490.503" y1="199.549" x2="494.295" y2="203.341"/><line x1="490.503" y1="203.341" x2="494.295" y2="199.549"/>
<line x1="495.003" y1="190.681" x2="498.795" y2="190.681"/><line x1="496.899" y1="188.785" x2="496.899" y2="192.577"/><line x1="495.003" y1="188.785" x2="498.795" y2="192.577"/><line x1="495.003" y1="192.577" x2="498.795" y2="188.785"/>
<line x1="499.503" y1="171.922" x2="503.295" y2="171.922"/><line x1="501.399" y1="170.026" x2="501.399" y2="173.818"/><line x1="499.503" y1="170.026" x2="503.295" y2="173.818"/><line x1="499.503" y1="173.818" x2="503.295" y2="170.026"/>
<line x1="504.003" y1="176.869" x2="507.795" y2="176.869"/><line x1="505.899" y1="174.972" x2="505.899" y2="178.765"/><line x1="504.003" y1="174.972" x2="507.795" y2="178.765"/><line x1="504.003" y1="178.765" x2="507.795" y2="174.972"/>
<line x1="508.503" y1="169.326" x2="512.295" y2="169.326"/><line x1="510.399" y1="167.43" x2="510.399" y2="171.222"/><line x1="508.503" y1="167.43" x2="512.295" y2="171.222"/><line x1="508.503" y1="171.222" x2="512.295" y2="167.43"/>
</g>
<path d="M0.5,272.809h 566.929" fill="none" stroke="#0000ff"/>
<text xml:space="preserve" x="107.155" y="18.0128" fill="black" font-size="14.3335" font-family="Helvetica">^2 v.s. calibration factorwithout 1st binand without last bin</text>
<text xml:space="preserve" x="99.5704" y="18.0128" fill="black" font-size="14.3335" font-family="Times">&#0967;</text></svg>
