<?xml version="1.0" standalone="no"?>
<svg width="567.429" height="413.846" viewBox="0 0 567.429 413.846" xmlns="http://www.w3.org/2000/svg" shape-rendering="crispEdges">
<title>
figures/chi2zoomin_6PMTnpefilelist20.svg
</title>
<desc>
Creator: ROOT Version 6.18/04
CreationDate: Sun Nov  3 13:00:32 2019</desc>
<defs>
</defs>
<rect x="0.5" y="0" width="566.929" height="413.346" fill="white"/>
<rect x="57.1929" y="41.3346" width="453.543" height="330.677" fill="white"/>
<rect x="57.1929" y="41.3346" width="453.543" height="330.677" fill="none" stroke="black"/>
<path d="M57.1929,372.012h 453.543" fill="none" stroke="black"/>
<path d="M62.8219,41.3346v 330.677" fill="none" stroke="black" stroke-dasharray=" 1, 2"/>
<path d="M107.821,41.3346v 330.677" fill="none" stroke="black" stroke-dasharray=" 1, 2"/>
<path d="M152.82,41.3346v 330.677" fill="none" stroke="black" stroke-dasharray=" 1, 2"/>
<path d="M197.819,41.3346v 330.677" fill="none" stroke="black" stroke-dasharray=" 1, 2"/>
<path d="M242.817,41.3346v 330.677" fill="none" stroke="black" stroke-dasharray=" 1, 2"/>
<path d="M287.816,41.3346v 330.677" fill="none" stroke="black" stroke-dasharray=" 1, 2"/>
<path d="M332.815,41.3346v 330.677" fill="none" stroke="black" stroke-dasharray=" 1, 2"/>
<path d="M377.814,41.3346v 330.677" fill="none" stroke="black" stroke-dasharray=" 1, 2"/>
<path d="M422.813,41.3346v 330.677" fill="none" stroke="black" stroke-dasharray=" 1, 2"/>
<path d="M467.812,41.3346v 330.677" fill="none" stroke="black" stroke-dasharray=" 1, 2"/>
<path d="M62.8219,41.3346v 330.677" fill="none" stroke="black" stroke-dasharray=" 1, 2"/>
<path d="M467.812,41.3346v 330.677" fill="none" stroke="black" stroke-dasharray=" 1, 2"/>
<path d="M57.1929,372.012v -330.677" fill="none" stroke="black"/>
<path d="M57.1929,372.012h 453.543" fill="none" stroke="black"/>
<path d="M62.8219,362.091v 9.92031" fill="none" stroke="black"/>
<path d="M74.0716,367.052v 4.96016" fill="none" stroke="black"/>
<path d="M85.3214,367.052v 4.96016" fill="none" stroke="black"/>
<path d="M96.5711,367.052v 4.96016" fill="none" stroke="black"/>
<path d="M107.821,362.091v 9.92031" fill="none" stroke="black"/>
<path d="M119.071,367.052v 4.96016" fill="none" stroke="black"/>
<path d="M130.32,367.052v 4.96016" fill="none" stroke="black"/>
<path d="M141.57,367.052v 4.96016" fill="none" stroke="black"/>
<path d="M152.82,362.091v 9.92031" fill="none" stroke="black"/>
<path d="M164.069,367.052v 4.96016" fill="none" stroke="black"/>
<path d="M175.319,367.052v 4.96016" fill="none" stroke="black"/>
<path d="M186.569,367.052v 4.96016" fill="none" stroke="black"/>
<path d="M197.819,362.091v 9.92031" fill="none" stroke="black"/>
<path d="M209.068,367.052v 4.96016" fill="none" stroke="black"/>
<path d="M220.318,367.052v 4.96016" fill="none" stroke="black"/>
<path d="M231.568,367.052v 4.96016" fill="none" stroke="black"/>
<path d="M242.817,362.091v 9.92031" fill="none" stroke="black"/>
<path d="M254.067,367.052v 4.96016" fill="none" stroke="black"/>
<path d="M265.317,367.052v 4.96016" fill="none" stroke="black"/>
<path d="M276.567,367.052v 4.96016" fill="none" stroke="black"/>
<path d="M287.816,362.091v 9.92031" fill="none" stroke="black"/>
<path d="M299.066,367.052v 4.96016" fill="none" stroke="black"/>
<path d="M310.316,367.052v 4.96016" fill="none" stroke="black"/>
<path d="M321.565,367.052v 4.96016" fill="none" stroke="black"/>
<path d="M332.815,362.091v 9.92031" fill="none" stroke="black"/>
<path d="M344.065,367.052v 4.96016" fill="none" stroke="black"/>
<path d="M355.315,367.052v 4.96016" fill="none" stroke="black"/>
<path d="M366.564,367.052v 4.96016" fill="none" stroke="black"/>
<path d="M377.814,362.091v 9.92031" fill="none" stroke="black"/>
<path d="M389.064,367.052v 4.96016" fill="none" stroke="black"/>
<path d="M400.313,367.052v 4.96016" fill="none" stroke="black"/>
<path d="M411.563,367.052v 4.96016" fill="none" stroke="black"/>
<path d="M422.813,362.091v 9.92031" fill="none" stroke="black"/>
<path d="M434.063,367.052v 4.96016" fill="none" stroke="black"/>
<path d="M445.312,367.052v 4.96016" fill="none" stroke="black"/>
<path d="M456.562,367.052v 4.96016" fill="none" stroke="black"/>
<path d="M467.812,362.091v 9.92031" fill="none" stroke="black"/>
<path d="M62.8219,362.091v 9.92031" fill="none" stroke="black"/>
<path d="M467.812,362.091v 9.92031" fill="none" stroke="black"/>
<path d="M479.062,367.052v 4.96016" fill="none" stroke="black"/>
<path d="M490.311,367.052v 4.96016" fill="none" stroke="black"/>
<path d="M501.561,367.052v 4.96016" fill="none" stroke="black"/>
<text xml:space="preserve" x="46.006" y="385.379" fill="black" font-size="13.7726" font-family="Helvetica">1.102</text>
<text xml:space="preserve" x="91.038" y="385.379" fill="black" font-size="13.7726" font-family="Helvetica">1.104</text>
<text xml:space="preserve" x="136.07" y="385.379" fill="black" font-size="13.7726" font-family="Helvetica">1.106</text>
<text xml:space="preserve" x="181.102" y="385.379" fill="black" font-size="13.7726" font-family="Helvetica">1.108</text>
<text xml:space="preserve" x="230.874" y="385.379" fill="black" font-size="13.7726" font-family="Helvetica">1.11</text>
<text xml:space="preserve" x="271.166" y="385.379" fill="black" font-size="13.7726" font-family="Helvetica">1.112</text>
<text xml:space="preserve" x="316.198" y="385.379" fill="black" font-size="13.7726" font-family="Helvetica">1.114</text>
<text xml:space="preserve" x="360.756" y="385.379" fill="black" font-size="13.7726" font-family="Helvetica">1.116</text>
<text xml:space="preserve" x="405.788" y="385.379" fill="black" font-size="13.7726" font-family="Helvetica">1.118</text>
<text xml:space="preserve" x="454.612" y="385.379" fill="black" font-size="13.7726" font-family="Helvetica">1.12</text>
<text xml:space="preserve" x="413.372" y="400.074" fill="black" font-size="13.7726" font-family="Helvetica">calibration factor</text>
<path d="M57.1929,372.012v -330.677" fill="none" stroke="black"/>
<path d="M70.7992,371.083h -13.6063" fill="none" stroke="black"/>
<path d="M63.9961,364.47h -6.80315" fill="none" stroke="black"/>
<path d="M63.9961,357.856h -6.80315" fill="none" stroke="black"/>
<path d="M63.9961,351.243h -6.80315" fill="none" stroke="black"/>
<path d="M63.9961,344.629h -6.80315" fill="none" stroke="black"/>
<path d="M70.7992,338.016h -13.6063" fill="none" stroke="black"/>
<path d="M63.9961,331.402h -6.80315" fill="none" stroke="black"/>
<path d="M63.9961,324.788h -6.80315" fill="none" stroke="black"/>
<path d="M63.9961,318.175h -6.80315" fill="none" stroke="black"/>
<path d="M63.9961,311.561h -6.80315" fill="none" stroke="black"/>
<path d="M70.7992,304.948h -13.6063" fill="none" stroke="black"/>
<path d="M63.9961,298.334h -6.80315" fill="none" stroke="black"/>
<path d="M63.9961,291.721h -6.80315" fill="none" stroke="black"/>
<path d="M63.9961,285.107h -6.80315" fill="none" stroke="black"/>
<path d="M63.9961,278.494h -6.80315" fill="none" stroke="black"/>
<path d="M70.7992,271.88h -13.6063" fill="none" stroke="black"/>
<path d="M63.9961,265.267h -6.80315" fill="none" stroke="black"/>
<path d="M63.9961,258.653h -6.80315" fill="none" stroke="black"/>
<path d="M63.9961,252.04h -6.80315" fill="none" stroke="black"/>
<path d="M63.9961,245.426h -6.80315" fill="none" stroke="black"/>
<path d="M70.7992,238.812h -13.6063" fill="none" stroke="black"/>
<path d="M63.9961,232.199h -6.80315" fill="none" stroke="black"/>
<path d="M63.9961,225.585h -6.80315" fill="none" stroke="black"/>
<path d="M63.9961,218.972h -6.80315" fill="none" stroke="black"/>
<path d="M63.9961,212.358h -6.80315" fill="none" stroke="black"/>
<path d="M70.7992,205.745h -13.6063" fill="none" stroke="black"/>
<path d="M63.9961,199.131h -6.80315" fill="none" stroke="black"/>
<path d="M63.9961,192.518h -6.80315" fill="none" stroke="black"/>
<path d="M63.9961,185.904h -6.80315" fill="none" stroke="black"/>
<path d="M63.9961,179.291h -6.80315" fill="none" stroke="black"/>
<path d="M70.7992,172.677h -13.6063" fill="none" stroke="black"/>
<path d="M63.9961,166.064h -6.80315" fill="none" stroke="black"/>
<path d="M63.9961,159.45h -6.80315" fill="none" stroke="black"/>
<path d="M63.9961,152.836h -6.80315" fill="none" stroke="black"/>
<path d="M63.9961,146.223h -6.80315" fill="none" stroke="black"/>
<path d="M70.7992,139.609h -13.6063" fill="none" stroke="black"/>
<path d="M63.9961,132.996h -6.80315" fill="none" stroke="black"/>
<path d="M63.9961,126.382h -6.80315" fill="none" stroke="black"/>
<path d="M63.9961,119.769h -6.80315" fill="none" stroke="black"/>
<path d="M63.9961,113.155h -6.80315" fill="none" stroke="black"/>
<path d="M70.7992,106.542h -13.6063" fill="none" stroke="black"/>
<path d="M63.9961,99.9281h -6.80315" fill="none" stroke="black"/>
<path d="M63.9961,93.3146h -6.80315" fill="none" stroke="black"/>
<path d="M63.9961,86.701h -6.80315" fill="none" stroke="black"/>
<path d="M63.9961,80.0875h -6.80315" fill="none" stroke="black"/>
<path d="M70.7992,73.4739h -13.6063" fill="none" stroke="black"/>
<path d="M70.7992,371.083h -13.6063" fill="none" stroke="black"/>
<path d="M70.7992,73.4739h -13.6063" fill="none" stroke="black"/>
<path d="M63.9961,66.8604h -6.80315" fill="none" stroke="black"/>
<path d="M63.9961,60.2468h -6.80315" fill="none" stroke="black"/>
<path d="M63.9961,53.6333h -6.80315" fill="none" stroke="black"/>
<path d="M63.9961,47.0198h -6.80315" fill="none" stroke="black"/>
<text xml:space="preserve" x="32.2594" y="375.425" fill="black" font-size="13.7726" font-family="Helvetica">146</text>
<text xml:space="preserve" x="32.2594" y="343.191" fill="black" font-size="13.7726" font-family="Helvetica">147</text>
<text xml:space="preserve" x="32.2594" y="309.536" fill="black" font-size="13.7726" font-family="Helvetica">148</text>
<text xml:space="preserve" x="32.2594" y="276.354" fill="black" font-size="13.7726" font-family="Helvetica">149</text>
<text xml:space="preserve" x="32.2594" y="243.173" fill="black" font-size="13.7726" font-family="Helvetica">150</text>
<text xml:space="preserve" x="34.6295" y="210.465" fill="black" font-size="13.7726" font-family="Helvetica">151</text>
<text xml:space="preserve" x="32.2594" y="177.284" fill="black" font-size="13.7726" font-family="Helvetica">152</text>
<text xml:space="preserve" x="32.2594" y="144.102" fill="black" font-size="13.7726" font-family="Helvetica">153</text>
<text xml:space="preserve" x="32.2594" y="110.921" fill="black" font-size="13.7726" font-family="Helvetica">154</text>
<text xml:space="preserve" x="32.2594" y="78.2135" fill="black" font-size="13.7726" font-family="Helvetica">155</text>
<g transform="rotate(-90,15.1947,45.98)">
<text xml:space="preserve" x="15.1947" y="45.98" fill="black" font-size="9.34839" font-family="Helvetica">2</text>
</g>
<g transform="rotate(-90,19.4608,50.2462)">
<text xml:space="preserve" x="19.4608" y="50.2462" fill="black" font-size="13.7726" font-family="Helvetica"> </text>
</g>
<g transform="rotate(-90,19.4608,57.3565)">
<text xml:space="preserve" x="19.4608" y="57.3565" fill="black" font-size="13.7726" font-family="Times">&#0967;</text>
</g>
<text xml:space="preserve" x="107.155" y="18.0128" fill="black" font-size="14.3335" font-family="Helvetica">^2 v.s. calibration factorwithout 1st binand without last bin</text>
<text xml:space="preserve" x="99.5704" y="18.0128" fill="black" font-size="14.3335" font-family="Times">&#0967;</text>
<g stroke="black" stroke-width="1" fill="none">
<line x1="56.4259" y1="208.466" x2="60.2181" y2="208.466"/><line x1="58.322" y1="206.57" x2="58.322" y2="210.362"/><line x1="56.4259" y1="206.57" x2="60.2181" y2="210.362"/><line x1="56.4259" y1="210.362" x2="60.2181" y2="206.57"/>
<line x1="60.9258" y1="225.435" x2="64.718" y2="225.435"/><line x1="62.8219" y1="223.539" x2="62.8219" y2="227.331"/><line x1="60.9258" y1="223.539" x2="64.718" y2="227.331"/><line x1="60.9258" y1="227.331" x2="64.718" y2="223.539"/>
<line x1="65.4257" y1="225.403" x2="69.2179" y2="225.403"/><line x1="67.3218" y1="223.507" x2="67.3218" y2="227.299"/><line x1="65.4257" y1="223.507" x2="69.2179" y2="227.299"/><line x1="65.4257" y1="227.299" x2="69.2179" y2="223.507"/>
<line x1="69.9256" y1="206.736" x2="73.7178" y2="206.736"/><line x1="71.8217" y1="204.84" x2="71.8217" y2="208.632"/><line x1="69.9256" y1="204.84" x2="73.7178" y2="208.632"/><line x1="69.9256" y1="208.632" x2="73.7178" y2="204.84"/>
<line x1="74.4255" y1="192.166" x2="78.2177" y2="192.166"/><line x1="76.3216" y1="190.269" x2="76.3216" y2="194.062"/><line x1="74.4255" y1="190.269" x2="78.2177" y2="194.062"/><line x1="74.4255" y1="194.062" x2="78.2177" y2="190.269"/>
<line x1="78.9254" y1="191.012" x2="82.7176" y2="191.012"/><line x1="80.8215" y1="189.116" x2="80.8215" y2="192.908"/><line x1="78.9254" y1="189.116" x2="82.7176" y2="192.908"/><line x1="78.9254" y1="192.908" x2="82.7176" y2="189.116"/>
<line x1="83.4253" y1="186.531" x2="87.2174" y2="186.531"/><line x1="85.3214" y1="184.635" x2="85.3214" y2="188.427"/><line x1="83.4253" y1="184.635" x2="87.2174" y2="188.427"/><line x1="83.4253" y1="188.427" x2="87.2174" y2="184.635"/>
<line x1="87.9252" y1="180.183" x2="91.7173" y2="180.183"/><line x1="89.8212" y1="178.287" x2="89.8212" y2="182.079"/><line x1="87.9252" y1="178.287" x2="91.7173" y2="182.079"/><line x1="87.9252" y1="182.079" x2="91.7173" y2="178.287"/>
<line x1="92.425" y1="157.317" x2="96.2172" y2="157.317"/><line x1="94.3211" y1="155.421" x2="94.3211" y2="159.214"/><line x1="92.425" y1="155.421" x2="96.2172" y2="159.214"/><line x1="92.425" y1="159.214" x2="96.2172" y2="155.421"/>
<line x1="96.9249" y1="147.318" x2="100.717" y2="147.318"/><line x1="98.821" y1="145.422" x2="98.821" y2="149.214"/><line x1="96.9249" y1="145.422" x2="100.717" y2="149.214"/><line x1="96.9249" y1="149.214" x2="100.717" y2="145.422"/>
<line x1="101.425" y1="141.115" x2="105.217" y2="141.115"/><line x1="103.321" y1="139.219" x2="103.321" y2="143.011"/><line x1="101.425" y1="139.219" x2="105.217" y2="143.011"/><line x1="101.425" y1="143.011" x2="105.217" y2="139.219"/>
<line x1="105.925" y1="134.119" x2="109.717" y2="134.119"/><line x1="107.821" y1="132.223" x2="107.821" y2="136.015"/><line x1="105.925" y1="132.223" x2="109.717" y2="136.015"/><line x1="105.925" y1="136.015" x2="109.717" y2="132.223"/>
<line x1="110.425" y1="153.542" x2="114.217" y2="153.542"/><line x1="112.321" y1="151.646" x2="112.321" y2="155.438"/><line x1="110.425" y1="151.646" x2="114.217" y2="155.438"/><line x1="110.425" y1="155.438" x2="114.217" y2="151.646"/>
<line x1="114.924" y1="161.551" x2="118.717" y2="161.551"/><line x1="116.821" y1="159.655" x2="116.821" y2="163.447"/><line x1="114.924" y1="159.655" x2="118.717" y2="163.447"/><line x1="114.924" y1="163.447" x2="118.717" y2="159.655"/>
<line x1="119.424" y1="198.204" x2="123.217" y2="198.204"/><line x1="121.32" y1="196.308" x2="121.32" y2="200.1"/><line x1="119.424" y1="196.308" x2="123.217" y2="200.1"/><line x1="119.424" y1="200.1" x2="123.217" y2="196.308"/>
<line x1="123.924" y1="195.829" x2="127.716" y2="195.829"/><line x1="125.82" y1="193.933" x2="125.82" y2="197.725"/><line x1="123.924" y1="193.933" x2="127.716" y2="197.725"/><line x1="123.924" y1="197.725" x2="127.716" y2="193.933"/>
<line x1="128.424" y1="182.499" x2="132.216" y2="182.499"/><line x1="130.32" y1="180.602" x2="130.32" y2="184.395"/><line x1="128.424" y1="180.602" x2="132.216" y2="184.395"/><line x1="128.424" y1="184.395" x2="132.216" y2="180.602"/>
<line x1="132.924" y1="209.167" x2="136.716" y2="209.167"/><line x1="134.82" y1="207.271" x2="134.82" y2="211.063"/><line x1="132.924" y1="207.271" x2="136.716" y2="211.063"/><line x1="132.924" y1="211.063" x2="136.716" y2="207.271"/>
<line x1="137.424" y1="205.743" x2="141.216" y2="205.743"/><line x1="139.32" y1="203.847" x2="139.32" y2="207.639"/><line x1="137.424" y1="203.847" x2="141.216" y2="207.639"/><line x1="137.424" y1="207.639" x2="141.216" y2="203.847"/>
<line x1="141.924" y1="204.081" x2="145.716" y2="204.081"/><line x1="143.82" y1="202.185" x2="143.82" y2="205.977"/><line x1="141.924" y1="202.185" x2="145.716" y2="205.977"/><line x1="141.924" y1="205.977" x2="145.716" y2="202.185"/>
<line x1="146.424" y1="188.066" x2="150.216" y2="188.066"/><line x1="148.32" y1="186.17" x2="148.32" y2="189.962"/><line x1="146.424" y1="186.17" x2="150.216" y2="189.962"/><line x1="146.424" y1="189.962" x2="150.216" y2="186.17"/>
<line x1="150.924" y1="201.695" x2="154.716" y2="201.695"/><line x1="152.82" y1="199.799" x2="152.82" y2="203.591"/><line x1="150.924" y1="199.799" x2="154.716" y2="203.591"/><line x1="150.924" y1="203.591" x2="154.716" y2="199.799"/>
<line x1="155.423" y1="203.828" x2="159.216" y2="203.828"/><line x1="157.32" y1="201.932" x2="157.32" y2="205.724"/><line x1="155.423" y1="201.932" x2="159.216" y2="205.724"/><line x1="155.423" y1="205.724" x2="159.216" y2="201.932"/>
<line x1="159.923" y1="212.858" x2="163.716" y2="212.858"/><line x1="161.819" y1="210.962" x2="161.819" y2="214.754"/><line x1="159.923" y1="210.962" x2="163.716" y2="214.754"/><line x1="159.923" y1="214.754" x2="163.716" y2="210.962"/>
<line x1="164.423" y1="240.256" x2="168.215" y2="240.256"/><line x1="166.319" y1="238.36" x2="166.319" y2="242.153"/><line x1="164.423" y1="238.36" x2="168.215" y2="242.153"/><line x1="164.423" y1="242.153" x2="168.215" y2="238.36"/>
<line x1="168.923" y1="227.004" x2="172.715" y2="227.004"/><line x1="170.819" y1="225.108" x2="170.819" y2="228.9"/><line x1="168.923" y1="225.108" x2="172.715" y2="228.9"/><line x1="168.923" y1="228.9" x2="172.715" y2="225.108"/>
<line x1="173.423" y1="234.889" x2="177.215" y2="234.889"/><line x1="175.319" y1="232.993" x2="175.319" y2="236.785"/><line x1="173.423" y1="232.993" x2="177.215" y2="236.785"/><line x1="173.423" y1="236.785" x2="177.215" y2="232.993"/>
<line x1="177.923" y1="218.333" x2="181.715" y2="218.333"/><line x1="179.819" y1="216.437" x2="179.819" y2="220.229"/><line x1="177.923" y1="216.437" x2="181.715" y2="220.229"/><line x1="177.923" y1="220.229" x2="181.715" y2="216.437"/>
<line x1="182.423" y1="219.814" x2="186.215" y2="219.814"/><line x1="184.319" y1="217.918" x2="184.319" y2="221.71"/><line x1="182.423" y1="217.918" x2="186.215" y2="221.71"/><line x1="182.423" y1="221.71" x2="186.215" y2="217.918"/>
<line x1="186.923" y1="229.933" x2="190.715" y2="229.933"/><line x1="188.819" y1="228.037" x2="188.819" y2="231.829"/><line x1="186.923" y1="228.037" x2="190.715" y2="231.829"/><line x1="186.923" y1="231.829" x2="190.715" y2="228.037"/>
<line x1="191.423" y1="241.697" x2="195.215" y2="241.697"/><line x1="193.319" y1="239.801" x2="193.319" y2="243.593"/><line x1="191.423" y1="239.801" x2="195.215" y2="243.593"/><line x1="191.423" y1="243.593" x2="195.215" y2="239.801"/>
<line x1="195.922" y1="247.335" x2="199.715" y2="247.335"/><line x1="197.819" y1="245.438" x2="197.819" y2="249.231"/><line x1="195.922" y1="245.438" x2="199.715" y2="249.231"/><line x1="195.922" y1="249.231" x2="199.715" y2="245.438"/>
<line x1="200.422" y1="230.509" x2="204.215" y2="230.509"/><line x1="202.318" y1="228.613" x2="202.318" y2="232.405"/><line x1="200.422" y1="228.613" x2="204.215" y2="232.405"/><line x1="200.422" y1="232.405" x2="204.215" y2="228.613"/>
<line x1="204.922" y1="247.827" x2="208.714" y2="247.827"/><line x1="206.818" y1="245.931" x2="206.818" y2="249.723"/><line x1="204.922" y1="245.931" x2="208.714" y2="249.723"/><line x1="204.922" y1="249.723" x2="208.714" y2="245.931"/>
<line x1="209.422" y1="255.056" x2="213.214" y2="255.056"/><line x1="211.318" y1="253.16" x2="211.318" y2="256.952"/><line x1="209.422" y1="253.16" x2="213.214" y2="256.952"/><line x1="209.422" y1="256.952" x2="213.214" y2="253.16"/>
<line x1="213.922" y1="243.116" x2="217.714" y2="243.116"/><line x1="215.818" y1="241.22" x2="215.818" y2="245.012"/><line x1="213.922" y1="241.22" x2="217.714" y2="245.012"/><line x1="213.922" y1="245.012" x2="217.714" y2="241.22"/>
<line x1="218.422" y1="260.588" x2="222.214" y2="260.588"/><line x1="220.318" y1="258.692" x2="220.318" y2="262.484"/><line x1="218.422" y1="258.692" x2="222.214" y2="262.484"/><line x1="218.422" y1="262.484" x2="222.214" y2="258.692"/>
<line x1="222.922" y1="265.609" x2="226.714" y2="265.609"/><line x1="224.818" y1="263.713" x2="224.818" y2="267.505"/><line x1="222.922" y1="263.713" x2="226.714" y2="267.505"/><line x1="222.922" y1="267.505" x2="226.714" y2="263.713"/>
<line x1="227.422" y1="282.089" x2="231.214" y2="282.089"/><line x1="229.318" y1="280.193" x2="229.318" y2="283.986"/><line x1="227.422" y1="280.193" x2="231.214" y2="283.986"/><line x1="227.422" y1="283.986" x2="231.214" y2="280.193"/>
<line x1="231.922" y1="285.012" x2="235.714" y2="285.012"/><line x1="233.818" y1="283.116" x2="233.818" y2="286.908"/><line x1="231.922" y1="283.116" x2="235.714" y2="286.908"/><line x1="231.922" y1="286.908" x2="235.714" y2="283.116"/>
<line x1="236.421" y1="266.677" x2="240.214" y2="266.677"/><line x1="238.318" y1="264.781" x2="238.318" y2="268.573"/><line x1="236.421" y1="264.781" x2="240.214" y2="268.573"/><line x1="236.421" y1="268.573" x2="240.214" y2="264.781"/>
<line x1="240.921" y1="275.462" x2="244.714" y2="275.462"/><line x1="242.817" y1="273.565" x2="242.817" y2="277.358"/><line x1="240.921" y1="273.565" x2="244.714" y2="277.358"/><line x1="240.921" y1="277.358" x2="244.714" y2="273.565"/>
<line x1="245.421" y1="258.979" x2="249.213" y2="258.979"/><line x1="247.317" y1="257.083" x2="247.317" y2="260.875"/><line x1="245.421" y1="257.083" x2="249.213" y2="260.875"/><line x1="245.421" y1="260.875" x2="249.213" y2="257.083"/>
<line x1="249.921" y1="263.646" x2="253.713" y2="263.646"/><line x1="251.817" y1="261.75" x2="251.817" y2="265.542"/><line x1="249.921" y1="261.75" x2="253.713" y2="265.542"/><line x1="249.921" y1="265.542" x2="253.713" y2="261.75"/>
<line x1="254.421" y1="258.34" x2="258.213" y2="258.34"/><line x1="256.317" y1="256.444" x2="256.317" y2="260.236"/><line x1="254.421" y1="256.444" x2="258.213" y2="260.236"/><line x1="254.421" y1="260.236" x2="258.213" y2="256.444"/>
<line x1="258.921" y1="237.446" x2="262.713" y2="237.446"/><line x1="260.817" y1="235.549" x2="260.817" y2="239.342"/><line x1="258.921" y1="235.549" x2="262.713" y2="239.342"/><line x1="258.921" y1="239.342" x2="262.713" y2="235.549"/>
<line x1="263.421" y1="232.537" x2="267.213" y2="232.537"/><line x1="265.317" y1="230.641" x2="265.317" y2="234.433"/><line x1="263.421" y1="230.641" x2="267.213" y2="234.433"/><line x1="263.421" y1="234.433" x2="267.213" y2="230.641"/>
<line x1="267.921" y1="251.985" x2="271.713" y2="251.985"/><line x1="269.817" y1="250.089" x2="269.817" y2="253.881"/><line x1="267.921" y1="250.089" x2="271.713" y2="253.881"/><line x1="267.921" y1="253.881" x2="271.713" y2="250.089"/>
<line x1="272.421" y1="272.575" x2="276.213" y2="272.575"/><line x1="274.317" y1="270.679" x2="274.317" y2="274.471"/><line x1="272.421" y1="270.679" x2="276.213" y2="274.471"/><line x1="272.421" y1="274.471" x2="276.213" y2="270.679"/>
<line x1="276.92" y1="302.055" x2="280.713" y2="302.055"/><line x1="278.817" y1="300.159" x2="278.817" y2="303.951"/><line x1="276.92" y1="300.159" x2="280.713" y2="303.951"/><line x1="276.92" y1="303.951" x2="280.713" y2="300.159"/>
<line x1="281.42" y1="305.876" x2="285.212" y2="305.876"/><line x1="283.316" y1="303.98" x2="283.316" y2="307.772"/><line x1="281.42" y1="303.98" x2="285.212" y2="307.772"/><line x1="281.42" y1="307.772" x2="285.212" y2="303.98"/>
<line x1="285.92" y1="305.803" x2="289.712" y2="305.803"/><line x1="287.816" y1="303.906" x2="287.816" y2="307.699"/><line x1="285.92" y1="303.906" x2="289.712" y2="307.699"/><line x1="285.92" y1="307.699" x2="289.712" y2="303.906"/>
<line x1="290.42" y1="285.204" x2="294.212" y2="285.204"/><line x1="292.316" y1="283.308" x2="292.316" y2="287.1"/><line x1="290.42" y1="283.308" x2="294.212" y2="287.1"/><line x1="290.42" y1="287.1" x2="294.212" y2="283.308"/>
<line x1="294.92" y1="292.945" x2="298.712" y2="292.945"/><line x1="296.816" y1="291.049" x2="296.816" y2="294.841"/><line x1="294.92" y1="291.049" x2="298.712" y2="294.841"/><line x1="294.92" y1="294.841" x2="298.712" y2="291.049"/>
<line x1="299.42" y1="287.089" x2="303.212" y2="287.089"/><line x1="301.316" y1="285.193" x2="301.316" y2="288.985"/><line x1="299.42" y1="285.193" x2="303.212" y2="288.985"/><line x1="299.42" y1="288.985" x2="303.212" y2="285.193"/>
<line x1="303.92" y1="249.269" x2="307.712" y2="249.269"/><line x1="305.816" y1="247.372" x2="305.816" y2="251.165"/><line x1="303.92" y1="247.372" x2="307.712" y2="251.165"/><line x1="303.92" y1="251.165" x2="307.712" y2="247.372"/>
<line x1="308.42" y1="242.006" x2="312.212" y2="242.006"/><line x1="310.316" y1="240.11" x2="310.316" y2="243.902"/><line x1="308.42" y1="240.11" x2="312.212" y2="243.902"/><line x1="308.42" y1="243.902" x2="312.212" y2="240.11"/>
<line x1="312.92" y1="225.436" x2="316.712" y2="225.436"/><line x1="314.816" y1="223.54" x2="314.816" y2="227.332"/><line x1="312.92" y1="223.54" x2="316.712" y2="227.332"/><line x1="312.92" y1="227.332" x2="316.712" y2="223.54"/>
<line x1="317.419" y1="236.657" x2="321.212" y2="236.657"/><line x1="319.315" y1="234.761" x2="319.315" y2="238.553"/><line x1="317.419" y1="234.761" x2="321.212" y2="238.553"/><line x1="317.419" y1="238.553" x2="321.212" y2="234.761"/>
<line x1="321.919" y1="229.633" x2="325.711" y2="229.633"/><line x1="323.815" y1="227.736" x2="323.815" y2="231.529"/><line x1="321.919" y1="227.736" x2="325.711" y2="231.529"/><line x1="321.919" y1="231.529" x2="325.711" y2="227.736"/>
<line x1="326.419" y1="214.393" x2="330.211" y2="214.393"/><line x1="328.315" y1="212.497" x2="328.315" y2="216.289"/><line x1="326.419" y1="212.497" x2="330.211" y2="216.289"/><line x1="326.419" y1="216.289" x2="330.211" y2="212.497"/>
<line x1="330.919" y1="245.642" x2="334.711" y2="245.642"/><line x1="332.815" y1="243.746" x2="332.815" y2="247.538"/><line x1="330.919" y1="243.746" x2="334.711" y2="247.538"/><line x1="330.919" y1="247.538" x2="334.711" y2="243.746"/>
<line x1="335.419" y1="240.09" x2="339.211" y2="240.09"/><line x1="337.315" y1="238.194" x2="337.315" y2="241.986"/><line x1="335.419" y1="238.194" x2="339.211" y2="241.986"/><line x1="335.419" y1="241.986" x2="339.211" y2="238.194"/>
<line x1="339.919" y1="209.649" x2="343.711" y2="209.649"/><line x1="341.815" y1="207.753" x2="341.815" y2="211.545"/><line x1="339.919" y1="207.753" x2="343.711" y2="211.545"/><line x1="339.919" y1="211.545" x2="343.711" y2="207.753"/>
<line x1="344.419" y1="221.013" x2="348.211" y2="221.013"/><line x1="346.315" y1="219.117" x2="346.315" y2="222.909"/><line x1="344.419" y1="219.117" x2="348.211" y2="222.909"/><line x1="344.419" y1="222.909" x2="348.211" y2="219.117"/>
<line x1="348.919" y1="227.475" x2="352.711" y2="227.475"/><line x1="350.815" y1="225.579" x2="350.815" y2="229.371"/><line x1="348.919" y1="225.579" x2="352.711" y2="229.371"/><line x1="348.919" y1="229.371" x2="352.711" y2="225.579"/>
<line x1="353.419" y1="199.144" x2="357.211" y2="199.144"/><line x1="355.315" y1="197.248" x2="355.315" y2="201.04"/><line x1="353.419" y1="197.248" x2="357.211" y2="201.04"/><line x1="353.419" y1="201.04" x2="357.211" y2="197.248"/>
<line x1="357.918" y1="158.532" x2="361.711" y2="158.532"/><line x1="359.814" y1="156.636" x2="359.814" y2="160.428"/><line x1="357.918" y1="156.636" x2="361.711" y2="160.428"/><line x1="357.918" y1="160.428" x2="361.711" y2="156.636"/>
<line x1="362.418" y1="156.345" x2="366.21" y2="156.345"/><line x1="364.314" y1="154.449" x2="364.314" y2="158.241"/><line x1="362.418" y1="154.449" x2="366.21" y2="158.241"/><line x1="362.418" y1="158.241" x2="366.21" y2="154.449"/>
<line x1="366.918" y1="144.517" x2="370.71" y2="144.517"/><line x1="368.814" y1="142.621" x2="368.814" y2="146.413"/><line x1="366.918" y1="142.621" x2="370.71" y2="146.413"/><line x1="366.918" y1="146.413" x2="370.71" y2="142.621"/>
<line x1="371.418" y1="150.482" x2="375.21" y2="150.482"/><line x1="373.314" y1="148.586" x2="373.314" y2="152.378"/><line x1="371.418" y1="148.586" x2="375.21" y2="152.378"/><line x1="371.418" y1="152.378" x2="375.21" y2="148.586"/>
<line x1="375.918" y1="128.242" x2="379.71" y2="128.242"/><line x1="377.814" y1="126.346" x2="377.814" y2="130.138"/><line x1="375.918" y1="126.346" x2="379.71" y2="130.138"/><line x1="375.918" y1="130.138" x2="379.71" y2="126.346"/>
<line x1="380.418" y1="106.611" x2="384.21" y2="106.611"/><line x1="382.314" y1="104.715" x2="382.314" y2="108.507"/><line x1="380.418" y1="104.715" x2="384.21" y2="108.507"/><line x1="380.418" y1="108.507" x2="384.21" y2="104.715"/>
<line x1="384.918" y1="106.81" x2="388.71" y2="106.81"/><line x1="386.814" y1="104.914" x2="386.814" y2="108.706"/><line x1="384.918" y1="104.914" x2="388.71" y2="108.706"/><line x1="384.918" y1="108.706" x2="388.71" y2="104.914"/>
<line x1="389.418" y1="91.2322" x2="393.21" y2="91.2322"/><line x1="391.314" y1="89.3361" x2="391.314" y2="93.1283"/><line x1="389.418" y1="89.3361" x2="393.21" y2="93.1283"/><line x1="389.418" y1="93.1283" x2="393.21" y2="89.3361"/>
<line x1="393.918" y1="86.3067" x2="397.71" y2="86.3067"/><line x1="395.814" y1="84.4106" x2="395.814" y2="88.2028"/><line x1="393.918" y1="84.4106" x2="397.71" y2="88.2028"/><line x1="393.918" y1="88.2028" x2="397.71" y2="84.4106"/>
<line x1="398.417" y1="61.1021" x2="402.21" y2="61.1021"/><line x1="400.313" y1="59.206" x2="400.313" y2="62.9982"/><line x1="398.417" y1="59.206" x2="402.21" y2="62.9982"/><line x1="398.417" y1="62.9982" x2="402.21" y2="59.206"/>
<line x1="402.917" y1="56.4009" x2="406.709" y2="56.4009"/><line x1="404.813" y1="54.5049" x2="404.813" y2="58.297"/><line x1="402.917" y1="54.5049" x2="406.709" y2="58.297"/><line x1="402.917" y1="58.297" x2="406.709" y2="54.5049"/>
<line x1="407.417" y1="58.1443" x2="411.209" y2="58.1443"/><line x1="409.313" y1="56.2482" x2="409.313" y2="60.0404"/><line x1="407.417" y1="56.2482" x2="411.209" y2="60.0404"/><line x1="407.417" y1="60.0404" x2="411.209" y2="56.2482"/>
<line x1="411.917" y1="51.0686" x2="415.709" y2="51.0686"/><line x1="413.813" y1="49.1725" x2="413.813" y2="52.9647"/><line x1="411.917" y1="49.1725" x2="415.709" y2="52.9647"/><line x1="411.917" y1="52.9647" x2="415.709" y2="49.1725"/>
<line x1="416.417" y1="70.3974" x2="420.209" y2="70.3974"/><line x1="418.313" y1="68.5013" x2="418.313" y2="72.2935"/><line x1="416.417" y1="68.5013" x2="420.209" y2="72.2935"/><line x1="416.417" y1="72.2935" x2="420.209" y2="68.5013"/>
<line x1="420.917" y1="72.3924" x2="424.709" y2="72.3924"/><line x1="422.813" y1="70.4963" x2="422.813" y2="74.2885"/><line x1="420.917" y1="70.4963" x2="424.709" y2="74.2885"/><line x1="420.917" y1="74.2885" x2="424.709" y2="70.4963"/>
<line x1="425.417" y1="72.0407" x2="429.209" y2="72.0407"/><line x1="427.313" y1="70.1446" x2="427.313" y2="73.9368"/><line x1="425.417" y1="70.1446" x2="429.209" y2="73.9368"/><line x1="425.417" y1="73.9368" x2="429.209" y2="70.1446"/>
<line x1="429.917" y1="86.879" x2="433.709" y2="86.879"/><line x1="431.813" y1="84.983" x2="431.813" y2="88.7751"/><line x1="429.917" y1="84.983" x2="433.709" y2="88.7751"/><line x1="429.917" y1="88.7751" x2="433.709" y2="84.983"/>
<line x1="434.417" y1="84.4439" x2="438.209" y2="84.4439"/><line x1="436.313" y1="82.5478" x2="436.313" y2="86.3399"/><line x1="434.417" y1="82.5478" x2="438.209" y2="86.3399"/><line x1="434.417" y1="86.3399" x2="438.209" y2="82.5478"/>
<line x1="438.916" y1="80.113" x2="442.709" y2="80.113"/><line x1="440.812" y1="78.2169" x2="440.812" y2="82.0091"/><line x1="438.916" y1="78.2169" x2="442.709" y2="82.0091"/><line x1="438.916" y1="82.0091" x2="442.709" y2="78.2169"/>
<line x1="443.416" y1="62.5926" x2="447.208" y2="62.5926"/><line x1="445.312" y1="60.6966" x2="445.312" y2="64.4887"/><line x1="443.416" y1="60.6966" x2="447.208" y2="64.4887"/><line x1="443.416" y1="64.4887" x2="447.208" y2="60.6966"/>
<line x1="447.916" y1="58.8239" x2="451.708" y2="58.8239"/><line x1="449.812" y1="56.9278" x2="449.812" y2="60.72"/><line x1="447.916" y1="56.9278" x2="451.708" y2="60.72"/><line x1="447.916" y1="60.72" x2="451.708" y2="56.9278"/>
<line x1="452.416" y1="88.3133" x2="456.208" y2="88.3133"/><line x1="454.312" y1="86.4172" x2="454.312" y2="90.2094"/><line x1="452.416" y1="86.4172" x2="456.208" y2="90.2094"/><line x1="452.416" y1="90.2094" x2="456.208" y2="86.4172"/>
<line x1="456.916" y1="103.919" x2="460.708" y2="103.919"/><line x1="458.812" y1="102.022" x2="458.812" y2="105.815"/><line x1="456.916" y1="102.022" x2="460.708" y2="105.815"/><line x1="456.916" y1="105.815" x2="460.708" y2="102.022"/>
<line x1="461.416" y1="86.456" x2="465.208" y2="86.456"/><line x1="463.312" y1="84.56" x2="463.312" y2="88.3521"/><line x1="461.416" y1="84.56" x2="465.208" y2="88.3521"/><line x1="461.416" y1="88.3521" x2="465.208" y2="84.56"/>
<line x1="465.916" y1="61.1961" x2="469.708" y2="61.1961"/><line x1="467.812" y1="59.3" x2="467.812" y2="63.0922"/><line x1="465.916" y1="59.3" x2="469.708" y2="63.0922"/><line x1="465.916" y1="63.0922" x2="469.708" y2="59.3"/>
<line x1="470.416" y1="72.3125" x2="474.208" y2="72.3125"/><line x1="472.312" y1="70.4165" x2="472.312" y2="74.2086"/><line x1="470.416" y1="70.4165" x2="474.208" y2="74.2086"/><line x1="470.416" y1="74.2086" x2="474.208" y2="70.4165"/>
<line x1="474.915" y1="100.179" x2="478.708" y2="100.179"/><line x1="476.812" y1="98.2826" x2="476.812" y2="102.075"/><line x1="474.915" y1="98.2826" x2="478.708" y2="102.075"/><line x1="474.915" y1="102.075" x2="478.708" y2="98.2826"/>
<line x1="479.415" y1="78.1142" x2="483.208" y2="78.1142"/><line x1="481.311" y1="76.2181" x2="481.311" y2="80.0103"/><line x1="479.415" y1="76.2181" x2="483.208" y2="80.0103"/><line x1="479.415" y1="80.0103" x2="483.208" y2="76.2181"/>
<line x1="483.915" y1="82.1386" x2="487.707" y2="82.1386"/><line x1="485.811" y1="80.2425" x2="485.811" y2="84.0347"/><line x1="483.915" y1="80.2425" x2="487.707" y2="84.0347"/><line x1="483.915" y1="84.0347" x2="487.707" y2="80.2425"/>
<line x1="488.415" y1="99.6816" x2="492.207" y2="99.6816"/><line x1="490.311" y1="97.7855" x2="490.311" y2="101.578"/><line x1="488.415" y1="97.7855" x2="492.207" y2="101.578"/><line x1="488.415" y1="101.578" x2="492.207" y2="97.7855"/>
<line x1="492.915" y1="84.4213" x2="496.707" y2="84.4213"/><line x1="494.811" y1="82.5252" x2="494.811" y2="86.3174"/><line x1="492.915" y1="82.5252" x2="496.707" y2="86.3174"/><line x1="492.915" y1="86.3174" x2="496.707" y2="82.5252"/>
</g>
<g stroke="black" stroke-width="1" fill="none">
<line x1="506.415" y1="42.616" x2="510.207" y2="42.616"/><line x1="508.311" y1="40.7199" x2="508.311" y2="44.5121"/><line x1="506.415" y1="40.7199" x2="510.207" y2="44.5121"/><line x1="506.415" y1="44.5121" x2="510.207" y2="40.7199"/>
</g>
<path d="M0.5,272.809h 566.929" fill="none" stroke="#0000ff"/>
<text xml:space="preserve" x="107.155" y="18.0128" fill="black" font-size="14.3335" font-family="Helvetica">^2 v.s. calibration factorwithout 1st binand without last bin</text>
<text xml:space="preserve" x="99.5704" y="18.0128" fill="black" font-size="14.3335" font-family="Times">&#0967;</text></svg>
