<?xml version="1.0" standalone="no"?>
<svg width="567.429" height="413.846" viewBox="0 0 567.429 413.846" xmlns="http://www.w3.org/2000/svg" shape-rendering="crispEdges">
<title>
figures/chi2zoomin_5PMTnpefilelist20.svg
</title>
<desc>
Creator: ROOT Version 6.18/04
CreationDate: Fri Nov  1 11:25:43 2019</desc>
<defs>
</defs>
<rect x="0.5" y="0" width="566.929" height="413.346" fill="white"/>
<rect x="57.1929" y="41.3346" width="453.543" height="330.677" fill="white"/>
<rect x="57.1929" y="41.3346" width="453.543" height="330.677" fill="none" stroke="black"/>
<path d="M57.1929,372.012h 453.543" fill="none" stroke="black"/>
<path d="M91.4203,41.3346v 330.677" fill="none" stroke="black" stroke-dasharray=" 1, 2"/>
<path d="M136.419,41.3346v 330.677" fill="none" stroke="black" stroke-dasharray=" 1, 2"/>
<path d="M181.418,41.3346v 330.677" fill="none" stroke="black" stroke-dasharray=" 1, 2"/>
<path d="M226.417,41.3346v 330.677" fill="none" stroke="black" stroke-dasharray=" 1, 2"/>
<path d="M271.416,41.3346v 330.677" fill="none" stroke="black" stroke-dasharray=" 1, 2"/>
<path d="M316.415,41.3346v 330.677" fill="none" stroke="black" stroke-dasharray=" 1, 2"/>
<path d="M361.414,41.3346v 330.677" fill="none" stroke="black" stroke-dasharray=" 1, 2"/>
<path d="M406.412,41.3346v 330.677" fill="none" stroke="black" stroke-dasharray=" 1, 2"/>
<path d="M451.411,41.3346v 330.677" fill="none" stroke="black" stroke-dasharray=" 1, 2"/>
<path d="M496.41,41.3346v 330.677" fill="none" stroke="black" stroke-dasharray=" 1, 2"/>
<path d="M91.4203,41.3346v 330.677" fill="none" stroke="black" stroke-dasharray=" 1, 2"/>
<path d="M496.41,41.3346v 330.677" fill="none" stroke="black" stroke-dasharray=" 1, 2"/>
<path d="M57.1929,372.012v -330.677" fill="none" stroke="black"/>
<path d="M57.1929,372.012h 453.543" fill="none" stroke="black"/>
<path d="M91.4203,362.091v 9.92031" fill="none" stroke="black"/>
<path d="M102.67,367.052v 4.96016" fill="none" stroke="black"/>
<path d="M113.92,367.052v 4.96016" fill="none" stroke="black"/>
<path d="M125.169,367.052v 4.96016" fill="none" stroke="black"/>
<path d="M136.419,362.091v 9.92031" fill="none" stroke="black"/>
<path d="M147.669,367.052v 4.96016" fill="none" stroke="black"/>
<path d="M158.919,367.052v 4.96016" fill="none" stroke="black"/>
<path d="M170.168,367.052v 4.96016" fill="none" stroke="black"/>
<path d="M181.418,362.091v 9.92031" fill="none" stroke="black"/>
<path d="M192.668,367.052v 4.96016" fill="none" stroke="black"/>
<path d="M203.918,367.052v 4.96016" fill="none" stroke="black"/>
<path d="M215.167,367.052v 4.96016" fill="none" stroke="black"/>
<path d="M226.417,362.091v 9.92031" fill="none" stroke="black"/>
<path d="M237.667,367.052v 4.96016" fill="none" stroke="black"/>
<path d="M248.916,367.052v 4.96016" fill="none" stroke="black"/>
<path d="M260.166,367.052v 4.96016" fill="none" stroke="black"/>
<path d="M271.416,362.091v 9.92031" fill="none" stroke="black"/>
<path d="M282.666,367.052v 4.96016" fill="none" stroke="black"/>
<path d="M293.915,367.052v 4.96016" fill="none" stroke="black"/>
<path d="M305.165,367.052v 4.96016" fill="none" stroke="black"/>
<path d="M316.415,362.091v 9.92031" fill="none" stroke="black"/>
<path d="M327.664,367.052v 4.96016" fill="none" stroke="black"/>
<path d="M338.914,367.052v 4.96016" fill="none" stroke="black"/>
<path d="M350.164,367.052v 4.96016" fill="none" stroke="black"/>
<path d="M361.414,362.091v 9.92031" fill="none" stroke="black"/>
<path d="M372.663,367.052v 4.96016" fill="none" stroke="black"/>
<path d="M383.913,367.052v 4.96016" fill="none" stroke="black"/>
<path d="M395.163,367.052v 4.96016" fill="none" stroke="black"/>
<path d="M406.412,362.091v 9.92031" fill="none" stroke="black"/>
<path d="M417.662,367.052v 4.96016" fill="none" stroke="black"/>
<path d="M428.912,367.052v 4.96016" fill="none" stroke="black"/>
<path d="M440.162,367.052v 4.96016" fill="none" stroke="black"/>
<path d="M451.411,362.091v 9.92031" fill="none" stroke="black"/>
<path d="M462.661,367.052v 4.96016" fill="none" stroke="black"/>
<path d="M473.911,367.052v 4.96016" fill="none" stroke="black"/>
<path d="M485.16,367.052v 4.96016" fill="none" stroke="black"/>
<path d="M496.41,362.091v 9.92031" fill="none" stroke="black"/>
<path d="M91.4203,362.091v 9.92031" fill="none" stroke="black"/>
<path d="M80.1706,367.052v 4.96016" fill="none" stroke="black"/>
<path d="M68.9209,367.052v 4.96016" fill="none" stroke="black"/>
<path d="M57.6712,367.052v 4.96016" fill="none" stroke="black"/>
<path d="M496.41,362.091v 9.92031" fill="none" stroke="black"/>
<path d="M507.66,367.052v 4.96016" fill="none" stroke="black"/>
<text xml:space="preserve" x="74.4473" y="385.379" fill="black" font-size="13.7726" font-family="Helvetica">1.014</text>
<text xml:space="preserve" x="119.479" y="385.379" fill="black" font-size="13.7726" font-family="Helvetica">1.016</text>
<text xml:space="preserve" x="164.511" y="385.379" fill="black" font-size="13.7726" font-family="Helvetica">1.018</text>
<text xml:space="preserve" x="213.335" y="385.379" fill="black" font-size="13.7726" font-family="Helvetica">1.02</text>
<text xml:space="preserve" x="254.575" y="385.379" fill="black" font-size="13.7726" font-family="Helvetica">1.022</text>
<text xml:space="preserve" x="299.607" y="385.379" fill="black" font-size="13.7726" font-family="Helvetica">1.024</text>
<text xml:space="preserve" x="344.639" y="385.379" fill="black" font-size="13.7726" font-family="Helvetica">1.026</text>
<text xml:space="preserve" x="389.671" y="385.379" fill="black" font-size="13.7726" font-family="Helvetica">1.028</text>
<text xml:space="preserve" x="438.495" y="385.379" fill="black" font-size="13.7726" font-family="Helvetica">1.03</text>
<text xml:space="preserve" x="479.735" y="385.379" fill="black" font-size="13.7726" font-family="Helvetica">1.032</text>
<text xml:space="preserve" x="413.372" y="400.074" fill="black" font-size="13.7726" font-family="Helvetica">calibration factor</text>
<path d="M57.1929,372.012v -330.677" fill="none" stroke="black"/>
<path d="M70.7992,361.128h -13.6063" fill="none" stroke="black"/>
<path d="M63.9961,354.515h -6.80315" fill="none" stroke="black"/>
<path d="M63.9961,347.901h -6.80315" fill="none" stroke="black"/>
<path d="M63.9961,341.288h -6.80315" fill="none" stroke="black"/>
<path d="M63.9961,334.674h -6.80315" fill="none" stroke="black"/>
<path d="M70.7992,328.061h -13.6063" fill="none" stroke="black"/>
<path d="M63.9961,321.447h -6.80315" fill="none" stroke="black"/>
<path d="M63.9961,314.834h -6.80315" fill="none" stroke="black"/>
<path d="M63.9961,308.22h -6.80315" fill="none" stroke="black"/>
<path d="M63.9961,301.607h -6.80315" fill="none" stroke="black"/>
<path d="M70.7992,294.993h -13.6063" fill="none" stroke="black"/>
<path d="M63.9961,288.379h -6.80315" fill="none" stroke="black"/>
<path d="M63.9961,281.766h -6.80315" fill="none" stroke="black"/>
<path d="M63.9961,275.152h -6.80315" fill="none" stroke="black"/>
<path d="M63.9961,268.539h -6.80315" fill="none" stroke="black"/>
<path d="M70.7992,261.925h -13.6063" fill="none" stroke="black"/>
<path d="M63.9961,255.312h -6.80315" fill="none" stroke="black"/>
<path d="M63.9961,248.698h -6.80315" fill="none" stroke="black"/>
<path d="M63.9961,242.085h -6.80315" fill="none" stroke="black"/>
<path d="M63.9961,235.471h -6.80315" fill="none" stroke="black"/>
<path d="M70.7992,228.858h -13.6063" fill="none" stroke="black"/>
<path d="M63.9961,222.244h -6.80315" fill="none" stroke="black"/>
<path d="M63.9961,215.631h -6.80315" fill="none" stroke="black"/>
<path d="M63.9961,209.017h -6.80315" fill="none" stroke="black"/>
<path d="M63.9961,202.403h -6.80315" fill="none" stroke="black"/>
<path d="M70.7992,195.79h -13.6063" fill="none" stroke="black"/>
<path d="M63.9961,189.176h -6.80315" fill="none" stroke="black"/>
<path d="M63.9961,182.563h -6.80315" fill="none" stroke="black"/>
<path d="M63.9961,175.949h -6.80315" fill="none" stroke="black"/>
<path d="M63.9961,169.336h -6.80315" fill="none" stroke="black"/>
<path d="M70.7992,162.722h -13.6063" fill="none" stroke="black"/>
<path d="M63.9961,156.109h -6.80315" fill="none" stroke="black"/>
<path d="M63.9961,149.495h -6.80315" fill="none" stroke="black"/>
<path d="M63.9961,142.882h -6.80315" fill="none" stroke="black"/>
<path d="M63.9961,136.268h -6.80315" fill="none" stroke="black"/>
<path d="M70.7992,129.654h -13.6063" fill="none" stroke="black"/>
<path d="M63.9961,123.041h -6.80315" fill="none" stroke="black"/>
<path d="M63.9961,116.427h -6.80315" fill="none" stroke="black"/>
<path d="M63.9961,109.814h -6.80315" fill="none" stroke="black"/>
<path d="M63.9961,103.2h -6.80315" fill="none" stroke="black"/>
<path d="M70.7992,96.5868h -13.6063" fill="none" stroke="black"/>
<path d="M63.9961,89.9732h -6.80315" fill="none" stroke="black"/>
<path d="M63.9961,83.3597h -6.80315" fill="none" stroke="black"/>
<path d="M63.9961,76.7462h -6.80315" fill="none" stroke="black"/>
<path d="M63.9961,70.1326h -6.80315" fill="none" stroke="black"/>
<path d="M70.7992,63.5191h -13.6063" fill="none" stroke="black"/>
<path d="M70.7992,361.128h -13.6063" fill="none" stroke="black"/>
<path d="M63.9961,367.742h -6.80315" fill="none" stroke="black"/>
<path d="M70.7992,63.5191h -13.6063" fill="none" stroke="black"/>
<path d="M63.9961,56.9055h -6.80315" fill="none" stroke="black"/>
<path d="M63.9961,50.292h -6.80315" fill="none" stroke="black"/>
<path d="M63.9961,43.6785h -6.80315" fill="none" stroke="black"/>
<text xml:space="preserve" x="32.2594" y="365.47" fill="black" font-size="13.7726" font-family="Helvetica">245</text>
<text xml:space="preserve" x="32.2594" y="332.763" fill="black" font-size="13.7726" font-family="Helvetica">246</text>
<text xml:space="preserve" x="32.2594" y="300.055" fill="black" font-size="13.7726" font-family="Helvetica">247</text>
<text xml:space="preserve" x="32.2594" y="266.4" fill="black" font-size="13.7726" font-family="Helvetica">248</text>
<text xml:space="preserve" x="32.2594" y="233.218" fill="black" font-size="13.7726" font-family="Helvetica">249</text>
<text xml:space="preserve" x="32.2594" y="200.511" fill="black" font-size="13.7726" font-family="Helvetica">250</text>
<text xml:space="preserve" x="34.6295" y="167.329" fill="black" font-size="13.7726" font-family="Helvetica">251</text>
<text xml:space="preserve" x="32.2594" y="134.148" fill="black" font-size="13.7726" font-family="Helvetica">252</text>
<text xml:space="preserve" x="32.2594" y="100.966" fill="black" font-size="13.7726" font-family="Helvetica">253</text>
<text xml:space="preserve" x="32.2594" y="68.259" fill="black" font-size="13.7726" font-family="Helvetica">254</text>
<g transform="rotate(-90,15.1947,45.98)">
<text xml:space="preserve" x="15.1947" y="45.98" fill="black" font-size="9.34839" font-family="Helvetica">2</text>
</g>
<g transform="rotate(-90,19.4608,50.2462)">
<text xml:space="preserve" x="19.4608" y="50.2462" fill="black" font-size="13.7726" font-family="Helvetica"> </text>
</g>
<g transform="rotate(-90,19.4608,57.3565)">
<text xml:space="preserve" x="19.4608" y="57.3565" fill="black" font-size="13.7726" font-family="Times">&#0967;</text>
</g>
<g stroke="black" stroke-width="1" fill="none">
<line x1="170.522" y1="92.1404" x2="174.314" y2="92.1404"/><line x1="172.418" y1="90.2443" x2="172.418" y2="94.0365"/><line x1="170.522" y1="90.2443" x2="174.314" y2="94.0365"/><line x1="170.522" y1="94.0365" x2="174.314" y2="90.2443"/>
<line x1="175.022" y1="92.1404" x2="178.814" y2="92.1404"/><line x1="176.918" y1="90.2443" x2="176.918" y2="94.0365"/><line x1="175.022" y1="90.2443" x2="178.814" y2="94.0365"/><line x1="175.022" y1="94.0365" x2="178.814" y2="90.2443"/>
<line x1="179.522" y1="92.1404" x2="183.314" y2="92.1404"/><line x1="181.418" y1="90.2443" x2="181.418" y2="94.0365"/><line x1="179.522" y1="90.2443" x2="183.314" y2="94.0365"/><line x1="179.522" y1="94.0365" x2="183.314" y2="90.2443"/>
<line x1="184.022" y1="92.1404" x2="187.814" y2="92.1404"/><line x1="185.918" y1="90.2443" x2="185.918" y2="94.0365"/><line x1="184.022" y1="90.2443" x2="187.814" y2="94.0365"/><line x1="184.022" y1="94.0365" x2="187.814" y2="90.2443"/>
<line x1="188.522" y1="92.1404" x2="192.314" y2="92.1404"/><line x1="190.418" y1="90.2443" x2="190.418" y2="94.0365"/><line x1="188.522" y1="90.2443" x2="192.314" y2="94.0365"/><line x1="188.522" y1="94.0365" x2="192.314" y2="90.2443"/>
<line x1="193.022" y1="92.1404" x2="196.814" y2="92.1404"/><line x1="194.918" y1="90.2443" x2="194.918" y2="94.0365"/><line x1="193.022" y1="90.2443" x2="196.814" y2="94.0365"/><line x1="193.022" y1="94.0365" x2="196.814" y2="90.2443"/>
<line x1="197.522" y1="84.225" x2="201.314" y2="84.225"/><line x1="199.418" y1="82.3289" x2="199.418" y2="86.1211"/><line x1="197.522" y1="82.3289" x2="201.314" y2="86.1211"/><line x1="197.522" y1="86.1211" x2="201.314" y2="82.3289"/>
<line x1="202.021" y1="84.225" x2="205.814" y2="84.225"/><line x1="203.918" y1="82.3289" x2="203.918" y2="86.1211"/><line x1="202.021" y1="82.3289" x2="205.814" y2="86.1211"/><line x1="202.021" y1="86.1211" x2="205.814" y2="82.3289"/>
<line x1="206.521" y1="84.225" x2="210.313" y2="84.225"/><line x1="208.417" y1="82.3289" x2="208.417" y2="86.1211"/><line x1="206.521" y1="82.3289" x2="210.313" y2="86.1211"/><line x1="206.521" y1="86.1211" x2="210.313" y2="82.3289"/>
<line x1="211.021" y1="84.225" x2="214.813" y2="84.225"/><line x1="212.917" y1="82.3289" x2="212.917" y2="86.1211"/><line x1="211.021" y1="82.3289" x2="214.813" y2="86.1211"/><line x1="211.021" y1="86.1211" x2="214.813" y2="82.3289"/>
<line x1="215.521" y1="84.225" x2="219.313" y2="84.225"/><line x1="217.417" y1="82.3289" x2="217.417" y2="86.1211"/><line x1="215.521" y1="82.3289" x2="219.313" y2="86.1211"/><line x1="215.521" y1="86.1211" x2="219.313" y2="82.3289"/>
<line x1="220.021" y1="84.225" x2="223.813" y2="84.225"/><line x1="221.917" y1="82.3289" x2="221.917" y2="86.1211"/><line x1="220.021" y1="82.3289" x2="223.813" y2="86.1211"/><line x1="220.021" y1="86.1211" x2="223.813" y2="82.3289"/>
<line x1="224.521" y1="69.1889" x2="228.313" y2="69.1889"/><line x1="226.417" y1="67.2928" x2="226.417" y2="71.0849"/><line x1="224.521" y1="67.2928" x2="228.313" y2="71.0849"/><line x1="224.521" y1="71.0849" x2="228.313" y2="67.2928"/>
<line x1="229.021" y1="69.1889" x2="232.813" y2="69.1889"/><line x1="230.917" y1="67.2928" x2="230.917" y2="71.0849"/><line x1="229.021" y1="67.2928" x2="232.813" y2="71.0849"/><line x1="229.021" y1="71.0849" x2="232.813" y2="67.2928"/>
<line x1="233.521" y1="131.978" x2="237.313" y2="131.978"/><line x1="235.417" y1="130.081" x2="235.417" y2="133.874"/><line x1="233.521" y1="130.081" x2="237.313" y2="133.874"/><line x1="233.521" y1="133.874" x2="237.313" y2="130.081"/>
<line x1="238.021" y1="131.978" x2="241.813" y2="131.978"/><line x1="239.917" y1="130.081" x2="239.917" y2="133.874"/><line x1="238.021" y1="130.081" x2="241.813" y2="133.874"/><line x1="238.021" y1="133.874" x2="241.813" y2="130.081"/>
<line x1="242.52" y1="187.042" x2="246.313" y2="187.042"/><line x1="244.416" y1="185.146" x2="244.416" y2="188.938"/><line x1="242.52" y1="185.146" x2="246.313" y2="188.938"/><line x1="242.52" y1="188.938" x2="246.313" y2="185.146"/>
<line x1="247.02" y1="187.042" x2="250.812" y2="187.042"/><line x1="248.916" y1="185.146" x2="248.916" y2="188.938"/><line x1="247.02" y1="185.146" x2="250.812" y2="188.938"/><line x1="247.02" y1="188.938" x2="250.812" y2="185.146"/>
<line x1="251.52" y1="187.042" x2="255.312" y2="187.042"/><line x1="253.416" y1="185.146" x2="253.416" y2="188.938"/><line x1="251.52" y1="185.146" x2="255.312" y2="188.938"/><line x1="251.52" y1="188.938" x2="255.312" y2="185.146"/>
<line x1="256.02" y1="187.042" x2="259.812" y2="187.042"/><line x1="257.916" y1="185.146" x2="257.916" y2="188.938"/><line x1="256.02" y1="185.146" x2="259.812" y2="188.938"/><line x1="256.02" y1="188.938" x2="259.812" y2="185.146"/>
<line x1="260.52" y1="234.381" x2="264.312" y2="234.381"/><line x1="262.416" y1="232.485" x2="262.416" y2="236.277"/><line x1="260.52" y1="232.485" x2="264.312" y2="236.277"/><line x1="260.52" y1="236.277" x2="264.312" y2="232.485"/>
<line x1="265.02" y1="234.381" x2="268.812" y2="234.381"/><line x1="266.916" y1="232.485" x2="266.916" y2="236.277"/><line x1="265.02" y1="232.485" x2="268.812" y2="236.277"/><line x1="265.02" y1="236.277" x2="268.812" y2="232.485"/>
<line x1="269.52" y1="234.381" x2="273.312" y2="234.381"/><line x1="271.416" y1="232.485" x2="271.416" y2="236.277"/><line x1="269.52" y1="232.485" x2="273.312" y2="236.277"/><line x1="269.52" y1="236.277" x2="273.312" y2="232.485"/>
<line x1="274.02" y1="273.993" x2="277.812" y2="273.993"/><line x1="275.916" y1="272.097" x2="275.916" y2="275.889"/><line x1="274.02" y1="272.097" x2="277.812" y2="275.889"/><line x1="274.02" y1="275.889" x2="277.812" y2="272.097"/>
<line x1="278.52" y1="273.993" x2="282.312" y2="273.993"/><line x1="280.416" y1="272.097" x2="280.416" y2="275.889"/><line x1="278.52" y1="272.097" x2="282.312" y2="275.889"/><line x1="278.52" y1="275.889" x2="282.312" y2="272.097"/>
<line x1="283.019" y1="305.876" x2="286.812" y2="305.876"/><line x1="284.915" y1="303.98" x2="284.915" y2="307.772"/><line x1="283.019" y1="303.98" x2="286.812" y2="307.772"/><line x1="283.019" y1="307.772" x2="286.812" y2="303.98"/>
<line x1="287.519" y1="305.876" x2="291.311" y2="305.876"/><line x1="289.415" y1="303.98" x2="289.415" y2="307.772"/><line x1="287.519" y1="303.98" x2="291.311" y2="307.772"/><line x1="287.519" y1="307.772" x2="291.311" y2="303.98"/>
<line x1="292.019" y1="305.876" x2="295.811" y2="305.876"/><line x1="293.915" y1="303.98" x2="293.915" y2="307.772"/><line x1="292.019" y1="303.98" x2="295.811" y2="307.772"/><line x1="292.019" y1="307.772" x2="295.811" y2="303.98"/>
<line x1="296.519" y1="305.876" x2="300.311" y2="305.876"/><line x1="298.415" y1="303.98" x2="298.415" y2="307.772"/><line x1="296.519" y1="303.98" x2="300.311" y2="307.772"/><line x1="296.519" y1="307.772" x2="300.311" y2="303.98"/>
<line x1="301.019" y1="296.135" x2="304.811" y2="296.135"/><line x1="302.915" y1="294.239" x2="302.915" y2="298.031"/><line x1="301.019" y1="294.239" x2="304.811" y2="298.031"/><line x1="301.019" y1="298.031" x2="304.811" y2="294.239"/>
<line x1="305.519" y1="296.135" x2="309.311" y2="296.135"/><line x1="307.415" y1="294.239" x2="307.415" y2="298.031"/><line x1="305.519" y1="294.239" x2="309.311" y2="298.031"/><line x1="305.519" y1="298.031" x2="309.311" y2="294.239"/>
<line x1="310.019" y1="296.135" x2="313.811" y2="296.135"/><line x1="311.915" y1="294.239" x2="311.915" y2="298.031"/><line x1="310.019" y1="294.239" x2="313.811" y2="298.031"/><line x1="310.019" y1="298.031" x2="313.811" y2="294.239"/>
<line x1="314.519" y1="296.135" x2="318.311" y2="296.135"/><line x1="316.415" y1="294.239" x2="316.415" y2="298.031"/><line x1="314.519" y1="294.239" x2="318.311" y2="298.031"/><line x1="314.519" y1="298.031" x2="318.311" y2="294.239"/>
<line x1="319.018" y1="296.135" x2="322.811" y2="296.135"/><line x1="320.915" y1="294.239" x2="320.915" y2="298.031"/><line x1="319.018" y1="294.239" x2="322.811" y2="298.031"/><line x1="319.018" y1="298.031" x2="322.811" y2="294.239"/>
<line x1="323.518" y1="296.135" x2="327.311" y2="296.135"/><line x1="325.414" y1="294.239" x2="325.414" y2="298.031"/><line x1="323.518" y1="294.239" x2="327.311" y2="298.031"/><line x1="323.518" y1="298.031" x2="327.311" y2="294.239"/>
<line x1="328.018" y1="296.135" x2="331.81" y2="296.135"/><line x1="329.914" y1="294.239" x2="329.914" y2="298.031"/><line x1="328.018" y1="294.239" x2="331.81" y2="298.031"/><line x1="328.018" y1="298.031" x2="331.81" y2="294.239"/>
<line x1="332.518" y1="296.135" x2="336.31" y2="296.135"/><line x1="334.414" y1="294.239" x2="334.414" y2="298.031"/><line x1="332.518" y1="294.239" x2="336.31" y2="298.031"/><line x1="332.518" y1="298.031" x2="336.31" y2="294.239"/>
<line x1="337.018" y1="279.278" x2="340.81" y2="279.278"/><line x1="338.914" y1="277.381" x2="338.914" y2="281.174"/><line x1="337.018" y1="277.381" x2="340.81" y2="281.174"/><line x1="337.018" y1="281.174" x2="340.81" y2="277.381"/>
<line x1="341.518" y1="279.278" x2="345.31" y2="279.278"/><line x1="343.414" y1="277.381" x2="343.414" y2="281.174"/><line x1="341.518" y1="277.381" x2="345.31" y2="281.174"/><line x1="341.518" y1="281.174" x2="345.31" y2="277.381"/>
<line x1="346.018" y1="279.278" x2="349.81" y2="279.278"/><line x1="347.914" y1="277.381" x2="347.914" y2="281.174"/><line x1="346.018" y1="277.381" x2="349.81" y2="281.174"/><line x1="346.018" y1="281.174" x2="349.81" y2="277.381"/>
<line x1="350.518" y1="255.304" x2="354.31" y2="255.304"/><line x1="352.414" y1="253.408" x2="352.414" y2="257.201"/><line x1="350.518" y1="253.408" x2="354.31" y2="257.201"/><line x1="350.518" y1="257.201" x2="354.31" y2="253.408"/>
<line x1="355.018" y1="255.304" x2="358.81" y2="255.304"/><line x1="356.914" y1="253.408" x2="356.914" y2="257.201"/><line x1="355.018" y1="253.408" x2="358.81" y2="257.201"/><line x1="355.018" y1="257.201" x2="358.81" y2="253.408"/>
<line x1="359.517" y1="255.304" x2="363.31" y2="255.304"/><line x1="361.414" y1="253.408" x2="361.414" y2="257.201"/><line x1="359.517" y1="253.408" x2="363.31" y2="257.201"/><line x1="359.517" y1="257.201" x2="363.31" y2="253.408"/>
<line x1="364.017" y1="255.304" x2="367.81" y2="255.304"/><line x1="365.913" y1="253.408" x2="365.913" y2="257.201"/><line x1="364.017" y1="253.408" x2="367.81" y2="257.201"/><line x1="364.017" y1="257.201" x2="367.81" y2="253.408"/>
<line x1="368.517" y1="255.304" x2="372.309" y2="255.304"/><line x1="370.413" y1="253.408" x2="370.413" y2="257.201"/><line x1="368.517" y1="253.408" x2="372.309" y2="257.201"/><line x1="368.517" y1="257.201" x2="372.309" y2="253.408"/>
<line x1="373.017" y1="255.304" x2="376.809" y2="255.304"/><line x1="374.913" y1="253.408" x2="374.913" y2="257.201"/><line x1="373.017" y1="253.408" x2="376.809" y2="257.201"/><line x1="373.017" y1="257.201" x2="376.809" y2="253.408"/>
<line x1="377.517" y1="255.304" x2="381.309" y2="255.304"/><line x1="379.413" y1="253.408" x2="379.413" y2="257.201"/><line x1="377.517" y1="253.408" x2="381.309" y2="257.201"/><line x1="377.517" y1="257.201" x2="381.309" y2="253.408"/>
<line x1="382.017" y1="255.304" x2="385.809" y2="255.304"/><line x1="383.913" y1="253.408" x2="383.913" y2="257.201"/><line x1="382.017" y1="253.408" x2="385.809" y2="257.201"/><line x1="382.017" y1="257.201" x2="385.809" y2="253.408"/>
<line x1="386.517" y1="255.304" x2="390.309" y2="255.304"/><line x1="388.413" y1="253.408" x2="388.413" y2="257.201"/><line x1="386.517" y1="253.408" x2="390.309" y2="257.201"/><line x1="386.517" y1="257.201" x2="390.309" y2="253.408"/>
<line x1="391.017" y1="255.304" x2="394.809" y2="255.304"/><line x1="392.913" y1="253.408" x2="392.913" y2="257.201"/><line x1="391.017" y1="253.408" x2="394.809" y2="257.201"/><line x1="391.017" y1="257.201" x2="394.809" y2="253.408"/>
<line x1="395.517" y1="224.217" x2="399.309" y2="224.217"/><line x1="397.413" y1="222.321" x2="397.413" y2="226.113"/><line x1="395.517" y1="222.321" x2="399.309" y2="226.113"/><line x1="395.517" y1="226.113" x2="399.309" y2="222.321"/>
<line x1="400.016" y1="224.217" x2="403.809" y2="224.217"/><line x1="401.913" y1="222.321" x2="401.913" y2="226.113"/><line x1="400.016" y1="222.321" x2="403.809" y2="226.113"/><line x1="400.016" y1="226.113" x2="403.809" y2="222.321"/>
<line x1="404.516" y1="224.217" x2="408.309" y2="224.217"/><line x1="406.412" y1="222.321" x2="406.412" y2="226.113"/><line x1="404.516" y1="222.321" x2="408.309" y2="226.113"/><line x1="404.516" y1="226.113" x2="408.309" y2="222.321"/>
<line x1="409.016" y1="224.217" x2="412.808" y2="224.217"/><line x1="410.912" y1="222.321" x2="410.912" y2="226.113"/><line x1="409.016" y1="222.321" x2="412.808" y2="226.113"/><line x1="409.016" y1="226.113" x2="412.808" y2="222.321"/>
<line x1="413.516" y1="224.217" x2="417.308" y2="224.217"/><line x1="415.412" y1="222.321" x2="415.412" y2="226.113"/><line x1="413.516" y1="222.321" x2="417.308" y2="226.113"/><line x1="413.516" y1="226.113" x2="417.308" y2="222.321"/>
<line x1="418.016" y1="224.217" x2="421.808" y2="224.217"/><line x1="419.912" y1="222.321" x2="419.912" y2="226.113"/><line x1="418.016" y1="222.321" x2="421.808" y2="226.113"/><line x1="418.016" y1="226.113" x2="421.808" y2="222.321"/>
<line x1="422.516" y1="224.217" x2="426.308" y2="224.217"/><line x1="424.412" y1="222.321" x2="424.412" y2="226.113"/><line x1="422.516" y1="222.321" x2="426.308" y2="226.113"/><line x1="422.516" y1="226.113" x2="426.308" y2="222.321"/>
<line x1="427.016" y1="224.217" x2="430.808" y2="224.217"/><line x1="428.912" y1="222.321" x2="428.912" y2="226.113"/><line x1="427.016" y1="222.321" x2="430.808" y2="226.113"/><line x1="427.016" y1="226.113" x2="430.808" y2="222.321"/>
<line x1="431.516" y1="224.217" x2="435.308" y2="224.217"/><line x1="433.412" y1="222.321" x2="433.412" y2="226.113"/><line x1="431.516" y1="222.321" x2="435.308" y2="226.113"/><line x1="431.516" y1="226.113" x2="435.308" y2="222.321"/>
<line x1="436.016" y1="186.016" x2="439.808" y2="186.016"/><line x1="437.912" y1="184.12" x2="437.912" y2="187.912"/><line x1="436.016" y1="184.12" x2="439.808" y2="187.912"/><line x1="436.016" y1="187.912" x2="439.808" y2="184.12"/>
<line x1="440.515" y1="186.016" x2="444.308" y2="186.016"/><line x1="442.412" y1="184.12" x2="442.412" y2="187.912"/><line x1="440.515" y1="184.12" x2="444.308" y2="187.912"/><line x1="440.515" y1="187.912" x2="444.308" y2="184.12"/>
<line x1="445.015" y1="140.703" x2="448.808" y2="140.703"/><line x1="446.911" y1="138.807" x2="446.911" y2="142.599"/><line x1="445.015" y1="138.807" x2="448.808" y2="142.599"/><line x1="445.015" y1="142.599" x2="448.808" y2="138.807"/>
<line x1="449.515" y1="140.703" x2="453.307" y2="140.703"/><line x1="451.411" y1="138.807" x2="451.411" y2="142.599"/><line x1="449.515" y1="138.807" x2="453.307" y2="142.599"/><line x1="449.515" y1="142.599" x2="453.307" y2="138.807"/>
<line x1="454.015" y1="140.703" x2="457.807" y2="140.703"/><line x1="455.911" y1="138.807" x2="455.911" y2="142.599"/><line x1="454.015" y1="138.807" x2="457.807" y2="142.599"/><line x1="454.015" y1="142.599" x2="457.807" y2="138.807"/>
<line x1="458.515" y1="140.703" x2="462.307" y2="140.703"/><line x1="460.411" y1="138.807" x2="460.411" y2="142.599"/><line x1="458.515" y1="138.807" x2="462.307" y2="142.599"/><line x1="458.515" y1="142.599" x2="462.307" y2="138.807"/>
<line x1="463.015" y1="140.703" x2="466.807" y2="140.703"/><line x1="464.911" y1="138.807" x2="464.911" y2="142.599"/><line x1="463.015" y1="138.807" x2="466.807" y2="142.599"/><line x1="463.015" y1="142.599" x2="466.807" y2="138.807"/>
<line x1="467.515" y1="140.703" x2="471.307" y2="140.703"/><line x1="469.411" y1="138.807" x2="469.411" y2="142.599"/><line x1="467.515" y1="138.807" x2="471.307" y2="142.599"/><line x1="467.515" y1="142.599" x2="471.307" y2="138.807"/>
<line x1="472.015" y1="140.703" x2="475.807" y2="140.703"/><line x1="473.911" y1="138.807" x2="473.911" y2="142.599"/><line x1="472.015" y1="138.807" x2="475.807" y2="142.599"/><line x1="472.015" y1="142.599" x2="475.807" y2="138.807"/>
<line x1="476.515" y1="140.703" x2="480.307" y2="140.703"/><line x1="478.411" y1="138.807" x2="478.411" y2="142.599"/><line x1="476.515" y1="138.807" x2="480.307" y2="142.599"/><line x1="476.515" y1="142.599" x2="480.307" y2="138.807"/>
<line x1="481.014" y1="179.753" x2="484.807" y2="179.753"/><line x1="482.911" y1="177.857" x2="482.911" y2="181.649"/><line x1="481.014" y1="177.857" x2="484.807" y2="181.649"/><line x1="481.014" y1="181.649" x2="484.807" y2="177.857"/>
<line x1="485.514" y1="179.753" x2="489.307" y2="179.753"/><line x1="487.41" y1="177.857" x2="487.41" y2="181.649"/><line x1="485.514" y1="177.857" x2="489.307" y2="181.649"/><line x1="485.514" y1="181.649" x2="489.307" y2="177.857"/>
<line x1="490.014" y1="179.753" x2="493.806" y2="179.753"/><line x1="491.91" y1="177.857" x2="491.91" y2="181.649"/><line x1="490.014" y1="177.857" x2="493.806" y2="181.649"/><line x1="490.014" y1="181.649" x2="493.806" y2="177.857"/>
<line x1="494.514" y1="211.068" x2="498.306" y2="211.068"/><line x1="496.41" y1="209.172" x2="496.41" y2="212.964"/><line x1="494.514" y1="209.172" x2="498.306" y2="212.964"/><line x1="494.514" y1="212.964" x2="498.306" y2="209.172"/>
<line x1="499.014" y1="211.068" x2="502.806" y2="211.068"/><line x1="500.91" y1="209.172" x2="500.91" y2="212.964"/><line x1="499.014" y1="209.172" x2="502.806" y2="212.964"/><line x1="499.014" y1="212.964" x2="502.806" y2="209.172"/>
<line x1="503.514" y1="211.068" x2="507.306" y2="211.068"/><line x1="505.41" y1="209.172" x2="505.41" y2="212.964"/><line x1="503.514" y1="209.172" x2="507.306" y2="212.964"/><line x1="503.514" y1="212.964" x2="507.306" y2="209.172"/>
<line x1="508.014" y1="211.068" x2="511.806" y2="211.068"/><line x1="509.91" y1="209.172" x2="509.91" y2="212.964"/><line x1="508.014" y1="209.172" x2="511.806" y2="212.964"/><line x1="508.014" y1="212.964" x2="511.806" y2="209.172"/>
</g>
<path d="M0.5,272.809h 566.929" fill="none" stroke="#0000ff"/></svg>
