<?xml version="1.0" standalone="no"?>
<svg width="567.429" height="413.846" viewBox="0 0 567.429 413.846" xmlns="http://www.w3.org/2000/svg" shape-rendering="crispEdges">
<title>
figures/chi2zoomin_6PMTnpefilelist20.svg
</title>
<desc>
Creator: ROOT Version 6.18/04
CreationDate: Fri Nov  1 11:25:48 2019</desc>
<defs>
</defs>
<rect x="0.5" y="0" width="566.929" height="413.346" fill="white"/>
<rect x="57.1929" y="41.3346" width="453.543" height="330.677" fill="white"/>
<rect x="57.1929" y="41.3346" width="453.543" height="330.677" fill="none" stroke="black"/>
<path d="M57.1929,372.012h 453.543" fill="none" stroke="black"/>
<path d="M87.6517,41.3346v 330.677" fill="none" stroke="black" stroke-dasharray=" 1, 2"/>
<path d="M132.121,41.3346v 330.677" fill="none" stroke="black" stroke-dasharray=" 1, 2"/>
<path d="M176.591,41.3346v 330.677" fill="none" stroke="black" stroke-dasharray=" 1, 2"/>
<path d="M221.06,41.3346v 330.677" fill="none" stroke="black" stroke-dasharray=" 1, 2"/>
<path d="M265.53,41.3346v 330.677" fill="none" stroke="black" stroke-dasharray=" 1, 2"/>
<path d="M309.999,41.3346v 330.677" fill="none" stroke="black" stroke-dasharray=" 1, 2"/>
<path d="M354.469,41.3346v 330.677" fill="none" stroke="black" stroke-dasharray=" 1, 2"/>
<path d="M398.938,41.3346v 330.677" fill="none" stroke="black" stroke-dasharray=" 1, 2"/>
<path d="M443.407,41.3346v 330.677" fill="none" stroke="black" stroke-dasharray=" 1, 2"/>
<path d="M487.877,41.3346v 330.677" fill="none" stroke="black" stroke-dasharray=" 1, 2"/>
<path d="M87.6517,41.3346v 330.677" fill="none" stroke="black" stroke-dasharray=" 1, 2"/>
<path d="M487.877,41.3346v 330.677" fill="none" stroke="black" stroke-dasharray=" 1, 2"/>
<path d="M57.1929,372.012v -330.677" fill="none" stroke="black"/>
<path d="M57.1929,372.012h 453.543" fill="none" stroke="black"/>
<path d="M87.6517,362.091v 9.92031" fill="none" stroke="black"/>
<path d="M98.769,367.052v 4.96016" fill="none" stroke="black"/>
<path d="M109.886,367.052v 4.96016" fill="none" stroke="black"/>
<path d="M121.004,367.052v 4.96016" fill="none" stroke="black"/>
<path d="M132.121,362.091v 9.92031" fill="none" stroke="black"/>
<path d="M143.239,367.052v 4.96016" fill="none" stroke="black"/>
<path d="M154.356,367.052v 4.96016" fill="none" stroke="black"/>
<path d="M165.473,367.052v 4.96016" fill="none" stroke="black"/>
<path d="M176.591,362.091v 9.92031" fill="none" stroke="black"/>
<path d="M187.708,367.052v 4.96016" fill="none" stroke="black"/>
<path d="M198.825,367.052v 4.96016" fill="none" stroke="black"/>
<path d="M209.943,367.052v 4.96016" fill="none" stroke="black"/>
<path d="M221.06,362.091v 9.92031" fill="none" stroke="black"/>
<path d="M232.177,367.052v 4.96016" fill="none" stroke="black"/>
<path d="M243.295,367.052v 4.96016" fill="none" stroke="black"/>
<path d="M254.412,367.052v 4.96016" fill="none" stroke="black"/>
<path d="M265.53,362.091v 9.92031" fill="none" stroke="black"/>
<path d="M276.647,367.052v 4.96016" fill="none" stroke="black"/>
<path d="M287.764,367.052v 4.96016" fill="none" stroke="black"/>
<path d="M298.882,367.052v 4.96016" fill="none" stroke="black"/>
<path d="M309.999,362.091v 9.92031" fill="none" stroke="black"/>
<path d="M321.116,367.052v 4.96016" fill="none" stroke="black"/>
<path d="M332.234,367.052v 4.96016" fill="none" stroke="black"/>
<path d="M343.351,367.052v 4.96016" fill="none" stroke="black"/>
<path d="M354.469,362.091v 9.92031" fill="none" stroke="black"/>
<path d="M365.586,367.052v 4.96016" fill="none" stroke="black"/>
<path d="M376.703,367.052v 4.96016" fill="none" stroke="black"/>
<path d="M387.821,367.052v 4.96016" fill="none" stroke="black"/>
<path d="M398.938,362.091v 9.92031" fill="none" stroke="black"/>
<path d="M410.055,367.052v 4.96016" fill="none" stroke="black"/>
<path d="M421.173,367.052v 4.96016" fill="none" stroke="black"/>
<path d="M432.29,367.052v 4.96016" fill="none" stroke="black"/>
<path d="M443.407,362.091v 9.92031" fill="none" stroke="black"/>
<path d="M454.525,367.052v 4.96016" fill="none" stroke="black"/>
<path d="M465.642,367.052v 4.96016" fill="none" stroke="black"/>
<path d="M476.76,367.052v 4.96016" fill="none" stroke="black"/>
<path d="M487.877,362.091v 9.92031" fill="none" stroke="black"/>
<path d="M87.6517,362.091v 9.92031" fill="none" stroke="black"/>
<path d="M76.5343,367.052v 4.96016" fill="none" stroke="black"/>
<path d="M65.4169,367.052v 4.96016" fill="none" stroke="black"/>
<path d="M487.877,362.091v 9.92031" fill="none" stroke="black"/>
<path d="M498.994,367.052v 4.96016" fill="none" stroke="black"/>
<path d="M510.112,367.052v 4.96016" fill="none" stroke="black"/>
<text xml:space="preserve" x="79.1875" y="385.379" fill="black" font-size="13.7726" font-family="Helvetica">1.1</text>
<text xml:space="preserve" x="115.213" y="385.379" fill="black" font-size="13.7726" font-family="Helvetica">1.102</text>
<text xml:space="preserve" x="159.771" y="385.379" fill="black" font-size="13.7726" font-family="Helvetica">1.104</text>
<text xml:space="preserve" x="204.329" y="385.379" fill="black" font-size="13.7726" font-family="Helvetica">1.106</text>
<text xml:space="preserve" x="248.887" y="385.379" fill="black" font-size="13.7726" font-family="Helvetica">1.108</text>
<text xml:space="preserve" x="297.711" y="385.379" fill="black" font-size="13.7726" font-family="Helvetica">1.11</text>
<text xml:space="preserve" x="337.529" y="385.379" fill="black" font-size="13.7726" font-family="Helvetica">1.112</text>
<text xml:space="preserve" x="382.087" y="385.379" fill="black" font-size="13.7726" font-family="Helvetica">1.114</text>
<text xml:space="preserve" x="426.645" y="385.379" fill="black" font-size="13.7726" font-family="Helvetica">1.116</text>
<text xml:space="preserve" x="471.203" y="385.379" fill="black" font-size="13.7726" font-family="Helvetica">1.118</text>
<text xml:space="preserve" x="413.372" y="400.074" fill="black" font-size="13.7726" font-family="Helvetica">calibration factor</text>
<path d="M57.1929,372.012v -330.677" fill="none" stroke="black"/>
<path d="M70.7992,355.055h -13.6063" fill="none" stroke="black"/>
<path d="M63.9961,348.441h -6.80315" fill="none" stroke="black"/>
<path d="M63.9961,341.828h -6.80315" fill="none" stroke="black"/>
<path d="M63.9961,335.214h -6.80315" fill="none" stroke="black"/>
<path d="M63.9961,328.601h -6.80315" fill="none" stroke="black"/>
<path d="M70.7992,321.987h -13.6063" fill="none" stroke="black"/>
<path d="M63.9961,315.374h -6.80315" fill="none" stroke="black"/>
<path d="M63.9961,308.76h -6.80315" fill="none" stroke="black"/>
<path d="M63.9961,302.147h -6.80315" fill="none" stroke="black"/>
<path d="M63.9961,295.533h -6.80315" fill="none" stroke="black"/>
<path d="M70.7992,288.92h -13.6063" fill="none" stroke="black"/>
<path d="M63.9961,282.306h -6.80315" fill="none" stroke="black"/>
<path d="M63.9961,275.693h -6.80315" fill="none" stroke="black"/>
<path d="M63.9961,269.079h -6.80315" fill="none" stroke="black"/>
<path d="M63.9961,262.465h -6.80315" fill="none" stroke="black"/>
<path d="M70.7992,255.852h -13.6063" fill="none" stroke="black"/>
<path d="M63.9961,249.238h -6.80315" fill="none" stroke="black"/>
<path d="M63.9961,242.625h -6.80315" fill="none" stroke="black"/>
<path d="M63.9961,236.011h -6.80315" fill="none" stroke="black"/>
<path d="M63.9961,229.398h -6.80315" fill="none" stroke="black"/>
<path d="M70.7992,222.784h -13.6063" fill="none" stroke="black"/>
<path d="M63.9961,216.171h -6.80315" fill="none" stroke="black"/>
<path d="M63.9961,209.557h -6.80315" fill="none" stroke="black"/>
<path d="M63.9961,202.944h -6.80315" fill="none" stroke="black"/>
<path d="M63.9961,196.33h -6.80315" fill="none" stroke="black"/>
<path d="M70.7992,189.717h -13.6063" fill="none" stroke="black"/>
<path d="M63.9961,183.103h -6.80315" fill="none" stroke="black"/>
<path d="M63.9961,176.489h -6.80315" fill="none" stroke="black"/>
<path d="M63.9961,169.876h -6.80315" fill="none" stroke="black"/>
<path d="M63.9961,163.262h -6.80315" fill="none" stroke="black"/>
<path d="M70.7992,156.649h -13.6063" fill="none" stroke="black"/>
<path d="M63.9961,150.035h -6.80315" fill="none" stroke="black"/>
<path d="M63.9961,143.422h -6.80315" fill="none" stroke="black"/>
<path d="M63.9961,136.808h -6.80315" fill="none" stroke="black"/>
<path d="M63.9961,130.195h -6.80315" fill="none" stroke="black"/>
<path d="M70.7992,123.581h -13.6063" fill="none" stroke="black"/>
<path d="M63.9961,116.968h -6.80315" fill="none" stroke="black"/>
<path d="M63.9961,110.354h -6.80315" fill="none" stroke="black"/>
<path d="M63.9961,103.74h -6.80315" fill="none" stroke="black"/>
<path d="M63.9961,97.1269h -6.80315" fill="none" stroke="black"/>
<path d="M70.7992,90.5134h -13.6063" fill="none" stroke="black"/>
<path d="M63.9961,83.8998h -6.80315" fill="none" stroke="black"/>
<path d="M63.9961,77.2863h -6.80315" fill="none" stroke="black"/>
<path d="M63.9961,70.6728h -6.80315" fill="none" stroke="black"/>
<path d="M63.9961,64.0592h -6.80315" fill="none" stroke="black"/>
<path d="M70.7992,57.4457h -13.6063" fill="none" stroke="black"/>
<path d="M70.7992,355.055h -13.6063" fill="none" stroke="black"/>
<path d="M63.9961,361.669h -6.80315" fill="none" stroke="black"/>
<path d="M63.9961,368.282h -6.80315" fill="none" stroke="black"/>
<path d="M70.7992,57.4457h -13.6063" fill="none" stroke="black"/>
<path d="M63.9961,50.8321h -6.80315" fill="none" stroke="black"/>
<path d="M63.9961,44.2186h -6.80315" fill="none" stroke="black"/>
<text xml:space="preserve" x="32.2594" y="359.782" fill="black" font-size="13.7726" font-family="Helvetica">175</text>
<text xml:space="preserve" x="32.2594" y="326.6" fill="black" font-size="13.7726" font-family="Helvetica">176</text>
<text xml:space="preserve" x="32.2594" y="293.893" fill="black" font-size="13.7726" font-family="Helvetica">177</text>
<text xml:space="preserve" x="32.2594" y="260.238" fill="black" font-size="13.7726" font-family="Helvetica">178</text>
<text xml:space="preserve" x="32.2594" y="227.056" fill="black" font-size="13.7726" font-family="Helvetica">179</text>
<text xml:space="preserve" x="32.2594" y="194.349" fill="black" font-size="13.7726" font-family="Helvetica">180</text>
<text xml:space="preserve" x="34.6295" y="161.167" fill="black" font-size="13.7726" font-family="Helvetica">181</text>
<text xml:space="preserve" x="32.2594" y="127.986" fill="black" font-size="13.7726" font-family="Helvetica">182</text>
<text xml:space="preserve" x="32.2594" y="94.8042" fill="black" font-size="13.7726" font-family="Helvetica">183</text>
<text xml:space="preserve" x="32.2594" y="62.0968" fill="black" font-size="13.7726" font-family="Helvetica">184</text>
<g transform="rotate(-90,15.1947,45.98)">
<text xml:space="preserve" x="15.1947" y="45.98" fill="black" font-size="9.34839" font-family="Helvetica">2</text>
</g>
<g transform="rotate(-90,19.4608,50.2462)">
<text xml:space="preserve" x="19.4608" y="50.2462" fill="black" font-size="13.7726" font-family="Helvetica"> </text>
</g>
<g transform="rotate(-90,19.4608,57.3565)">
<text xml:space="preserve" x="19.4608" y="57.3565" fill="black" font-size="13.7726" font-family="Times">&#0967;</text>
</g>
<g stroke="black" stroke-width="1" fill="none">
<line x1="121.331" y1="58.9625" x2="125.123" y2="58.9625"/><line x1="123.227" y1="57.0664" x2="123.227" y2="60.8586"/><line x1="121.331" y1="57.0664" x2="125.123" y2="60.8586"/><line x1="121.331" y1="60.8586" x2="125.123" y2="57.0664"/>
</g>
<g stroke="black" stroke-width="1" fill="none">
<line x1="130.225" y1="76.7785" x2="134.017" y2="76.7785"/><line x1="132.121" y1="74.8824" x2="132.121" y2="78.6745"/><line x1="130.225" y1="74.8824" x2="134.017" y2="78.6745"/><line x1="130.225" y1="78.6745" x2="134.017" y2="74.8824"/>
<line x1="134.672" y1="74.3709" x2="138.464" y2="74.3709"/><line x1="136.568" y1="72.4748" x2="136.568" y2="76.267"/><line x1="134.672" y1="72.4748" x2="138.464" y2="76.267"/><line x1="134.672" y1="76.267" x2="138.464" y2="72.4748"/>
</g>
<g stroke="black" stroke-width="1" fill="none">
<line x1="143.566" y1="85.3817" x2="147.358" y2="85.3817"/><line x1="145.462" y1="83.4856" x2="145.462" y2="87.2777"/><line x1="143.566" y1="83.4856" x2="147.358" y2="87.2777"/><line x1="143.566" y1="87.2777" x2="147.358" y2="83.4856"/>
</g>
<g stroke="black" stroke-width="1" fill="none">
<line x1="161.354" y1="52.791" x2="165.146" y2="52.791"/><line x1="163.25" y1="50.895" x2="163.25" y2="54.6871"/><line x1="161.354" y1="50.895" x2="165.146" y2="54.6871"/><line x1="161.354" y1="54.6871" x2="165.146" y2="50.895"/>
<line x1="165.801" y1="114.859" x2="169.593" y2="114.859"/><line x1="167.697" y1="112.962" x2="167.697" y2="116.755"/><line x1="165.801" y1="112.962" x2="169.593" y2="116.755"/><line x1="165.801" y1="116.755" x2="169.593" y2="112.962"/>
<line x1="170.248" y1="115.878" x2="174.04" y2="115.878"/><line x1="172.144" y1="113.982" x2="172.144" y2="117.774"/><line x1="170.248" y1="113.982" x2="174.04" y2="117.774"/><line x1="170.248" y1="117.774" x2="174.04" y2="113.982"/>
<line x1="174.695" y1="139.017" x2="178.487" y2="139.017"/><line x1="176.591" y1="137.121" x2="176.591" y2="140.913"/><line x1="174.695" y1="137.121" x2="178.487" y2="140.913"/><line x1="174.695" y1="140.913" x2="178.487" y2="137.121"/>
<line x1="179.141" y1="209.689" x2="182.934" y2="209.689"/><line x1="181.038" y1="207.793" x2="181.038" y2="211.585"/><line x1="179.141" y1="207.793" x2="182.934" y2="211.585"/><line x1="179.141" y1="211.585" x2="182.934" y2="207.793"/>
<line x1="183.588" y1="276.01" x2="187.381" y2="276.01"/><line x1="185.485" y1="274.113" x2="185.485" y2="277.906"/><line x1="183.588" y1="274.113" x2="187.381" y2="277.906"/><line x1="183.588" y1="277.906" x2="187.381" y2="274.113"/>
<line x1="188.035" y1="243.248" x2="191.828" y2="243.248"/><line x1="189.931" y1="241.352" x2="189.931" y2="245.144"/><line x1="188.035" y1="241.352" x2="191.828" y2="245.144"/><line x1="188.035" y1="245.144" x2="191.828" y2="241.352"/>
<line x1="192.482" y1="238.244" x2="196.274" y2="238.244"/><line x1="194.378" y1="236.348" x2="194.378" y2="240.14"/><line x1="192.482" y1="236.348" x2="196.274" y2="240.14"/><line x1="192.482" y1="240.14" x2="196.274" y2="236.348"/>
<line x1="196.929" y1="216.094" x2="200.721" y2="216.094"/><line x1="198.825" y1="214.198" x2="198.825" y2="217.99"/><line x1="196.929" y1="214.198" x2="200.721" y2="217.99"/><line x1="196.929" y1="217.99" x2="200.721" y2="214.198"/>
<line x1="201.376" y1="191.036" x2="205.168" y2="191.036"/><line x1="203.272" y1="189.139" x2="203.272" y2="192.932"/><line x1="201.376" y1="189.139" x2="205.168" y2="192.932"/><line x1="201.376" y1="192.932" x2="205.168" y2="189.139"/>
<line x1="205.823" y1="197.719" x2="209.615" y2="197.719"/><line x1="207.719" y1="195.823" x2="207.719" y2="199.615"/><line x1="205.823" y1="195.823" x2="209.615" y2="199.615"/><line x1="205.823" y1="199.615" x2="209.615" y2="195.823"/>
<line x1="210.27" y1="160.359" x2="214.062" y2="160.359"/><line x1="212.166" y1="158.463" x2="212.166" y2="162.255"/><line x1="210.27" y1="158.463" x2="214.062" y2="162.255"/><line x1="210.27" y1="162.255" x2="214.062" y2="158.463"/>
<line x1="214.717" y1="179.968" x2="218.509" y2="179.968"/><line x1="216.613" y1="178.072" x2="216.613" y2="181.864"/><line x1="214.717" y1="178.072" x2="218.509" y2="181.864"/><line x1="214.717" y1="181.864" x2="218.509" y2="178.072"/>
<line x1="219.164" y1="224.875" x2="222.956" y2="224.875"/><line x1="221.06" y1="222.979" x2="221.06" y2="226.771"/><line x1="219.164" y1="222.979" x2="222.956" y2="226.771"/><line x1="219.164" y1="226.771" x2="222.956" y2="222.979"/>
<line x1="223.611" y1="266.13" x2="227.403" y2="266.13"/><line x1="225.507" y1="264.234" x2="225.507" y2="268.026"/><line x1="223.611" y1="264.234" x2="227.403" y2="268.026"/><line x1="223.611" y1="268.026" x2="227.403" y2="264.234"/>
<line x1="228.058" y1="291.28" x2="231.85" y2="291.28"/><line x1="229.954" y1="289.384" x2="229.954" y2="293.176"/><line x1="228.058" y1="289.384" x2="231.85" y2="293.176"/><line x1="228.058" y1="293.176" x2="231.85" y2="289.384"/>
<line x1="232.505" y1="258.49" x2="236.297" y2="258.49"/><line x1="234.401" y1="256.593" x2="234.401" y2="260.386"/><line x1="232.505" y1="256.593" x2="236.297" y2="260.386"/><line x1="232.505" y1="260.386" x2="236.297" y2="256.593"/>
<line x1="236.952" y1="176.032" x2="240.744" y2="176.032"/><line x1="238.848" y1="174.136" x2="238.848" y2="177.928"/><line x1="236.952" y1="174.136" x2="240.744" y2="177.928"/><line x1="236.952" y1="177.928" x2="240.744" y2="174.136"/>
<line x1="241.399" y1="167.629" x2="245.191" y2="167.629"/><line x1="243.295" y1="165.733" x2="243.295" y2="169.525"/><line x1="241.399" y1="165.733" x2="245.191" y2="169.525"/><line x1="241.399" y1="169.525" x2="245.191" y2="165.733"/>
<line x1="245.846" y1="158.55" x2="249.638" y2="158.55"/><line x1="247.742" y1="156.654" x2="247.742" y2="160.446"/><line x1="245.846" y1="156.654" x2="249.638" y2="160.446"/><line x1="245.846" y1="160.446" x2="249.638" y2="156.654"/>
<line x1="250.293" y1="219.277" x2="254.085" y2="219.277"/><line x1="252.189" y1="217.381" x2="252.189" y2="221.173"/><line x1="250.293" y1="217.381" x2="254.085" y2="221.173"/><line x1="250.293" y1="221.173" x2="254.085" y2="217.381"/>
<line x1="254.74" y1="217.729" x2="258.532" y2="217.729"/><line x1="256.636" y1="215.833" x2="256.636" y2="219.625"/><line x1="254.74" y1="215.833" x2="258.532" y2="219.625"/><line x1="254.74" y1="219.625" x2="258.532" y2="215.833"/>
<line x1="259.187" y1="193.375" x2="262.979" y2="193.375"/><line x1="261.083" y1="191.479" x2="261.083" y2="195.271"/><line x1="259.187" y1="191.479" x2="262.979" y2="195.271"/><line x1="259.187" y1="195.271" x2="262.979" y2="191.479"/>
<line x1="263.633" y1="187.649" x2="267.426" y2="187.649"/><line x1="265.53" y1="185.753" x2="265.53" y2="189.545"/><line x1="263.633" y1="185.753" x2="267.426" y2="189.545"/><line x1="263.633" y1="189.545" x2="267.426" y2="185.753"/>
<line x1="268.08" y1="243.205" x2="271.873" y2="243.205"/><line x1="269.977" y1="241.308" x2="269.977" y2="245.101"/><line x1="268.08" y1="241.308" x2="271.873" y2="245.101"/><line x1="268.08" y1="245.101" x2="271.873" y2="241.308"/>
<line x1="272.527" y1="231.551" x2="276.32" y2="231.551"/><line x1="274.423" y1="229.655" x2="274.423" y2="233.448"/><line x1="272.527" y1="229.655" x2="276.32" y2="233.448"/><line x1="272.527" y1="233.448" x2="276.32" y2="229.655"/>
<line x1="276.974" y1="255.592" x2="280.766" y2="255.592"/><line x1="278.87" y1="253.696" x2="278.87" y2="257.488"/><line x1="276.974" y1="253.696" x2="280.766" y2="257.488"/><line x1="276.974" y1="257.488" x2="280.766" y2="253.696"/>
<line x1="281.421" y1="305.876" x2="285.213" y2="305.876"/><line x1="283.317" y1="303.98" x2="283.317" y2="307.772"/><line x1="281.421" y1="303.98" x2="285.213" y2="307.772"/><line x1="281.421" y1="307.772" x2="285.213" y2="303.98"/>
<line x1="285.868" y1="255.788" x2="289.66" y2="255.788"/><line x1="287.764" y1="253.892" x2="287.764" y2="257.684"/><line x1="285.868" y1="253.892" x2="289.66" y2="257.684"/><line x1="285.868" y1="257.684" x2="289.66" y2="253.892"/>
<line x1="290.315" y1="217.526" x2="294.107" y2="217.526"/><line x1="292.211" y1="215.63" x2="292.211" y2="219.422"/><line x1="290.315" y1="215.63" x2="294.107" y2="219.422"/><line x1="290.315" y1="219.422" x2="294.107" y2="215.63"/>
<line x1="294.762" y1="166.883" x2="298.554" y2="166.883"/><line x1="296.658" y1="164.987" x2="296.658" y2="168.779"/><line x1="294.762" y1="164.987" x2="298.554" y2="168.779"/><line x1="294.762" y1="168.779" x2="298.554" y2="164.987"/>
<line x1="299.209" y1="189.918" x2="303.001" y2="189.918"/><line x1="301.105" y1="188.022" x2="301.105" y2="191.814"/><line x1="299.209" y1="188.022" x2="303.001" y2="191.814"/><line x1="299.209" y1="191.814" x2="303.001" y2="188.022"/>
<line x1="303.656" y1="150.678" x2="307.448" y2="150.678"/><line x1="305.552" y1="148.782" x2="305.552" y2="152.574"/><line x1="303.656" y1="148.782" x2="307.448" y2="152.574"/><line x1="303.656" y1="152.574" x2="307.448" y2="148.782"/>
<line x1="308.103" y1="103.573" x2="311.895" y2="103.573"/><line x1="309.999" y1="101.677" x2="309.999" y2="105.469"/><line x1="308.103" y1="101.677" x2="311.895" y2="105.469"/><line x1="308.103" y1="105.469" x2="311.895" y2="101.677"/>
<line x1="312.55" y1="136.17" x2="316.342" y2="136.17"/><line x1="314.446" y1="134.274" x2="314.446" y2="138.066"/><line x1="312.55" y1="134.274" x2="316.342" y2="138.066"/><line x1="312.55" y1="138.066" x2="316.342" y2="134.274"/>
<line x1="316.997" y1="125.308" x2="320.789" y2="125.308"/><line x1="318.893" y1="123.412" x2="318.893" y2="127.204"/><line x1="316.997" y1="123.412" x2="320.789" y2="127.204"/><line x1="316.997" y1="127.204" x2="320.789" y2="123.412"/>
<line x1="321.444" y1="186.808" x2="325.236" y2="186.808"/><line x1="323.34" y1="184.912" x2="323.34" y2="188.705"/><line x1="321.444" y1="184.912" x2="325.236" y2="188.705"/><line x1="321.444" y1="188.705" x2="325.236" y2="184.912"/>
<line x1="325.891" y1="158.281" x2="329.683" y2="158.281"/><line x1="327.787" y1="156.385" x2="327.787" y2="160.178"/><line x1="325.891" y1="156.385" x2="329.683" y2="160.178"/><line x1="325.891" y1="160.178" x2="329.683" y2="156.385"/>
<line x1="330.338" y1="125.61" x2="334.13" y2="125.61"/><line x1="332.234" y1="123.714" x2="332.234" y2="127.506"/><line x1="330.338" y1="123.714" x2="334.13" y2="127.506"/><line x1="330.338" y1="127.506" x2="334.13" y2="123.714"/>
<line x1="334.785" y1="174.656" x2="338.577" y2="174.656"/><line x1="336.681" y1="172.76" x2="336.681" y2="176.552"/><line x1="334.785" y1="172.76" x2="338.577" y2="176.552"/><line x1="334.785" y1="176.552" x2="338.577" y2="172.76"/>
<line x1="339.232" y1="227.668" x2="343.024" y2="227.668"/><line x1="341.128" y1="225.772" x2="341.128" y2="229.564"/><line x1="339.232" y1="225.772" x2="343.024" y2="229.564"/><line x1="339.232" y1="229.564" x2="343.024" y2="225.772"/>
<line x1="343.679" y1="187.039" x2="347.471" y2="187.039"/><line x1="345.575" y1="185.143" x2="345.575" y2="188.935"/><line x1="343.679" y1="185.143" x2="347.471" y2="188.935"/><line x1="343.679" y1="188.935" x2="347.471" y2="185.143"/>
<line x1="348.125" y1="205.664" x2="351.918" y2="205.664"/><line x1="350.022" y1="203.768" x2="350.022" y2="207.56"/><line x1="348.125" y1="203.768" x2="351.918" y2="207.56"/><line x1="348.125" y1="207.56" x2="351.918" y2="203.768"/>
<line x1="352.572" y1="143.22" x2="356.365" y2="143.22"/><line x1="354.469" y1="141.324" x2="354.469" y2="145.116"/><line x1="352.572" y1="141.324" x2="356.365" y2="145.116"/><line x1="352.572" y1="145.116" x2="356.365" y2="141.324"/>
<line x1="357.019" y1="126.456" x2="360.812" y2="126.456"/><line x1="358.915" y1="124.56" x2="358.915" y2="128.352"/><line x1="357.019" y1="124.56" x2="360.812" y2="128.352"/><line x1="357.019" y1="128.352" x2="360.812" y2="124.56"/>
<line x1="361.466" y1="146.598" x2="365.259" y2="146.598"/><line x1="363.362" y1="144.702" x2="363.362" y2="148.494"/><line x1="361.466" y1="144.702" x2="365.259" y2="148.494"/><line x1="361.466" y1="148.494" x2="365.259" y2="144.702"/>
<line x1="365.913" y1="84.3567" x2="369.705" y2="84.3567"/><line x1="367.809" y1="82.4606" x2="367.809" y2="86.2528"/><line x1="365.913" y1="82.4606" x2="369.705" y2="86.2528"/><line x1="365.913" y1="86.2528" x2="369.705" y2="82.4606"/>
<line x1="370.36" y1="90.7357" x2="374.152" y2="90.7357"/><line x1="372.256" y1="88.8396" x2="372.256" y2="92.6318"/><line x1="370.36" y1="88.8396" x2="374.152" y2="92.6318"/><line x1="370.36" y1="92.6318" x2="374.152" y2="88.8396"/>
<line x1="374.807" y1="53.2794" x2="378.599" y2="53.2794"/><line x1="376.703" y1="51.3833" x2="376.703" y2="55.1755"/><line x1="374.807" y1="51.3833" x2="378.599" y2="55.1755"/><line x1="374.807" y1="55.1755" x2="378.599" y2="51.3833"/>
</g>
<path d="M0.5,272.809h 566.929" fill="none" stroke="#0000ff"/></svg>
