<?xml version="1.0" standalone="no"?>
<svg width="567.429" height="413.846" viewBox="0 0 567.429 413.846" xmlns="http://www.w3.org/2000/svg" shape-rendering="crispEdges">
<title>
figures/chi2zoomin_3PMTnpefilelist20.svg
</title>
<desc>
Creator: ROOT Version 6.18/04
CreationDate: Fri Nov  1 11:25:32 2019</desc>
<defs>
</defs>
<rect x="0.5" y="0" width="566.929" height="413.346" fill="white"/>
<rect x="57.1929" y="41.3346" width="453.543" height="330.677" fill="white"/>
<rect x="57.1929" y="41.3346" width="453.543" height="330.677" fill="none" stroke="black"/>
<path d="M57.1929,372.012h 453.543" fill="none" stroke="black"/>
<path d="M101.356,41.3346v 330.677" fill="none" stroke="black" stroke-dasharray=" 1, 2"/>
<path d="M145.825,41.3346v 330.677" fill="none" stroke="black" stroke-dasharray=" 1, 2"/>
<path d="M190.295,41.3346v 330.677" fill="none" stroke="black" stroke-dasharray=" 1, 2"/>
<path d="M234.764,41.3346v 330.677" fill="none" stroke="black" stroke-dasharray=" 1, 2"/>
<path d="M279.234,41.3346v 330.677" fill="none" stroke="black" stroke-dasharray=" 1, 2"/>
<path d="M323.703,41.3346v 330.677" fill="none" stroke="black" stroke-dasharray=" 1, 2"/>
<path d="M368.173,41.3346v 330.677" fill="none" stroke="black" stroke-dasharray=" 1, 2"/>
<path d="M412.642,41.3346v 330.677" fill="none" stroke="black" stroke-dasharray=" 1, 2"/>
<path d="M457.112,41.3346v 330.677" fill="none" stroke="black" stroke-dasharray=" 1, 2"/>
<path d="M501.581,41.3346v 330.677" fill="none" stroke="black" stroke-dasharray=" 1, 2"/>
<path d="M101.356,41.3346v 330.677" fill="none" stroke="black" stroke-dasharray=" 1, 2"/>
<path d="M501.581,41.3346v 330.677" fill="none" stroke="black" stroke-dasharray=" 1, 2"/>
<path d="M57.1929,372.012v -330.677" fill="none" stroke="black"/>
<path d="M57.1929,372.012h 453.543" fill="none" stroke="black"/>
<path d="M101.356,362.091v 9.92031" fill="none" stroke="black"/>
<path d="M112.473,367.052v 4.96016" fill="none" stroke="black"/>
<path d="M123.59,367.052v 4.96016" fill="none" stroke="black"/>
<path d="M134.708,367.052v 4.96016" fill="none" stroke="black"/>
<path d="M145.825,362.091v 9.92031" fill="none" stroke="black"/>
<path d="M156.943,367.052v 4.96016" fill="none" stroke="black"/>
<path d="M168.06,367.052v 4.96016" fill="none" stroke="black"/>
<path d="M179.177,367.052v 4.96016" fill="none" stroke="black"/>
<path d="M190.295,362.091v 9.92031" fill="none" stroke="black"/>
<path d="M201.412,367.052v 4.96016" fill="none" stroke="black"/>
<path d="M212.529,367.052v 4.96016" fill="none" stroke="black"/>
<path d="M223.647,367.052v 4.96016" fill="none" stroke="black"/>
<path d="M234.764,362.091v 9.92031" fill="none" stroke="black"/>
<path d="M245.882,367.052v 4.96016" fill="none" stroke="black"/>
<path d="M256.999,367.052v 4.96016" fill="none" stroke="black"/>
<path d="M268.116,367.052v 4.96016" fill="none" stroke="black"/>
<path d="M279.234,362.091v 9.92031" fill="none" stroke="black"/>
<path d="M290.351,367.052v 4.96016" fill="none" stroke="black"/>
<path d="M301.468,367.052v 4.96016" fill="none" stroke="black"/>
<path d="M312.586,367.052v 4.96016" fill="none" stroke="black"/>
<path d="M323.703,362.091v 9.92031" fill="none" stroke="black"/>
<path d="M334.82,367.052v 4.96016" fill="none" stroke="black"/>
<path d="M345.938,367.052v 4.96016" fill="none" stroke="black"/>
<path d="M357.055,367.052v 4.96016" fill="none" stroke="black"/>
<path d="M368.173,362.091v 9.92031" fill="none" stroke="black"/>
<path d="M379.29,367.052v 4.96016" fill="none" stroke="black"/>
<path d="M390.407,367.052v 4.96016" fill="none" stroke="black"/>
<path d="M401.525,367.052v 4.96016" fill="none" stroke="black"/>
<path d="M412.642,362.091v 9.92031" fill="none" stroke="black"/>
<path d="M423.759,367.052v 4.96016" fill="none" stroke="black"/>
<path d="M434.877,367.052v 4.96016" fill="none" stroke="black"/>
<path d="M445.994,367.052v 4.96016" fill="none" stroke="black"/>
<path d="M457.112,362.091v 9.92031" fill="none" stroke="black"/>
<path d="M468.229,367.052v 4.96016" fill="none" stroke="black"/>
<path d="M479.346,367.052v 4.96016" fill="none" stroke="black"/>
<path d="M490.464,367.052v 4.96016" fill="none" stroke="black"/>
<path d="M501.581,362.091v 9.92031" fill="none" stroke="black"/>
<path d="M101.356,362.091v 9.92031" fill="none" stroke="black"/>
<path d="M90.2384,367.052v 4.96016" fill="none" stroke="black"/>
<path d="M79.121,367.052v 4.96016" fill="none" stroke="black"/>
<path d="M68.0036,367.052v 4.96016" fill="none" stroke="black"/>
<path d="M501.581,362.091v 9.92031" fill="none" stroke="black"/>
<text xml:space="preserve" x="84.4017" y="385.379" fill="black" font-size="13.7726" font-family="Helvetica">0.864</text>
<text xml:space="preserve" x="128.96" y="385.379" fill="black" font-size="13.7726" font-family="Helvetica">0.866</text>
<text xml:space="preserve" x="173.518" y="385.379" fill="black" font-size="13.7726" font-family="Helvetica">0.868</text>
<text xml:space="preserve" x="221.868" y="385.379" fill="black" font-size="13.7726" font-family="Helvetica">0.87</text>
<text xml:space="preserve" x="262.634" y="385.379" fill="black" font-size="13.7726" font-family="Helvetica">0.872</text>
<text xml:space="preserve" x="306.718" y="385.379" fill="black" font-size="13.7726" font-family="Helvetica">0.874</text>
<text xml:space="preserve" x="351.276" y="385.379" fill="black" font-size="13.7726" font-family="Helvetica">0.876</text>
<text xml:space="preserve" x="395.834" y="385.379" fill="black" font-size="13.7726" font-family="Helvetica">0.878</text>
<text xml:space="preserve" x="444.184" y="385.379" fill="black" font-size="13.7726" font-family="Helvetica">0.88</text>
<text xml:space="preserve" x="484.949" y="385.379" fill="black" font-size="13.7726" font-family="Helvetica">0.882</text>
<text xml:space="preserve" x="413.372" y="400.074" fill="black" font-size="13.7726" font-family="Helvetica">calibration factor</text>
<path d="M57.1929,372.012v -330.677" fill="none" stroke="black"/>
<path d="M70.7992,346.416h -13.6063" fill="none" stroke="black"/>
<path d="M63.9961,339.802h -6.80315" fill="none" stroke="black"/>
<path d="M63.9961,333.189h -6.80315" fill="none" stroke="black"/>
<path d="M63.9961,326.575h -6.80315" fill="none" stroke="black"/>
<path d="M63.9961,319.962h -6.80315" fill="none" stroke="black"/>
<path d="M70.7992,313.348h -13.6063" fill="none" stroke="black"/>
<path d="M63.9961,306.734h -6.80315" fill="none" stroke="black"/>
<path d="M63.9961,300.121h -6.80315" fill="none" stroke="black"/>
<path d="M63.9961,293.507h -6.80315" fill="none" stroke="black"/>
<path d="M63.9961,286.894h -6.80315" fill="none" stroke="black"/>
<path d="M70.7992,280.28h -13.6063" fill="none" stroke="black"/>
<path d="M63.9961,273.667h -6.80315" fill="none" stroke="black"/>
<path d="M63.9961,267.053h -6.80315" fill="none" stroke="black"/>
<path d="M63.9961,260.44h -6.80315" fill="none" stroke="black"/>
<path d="M63.9961,253.826h -6.80315" fill="none" stroke="black"/>
<path d="M70.7992,247.213h -13.6063" fill="none" stroke="black"/>
<path d="M63.9961,240.599h -6.80315" fill="none" stroke="black"/>
<path d="M63.9961,233.986h -6.80315" fill="none" stroke="black"/>
<path d="M63.9961,227.372h -6.80315" fill="none" stroke="black"/>
<path d="M63.9961,220.758h -6.80315" fill="none" stroke="black"/>
<path d="M70.7992,214.145h -13.6063" fill="none" stroke="black"/>
<path d="M63.9961,207.531h -6.80315" fill="none" stroke="black"/>
<path d="M63.9961,200.918h -6.80315" fill="none" stroke="black"/>
<path d="M63.9961,194.304h -6.80315" fill="none" stroke="black"/>
<path d="M63.9961,187.691h -6.80315" fill="none" stroke="black"/>
<path d="M70.7992,181.077h -13.6063" fill="none" stroke="black"/>
<path d="M63.9961,174.464h -6.80315" fill="none" stroke="black"/>
<path d="M63.9961,167.85h -6.80315" fill="none" stroke="black"/>
<path d="M63.9961,161.237h -6.80315" fill="none" stroke="black"/>
<path d="M63.9961,154.623h -6.80315" fill="none" stroke="black"/>
<path d="M70.7992,148.009h -13.6063" fill="none" stroke="black"/>
<path d="M63.9961,141.396h -6.80315" fill="none" stroke="black"/>
<path d="M63.9961,134.782h -6.80315" fill="none" stroke="black"/>
<path d="M63.9961,128.169h -6.80315" fill="none" stroke="black"/>
<path d="M63.9961,121.555h -6.80315" fill="none" stroke="black"/>
<path d="M70.7992,114.942h -13.6063" fill="none" stroke="black"/>
<path d="M63.9961,108.328h -6.80315" fill="none" stroke="black"/>
<path d="M63.9961,101.715h -6.80315" fill="none" stroke="black"/>
<path d="M63.9961,95.1012h -6.80315" fill="none" stroke="black"/>
<path d="M63.9961,88.4876h -6.80315" fill="none" stroke="black"/>
<path d="M70.7992,81.8741h -13.6063" fill="none" stroke="black"/>
<path d="M63.9961,75.2605h -6.80315" fill="none" stroke="black"/>
<path d="M63.9961,68.647h -6.80315" fill="none" stroke="black"/>
<path d="M63.9961,62.0334h -6.80315" fill="none" stroke="black"/>
<path d="M63.9961,55.4199h -6.80315" fill="none" stroke="black"/>
<path d="M70.7992,48.8064h -13.6063" fill="none" stroke="black"/>
<path d="M70.7992,346.416h -13.6063" fill="none" stroke="black"/>
<path d="M63.9961,353.029h -6.80315" fill="none" stroke="black"/>
<path d="M63.9961,359.643h -6.80315" fill="none" stroke="black"/>
<path d="M63.9961,366.256h -6.80315" fill="none" stroke="black"/>
<path d="M70.7992,48.8064h -13.6063" fill="none" stroke="black"/>
<path d="M63.9961,42.1928h -6.80315" fill="none" stroke="black"/>
<text xml:space="preserve" x="32.2594" y="350.776" fill="black" font-size="13.7726" font-family="Helvetica">345</text>
<text xml:space="preserve" x="32.2594" y="318.068" fill="black" font-size="13.7726" font-family="Helvetica">346</text>
<text xml:space="preserve" x="32.2594" y="284.887" fill="black" font-size="13.7726" font-family="Helvetica">347</text>
<text xml:space="preserve" x="32.2594" y="251.705" fill="black" font-size="13.7726" font-family="Helvetica">348</text>
<text xml:space="preserve" x="32.2594" y="218.524" fill="black" font-size="13.7726" font-family="Helvetica">349</text>
<text xml:space="preserve" x="32.2594" y="185.816" fill="black" font-size="13.7726" font-family="Helvetica">350</text>
<text xml:space="preserve" x="34.6295" y="152.635" fill="black" font-size="13.7726" font-family="Helvetica">351</text>
<text xml:space="preserve" x="32.2594" y="119.453" fill="black" font-size="13.7726" font-family="Helvetica">352</text>
<text xml:space="preserve" x="32.2594" y="86.2718" fill="black" font-size="13.7726" font-family="Helvetica">353</text>
<text xml:space="preserve" x="32.2594" y="53.0904" fill="black" font-size="13.7726" font-family="Helvetica">354</text>
<g transform="rotate(-90,15.1947,45.98)">
<text xml:space="preserve" x="15.1947" y="45.98" fill="black" font-size="9.34839" font-family="Helvetica">2</text>
</g>
<g transform="rotate(-90,19.4608,50.2462)">
<text xml:space="preserve" x="19.4608" y="50.2462" fill="black" font-size="13.7726" font-family="Helvetica"> </text>
</g>
<g transform="rotate(-90,19.4608,57.3565)">
<text xml:space="preserve" x="19.4608" y="57.3565" fill="black" font-size="13.7726" font-family="Times">&#0967;</text>
</g>
<g stroke="black" stroke-width="1" fill="none">
<line x1="59.4371" y1="197.485" x2="63.2293" y2="197.485"/><line x1="61.3332" y1="195.589" x2="61.3332" y2="199.381"/><line x1="59.4371" y1="195.589" x2="63.2293" y2="199.381"/><line x1="59.4371" y1="199.381" x2="63.2293" y2="195.589"/>
<line x1="63.8841" y1="193.803" x2="67.6762" y2="193.803"/><line x1="65.7802" y1="191.907" x2="65.7802" y2="195.699"/><line x1="63.8841" y1="191.907" x2="67.6762" y2="195.699"/><line x1="63.8841" y1="195.699" x2="67.6762" y2="191.907"/>
<line x1="68.331" y1="195.636" x2="72.1232" y2="195.636"/><line x1="70.2271" y1="193.74" x2="70.2271" y2="197.532"/><line x1="68.331" y1="193.74" x2="72.1232" y2="197.532"/><line x1="68.331" y1="197.532" x2="72.1232" y2="193.74"/>
<line x1="72.778" y1="204.937" x2="76.5701" y2="204.937"/><line x1="74.674" y1="203.041" x2="74.674" y2="206.833"/><line x1="72.778" y1="203.041" x2="76.5701" y2="206.833"/><line x1="72.778" y1="206.833" x2="76.5701" y2="203.041"/>
<line x1="77.2249" y1="197.885" x2="81.0171" y2="197.885"/><line x1="79.121" y1="195.989" x2="79.121" y2="199.781"/><line x1="77.2249" y1="195.989" x2="81.0171" y2="199.781"/><line x1="77.2249" y1="199.781" x2="81.0171" y2="195.989"/>
<line x1="81.6719" y1="183.66" x2="85.464" y2="183.66"/><line x1="83.5679" y1="181.764" x2="83.5679" y2="185.556"/><line x1="81.6719" y1="181.764" x2="85.464" y2="185.556"/><line x1="81.6719" y1="185.556" x2="85.464" y2="181.764"/>
<line x1="86.1188" y1="217.256" x2="89.911" y2="217.256"/><line x1="88.0149" y1="215.36" x2="88.0149" y2="219.152"/><line x1="86.1188" y1="215.36" x2="89.911" y2="219.152"/><line x1="86.1188" y1="219.152" x2="89.911" y2="215.36"/>
<line x1="90.5658" y1="198.848" x2="94.3579" y2="198.848"/><line x1="92.4618" y1="196.952" x2="92.4618" y2="200.744"/><line x1="90.5658" y1="196.952" x2="94.3579" y2="200.744"/><line x1="90.5658" y1="200.744" x2="94.3579" y2="196.952"/>
<line x1="95.0127" y1="191.858" x2="98.8049" y2="191.858"/><line x1="96.9088" y1="189.962" x2="96.9088" y2="193.754"/><line x1="95.0127" y1="189.962" x2="98.8049" y2="193.754"/><line x1="95.0127" y1="193.754" x2="98.8049" y2="189.962"/>
<line x1="99.4596" y1="169.677" x2="103.252" y2="169.677"/><line x1="101.356" y1="167.781" x2="101.356" y2="171.574"/><line x1="99.4596" y1="167.781" x2="103.252" y2="171.574"/><line x1="99.4596" y1="171.574" x2="103.252" y2="167.781"/>
<line x1="103.907" y1="148.449" x2="107.699" y2="148.449"/><line x1="105.803" y1="146.553" x2="105.803" y2="150.345"/><line x1="103.907" y1="146.553" x2="107.699" y2="150.345"/><line x1="103.907" y1="150.345" x2="107.699" y2="146.553"/>
<line x1="108.354" y1="151.635" x2="112.146" y2="151.635"/><line x1="110.25" y1="149.739" x2="110.25" y2="153.531"/><line x1="108.354" y1="149.739" x2="112.146" y2="153.531"/><line x1="108.354" y1="153.531" x2="112.146" y2="149.739"/>
<line x1="112.8" y1="135.978" x2="116.593" y2="135.978"/><line x1="114.697" y1="134.082" x2="114.697" y2="137.874"/><line x1="112.8" y1="134.082" x2="116.593" y2="137.874"/><line x1="112.8" y1="137.874" x2="116.593" y2="134.082"/>
<line x1="117.247" y1="119.048" x2="121.04" y2="119.048"/><line x1="119.144" y1="117.152" x2="119.144" y2="120.944"/><line x1="117.247" y1="117.152" x2="121.04" y2="120.944"/><line x1="117.247" y1="120.944" x2="121.04" y2="117.152"/>
<line x1="121.694" y1="139.045" x2="125.487" y2="139.045"/><line x1="123.59" y1="137.149" x2="123.59" y2="140.941"/><line x1="121.694" y1="137.149" x2="125.487" y2="140.941"/><line x1="121.694" y1="140.941" x2="125.487" y2="137.149"/>
<line x1="126.141" y1="180.58" x2="129.934" y2="180.58"/><line x1="128.037" y1="178.683" x2="128.037" y2="182.476"/><line x1="126.141" y1="178.683" x2="129.934" y2="182.476"/><line x1="126.141" y1="182.476" x2="129.934" y2="178.683"/>
<line x1="130.588" y1="171.421" x2="134.38" y2="171.421"/><line x1="132.484" y1="169.525" x2="132.484" y2="173.317"/><line x1="130.588" y1="169.525" x2="134.38" y2="173.317"/><line x1="130.588" y1="173.317" x2="134.38" y2="169.525"/>
<line x1="135.035" y1="148.521" x2="138.827" y2="148.521"/><line x1="136.931" y1="146.625" x2="136.931" y2="150.417"/><line x1="135.035" y1="146.625" x2="138.827" y2="150.417"/><line x1="135.035" y1="150.417" x2="138.827" y2="146.625"/>
<line x1="139.482" y1="157.753" x2="143.274" y2="157.753"/><line x1="141.378" y1="155.857" x2="141.378" y2="159.649"/><line x1="139.482" y1="155.857" x2="143.274" y2="159.649"/><line x1="139.482" y1="159.649" x2="143.274" y2="155.857"/>
<line x1="143.929" y1="162.089" x2="147.721" y2="162.089"/><line x1="145.825" y1="160.193" x2="145.825" y2="163.985"/><line x1="143.929" y1="160.193" x2="147.721" y2="163.985"/><line x1="143.929" y1="163.985" x2="147.721" y2="160.193"/>
<line x1="148.376" y1="160.625" x2="152.168" y2="160.625"/><line x1="150.272" y1="158.729" x2="150.272" y2="162.521"/><line x1="148.376" y1="158.729" x2="152.168" y2="162.521"/><line x1="148.376" y1="162.521" x2="152.168" y2="158.729"/>
<line x1="152.823" y1="180.158" x2="156.615" y2="180.158"/><line x1="154.719" y1="178.262" x2="154.719" y2="182.054"/><line x1="152.823" y1="178.262" x2="156.615" y2="182.054"/><line x1="152.823" y1="182.054" x2="156.615" y2="178.262"/>
<line x1="157.27" y1="163.413" x2="161.062" y2="163.413"/><line x1="159.166" y1="161.517" x2="159.166" y2="165.309"/><line x1="157.27" y1="161.517" x2="161.062" y2="165.309"/><line x1="157.27" y1="165.309" x2="161.062" y2="161.517"/>
<line x1="161.717" y1="152.624" x2="165.509" y2="152.624"/><line x1="163.613" y1="150.728" x2="163.613" y2="154.52"/><line x1="161.717" y1="150.728" x2="165.509" y2="154.52"/><line x1="161.717" y1="154.52" x2="165.509" y2="150.728"/>
<line x1="166.164" y1="143.825" x2="169.956" y2="143.825"/><line x1="168.06" y1="141.929" x2="168.06" y2="145.721"/><line x1="166.164" y1="141.929" x2="169.956" y2="145.721"/><line x1="166.164" y1="145.721" x2="169.956" y2="141.929"/>
<line x1="170.611" y1="129.012" x2="174.403" y2="129.012"/><line x1="172.507" y1="127.116" x2="172.507" y2="130.908"/><line x1="170.611" y1="127.116" x2="174.403" y2="130.908"/><line x1="170.611" y1="130.908" x2="174.403" y2="127.116"/>
<line x1="175.058" y1="132.134" x2="178.85" y2="132.134"/><line x1="176.954" y1="130.238" x2="176.954" y2="134.03"/><line x1="175.058" y1="130.238" x2="178.85" y2="134.03"/><line x1="175.058" y1="134.03" x2="178.85" y2="130.238"/>
<line x1="179.505" y1="173.394" x2="183.297" y2="173.394"/><line x1="181.401" y1="171.498" x2="181.401" y2="175.29"/><line x1="179.505" y1="171.498" x2="183.297" y2="175.29"/><line x1="179.505" y1="175.29" x2="183.297" y2="171.498"/>
<line x1="183.952" y1="187.894" x2="187.744" y2="187.894"/><line x1="185.848" y1="185.998" x2="185.848" y2="189.79"/><line x1="183.952" y1="185.998" x2="187.744" y2="189.79"/><line x1="183.952" y1="189.79" x2="187.744" y2="185.998"/>
<line x1="188.399" y1="188.057" x2="192.191" y2="188.057"/><line x1="190.295" y1="186.161" x2="190.295" y2="189.953"/><line x1="188.399" y1="186.161" x2="192.191" y2="189.953"/><line x1="188.399" y1="189.953" x2="192.191" y2="186.161"/>
<line x1="192.846" y1="229.293" x2="196.638" y2="229.293"/><line x1="194.742" y1="227.397" x2="194.742" y2="231.189"/><line x1="192.846" y1="227.397" x2="196.638" y2="231.189"/><line x1="192.846" y1="231.189" x2="196.638" y2="227.397"/>
<line x1="197.292" y1="244.591" x2="201.085" y2="244.591"/><line x1="199.189" y1="242.695" x2="199.189" y2="246.487"/><line x1="197.292" y1="242.695" x2="201.085" y2="246.487"/><line x1="197.292" y1="246.487" x2="201.085" y2="242.695"/>
<line x1="201.739" y1="239.136" x2="205.532" y2="239.136"/><line x1="203.636" y1="237.24" x2="203.636" y2="241.032"/><line x1="201.739" y1="237.24" x2="205.532" y2="241.032"/><line x1="201.739" y1="241.032" x2="205.532" y2="237.24"/>
<line x1="206.186" y1="251.787" x2="209.979" y2="251.787"/><line x1="208.082" y1="249.891" x2="208.082" y2="253.683"/><line x1="206.186" y1="249.891" x2="209.979" y2="253.683"/><line x1="206.186" y1="253.683" x2="209.979" y2="249.891"/>
<line x1="210.633" y1="267.222" x2="214.426" y2="267.222"/><line x1="212.529" y1="265.326" x2="212.529" y2="269.118"/><line x1="210.633" y1="265.326" x2="214.426" y2="269.118"/><line x1="210.633" y1="269.118" x2="214.426" y2="265.326"/>
<line x1="215.08" y1="273.326" x2="218.872" y2="273.326"/><line x1="216.976" y1="271.43" x2="216.976" y2="275.222"/><line x1="215.08" y1="271.43" x2="218.872" y2="275.222"/><line x1="215.08" y1="275.222" x2="218.872" y2="271.43"/>
<line x1="219.527" y1="288.748" x2="223.319" y2="288.748"/><line x1="221.423" y1="286.852" x2="221.423" y2="290.644"/><line x1="219.527" y1="286.852" x2="223.319" y2="290.644"/><line x1="219.527" y1="290.644" x2="223.319" y2="286.852"/>
<line x1="223.974" y1="293.033" x2="227.766" y2="293.033"/><line x1="225.87" y1="291.137" x2="225.87" y2="294.929"/><line x1="223.974" y1="291.137" x2="227.766" y2="294.929"/><line x1="223.974" y1="294.929" x2="227.766" y2="291.137"/>
<line x1="228.421" y1="290.431" x2="232.213" y2="290.431"/><line x1="230.317" y1="288.535" x2="230.317" y2="292.327"/><line x1="228.421" y1="288.535" x2="232.213" y2="292.327"/><line x1="228.421" y1="292.327" x2="232.213" y2="288.535"/>
<line x1="232.868" y1="269.97" x2="236.66" y2="269.97"/><line x1="234.764" y1="268.074" x2="234.764" y2="271.866"/><line x1="232.868" y1="268.074" x2="236.66" y2="271.866"/><line x1="232.868" y1="271.866" x2="236.66" y2="268.074"/>
<line x1="237.315" y1="248.113" x2="241.107" y2="248.113"/><line x1="239.211" y1="246.217" x2="239.211" y2="250.009"/><line x1="237.315" y1="246.217" x2="241.107" y2="250.009"/><line x1="237.315" y1="250.009" x2="241.107" y2="246.217"/>
<line x1="241.762" y1="262.307" x2="245.554" y2="262.307"/><line x1="243.658" y1="260.411" x2="243.658" y2="264.203"/><line x1="241.762" y1="260.411" x2="245.554" y2="264.203"/><line x1="241.762" y1="264.203" x2="245.554" y2="260.411"/>
<line x1="246.209" y1="253.5" x2="250.001" y2="253.5"/><line x1="248.105" y1="251.604" x2="248.105" y2="255.396"/><line x1="246.209" y1="251.604" x2="250.001" y2="255.396"/><line x1="246.209" y1="255.396" x2="250.001" y2="251.604"/>
<line x1="250.656" y1="266.834" x2="254.448" y2="266.834"/><line x1="252.552" y1="264.938" x2="252.552" y2="268.73"/><line x1="250.656" y1="264.938" x2="254.448" y2="268.73"/><line x1="250.656" y1="268.73" x2="254.448" y2="264.938"/>
<line x1="255.103" y1="291.612" x2="258.895" y2="291.612"/><line x1="256.999" y1="289.716" x2="256.999" y2="293.508"/><line x1="255.103" y1="289.716" x2="258.895" y2="293.508"/><line x1="255.103" y1="293.508" x2="258.895" y2="289.716"/>
<line x1="259.55" y1="264.668" x2="263.342" y2="264.668"/><line x1="261.446" y1="262.772" x2="261.446" y2="266.564"/><line x1="259.55" y1="262.772" x2="263.342" y2="266.564"/><line x1="259.55" y1="266.564" x2="263.342" y2="262.772"/>
<line x1="263.997" y1="258.366" x2="267.789" y2="258.366"/><line x1="265.893" y1="256.47" x2="265.893" y2="260.262"/><line x1="263.997" y1="256.47" x2="267.789" y2="260.262"/><line x1="263.997" y1="260.262" x2="267.789" y2="256.47"/>
<line x1="268.444" y1="284.826" x2="272.236" y2="284.826"/><line x1="270.34" y1="282.93" x2="270.34" y2="286.723"/><line x1="268.444" y1="282.93" x2="272.236" y2="286.723"/><line x1="268.444" y1="286.723" x2="272.236" y2="282.93"/>
<line x1="272.891" y1="303.786" x2="276.683" y2="303.786"/><line x1="274.787" y1="301.89" x2="274.787" y2="305.682"/><line x1="272.891" y1="301.89" x2="276.683" y2="305.682"/><line x1="272.891" y1="305.682" x2="276.683" y2="301.89"/>
<line x1="277.338" y1="301.127" x2="281.13" y2="301.127"/><line x1="279.234" y1="299.231" x2="279.234" y2="303.023"/><line x1="277.338" y1="299.231" x2="281.13" y2="303.023"/><line x1="277.338" y1="303.023" x2="281.13" y2="299.231"/>
<line x1="281.785" y1="305.876" x2="285.577" y2="305.876"/><line x1="283.681" y1="303.98" x2="283.681" y2="307.772"/><line x1="281.785" y1="303.98" x2="285.577" y2="307.772"/><line x1="281.785" y1="307.772" x2="285.577" y2="303.98"/>
<line x1="286.231" y1="284.071" x2="290.024" y2="284.071"/><line x1="288.128" y1="282.175" x2="288.128" y2="285.967"/><line x1="286.231" y1="282.175" x2="290.024" y2="285.967"/><line x1="286.231" y1="285.967" x2="290.024" y2="282.175"/>
<line x1="290.678" y1="249.263" x2="294.471" y2="249.263"/><line x1="292.574" y1="247.367" x2="292.574" y2="251.159"/><line x1="290.678" y1="247.367" x2="294.471" y2="251.159"/><line x1="290.678" y1="251.159" x2="294.471" y2="247.367"/>
<line x1="295.125" y1="260.875" x2="298.918" y2="260.875"/><line x1="297.021" y1="258.979" x2="297.021" y2="262.771"/><line x1="295.125" y1="258.979" x2="298.918" y2="262.771"/><line x1="295.125" y1="262.771" x2="298.918" y2="258.979"/>
<line x1="299.572" y1="262.272" x2="303.364" y2="262.272"/><line x1="301.468" y1="260.376" x2="301.468" y2="264.168"/><line x1="299.572" y1="260.376" x2="303.364" y2="264.168"/><line x1="299.572" y1="264.168" x2="303.364" y2="260.376"/>
<line x1="304.019" y1="266.52" x2="307.811" y2="266.52"/><line x1="305.915" y1="264.624" x2="305.915" y2="268.416"/><line x1="304.019" y1="264.624" x2="307.811" y2="268.416"/><line x1="304.019" y1="268.416" x2="307.811" y2="264.624"/>
<line x1="308.466" y1="261.931" x2="312.258" y2="261.931"/><line x1="310.362" y1="260.034" x2="310.362" y2="263.827"/><line x1="308.466" y1="260.034" x2="312.258" y2="263.827"/><line x1="308.466" y1="263.827" x2="312.258" y2="260.034"/>
<line x1="312.913" y1="226.452" x2="316.705" y2="226.452"/><line x1="314.809" y1="224.555" x2="314.809" y2="228.348"/><line x1="312.913" y1="224.555" x2="316.705" y2="228.348"/><line x1="312.913" y1="228.348" x2="316.705" y2="224.555"/>
<line x1="317.36" y1="230.453" x2="321.152" y2="230.453"/><line x1="319.256" y1="228.557" x2="319.256" y2="232.349"/><line x1="317.36" y1="228.557" x2="321.152" y2="232.349"/><line x1="317.36" y1="232.349" x2="321.152" y2="228.557"/>
<line x1="321.807" y1="264.679" x2="325.599" y2="264.679"/><line x1="323.703" y1="262.783" x2="323.703" y2="266.575"/><line x1="321.807" y1="262.783" x2="325.599" y2="266.575"/><line x1="321.807" y1="266.575" x2="325.599" y2="262.783"/>
<line x1="326.254" y1="249.911" x2="330.046" y2="249.911"/><line x1="328.15" y1="248.015" x2="328.15" y2="251.807"/><line x1="326.254" y1="248.015" x2="330.046" y2="251.807"/><line x1="326.254" y1="251.807" x2="330.046" y2="248.015"/>
<line x1="330.701" y1="237.83" x2="334.493" y2="237.83"/><line x1="332.597" y1="235.934" x2="332.597" y2="239.726"/><line x1="330.701" y1="235.934" x2="334.493" y2="239.726"/><line x1="330.701" y1="239.726" x2="334.493" y2="235.934"/>
<line x1="335.148" y1="240.524" x2="338.94" y2="240.524"/><line x1="337.044" y1="238.628" x2="337.044" y2="242.42"/><line x1="335.148" y1="238.628" x2="338.94" y2="242.42"/><line x1="335.148" y1="242.42" x2="338.94" y2="238.628"/>
<line x1="339.595" y1="238.519" x2="343.387" y2="238.519"/><line x1="341.491" y1="236.623" x2="341.491" y2="240.415"/><line x1="339.595" y1="236.623" x2="343.387" y2="240.415"/><line x1="339.595" y1="240.415" x2="343.387" y2="236.623"/>
<line x1="344.042" y1="214.792" x2="347.834" y2="214.792"/><line x1="345.938" y1="212.896" x2="345.938" y2="216.688"/><line x1="344.042" y1="212.896" x2="347.834" y2="216.688"/><line x1="344.042" y1="216.688" x2="347.834" y2="212.896"/>
<line x1="348.489" y1="212.352" x2="352.281" y2="212.352"/><line x1="350.385" y1="210.456" x2="350.385" y2="214.248"/><line x1="348.489" y1="210.456" x2="352.281" y2="214.248"/><line x1="348.489" y1="214.248" x2="352.281" y2="210.456"/>
<line x1="352.936" y1="197.757" x2="356.728" y2="197.757"/><line x1="354.832" y1="195.861" x2="354.832" y2="199.653"/><line x1="352.936" y1="195.861" x2="356.728" y2="199.653"/><line x1="352.936" y1="199.653" x2="356.728" y2="195.861"/>
<line x1="357.383" y1="205.249" x2="361.175" y2="205.249"/><line x1="359.279" y1="203.352" x2="359.279" y2="207.145"/><line x1="357.383" y1="203.352" x2="361.175" y2="207.145"/><line x1="357.383" y1="207.145" x2="361.175" y2="203.352"/>
<line x1="361.83" y1="198.3" x2="365.622" y2="198.3"/><line x1="363.726" y1="196.404" x2="363.726" y2="200.196"/><line x1="361.83" y1="196.404" x2="365.622" y2="200.196"/><line x1="361.83" y1="200.196" x2="365.622" y2="196.404"/>
<line x1="366.277" y1="184.436" x2="370.069" y2="184.436"/><line x1="368.173" y1="182.54" x2="368.173" y2="186.332"/><line x1="366.277" y1="182.54" x2="370.069" y2="186.332"/><line x1="366.277" y1="186.332" x2="370.069" y2="182.54"/>
<line x1="370.723" y1="170.896" x2="374.516" y2="170.896"/><line x1="372.62" y1="169" x2="372.62" y2="172.792"/><line x1="370.723" y1="169" x2="374.516" y2="172.792"/><line x1="370.723" y1="172.792" x2="374.516" y2="169"/>
<line x1="375.17" y1="149.196" x2="378.963" y2="149.196"/><line x1="377.066" y1="147.3" x2="377.066" y2="151.092"/><line x1="375.17" y1="147.3" x2="378.963" y2="151.092"/><line x1="375.17" y1="151.092" x2="378.963" y2="147.3"/>
<line x1="379.617" y1="152.743" x2="383.41" y2="152.743"/><line x1="381.513" y1="150.847" x2="381.513" y2="154.639"/><line x1="379.617" y1="150.847" x2="383.41" y2="154.639"/><line x1="379.617" y1="154.639" x2="383.41" y2="150.847"/>
<line x1="384.064" y1="167.458" x2="387.856" y2="167.458"/><line x1="385.96" y1="165.562" x2="385.96" y2="169.354"/><line x1="384.064" y1="165.562" x2="387.856" y2="169.354"/><line x1="384.064" y1="169.354" x2="387.856" y2="165.562"/>
<line x1="388.511" y1="173.073" x2="392.303" y2="173.073"/><line x1="390.407" y1="171.177" x2="390.407" y2="174.969"/><line x1="388.511" y1="171.177" x2="392.303" y2="174.969"/><line x1="388.511" y1="174.969" x2="392.303" y2="171.177"/>
<line x1="392.958" y1="176.597" x2="396.75" y2="176.597"/><line x1="394.854" y1="174.701" x2="394.854" y2="178.493"/><line x1="392.958" y1="174.701" x2="396.75" y2="178.493"/><line x1="392.958" y1="178.493" x2="396.75" y2="174.701"/>
<line x1="397.405" y1="151.124" x2="401.197" y2="151.124"/><line x1="399.301" y1="149.228" x2="399.301" y2="153.02"/><line x1="397.405" y1="149.228" x2="401.197" y2="153.02"/><line x1="397.405" y1="153.02" x2="401.197" y2="149.228"/>
<line x1="401.852" y1="154.233" x2="405.644" y2="154.233"/><line x1="403.748" y1="152.337" x2="403.748" y2="156.129"/><line x1="401.852" y1="152.337" x2="405.644" y2="156.129"/><line x1="401.852" y1="156.129" x2="405.644" y2="152.337"/>
<line x1="406.299" y1="132.834" x2="410.091" y2="132.834"/><line x1="408.195" y1="130.938" x2="408.195" y2="134.73"/><line x1="406.299" y1="130.938" x2="410.091" y2="134.73"/><line x1="406.299" y1="134.73" x2="410.091" y2="130.938"/>
<line x1="410.746" y1="144.179" x2="414.538" y2="144.179"/><line x1="412.642" y1="142.283" x2="412.642" y2="146.075"/><line x1="410.746" y1="142.283" x2="414.538" y2="146.075"/><line x1="410.746" y1="146.075" x2="414.538" y2="142.283"/>
<line x1="415.193" y1="140.052" x2="418.985" y2="140.052"/><line x1="417.089" y1="138.156" x2="417.089" y2="141.949"/><line x1="415.193" y1="138.156" x2="418.985" y2="141.949"/><line x1="415.193" y1="141.949" x2="418.985" y2="138.156"/>
<line x1="419.64" y1="155.249" x2="423.432" y2="155.249"/><line x1="421.536" y1="153.352" x2="421.536" y2="157.145"/><line x1="419.64" y1="153.352" x2="423.432" y2="157.145"/><line x1="419.64" y1="157.145" x2="423.432" y2="153.352"/>
<line x1="424.087" y1="140.895" x2="427.879" y2="140.895"/><line x1="425.983" y1="138.999" x2="425.983" y2="142.791"/><line x1="424.087" y1="138.999" x2="427.879" y2="142.791"/><line x1="424.087" y1="142.791" x2="427.879" y2="138.999"/>
<line x1="428.534" y1="132.722" x2="432.326" y2="132.722"/><line x1="430.43" y1="130.826" x2="430.43" y2="134.618"/><line x1="428.534" y1="130.826" x2="432.326" y2="134.618"/><line x1="428.534" y1="134.618" x2="432.326" y2="130.826"/>
<line x1="432.981" y1="152.684" x2="436.773" y2="152.684"/><line x1="434.877" y1="150.788" x2="434.877" y2="154.581"/><line x1="432.981" y1="150.788" x2="436.773" y2="154.581"/><line x1="432.981" y1="154.581" x2="436.773" y2="150.788"/>
<line x1="437.428" y1="156.833" x2="441.22" y2="156.833"/><line x1="439.324" y1="154.936" x2="439.324" y2="158.729"/><line x1="437.428" y1="154.936" x2="441.22" y2="158.729"/><line x1="437.428" y1="158.729" x2="441.22" y2="154.936"/>
<line x1="441.875" y1="134.128" x2="445.667" y2="134.128"/><line x1="443.771" y1="132.232" x2="443.771" y2="136.024"/><line x1="441.875" y1="132.232" x2="445.667" y2="136.024"/><line x1="441.875" y1="136.024" x2="445.667" y2="132.232"/>
<line x1="446.322" y1="118.734" x2="450.114" y2="118.734"/><line x1="448.218" y1="116.838" x2="448.218" y2="120.63"/><line x1="446.322" y1="116.838" x2="450.114" y2="120.63"/><line x1="446.322" y1="120.63" x2="450.114" y2="116.838"/>
<line x1="450.769" y1="117.929" x2="454.561" y2="117.929"/><line x1="452.665" y1="116.033" x2="452.665" y2="119.825"/><line x1="450.769" y1="116.033" x2="454.561" y2="119.825"/><line x1="450.769" y1="119.825" x2="454.561" y2="116.033"/>
<line x1="455.215" y1="116.064" x2="459.008" y2="116.064"/><line x1="457.112" y1="114.168" x2="457.112" y2="117.96"/><line x1="455.215" y1="114.168" x2="459.008" y2="117.96"/><line x1="455.215" y1="117.96" x2="459.008" y2="114.168"/>
<line x1="459.662" y1="122.552" x2="463.455" y2="122.552"/><line x1="461.559" y1="120.656" x2="461.559" y2="124.448"/><line x1="459.662" y1="120.656" x2="463.455" y2="124.448"/><line x1="459.662" y1="124.448" x2="463.455" y2="120.656"/>
<line x1="464.109" y1="95.7659" x2="467.902" y2="95.7659"/><line x1="466.005" y1="93.8698" x2="466.005" y2="97.662"/><line x1="464.109" y1="93.8698" x2="467.902" y2="97.662"/><line x1="464.109" y1="97.662" x2="467.902" y2="93.8698"/>
<line x1="468.556" y1="94.8073" x2="472.348" y2="94.8073"/><line x1="470.452" y1="92.9112" x2="470.452" y2="96.7034"/><line x1="468.556" y1="92.9112" x2="472.348" y2="96.7034"/><line x1="468.556" y1="96.7034" x2="472.348" y2="92.9112"/>
<line x1="473.003" y1="112.427" x2="476.795" y2="112.427"/><line x1="474.899" y1="110.531" x2="474.899" y2="114.323"/><line x1="473.003" y1="110.531" x2="476.795" y2="114.323"/><line x1="473.003" y1="114.323" x2="476.795" y2="110.531"/>
<line x1="477.45" y1="106.787" x2="481.242" y2="106.787"/><line x1="479.346" y1="104.891" x2="479.346" y2="108.683"/><line x1="477.45" y1="104.891" x2="481.242" y2="108.683"/><line x1="477.45" y1="108.683" x2="481.242" y2="104.891"/>
<line x1="481.897" y1="78.3946" x2="485.689" y2="78.3946"/><line x1="483.793" y1="76.4985" x2="483.793" y2="80.2907"/><line x1="481.897" y1="76.4985" x2="485.689" y2="80.2907"/><line x1="481.897" y1="80.2907" x2="485.689" y2="76.4985"/>
<line x1="486.344" y1="69.9576" x2="490.136" y2="69.9576"/><line x1="488.24" y1="68.0615" x2="488.24" y2="71.8537"/><line x1="486.344" y1="68.0615" x2="490.136" y2="71.8537"/><line x1="486.344" y1="71.8537" x2="490.136" y2="68.0615"/>
</g>
<path d="M0.5,272.809h 566.929" fill="none" stroke="#0000ff"/></svg>
