<?xml version="1.0" standalone="no"?>
<svg width="567.429" height="413.846" viewBox="0 0 567.429 413.846" xmlns="http://www.w3.org/2000/svg" shape-rendering="crispEdges">
<title>
figures/chi2zoomin_0PMTnpefilelist20.svg
</title>
<desc>
Creator: ROOT Version 6.18/04
CreationDate: Fri Nov  1 11:25:16 2019</desc>
<defs>
</defs>
<rect x="0.5" y="0" width="566.929" height="413.346" fill="white"/>
<rect x="57.1929" y="41.3346" width="453.543" height="330.677" fill="white"/>
<rect x="57.1929" y="41.3346" width="453.543" height="330.677" fill="none" stroke="black"/>
<path d="M57.1929,372.012h 453.543" fill="none" stroke="black"/>
<path d="M78.5609,41.3346v 330.677" fill="none" stroke="black" stroke-dasharray=" 1, 2"/>
<path d="M123.56,41.3346v 330.677" fill="none" stroke="black" stroke-dasharray=" 1, 2"/>
<path d="M168.559,41.3346v 330.677" fill="none" stroke="black" stroke-dasharray=" 1, 2"/>
<path d="M213.558,41.3346v 330.677" fill="none" stroke="black" stroke-dasharray=" 1, 2"/>
<path d="M258.556,41.3346v 330.677" fill="none" stroke="black" stroke-dasharray=" 1, 2"/>
<path d="M303.555,41.3346v 330.677" fill="none" stroke="black" stroke-dasharray=" 1, 2"/>
<path d="M348.554,41.3346v 330.677" fill="none" stroke="black" stroke-dasharray=" 1, 2"/>
<path d="M393.553,41.3346v 330.677" fill="none" stroke="black" stroke-dasharray=" 1, 2"/>
<path d="M438.552,41.3346v 330.677" fill="none" stroke="black" stroke-dasharray=" 1, 2"/>
<path d="M483.551,41.3346v 330.677" fill="none" stroke="black" stroke-dasharray=" 1, 2"/>
<path d="M78.5609,41.3346v 330.677" fill="none" stroke="black" stroke-dasharray=" 1, 2"/>
<path d="M483.551,41.3346v 330.677" fill="none" stroke="black" stroke-dasharray=" 1, 2"/>
<path d="M57.1929,372.012v -330.677" fill="none" stroke="black"/>
<path d="M57.1929,372.012h 453.543" fill="none" stroke="black"/>
<path d="M78.5609,362.091v 9.92031" fill="none" stroke="black"/>
<path d="M89.8106,367.052v 4.96016" fill="none" stroke="black"/>
<path d="M101.06,367.052v 4.96016" fill="none" stroke="black"/>
<path d="M112.31,367.052v 4.96016" fill="none" stroke="black"/>
<path d="M123.56,362.091v 9.92031" fill="none" stroke="black"/>
<path d="M134.809,367.052v 4.96016" fill="none" stroke="black"/>
<path d="M146.059,367.052v 4.96016" fill="none" stroke="black"/>
<path d="M157.309,367.052v 4.96016" fill="none" stroke="black"/>
<path d="M168.559,362.091v 9.92031" fill="none" stroke="black"/>
<path d="M179.808,367.052v 4.96016" fill="none" stroke="black"/>
<path d="M191.058,367.052v 4.96016" fill="none" stroke="black"/>
<path d="M202.308,367.052v 4.96016" fill="none" stroke="black"/>
<path d="M213.558,362.091v 9.92031" fill="none" stroke="black"/>
<path d="M224.807,367.052v 4.96016" fill="none" stroke="black"/>
<path d="M236.057,367.052v 4.96016" fill="none" stroke="black"/>
<path d="M247.307,367.052v 4.96016" fill="none" stroke="black"/>
<path d="M258.556,362.091v 9.92031" fill="none" stroke="black"/>
<path d="M269.806,367.052v 4.96016" fill="none" stroke="black"/>
<path d="M281.056,367.052v 4.96016" fill="none" stroke="black"/>
<path d="M292.306,367.052v 4.96016" fill="none" stroke="black"/>
<path d="M303.555,362.091v 9.92031" fill="none" stroke="black"/>
<path d="M314.805,367.052v 4.96016" fill="none" stroke="black"/>
<path d="M326.055,367.052v 4.96016" fill="none" stroke="black"/>
<path d="M337.304,367.052v 4.96016" fill="none" stroke="black"/>
<path d="M348.554,362.091v 9.92031" fill="none" stroke="black"/>
<path d="M359.804,367.052v 4.96016" fill="none" stroke="black"/>
<path d="M371.054,367.052v 4.96016" fill="none" stroke="black"/>
<path d="M382.303,367.052v 4.96016" fill="none" stroke="black"/>
<path d="M393.553,362.091v 9.92031" fill="none" stroke="black"/>
<path d="M404.803,367.052v 4.96016" fill="none" stroke="black"/>
<path d="M416.052,367.052v 4.96016" fill="none" stroke="black"/>
<path d="M427.302,367.052v 4.96016" fill="none" stroke="black"/>
<path d="M438.552,362.091v 9.92031" fill="none" stroke="black"/>
<path d="M449.802,367.052v 4.96016" fill="none" stroke="black"/>
<path d="M461.051,367.052v 4.96016" fill="none" stroke="black"/>
<path d="M472.301,367.052v 4.96016" fill="none" stroke="black"/>
<path d="M483.551,362.091v 9.92031" fill="none" stroke="black"/>
<path d="M78.5609,362.091v 9.92031" fill="none" stroke="black"/>
<path d="M67.3112,367.052v 4.96016" fill="none" stroke="black"/>
<path d="M483.551,362.091v 9.92031" fill="none" stroke="black"/>
<path d="M494.801,367.052v 4.96016" fill="none" stroke="black"/>
<path d="M506.05,367.052v 4.96016" fill="none" stroke="black"/>
<text xml:space="preserve" x="61.6487" y="385.379" fill="black" font-size="13.7726" font-family="Helvetica">0.898</text>
<text xml:space="preserve" x="114.265" y="385.379" fill="black" font-size="13.7726" font-family="Helvetica">0.9</text>
<text xml:space="preserve" x="151.713" y="385.379" fill="black" font-size="13.7726" font-family="Helvetica">0.902</text>
<text xml:space="preserve" x="196.745" y="385.379" fill="black" font-size="13.7726" font-family="Helvetica">0.904</text>
<text xml:space="preserve" x="241.777" y="385.379" fill="black" font-size="13.7726" font-family="Helvetica">0.906</text>
<text xml:space="preserve" x="286.809" y="385.379" fill="black" font-size="13.7726" font-family="Helvetica">0.908</text>
<text xml:space="preserve" x="336.581" y="385.379" fill="black" font-size="13.7726" font-family="Helvetica">0.91</text>
<text xml:space="preserve" x="376.873" y="385.379" fill="black" font-size="13.7726" font-family="Helvetica">0.912</text>
<text xml:space="preserve" x="421.905" y="385.379" fill="black" font-size="13.7726" font-family="Helvetica">0.914</text>
<text xml:space="preserve" x="466.937" y="385.379" fill="black" font-size="13.7726" font-family="Helvetica">0.916</text>
<text xml:space="preserve" x="413.372" y="400.074" fill="black" font-size="13.7726" font-family="Helvetica">calibration factor</text>
<path d="M57.1929,372.012v -330.677" fill="none" stroke="black"/>
<path d="M70.7992,367.708h -13.6063" fill="none" stroke="black"/>
<path d="M63.9961,361.095h -6.80315" fill="none" stroke="black"/>
<path d="M63.9961,354.481h -6.80315" fill="none" stroke="black"/>
<path d="M63.9961,347.868h -6.80315" fill="none" stroke="black"/>
<path d="M63.9961,341.254h -6.80315" fill="none" stroke="black"/>
<path d="M70.7992,334.641h -13.6063" fill="none" stroke="black"/>
<path d="M63.9961,328.027h -6.80315" fill="none" stroke="black"/>
<path d="M63.9961,321.413h -6.80315" fill="none" stroke="black"/>
<path d="M63.9961,314.8h -6.80315" fill="none" stroke="black"/>
<path d="M63.9961,308.186h -6.80315" fill="none" stroke="black"/>
<path d="M70.7992,301.573h -13.6063" fill="none" stroke="black"/>
<path d="M63.9961,294.959h -6.80315" fill="none" stroke="black"/>
<path d="M63.9961,288.346h -6.80315" fill="none" stroke="black"/>
<path d="M63.9961,281.732h -6.80315" fill="none" stroke="black"/>
<path d="M63.9961,275.119h -6.80315" fill="none" stroke="black"/>
<path d="M70.7992,268.505h -13.6063" fill="none" stroke="black"/>
<path d="M63.9961,261.892h -6.80315" fill="none" stroke="black"/>
<path d="M63.9961,255.278h -6.80315" fill="none" stroke="black"/>
<path d="M63.9961,248.664h -6.80315" fill="none" stroke="black"/>
<path d="M63.9961,242.051h -6.80315" fill="none" stroke="black"/>
<path d="M70.7992,235.437h -13.6063" fill="none" stroke="black"/>
<path d="M63.9961,228.824h -6.80315" fill="none" stroke="black"/>
<path d="M63.9961,222.21h -6.80315" fill="none" stroke="black"/>
<path d="M63.9961,215.597h -6.80315" fill="none" stroke="black"/>
<path d="M63.9961,208.983h -6.80315" fill="none" stroke="black"/>
<path d="M70.7992,202.37h -13.6063" fill="none" stroke="black"/>
<path d="M63.9961,195.756h -6.80315" fill="none" stroke="black"/>
<path d="M63.9961,189.143h -6.80315" fill="none" stroke="black"/>
<path d="M63.9961,182.529h -6.80315" fill="none" stroke="black"/>
<path d="M63.9961,175.916h -6.80315" fill="none" stroke="black"/>
<path d="M70.7992,169.302h -13.6063" fill="none" stroke="black"/>
<path d="M63.9961,162.688h -6.80315" fill="none" stroke="black"/>
<path d="M63.9961,156.075h -6.80315" fill="none" stroke="black"/>
<path d="M63.9961,149.461h -6.80315" fill="none" stroke="black"/>
<path d="M63.9961,142.848h -6.80315" fill="none" stroke="black"/>
<path d="M70.7992,136.234h -13.6063" fill="none" stroke="black"/>
<path d="M63.9961,129.621h -6.80315" fill="none" stroke="black"/>
<path d="M63.9961,123.007h -6.80315" fill="none" stroke="black"/>
<path d="M63.9961,116.394h -6.80315" fill="none" stroke="black"/>
<path d="M63.9961,109.78h -6.80315" fill="none" stroke="black"/>
<path d="M70.7992,103.167h -13.6063" fill="none" stroke="black"/>
<path d="M63.9961,96.553h -6.80315" fill="none" stroke="black"/>
<path d="M63.9961,89.9395h -6.80315" fill="none" stroke="black"/>
<path d="M63.9961,83.326h -6.80315" fill="none" stroke="black"/>
<path d="M63.9961,76.7124h -6.80315" fill="none" stroke="black"/>
<path d="M70.7992,70.0989h -13.6063" fill="none" stroke="black"/>
<path d="M70.7992,367.708h -13.6063" fill="none" stroke="black"/>
<path d="M70.7992,70.0989h -13.6063" fill="none" stroke="black"/>
<path d="M63.9961,63.4853h -6.80315" fill="none" stroke="black"/>
<path d="M63.9961,56.8718h -6.80315" fill="none" stroke="black"/>
<path d="M63.9961,50.2583h -6.80315" fill="none" stroke="black"/>
<path d="M63.9961,43.6447h -6.80315" fill="none" stroke="black"/>
<text xml:space="preserve" x="32.2594" y="372.107" fill="black" font-size="13.7726" font-family="Helvetica">180</text>
<text xml:space="preserve" x="34.6295" y="338.925" fill="black" font-size="13.7726" font-family="Helvetica">181</text>
<text xml:space="preserve" x="32.2594" y="306.218" fill="black" font-size="13.7726" font-family="Helvetica">182</text>
<text xml:space="preserve" x="32.2594" y="273.036" fill="black" font-size="13.7726" font-family="Helvetica">183</text>
<text xml:space="preserve" x="32.2594" y="239.855" fill="black" font-size="13.7726" font-family="Helvetica">184</text>
<text xml:space="preserve" x="32.2594" y="206.673" fill="black" font-size="13.7726" font-family="Helvetica">185</text>
<text xml:space="preserve" x="32.2594" y="173.966" fill="black" font-size="13.7726" font-family="Helvetica">186</text>
<text xml:space="preserve" x="32.2594" y="140.784" fill="black" font-size="13.7726" font-family="Helvetica">187</text>
<text xml:space="preserve" x="32.2594" y="107.603" fill="black" font-size="13.7726" font-family="Helvetica">188</text>
<text xml:space="preserve" x="32.2594" y="74.4213" fill="black" font-size="13.7726" font-family="Helvetica">189</text>
<g transform="rotate(-90,15.1947,45.98)">
<text xml:space="preserve" x="15.1947" y="45.98" fill="black" font-size="9.34839" font-family="Helvetica">2</text>
</g>
<g transform="rotate(-90,19.4608,50.2462)">
<text xml:space="preserve" x="19.4608" y="50.2462" fill="black" font-size="13.7726" font-family="Helvetica"> </text>
</g>
<g transform="rotate(-90,19.4608,57.3565)">
<text xml:space="preserve" x="19.4608" y="57.3565" fill="black" font-size="13.7726" font-family="Times">&#0967;</text>
</g>
<g stroke="black" stroke-width="1" fill="none">
<line x1="58.6653" y1="184.518" x2="62.4574" y2="184.518"/><line x1="60.5614" y1="182.622" x2="60.5614" y2="186.414"/><line x1="58.6653" y1="182.622" x2="62.4574" y2="186.414"/><line x1="58.6653" y1="186.414" x2="62.4574" y2="182.622"/>
<line x1="63.1652" y1="152.474" x2="66.9573" y2="152.474"/><line x1="65.0612" y1="150.578" x2="65.0612" y2="154.37"/><line x1="63.1652" y1="150.578" x2="66.9573" y2="154.37"/><line x1="63.1652" y1="154.37" x2="66.9573" y2="150.578"/>
<line x1="67.665" y1="231.965" x2="71.4572" y2="231.965"/><line x1="69.5611" y1="230.069" x2="69.5611" y2="233.861"/><line x1="67.665" y1="230.069" x2="71.4572" y2="233.861"/><line x1="67.665" y1="233.861" x2="71.4572" y2="230.069"/>
<line x1="72.1649" y1="219.052" x2="75.9571" y2="219.052"/><line x1="74.061" y1="217.156" x2="74.061" y2="220.948"/><line x1="72.1649" y1="217.156" x2="75.9571" y2="220.948"/><line x1="72.1649" y1="220.948" x2="75.9571" y2="217.156"/>
<line x1="76.6648" y1="137.111" x2="80.457" y2="137.111"/><line x1="78.5609" y1="135.215" x2="78.5609" y2="139.007"/><line x1="76.6648" y1="135.215" x2="80.457" y2="139.007"/><line x1="76.6648" y1="139.007" x2="80.457" y2="135.215"/>
<line x1="81.1647" y1="85.8371" x2="84.9569" y2="85.8371"/><line x1="83.0608" y1="83.941" x2="83.0608" y2="87.7331"/><line x1="81.1647" y1="83.941" x2="84.9569" y2="87.7331"/><line x1="81.1647" y1="87.7331" x2="84.9569" y2="83.941"/>
<line x1="85.6646" y1="73.3182" x2="89.4568" y2="73.3182"/><line x1="87.5607" y1="71.4221" x2="87.5607" y2="75.2143"/><line x1="85.6646" y1="71.4221" x2="89.4568" y2="75.2143"/><line x1="85.6646" y1="75.2143" x2="89.4568" y2="71.4221"/>
<line x1="90.1645" y1="56.9317" x2="93.9566" y2="56.9317"/><line x1="92.0606" y1="55.0357" x2="92.0606" y2="58.8278"/><line x1="90.1645" y1="55.0357" x2="93.9566" y2="58.8278"/><line x1="90.1645" y1="58.8278" x2="93.9566" y2="55.0357"/>
<line x1="94.6644" y1="51.9304" x2="98.4565" y2="51.9304"/><line x1="96.5605" y1="50.0343" x2="96.5605" y2="53.8265"/><line x1="94.6644" y1="50.0343" x2="98.4565" y2="53.8265"/><line x1="94.6644" y1="53.8265" x2="98.4565" y2="50.0343"/>
</g>
<g stroke="black" stroke-width="1" fill="none">
<line x1="144.163" y1="49.0601" x2="147.955" y2="49.0601"/><line x1="146.059" y1="47.1641" x2="146.059" y2="50.9562"/><line x1="144.163" y1="47.1641" x2="147.955" y2="50.9562"/><line x1="144.163" y1="50.9562" x2="147.955" y2="47.1641"/>
</g>
<g stroke="black" stroke-width="1" fill="none">
<line x1="162.163" y1="61.7122" x2="165.955" y2="61.7122"/><line x1="164.059" y1="59.8161" x2="164.059" y2="63.6083"/><line x1="162.163" y1="59.8161" x2="165.955" y2="63.6083"/><line x1="162.163" y1="63.6083" x2="165.955" y2="59.8161"/>
<line x1="166.663" y1="94.5058" x2="170.455" y2="94.5058"/><line x1="168.559" y1="92.6097" x2="168.559" y2="96.4019"/><line x1="166.663" y1="92.6097" x2="170.455" y2="96.4019"/><line x1="166.663" y1="96.4019" x2="170.455" y2="92.6097"/>
<line x1="171.162" y1="95.8989" x2="174.955" y2="95.8989"/><line x1="173.059" y1="94.0028" x2="173.059" y2="97.795"/><line x1="171.162" y1="94.0028" x2="174.955" y2="97.795"/><line x1="171.162" y1="97.795" x2="174.955" y2="94.0028"/>
<line x1="175.662" y1="96.914" x2="179.455" y2="96.914"/><line x1="177.558" y1="95.018" x2="177.558" y2="98.8101"/><line x1="175.662" y1="95.018" x2="179.455" y2="98.8101"/><line x1="175.662" y1="98.8101" x2="179.455" y2="95.018"/>
<line x1="180.162" y1="125.326" x2="183.954" y2="125.326"/><line x1="182.058" y1="123.43" x2="182.058" y2="127.222"/><line x1="180.162" y1="123.43" x2="183.954" y2="127.222"/><line x1="180.162" y1="127.222" x2="183.954" y2="123.43"/>
<line x1="184.662" y1="139.607" x2="188.454" y2="139.607"/><line x1="186.558" y1="137.711" x2="186.558" y2="141.503"/><line x1="184.662" y1="137.711" x2="188.454" y2="141.503"/><line x1="184.662" y1="141.503" x2="188.454" y2="137.711"/>
<line x1="189.162" y1="131.318" x2="192.954" y2="131.318"/><line x1="191.058" y1="129.421" x2="191.058" y2="133.214"/><line x1="189.162" y1="129.421" x2="192.954" y2="133.214"/><line x1="189.162" y1="133.214" x2="192.954" y2="129.421"/>
<line x1="193.662" y1="45.81" x2="197.454" y2="45.81"/><line x1="195.558" y1="43.9139" x2="195.558" y2="47.7061"/><line x1="193.662" y1="43.9139" x2="197.454" y2="47.7061"/><line x1="193.662" y1="47.7061" x2="197.454" y2="43.9139"/>
<line x1="198.162" y1="71.945" x2="201.954" y2="71.945"/><line x1="200.058" y1="70.049" x2="200.058" y2="73.8411"/><line x1="198.162" y1="70.049" x2="201.954" y2="73.8411"/><line x1="198.162" y1="73.8411" x2="201.954" y2="70.049"/>
<line x1="202.662" y1="63.8098" x2="206.454" y2="63.8098"/><line x1="204.558" y1="61.9137" x2="204.558" y2="65.7059"/><line x1="202.662" y1="61.9137" x2="206.454" y2="65.7059"/><line x1="202.662" y1="65.7059" x2="206.454" y2="61.9137"/>
<line x1="207.162" y1="98.8897" x2="210.954" y2="98.8897"/><line x1="209.058" y1="96.9937" x2="209.058" y2="100.786"/><line x1="207.162" y1="96.9937" x2="210.954" y2="100.786"/><line x1="207.162" y1="100.786" x2="210.954" y2="96.9937"/>
<line x1="211.661" y1="98.545" x2="215.454" y2="98.545"/><line x1="213.558" y1="96.6489" x2="213.558" y2="100.441"/><line x1="211.661" y1="96.6489" x2="215.454" y2="100.441"/><line x1="211.661" y1="100.441" x2="215.454" y2="96.6489"/>
<line x1="216.161" y1="66.2581" x2="219.953" y2="66.2581"/><line x1="218.057" y1="64.362" x2="218.057" y2="68.1542"/><line x1="216.161" y1="64.362" x2="219.953" y2="68.1542"/><line x1="216.161" y1="68.1542" x2="219.953" y2="64.362"/>
<line x1="220.661" y1="77.0098" x2="224.453" y2="77.0098"/><line x1="222.557" y1="75.1137" x2="222.557" y2="78.9059"/><line x1="220.661" y1="75.1137" x2="224.453" y2="78.9059"/><line x1="220.661" y1="78.9059" x2="224.453" y2="75.1137"/>
<line x1="225.161" y1="80.1026" x2="228.953" y2="80.1026"/><line x1="227.057" y1="78.2065" x2="227.057" y2="81.9987"/><line x1="225.161" y1="78.2065" x2="228.953" y2="81.9987"/><line x1="225.161" y1="81.9987" x2="228.953" y2="78.2065"/>
<line x1="229.661" y1="173.014" x2="233.453" y2="173.014"/><line x1="231.557" y1="171.118" x2="231.557" y2="174.91"/><line x1="229.661" y1="171.118" x2="233.453" y2="174.91"/><line x1="229.661" y1="174.91" x2="233.453" y2="171.118"/>
<line x1="234.161" y1="120.196" x2="237.953" y2="120.196"/><line x1="236.057" y1="118.3" x2="236.057" y2="122.092"/><line x1="234.161" y1="118.3" x2="237.953" y2="122.092"/><line x1="234.161" y1="122.092" x2="237.953" y2="118.3"/>
<line x1="238.661" y1="100.901" x2="242.453" y2="100.901"/><line x1="240.557" y1="99.0052" x2="240.557" y2="102.797"/><line x1="238.661" y1="99.0052" x2="242.453" y2="102.797"/><line x1="238.661" y1="102.797" x2="242.453" y2="99.0052"/>
<line x1="243.161" y1="75.0213" x2="246.953" y2="75.0213"/><line x1="245.057" y1="73.1252" x2="245.057" y2="76.9174"/><line x1="243.161" y1="73.1252" x2="246.953" y2="76.9174"/><line x1="243.161" y1="76.9174" x2="246.953" y2="73.1252"/>
<line x1="247.661" y1="124.56" x2="251.453" y2="124.56"/><line x1="249.557" y1="122.664" x2="249.557" y2="126.456"/><line x1="247.661" y1="122.664" x2="251.453" y2="126.456"/><line x1="247.661" y1="126.456" x2="251.453" y2="122.664"/>
<line x1="252.16" y1="132.983" x2="255.953" y2="132.983"/><line x1="254.057" y1="131.087" x2="254.057" y2="134.879"/><line x1="252.16" y1="131.087" x2="255.953" y2="134.879"/><line x1="252.16" y1="134.879" x2="255.953" y2="131.087"/>
<line x1="256.66" y1="95.4159" x2="260.452" y2="95.4159"/><line x1="258.556" y1="93.5198" x2="258.556" y2="97.312"/><line x1="256.66" y1="93.5198" x2="260.452" y2="97.312"/><line x1="256.66" y1="97.312" x2="260.452" y2="93.5198"/>
</g>
<g stroke="black" stroke-width="1" fill="none">
<line x1="270.16" y1="102.311" x2="273.952" y2="102.311"/><line x1="272.056" y1="100.415" x2="272.056" y2="104.207"/><line x1="270.16" y1="100.415" x2="273.952" y2="104.207"/><line x1="270.16" y1="104.207" x2="273.952" y2="100.415"/>
<line x1="274.66" y1="124.253" x2="278.452" y2="124.253"/><line x1="276.556" y1="122.357" x2="276.556" y2="126.149"/><line x1="274.66" y1="122.357" x2="278.452" y2="126.149"/><line x1="274.66" y1="126.149" x2="278.452" y2="122.357"/>
<line x1="279.16" y1="158.084" x2="282.952" y2="158.084"/><line x1="281.056" y1="156.188" x2="281.056" y2="159.98"/><line x1="279.16" y1="156.188" x2="282.952" y2="159.98"/><line x1="279.16" y1="159.98" x2="282.952" y2="156.188"/>
<line x1="283.66" y1="305.876" x2="287.452" y2="305.876"/><line x1="285.556" y1="303.98" x2="285.556" y2="307.772"/><line x1="283.66" y1="303.98" x2="287.452" y2="307.772"/><line x1="283.66" y1="307.772" x2="287.452" y2="303.98"/>
<line x1="288.16" y1="262.563" x2="291.952" y2="262.563"/><line x1="290.056" y1="260.667" x2="290.056" y2="264.459"/><line x1="288.16" y1="260.667" x2="291.952" y2="264.459"/><line x1="288.16" y1="264.459" x2="291.952" y2="260.667"/>
<line x1="292.659" y1="256.007" x2="296.452" y2="256.007"/><line x1="294.556" y1="254.111" x2="294.556" y2="257.903"/><line x1="292.659" y1="254.111" x2="296.452" y2="257.903"/><line x1="292.659" y1="257.903" x2="296.452" y2="254.111"/>
<line x1="297.159" y1="225.95" x2="300.951" y2="225.95"/><line x1="299.055" y1="224.054" x2="299.055" y2="227.847"/><line x1="297.159" y1="224.054" x2="300.951" y2="227.847"/><line x1="297.159" y1="227.847" x2="300.951" y2="224.054"/>
<line x1="301.659" y1="210.985" x2="305.451" y2="210.985"/><line x1="303.555" y1="209.089" x2="303.555" y2="212.881"/><line x1="301.659" y1="209.089" x2="305.451" y2="212.881"/><line x1="301.659" y1="212.881" x2="305.451" y2="209.089"/>
<line x1="306.159" y1="219.884" x2="309.951" y2="219.884"/><line x1="308.055" y1="217.988" x2="308.055" y2="221.78"/><line x1="306.159" y1="217.988" x2="309.951" y2="221.78"/><line x1="306.159" y1="221.78" x2="309.951" y2="217.988"/>
<line x1="310.659" y1="206.987" x2="314.451" y2="206.987"/><line x1="312.555" y1="205.091" x2="312.555" y2="208.883"/><line x1="310.659" y1="205.091" x2="314.451" y2="208.883"/><line x1="310.659" y1="208.883" x2="314.451" y2="205.091"/>
<line x1="315.159" y1="221.734" x2="318.951" y2="221.734"/><line x1="317.055" y1="219.838" x2="317.055" y2="223.63"/><line x1="315.159" y1="219.838" x2="318.951" y2="223.63"/><line x1="315.159" y1="223.63" x2="318.951" y2="219.838"/>
<line x1="319.659" y1="167.248" x2="323.451" y2="167.248"/><line x1="321.555" y1="165.352" x2="321.555" y2="169.144"/><line x1="319.659" y1="165.352" x2="323.451" y2="169.144"/><line x1="319.659" y1="169.144" x2="323.451" y2="165.352"/>
<line x1="324.159" y1="235.133" x2="327.951" y2="235.133"/><line x1="326.055" y1="233.237" x2="326.055" y2="237.029"/><line x1="324.159" y1="233.237" x2="327.951" y2="237.029"/><line x1="324.159" y1="237.029" x2="327.951" y2="233.237"/>
<line x1="328.659" y1="264.826" x2="332.451" y2="264.826"/><line x1="330.555" y1="262.93" x2="330.555" y2="266.722"/><line x1="328.659" y1="262.93" x2="332.451" y2="266.722"/><line x1="328.659" y1="266.722" x2="332.451" y2="262.93"/>
<line x1="333.158" y1="186.387" x2="336.951" y2="186.387"/><line x1="335.055" y1="184.491" x2="335.055" y2="188.283"/><line x1="333.158" y1="184.491" x2="336.951" y2="188.283"/><line x1="333.158" y1="188.283" x2="336.951" y2="184.491"/>
<line x1="337.658" y1="206.68" x2="341.45" y2="206.68"/><line x1="339.554" y1="204.783" x2="339.554" y2="208.576"/><line x1="337.658" y1="204.783" x2="341.45" y2="208.576"/><line x1="337.658" y1="208.576" x2="341.45" y2="204.783"/>
<line x1="342.158" y1="230.52" x2="345.95" y2="230.52"/><line x1="344.054" y1="228.624" x2="344.054" y2="232.416"/><line x1="342.158" y1="228.624" x2="345.95" y2="232.416"/><line x1="342.158" y1="232.416" x2="345.95" y2="228.624"/>
<line x1="346.658" y1="230.308" x2="350.45" y2="230.308"/><line x1="348.554" y1="228.412" x2="348.554" y2="232.204"/><line x1="346.658" y1="228.412" x2="350.45" y2="232.204"/><line x1="346.658" y1="232.204" x2="350.45" y2="228.412"/>
<line x1="351.158" y1="225.654" x2="354.95" y2="225.654"/><line x1="353.054" y1="223.758" x2="353.054" y2="227.55"/><line x1="351.158" y1="223.758" x2="354.95" y2="227.55"/><line x1="351.158" y1="227.55" x2="354.95" y2="223.758"/>
<line x1="355.658" y1="219.823" x2="359.45" y2="219.823"/><line x1="357.554" y1="217.927" x2="357.554" y2="221.72"/><line x1="355.658" y1="217.927" x2="359.45" y2="221.72"/><line x1="355.658" y1="221.72" x2="359.45" y2="217.927"/>
<line x1="360.158" y1="198.344" x2="363.95" y2="198.344"/><line x1="362.054" y1="196.448" x2="362.054" y2="200.24"/><line x1="360.158" y1="196.448" x2="363.95" y2="200.24"/><line x1="360.158" y1="200.24" x2="363.95" y2="196.448"/>
<line x1="364.658" y1="165.437" x2="368.45" y2="165.437"/><line x1="366.554" y1="163.541" x2="366.554" y2="167.333"/><line x1="364.658" y1="163.541" x2="368.45" y2="167.333"/><line x1="364.658" y1="167.333" x2="368.45" y2="163.541"/>
<line x1="369.158" y1="208.891" x2="372.95" y2="208.891"/><line x1="371.054" y1="206.995" x2="371.054" y2="210.788"/><line x1="369.158" y1="206.995" x2="372.95" y2="210.788"/><line x1="369.158" y1="210.788" x2="372.95" y2="206.995"/>
<line x1="373.657" y1="209.213" x2="377.45" y2="209.213"/><line x1="375.553" y1="207.317" x2="375.553" y2="211.109"/><line x1="373.657" y1="207.317" x2="377.45" y2="211.109"/><line x1="373.657" y1="211.109" x2="377.45" y2="207.317"/>
<line x1="378.157" y1="212.174" x2="381.949" y2="212.174"/><line x1="380.053" y1="210.278" x2="380.053" y2="214.07"/><line x1="378.157" y1="210.278" x2="381.949" y2="214.07"/><line x1="378.157" y1="214.07" x2="381.949" y2="210.278"/>
<line x1="382.657" y1="157.569" x2="386.449" y2="157.569"/><line x1="384.553" y1="155.673" x2="384.553" y2="159.465"/><line x1="382.657" y1="155.673" x2="386.449" y2="159.465"/><line x1="382.657" y1="159.465" x2="386.449" y2="155.673"/>
<line x1="387.157" y1="92.0597" x2="390.949" y2="92.0597"/><line x1="389.053" y1="90.1636" x2="389.053" y2="93.9558"/><line x1="387.157" y1="90.1636" x2="390.949" y2="93.9558"/><line x1="387.157" y1="93.9558" x2="390.949" y2="90.1636"/>
<line x1="391.657" y1="64.1934" x2="395.449" y2="64.1934"/><line x1="393.553" y1="62.2973" x2="393.553" y2="66.0894"/><line x1="391.657" y1="62.2973" x2="395.449" y2="66.0894"/><line x1="391.657" y1="66.0894" x2="395.449" y2="62.2973"/>
<line x1="396.157" y1="75.5059" x2="399.949" y2="75.5059"/><line x1="398.053" y1="73.6098" x2="398.053" y2="77.402"/><line x1="396.157" y1="73.6098" x2="399.949" y2="77.402"/><line x1="396.157" y1="77.402" x2="399.949" y2="73.6098"/>
</g>
<g stroke="black" stroke-width="1" fill="none">
<line x1="405.157" y1="49.8543" x2="408.949" y2="49.8543"/><line x1="407.053" y1="47.9582" x2="407.053" y2="51.7504"/><line x1="405.157" y1="47.9582" x2="408.949" y2="51.7504"/><line x1="405.157" y1="51.7504" x2="408.949" y2="47.9582"/>
</g>
<g stroke="black" stroke-width="1" fill="none">
<line x1="445.656" y1="54.9613" x2="449.448" y2="54.9613"/><line x1="447.552" y1="53.0652" x2="447.552" y2="56.8573"/><line x1="445.656" y1="53.0652" x2="449.448" y2="56.8573"/><line x1="445.656" y1="56.8573" x2="449.448" y2="53.0652"/>
<line x1="450.155" y1="49.0409" x2="453.948" y2="49.0409"/><line x1="452.052" y1="47.1448" x2="452.052" y2="50.9369"/><line x1="450.155" y1="47.1448" x2="453.948" y2="50.9369"/><line x1="450.155" y1="50.9369" x2="453.948" y2="47.1448"/>
<line x1="454.655" y1="54.1367" x2="458.448" y2="54.1367"/><line x1="456.551" y1="52.2406" x2="456.551" y2="56.0327"/><line x1="454.655" y1="52.2406" x2="458.448" y2="56.0327"/><line x1="454.655" y1="56.0327" x2="458.448" y2="52.2406"/>
<line x1="459.155" y1="69.9118" x2="462.947" y2="69.9118"/><line x1="461.051" y1="68.0157" x2="461.051" y2="71.8079"/><line x1="459.155" y1="68.0157" x2="462.947" y2="71.8079"/><line x1="459.155" y1="71.8079" x2="462.947" y2="68.0157"/>
<line x1="463.655" y1="116.137" x2="467.447" y2="116.137"/><line x1="465.551" y1="114.241" x2="465.551" y2="118.033"/><line x1="463.655" y1="114.241" x2="467.447" y2="118.033"/><line x1="463.655" y1="118.033" x2="467.447" y2="114.241"/>
<line x1="468.155" y1="72.1928" x2="471.947" y2="72.1928"/><line x1="470.051" y1="70.2967" x2="470.051" y2="74.0889"/><line x1="468.155" y1="70.2967" x2="471.947" y2="74.0889"/><line x1="468.155" y1="74.0889" x2="471.947" y2="70.2967"/>
<line x1="472.655" y1="65.4473" x2="476.447" y2="65.4473"/><line x1="474.551" y1="63.5513" x2="474.551" y2="67.3434"/><line x1="472.655" y1="63.5513" x2="476.447" y2="67.3434"/><line x1="472.655" y1="67.3434" x2="476.447" y2="63.5513"/>
<line x1="477.155" y1="57.332" x2="480.947" y2="57.332"/><line x1="479.051" y1="55.4359" x2="479.051" y2="59.228"/><line x1="477.155" y1="55.4359" x2="480.947" y2="59.228"/><line x1="477.155" y1="59.228" x2="480.947" y2="55.4359"/>
</g>
<g stroke="black" stroke-width="1" fill="none">
<line x1="490.654" y1="43.4502" x2="494.447" y2="43.4502"/><line x1="492.551" y1="41.5541" x2="492.551" y2="45.3463"/><line x1="490.654" y1="41.5541" x2="494.447" y2="45.3463"/><line x1="490.654" y1="45.3463" x2="494.447" y2="41.5541"/>
</g>
<path d="M0.5,272.809h 566.929" fill="none" stroke="#0000ff"/></svg>
