<?xml version="1.0" standalone="no"?>
<svg width="567.429" height="413.846" viewBox="0 0 567.429 413.846" xmlns="http://www.w3.org/2000/svg" shape-rendering="crispEdges">
<title>
figures/chi2zoomin_2PMTnpefilelist20.svg
</title>
<desc>
Creator: ROOT Version 6.18/04
CreationDate: Fri Nov  1 11:25:27 2019</desc>
<defs>
</defs>
<rect x="0.5" y="0" width="566.929" height="413.346" fill="white"/>
<rect x="57.1929" y="41.3346" width="453.543" height="330.677" fill="white"/>
<rect x="57.1929" y="41.3346" width="453.543" height="330.677" fill="none" stroke="black"/>
<path d="M57.1929,372.012h 453.543" fill="none" stroke="black"/>
<path d="M101.018,41.3346v 330.677" fill="none" stroke="black" stroke-dasharray=" 1, 2"/>
<path d="M146.016,41.3346v 330.677" fill="none" stroke="black" stroke-dasharray=" 1, 2"/>
<path d="M191.015,41.3346v 330.677" fill="none" stroke="black" stroke-dasharray=" 1, 2"/>
<path d="M236.014,41.3346v 330.677" fill="none" stroke="black" stroke-dasharray=" 1, 2"/>
<path d="M281.013,41.3346v 330.677" fill="none" stroke="black" stroke-dasharray=" 1, 2"/>
<path d="M326.012,41.3346v 330.677" fill="none" stroke="black" stroke-dasharray=" 1, 2"/>
<path d="M371.011,41.3346v 330.677" fill="none" stroke="black" stroke-dasharray=" 1, 2"/>
<path d="M416.01,41.3346v 330.677" fill="none" stroke="black" stroke-dasharray=" 1, 2"/>
<path d="M461.009,41.3346v 330.677" fill="none" stroke="black" stroke-dasharray=" 1, 2"/>
<path d="M506.007,41.3346v 330.677" fill="none" stroke="black" stroke-dasharray=" 1, 2"/>
<path d="M101.018,41.3346v 330.677" fill="none" stroke="black" stroke-dasharray=" 1, 2"/>
<path d="M506.007,41.3346v 330.677" fill="none" stroke="black" stroke-dasharray=" 1, 2"/>
<path d="M57.1929,372.012v -330.677" fill="none" stroke="black"/>
<path d="M57.1929,372.012h 453.543" fill="none" stroke="black"/>
<path d="M101.018,362.091v 9.92031" fill="none" stroke="black"/>
<path d="M112.267,367.052v 4.96016" fill="none" stroke="black"/>
<path d="M123.517,367.052v 4.96016" fill="none" stroke="black"/>
<path d="M134.767,367.052v 4.96016" fill="none" stroke="black"/>
<path d="M146.016,362.091v 9.92031" fill="none" stroke="black"/>
<path d="M157.266,367.052v 4.96016" fill="none" stroke="black"/>
<path d="M168.516,367.052v 4.96016" fill="none" stroke="black"/>
<path d="M179.766,367.052v 4.96016" fill="none" stroke="black"/>
<path d="M191.015,362.091v 9.92031" fill="none" stroke="black"/>
<path d="M202.265,367.052v 4.96016" fill="none" stroke="black"/>
<path d="M213.515,367.052v 4.96016" fill="none" stroke="black"/>
<path d="M224.764,367.052v 4.96016" fill="none" stroke="black"/>
<path d="M236.014,362.091v 9.92031" fill="none" stroke="black"/>
<path d="M247.264,367.052v 4.96016" fill="none" stroke="black"/>
<path d="M258.514,367.052v 4.96016" fill="none" stroke="black"/>
<path d="M269.763,367.052v 4.96016" fill="none" stroke="black"/>
<path d="M281.013,362.091v 9.92031" fill="none" stroke="black"/>
<path d="M292.263,367.052v 4.96016" fill="none" stroke="black"/>
<path d="M303.512,367.052v 4.96016" fill="none" stroke="black"/>
<path d="M314.762,367.052v 4.96016" fill="none" stroke="black"/>
<path d="M326.012,362.091v 9.92031" fill="none" stroke="black"/>
<path d="M337.262,367.052v 4.96016" fill="none" stroke="black"/>
<path d="M348.511,367.052v 4.96016" fill="none" stroke="black"/>
<path d="M359.761,367.052v 4.96016" fill="none" stroke="black"/>
<path d="M371.011,362.091v 9.92031" fill="none" stroke="black"/>
<path d="M382.26,367.052v 4.96016" fill="none" stroke="black"/>
<path d="M393.51,367.052v 4.96016" fill="none" stroke="black"/>
<path d="M404.76,367.052v 4.96016" fill="none" stroke="black"/>
<path d="M416.01,362.091v 9.92031" fill="none" stroke="black"/>
<path d="M427.259,367.052v 4.96016" fill="none" stroke="black"/>
<path d="M438.509,367.052v 4.96016" fill="none" stroke="black"/>
<path d="M449.759,367.052v 4.96016" fill="none" stroke="black"/>
<path d="M461.009,362.091v 9.92031" fill="none" stroke="black"/>
<path d="M472.258,367.052v 4.96016" fill="none" stroke="black"/>
<path d="M483.508,367.052v 4.96016" fill="none" stroke="black"/>
<path d="M494.758,367.052v 4.96016" fill="none" stroke="black"/>
<path d="M506.007,362.091v 9.92031" fill="none" stroke="black"/>
<path d="M101.018,362.091v 9.92031" fill="none" stroke="black"/>
<path d="M89.7678,367.052v 4.96016" fill="none" stroke="black"/>
<path d="M78.5181,367.052v 4.96016" fill="none" stroke="black"/>
<path d="M67.2683,367.052v 4.96016" fill="none" stroke="black"/>
<path d="M506.007,362.091v 9.92031" fill="none" stroke="black"/>
<text xml:space="preserve" x="88.1939" y="385.379" fill="black" font-size="13.7726" font-family="Helvetica">0.48</text>
<text xml:space="preserve" x="128.96" y="385.379" fill="black" font-size="13.7726" font-family="Helvetica">0.482</text>
<text xml:space="preserve" x="173.992" y="385.379" fill="black" font-size="13.7726" font-family="Helvetica">0.484</text>
<text xml:space="preserve" x="219.024" y="385.379" fill="black" font-size="13.7726" font-family="Helvetica">0.486</text>
<text xml:space="preserve" x="264.056" y="385.379" fill="black" font-size="13.7726" font-family="Helvetica">0.488</text>
<text xml:space="preserve" x="312.88" y="385.379" fill="black" font-size="13.7726" font-family="Helvetica">0.49</text>
<text xml:space="preserve" x="354.12" y="385.379" fill="black" font-size="13.7726" font-family="Helvetica">0.492</text>
<text xml:space="preserve" x="399.152" y="385.379" fill="black" font-size="13.7726" font-family="Helvetica">0.494</text>
<text xml:space="preserve" x="444.184" y="385.379" fill="black" font-size="13.7726" font-family="Helvetica">0.496</text>
<text xml:space="preserve" x="489.216" y="385.379" fill="black" font-size="13.7726" font-family="Helvetica">0.498</text>
<text xml:space="preserve" x="413.372" y="400.074" fill="black" font-size="13.7726" font-family="Helvetica">calibration factor</text>
<path d="M57.1929,372.012v -330.677" fill="none" stroke="black"/>
<path d="M70.7992,355.037h -13.6063" fill="none" stroke="black"/>
<path d="M63.9961,348.423h -6.80315" fill="none" stroke="black"/>
<path d="M63.9961,341.81h -6.80315" fill="none" stroke="black"/>
<path d="M63.9961,335.196h -6.80315" fill="none" stroke="black"/>
<path d="M63.9961,328.582h -6.80315" fill="none" stroke="black"/>
<path d="M70.7992,321.969h -13.6063" fill="none" stroke="black"/>
<path d="M63.9961,315.355h -6.80315" fill="none" stroke="black"/>
<path d="M63.9961,308.742h -6.80315" fill="none" stroke="black"/>
<path d="M63.9961,302.128h -6.80315" fill="none" stroke="black"/>
<path d="M63.9961,295.515h -6.80315" fill="none" stroke="black"/>
<path d="M70.7992,288.901h -13.6063" fill="none" stroke="black"/>
<path d="M63.9961,282.288h -6.80315" fill="none" stroke="black"/>
<path d="M63.9961,275.674h -6.80315" fill="none" stroke="black"/>
<path d="M63.9961,269.061h -6.80315" fill="none" stroke="black"/>
<path d="M63.9961,262.447h -6.80315" fill="none" stroke="black"/>
<path d="M70.7992,255.834h -13.6063" fill="none" stroke="black"/>
<path d="M63.9961,249.22h -6.80315" fill="none" stroke="black"/>
<path d="M63.9961,242.606h -6.80315" fill="none" stroke="black"/>
<path d="M63.9961,235.993h -6.80315" fill="none" stroke="black"/>
<path d="M63.9961,229.379h -6.80315" fill="none" stroke="black"/>
<path d="M70.7992,222.766h -13.6063" fill="none" stroke="black"/>
<path d="M63.9961,216.152h -6.80315" fill="none" stroke="black"/>
<path d="M63.9961,209.539h -6.80315" fill="none" stroke="black"/>
<path d="M63.9961,202.925h -6.80315" fill="none" stroke="black"/>
<path d="M63.9961,196.312h -6.80315" fill="none" stroke="black"/>
<path d="M70.7992,189.698h -13.6063" fill="none" stroke="black"/>
<path d="M63.9961,183.085h -6.80315" fill="none" stroke="black"/>
<path d="M63.9961,176.471h -6.80315" fill="none" stroke="black"/>
<path d="M63.9961,169.857h -6.80315" fill="none" stroke="black"/>
<path d="M63.9961,163.244h -6.80315" fill="none" stroke="black"/>
<path d="M70.7992,156.63h -13.6063" fill="none" stroke="black"/>
<path d="M63.9961,150.017h -6.80315" fill="none" stroke="black"/>
<path d="M63.9961,143.403h -6.80315" fill="none" stroke="black"/>
<path d="M63.9961,136.79h -6.80315" fill="none" stroke="black"/>
<path d="M63.9961,130.176h -6.80315" fill="none" stroke="black"/>
<path d="M70.7992,123.563h -13.6063" fill="none" stroke="black"/>
<path d="M63.9961,116.949h -6.80315" fill="none" stroke="black"/>
<path d="M63.9961,110.336h -6.80315" fill="none" stroke="black"/>
<path d="M63.9961,103.722h -6.80315" fill="none" stroke="black"/>
<path d="M63.9961,97.1085h -6.80315" fill="none" stroke="black"/>
<path d="M70.7992,90.495h -13.6063" fill="none" stroke="black"/>
<path d="M63.9961,83.8814h -6.80315" fill="none" stroke="black"/>
<path d="M63.9961,77.2679h -6.80315" fill="none" stroke="black"/>
<path d="M63.9961,70.6544h -6.80315" fill="none" stroke="black"/>
<path d="M63.9961,64.0408h -6.80315" fill="none" stroke="black"/>
<path d="M70.7992,57.4273h -13.6063" fill="none" stroke="black"/>
<path d="M70.7992,355.037h -13.6063" fill="none" stroke="black"/>
<path d="M63.9961,361.65h -6.80315" fill="none" stroke="black"/>
<path d="M63.9961,368.264h -6.80315" fill="none" stroke="black"/>
<path d="M70.7992,57.4273h -13.6063" fill="none" stroke="black"/>
<path d="M63.9961,50.8137h -6.80315" fill="none" stroke="black"/>
<path d="M63.9961,44.2002h -6.80315" fill="none" stroke="black"/>
<text xml:space="preserve" x="32.2594" y="359.308" fill="black" font-size="13.7726" font-family="Helvetica">792</text>
<text xml:space="preserve" x="32.2594" y="326.6" fill="black" font-size="13.7726" font-family="Helvetica">793</text>
<text xml:space="preserve" x="32.2594" y="293.419" fill="black" font-size="13.7726" font-family="Helvetica">794</text>
<text xml:space="preserve" x="32.2594" y="260.238" fill="black" font-size="13.7726" font-family="Helvetica">795</text>
<text xml:space="preserve" x="32.2594" y="227.056" fill="black" font-size="13.7726" font-family="Helvetica">796</text>
<text xml:space="preserve" x="32.2594" y="194.349" fill="black" font-size="13.7726" font-family="Helvetica">797</text>
<text xml:space="preserve" x="32.2594" y="161.167" fill="black" font-size="13.7726" font-family="Helvetica">798</text>
<text xml:space="preserve" x="32.2594" y="127.986" fill="black" font-size="13.7726" font-family="Helvetica">799</text>
<text xml:space="preserve" x="32.2594" y="94.8042" fill="black" font-size="13.7726" font-family="Helvetica">800</text>
<text xml:space="preserve" x="34.6295" y="62.0968" fill="black" font-size="13.7726" font-family="Helvetica">801</text>
<g transform="rotate(-90,15.1947,45.98)">
<text xml:space="preserve" x="15.1947" y="45.98" fill="black" font-size="9.34839" font-family="Helvetica">2</text>
</g>
<g transform="rotate(-90,19.4608,50.2462)">
<text xml:space="preserve" x="19.4608" y="50.2462" fill="black" font-size="13.7726" font-family="Helvetica"> </text>
</g>
<g transform="rotate(-90,19.4608,57.3565)">
<text xml:space="preserve" x="19.4608" y="57.3565" fill="black" font-size="13.7726" font-family="Times">&#0967;</text>
</g>
<g stroke="black" stroke-width="1" fill="none">
<line x1="189.119" y1="159.062" x2="192.911" y2="159.062"/><line x1="191.015" y1="157.166" x2="191.015" y2="160.958"/><line x1="189.119" y1="157.166" x2="192.911" y2="160.958"/><line x1="189.119" y1="160.958" x2="192.911" y2="157.166"/>
<line x1="193.619" y1="80.7683" x2="197.411" y2="80.7683"/><line x1="195.515" y1="78.8722" x2="195.515" y2="82.6643"/><line x1="193.619" y1="78.8722" x2="197.411" y2="82.6643"/><line x1="193.619" y1="82.6643" x2="197.411" y2="78.8722"/>
<line x1="198.119" y1="110.38" x2="201.911" y2="110.38"/><line x1="200.015" y1="108.484" x2="200.015" y2="112.276"/><line x1="198.119" y1="108.484" x2="201.911" y2="112.276"/><line x1="198.119" y1="112.276" x2="201.911" y2="108.484"/>
<line x1="202.619" y1="81.1287" x2="206.411" y2="81.1287"/><line x1="204.515" y1="79.2326" x2="204.515" y2="83.0247"/><line x1="202.619" y1="79.2326" x2="206.411" y2="83.0247"/><line x1="202.619" y1="83.0247" x2="206.411" y2="79.2326"/>
<line x1="207.119" y1="146.563" x2="210.911" y2="146.563"/><line x1="209.015" y1="144.667" x2="209.015" y2="148.459"/><line x1="207.119" y1="144.667" x2="210.911" y2="148.459"/><line x1="207.119" y1="148.459" x2="210.911" y2="144.667"/>
<line x1="211.619" y1="154.485" x2="215.411" y2="154.485"/><line x1="213.515" y1="152.589" x2="213.515" y2="156.381"/><line x1="211.619" y1="152.589" x2="215.411" y2="156.381"/><line x1="211.619" y1="156.381" x2="215.411" y2="152.589"/>
<line x1="216.118" y1="103.208" x2="219.911" y2="103.208"/><line x1="218.015" y1="101.312" x2="218.015" y2="105.104"/><line x1="216.118" y1="101.312" x2="219.911" y2="105.104"/><line x1="216.118" y1="105.104" x2="219.911" y2="101.312"/>
<line x1="220.618" y1="134.268" x2="224.411" y2="134.268"/><line x1="222.514" y1="132.372" x2="222.514" y2="136.164"/><line x1="220.618" y1="132.372" x2="224.411" y2="136.164"/><line x1="220.618" y1="136.164" x2="224.411" y2="132.372"/>
<line x1="225.118" y1="187.64" x2="228.91" y2="187.64"/><line x1="227.014" y1="185.744" x2="227.014" y2="189.536"/><line x1="225.118" y1="185.744" x2="228.91" y2="189.536"/><line x1="225.118" y1="189.536" x2="228.91" y2="185.744"/>
<line x1="229.618" y1="179.201" x2="233.41" y2="179.201"/><line x1="231.514" y1="177.305" x2="231.514" y2="181.097"/><line x1="229.618" y1="177.305" x2="233.41" y2="181.097"/><line x1="229.618" y1="181.097" x2="233.41" y2="177.305"/>
<line x1="234.118" y1="150.334" x2="237.91" y2="150.334"/><line x1="236.014" y1="148.438" x2="236.014" y2="152.23"/><line x1="234.118" y1="148.438" x2="237.91" y2="152.23"/><line x1="234.118" y1="152.23" x2="237.91" y2="148.438"/>
<line x1="238.618" y1="204.244" x2="242.41" y2="204.244"/><line x1="240.514" y1="202.348" x2="240.514" y2="206.14"/><line x1="238.618" y1="202.348" x2="242.41" y2="206.14"/><line x1="238.618" y1="206.14" x2="242.41" y2="202.348"/>
<line x1="243.118" y1="184.427" x2="246.91" y2="184.427"/><line x1="245.014" y1="182.531" x2="245.014" y2="186.324"/><line x1="243.118" y1="182.531" x2="246.91" y2="186.324"/><line x1="243.118" y1="186.324" x2="246.91" y2="182.531"/>
<line x1="247.618" y1="165.248" x2="251.41" y2="165.248"/><line x1="249.514" y1="163.351" x2="249.514" y2="167.144"/><line x1="247.618" y1="163.351" x2="251.41" y2="167.144"/><line x1="247.618" y1="167.144" x2="251.41" y2="163.351"/>
<line x1="252.118" y1="163.993" x2="255.91" y2="163.993"/><line x1="254.014" y1="162.097" x2="254.014" y2="165.889"/><line x1="252.118" y1="162.097" x2="255.91" y2="165.889"/><line x1="252.118" y1="165.889" x2="255.91" y2="162.097"/>
<line x1="256.617" y1="213.242" x2="260.41" y2="213.242"/><line x1="258.514" y1="211.345" x2="258.514" y2="215.138"/><line x1="256.617" y1="211.345" x2="260.41" y2="215.138"/><line x1="256.617" y1="215.138" x2="260.41" y2="211.345"/>
<line x1="261.117" y1="289.675" x2="264.91" y2="289.675"/><line x1="263.013" y1="287.779" x2="263.013" y2="291.571"/><line x1="261.117" y1="287.779" x2="264.91" y2="291.571"/><line x1="261.117" y1="291.571" x2="264.91" y2="287.779"/>
<line x1="265.617" y1="227.176" x2="269.409" y2="227.176"/><line x1="267.513" y1="225.28" x2="267.513" y2="229.072"/><line x1="265.617" y1="225.28" x2="269.409" y2="229.072"/><line x1="265.617" y1="229.072" x2="269.409" y2="225.28"/>
<line x1="270.117" y1="265.294" x2="273.909" y2="265.294"/><line x1="272.013" y1="263.398" x2="272.013" y2="267.19"/><line x1="270.117" y1="263.398" x2="273.909" y2="267.19"/><line x1="270.117" y1="267.19" x2="273.909" y2="263.398"/>
<line x1="274.617" y1="283.642" x2="278.409" y2="283.642"/><line x1="276.513" y1="281.745" x2="276.513" y2="285.538"/><line x1="274.617" y1="281.745" x2="278.409" y2="285.538"/><line x1="274.617" y1="285.538" x2="278.409" y2="281.745"/>
<line x1="279.117" y1="242.858" x2="282.909" y2="242.858"/><line x1="281.013" y1="240.962" x2="281.013" y2="244.754"/><line x1="279.117" y1="240.962" x2="282.909" y2="244.754"/><line x1="279.117" y1="244.754" x2="282.909" y2="240.962"/>
<line x1="283.617" y1="305.876" x2="287.409" y2="305.876"/><line x1="285.513" y1="303.98" x2="285.513" y2="307.772"/><line x1="283.617" y1="303.98" x2="287.409" y2="307.772"/><line x1="283.617" y1="307.772" x2="287.409" y2="303.98"/>
<line x1="288.117" y1="231.436" x2="291.909" y2="231.436"/><line x1="290.013" y1="229.54" x2="290.013" y2="233.332"/><line x1="288.117" y1="229.54" x2="291.909" y2="233.332"/><line x1="288.117" y1="233.332" x2="291.909" y2="229.54"/>
<line x1="292.617" y1="239.568" x2="296.409" y2="239.568"/><line x1="294.513" y1="237.672" x2="294.513" y2="241.464"/><line x1="292.617" y1="237.672" x2="296.409" y2="241.464"/><line x1="292.617" y1="241.464" x2="296.409" y2="237.672"/>
<line x1="297.116" y1="193.261" x2="300.909" y2="193.261"/><line x1="299.013" y1="191.365" x2="299.013" y2="195.157"/><line x1="297.116" y1="191.365" x2="300.909" y2="195.157"/><line x1="297.116" y1="195.157" x2="300.909" y2="191.365"/>
<line x1="301.616" y1="215.291" x2="305.409" y2="215.291"/><line x1="303.512" y1="213.395" x2="303.512" y2="217.187"/><line x1="301.616" y1="213.395" x2="305.409" y2="217.187"/><line x1="301.616" y1="217.187" x2="305.409" y2="213.395"/>
<line x1="306.116" y1="101.582" x2="309.908" y2="101.582"/><line x1="308.012" y1="99.6863" x2="308.012" y2="103.478"/><line x1="306.116" y1="99.6863" x2="309.908" y2="103.478"/><line x1="306.116" y1="103.478" x2="309.908" y2="99.6863"/>
<line x1="310.616" y1="63.5605" x2="314.408" y2="63.5605"/><line x1="312.512" y1="61.6644" x2="312.512" y2="65.4566"/><line x1="310.616" y1="61.6644" x2="314.408" y2="65.4566"/><line x1="310.616" y1="65.4566" x2="314.408" y2="61.6644"/>
</g>
<g stroke="black" stroke-width="1" fill="none">
<line x1="324.116" y1="43.7436" x2="327.908" y2="43.7436"/><line x1="326.012" y1="41.8475" x2="326.012" y2="45.6397"/><line x1="324.116" y1="41.8475" x2="327.908" y2="45.6397"/><line x1="324.116" y1="45.6397" x2="327.908" y2="41.8475"/>
<line x1="328.616" y1="75.9678" x2="332.408" y2="75.9678"/><line x1="330.512" y1="74.0717" x2="330.512" y2="77.8639"/><line x1="328.616" y1="74.0717" x2="332.408" y2="77.8639"/><line x1="328.616" y1="77.8639" x2="332.408" y2="74.0717"/>
</g>
<g stroke="black" stroke-width="1" fill="none">
<line x1="427.613" y1="43.221" x2="431.405" y2="43.221"/><line x1="429.509" y1="41.3249" x2="429.509" y2="45.1171"/><line x1="427.613" y1="41.3249" x2="431.405" y2="45.1171"/><line x1="427.613" y1="45.1171" x2="431.405" y2="41.3249"/>
</g>
<g stroke="black" stroke-width="1" fill="none">
<line x1="450.113" y1="74.6467" x2="453.905" y2="74.6467"/><line x1="452.009" y1="72.7506" x2="452.009" y2="76.5428"/><line x1="450.113" y1="72.7506" x2="453.905" y2="76.5428"/><line x1="450.113" y1="76.5428" x2="453.905" y2="72.7506"/>
<line x1="454.613" y1="110.62" x2="458.405" y2="110.62"/><line x1="456.509" y1="108.724" x2="456.509" y2="112.516"/><line x1="454.613" y1="108.724" x2="458.405" y2="112.516"/><line x1="454.613" y1="112.516" x2="458.405" y2="108.724"/>
<line x1="459.112" y1="109.814" x2="462.905" y2="109.814"/><line x1="461.009" y1="107.918" x2="461.009" y2="111.71"/><line x1="459.112" y1="107.918" x2="462.905" y2="111.71"/><line x1="459.112" y1="111.71" x2="462.905" y2="107.918"/>
</g>
<path d="M0.5,272.809h 566.929" fill="none" stroke="#0000ff"/></svg>
