<?xml version="1.0" standalone="no"?>
<svg width="567.429" height="413.846" viewBox="0 0 567.429 413.846" xmlns="http://www.w3.org/2000/svg" shape-rendering="crispEdges">
<title>
figures/chi2zoomin_4PMTnpefilelist20.svg
</title>
<desc>
Creator: ROOT Version 6.18/04
CreationDate: Fri Nov  1 11:25:38 2019</desc>
<defs>
</defs>
<rect x="0.5" y="0" width="566.929" height="413.346" fill="white"/>
<rect x="57.1929" y="41.3346" width="453.543" height="330.677" fill="white"/>
<rect x="57.1929" y="41.3346" width="453.543" height="330.677" fill="none" stroke="black"/>
<path d="M57.1929,372.012h 453.543" fill="none" stroke="black"/>
<path d="M62.5519,41.3346v 330.677" fill="none" stroke="black" stroke-dasharray=" 1, 2"/>
<path d="M107.551,41.3346v 330.677" fill="none" stroke="black" stroke-dasharray=" 1, 2"/>
<path d="M152.55,41.3346v 330.677" fill="none" stroke="black" stroke-dasharray=" 1, 2"/>
<path d="M197.549,41.3346v 330.677" fill="none" stroke="black" stroke-dasharray=" 1, 2"/>
<path d="M242.547,41.3346v 330.677" fill="none" stroke="black" stroke-dasharray=" 1, 2"/>
<path d="M287.546,41.3346v 330.677" fill="none" stroke="black" stroke-dasharray=" 1, 2"/>
<path d="M332.545,41.3346v 330.677" fill="none" stroke="black" stroke-dasharray=" 1, 2"/>
<path d="M377.544,41.3346v 330.677" fill="none" stroke="black" stroke-dasharray=" 1, 2"/>
<path d="M422.543,41.3346v 330.677" fill="none" stroke="black" stroke-dasharray=" 1, 2"/>
<path d="M467.542,41.3346v 330.677" fill="none" stroke="black" stroke-dasharray=" 1, 2"/>
<path d="M62.5519,41.3346v 330.677" fill="none" stroke="black" stroke-dasharray=" 1, 2"/>
<path d="M467.542,41.3346v 330.677" fill="none" stroke="black" stroke-dasharray=" 1, 2"/>
<path d="M57.1929,372.012v -330.677" fill="none" stroke="black"/>
<path d="M57.1929,372.012h 453.543" fill="none" stroke="black"/>
<path d="M62.5519,362.091v 9.92031" fill="none" stroke="black"/>
<path d="M73.8016,367.052v 4.96016" fill="none" stroke="black"/>
<path d="M85.0514,367.052v 4.96016" fill="none" stroke="black"/>
<path d="M96.3011,367.052v 4.96016" fill="none" stroke="black"/>
<path d="M107.551,362.091v 9.92031" fill="none" stroke="black"/>
<path d="M118.801,367.052v 4.96016" fill="none" stroke="black"/>
<path d="M130.05,367.052v 4.96016" fill="none" stroke="black"/>
<path d="M141.3,367.052v 4.96016" fill="none" stroke="black"/>
<path d="M152.55,362.091v 9.92031" fill="none" stroke="black"/>
<path d="M163.799,367.052v 4.96016" fill="none" stroke="black"/>
<path d="M175.049,367.052v 4.96016" fill="none" stroke="black"/>
<path d="M186.299,367.052v 4.96016" fill="none" stroke="black"/>
<path d="M197.549,362.091v 9.92031" fill="none" stroke="black"/>
<path d="M208.798,367.052v 4.96016" fill="none" stroke="black"/>
<path d="M220.048,367.052v 4.96016" fill="none" stroke="black"/>
<path d="M231.298,367.052v 4.96016" fill="none" stroke="black"/>
<path d="M242.547,362.091v 9.92031" fill="none" stroke="black"/>
<path d="M253.797,367.052v 4.96016" fill="none" stroke="black"/>
<path d="M265.047,367.052v 4.96016" fill="none" stroke="black"/>
<path d="M276.297,367.052v 4.96016" fill="none" stroke="black"/>
<path d="M287.546,362.091v 9.92031" fill="none" stroke="black"/>
<path d="M298.796,367.052v 4.96016" fill="none" stroke="black"/>
<path d="M310.046,367.052v 4.96016" fill="none" stroke="black"/>
<path d="M321.295,367.052v 4.96016" fill="none" stroke="black"/>
<path d="M332.545,362.091v 9.92031" fill="none" stroke="black"/>
<path d="M343.795,367.052v 4.96016" fill="none" stroke="black"/>
<path d="M355.045,367.052v 4.96016" fill="none" stroke="black"/>
<path d="M366.294,367.052v 4.96016" fill="none" stroke="black"/>
<path d="M377.544,362.091v 9.92031" fill="none" stroke="black"/>
<path d="M388.794,367.052v 4.96016" fill="none" stroke="black"/>
<path d="M400.043,367.052v 4.96016" fill="none" stroke="black"/>
<path d="M411.293,367.052v 4.96016" fill="none" stroke="black"/>
<path d="M422.543,362.091v 9.92031" fill="none" stroke="black"/>
<path d="M433.793,367.052v 4.96016" fill="none" stroke="black"/>
<path d="M445.042,367.052v 4.96016" fill="none" stroke="black"/>
<path d="M456.292,367.052v 4.96016" fill="none" stroke="black"/>
<path d="M467.542,362.091v 9.92031" fill="none" stroke="black"/>
<path d="M62.5519,362.091v 9.92031" fill="none" stroke="black"/>
<path d="M467.542,362.091v 9.92031" fill="none" stroke="black"/>
<path d="M478.792,367.052v 4.96016" fill="none" stroke="black"/>
<path d="M490.041,367.052v 4.96016" fill="none" stroke="black"/>
<path d="M501.291,367.052v 4.96016" fill="none" stroke="black"/>
<text xml:space="preserve" x="45.532" y="385.379" fill="black" font-size="13.7726" font-family="Helvetica">0.982</text>
<text xml:space="preserve" x="90.564" y="385.379" fill="black" font-size="13.7726" font-family="Helvetica">0.984</text>
<text xml:space="preserve" x="135.596" y="385.379" fill="black" font-size="13.7726" font-family="Helvetica">0.986</text>
<text xml:space="preserve" x="180.628" y="385.379" fill="black" font-size="13.7726" font-family="Helvetica">0.988</text>
<text xml:space="preserve" x="229.452" y="385.379" fill="black" font-size="13.7726" font-family="Helvetica">0.99</text>
<text xml:space="preserve" x="270.692" y="385.379" fill="black" font-size="13.7726" font-family="Helvetica">0.992</text>
<text xml:space="preserve" x="315.724" y="385.379" fill="black" font-size="13.7726" font-family="Helvetica">0.994</text>
<text xml:space="preserve" x="360.756" y="385.379" fill="black" font-size="13.7726" font-family="Helvetica">0.996</text>
<text xml:space="preserve" x="405.788" y="385.379" fill="black" font-size="13.7726" font-family="Helvetica">0.998</text>
<text xml:space="preserve" x="465.041" y="385.379" fill="black" font-size="13.7726" font-family="Helvetica">1</text>
<text xml:space="preserve" x="413.372" y="400.074" fill="black" font-size="13.7726" font-family="Helvetica">calibration factor</text>
<path d="M57.1929,372.012v -330.677" fill="none" stroke="black"/>
<path d="M70.7992,342.486h -13.6063" fill="none" stroke="black"/>
<path d="M63.9961,335.873h -6.80315" fill="none" stroke="black"/>
<path d="M63.9961,329.259h -6.80315" fill="none" stroke="black"/>
<path d="M63.9961,322.646h -6.80315" fill="none" stroke="black"/>
<path d="M63.9961,316.032h -6.80315" fill="none" stroke="black"/>
<path d="M70.7992,309.419h -13.6063" fill="none" stroke="black"/>
<path d="M63.9961,302.805h -6.80315" fill="none" stroke="black"/>
<path d="M63.9961,296.192h -6.80315" fill="none" stroke="black"/>
<path d="M63.9961,289.578h -6.80315" fill="none" stroke="black"/>
<path d="M63.9961,282.964h -6.80315" fill="none" stroke="black"/>
<path d="M70.7992,276.351h -13.6063" fill="none" stroke="black"/>
<path d="M63.9961,269.737h -6.80315" fill="none" stroke="black"/>
<path d="M63.9961,263.124h -6.80315" fill="none" stroke="black"/>
<path d="M63.9961,256.51h -6.80315" fill="none" stroke="black"/>
<path d="M63.9961,249.897h -6.80315" fill="none" stroke="black"/>
<path d="M70.7992,243.283h -13.6063" fill="none" stroke="black"/>
<path d="M63.9961,236.67h -6.80315" fill="none" stroke="black"/>
<path d="M63.9961,230.056h -6.80315" fill="none" stroke="black"/>
<path d="M63.9961,223.443h -6.80315" fill="none" stroke="black"/>
<path d="M63.9961,216.829h -6.80315" fill="none" stroke="black"/>
<path d="M70.7992,210.216h -13.6063" fill="none" stroke="black"/>
<path d="M63.9961,203.602h -6.80315" fill="none" stroke="black"/>
<path d="M63.9961,196.988h -6.80315" fill="none" stroke="black"/>
<path d="M63.9961,190.375h -6.80315" fill="none" stroke="black"/>
<path d="M63.9961,183.761h -6.80315" fill="none" stroke="black"/>
<path d="M70.7992,177.148h -13.6063" fill="none" stroke="black"/>
<path d="M63.9961,170.534h -6.80315" fill="none" stroke="black"/>
<path d="M63.9961,163.921h -6.80315" fill="none" stroke="black"/>
<path d="M63.9961,157.307h -6.80315" fill="none" stroke="black"/>
<path d="M63.9961,150.694h -6.80315" fill="none" stroke="black"/>
<path d="M70.7992,144.08h -13.6063" fill="none" stroke="black"/>
<path d="M63.9961,137.467h -6.80315" fill="none" stroke="black"/>
<path d="M63.9961,130.853h -6.80315" fill="none" stroke="black"/>
<path d="M63.9961,124.239h -6.80315" fill="none" stroke="black"/>
<path d="M63.9961,117.626h -6.80315" fill="none" stroke="black"/>
<path d="M70.7992,111.012h -13.6063" fill="none" stroke="black"/>
<path d="M63.9961,104.399h -6.80315" fill="none" stroke="black"/>
<path d="M63.9961,97.7853h -6.80315" fill="none" stroke="black"/>
<path d="M63.9961,91.1718h -6.80315" fill="none" stroke="black"/>
<path d="M63.9961,84.5583h -6.80315" fill="none" stroke="black"/>
<path d="M70.7992,77.9447h -13.6063" fill="none" stroke="black"/>
<path d="M63.9961,71.3312h -6.80315" fill="none" stroke="black"/>
<path d="M63.9961,64.7176h -6.80315" fill="none" stroke="black"/>
<path d="M63.9961,58.1041h -6.80315" fill="none" stroke="black"/>
<path d="M63.9961,51.4905h -6.80315" fill="none" stroke="black"/>
<path d="M70.7992,44.877h -13.6063" fill="none" stroke="black"/>
<path d="M70.7992,342.486h -13.6063" fill="none" stroke="black"/>
<path d="M63.9961,349.1h -6.80315" fill="none" stroke="black"/>
<path d="M63.9961,355.713h -6.80315" fill="none" stroke="black"/>
<path d="M63.9961,362.327h -6.80315" fill="none" stroke="black"/>
<path d="M63.9961,368.941h -6.80315" fill="none" stroke="black"/>
<path d="M70.7992,44.877h -13.6063" fill="none" stroke="black"/>
<text xml:space="preserve" x="32.2594" y="346.983" fill="black" font-size="13.7726" font-family="Helvetica">134</text>
<text xml:space="preserve" x="32.2594" y="313.802" fill="black" font-size="13.7726" font-family="Helvetica">135</text>
<text xml:space="preserve" x="32.2594" y="280.62" fill="black" font-size="13.7726" font-family="Helvetica">136</text>
<text xml:space="preserve" x="32.2594" y="247.913" fill="black" font-size="13.7726" font-family="Helvetica">137</text>
<text xml:space="preserve" x="32.2594" y="214.732" fill="black" font-size="13.7726" font-family="Helvetica">138</text>
<text xml:space="preserve" x="32.2594" y="181.55" fill="black" font-size="13.7726" font-family="Helvetica">139</text>
<text xml:space="preserve" x="32.2594" y="148.369" fill="black" font-size="13.7726" font-family="Helvetica">140</text>
<text xml:space="preserve" x="34.6295" y="116.135" fill="black" font-size="13.7726" font-family="Helvetica">141</text>
<text xml:space="preserve" x="32.2594" y="82.9537" fill="black" font-size="13.7726" font-family="Helvetica">142</text>
<text xml:space="preserve" x="32.2594" y="49.2982" fill="black" font-size="13.7726" font-family="Helvetica">143</text>
<g transform="rotate(-90,15.1947,45.98)">
<text xml:space="preserve" x="15.1947" y="45.98" fill="black" font-size="9.34839" font-family="Helvetica">2</text>
</g>
<g transform="rotate(-90,19.4608,50.2462)">
<text xml:space="preserve" x="19.4608" y="50.2462" fill="black" font-size="13.7726" font-family="Helvetica"> </text>
</g>
<g transform="rotate(-90,19.4608,57.3565)">
<text xml:space="preserve" x="19.4608" y="57.3565" fill="black" font-size="13.7726" font-family="Times">&#0967;</text>
</g>
<g stroke="black" stroke-width="1" fill="none">
<line x1="191.153" y1="47.7067" x2="194.945" y2="47.7067"/><line x1="193.049" y1="45.8106" x2="193.049" y2="49.6028"/><line x1="191.153" y1="45.8106" x2="194.945" y2="49.6028"/><line x1="191.153" y1="49.6028" x2="194.945" y2="45.8106"/>
<line x1="195.652" y1="47.7067" x2="199.445" y2="47.7067"/><line x1="197.549" y1="45.8106" x2="197.549" y2="49.6028"/><line x1="195.652" y1="45.8106" x2="199.445" y2="49.6028"/><line x1="195.652" y1="49.6028" x2="199.445" y2="45.8106"/>
<line x1="200.152" y1="88.3626" x2="203.945" y2="88.3626"/><line x1="202.048" y1="86.4665" x2="202.048" y2="90.2587"/><line x1="200.152" y1="86.4665" x2="203.945" y2="90.2587"/><line x1="200.152" y1="90.2587" x2="203.945" y2="86.4665"/>
<line x1="204.652" y1="88.3626" x2="208.444" y2="88.3626"/><line x1="206.548" y1="86.4665" x2="206.548" y2="90.2587"/><line x1="204.652" y1="86.4665" x2="208.444" y2="90.2587"/><line x1="204.652" y1="90.2587" x2="208.444" y2="86.4665"/>
<line x1="209.152" y1="88.3626" x2="212.944" y2="88.3626"/><line x1="211.048" y1="86.4665" x2="211.048" y2="90.2587"/><line x1="209.152" y1="86.4665" x2="212.944" y2="90.2587"/><line x1="209.152" y1="90.2587" x2="212.944" y2="86.4665"/>
<line x1="213.652" y1="88.3626" x2="217.444" y2="88.3626"/><line x1="215.548" y1="86.4665" x2="215.548" y2="90.2587"/><line x1="213.652" y1="86.4665" x2="217.444" y2="90.2587"/><line x1="213.652" y1="90.2587" x2="217.444" y2="86.4665"/>
<line x1="218.152" y1="88.3626" x2="221.944" y2="88.3626"/><line x1="220.048" y1="86.4665" x2="220.048" y2="90.2587"/><line x1="218.152" y1="86.4665" x2="221.944" y2="90.2587"/><line x1="218.152" y1="90.2587" x2="221.944" y2="86.4665"/>
<line x1="222.652" y1="88.3626" x2="226.444" y2="88.3626"/><line x1="224.548" y1="86.4665" x2="224.548" y2="90.2587"/><line x1="222.652" y1="86.4665" x2="226.444" y2="90.2587"/><line x1="222.652" y1="90.2587" x2="226.444" y2="86.4665"/>
<line x1="227.152" y1="88.3626" x2="230.944" y2="88.3626"/><line x1="229.048" y1="86.4665" x2="229.048" y2="90.2587"/><line x1="227.152" y1="86.4665" x2="230.944" y2="90.2587"/><line x1="227.152" y1="90.2587" x2="230.944" y2="86.4665"/>
<line x1="231.652" y1="77.6729" x2="235.444" y2="77.6729"/><line x1="233.548" y1="75.7768" x2="233.548" y2="79.569"/><line x1="231.652" y1="75.7768" x2="235.444" y2="79.569"/><line x1="231.652" y1="79.569" x2="235.444" y2="75.7768"/>
<line x1="236.151" y1="77.6729" x2="239.944" y2="77.6729"/><line x1="238.048" y1="75.7768" x2="238.048" y2="79.569"/><line x1="236.151" y1="75.7768" x2="239.944" y2="79.569"/><line x1="236.151" y1="79.569" x2="239.944" y2="75.7768"/>
<line x1="240.651" y1="77.6729" x2="244.444" y2="77.6729"/><line x1="242.547" y1="75.7768" x2="242.547" y2="79.569"/><line x1="240.651" y1="75.7768" x2="244.444" y2="79.569"/><line x1="240.651" y1="79.569" x2="244.444" y2="75.7768"/>
<line x1="245.151" y1="99.0699" x2="248.943" y2="99.0699"/><line x1="247.047" y1="97.1738" x2="247.047" y2="100.966"/><line x1="245.151" y1="97.1738" x2="248.943" y2="100.966"/><line x1="245.151" y1="100.966" x2="248.943" y2="97.1738"/>
<line x1="249.651" y1="165.277" x2="253.443" y2="165.277"/><line x1="251.547" y1="163.381" x2="251.547" y2="167.173"/><line x1="249.651" y1="163.381" x2="253.443" y2="167.173"/><line x1="249.651" y1="167.173" x2="253.443" y2="163.381"/>
<line x1="254.151" y1="165.277" x2="257.943" y2="165.277"/><line x1="256.047" y1="163.381" x2="256.047" y2="167.173"/><line x1="254.151" y1="163.381" x2="257.943" y2="167.173"/><line x1="254.151" y1="167.173" x2="257.943" y2="163.381"/>
<line x1="258.651" y1="165.277" x2="262.443" y2="165.277"/><line x1="260.547" y1="163.381" x2="260.547" y2="167.173"/><line x1="258.651" y1="163.381" x2="262.443" y2="167.173"/><line x1="258.651" y1="167.173" x2="262.443" y2="163.381"/>
<line x1="263.151" y1="165.277" x2="266.943" y2="165.277"/><line x1="265.047" y1="163.381" x2="265.047" y2="167.173"/><line x1="263.151" y1="163.381" x2="266.943" y2="167.173"/><line x1="263.151" y1="167.173" x2="266.943" y2="163.381"/>
<line x1="267.651" y1="165.277" x2="271.443" y2="165.277"/><line x1="269.547" y1="163.381" x2="269.547" y2="167.173"/><line x1="267.651" y1="163.381" x2="271.443" y2="167.173"/><line x1="267.651" y1="167.173" x2="271.443" y2="163.381"/>
<line x1="272.151" y1="165.277" x2="275.943" y2="165.277"/><line x1="274.047" y1="163.381" x2="274.047" y2="167.173"/><line x1="272.151" y1="163.381" x2="275.943" y2="167.173"/><line x1="272.151" y1="167.173" x2="275.943" y2="163.381"/>
<line x1="276.65" y1="202.397" x2="280.443" y2="202.397"/><line x1="278.547" y1="200.501" x2="278.547" y2="204.293"/><line x1="276.65" y1="200.501" x2="280.443" y2="204.293"/><line x1="276.65" y1="204.293" x2="280.443" y2="200.501"/>
<line x1="281.15" y1="305.876" x2="284.943" y2="305.876"/><line x1="283.046" y1="303.98" x2="283.046" y2="307.772"/><line x1="281.15" y1="303.98" x2="284.943" y2="307.772"/><line x1="281.15" y1="307.772" x2="284.943" y2="303.98"/>
</g>
<path d="M0.5,272.809h 566.929" fill="none" stroke="#0000ff"/></svg>
