<?xml version="1.0" standalone="no"?>
<svg width="567.429" height="413.846" viewBox="0 0 567.429 413.846" xmlns="http://www.w3.org/2000/svg" shape-rendering="crispEdges">
<title>
figures/chi2zoomin_7PMTnpefilelist20.svg
</title>
<desc>
Creator: ROOT Version 6.18/04
CreationDate: Fri Nov  1 11:25:54 2019</desc>
<defs>
</defs>
<rect x="0.5" y="0" width="566.929" height="413.346" fill="white"/>
<rect x="57.1929" y="41.3346" width="453.543" height="330.677" fill="white"/>
<rect x="57.1929" y="41.3346" width="453.543" height="330.677" fill="none" stroke="black"/>
<path d="M57.1929,372.012h 453.543" fill="none" stroke="black"/>
<path d="M71.0973,41.3346v 330.677" fill="none" stroke="black" stroke-dasharray=" 1, 2"/>
<path d="M115.567,41.3346v 330.677" fill="none" stroke="black" stroke-dasharray=" 1, 2"/>
<path d="M160.036,41.3346v 330.677" fill="none" stroke="black" stroke-dasharray=" 1, 2"/>
<path d="M204.506,41.3346v 330.677" fill="none" stroke="black" stroke-dasharray=" 1, 2"/>
<path d="M248.975,41.3346v 330.677" fill="none" stroke="black" stroke-dasharray=" 1, 2"/>
<path d="M293.445,41.3346v 330.677" fill="none" stroke="black" stroke-dasharray=" 1, 2"/>
<path d="M337.914,41.3346v 330.677" fill="none" stroke="black" stroke-dasharray=" 1, 2"/>
<path d="M382.384,41.3346v 330.677" fill="none" stroke="black" stroke-dasharray=" 1, 2"/>
<path d="M426.853,41.3346v 330.677" fill="none" stroke="black" stroke-dasharray=" 1, 2"/>
<path d="M471.323,41.3346v 330.677" fill="none" stroke="black" stroke-dasharray=" 1, 2"/>
<path d="M71.0973,41.3346v 330.677" fill="none" stroke="black" stroke-dasharray=" 1, 2"/>
<path d="M471.323,41.3346v 330.677" fill="none" stroke="black" stroke-dasharray=" 1, 2"/>
<path d="M57.1929,372.012v -330.677" fill="none" stroke="black"/>
<path d="M57.1929,372.012h 453.543" fill="none" stroke="black"/>
<path d="M71.0973,362.091v 9.92031" fill="none" stroke="black"/>
<path d="M82.2146,367.052v 4.96016" fill="none" stroke="black"/>
<path d="M93.332,367.052v 4.96016" fill="none" stroke="black"/>
<path d="M104.449,367.052v 4.96016" fill="none" stroke="black"/>
<path d="M115.567,362.091v 9.92031" fill="none" stroke="black"/>
<path d="M126.684,367.052v 4.96016" fill="none" stroke="black"/>
<path d="M137.801,367.052v 4.96016" fill="none" stroke="black"/>
<path d="M148.919,367.052v 4.96016" fill="none" stroke="black"/>
<path d="M160.036,362.091v 9.92031" fill="none" stroke="black"/>
<path d="M171.154,367.052v 4.96016" fill="none" stroke="black"/>
<path d="M182.271,367.052v 4.96016" fill="none" stroke="black"/>
<path d="M193.388,367.052v 4.96016" fill="none" stroke="black"/>
<path d="M204.506,362.091v 9.92031" fill="none" stroke="black"/>
<path d="M215.623,367.052v 4.96016" fill="none" stroke="black"/>
<path d="M226.74,367.052v 4.96016" fill="none" stroke="black"/>
<path d="M237.858,367.052v 4.96016" fill="none" stroke="black"/>
<path d="M248.975,362.091v 9.92031" fill="none" stroke="black"/>
<path d="M260.093,367.052v 4.96016" fill="none" stroke="black"/>
<path d="M271.21,367.052v 4.96016" fill="none" stroke="black"/>
<path d="M282.327,367.052v 4.96016" fill="none" stroke="black"/>
<path d="M293.445,362.091v 9.92031" fill="none" stroke="black"/>
<path d="M304.562,367.052v 4.96016" fill="none" stroke="black"/>
<path d="M315.679,367.052v 4.96016" fill="none" stroke="black"/>
<path d="M326.797,367.052v 4.96016" fill="none" stroke="black"/>
<path d="M337.914,362.091v 9.92031" fill="none" stroke="black"/>
<path d="M349.031,367.052v 4.96016" fill="none" stroke="black"/>
<path d="M360.149,367.052v 4.96016" fill="none" stroke="black"/>
<path d="M371.266,367.052v 4.96016" fill="none" stroke="black"/>
<path d="M382.384,362.091v 9.92031" fill="none" stroke="black"/>
<path d="M393.501,367.052v 4.96016" fill="none" stroke="black"/>
<path d="M404.618,367.052v 4.96016" fill="none" stroke="black"/>
<path d="M415.736,367.052v 4.96016" fill="none" stroke="black"/>
<path d="M426.853,362.091v 9.92031" fill="none" stroke="black"/>
<path d="M437.97,367.052v 4.96016" fill="none" stroke="black"/>
<path d="M449.088,367.052v 4.96016" fill="none" stroke="black"/>
<path d="M460.205,367.052v 4.96016" fill="none" stroke="black"/>
<path d="M471.323,362.091v 9.92031" fill="none" stroke="black"/>
<path d="M71.0973,362.091v 9.92031" fill="none" stroke="black"/>
<path d="M59.9799,367.052v 4.96016" fill="none" stroke="black"/>
<path d="M471.323,362.091v 9.92031" fill="none" stroke="black"/>
<path d="M482.44,367.052v 4.96016" fill="none" stroke="black"/>
<path d="M493.557,367.052v 4.96016" fill="none" stroke="black"/>
<path d="M504.675,367.052v 4.96016" fill="none" stroke="black"/>
<text xml:space="preserve" x="54.0644" y="385.379" fill="black" font-size="13.7726" font-family="Helvetica">0.854</text>
<text xml:space="preserve" x="98.6224" y="385.379" fill="black" font-size="13.7726" font-family="Helvetica">0.856</text>
<text xml:space="preserve" x="143.18" y="385.379" fill="black" font-size="13.7726" font-family="Helvetica">0.858</text>
<text xml:space="preserve" x="191.53" y="385.379" fill="black" font-size="13.7726" font-family="Helvetica">0.86</text>
<text xml:space="preserve" x="232.296" y="385.379" fill="black" font-size="13.7726" font-family="Helvetica">0.862</text>
<text xml:space="preserve" x="276.38" y="385.379" fill="black" font-size="13.7726" font-family="Helvetica">0.864</text>
<text xml:space="preserve" x="320.938" y="385.379" fill="black" font-size="13.7726" font-family="Helvetica">0.866</text>
<text xml:space="preserve" x="365.496" y="385.379" fill="black" font-size="13.7726" font-family="Helvetica">0.868</text>
<text xml:space="preserve" x="413.846" y="385.379" fill="black" font-size="13.7726" font-family="Helvetica">0.87</text>
<text xml:space="preserve" x="454.612" y="385.379" fill="black" font-size="13.7726" font-family="Helvetica">0.872</text>
<text xml:space="preserve" x="413.372" y="400.074" fill="black" font-size="13.7726" font-family="Helvetica">calibration factor</text>
<path d="M57.1929,372.012v -330.677" fill="none" stroke="black"/>
<path d="M70.7992,359.793h -13.6063" fill="none" stroke="black"/>
<path d="M63.9961,353.179h -6.80315" fill="none" stroke="black"/>
<path d="M63.9961,346.565h -6.80315" fill="none" stroke="black"/>
<path d="M63.9961,339.952h -6.80315" fill="none" stroke="black"/>
<path d="M63.9961,333.338h -6.80315" fill="none" stroke="black"/>
<path d="M70.7992,326.725h -13.6063" fill="none" stroke="black"/>
<path d="M63.9961,320.111h -6.80315" fill="none" stroke="black"/>
<path d="M63.9961,313.498h -6.80315" fill="none" stroke="black"/>
<path d="M63.9961,306.884h -6.80315" fill="none" stroke="black"/>
<path d="M63.9961,300.271h -6.80315" fill="none" stroke="black"/>
<path d="M70.7992,293.657h -13.6063" fill="none" stroke="black"/>
<path d="M63.9961,287.044h -6.80315" fill="none" stroke="black"/>
<path d="M63.9961,280.43h -6.80315" fill="none" stroke="black"/>
<path d="M63.9961,273.817h -6.80315" fill="none" stroke="black"/>
<path d="M63.9961,267.203h -6.80315" fill="none" stroke="black"/>
<path d="M70.7992,260.589h -13.6063" fill="none" stroke="black"/>
<path d="M63.9961,253.976h -6.80315" fill="none" stroke="black"/>
<path d="M63.9961,247.362h -6.80315" fill="none" stroke="black"/>
<path d="M63.9961,240.749h -6.80315" fill="none" stroke="black"/>
<path d="M63.9961,234.135h -6.80315" fill="none" stroke="black"/>
<path d="M70.7992,227.522h -13.6063" fill="none" stroke="black"/>
<path d="M63.9961,220.908h -6.80315" fill="none" stroke="black"/>
<path d="M63.9961,214.295h -6.80315" fill="none" stroke="black"/>
<path d="M63.9961,207.681h -6.80315" fill="none" stroke="black"/>
<path d="M63.9961,201.068h -6.80315" fill="none" stroke="black"/>
<path d="M70.7992,194.454h -13.6063" fill="none" stroke="black"/>
<path d="M63.9961,187.841h -6.80315" fill="none" stroke="black"/>
<path d="M63.9961,181.227h -6.80315" fill="none" stroke="black"/>
<path d="M63.9961,174.613h -6.80315" fill="none" stroke="black"/>
<path d="M63.9961,168h -6.80315" fill="none" stroke="black"/>
<path d="M70.7992,161.386h -13.6063" fill="none" stroke="black"/>
<path d="M63.9961,154.773h -6.80315" fill="none" stroke="black"/>
<path d="M63.9961,148.159h -6.80315" fill="none" stroke="black"/>
<path d="M63.9961,141.546h -6.80315" fill="none" stroke="black"/>
<path d="M63.9961,134.932h -6.80315" fill="none" stroke="black"/>
<path d="M70.7992,128.319h -13.6063" fill="none" stroke="black"/>
<path d="M63.9961,121.705h -6.80315" fill="none" stroke="black"/>
<path d="M63.9961,115.092h -6.80315" fill="none" stroke="black"/>
<path d="M63.9961,108.478h -6.80315" fill="none" stroke="black"/>
<path d="M63.9961,101.864h -6.80315" fill="none" stroke="black"/>
<path d="M70.7992,95.2509h -13.6063" fill="none" stroke="black"/>
<path d="M63.9961,88.6374h -6.80315" fill="none" stroke="black"/>
<path d="M63.9961,82.0239h -6.80315" fill="none" stroke="black"/>
<path d="M63.9961,75.4103h -6.80315" fill="none" stroke="black"/>
<path d="M63.9961,68.7968h -6.80315" fill="none" stroke="black"/>
<path d="M70.7992,62.1832h -13.6063" fill="none" stroke="black"/>
<path d="M70.7992,359.793h -13.6063" fill="none" stroke="black"/>
<path d="M63.9961,366.406h -6.80315" fill="none" stroke="black"/>
<path d="M70.7992,62.1832h -13.6063" fill="none" stroke="black"/>
<path d="M63.9961,55.5697h -6.80315" fill="none" stroke="black"/>
<path d="M63.9961,48.9562h -6.80315" fill="none" stroke="black"/>
<path d="M63.9961,42.3426h -6.80315" fill="none" stroke="black"/>
<text xml:space="preserve" x="32.2594" y="364.522" fill="black" font-size="13.7726" font-family="Helvetica">193</text>
<text xml:space="preserve" x="32.2594" y="331.341" fill="black" font-size="13.7726" font-family="Helvetica">194</text>
<text xml:space="preserve" x="32.2594" y="298.159" fill="black" font-size="13.7726" font-family="Helvetica">195</text>
<text xml:space="preserve" x="32.2594" y="264.978" fill="black" font-size="13.7726" font-family="Helvetica">196</text>
<text xml:space="preserve" x="32.2594" y="231.796" fill="black" font-size="13.7726" font-family="Helvetica">197</text>
<text xml:space="preserve" x="32.2594" y="199.089" fill="black" font-size="13.7726" font-family="Helvetica">198</text>
<text xml:space="preserve" x="32.2594" y="165.907" fill="black" font-size="13.7726" font-family="Helvetica">199</text>
<text xml:space="preserve" x="32.2594" y="132.726" fill="black" font-size="13.7726" font-family="Helvetica">200</text>
<text xml:space="preserve" x="34.6295" y="99.5444" fill="black" font-size="13.7726" font-family="Helvetica">201</text>
<text xml:space="preserve" x="32.2594" y="66.837" fill="black" font-size="13.7726" font-family="Helvetica">202</text>
<g transform="rotate(-90,15.1947,45.98)">
<text xml:space="preserve" x="15.1947" y="45.98" fill="black" font-size="9.34839" font-family="Helvetica">2</text>
</g>
<g transform="rotate(-90,19.4608,50.2462)">
<text xml:space="preserve" x="19.4608" y="50.2462" fill="black" font-size="13.7726" font-family="Helvetica"> </text>
</g>
<g transform="rotate(-90,19.4608,57.3565)">
<text xml:space="preserve" x="19.4608" y="57.3565" fill="black" font-size="13.7726" font-family="Times">&#0967;</text>
</g>
<g stroke="black" stroke-width="1" fill="none">
<line x1="82.542" y1="60.9381" x2="86.3342" y2="60.9381"/><line x1="84.4381" y1="59.042" x2="84.4381" y2="62.8341"/><line x1="82.542" y1="59.042" x2="86.3342" y2="62.8341"/><line x1="82.542" y1="62.8341" x2="86.3342" y2="59.042"/>
</g>
<g stroke="black" stroke-width="1" fill="none">
<line x1="91.4359" y1="44.3876" x2="95.2281" y2="44.3876"/><line x1="93.332" y1="42.4916" x2="93.332" y2="46.2837"/><line x1="91.4359" y1="42.4916" x2="95.2281" y2="46.2837"/><line x1="91.4359" y1="46.2837" x2="95.2281" y2="42.4916"/>
</g>
<g stroke="black" stroke-width="1" fill="none">
<line x1="171.481" y1="52.1531" x2="175.273" y2="52.1531"/><line x1="173.377" y1="50.257" x2="173.377" y2="54.0492"/><line x1="171.481" y1="50.257" x2="175.273" y2="54.0492"/><line x1="171.481" y1="54.0492" x2="175.273" y2="50.257"/>
</g>
<g stroke="black" stroke-width="1" fill="none">
<line x1="184.822" y1="46.362" x2="188.614" y2="46.362"/><line x1="186.718" y1="44.4659" x2="186.718" y2="48.2581"/><line x1="184.822" y1="44.4659" x2="188.614" y2="48.2581"/><line x1="184.822" y1="48.2581" x2="188.614" y2="44.4659"/>
<line x1="189.269" y1="51.3321" x2="193.061" y2="51.3321"/><line x1="191.165" y1="49.4361" x2="191.165" y2="53.2282"/><line x1="189.269" y1="49.4361" x2="193.061" y2="53.2282"/><line x1="189.269" y1="53.2282" x2="193.061" y2="49.4361"/>
<line x1="193.716" y1="53.2457" x2="197.508" y2="53.2457"/><line x1="195.612" y1="51.3496" x2="195.612" y2="55.1418"/><line x1="193.716" y1="51.3496" x2="197.508" y2="55.1418"/><line x1="193.716" y1="55.1418" x2="197.508" y2="51.3496"/>
</g>
<g stroke="black" stroke-width="1" fill="none">
<line x1="215.95" y1="80.4754" x2="219.743" y2="80.4754"/><line x1="217.847" y1="78.5794" x2="217.847" y2="82.3715"/><line x1="215.95" y1="78.5794" x2="219.743" y2="82.3715"/><line x1="215.95" y1="82.3715" x2="219.743" y2="78.5794"/>
<line x1="220.397" y1="105.242" x2="224.19" y2="105.242"/><line x1="222.294" y1="103.346" x2="222.294" y2="107.138"/><line x1="220.397" y1="103.346" x2="224.19" y2="107.138"/><line x1="220.397" y1="107.138" x2="224.19" y2="103.346"/>
<line x1="224.844" y1="68.5971" x2="228.637" y2="68.5971"/><line x1="226.74" y1="66.701" x2="226.74" y2="70.4932"/><line x1="224.844" y1="66.701" x2="228.637" y2="70.4932"/><line x1="224.844" y1="70.4932" x2="228.637" y2="66.701"/>
<line x1="229.291" y1="122.311" x2="233.083" y2="122.311"/><line x1="231.187" y1="120.415" x2="231.187" y2="124.207"/><line x1="229.291" y1="120.415" x2="233.083" y2="124.207"/><line x1="229.291" y1="124.207" x2="233.083" y2="120.415"/>
<line x1="233.738" y1="90.8019" x2="237.53" y2="90.8019"/><line x1="235.634" y1="88.9058" x2="235.634" y2="92.6979"/><line x1="233.738" y1="88.9058" x2="237.53" y2="92.6979"/><line x1="233.738" y1="92.6979" x2="237.53" y2="88.9058"/>
<line x1="238.185" y1="63.1283" x2="241.977" y2="63.1283"/><line x1="240.081" y1="61.2322" x2="240.081" y2="65.0244"/><line x1="238.185" y1="61.2322" x2="241.977" y2="65.0244"/><line x1="238.185" y1="65.0244" x2="241.977" y2="61.2322"/>
<line x1="242.632" y1="48.6191" x2="246.424" y2="48.6191"/><line x1="244.528" y1="46.723" x2="244.528" y2="50.5152"/><line x1="242.632" y1="46.723" x2="246.424" y2="50.5152"/><line x1="242.632" y1="50.5152" x2="246.424" y2="46.723"/>
<line x1="247.079" y1="93.635" x2="250.871" y2="93.635"/><line x1="248.975" y1="91.7389" x2="248.975" y2="95.5311"/><line x1="247.079" y1="91.7389" x2="250.871" y2="95.5311"/><line x1="247.079" y1="95.5311" x2="250.871" y2="91.7389"/>
<line x1="251.526" y1="114.344" x2="255.318" y2="114.344"/><line x1="253.422" y1="112.448" x2="253.422" y2="116.24"/><line x1="251.526" y1="112.448" x2="255.318" y2="116.24"/><line x1="251.526" y1="116.24" x2="255.318" y2="112.448"/>
<line x1="255.973" y1="153.841" x2="259.765" y2="153.841"/><line x1="257.869" y1="151.945" x2="257.869" y2="155.737"/><line x1="255.973" y1="151.945" x2="259.765" y2="155.737"/><line x1="255.973" y1="155.737" x2="259.765" y2="151.945"/>
<line x1="260.42" y1="121.301" x2="264.212" y2="121.301"/><line x1="262.316" y1="119.405" x2="262.316" y2="123.197"/><line x1="260.42" y1="119.405" x2="264.212" y2="123.197"/><line x1="260.42" y1="123.197" x2="264.212" y2="119.405"/>
<line x1="264.867" y1="138.742" x2="268.659" y2="138.742"/><line x1="266.763" y1="136.846" x2="266.763" y2="140.638"/><line x1="264.867" y1="136.846" x2="268.659" y2="140.638"/><line x1="264.867" y1="140.638" x2="268.659" y2="136.846"/>
<line x1="269.314" y1="136.5" x2="273.106" y2="136.5"/><line x1="271.21" y1="134.604" x2="271.21" y2="138.396"/><line x1="269.314" y1="134.604" x2="273.106" y2="138.396"/><line x1="269.314" y1="138.396" x2="273.106" y2="134.604"/>
<line x1="273.761" y1="202.443" x2="277.553" y2="202.443"/><line x1="275.657" y1="200.547" x2="275.657" y2="204.339"/><line x1="273.761" y1="200.547" x2="277.553" y2="204.339"/><line x1="273.761" y1="204.339" x2="277.553" y2="200.547"/>
<line x1="278.208" y1="279.877" x2="282" y2="279.877"/><line x1="280.104" y1="277.981" x2="280.104" y2="281.773"/><line x1="278.208" y1="277.981" x2="282" y2="281.773"/><line x1="278.208" y1="281.773" x2="282" y2="277.981"/>
<line x1="282.655" y1="305.876" x2="286.447" y2="305.876"/><line x1="284.551" y1="303.98" x2="284.551" y2="307.772"/><line x1="282.655" y1="303.98" x2="286.447" y2="307.772"/><line x1="282.655" y1="307.772" x2="286.447" y2="303.98"/>
<line x1="287.102" y1="293.247" x2="290.894" y2="293.247"/><line x1="288.998" y1="291.351" x2="288.998" y2="295.143"/><line x1="287.102" y1="291.351" x2="290.894" y2="295.143"/><line x1="287.102" y1="295.143" x2="290.894" y2="291.351"/>
<line x1="291.549" y1="261.952" x2="295.341" y2="261.952"/><line x1="293.445" y1="260.056" x2="293.445" y2="263.848"/><line x1="291.549" y1="260.056" x2="295.341" y2="263.848"/><line x1="291.549" y1="263.848" x2="295.341" y2="260.056"/>
<line x1="295.996" y1="257.159" x2="299.788" y2="257.159"/><line x1="297.892" y1="255.263" x2="297.892" y2="259.055"/><line x1="295.996" y1="255.263" x2="299.788" y2="259.055"/><line x1="295.996" y1="259.055" x2="299.788" y2="255.263"/>
<line x1="300.442" y1="278.689" x2="304.235" y2="278.689"/><line x1="302.339" y1="276.793" x2="302.339" y2="280.585"/><line x1="300.442" y1="276.793" x2="304.235" y2="280.585"/><line x1="300.442" y1="280.585" x2="304.235" y2="276.793"/>
<line x1="304.889" y1="233.043" x2="308.682" y2="233.043"/><line x1="306.785" y1="231.146" x2="306.785" y2="234.939"/><line x1="304.889" y1="231.146" x2="308.682" y2="234.939"/><line x1="304.889" y1="234.939" x2="308.682" y2="231.146"/>
<line x1="309.336" y1="238.384" x2="313.129" y2="238.384"/><line x1="311.232" y1="236.488" x2="311.232" y2="240.281"/><line x1="309.336" y1="236.488" x2="313.129" y2="240.281"/><line x1="309.336" y1="240.281" x2="313.129" y2="236.488"/>
<line x1="313.783" y1="203.114" x2="317.575" y2="203.114"/><line x1="315.679" y1="201.218" x2="315.679" y2="205.01"/><line x1="313.783" y1="201.218" x2="317.575" y2="205.01"/><line x1="313.783" y1="205.01" x2="317.575" y2="201.218"/>
<line x1="318.23" y1="168.155" x2="322.022" y2="168.155"/><line x1="320.126" y1="166.259" x2="320.126" y2="170.051"/><line x1="318.23" y1="166.259" x2="322.022" y2="170.051"/><line x1="318.23" y1="170.051" x2="322.022" y2="166.259"/>
<line x1="322.677" y1="162.77" x2="326.469" y2="162.77"/><line x1="324.573" y1="160.874" x2="324.573" y2="164.667"/><line x1="322.677" y1="160.874" x2="326.469" y2="164.667"/><line x1="322.677" y1="164.667" x2="326.469" y2="160.874"/>
<line x1="327.124" y1="134.79" x2="330.916" y2="134.79"/><line x1="329.02" y1="132.894" x2="329.02" y2="136.686"/><line x1="327.124" y1="132.894" x2="330.916" y2="136.686"/><line x1="327.124" y1="136.686" x2="330.916" y2="132.894"/>
<line x1="331.571" y1="153.748" x2="335.363" y2="153.748"/><line x1="333.467" y1="151.852" x2="333.467" y2="155.644"/><line x1="331.571" y1="151.852" x2="335.363" y2="155.644"/><line x1="331.571" y1="155.644" x2="335.363" y2="151.852"/>
<line x1="336.018" y1="142.695" x2="339.81" y2="142.695"/><line x1="337.914" y1="140.799" x2="337.914" y2="144.591"/><line x1="336.018" y1="140.799" x2="339.81" y2="144.591"/><line x1="336.018" y1="144.591" x2="339.81" y2="140.799"/>
<line x1="340.465" y1="114.111" x2="344.257" y2="114.111"/><line x1="342.361" y1="112.215" x2="342.361" y2="116.007"/><line x1="340.465" y1="112.215" x2="344.257" y2="116.007"/><line x1="340.465" y1="116.007" x2="344.257" y2="112.215"/>
</g>
<g stroke="black" stroke-width="1" fill="none">
<line x1="349.359" y1="53.0885" x2="353.151" y2="53.0885"/><line x1="351.255" y1="51.1924" x2="351.255" y2="54.9846"/><line x1="349.359" y1="51.1924" x2="353.151" y2="54.9846"/><line x1="349.359" y1="54.9846" x2="353.151" y2="51.1924"/>
<line x1="353.806" y1="92.3806" x2="357.598" y2="92.3806"/><line x1="355.702" y1="90.4845" x2="355.702" y2="94.2767"/><line x1="353.806" y1="90.4845" x2="357.598" y2="94.2767"/><line x1="353.806" y1="94.2767" x2="357.598" y2="90.4845"/>
</g>
<g stroke="black" stroke-width="1" fill="none">
<line x1="505.002" y1="100.81" x2="508.794" y2="100.81"/><line x1="506.898" y1="98.9142" x2="506.898" y2="102.706"/><line x1="505.002" y1="98.9142" x2="508.794" y2="102.706"/><line x1="505.002" y1="102.706" x2="508.794" y2="98.9142"/>
</g>
<path d="M0.5,272.809h 566.929" fill="none" stroke="#0000ff"/></svg>
