<?xml version="1.0" standalone="no"?>
<svg width="567.429" height="413.846" viewBox="0 0 567.429 413.846" xmlns="http://www.w3.org/2000/svg" shape-rendering="crispEdges">
<title>
figures/chi2zoomin_7PMTnpefilelist20.svg
</title>
<desc>
Creator: ROOT Version 6.18/04
CreationDate: Mon Nov  4 00:04:31 2019</desc>
<defs>
</defs>
<rect x="0.5" y="0" width="566.929" height="413.346" fill="white"/>
<rect x="57.1929" y="41.3346" width="453.543" height="330.677" fill="white"/>
<rect x="57.1929" y="41.3346" width="453.543" height="330.677" fill="none" stroke="black"/>
<path d="M57.1929,372.012h 453.543" fill="none" stroke="black"/>
<path d="M60.4102,41.3346v 330.677" fill="none" stroke="black" stroke-dasharray=" 1, 2"/>
<path d="M172.907,41.3346v 330.677" fill="none" stroke="black" stroke-dasharray=" 1, 2"/>
<path d="M285.405,41.3346v 330.677" fill="none" stroke="black" stroke-dasharray=" 1, 2"/>
<path d="M397.902,41.3346v 330.677" fill="none" stroke="black" stroke-dasharray=" 1, 2"/>
<path d="M510.399,41.3346v 330.677" fill="none" stroke="black" stroke-dasharray=" 1, 2"/>
<path d="M60.4102,41.3346v 330.677" fill="none" stroke="black" stroke-dasharray=" 1, 2"/>
<path d="M510.399,41.3346v 330.677" fill="none" stroke="black" stroke-dasharray=" 1, 2"/>
<path d="M57.1929,372.012v -330.677" fill="none" stroke="black"/>
<path d="M57.1929,372.012h 453.543" fill="none" stroke="black"/>
<path d="M60.4102,362.091v 9.92031" fill="none" stroke="black"/>
<path d="M82.9096,367.052v 4.96016" fill="none" stroke="black"/>
<path d="M105.409,367.052v 4.96016" fill="none" stroke="black"/>
<path d="M127.908,367.052v 4.96016" fill="none" stroke="black"/>
<path d="M150.408,367.052v 4.96016" fill="none" stroke="black"/>
<path d="M172.907,362.091v 9.92031" fill="none" stroke="black"/>
<path d="M195.407,367.052v 4.96016" fill="none" stroke="black"/>
<path d="M217.906,367.052v 4.96016" fill="none" stroke="black"/>
<path d="M240.406,367.052v 4.96016" fill="none" stroke="black"/>
<path d="M262.905,367.052v 4.96016" fill="none" stroke="black"/>
<path d="M285.405,362.091v 9.92031" fill="none" stroke="black"/>
<path d="M307.904,367.052v 4.96016" fill="none" stroke="black"/>
<path d="M330.403,367.052v 4.96016" fill="none" stroke="black"/>
<path d="M352.903,367.052v 4.96016" fill="none" stroke="black"/>
<path d="M375.402,367.052v 4.96016" fill="none" stroke="black"/>
<path d="M397.902,362.091v 9.92031" fill="none" stroke="black"/>
<path d="M420.401,367.052v 4.96016" fill="none" stroke="black"/>
<path d="M442.901,367.052v 4.96016" fill="none" stroke="black"/>
<path d="M465.4,367.052v 4.96016" fill="none" stroke="black"/>
<path d="M487.899,367.052v 4.96016" fill="none" stroke="black"/>
<path d="M510.399,362.091v 9.92031" fill="none" stroke="black"/>
<path d="M60.4102,362.091v 9.92031" fill="none" stroke="black"/>
<path d="M510.399,362.091v 9.92031" fill="none" stroke="black"/>
<text xml:space="preserve" x="47.4281" y="385.379" fill="black" font-size="13.7726" font-family="Helvetica">0.83</text>
<text xml:space="preserve" x="155.979" y="385.379" fill="black" font-size="13.7726" font-family="Helvetica">0.835</text>
<text xml:space="preserve" x="272.588" y="385.379" fill="black" font-size="13.7726" font-family="Helvetica">0.84</text>
<text xml:space="preserve" x="381.139" y="385.379" fill="black" font-size="13.7726" font-family="Helvetica">0.845</text>
<text xml:space="preserve" x="497.274" y="385.379" fill="black" font-size="13.7726" font-family="Helvetica">0.85</text>
<text xml:space="preserve" x="413.372" y="400.074" fill="black" font-size="13.7726" font-family="Helvetica">calibration factor</text>
<path d="M57.1929,372.012v -330.677" fill="none" stroke="black"/>
<path d="M70.7992,363.47h -13.6063" fill="none" stroke="black"/>
<path d="M63.9961,356.857h -6.80315" fill="none" stroke="black"/>
<path d="M63.9961,350.243h -6.80315" fill="none" stroke="black"/>
<path d="M63.9961,343.63h -6.80315" fill="none" stroke="black"/>
<path d="M63.9961,337.016h -6.80315" fill="none" stroke="black"/>
<path d="M70.7992,330.403h -13.6063" fill="none" stroke="black"/>
<path d="M63.9961,323.789h -6.80315" fill="none" stroke="black"/>
<path d="M63.9961,317.176h -6.80315" fill="none" stroke="black"/>
<path d="M63.9961,310.562h -6.80315" fill="none" stroke="black"/>
<path d="M63.9961,303.949h -6.80315" fill="none" stroke="black"/>
<path d="M70.7992,297.335h -13.6063" fill="none" stroke="black"/>
<path d="M63.9961,290.722h -6.80315" fill="none" stroke="black"/>
<path d="M63.9961,284.108h -6.80315" fill="none" stroke="black"/>
<path d="M63.9961,277.494h -6.80315" fill="none" stroke="black"/>
<path d="M63.9961,270.881h -6.80315" fill="none" stroke="black"/>
<path d="M70.7992,264.267h -13.6063" fill="none" stroke="black"/>
<path d="M63.9961,257.654h -6.80315" fill="none" stroke="black"/>
<path d="M63.9961,251.04h -6.80315" fill="none" stroke="black"/>
<path d="M63.9961,244.427h -6.80315" fill="none" stroke="black"/>
<path d="M63.9961,237.813h -6.80315" fill="none" stroke="black"/>
<path d="M70.7992,231.2h -13.6063" fill="none" stroke="black"/>
<path d="M63.9961,224.586h -6.80315" fill="none" stroke="black"/>
<path d="M63.9961,217.973h -6.80315" fill="none" stroke="black"/>
<path d="M63.9961,211.359h -6.80315" fill="none" stroke="black"/>
<path d="M63.9961,204.745h -6.80315" fill="none" stroke="black"/>
<path d="M70.7992,198.132h -13.6063" fill="none" stroke="black"/>
<path d="M63.9961,191.518h -6.80315" fill="none" stroke="black"/>
<path d="M63.9961,184.905h -6.80315" fill="none" stroke="black"/>
<path d="M63.9961,178.291h -6.80315" fill="none" stroke="black"/>
<path d="M63.9961,171.678h -6.80315" fill="none" stroke="black"/>
<path d="M70.7992,165.064h -13.6063" fill="none" stroke="black"/>
<path d="M63.9961,158.451h -6.80315" fill="none" stroke="black"/>
<path d="M63.9961,151.837h -6.80315" fill="none" stroke="black"/>
<path d="M63.9961,145.224h -6.80315" fill="none" stroke="black"/>
<path d="M63.9961,138.61h -6.80315" fill="none" stroke="black"/>
<path d="M70.7992,131.997h -13.6063" fill="none" stroke="black"/>
<path d="M63.9961,125.383h -6.80315" fill="none" stroke="black"/>
<path d="M63.9961,118.769h -6.80315" fill="none" stroke="black"/>
<path d="M63.9961,112.156h -6.80315" fill="none" stroke="black"/>
<path d="M63.9961,105.542h -6.80315" fill="none" stroke="black"/>
<path d="M70.7992,98.9288h -13.6063" fill="none" stroke="black"/>
<path d="M63.9961,92.3153h -6.80315" fill="none" stroke="black"/>
<path d="M63.9961,85.7017h -6.80315" fill="none" stroke="black"/>
<path d="M63.9961,79.0882h -6.80315" fill="none" stroke="black"/>
<path d="M63.9961,72.4747h -6.80315" fill="none" stroke="black"/>
<path d="M70.7992,65.8611h -13.6063" fill="none" stroke="black"/>
<path d="M70.7992,363.47h -13.6063" fill="none" stroke="black"/>
<path d="M63.9961,370.084h -6.80315" fill="none" stroke="black"/>
<path d="M70.7992,65.8611h -13.6063" fill="none" stroke="black"/>
<path d="M63.9961,59.2476h -6.80315" fill="none" stroke="black"/>
<path d="M63.9961,52.634h -6.80315" fill="none" stroke="black"/>
<path d="M63.9961,46.0205h -6.80315" fill="none" stroke="black"/>
<text xml:space="preserve" x="32.2594" y="367.84" fill="black" font-size="13.7726" font-family="Helvetica">165</text>
<text xml:space="preserve" x="32.2594" y="335.133" fill="black" font-size="13.7726" font-family="Helvetica">166</text>
<text xml:space="preserve" x="32.2594" y="301.951" fill="black" font-size="13.7726" font-family="Helvetica">167</text>
<text xml:space="preserve" x="32.2594" y="268.77" fill="black" font-size="13.7726" font-family="Helvetica">168</text>
<text xml:space="preserve" x="32.2594" y="235.588" fill="black" font-size="13.7726" font-family="Helvetica">169</text>
<text xml:space="preserve" x="32.2594" y="202.407" fill="black" font-size="13.7726" font-family="Helvetica">170</text>
<text xml:space="preserve" x="34.6295" y="170.174" fill="black" font-size="13.7726" font-family="Helvetica">171</text>
<text xml:space="preserve" x="32.2594" y="136.992" fill="black" font-size="13.7726" font-family="Helvetica">172</text>
<text xml:space="preserve" x="32.2594" y="103.337" fill="black" font-size="13.7726" font-family="Helvetica">173</text>
<text xml:space="preserve" x="32.2594" y="70.6291" fill="black" font-size="13.7726" font-family="Helvetica">174</text>
<g transform="rotate(-90,15.1947,45.98)">
<text xml:space="preserve" x="15.1947" y="45.98" fill="black" font-size="9.34839" font-family="Helvetica">2</text>
</g>
<g transform="rotate(-90,19.4608,50.2462)">
<text xml:space="preserve" x="19.4608" y="50.2462" fill="black" font-size="13.7726" font-family="Helvetica"> </text>
</g>
<g transform="rotate(-90,19.4608,57.3565)">
<text xml:space="preserve" x="19.4608" y="57.3565" fill="black" font-size="13.7726" font-family="Times">&#0967;</text>
</g>
<text xml:space="preserve" x="111.421" y="18.9608" fill="black" font-size="15.997" font-family="Helvetica">^2 v.s. calibration factorwith 1st binand with last bin</text>
<text xml:space="preserve" x="102.889" y="18.9608" fill="black" font-size="15.997" font-family="Times">&#0967;</text>
<g stroke="black" stroke-width="1" fill="none">
<line x1="76.5136" y1="51.9319" x2="80.3058" y2="51.9319"/><line x1="78.4097" y1="50.0359" x2="78.4097" y2="53.828"/><line x1="76.5136" y1="50.0359" x2="80.3058" y2="53.828"/><line x1="76.5136" y1="53.828" x2="80.3058" y2="50.0359"/>
<line x1="81.0135" y1="75.7669" x2="84.8057" y2="75.7669"/><line x1="82.9096" y1="73.8708" x2="82.9096" y2="77.663"/><line x1="81.0135" y1="73.8708" x2="84.8057" y2="77.663"/><line x1="81.0135" y1="77.663" x2="84.8057" y2="73.8708"/>
<line x1="85.5134" y1="100.34" x2="89.3056" y2="100.34"/><line x1="87.4095" y1="98.4444" x2="87.4095" y2="102.237"/><line x1="85.5134" y1="98.4444" x2="89.3056" y2="102.237"/><line x1="85.5134" y1="102.237" x2="89.3056" y2="98.4444"/>
<line x1="90.0133" y1="104.585" x2="93.8055" y2="104.585"/><line x1="91.9094" y1="102.689" x2="91.9094" y2="106.481"/><line x1="90.0133" y1="102.689" x2="93.8055" y2="106.481"/><line x1="90.0133" y1="106.481" x2="93.8055" y2="102.689"/>
<line x1="94.5132" y1="101.157" x2="98.3053" y2="101.157"/><line x1="96.4093" y1="99.2612" x2="96.4093" y2="103.053"/><line x1="94.5132" y1="99.2612" x2="98.3053" y2="103.053"/><line x1="94.5132" y1="103.053" x2="98.3053" y2="99.2612"/>
<line x1="99.0131" y1="110.435" x2="102.805" y2="110.435"/><line x1="100.909" y1="108.539" x2="100.909" y2="112.332"/><line x1="99.0131" y1="108.539" x2="102.805" y2="112.332"/><line x1="99.0131" y1="112.332" x2="102.805" y2="108.539"/>
<line x1="103.513" y1="126.235" x2="107.305" y2="126.235"/><line x1="105.409" y1="124.339" x2="105.409" y2="128.131"/><line x1="103.513" y1="124.339" x2="107.305" y2="128.131"/><line x1="103.513" y1="128.131" x2="107.305" y2="124.339"/>
<line x1="108.013" y1="143.15" x2="111.805" y2="143.15"/><line x1="109.909" y1="141.254" x2="109.909" y2="145.046"/><line x1="108.013" y1="141.254" x2="111.805" y2="145.046"/><line x1="108.013" y1="145.046" x2="111.805" y2="141.254"/>
<line x1="112.513" y1="144.919" x2="116.305" y2="144.919"/><line x1="114.409" y1="143.023" x2="114.409" y2="146.815"/><line x1="112.513" y1="143.023" x2="116.305" y2="146.815"/><line x1="112.513" y1="146.815" x2="116.305" y2="143.023"/>
<line x1="117.013" y1="136.524" x2="120.805" y2="136.524"/><line x1="118.909" y1="134.628" x2="118.909" y2="138.42"/><line x1="117.013" y1="134.628" x2="120.805" y2="138.42"/><line x1="117.013" y1="138.42" x2="120.805" y2="134.628"/>
<line x1="121.512" y1="154.623" x2="125.305" y2="154.623"/><line x1="123.409" y1="152.727" x2="123.409" y2="156.52"/><line x1="121.512" y1="152.727" x2="125.305" y2="156.52"/><line x1="121.512" y1="156.52" x2="125.305" y2="152.727"/>
<line x1="126.012" y1="148.812" x2="129.805" y2="148.812"/><line x1="127.908" y1="146.916" x2="127.908" y2="150.708"/><line x1="126.012" y1="146.916" x2="129.805" y2="150.708"/><line x1="126.012" y1="150.708" x2="129.805" y2="146.916"/>
<line x1="130.512" y1="146.994" x2="134.304" y2="146.994"/><line x1="132.408" y1="145.098" x2="132.408" y2="148.89"/><line x1="130.512" y1="145.098" x2="134.304" y2="148.89"/><line x1="130.512" y1="148.89" x2="134.304" y2="145.098"/>
<line x1="135.012" y1="150.316" x2="138.804" y2="150.316"/><line x1="136.908" y1="148.42" x2="136.908" y2="152.212"/><line x1="135.012" y1="148.42" x2="138.804" y2="152.212"/><line x1="135.012" y1="152.212" x2="138.804" y2="148.42"/>
<line x1="139.512" y1="138.284" x2="143.304" y2="138.284"/><line x1="141.408" y1="136.388" x2="141.408" y2="140.18"/><line x1="139.512" y1="136.388" x2="143.304" y2="140.18"/><line x1="139.512" y1="140.18" x2="143.304" y2="136.388"/>
<line x1="144.012" y1="145.21" x2="147.804" y2="145.21"/><line x1="145.908" y1="143.314" x2="145.908" y2="147.107"/><line x1="144.012" y1="143.314" x2="147.804" y2="147.107"/><line x1="144.012" y1="147.107" x2="147.804" y2="143.314"/>
<line x1="148.512" y1="133.567" x2="152.304" y2="133.567"/><line x1="150.408" y1="131.671" x2="150.408" y2="135.463"/><line x1="148.512" y1="131.671" x2="152.304" y2="135.463"/><line x1="148.512" y1="135.463" x2="152.304" y2="131.671"/>
<line x1="153.012" y1="130.129" x2="156.804" y2="130.129"/><line x1="154.908" y1="128.233" x2="154.908" y2="132.025"/><line x1="153.012" y1="128.233" x2="156.804" y2="132.025"/><line x1="153.012" y1="132.025" x2="156.804" y2="128.233"/>
<line x1="157.512" y1="132.156" x2="161.304" y2="132.156"/><line x1="159.408" y1="130.259" x2="159.408" y2="134.052"/><line x1="157.512" y1="130.259" x2="161.304" y2="134.052"/><line x1="157.512" y1="134.052" x2="161.304" y2="130.259"/>
<line x1="162.011" y1="123.409" x2="165.804" y2="123.409"/><line x1="163.908" y1="121.513" x2="163.908" y2="125.305"/><line x1="162.011" y1="121.513" x2="165.804" y2="125.305"/><line x1="162.011" y1="125.305" x2="165.804" y2="121.513"/>
<line x1="166.511" y1="141.538" x2="170.304" y2="141.538"/><line x1="168.407" y1="139.642" x2="168.407" y2="143.434"/><line x1="166.511" y1="139.642" x2="170.304" y2="143.434"/><line x1="166.511" y1="143.434" x2="170.304" y2="139.642"/>
<line x1="171.011" y1="130.878" x2="174.803" y2="130.878"/><line x1="172.907" y1="128.982" x2="172.907" y2="132.774"/><line x1="171.011" y1="128.982" x2="174.803" y2="132.774"/><line x1="171.011" y1="132.774" x2="174.803" y2="128.982"/>
<line x1="175.511" y1="141.241" x2="179.303" y2="141.241"/><line x1="177.407" y1="139.345" x2="177.407" y2="143.137"/><line x1="175.511" y1="139.345" x2="179.303" y2="143.137"/><line x1="175.511" y1="143.137" x2="179.303" y2="139.345"/>
<line x1="180.011" y1="145.448" x2="183.803" y2="145.448"/><line x1="181.907" y1="143.552" x2="181.907" y2="147.344"/><line x1="180.011" y1="143.552" x2="183.803" y2="147.344"/><line x1="180.011" y1="147.344" x2="183.803" y2="143.552"/>
<line x1="184.511" y1="150.371" x2="188.303" y2="150.371"/><line x1="186.407" y1="148.475" x2="186.407" y2="152.267"/><line x1="184.511" y1="148.475" x2="188.303" y2="152.267"/><line x1="184.511" y1="152.267" x2="188.303" y2="148.475"/>
<line x1="189.011" y1="134.156" x2="192.803" y2="134.156"/><line x1="190.907" y1="132.26" x2="190.907" y2="136.052"/><line x1="189.011" y1="132.26" x2="192.803" y2="136.052"/><line x1="189.011" y1="136.052" x2="192.803" y2="132.26"/>
<line x1="193.511" y1="162.836" x2="197.303" y2="162.836"/><line x1="195.407" y1="160.94" x2="195.407" y2="164.732"/><line x1="193.511" y1="160.94" x2="197.303" y2="164.732"/><line x1="193.511" y1="164.732" x2="197.303" y2="160.94"/>
<line x1="198.011" y1="175.139" x2="201.803" y2="175.139"/><line x1="199.907" y1="173.243" x2="199.907" y2="177.036"/><line x1="198.011" y1="173.243" x2="201.803" y2="177.036"/><line x1="198.011" y1="177.036" x2="201.803" y2="173.243"/>
<line x1="202.51" y1="212.965" x2="206.303" y2="212.965"/><line x1="204.407" y1="211.068" x2="204.407" y2="214.861"/><line x1="202.51" y1="211.068" x2="206.303" y2="214.861"/><line x1="202.51" y1="214.861" x2="206.303" y2="211.068"/>
<line x1="207.01" y1="238.806" x2="210.803" y2="238.806"/><line x1="208.906" y1="236.91" x2="208.906" y2="240.702"/><line x1="207.01" y1="236.91" x2="210.803" y2="240.702"/><line x1="207.01" y1="240.702" x2="210.803" y2="236.91"/>
<line x1="211.51" y1="246.767" x2="215.302" y2="246.767"/><line x1="213.406" y1="244.871" x2="213.406" y2="248.663"/><line x1="211.51" y1="244.871" x2="215.302" y2="248.663"/><line x1="211.51" y1="248.663" x2="215.302" y2="244.871"/>
<line x1="216.01" y1="245.279" x2="219.802" y2="245.279"/><line x1="217.906" y1="243.383" x2="217.906" y2="247.175"/><line x1="216.01" y1="243.383" x2="219.802" y2="247.175"/><line x1="216.01" y1="247.175" x2="219.802" y2="243.383"/>
<line x1="220.51" y1="248.8" x2="224.302" y2="248.8"/><line x1="222.406" y1="246.904" x2="222.406" y2="250.696"/><line x1="220.51" y1="246.904" x2="224.302" y2="250.696"/><line x1="220.51" y1="250.696" x2="224.302" y2="246.904"/>
<line x1="225.01" y1="252.066" x2="228.802" y2="252.066"/><line x1="226.906" y1="250.17" x2="226.906" y2="253.962"/><line x1="225.01" y1="250.17" x2="228.802" y2="253.962"/><line x1="225.01" y1="253.962" x2="228.802" y2="250.17"/>
<line x1="229.51" y1="261.502" x2="233.302" y2="261.502"/><line x1="231.406" y1="259.606" x2="231.406" y2="263.398"/><line x1="229.51" y1="259.606" x2="233.302" y2="263.398"/><line x1="229.51" y1="263.398" x2="233.302" y2="259.606"/>
<line x1="234.01" y1="233.207" x2="237.802" y2="233.207"/><line x1="235.906" y1="231.311" x2="235.906" y2="235.103"/><line x1="234.01" y1="231.311" x2="237.802" y2="235.103"/><line x1="234.01" y1="235.103" x2="237.802" y2="231.311"/>
<line x1="238.51" y1="238.508" x2="242.302" y2="238.508"/><line x1="240.406" y1="236.612" x2="240.406" y2="240.404"/><line x1="238.51" y1="236.612" x2="242.302" y2="240.404"/><line x1="238.51" y1="240.404" x2="242.302" y2="236.612"/>
<line x1="243.009" y1="247.431" x2="246.802" y2="247.431"/><line x1="244.906" y1="245.535" x2="244.906" y2="249.328"/><line x1="243.009" y1="245.535" x2="246.802" y2="249.328"/><line x1="243.009" y1="249.328" x2="246.802" y2="245.535"/>
<line x1="247.509" y1="268.392" x2="251.302" y2="268.392"/><line x1="249.405" y1="266.496" x2="249.405" y2="270.288"/><line x1="247.509" y1="266.496" x2="251.302" y2="270.288"/><line x1="247.509" y1="270.288" x2="251.302" y2="266.496"/>
<line x1="252.009" y1="283.906" x2="255.801" y2="283.906"/><line x1="253.905" y1="282.01" x2="253.905" y2="285.802"/><line x1="252.009" y1="282.01" x2="255.801" y2="285.802"/><line x1="252.009" y1="285.802" x2="255.801" y2="282.01"/>
<line x1="256.509" y1="261.818" x2="260.301" y2="261.818"/><line x1="258.405" y1="259.922" x2="258.405" y2="263.714"/><line x1="256.509" y1="259.922" x2="260.301" y2="263.714"/><line x1="256.509" y1="263.714" x2="260.301" y2="259.922"/>
<line x1="261.009" y1="268.358" x2="264.801" y2="268.358"/><line x1="262.905" y1="266.462" x2="262.905" y2="270.254"/><line x1="261.009" y1="266.462" x2="264.801" y2="270.254"/><line x1="261.009" y1="270.254" x2="264.801" y2="266.462"/>
<line x1="265.509" y1="272.169" x2="269.301" y2="272.169"/><line x1="267.405" y1="270.273" x2="267.405" y2="274.065"/><line x1="265.509" y1="270.273" x2="269.301" y2="274.065"/><line x1="265.509" y1="274.065" x2="269.301" y2="270.273"/>
<line x1="270.009" y1="296.512" x2="273.801" y2="296.512"/><line x1="271.905" y1="294.616" x2="271.905" y2="298.408"/><line x1="270.009" y1="294.616" x2="273.801" y2="298.408"/><line x1="270.009" y1="298.408" x2="273.801" y2="294.616"/>
<line x1="274.509" y1="281.465" x2="278.301" y2="281.465"/><line x1="276.405" y1="279.568" x2="276.405" y2="283.361"/><line x1="274.509" y1="279.568" x2="278.301" y2="283.361"/><line x1="274.509" y1="283.361" x2="278.301" y2="279.568"/>
<line x1="279.009" y1="279.907" x2="282.801" y2="279.907"/><line x1="280.905" y1="278.01" x2="280.905" y2="281.803"/><line x1="279.009" y1="278.01" x2="282.801" y2="281.803"/><line x1="279.009" y1="281.803" x2="282.801" y2="278.01"/>
<line x1="283.508" y1="305.876" x2="287.301" y2="305.876"/><line x1="285.405" y1="303.98" x2="285.405" y2="307.772"/><line x1="283.508" y1="303.98" x2="287.301" y2="307.772"/><line x1="283.508" y1="307.772" x2="287.301" y2="303.98"/>
<line x1="288.008" y1="297.007" x2="291.801" y2="297.007"/><line x1="289.904" y1="295.111" x2="289.904" y2="298.903"/><line x1="288.008" y1="295.111" x2="291.801" y2="298.903"/><line x1="288.008" y1="298.903" x2="291.801" y2="295.111"/>
<line x1="292.508" y1="269.906" x2="296.3" y2="269.906"/><line x1="294.404" y1="268.01" x2="294.404" y2="271.802"/><line x1="292.508" y1="268.01" x2="296.3" y2="271.802"/><line x1="292.508" y1="271.802" x2="296.3" y2="268.01"/>
<line x1="297.008" y1="259.628" x2="300.8" y2="259.628"/><line x1="298.904" y1="257.732" x2="298.904" y2="261.524"/><line x1="297.008" y1="257.732" x2="300.8" y2="261.524"/><line x1="297.008" y1="261.524" x2="300.8" y2="257.732"/>
<line x1="301.508" y1="247.621" x2="305.3" y2="247.621"/><line x1="303.404" y1="245.725" x2="303.404" y2="249.518"/><line x1="301.508" y1="245.725" x2="305.3" y2="249.518"/><line x1="301.508" y1="249.518" x2="305.3" y2="245.725"/>
<line x1="306.008" y1="258.485" x2="309.8" y2="258.485"/><line x1="307.904" y1="256.589" x2="307.904" y2="260.381"/><line x1="306.008" y1="256.589" x2="309.8" y2="260.381"/><line x1="306.008" y1="260.381" x2="309.8" y2="256.589"/>
<line x1="310.508" y1="260.936" x2="314.3" y2="260.936"/><line x1="312.404" y1="259.04" x2="312.404" y2="262.832"/><line x1="310.508" y1="259.04" x2="314.3" y2="262.832"/><line x1="310.508" y1="262.832" x2="314.3" y2="259.04"/>
<line x1="315.008" y1="266.878" x2="318.8" y2="266.878"/><line x1="316.904" y1="264.982" x2="316.904" y2="268.774"/><line x1="315.008" y1="264.982" x2="318.8" y2="268.774"/><line x1="315.008" y1="268.774" x2="318.8" y2="264.982"/>
<line x1="319.508" y1="261.211" x2="323.3" y2="261.211"/><line x1="321.404" y1="259.315" x2="321.404" y2="263.107"/><line x1="319.508" y1="259.315" x2="323.3" y2="263.107"/><line x1="319.508" y1="263.107" x2="323.3" y2="259.315"/>
<line x1="324.007" y1="256.513" x2="327.8" y2="256.513"/><line x1="325.904" y1="254.617" x2="325.904" y2="258.409"/><line x1="324.007" y1="254.617" x2="327.8" y2="258.409"/><line x1="324.007" y1="258.409" x2="327.8" y2="254.617"/>
<line x1="328.507" y1="250.995" x2="332.299" y2="250.995"/><line x1="330.403" y1="249.098" x2="330.403" y2="252.891"/><line x1="328.507" y1="249.098" x2="332.299" y2="252.891"/><line x1="328.507" y1="252.891" x2="332.299" y2="249.098"/>
<line x1="333.007" y1="222.11" x2="336.799" y2="222.11"/><line x1="334.903" y1="220.214" x2="334.903" y2="224.006"/><line x1="333.007" y1="220.214" x2="336.799" y2="224.006"/><line x1="333.007" y1="224.006" x2="336.799" y2="220.214"/>
<line x1="337.507" y1="219.133" x2="341.299" y2="219.133"/><line x1="339.403" y1="217.236" x2="339.403" y2="221.029"/><line x1="337.507" y1="217.236" x2="341.299" y2="221.029"/><line x1="337.507" y1="221.029" x2="341.299" y2="217.236"/>
<line x1="342.007" y1="224.046" x2="345.799" y2="224.046"/><line x1="343.903" y1="222.15" x2="343.903" y2="225.942"/><line x1="342.007" y1="222.15" x2="345.799" y2="225.942"/><line x1="342.007" y1="225.942" x2="345.799" y2="222.15"/>
<line x1="346.507" y1="213.879" x2="350.299" y2="213.879"/><line x1="348.403" y1="211.982" x2="348.403" y2="215.775"/><line x1="346.507" y1="211.982" x2="350.299" y2="215.775"/><line x1="346.507" y1="215.775" x2="350.299" y2="211.982"/>
<line x1="351.007" y1="215.553" x2="354.799" y2="215.553"/><line x1="352.903" y1="213.657" x2="352.903" y2="217.449"/><line x1="351.007" y1="213.657" x2="354.799" y2="217.449"/><line x1="351.007" y1="217.449" x2="354.799" y2="213.657"/>
<line x1="355.507" y1="196.307" x2="359.299" y2="196.307"/><line x1="357.403" y1="194.411" x2="357.403" y2="198.203"/><line x1="355.507" y1="194.411" x2="359.299" y2="198.203"/><line x1="355.507" y1="198.203" x2="359.299" y2="194.411"/>
<line x1="360.007" y1="214.789" x2="363.799" y2="214.789"/><line x1="361.903" y1="212.893" x2="361.903" y2="216.685"/><line x1="360.007" y1="212.893" x2="363.799" y2="216.685"/><line x1="360.007" y1="216.685" x2="363.799" y2="212.893"/>
<line x1="364.506" y1="220.012" x2="368.299" y2="220.012"/><line x1="366.402" y1="218.116" x2="366.402" y2="221.908"/><line x1="364.506" y1="218.116" x2="368.299" y2="221.908"/><line x1="364.506" y1="221.908" x2="368.299" y2="218.116"/>
<line x1="369.006" y1="228.115" x2="372.798" y2="228.115"/><line x1="370.902" y1="226.219" x2="370.902" y2="230.011"/><line x1="369.006" y1="226.219" x2="372.798" y2="230.011"/><line x1="369.006" y1="230.011" x2="372.798" y2="226.219"/>
<line x1="373.506" y1="200.918" x2="377.298" y2="200.918"/><line x1="375.402" y1="199.022" x2="375.402" y2="202.814"/><line x1="373.506" y1="199.022" x2="377.298" y2="202.814"/><line x1="373.506" y1="202.814" x2="377.298" y2="199.022"/>
<line x1="378.006" y1="184.277" x2="381.798" y2="184.277"/><line x1="379.902" y1="182.381" x2="379.902" y2="186.173"/><line x1="378.006" y1="182.381" x2="381.798" y2="186.173"/><line x1="378.006" y1="186.173" x2="381.798" y2="182.381"/>
<line x1="382.506" y1="158.158" x2="386.298" y2="158.158"/><line x1="384.402" y1="156.262" x2="384.402" y2="160.054"/><line x1="382.506" y1="156.262" x2="386.298" y2="160.054"/><line x1="382.506" y1="160.054" x2="386.298" y2="156.262"/>
<line x1="387.006" y1="142.409" x2="390.798" y2="142.409"/><line x1="388.902" y1="140.513" x2="388.902" y2="144.305"/><line x1="387.006" y1="140.513" x2="390.798" y2="144.305"/><line x1="387.006" y1="144.305" x2="390.798" y2="140.513"/>
<line x1="391.506" y1="168.166" x2="395.298" y2="168.166"/><line x1="393.402" y1="166.27" x2="393.402" y2="170.063"/><line x1="391.506" y1="166.27" x2="395.298" y2="170.063"/><line x1="391.506" y1="170.063" x2="395.298" y2="166.27"/>
<line x1="396.006" y1="165.487" x2="399.798" y2="165.487"/><line x1="397.902" y1="163.591" x2="397.902" y2="167.383"/><line x1="396.006" y1="163.591" x2="399.798" y2="167.383"/><line x1="396.006" y1="167.383" x2="399.798" y2="163.591"/>
<line x1="400.506" y1="163.866" x2="404.298" y2="163.866"/><line x1="402.402" y1="161.97" x2="402.402" y2="165.762"/><line x1="400.506" y1="161.97" x2="404.298" y2="165.762"/><line x1="400.506" y1="165.762" x2="404.298" y2="161.97"/>
<line x1="405.005" y1="138.084" x2="408.798" y2="138.084"/><line x1="406.901" y1="136.188" x2="406.901" y2="139.981"/><line x1="405.005" y1="136.188" x2="408.798" y2="139.981"/><line x1="405.005" y1="139.981" x2="408.798" y2="136.188"/>
<line x1="409.505" y1="118.701" x2="413.297" y2="118.701"/><line x1="411.401" y1="116.805" x2="411.401" y2="120.597"/><line x1="409.505" y1="116.805" x2="413.297" y2="120.597"/><line x1="409.505" y1="120.597" x2="413.297" y2="116.805"/>
<line x1="414.005" y1="100.164" x2="417.797" y2="100.164"/><line x1="415.901" y1="98.2684" x2="415.901" y2="102.061"/><line x1="414.005" y1="98.2684" x2="417.797" y2="102.061"/><line x1="414.005" y1="102.061" x2="417.797" y2="98.2684"/>
<line x1="418.505" y1="104.419" x2="422.297" y2="104.419"/><line x1="420.401" y1="102.523" x2="420.401" y2="106.315"/><line x1="418.505" y1="102.523" x2="422.297" y2="106.315"/><line x1="418.505" y1="106.315" x2="422.297" y2="102.523"/>
<line x1="423.005" y1="115.657" x2="426.797" y2="115.657"/><line x1="424.901" y1="113.761" x2="424.901" y2="117.553"/><line x1="423.005" y1="113.761" x2="426.797" y2="117.553"/><line x1="423.005" y1="117.553" x2="426.797" y2="113.761"/>
<line x1="427.505" y1="144.396" x2="431.297" y2="144.396"/><line x1="429.401" y1="142.5" x2="429.401" y2="146.293"/><line x1="427.505" y1="142.5" x2="431.297" y2="146.293"/><line x1="427.505" y1="146.293" x2="431.297" y2="142.5"/>
<line x1="432.005" y1="149.381" x2="435.797" y2="149.381"/><line x1="433.901" y1="147.485" x2="433.901" y2="151.277"/><line x1="432.005" y1="147.485" x2="435.797" y2="151.277"/><line x1="432.005" y1="151.277" x2="435.797" y2="147.485"/>
<line x1="436.505" y1="174.249" x2="440.297" y2="174.249"/><line x1="438.401" y1="172.353" x2="438.401" y2="176.146"/><line x1="436.505" y1="172.353" x2="440.297" y2="176.146"/><line x1="436.505" y1="176.146" x2="440.297" y2="172.353"/>
<line x1="441.005" y1="181.048" x2="444.797" y2="181.048"/><line x1="442.901" y1="179.152" x2="442.901" y2="182.944"/><line x1="441.005" y1="179.152" x2="444.797" y2="182.944"/><line x1="441.005" y1="182.944" x2="444.797" y2="179.152"/>
<line x1="445.504" y1="171.732" x2="449.297" y2="171.732"/><line x1="447.4" y1="169.836" x2="447.4" y2="173.628"/><line x1="445.504" y1="169.836" x2="449.297" y2="173.628"/><line x1="445.504" y1="173.628" x2="449.297" y2="169.836"/>
<line x1="450.004" y1="156.798" x2="453.796" y2="156.798"/><line x1="451.9" y1="154.902" x2="451.9" y2="158.694"/><line x1="450.004" y1="154.902" x2="453.796" y2="158.694"/><line x1="450.004" y1="158.694" x2="453.796" y2="154.902"/>
<line x1="454.504" y1="147.305" x2="458.296" y2="147.305"/><line x1="456.4" y1="145.409" x2="456.4" y2="149.202"/><line x1="454.504" y1="145.409" x2="458.296" y2="149.202"/><line x1="454.504" y1="149.202" x2="458.296" y2="145.409"/>
<line x1="459.004" y1="150.647" x2="462.796" y2="150.647"/><line x1="460.9" y1="148.751" x2="460.9" y2="152.543"/><line x1="459.004" y1="148.751" x2="462.796" y2="152.543"/><line x1="459.004" y1="152.543" x2="462.796" y2="148.751"/>
<line x1="463.504" y1="151.482" x2="467.296" y2="151.482"/><line x1="465.4" y1="149.586" x2="465.4" y2="153.378"/><line x1="463.504" y1="149.586" x2="467.296" y2="153.378"/><line x1="463.504" y1="153.378" x2="467.296" y2="149.586"/>
<line x1="468.004" y1="157.876" x2="471.796" y2="157.876"/><line x1="469.9" y1="155.98" x2="469.9" y2="159.773"/><line x1="468.004" y1="155.98" x2="471.796" y2="159.773"/><line x1="468.004" y1="159.773" x2="471.796" y2="155.98"/>
<line x1="472.504" y1="170.692" x2="476.296" y2="170.692"/><line x1="474.4" y1="168.796" x2="474.4" y2="172.588"/><line x1="472.504" y1="168.796" x2="476.296" y2="172.588"/><line x1="472.504" y1="172.588" x2="476.296" y2="168.796"/>
<line x1="477.004" y1="159.586" x2="480.796" y2="159.586"/><line x1="478.9" y1="157.69" x2="478.9" y2="161.482"/><line x1="477.004" y1="157.69" x2="480.796" y2="161.482"/><line x1="477.004" y1="161.482" x2="480.796" y2="157.69"/>
<line x1="481.504" y1="166.862" x2="485.296" y2="166.862"/><line x1="483.4" y1="164.966" x2="483.4" y2="168.758"/><line x1="481.504" y1="164.966" x2="485.296" y2="168.758"/><line x1="481.504" y1="168.758" x2="485.296" y2="164.966"/>
<line x1="486.003" y1="137.625" x2="489.796" y2="137.625"/><line x1="487.899" y1="135.729" x2="487.899" y2="139.521"/><line x1="486.003" y1="135.729" x2="489.796" y2="139.521"/><line x1="486.003" y1="139.521" x2="489.796" y2="135.729"/>
<line x1="490.503" y1="139.418" x2="494.295" y2="139.418"/><line x1="492.399" y1="137.522" x2="492.399" y2="141.314"/><line x1="490.503" y1="137.522" x2="494.295" y2="141.314"/><line x1="490.503" y1="141.314" x2="494.295" y2="137.522"/>
<line x1="495.003" y1="126.987" x2="498.795" y2="126.987"/><line x1="496.899" y1="125.091" x2="496.899" y2="128.883"/><line x1="495.003" y1="125.091" x2="498.795" y2="128.883"/><line x1="495.003" y1="128.883" x2="498.795" y2="125.091"/>
<line x1="499.503" y1="104.753" x2="503.295" y2="104.753"/><line x1="501.399" y1="102.857" x2="501.399" y2="106.65"/><line x1="499.503" y1="102.857" x2="503.295" y2="106.65"/><line x1="499.503" y1="106.65" x2="503.295" y2="102.857"/>
<line x1="504.003" y1="102.427" x2="507.795" y2="102.427"/><line x1="505.899" y1="100.53" x2="505.899" y2="104.323"/><line x1="504.003" y1="100.53" x2="507.795" y2="104.323"/><line x1="504.003" y1="104.323" x2="507.795" y2="100.53"/>
<line x1="508.503" y1="94.8842" x2="512.295" y2="94.8842"/><line x1="510.399" y1="92.9881" x2="510.399" y2="96.7803"/><line x1="508.503" y1="92.9881" x2="512.295" y2="96.7803"/><line x1="508.503" y1="96.7803" x2="512.295" y2="92.9881"/>
</g>
<path d="M0.5,272.809h 566.929" fill="none" stroke="#0000ff"/>
<text xml:space="preserve" x="111.421" y="18.9608" fill="black" font-size="15.997" font-family="Helvetica">^2 v.s. calibration factorwith 1st binand with last bin</text>
<text xml:space="preserve" x="102.889" y="18.9608" fill="black" font-size="15.997" font-family="Times">&#0967;</text></svg>
