<?xml version="1.0" standalone="no"?>
<svg width="567.429" height="413.846" viewBox="0 0 567.429 413.846" xmlns="http://www.w3.org/2000/svg" shape-rendering="crispEdges">
<title>
figures/chi2zoomin_1PMTnpefilelist20.svg
</title>
<desc>
Creator: ROOT Version 6.18/04
CreationDate: Mon Nov  4 00:02:26 2019</desc>
<defs>
</defs>
<rect x="0.5" y="0" width="566.929" height="413.346" fill="white"/>
<rect x="57.1929" y="41.3346" width="453.543" height="330.677" fill="white"/>
<rect x="57.1929" y="41.3346" width="453.543" height="330.677" fill="none" stroke="black"/>
<path d="M57.1929,372.012h 453.543" fill="none" stroke="black"/>
<path d="M88.8871,41.3346v 330.677" fill="none" stroke="black" stroke-dasharray=" 1, 2"/>
<path d="M133.886,41.3346v 330.677" fill="none" stroke="black" stroke-dasharray=" 1, 2"/>
<path d="M178.885,41.3346v 330.677" fill="none" stroke="black" stroke-dasharray=" 1, 2"/>
<path d="M223.884,41.3346v 330.677" fill="none" stroke="black" stroke-dasharray=" 1, 2"/>
<path d="M268.883,41.3346v 330.677" fill="none" stroke="black" stroke-dasharray=" 1, 2"/>
<path d="M313.881,41.3346v 330.677" fill="none" stroke="black" stroke-dasharray=" 1, 2"/>
<path d="M358.88,41.3346v 330.677" fill="none" stroke="black" stroke-dasharray=" 1, 2"/>
<path d="M403.879,41.3346v 330.677" fill="none" stroke="black" stroke-dasharray=" 1, 2"/>
<path d="M448.878,41.3346v 330.677" fill="none" stroke="black" stroke-dasharray=" 1, 2"/>
<path d="M493.877,41.3346v 330.677" fill="none" stroke="black" stroke-dasharray=" 1, 2"/>
<path d="M88.8871,41.3346v 330.677" fill="none" stroke="black" stroke-dasharray=" 1, 2"/>
<path d="M493.877,41.3346v 330.677" fill="none" stroke="black" stroke-dasharray=" 1, 2"/>
<path d="M57.1929,372.012v -330.677" fill="none" stroke="black"/>
<path d="M57.1929,372.012h 453.543" fill="none" stroke="black"/>
<path d="M88.8871,362.091v 9.92031" fill="none" stroke="black"/>
<path d="M100.137,367.052v 4.96016" fill="none" stroke="black"/>
<path d="M111.387,367.052v 4.96016" fill="none" stroke="black"/>
<path d="M122.636,367.052v 4.96016" fill="none" stroke="black"/>
<path d="M133.886,362.091v 9.92031" fill="none" stroke="black"/>
<path d="M145.136,367.052v 4.96016" fill="none" stroke="black"/>
<path d="M156.385,367.052v 4.96016" fill="none" stroke="black"/>
<path d="M167.635,367.052v 4.96016" fill="none" stroke="black"/>
<path d="M178.885,362.091v 9.92031" fill="none" stroke="black"/>
<path d="M190.135,367.052v 4.96016" fill="none" stroke="black"/>
<path d="M201.384,367.052v 4.96016" fill="none" stroke="black"/>
<path d="M212.634,367.052v 4.96016" fill="none" stroke="black"/>
<path d="M223.884,362.091v 9.92031" fill="none" stroke="black"/>
<path d="M235.133,367.052v 4.96016" fill="none" stroke="black"/>
<path d="M246.383,367.052v 4.96016" fill="none" stroke="black"/>
<path d="M257.633,367.052v 4.96016" fill="none" stroke="black"/>
<path d="M268.883,362.091v 9.92031" fill="none" stroke="black"/>
<path d="M280.132,367.052v 4.96016" fill="none" stroke="black"/>
<path d="M291.382,367.052v 4.96016" fill="none" stroke="black"/>
<path d="M302.632,367.052v 4.96016" fill="none" stroke="black"/>
<path d="M313.881,362.091v 9.92031" fill="none" stroke="black"/>
<path d="M325.131,367.052v 4.96016" fill="none" stroke="black"/>
<path d="M336.381,367.052v 4.96016" fill="none" stroke="black"/>
<path d="M347.631,367.052v 4.96016" fill="none" stroke="black"/>
<path d="M358.88,362.091v 9.92031" fill="none" stroke="black"/>
<path d="M370.13,367.052v 4.96016" fill="none" stroke="black"/>
<path d="M381.38,367.052v 4.96016" fill="none" stroke="black"/>
<path d="M392.629,367.052v 4.96016" fill="none" stroke="black"/>
<path d="M403.879,362.091v 9.92031" fill="none" stroke="black"/>
<path d="M415.129,367.052v 4.96016" fill="none" stroke="black"/>
<path d="M426.379,367.052v 4.96016" fill="none" stroke="black"/>
<path d="M437.628,367.052v 4.96016" fill="none" stroke="black"/>
<path d="M448.878,362.091v 9.92031" fill="none" stroke="black"/>
<path d="M460.128,367.052v 4.96016" fill="none" stroke="black"/>
<path d="M471.378,367.052v 4.96016" fill="none" stroke="black"/>
<path d="M482.627,367.052v 4.96016" fill="none" stroke="black"/>
<path d="M493.877,362.091v 9.92031" fill="none" stroke="black"/>
<path d="M88.8871,362.091v 9.92031" fill="none" stroke="black"/>
<path d="M77.6373,367.052v 4.96016" fill="none" stroke="black"/>
<path d="M66.3876,367.052v 4.96016" fill="none" stroke="black"/>
<path d="M493.877,362.091v 9.92031" fill="none" stroke="black"/>
<path d="M505.127,367.052v 4.96016" fill="none" stroke="black"/>
<text xml:space="preserve" x="72.0772" y="385.379" fill="black" font-size="13.7726" font-family="Helvetica">0.688</text>
<text xml:space="preserve" x="120.901" y="385.379" fill="black" font-size="13.7726" font-family="Helvetica">0.69</text>
<text xml:space="preserve" x="162.141" y="385.379" fill="black" font-size="13.7726" font-family="Helvetica">0.692</text>
<text xml:space="preserve" x="207.173" y="385.379" fill="black" font-size="13.7726" font-family="Helvetica">0.694</text>
<text xml:space="preserve" x="252.205" y="385.379" fill="black" font-size="13.7726" font-family="Helvetica">0.696</text>
<text xml:space="preserve" x="297.237" y="385.379" fill="black" font-size="13.7726" font-family="Helvetica">0.698</text>
<text xml:space="preserve" x="349.853" y="385.379" fill="black" font-size="13.7726" font-family="Helvetica">0.7</text>
<text xml:space="preserve" x="386.827" y="385.379" fill="black" font-size="13.7726" font-family="Helvetica">0.702</text>
<text xml:space="preserve" x="431.859" y="385.379" fill="black" font-size="13.7726" font-family="Helvetica">0.704</text>
<text xml:space="preserve" x="476.891" y="385.379" fill="black" font-size="13.7726" font-family="Helvetica">0.706</text>
<text xml:space="preserve" x="413.372" y="400.074" fill="black" font-size="13.7726" font-family="Helvetica">calibration factor</text>
<path d="M57.1929,372.012v -330.677" fill="none" stroke="black"/>
<path d="M70.7992,368.705h -13.6063" fill="none" stroke="black"/>
<path d="M63.9961,362.091h -6.80315" fill="none" stroke="black"/>
<path d="M63.9961,355.478h -6.80315" fill="none" stroke="black"/>
<path d="M63.9961,348.864h -6.80315" fill="none" stroke="black"/>
<path d="M63.9961,342.251h -6.80315" fill="none" stroke="black"/>
<path d="M70.7992,335.637h -13.6063" fill="none" stroke="black"/>
<path d="M63.9961,329.023h -6.80315" fill="none" stroke="black"/>
<path d="M63.9961,322.41h -6.80315" fill="none" stroke="black"/>
<path d="M63.9961,315.796h -6.80315" fill="none" stroke="black"/>
<path d="M63.9961,309.183h -6.80315" fill="none" stroke="black"/>
<path d="M70.7992,302.569h -13.6063" fill="none" stroke="black"/>
<path d="M63.9961,295.956h -6.80315" fill="none" stroke="black"/>
<path d="M63.9961,289.342h -6.80315" fill="none" stroke="black"/>
<path d="M63.9961,282.729h -6.80315" fill="none" stroke="black"/>
<path d="M63.9961,276.115h -6.80315" fill="none" stroke="black"/>
<path d="M70.7992,269.502h -13.6063" fill="none" stroke="black"/>
<path d="M63.9961,262.888h -6.80315" fill="none" stroke="black"/>
<path d="M63.9961,256.275h -6.80315" fill="none" stroke="black"/>
<path d="M63.9961,249.661h -6.80315" fill="none" stroke="black"/>
<path d="M63.9961,243.047h -6.80315" fill="none" stroke="black"/>
<path d="M70.7992,236.434h -13.6063" fill="none" stroke="black"/>
<path d="M63.9961,229.82h -6.80315" fill="none" stroke="black"/>
<path d="M63.9961,223.207h -6.80315" fill="none" stroke="black"/>
<path d="M63.9961,216.593h -6.80315" fill="none" stroke="black"/>
<path d="M63.9961,209.98h -6.80315" fill="none" stroke="black"/>
<path d="M70.7992,203.366h -13.6063" fill="none" stroke="black"/>
<path d="M63.9961,196.753h -6.80315" fill="none" stroke="black"/>
<path d="M63.9961,190.139h -6.80315" fill="none" stroke="black"/>
<path d="M63.9961,183.526h -6.80315" fill="none" stroke="black"/>
<path d="M63.9961,176.912h -6.80315" fill="none" stroke="black"/>
<path d="M70.7992,170.298h -13.6063" fill="none" stroke="black"/>
<path d="M63.9961,163.685h -6.80315" fill="none" stroke="black"/>
<path d="M63.9961,157.071h -6.80315" fill="none" stroke="black"/>
<path d="M63.9961,150.458h -6.80315" fill="none" stroke="black"/>
<path d="M63.9961,143.844h -6.80315" fill="none" stroke="black"/>
<path d="M70.7992,137.231h -13.6063" fill="none" stroke="black"/>
<path d="M63.9961,130.617h -6.80315" fill="none" stroke="black"/>
<path d="M63.9961,124.004h -6.80315" fill="none" stroke="black"/>
<path d="M63.9961,117.39h -6.80315" fill="none" stroke="black"/>
<path d="M63.9961,110.777h -6.80315" fill="none" stroke="black"/>
<path d="M70.7992,104.163h -13.6063" fill="none" stroke="black"/>
<path d="M63.9961,97.5495h -6.80315" fill="none" stroke="black"/>
<path d="M63.9961,90.936h -6.80315" fill="none" stroke="black"/>
<path d="M63.9961,84.3224h -6.80315" fill="none" stroke="black"/>
<path d="M63.9961,77.7089h -6.80315" fill="none" stroke="black"/>
<path d="M70.7992,71.0953h -13.6063" fill="none" stroke="black"/>
<path d="M70.7992,368.705h -13.6063" fill="none" stroke="black"/>
<path d="M70.7992,71.0953h -13.6063" fill="none" stroke="black"/>
<path d="M63.9961,64.4818h -6.80315" fill="none" stroke="black"/>
<path d="M63.9961,57.8683h -6.80315" fill="none" stroke="black"/>
<path d="M63.9961,51.2547h -6.80315" fill="none" stroke="black"/>
<path d="M63.9961,44.6412h -6.80315" fill="none" stroke="black"/>
<text xml:space="preserve" x="32.2594" y="373.055" fill="black" font-size="13.7726" font-family="Helvetica">325</text>
<text xml:space="preserve" x="32.2594" y="340.347" fill="black" font-size="13.7726" font-family="Helvetica">326</text>
<text xml:space="preserve" x="32.2594" y="307.166" fill="black" font-size="13.7726" font-family="Helvetica">327</text>
<text xml:space="preserve" x="32.2594" y="273.984" fill="black" font-size="13.7726" font-family="Helvetica">328</text>
<text xml:space="preserve" x="32.2594" y="240.803" fill="black" font-size="13.7726" font-family="Helvetica">329</text>
<text xml:space="preserve" x="32.2594" y="208.095" fill="black" font-size="13.7726" font-family="Helvetica">330</text>
<text xml:space="preserve" x="34.6295" y="174.914" fill="black" font-size="13.7726" font-family="Helvetica">331</text>
<text xml:space="preserve" x="32.2594" y="141.732" fill="black" font-size="13.7726" font-family="Helvetica">332</text>
<text xml:space="preserve" x="32.2594" y="108.551" fill="black" font-size="13.7726" font-family="Helvetica">333</text>
<text xml:space="preserve" x="32.2594" y="75.3693" fill="black" font-size="13.7726" font-family="Helvetica">334</text>
<g transform="rotate(-90,15.1947,45.98)">
<text xml:space="preserve" x="15.1947" y="45.98" fill="black" font-size="9.34839" font-family="Helvetica">2</text>
</g>
<g transform="rotate(-90,19.4608,50.2462)">
<text xml:space="preserve" x="19.4608" y="50.2462" fill="black" font-size="13.7726" font-family="Helvetica"> </text>
</g>
<g transform="rotate(-90,19.4608,57.3565)">
<text xml:space="preserve" x="19.4608" y="57.3565" fill="black" font-size="13.7726" font-family="Times">&#0967;</text>
</g>
<text xml:space="preserve" x="111.421" y="18.9608" fill="black" font-size="15.997" font-family="Helvetica">^2 v.s. calibration factorwith 1st binand with last bin</text>
<text xml:space="preserve" x="102.889" y="18.9608" fill="black" font-size="15.997" font-family="Times">&#0967;</text>
<g stroke="black" stroke-width="1" fill="none">
<line x1="55.4918" y1="103.796" x2="59.2839" y2="103.796"/><line x1="57.3879" y1="101.9" x2="57.3879" y2="105.693"/><line x1="55.4918" y1="101.9" x2="59.2839" y2="105.693"/><line x1="55.4918" y1="105.693" x2="59.2839" y2="101.9"/>
<line x1="59.9917" y1="120.981" x2="63.7838" y2="120.981"/><line x1="61.8877" y1="119.085" x2="61.8877" y2="122.878"/><line x1="59.9917" y1="119.085" x2="63.7838" y2="122.878"/><line x1="59.9917" y1="122.878" x2="63.7838" y2="119.085"/>
<line x1="64.4915" y1="139.19" x2="68.2837" y2="139.19"/><line x1="66.3876" y1="137.294" x2="66.3876" y2="141.086"/><line x1="64.4915" y1="137.294" x2="68.2837" y2="141.086"/><line x1="64.4915" y1="141.086" x2="68.2837" y2="137.294"/>
<line x1="68.9914" y1="134.332" x2="72.7836" y2="134.332"/><line x1="70.8875" y1="132.436" x2="70.8875" y2="136.228"/><line x1="68.9914" y1="132.436" x2="72.7836" y2="136.228"/><line x1="68.9914" y1="136.228" x2="72.7836" y2="132.436"/>
<line x1="73.4913" y1="150.282" x2="77.2835" y2="150.282"/><line x1="75.3874" y1="148.386" x2="75.3874" y2="152.178"/><line x1="73.4913" y1="148.386" x2="77.2835" y2="152.178"/><line x1="73.4913" y1="152.178" x2="77.2835" y2="148.386"/>
<line x1="77.9912" y1="161.772" x2="81.7834" y2="161.772"/><line x1="79.8873" y1="159.876" x2="79.8873" y2="163.669"/><line x1="77.9912" y1="159.876" x2="81.7834" y2="163.669"/><line x1="77.9912" y1="163.669" x2="81.7834" y2="159.876"/>
<line x1="82.4911" y1="182.772" x2="86.2833" y2="182.772"/><line x1="84.3872" y1="180.876" x2="84.3872" y2="184.668"/><line x1="82.4911" y1="180.876" x2="86.2833" y2="184.668"/><line x1="82.4911" y1="184.668" x2="86.2833" y2="180.876"/>
<line x1="86.991" y1="177.439" x2="90.7831" y2="177.439"/><line x1="88.8871" y1="175.543" x2="88.8871" y2="179.335"/><line x1="86.991" y1="175.543" x2="90.7831" y2="179.335"/><line x1="86.991" y1="179.335" x2="90.7831" y2="175.543"/>
<line x1="91.4909" y1="186.361" x2="95.283" y2="186.361"/><line x1="93.387" y1="184.465" x2="93.387" y2="188.257"/><line x1="91.4909" y1="184.465" x2="95.283" y2="188.257"/><line x1="91.4909" y1="188.257" x2="95.283" y2="184.465"/>
<line x1="95.9908" y1="168.19" x2="99.7829" y2="168.19"/><line x1="97.8868" y1="166.294" x2="97.8868" y2="170.086"/><line x1="95.9908" y1="166.294" x2="99.7829" y2="170.086"/><line x1="95.9908" y1="170.086" x2="99.7829" y2="166.294"/>
<line x1="100.491" y1="179.177" x2="104.283" y2="179.177"/><line x1="102.387" y1="177.281" x2="102.387" y2="181.073"/><line x1="100.491" y1="177.281" x2="104.283" y2="181.073"/><line x1="100.491" y1="181.073" x2="104.283" y2="177.281"/>
<line x1="104.991" y1="167.151" x2="108.783" y2="167.151"/><line x1="106.887" y1="165.255" x2="106.887" y2="169.047"/><line x1="104.991" y1="165.255" x2="108.783" y2="169.047"/><line x1="104.991" y1="169.047" x2="108.783" y2="165.255"/>
<line x1="109.49" y1="195.733" x2="113.283" y2="195.733"/><line x1="111.387" y1="193.837" x2="111.387" y2="197.629"/><line x1="109.49" y1="193.837" x2="113.283" y2="197.629"/><line x1="109.49" y1="197.629" x2="113.283" y2="193.837"/>
<line x1="113.99" y1="198.706" x2="117.782" y2="198.706"/><line x1="115.886" y1="196.81" x2="115.886" y2="200.603"/><line x1="113.99" y1="196.81" x2="117.782" y2="200.603"/><line x1="113.99" y1="200.603" x2="117.782" y2="196.81"/>
<line x1="118.49" y1="214.596" x2="122.282" y2="214.596"/><line x1="120.386" y1="212.7" x2="120.386" y2="216.492"/><line x1="118.49" y1="212.7" x2="122.282" y2="216.492"/><line x1="118.49" y1="216.492" x2="122.282" y2="212.7"/>
<line x1="122.99" y1="221.588" x2="126.782" y2="221.588"/><line x1="124.886" y1="219.692" x2="124.886" y2="223.484"/><line x1="122.99" y1="219.692" x2="126.782" y2="223.484"/><line x1="122.99" y1="223.484" x2="126.782" y2="219.692"/>
<line x1="127.49" y1="228.223" x2="131.282" y2="228.223"/><line x1="129.386" y1="226.327" x2="129.386" y2="230.12"/><line x1="127.49" y1="226.327" x2="131.282" y2="230.12"/><line x1="127.49" y1="230.12" x2="131.282" y2="226.327"/>
<line x1="131.99" y1="250.811" x2="135.782" y2="250.811"/><line x1="133.886" y1="248.915" x2="133.886" y2="252.707"/><line x1="131.99" y1="248.915" x2="135.782" y2="252.707"/><line x1="131.99" y1="252.707" x2="135.782" y2="248.915"/>
<line x1="136.49" y1="252.721" x2="140.282" y2="252.721"/><line x1="138.386" y1="250.825" x2="138.386" y2="254.617"/><line x1="136.49" y1="250.825" x2="140.282" y2="254.617"/><line x1="136.49" y1="254.617" x2="140.282" y2="250.825"/>
<line x1="140.99" y1="227.487" x2="144.782" y2="227.487"/><line x1="142.886" y1="225.591" x2="142.886" y2="229.383"/><line x1="140.99" y1="225.591" x2="144.782" y2="229.383"/><line x1="140.99" y1="229.383" x2="144.782" y2="225.591"/>
<line x1="145.49" y1="211.536" x2="149.282" y2="211.536"/><line x1="147.386" y1="209.64" x2="147.386" y2="213.432"/><line x1="145.49" y1="209.64" x2="149.282" y2="213.432"/><line x1="145.49" y1="213.432" x2="149.282" y2="209.64"/>
<line x1="149.989" y1="206.414" x2="153.782" y2="206.414"/><line x1="151.885" y1="204.518" x2="151.885" y2="208.31"/><line x1="149.989" y1="204.518" x2="153.782" y2="208.31"/><line x1="149.989" y1="208.31" x2="153.782" y2="204.518"/>
<line x1="154.489" y1="224.561" x2="158.281" y2="224.561"/><line x1="156.385" y1="222.665" x2="156.385" y2="226.457"/><line x1="154.489" y1="222.665" x2="158.281" y2="226.457"/><line x1="154.489" y1="226.457" x2="158.281" y2="222.665"/>
<line x1="158.989" y1="193.275" x2="162.781" y2="193.275"/><line x1="160.885" y1="191.379" x2="160.885" y2="195.171"/><line x1="158.989" y1="191.379" x2="162.781" y2="195.171"/><line x1="158.989" y1="195.171" x2="162.781" y2="191.379"/>
<line x1="163.489" y1="200.563" x2="167.281" y2="200.563"/><line x1="165.385" y1="198.667" x2="165.385" y2="202.459"/><line x1="163.489" y1="198.667" x2="167.281" y2="202.459"/><line x1="163.489" y1="202.459" x2="167.281" y2="198.667"/>
<line x1="167.989" y1="185.575" x2="171.781" y2="185.575"/><line x1="169.885" y1="183.679" x2="169.885" y2="187.471"/><line x1="167.989" y1="183.679" x2="171.781" y2="187.471"/><line x1="167.989" y1="187.471" x2="171.781" y2="183.679"/>
<line x1="172.489" y1="175.741" x2="176.281" y2="175.741"/><line x1="174.385" y1="173.845" x2="174.385" y2="177.637"/><line x1="172.489" y1="173.845" x2="176.281" y2="177.637"/><line x1="172.489" y1="177.637" x2="176.281" y2="173.845"/>
<line x1="176.989" y1="184.268" x2="180.781" y2="184.268"/><line x1="178.885" y1="182.372" x2="178.885" y2="186.164"/><line x1="176.989" y1="182.372" x2="180.781" y2="186.164"/><line x1="176.989" y1="186.164" x2="180.781" y2="182.372"/>
<line x1="181.489" y1="211.352" x2="185.281" y2="211.352"/><line x1="183.385" y1="209.456" x2="183.385" y2="213.248"/><line x1="181.489" y1="209.456" x2="185.281" y2="213.248"/><line x1="181.489" y1="213.248" x2="185.281" y2="209.456"/>
<line x1="185.989" y1="227.434" x2="189.781" y2="227.434"/><line x1="187.885" y1="225.538" x2="187.885" y2="229.33"/><line x1="185.989" y1="225.538" x2="189.781" y2="229.33"/><line x1="185.989" y1="229.33" x2="189.781" y2="225.538"/>
<line x1="190.488" y1="206.807" x2="194.281" y2="206.807"/><line x1="192.384" y1="204.911" x2="192.384" y2="208.703"/><line x1="190.488" y1="204.911" x2="194.281" y2="208.703"/><line x1="190.488" y1="208.703" x2="194.281" y2="204.911"/>
<line x1="194.988" y1="195.302" x2="198.78" y2="195.302"/><line x1="196.884" y1="193.406" x2="196.884" y2="197.199"/><line x1="194.988" y1="193.406" x2="198.78" y2="197.199"/><line x1="194.988" y1="197.199" x2="198.78" y2="193.406"/>
<line x1="199.488" y1="170.721" x2="203.28" y2="170.721"/><line x1="201.384" y1="168.825" x2="201.384" y2="172.617"/><line x1="199.488" y1="168.825" x2="203.28" y2="172.617"/><line x1="199.488" y1="172.617" x2="203.28" y2="168.825"/>
<line x1="203.988" y1="174.422" x2="207.78" y2="174.422"/><line x1="205.884" y1="172.526" x2="205.884" y2="176.318"/><line x1="203.988" y1="172.526" x2="207.78" y2="176.318"/><line x1="203.988" y1="176.318" x2="207.78" y2="172.526"/>
<line x1="208.488" y1="153.174" x2="212.28" y2="153.174"/><line x1="210.384" y1="151.278" x2="210.384" y2="155.07"/><line x1="208.488" y1="151.278" x2="212.28" y2="155.07"/><line x1="208.488" y1="155.07" x2="212.28" y2="151.278"/>
<line x1="212.988" y1="142.457" x2="216.78" y2="142.457"/><line x1="214.884" y1="140.561" x2="214.884" y2="144.353"/><line x1="212.988" y1="140.561" x2="216.78" y2="144.353"/><line x1="212.988" y1="144.353" x2="216.78" y2="140.561"/>
<line x1="217.488" y1="147.008" x2="221.28" y2="147.008"/><line x1="219.384" y1="145.112" x2="219.384" y2="148.904"/><line x1="217.488" y1="145.112" x2="221.28" y2="148.904"/><line x1="217.488" y1="148.904" x2="221.28" y2="145.112"/>
<line x1="221.988" y1="152.87" x2="225.78" y2="152.87"/><line x1="223.884" y1="150.974" x2="223.884" y2="154.766"/><line x1="221.988" y1="150.974" x2="225.78" y2="154.766"/><line x1="221.988" y1="154.766" x2="225.78" y2="150.974"/>
<line x1="226.487" y1="149.493" x2="230.28" y2="149.493"/><line x1="228.384" y1="147.597" x2="228.384" y2="151.389"/><line x1="226.487" y1="147.597" x2="230.28" y2="151.389"/><line x1="226.487" y1="151.389" x2="230.28" y2="147.597"/>
<line x1="230.987" y1="144.544" x2="234.78" y2="144.544"/><line x1="232.883" y1="142.647" x2="232.883" y2="146.44"/><line x1="230.987" y1="142.647" x2="234.78" y2="146.44"/><line x1="230.987" y1="146.44" x2="234.78" y2="142.647"/>
<line x1="235.487" y1="143.421" x2="239.279" y2="143.421"/><line x1="237.383" y1="141.525" x2="237.383" y2="145.317"/><line x1="235.487" y1="141.525" x2="239.279" y2="145.317"/><line x1="235.487" y1="145.317" x2="239.279" y2="141.525"/>
<line x1="239.987" y1="154.512" x2="243.779" y2="154.512"/><line x1="241.883" y1="152.616" x2="241.883" y2="156.409"/><line x1="239.987" y1="152.616" x2="243.779" y2="156.409"/><line x1="239.987" y1="156.409" x2="243.779" y2="152.616"/>
<line x1="244.487" y1="181.557" x2="248.279" y2="181.557"/><line x1="246.383" y1="179.661" x2="246.383" y2="183.453"/><line x1="244.487" y1="179.661" x2="248.279" y2="183.453"/><line x1="244.487" y1="183.453" x2="248.279" y2="179.661"/>
<line x1="248.987" y1="210.064" x2="252.779" y2="210.064"/><line x1="250.883" y1="208.168" x2="250.883" y2="211.961"/><line x1="248.987" y1="208.168" x2="252.779" y2="211.961"/><line x1="248.987" y1="211.961" x2="252.779" y2="208.168"/>
<line x1="253.487" y1="231.144" x2="257.279" y2="231.144"/><line x1="255.383" y1="229.248" x2="255.383" y2="233.04"/><line x1="253.487" y1="229.248" x2="257.279" y2="233.04"/><line x1="253.487" y1="233.04" x2="257.279" y2="229.248"/>
<line x1="257.987" y1="266.577" x2="261.779" y2="266.577"/><line x1="259.883" y1="264.681" x2="259.883" y2="268.474"/><line x1="257.987" y1="264.681" x2="261.779" y2="268.474"/><line x1="257.987" y1="268.474" x2="261.779" y2="264.681"/>
<line x1="262.487" y1="273.085" x2="266.279" y2="273.085"/><line x1="264.383" y1="271.189" x2="264.383" y2="274.981"/><line x1="262.487" y1="271.189" x2="266.279" y2="274.981"/><line x1="262.487" y1="274.981" x2="266.279" y2="271.189"/>
<line x1="266.986" y1="232.883" x2="270.779" y2="232.883"/><line x1="268.883" y1="230.987" x2="268.883" y2="234.779"/><line x1="266.986" y1="230.987" x2="270.779" y2="234.779"/><line x1="266.986" y1="234.779" x2="270.779" y2="230.987"/>
<line x1="271.486" y1="222.369" x2="275.279" y2="222.369"/><line x1="273.382" y1="220.472" x2="273.382" y2="224.265"/><line x1="271.486" y1="220.472" x2="275.279" y2="224.265"/><line x1="271.486" y1="224.265" x2="275.279" y2="220.472"/>
<line x1="275.986" y1="270.334" x2="279.778" y2="270.334"/><line x1="277.882" y1="268.438" x2="277.882" y2="272.23"/><line x1="275.986" y1="268.438" x2="279.778" y2="272.23"/><line x1="275.986" y1="272.23" x2="279.778" y2="268.438"/>
<line x1="280.486" y1="305.876" x2="284.278" y2="305.876"/><line x1="282.382" y1="303.98" x2="282.382" y2="307.772"/><line x1="280.486" y1="303.98" x2="284.278" y2="307.772"/><line x1="280.486" y1="307.772" x2="284.278" y2="303.98"/>
<line x1="284.986" y1="280.893" x2="288.778" y2="280.893"/><line x1="286.882" y1="278.997" x2="286.882" y2="282.789"/><line x1="284.986" y1="278.997" x2="288.778" y2="282.789"/><line x1="284.986" y1="282.789" x2="288.778" y2="278.997"/>
<line x1="289.486" y1="289.745" x2="293.278" y2="289.745"/><line x1="291.382" y1="287.849" x2="291.382" y2="291.641"/><line x1="289.486" y1="287.849" x2="293.278" y2="291.641"/><line x1="289.486" y1="291.641" x2="293.278" y2="287.849"/>
<line x1="293.986" y1="263.018" x2="297.778" y2="263.018"/><line x1="295.882" y1="261.122" x2="295.882" y2="264.914"/><line x1="293.986" y1="261.122" x2="297.778" y2="264.914"/><line x1="293.986" y1="264.914" x2="297.778" y2="261.122"/>
<line x1="298.486" y1="260.55" x2="302.278" y2="260.55"/><line x1="300.382" y1="258.654" x2="300.382" y2="262.446"/><line x1="298.486" y1="258.654" x2="302.278" y2="262.446"/><line x1="298.486" y1="262.446" x2="302.278" y2="258.654"/>
<line x1="302.986" y1="258.005" x2="306.778" y2="258.005"/><line x1="304.882" y1="256.109" x2="304.882" y2="259.901"/><line x1="302.986" y1="256.109" x2="306.778" y2="259.901"/><line x1="302.986" y1="259.901" x2="306.778" y2="256.109"/>
<line x1="307.485" y1="276.455" x2="311.278" y2="276.455"/><line x1="309.382" y1="274.559" x2="309.382" y2="278.351"/><line x1="307.485" y1="274.559" x2="311.278" y2="278.351"/><line x1="307.485" y1="278.351" x2="311.278" y2="274.559"/>
<line x1="311.985" y1="267.455" x2="315.778" y2="267.455"/><line x1="313.881" y1="265.559" x2="313.881" y2="269.351"/><line x1="311.985" y1="265.559" x2="315.778" y2="269.351"/><line x1="311.985" y1="269.351" x2="315.778" y2="265.559"/>
<line x1="316.485" y1="245.622" x2="320.277" y2="245.622"/><line x1="318.381" y1="243.726" x2="318.381" y2="247.518"/><line x1="316.485" y1="243.726" x2="320.277" y2="247.518"/><line x1="316.485" y1="247.518" x2="320.277" y2="243.726"/>
<line x1="320.985" y1="230.322" x2="324.777" y2="230.322"/><line x1="322.881" y1="228.426" x2="322.881" y2="232.218"/><line x1="320.985" y1="228.426" x2="324.777" y2="232.218"/><line x1="320.985" y1="232.218" x2="324.777" y2="228.426"/>
<line x1="325.485" y1="225.092" x2="329.277" y2="225.092"/><line x1="327.381" y1="223.196" x2="327.381" y2="226.988"/><line x1="325.485" y1="223.196" x2="329.277" y2="226.988"/><line x1="325.485" y1="226.988" x2="329.277" y2="223.196"/>
<line x1="329.985" y1="205.908" x2="333.777" y2="205.908"/><line x1="331.881" y1="204.012" x2="331.881" y2="207.804"/><line x1="329.985" y1="204.012" x2="333.777" y2="207.804"/><line x1="329.985" y1="207.804" x2="333.777" y2="204.012"/>
<line x1="334.485" y1="227.392" x2="338.277" y2="227.392"/><line x1="336.381" y1="225.496" x2="336.381" y2="229.288"/><line x1="334.485" y1="225.496" x2="338.277" y2="229.288"/><line x1="334.485" y1="229.288" x2="338.277" y2="225.496"/>
<line x1="338.985" y1="236.729" x2="342.777" y2="236.729"/><line x1="340.881" y1="234.832" x2="340.881" y2="238.625"/><line x1="338.985" y1="234.832" x2="342.777" y2="238.625"/><line x1="338.985" y1="238.625" x2="342.777" y2="234.832"/>
<line x1="343.485" y1="222.009" x2="347.277" y2="222.009"/><line x1="345.381" y1="220.113" x2="345.381" y2="223.905"/><line x1="343.485" y1="220.113" x2="347.277" y2="223.905"/><line x1="343.485" y1="223.905" x2="347.277" y2="220.113"/>
<line x1="347.984" y1="202.711" x2="351.777" y2="202.711"/><line x1="349.881" y1="200.815" x2="349.881" y2="204.607"/><line x1="347.984" y1="200.815" x2="351.777" y2="204.607"/><line x1="347.984" y1="204.607" x2="351.777" y2="200.815"/>
<line x1="352.484" y1="220.372" x2="356.277" y2="220.372"/><line x1="354.38" y1="218.476" x2="354.38" y2="222.268"/><line x1="352.484" y1="218.476" x2="356.277" y2="222.268"/><line x1="352.484" y1="222.268" x2="356.277" y2="218.476"/>
<line x1="356.984" y1="227.889" x2="360.776" y2="227.889"/><line x1="358.88" y1="225.993" x2="358.88" y2="229.785"/><line x1="356.984" y1="225.993" x2="360.776" y2="229.785"/><line x1="356.984" y1="229.785" x2="360.776" y2="225.993"/>
<line x1="361.484" y1="237.005" x2="365.276" y2="237.005"/><line x1="363.38" y1="235.108" x2="363.38" y2="238.901"/><line x1="361.484" y1="235.108" x2="365.276" y2="238.901"/><line x1="361.484" y1="238.901" x2="365.276" y2="235.108"/>
<line x1="365.984" y1="257.86" x2="369.776" y2="257.86"/><line x1="367.88" y1="255.963" x2="367.88" y2="259.756"/><line x1="365.984" y1="255.963" x2="369.776" y2="259.756"/><line x1="365.984" y1="259.756" x2="369.776" y2="255.963"/>
<line x1="370.484" y1="257.958" x2="374.276" y2="257.958"/><line x1="372.38" y1="256.062" x2="372.38" y2="259.854"/><line x1="370.484" y1="256.062" x2="374.276" y2="259.854"/><line x1="370.484" y1="259.854" x2="374.276" y2="256.062"/>
<line x1="374.984" y1="277.907" x2="378.776" y2="277.907"/><line x1="376.88" y1="276.011" x2="376.88" y2="279.803"/><line x1="374.984" y1="276.011" x2="378.776" y2="279.803"/><line x1="374.984" y1="279.803" x2="378.776" y2="276.011"/>
<line x1="379.484" y1="250.147" x2="383.276" y2="250.147"/><line x1="381.38" y1="248.251" x2="381.38" y2="252.043"/><line x1="379.484" y1="248.251" x2="383.276" y2="252.043"/><line x1="379.484" y1="252.043" x2="383.276" y2="248.251"/>
<line x1="383.984" y1="248.795" x2="387.776" y2="248.795"/><line x1="385.88" y1="246.899" x2="385.88" y2="250.691"/><line x1="383.984" y1="246.899" x2="387.776" y2="250.691"/><line x1="383.984" y1="250.691" x2="387.776" y2="246.899"/>
<line x1="388.483" y1="277.21" x2="392.276" y2="277.21"/><line x1="390.38" y1="275.314" x2="390.38" y2="279.106"/><line x1="388.483" y1="275.314" x2="392.276" y2="279.106"/><line x1="388.483" y1="279.106" x2="392.276" y2="275.314"/>
<line x1="392.983" y1="265.93" x2="396.776" y2="265.93"/><line x1="394.879" y1="264.034" x2="394.879" y2="267.826"/><line x1="392.983" y1="264.034" x2="396.776" y2="267.826"/><line x1="392.983" y1="267.826" x2="396.776" y2="264.034"/>
<line x1="397.483" y1="288.94" x2="401.275" y2="288.94"/><line x1="399.379" y1="287.043" x2="399.379" y2="290.836"/><line x1="397.483" y1="287.043" x2="401.275" y2="290.836"/><line x1="397.483" y1="290.836" x2="401.275" y2="287.043"/>
<line x1="401.983" y1="285.25" x2="405.775" y2="285.25"/><line x1="403.879" y1="283.354" x2="403.879" y2="287.146"/><line x1="401.983" y1="283.354" x2="405.775" y2="287.146"/><line x1="401.983" y1="287.146" x2="405.775" y2="283.354"/>
<line x1="406.483" y1="275.378" x2="410.275" y2="275.378"/><line x1="408.379" y1="273.482" x2="408.379" y2="277.274"/><line x1="406.483" y1="273.482" x2="410.275" y2="277.274"/><line x1="406.483" y1="277.274" x2="410.275" y2="273.482"/>
<line x1="410.983" y1="289.406" x2="414.775" y2="289.406"/><line x1="412.879" y1="287.509" x2="412.879" y2="291.302"/><line x1="410.983" y1="287.509" x2="414.775" y2="291.302"/><line x1="410.983" y1="291.302" x2="414.775" y2="287.509"/>
<line x1="415.483" y1="273.352" x2="419.275" y2="273.352"/><line x1="417.379" y1="271.456" x2="417.379" y2="275.248"/><line x1="415.483" y1="271.456" x2="419.275" y2="275.248"/><line x1="415.483" y1="275.248" x2="419.275" y2="271.456"/>
<line x1="419.983" y1="242.678" x2="423.775" y2="242.678"/><line x1="421.879" y1="240.782" x2="421.879" y2="244.574"/><line x1="419.983" y1="240.782" x2="423.775" y2="244.574"/><line x1="419.983" y1="244.574" x2="423.775" y2="240.782"/>
<line x1="424.483" y1="233.95" x2="428.275" y2="233.95"/><line x1="426.379" y1="232.053" x2="426.379" y2="235.846"/><line x1="424.483" y1="232.053" x2="428.275" y2="235.846"/><line x1="424.483" y1="235.846" x2="428.275" y2="232.053"/>
<line x1="428.982" y1="231.701" x2="432.775" y2="231.701"/><line x1="430.879" y1="229.804" x2="430.879" y2="233.597"/><line x1="428.982" y1="229.804" x2="432.775" y2="233.597"/><line x1="428.982" y1="233.597" x2="432.775" y2="229.804"/>
<line x1="433.482" y1="244.029" x2="437.274" y2="244.029"/><line x1="435.378" y1="242.133" x2="435.378" y2="245.925"/><line x1="433.482" y1="242.133" x2="437.274" y2="245.925"/><line x1="433.482" y1="245.925" x2="437.274" y2="242.133"/>
<line x1="437.982" y1="217.622" x2="441.774" y2="217.622"/><line x1="439.878" y1="215.726" x2="439.878" y2="219.518"/><line x1="437.982" y1="215.726" x2="441.774" y2="219.518"/><line x1="437.982" y1="219.518" x2="441.774" y2="215.726"/>
<line x1="442.482" y1="214.061" x2="446.274" y2="214.061"/><line x1="444.378" y1="212.165" x2="444.378" y2="215.957"/><line x1="442.482" y1="212.165" x2="446.274" y2="215.957"/><line x1="442.482" y1="215.957" x2="446.274" y2="212.165"/>
<line x1="446.982" y1="198.255" x2="450.774" y2="198.255"/><line x1="448.878" y1="196.359" x2="448.878" y2="200.151"/><line x1="446.982" y1="196.359" x2="450.774" y2="200.151"/><line x1="446.982" y1="200.151" x2="450.774" y2="196.359"/>
<line x1="451.482" y1="184.522" x2="455.274" y2="184.522"/><line x1="453.378" y1="182.626" x2="453.378" y2="186.418"/><line x1="451.482" y1="182.626" x2="455.274" y2="186.418"/><line x1="451.482" y1="186.418" x2="455.274" y2="182.626"/>
<line x1="455.982" y1="181.981" x2="459.774" y2="181.981"/><line x1="457.878" y1="180.085" x2="457.878" y2="183.877"/><line x1="455.982" y1="180.085" x2="459.774" y2="183.877"/><line x1="455.982" y1="183.877" x2="459.774" y2="180.085"/>
<line x1="460.482" y1="177.525" x2="464.274" y2="177.525"/><line x1="462.378" y1="175.629" x2="462.378" y2="179.421"/><line x1="460.482" y1="175.629" x2="464.274" y2="179.421"/><line x1="460.482" y1="179.421" x2="464.274" y2="175.629"/>
<line x1="464.982" y1="179.191" x2="468.774" y2="179.191"/><line x1="466.878" y1="177.295" x2="466.878" y2="181.087"/><line x1="464.982" y1="177.295" x2="468.774" y2="181.087"/><line x1="464.982" y1="181.087" x2="468.774" y2="177.295"/>
<line x1="469.481" y1="164.828" x2="473.274" y2="164.828"/><line x1="471.378" y1="162.932" x2="471.378" y2="166.724"/><line x1="469.481" y1="162.932" x2="473.274" y2="166.724"/><line x1="469.481" y1="166.724" x2="473.274" y2="162.932"/>
<line x1="473.981" y1="160.625" x2="477.773" y2="160.625"/><line x1="475.877" y1="158.729" x2="475.877" y2="162.521"/><line x1="473.981" y1="158.729" x2="477.773" y2="162.521"/><line x1="473.981" y1="162.521" x2="477.773" y2="158.729"/>
<line x1="478.481" y1="136.381" x2="482.273" y2="136.381"/><line x1="480.377" y1="134.485" x2="480.377" y2="138.277"/><line x1="478.481" y1="134.485" x2="482.273" y2="138.277"/><line x1="478.481" y1="138.277" x2="482.273" y2="134.485"/>
<line x1="482.981" y1="125.605" x2="486.773" y2="125.605"/><line x1="484.877" y1="123.709" x2="484.877" y2="127.501"/><line x1="482.981" y1="123.709" x2="486.773" y2="127.501"/><line x1="482.981" y1="127.501" x2="486.773" y2="123.709"/>
<line x1="487.481" y1="109.771" x2="491.273" y2="109.771"/><line x1="489.377" y1="107.875" x2="489.377" y2="111.667"/><line x1="487.481" y1="107.875" x2="491.273" y2="111.667"/><line x1="487.481" y1="111.667" x2="491.273" y2="107.875"/>
<line x1="491.981" y1="88.2273" x2="495.773" y2="88.2273"/><line x1="493.877" y1="86.3313" x2="493.877" y2="90.1234"/><line x1="491.981" y1="86.3313" x2="495.773" y2="90.1234"/><line x1="491.981" y1="90.1234" x2="495.773" y2="86.3313"/>
<line x1="496.481" y1="119.73" x2="500.273" y2="119.73"/><line x1="498.377" y1="117.834" x2="498.377" y2="121.627"/><line x1="496.481" y1="117.834" x2="500.273" y2="121.627"/><line x1="496.481" y1="121.627" x2="500.273" y2="117.834"/>
<line x1="500.981" y1="163.648" x2="504.773" y2="163.648"/><line x1="502.877" y1="161.752" x2="502.877" y2="165.544"/><line x1="500.981" y1="161.752" x2="504.773" y2="165.544"/><line x1="500.981" y1="165.544" x2="504.773" y2="161.752"/>
<line x1="505.481" y1="129.664" x2="509.273" y2="129.664"/><line x1="507.377" y1="127.768" x2="507.377" y2="131.56"/><line x1="505.481" y1="127.768" x2="509.273" y2="131.56"/><line x1="505.481" y1="131.56" x2="509.273" y2="127.768"/>
</g>
<path d="M0.5,272.809h 566.929" fill="none" stroke="#0000ff"/>
<text xml:space="preserve" x="111.421" y="18.9608" fill="black" font-size="15.997" font-family="Helvetica">^2 v.s. calibration factorwith 1st binand with last bin</text>
<text xml:space="preserve" x="102.889" y="18.9608" fill="black" font-size="15.997" font-family="Times">&#0967;</text></svg>
