<?xml version="1.0" standalone="no"?>
<svg width="567.429" height="413.846" viewBox="0 0 567.429 413.846" xmlns="http://www.w3.org/2000/svg" shape-rendering="crispEdges">
<title>
figures/chi2zoomin_0PMTnpefilelist20.svg
</title>
<desc>
Creator: ROOT Version 6.18/04
CreationDate: Mon Nov  4 00:02:02 2019</desc>
<defs>
</defs>
<rect x="0.5" y="0" width="566.929" height="413.346" fill="white"/>
<rect x="57.1929" y="41.3346" width="453.543" height="330.677" fill="white"/>
<rect x="57.1929" y="41.3346" width="453.543" height="330.677" fill="none" stroke="black"/>
<path d="M57.1929,372.012h 453.543" fill="none" stroke="black"/>
<path d="M97.8697,41.3346v 330.677" fill="none" stroke="black" stroke-dasharray=" 1, 2"/>
<path d="M142.339,41.3346v 330.677" fill="none" stroke="black" stroke-dasharray=" 1, 2"/>
<path d="M186.809,41.3346v 330.677" fill="none" stroke="black" stroke-dasharray=" 1, 2"/>
<path d="M231.278,41.3346v 330.677" fill="none" stroke="black" stroke-dasharray=" 1, 2"/>
<path d="M275.748,41.3346v 330.677" fill="none" stroke="black" stroke-dasharray=" 1, 2"/>
<path d="M320.217,41.3346v 330.677" fill="none" stroke="black" stroke-dasharray=" 1, 2"/>
<path d="M364.687,41.3346v 330.677" fill="none" stroke="black" stroke-dasharray=" 1, 2"/>
<path d="M409.156,41.3346v 330.677" fill="none" stroke="black" stroke-dasharray=" 1, 2"/>
<path d="M453.625,41.3346v 330.677" fill="none" stroke="black" stroke-dasharray=" 1, 2"/>
<path d="M498.095,41.3346v 330.677" fill="none" stroke="black" stroke-dasharray=" 1, 2"/>
<path d="M97.8697,41.3346v 330.677" fill="none" stroke="black" stroke-dasharray=" 1, 2"/>
<path d="M498.095,41.3346v 330.677" fill="none" stroke="black" stroke-dasharray=" 1, 2"/>
<path d="M57.1929,372.012v -330.677" fill="none" stroke="black"/>
<path d="M57.1929,372.012h 453.543" fill="none" stroke="black"/>
<path d="M97.8697,362.091v 9.92031" fill="none" stroke="black"/>
<path d="M108.987,367.052v 4.96016" fill="none" stroke="black"/>
<path d="M120.104,367.052v 4.96016" fill="none" stroke="black"/>
<path d="M131.222,367.052v 4.96016" fill="none" stroke="black"/>
<path d="M142.339,362.091v 9.92031" fill="none" stroke="black"/>
<path d="M153.457,367.052v 4.96016" fill="none" stroke="black"/>
<path d="M164.574,367.052v 4.96016" fill="none" stroke="black"/>
<path d="M175.691,367.052v 4.96016" fill="none" stroke="black"/>
<path d="M186.809,362.091v 9.92031" fill="none" stroke="black"/>
<path d="M197.926,367.052v 4.96016" fill="none" stroke="black"/>
<path d="M209.043,367.052v 4.96016" fill="none" stroke="black"/>
<path d="M220.161,367.052v 4.96016" fill="none" stroke="black"/>
<path d="M231.278,362.091v 9.92031" fill="none" stroke="black"/>
<path d="M242.395,367.052v 4.96016" fill="none" stroke="black"/>
<path d="M253.513,367.052v 4.96016" fill="none" stroke="black"/>
<path d="M264.63,367.052v 4.96016" fill="none" stroke="black"/>
<path d="M275.748,362.091v 9.92031" fill="none" stroke="black"/>
<path d="M286.865,367.052v 4.96016" fill="none" stroke="black"/>
<path d="M297.982,367.052v 4.96016" fill="none" stroke="black"/>
<path d="M309.1,367.052v 4.96016" fill="none" stroke="black"/>
<path d="M320.217,362.091v 9.92031" fill="none" stroke="black"/>
<path d="M331.334,367.052v 4.96016" fill="none" stroke="black"/>
<path d="M342.452,367.052v 4.96016" fill="none" stroke="black"/>
<path d="M353.569,367.052v 4.96016" fill="none" stroke="black"/>
<path d="M364.687,362.091v 9.92031" fill="none" stroke="black"/>
<path d="M375.804,367.052v 4.96016" fill="none" stroke="black"/>
<path d="M386.921,367.052v 4.96016" fill="none" stroke="black"/>
<path d="M398.039,367.052v 4.96016" fill="none" stroke="black"/>
<path d="M409.156,362.091v 9.92031" fill="none" stroke="black"/>
<path d="M420.273,367.052v 4.96016" fill="none" stroke="black"/>
<path d="M431.391,367.052v 4.96016" fill="none" stroke="black"/>
<path d="M442.508,367.052v 4.96016" fill="none" stroke="black"/>
<path d="M453.625,362.091v 9.92031" fill="none" stroke="black"/>
<path d="M464.743,367.052v 4.96016" fill="none" stroke="black"/>
<path d="M475.86,367.052v 4.96016" fill="none" stroke="black"/>
<path d="M486.978,367.052v 4.96016" fill="none" stroke="black"/>
<path d="M498.095,362.091v 9.92031" fill="none" stroke="black"/>
<path d="M97.8697,362.091v 9.92031" fill="none" stroke="black"/>
<path d="M86.7523,367.052v 4.96016" fill="none" stroke="black"/>
<path d="M75.6349,367.052v 4.96016" fill="none" stroke="black"/>
<path d="M64.5176,367.052v 4.96016" fill="none" stroke="black"/>
<path d="M498.095,362.091v 9.92031" fill="none" stroke="black"/>
<path d="M509.212,367.052v 4.96016" fill="none" stroke="black"/>
<text xml:space="preserve" x="81.0836" y="385.379" fill="black" font-size="13.7726" font-family="Helvetica">0.896</text>
<text xml:space="preserve" x="125.642" y="385.379" fill="black" font-size="13.7726" font-family="Helvetica">0.898</text>
<text xml:space="preserve" x="177.784" y="385.379" fill="black" font-size="13.7726" font-family="Helvetica">0.9</text>
<text xml:space="preserve" x="214.283" y="385.379" fill="black" font-size="13.7726" font-family="Helvetica">0.902</text>
<text xml:space="preserve" x="258.841" y="385.379" fill="black" font-size="13.7726" font-family="Helvetica">0.904</text>
<text xml:space="preserve" x="303.399" y="385.379" fill="black" font-size="13.7726" font-family="Helvetica">0.906</text>
<text xml:space="preserve" x="347.957" y="385.379" fill="black" font-size="13.7726" font-family="Helvetica">0.908</text>
<text xml:space="preserve" x="397.256" y="385.379" fill="black" font-size="13.7726" font-family="Helvetica">0.91</text>
<text xml:space="preserve" x="436.599" y="385.379" fill="black" font-size="13.7726" font-family="Helvetica">0.912</text>
<text xml:space="preserve" x="481.157" y="385.379" fill="black" font-size="13.7726" font-family="Helvetica">0.914</text>
<text xml:space="preserve" x="413.372" y="400.074" fill="black" font-size="13.7726" font-family="Helvetica">calibration factor</text>
<path d="M57.1929,372.012v -330.677" fill="none" stroke="black"/>
<path d="M70.7992,367.919h -13.6063" fill="none" stroke="black"/>
<path d="M63.9961,361.306h -6.80315" fill="none" stroke="black"/>
<path d="M63.9961,354.692h -6.80315" fill="none" stroke="black"/>
<path d="M63.9961,348.079h -6.80315" fill="none" stroke="black"/>
<path d="M63.9961,341.465h -6.80315" fill="none" stroke="black"/>
<path d="M70.7992,334.852h -13.6063" fill="none" stroke="black"/>
<path d="M63.9961,328.238h -6.80315" fill="none" stroke="black"/>
<path d="M63.9961,321.625h -6.80315" fill="none" stroke="black"/>
<path d="M63.9961,315.011h -6.80315" fill="none" stroke="black"/>
<path d="M63.9961,308.397h -6.80315" fill="none" stroke="black"/>
<path d="M70.7992,301.784h -13.6063" fill="none" stroke="black"/>
<path d="M63.9961,295.17h -6.80315" fill="none" stroke="black"/>
<path d="M63.9961,288.557h -6.80315" fill="none" stroke="black"/>
<path d="M63.9961,281.943h -6.80315" fill="none" stroke="black"/>
<path d="M63.9961,275.33h -6.80315" fill="none" stroke="black"/>
<path d="M70.7992,268.716h -13.6063" fill="none" stroke="black"/>
<path d="M63.9961,262.103h -6.80315" fill="none" stroke="black"/>
<path d="M63.9961,255.489h -6.80315" fill="none" stroke="black"/>
<path d="M63.9961,248.876h -6.80315" fill="none" stroke="black"/>
<path d="M63.9961,242.262h -6.80315" fill="none" stroke="black"/>
<path d="M70.7992,235.649h -13.6063" fill="none" stroke="black"/>
<path d="M63.9961,229.035h -6.80315" fill="none" stroke="black"/>
<path d="M63.9961,222.421h -6.80315" fill="none" stroke="black"/>
<path d="M63.9961,215.808h -6.80315" fill="none" stroke="black"/>
<path d="M63.9961,209.194h -6.80315" fill="none" stroke="black"/>
<path d="M70.7992,202.581h -13.6063" fill="none" stroke="black"/>
<path d="M63.9961,195.967h -6.80315" fill="none" stroke="black"/>
<path d="M63.9961,189.354h -6.80315" fill="none" stroke="black"/>
<path d="M63.9961,182.74h -6.80315" fill="none" stroke="black"/>
<path d="M63.9961,176.127h -6.80315" fill="none" stroke="black"/>
<path d="M70.7992,169.513h -13.6063" fill="none" stroke="black"/>
<path d="M63.9961,162.9h -6.80315" fill="none" stroke="black"/>
<path d="M63.9961,156.286h -6.80315" fill="none" stroke="black"/>
<path d="M63.9961,149.672h -6.80315" fill="none" stroke="black"/>
<path d="M63.9961,143.059h -6.80315" fill="none" stroke="black"/>
<path d="M70.7992,136.445h -13.6063" fill="none" stroke="black"/>
<path d="M63.9961,129.832h -6.80315" fill="none" stroke="black"/>
<path d="M63.9961,123.218h -6.80315" fill="none" stroke="black"/>
<path d="M63.9961,116.605h -6.80315" fill="none" stroke="black"/>
<path d="M63.9961,109.991h -6.80315" fill="none" stroke="black"/>
<path d="M70.7992,103.378h -13.6063" fill="none" stroke="black"/>
<path d="M63.9961,96.7642h -6.80315" fill="none" stroke="black"/>
<path d="M63.9961,90.1506h -6.80315" fill="none" stroke="black"/>
<path d="M63.9961,83.5371h -6.80315" fill="none" stroke="black"/>
<path d="M63.9961,76.9235h -6.80315" fill="none" stroke="black"/>
<path d="M70.7992,70.31h -13.6063" fill="none" stroke="black"/>
<path d="M70.7992,367.919h -13.6063" fill="none" stroke="black"/>
<path d="M70.7992,70.31h -13.6063" fill="none" stroke="black"/>
<path d="M63.9961,63.6964h -6.80315" fill="none" stroke="black"/>
<path d="M63.9961,57.0829h -6.80315" fill="none" stroke="black"/>
<path d="M63.9961,50.4694h -6.80315" fill="none" stroke="black"/>
<path d="M63.9961,43.8558h -6.80315" fill="none" stroke="black"/>
<text xml:space="preserve" x="32.2594" y="372.581" fill="black" font-size="13.7726" font-family="Helvetica">158</text>
<text xml:space="preserve" x="32.2594" y="339.399" fill="black" font-size="13.7726" font-family="Helvetica">159</text>
<text xml:space="preserve" x="32.2594" y="306.218" fill="black" font-size="13.7726" font-family="Helvetica">160</text>
<text xml:space="preserve" x="34.6295" y="273.036" fill="black" font-size="13.7726" font-family="Helvetica">161</text>
<text xml:space="preserve" x="32.2594" y="240.329" fill="black" font-size="13.7726" font-family="Helvetica">162</text>
<text xml:space="preserve" x="32.2594" y="207.147" fill="black" font-size="13.7726" font-family="Helvetica">163</text>
<text xml:space="preserve" x="32.2594" y="173.966" fill="black" font-size="13.7726" font-family="Helvetica">164</text>
<text xml:space="preserve" x="32.2594" y="140.784" fill="black" font-size="13.7726" font-family="Helvetica">165</text>
<text xml:space="preserve" x="32.2594" y="108.077" fill="black" font-size="13.7726" font-family="Helvetica">166</text>
<text xml:space="preserve" x="32.2594" y="74.8953" fill="black" font-size="13.7726" font-family="Helvetica">167</text>
<g transform="rotate(-90,15.1947,45.98)">
<text xml:space="preserve" x="15.1947" y="45.98" fill="black" font-size="9.34839" font-family="Helvetica">2</text>
</g>
<g transform="rotate(-90,19.4608,50.2462)">
<text xml:space="preserve" x="19.4608" y="50.2462" fill="black" font-size="13.7726" font-family="Helvetica"> </text>
</g>
<g transform="rotate(-90,19.4608,57.3565)">
<text xml:space="preserve" x="19.4608" y="57.3565" fill="black" font-size="13.7726" font-family="Times">&#0967;</text>
</g>
<text xml:space="preserve" x="111.421" y="18.9608" fill="black" font-size="15.997" font-family="Helvetica">^2 v.s. calibration factorwith 1st binand with last bin</text>
<text xml:space="preserve" x="102.889" y="18.9608" fill="black" font-size="15.997" font-family="Times">&#0967;</text>
<g stroke="black" stroke-width="1" fill="none">
<line x1="87.0797" y1="54.5045" x2="90.8719" y2="54.5045"/><line x1="88.9758" y1="52.6084" x2="88.9758" y2="56.4005"/><line x1="87.0797" y1="52.6084" x2="90.8719" y2="56.4005"/><line x1="87.0797" y1="56.4005" x2="90.8719" y2="52.6084"/>
<line x1="91.5266" y1="41.4159" x2="95.3188" y2="41.4159"/><line x1="93.4227" y1="39.5198" x2="93.4227" y2="43.3119"/><line x1="91.5266" y1="39.5198" x2="95.3188" y2="43.3119"/><line x1="91.5266" y1="43.3119" x2="95.3188" y2="39.5198"/>
<line x1="95.9736" y1="44.9205" x2="99.7658" y2="44.9205"/><line x1="97.8697" y1="43.0244" x2="97.8697" y2="46.8166"/><line x1="95.9736" y1="43.0244" x2="99.7658" y2="46.8166"/><line x1="95.9736" y1="46.8166" x2="99.7658" y2="43.0244"/>
</g>
<g stroke="black" stroke-width="1" fill="none">
<line x1="104.867" y1="49.4897" x2="108.66" y2="49.4897"/><line x1="106.764" y1="47.5937" x2="106.764" y2="51.3858"/><line x1="104.867" y1="47.5937" x2="108.66" y2="51.3858"/><line x1="104.867" y1="51.3858" x2="108.66" y2="47.5937"/>
<line x1="109.314" y1="57.1821" x2="113.107" y2="57.1821"/><line x1="111.211" y1="55.286" x2="111.211" y2="59.0782"/><line x1="109.314" y1="55.286" x2="113.107" y2="59.0782"/><line x1="109.314" y1="59.0782" x2="113.107" y2="55.286"/>
<line x1="113.761" y1="91.1976" x2="117.554" y2="91.1976"/><line x1="115.657" y1="89.3015" x2="115.657" y2="93.0937"/><line x1="113.761" y1="89.3015" x2="117.554" y2="93.0937"/><line x1="113.761" y1="93.0937" x2="117.554" y2="89.3015"/>
<line x1="118.208" y1="84.7205" x2="122.001" y2="84.7205"/><line x1="120.104" y1="82.8244" x2="120.104" y2="86.6165"/><line x1="118.208" y1="82.8244" x2="122.001" y2="86.6165"/><line x1="118.208" y1="86.6165" x2="122.001" y2="82.8244"/>
<line x1="122.655" y1="83.7678" x2="126.447" y2="83.7678"/><line x1="124.551" y1="81.8717" x2="124.551" y2="85.6639"/><line x1="122.655" y1="81.8717" x2="126.447" y2="85.6639"/><line x1="122.655" y1="85.6639" x2="126.447" y2="81.8717"/>
<line x1="127.102" y1="50.6371" x2="130.894" y2="50.6371"/><line x1="128.998" y1="48.7411" x2="128.998" y2="52.5332"/><line x1="127.102" y1="48.7411" x2="130.894" y2="52.5332"/><line x1="127.102" y1="52.5332" x2="130.894" y2="48.7411"/>
<line x1="131.549" y1="55.1373" x2="135.341" y2="55.1373"/><line x1="133.445" y1="53.2412" x2="133.445" y2="57.0333"/><line x1="131.549" y1="53.2412" x2="135.341" y2="57.0333"/><line x1="131.549" y1="57.0333" x2="135.341" y2="53.2412"/>
<line x1="135.996" y1="56.3655" x2="139.788" y2="56.3655"/><line x1="137.892" y1="54.4694" x2="137.892" y2="58.2616"/><line x1="135.996" y1="54.4694" x2="139.788" y2="58.2616"/><line x1="135.996" y1="58.2616" x2="139.788" y2="54.4694"/>
<line x1="140.443" y1="55.6458" x2="144.235" y2="55.6458"/><line x1="142.339" y1="53.7497" x2="142.339" y2="57.5418"/><line x1="140.443" y1="53.7497" x2="144.235" y2="57.5418"/><line x1="140.443" y1="57.5418" x2="144.235" y2="53.7497"/>
<line x1="144.89" y1="92.3369" x2="148.682" y2="92.3369"/><line x1="146.786" y1="90.4409" x2="146.786" y2="94.233"/><line x1="144.89" y1="90.4409" x2="148.682" y2="94.233"/><line x1="144.89" y1="94.233" x2="148.682" y2="90.4409"/>
<line x1="149.337" y1="87.255" x2="153.129" y2="87.255"/><line x1="151.233" y1="85.3589" x2="151.233" y2="89.1511"/><line x1="149.337" y1="85.3589" x2="153.129" y2="89.1511"/><line x1="149.337" y1="89.1511" x2="153.129" y2="85.3589"/>
<line x1="153.784" y1="99.2288" x2="157.576" y2="99.2288"/><line x1="155.68" y1="97.3327" x2="155.68" y2="101.125"/><line x1="153.784" y1="97.3327" x2="157.576" y2="101.125"/><line x1="153.784" y1="101.125" x2="157.576" y2="97.3327"/>
<line x1="158.231" y1="106.172" x2="162.023" y2="106.172"/><line x1="160.127" y1="104.276" x2="160.127" y2="108.068"/><line x1="158.231" y1="104.276" x2="162.023" y2="108.068"/><line x1="158.231" y1="108.068" x2="162.023" y2="104.276"/>
<line x1="162.678" y1="134.927" x2="166.47" y2="134.927"/><line x1="164.574" y1="133.031" x2="164.574" y2="136.823"/><line x1="162.678" y1="133.031" x2="166.47" y2="136.823"/><line x1="162.678" y1="136.823" x2="166.47" y2="133.031"/>
<line x1="167.125" y1="153.819" x2="170.917" y2="153.819"/><line x1="169.021" y1="151.923" x2="169.021" y2="155.715"/><line x1="167.125" y1="151.923" x2="170.917" y2="155.715"/><line x1="167.125" y1="155.715" x2="170.917" y2="151.923"/>
<line x1="171.572" y1="145.915" x2="175.364" y2="145.915"/><line x1="173.468" y1="144.019" x2="173.468" y2="147.812"/><line x1="171.572" y1="144.019" x2="175.364" y2="147.812"/><line x1="171.572" y1="147.812" x2="175.364" y2="144.019"/>
<line x1="176.019" y1="143.258" x2="179.811" y2="143.258"/><line x1="177.915" y1="141.362" x2="177.915" y2="145.154"/><line x1="176.019" y1="141.362" x2="179.811" y2="145.154"/><line x1="176.019" y1="145.154" x2="179.811" y2="141.362"/>
<line x1="180.466" y1="150.66" x2="184.258" y2="150.66"/><line x1="182.362" y1="148.764" x2="182.362" y2="152.556"/><line x1="180.466" y1="148.764" x2="184.258" y2="152.556"/><line x1="180.466" y1="152.556" x2="184.258" y2="148.764"/>
<line x1="184.913" y1="164.323" x2="188.705" y2="164.323"/><line x1="186.809" y1="162.427" x2="186.809" y2="166.219"/><line x1="184.913" y1="162.427" x2="188.705" y2="166.219"/><line x1="184.913" y1="166.219" x2="188.705" y2="162.427"/>
<line x1="189.359" y1="179.627" x2="193.152" y2="179.627"/><line x1="191.256" y1="177.731" x2="191.256" y2="181.524"/><line x1="189.359" y1="177.731" x2="193.152" y2="181.524"/><line x1="189.359" y1="181.524" x2="193.152" y2="177.731"/>
<line x1="193.806" y1="161.13" x2="197.599" y2="161.13"/><line x1="195.703" y1="159.234" x2="195.703" y2="163.026"/><line x1="193.806" y1="159.234" x2="197.599" y2="163.026"/><line x1="193.806" y1="163.026" x2="197.599" y2="159.234"/>
<line x1="198.253" y1="160.349" x2="202.046" y2="160.349"/><line x1="200.149" y1="158.453" x2="200.149" y2="162.245"/><line x1="198.253" y1="158.453" x2="202.046" y2="162.245"/><line x1="198.253" y1="162.245" x2="202.046" y2="158.453"/>
<line x1="202.7" y1="179.91" x2="206.493" y2="179.91"/><line x1="204.596" y1="178.014" x2="204.596" y2="181.806"/><line x1="202.7" y1="178.014" x2="206.493" y2="181.806"/><line x1="202.7" y1="181.806" x2="206.493" y2="178.014"/>
<line x1="207.147" y1="166.688" x2="210.939" y2="166.688"/><line x1="209.043" y1="164.792" x2="209.043" y2="168.584"/><line x1="207.147" y1="164.792" x2="210.939" y2="168.584"/><line x1="207.147" y1="168.584" x2="210.939" y2="164.792"/>
<line x1="211.594" y1="152.779" x2="215.386" y2="152.779"/><line x1="213.49" y1="150.883" x2="213.49" y2="154.675"/><line x1="211.594" y1="150.883" x2="215.386" y2="154.675"/><line x1="211.594" y1="154.675" x2="215.386" y2="150.883"/>
<line x1="216.041" y1="164.621" x2="219.833" y2="164.621"/><line x1="217.937" y1="162.725" x2="217.937" y2="166.517"/><line x1="216.041" y1="162.725" x2="219.833" y2="166.517"/><line x1="216.041" y1="166.517" x2="219.833" y2="162.725"/>
<line x1="220.488" y1="181.278" x2="224.28" y2="181.278"/><line x1="222.384" y1="179.382" x2="222.384" y2="183.174"/><line x1="220.488" y1="179.382" x2="224.28" y2="183.174"/><line x1="220.488" y1="183.174" x2="224.28" y2="179.382"/>
<line x1="224.935" y1="214.612" x2="228.727" y2="214.612"/><line x1="226.831" y1="212.716" x2="226.831" y2="216.508"/><line x1="224.935" y1="212.716" x2="228.727" y2="216.508"/><line x1="224.935" y1="216.508" x2="228.727" y2="212.716"/>
<line x1="229.382" y1="221.994" x2="233.174" y2="221.994"/><line x1="231.278" y1="220.098" x2="231.278" y2="223.89"/><line x1="229.382" y1="220.098" x2="233.174" y2="223.89"/><line x1="229.382" y1="223.89" x2="233.174" y2="220.098"/>
<line x1="233.829" y1="223.506" x2="237.621" y2="223.506"/><line x1="235.725" y1="221.61" x2="235.725" y2="225.402"/><line x1="233.829" y1="221.61" x2="237.621" y2="225.402"/><line x1="233.829" y1="225.402" x2="237.621" y2="221.61"/>
<line x1="238.276" y1="228.7" x2="242.068" y2="228.7"/><line x1="240.172" y1="226.804" x2="240.172" y2="230.596"/><line x1="238.276" y1="226.804" x2="242.068" y2="230.596"/><line x1="238.276" y1="230.596" x2="242.068" y2="226.804"/>
<line x1="242.723" y1="258.364" x2="246.515" y2="258.364"/><line x1="244.619" y1="256.468" x2="244.619" y2="260.261"/><line x1="242.723" y1="256.468" x2="246.515" y2="260.261"/><line x1="242.723" y1="260.261" x2="246.515" y2="256.468"/>
<line x1="247.17" y1="259.51" x2="250.962" y2="259.51"/><line x1="249.066" y1="257.613" x2="249.066" y2="261.406"/><line x1="247.17" y1="257.613" x2="250.962" y2="261.406"/><line x1="247.17" y1="261.406" x2="250.962" y2="257.613"/>
<line x1="251.617" y1="247.183" x2="255.409" y2="247.183"/><line x1="253.513" y1="245.287" x2="253.513" y2="249.079"/><line x1="251.617" y1="245.287" x2="255.409" y2="249.079"/><line x1="251.617" y1="249.079" x2="255.409" y2="245.287"/>
<line x1="256.064" y1="245.63" x2="259.856" y2="245.63"/><line x1="257.96" y1="243.733" x2="257.96" y2="247.526"/><line x1="256.064" y1="243.733" x2="259.856" y2="247.526"/><line x1="256.064" y1="247.526" x2="259.856" y2="243.733"/>
<line x1="260.511" y1="249.116" x2="264.303" y2="249.116"/><line x1="262.407" y1="247.22" x2="262.407" y2="251.012"/><line x1="260.511" y1="247.22" x2="264.303" y2="251.012"/><line x1="260.511" y1="251.012" x2="264.303" y2="247.22"/>
<line x1="264.958" y1="240.37" x2="268.75" y2="240.37"/><line x1="266.854" y1="238.474" x2="266.854" y2="242.266"/><line x1="264.958" y1="238.474" x2="268.75" y2="242.266"/><line x1="264.958" y1="242.266" x2="268.75" y2="238.474"/>
<line x1="269.405" y1="245.055" x2="273.197" y2="245.055"/><line x1="271.301" y1="243.159" x2="271.301" y2="246.951"/><line x1="269.405" y1="243.159" x2="273.197" y2="246.951"/><line x1="269.405" y1="246.951" x2="273.197" y2="243.159"/>
<line x1="273.852" y1="266.476" x2="277.644" y2="266.476"/><line x1="275.748" y1="264.58" x2="275.748" y2="268.372"/><line x1="273.852" y1="264.58" x2="277.644" y2="268.372"/><line x1="273.852" y1="268.372" x2="277.644" y2="264.58"/>
<line x1="278.298" y1="274.549" x2="282.091" y2="274.549"/><line x1="280.195" y1="272.653" x2="280.195" y2="276.445"/><line x1="278.298" y1="272.653" x2="282.091" y2="276.445"/><line x1="278.298" y1="276.445" x2="282.091" y2="272.653"/>
<line x1="282.745" y1="305.876" x2="286.538" y2="305.876"/><line x1="284.641" y1="303.98" x2="284.641" y2="307.772"/><line x1="282.745" y1="303.98" x2="286.538" y2="307.772"/><line x1="282.745" y1="307.772" x2="286.538" y2="303.98"/>
<line x1="287.192" y1="294.752" x2="290.985" y2="294.752"/><line x1="289.088" y1="292.856" x2="289.088" y2="296.648"/><line x1="287.192" y1="292.856" x2="290.985" y2="296.648"/><line x1="287.192" y1="296.648" x2="290.985" y2="292.856"/>
<line x1="291.639" y1="268.23" x2="295.431" y2="268.23"/><line x1="293.535" y1="266.334" x2="293.535" y2="270.126"/><line x1="291.639" y1="266.334" x2="295.431" y2="270.126"/><line x1="291.639" y1="270.126" x2="295.431" y2="266.334"/>
<line x1="296.086" y1="254.254" x2="299.878" y2="254.254"/><line x1="297.982" y1="252.358" x2="297.982" y2="256.15"/><line x1="296.086" y1="252.358" x2="299.878" y2="256.15"/><line x1="296.086" y1="256.15" x2="299.878" y2="252.358"/>
<line x1="300.533" y1="243.12" x2="304.325" y2="243.12"/><line x1="302.429" y1="241.224" x2="302.429" y2="245.016"/><line x1="300.533" y1="241.224" x2="304.325" y2="245.016"/><line x1="300.533" y1="245.016" x2="304.325" y2="241.224"/>
<line x1="304.98" y1="233.392" x2="308.772" y2="233.392"/><line x1="306.876" y1="231.496" x2="306.876" y2="235.288"/><line x1="304.98" y1="231.496" x2="308.772" y2="235.288"/><line x1="304.98" y1="235.288" x2="308.772" y2="231.496"/>
<line x1="309.427" y1="216.37" x2="313.219" y2="216.37"/><line x1="311.323" y1="214.474" x2="311.323" y2="218.266"/><line x1="309.427" y1="214.474" x2="313.219" y2="218.266"/><line x1="309.427" y1="218.266" x2="313.219" y2="214.474"/>
<line x1="313.874" y1="232.319" x2="317.666" y2="232.319"/><line x1="315.77" y1="230.423" x2="315.77" y2="234.215"/><line x1="313.874" y1="230.423" x2="317.666" y2="234.215"/><line x1="313.874" y1="234.215" x2="317.666" y2="230.423"/>
<line x1="318.321" y1="200.575" x2="322.113" y2="200.575"/><line x1="320.217" y1="198.679" x2="320.217" y2="202.471"/><line x1="318.321" y1="198.679" x2="322.113" y2="202.471"/><line x1="318.321" y1="202.471" x2="322.113" y2="198.679"/>
<line x1="322.768" y1="207.457" x2="326.56" y2="207.457"/><line x1="324.664" y1="205.56" x2="324.664" y2="209.353"/><line x1="322.768" y1="205.56" x2="326.56" y2="209.353"/><line x1="322.768" y1="209.353" x2="326.56" y2="205.56"/>
<line x1="327.215" y1="199.268" x2="331.007" y2="199.268"/><line x1="329.111" y1="197.372" x2="329.111" y2="201.164"/><line x1="327.215" y1="197.372" x2="331.007" y2="201.164"/><line x1="327.215" y1="201.164" x2="331.007" y2="197.372"/>
<line x1="331.662" y1="198.165" x2="335.454" y2="198.165"/><line x1="333.558" y1="196.268" x2="333.558" y2="200.061"/><line x1="331.662" y1="196.268" x2="335.454" y2="200.061"/><line x1="331.662" y1="200.061" x2="335.454" y2="196.268"/>
<line x1="336.109" y1="210.195" x2="339.901" y2="210.195"/><line x1="338.005" y1="208.299" x2="338.005" y2="212.091"/><line x1="336.109" y1="208.299" x2="339.901" y2="212.091"/><line x1="336.109" y1="212.091" x2="339.901" y2="208.299"/>
<line x1="340.556" y1="193.468" x2="344.348" y2="193.468"/><line x1="342.452" y1="191.572" x2="342.452" y2="195.364"/><line x1="340.556" y1="191.572" x2="344.348" y2="195.364"/><line x1="340.556" y1="195.364" x2="344.348" y2="191.572"/>
<line x1="345.003" y1="156.181" x2="348.795" y2="156.181"/><line x1="346.899" y1="154.285" x2="346.899" y2="158.077"/><line x1="345.003" y1="154.285" x2="348.795" y2="158.077"/><line x1="345.003" y1="158.077" x2="348.795" y2="154.285"/>
<line x1="349.45" y1="189.087" x2="353.242" y2="189.087"/><line x1="351.346" y1="187.191" x2="351.346" y2="190.983"/><line x1="349.45" y1="187.191" x2="353.242" y2="190.983"/><line x1="349.45" y1="190.983" x2="353.242" y2="187.191"/>
<line x1="353.897" y1="198.93" x2="357.689" y2="198.93"/><line x1="355.793" y1="197.033" x2="355.793" y2="200.826"/><line x1="353.897" y1="197.033" x2="357.689" y2="200.826"/><line x1="353.897" y1="200.826" x2="357.689" y2="197.033"/>
<line x1="358.344" y1="199.093" x2="362.136" y2="199.093"/><line x1="360.24" y1="197.197" x2="360.24" y2="200.989"/><line x1="358.344" y1="197.197" x2="362.136" y2="200.989"/><line x1="358.344" y1="200.989" x2="362.136" y2="197.197"/>
<line x1="362.79" y1="219.723" x2="366.583" y2="219.723"/><line x1="364.687" y1="217.827" x2="364.687" y2="221.62"/><line x1="362.79" y1="217.827" x2="366.583" y2="221.62"/><line x1="362.79" y1="221.62" x2="366.583" y2="217.827"/>
<line x1="367.237" y1="226.539" x2="371.03" y2="226.539"/><line x1="369.133" y1="224.643" x2="369.133" y2="228.435"/><line x1="367.237" y1="224.643" x2="371.03" y2="228.435"/><line x1="367.237" y1="228.435" x2="371.03" y2="224.643"/>
<line x1="371.684" y1="229.026" x2="375.477" y2="229.026"/><line x1="373.58" y1="227.13" x2="373.58" y2="230.922"/><line x1="371.684" y1="227.13" x2="375.477" y2="230.922"/><line x1="371.684" y1="230.922" x2="375.477" y2="227.13"/>
<line x1="376.131" y1="226.952" x2="379.923" y2="226.952"/><line x1="378.027" y1="225.056" x2="378.027" y2="228.848"/><line x1="376.131" y1="225.056" x2="379.923" y2="228.848"/><line x1="376.131" y1="228.848" x2="379.923" y2="225.056"/>
<line x1="380.578" y1="251.217" x2="384.37" y2="251.217"/><line x1="382.474" y1="249.321" x2="382.474" y2="253.113"/><line x1="380.578" y1="249.321" x2="384.37" y2="253.113"/><line x1="380.578" y1="253.113" x2="384.37" y2="249.321"/>
<line x1="385.025" y1="246.889" x2="388.817" y2="246.889"/><line x1="386.921" y1="244.993" x2="386.921" y2="248.785"/><line x1="385.025" y1="244.993" x2="388.817" y2="248.785"/><line x1="385.025" y1="248.785" x2="388.817" y2="244.993"/>
<line x1="389.472" y1="246.226" x2="393.264" y2="246.226"/><line x1="391.368" y1="244.33" x2="391.368" y2="248.122"/><line x1="389.472" y1="244.33" x2="393.264" y2="248.122"/><line x1="389.472" y1="248.122" x2="393.264" y2="244.33"/>
<line x1="393.919" y1="263.773" x2="397.711" y2="263.773"/><line x1="395.815" y1="261.876" x2="395.815" y2="265.669"/><line x1="393.919" y1="261.876" x2="397.711" y2="265.669"/><line x1="393.919" y1="265.669" x2="397.711" y2="261.876"/>
<line x1="398.366" y1="260.75" x2="402.158" y2="260.75"/><line x1="400.262" y1="258.854" x2="400.262" y2="262.646"/><line x1="398.366" y1="258.854" x2="402.158" y2="262.646"/><line x1="398.366" y1="262.646" x2="402.158" y2="258.854"/>
<line x1="402.813" y1="257.819" x2="406.605" y2="257.819"/><line x1="404.709" y1="255.923" x2="404.709" y2="259.716"/><line x1="402.813" y1="255.923" x2="406.605" y2="259.716"/><line x1="402.813" y1="259.716" x2="406.605" y2="255.923"/>
<line x1="407.26" y1="270.369" x2="411.052" y2="270.369"/><line x1="409.156" y1="268.472" x2="409.156" y2="272.265"/><line x1="407.26" y1="268.472" x2="411.052" y2="272.265"/><line x1="407.26" y1="272.265" x2="411.052" y2="268.472"/>
<line x1="411.707" y1="255.425" x2="415.499" y2="255.425"/><line x1="413.603" y1="253.529" x2="413.603" y2="257.321"/><line x1="411.707" y1="253.529" x2="415.499" y2="257.321"/><line x1="411.707" y1="257.321" x2="415.499" y2="253.529"/>
<line x1="416.154" y1="265.928" x2="419.946" y2="265.928"/><line x1="418.05" y1="264.032" x2="418.05" y2="267.824"/><line x1="416.154" y1="264.032" x2="419.946" y2="267.824"/><line x1="416.154" y1="267.824" x2="419.946" y2="264.032"/>
<line x1="420.601" y1="256.098" x2="424.393" y2="256.098"/><line x1="422.497" y1="254.202" x2="422.497" y2="257.994"/><line x1="420.601" y1="254.202" x2="424.393" y2="257.994"/><line x1="420.601" y1="257.994" x2="424.393" y2="254.202"/>
<line x1="425.048" y1="272.206" x2="428.84" y2="272.206"/><line x1="426.944" y1="270.31" x2="426.944" y2="274.102"/><line x1="425.048" y1="270.31" x2="428.84" y2="274.102"/><line x1="425.048" y1="274.102" x2="428.84" y2="270.31"/>
<line x1="429.495" y1="262.961" x2="433.287" y2="262.961"/><line x1="431.391" y1="261.065" x2="431.391" y2="264.857"/><line x1="429.495" y1="261.065" x2="433.287" y2="264.857"/><line x1="429.495" y1="264.857" x2="433.287" y2="261.065"/>
<line x1="433.942" y1="263.273" x2="437.734" y2="263.273"/><line x1="435.838" y1="261.377" x2="435.838" y2="265.17"/><line x1="433.942" y1="261.377" x2="437.734" y2="265.17"/><line x1="433.942" y1="265.17" x2="437.734" y2="261.377"/>
<line x1="438.389" y1="259.159" x2="442.181" y2="259.159"/><line x1="440.285" y1="257.263" x2="440.285" y2="261.055"/><line x1="438.389" y1="257.263" x2="442.181" y2="261.055"/><line x1="438.389" y1="261.055" x2="442.181" y2="257.263"/>
<line x1="442.836" y1="251.226" x2="446.628" y2="251.226"/><line x1="444.732" y1="249.329" x2="444.732" y2="253.122"/><line x1="442.836" y1="249.329" x2="446.628" y2="253.122"/><line x1="442.836" y1="253.122" x2="446.628" y2="249.329"/>
<line x1="447.282" y1="224.65" x2="451.075" y2="224.65"/><line x1="449.179" y1="222.754" x2="449.179" y2="226.546"/><line x1="447.282" y1="222.754" x2="451.075" y2="226.546"/><line x1="447.282" y1="226.546" x2="451.075" y2="222.754"/>
<line x1="451.729" y1="212.705" x2="455.522" y2="212.705"/><line x1="453.625" y1="210.809" x2="453.625" y2="214.601"/><line x1="451.729" y1="210.809" x2="455.522" y2="214.601"/><line x1="451.729" y1="214.601" x2="455.522" y2="210.809"/>
<line x1="456.176" y1="234.408" x2="459.969" y2="234.408"/><line x1="458.072" y1="232.512" x2="458.072" y2="236.304"/><line x1="456.176" y1="232.512" x2="459.969" y2="236.304"/><line x1="456.176" y1="236.304" x2="459.969" y2="232.512"/>
<line x1="460.623" y1="198.658" x2="464.415" y2="198.658"/><line x1="462.519" y1="196.762" x2="462.519" y2="200.554"/><line x1="460.623" y1="196.762" x2="464.415" y2="200.554"/><line x1="460.623" y1="200.554" x2="464.415" y2="196.762"/>
<line x1="465.07" y1="156.972" x2="468.862" y2="156.972"/><line x1="466.966" y1="155.076" x2="466.966" y2="158.868"/><line x1="465.07" y1="155.076" x2="468.862" y2="158.868"/><line x1="465.07" y1="158.868" x2="468.862" y2="155.076"/>
<line x1="469.517" y1="151.028" x2="473.309" y2="151.028"/><line x1="471.413" y1="149.132" x2="471.413" y2="152.924"/><line x1="469.517" y1="149.132" x2="473.309" y2="152.924"/><line x1="469.517" y1="152.924" x2="473.309" y2="149.132"/>
<line x1="473.964" y1="137.734" x2="477.756" y2="137.734"/><line x1="475.86" y1="135.838" x2="475.86" y2="139.63"/><line x1="473.964" y1="135.838" x2="477.756" y2="139.63"/><line x1="473.964" y1="139.63" x2="477.756" y2="135.838"/>
<line x1="478.411" y1="119.778" x2="482.203" y2="119.778"/><line x1="480.307" y1="117.882" x2="480.307" y2="121.674"/><line x1="478.411" y1="117.882" x2="482.203" y2="121.674"/><line x1="478.411" y1="121.674" x2="482.203" y2="117.882"/>
<line x1="482.858" y1="98.9082" x2="486.65" y2="98.9082"/><line x1="484.754" y1="97.0121" x2="484.754" y2="100.804"/><line x1="482.858" y1="97.0121" x2="486.65" y2="100.804"/><line x1="482.858" y1="100.804" x2="486.65" y2="97.0121"/>
<line x1="487.305" y1="96.8282" x2="491.097" y2="96.8282"/><line x1="489.201" y1="94.9322" x2="489.201" y2="98.7243"/><line x1="487.305" y1="94.9322" x2="491.097" y2="98.7243"/><line x1="487.305" y1="98.7243" x2="491.097" y2="94.9322"/>
<line x1="491.752" y1="73.5154" x2="495.544" y2="73.5154"/><line x1="493.648" y1="71.6194" x2="493.648" y2="75.4115"/><line x1="491.752" y1="71.6194" x2="495.544" y2="75.4115"/><line x1="491.752" y1="75.4115" x2="495.544" y2="71.6194"/>
<line x1="496.199" y1="42.8651" x2="499.991" y2="42.8651"/><line x1="498.095" y1="40.969" x2="498.095" y2="44.7611"/><line x1="496.199" y1="40.969" x2="499.991" y2="44.7611"/><line x1="496.199" y1="44.7611" x2="499.991" y2="40.969"/>
<line x1="500.646" y1="44.7919" x2="504.438" y2="44.7919"/><line x1="502.542" y1="42.8958" x2="502.542" y2="46.688"/><line x1="500.646" y1="42.8958" x2="504.438" y2="46.688"/><line x1="500.646" y1="46.688" x2="504.438" y2="42.8958"/>
<line x1="505.093" y1="46.6738" x2="508.885" y2="46.6738"/><line x1="506.989" y1="44.7777" x2="506.989" y2="48.5698"/><line x1="505.093" y1="44.7777" x2="508.885" y2="48.5698"/><line x1="505.093" y1="48.5698" x2="508.885" y2="44.7777"/>
</g>
<path d="M0.5,272.809h 566.929" fill="none" stroke="#0000ff"/>
<text xml:space="preserve" x="111.421" y="18.9608" fill="black" font-size="15.997" font-family="Helvetica">^2 v.s. calibration factorwith 1st binand with last bin</text>
<text xml:space="preserve" x="102.889" y="18.9608" fill="black" font-size="15.997" font-family="Times">&#0967;</text></svg>
