<?xml version="1.0" standalone="no"?>
<svg width="567.429" height="413.846" viewBox="0 0 567.429 413.846" xmlns="http://www.w3.org/2000/svg" shape-rendering="crispEdges">
<title>
figures/chi2_3PMTnpedata190929-01.svg
</title>
<desc>
Creator: ROOT Version 6.18/02
CreationDate: Sun Sep 29 19:53:52 2019</desc>
<defs>
</defs>
<rect x="0.5" y="0" width="566.929" height="413.346" fill="white"/>
<rect x="57.1929" y="41.3346" width="453.543" height="330.677" fill="white"/>
<rect x="57.1929" y="41.3346" width="453.543" height="330.677" fill="none" stroke="black"/>
<path d="M57.1929,372.012h 453.543" fill="none" stroke="black"/>
<path d="M98.455,41.3346v 330.677" fill="none" stroke="black" stroke-dasharray=" 1, 2"/>
<path d="M143.778,41.3346v 330.677" fill="none" stroke="black" stroke-dasharray=" 1, 2"/>
<path d="M189.1,41.3346v 330.677" fill="none" stroke="black" stroke-dasharray=" 1, 2"/>
<path d="M234.423,41.3346v 330.677" fill="none" stroke="black" stroke-dasharray=" 1, 2"/>
<path d="M279.745,41.3346v 330.677" fill="none" stroke="black" stroke-dasharray=" 1, 2"/>
<path d="M325.068,41.3346v 330.677" fill="none" stroke="black" stroke-dasharray=" 1, 2"/>
<path d="M370.391,41.3346v 330.677" fill="none" stroke="black" stroke-dasharray=" 1, 2"/>
<path d="M415.713,41.3346v 330.677" fill="none" stroke="black" stroke-dasharray=" 1, 2"/>
<path d="M461.036,41.3346v 330.677" fill="none" stroke="black" stroke-dasharray=" 1, 2"/>
<path d="M506.359,41.3346v 330.677" fill="none" stroke="black" stroke-dasharray=" 1, 2"/>
<path d="M98.455,41.3346v 330.677" fill="none" stroke="black" stroke-dasharray=" 1, 2"/>
<path d="M506.359,41.3346v 330.677" fill="none" stroke="black" stroke-dasharray=" 1, 2"/>
<path d="M57.1929,372.012v -330.677" fill="none" stroke="black"/>
<path d="M510.736,333.334h -453.543" fill="none" stroke="black" stroke-dasharray=" 1, 2"/>
<path d="M510.736,270.348h -453.543" fill="none" stroke="black" stroke-dasharray=" 1, 2"/>
<path d="M510.736,207.361h -453.543" fill="none" stroke="black" stroke-dasharray=" 1, 2"/>
<path d="M510.736,144.375h -453.543" fill="none" stroke="black" stroke-dasharray=" 1, 2"/>
<path d="M510.736,81.3892h -453.543" fill="none" stroke="black" stroke-dasharray=" 1, 2"/>
<path d="M510.736,333.334h -453.543" fill="none" stroke="black" stroke-dasharray=" 1, 2"/>
<path d="M510.736,81.3892h -453.543" fill="none" stroke="black" stroke-dasharray=" 1, 2"/>
<path d="M57.1929,372.012h 453.543" fill="none" stroke="black"/>
<path d="M98.455,362.091v 9.92031" fill="none" stroke="black"/>
<path d="M109.786,367.052v 4.96016" fill="none" stroke="black"/>
<path d="M121.116,367.052v 4.96016" fill="none" stroke="black"/>
<path d="M132.447,367.052v 4.96016" fill="none" stroke="black"/>
<path d="M143.778,362.091v 9.92031" fill="none" stroke="black"/>
<path d="M155.108,367.052v 4.96016" fill="none" stroke="black"/>
<path d="M166.439,367.052v 4.96016" fill="none" stroke="black"/>
<path d="M177.77,367.052v 4.96016" fill="none" stroke="black"/>
<path d="M189.1,362.091v 9.92031" fill="none" stroke="black"/>
<path d="M200.431,367.052v 4.96016" fill="none" stroke="black"/>
<path d="M211.762,367.052v 4.96016" fill="none" stroke="black"/>
<path d="M223.092,367.052v 4.96016" fill="none" stroke="black"/>
<path d="M234.423,362.091v 9.92031" fill="none" stroke="black"/>
<path d="M245.754,367.052v 4.96016" fill="none" stroke="black"/>
<path d="M257.084,367.052v 4.96016" fill="none" stroke="black"/>
<path d="M268.415,367.052v 4.96016" fill="none" stroke="black"/>
<path d="M279.745,362.091v 9.92031" fill="none" stroke="black"/>
<path d="M291.076,367.052v 4.96016" fill="none" stroke="black"/>
<path d="M302.407,367.052v 4.96016" fill="none" stroke="black"/>
<path d="M313.737,367.052v 4.96016" fill="none" stroke="black"/>
<path d="M325.068,362.091v 9.92031" fill="none" stroke="black"/>
<path d="M336.399,367.052v 4.96016" fill="none" stroke="black"/>
<path d="M347.729,367.052v 4.96016" fill="none" stroke="black"/>
<path d="M359.06,367.052v 4.96016" fill="none" stroke="black"/>
<path d="M370.391,362.091v 9.92031" fill="none" stroke="black"/>
<path d="M381.721,367.052v 4.96016" fill="none" stroke="black"/>
<path d="M393.052,367.052v 4.96016" fill="none" stroke="black"/>
<path d="M404.383,367.052v 4.96016" fill="none" stroke="black"/>
<path d="M415.713,362.091v 9.92031" fill="none" stroke="black"/>
<path d="M427.044,367.052v 4.96016" fill="none" stroke="black"/>
<path d="M438.375,367.052v 4.96016" fill="none" stroke="black"/>
<path d="M449.705,367.052v 4.96016" fill="none" stroke="black"/>
<path d="M461.036,362.091v 9.92031" fill="none" stroke="black"/>
<path d="M472.367,367.052v 4.96016" fill="none" stroke="black"/>
<path d="M483.697,367.052v 4.96016" fill="none" stroke="black"/>
<path d="M495.028,367.052v 4.96016" fill="none" stroke="black"/>
<path d="M506.359,362.091v 9.92031" fill="none" stroke="black"/>
<path d="M98.455,362.091v 9.92031" fill="none" stroke="black"/>
<path d="M87.1244,367.052v 4.96016" fill="none" stroke="black"/>
<path d="M75.7937,367.052v 4.96016" fill="none" stroke="black"/>
<path d="M64.4631,367.052v 4.96016" fill="none" stroke="black"/>
<path d="M506.359,362.091v 9.92031" fill="none" stroke="black"/>
<text xml:space="preserve" x="89.1419" y="385.379" fill="black" font-size="13.7726" font-family="Helvetica">0.7</text>
<text xml:space="preserve" x="130.856" y="385.379" fill="black" font-size="13.7726" font-family="Helvetica">0.72</text>
<text xml:space="preserve" x="175.888" y="385.379" fill="black" font-size="13.7726" font-family="Helvetica">0.74</text>
<text xml:space="preserve" x="221.394" y="385.379" fill="black" font-size="13.7726" font-family="Helvetica">0.76</text>
<text xml:space="preserve" x="266.9" y="385.379" fill="black" font-size="13.7726" font-family="Helvetica">0.78</text>
<text xml:space="preserve" x="315.724" y="385.379" fill="black" font-size="13.7726" font-family="Helvetica">0.8</text>
<text xml:space="preserve" x="357.438" y="385.379" fill="black" font-size="13.7726" font-family="Helvetica">0.82</text>
<text xml:space="preserve" x="402.47" y="385.379" fill="black" font-size="13.7726" font-family="Helvetica">0.84</text>
<text xml:space="preserve" x="447.976" y="385.379" fill="black" font-size="13.7726" font-family="Helvetica">0.86</text>
<text xml:space="preserve" x="493.482" y="385.379" fill="black" font-size="13.7726" font-family="Helvetica">0.88</text>
<text xml:space="preserve" x="413.372" y="400.074" fill="black" font-size="13.7726" font-family="Helvetica">calibration factor</text>
<path d="M57.1929,372.012v -330.677" fill="none" stroke="black"/>
<path d="M70.7992,333.334h -13.6063" fill="none" stroke="black"/>
<path d="M63.9961,317.587h -6.80315" fill="none" stroke="black"/>
<path d="M63.9961,301.841h -6.80315" fill="none" stroke="black"/>
<path d="M63.9961,286.094h -6.80315" fill="none" stroke="black"/>
<path d="M70.7992,270.348h -13.6063" fill="none" stroke="black"/>
<path d="M63.9961,254.601h -6.80315" fill="none" stroke="black"/>
<path d="M63.9961,238.854h -6.80315" fill="none" stroke="black"/>
<path d="M63.9961,223.108h -6.80315" fill="none" stroke="black"/>
<path d="M70.7992,207.361h -13.6063" fill="none" stroke="black"/>
<path d="M63.9961,191.615h -6.80315" fill="none" stroke="black"/>
<path d="M63.9961,175.868h -6.80315" fill="none" stroke="black"/>
<path d="M63.9961,160.122h -6.80315" fill="none" stroke="black"/>
<path d="M70.7992,144.375h -13.6063" fill="none" stroke="black"/>
<path d="M63.9961,128.629h -6.80315" fill="none" stroke="black"/>
<path d="M63.9961,112.882h -6.80315" fill="none" stroke="black"/>
<path d="M63.9961,97.1357h -6.80315" fill="none" stroke="black"/>
<path d="M70.7992,81.3892h -13.6063" fill="none" stroke="black"/>
<path d="M70.7992,333.334h -13.6063" fill="none" stroke="black"/>
<path d="M63.9961,349.08h -6.80315" fill="none" stroke="black"/>
<path d="M63.9961,364.827h -6.80315" fill="none" stroke="black"/>
<path d="M70.7992,81.3892h -13.6063" fill="none" stroke="black"/>
<path d="M63.9961,65.6427h -6.80315" fill="none" stroke="black"/>
<path d="M63.9961,49.8961h -6.80315" fill="none" stroke="black"/>
<text xml:space="preserve" x="25.1491" y="337.977" fill="black" font-size="13.7726" font-family="Helvetica">1920</text>
<text xml:space="preserve" x="25.1491" y="274.932" fill="black" font-size="13.7726" font-family="Helvetica">1940</text>
<text xml:space="preserve" x="25.1491" y="211.887" fill="black" font-size="13.7726" font-family="Helvetica">1960</text>
<text xml:space="preserve" x="25.1491" y="148.843" fill="black" font-size="13.7726" font-family="Helvetica">1980</text>
<text xml:space="preserve" x="25.1491" y="85.7978" fill="black" font-size="13.7726" font-family="Helvetica">2000</text>
<g transform="rotate(-90,8.08434,45.98)">
<text xml:space="preserve" x="8.08434" y="45.98" fill="black" font-size="9.34839" font-family="Helvetica">2</text>
</g>
<g transform="rotate(-90,12.3505,50.2462)">
<text xml:space="preserve" x="12.3505" y="50.2462" fill="black" font-size="13.7726" font-family="Helvetica"> </text>
</g>
<g transform="rotate(-90,12.3505,57.3565)">
<text xml:space="preserve" x="12.3505" y="57.3565" fill="black" font-size="13.7726" font-family="Times">&#0967;</text>
</g>
<g stroke="black" stroke-width="1" fill="none">
<line x1="236.606" y1="42.5887" x2="240.398" y2="42.5887"/><line x1="238.502" y1="40.6926" x2="238.502" y2="44.4848"/><line x1="236.606" y1="40.6926" x2="240.398" y2="44.4848"/><line x1="236.606" y1="44.4848" x2="240.398" y2="40.6926"/>
<line x1="237.059" y1="49.9448" x2="240.851" y2="49.9448"/><line x1="238.955" y1="48.0487" x2="238.955" y2="51.8409"/><line x1="237.059" y1="48.0487" x2="240.851" y2="51.8409"/><line x1="237.059" y1="51.8409" x2="240.851" y2="48.0487"/>
<line x1="237.512" y1="54.7115" x2="241.304" y2="54.7115"/><line x1="239.408" y1="52.8155" x2="239.408" y2="56.6076"/><line x1="237.512" y1="52.8155" x2="241.304" y2="56.6076"/><line x1="237.512" y1="56.6076" x2="241.304" y2="52.8155"/>
<line x1="237.965" y1="62.3485" x2="241.758" y2="62.3485"/><line x1="239.862" y1="60.4524" x2="239.862" y2="64.2446"/><line x1="237.965" y1="60.4524" x2="241.758" y2="64.2446"/><line x1="237.965" y1="64.2446" x2="241.758" y2="60.4524"/>
<line x1="238.419" y1="59.8175" x2="242.211" y2="59.8175"/><line x1="240.315" y1="57.9214" x2="240.315" y2="61.7136"/><line x1="238.419" y1="57.9214" x2="242.211" y2="61.7136"/><line x1="238.419" y1="61.7136" x2="242.211" y2="57.9214"/>
<line x1="238.872" y1="67.1243" x2="242.664" y2="67.1243"/><line x1="240.768" y1="65.2282" x2="240.768" y2="69.0204"/><line x1="238.872" y1="65.2282" x2="242.664" y2="69.0204"/><line x1="238.872" y1="69.0204" x2="242.664" y2="65.2282"/>
<line x1="239.325" y1="77.626" x2="243.117" y2="77.626"/><line x1="241.221" y1="75.7299" x2="241.221" y2="79.522"/><line x1="239.325" y1="75.7299" x2="243.117" y2="79.522"/><line x1="239.325" y1="79.522" x2="243.117" y2="75.7299"/>
<line x1="239.778" y1="79.4532" x2="243.571" y2="79.4532"/><line x1="241.674" y1="77.5571" x2="241.674" y2="81.3493"/><line x1="239.778" y1="77.5571" x2="243.571" y2="81.3493"/><line x1="239.778" y1="81.3493" x2="243.571" y2="77.5571"/>
<line x1="240.232" y1="84.9527" x2="244.024" y2="84.9527"/><line x1="242.128" y1="83.0566" x2="242.128" y2="86.8488"/><line x1="240.232" y1="83.0566" x2="244.024" y2="86.8488"/><line x1="240.232" y1="86.8488" x2="244.024" y2="83.0566"/>
<line x1="240.685" y1="85.2915" x2="244.477" y2="85.2915"/><line x1="242.581" y1="83.3954" x2="242.581" y2="87.1876"/><line x1="240.685" y1="83.3954" x2="244.477" y2="87.1876"/><line x1="240.685" y1="87.1876" x2="244.477" y2="83.3954"/>
<line x1="241.138" y1="83.4672" x2="244.93" y2="83.4672"/><line x1="243.034" y1="81.5711" x2="243.034" y2="85.3633"/><line x1="241.138" y1="81.5711" x2="244.93" y2="85.3633"/><line x1="241.138" y1="85.3633" x2="244.93" y2="81.5711"/>
<line x1="241.591" y1="88.0457" x2="245.383" y2="88.0457"/><line x1="243.487" y1="86.1496" x2="243.487" y2="89.9417"/><line x1="241.591" y1="86.1496" x2="245.383" y2="89.9417"/><line x1="241.591" y1="89.9417" x2="245.383" y2="86.1496"/>
<line x1="242.045" y1="88.5186" x2="245.837" y2="88.5186"/><line x1="243.941" y1="86.6225" x2="243.941" y2="90.4147"/><line x1="242.045" y1="86.6225" x2="245.837" y2="90.4147"/><line x1="242.045" y1="90.4147" x2="245.837" y2="86.6225"/>
<line x1="242.498" y1="102.036" x2="246.29" y2="102.036"/><line x1="244.394" y1="100.14" x2="244.394" y2="103.932"/><line x1="242.498" y1="100.14" x2="246.29" y2="103.932"/><line x1="242.498" y1="103.932" x2="246.29" y2="100.14"/>
<line x1="242.951" y1="107.448" x2="246.743" y2="107.448"/><line x1="244.847" y1="105.552" x2="244.847" y2="109.344"/><line x1="242.951" y1="105.552" x2="246.743" y2="109.344"/><line x1="242.951" y1="109.344" x2="246.743" y2="105.552"/>
<line x1="243.404" y1="116.514" x2="247.196" y2="116.514"/><line x1="245.3" y1="114.618" x2="245.3" y2="118.41"/><line x1="243.404" y1="114.618" x2="247.196" y2="118.41"/><line x1="243.404" y1="118.41" x2="247.196" y2="114.618"/>
<line x1="243.857" y1="121.097" x2="247.65" y2="121.097"/><line x1="245.754" y1="119.201" x2="245.754" y2="122.993"/><line x1="243.857" y1="119.201" x2="247.65" y2="122.993"/><line x1="243.857" y1="122.993" x2="247.65" y2="119.201"/>
<line x1="244.311" y1="123.421" x2="248.103" y2="123.421"/><line x1="246.207" y1="121.525" x2="246.207" y2="125.317"/><line x1="244.311" y1="121.525" x2="248.103" y2="125.317"/><line x1="244.311" y1="125.317" x2="248.103" y2="121.525"/>
<line x1="244.764" y1="123.572" x2="248.556" y2="123.572"/><line x1="246.66" y1="121.676" x2="246.66" y2="125.469"/><line x1="244.764" y1="121.676" x2="248.556" y2="125.469"/><line x1="244.764" y1="125.469" x2="248.556" y2="121.676"/>
<line x1="245.217" y1="131.558" x2="249.009" y2="131.558"/><line x1="247.113" y1="129.662" x2="247.113" y2="133.454"/><line x1="245.217" y1="129.662" x2="249.009" y2="133.454"/><line x1="245.217" y1="133.454" x2="249.009" y2="129.662"/>
<line x1="245.67" y1="131.128" x2="249.462" y2="131.128"/><line x1="247.566" y1="129.232" x2="247.566" y2="133.024"/><line x1="245.67" y1="129.232" x2="249.462" y2="133.024"/><line x1="245.67" y1="133.024" x2="249.462" y2="129.232"/>
<line x1="246.124" y1="129.673" x2="249.916" y2="129.673"/><line x1="248.02" y1="127.777" x2="248.02" y2="131.569"/><line x1="246.124" y1="127.777" x2="249.916" y2="131.569"/><line x1="246.124" y1="131.569" x2="249.916" y2="127.777"/>
<line x1="246.577" y1="126.732" x2="250.369" y2="126.732"/><line x1="248.473" y1="124.836" x2="248.473" y2="128.629"/><line x1="246.577" y1="124.836" x2="250.369" y2="128.629"/><line x1="246.577" y1="128.629" x2="250.369" y2="124.836"/>
<line x1="247.03" y1="124.659" x2="250.822" y2="124.659"/><line x1="248.926" y1="122.763" x2="248.926" y2="126.556"/><line x1="247.03" y1="122.763" x2="250.822" y2="126.556"/><line x1="247.03" y1="126.556" x2="250.822" y2="122.763"/>
<line x1="247.483" y1="134.404" x2="251.275" y2="134.404"/><line x1="249.379" y1="132.508" x2="249.379" y2="136.3"/><line x1="247.483" y1="132.508" x2="251.275" y2="136.3"/><line x1="247.483" y1="136.3" x2="251.275" y2="132.508"/>
<line x1="247.936" y1="134.102" x2="251.729" y2="134.102"/><line x1="249.833" y1="132.205" x2="249.833" y2="135.998"/><line x1="247.936" y1="132.205" x2="251.729" y2="135.998"/><line x1="247.936" y1="135.998" x2="251.729" y2="132.205"/>
<line x1="248.39" y1="149.236" x2="252.182" y2="149.236"/><line x1="250.286" y1="147.34" x2="250.286" y2="151.133"/><line x1="248.39" y1="147.34" x2="252.182" y2="151.133"/><line x1="248.39" y1="151.133" x2="252.182" y2="147.34"/>
<line x1="248.843" y1="153.927" x2="252.635" y2="153.927"/><line x1="250.739" y1="152.031" x2="250.739" y2="155.824"/><line x1="248.843" y1="152.031" x2="252.635" y2="155.824"/><line x1="248.843" y1="155.824" x2="252.635" y2="152.031"/>
<line x1="249.296" y1="155.705" x2="253.088" y2="155.705"/><line x1="251.192" y1="153.809" x2="251.192" y2="157.601"/><line x1="249.296" y1="153.809" x2="253.088" y2="157.601"/><line x1="249.296" y1="157.601" x2="253.088" y2="153.809"/>
<line x1="249.749" y1="149.691" x2="253.542" y2="149.691"/><line x1="251.645" y1="147.795" x2="251.645" y2="151.587"/><line x1="249.749" y1="147.795" x2="253.542" y2="151.587"/><line x1="249.749" y1="151.587" x2="253.542" y2="147.795"/>
<line x1="250.203" y1="144.616" x2="253.995" y2="144.616"/><line x1="252.099" y1="142.72" x2="252.099" y2="146.512"/><line x1="250.203" y1="142.72" x2="253.995" y2="146.512"/><line x1="250.203" y1="146.512" x2="253.995" y2="142.72"/>
<line x1="250.656" y1="150.65" x2="254.448" y2="150.65"/><line x1="252.552" y1="148.754" x2="252.552" y2="152.546"/><line x1="250.656" y1="148.754" x2="254.448" y2="152.546"/><line x1="250.656" y1="152.546" x2="254.448" y2="148.754"/>
<line x1="251.109" y1="158.85" x2="254.901" y2="158.85"/><line x1="253.005" y1="156.954" x2="253.005" y2="160.746"/><line x1="251.109" y1="156.954" x2="254.901" y2="160.746"/><line x1="251.109" y1="160.746" x2="254.901" y2="156.954"/>
<line x1="251.562" y1="157.633" x2="255.354" y2="157.633"/><line x1="253.458" y1="155.737" x2="253.458" y2="159.529"/><line x1="251.562" y1="155.737" x2="255.354" y2="159.529"/><line x1="251.562" y1="159.529" x2="255.354" y2="155.737"/>
<line x1="252.016" y1="157.268" x2="255.808" y2="157.268"/><line x1="253.912" y1="155.372" x2="253.912" y2="159.164"/><line x1="252.016" y1="155.372" x2="255.808" y2="159.164"/><line x1="252.016" y1="159.164" x2="255.808" y2="155.372"/>
<line x1="252.469" y1="162.678" x2="256.261" y2="162.678"/><line x1="254.365" y1="160.782" x2="254.365" y2="164.574"/><line x1="252.469" y1="160.782" x2="256.261" y2="164.574"/><line x1="252.469" y1="164.574" x2="256.261" y2="160.782"/>
<line x1="252.922" y1="166.585" x2="256.714" y2="166.585"/><line x1="254.818" y1="164.689" x2="254.818" y2="168.481"/><line x1="252.922" y1="164.689" x2="256.714" y2="168.481"/><line x1="252.922" y1="168.481" x2="256.714" y2="164.689"/>
<line x1="253.375" y1="164.029" x2="257.167" y2="164.029"/><line x1="255.271" y1="162.133" x2="255.271" y2="165.925"/><line x1="253.375" y1="162.133" x2="257.167" y2="165.925"/><line x1="253.375" y1="165.925" x2="257.167" y2="162.133"/>
<line x1="253.828" y1="165.834" x2="257.621" y2="165.834"/><line x1="255.724" y1="163.938" x2="255.724" y2="167.73"/><line x1="253.828" y1="163.938" x2="257.621" y2="167.73"/><line x1="253.828" y1="167.73" x2="257.621" y2="163.938"/>
<line x1="254.282" y1="177.829" x2="258.074" y2="177.829"/><line x1="256.178" y1="175.933" x2="256.178" y2="179.725"/><line x1="254.282" y1="175.933" x2="258.074" y2="179.725"/><line x1="254.282" y1="179.725" x2="258.074" y2="175.933"/>
<line x1="254.735" y1="178.809" x2="258.527" y2="178.809"/><line x1="256.631" y1="176.912" x2="256.631" y2="180.705"/><line x1="254.735" y1="176.912" x2="258.527" y2="180.705"/><line x1="254.735" y1="180.705" x2="258.527" y2="176.912"/>
<line x1="255.188" y1="188.023" x2="258.98" y2="188.023"/><line x1="257.084" y1="186.127" x2="257.084" y2="189.919"/><line x1="255.188" y1="186.127" x2="258.98" y2="189.919"/><line x1="255.188" y1="189.919" x2="258.98" y2="186.127"/>
<line x1="255.641" y1="189.104" x2="259.433" y2="189.104"/><line x1="257.537" y1="187.208" x2="257.537" y2="191"/><line x1="255.641" y1="187.208" x2="259.433" y2="191"/><line x1="255.641" y1="191" x2="259.433" y2="187.208"/>
<line x1="256.095" y1="195.28" x2="259.887" y2="195.28"/><line x1="257.991" y1="193.384" x2="257.991" y2="197.176"/><line x1="256.095" y1="193.384" x2="259.887" y2="197.176"/><line x1="256.095" y1="197.176" x2="259.887" y2="193.384"/>
<line x1="256.548" y1="202.877" x2="260.34" y2="202.877"/><line x1="258.444" y1="200.981" x2="258.444" y2="204.773"/><line x1="256.548" y1="200.981" x2="260.34" y2="204.773"/><line x1="256.548" y1="204.773" x2="260.34" y2="200.981"/>
<line x1="257.001" y1="209.266" x2="260.793" y2="209.266"/><line x1="258.897" y1="207.37" x2="258.897" y2="211.163"/><line x1="257.001" y1="207.37" x2="260.793" y2="211.163"/><line x1="257.001" y1="211.163" x2="260.793" y2="207.37"/>
<line x1="257.454" y1="207.04" x2="261.246" y2="207.04"/><line x1="259.35" y1="205.143" x2="259.35" y2="208.936"/><line x1="257.454" y1="205.143" x2="261.246" y2="208.936"/><line x1="257.454" y1="208.936" x2="261.246" y2="205.143"/>
<line x1="257.907" y1="206.98" x2="261.7" y2="206.98"/><line x1="259.804" y1="205.084" x2="259.804" y2="208.876"/><line x1="257.907" y1="205.084" x2="261.7" y2="208.876"/><line x1="257.907" y1="208.876" x2="261.7" y2="205.084"/>
<line x1="258.361" y1="205.946" x2="262.153" y2="205.946"/><line x1="260.257" y1="204.05" x2="260.257" y2="207.842"/><line x1="258.361" y1="204.05" x2="262.153" y2="207.842"/><line x1="258.361" y1="207.842" x2="262.153" y2="204.05"/>
<line x1="258.814" y1="204.656" x2="262.606" y2="204.656"/><line x1="260.71" y1="202.76" x2="260.71" y2="206.552"/><line x1="258.814" y1="202.76" x2="262.606" y2="206.552"/><line x1="258.814" y1="206.552" x2="262.606" y2="202.76"/>
<line x1="259.267" y1="202.333" x2="263.059" y2="202.333"/><line x1="261.163" y1="200.437" x2="261.163" y2="204.229"/><line x1="259.267" y1="200.437" x2="263.059" y2="204.229"/><line x1="259.267" y1="204.229" x2="263.059" y2="200.437"/>
<line x1="259.72" y1="212.492" x2="263.513" y2="212.492"/><line x1="261.616" y1="210.596" x2="261.616" y2="214.388"/><line x1="259.72" y1="210.596" x2="263.513" y2="214.388"/><line x1="259.72" y1="214.388" x2="263.513" y2="210.596"/>
<line x1="260.174" y1="204.937" x2="263.966" y2="204.937"/><line x1="262.07" y1="203.041" x2="262.07" y2="206.834"/><line x1="260.174" y1="203.041" x2="263.966" y2="206.834"/><line x1="260.174" y1="206.834" x2="263.966" y2="203.041"/>
<line x1="260.627" y1="204.635" x2="264.419" y2="204.635"/><line x1="262.523" y1="202.738" x2="262.523" y2="206.531"/><line x1="260.627" y1="202.738" x2="264.419" y2="206.531"/><line x1="260.627" y1="206.531" x2="264.419" y2="202.738"/>
<line x1="261.08" y1="200.97" x2="264.872" y2="200.97"/><line x1="262.976" y1="199.074" x2="262.976" y2="202.866"/><line x1="261.08" y1="199.074" x2="264.872" y2="202.866"/><line x1="261.08" y1="202.866" x2="264.872" y2="199.074"/>
<line x1="261.533" y1="198.005" x2="265.325" y2="198.005"/><line x1="263.429" y1="196.109" x2="263.429" y2="199.901"/><line x1="261.533" y1="196.109" x2="265.325" y2="199.901"/><line x1="261.533" y1="199.901" x2="265.325" y2="196.109"/>
<line x1="261.986" y1="201.488" x2="265.779" y2="201.488"/><line x1="263.883" y1="199.592" x2="263.883" y2="203.384"/><line x1="261.986" y1="199.592" x2="265.779" y2="203.384"/><line x1="261.986" y1="203.384" x2="265.779" y2="199.592"/>
<line x1="262.44" y1="202.089" x2="266.232" y2="202.089"/><line x1="264.336" y1="200.193" x2="264.336" y2="203.985"/><line x1="262.44" y1="200.193" x2="266.232" y2="203.985"/><line x1="262.44" y1="203.985" x2="266.232" y2="200.193"/>
<line x1="262.893" y1="209.539" x2="266.685" y2="209.539"/><line x1="264.789" y1="207.643" x2="264.789" y2="211.435"/><line x1="262.893" y1="207.643" x2="266.685" y2="211.435"/><line x1="262.893" y1="211.435" x2="266.685" y2="207.643"/>
<line x1="263.346" y1="218.77" x2="267.138" y2="218.77"/><line x1="265.242" y1="216.874" x2="265.242" y2="220.666"/><line x1="263.346" y1="216.874" x2="267.138" y2="220.666"/><line x1="263.346" y1="220.666" x2="267.138" y2="216.874"/>
<line x1="263.799" y1="226.646" x2="267.592" y2="226.646"/><line x1="265.695" y1="224.75" x2="265.695" y2="228.542"/><line x1="263.799" y1="224.75" x2="267.592" y2="228.542"/><line x1="263.799" y1="228.542" x2="267.592" y2="224.75"/>
<line x1="264.253" y1="229.058" x2="268.045" y2="229.058"/><line x1="266.149" y1="227.162" x2="266.149" y2="230.954"/><line x1="264.253" y1="227.162" x2="268.045" y2="230.954"/><line x1="264.253" y1="230.954" x2="268.045" y2="227.162"/>
<line x1="264.706" y1="230.803" x2="268.498" y2="230.803"/><line x1="266.602" y1="228.907" x2="266.602" y2="232.699"/><line x1="264.706" y1="228.907" x2="268.498" y2="232.699"/><line x1="264.706" y1="232.699" x2="268.498" y2="228.907"/>
<line x1="265.159" y1="231.341" x2="268.951" y2="231.341"/><line x1="267.055" y1="229.445" x2="267.055" y2="233.237"/><line x1="265.159" y1="229.445" x2="268.951" y2="233.237"/><line x1="265.159" y1="233.237" x2="268.951" y2="229.445"/>
<line x1="265.612" y1="229.012" x2="269.404" y2="229.012"/><line x1="267.508" y1="227.116" x2="267.508" y2="230.908"/><line x1="265.612" y1="227.116" x2="269.404" y2="230.908"/><line x1="265.612" y1="230.908" x2="269.404" y2="227.116"/>
<line x1="266.065" y1="224.955" x2="269.858" y2="224.955"/><line x1="267.962" y1="223.059" x2="267.962" y2="226.851"/><line x1="266.065" y1="223.059" x2="269.858" y2="226.851"/><line x1="266.065" y1="226.851" x2="269.858" y2="223.059"/>
<line x1="266.519" y1="221.061" x2="270.311" y2="221.061"/><line x1="268.415" y1="219.165" x2="268.415" y2="222.957"/><line x1="266.519" y1="219.165" x2="270.311" y2="222.957"/><line x1="266.519" y1="222.957" x2="270.311" y2="219.165"/>
<line x1="266.972" y1="225.284" x2="270.764" y2="225.284"/><line x1="268.868" y1="223.388" x2="268.868" y2="227.18"/><line x1="266.972" y1="223.388" x2="270.764" y2="227.18"/><line x1="266.972" y1="227.18" x2="270.764" y2="223.388"/>
<line x1="267.425" y1="231.992" x2="271.217" y2="231.992"/><line x1="269.321" y1="230.096" x2="269.321" y2="233.888"/><line x1="267.425" y1="230.096" x2="271.217" y2="233.888"/><line x1="267.425" y1="233.888" x2="271.217" y2="230.096"/>
<line x1="267.878" y1="225.267" x2="271.671" y2="225.267"/><line x1="269.775" y1="223.371" x2="269.775" y2="227.163"/><line x1="267.878" y1="223.371" x2="271.671" y2="227.163"/><line x1="267.878" y1="227.163" x2="271.671" y2="223.371"/>
<line x1="268.332" y1="233.53" x2="272.124" y2="233.53"/><line x1="270.228" y1="231.634" x2="270.228" y2="235.426"/><line x1="268.332" y1="231.634" x2="272.124" y2="235.426"/><line x1="268.332" y1="235.426" x2="272.124" y2="231.634"/>
<line x1="268.785" y1="235.498" x2="272.577" y2="235.498"/><line x1="270.681" y1="233.601" x2="270.681" y2="237.394"/><line x1="268.785" y1="233.601" x2="272.577" y2="237.394"/><line x1="268.785" y1="237.394" x2="272.577" y2="233.601"/>
<line x1="269.238" y1="235.889" x2="273.03" y2="235.889"/><line x1="271.134" y1="233.993" x2="271.134" y2="237.785"/><line x1="269.238" y1="233.993" x2="273.03" y2="237.785"/><line x1="269.238" y1="237.785" x2="273.03" y2="233.993"/>
<line x1="269.691" y1="240.531" x2="273.483" y2="240.531"/><line x1="271.587" y1="238.635" x2="271.587" y2="242.427"/><line x1="269.691" y1="238.635" x2="273.483" y2="242.427"/><line x1="269.691" y1="242.427" x2="273.483" y2="238.635"/>
<line x1="270.145" y1="252.244" x2="273.937" y2="252.244"/><line x1="272.041" y1="250.347" x2="272.041" y2="254.14"/><line x1="270.145" y1="250.347" x2="273.937" y2="254.14"/><line x1="270.145" y1="254.14" x2="273.937" y2="250.347"/>
<line x1="270.598" y1="264.405" x2="274.39" y2="264.405"/><line x1="272.494" y1="262.509" x2="272.494" y2="266.301"/><line x1="270.598" y1="262.509" x2="274.39" y2="266.301"/><line x1="270.598" y1="266.301" x2="274.39" y2="262.509"/>
<line x1="271.051" y1="277.019" x2="274.843" y2="277.019"/><line x1="272.947" y1="275.123" x2="272.947" y2="278.915"/><line x1="271.051" y1="275.123" x2="274.843" y2="278.915"/><line x1="271.051" y1="278.915" x2="274.843" y2="275.123"/>
<line x1="271.504" y1="280.478" x2="275.296" y2="280.478"/><line x1="273.4" y1="278.582" x2="273.4" y2="282.374"/><line x1="271.504" y1="278.582" x2="275.296" y2="282.374"/><line x1="271.504" y1="282.374" x2="275.296" y2="278.582"/>
<line x1="271.957" y1="283.317" x2="275.75" y2="283.317"/><line x1="273.854" y1="281.421" x2="273.854" y2="285.213"/><line x1="271.957" y1="281.421" x2="275.75" y2="285.213"/><line x1="271.957" y1="285.213" x2="275.75" y2="281.421"/>
<line x1="272.411" y1="290.86" x2="276.203" y2="290.86"/><line x1="274.307" y1="288.964" x2="274.307" y2="292.756"/><line x1="272.411" y1="288.964" x2="276.203" y2="292.756"/><line x1="272.411" y1="292.756" x2="276.203" y2="288.964"/>
<line x1="272.864" y1="302.45" x2="276.656" y2="302.45"/><line x1="274.76" y1="300.553" x2="274.76" y2="304.346"/><line x1="272.864" y1="300.553" x2="276.656" y2="304.346"/><line x1="272.864" y1="304.346" x2="276.656" y2="300.553"/>
<line x1="273.317" y1="308.66" x2="277.109" y2="308.66"/><line x1="275.213" y1="306.764" x2="275.213" y2="310.556"/><line x1="273.317" y1="306.764" x2="277.109" y2="310.556"/><line x1="273.317" y1="310.556" x2="277.109" y2="306.764"/>
<line x1="273.77" y1="314.147" x2="277.563" y2="314.147"/><line x1="275.666" y1="312.251" x2="275.666" y2="316.043"/><line x1="273.77" y1="312.251" x2="277.563" y2="316.043"/><line x1="273.77" y1="316.043" x2="277.563" y2="312.251"/>
<line x1="274.224" y1="316.585" x2="278.016" y2="316.585"/><line x1="276.12" y1="314.689" x2="276.12" y2="318.481"/><line x1="274.224" y1="314.689" x2="278.016" y2="318.481"/><line x1="274.224" y1="318.481" x2="278.016" y2="314.689"/>
<line x1="274.677" y1="321.19" x2="278.469" y2="321.19"/><line x1="276.573" y1="319.293" x2="276.573" y2="323.086"/><line x1="274.677" y1="319.293" x2="278.469" y2="323.086"/><line x1="274.677" y1="323.086" x2="278.469" y2="319.293"/>
<line x1="275.13" y1="312.512" x2="278.922" y2="312.512"/><line x1="277.026" y1="310.616" x2="277.026" y2="314.409"/><line x1="275.13" y1="310.616" x2="278.922" y2="314.409"/><line x1="275.13" y1="314.409" x2="278.922" y2="310.616"/>
<line x1="275.583" y1="323.664" x2="279.375" y2="323.664"/><line x1="277.479" y1="321.768" x2="277.479" y2="325.56"/><line x1="275.583" y1="321.768" x2="279.375" y2="325.56"/><line x1="275.583" y1="325.56" x2="279.375" y2="321.768"/>
<line x1="276.036" y1="325.844" x2="279.829" y2="325.844"/><line x1="277.933" y1="323.948" x2="277.933" y2="327.74"/><line x1="276.036" y1="323.948" x2="279.829" y2="327.74"/><line x1="276.036" y1="327.74" x2="279.829" y2="323.948"/>
<line x1="276.49" y1="327.621" x2="280.282" y2="327.621"/><line x1="278.386" y1="325.725" x2="278.386" y2="329.517"/><line x1="276.49" y1="325.725" x2="280.282" y2="329.517"/><line x1="276.49" y1="329.517" x2="280.282" y2="325.725"/>
<line x1="276.943" y1="321.681" x2="280.735" y2="321.681"/><line x1="278.839" y1="319.785" x2="278.839" y2="323.577"/><line x1="276.943" y1="319.785" x2="280.735" y2="323.577"/><line x1="276.943" y1="323.577" x2="280.735" y2="319.785"/>
<line x1="277.396" y1="325.97" x2="281.188" y2="325.97"/><line x1="279.292" y1="324.074" x2="279.292" y2="327.867"/><line x1="277.396" y1="324.074" x2="281.188" y2="327.867"/><line x1="277.396" y1="327.867" x2="281.188" y2="324.074"/>
<line x1="277.849" y1="327.895" x2="281.642" y2="327.895"/><line x1="279.745" y1="325.999" x2="279.745" y2="329.791"/><line x1="277.849" y1="325.999" x2="281.642" y2="329.791"/><line x1="277.849" y1="329.791" x2="281.642" y2="325.999"/>
<line x1="278.303" y1="333.59" x2="282.095" y2="333.59"/><line x1="280.199" y1="331.694" x2="280.199" y2="335.486"/><line x1="278.303" y1="331.694" x2="282.095" y2="335.486"/><line x1="278.303" y1="335.486" x2="282.095" y2="331.694"/>
<line x1="278.756" y1="334.841" x2="282.548" y2="334.841"/><line x1="280.652" y1="332.945" x2="280.652" y2="336.737"/><line x1="278.756" y1="332.945" x2="282.548" y2="336.737"/><line x1="278.756" y1="336.737" x2="282.548" y2="332.945"/>
<line x1="279.209" y1="337.823" x2="283.001" y2="337.823"/><line x1="281.105" y1="335.926" x2="281.105" y2="339.719"/><line x1="279.209" y1="335.926" x2="283.001" y2="339.719"/><line x1="279.209" y1="339.719" x2="283.001" y2="335.926"/>
<line x1="279.662" y1="335.589" x2="283.454" y2="335.589"/><line x1="281.558" y1="333.693" x2="281.558" y2="337.486"/><line x1="279.662" y1="333.693" x2="283.454" y2="337.486"/><line x1="279.662" y1="337.486" x2="283.454" y2="333.693"/>
<line x1="280.116" y1="338.231" x2="283.908" y2="338.231"/><line x1="282.012" y1="336.335" x2="282.012" y2="340.127"/><line x1="280.116" y1="336.335" x2="283.908" y2="340.127"/><line x1="280.116" y1="340.127" x2="283.908" y2="336.335"/>
<line x1="280.569" y1="339.716" x2="284.361" y2="339.716"/><line x1="282.465" y1="337.82" x2="282.465" y2="341.612"/><line x1="280.569" y1="337.82" x2="284.361" y2="341.612"/><line x1="280.569" y1="341.612" x2="284.361" y2="337.82"/>
<line x1="281.022" y1="351.605" x2="284.814" y2="351.605"/><line x1="282.918" y1="349.709" x2="282.918" y2="353.501"/><line x1="281.022" y1="349.709" x2="284.814" y2="353.501"/><line x1="281.022" y1="353.501" x2="284.814" y2="349.709"/>
<line x1="281.475" y1="350.945" x2="285.267" y2="350.945"/><line x1="283.371" y1="349.049" x2="283.371" y2="352.841"/><line x1="281.475" y1="349.049" x2="285.267" y2="352.841"/><line x1="281.475" y1="352.841" x2="285.267" y2="349.049"/>
<line x1="281.928" y1="356.265" x2="285.721" y2="356.265"/><line x1="283.824" y1="354.369" x2="283.824" y2="358.161"/><line x1="281.928" y1="354.369" x2="285.721" y2="358.161"/><line x1="281.928" y1="358.161" x2="285.721" y2="354.369"/>
<line x1="282.382" y1="343.728" x2="286.174" y2="343.728"/><line x1="284.278" y1="341.832" x2="284.278" y2="345.624"/><line x1="282.382" y1="341.832" x2="286.174" y2="345.624"/><line x1="282.382" y1="345.624" x2="286.174" y2="341.832"/>
<line x1="282.835" y1="346.449" x2="286.627" y2="346.449"/><line x1="284.731" y1="344.553" x2="284.731" y2="348.345"/><line x1="282.835" y1="344.553" x2="286.627" y2="348.345"/><line x1="282.835" y1="348.345" x2="286.627" y2="344.553"/>
<line x1="283.288" y1="346.113" x2="287.08" y2="346.113"/><line x1="285.184" y1="344.217" x2="285.184" y2="348.01"/><line x1="283.288" y1="344.217" x2="287.08" y2="348.01"/><line x1="283.288" y1="348.01" x2="287.08" y2="344.217"/>
<line x1="283.741" y1="349.804" x2="287.533" y2="349.804"/><line x1="285.637" y1="347.908" x2="285.637" y2="351.7"/><line x1="283.741" y1="347.908" x2="287.533" y2="351.7"/><line x1="283.741" y1="351.7" x2="287.533" y2="347.908"/>
<line x1="284.195" y1="352.037" x2="287.987" y2="352.037"/><line x1="286.091" y1="350.141" x2="286.091" y2="353.933"/><line x1="284.195" y1="350.141" x2="287.987" y2="353.933"/><line x1="284.195" y1="353.933" x2="287.987" y2="350.141"/>
<line x1="284.648" y1="348.719" x2="288.44" y2="348.719"/><line x1="286.544" y1="346.823" x2="286.544" y2="350.615"/><line x1="284.648" y1="346.823" x2="288.44" y2="350.615"/><line x1="284.648" y1="350.615" x2="288.44" y2="346.823"/>
<line x1="285.101" y1="351.282" x2="288.893" y2="351.282"/><line x1="286.997" y1="349.386" x2="286.997" y2="353.178"/><line x1="285.101" y1="349.386" x2="288.893" y2="353.178"/><line x1="285.101" y1="353.178" x2="288.893" y2="349.386"/>
<line x1="285.554" y1="353.242" x2="289.346" y2="353.242"/><line x1="287.45" y1="351.346" x2="287.45" y2="355.138"/><line x1="285.554" y1="351.346" x2="289.346" y2="355.138"/><line x1="285.554" y1="355.138" x2="289.346" y2="351.346"/>
<line x1="286.007" y1="336.273" x2="289.8" y2="336.273"/><line x1="287.904" y1="334.377" x2="287.904" y2="338.169"/><line x1="286.007" y1="334.377" x2="289.8" y2="338.169"/><line x1="286.007" y1="338.169" x2="289.8" y2="334.377"/>
<line x1="286.461" y1="330.434" x2="290.253" y2="330.434"/><line x1="288.357" y1="328.538" x2="288.357" y2="332.331"/><line x1="286.461" y1="328.538" x2="290.253" y2="332.331"/><line x1="286.461" y1="332.331" x2="290.253" y2="328.538"/>
<line x1="286.914" y1="326.539" x2="290.706" y2="326.539"/><line x1="288.81" y1="324.643" x2="288.81" y2="328.435"/><line x1="286.914" y1="324.643" x2="290.706" y2="328.435"/><line x1="286.914" y1="328.435" x2="290.706" y2="324.643"/>
<line x1="287.367" y1="333.577" x2="291.159" y2="333.577"/><line x1="289.263" y1="331.681" x2="289.263" y2="335.473"/><line x1="287.367" y1="331.681" x2="291.159" y2="335.473"/><line x1="287.367" y1="335.473" x2="291.159" y2="331.681"/>
<line x1="287.82" y1="330.112" x2="291.613" y2="330.112"/><line x1="289.716" y1="328.216" x2="289.716" y2="332.008"/><line x1="287.82" y1="328.216" x2="291.613" y2="332.008"/><line x1="287.82" y1="332.008" x2="291.613" y2="328.216"/>
<line x1="288.274" y1="318.885" x2="292.066" y2="318.885"/><line x1="290.17" y1="316.989" x2="290.17" y2="320.781"/><line x1="288.274" y1="316.989" x2="292.066" y2="320.781"/><line x1="288.274" y1="320.781" x2="292.066" y2="316.989"/>
<line x1="288.727" y1="314.527" x2="292.519" y2="314.527"/><line x1="290.623" y1="312.63" x2="290.623" y2="316.423"/><line x1="288.727" y1="312.63" x2="292.519" y2="316.423"/><line x1="288.727" y1="316.423" x2="292.519" y2="312.63"/>
<line x1="289.18" y1="324.668" x2="292.972" y2="324.668"/><line x1="291.076" y1="322.772" x2="291.076" y2="326.564"/><line x1="289.18" y1="322.772" x2="292.972" y2="326.564"/><line x1="289.18" y1="326.564" x2="292.972" y2="322.772"/>
<line x1="289.633" y1="329.422" x2="293.425" y2="329.422"/><line x1="291.529" y1="327.526" x2="291.529" y2="331.318"/><line x1="289.633" y1="327.526" x2="293.425" y2="331.318"/><line x1="289.633" y1="331.318" x2="293.425" y2="327.526"/>
<line x1="290.086" y1="328.107" x2="293.879" y2="328.107"/><line x1="291.983" y1="326.211" x2="291.983" y2="330.003"/><line x1="290.086" y1="326.211" x2="293.879" y2="330.003"/><line x1="290.086" y1="330.003" x2="293.879" y2="326.211"/>
<line x1="290.54" y1="331.573" x2="294.332" y2="331.573"/><line x1="292.436" y1="329.677" x2="292.436" y2="333.469"/><line x1="290.54" y1="329.677" x2="294.332" y2="333.469"/><line x1="290.54" y1="333.469" x2="294.332" y2="329.677"/>
<line x1="290.993" y1="332.88" x2="294.785" y2="332.88"/><line x1="292.889" y1="330.983" x2="292.889" y2="334.776"/><line x1="290.993" y1="330.983" x2="294.785" y2="334.776"/><line x1="290.993" y1="334.776" x2="294.785" y2="330.983"/>
<line x1="291.446" y1="330.563" x2="295.238" y2="330.563"/><line x1="293.342" y1="328.667" x2="293.342" y2="332.459"/><line x1="291.446" y1="328.667" x2="295.238" y2="332.459"/><line x1="291.446" y1="332.459" x2="295.238" y2="328.667"/>
<line x1="291.899" y1="333.427" x2="295.692" y2="333.427"/><line x1="293.795" y1="331.531" x2="293.795" y2="335.324"/><line x1="291.899" y1="331.531" x2="295.692" y2="335.324"/><line x1="291.899" y1="335.324" x2="295.692" y2="331.531"/>
<line x1="292.353" y1="338.177" x2="296.145" y2="338.177"/><line x1="294.249" y1="336.28" x2="294.249" y2="340.073"/><line x1="292.353" y1="336.28" x2="296.145" y2="340.073"/><line x1="292.353" y1="340.073" x2="296.145" y2="336.28"/>
<line x1="292.806" y1="338.601" x2="296.598" y2="338.601"/><line x1="294.702" y1="336.705" x2="294.702" y2="340.497"/><line x1="292.806" y1="336.705" x2="296.598" y2="340.497"/><line x1="292.806" y1="340.497" x2="296.598" y2="336.705"/>
<line x1="293.259" y1="335.131" x2="297.051" y2="335.131"/><line x1="295.155" y1="333.235" x2="295.155" y2="337.027"/><line x1="293.259" y1="333.235" x2="297.051" y2="337.027"/><line x1="293.259" y1="337.027" x2="297.051" y2="333.235"/>
<line x1="293.712" y1="334.444" x2="297.504" y2="334.444"/><line x1="295.608" y1="332.548" x2="295.608" y2="336.34"/><line x1="293.712" y1="332.548" x2="297.504" y2="336.34"/><line x1="293.712" y1="336.34" x2="297.504" y2="332.548"/>
<line x1="294.166" y1="330.07" x2="297.958" y2="330.07"/><line x1="296.062" y1="328.174" x2="296.062" y2="331.966"/><line x1="294.166" y1="328.174" x2="297.958" y2="331.966"/><line x1="294.166" y1="331.966" x2="297.958" y2="328.174"/>
<line x1="294.619" y1="336.375" x2="298.411" y2="336.375"/><line x1="296.515" y1="334.479" x2="296.515" y2="338.272"/><line x1="294.619" y1="334.479" x2="298.411" y2="338.272"/><line x1="294.619" y1="338.272" x2="298.411" y2="334.479"/>
<line x1="295.072" y1="335.396" x2="298.864" y2="335.396"/><line x1="296.968" y1="333.5" x2="296.968" y2="337.292"/><line x1="295.072" y1="333.5" x2="298.864" y2="337.292"/><line x1="295.072" y1="337.292" x2="298.864" y2="333.5"/>
<line x1="295.525" y1="338.761" x2="299.317" y2="338.761"/><line x1="297.421" y1="336.865" x2="297.421" y2="340.657"/><line x1="295.525" y1="336.865" x2="299.317" y2="340.657"/><line x1="295.525" y1="340.657" x2="299.317" y2="336.865"/>
<line x1="295.978" y1="341.507" x2="299.771" y2="341.507"/><line x1="297.875" y1="339.611" x2="297.875" y2="343.403"/><line x1="295.978" y1="339.611" x2="299.771" y2="343.403"/><line x1="295.978" y1="343.403" x2="299.771" y2="339.611"/>
<line x1="296.432" y1="342.048" x2="300.224" y2="342.048"/><line x1="298.328" y1="340.152" x2="298.328" y2="343.944"/><line x1="296.432" y1="340.152" x2="300.224" y2="343.944"/><line x1="296.432" y1="343.944" x2="300.224" y2="340.152"/>
<line x1="296.885" y1="344.743" x2="300.677" y2="344.743"/><line x1="298.781" y1="342.846" x2="298.781" y2="346.639"/><line x1="296.885" y1="342.846" x2="300.677" y2="346.639"/><line x1="296.885" y1="346.639" x2="300.677" y2="342.846"/>
<line x1="297.338" y1="344.402" x2="301.13" y2="344.402"/><line x1="299.234" y1="342.506" x2="299.234" y2="346.298"/><line x1="297.338" y1="342.506" x2="301.13" y2="346.298"/><line x1="297.338" y1="346.298" x2="301.13" y2="342.506"/>
<line x1="297.791" y1="331.337" x2="301.583" y2="331.337"/><line x1="299.687" y1="329.441" x2="299.687" y2="333.233"/><line x1="297.791" y1="329.441" x2="301.583" y2="333.233"/><line x1="297.791" y1="333.233" x2="301.583" y2="329.441"/>
<line x1="298.245" y1="328.821" x2="302.037" y2="328.821"/><line x1="300.141" y1="326.925" x2="300.141" y2="330.717"/><line x1="298.245" y1="326.925" x2="302.037" y2="330.717"/><line x1="298.245" y1="330.717" x2="302.037" y2="326.925"/>
<line x1="298.698" y1="327.324" x2="302.49" y2="327.324"/><line x1="300.594" y1="325.428" x2="300.594" y2="329.22"/><line x1="298.698" y1="325.428" x2="302.49" y2="329.22"/><line x1="298.698" y1="329.22" x2="302.49" y2="325.428"/>
<line x1="299.151" y1="334.358" x2="302.943" y2="334.358"/><line x1="301.047" y1="332.461" x2="301.047" y2="336.254"/><line x1="299.151" y1="332.461" x2="302.943" y2="336.254"/><line x1="299.151" y1="336.254" x2="302.943" y2="332.461"/>
<line x1="299.604" y1="330.002" x2="303.396" y2="330.002"/><line x1="301.5" y1="328.106" x2="301.5" y2="331.898"/><line x1="299.604" y1="328.106" x2="303.396" y2="331.898"/><line x1="299.604" y1="331.898" x2="303.396" y2="328.106"/>
<line x1="300.057" y1="333.023" x2="303.85" y2="333.023"/><line x1="301.954" y1="331.127" x2="301.954" y2="334.919"/><line x1="300.057" y1="331.127" x2="303.85" y2="334.919"/><line x1="300.057" y1="334.919" x2="303.85" y2="331.127"/>
<line x1="300.511" y1="323.076" x2="304.303" y2="323.076"/><line x1="302.407" y1="321.18" x2="302.407" y2="324.973"/><line x1="300.511" y1="321.18" x2="304.303" y2="324.973"/><line x1="300.511" y1="324.973" x2="304.303" y2="321.18"/>
<line x1="300.964" y1="324.328" x2="304.756" y2="324.328"/><line x1="302.86" y1="322.432" x2="302.86" y2="326.224"/><line x1="300.964" y1="322.432" x2="304.756" y2="326.224"/><line x1="300.964" y1="326.224" x2="304.756" y2="322.432"/>
<line x1="301.417" y1="326.371" x2="305.209" y2="326.371"/><line x1="303.313" y1="324.475" x2="303.313" y2="328.267"/><line x1="301.417" y1="324.475" x2="305.209" y2="328.267"/><line x1="301.417" y1="328.267" x2="305.209" y2="324.475"/>
<line x1="301.87" y1="324.546" x2="305.663" y2="324.546"/><line x1="303.766" y1="322.65" x2="303.766" y2="326.442"/><line x1="301.87" y1="322.65" x2="305.663" y2="326.442"/><line x1="301.87" y1="326.442" x2="305.663" y2="322.65"/>
<line x1="302.324" y1="325.999" x2="306.116" y2="325.999"/><line x1="304.22" y1="324.103" x2="304.22" y2="327.895"/><line x1="302.324" y1="324.103" x2="306.116" y2="327.895"/><line x1="302.324" y1="327.895" x2="306.116" y2="324.103"/>
<line x1="302.777" y1="329.61" x2="306.569" y2="329.61"/><line x1="304.673" y1="327.714" x2="304.673" y2="331.506"/><line x1="302.777" y1="327.714" x2="306.569" y2="331.506"/><line x1="302.777" y1="331.506" x2="306.569" y2="327.714"/>
<line x1="303.23" y1="323.316" x2="307.022" y2="323.316"/><line x1="305.126" y1="321.42" x2="305.126" y2="325.212"/><line x1="303.23" y1="321.42" x2="307.022" y2="325.212"/><line x1="303.23" y1="325.212" x2="307.022" y2="321.42"/>
<line x1="303.683" y1="328.556" x2="307.475" y2="328.556"/><line x1="305.579" y1="326.66" x2="305.579" y2="330.452"/><line x1="303.683" y1="326.66" x2="307.475" y2="330.452"/><line x1="303.683" y1="330.452" x2="307.475" y2="326.66"/>
<line x1="304.137" y1="333.509" x2="307.929" y2="333.509"/><line x1="306.033" y1="331.613" x2="306.033" y2="335.405"/><line x1="304.137" y1="331.613" x2="307.929" y2="335.405"/><line x1="304.137" y1="335.405" x2="307.929" y2="331.613"/>
<line x1="304.59" y1="320.617" x2="308.382" y2="320.617"/><line x1="306.486" y1="318.721" x2="306.486" y2="322.514"/><line x1="304.59" y1="318.721" x2="308.382" y2="322.514"/><line x1="304.59" y1="322.514" x2="308.382" y2="318.721"/>
<line x1="305.043" y1="324.132" x2="308.835" y2="324.132"/><line x1="306.939" y1="322.236" x2="306.939" y2="326.028"/><line x1="305.043" y1="322.236" x2="308.835" y2="326.028"/><line x1="305.043" y1="326.028" x2="308.835" y2="322.236"/>
<line x1="305.496" y1="326.358" x2="309.288" y2="326.358"/><line x1="307.392" y1="324.462" x2="307.392" y2="328.254"/><line x1="305.496" y1="324.462" x2="309.288" y2="328.254"/><line x1="305.496" y1="328.254" x2="309.288" y2="324.462"/>
<line x1="305.949" y1="330.486" x2="309.742" y2="330.486"/><line x1="307.845" y1="328.59" x2="307.845" y2="332.382"/><line x1="305.949" y1="328.59" x2="309.742" y2="332.382"/><line x1="305.949" y1="332.382" x2="309.742" y2="328.59"/>
<line x1="306.403" y1="328.258" x2="310.195" y2="328.258"/><line x1="308.299" y1="326.362" x2="308.299" y2="330.154"/><line x1="306.403" y1="326.362" x2="310.195" y2="330.154"/><line x1="306.403" y1="330.154" x2="310.195" y2="326.362"/>
<line x1="306.856" y1="333.217" x2="310.648" y2="333.217"/><line x1="308.752" y1="331.321" x2="308.752" y2="335.113"/><line x1="306.856" y1="331.321" x2="310.648" y2="335.113"/><line x1="306.856" y1="335.113" x2="310.648" y2="331.321"/>
<line x1="307.309" y1="338.033" x2="311.101" y2="338.033"/><line x1="309.205" y1="336.137" x2="309.205" y2="339.93"/><line x1="307.309" y1="336.137" x2="311.101" y2="339.93"/><line x1="307.309" y1="339.93" x2="311.101" y2="336.137"/>
<line x1="307.762" y1="329.035" x2="311.554" y2="329.035"/><line x1="309.658" y1="327.139" x2="309.658" y2="330.931"/><line x1="307.762" y1="327.139" x2="311.554" y2="330.931"/><line x1="307.762" y1="330.931" x2="311.554" y2="327.139"/>
<line x1="308.216" y1="338.346" x2="312.008" y2="338.346"/><line x1="310.112" y1="336.45" x2="310.112" y2="340.242"/><line x1="308.216" y1="336.45" x2="312.008" y2="340.242"/><line x1="308.216" y1="340.242" x2="312.008" y2="336.45"/>
<line x1="308.669" y1="332.742" x2="312.461" y2="332.742"/><line x1="310.565" y1="330.846" x2="310.565" y2="334.638"/><line x1="308.669" y1="330.846" x2="312.461" y2="334.638"/><line x1="308.669" y1="334.638" x2="312.461" y2="330.846"/>
<line x1="309.122" y1="335.3" x2="312.914" y2="335.3"/><line x1="311.018" y1="333.404" x2="311.018" y2="337.196"/><line x1="309.122" y1="333.404" x2="312.914" y2="337.196"/><line x1="309.122" y1="337.196" x2="312.914" y2="333.404"/>
<line x1="309.575" y1="345.45" x2="313.367" y2="345.45"/><line x1="311.471" y1="343.554" x2="311.471" y2="347.346"/><line x1="309.575" y1="343.554" x2="313.367" y2="347.346"/><line x1="309.575" y1="347.346" x2="313.367" y2="343.554"/>
<line x1="310.028" y1="342.104" x2="313.821" y2="342.104"/><line x1="311.925" y1="340.208" x2="311.925" y2="344"/><line x1="310.028" y1="340.208" x2="313.821" y2="344"/><line x1="310.028" y1="344" x2="313.821" y2="340.208"/>
<line x1="310.482" y1="334.618" x2="314.274" y2="334.618"/><line x1="312.378" y1="332.722" x2="312.378" y2="336.514"/><line x1="310.482" y1="332.722" x2="314.274" y2="336.514"/><line x1="310.482" y1="336.514" x2="314.274" y2="332.722"/>
<line x1="310.935" y1="335.293" x2="314.727" y2="335.293"/><line x1="312.831" y1="333.397" x2="312.831" y2="337.189"/><line x1="310.935" y1="333.397" x2="314.727" y2="337.189"/><line x1="310.935" y1="337.189" x2="314.727" y2="333.397"/>
<line x1="311.388" y1="312.726" x2="315.18" y2="312.726"/><line x1="313.284" y1="310.83" x2="313.284" y2="314.622"/><line x1="311.388" y1="310.83" x2="315.18" y2="314.622"/><line x1="311.388" y1="314.622" x2="315.18" y2="310.83"/>
<line x1="311.841" y1="306.674" x2="315.634" y2="306.674"/><line x1="313.737" y1="304.778" x2="313.737" y2="308.57"/><line x1="311.841" y1="304.778" x2="315.634" y2="308.57"/><line x1="311.841" y1="308.57" x2="315.634" y2="304.778"/>
<line x1="312.295" y1="298.002" x2="316.087" y2="298.002"/><line x1="314.191" y1="296.106" x2="314.191" y2="299.898"/><line x1="312.295" y1="296.106" x2="316.087" y2="299.898"/><line x1="312.295" y1="299.898" x2="316.087" y2="296.106"/>
<line x1="312.748" y1="303.607" x2="316.54" y2="303.607"/><line x1="314.644" y1="301.711" x2="314.644" y2="305.503"/><line x1="312.748" y1="301.711" x2="316.54" y2="305.503"/><line x1="312.748" y1="305.503" x2="316.54" y2="301.711"/>
<line x1="313.201" y1="306.958" x2="316.993" y2="306.958"/><line x1="315.097" y1="305.062" x2="315.097" y2="308.854"/><line x1="313.201" y1="305.062" x2="316.993" y2="308.854"/><line x1="313.201" y1="308.854" x2="316.993" y2="305.062"/>
<line x1="313.654" y1="308.338" x2="317.446" y2="308.338"/><line x1="315.55" y1="306.442" x2="315.55" y2="310.234"/><line x1="313.654" y1="306.442" x2="317.446" y2="310.234"/><line x1="313.654" y1="310.234" x2="317.446" y2="306.442"/>
<line x1="314.107" y1="311.275" x2="317.9" y2="311.275"/><line x1="316.004" y1="309.378" x2="316.004" y2="313.171"/><line x1="314.107" y1="309.378" x2="317.9" y2="313.171"/><line x1="314.107" y1="313.171" x2="317.9" y2="309.378"/>
<line x1="314.561" y1="296.074" x2="318.353" y2="296.074"/><line x1="316.457" y1="294.178" x2="316.457" y2="297.97"/><line x1="314.561" y1="294.178" x2="318.353" y2="297.97"/><line x1="314.561" y1="297.97" x2="318.353" y2="294.178"/>
<line x1="315.014" y1="300.446" x2="318.806" y2="300.446"/><line x1="316.91" y1="298.55" x2="316.91" y2="302.342"/><line x1="315.014" y1="298.55" x2="318.806" y2="302.342"/><line x1="315.014" y1="302.342" x2="318.806" y2="298.55"/>
<line x1="315.467" y1="305.169" x2="319.259" y2="305.169"/><line x1="317.363" y1="303.273" x2="317.363" y2="307.065"/><line x1="315.467" y1="303.273" x2="319.259" y2="307.065"/><line x1="315.467" y1="307.065" x2="319.259" y2="303.273"/>
<line x1="315.92" y1="307.036" x2="319.713" y2="307.036"/><line x1="317.816" y1="305.14" x2="317.816" y2="308.932"/><line x1="315.92" y1="305.14" x2="319.713" y2="308.932"/><line x1="315.92" y1="308.932" x2="319.713" y2="305.14"/>
<line x1="316.374" y1="306.142" x2="320.166" y2="306.142"/><line x1="318.27" y1="304.246" x2="318.27" y2="308.038"/><line x1="316.374" y1="304.246" x2="320.166" y2="308.038"/><line x1="316.374" y1="308.038" x2="320.166" y2="304.246"/>
<line x1="316.827" y1="310.714" x2="320.619" y2="310.714"/><line x1="318.723" y1="308.818" x2="318.723" y2="312.611"/><line x1="316.827" y1="308.818" x2="320.619" y2="312.611"/><line x1="316.827" y1="312.611" x2="320.619" y2="308.818"/>
<line x1="317.28" y1="310.862" x2="321.072" y2="310.862"/><line x1="319.176" y1="308.966" x2="319.176" y2="312.759"/><line x1="317.28" y1="308.966" x2="321.072" y2="312.759"/><line x1="317.28" y1="312.759" x2="321.072" y2="308.966"/>
<line x1="317.733" y1="310.195" x2="321.525" y2="310.195"/><line x1="319.629" y1="308.299" x2="319.629" y2="312.091"/><line x1="317.733" y1="308.299" x2="321.525" y2="312.091"/><line x1="317.733" y1="312.091" x2="321.525" y2="308.299"/>
<line x1="318.186" y1="306.611" x2="321.979" y2="306.611"/><line x1="320.083" y1="304.715" x2="320.083" y2="308.508"/><line x1="318.186" y1="304.715" x2="321.979" y2="308.508"/><line x1="318.186" y1="308.508" x2="321.979" y2="304.715"/>
<line x1="318.64" y1="309.535" x2="322.432" y2="309.535"/><line x1="320.536" y1="307.639" x2="320.536" y2="311.431"/><line x1="318.64" y1="307.639" x2="322.432" y2="311.431"/><line x1="318.64" y1="311.431" x2="322.432" y2="307.639"/>
<line x1="319.093" y1="299.288" x2="322.885" y2="299.288"/><line x1="320.989" y1="297.392" x2="320.989" y2="301.184"/><line x1="319.093" y1="297.392" x2="322.885" y2="301.184"/><line x1="319.093" y1="301.184" x2="322.885" y2="297.392"/>
<line x1="319.546" y1="289.203" x2="323.338" y2="289.203"/><line x1="321.442" y1="287.307" x2="321.442" y2="291.099"/><line x1="319.546" y1="287.307" x2="323.338" y2="291.099"/><line x1="319.546" y1="291.099" x2="323.338" y2="287.307"/>
<line x1="319.999" y1="277.121" x2="323.792" y2="277.121"/><line x1="321.895" y1="275.225" x2="321.895" y2="279.017"/><line x1="319.999" y1="275.225" x2="323.792" y2="279.017"/><line x1="319.999" y1="279.017" x2="323.792" y2="275.225"/>
<line x1="320.453" y1="268.284" x2="324.245" y2="268.284"/><line x1="322.349" y1="266.388" x2="322.349" y2="270.18"/><line x1="320.453" y1="266.388" x2="324.245" y2="270.18"/><line x1="320.453" y1="270.18" x2="324.245" y2="266.388"/>
<line x1="320.906" y1="271.428" x2="324.698" y2="271.428"/><line x1="322.802" y1="269.532" x2="322.802" y2="273.324"/><line x1="320.906" y1="269.532" x2="324.698" y2="273.324"/><line x1="320.906" y1="273.324" x2="324.698" y2="269.532"/>
<line x1="321.359" y1="273.788" x2="325.151" y2="273.788"/><line x1="323.255" y1="271.892" x2="323.255" y2="275.684"/><line x1="321.359" y1="271.892" x2="325.151" y2="275.684"/><line x1="321.359" y1="275.684" x2="325.151" y2="271.892"/>
<line x1="321.812" y1="271.116" x2="325.604" y2="271.116"/><line x1="323.708" y1="269.22" x2="323.708" y2="273.012"/><line x1="321.812" y1="269.22" x2="325.604" y2="273.012"/><line x1="321.812" y1="273.012" x2="325.604" y2="269.22"/>
<line x1="322.266" y1="273.385" x2="326.058" y2="273.385"/><line x1="324.162" y1="271.489" x2="324.162" y2="275.282"/><line x1="322.266" y1="271.489" x2="326.058" y2="275.282"/><line x1="322.266" y1="275.282" x2="326.058" y2="271.489"/>
<line x1="322.719" y1="275.613" x2="326.511" y2="275.613"/><line x1="324.615" y1="273.717" x2="324.615" y2="277.509"/><line x1="322.719" y1="273.717" x2="326.511" y2="277.509"/><line x1="322.719" y1="277.509" x2="326.511" y2="273.717"/>
<line x1="323.172" y1="277.225" x2="326.964" y2="277.225"/><line x1="325.068" y1="275.329" x2="325.068" y2="279.121"/><line x1="323.172" y1="275.329" x2="326.964" y2="279.121"/><line x1="323.172" y1="279.121" x2="326.964" y2="275.329"/>
<line x1="323.625" y1="268.83" x2="327.417" y2="268.83"/><line x1="325.521" y1="266.934" x2="325.521" y2="270.726"/><line x1="323.625" y1="266.934" x2="327.417" y2="270.726"/><line x1="323.625" y1="270.726" x2="327.417" y2="266.934"/>
<line x1="324.078" y1="256.877" x2="327.871" y2="256.877"/><line x1="325.975" y1="254.981" x2="325.975" y2="258.773"/><line x1="324.078" y1="254.981" x2="327.871" y2="258.773"/><line x1="324.078" y1="258.773" x2="327.871" y2="254.981"/>
<line x1="324.532" y1="252.204" x2="328.324" y2="252.204"/><line x1="326.428" y1="250.308" x2="326.428" y2="254.1"/><line x1="324.532" y1="250.308" x2="328.324" y2="254.1"/><line x1="324.532" y1="254.1" x2="328.324" y2="250.308"/>
<line x1="324.985" y1="249.709" x2="328.777" y2="249.709"/><line x1="326.881" y1="247.813" x2="326.881" y2="251.605"/><line x1="324.985" y1="247.813" x2="328.777" y2="251.605"/><line x1="324.985" y1="251.605" x2="328.777" y2="247.813"/>
<line x1="325.438" y1="246.898" x2="329.23" y2="246.898"/><line x1="327.334" y1="245.002" x2="327.334" y2="248.794"/><line x1="325.438" y1="245.002" x2="329.23" y2="248.794"/><line x1="325.438" y1="248.794" x2="329.23" y2="245.002"/>
<line x1="325.891" y1="247.522" x2="329.684" y2="247.522"/><line x1="327.787" y1="245.626" x2="327.787" y2="249.418"/><line x1="325.891" y1="245.626" x2="329.684" y2="249.418"/><line x1="325.891" y1="249.418" x2="329.684" y2="245.626"/>
<line x1="326.345" y1="242.773" x2="330.137" y2="242.773"/><line x1="328.241" y1="240.877" x2="328.241" y2="244.669"/><line x1="326.345" y1="240.877" x2="330.137" y2="244.669"/><line x1="326.345" y1="244.669" x2="330.137" y2="240.877"/>
<line x1="326.798" y1="246.223" x2="330.59" y2="246.223"/><line x1="328.694" y1="244.326" x2="328.694" y2="248.119"/><line x1="326.798" y1="244.326" x2="330.59" y2="248.119"/><line x1="326.798" y1="248.119" x2="330.59" y2="244.326"/>
<line x1="327.251" y1="248.742" x2="331.043" y2="248.742"/><line x1="329.147" y1="246.846" x2="329.147" y2="250.638"/><line x1="327.251" y1="246.846" x2="331.043" y2="250.638"/><line x1="327.251" y1="250.638" x2="331.043" y2="246.846"/>
<line x1="327.704" y1="248.091" x2="331.496" y2="248.091"/><line x1="329.6" y1="246.195" x2="329.6" y2="249.987"/><line x1="327.704" y1="246.195" x2="331.496" y2="249.987"/><line x1="327.704" y1="249.987" x2="331.496" y2="246.195"/>
<line x1="328.157" y1="241.318" x2="331.95" y2="241.318"/><line x1="330.054" y1="239.422" x2="330.054" y2="243.214"/><line x1="328.157" y1="239.422" x2="331.95" y2="243.214"/><line x1="328.157" y1="243.214" x2="331.95" y2="239.422"/>
<line x1="328.611" y1="242.707" x2="332.403" y2="242.707"/><line x1="330.507" y1="240.811" x2="330.507" y2="244.603"/><line x1="328.611" y1="240.811" x2="332.403" y2="244.603"/><line x1="328.611" y1="244.603" x2="332.403" y2="240.811"/>
<line x1="329.064" y1="240.514" x2="332.856" y2="240.514"/><line x1="330.96" y1="238.618" x2="330.96" y2="242.41"/><line x1="329.064" y1="238.618" x2="332.856" y2="242.41"/><line x1="329.064" y1="242.41" x2="332.856" y2="238.618"/>
<line x1="329.517" y1="229.213" x2="333.309" y2="229.213"/><line x1="331.413" y1="227.317" x2="331.413" y2="231.109"/><line x1="329.517" y1="227.317" x2="333.309" y2="231.109"/><line x1="329.517" y1="231.109" x2="333.309" y2="227.317"/>
<line x1="329.97" y1="232.218" x2="333.763" y2="232.218"/><line x1="331.866" y1="230.322" x2="331.866" y2="234.114"/><line x1="329.97" y1="230.322" x2="333.763" y2="234.114"/><line x1="329.97" y1="234.114" x2="333.763" y2="230.322"/>
<line x1="330.424" y1="235.83" x2="334.216" y2="235.83"/><line x1="332.32" y1="233.934" x2="332.32" y2="237.726"/><line x1="330.424" y1="233.934" x2="334.216" y2="237.726"/><line x1="330.424" y1="237.726" x2="334.216" y2="233.934"/>
<line x1="330.877" y1="235.023" x2="334.669" y2="235.023"/><line x1="332.773" y1="233.127" x2="332.773" y2="236.919"/><line x1="330.877" y1="233.127" x2="334.669" y2="236.919"/><line x1="330.877" y1="236.919" x2="334.669" y2="233.127"/>
<line x1="331.33" y1="230.23" x2="335.122" y2="230.23"/><line x1="333.226" y1="228.334" x2="333.226" y2="232.126"/><line x1="331.33" y1="228.334" x2="335.122" y2="232.126"/><line x1="331.33" y1="232.126" x2="335.122" y2="228.334"/>
<line x1="331.783" y1="221.12" x2="335.575" y2="221.12"/><line x1="333.679" y1="219.224" x2="333.679" y2="223.016"/><line x1="331.783" y1="219.224" x2="335.575" y2="223.016"/><line x1="331.783" y1="223.016" x2="335.575" y2="219.224"/>
<line x1="332.237" y1="223.946" x2="336.029" y2="223.946"/><line x1="334.133" y1="222.05" x2="334.133" y2="225.843"/><line x1="332.237" y1="222.05" x2="336.029" y2="225.843"/><line x1="332.237" y1="225.843" x2="336.029" y2="222.05"/>
<line x1="332.69" y1="232.526" x2="336.482" y2="232.526"/><line x1="334.586" y1="230.629" x2="334.586" y2="234.422"/><line x1="332.69" y1="230.629" x2="336.482" y2="234.422"/><line x1="332.69" y1="234.422" x2="336.482" y2="230.629"/>
<line x1="333.143" y1="232.854" x2="336.935" y2="232.854"/><line x1="335.039" y1="230.958" x2="335.039" y2="234.751"/><line x1="333.143" y1="230.958" x2="336.935" y2="234.751"/><line x1="333.143" y1="234.751" x2="336.935" y2="230.958"/>
<line x1="333.596" y1="223.54" x2="337.388" y2="223.54"/><line x1="335.492" y1="221.644" x2="335.492" y2="225.436"/><line x1="333.596" y1="221.644" x2="337.388" y2="225.436"/><line x1="333.596" y1="225.436" x2="337.388" y2="221.644"/>
<line x1="334.049" y1="223.019" x2="337.842" y2="223.019"/><line x1="335.945" y1="221.123" x2="335.945" y2="224.915"/><line x1="334.049" y1="221.123" x2="337.842" y2="224.915"/><line x1="334.049" y1="224.915" x2="337.842" y2="221.123"/>
<line x1="334.503" y1="222.934" x2="338.295" y2="222.934"/><line x1="336.399" y1="221.038" x2="336.399" y2="224.83"/><line x1="334.503" y1="221.038" x2="338.295" y2="224.83"/><line x1="334.503" y1="224.83" x2="338.295" y2="221.038"/>
<line x1="334.956" y1="225.107" x2="338.748" y2="225.107"/><line x1="336.852" y1="223.211" x2="336.852" y2="227.003"/><line x1="334.956" y1="223.211" x2="338.748" y2="227.003"/><line x1="334.956" y1="227.003" x2="338.748" y2="223.211"/>
<line x1="335.409" y1="220.323" x2="339.201" y2="220.323"/><line x1="337.305" y1="218.427" x2="337.305" y2="222.219"/><line x1="335.409" y1="218.427" x2="339.201" y2="222.219"/><line x1="335.409" y1="222.219" x2="339.201" y2="218.427"/>
<line x1="335.862" y1="207.067" x2="339.654" y2="207.067"/><line x1="337.758" y1="205.171" x2="337.758" y2="208.963"/><line x1="335.862" y1="205.171" x2="339.654" y2="208.963"/><line x1="335.862" y1="208.963" x2="339.654" y2="205.171"/>
<line x1="336.316" y1="207.459" x2="340.108" y2="207.459"/><line x1="338.212" y1="205.563" x2="338.212" y2="209.355"/><line x1="336.316" y1="205.563" x2="340.108" y2="209.355"/><line x1="336.316" y1="209.355" x2="340.108" y2="205.563"/>
<line x1="336.769" y1="208.938" x2="340.561" y2="208.938"/><line x1="338.665" y1="207.042" x2="338.665" y2="210.834"/><line x1="336.769" y1="207.042" x2="340.561" y2="210.834"/><line x1="336.769" y1="210.834" x2="340.561" y2="207.042"/>
<line x1="337.222" y1="208.807" x2="341.014" y2="208.807"/><line x1="339.118" y1="206.911" x2="339.118" y2="210.703"/><line x1="337.222" y1="206.911" x2="341.014" y2="210.703"/><line x1="337.222" y1="210.703" x2="341.014" y2="206.911"/>
<line x1="337.675" y1="209.525" x2="341.467" y2="209.525"/><line x1="339.571" y1="207.629" x2="339.571" y2="211.421"/><line x1="337.675" y1="207.629" x2="341.467" y2="211.421"/><line x1="337.675" y1="211.421" x2="341.467" y2="207.629"/>
<line x1="338.128" y1="205.452" x2="341.921" y2="205.452"/><line x1="340.025" y1="203.556" x2="340.025" y2="207.348"/><line x1="338.128" y1="203.556" x2="341.921" y2="207.348"/><line x1="338.128" y1="207.348" x2="341.921" y2="203.556"/>
<line x1="338.582" y1="205.971" x2="342.374" y2="205.971"/><line x1="340.478" y1="204.075" x2="340.478" y2="207.867"/><line x1="338.582" y1="204.075" x2="342.374" y2="207.867"/><line x1="338.582" y1="207.867" x2="342.374" y2="204.075"/>
<line x1="339.035" y1="208.191" x2="342.827" y2="208.191"/><line x1="340.931" y1="206.295" x2="340.931" y2="210.087"/><line x1="339.035" y1="206.295" x2="342.827" y2="210.087"/><line x1="339.035" y1="210.087" x2="342.827" y2="206.295"/>
<line x1="339.488" y1="202.174" x2="343.28" y2="202.174"/><line x1="341.384" y1="200.278" x2="341.384" y2="204.07"/><line x1="339.488" y1="200.278" x2="343.28" y2="204.07"/><line x1="339.488" y1="204.07" x2="343.28" y2="200.278"/>
<line x1="339.941" y1="199.422" x2="343.734" y2="199.422"/><line x1="341.837" y1="197.526" x2="341.837" y2="201.318"/><line x1="339.941" y1="197.526" x2="343.734" y2="201.318"/><line x1="339.941" y1="201.318" x2="343.734" y2="197.526"/>
<line x1="340.395" y1="202.399" x2="344.187" y2="202.399"/><line x1="342.291" y1="200.503" x2="342.291" y2="204.295"/><line x1="340.395" y1="200.503" x2="344.187" y2="204.295"/><line x1="340.395" y1="204.295" x2="344.187" y2="200.503"/>
<line x1="340.848" y1="199.364" x2="344.64" y2="199.364"/><line x1="342.744" y1="197.468" x2="342.744" y2="201.261"/><line x1="340.848" y1="197.468" x2="344.64" y2="201.261"/><line x1="340.848" y1="201.261" x2="344.64" y2="197.468"/>
<line x1="341.301" y1="199.394" x2="345.093" y2="199.394"/><line x1="343.197" y1="197.498" x2="343.197" y2="201.29"/><line x1="341.301" y1="197.498" x2="345.093" y2="201.29"/><line x1="341.301" y1="201.29" x2="345.093" y2="197.498"/>
<line x1="341.754" y1="192.575" x2="345.546" y2="192.575"/><line x1="343.65" y1="190.679" x2="343.65" y2="194.471"/><line x1="341.754" y1="190.679" x2="345.546" y2="194.471"/><line x1="341.754" y1="194.471" x2="345.546" y2="190.679"/>
<line x1="342.207" y1="194.033" x2="346" y2="194.033"/><line x1="344.104" y1="192.137" x2="344.104" y2="195.929"/><line x1="342.207" y1="192.137" x2="346" y2="195.929"/><line x1="342.207" y1="195.929" x2="346" y2="192.137"/>
<line x1="342.661" y1="195.822" x2="346.453" y2="195.822"/><line x1="344.557" y1="193.926" x2="344.557" y2="197.718"/><line x1="342.661" y1="193.926" x2="346.453" y2="197.718"/><line x1="342.661" y1="197.718" x2="346.453" y2="193.926"/>
<line x1="343.114" y1="188.101" x2="346.906" y2="188.101"/><line x1="345.01" y1="186.204" x2="345.01" y2="189.997"/><line x1="343.114" y1="186.204" x2="346.906" y2="189.997"/><line x1="343.114" y1="189.997" x2="346.906" y2="186.204"/>
<line x1="343.567" y1="190.238" x2="347.359" y2="190.238"/><line x1="345.463" y1="188.342" x2="345.463" y2="192.134"/><line x1="343.567" y1="188.342" x2="347.359" y2="192.134"/><line x1="343.567" y1="192.134" x2="347.359" y2="188.342"/>
<line x1="344.02" y1="188.856" x2="347.813" y2="188.856"/><line x1="345.916" y1="186.96" x2="345.916" y2="190.752"/><line x1="344.02" y1="186.96" x2="347.813" y2="190.752"/><line x1="344.02" y1="190.752" x2="347.813" y2="186.96"/>
<line x1="344.474" y1="184.622" x2="348.266" y2="184.622"/><line x1="346.37" y1="182.726" x2="346.37" y2="186.518"/><line x1="344.474" y1="182.726" x2="348.266" y2="186.518"/><line x1="344.474" y1="186.518" x2="348.266" y2="182.726"/>
<line x1="344.927" y1="179.749" x2="348.719" y2="179.749"/><line x1="346.823" y1="177.853" x2="346.823" y2="181.646"/><line x1="344.927" y1="177.853" x2="348.719" y2="181.646"/><line x1="344.927" y1="181.646" x2="348.719" y2="177.853"/>
<line x1="345.38" y1="174.21" x2="349.172" y2="174.21"/><line x1="347.276" y1="172.314" x2="347.276" y2="176.106"/><line x1="345.38" y1="172.314" x2="349.172" y2="176.106"/><line x1="345.38" y1="176.106" x2="349.172" y2="172.314"/>
<line x1="345.833" y1="164.244" x2="349.625" y2="164.244"/><line x1="347.729" y1="162.348" x2="347.729" y2="166.14"/><line x1="345.833" y1="162.348" x2="349.625" y2="166.14"/><line x1="345.833" y1="166.14" x2="349.625" y2="162.348"/>
<line x1="346.287" y1="147.864" x2="350.079" y2="147.864"/><line x1="348.183" y1="145.968" x2="348.183" y2="149.76"/><line x1="346.287" y1="145.968" x2="350.079" y2="149.76"/><line x1="346.287" y1="149.76" x2="350.079" y2="145.968"/>
<line x1="346.74" y1="150.085" x2="350.532" y2="150.085"/><line x1="348.636" y1="148.189" x2="348.636" y2="151.982"/><line x1="346.74" y1="148.189" x2="350.532" y2="151.982"/><line x1="346.74" y1="151.982" x2="350.532" y2="148.189"/>
<line x1="347.193" y1="141.831" x2="350.985" y2="141.831"/><line x1="349.089" y1="139.935" x2="349.089" y2="143.727"/><line x1="347.193" y1="139.935" x2="350.985" y2="143.727"/><line x1="347.193" y1="143.727" x2="350.985" y2="139.935"/>
<line x1="347.646" y1="146.56" x2="351.438" y2="146.56"/><line x1="349.542" y1="144.664" x2="349.542" y2="148.456"/><line x1="347.646" y1="144.664" x2="351.438" y2="148.456"/><line x1="347.646" y1="148.456" x2="351.438" y2="144.664"/>
<line x1="348.099" y1="131.819" x2="351.892" y2="131.819"/><line x1="349.996" y1="129.923" x2="349.996" y2="133.715"/><line x1="348.099" y1="129.923" x2="351.892" y2="133.715"/><line x1="348.099" y1="133.715" x2="351.892" y2="129.923"/>
<line x1="348.553" y1="124.386" x2="352.345" y2="124.386"/><line x1="350.449" y1="122.49" x2="350.449" y2="126.282"/><line x1="348.553" y1="122.49" x2="352.345" y2="126.282"/><line x1="348.553" y1="126.282" x2="352.345" y2="122.49"/>
<line x1="349.006" y1="115.096" x2="352.798" y2="115.096"/><line x1="350.902" y1="113.2" x2="350.902" y2="116.992"/><line x1="349.006" y1="113.2" x2="352.798" y2="116.992"/><line x1="349.006" y1="116.992" x2="352.798" y2="113.2"/>
<line x1="349.459" y1="115.434" x2="353.251" y2="115.434"/><line x1="351.355" y1="113.538" x2="351.355" y2="117.33"/><line x1="349.459" y1="113.538" x2="353.251" y2="117.33"/><line x1="349.459" y1="117.33" x2="353.251" y2="113.538"/>
<line x1="349.912" y1="109.034" x2="353.704" y2="109.034"/><line x1="351.808" y1="107.138" x2="351.808" y2="110.93"/><line x1="349.912" y1="107.138" x2="353.704" y2="110.93"/><line x1="349.912" y1="110.93" x2="353.704" y2="107.138"/>
<line x1="350.366" y1="103.012" x2="354.158" y2="103.012"/><line x1="352.262" y1="101.116" x2="352.262" y2="104.908"/><line x1="350.366" y1="101.116" x2="354.158" y2="104.908"/><line x1="350.366" y1="104.908" x2="354.158" y2="101.116"/>
<line x1="350.819" y1="99.7533" x2="354.611" y2="99.7533"/><line x1="352.715" y1="97.8572" x2="352.715" y2="101.649"/><line x1="350.819" y1="97.8572" x2="354.611" y2="101.649"/><line x1="350.819" y1="101.649" x2="354.611" y2="97.8572"/>
<line x1="351.272" y1="97.6169" x2="355.064" y2="97.6169"/><line x1="353.168" y1="95.7208" x2="353.168" y2="99.513"/><line x1="351.272" y1="95.7208" x2="355.064" y2="99.513"/><line x1="351.272" y1="99.513" x2="355.064" y2="95.7208"/>
<line x1="351.725" y1="96.9084" x2="355.517" y2="96.9084"/><line x1="353.621" y1="95.0123" x2="353.621" y2="98.8045"/><line x1="351.725" y1="95.0123" x2="355.517" y2="98.8045"/><line x1="351.725" y1="98.8045" x2="355.517" y2="95.0123"/>
<line x1="352.178" y1="91.0958" x2="355.971" y2="91.0958"/><line x1="354.075" y1="89.1997" x2="354.075" y2="92.9919"/><line x1="352.178" y1="89.1997" x2="355.971" y2="92.9919"/><line x1="352.178" y1="92.9919" x2="355.971" y2="89.1997"/>
<line x1="352.632" y1="88.7826" x2="356.424" y2="88.7826"/><line x1="354.528" y1="86.8865" x2="354.528" y2="90.6787"/><line x1="352.632" y1="86.8865" x2="356.424" y2="90.6787"/><line x1="352.632" y1="90.6787" x2="356.424" y2="86.8865"/>
<line x1="353.085" y1="88.0376" x2="356.877" y2="88.0376"/><line x1="354.981" y1="86.1415" x2="354.981" y2="89.9336"/><line x1="353.085" y1="86.1415" x2="356.877" y2="89.9336"/><line x1="353.085" y1="89.9336" x2="356.877" y2="86.1415"/>
<line x1="353.538" y1="84.9456" x2="357.33" y2="84.9456"/><line x1="355.434" y1="83.0495" x2="355.434" y2="86.8416"/><line x1="353.538" y1="83.0495" x2="357.33" y2="86.8416"/><line x1="353.538" y1="86.8416" x2="357.33" y2="83.0495"/>
<line x1="353.991" y1="91.7082" x2="357.784" y2="91.7082"/><line x1="355.887" y1="89.8121" x2="355.887" y2="93.6043"/><line x1="353.991" y1="89.8121" x2="357.784" y2="93.6043"/><line x1="353.991" y1="93.6043" x2="357.784" y2="89.8121"/>
<line x1="354.445" y1="84.6083" x2="358.237" y2="84.6083"/><line x1="356.341" y1="82.7122" x2="356.341" y2="86.5044"/><line x1="354.445" y1="82.7122" x2="358.237" y2="86.5044"/><line x1="354.445" y1="86.5044" x2="358.237" y2="82.7122"/>
<line x1="354.898" y1="86.8722" x2="358.69" y2="86.8722"/><line x1="356.794" y1="84.9761" x2="356.794" y2="88.7683"/><line x1="354.898" y1="84.9761" x2="358.69" y2="88.7683"/><line x1="354.898" y1="88.7683" x2="358.69" y2="84.9761"/>
<line x1="355.351" y1="84.587" x2="359.143" y2="84.587"/><line x1="357.247" y1="82.6909" x2="357.247" y2="86.483"/><line x1="355.351" y1="82.6909" x2="359.143" y2="86.483"/><line x1="355.351" y1="86.483" x2="359.143" y2="82.6909"/>
<line x1="355.804" y1="80.9308" x2="359.596" y2="80.9308"/><line x1="357.7" y1="79.0347" x2="357.7" y2="82.8269"/><line x1="355.804" y1="79.0347" x2="359.596" y2="82.8269"/><line x1="355.804" y1="82.8269" x2="359.596" y2="79.0347"/>
<line x1="356.258" y1="79.6595" x2="360.05" y2="79.6595"/><line x1="358.154" y1="77.7634" x2="358.154" y2="81.5555"/><line x1="356.258" y1="77.7634" x2="360.05" y2="81.5555"/><line x1="356.258" y1="81.5555" x2="360.05" y2="77.7634"/>
<line x1="356.711" y1="80.5309" x2="360.503" y2="80.5309"/><line x1="358.607" y1="78.6348" x2="358.607" y2="82.4269"/><line x1="356.711" y1="78.6348" x2="360.503" y2="82.4269"/><line x1="356.711" y1="82.4269" x2="360.503" y2="78.6348"/>
<line x1="357.164" y1="66.9881" x2="360.956" y2="66.9881"/><line x1="359.06" y1="65.092" x2="359.06" y2="68.8842"/><line x1="357.164" y1="65.092" x2="360.956" y2="68.8842"/><line x1="357.164" y1="68.8842" x2="360.956" y2="65.092"/>
<line x1="357.617" y1="56.6247" x2="361.409" y2="56.6247"/><line x1="359.513" y1="54.7286" x2="359.513" y2="58.5208"/><line x1="357.617" y1="54.7286" x2="361.409" y2="58.5208"/><line x1="357.617" y1="58.5208" x2="361.409" y2="54.7286"/>
<line x1="358.07" y1="53.8495" x2="361.863" y2="53.8495"/><line x1="359.966" y1="51.9534" x2="359.966" y2="55.7456"/><line x1="358.07" y1="51.9534" x2="361.863" y2="55.7456"/><line x1="358.07" y1="55.7456" x2="361.863" y2="51.9534"/>
<line x1="358.524" y1="53.8929" x2="362.316" y2="53.8929"/><line x1="360.42" y1="51.9968" x2="360.42" y2="55.7889"/><line x1="358.524" y1="51.9968" x2="362.316" y2="55.7889"/><line x1="358.524" y1="55.7889" x2="362.316" y2="51.9968"/>
<line x1="358.977" y1="41.553" x2="362.769" y2="41.553"/><line x1="360.873" y1="39.6569" x2="360.873" y2="43.4491"/><line x1="358.977" y1="39.6569" x2="362.769" y2="43.4491"/><line x1="358.977" y1="43.4491" x2="362.769" y2="39.6569"/>
</g>
<path d="M170.518,353.116h 226.613" fill="none" stroke="#0000ff"/>
<path d="M283.824,372.012v -47.2396" fill="none" stroke="#ff0000"/>
<rect x="57.1929" y="330.677" width="113.386" height="41.3346" fill="white"/>
<path d="M57.1929,372.012h 113.386" fill="none" stroke="black"/>
<path d="M170.579,372.012v -41.3346" fill="none" stroke="black"/>
<path d="M170.579,330.677h -113.386" fill="none" stroke="black"/>
<path d="M57.1929,330.677v 41.3346" fill="none" stroke="black"/>
<text xml:space="preserve" x="85.3498" y="354.568" fill="black" font-size="12.0704" font-family="Helvetica">#p.e of PMTs3</text>
<path d="M61.4449,351.344h 19.8425" fill="none" stroke="black"/></svg>
