<?xml version="1.0" standalone="no"?>
<svg width="567.429" height="413.846" viewBox="0 0 567.429 413.846" xmlns="http://www.w3.org/2000/svg" shape-rendering="crispEdges">
<title>
figures/chi2_1PMTnpedata190929-01.svg
</title>
<desc>
Creator: ROOT Version 6.18/02
CreationDate: Sun Sep 29 19:53:09 2019</desc>
<defs>
</defs>
<rect x="0.5" y="0" width="566.929" height="413.346" fill="white"/>
<rect x="57.1929" y="41.3346" width="453.543" height="330.677" fill="white"/>
<rect x="57.1929" y="41.3346" width="453.543" height="330.677" fill="none" stroke="black"/>
<path d="M57.1929,372.012h 453.543" fill="none" stroke="black"/>
<path d="M98.668,41.3346v 330.677" fill="none" stroke="black" stroke-dasharray=" 1, 2"/>
<path d="M143.991,41.3346v 330.677" fill="none" stroke="black" stroke-dasharray=" 1, 2"/>
<path d="M189.313,41.3346v 330.677" fill="none" stroke="black" stroke-dasharray=" 1, 2"/>
<path d="M234.636,41.3346v 330.677" fill="none" stroke="black" stroke-dasharray=" 1, 2"/>
<path d="M279.958,41.3346v 330.677" fill="none" stroke="black" stroke-dasharray=" 1, 2"/>
<path d="M325.281,41.3346v 330.677" fill="none" stroke="black" stroke-dasharray=" 1, 2"/>
<path d="M370.604,41.3346v 330.677" fill="none" stroke="black" stroke-dasharray=" 1, 2"/>
<path d="M415.926,41.3346v 330.677" fill="none" stroke="black" stroke-dasharray=" 1, 2"/>
<path d="M461.249,41.3346v 330.677" fill="none" stroke="black" stroke-dasharray=" 1, 2"/>
<path d="M506.572,41.3346v 330.677" fill="none" stroke="black" stroke-dasharray=" 1, 2"/>
<path d="M98.668,41.3346v 330.677" fill="none" stroke="black" stroke-dasharray=" 1, 2"/>
<path d="M506.572,41.3346v 330.677" fill="none" stroke="black" stroke-dasharray=" 1, 2"/>
<path d="M57.1929,372.012v -330.677" fill="none" stroke="black"/>
<path d="M510.736,349.585h -453.543" fill="none" stroke="black" stroke-dasharray=" 1, 2"/>
<path d="M510.736,286.599h -453.543" fill="none" stroke="black" stroke-dasharray=" 1, 2"/>
<path d="M510.736,223.613h -453.543" fill="none" stroke="black" stroke-dasharray=" 1, 2"/>
<path d="M510.736,160.627h -453.543" fill="none" stroke="black" stroke-dasharray=" 1, 2"/>
<path d="M510.736,97.641h -453.543" fill="none" stroke="black" stroke-dasharray=" 1, 2"/>
<path d="M510.736,349.585h -453.543" fill="none" stroke="black" stroke-dasharray=" 1, 2"/>
<path d="M510.736,97.641h -453.543" fill="none" stroke="black" stroke-dasharray=" 1, 2"/>
<path d="M57.1929,372.012h 453.543" fill="none" stroke="black"/>
<path d="M98.668,362.091v 9.92031" fill="none" stroke="black"/>
<path d="M109.999,367.052v 4.96016" fill="none" stroke="black"/>
<path d="M121.329,367.052v 4.96016" fill="none" stroke="black"/>
<path d="M132.66,367.052v 4.96016" fill="none" stroke="black"/>
<path d="M143.991,362.091v 9.92031" fill="none" stroke="black"/>
<path d="M155.321,367.052v 4.96016" fill="none" stroke="black"/>
<path d="M166.652,367.052v 4.96016" fill="none" stroke="black"/>
<path d="M177.983,367.052v 4.96016" fill="none" stroke="black"/>
<path d="M189.313,362.091v 9.92031" fill="none" stroke="black"/>
<path d="M200.644,367.052v 4.96016" fill="none" stroke="black"/>
<path d="M211.975,367.052v 4.96016" fill="none" stroke="black"/>
<path d="M223.305,367.052v 4.96016" fill="none" stroke="black"/>
<path d="M234.636,362.091v 9.92031" fill="none" stroke="black"/>
<path d="M245.967,367.052v 4.96016" fill="none" stroke="black"/>
<path d="M257.297,367.052v 4.96016" fill="none" stroke="black"/>
<path d="M268.628,367.052v 4.96016" fill="none" stroke="black"/>
<path d="M279.958,362.091v 9.92031" fill="none" stroke="black"/>
<path d="M291.289,367.052v 4.96016" fill="none" stroke="black"/>
<path d="M302.62,367.052v 4.96016" fill="none" stroke="black"/>
<path d="M313.95,367.052v 4.96016" fill="none" stroke="black"/>
<path d="M325.281,362.091v 9.92031" fill="none" stroke="black"/>
<path d="M336.612,367.052v 4.96016" fill="none" stroke="black"/>
<path d="M347.942,367.052v 4.96016" fill="none" stroke="black"/>
<path d="M359.273,367.052v 4.96016" fill="none" stroke="black"/>
<path d="M370.604,362.091v 9.92031" fill="none" stroke="black"/>
<path d="M381.934,367.052v 4.96016" fill="none" stroke="black"/>
<path d="M393.265,367.052v 4.96016" fill="none" stroke="black"/>
<path d="M404.596,367.052v 4.96016" fill="none" stroke="black"/>
<path d="M415.926,362.091v 9.92031" fill="none" stroke="black"/>
<path d="M427.257,367.052v 4.96016" fill="none" stroke="black"/>
<path d="M438.588,367.052v 4.96016" fill="none" stroke="black"/>
<path d="M449.918,367.052v 4.96016" fill="none" stroke="black"/>
<path d="M461.249,362.091v 9.92031" fill="none" stroke="black"/>
<path d="M472.58,367.052v 4.96016" fill="none" stroke="black"/>
<path d="M483.91,367.052v 4.96016" fill="none" stroke="black"/>
<path d="M495.241,367.052v 4.96016" fill="none" stroke="black"/>
<path d="M506.572,362.091v 9.92031" fill="none" stroke="black"/>
<path d="M98.668,362.091v 9.92031" fill="none" stroke="black"/>
<path d="M87.3374,367.052v 4.96016" fill="none" stroke="black"/>
<path d="M76.0067,367.052v 4.96016" fill="none" stroke="black"/>
<path d="M64.6761,367.052v 4.96016" fill="none" stroke="black"/>
<path d="M506.572,362.091v 9.92031" fill="none" stroke="black"/>
<text xml:space="preserve" x="85.8238" y="385.379" fill="black" font-size="13.7726" font-family="Helvetica">0.84</text>
<text xml:space="preserve" x="130.856" y="385.379" fill="black" font-size="13.7726" font-family="Helvetica">0.86</text>
<text xml:space="preserve" x="176.362" y="385.379" fill="black" font-size="13.7726" font-family="Helvetica">0.88</text>
<text xml:space="preserve" x="225.186" y="385.379" fill="black" font-size="13.7726" font-family="Helvetica">0.9</text>
<text xml:space="preserve" x="266.9" y="385.379" fill="black" font-size="13.7726" font-family="Helvetica">0.92</text>
<text xml:space="preserve" x="312.406" y="385.379" fill="black" font-size="13.7726" font-family="Helvetica">0.94</text>
<text xml:space="preserve" x="357.438" y="385.379" fill="black" font-size="13.7726" font-family="Helvetica">0.96</text>
<text xml:space="preserve" x="402.944" y="385.379" fill="black" font-size="13.7726" font-family="Helvetica">0.98</text>
<text xml:space="preserve" x="458.878" y="385.379" fill="black" font-size="13.7726" font-family="Helvetica">1</text>
<text xml:space="preserve" x="493.482" y="385.379" fill="black" font-size="13.7726" font-family="Helvetica">1.02</text>
<text xml:space="preserve" x="413.372" y="400.074" fill="black" font-size="13.7726" font-family="Helvetica">calibration factor</text>
<path d="M57.1929,372.012v -330.677" fill="none" stroke="black"/>
<path d="M70.7992,349.585h -13.6063" fill="none" stroke="black"/>
<path d="M63.9961,333.839h -6.80315" fill="none" stroke="black"/>
<path d="M63.9961,318.092h -6.80315" fill="none" stroke="black"/>
<path d="M63.9961,302.346h -6.80315" fill="none" stroke="black"/>
<path d="M70.7992,286.599h -13.6063" fill="none" stroke="black"/>
<path d="M63.9961,270.853h -6.80315" fill="none" stroke="black"/>
<path d="M63.9961,255.106h -6.80315" fill="none" stroke="black"/>
<path d="M63.9961,239.36h -6.80315" fill="none" stroke="black"/>
<path d="M70.7992,223.613h -13.6063" fill="none" stroke="black"/>
<path d="M63.9961,207.867h -6.80315" fill="none" stroke="black"/>
<path d="M63.9961,192.12h -6.80315" fill="none" stroke="black"/>
<path d="M63.9961,176.374h -6.80315" fill="none" stroke="black"/>
<path d="M70.7992,160.627h -13.6063" fill="none" stroke="black"/>
<path d="M63.9961,144.881h -6.80315" fill="none" stroke="black"/>
<path d="M63.9961,129.134h -6.80315" fill="none" stroke="black"/>
<path d="M63.9961,113.387h -6.80315" fill="none" stroke="black"/>
<path d="M70.7992,97.641h -13.6063" fill="none" stroke="black"/>
<path d="M70.7992,349.585h -13.6063" fill="none" stroke="black"/>
<path d="M63.9961,365.332h -6.80315" fill="none" stroke="black"/>
<path d="M70.7992,97.641h -13.6063" fill="none" stroke="black"/>
<path d="M63.9961,81.8944h -6.80315" fill="none" stroke="black"/>
<path d="M63.9961,66.1479h -6.80315" fill="none" stroke="black"/>
<path d="M63.9961,50.4014h -6.80315" fill="none" stroke="black"/>
<text xml:space="preserve" x="25.1491" y="354.094" fill="black" font-size="13.7726" font-family="Helvetica">4340</text>
<text xml:space="preserve" x="25.1491" y="291.049" fill="black" font-size="13.7726" font-family="Helvetica">4360</text>
<text xml:space="preserve" x="25.1491" y="228.004" fill="black" font-size="13.7726" font-family="Helvetica">4380</text>
<text xml:space="preserve" x="25.1491" y="164.959" fill="black" font-size="13.7726" font-family="Helvetica">4400</text>
<text xml:space="preserve" x="25.1491" y="101.915" fill="black" font-size="13.7726" font-family="Helvetica">4420</text>
<g transform="rotate(-90,8.08434,45.98)">
<text xml:space="preserve" x="8.08434" y="45.98" fill="black" font-size="9.34839" font-family="Helvetica">2</text>
</g>
<g transform="rotate(-90,12.3505,50.2462)">
<text xml:space="preserve" x="12.3505" y="50.2462" fill="black" font-size="13.7726" font-family="Helvetica"> </text>
</g>
<g transform="rotate(-90,12.3505,57.3565)">
<text xml:space="preserve" x="12.3505" y="57.3565" fill="black" font-size="13.7726" font-family="Times">&#0967;</text>
</g>
<g stroke="black" stroke-width="1" fill="none">
<line x1="228.208" y1="42.4177" x2="232" y2="42.4177"/><line x1="230.104" y1="40.5216" x2="230.104" y2="44.3138"/><line x1="228.208" y1="40.5216" x2="232" y2="44.3138"/><line x1="228.208" y1="44.3138" x2="232" y2="40.5216"/>
<line x1="228.661" y1="45.337" x2="232.453" y2="45.337"/><line x1="230.557" y1="43.4409" x2="230.557" y2="47.233"/><line x1="228.661" y1="43.4409" x2="232.453" y2="47.233"/><line x1="228.661" y1="47.233" x2="232.453" y2="43.4409"/>
<line x1="229.114" y1="50.2369" x2="232.906" y2="50.2369"/><line x1="231.01" y1="48.3408" x2="231.01" y2="52.133"/><line x1="229.114" y1="48.3408" x2="232.906" y2="52.133"/><line x1="229.114" y1="52.133" x2="232.906" y2="48.3408"/>
<line x1="229.567" y1="61.746" x2="233.359" y2="61.746"/><line x1="231.463" y1="59.8499" x2="231.463" y2="63.6421"/><line x1="229.567" y1="59.8499" x2="233.359" y2="63.6421"/><line x1="229.567" y1="63.6421" x2="233.359" y2="59.8499"/>
<line x1="230.02" y1="73.9076" x2="233.813" y2="73.9076"/><line x1="231.917" y1="72.0115" x2="231.917" y2="75.8037"/><line x1="230.02" y1="72.0115" x2="233.813" y2="75.8037"/><line x1="230.02" y1="75.8037" x2="233.813" y2="72.0115"/>
<line x1="230.474" y1="63.0788" x2="234.266" y2="63.0788"/><line x1="232.37" y1="61.1828" x2="232.37" y2="64.9749"/><line x1="230.474" y1="61.1828" x2="234.266" y2="64.9749"/><line x1="230.474" y1="64.9749" x2="234.266" y2="61.1828"/>
<line x1="230.927" y1="76.8148" x2="234.719" y2="76.8148"/><line x1="232.823" y1="74.9187" x2="232.823" y2="78.7108"/><line x1="230.927" y1="74.9187" x2="234.719" y2="78.7108"/><line x1="230.927" y1="78.7108" x2="234.719" y2="74.9187"/>
<line x1="231.38" y1="95.4898" x2="235.172" y2="95.4898"/><line x1="233.276" y1="93.5937" x2="233.276" y2="97.3859"/><line x1="231.38" y1="93.5937" x2="235.172" y2="97.3859"/><line x1="231.38" y1="97.3859" x2="235.172" y2="93.5937"/>
<line x1="231.833" y1="102.679" x2="235.625" y2="102.679"/><line x1="233.729" y1="100.782" x2="233.729" y2="104.575"/><line x1="231.833" y1="100.782" x2="235.625" y2="104.575"/><line x1="231.833" y1="104.575" x2="235.625" y2="100.782"/>
<line x1="232.287" y1="106.252" x2="236.079" y2="106.252"/><line x1="234.183" y1="104.356" x2="234.183" y2="108.148"/><line x1="232.287" y1="104.356" x2="236.079" y2="108.148"/><line x1="232.287" y1="108.148" x2="236.079" y2="104.356"/>
<line x1="232.74" y1="102.597" x2="236.532" y2="102.597"/><line x1="234.636" y1="100.701" x2="234.636" y2="104.493"/><line x1="232.74" y1="100.701" x2="236.532" y2="104.493"/><line x1="232.74" y1="104.493" x2="236.532" y2="100.701"/>
<line x1="233.193" y1="97.6083" x2="236.985" y2="97.6083"/><line x1="235.089" y1="95.7122" x2="235.089" y2="99.5043"/><line x1="233.193" y1="95.7122" x2="236.985" y2="99.5043"/><line x1="233.193" y1="99.5043" x2="236.985" y2="95.7122"/>
<line x1="233.646" y1="99.0848" x2="237.438" y2="99.0848"/><line x1="235.542" y1="97.1887" x2="235.542" y2="100.981"/><line x1="233.646" y1="97.1887" x2="237.438" y2="100.981"/><line x1="233.646" y1="100.981" x2="237.438" y2="97.1887"/>
<line x1="234.099" y1="97.6641" x2="237.892" y2="97.6641"/><line x1="235.996" y1="95.768" x2="235.996" y2="99.5602"/><line x1="234.099" y1="95.768" x2="237.892" y2="99.5602"/><line x1="234.099" y1="99.5602" x2="237.892" y2="95.768"/>
<line x1="234.553" y1="102.102" x2="238.345" y2="102.102"/><line x1="236.449" y1="100.206" x2="236.449" y2="103.998"/><line x1="234.553" y1="100.206" x2="238.345" y2="103.998"/><line x1="234.553" y1="103.998" x2="238.345" y2="100.206"/>
<line x1="235.006" y1="103.36" x2="238.798" y2="103.36"/><line x1="236.902" y1="101.464" x2="236.902" y2="105.256"/><line x1="235.006" y1="101.464" x2="238.798" y2="105.256"/><line x1="235.006" y1="105.256" x2="238.798" y2="101.464"/>
<line x1="235.459" y1="106.929" x2="239.251" y2="106.929"/><line x1="237.355" y1="105.033" x2="237.355" y2="108.826"/><line x1="235.459" y1="105.033" x2="239.251" y2="108.826"/><line x1="235.459" y1="108.826" x2="239.251" y2="105.033"/>
<line x1="235.912" y1="107.315" x2="239.705" y2="107.315"/><line x1="237.808" y1="105.419" x2="237.808" y2="109.211"/><line x1="235.912" y1="105.419" x2="239.705" y2="109.211"/><line x1="235.912" y1="109.211" x2="239.705" y2="105.419"/>
<line x1="236.366" y1="111.176" x2="240.158" y2="111.176"/><line x1="238.262" y1="109.28" x2="238.262" y2="113.072"/><line x1="236.366" y1="109.28" x2="240.158" y2="113.072"/><line x1="236.366" y1="113.072" x2="240.158" y2="109.28"/>
<line x1="236.819" y1="116.622" x2="240.611" y2="116.622"/><line x1="238.715" y1="114.725" x2="238.715" y2="118.518"/><line x1="236.819" y1="114.725" x2="240.611" y2="118.518"/><line x1="236.819" y1="118.518" x2="240.611" y2="114.725"/>
<line x1="237.272" y1="122.242" x2="241.064" y2="122.242"/><line x1="239.168" y1="120.346" x2="239.168" y2="124.138"/><line x1="237.272" y1="120.346" x2="241.064" y2="124.138"/><line x1="237.272" y1="124.138" x2="241.064" y2="120.346"/>
<line x1="237.725" y1="123.939" x2="241.517" y2="123.939"/><line x1="239.621" y1="122.043" x2="239.621" y2="125.835"/><line x1="237.725" y1="122.043" x2="241.517" y2="125.835"/><line x1="237.725" y1="125.835" x2="241.517" y2="122.043"/>
<line x1="238.178" y1="122.165" x2="241.971" y2="122.165"/><line x1="240.075" y1="120.269" x2="240.075" y2="124.061"/><line x1="238.178" y1="120.269" x2="241.971" y2="124.061"/><line x1="238.178" y1="124.061" x2="241.971" y2="120.269"/>
<line x1="238.632" y1="136.493" x2="242.424" y2="136.493"/><line x1="240.528" y1="134.597" x2="240.528" y2="138.389"/><line x1="238.632" y1="134.597" x2="242.424" y2="138.389"/><line x1="238.632" y1="138.389" x2="242.424" y2="134.597"/>
<line x1="239.085" y1="145.851" x2="242.877" y2="145.851"/><line x1="240.981" y1="143.955" x2="240.981" y2="147.747"/><line x1="239.085" y1="143.955" x2="242.877" y2="147.747"/><line x1="239.085" y1="147.747" x2="242.877" y2="143.955"/>
<line x1="239.538" y1="151.306" x2="243.33" y2="151.306"/><line x1="241.434" y1="149.41" x2="241.434" y2="153.202"/><line x1="239.538" y1="149.41" x2="243.33" y2="153.202"/><line x1="239.538" y1="153.202" x2="243.33" y2="149.41"/>
<line x1="239.991" y1="147.936" x2="243.784" y2="147.936"/><line x1="241.887" y1="146.04" x2="241.887" y2="149.832"/><line x1="239.991" y1="146.04" x2="243.784" y2="149.832"/><line x1="239.991" y1="149.832" x2="243.784" y2="146.04"/>
<line x1="240.445" y1="145.41" x2="244.237" y2="145.41"/><line x1="242.341" y1="143.514" x2="242.341" y2="147.306"/><line x1="240.445" y1="143.514" x2="244.237" y2="147.306"/><line x1="240.445" y1="147.306" x2="244.237" y2="143.514"/>
<line x1="240.898" y1="144.879" x2="244.69" y2="144.879"/><line x1="242.794" y1="142.983" x2="242.794" y2="146.775"/><line x1="240.898" y1="142.983" x2="244.69" y2="146.775"/><line x1="240.898" y1="146.775" x2="244.69" y2="142.983"/>
<line x1="241.351" y1="156.406" x2="245.143" y2="156.406"/><line x1="243.247" y1="154.51" x2="243.247" y2="158.302"/><line x1="241.351" y1="154.51" x2="245.143" y2="158.302"/><line x1="241.351" y1="158.302" x2="245.143" y2="154.51"/>
<line x1="241.804" y1="161.31" x2="245.596" y2="161.31"/><line x1="243.7" y1="159.414" x2="243.7" y2="163.206"/><line x1="241.804" y1="159.414" x2="245.596" y2="163.206"/><line x1="241.804" y1="163.206" x2="245.596" y2="159.414"/>
<line x1="242.258" y1="159.396" x2="246.05" y2="159.396"/><line x1="244.154" y1="157.5" x2="244.154" y2="161.292"/><line x1="242.258" y1="157.5" x2="246.05" y2="161.292"/><line x1="242.258" y1="161.292" x2="246.05" y2="157.5"/>
<line x1="242.711" y1="160.532" x2="246.503" y2="160.532"/><line x1="244.607" y1="158.636" x2="244.607" y2="162.428"/><line x1="242.711" y1="158.636" x2="246.503" y2="162.428"/><line x1="242.711" y1="162.428" x2="246.503" y2="158.636"/>
<line x1="243.164" y1="150.624" x2="246.956" y2="150.624"/><line x1="245.06" y1="148.728" x2="245.06" y2="152.52"/><line x1="243.164" y1="148.728" x2="246.956" y2="152.52"/><line x1="243.164" y1="152.52" x2="246.956" y2="148.728"/>
<line x1="243.617" y1="148.083" x2="247.409" y2="148.083"/><line x1="245.513" y1="146.186" x2="245.513" y2="149.979"/><line x1="243.617" y1="146.186" x2="247.409" y2="149.979"/><line x1="243.617" y1="149.979" x2="247.409" y2="146.186"/>
<line x1="244.07" y1="149.7" x2="247.863" y2="149.7"/><line x1="245.967" y1="147.803" x2="245.967" y2="151.596"/><line x1="244.07" y1="147.803" x2="247.863" y2="151.596"/><line x1="244.07" y1="151.596" x2="247.863" y2="147.803"/>
<line x1="244.524" y1="159.212" x2="248.316" y2="159.212"/><line x1="246.42" y1="157.316" x2="246.42" y2="161.108"/><line x1="244.524" y1="157.316" x2="248.316" y2="161.108"/><line x1="244.524" y1="161.108" x2="248.316" y2="157.316"/>
<line x1="244.977" y1="153.886" x2="248.769" y2="153.886"/><line x1="246.873" y1="151.99" x2="246.873" y2="155.783"/><line x1="244.977" y1="151.99" x2="248.769" y2="155.783"/><line x1="244.977" y1="155.783" x2="248.769" y2="151.99"/>
<line x1="245.43" y1="155.29" x2="249.222" y2="155.29"/><line x1="247.326" y1="153.394" x2="247.326" y2="157.187"/><line x1="245.43" y1="153.394" x2="249.222" y2="157.187"/><line x1="245.43" y1="157.187" x2="249.222" y2="153.394"/>
<line x1="245.883" y1="165.032" x2="249.675" y2="165.032"/><line x1="247.779" y1="163.136" x2="247.779" y2="166.928"/><line x1="245.883" y1="163.136" x2="249.675" y2="166.928"/><line x1="245.883" y1="166.928" x2="249.675" y2="163.136"/>
<line x1="246.337" y1="164.063" x2="250.129" y2="164.063"/><line x1="248.233" y1="162.167" x2="248.233" y2="165.959"/><line x1="246.337" y1="162.167" x2="250.129" y2="165.959"/><line x1="246.337" y1="165.959" x2="250.129" y2="162.167"/>
<line x1="246.79" y1="166.048" x2="250.582" y2="166.048"/><line x1="248.686" y1="164.152" x2="248.686" y2="167.945"/><line x1="246.79" y1="164.152" x2="250.582" y2="167.945"/><line x1="246.79" y1="167.945" x2="250.582" y2="164.152"/>
<line x1="247.243" y1="171.098" x2="251.035" y2="171.098"/><line x1="249.139" y1="169.202" x2="249.139" y2="172.994"/><line x1="247.243" y1="169.202" x2="251.035" y2="172.994"/><line x1="247.243" y1="172.994" x2="251.035" y2="169.202"/>
<line x1="247.696" y1="179.899" x2="251.488" y2="179.899"/><line x1="249.592" y1="178.003" x2="249.592" y2="181.795"/><line x1="247.696" y1="178.003" x2="251.488" y2="181.795"/><line x1="247.696" y1="181.795" x2="251.488" y2="178.003"/>
<line x1="248.149" y1="192.506" x2="251.942" y2="192.506"/><line x1="250.046" y1="190.61" x2="250.046" y2="194.403"/><line x1="248.149" y1="190.61" x2="251.942" y2="194.403"/><line x1="248.149" y1="194.403" x2="251.942" y2="190.61"/>
<line x1="248.603" y1="205.878" x2="252.395" y2="205.878"/><line x1="250.499" y1="203.981" x2="250.499" y2="207.774"/><line x1="248.603" y1="203.981" x2="252.395" y2="207.774"/><line x1="248.603" y1="207.774" x2="252.395" y2="203.981"/>
<line x1="249.056" y1="206.061" x2="252.848" y2="206.061"/><line x1="250.952" y1="204.165" x2="250.952" y2="207.957"/><line x1="249.056" y1="204.165" x2="252.848" y2="207.957"/><line x1="249.056" y1="207.957" x2="252.848" y2="204.165"/>
<line x1="249.509" y1="207.706" x2="253.301" y2="207.706"/><line x1="251.405" y1="205.81" x2="251.405" y2="209.602"/><line x1="249.509" y1="205.81" x2="253.301" y2="209.602"/><line x1="249.509" y1="209.602" x2="253.301" y2="205.81"/>
<line x1="249.962" y1="218.293" x2="253.755" y2="218.293"/><line x1="251.858" y1="216.397" x2="251.858" y2="220.189"/><line x1="249.962" y1="216.397" x2="253.755" y2="220.189"/><line x1="249.962" y1="220.189" x2="253.755" y2="216.397"/>
<line x1="250.416" y1="211.066" x2="254.208" y2="211.066"/><line x1="252.312" y1="209.17" x2="252.312" y2="212.962"/><line x1="250.416" y1="209.17" x2="254.208" y2="212.962"/><line x1="250.416" y1="212.962" x2="254.208" y2="209.17"/>
<line x1="250.869" y1="223.097" x2="254.661" y2="223.097"/><line x1="252.765" y1="221.2" x2="252.765" y2="224.993"/><line x1="250.869" y1="221.2" x2="254.661" y2="224.993"/><line x1="250.869" y1="224.993" x2="254.661" y2="221.2"/>
<line x1="251.322" y1="223.718" x2="255.114" y2="223.718"/><line x1="253.218" y1="221.822" x2="253.218" y2="225.614"/><line x1="251.322" y1="221.822" x2="255.114" y2="225.614"/><line x1="251.322" y1="225.614" x2="255.114" y2="221.822"/>
<line x1="251.775" y1="213.881" x2="255.567" y2="213.881"/><line x1="253.671" y1="211.985" x2="253.671" y2="215.777"/><line x1="251.775" y1="211.985" x2="255.567" y2="215.777"/><line x1="251.775" y1="215.777" x2="255.567" y2="211.985"/>
<line x1="252.229" y1="222.23" x2="256.021" y2="222.23"/><line x1="254.125" y1="220.334" x2="254.125" y2="224.126"/><line x1="252.229" y1="220.334" x2="256.021" y2="224.126"/><line x1="252.229" y1="224.126" x2="256.021" y2="220.334"/>
<line x1="252.682" y1="206.803" x2="256.474" y2="206.803"/><line x1="254.578" y1="204.907" x2="254.578" y2="208.699"/><line x1="252.682" y1="204.907" x2="256.474" y2="208.699"/><line x1="252.682" y1="208.699" x2="256.474" y2="204.907"/>
<line x1="253.135" y1="205.537" x2="256.927" y2="205.537"/><line x1="255.031" y1="203.641" x2="255.031" y2="207.433"/><line x1="253.135" y1="203.641" x2="256.927" y2="207.433"/><line x1="253.135" y1="207.433" x2="256.927" y2="203.641"/>
<line x1="253.588" y1="207.296" x2="257.38" y2="207.296"/><line x1="255.484" y1="205.4" x2="255.484" y2="209.192"/><line x1="253.588" y1="205.4" x2="257.38" y2="209.192"/><line x1="253.588" y1="209.192" x2="257.38" y2="205.4"/>
<line x1="254.041" y1="213.804" x2="257.834" y2="213.804"/><line x1="255.937" y1="211.908" x2="255.937" y2="215.7"/><line x1="254.041" y1="211.908" x2="257.834" y2="215.7"/><line x1="254.041" y1="215.7" x2="257.834" y2="211.908"/>
<line x1="254.495" y1="217.714" x2="258.287" y2="217.714"/><line x1="256.391" y1="215.818" x2="256.391" y2="219.611"/><line x1="254.495" y1="215.818" x2="258.287" y2="219.611"/><line x1="254.495" y1="219.611" x2="258.287" y2="215.818"/>
<line x1="254.948" y1="222.548" x2="258.74" y2="222.548"/><line x1="256.844" y1="220.652" x2="256.844" y2="224.444"/><line x1="254.948" y1="220.652" x2="258.74" y2="224.444"/><line x1="254.948" y1="224.444" x2="258.74" y2="220.652"/>
<line x1="255.401" y1="231.326" x2="259.193" y2="231.326"/><line x1="257.297" y1="229.43" x2="257.297" y2="233.223"/><line x1="255.401" y1="229.43" x2="259.193" y2="233.223"/><line x1="255.401" y1="233.223" x2="259.193" y2="229.43"/>
<line x1="255.854" y1="230.831" x2="259.646" y2="230.831"/><line x1="257.75" y1="228.935" x2="257.75" y2="232.727"/><line x1="255.854" y1="228.935" x2="259.646" y2="232.727"/><line x1="255.854" y1="232.727" x2="259.646" y2="228.935"/>
<line x1="256.308" y1="229.719" x2="260.1" y2="229.719"/><line x1="258.204" y1="227.823" x2="258.204" y2="231.615"/><line x1="256.308" y1="227.823" x2="260.1" y2="231.615"/><line x1="256.308" y1="231.615" x2="260.1" y2="227.823"/>
<line x1="256.761" y1="237.172" x2="260.553" y2="237.172"/><line x1="258.657" y1="235.276" x2="258.657" y2="239.068"/><line x1="256.761" y1="235.276" x2="260.553" y2="239.068"/><line x1="256.761" y1="239.068" x2="260.553" y2="235.276"/>
<line x1="257.214" y1="234.927" x2="261.006" y2="234.927"/><line x1="259.11" y1="233.031" x2="259.11" y2="236.823"/><line x1="257.214" y1="233.031" x2="261.006" y2="236.823"/><line x1="257.214" y1="236.823" x2="261.006" y2="233.031"/>
<line x1="257.667" y1="242.376" x2="261.459" y2="242.376"/><line x1="259.563" y1="240.48" x2="259.563" y2="244.272"/><line x1="257.667" y1="240.48" x2="261.459" y2="244.272"/><line x1="257.667" y1="244.272" x2="261.459" y2="240.48"/>
<line x1="258.12" y1="242.532" x2="261.913" y2="242.532"/><line x1="260.017" y1="240.636" x2="260.017" y2="244.428"/><line x1="258.12" y1="240.636" x2="261.913" y2="244.428"/><line x1="258.12" y1="244.428" x2="261.913" y2="240.636"/>
<line x1="258.574" y1="241.139" x2="262.366" y2="241.139"/><line x1="260.47" y1="239.243" x2="260.47" y2="243.035"/><line x1="258.574" y1="239.243" x2="262.366" y2="243.035"/><line x1="258.574" y1="243.035" x2="262.366" y2="239.243"/>
<line x1="259.027" y1="234.085" x2="262.819" y2="234.085"/><line x1="260.923" y1="232.189" x2="260.923" y2="235.981"/><line x1="259.027" y1="232.189" x2="262.819" y2="235.981"/><line x1="259.027" y1="235.981" x2="262.819" y2="232.189"/>
<line x1="259.48" y1="233.726" x2="263.272" y2="233.726"/><line x1="261.376" y1="231.83" x2="261.376" y2="235.622"/><line x1="259.48" y1="231.83" x2="263.272" y2="235.622"/><line x1="259.48" y1="235.622" x2="263.272" y2="231.83"/>
<line x1="259.933" y1="239.436" x2="263.725" y2="239.436"/><line x1="261.829" y1="237.54" x2="261.829" y2="241.332"/><line x1="259.933" y1="237.54" x2="263.725" y2="241.332"/><line x1="259.933" y1="241.332" x2="263.725" y2="237.54"/>
<line x1="260.387" y1="249.509" x2="264.179" y2="249.509"/><line x1="262.283" y1="247.613" x2="262.283" y2="251.406"/><line x1="260.387" y1="247.613" x2="264.179" y2="251.406"/><line x1="260.387" y1="251.406" x2="264.179" y2="247.613"/>
<line x1="260.84" y1="249" x2="264.632" y2="249"/><line x1="262.736" y1="247.104" x2="262.736" y2="250.896"/><line x1="260.84" y1="247.104" x2="264.632" y2="250.896"/><line x1="260.84" y1="250.896" x2="264.632" y2="247.104"/>
<line x1="261.293" y1="255.605" x2="265.085" y2="255.605"/><line x1="263.189" y1="253.708" x2="263.189" y2="257.501"/><line x1="261.293" y1="253.708" x2="265.085" y2="257.501"/><line x1="261.293" y1="257.501" x2="265.085" y2="253.708"/>
<line x1="261.746" y1="260.448" x2="265.538" y2="260.448"/><line x1="263.642" y1="258.552" x2="263.642" y2="262.344"/><line x1="261.746" y1="258.552" x2="265.538" y2="262.344"/><line x1="261.746" y1="262.344" x2="265.538" y2="258.552"/>
<line x1="262.199" y1="269.631" x2="265.992" y2="269.631"/><line x1="264.096" y1="267.735" x2="264.096" y2="271.527"/><line x1="262.199" y1="267.735" x2="265.992" y2="271.527"/><line x1="262.199" y1="271.527" x2="265.992" y2="267.735"/>
<line x1="262.653" y1="264.913" x2="266.445" y2="264.913"/><line x1="264.549" y1="263.017" x2="264.549" y2="266.809"/><line x1="262.653" y1="263.017" x2="266.445" y2="266.809"/><line x1="262.653" y1="266.809" x2="266.445" y2="263.017"/>
<line x1="263.106" y1="255.642" x2="266.898" y2="255.642"/><line x1="265.002" y1="253.746" x2="265.002" y2="257.538"/><line x1="263.106" y1="253.746" x2="266.898" y2="257.538"/><line x1="263.106" y1="257.538" x2="266.898" y2="253.746"/>
<line x1="263.559" y1="259.529" x2="267.351" y2="259.529"/><line x1="265.455" y1="257.633" x2="265.455" y2="261.425"/><line x1="263.559" y1="257.633" x2="267.351" y2="261.425"/><line x1="263.559" y1="261.425" x2="267.351" y2="257.633"/>
<line x1="264.012" y1="262.441" x2="267.805" y2="262.441"/><line x1="265.908" y1="260.545" x2="265.908" y2="264.337"/><line x1="264.012" y1="260.545" x2="267.805" y2="264.337"/><line x1="264.012" y1="264.337" x2="267.805" y2="260.545"/>
<line x1="264.466" y1="260.401" x2="268.258" y2="260.401"/><line x1="266.362" y1="258.504" x2="266.362" y2="262.297"/><line x1="264.466" y1="258.504" x2="268.258" y2="262.297"/><line x1="264.466" y1="262.297" x2="268.258" y2="258.504"/>
<line x1="264.919" y1="266.286" x2="268.711" y2="266.286"/><line x1="266.815" y1="264.39" x2="266.815" y2="268.182"/><line x1="264.919" y1="264.39" x2="268.711" y2="268.182"/><line x1="264.919" y1="268.182" x2="268.711" y2="264.39"/>
<line x1="265.372" y1="261.75" x2="269.164" y2="261.75"/><line x1="267.268" y1="259.854" x2="267.268" y2="263.646"/><line x1="265.372" y1="259.854" x2="269.164" y2="263.646"/><line x1="265.372" y1="263.646" x2="269.164" y2="259.854"/>
<line x1="265.825" y1="269.371" x2="269.617" y2="269.371"/><line x1="267.721" y1="267.475" x2="267.721" y2="271.267"/><line x1="265.825" y1="267.475" x2="269.617" y2="271.267"/><line x1="265.825" y1="271.267" x2="269.617" y2="267.475"/>
<line x1="266.279" y1="272.856" x2="270.071" y2="272.856"/><line x1="268.175" y1="270.96" x2="268.175" y2="274.753"/><line x1="266.279" y1="270.96" x2="270.071" y2="274.753"/><line x1="266.279" y1="274.753" x2="270.071" y2="270.96"/>
<line x1="266.732" y1="274.695" x2="270.524" y2="274.695"/><line x1="268.628" y1="272.799" x2="268.628" y2="276.591"/><line x1="266.732" y1="272.799" x2="270.524" y2="276.591"/><line x1="266.732" y1="276.591" x2="270.524" y2="272.799"/>
<line x1="267.185" y1="277.469" x2="270.977" y2="277.469"/><line x1="269.081" y1="275.573" x2="269.081" y2="279.365"/><line x1="267.185" y1="275.573" x2="270.977" y2="279.365"/><line x1="267.185" y1="279.365" x2="270.977" y2="275.573"/>
<line x1="267.638" y1="280.83" x2="271.43" y2="280.83"/><line x1="269.534" y1="278.934" x2="269.534" y2="282.727"/><line x1="267.638" y1="278.934" x2="271.43" y2="282.727"/><line x1="267.638" y1="282.727" x2="271.43" y2="278.934"/>
<line x1="268.091" y1="285.249" x2="271.884" y2="285.249"/><line x1="269.987" y1="283.353" x2="269.987" y2="287.145"/><line x1="268.091" y1="283.353" x2="271.884" y2="287.145"/><line x1="268.091" y1="287.145" x2="271.884" y2="283.353"/>
<line x1="268.545" y1="279.814" x2="272.337" y2="279.814"/><line x1="270.441" y1="277.918" x2="270.441" y2="281.71"/><line x1="268.545" y1="277.918" x2="272.337" y2="281.71"/><line x1="268.545" y1="281.71" x2="272.337" y2="277.918"/>
<line x1="268.998" y1="283.607" x2="272.79" y2="283.607"/><line x1="270.894" y1="281.711" x2="270.894" y2="285.504"/><line x1="268.998" y1="281.711" x2="272.79" y2="285.504"/><line x1="268.998" y1="285.504" x2="272.79" y2="281.711"/>
<line x1="269.451" y1="289.036" x2="273.243" y2="289.036"/><line x1="271.347" y1="287.14" x2="271.347" y2="290.932"/><line x1="269.451" y1="287.14" x2="273.243" y2="290.932"/><line x1="269.451" y1="290.932" x2="273.243" y2="287.14"/>
<line x1="269.904" y1="286.508" x2="273.696" y2="286.508"/><line x1="271.8" y1="284.612" x2="271.8" y2="288.404"/><line x1="269.904" y1="284.612" x2="273.696" y2="288.404"/><line x1="269.904" y1="288.404" x2="273.696" y2="284.612"/>
<line x1="270.358" y1="290.706" x2="274.15" y2="290.706"/><line x1="272.254" y1="288.81" x2="272.254" y2="292.602"/><line x1="270.358" y1="288.81" x2="274.15" y2="292.602"/><line x1="270.358" y1="292.602" x2="274.15" y2="288.81"/>
<line x1="270.811" y1="286.611" x2="274.603" y2="286.611"/><line x1="272.707" y1="284.715" x2="272.707" y2="288.507"/><line x1="270.811" y1="284.715" x2="274.603" y2="288.507"/><line x1="270.811" y1="288.507" x2="274.603" y2="284.715"/>
<line x1="271.264" y1="289.554" x2="275.056" y2="289.554"/><line x1="273.16" y1="287.658" x2="273.16" y2="291.451"/><line x1="271.264" y1="287.658" x2="275.056" y2="291.451"/><line x1="271.264" y1="291.451" x2="275.056" y2="287.658"/>
<line x1="271.717" y1="286.205" x2="275.509" y2="286.205"/><line x1="273.613" y1="284.309" x2="273.613" y2="288.101"/><line x1="271.717" y1="284.309" x2="275.509" y2="288.101"/><line x1="271.717" y1="288.101" x2="275.509" y2="284.309"/>
<line x1="272.17" y1="287.433" x2="275.963" y2="287.433"/><line x1="274.067" y1="285.537" x2="274.067" y2="289.329"/><line x1="272.17" y1="285.537" x2="275.963" y2="289.329"/><line x1="272.17" y1="289.329" x2="275.963" y2="285.537"/>
<line x1="272.624" y1="301.651" x2="276.416" y2="301.651"/><line x1="274.52" y1="299.755" x2="274.52" y2="303.547"/><line x1="272.624" y1="299.755" x2="276.416" y2="303.547"/><line x1="272.624" y1="303.547" x2="276.416" y2="299.755"/>
<line x1="273.077" y1="299.09" x2="276.869" y2="299.09"/><line x1="274.973" y1="297.193" x2="274.973" y2="300.986"/><line x1="273.077" y1="297.193" x2="276.869" y2="300.986"/><line x1="273.077" y1="300.986" x2="276.869" y2="297.193"/>
<line x1="273.53" y1="302.38" x2="277.322" y2="302.38"/><line x1="275.426" y1="300.484" x2="275.426" y2="304.276"/><line x1="273.53" y1="300.484" x2="277.322" y2="304.276"/><line x1="273.53" y1="304.276" x2="277.322" y2="300.484"/>
<line x1="273.983" y1="301.966" x2="277.776" y2="301.966"/><line x1="275.879" y1="300.07" x2="275.879" y2="303.862"/><line x1="273.983" y1="300.07" x2="277.776" y2="303.862"/><line x1="273.983" y1="303.862" x2="277.776" y2="300.07"/>
<line x1="274.437" y1="306.347" x2="278.229" y2="306.347"/><line x1="276.333" y1="304.451" x2="276.333" y2="308.243"/><line x1="274.437" y1="304.451" x2="278.229" y2="308.243"/><line x1="274.437" y1="308.243" x2="278.229" y2="304.451"/>
<line x1="274.89" y1="305.769" x2="278.682" y2="305.769"/><line x1="276.786" y1="303.873" x2="276.786" y2="307.665"/><line x1="274.89" y1="303.873" x2="278.682" y2="307.665"/><line x1="274.89" y1="307.665" x2="278.682" y2="303.873"/>
<line x1="275.343" y1="312.579" x2="279.135" y2="312.579"/><line x1="277.239" y1="310.682" x2="277.239" y2="314.475"/><line x1="275.343" y1="310.682" x2="279.135" y2="314.475"/><line x1="275.343" y1="314.475" x2="279.135" y2="310.682"/>
<line x1="275.796" y1="312.587" x2="279.588" y2="312.587"/><line x1="277.692" y1="310.691" x2="277.692" y2="314.484"/><line x1="275.796" y1="310.691" x2="279.588" y2="314.484"/><line x1="275.796" y1="314.484" x2="279.588" y2="310.691"/>
<line x1="276.249" y1="312.098" x2="280.042" y2="312.098"/><line x1="278.146" y1="310.202" x2="278.146" y2="313.995"/><line x1="276.249" y1="310.202" x2="280.042" y2="313.995"/><line x1="276.249" y1="313.995" x2="280.042" y2="310.202"/>
<line x1="276.703" y1="315.275" x2="280.495" y2="315.275"/><line x1="278.599" y1="313.379" x2="278.599" y2="317.171"/><line x1="276.703" y1="313.379" x2="280.495" y2="317.171"/><line x1="276.703" y1="317.171" x2="280.495" y2="313.379"/>
<line x1="277.156" y1="321.887" x2="280.948" y2="321.887"/><line x1="279.052" y1="319.991" x2="279.052" y2="323.783"/><line x1="277.156" y1="319.991" x2="280.948" y2="323.783"/><line x1="277.156" y1="323.783" x2="280.948" y2="319.991"/>
<line x1="277.609" y1="326.184" x2="281.401" y2="326.184"/><line x1="279.505" y1="324.288" x2="279.505" y2="328.08"/><line x1="277.609" y1="324.288" x2="281.401" y2="328.08"/><line x1="277.609" y1="328.08" x2="281.401" y2="324.288"/>
<line x1="278.062" y1="317.254" x2="281.855" y2="317.254"/><line x1="279.958" y1="315.358" x2="279.958" y2="319.15"/><line x1="278.062" y1="315.358" x2="281.855" y2="319.15"/><line x1="278.062" y1="319.15" x2="281.855" y2="315.358"/>
<line x1="278.516" y1="323.512" x2="282.308" y2="323.512"/><line x1="280.412" y1="321.616" x2="280.412" y2="325.408"/><line x1="278.516" y1="321.616" x2="282.308" y2="325.408"/><line x1="278.516" y1="325.408" x2="282.308" y2="321.616"/>
<line x1="278.969" y1="324.383" x2="282.761" y2="324.383"/><line x1="280.865" y1="322.487" x2="280.865" y2="326.28"/><line x1="278.969" y1="322.487" x2="282.761" y2="326.28"/><line x1="278.969" y1="326.28" x2="282.761" y2="322.487"/>
<line x1="279.422" y1="331.138" x2="283.214" y2="331.138"/><line x1="281.318" y1="329.242" x2="281.318" y2="333.034"/><line x1="279.422" y1="329.242" x2="283.214" y2="333.034"/><line x1="279.422" y1="333.034" x2="283.214" y2="329.242"/>
<line x1="279.875" y1="331.007" x2="283.667" y2="331.007"/><line x1="281.771" y1="329.111" x2="281.771" y2="332.903"/><line x1="279.875" y1="329.111" x2="283.667" y2="332.903"/><line x1="279.875" y1="332.903" x2="283.667" y2="329.111"/>
<line x1="280.329" y1="333.519" x2="284.121" y2="333.519"/><line x1="282.225" y1="331.623" x2="282.225" y2="335.415"/><line x1="280.329" y1="331.623" x2="284.121" y2="335.415"/><line x1="280.329" y1="335.415" x2="284.121" y2="331.623"/>
<line x1="280.782" y1="335.4" x2="284.574" y2="335.4"/><line x1="282.678" y1="333.504" x2="282.678" y2="337.296"/><line x1="280.782" y1="333.504" x2="284.574" y2="337.296"/><line x1="280.782" y1="337.296" x2="284.574" y2="333.504"/>
<line x1="281.235" y1="344.927" x2="285.027" y2="344.927"/><line x1="283.131" y1="343.031" x2="283.131" y2="346.823"/><line x1="281.235" y1="343.031" x2="285.027" y2="346.823"/><line x1="281.235" y1="346.823" x2="285.027" y2="343.031"/>
<line x1="281.688" y1="351.52" x2="285.48" y2="351.52"/><line x1="283.584" y1="349.624" x2="283.584" y2="353.416"/><line x1="281.688" y1="349.624" x2="285.48" y2="353.416"/><line x1="281.688" y1="353.416" x2="285.48" y2="349.624"/>
<line x1="282.141" y1="356.265" x2="285.934" y2="356.265"/><line x1="284.038" y1="354.369" x2="284.038" y2="358.161"/><line x1="282.141" y1="354.369" x2="285.934" y2="358.161"/><line x1="282.141" y1="358.161" x2="285.934" y2="354.369"/>
<line x1="282.595" y1="355.384" x2="286.387" y2="355.384"/><line x1="284.491" y1="353.488" x2="284.491" y2="357.28"/><line x1="282.595" y1="353.488" x2="286.387" y2="357.28"/><line x1="282.595" y1="357.28" x2="286.387" y2="353.488"/>
<line x1="283.048" y1="354.26" x2="286.84" y2="354.26"/><line x1="284.944" y1="352.363" x2="284.944" y2="356.156"/><line x1="283.048" y1="352.363" x2="286.84" y2="356.156"/><line x1="283.048" y1="356.156" x2="286.84" y2="352.363"/>
<line x1="283.501" y1="350.644" x2="287.293" y2="350.644"/><line x1="285.397" y1="348.748" x2="285.397" y2="352.54"/><line x1="283.501" y1="348.748" x2="287.293" y2="352.54"/><line x1="283.501" y1="352.54" x2="287.293" y2="348.748"/>
<line x1="283.954" y1="348.241" x2="287.746" y2="348.241"/><line x1="285.85" y1="346.345" x2="285.85" y2="350.137"/><line x1="283.954" y1="346.345" x2="287.746" y2="350.137"/><line x1="283.954" y1="350.137" x2="287.746" y2="346.345"/>
<line x1="284.408" y1="351.1" x2="288.2" y2="351.1"/><line x1="286.304" y1="349.204" x2="286.304" y2="352.996"/><line x1="284.408" y1="349.204" x2="288.2" y2="352.996"/><line x1="284.408" y1="352.996" x2="288.2" y2="349.204"/>
<line x1="284.861" y1="344.848" x2="288.653" y2="344.848"/><line x1="286.757" y1="342.952" x2="286.757" y2="346.744"/><line x1="284.861" y1="342.952" x2="288.653" y2="346.744"/><line x1="284.861" y1="346.744" x2="288.653" y2="342.952"/>
<line x1="285.314" y1="341.56" x2="289.106" y2="341.56"/><line x1="287.21" y1="339.664" x2="287.21" y2="343.456"/><line x1="285.314" y1="339.664" x2="289.106" y2="343.456"/><line x1="285.314" y1="343.456" x2="289.106" y2="339.664"/>
<line x1="285.767" y1="332.699" x2="289.559" y2="332.699"/><line x1="287.663" y1="330.802" x2="287.663" y2="334.595"/><line x1="285.767" y1="330.802" x2="289.559" y2="334.595"/><line x1="285.767" y1="334.595" x2="289.559" y2="330.802"/>
<line x1="286.22" y1="339.961" x2="290.013" y2="339.961"/><line x1="288.117" y1="338.064" x2="288.117" y2="341.857"/><line x1="286.22" y1="338.064" x2="290.013" y2="341.857"/><line x1="286.22" y1="341.857" x2="290.013" y2="338.064"/>
<line x1="286.674" y1="337.42" x2="290.466" y2="337.42"/><line x1="288.57" y1="335.523" x2="288.57" y2="339.316"/><line x1="286.674" y1="335.523" x2="290.466" y2="339.316"/><line x1="286.674" y1="339.316" x2="290.466" y2="335.523"/>
<line x1="287.127" y1="339.018" x2="290.919" y2="339.018"/><line x1="289.023" y1="337.122" x2="289.023" y2="340.914"/><line x1="287.127" y1="337.122" x2="290.919" y2="340.914"/><line x1="287.127" y1="340.914" x2="290.919" y2="337.122"/>
<line x1="287.58" y1="335.74" x2="291.372" y2="335.74"/><line x1="289.476" y1="333.844" x2="289.476" y2="337.637"/><line x1="287.58" y1="333.844" x2="291.372" y2="337.637"/><line x1="287.58" y1="337.637" x2="291.372" y2="333.844"/>
<line x1="288.033" y1="331.566" x2="291.826" y2="331.566"/><line x1="289.929" y1="329.67" x2="289.929" y2="333.462"/><line x1="288.033" y1="329.67" x2="291.826" y2="333.462"/><line x1="288.033" y1="333.462" x2="291.826" y2="329.67"/>
<line x1="288.487" y1="341.382" x2="292.279" y2="341.382"/><line x1="290.383" y1="339.486" x2="290.383" y2="343.278"/><line x1="288.487" y1="339.486" x2="292.279" y2="343.278"/><line x1="288.487" y1="343.278" x2="292.279" y2="339.486"/>
<line x1="288.94" y1="338.855" x2="292.732" y2="338.855"/><line x1="290.836" y1="336.959" x2="290.836" y2="340.751"/><line x1="288.94" y1="336.959" x2="292.732" y2="340.751"/><line x1="288.94" y1="340.751" x2="292.732" y2="336.959"/>
<line x1="289.393" y1="335.333" x2="293.185" y2="335.333"/><line x1="291.289" y1="333.437" x2="291.289" y2="337.229"/><line x1="289.393" y1="333.437" x2="293.185" y2="337.229"/><line x1="289.393" y1="337.229" x2="293.185" y2="333.437"/>
<line x1="289.846" y1="334.647" x2="293.638" y2="334.647"/><line x1="291.742" y1="332.751" x2="291.742" y2="336.543"/><line x1="289.846" y1="332.751" x2="293.638" y2="336.543"/><line x1="289.846" y1="336.543" x2="293.638" y2="332.751"/>
<line x1="290.299" y1="334.351" x2="294.092" y2="334.351"/><line x1="292.196" y1="332.455" x2="292.196" y2="336.247"/><line x1="290.299" y1="332.455" x2="294.092" y2="336.247"/><line x1="290.299" y1="336.247" x2="294.092" y2="332.455"/>
<line x1="290.753" y1="336.635" x2="294.545" y2="336.635"/><line x1="292.649" y1="334.739" x2="292.649" y2="338.531"/><line x1="290.753" y1="334.739" x2="294.545" y2="338.531"/><line x1="290.753" y1="338.531" x2="294.545" y2="334.739"/>
<line x1="291.206" y1="327.503" x2="294.998" y2="327.503"/><line x1="293.102" y1="325.607" x2="293.102" y2="329.399"/><line x1="291.206" y1="325.607" x2="294.998" y2="329.399"/><line x1="291.206" y1="329.399" x2="294.998" y2="325.607"/>
<line x1="291.659" y1="322.632" x2="295.451" y2="322.632"/><line x1="293.555" y1="320.736" x2="293.555" y2="324.528"/><line x1="291.659" y1="320.736" x2="295.451" y2="324.528"/><line x1="291.659" y1="324.528" x2="295.451" y2="320.736"/>
<line x1="292.112" y1="322.562" x2="295.905" y2="322.562"/><line x1="294.008" y1="320.666" x2="294.008" y2="324.458"/><line x1="292.112" y1="320.666" x2="295.905" y2="324.458"/><line x1="292.112" y1="324.458" x2="295.905" y2="320.666"/>
<line x1="292.566" y1="315.344" x2="296.358" y2="315.344"/><line x1="294.462" y1="313.448" x2="294.462" y2="317.24"/><line x1="292.566" y1="313.448" x2="296.358" y2="317.24"/><line x1="292.566" y1="317.24" x2="296.358" y2="313.448"/>
<line x1="293.019" y1="319.671" x2="296.811" y2="319.671"/><line x1="294.915" y1="317.775" x2="294.915" y2="321.567"/><line x1="293.019" y1="317.775" x2="296.811" y2="321.567"/><line x1="293.019" y1="321.567" x2="296.811" y2="317.775"/>
<line x1="293.472" y1="317.105" x2="297.264" y2="317.105"/><line x1="295.368" y1="315.209" x2="295.368" y2="319.001"/><line x1="293.472" y1="315.209" x2="297.264" y2="319.001"/><line x1="293.472" y1="319.001" x2="297.264" y2="315.209"/>
<line x1="293.925" y1="312.375" x2="297.717" y2="312.375"/><line x1="295.821" y1="310.479" x2="295.821" y2="314.271"/><line x1="293.925" y1="310.479" x2="297.717" y2="314.271"/><line x1="293.925" y1="314.271" x2="297.717" y2="310.479"/>
<line x1="294.379" y1="315.321" x2="298.171" y2="315.321"/><line x1="296.275" y1="313.425" x2="296.275" y2="317.217"/><line x1="294.379" y1="313.425" x2="298.171" y2="317.217"/><line x1="294.379" y1="317.217" x2="298.171" y2="313.425"/>
<line x1="294.832" y1="323" x2="298.624" y2="323"/><line x1="296.728" y1="321.104" x2="296.728" y2="324.896"/><line x1="294.832" y1="321.104" x2="298.624" y2="324.896"/><line x1="294.832" y1="324.896" x2="298.624" y2="321.104"/>
<line x1="295.285" y1="320.074" x2="299.077" y2="320.074"/><line x1="297.181" y1="318.178" x2="297.181" y2="321.97"/><line x1="295.285" y1="318.178" x2="299.077" y2="321.97"/><line x1="295.285" y1="321.97" x2="299.077" y2="318.178"/>
<line x1="295.738" y1="328.992" x2="299.53" y2="328.992"/><line x1="297.634" y1="327.096" x2="297.634" y2="330.888"/><line x1="295.738" y1="327.096" x2="299.53" y2="330.888"/><line x1="295.738" y1="330.888" x2="299.53" y2="327.096"/>
<line x1="296.191" y1="325.221" x2="299.984" y2="325.221"/><line x1="298.087" y1="323.324" x2="298.087" y2="327.117"/><line x1="296.191" y1="323.324" x2="299.984" y2="327.117"/><line x1="296.191" y1="327.117" x2="299.984" y2="323.324"/>
<line x1="296.645" y1="338.455" x2="300.437" y2="338.455"/><line x1="298.541" y1="336.558" x2="298.541" y2="340.351"/><line x1="296.645" y1="336.558" x2="300.437" y2="340.351"/><line x1="296.645" y1="340.351" x2="300.437" y2="336.558"/>
<line x1="297.098" y1="328.087" x2="300.89" y2="328.087"/><line x1="298.994" y1="326.191" x2="298.994" y2="329.984"/><line x1="297.098" y1="326.191" x2="300.89" y2="329.984"/><line x1="297.098" y1="329.984" x2="300.89" y2="326.191"/>
<line x1="297.551" y1="329.869" x2="301.343" y2="329.869"/><line x1="299.447" y1="327.973" x2="299.447" y2="331.765"/><line x1="297.551" y1="327.973" x2="301.343" y2="331.765"/><line x1="297.551" y1="331.765" x2="301.343" y2="327.973"/>
<line x1="298.004" y1="328.551" x2="301.797" y2="328.551"/><line x1="299.9" y1="326.655" x2="299.9" y2="330.447"/><line x1="298.004" y1="326.655" x2="301.797" y2="330.447"/><line x1="298.004" y1="330.447" x2="301.797" y2="326.655"/>
<line x1="298.458" y1="333.745" x2="302.25" y2="333.745"/><line x1="300.354" y1="331.849" x2="300.354" y2="335.641"/><line x1="298.458" y1="331.849" x2="302.25" y2="335.641"/><line x1="298.458" y1="335.641" x2="302.25" y2="331.849"/>
<line x1="298.911" y1="317.911" x2="302.703" y2="317.911"/><line x1="300.807" y1="316.015" x2="300.807" y2="319.807"/><line x1="298.911" y1="316.015" x2="302.703" y2="319.807"/><line x1="298.911" y1="319.807" x2="302.703" y2="316.015"/>
<line x1="299.364" y1="321.384" x2="303.156" y2="321.384"/><line x1="301.26" y1="319.488" x2="301.26" y2="323.28"/><line x1="299.364" y1="319.488" x2="303.156" y2="323.28"/><line x1="299.364" y1="323.28" x2="303.156" y2="319.488"/>
<line x1="299.817" y1="317.419" x2="303.609" y2="317.419"/><line x1="301.713" y1="315.523" x2="301.713" y2="319.315"/><line x1="299.817" y1="315.523" x2="303.609" y2="319.315"/><line x1="299.817" y1="319.315" x2="303.609" y2="315.523"/>
<line x1="300.27" y1="319.146" x2="304.063" y2="319.146"/><line x1="302.167" y1="317.25" x2="302.167" y2="321.042"/><line x1="300.27" y1="317.25" x2="304.063" y2="321.042"/><line x1="300.27" y1="321.042" x2="304.063" y2="317.25"/>
<line x1="300.724" y1="320.038" x2="304.516" y2="320.038"/><line x1="302.62" y1="318.142" x2="302.62" y2="321.934"/><line x1="300.724" y1="318.142" x2="304.516" y2="321.934"/><line x1="300.724" y1="321.934" x2="304.516" y2="318.142"/>
<line x1="301.177" y1="316.847" x2="304.969" y2="316.847"/><line x1="303.073" y1="314.951" x2="303.073" y2="318.743"/><line x1="301.177" y1="314.951" x2="304.969" y2="318.743"/><line x1="301.177" y1="318.743" x2="304.969" y2="314.951"/>
<line x1="301.63" y1="316.378" x2="305.422" y2="316.378"/><line x1="303.526" y1="314.482" x2="303.526" y2="318.274"/><line x1="301.63" y1="314.482" x2="305.422" y2="318.274"/><line x1="301.63" y1="318.274" x2="305.422" y2="314.482"/>
<line x1="302.083" y1="306.145" x2="305.876" y2="306.145"/><line x1="303.979" y1="304.249" x2="303.979" y2="308.041"/><line x1="302.083" y1="304.249" x2="305.876" y2="308.041"/><line x1="302.083" y1="308.041" x2="305.876" y2="304.249"/>
<line x1="302.537" y1="288.587" x2="306.329" y2="288.587"/><line x1="304.433" y1="286.691" x2="304.433" y2="290.483"/><line x1="302.537" y1="286.691" x2="306.329" y2="290.483"/><line x1="302.537" y1="290.483" x2="306.329" y2="286.691"/>
<line x1="302.99" y1="286.304" x2="306.782" y2="286.304"/><line x1="304.886" y1="284.408" x2="304.886" y2="288.2"/><line x1="302.99" y1="284.408" x2="306.782" y2="288.2"/><line x1="302.99" y1="288.2" x2="306.782" y2="284.408"/>
<line x1="303.443" y1="298.92" x2="307.235" y2="298.92"/><line x1="305.339" y1="297.024" x2="305.339" y2="300.816"/><line x1="303.443" y1="297.024" x2="307.235" y2="300.816"/><line x1="303.443" y1="300.816" x2="307.235" y2="297.024"/>
<line x1="303.896" y1="293.369" x2="307.688" y2="293.369"/><line x1="305.792" y1="291.473" x2="305.792" y2="295.265"/><line x1="303.896" y1="291.473" x2="307.688" y2="295.265"/><line x1="303.896" y1="295.265" x2="307.688" y2="291.473"/>
<line x1="304.349" y1="293.057" x2="308.142" y2="293.057"/><line x1="306.246" y1="291.161" x2="306.246" y2="294.954"/><line x1="304.349" y1="291.161" x2="308.142" y2="294.954"/><line x1="304.349" y1="294.954" x2="308.142" y2="291.161"/>
<line x1="304.803" y1="299.576" x2="308.595" y2="299.576"/><line x1="306.699" y1="297.68" x2="306.699" y2="301.472"/><line x1="304.803" y1="297.68" x2="308.595" y2="301.472"/><line x1="304.803" y1="301.472" x2="308.595" y2="297.68"/>
<line x1="305.256" y1="307.078" x2="309.048" y2="307.078"/><line x1="307.152" y1="305.182" x2="307.152" y2="308.974"/><line x1="305.256" y1="305.182" x2="309.048" y2="308.974"/><line x1="305.256" y1="308.974" x2="309.048" y2="305.182"/>
<line x1="305.709" y1="307.476" x2="309.501" y2="307.476"/><line x1="307.605" y1="305.58" x2="307.605" y2="309.372"/><line x1="305.709" y1="305.58" x2="309.501" y2="309.372"/><line x1="305.709" y1="309.372" x2="309.501" y2="305.58"/>
<line x1="306.162" y1="310.839" x2="309.955" y2="310.839"/><line x1="308.058" y1="308.943" x2="308.058" y2="312.735"/><line x1="306.162" y1="308.943" x2="309.955" y2="312.735"/><line x1="306.162" y1="312.735" x2="309.955" y2="308.943"/>
<line x1="306.616" y1="310.655" x2="310.408" y2="310.655"/><line x1="308.512" y1="308.759" x2="308.512" y2="312.551"/><line x1="306.616" y1="308.759" x2="310.408" y2="312.551"/><line x1="306.616" y1="312.551" x2="310.408" y2="308.759"/>
<line x1="307.069" y1="300.14" x2="310.861" y2="300.14"/><line x1="308.965" y1="298.244" x2="308.965" y2="302.036"/><line x1="307.069" y1="298.244" x2="310.861" y2="302.036"/><line x1="307.069" y1="302.036" x2="310.861" y2="298.244"/>
<line x1="307.522" y1="302.44" x2="311.314" y2="302.44"/><line x1="309.418" y1="300.544" x2="309.418" y2="304.336"/><line x1="307.522" y1="300.544" x2="311.314" y2="304.336"/><line x1="307.522" y1="304.336" x2="311.314" y2="300.544"/>
<line x1="307.975" y1="304.946" x2="311.767" y2="304.946"/><line x1="309.871" y1="303.05" x2="309.871" y2="306.842"/><line x1="307.975" y1="303.05" x2="311.767" y2="306.842"/><line x1="307.975" y1="306.842" x2="311.767" y2="303.05"/>
<line x1="308.429" y1="302.955" x2="312.221" y2="302.955"/><line x1="310.325" y1="301.059" x2="310.325" y2="304.851"/><line x1="308.429" y1="301.059" x2="312.221" y2="304.851"/><line x1="308.429" y1="304.851" x2="312.221" y2="301.059"/>
<line x1="308.882" y1="305.389" x2="312.674" y2="305.389"/><line x1="310.778" y1="303.493" x2="310.778" y2="307.285"/><line x1="308.882" y1="303.493" x2="312.674" y2="307.285"/><line x1="308.882" y1="307.285" x2="312.674" y2="303.493"/>
<line x1="309.335" y1="303.754" x2="313.127" y2="303.754"/><line x1="311.231" y1="301.858" x2="311.231" y2="305.65"/><line x1="309.335" y1="301.858" x2="313.127" y2="305.65"/><line x1="309.335" y1="305.65" x2="313.127" y2="301.858"/>
<line x1="309.788" y1="306.068" x2="313.58" y2="306.068"/><line x1="311.684" y1="304.172" x2="311.684" y2="307.964"/><line x1="309.788" y1="304.172" x2="313.58" y2="307.964"/><line x1="309.788" y1="307.964" x2="313.58" y2="304.172"/>
<line x1="310.241" y1="299.239" x2="314.034" y2="299.239"/><line x1="312.138" y1="297.343" x2="312.138" y2="301.135"/><line x1="310.241" y1="297.343" x2="314.034" y2="301.135"/><line x1="310.241" y1="301.135" x2="314.034" y2="297.343"/>
<line x1="310.695" y1="304.496" x2="314.487" y2="304.496"/><line x1="312.591" y1="302.6" x2="312.591" y2="306.392"/><line x1="310.695" y1="302.6" x2="314.487" y2="306.392"/><line x1="310.695" y1="306.392" x2="314.487" y2="302.6"/>
<line x1="311.148" y1="305.491" x2="314.94" y2="305.491"/><line x1="313.044" y1="303.595" x2="313.044" y2="307.387"/><line x1="311.148" y1="303.595" x2="314.94" y2="307.387"/><line x1="311.148" y1="307.387" x2="314.94" y2="303.595"/>
<line x1="311.601" y1="301.035" x2="315.393" y2="301.035"/><line x1="313.497" y1="299.139" x2="313.497" y2="302.931"/><line x1="311.601" y1="299.139" x2="315.393" y2="302.931"/><line x1="311.601" y1="302.931" x2="315.393" y2="299.139"/>
<line x1="312.054" y1="297.201" x2="315.846" y2="297.201"/><line x1="313.95" y1="295.305" x2="313.95" y2="299.098"/><line x1="312.054" y1="295.305" x2="315.846" y2="299.098"/><line x1="312.054" y1="299.098" x2="315.846" y2="295.305"/>
<line x1="312.508" y1="303.081" x2="316.3" y2="303.081"/><line x1="314.404" y1="301.185" x2="314.404" y2="304.977"/><line x1="312.508" y1="301.185" x2="316.3" y2="304.977"/><line x1="312.508" y1="304.977" x2="316.3" y2="301.185"/>
<line x1="312.961" y1="299.613" x2="316.753" y2="299.613"/><line x1="314.857" y1="297.717" x2="314.857" y2="301.509"/><line x1="312.961" y1="297.717" x2="316.753" y2="301.509"/><line x1="312.961" y1="301.509" x2="316.753" y2="297.717"/>
<line x1="313.414" y1="305.542" x2="317.206" y2="305.542"/><line x1="315.31" y1="303.645" x2="315.31" y2="307.438"/><line x1="313.414" y1="303.645" x2="317.206" y2="307.438"/><line x1="313.414" y1="307.438" x2="317.206" y2="303.645"/>
<line x1="313.867" y1="305.904" x2="317.659" y2="305.904"/><line x1="315.763" y1="304.008" x2="315.763" y2="307.8"/><line x1="313.867" y1="304.008" x2="317.659" y2="307.8"/><line x1="313.867" y1="307.8" x2="317.659" y2="304.008"/>
<line x1="314.32" y1="308.165" x2="318.113" y2="308.165"/><line x1="316.217" y1="306.269" x2="316.217" y2="310.061"/><line x1="314.32" y1="306.269" x2="318.113" y2="310.061"/><line x1="314.32" y1="310.061" x2="318.113" y2="306.269"/>
<line x1="314.774" y1="309.457" x2="318.566" y2="309.457"/><line x1="316.67" y1="307.561" x2="316.67" y2="311.353"/><line x1="314.774" y1="307.561" x2="318.566" y2="311.353"/><line x1="314.774" y1="311.353" x2="318.566" y2="307.561"/>
<line x1="315.227" y1="314.934" x2="319.019" y2="314.934"/><line x1="317.123" y1="313.038" x2="317.123" y2="316.831"/><line x1="315.227" y1="313.038" x2="319.019" y2="316.831"/><line x1="315.227" y1="316.831" x2="319.019" y2="313.038"/>
<line x1="315.68" y1="301.09" x2="319.472" y2="301.09"/><line x1="317.576" y1="299.194" x2="317.576" y2="302.986"/><line x1="315.68" y1="299.194" x2="319.472" y2="302.986"/><line x1="315.68" y1="302.986" x2="319.472" y2="299.194"/>
<line x1="316.133" y1="299.415" x2="319.926" y2="299.415"/><line x1="318.029" y1="297.519" x2="318.029" y2="301.311"/><line x1="316.133" y1="297.519" x2="319.926" y2="301.311"/><line x1="316.133" y1="301.311" x2="319.926" y2="297.519"/>
<line x1="316.587" y1="293.025" x2="320.379" y2="293.025"/><line x1="318.483" y1="291.129" x2="318.483" y2="294.921"/><line x1="316.587" y1="291.129" x2="320.379" y2="294.921"/><line x1="316.587" y1="294.921" x2="320.379" y2="291.129"/>
<line x1="317.04" y1="289.081" x2="320.832" y2="289.081"/><line x1="318.936" y1="287.185" x2="318.936" y2="290.977"/><line x1="317.04" y1="287.185" x2="320.832" y2="290.977"/><line x1="317.04" y1="290.977" x2="320.832" y2="287.185"/>
<line x1="317.493" y1="290.55" x2="321.285" y2="290.55"/><line x1="319.389" y1="288.654" x2="319.389" y2="292.447"/><line x1="317.493" y1="288.654" x2="321.285" y2="292.447"/><line x1="317.493" y1="292.447" x2="321.285" y2="288.654"/>
<line x1="317.946" y1="282.454" x2="321.738" y2="282.454"/><line x1="319.842" y1="280.557" x2="319.842" y2="284.35"/><line x1="317.946" y1="280.557" x2="321.738" y2="284.35"/><line x1="317.946" y1="284.35" x2="321.738" y2="280.557"/>
<line x1="318.4" y1="270.478" x2="322.192" y2="270.478"/><line x1="320.296" y1="268.581" x2="320.296" y2="272.374"/><line x1="318.4" y1="268.581" x2="322.192" y2="272.374"/><line x1="318.4" y1="272.374" x2="322.192" y2="268.581"/>
<line x1="318.853" y1="277.581" x2="322.645" y2="277.581"/><line x1="320.749" y1="275.685" x2="320.749" y2="279.478"/><line x1="318.853" y1="275.685" x2="322.645" y2="279.478"/><line x1="318.853" y1="279.478" x2="322.645" y2="275.685"/>
<line x1="319.306" y1="272.372" x2="323.098" y2="272.372"/><line x1="321.202" y1="270.476" x2="321.202" y2="274.268"/><line x1="319.306" y1="270.476" x2="323.098" y2="274.268"/><line x1="319.306" y1="274.268" x2="323.098" y2="270.476"/>
<line x1="319.759" y1="275.737" x2="323.551" y2="275.737"/><line x1="321.655" y1="273.841" x2="321.655" y2="277.633"/><line x1="319.759" y1="273.841" x2="323.551" y2="277.633"/><line x1="319.759" y1="277.633" x2="323.551" y2="273.841"/>
<line x1="320.212" y1="275.293" x2="324.005" y2="275.293"/><line x1="322.108" y1="273.397" x2="322.108" y2="277.189"/><line x1="320.212" y1="273.397" x2="324.005" y2="277.189"/><line x1="320.212" y1="277.189" x2="324.005" y2="273.397"/>
<line x1="320.666" y1="275.413" x2="324.458" y2="275.413"/><line x1="322.562" y1="273.517" x2="322.562" y2="277.309"/><line x1="320.666" y1="273.517" x2="324.458" y2="277.309"/><line x1="320.666" y1="277.309" x2="324.458" y2="273.517"/>
<line x1="321.119" y1="277.499" x2="324.911" y2="277.499"/><line x1="323.015" y1="275.602" x2="323.015" y2="279.395"/><line x1="321.119" y1="275.602" x2="324.911" y2="279.395"/><line x1="321.119" y1="279.395" x2="324.911" y2="275.602"/>
<line x1="321.572" y1="262.023" x2="325.364" y2="262.023"/><line x1="323.468" y1="260.127" x2="323.468" y2="263.919"/><line x1="321.572" y1="260.127" x2="325.364" y2="263.919"/><line x1="321.572" y1="263.919" x2="325.364" y2="260.127"/>
<line x1="322.025" y1="263.162" x2="325.817" y2="263.162"/><line x1="323.921" y1="261.266" x2="323.921" y2="265.058"/><line x1="322.025" y1="261.266" x2="325.817" y2="265.058"/><line x1="322.025" y1="265.058" x2="325.817" y2="261.266"/>
<line x1="322.479" y1="246.171" x2="326.271" y2="246.171"/><line x1="324.375" y1="244.275" x2="324.375" y2="248.067"/><line x1="322.479" y1="244.275" x2="326.271" y2="248.067"/><line x1="322.479" y1="248.067" x2="326.271" y2="244.275"/>
<line x1="322.932" y1="242.95" x2="326.724" y2="242.95"/><line x1="324.828" y1="241.054" x2="324.828" y2="244.846"/><line x1="322.932" y1="241.054" x2="326.724" y2="244.846"/><line x1="322.932" y1="244.846" x2="326.724" y2="241.054"/>
<line x1="323.385" y1="247.077" x2="327.177" y2="247.077"/><line x1="325.281" y1="245.181" x2="325.281" y2="248.973"/><line x1="323.385" y1="245.181" x2="327.177" y2="248.973"/><line x1="323.385" y1="248.973" x2="327.177" y2="245.181"/>
<line x1="323.838" y1="254.354" x2="327.63" y2="254.354"/><line x1="325.734" y1="252.458" x2="325.734" y2="256.25"/><line x1="323.838" y1="252.458" x2="327.63" y2="256.25"/><line x1="323.838" y1="256.25" x2="327.63" y2="252.458"/>
<line x1="324.291" y1="248.44" x2="328.084" y2="248.44"/><line x1="326.188" y1="246.543" x2="326.188" y2="250.336"/><line x1="324.291" y1="246.543" x2="328.084" y2="250.336"/><line x1="324.291" y1="250.336" x2="328.084" y2="246.543"/>
<line x1="324.745" y1="250.012" x2="328.537" y2="250.012"/><line x1="326.641" y1="248.116" x2="326.641" y2="251.908"/><line x1="324.745" y1="248.116" x2="328.537" y2="251.908"/><line x1="324.745" y1="251.908" x2="328.537" y2="248.116"/>
<line x1="325.198" y1="253.62" x2="328.99" y2="253.62"/><line x1="327.094" y1="251.724" x2="327.094" y2="255.516"/><line x1="325.198" y1="251.724" x2="328.99" y2="255.516"/><line x1="325.198" y1="255.516" x2="328.99" y2="251.724"/>
<line x1="325.651" y1="254.621" x2="329.443" y2="254.621"/><line x1="327.547" y1="252.725" x2="327.547" y2="256.518"/><line x1="325.651" y1="252.725" x2="329.443" y2="256.518"/><line x1="325.651" y1="256.518" x2="329.443" y2="252.725"/>
<line x1="326.104" y1="254.111" x2="329.897" y2="254.111"/><line x1="328" y1="252.215" x2="328" y2="256.007"/><line x1="326.104" y1="252.215" x2="329.897" y2="256.007"/><line x1="326.104" y1="256.007" x2="329.897" y2="252.215"/>
<line x1="326.558" y1="246.979" x2="330.35" y2="246.979"/><line x1="328.454" y1="245.083" x2="328.454" y2="248.875"/><line x1="326.558" y1="245.083" x2="330.35" y2="248.875"/><line x1="326.558" y1="248.875" x2="330.35" y2="245.083"/>
<line x1="327.011" y1="243.428" x2="330.803" y2="243.428"/><line x1="328.907" y1="241.532" x2="328.907" y2="245.324"/><line x1="327.011" y1="241.532" x2="330.803" y2="245.324"/><line x1="327.011" y1="245.324" x2="330.803" y2="241.532"/>
<line x1="327.464" y1="241.162" x2="331.256" y2="241.162"/><line x1="329.36" y1="239.266" x2="329.36" y2="243.058"/><line x1="327.464" y1="239.266" x2="331.256" y2="243.058"/><line x1="327.464" y1="243.058" x2="331.256" y2="239.266"/>
<line x1="327.917" y1="228.884" x2="331.709" y2="228.884"/><line x1="329.813" y1="226.988" x2="329.813" y2="230.78"/><line x1="327.917" y1="226.988" x2="331.709" y2="230.78"/><line x1="327.917" y1="230.78" x2="331.709" y2="226.988"/>
<line x1="328.37" y1="229.871" x2="332.163" y2="229.871"/><line x1="330.267" y1="227.975" x2="330.267" y2="231.767"/><line x1="328.37" y1="227.975" x2="332.163" y2="231.767"/><line x1="328.37" y1="231.767" x2="332.163" y2="227.975"/>
<line x1="328.824" y1="231.332" x2="332.616" y2="231.332"/><line x1="330.72" y1="229.436" x2="330.72" y2="233.228"/><line x1="328.824" y1="229.436" x2="332.616" y2="233.228"/><line x1="328.824" y1="233.228" x2="332.616" y2="229.436"/>
<line x1="329.277" y1="232.996" x2="333.069" y2="232.996"/><line x1="331.173" y1="231.1" x2="331.173" y2="234.892"/><line x1="329.277" y1="231.1" x2="333.069" y2="234.892"/><line x1="329.277" y1="234.892" x2="333.069" y2="231.1"/>
<line x1="329.73" y1="234.449" x2="333.522" y2="234.449"/><line x1="331.626" y1="232.553" x2="331.626" y2="236.345"/><line x1="329.73" y1="232.553" x2="333.522" y2="236.345"/><line x1="329.73" y1="236.345" x2="333.522" y2="232.553"/>
<line x1="330.183" y1="234.97" x2="333.976" y2="234.97"/><line x1="332.079" y1="233.074" x2="332.079" y2="236.866"/><line x1="330.183" y1="233.074" x2="333.976" y2="236.866"/><line x1="330.183" y1="236.866" x2="333.976" y2="233.074"/>
<line x1="330.637" y1="233.256" x2="334.429" y2="233.256"/><line x1="332.533" y1="231.36" x2="332.533" y2="235.152"/><line x1="330.637" y1="231.36" x2="334.429" y2="235.152"/><line x1="330.637" y1="235.152" x2="334.429" y2="231.36"/>
<line x1="331.09" y1="231.224" x2="334.882" y2="231.224"/><line x1="332.986" y1="229.328" x2="332.986" y2="233.12"/><line x1="331.09" y1="229.328" x2="334.882" y2="233.12"/><line x1="331.09" y1="233.12" x2="334.882" y2="229.328"/>
<line x1="331.543" y1="231.111" x2="335.335" y2="231.111"/><line x1="333.439" y1="229.214" x2="333.439" y2="233.007"/><line x1="331.543" y1="229.214" x2="335.335" y2="233.007"/><line x1="331.543" y1="233.007" x2="335.335" y2="229.214"/>
<line x1="331.996" y1="234.328" x2="335.788" y2="234.328"/><line x1="333.892" y1="232.432" x2="333.892" y2="236.224"/><line x1="331.996" y1="232.432" x2="335.788" y2="236.224"/><line x1="331.996" y1="236.224" x2="335.788" y2="232.432"/>
<line x1="332.45" y1="235" x2="336.242" y2="235"/><line x1="334.346" y1="233.104" x2="334.346" y2="236.896"/><line x1="332.45" y1="233.104" x2="336.242" y2="236.896"/><line x1="332.45" y1="236.896" x2="336.242" y2="233.104"/>
<line x1="332.903" y1="236.295" x2="336.695" y2="236.295"/><line x1="334.799" y1="234.398" x2="334.799" y2="238.191"/><line x1="332.903" y1="234.398" x2="336.695" y2="238.191"/><line x1="332.903" y1="238.191" x2="336.695" y2="234.398"/>
<line x1="333.356" y1="229.148" x2="337.148" y2="229.148"/><line x1="335.252" y1="227.252" x2="335.252" y2="231.044"/><line x1="333.356" y1="227.252" x2="337.148" y2="231.044"/><line x1="333.356" y1="231.044" x2="337.148" y2="227.252"/>
<line x1="333.809" y1="224.901" x2="337.601" y2="224.901"/><line x1="335.705" y1="223.005" x2="335.705" y2="226.797"/><line x1="333.809" y1="223.005" x2="337.601" y2="226.797"/><line x1="333.809" y1="226.797" x2="337.601" y2="223.005"/>
<line x1="334.262" y1="229.572" x2="338.055" y2="229.572"/><line x1="336.159" y1="227.676" x2="336.159" y2="231.469"/><line x1="334.262" y1="227.676" x2="338.055" y2="231.469"/><line x1="334.262" y1="231.469" x2="338.055" y2="227.676"/>
<line x1="334.716" y1="227.918" x2="338.508" y2="227.918"/><line x1="336.612" y1="226.021" x2="336.612" y2="229.814"/><line x1="334.716" y1="226.021" x2="338.508" y2="229.814"/><line x1="334.716" y1="229.814" x2="338.508" y2="226.021"/>
<line x1="335.169" y1="218.54" x2="338.961" y2="218.54"/><line x1="337.065" y1="216.644" x2="337.065" y2="220.436"/><line x1="335.169" y1="216.644" x2="338.961" y2="220.436"/><line x1="335.169" y1="220.436" x2="338.961" y2="216.644"/>
<line x1="335.622" y1="216.009" x2="339.414" y2="216.009"/><line x1="337.518" y1="214.113" x2="337.518" y2="217.905"/><line x1="335.622" y1="214.113" x2="339.414" y2="217.905"/><line x1="335.622" y1="217.905" x2="339.414" y2="214.113"/>
<line x1="336.075" y1="214.101" x2="339.867" y2="214.101"/><line x1="337.971" y1="212.205" x2="337.971" y2="215.997"/><line x1="336.075" y1="212.205" x2="339.867" y2="215.997"/><line x1="336.075" y1="215.997" x2="339.867" y2="212.205"/>
<line x1="336.529" y1="219.14" x2="340.321" y2="219.14"/><line x1="338.425" y1="217.244" x2="338.425" y2="221.036"/><line x1="336.529" y1="217.244" x2="340.321" y2="221.036"/><line x1="336.529" y1="221.036" x2="340.321" y2="217.244"/>
<line x1="336.982" y1="220.428" x2="340.774" y2="220.428"/><line x1="338.878" y1="218.531" x2="338.878" y2="222.324"/><line x1="336.982" y1="218.531" x2="340.774" y2="222.324"/><line x1="336.982" y1="222.324" x2="340.774" y2="218.531"/>
<line x1="337.435" y1="218.378" x2="341.227" y2="218.378"/><line x1="339.331" y1="216.482" x2="339.331" y2="220.274"/><line x1="337.435" y1="216.482" x2="341.227" y2="220.274"/><line x1="337.435" y1="220.274" x2="341.227" y2="216.482"/>
<line x1="337.888" y1="220.827" x2="341.68" y2="220.827"/><line x1="339.784" y1="218.931" x2="339.784" y2="222.723"/><line x1="337.888" y1="218.931" x2="341.68" y2="222.723"/><line x1="337.888" y1="222.723" x2="341.68" y2="218.931"/>
<line x1="338.341" y1="222.903" x2="342.134" y2="222.903"/><line x1="340.238" y1="221.007" x2="340.238" y2="224.799"/><line x1="338.341" y1="221.007" x2="342.134" y2="224.799"/><line x1="338.341" y1="224.799" x2="342.134" y2="221.007"/>
<line x1="338.795" y1="223.909" x2="342.587" y2="223.909"/><line x1="340.691" y1="222.013" x2="340.691" y2="225.805"/><line x1="338.795" y1="222.013" x2="342.587" y2="225.805"/><line x1="338.795" y1="225.805" x2="342.587" y2="222.013"/>
<line x1="339.248" y1="197.902" x2="343.04" y2="197.902"/><line x1="341.144" y1="196.006" x2="341.144" y2="199.798"/><line x1="339.248" y1="196.006" x2="343.04" y2="199.798"/><line x1="339.248" y1="199.798" x2="343.04" y2="196.006"/>
<line x1="339.701" y1="204.233" x2="343.493" y2="204.233"/><line x1="341.597" y1="202.337" x2="341.597" y2="206.129"/><line x1="339.701" y1="202.337" x2="343.493" y2="206.129"/><line x1="339.701" y1="206.129" x2="343.493" y2="202.337"/>
<line x1="340.154" y1="182.662" x2="343.947" y2="182.662"/><line x1="342.05" y1="180.766" x2="342.05" y2="184.558"/><line x1="340.154" y1="180.766" x2="343.947" y2="184.558"/><line x1="340.154" y1="184.558" x2="343.947" y2="180.766"/>
<line x1="340.608" y1="174.204" x2="344.4" y2="174.204"/><line x1="342.504" y1="172.308" x2="342.504" y2="176.1"/><line x1="340.608" y1="172.308" x2="344.4" y2="176.1"/><line x1="340.608" y1="176.1" x2="344.4" y2="172.308"/>
<line x1="341.061" y1="175.303" x2="344.853" y2="175.303"/><line x1="342.957" y1="173.407" x2="342.957" y2="177.199"/><line x1="341.061" y1="173.407" x2="344.853" y2="177.199"/><line x1="341.061" y1="177.199" x2="344.853" y2="173.407"/>
<line x1="341.514" y1="180.872" x2="345.306" y2="180.872"/><line x1="343.41" y1="178.976" x2="343.41" y2="182.768"/><line x1="341.514" y1="178.976" x2="345.306" y2="182.768"/><line x1="341.514" y1="182.768" x2="345.306" y2="178.976"/>
<line x1="341.967" y1="169.457" x2="345.759" y2="169.457"/><line x1="343.863" y1="167.561" x2="343.863" y2="171.354"/><line x1="341.967" y1="167.561" x2="345.759" y2="171.354"/><line x1="341.967" y1="171.354" x2="345.759" y2="167.561"/>
<line x1="342.42" y1="170.829" x2="346.213" y2="170.829"/><line x1="344.317" y1="168.933" x2="344.317" y2="172.725"/><line x1="342.42" y1="168.933" x2="346.213" y2="172.725"/><line x1="342.42" y1="172.725" x2="346.213" y2="168.933"/>
<line x1="342.874" y1="164.111" x2="346.666" y2="164.111"/><line x1="344.77" y1="162.215" x2="344.77" y2="166.007"/><line x1="342.874" y1="162.215" x2="346.666" y2="166.007"/><line x1="342.874" y1="166.007" x2="346.666" y2="162.215"/>
<line x1="343.327" y1="170.489" x2="347.119" y2="170.489"/><line x1="345.223" y1="168.593" x2="345.223" y2="172.385"/><line x1="343.327" y1="168.593" x2="347.119" y2="172.385"/><line x1="343.327" y1="172.385" x2="347.119" y2="168.593"/>
<line x1="343.78" y1="169.699" x2="347.572" y2="169.699"/><line x1="345.676" y1="167.803" x2="345.676" y2="171.595"/><line x1="343.78" y1="167.803" x2="347.572" y2="171.595"/><line x1="343.78" y1="171.595" x2="347.572" y2="167.803"/>
<line x1="344.233" y1="165.321" x2="348.026" y2="165.321"/><line x1="346.129" y1="163.424" x2="346.129" y2="167.217"/><line x1="344.233" y1="163.424" x2="348.026" y2="167.217"/><line x1="344.233" y1="167.217" x2="348.026" y2="163.424"/>
<line x1="344.687" y1="170.574" x2="348.479" y2="170.574"/><line x1="346.583" y1="168.678" x2="346.583" y2="172.47"/><line x1="344.687" y1="168.678" x2="348.479" y2="172.47"/><line x1="344.687" y1="172.47" x2="348.479" y2="168.678"/>
<line x1="345.14" y1="177.275" x2="348.932" y2="177.275"/><line x1="347.036" y1="175.379" x2="347.036" y2="179.172"/><line x1="345.14" y1="175.379" x2="348.932" y2="179.172"/><line x1="345.14" y1="179.172" x2="348.932" y2="175.379"/>
<line x1="345.593" y1="160.426" x2="349.385" y2="160.426"/><line x1="347.489" y1="158.53" x2="347.489" y2="162.322"/><line x1="345.593" y1="158.53" x2="349.385" y2="162.322"/><line x1="345.593" y1="162.322" x2="349.385" y2="158.53"/>
<line x1="346.046" y1="150.506" x2="349.838" y2="150.506"/><line x1="347.942" y1="148.61" x2="347.942" y2="152.402"/><line x1="346.046" y1="148.61" x2="349.838" y2="152.402"/><line x1="346.046" y1="152.402" x2="349.838" y2="148.61"/>
<line x1="346.5" y1="153.657" x2="350.292" y2="153.657"/><line x1="348.396" y1="151.761" x2="348.396" y2="155.553"/><line x1="346.5" y1="151.761" x2="350.292" y2="155.553"/><line x1="346.5" y1="155.553" x2="350.292" y2="151.761"/>
<line x1="346.953" y1="144.815" x2="350.745" y2="144.815"/><line x1="348.849" y1="142.919" x2="348.849" y2="146.712"/><line x1="346.953" y1="142.919" x2="350.745" y2="146.712"/><line x1="346.953" y1="146.712" x2="350.745" y2="142.919"/>
<line x1="347.406" y1="153.94" x2="351.198" y2="153.94"/><line x1="349.302" y1="152.044" x2="349.302" y2="155.836"/><line x1="347.406" y1="152.044" x2="351.198" y2="155.836"/><line x1="347.406" y1="155.836" x2="351.198" y2="152.044"/>
<line x1="347.859" y1="149.927" x2="351.651" y2="149.927"/><line x1="349.755" y1="148.031" x2="349.755" y2="151.823"/><line x1="347.859" y1="148.031" x2="351.651" y2="151.823"/><line x1="347.859" y1="151.823" x2="351.651" y2="148.031"/>
<line x1="348.312" y1="151.226" x2="352.105" y2="151.226"/><line x1="350.208" y1="149.33" x2="350.208" y2="153.122"/><line x1="348.312" y1="149.33" x2="352.105" y2="153.122"/><line x1="348.312" y1="153.122" x2="352.105" y2="149.33"/>
<line x1="348.766" y1="149.384" x2="352.558" y2="149.384"/><line x1="350.662" y1="147.488" x2="350.662" y2="151.28"/><line x1="348.766" y1="147.488" x2="352.558" y2="151.28"/><line x1="348.766" y1="151.28" x2="352.558" y2="147.488"/>
<line x1="349.219" y1="144.694" x2="353.011" y2="144.694"/><line x1="351.115" y1="142.798" x2="351.115" y2="146.59"/><line x1="349.219" y1="142.798" x2="353.011" y2="146.59"/><line x1="349.219" y1="146.59" x2="353.011" y2="142.798"/>
<line x1="349.672" y1="134.745" x2="353.464" y2="134.745"/><line x1="351.568" y1="132.848" x2="351.568" y2="136.641"/><line x1="349.672" y1="132.848" x2="353.464" y2="136.641"/><line x1="349.672" y1="136.641" x2="353.464" y2="132.848"/>
<line x1="350.125" y1="134.232" x2="353.918" y2="134.232"/><line x1="352.021" y1="132.336" x2="352.021" y2="136.128"/><line x1="350.125" y1="132.336" x2="353.918" y2="136.128"/><line x1="350.125" y1="136.128" x2="353.918" y2="132.336"/>
<line x1="350.579" y1="124.071" x2="354.371" y2="124.071"/><line x1="352.475" y1="122.175" x2="352.475" y2="125.967"/><line x1="350.579" y1="122.175" x2="354.371" y2="125.967"/><line x1="350.579" y1="125.967" x2="354.371" y2="122.175"/>
<line x1="351.032" y1="118.084" x2="354.824" y2="118.084"/><line x1="352.928" y1="116.188" x2="352.928" y2="119.98"/><line x1="351.032" y1="116.188" x2="354.824" y2="119.98"/><line x1="351.032" y1="119.98" x2="354.824" y2="116.188"/>
<line x1="351.485" y1="120.448" x2="355.277" y2="120.448"/><line x1="353.381" y1="118.551" x2="353.381" y2="122.344"/><line x1="351.485" y1="118.551" x2="355.277" y2="122.344"/><line x1="351.485" y1="122.344" x2="355.277" y2="118.551"/>
<line x1="351.938" y1="121.177" x2="355.73" y2="121.177"/><line x1="353.834" y1="119.281" x2="353.834" y2="123.073"/><line x1="351.938" y1="119.281" x2="355.73" y2="123.073"/><line x1="351.938" y1="123.073" x2="355.73" y2="119.281"/>
<line x1="352.391" y1="115.526" x2="356.184" y2="115.526"/><line x1="354.288" y1="113.63" x2="354.288" y2="117.422"/><line x1="352.391" y1="113.63" x2="356.184" y2="117.422"/><line x1="352.391" y1="117.422" x2="356.184" y2="113.63"/>
<line x1="352.845" y1="113.815" x2="356.637" y2="113.815"/><line x1="354.741" y1="111.919" x2="354.741" y2="115.711"/><line x1="352.845" y1="111.919" x2="356.637" y2="115.711"/><line x1="352.845" y1="115.711" x2="356.637" y2="111.919"/>
<line x1="353.298" y1="105.986" x2="357.09" y2="105.986"/><line x1="355.194" y1="104.09" x2="355.194" y2="107.882"/><line x1="353.298" y1="104.09" x2="357.09" y2="107.882"/><line x1="353.298" y1="107.882" x2="357.09" y2="104.09"/>
<line x1="353.751" y1="109.567" x2="357.543" y2="109.567"/><line x1="355.647" y1="107.671" x2="355.647" y2="111.463"/><line x1="353.751" y1="107.671" x2="357.543" y2="111.463"/><line x1="353.751" y1="111.463" x2="357.543" y2="107.671"/>
<line x1="354.204" y1="113.544" x2="357.997" y2="113.544"/><line x1="356.1" y1="111.648" x2="356.1" y2="115.44"/><line x1="354.204" y1="111.648" x2="357.997" y2="115.44"/><line x1="354.204" y1="115.44" x2="357.997" y2="111.648"/>
<line x1="354.658" y1="113.487" x2="358.45" y2="113.487"/><line x1="356.554" y1="111.591" x2="356.554" y2="115.383"/><line x1="354.658" y1="111.591" x2="358.45" y2="115.383"/><line x1="354.658" y1="115.383" x2="358.45" y2="111.591"/>
<line x1="355.111" y1="114.258" x2="358.903" y2="114.258"/><line x1="357.007" y1="112.362" x2="357.007" y2="116.154"/><line x1="355.111" y1="112.362" x2="358.903" y2="116.154"/><line x1="355.111" y1="116.154" x2="358.903" y2="112.362"/>
<line x1="355.564" y1="112.973" x2="359.356" y2="112.973"/><line x1="357.46" y1="111.077" x2="357.46" y2="114.869"/><line x1="355.564" y1="111.077" x2="359.356" y2="114.869"/><line x1="355.564" y1="114.869" x2="359.356" y2="111.077"/>
<line x1="356.017" y1="114.922" x2="359.809" y2="114.922"/><line x1="357.913" y1="113.026" x2="357.913" y2="116.818"/><line x1="356.017" y1="113.026" x2="359.809" y2="116.818"/><line x1="356.017" y1="116.818" x2="359.809" y2="113.026"/>
<line x1="356.47" y1="105.793" x2="360.263" y2="105.793"/><line x1="358.367" y1="103.897" x2="358.367" y2="107.689"/><line x1="356.47" y1="103.897" x2="360.263" y2="107.689"/><line x1="356.47" y1="107.689" x2="360.263" y2="103.897"/>
<line x1="356.924" y1="108.066" x2="360.716" y2="108.066"/><line x1="358.82" y1="106.17" x2="358.82" y2="109.962"/><line x1="356.924" y1="106.17" x2="360.716" y2="109.962"/><line x1="356.924" y1="109.962" x2="360.716" y2="106.17"/>
<line x1="357.377" y1="97.5844" x2="361.169" y2="97.5844"/><line x1="359.273" y1="95.6883" x2="359.273" y2="99.4804"/><line x1="357.377" y1="95.6883" x2="361.169" y2="99.4804"/><line x1="357.377" y1="99.4804" x2="361.169" y2="95.6883"/>
<line x1="357.83" y1="104.836" x2="361.622" y2="104.836"/><line x1="359.726" y1="102.939" x2="359.726" y2="106.732"/><line x1="357.83" y1="102.939" x2="361.622" y2="106.732"/><line x1="357.83" y1="106.732" x2="361.622" y2="102.939"/>
<line x1="358.283" y1="95.4306" x2="362.076" y2="95.4306"/><line x1="360.179" y1="93.5345" x2="360.179" y2="97.3267"/><line x1="358.283" y1="93.5345" x2="362.076" y2="97.3267"/><line x1="358.283" y1="97.3267" x2="362.076" y2="93.5345"/>
<line x1="358.737" y1="91.7512" x2="362.529" y2="91.7512"/><line x1="360.633" y1="89.8551" x2="360.633" y2="93.6473"/><line x1="358.737" y1="89.8551" x2="362.529" y2="93.6473"/><line x1="358.737" y1="93.6473" x2="362.529" y2="89.8551"/>
<line x1="359.19" y1="98.0726" x2="362.982" y2="98.0726"/><line x1="361.086" y1="96.1765" x2="361.086" y2="99.9687"/><line x1="359.19" y1="96.1765" x2="362.982" y2="99.9687"/><line x1="359.19" y1="99.9687" x2="362.982" y2="96.1765"/>
<line x1="359.643" y1="97.5105" x2="363.435" y2="97.5105"/><line x1="361.539" y1="95.6144" x2="361.539" y2="99.4066"/><line x1="359.643" y1="95.6144" x2="363.435" y2="99.4066"/><line x1="359.643" y1="99.4066" x2="363.435" y2="95.6144"/>
<line x1="360.096" y1="97.5874" x2="363.888" y2="97.5874"/><line x1="361.992" y1="95.6913" x2="361.992" y2="99.4834"/><line x1="360.096" y1="95.6913" x2="363.888" y2="99.4834"/><line x1="360.096" y1="99.4834" x2="363.888" y2="95.6913"/>
<line x1="360.55" y1="96.7579" x2="364.342" y2="96.7579"/><line x1="362.446" y1="94.8619" x2="362.446" y2="98.654"/><line x1="360.55" y1="94.8619" x2="364.342" y2="98.654"/><line x1="360.55" y1="98.654" x2="364.342" y2="94.8619"/>
<line x1="361.003" y1="102.109" x2="364.795" y2="102.109"/><line x1="362.899" y1="100.213" x2="362.899" y2="104.005"/><line x1="361.003" y1="100.213" x2="364.795" y2="104.005"/><line x1="361.003" y1="104.005" x2="364.795" y2="100.213"/>
<line x1="361.456" y1="108.199" x2="365.248" y2="108.199"/><line x1="363.352" y1="106.303" x2="363.352" y2="110.095"/><line x1="361.456" y1="106.303" x2="365.248" y2="110.095"/><line x1="361.456" y1="110.095" x2="365.248" y2="106.303"/>
<line x1="361.909" y1="103.926" x2="365.701" y2="103.926"/><line x1="363.805" y1="102.03" x2="363.805" y2="105.822"/><line x1="361.909" y1="102.03" x2="365.701" y2="105.822"/><line x1="361.909" y1="105.822" x2="365.701" y2="102.03"/>
<line x1="362.362" y1="101.805" x2="366.155" y2="101.805"/><line x1="364.259" y1="99.9086" x2="364.259" y2="103.701"/><line x1="362.362" y1="99.9086" x2="366.155" y2="103.701"/><line x1="362.362" y1="103.701" x2="366.155" y2="99.9086"/>
<line x1="362.816" y1="102.828" x2="366.608" y2="102.828"/><line x1="364.712" y1="100.932" x2="364.712" y2="104.724"/><line x1="362.816" y1="100.932" x2="366.608" y2="104.724"/><line x1="362.816" y1="104.724" x2="366.608" y2="100.932"/>
<line x1="363.269" y1="99.7531" x2="367.061" y2="99.7531"/><line x1="365.165" y1="97.857" x2="365.165" y2="101.649"/><line x1="363.269" y1="97.857" x2="367.061" y2="101.649"/><line x1="363.269" y1="101.649" x2="367.061" y2="97.857"/>
<line x1="363.722" y1="93.047" x2="367.514" y2="93.047"/><line x1="365.618" y1="91.151" x2="365.618" y2="94.9431"/><line x1="363.722" y1="91.151" x2="367.514" y2="94.9431"/><line x1="363.722" y1="94.9431" x2="367.514" y2="91.151"/>
<line x1="364.175" y1="81.21" x2="367.967" y2="81.21"/><line x1="366.071" y1="79.3139" x2="366.071" y2="83.1061"/><line x1="364.175" y1="79.3139" x2="367.967" y2="83.1061"/><line x1="364.175" y1="83.1061" x2="367.967" y2="79.3139"/>
<line x1="364.629" y1="85.6422" x2="368.421" y2="85.6422"/><line x1="366.525" y1="83.7461" x2="366.525" y2="87.5383"/><line x1="364.629" y1="83.7461" x2="368.421" y2="87.5383"/><line x1="364.629" y1="87.5383" x2="368.421" y2="83.7461"/>
<line x1="365.082" y1="91.5538" x2="368.874" y2="91.5538"/><line x1="366.978" y1="89.6577" x2="366.978" y2="93.4499"/><line x1="365.082" y1="89.6577" x2="368.874" y2="93.4499"/><line x1="365.082" y1="93.4499" x2="368.874" y2="89.6577"/>
<line x1="365.535" y1="87.8837" x2="369.327" y2="87.8837"/><line x1="367.431" y1="85.9876" x2="367.431" y2="89.7798"/><line x1="365.535" y1="85.9876" x2="369.327" y2="89.7798"/><line x1="365.535" y1="89.7798" x2="369.327" y2="85.9876"/>
<line x1="365.988" y1="92.5647" x2="369.78" y2="92.5647"/><line x1="367.884" y1="90.6686" x2="367.884" y2="94.4608"/><line x1="365.988" y1="90.6686" x2="369.78" y2="94.4608"/><line x1="365.988" y1="94.4608" x2="369.78" y2="90.6686"/>
<line x1="366.441" y1="83.5591" x2="370.234" y2="83.5591"/><line x1="368.338" y1="81.663" x2="368.338" y2="85.4551"/><line x1="366.441" y1="81.663" x2="370.234" y2="85.4551"/><line x1="366.441" y1="85.4551" x2="370.234" y2="81.663"/>
<line x1="366.895" y1="78.5277" x2="370.687" y2="78.5277"/><line x1="368.791" y1="76.6317" x2="368.791" y2="80.4238"/><line x1="366.895" y1="76.6317" x2="370.687" y2="80.4238"/><line x1="366.895" y1="80.4238" x2="370.687" y2="76.6317"/>
<line x1="367.348" y1="65.6642" x2="371.14" y2="65.6642"/><line x1="369.244" y1="63.7681" x2="369.244" y2="67.5603"/><line x1="367.348" y1="63.7681" x2="371.14" y2="67.5603"/><line x1="367.348" y1="67.5603" x2="371.14" y2="63.7681"/>
<line x1="367.801" y1="63.8592" x2="371.593" y2="63.8592"/><line x1="369.697" y1="61.9631" x2="369.697" y2="65.7553"/><line x1="367.801" y1="61.9631" x2="371.593" y2="65.7553"/><line x1="367.801" y1="65.7553" x2="371.593" y2="61.9631"/>
<line x1="368.254" y1="62.5227" x2="372.047" y2="62.5227"/><line x1="370.15" y1="60.6266" x2="370.15" y2="64.4188"/><line x1="368.254" y1="60.6266" x2="372.047" y2="64.4188"/><line x1="368.254" y1="64.4188" x2="372.047" y2="60.6266"/>
<line x1="368.708" y1="68.426" x2="372.5" y2="68.426"/><line x1="370.604" y1="66.5299" x2="370.604" y2="70.3221"/><line x1="368.708" y1="66.5299" x2="372.5" y2="70.3221"/><line x1="368.708" y1="70.3221" x2="372.5" y2="66.5299"/>
<line x1="369.161" y1="77.2332" x2="372.953" y2="77.2332"/><line x1="371.057" y1="75.3371" x2="371.057" y2="79.1293"/><line x1="369.161" y1="75.3371" x2="372.953" y2="79.1293"/><line x1="369.161" y1="79.1293" x2="372.953" y2="75.3371"/>
<line x1="369.614" y1="72.5966" x2="373.406" y2="72.5966"/><line x1="371.51" y1="70.7005" x2="371.51" y2="74.4927"/><line x1="369.614" y1="70.7005" x2="373.406" y2="74.4927"/><line x1="369.614" y1="74.4927" x2="373.406" y2="70.7005"/>
<line x1="370.067" y1="68.3867" x2="373.859" y2="68.3867"/><line x1="371.963" y1="66.4906" x2="371.963" y2="70.2828"/><line x1="370.067" y1="66.4906" x2="373.859" y2="70.2828"/><line x1="370.067" y1="70.2828" x2="373.859" y2="66.4906"/>
<line x1="370.521" y1="72.4323" x2="374.313" y2="72.4323"/><line x1="372.417" y1="70.5362" x2="372.417" y2="74.3284"/><line x1="370.521" y1="70.5362" x2="374.313" y2="74.3284"/><line x1="370.521" y1="74.3284" x2="374.313" y2="70.5362"/>
<line x1="370.974" y1="68.2727" x2="374.766" y2="68.2727"/><line x1="372.87" y1="66.3766" x2="372.87" y2="70.1688"/><line x1="370.974" y1="66.3766" x2="374.766" y2="70.1688"/><line x1="370.974" y1="70.1688" x2="374.766" y2="66.3766"/>
<line x1="371.427" y1="61.5332" x2="375.219" y2="61.5332"/><line x1="373.323" y1="59.6371" x2="373.323" y2="63.4293"/><line x1="371.427" y1="59.6371" x2="375.219" y2="63.4293"/><line x1="371.427" y1="63.4293" x2="375.219" y2="59.6371"/>
<line x1="371.88" y1="57.4084" x2="375.672" y2="57.4084"/><line x1="373.776" y1="55.5123" x2="373.776" y2="59.3045"/><line x1="371.88" y1="55.5123" x2="375.672" y2="59.3045"/><line x1="371.88" y1="59.3045" x2="375.672" y2="55.5123"/>
<line x1="372.333" y1="60.7055" x2="376.126" y2="60.7055"/><line x1="374.229" y1="58.8094" x2="374.229" y2="62.6016"/><line x1="372.333" y1="58.8094" x2="376.126" y2="62.6016"/><line x1="372.333" y1="62.6016" x2="376.126" y2="58.8094"/>
<line x1="372.787" y1="64.0387" x2="376.579" y2="64.0387"/><line x1="374.683" y1="62.1426" x2="374.683" y2="65.9348"/><line x1="372.787" y1="62.1426" x2="376.579" y2="65.9348"/><line x1="372.787" y1="65.9348" x2="376.579" y2="62.1426"/>
<line x1="373.24" y1="61.0471" x2="377.032" y2="61.0471"/><line x1="375.136" y1="59.151" x2="375.136" y2="62.9432"/><line x1="373.24" y1="59.151" x2="377.032" y2="62.9432"/><line x1="373.24" y1="62.9432" x2="377.032" y2="59.151"/>
<line x1="373.693" y1="59.9299" x2="377.485" y2="59.9299"/><line x1="375.589" y1="58.0338" x2="375.589" y2="61.826"/><line x1="373.693" y1="58.0338" x2="377.485" y2="61.826"/><line x1="373.693" y1="61.826" x2="377.485" y2="58.0338"/>
<line x1="374.146" y1="53.3091" x2="377.938" y2="53.3091"/><line x1="376.042" y1="51.413" x2="376.042" y2="55.2052"/><line x1="374.146" y1="51.413" x2="377.938" y2="55.2052"/><line x1="374.146" y1="55.2052" x2="377.938" y2="51.413"/>
<line x1="374.6" y1="42.2186" x2="378.392" y2="42.2186"/><line x1="376.496" y1="40.3226" x2="376.496" y2="44.1147"/><line x1="374.6" y1="40.3226" x2="378.392" y2="44.1147"/><line x1="374.6" y1="44.1147" x2="378.392" y2="40.3226"/>
</g>
<path d="M170.731,353.116h 226.613" fill="none" stroke="#0000ff"/>
<path d="M284.038,372.012v -47.2396" fill="none" stroke="#ff0000"/>
<rect x="57.1929" y="330.677" width="113.386" height="41.3346" fill="white"/>
<path d="M57.1929,372.012h 113.386" fill="none" stroke="black"/>
<path d="M170.579,372.012v -41.3346" fill="none" stroke="black"/>
<path d="M170.579,330.677h -113.386" fill="none" stroke="black"/>
<path d="M57.1929,330.677v 41.3346" fill="none" stroke="black"/>
<text xml:space="preserve" x="85.3498" y="354.568" fill="black" font-size="12.3723" font-family="Helvetica">#p.e of PMTs1</text>
<path d="M61.4449,351.344h 19.8425" fill="none" stroke="black"/></svg>
