<?xml version="1.0" standalone="no"?>
<svg width="567.429" height="413.846" viewBox="0 0 567.429 413.846" xmlns="http://www.w3.org/2000/svg" shape-rendering="crispEdges">
<title>
figures/chi2zoomin_5PMTnpefilelist20.svg
</title>
<desc>
Creator: ROOT Version 6.18/04
CreationDate: Mon Nov  4 09:25:51 2019</desc>
<defs>
</defs>
<rect x="0.5" y="0" width="566.929" height="413.346" fill="white"/>
<rect x="57.1929" y="41.3346" width="453.543" height="330.677" fill="white"/>
<rect x="57.1929" y="41.3346" width="453.543" height="330.677" fill="none" stroke="black"/>
<path d="M57.1929,372.012h 453.543" fill="none" stroke="black"/>
<path d="M76.2706,41.3346v 330.677" fill="none" stroke="black" stroke-dasharray=" 1, 2"/>
<path d="M121.27,41.3346v 330.677" fill="none" stroke="black" stroke-dasharray=" 1, 2"/>
<path d="M166.268,41.3346v 330.677" fill="none" stroke="black" stroke-dasharray=" 1, 2"/>
<path d="M211.267,41.3346v 330.677" fill="none" stroke="black" stroke-dasharray=" 1, 2"/>
<path d="M256.266,41.3346v 330.677" fill="none" stroke="black" stroke-dasharray=" 1, 2"/>
<path d="M301.265,41.3346v 330.677" fill="none" stroke="black" stroke-dasharray=" 1, 2"/>
<path d="M346.264,41.3346v 330.677" fill="none" stroke="black" stroke-dasharray=" 1, 2"/>
<path d="M391.263,41.3346v 330.677" fill="none" stroke="black" stroke-dasharray=" 1, 2"/>
<path d="M436.262,41.3346v 330.677" fill="none" stroke="black" stroke-dasharray=" 1, 2"/>
<path d="M481.261,41.3346v 330.677" fill="none" stroke="black" stroke-dasharray=" 1, 2"/>
<path d="M76.2706,41.3346v 330.677" fill="none" stroke="black" stroke-dasharray=" 1, 2"/>
<path d="M481.261,41.3346v 330.677" fill="none" stroke="black" stroke-dasharray=" 1, 2"/>
<path d="M57.1929,372.012v -330.677" fill="none" stroke="black"/>
<path d="M57.1929,372.012h 453.543" fill="none" stroke="black"/>
<path d="M76.2706,362.091v 9.92031" fill="none" stroke="black"/>
<path d="M87.5204,367.052v 4.96016" fill="none" stroke="black"/>
<path d="M98.7701,367.052v 4.96016" fill="none" stroke="black"/>
<path d="M110.02,367.052v 4.96016" fill="none" stroke="black"/>
<path d="M121.27,362.091v 9.92031" fill="none" stroke="black"/>
<path d="M132.519,367.052v 4.96016" fill="none" stroke="black"/>
<path d="M143.769,367.052v 4.96016" fill="none" stroke="black"/>
<path d="M155.019,367.052v 4.96016" fill="none" stroke="black"/>
<path d="M166.268,362.091v 9.92031" fill="none" stroke="black"/>
<path d="M177.518,367.052v 4.96016" fill="none" stroke="black"/>
<path d="M188.768,367.052v 4.96016" fill="none" stroke="black"/>
<path d="M200.018,367.052v 4.96016" fill="none" stroke="black"/>
<path d="M211.267,362.091v 9.92031" fill="none" stroke="black"/>
<path d="M222.517,367.052v 4.96016" fill="none" stroke="black"/>
<path d="M233.767,367.052v 4.96016" fill="none" stroke="black"/>
<path d="M245.016,367.052v 4.96016" fill="none" stroke="black"/>
<path d="M256.266,362.091v 9.92031" fill="none" stroke="black"/>
<path d="M267.516,367.052v 4.96016" fill="none" stroke="black"/>
<path d="M278.766,367.052v 4.96016" fill="none" stroke="black"/>
<path d="M290.015,367.052v 4.96016" fill="none" stroke="black"/>
<path d="M301.265,362.091v 9.92031" fill="none" stroke="black"/>
<path d="M312.515,367.052v 4.96016" fill="none" stroke="black"/>
<path d="M323.764,367.052v 4.96016" fill="none" stroke="black"/>
<path d="M335.014,367.052v 4.96016" fill="none" stroke="black"/>
<path d="M346.264,362.091v 9.92031" fill="none" stroke="black"/>
<path d="M357.514,367.052v 4.96016" fill="none" stroke="black"/>
<path d="M368.763,367.052v 4.96016" fill="none" stroke="black"/>
<path d="M380.013,367.052v 4.96016" fill="none" stroke="black"/>
<path d="M391.263,362.091v 9.92031" fill="none" stroke="black"/>
<path d="M402.512,367.052v 4.96016" fill="none" stroke="black"/>
<path d="M413.762,367.052v 4.96016" fill="none" stroke="black"/>
<path d="M425.012,367.052v 4.96016" fill="none" stroke="black"/>
<path d="M436.262,362.091v 9.92031" fill="none" stroke="black"/>
<path d="M447.511,367.052v 4.96016" fill="none" stroke="black"/>
<path d="M458.761,367.052v 4.96016" fill="none" stroke="black"/>
<path d="M470.011,367.052v 4.96016" fill="none" stroke="black"/>
<path d="M481.261,362.091v 9.92031" fill="none" stroke="black"/>
<path d="M76.2706,362.091v 9.92031" fill="none" stroke="black"/>
<path d="M65.0209,367.052v 4.96016" fill="none" stroke="black"/>
<path d="M481.261,362.091v 9.92031" fill="none" stroke="black"/>
<path d="M492.51,367.052v 4.96016" fill="none" stroke="black"/>
<path d="M503.76,367.052v 4.96016" fill="none" stroke="black"/>
<text xml:space="preserve" x="63.0708" y="385.379" fill="black" font-size="13.7726" font-family="Helvetica">0.68</text>
<text xml:space="preserve" x="104.311" y="385.379" fill="black" font-size="13.7726" font-family="Helvetica">0.682</text>
<text xml:space="preserve" x="149.343" y="385.379" fill="black" font-size="13.7726" font-family="Helvetica">0.684</text>
<text xml:space="preserve" x="194.375" y="385.379" fill="black" font-size="13.7726" font-family="Helvetica">0.686</text>
<text xml:space="preserve" x="239.407" y="385.379" fill="black" font-size="13.7726" font-family="Helvetica">0.688</text>
<text xml:space="preserve" x="288.231" y="385.379" fill="black" font-size="13.7726" font-family="Helvetica">0.69</text>
<text xml:space="preserve" x="329.471" y="385.379" fill="black" font-size="13.7726" font-family="Helvetica">0.692</text>
<text xml:space="preserve" x="374.503" y="385.379" fill="black" font-size="13.7726" font-family="Helvetica">0.694</text>
<text xml:space="preserve" x="419.535" y="385.379" fill="black" font-size="13.7726" font-family="Helvetica">0.696</text>
<text xml:space="preserve" x="464.567" y="385.379" fill="black" font-size="13.7726" font-family="Helvetica">0.698</text>
<text xml:space="preserve" x="413.372" y="400.074" fill="black" font-size="13.7726" font-family="Helvetica">calibration factor</text>
<path d="M57.1929,372.012v -330.677" fill="none" stroke="black"/>
<path d="M70.7992,368.052h -13.6063" fill="none" stroke="black"/>
<path d="M63.9961,361.438h -6.80315" fill="none" stroke="black"/>
<path d="M63.9961,354.825h -6.80315" fill="none" stroke="black"/>
<path d="M63.9961,348.211h -6.80315" fill="none" stroke="black"/>
<path d="M63.9961,341.597h -6.80315" fill="none" stroke="black"/>
<path d="M70.7992,334.984h -13.6063" fill="none" stroke="black"/>
<path d="M63.9961,328.37h -6.80315" fill="none" stroke="black"/>
<path d="M63.9961,321.757h -6.80315" fill="none" stroke="black"/>
<path d="M63.9961,315.143h -6.80315" fill="none" stroke="black"/>
<path d="M63.9961,308.53h -6.80315" fill="none" stroke="black"/>
<path d="M70.7992,301.916h -13.6063" fill="none" stroke="black"/>
<path d="M63.9961,295.303h -6.80315" fill="none" stroke="black"/>
<path d="M63.9961,288.689h -6.80315" fill="none" stroke="black"/>
<path d="M63.9961,282.076h -6.80315" fill="none" stroke="black"/>
<path d="M63.9961,275.462h -6.80315" fill="none" stroke="black"/>
<path d="M70.7992,268.849h -13.6063" fill="none" stroke="black"/>
<path d="M63.9961,262.235h -6.80315" fill="none" stroke="black"/>
<path d="M63.9961,255.621h -6.80315" fill="none" stroke="black"/>
<path d="M63.9961,249.008h -6.80315" fill="none" stroke="black"/>
<path d="M63.9961,242.394h -6.80315" fill="none" stroke="black"/>
<path d="M70.7992,235.781h -13.6063" fill="none" stroke="black"/>
<path d="M63.9961,229.167h -6.80315" fill="none" stroke="black"/>
<path d="M63.9961,222.554h -6.80315" fill="none" stroke="black"/>
<path d="M63.9961,215.94h -6.80315" fill="none" stroke="black"/>
<path d="M63.9961,209.327h -6.80315" fill="none" stroke="black"/>
<path d="M70.7992,202.713h -13.6063" fill="none" stroke="black"/>
<path d="M63.9961,196.1h -6.80315" fill="none" stroke="black"/>
<path d="M63.9961,189.486h -6.80315" fill="none" stroke="black"/>
<path d="M63.9961,182.872h -6.80315" fill="none" stroke="black"/>
<path d="M63.9961,176.259h -6.80315" fill="none" stroke="black"/>
<path d="M70.7992,169.645h -13.6063" fill="none" stroke="black"/>
<path d="M63.9961,163.032h -6.80315" fill="none" stroke="black"/>
<path d="M63.9961,156.418h -6.80315" fill="none" stroke="black"/>
<path d="M63.9961,149.805h -6.80315" fill="none" stroke="black"/>
<path d="M63.9961,143.191h -6.80315" fill="none" stroke="black"/>
<path d="M70.7992,136.578h -13.6063" fill="none" stroke="black"/>
<path d="M63.9961,129.964h -6.80315" fill="none" stroke="black"/>
<path d="M63.9961,123.351h -6.80315" fill="none" stroke="black"/>
<path d="M63.9961,116.737h -6.80315" fill="none" stroke="black"/>
<path d="M63.9961,110.124h -6.80315" fill="none" stroke="black"/>
<path d="M70.7992,103.51h -13.6063" fill="none" stroke="black"/>
<path d="M63.9961,96.8965h -6.80315" fill="none" stroke="black"/>
<path d="M63.9961,90.2829h -6.80315" fill="none" stroke="black"/>
<path d="M63.9961,83.6694h -6.80315" fill="none" stroke="black"/>
<path d="M63.9961,77.0558h -6.80315" fill="none" stroke="black"/>
<path d="M70.7992,70.4423h -13.6063" fill="none" stroke="black"/>
<path d="M70.7992,368.052h -13.6063" fill="none" stroke="black"/>
<path d="M70.7992,70.4423h -13.6063" fill="none" stroke="black"/>
<path d="M63.9961,63.8288h -6.80315" fill="none" stroke="black"/>
<path d="M63.9961,57.2152h -6.80315" fill="none" stroke="black"/>
<path d="M63.9961,50.6017h -6.80315" fill="none" stroke="black"/>
<path d="M63.9961,43.9881h -6.80315" fill="none" stroke="black"/>
<text xml:space="preserve" x="39.3697" y="373.055" fill="black" font-size="13.7726" font-family="Helvetica">17</text>
<text xml:space="preserve" x="39.8437" y="339.399" fill="black" font-size="13.7726" font-family="Helvetica">18</text>
<text xml:space="preserve" x="39.8437" y="306.218" fill="black" font-size="13.7726" font-family="Helvetica">19</text>
<text xml:space="preserve" x="39.8437" y="273.51" fill="black" font-size="13.7726" font-family="Helvetica">20</text>
<text xml:space="preserve" x="41.7398" y="240.803" fill="black" font-size="13.7726" font-family="Helvetica">21</text>
<text xml:space="preserve" x="39.8437" y="207.621" fill="black" font-size="13.7726" font-family="Helvetica">22</text>
<text xml:space="preserve" x="39.8437" y="173.966" fill="black" font-size="13.7726" font-family="Helvetica">23</text>
<text xml:space="preserve" x="39.3697" y="141.732" fill="black" font-size="13.7726" font-family="Helvetica">24</text>
<text xml:space="preserve" x="39.8437" y="108.077" fill="black" font-size="13.7726" font-family="Helvetica">25</text>
<text xml:space="preserve" x="39.8437" y="74.8953" fill="black" font-size="13.7726" font-family="Helvetica">26</text>
<g transform="rotate(-90,22.305,45.98)">
<text xml:space="preserve" x="22.305" y="45.98" fill="black" font-size="9.34839" font-family="Helvetica">2</text>
</g>
<g transform="rotate(-90,26.5712,50.2462)">
<text xml:space="preserve" x="26.5712" y="50.2462" fill="black" font-size="13.7726" font-family="Helvetica"> </text>
</g>
<g transform="rotate(-90,26.5712,57.3565)">
<text xml:space="preserve" x="26.5712" y="57.3565" fill="black" font-size="13.7726" font-family="Times">&#0967;</text>
</g>
<text xml:space="preserve" x="111.421" y="18.9608" fill="black" font-size="15.997" font-family="Helvetica">^2 v.s. calibration factorwith 1st binand with last bin</text>
<text xml:space="preserve" x="102.889" y="18.9608" fill="black" font-size="15.997" font-family="Times">&#0967;</text>
<g stroke="black" stroke-width="1" fill="none">
<line x1="56.375" y1="229.669" x2="60.1672" y2="229.669"/><line x1="58.2711" y1="227.773" x2="58.2711" y2="231.565"/><line x1="56.375" y1="227.773" x2="60.1672" y2="231.565"/><line x1="56.375" y1="231.565" x2="60.1672" y2="227.773"/>
<line x1="60.8749" y1="232.311" x2="64.6671" y2="232.311"/><line x1="62.771" y1="230.415" x2="62.771" y2="234.208"/><line x1="60.8749" y1="230.415" x2="64.6671" y2="234.208"/><line x1="60.8749" y1="234.208" x2="64.6671" y2="230.415"/>
<line x1="65.3748" y1="232.311" x2="69.1669" y2="232.311"/><line x1="67.2709" y1="230.415" x2="67.2709" y2="234.208"/><line x1="65.3748" y1="230.415" x2="69.1669" y2="234.208"/><line x1="65.3748" y1="234.208" x2="69.1669" y2="230.415"/>
<line x1="69.8747" y1="234.944" x2="73.6668" y2="234.944"/><line x1="71.7708" y1="233.048" x2="71.7708" y2="236.84"/><line x1="69.8747" y1="233.048" x2="73.6668" y2="236.84"/><line x1="69.8747" y1="236.84" x2="73.6668" y2="233.048"/>
<line x1="74.3746" y1="237.568" x2="78.1667" y2="237.568"/><line x1="76.2706" y1="235.672" x2="76.2706" y2="239.464"/><line x1="74.3746" y1="235.672" x2="78.1667" y2="239.464"/><line x1="74.3746" y1="239.464" x2="78.1667" y2="235.672"/>
<line x1="78.8744" y1="237.568" x2="82.6666" y2="237.568"/><line x1="80.7705" y1="235.672" x2="80.7705" y2="239.464"/><line x1="78.8744" y1="235.672" x2="82.6666" y2="239.464"/><line x1="78.8744" y1="239.464" x2="82.6666" y2="235.672"/>
<line x1="83.3743" y1="237.568" x2="87.1665" y2="237.568"/><line x1="85.2704" y1="235.672" x2="85.2704" y2="239.464"/><line x1="83.3743" y1="235.672" x2="87.1665" y2="239.464"/><line x1="83.3743" y1="239.464" x2="87.1665" y2="235.672"/>
<line x1="87.8742" y1="240.181" x2="91.6664" y2="240.181"/><line x1="89.7703" y1="238.285" x2="89.7703" y2="242.078"/><line x1="87.8742" y1="238.285" x2="91.6664" y2="242.078"/><line x1="87.8742" y1="242.078" x2="91.6664" y2="238.285"/>
<line x1="92.3741" y1="240.181" x2="96.1663" y2="240.181"/><line x1="94.2702" y1="238.285" x2="94.2702" y2="242.078"/><line x1="92.3741" y1="238.285" x2="96.1663" y2="242.078"/><line x1="92.3741" y1="242.078" x2="96.1663" y2="238.285"/>
<line x1="96.874" y1="242.786" x2="100.666" y2="242.786"/><line x1="98.7701" y1="240.89" x2="98.7701" y2="244.682"/><line x1="96.874" y1="240.89" x2="100.666" y2="244.682"/><line x1="96.874" y1="244.682" x2="100.666" y2="240.89"/>
<line x1="101.374" y1="245.381" x2="105.166" y2="245.381"/><line x1="103.27" y1="243.484" x2="103.27" y2="247.277"/><line x1="101.374" y1="243.484" x2="105.166" y2="247.277"/><line x1="101.374" y1="247.277" x2="105.166" y2="243.484"/>
<line x1="105.874" y1="245.381" x2="109.666" y2="245.381"/><line x1="107.77" y1="243.484" x2="107.77" y2="247.277"/><line x1="105.874" y1="243.484" x2="109.666" y2="247.277"/><line x1="105.874" y1="247.277" x2="109.666" y2="243.484"/>
<line x1="110.374" y1="245.381" x2="114.166" y2="245.381"/><line x1="112.27" y1="243.484" x2="112.27" y2="247.277"/><line x1="110.374" y1="243.484" x2="114.166" y2="247.277"/><line x1="110.374" y1="247.277" x2="114.166" y2="243.484"/>
<line x1="114.874" y1="245.381" x2="118.666" y2="245.381"/><line x1="116.77" y1="243.484" x2="116.77" y2="247.277"/><line x1="114.874" y1="243.484" x2="118.666" y2="247.277"/><line x1="114.874" y1="247.277" x2="118.666" y2="243.484"/>
<line x1="119.373" y1="242.471" x2="123.166" y2="242.471"/><line x1="121.27" y1="240.575" x2="121.27" y2="244.367"/><line x1="119.373" y1="240.575" x2="123.166" y2="244.367"/><line x1="119.373" y1="244.367" x2="123.166" y2="240.575"/>
<line x1="123.873" y1="245.065" x2="127.665" y2="245.065"/><line x1="125.769" y1="243.169" x2="125.769" y2="246.961"/><line x1="123.873" y1="243.169" x2="127.665" y2="246.961"/><line x1="123.873" y1="246.961" x2="127.665" y2="243.169"/>
<line x1="128.373" y1="247.651" x2="132.165" y2="247.651"/><line x1="130.269" y1="245.755" x2="130.269" y2="249.547"/><line x1="128.373" y1="245.755" x2="132.165" y2="249.547"/><line x1="128.373" y1="249.547" x2="132.165" y2="245.755"/>
<line x1="132.873" y1="252.793" x2="136.665" y2="252.793"/><line x1="134.769" y1="250.897" x2="134.769" y2="254.689"/><line x1="132.873" y1="250.897" x2="136.665" y2="254.689"/><line x1="132.873" y1="254.689" x2="136.665" y2="250.897"/>
<line x1="137.373" y1="251.825" x2="141.165" y2="251.825"/><line x1="139.269" y1="249.928" x2="139.269" y2="253.721"/><line x1="137.373" y1="249.928" x2="141.165" y2="253.721"/><line x1="137.373" y1="253.721" x2="141.165" y2="249.928"/>
<line x1="141.873" y1="251.825" x2="145.665" y2="251.825"/><line x1="143.769" y1="249.928" x2="143.769" y2="253.721"/><line x1="141.873" y1="249.928" x2="145.665" y2="253.721"/><line x1="141.873" y1="253.721" x2="145.665" y2="249.928"/>
<line x1="146.373" y1="254.381" x2="150.165" y2="254.381"/><line x1="148.269" y1="252.485" x2="148.269" y2="256.277"/><line x1="146.373" y1="252.485" x2="150.165" y2="256.277"/><line x1="146.373" y1="256.277" x2="150.165" y2="252.485"/>
<line x1="150.873" y1="254.381" x2="154.665" y2="254.381"/><line x1="152.769" y1="252.485" x2="152.769" y2="256.277"/><line x1="150.873" y1="252.485" x2="154.665" y2="256.277"/><line x1="150.873" y1="256.277" x2="154.665" y2="252.485"/>
<line x1="155.373" y1="256.928" x2="159.165" y2="256.928"/><line x1="157.269" y1="255.032" x2="157.269" y2="258.824"/><line x1="155.373" y1="255.032" x2="159.165" y2="258.824"/><line x1="155.373" y1="258.824" x2="159.165" y2="255.032"/>
<line x1="159.872" y1="259.466" x2="163.665" y2="259.466"/><line x1="161.769" y1="257.57" x2="161.769" y2="261.362"/><line x1="159.872" y1="257.57" x2="163.665" y2="261.362"/><line x1="159.872" y1="261.362" x2="163.665" y2="257.57"/>
<line x1="164.372" y1="264.513" x2="168.164" y2="264.513"/><line x1="166.268" y1="262.617" x2="166.268" y2="266.409"/><line x1="164.372" y1="262.617" x2="168.164" y2="266.409"/><line x1="164.372" y1="266.409" x2="168.164" y2="262.617"/>
<line x1="168.872" y1="267.022" x2="172.664" y2="267.022"/><line x1="170.768" y1="265.126" x2="170.768" y2="268.918"/><line x1="168.872" y1="265.126" x2="172.664" y2="268.918"/><line x1="168.872" y1="268.918" x2="172.664" y2="265.126"/>
<line x1="173.372" y1="267.022" x2="177.164" y2="267.022"/><line x1="175.268" y1="265.126" x2="175.268" y2="268.918"/><line x1="173.372" y1="265.126" x2="177.164" y2="268.918"/><line x1="173.372" y1="268.918" x2="177.164" y2="265.126"/>
<line x1="177.872" y1="267.022" x2="181.664" y2="267.022"/><line x1="179.768" y1="265.126" x2="179.768" y2="268.918"/><line x1="177.872" y1="265.126" x2="181.664" y2="268.918"/><line x1="177.872" y1="268.918" x2="181.664" y2="265.126"/>
<line x1="182.372" y1="269.522" x2="186.164" y2="269.522"/><line x1="184.268" y1="267.626" x2="184.268" y2="271.418"/><line x1="182.372" y1="267.626" x2="186.164" y2="271.418"/><line x1="182.372" y1="271.418" x2="186.164" y2="267.626"/>
<line x1="186.872" y1="272.012" x2="190.664" y2="272.012"/><line x1="188.768" y1="270.116" x2="188.768" y2="273.908"/><line x1="186.872" y1="270.116" x2="190.664" y2="273.908"/><line x1="186.872" y1="273.908" x2="190.664" y2="270.116"/>
<line x1="191.372" y1="274.492" x2="195.164" y2="274.492"/><line x1="193.268" y1="272.596" x2="193.268" y2="276.388"/><line x1="191.372" y1="272.596" x2="195.164" y2="276.388"/><line x1="191.372" y1="276.388" x2="195.164" y2="272.596"/>
<line x1="195.872" y1="274.492" x2="199.664" y2="274.492"/><line x1="197.768" y1="272.596" x2="197.768" y2="276.388"/><line x1="195.872" y1="272.596" x2="199.664" y2="276.388"/><line x1="195.872" y1="276.388" x2="199.664" y2="272.596"/>
<line x1="200.371" y1="276.964" x2="204.164" y2="276.964"/><line x1="202.267" y1="275.068" x2="202.267" y2="278.86"/><line x1="200.371" y1="275.068" x2="204.164" y2="278.86"/><line x1="200.371" y1="278.86" x2="204.164" y2="275.068"/>
<line x1="204.871" y1="276.964" x2="208.663" y2="276.964"/><line x1="206.767" y1="275.068" x2="206.767" y2="278.86"/><line x1="204.871" y1="275.068" x2="208.663" y2="278.86"/><line x1="204.871" y1="278.86" x2="208.663" y2="275.068"/>
<line x1="209.371" y1="276.964" x2="213.163" y2="276.964"/><line x1="211.267" y1="275.068" x2="211.267" y2="278.86"/><line x1="209.371" y1="275.068" x2="213.163" y2="278.86"/><line x1="209.371" y1="278.86" x2="213.163" y2="275.068"/>
<line x1="213.871" y1="276.964" x2="217.663" y2="276.964"/><line x1="215.767" y1="275.068" x2="215.767" y2="278.86"/><line x1="213.871" y1="275.068" x2="217.663" y2="278.86"/><line x1="213.871" y1="278.86" x2="217.663" y2="275.068"/>
<line x1="218.371" y1="276.964" x2="222.163" y2="276.964"/><line x1="220.267" y1="275.068" x2="220.267" y2="278.86"/><line x1="218.371" y1="275.068" x2="222.163" y2="278.86"/><line x1="218.371" y1="278.86" x2="222.163" y2="275.068"/>
<line x1="222.871" y1="276.964" x2="226.663" y2="276.964"/><line x1="224.767" y1="275.068" x2="224.767" y2="278.86"/><line x1="222.871" y1="275.068" x2="226.663" y2="278.86"/><line x1="222.871" y1="278.86" x2="226.663" y2="275.068"/>
<line x1="227.371" y1="276.964" x2="231.163" y2="276.964"/><line x1="229.267" y1="275.068" x2="229.267" y2="278.86"/><line x1="227.371" y1="275.068" x2="231.163" y2="278.86"/><line x1="227.371" y1="278.86" x2="231.163" y2="275.068"/>
<line x1="231.871" y1="279.425" x2="235.663" y2="279.425"/><line x1="233.767" y1="277.529" x2="233.767" y2="281.321"/><line x1="231.871" y1="277.529" x2="235.663" y2="281.321"/><line x1="231.871" y1="281.321" x2="235.663" y2="277.529"/>
<line x1="236.37" y1="284.32" x2="240.163" y2="284.32"/><line x1="238.267" y1="282.424" x2="238.267" y2="286.216"/><line x1="236.37" y1="282.424" x2="240.163" y2="286.216"/><line x1="236.37" y1="286.216" x2="240.163" y2="282.424"/>
<line x1="240.87" y1="291.591" x2="244.663" y2="291.591"/><line x1="242.766" y1="289.695" x2="242.766" y2="293.487"/><line x1="240.87" y1="289.695" x2="244.663" y2="293.487"/><line x1="240.87" y1="293.487" x2="244.663" y2="289.695"/>
<line x1="245.37" y1="293.996" x2="249.162" y2="293.996"/><line x1="247.266" y1="292.1" x2="247.266" y2="295.892"/><line x1="245.37" y1="292.1" x2="249.162" y2="295.892"/><line x1="245.37" y1="295.892" x2="249.162" y2="292.1"/>
<line x1="249.87" y1="296.391" x2="253.662" y2="296.391"/><line x1="251.766" y1="294.495" x2="251.766" y2="298.287"/><line x1="249.87" y1="294.495" x2="253.662" y2="298.287"/><line x1="249.87" y1="298.287" x2="253.662" y2="294.495"/>
<line x1="254.37" y1="296.391" x2="258.162" y2="296.391"/><line x1="256.266" y1="294.495" x2="256.266" y2="298.287"/><line x1="254.37" y1="294.495" x2="258.162" y2="298.287"/><line x1="254.37" y1="298.287" x2="258.162" y2="294.495"/>
<line x1="258.87" y1="296.391" x2="262.662" y2="296.391"/><line x1="260.766" y1="294.495" x2="260.766" y2="298.287"/><line x1="258.87" y1="294.495" x2="262.662" y2="298.287"/><line x1="258.87" y1="298.287" x2="262.662" y2="294.495"/>
<line x1="263.37" y1="296.391" x2="267.162" y2="296.391"/><line x1="265.266" y1="294.495" x2="265.266" y2="298.287"/><line x1="263.37" y1="294.495" x2="267.162" y2="298.287"/><line x1="263.37" y1="298.287" x2="267.162" y2="294.495"/>
<line x1="267.87" y1="296.391" x2="271.662" y2="296.391"/><line x1="269.766" y1="294.495" x2="269.766" y2="298.287"/><line x1="267.87" y1="294.495" x2="271.662" y2="298.287"/><line x1="267.87" y1="298.287" x2="271.662" y2="294.495"/>
<line x1="272.37" y1="298.776" x2="276.162" y2="298.776"/><line x1="274.266" y1="296.88" x2="274.266" y2="300.672"/><line x1="272.37" y1="296.88" x2="276.162" y2="300.672"/><line x1="272.37" y1="300.672" x2="276.162" y2="296.88"/>
<line x1="276.87" y1="301.153" x2="280.662" y2="301.153"/><line x1="278.766" y1="299.256" x2="278.766" y2="303.049"/><line x1="276.87" y1="299.256" x2="280.662" y2="303.049"/><line x1="276.87" y1="303.049" x2="280.662" y2="299.256"/>
<line x1="281.369" y1="305.876" x2="285.162" y2="305.876"/><line x1="283.265" y1="303.98" x2="283.265" y2="307.772"/><line x1="281.369" y1="303.98" x2="285.162" y2="307.772"/><line x1="281.369" y1="307.772" x2="285.162" y2="303.98"/>
<line x1="285.869" y1="305.876" x2="289.661" y2="305.876"/><line x1="287.765" y1="303.98" x2="287.765" y2="307.772"/><line x1="285.869" y1="303.98" x2="289.661" y2="307.772"/><line x1="285.869" y1="307.772" x2="289.661" y2="303.98"/>
</g>
<g stroke="black" stroke-width="1" fill="none">
<line x1="456.865" y1="44.5416" x2="460.657" y2="44.5416"/><line x1="458.761" y1="42.6455" x2="458.761" y2="46.4377"/><line x1="456.865" y1="42.6455" x2="460.657" y2="46.4377"/><line x1="456.865" y1="46.4377" x2="460.657" y2="42.6455"/>
<line x1="461.365" y1="41.5082" x2="465.157" y2="41.5082"/><line x1="463.261" y1="39.6121" x2="463.261" y2="43.4043"/><line x1="461.365" y1="39.6121" x2="465.157" y2="43.4043"/><line x1="461.365" y1="43.4043" x2="465.157" y2="39.6121"/>
<line x1="465.865" y1="41.5082" x2="469.657" y2="41.5082"/><line x1="467.761" y1="39.6121" x2="467.761" y2="43.4043"/><line x1="465.865" y1="39.6121" x2="469.657" y2="43.4043"/><line x1="465.865" y1="43.4043" x2="469.657" y2="39.6121"/>
<line x1="470.365" y1="43.5711" x2="474.157" y2="43.5711"/><line x1="472.261" y1="41.675" x2="472.261" y2="45.4671"/><line x1="470.365" y1="41.675" x2="474.157" y2="45.4671"/><line x1="470.365" y1="45.4671" x2="474.157" y2="41.675"/>
<line x1="474.865" y1="47.6683" x2="478.657" y2="47.6683"/><line x1="476.761" y1="45.7723" x2="476.761" y2="49.5644"/><line x1="474.865" y1="45.7723" x2="478.657" y2="49.5644"/><line x1="474.865" y1="49.5644" x2="478.657" y2="45.7723"/>
<line x1="479.364" y1="51.7276" x2="483.157" y2="51.7276"/><line x1="481.261" y1="49.8315" x2="481.261" y2="53.6237"/><line x1="479.364" y1="49.8315" x2="483.157" y2="53.6237"/><line x1="479.364" y1="53.6237" x2="483.157" y2="49.8315"/>
<line x1="483.864" y1="57.7455" x2="487.656" y2="57.7455"/><line x1="485.76" y1="55.8494" x2="485.76" y2="59.6416"/><line x1="483.864" y1="55.8494" x2="487.656" y2="59.6416"/><line x1="483.864" y1="59.6416" x2="487.656" y2="55.8494"/>
<line x1="488.364" y1="57.7455" x2="492.156" y2="57.7455"/><line x1="490.26" y1="55.8494" x2="490.26" y2="59.6416"/><line x1="488.364" y1="55.8494" x2="492.156" y2="59.6416"/><line x1="488.364" y1="59.6416" x2="492.156" y2="55.8494"/>
<line x1="492.864" y1="57.7455" x2="496.656" y2="57.7455"/><line x1="494.76" y1="55.8494" x2="494.76" y2="59.6416"/><line x1="492.864" y1="55.8494" x2="496.656" y2="59.6416"/><line x1="492.864" y1="59.6416" x2="496.656" y2="55.8494"/>
<line x1="497.364" y1="59.7325" x2="501.156" y2="59.7325"/><line x1="499.26" y1="57.8364" x2="499.26" y2="61.6286"/><line x1="497.364" y1="57.8364" x2="501.156" y2="61.6286"/><line x1="497.364" y1="61.6286" x2="501.156" y2="57.8364"/>
<line x1="501.864" y1="59.7325" x2="505.656" y2="59.7325"/><line x1="503.76" y1="57.8364" x2="503.76" y2="61.6286"/><line x1="501.864" y1="57.8364" x2="505.656" y2="61.6286"/><line x1="501.864" y1="61.6286" x2="505.656" y2="57.8364"/>
<line x1="506.364" y1="59.7325" x2="510.156" y2="59.7325"/><line x1="508.26" y1="57.8364" x2="508.26" y2="61.6286"/><line x1="506.364" y1="57.8364" x2="510.156" y2="61.6286"/><line x1="506.364" y1="61.6286" x2="510.156" y2="57.8364"/>
</g>
<path d="M0.5,272.809h 566.929" fill="none" stroke="#0000ff"/>
<text xml:space="preserve" x="111.421" y="18.9608" fill="black" font-size="15.997" font-family="Helvetica">^2 v.s. calibration factorwith 1st binand with last bin</text>
<text xml:space="preserve" x="102.889" y="18.9608" fill="black" font-size="15.997" font-family="Times">&#0967;</text></svg>
