<?xml version="1.0" standalone="no"?>
<svg width="567.429" height="413.846" viewBox="0 0 567.429 413.846" xmlns="http://www.w3.org/2000/svg" shape-rendering="crispEdges">
<title>
figures/chi2zoomin_2PMTnpefilelist20.svg
</title>
<desc>
Creator: ROOT Version 6.18/04
CreationDate: Mon Nov  4 09:24:51 2019</desc>
<defs>
</defs>
<rect x="0.5" y="0" width="566.929" height="413.346" fill="white"/>
<rect x="57.1929" y="41.3346" width="453.543" height="330.677" fill="white"/>
<rect x="57.1929" y="41.3346" width="453.543" height="330.677" fill="none" stroke="black"/>
<path d="M57.1929,372.012h 453.543" fill="none" stroke="black"/>
<path d="M76.3516,41.3346v 330.677" fill="none" stroke="black" stroke-dasharray=" 1, 2"/>
<path d="M121.351,41.3346v 330.677" fill="none" stroke="black" stroke-dasharray=" 1, 2"/>
<path d="M166.349,41.3346v 330.677" fill="none" stroke="black" stroke-dasharray=" 1, 2"/>
<path d="M211.348,41.3346v 330.677" fill="none" stroke="black" stroke-dasharray=" 1, 2"/>
<path d="M256.347,41.3346v 330.677" fill="none" stroke="black" stroke-dasharray=" 1, 2"/>
<path d="M301.346,41.3346v 330.677" fill="none" stroke="black" stroke-dasharray=" 1, 2"/>
<path d="M346.345,41.3346v 330.677" fill="none" stroke="black" stroke-dasharray=" 1, 2"/>
<path d="M391.344,41.3346v 330.677" fill="none" stroke="black" stroke-dasharray=" 1, 2"/>
<path d="M436.343,41.3346v 330.677" fill="none" stroke="black" stroke-dasharray=" 1, 2"/>
<path d="M481.342,41.3346v 330.677" fill="none" stroke="black" stroke-dasharray=" 1, 2"/>
<path d="M76.3516,41.3346v 330.677" fill="none" stroke="black" stroke-dasharray=" 1, 2"/>
<path d="M481.342,41.3346v 330.677" fill="none" stroke="black" stroke-dasharray=" 1, 2"/>
<path d="M57.1929,372.012v -330.677" fill="none" stroke="black"/>
<path d="M57.1929,372.012h 453.543" fill="none" stroke="black"/>
<path d="M76.3516,362.091v 9.92031" fill="none" stroke="black"/>
<path d="M87.6014,367.052v 4.96016" fill="none" stroke="black"/>
<path d="M98.8511,367.052v 4.96016" fill="none" stroke="black"/>
<path d="M110.101,367.052v 4.96016" fill="none" stroke="black"/>
<path d="M121.351,362.091v 9.92031" fill="none" stroke="black"/>
<path d="M132.6,367.052v 4.96016" fill="none" stroke="black"/>
<path d="M143.85,367.052v 4.96016" fill="none" stroke="black"/>
<path d="M155.1,367.052v 4.96016" fill="none" stroke="black"/>
<path d="M166.349,362.091v 9.92031" fill="none" stroke="black"/>
<path d="M177.599,367.052v 4.96016" fill="none" stroke="black"/>
<path d="M188.849,367.052v 4.96016" fill="none" stroke="black"/>
<path d="M200.099,367.052v 4.96016" fill="none" stroke="black"/>
<path d="M211.348,362.091v 9.92031" fill="none" stroke="black"/>
<path d="M222.598,367.052v 4.96016" fill="none" stroke="black"/>
<path d="M233.848,367.052v 4.96016" fill="none" stroke="black"/>
<path d="M245.097,367.052v 4.96016" fill="none" stroke="black"/>
<path d="M256.347,362.091v 9.92031" fill="none" stroke="black"/>
<path d="M267.597,367.052v 4.96016" fill="none" stroke="black"/>
<path d="M278.847,367.052v 4.96016" fill="none" stroke="black"/>
<path d="M290.096,367.052v 4.96016" fill="none" stroke="black"/>
<path d="M301.346,362.091v 9.92031" fill="none" stroke="black"/>
<path d="M312.596,367.052v 4.96016" fill="none" stroke="black"/>
<path d="M323.845,367.052v 4.96016" fill="none" stroke="black"/>
<path d="M335.095,367.052v 4.96016" fill="none" stroke="black"/>
<path d="M346.345,362.091v 9.92031" fill="none" stroke="black"/>
<path d="M357.595,367.052v 4.96016" fill="none" stroke="black"/>
<path d="M368.844,367.052v 4.96016" fill="none" stroke="black"/>
<path d="M380.094,367.052v 4.96016" fill="none" stroke="black"/>
<path d="M391.344,362.091v 9.92031" fill="none" stroke="black"/>
<path d="M402.593,367.052v 4.96016" fill="none" stroke="black"/>
<path d="M413.843,367.052v 4.96016" fill="none" stroke="black"/>
<path d="M425.093,367.052v 4.96016" fill="none" stroke="black"/>
<path d="M436.343,362.091v 9.92031" fill="none" stroke="black"/>
<path d="M447.592,367.052v 4.96016" fill="none" stroke="black"/>
<path d="M458.842,367.052v 4.96016" fill="none" stroke="black"/>
<path d="M470.092,367.052v 4.96016" fill="none" stroke="black"/>
<path d="M481.342,362.091v 9.92031" fill="none" stroke="black"/>
<path d="M76.3516,362.091v 9.92031" fill="none" stroke="black"/>
<path d="M65.1019,367.052v 4.96016" fill="none" stroke="black"/>
<path d="M481.342,362.091v 9.92031" fill="none" stroke="black"/>
<path d="M492.591,367.052v 4.96016" fill="none" stroke="black"/>
<path d="M503.841,367.052v 4.96016" fill="none" stroke="black"/>
<text xml:space="preserve" x="59.7526" y="385.379" fill="black" font-size="13.7726" font-family="Helvetica">0.716</text>
<text xml:space="preserve" x="104.311" y="385.379" fill="black" font-size="13.7726" font-family="Helvetica">0.718</text>
<text xml:space="preserve" x="153.135" y="385.379" fill="black" font-size="13.7726" font-family="Helvetica">0.72</text>
<text xml:space="preserve" x="194.375" y="385.379" fill="black" font-size="13.7726" font-family="Helvetica">0.722</text>
<text xml:space="preserve" x="239.407" y="385.379" fill="black" font-size="13.7726" font-family="Helvetica">0.724</text>
<text xml:space="preserve" x="284.439" y="385.379" fill="black" font-size="13.7726" font-family="Helvetica">0.726</text>
<text xml:space="preserve" x="329.471" y="385.379" fill="black" font-size="13.7726" font-family="Helvetica">0.728</text>
<text xml:space="preserve" x="378.295" y="385.379" fill="black" font-size="13.7726" font-family="Helvetica">0.73</text>
<text xml:space="preserve" x="419.535" y="385.379" fill="black" font-size="13.7726" font-family="Helvetica">0.732</text>
<text xml:space="preserve" x="464.567" y="385.379" fill="black" font-size="13.7726" font-family="Helvetica">0.734</text>
<text xml:space="preserve" x="413.372" y="400.074" fill="black" font-size="13.7726" font-family="Helvetica">calibration factor</text>
<path d="M57.1929,372.012v -330.677" fill="none" stroke="black"/>
<path d="M70.7992,350.911h -13.6063" fill="none" stroke="black"/>
<path d="M63.9961,344.297h -6.80315" fill="none" stroke="black"/>
<path d="M63.9961,337.684h -6.80315" fill="none" stroke="black"/>
<path d="M63.9961,331.07h -6.80315" fill="none" stroke="black"/>
<path d="M63.9961,324.457h -6.80315" fill="none" stroke="black"/>
<path d="M70.7992,317.843h -13.6063" fill="none" stroke="black"/>
<path d="M63.9961,311.229h -6.80315" fill="none" stroke="black"/>
<path d="M63.9961,304.616h -6.80315" fill="none" stroke="black"/>
<path d="M63.9961,298.002h -6.80315" fill="none" stroke="black"/>
<path d="M63.9961,291.389h -6.80315" fill="none" stroke="black"/>
<path d="M70.7992,284.775h -13.6063" fill="none" stroke="black"/>
<path d="M63.9961,278.162h -6.80315" fill="none" stroke="black"/>
<path d="M63.9961,271.548h -6.80315" fill="none" stroke="black"/>
<path d="M63.9961,264.935h -6.80315" fill="none" stroke="black"/>
<path d="M63.9961,258.321h -6.80315" fill="none" stroke="black"/>
<path d="M70.7992,251.708h -13.6063" fill="none" stroke="black"/>
<path d="M63.9961,245.094h -6.80315" fill="none" stroke="black"/>
<path d="M63.9961,238.48h -6.80315" fill="none" stroke="black"/>
<path d="M63.9961,231.867h -6.80315" fill="none" stroke="black"/>
<path d="M63.9961,225.253h -6.80315" fill="none" stroke="black"/>
<path d="M70.7992,218.64h -13.6063" fill="none" stroke="black"/>
<path d="M63.9961,212.026h -6.80315" fill="none" stroke="black"/>
<path d="M63.9961,205.413h -6.80315" fill="none" stroke="black"/>
<path d="M63.9961,198.799h -6.80315" fill="none" stroke="black"/>
<path d="M63.9961,192.186h -6.80315" fill="none" stroke="black"/>
<path d="M70.7992,185.572h -13.6063" fill="none" stroke="black"/>
<path d="M63.9961,178.959h -6.80315" fill="none" stroke="black"/>
<path d="M63.9961,172.345h -6.80315" fill="none" stroke="black"/>
<path d="M63.9961,165.732h -6.80315" fill="none" stroke="black"/>
<path d="M63.9961,159.118h -6.80315" fill="none" stroke="black"/>
<path d="M70.7992,152.504h -13.6063" fill="none" stroke="black"/>
<path d="M63.9961,145.891h -6.80315" fill="none" stroke="black"/>
<path d="M63.9961,139.277h -6.80315" fill="none" stroke="black"/>
<path d="M63.9961,132.664h -6.80315" fill="none" stroke="black"/>
<path d="M63.9961,126.05h -6.80315" fill="none" stroke="black"/>
<path d="M70.7992,119.437h -13.6063" fill="none" stroke="black"/>
<path d="M63.9961,112.823h -6.80315" fill="none" stroke="black"/>
<path d="M63.9961,106.21h -6.80315" fill="none" stroke="black"/>
<path d="M63.9961,99.5961h -6.80315" fill="none" stroke="black"/>
<path d="M63.9961,92.9826h -6.80315" fill="none" stroke="black"/>
<path d="M70.7992,86.369h -13.6063" fill="none" stroke="black"/>
<path d="M63.9961,79.7555h -6.80315" fill="none" stroke="black"/>
<path d="M63.9961,73.1419h -6.80315" fill="none" stroke="black"/>
<path d="M63.9961,66.5284h -6.80315" fill="none" stroke="black"/>
<path d="M63.9961,59.9149h -6.80315" fill="none" stroke="black"/>
<path d="M70.7992,53.3013h -13.6063" fill="none" stroke="black"/>
<path d="M70.7992,350.911h -13.6063" fill="none" stroke="black"/>
<path d="M63.9961,357.524h -6.80315" fill="none" stroke="black"/>
<path d="M63.9961,364.138h -6.80315" fill="none" stroke="black"/>
<path d="M63.9961,370.751h -6.80315" fill="none" stroke="black"/>
<path d="M70.7992,53.3013h -13.6063" fill="none" stroke="black"/>
<path d="M63.9961,46.6878h -6.80315" fill="none" stroke="black"/>
<text xml:space="preserve" x="32.2594" y="355.516" fill="black" font-size="13.7726" font-family="Helvetica">413</text>
<text xml:space="preserve" x="32.2594" y="322.808" fill="black" font-size="13.7726" font-family="Helvetica">414</text>
<text xml:space="preserve" x="32.2594" y="289.153" fill="black" font-size="13.7726" font-family="Helvetica">415</text>
<text xml:space="preserve" x="32.2594" y="256.445" fill="black" font-size="13.7726" font-family="Helvetica">416</text>
<text xml:space="preserve" x="32.2594" y="223.738" fill="black" font-size="13.7726" font-family="Helvetica">417</text>
<text xml:space="preserve" x="32.2594" y="190.082" fill="black" font-size="13.7726" font-family="Helvetica">418</text>
<text xml:space="preserve" x="32.2594" y="156.901" fill="black" font-size="13.7726" font-family="Helvetica">419</text>
<text xml:space="preserve" x="32.2594" y="123.719" fill="black" font-size="13.7726" font-family="Helvetica">420</text>
<text xml:space="preserve" x="34.6295" y="91.4861" fill="black" font-size="13.7726" font-family="Helvetica">421</text>
<text xml:space="preserve" x="32.2594" y="58.3046" fill="black" font-size="13.7726" font-family="Helvetica">422</text>
<g transform="rotate(-90,15.1947,45.98)">
<text xml:space="preserve" x="15.1947" y="45.98" fill="black" font-size="9.34839" font-family="Helvetica">2</text>
</g>
<g transform="rotate(-90,19.4608,50.2462)">
<text xml:space="preserve" x="19.4608" y="50.2462" fill="black" font-size="13.7726" font-family="Helvetica"> </text>
</g>
<g transform="rotate(-90,19.4608,57.3565)">
<text xml:space="preserve" x="19.4608" y="57.3565" fill="black" font-size="13.7726" font-family="Times">&#0967;</text>
</g>
<text xml:space="preserve" x="111.421" y="18.9608" fill="black" font-size="15.997" font-family="Helvetica">^2 v.s. calibration factorwith 1st binand with last bin</text>
<text xml:space="preserve" x="102.889" y="18.9608" fill="black" font-size="15.997" font-family="Times">&#0967;</text>
<g stroke="black" stroke-width="1" fill="none">
<line x1="195.953" y1="228.325" x2="199.745" y2="228.325"/><line x1="197.849" y1="226.429" x2="197.849" y2="230.221"/><line x1="195.953" y1="226.429" x2="199.745" y2="230.221"/><line x1="195.953" y1="230.221" x2="199.745" y2="226.429"/>
<line x1="200.452" y1="231.649" x2="204.245" y2="231.649"/><line x1="202.348" y1="229.753" x2="202.348" y2="233.545"/><line x1="200.452" y1="229.753" x2="204.245" y2="233.545"/><line x1="200.452" y1="233.545" x2="204.245" y2="229.753"/>
<line x1="204.952" y1="238.653" x2="208.744" y2="238.653"/><line x1="206.848" y1="236.757" x2="206.848" y2="240.55"/><line x1="204.952" y1="236.757" x2="208.744" y2="240.55"/><line x1="204.952" y1="240.55" x2="208.744" y2="236.757"/>
<line x1="209.452" y1="225.213" x2="213.244" y2="225.213"/><line x1="211.348" y1="223.317" x2="211.348" y2="227.109"/><line x1="209.452" y1="223.317" x2="213.244" y2="227.109"/><line x1="209.452" y1="227.109" x2="213.244" y2="223.317"/>
<line x1="213.952" y1="205.191" x2="217.744" y2="205.191"/><line x1="215.848" y1="203.295" x2="215.848" y2="207.088"/><line x1="213.952" y1="203.295" x2="217.744" y2="207.088"/><line x1="213.952" y1="207.088" x2="217.744" y2="203.295"/>
<line x1="218.452" y1="191.118" x2="222.244" y2="191.118"/><line x1="220.348" y1="189.222" x2="220.348" y2="193.014"/><line x1="218.452" y1="189.222" x2="222.244" y2="193.014"/><line x1="218.452" y1="193.014" x2="222.244" y2="189.222"/>
<line x1="222.952" y1="202.03" x2="226.744" y2="202.03"/><line x1="224.848" y1="200.134" x2="224.848" y2="203.926"/><line x1="222.952" y1="200.134" x2="226.744" y2="203.926"/><line x1="222.952" y1="203.926" x2="226.744" y2="200.134"/>
<line x1="227.452" y1="210.65" x2="231.244" y2="210.65"/><line x1="229.348" y1="208.754" x2="229.348" y2="212.546"/><line x1="227.452" y1="208.754" x2="231.244" y2="212.546"/><line x1="227.452" y1="212.546" x2="231.244" y2="208.754"/>
<line x1="231.952" y1="227.68" x2="235.744" y2="227.68"/><line x1="233.848" y1="225.784" x2="233.848" y2="229.576"/><line x1="231.952" y1="225.784" x2="235.744" y2="229.576"/><line x1="231.952" y1="229.576" x2="235.744" y2="225.784"/>
<line x1="236.452" y1="249.459" x2="240.244" y2="249.459"/><line x1="238.348" y1="247.563" x2="238.348" y2="251.355"/><line x1="236.452" y1="247.563" x2="240.244" y2="251.355"/><line x1="236.452" y1="251.355" x2="240.244" y2="247.563"/>
<line x1="240.951" y1="250.383" x2="244.744" y2="250.383"/><line x1="242.847" y1="248.487" x2="242.847" y2="252.279"/><line x1="240.951" y1="248.487" x2="244.744" y2="252.279"/><line x1="240.951" y1="252.279" x2="244.744" y2="248.487"/>
<line x1="245.451" y1="263.049" x2="249.243" y2="263.049"/><line x1="247.347" y1="261.153" x2="247.347" y2="264.945"/><line x1="245.451" y1="261.153" x2="249.243" y2="264.945"/><line x1="245.451" y1="264.945" x2="249.243" y2="261.153"/>
<line x1="249.951" y1="252.542" x2="253.743" y2="252.542"/><line x1="251.847" y1="250.646" x2="251.847" y2="254.438"/><line x1="249.951" y1="250.646" x2="253.743" y2="254.438"/><line x1="249.951" y1="254.438" x2="253.743" y2="250.646"/>
<line x1="254.451" y1="257.132" x2="258.243" y2="257.132"/><line x1="256.347" y1="255.236" x2="256.347" y2="259.028"/><line x1="254.451" y1="255.236" x2="258.243" y2="259.028"/><line x1="254.451" y1="259.028" x2="258.243" y2="255.236"/>
<line x1="258.951" y1="271.691" x2="262.743" y2="271.691"/><line x1="260.847" y1="269.794" x2="260.847" y2="273.587"/><line x1="258.951" y1="269.794" x2="262.743" y2="273.587"/><line x1="258.951" y1="273.587" x2="262.743" y2="269.794"/>
<line x1="263.451" y1="286.257" x2="267.243" y2="286.257"/><line x1="265.347" y1="284.36" x2="265.347" y2="288.153"/><line x1="263.451" y1="284.36" x2="267.243" y2="288.153"/><line x1="263.451" y1="288.153" x2="267.243" y2="284.36"/>
<line x1="267.951" y1="291.005" x2="271.743" y2="291.005"/><line x1="269.847" y1="289.109" x2="269.847" y2="292.901"/><line x1="267.951" y1="289.109" x2="271.743" y2="292.901"/><line x1="267.951" y1="292.901" x2="271.743" y2="289.109"/>
<line x1="272.451" y1="294.145" x2="276.243" y2="294.145"/><line x1="274.347" y1="292.248" x2="274.347" y2="296.041"/><line x1="272.451" y1="292.248" x2="276.243" y2="296.041"/><line x1="272.451" y1="296.041" x2="276.243" y2="292.248"/>
<line x1="276.951" y1="301.612" x2="280.743" y2="301.612"/><line x1="278.847" y1="299.716" x2="278.847" y2="303.508"/><line x1="276.951" y1="299.716" x2="280.743" y2="303.508"/><line x1="276.951" y1="303.508" x2="280.743" y2="299.716"/>
<line x1="281.45" y1="305.876" x2="285.243" y2="305.876"/><line x1="283.346" y1="303.98" x2="283.346" y2="307.772"/><line x1="281.45" y1="303.98" x2="285.243" y2="307.772"/><line x1="281.45" y1="307.772" x2="285.243" y2="303.98"/>
<line x1="285.95" y1="297.699" x2="289.742" y2="297.699"/><line x1="287.846" y1="295.803" x2="287.846" y2="299.595"/><line x1="285.95" y1="295.803" x2="289.742" y2="299.595"/><line x1="285.95" y1="299.595" x2="289.742" y2="295.803"/>
<line x1="290.45" y1="297.069" x2="294.242" y2="297.069"/><line x1="292.346" y1="295.173" x2="292.346" y2="298.965"/><line x1="290.45" y1="295.173" x2="294.242" y2="298.965"/><line x1="290.45" y1="298.965" x2="294.242" y2="295.173"/>
<line x1="294.95" y1="290.321" x2="298.742" y2="290.321"/><line x1="296.846" y1="288.425" x2="296.846" y2="292.217"/><line x1="294.95" y1="288.425" x2="298.742" y2="292.217"/><line x1="294.95" y1="292.217" x2="298.742" y2="288.425"/>
<line x1="299.45" y1="278.31" x2="303.242" y2="278.31"/><line x1="301.346" y1="276.414" x2="301.346" y2="280.206"/><line x1="299.45" y1="276.414" x2="303.242" y2="280.206"/><line x1="299.45" y1="280.206" x2="303.242" y2="276.414"/>
<line x1="303.95" y1="268.231" x2="307.742" y2="268.231"/><line x1="305.846" y1="266.335" x2="305.846" y2="270.127"/><line x1="303.95" y1="266.335" x2="307.742" y2="270.127"/><line x1="303.95" y1="270.127" x2="307.742" y2="266.335"/>
</g>
<path d="M0.5,272.809h 566.929" fill="none" stroke="#0000ff"/>
<text xml:space="preserve" x="111.421" y="18.9608" fill="black" font-size="15.997" font-family="Helvetica">^2 v.s. calibration factorwith 1st binand with last bin</text>
<text xml:space="preserve" x="102.889" y="18.9608" fill="black" font-size="15.997" font-family="Times">&#0967;</text></svg>
