<?xml version="1.0" standalone="no"?>
<svg width="567.429" height="413.846" viewBox="0 0 567.429 413.846" xmlns="http://www.w3.org/2000/svg" shape-rendering="crispEdges">
<title>
figures/chi2zoomin_1PMTnpefilelist20.svg
</title>
<desc>
Creator: ROOT Version 6.18/04
CreationDate: Mon Nov  4 09:24:28 2019</desc>
<defs>
</defs>
<rect x="0.5" y="0" width="566.929" height="413.346" fill="white"/>
<rect x="57.1929" y="41.3346" width="453.543" height="330.677" fill="white"/>
<rect x="57.1929" y="41.3346" width="453.543" height="330.677" fill="none" stroke="black"/>
<path d="M57.1929,372.012h 453.543" fill="none" stroke="black"/>
<path d="M74.3565,41.3346v 330.677" fill="none" stroke="black" stroke-dasharray=" 1, 2"/>
<path d="M118.826,41.3346v 330.677" fill="none" stroke="black" stroke-dasharray=" 1, 2"/>
<path d="M163.295,41.3346v 330.677" fill="none" stroke="black" stroke-dasharray=" 1, 2"/>
<path d="M207.765,41.3346v 330.677" fill="none" stroke="black" stroke-dasharray=" 1, 2"/>
<path d="M252.234,41.3346v 330.677" fill="none" stroke="black" stroke-dasharray=" 1, 2"/>
<path d="M296.704,41.3346v 330.677" fill="none" stroke="black" stroke-dasharray=" 1, 2"/>
<path d="M341.173,41.3346v 330.677" fill="none" stroke="black" stroke-dasharray=" 1, 2"/>
<path d="M385.643,41.3346v 330.677" fill="none" stroke="black" stroke-dasharray=" 1, 2"/>
<path d="M430.112,41.3346v 330.677" fill="none" stroke="black" stroke-dasharray=" 1, 2"/>
<path d="M474.582,41.3346v 330.677" fill="none" stroke="black" stroke-dasharray=" 1, 2"/>
<path d="M74.3565,41.3346v 330.677" fill="none" stroke="black" stroke-dasharray=" 1, 2"/>
<path d="M474.582,41.3346v 330.677" fill="none" stroke="black" stroke-dasharray=" 1, 2"/>
<path d="M57.1929,372.012v -330.677" fill="none" stroke="black"/>
<path d="M57.1929,372.012h 453.543" fill="none" stroke="black"/>
<path d="M74.3565,362.091v 9.92031" fill="none" stroke="black"/>
<path d="M85.4739,367.052v 4.96016" fill="none" stroke="black"/>
<path d="M96.5913,367.052v 4.96016" fill="none" stroke="black"/>
<path d="M107.709,367.052v 4.96016" fill="none" stroke="black"/>
<path d="M118.826,362.091v 9.92031" fill="none" stroke="black"/>
<path d="M129.943,367.052v 4.96016" fill="none" stroke="black"/>
<path d="M141.061,367.052v 4.96016" fill="none" stroke="black"/>
<path d="M152.178,367.052v 4.96016" fill="none" stroke="black"/>
<path d="M163.295,362.091v 9.92031" fill="none" stroke="black"/>
<path d="M174.413,367.052v 4.96016" fill="none" stroke="black"/>
<path d="M185.53,367.052v 4.96016" fill="none" stroke="black"/>
<path d="M196.648,367.052v 4.96016" fill="none" stroke="black"/>
<path d="M207.765,362.091v 9.92031" fill="none" stroke="black"/>
<path d="M218.882,367.052v 4.96016" fill="none" stroke="black"/>
<path d="M230,367.052v 4.96016" fill="none" stroke="black"/>
<path d="M241.117,367.052v 4.96016" fill="none" stroke="black"/>
<path d="M252.234,362.091v 9.92031" fill="none" stroke="black"/>
<path d="M263.352,367.052v 4.96016" fill="none" stroke="black"/>
<path d="M274.469,367.052v 4.96016" fill="none" stroke="black"/>
<path d="M285.587,367.052v 4.96016" fill="none" stroke="black"/>
<path d="M296.704,362.091v 9.92031" fill="none" stroke="black"/>
<path d="M307.821,367.052v 4.96016" fill="none" stroke="black"/>
<path d="M318.939,367.052v 4.96016" fill="none" stroke="black"/>
<path d="M330.056,367.052v 4.96016" fill="none" stroke="black"/>
<path d="M341.173,362.091v 9.92031" fill="none" stroke="black"/>
<path d="M352.291,367.052v 4.96016" fill="none" stroke="black"/>
<path d="M363.408,367.052v 4.96016" fill="none" stroke="black"/>
<path d="M374.526,367.052v 4.96016" fill="none" stroke="black"/>
<path d="M385.643,362.091v 9.92031" fill="none" stroke="black"/>
<path d="M396.76,367.052v 4.96016" fill="none" stroke="black"/>
<path d="M407.878,367.052v 4.96016" fill="none" stroke="black"/>
<path d="M418.995,367.052v 4.96016" fill="none" stroke="black"/>
<path d="M430.112,362.091v 9.92031" fill="none" stroke="black"/>
<path d="M441.23,367.052v 4.96016" fill="none" stroke="black"/>
<path d="M452.347,367.052v 4.96016" fill="none" stroke="black"/>
<path d="M463.464,367.052v 4.96016" fill="none" stroke="black"/>
<path d="M474.582,362.091v 9.92031" fill="none" stroke="black"/>
<path d="M74.3565,362.091v 9.92031" fill="none" stroke="black"/>
<path d="M63.2392,367.052v 4.96016" fill="none" stroke="black"/>
<path d="M474.582,362.091v 9.92031" fill="none" stroke="black"/>
<path d="M485.699,367.052v 4.96016" fill="none" stroke="black"/>
<path d="M496.817,367.052v 4.96016" fill="none" stroke="black"/>
<path d="M507.934,367.052v 4.96016" fill="none" stroke="black"/>
<text xml:space="preserve" x="61.1747" y="385.379" fill="black" font-size="13.7726" font-family="Helvetica">0.72</text>
<text xml:space="preserve" x="101.94" y="385.379" fill="black" font-size="13.7726" font-family="Helvetica">0.722</text>
<text xml:space="preserve" x="146.498" y="385.379" fill="black" font-size="13.7726" font-family="Helvetica">0.724</text>
<text xml:space="preserve" x="191.056" y="385.379" fill="black" font-size="13.7726" font-family="Helvetica">0.726</text>
<text xml:space="preserve" x="235.614" y="385.379" fill="black" font-size="13.7726" font-family="Helvetica">0.728</text>
<text xml:space="preserve" x="283.491" y="385.379" fill="black" font-size="13.7726" font-family="Helvetica">0.73</text>
<text xml:space="preserve" x="324.256" y="385.379" fill="black" font-size="13.7726" font-family="Helvetica">0.732</text>
<text xml:space="preserve" x="368.814" y="385.379" fill="black" font-size="13.7726" font-family="Helvetica">0.734</text>
<text xml:space="preserve" x="413.372" y="385.379" fill="black" font-size="13.7726" font-family="Helvetica">0.736</text>
<text xml:space="preserve" x="457.93" y="385.379" fill="black" font-size="13.7726" font-family="Helvetica">0.738</text>
<text xml:space="preserve" x="413.372" y="400.074" fill="black" font-size="13.7726" font-family="Helvetica">calibration factor</text>
<path d="M57.1929,372.012v -330.677" fill="none" stroke="black"/>
<path d="M70.7992,356.963h -13.6063" fill="none" stroke="black"/>
<path d="M63.9961,350.349h -6.80315" fill="none" stroke="black"/>
<path d="M63.9961,343.736h -6.80315" fill="none" stroke="black"/>
<path d="M63.9961,337.122h -6.80315" fill="none" stroke="black"/>
<path d="M63.9961,330.509h -6.80315" fill="none" stroke="black"/>
<path d="M70.7992,323.895h -13.6063" fill="none" stroke="black"/>
<path d="M63.9961,317.281h -6.80315" fill="none" stroke="black"/>
<path d="M63.9961,310.668h -6.80315" fill="none" stroke="black"/>
<path d="M63.9961,304.054h -6.80315" fill="none" stroke="black"/>
<path d="M63.9961,297.441h -6.80315" fill="none" stroke="black"/>
<path d="M70.7992,290.827h -13.6063" fill="none" stroke="black"/>
<path d="M63.9961,284.214h -6.80315" fill="none" stroke="black"/>
<path d="M63.9961,277.6h -6.80315" fill="none" stroke="black"/>
<path d="M63.9961,270.987h -6.80315" fill="none" stroke="black"/>
<path d="M63.9961,264.373h -6.80315" fill="none" stroke="black"/>
<path d="M70.7992,257.76h -13.6063" fill="none" stroke="black"/>
<path d="M63.9961,251.146h -6.80315" fill="none" stroke="black"/>
<path d="M63.9961,244.532h -6.80315" fill="none" stroke="black"/>
<path d="M63.9961,237.919h -6.80315" fill="none" stroke="black"/>
<path d="M63.9961,231.305h -6.80315" fill="none" stroke="black"/>
<path d="M70.7992,224.692h -13.6063" fill="none" stroke="black"/>
<path d="M63.9961,218.078h -6.80315" fill="none" stroke="black"/>
<path d="M63.9961,211.465h -6.80315" fill="none" stroke="black"/>
<path d="M63.9961,204.851h -6.80315" fill="none" stroke="black"/>
<path d="M63.9961,198.238h -6.80315" fill="none" stroke="black"/>
<path d="M70.7992,191.624h -13.6063" fill="none" stroke="black"/>
<path d="M63.9961,185.011h -6.80315" fill="none" stroke="black"/>
<path d="M63.9961,178.397h -6.80315" fill="none" stroke="black"/>
<path d="M63.9961,171.784h -6.80315" fill="none" stroke="black"/>
<path d="M63.9961,165.17h -6.80315" fill="none" stroke="black"/>
<path d="M70.7992,158.556h -13.6063" fill="none" stroke="black"/>
<path d="M63.9961,151.943h -6.80315" fill="none" stroke="black"/>
<path d="M63.9961,145.329h -6.80315" fill="none" stroke="black"/>
<path d="M63.9961,138.716h -6.80315" fill="none" stroke="black"/>
<path d="M63.9961,132.102h -6.80315" fill="none" stroke="black"/>
<path d="M70.7992,125.489h -13.6063" fill="none" stroke="black"/>
<path d="M63.9961,118.875h -6.80315" fill="none" stroke="black"/>
<path d="M63.9961,112.262h -6.80315" fill="none" stroke="black"/>
<path d="M63.9961,105.648h -6.80315" fill="none" stroke="black"/>
<path d="M63.9961,99.0346h -6.80315" fill="none" stroke="black"/>
<path d="M70.7992,92.421h -13.6063" fill="none" stroke="black"/>
<path d="M63.9961,85.8075h -6.80315" fill="none" stroke="black"/>
<path d="M63.9961,79.1939h -6.80315" fill="none" stroke="black"/>
<path d="M63.9961,72.5804h -6.80315" fill="none" stroke="black"/>
<path d="M63.9961,65.9669h -6.80315" fill="none" stroke="black"/>
<path d="M70.7992,59.3533h -13.6063" fill="none" stroke="black"/>
<path d="M70.7992,356.963h -13.6063" fill="none" stroke="black"/>
<path d="M63.9961,363.576h -6.80315" fill="none" stroke="black"/>
<path d="M63.9961,370.19h -6.80315" fill="none" stroke="black"/>
<path d="M70.7992,59.3533h -13.6063" fill="none" stroke="black"/>
<path d="M63.9961,52.7398h -6.80315" fill="none" stroke="black"/>
<path d="M63.9961,46.1262h -6.80315" fill="none" stroke="black"/>
<text xml:space="preserve" x="39.8437" y="361.678" fill="black" font-size="13.7726" font-family="Helvetica">35</text>
<text xml:space="preserve" x="39.8437" y="328.497" fill="black" font-size="13.7726" font-family="Helvetica">36</text>
<text xml:space="preserve" x="39.3697" y="295.315" fill="black" font-size="13.7726" font-family="Helvetica">37</text>
<text xml:space="preserve" x="39.8437" y="262.134" fill="black" font-size="13.7726" font-family="Helvetica">38</text>
<text xml:space="preserve" x="39.8437" y="229.426" fill="black" font-size="13.7726" font-family="Helvetica">39</text>
<text xml:space="preserve" x="39.8437" y="196.245" fill="black" font-size="13.7726" font-family="Helvetica">40</text>
<text xml:space="preserve" x="41.7398" y="163.537" fill="black" font-size="13.7726" font-family="Helvetica">41</text>
<text xml:space="preserve" x="39.8437" y="130.356" fill="black" font-size="13.7726" font-family="Helvetica">42</text>
<text xml:space="preserve" x="39.8437" y="96.7003" fill="black" font-size="13.7726" font-family="Helvetica">43</text>
<text xml:space="preserve" x="39.3697" y="64.4669" fill="black" font-size="13.7726" font-family="Helvetica">44</text>
<g transform="rotate(-90,22.305,45.98)">
<text xml:space="preserve" x="22.305" y="45.98" fill="black" font-size="9.34839" font-family="Helvetica">2</text>
</g>
<g transform="rotate(-90,26.5712,50.2462)">
<text xml:space="preserve" x="26.5712" y="50.2462" fill="black" font-size="13.7726" font-family="Helvetica"> </text>
</g>
<g transform="rotate(-90,26.5712,57.3565)">
<text xml:space="preserve" x="26.5712" y="57.3565" fill="black" font-size="13.7726" font-family="Times">&#0967;</text>
</g>
<text xml:space="preserve" x="111.421" y="18.9608" fill="black" font-size="15.997" font-family="Helvetica">^2 v.s. calibration factorwith 1st binand with last bin</text>
<text xml:space="preserve" x="102.889" y="18.9608" fill="black" font-size="15.997" font-family="Times">&#0967;</text>
<g stroke="black" stroke-width="1" fill="none">
<line x1="125.824" y1="61.6893" x2="129.616" y2="61.6893"/><line x1="127.72" y1="59.7933" x2="127.72" y2="63.5854"/><line x1="125.824" y1="59.7933" x2="129.616" y2="63.5854"/><line x1="125.824" y1="63.5854" x2="129.616" y2="59.7933"/>
</g>
<g stroke="black" stroke-width="1" fill="none">
<line x1="134.718" y1="59.5215" x2="138.51" y2="59.5215"/><line x1="136.614" y1="57.6254" x2="136.614" y2="61.4176"/><line x1="134.718" y1="57.6254" x2="138.51" y2="61.4176"/><line x1="134.718" y1="61.4176" x2="138.51" y2="57.6254"/>
<line x1="139.165" y1="76.6017" x2="142.957" y2="76.6017"/><line x1="141.061" y1="74.7056" x2="141.061" y2="78.4978"/><line x1="139.165" y1="74.7056" x2="142.957" y2="78.4978"/><line x1="139.165" y1="78.4978" x2="142.957" y2="74.7056"/>
<line x1="143.612" y1="112.854" x2="147.404" y2="112.854"/><line x1="145.508" y1="110.958" x2="145.508" y2="114.75"/><line x1="143.612" y1="110.958" x2="147.404" y2="114.75"/><line x1="143.612" y1="114.75" x2="147.404" y2="110.958"/>
<line x1="148.059" y1="94.8402" x2="151.851" y2="94.8402"/><line x1="149.955" y1="92.9441" x2="149.955" y2="96.7363"/><line x1="148.059" y1="92.9441" x2="151.851" y2="96.7363"/><line x1="148.059" y1="96.7363" x2="151.851" y2="92.9441"/>
<line x1="152.506" y1="75.5155" x2="156.298" y2="75.5155"/><line x1="154.402" y1="73.6194" x2="154.402" y2="77.4116"/><line x1="152.506" y1="73.6194" x2="156.298" y2="77.4116"/><line x1="152.506" y1="77.4116" x2="156.298" y2="73.6194"/>
<line x1="156.952" y1="89.025" x2="160.745" y2="89.025"/><line x1="158.849" y1="87.129" x2="158.849" y2="90.9211"/><line x1="156.952" y1="87.129" x2="160.745" y2="90.9211"/><line x1="156.952" y1="90.9211" x2="160.745" y2="87.129"/>
<line x1="161.399" y1="87.0203" x2="165.192" y2="87.0203"/><line x1="163.295" y1="85.1242" x2="163.295" y2="88.9163"/><line x1="161.399" y1="85.1242" x2="165.192" y2="88.9163"/><line x1="161.399" y1="88.9163" x2="165.192" y2="85.1242"/>
<line x1="165.846" y1="109.818" x2="169.639" y2="109.818"/><line x1="167.742" y1="107.922" x2="167.742" y2="111.714"/><line x1="165.846" y1="107.922" x2="169.639" y2="111.714"/><line x1="165.846" y1="111.714" x2="169.639" y2="107.922"/>
<line x1="170.293" y1="108.354" x2="174.085" y2="108.354"/><line x1="172.189" y1="106.458" x2="172.189" y2="110.25"/><line x1="170.293" y1="106.458" x2="174.085" y2="110.25"/><line x1="170.293" y1="110.25" x2="174.085" y2="106.458"/>
<line x1="174.74" y1="118.822" x2="178.532" y2="118.822"/><line x1="176.636" y1="116.926" x2="176.636" y2="120.718"/><line x1="174.74" y1="116.926" x2="178.532" y2="120.718"/><line x1="174.74" y1="120.718" x2="178.532" y2="116.926"/>
<line x1="179.187" y1="91.5155" x2="182.979" y2="91.5155"/><line x1="181.083" y1="89.6194" x2="181.083" y2="93.4116"/><line x1="179.187" y1="89.6194" x2="182.979" y2="93.4116"/><line x1="179.187" y1="93.4116" x2="182.979" y2="89.6194"/>
<line x1="183.634" y1="89.7199" x2="187.426" y2="89.7199"/><line x1="185.53" y1="87.8238" x2="185.53" y2="91.616"/><line x1="183.634" y1="87.8238" x2="187.426" y2="91.616"/><line x1="183.634" y1="91.616" x2="187.426" y2="87.8238"/>
<line x1="188.081" y1="102.602" x2="191.873" y2="102.602"/><line x1="189.977" y1="100.706" x2="189.977" y2="104.498"/><line x1="188.081" y1="100.706" x2="191.873" y2="104.498"/><line x1="188.081" y1="104.498" x2="191.873" y2="100.706"/>
<line x1="192.528" y1="109.748" x2="196.32" y2="109.748"/><line x1="194.424" y1="107.852" x2="194.424" y2="111.644"/><line x1="192.528" y1="107.852" x2="196.32" y2="111.644"/><line x1="192.528" y1="111.644" x2="196.32" y2="107.852"/>
<line x1="196.975" y1="147.674" x2="200.767" y2="147.674"/><line x1="198.871" y1="145.778" x2="198.871" y2="149.57"/><line x1="196.975" y1="145.778" x2="200.767" y2="149.57"/><line x1="196.975" y1="149.57" x2="200.767" y2="145.778"/>
<line x1="201.422" y1="126.425" x2="205.214" y2="126.425"/><line x1="203.318" y1="124.528" x2="203.318" y2="128.321"/><line x1="201.422" y1="124.528" x2="205.214" y2="128.321"/><line x1="201.422" y1="128.321" x2="205.214" y2="124.528"/>
<line x1="205.869" y1="143.903" x2="209.661" y2="143.903"/><line x1="207.765" y1="142.007" x2="207.765" y2="145.799"/><line x1="205.869" y1="142.007" x2="209.661" y2="145.799"/><line x1="205.869" y1="145.799" x2="209.661" y2="142.007"/>
<line x1="210.316" y1="117.879" x2="214.108" y2="117.879"/><line x1="212.212" y1="115.983" x2="212.212" y2="119.775"/><line x1="210.316" y1="115.983" x2="214.108" y2="119.775"/><line x1="210.316" y1="119.775" x2="214.108" y2="115.983"/>
<line x1="214.763" y1="154.04" x2="218.555" y2="154.04"/><line x1="216.659" y1="152.144" x2="216.659" y2="155.937"/><line x1="214.763" y1="152.144" x2="218.555" y2="155.937"/><line x1="214.763" y1="155.937" x2="218.555" y2="152.144"/>
<line x1="219.21" y1="123.368" x2="223.002" y2="123.368"/><line x1="221.106" y1="121.472" x2="221.106" y2="125.264"/><line x1="219.21" y1="121.472" x2="223.002" y2="125.264"/><line x1="219.21" y1="125.264" x2="223.002" y2="121.472"/>
<line x1="223.657" y1="127.547" x2="227.449" y2="127.547"/><line x1="225.553" y1="125.651" x2="225.553" y2="129.443"/><line x1="223.657" y1="125.651" x2="227.449" y2="129.443"/><line x1="223.657" y1="129.443" x2="227.449" y2="125.651"/>
<line x1="228.104" y1="119.516" x2="231.896" y2="119.516"/><line x1="230" y1="117.62" x2="230" y2="121.412"/><line x1="228.104" y1="117.62" x2="231.896" y2="121.412"/><line x1="228.104" y1="121.412" x2="231.896" y2="117.62"/>
<line x1="232.551" y1="162.626" x2="236.343" y2="162.626"/><line x1="234.447" y1="160.73" x2="234.447" y2="164.522"/><line x1="232.551" y1="160.73" x2="236.343" y2="164.522"/><line x1="232.551" y1="164.522" x2="236.343" y2="160.73"/>
<line x1="236.998" y1="178.728" x2="240.79" y2="178.728"/><line x1="238.894" y1="176.832" x2="238.894" y2="180.624"/><line x1="236.998" y1="176.832" x2="240.79" y2="180.624"/><line x1="236.998" y1="180.624" x2="240.79" y2="176.832"/>
<line x1="241.444" y1="211.323" x2="245.237" y2="211.323"/><line x1="243.341" y1="209.427" x2="243.341" y2="213.219"/><line x1="241.444" y1="209.427" x2="245.237" y2="213.219"/><line x1="241.444" y1="213.219" x2="245.237" y2="209.427"/>
<line x1="245.891" y1="224.511" x2="249.684" y2="224.511"/><line x1="247.787" y1="222.614" x2="247.787" y2="226.407"/><line x1="245.891" y1="222.614" x2="249.684" y2="226.407"/><line x1="245.891" y1="226.407" x2="249.684" y2="222.614"/>
<line x1="250.338" y1="199.778" x2="254.131" y2="199.778"/><line x1="252.234" y1="197.882" x2="252.234" y2="201.674"/><line x1="250.338" y1="197.882" x2="254.131" y2="201.674"/><line x1="250.338" y1="201.674" x2="254.131" y2="197.882"/>
<line x1="254.785" y1="199.854" x2="258.577" y2="199.854"/><line x1="256.681" y1="197.958" x2="256.681" y2="201.75"/><line x1="254.785" y1="197.958" x2="258.577" y2="201.75"/><line x1="254.785" y1="201.75" x2="258.577" y2="197.958"/>
<line x1="259.232" y1="237.73" x2="263.024" y2="237.73"/><line x1="261.128" y1="235.834" x2="261.128" y2="239.626"/><line x1="259.232" y1="235.834" x2="263.024" y2="239.626"/><line x1="259.232" y1="239.626" x2="263.024" y2="235.834"/>
<line x1="263.679" y1="273.268" x2="267.471" y2="273.268"/><line x1="265.575" y1="271.372" x2="265.575" y2="275.164"/><line x1="263.679" y1="271.372" x2="267.471" y2="275.164"/><line x1="263.679" y1="275.164" x2="267.471" y2="271.372"/>
<line x1="268.126" y1="278.988" x2="271.918" y2="278.988"/><line x1="270.022" y1="277.092" x2="270.022" y2="280.884"/><line x1="268.126" y1="277.092" x2="271.918" y2="280.884"/><line x1="268.126" y1="280.884" x2="271.918" y2="277.092"/>
<line x1="272.573" y1="288.933" x2="276.365" y2="288.933"/><line x1="274.469" y1="287.037" x2="274.469" y2="290.829"/><line x1="272.573" y1="287.037" x2="276.365" y2="290.829"/><line x1="272.573" y1="290.829" x2="276.365" y2="287.037"/>
<line x1="277.02" y1="302.644" x2="280.812" y2="302.644"/><line x1="278.916" y1="300.748" x2="278.916" y2="304.54"/><line x1="277.02" y1="300.748" x2="280.812" y2="304.54"/><line x1="277.02" y1="304.54" x2="280.812" y2="300.748"/>
<line x1="281.467" y1="305.876" x2="285.259" y2="305.876"/><line x1="283.363" y1="303.98" x2="283.363" y2="307.772"/><line x1="281.467" y1="303.98" x2="285.259" y2="307.772"/><line x1="281.467" y1="307.772" x2="285.259" y2="303.98"/>
<line x1="285.914" y1="301.898" x2="289.706" y2="301.898"/><line x1="287.81" y1="300.001" x2="287.81" y2="303.794"/><line x1="285.914" y1="300.001" x2="289.706" y2="303.794"/><line x1="285.914" y1="303.794" x2="289.706" y2="300.001"/>
<line x1="290.361" y1="303.662" x2="294.153" y2="303.662"/><line x1="292.257" y1="301.766" x2="292.257" y2="305.558"/><line x1="290.361" y1="301.766" x2="294.153" y2="305.558"/><line x1="290.361" y1="305.558" x2="294.153" y2="301.766"/>
<line x1="294.808" y1="282.753" x2="298.6" y2="282.753"/><line x1="296.704" y1="280.857" x2="296.704" y2="284.649"/><line x1="294.808" y1="280.857" x2="298.6" y2="284.649"/><line x1="294.808" y1="284.649" x2="298.6" y2="280.857"/>
<line x1="299.255" y1="272.935" x2="303.047" y2="272.935"/><line x1="301.151" y1="271.039" x2="301.151" y2="274.831"/><line x1="299.255" y1="271.039" x2="303.047" y2="274.831"/><line x1="299.255" y1="274.831" x2="303.047" y2="271.039"/>
<line x1="303.702" y1="270.816" x2="307.494" y2="270.816"/><line x1="305.598" y1="268.92" x2="305.598" y2="272.712"/><line x1="303.702" y1="268.92" x2="307.494" y2="272.712"/><line x1="303.702" y1="272.712" x2="307.494" y2="268.92"/>
<line x1="308.149" y1="264.342" x2="311.941" y2="264.342"/><line x1="310.045" y1="262.446" x2="310.045" y2="266.238"/><line x1="308.149" y1="262.446" x2="311.941" y2="266.238"/><line x1="308.149" y1="266.238" x2="311.941" y2="262.446"/>
<line x1="312.596" y1="280.018" x2="316.388" y2="280.018"/><line x1="314.492" y1="278.122" x2="314.492" y2="281.914"/><line x1="312.596" y1="278.122" x2="316.388" y2="281.914"/><line x1="312.596" y1="281.914" x2="316.388" y2="278.122"/>
<line x1="317.043" y1="257.972" x2="320.835" y2="257.972"/><line x1="318.939" y1="256.076" x2="318.939" y2="259.868"/><line x1="317.043" y1="256.076" x2="320.835" y2="259.868"/><line x1="317.043" y1="259.868" x2="320.835" y2="256.076"/>
<line x1="321.49" y1="266.407" x2="325.282" y2="266.407"/><line x1="323.386" y1="264.511" x2="323.386" y2="268.303"/><line x1="321.49" y1="264.511" x2="325.282" y2="268.303"/><line x1="321.49" y1="268.303" x2="325.282" y2="264.511"/>
<line x1="325.936" y1="278.236" x2="329.729" y2="278.236"/><line x1="327.833" y1="276.34" x2="327.833" y2="280.132"/><line x1="325.936" y1="276.34" x2="329.729" y2="280.132"/><line x1="325.936" y1="280.132" x2="329.729" y2="276.34"/>
<line x1="330.383" y1="299.96" x2="334.176" y2="299.96"/><line x1="332.28" y1="298.064" x2="332.28" y2="301.856"/><line x1="330.383" y1="298.064" x2="334.176" y2="301.856"/><line x1="330.383" y1="301.856" x2="334.176" y2="298.064"/>
<line x1="334.83" y1="263.827" x2="338.623" y2="263.827"/><line x1="336.726" y1="261.931" x2="336.726" y2="265.723"/><line x1="334.83" y1="261.931" x2="338.623" y2="265.723"/><line x1="334.83" y1="265.723" x2="338.623" y2="261.931"/>
<line x1="339.277" y1="265.18" x2="343.069" y2="265.18"/><line x1="341.173" y1="263.284" x2="341.173" y2="267.076"/><line x1="339.277" y1="263.284" x2="343.069" y2="267.076"/><line x1="339.277" y1="267.076" x2="343.069" y2="263.284"/>
<line x1="343.724" y1="280.829" x2="347.516" y2="280.829"/><line x1="345.62" y1="278.933" x2="345.62" y2="282.725"/><line x1="343.724" y1="278.933" x2="347.516" y2="282.725"/><line x1="343.724" y1="282.725" x2="347.516" y2="278.933"/>
<line x1="348.171" y1="267.192" x2="351.963" y2="267.192"/><line x1="350.067" y1="265.296" x2="350.067" y2="269.088"/><line x1="348.171" y1="265.296" x2="351.963" y2="269.088"/><line x1="348.171" y1="269.088" x2="351.963" y2="265.296"/>
<line x1="352.618" y1="276.391" x2="356.41" y2="276.391"/><line x1="354.514" y1="274.495" x2="354.514" y2="278.287"/><line x1="352.618" y1="274.495" x2="356.41" y2="278.287"/><line x1="352.618" y1="278.287" x2="356.41" y2="274.495"/>
<line x1="357.065" y1="268.824" x2="360.857" y2="268.824"/><line x1="358.961" y1="266.928" x2="358.961" y2="270.72"/><line x1="357.065" y1="266.928" x2="360.857" y2="270.72"/><line x1="357.065" y1="270.72" x2="360.857" y2="266.928"/>
<line x1="361.512" y1="273.355" x2="365.304" y2="273.355"/><line x1="363.408" y1="271.459" x2="363.408" y2="275.251"/><line x1="361.512" y1="271.459" x2="365.304" y2="275.251"/><line x1="361.512" y1="275.251" x2="365.304" y2="271.459"/>
<line x1="365.959" y1="258.64" x2="369.751" y2="258.64"/><line x1="367.855" y1="256.744" x2="367.855" y2="260.536"/><line x1="365.959" y1="256.744" x2="369.751" y2="260.536"/><line x1="365.959" y1="260.536" x2="369.751" y2="256.744"/>
<line x1="370.406" y1="267.534" x2="374.198" y2="267.534"/><line x1="372.302" y1="265.638" x2="372.302" y2="269.43"/><line x1="370.406" y1="265.638" x2="374.198" y2="269.43"/><line x1="370.406" y1="269.43" x2="374.198" y2="265.638"/>
<line x1="374.853" y1="270.324" x2="378.645" y2="270.324"/><line x1="376.749" y1="268.428" x2="376.749" y2="272.22"/><line x1="374.853" y1="268.428" x2="378.645" y2="272.22"/><line x1="374.853" y1="272.22" x2="378.645" y2="268.428"/>
<line x1="379.3" y1="272.391" x2="383.092" y2="272.391"/><line x1="381.196" y1="270.495" x2="381.196" y2="274.287"/><line x1="379.3" y1="270.495" x2="383.092" y2="274.287"/><line x1="379.3" y1="274.287" x2="383.092" y2="270.495"/>
<line x1="383.747" y1="264.793" x2="387.539" y2="264.793"/><line x1="385.643" y1="262.897" x2="385.643" y2="266.689"/><line x1="383.747" y1="262.897" x2="387.539" y2="266.689"/><line x1="383.747" y1="266.689" x2="387.539" y2="262.897"/>
<line x1="388.194" y1="240.359" x2="391.986" y2="240.359"/><line x1="390.09" y1="238.463" x2="390.09" y2="242.255"/><line x1="388.194" y1="238.463" x2="391.986" y2="242.255"/><line x1="388.194" y1="242.255" x2="391.986" y2="238.463"/>
<line x1="392.641" y1="229.055" x2="396.433" y2="229.055"/><line x1="394.537" y1="227.159" x2="394.537" y2="230.951"/><line x1="392.641" y1="227.159" x2="396.433" y2="230.951"/><line x1="392.641" y1="230.951" x2="396.433" y2="227.159"/>
<line x1="397.088" y1="235.856" x2="400.88" y2="235.856"/><line x1="398.984" y1="233.96" x2="398.984" y2="237.752"/><line x1="397.088" y1="233.96" x2="400.88" y2="237.752"/><line x1="397.088" y1="237.752" x2="400.88" y2="233.96"/>
<line x1="401.535" y1="255.955" x2="405.327" y2="255.955"/><line x1="403.431" y1="254.059" x2="403.431" y2="257.851"/><line x1="401.535" y1="254.059" x2="405.327" y2="257.851"/><line x1="401.535" y1="257.851" x2="405.327" y2="254.059"/>
<line x1="405.982" y1="261.357" x2="409.774" y2="261.357"/><line x1="407.878" y1="259.461" x2="407.878" y2="263.253"/><line x1="405.982" y1="259.461" x2="409.774" y2="263.253"/><line x1="405.982" y1="263.253" x2="409.774" y2="259.461"/>
<line x1="410.428" y1="250.951" x2="414.221" y2="250.951"/><line x1="412.325" y1="249.055" x2="412.325" y2="252.847"/><line x1="410.428" y1="249.055" x2="414.221" y2="252.847"/><line x1="410.428" y1="252.847" x2="414.221" y2="249.055"/>
<line x1="414.875" y1="257.194" x2="418.668" y2="257.194"/><line x1="416.772" y1="255.298" x2="416.772" y2="259.09"/><line x1="414.875" y1="255.298" x2="418.668" y2="259.09"/><line x1="414.875" y1="259.09" x2="418.668" y2="255.298"/>
<line x1="419.322" y1="267.662" x2="423.115" y2="267.662"/><line x1="421.218" y1="265.766" x2="421.218" y2="269.558"/><line x1="419.322" y1="265.766" x2="423.115" y2="269.558"/><line x1="419.322" y1="269.558" x2="423.115" y2="265.766"/>
<line x1="423.769" y1="271.198" x2="427.561" y2="271.198"/><line x1="425.665" y1="269.302" x2="425.665" y2="273.095"/><line x1="423.769" y1="269.302" x2="427.561" y2="273.095"/><line x1="423.769" y1="273.095" x2="427.561" y2="269.302"/>
<line x1="428.216" y1="280.323" x2="432.008" y2="280.323"/><line x1="430.112" y1="278.427" x2="430.112" y2="282.219"/><line x1="428.216" y1="278.427" x2="432.008" y2="282.219"/><line x1="428.216" y1="282.219" x2="432.008" y2="278.427"/>
<line x1="432.663" y1="247.154" x2="436.455" y2="247.154"/><line x1="434.559" y1="245.258" x2="434.559" y2="249.05"/><line x1="432.663" y1="245.258" x2="436.455" y2="249.05"/><line x1="432.663" y1="249.05" x2="436.455" y2="245.258"/>
<line x1="437.11" y1="235.311" x2="440.902" y2="235.311"/><line x1="439.006" y1="233.415" x2="439.006" y2="237.207"/><line x1="437.11" y1="233.415" x2="440.902" y2="237.207"/><line x1="437.11" y1="237.207" x2="440.902" y2="233.415"/>
<line x1="441.557" y1="239.345" x2="445.349" y2="239.345"/><line x1="443.453" y1="237.449" x2="443.453" y2="241.241"/><line x1="441.557" y1="237.449" x2="445.349" y2="241.241"/><line x1="441.557" y1="241.241" x2="445.349" y2="237.449"/>
<line x1="446.004" y1="232.905" x2="449.796" y2="232.905"/><line x1="447.9" y1="231.009" x2="447.9" y2="234.801"/><line x1="446.004" y1="231.009" x2="449.796" y2="234.801"/><line x1="446.004" y1="234.801" x2="449.796" y2="231.009"/>
<line x1="450.451" y1="243.054" x2="454.243" y2="243.054"/><line x1="452.347" y1="241.158" x2="452.347" y2="244.95"/><line x1="450.451" y1="241.158" x2="454.243" y2="244.95"/><line x1="450.451" y1="244.95" x2="454.243" y2="241.158"/>
<line x1="454.898" y1="249.614" x2="458.69" y2="249.614"/><line x1="456.794" y1="247.718" x2="456.794" y2="251.51"/><line x1="454.898" y1="247.718" x2="458.69" y2="251.51"/><line x1="454.898" y1="251.51" x2="458.69" y2="247.718"/>
<line x1="459.345" y1="224.467" x2="463.137" y2="224.467"/><line x1="461.241" y1="222.571" x2="461.241" y2="226.363"/><line x1="459.345" y1="222.571" x2="463.137" y2="226.363"/><line x1="459.345" y1="226.363" x2="463.137" y2="222.571"/>
<line x1="463.792" y1="215.343" x2="467.584" y2="215.343"/><line x1="465.688" y1="213.447" x2="465.688" y2="217.239"/><line x1="463.792" y1="213.447" x2="467.584" y2="217.239"/><line x1="463.792" y1="217.239" x2="467.584" y2="213.447"/>
<line x1="468.239" y1="200.283" x2="472.031" y2="200.283"/><line x1="470.135" y1="198.387" x2="470.135" y2="202.179"/><line x1="468.239" y1="198.387" x2="472.031" y2="202.179"/><line x1="468.239" y1="202.179" x2="472.031" y2="198.387"/>
<line x1="472.686" y1="199.65" x2="476.478" y2="199.65"/><line x1="474.582" y1="197.754" x2="474.582" y2="201.546"/><line x1="472.686" y1="197.754" x2="476.478" y2="201.546"/><line x1="472.686" y1="201.546" x2="476.478" y2="197.754"/>
<line x1="477.133" y1="166.3" x2="480.925" y2="166.3"/><line x1="479.029" y1="164.404" x2="479.029" y2="168.196"/><line x1="477.133" y1="164.404" x2="480.925" y2="168.196"/><line x1="477.133" y1="168.196" x2="480.925" y2="164.404"/>
<line x1="481.58" y1="140.81" x2="485.372" y2="140.81"/><line x1="483.476" y1="138.914" x2="483.476" y2="142.706"/><line x1="481.58" y1="138.914" x2="485.372" y2="142.706"/><line x1="481.58" y1="142.706" x2="485.372" y2="138.914"/>
<line x1="486.027" y1="131.226" x2="489.819" y2="131.226"/><line x1="487.923" y1="129.33" x2="487.923" y2="133.122"/><line x1="486.027" y1="129.33" x2="489.819" y2="133.122"/><line x1="486.027" y1="133.122" x2="489.819" y2="129.33"/>
<line x1="490.474" y1="130.948" x2="494.266" y2="130.948"/><line x1="492.37" y1="129.052" x2="492.37" y2="132.844"/><line x1="490.474" y1="129.052" x2="494.266" y2="132.844"/><line x1="490.474" y1="132.844" x2="494.266" y2="129.052"/>
<line x1="494.92" y1="101.045" x2="498.713" y2="101.045"/><line x1="496.817" y1="99.1491" x2="496.817" y2="102.941"/><line x1="494.92" y1="99.1491" x2="498.713" y2="102.941"/><line x1="494.92" y1="102.941" x2="498.713" y2="99.1491"/>
<line x1="499.367" y1="74.7047" x2="503.16" y2="74.7047"/><line x1="501.264" y1="72.8086" x2="501.264" y2="76.6008"/><line x1="499.367" y1="72.8086" x2="503.16" y2="76.6008"/><line x1="499.367" y1="76.6008" x2="503.16" y2="72.8086"/>
<line x1="503.814" y1="77.5843" x2="507.607" y2="77.5843"/><line x1="505.71" y1="75.6882" x2="505.71" y2="79.4803"/><line x1="503.814" y1="75.6882" x2="507.607" y2="79.4803"/><line x1="503.814" y1="79.4803" x2="507.607" y2="75.6882"/>
<line x1="508.261" y1="61.1263" x2="512.053" y2="61.1263"/><line x1="510.157" y1="59.2302" x2="510.157" y2="63.0224"/><line x1="508.261" y1="59.2302" x2="512.053" y2="63.0224"/><line x1="508.261" y1="63.0224" x2="512.053" y2="59.2302"/>
</g>
<path d="M0.5,272.809h 566.929" fill="none" stroke="#0000ff"/>
<text xml:space="preserve" x="111.421" y="18.9608" fill="black" font-size="15.997" font-family="Helvetica">^2 v.s. calibration factorwith 1st binand with last bin</text>
<text xml:space="preserve" x="102.889" y="18.9608" fill="black" font-size="15.997" font-family="Times">&#0967;</text></svg>
