<?xml version="1.0" standalone="no"?>
<svg width="567.429" height="413.846" viewBox="0 0 567.429 413.846" xmlns="http://www.w3.org/2000/svg" shape-rendering="crispEdges">
<title>
figures/chi2zoomin_0PMTnpefilelist20.svg
</title>
<desc>
Creator: ROOT Version 6.18/04
CreationDate: Mon Nov  4 09:24:04 2019</desc>
<defs>
</defs>
<rect x="0.5" y="0" width="566.929" height="413.346" fill="white"/>
<rect x="57.1929" y="41.3346" width="453.543" height="330.677" fill="white"/>
<rect x="57.1929" y="41.3346" width="453.543" height="330.677" fill="none" stroke="black"/>
<path d="M57.1929,372.012h 453.543" fill="none" stroke="black"/>
<path d="M78.1154,41.3346v 330.677" fill="none" stroke="black" stroke-dasharray=" 1, 2"/>
<path d="M123.114,41.3346v 330.677" fill="none" stroke="black" stroke-dasharray=" 1, 2"/>
<path d="M168.113,41.3346v 330.677" fill="none" stroke="black" stroke-dasharray=" 1, 2"/>
<path d="M213.112,41.3346v 330.677" fill="none" stroke="black" stroke-dasharray=" 1, 2"/>
<path d="M258.111,41.3346v 330.677" fill="none" stroke="black" stroke-dasharray=" 1, 2"/>
<path d="M303.11,41.3346v 330.677" fill="none" stroke="black" stroke-dasharray=" 1, 2"/>
<path d="M348.109,41.3346v 330.677" fill="none" stroke="black" stroke-dasharray=" 1, 2"/>
<path d="M393.108,41.3346v 330.677" fill="none" stroke="black" stroke-dasharray=" 1, 2"/>
<path d="M438.106,41.3346v 330.677" fill="none" stroke="black" stroke-dasharray=" 1, 2"/>
<path d="M483.105,41.3346v 330.677" fill="none" stroke="black" stroke-dasharray=" 1, 2"/>
<path d="M78.1154,41.3346v 330.677" fill="none" stroke="black" stroke-dasharray=" 1, 2"/>
<path d="M483.105,41.3346v 330.677" fill="none" stroke="black" stroke-dasharray=" 1, 2"/>
<path d="M57.1929,372.012v -330.677" fill="none" stroke="black"/>
<path d="M57.1929,372.012h 453.543" fill="none" stroke="black"/>
<path d="M78.1154,362.091v 9.92031" fill="none" stroke="black"/>
<path d="M89.3651,367.052v 4.96016" fill="none" stroke="black"/>
<path d="M100.615,367.052v 4.96016" fill="none" stroke="black"/>
<path d="M111.865,367.052v 4.96016" fill="none" stroke="black"/>
<path d="M123.114,362.091v 9.92031" fill="none" stroke="black"/>
<path d="M134.364,367.052v 4.96016" fill="none" stroke="black"/>
<path d="M145.614,367.052v 4.96016" fill="none" stroke="black"/>
<path d="M156.863,367.052v 4.96016" fill="none" stroke="black"/>
<path d="M168.113,362.091v 9.92031" fill="none" stroke="black"/>
<path d="M179.363,367.052v 4.96016" fill="none" stroke="black"/>
<path d="M190.613,367.052v 4.96016" fill="none" stroke="black"/>
<path d="M201.862,367.052v 4.96016" fill="none" stroke="black"/>
<path d="M213.112,362.091v 9.92031" fill="none" stroke="black"/>
<path d="M224.362,367.052v 4.96016" fill="none" stroke="black"/>
<path d="M235.611,367.052v 4.96016" fill="none" stroke="black"/>
<path d="M246.861,367.052v 4.96016" fill="none" stroke="black"/>
<path d="M258.111,362.091v 9.92031" fill="none" stroke="black"/>
<path d="M269.361,367.052v 4.96016" fill="none" stroke="black"/>
<path d="M280.61,367.052v 4.96016" fill="none" stroke="black"/>
<path d="M291.86,367.052v 4.96016" fill="none" stroke="black"/>
<path d="M303.11,362.091v 9.92031" fill="none" stroke="black"/>
<path d="M314.359,367.052v 4.96016" fill="none" stroke="black"/>
<path d="M325.609,367.052v 4.96016" fill="none" stroke="black"/>
<path d="M336.859,367.052v 4.96016" fill="none" stroke="black"/>
<path d="M348.109,362.091v 9.92031" fill="none" stroke="black"/>
<path d="M359.358,367.052v 4.96016" fill="none" stroke="black"/>
<path d="M370.608,367.052v 4.96016" fill="none" stroke="black"/>
<path d="M381.858,367.052v 4.96016" fill="none" stroke="black"/>
<path d="M393.108,362.091v 9.92031" fill="none" stroke="black"/>
<path d="M404.357,367.052v 4.96016" fill="none" stroke="black"/>
<path d="M415.607,367.052v 4.96016" fill="none" stroke="black"/>
<path d="M426.857,367.052v 4.96016" fill="none" stroke="black"/>
<path d="M438.106,362.091v 9.92031" fill="none" stroke="black"/>
<path d="M449.356,367.052v 4.96016" fill="none" stroke="black"/>
<path d="M460.606,367.052v 4.96016" fill="none" stroke="black"/>
<path d="M471.856,367.052v 4.96016" fill="none" stroke="black"/>
<path d="M483.105,362.091v 9.92031" fill="none" stroke="black"/>
<path d="M78.1154,362.091v 9.92031" fill="none" stroke="black"/>
<path d="M66.8657,367.052v 4.96016" fill="none" stroke="black"/>
<path d="M483.105,362.091v 9.92031" fill="none" stroke="black"/>
<path d="M494.355,367.052v 4.96016" fill="none" stroke="black"/>
<path d="M505.605,367.052v 4.96016" fill="none" stroke="black"/>
<text xml:space="preserve" x="68.759" y="385.379" fill="black" font-size="13.7726" font-family="Helvetica">0.7</text>
<text xml:space="preserve" x="106.207" y="385.379" fill="black" font-size="13.7726" font-family="Helvetica">0.702</text>
<text xml:space="preserve" x="151.239" y="385.379" fill="black" font-size="13.7726" font-family="Helvetica">0.704</text>
<text xml:space="preserve" x="196.271" y="385.379" fill="black" font-size="13.7726" font-family="Helvetica">0.706</text>
<text xml:space="preserve" x="241.303" y="385.379" fill="black" font-size="13.7726" font-family="Helvetica">0.708</text>
<text xml:space="preserve" x="291.075" y="385.379" fill="black" font-size="13.7726" font-family="Helvetica">0.71</text>
<text xml:space="preserve" x="331.367" y="385.379" fill="black" font-size="13.7726" font-family="Helvetica">0.712</text>
<text xml:space="preserve" x="376.399" y="385.379" fill="black" font-size="13.7726" font-family="Helvetica">0.714</text>
<text xml:space="preserve" x="421.431" y="385.379" fill="black" font-size="13.7726" font-family="Helvetica">0.716</text>
<text xml:space="preserve" x="466.463" y="385.379" fill="black" font-size="13.7726" font-family="Helvetica">0.718</text>
<text xml:space="preserve" x="413.372" y="400.074" fill="black" font-size="13.7726" font-family="Helvetica">calibration factor</text>
<path d="M57.1929,372.012v -330.677" fill="none" stroke="black"/>
<path d="M70.7992,355.134h -13.6063" fill="none" stroke="black"/>
<path d="M63.9961,348.52h -6.80315" fill="none" stroke="black"/>
<path d="M63.9961,341.906h -6.80315" fill="none" stroke="black"/>
<path d="M63.9961,335.293h -6.80315" fill="none" stroke="black"/>
<path d="M63.9961,328.679h -6.80315" fill="none" stroke="black"/>
<path d="M70.7992,322.066h -13.6063" fill="none" stroke="black"/>
<path d="M63.9961,315.452h -6.80315" fill="none" stroke="black"/>
<path d="M63.9961,308.839h -6.80315" fill="none" stroke="black"/>
<path d="M63.9961,302.225h -6.80315" fill="none" stroke="black"/>
<path d="M63.9961,295.612h -6.80315" fill="none" stroke="black"/>
<path d="M70.7992,288.998h -13.6063" fill="none" stroke="black"/>
<path d="M63.9961,282.385h -6.80315" fill="none" stroke="black"/>
<path d="M63.9961,275.771h -6.80315" fill="none" stroke="black"/>
<path d="M63.9961,269.158h -6.80315" fill="none" stroke="black"/>
<path d="M63.9961,262.544h -6.80315" fill="none" stroke="black"/>
<path d="M70.7992,255.93h -13.6063" fill="none" stroke="black"/>
<path d="M63.9961,249.317h -6.80315" fill="none" stroke="black"/>
<path d="M63.9961,242.703h -6.80315" fill="none" stroke="black"/>
<path d="M63.9961,236.09h -6.80315" fill="none" stroke="black"/>
<path d="M63.9961,229.476h -6.80315" fill="none" stroke="black"/>
<path d="M70.7992,222.863h -13.6063" fill="none" stroke="black"/>
<path d="M63.9961,216.249h -6.80315" fill="none" stroke="black"/>
<path d="M63.9961,209.636h -6.80315" fill="none" stroke="black"/>
<path d="M63.9961,203.022h -6.80315" fill="none" stroke="black"/>
<path d="M63.9961,196.409h -6.80315" fill="none" stroke="black"/>
<path d="M70.7992,189.795h -13.6063" fill="none" stroke="black"/>
<path d="M63.9961,183.181h -6.80315" fill="none" stroke="black"/>
<path d="M63.9961,176.568h -6.80315" fill="none" stroke="black"/>
<path d="M63.9961,169.954h -6.80315" fill="none" stroke="black"/>
<path d="M63.9961,163.341h -6.80315" fill="none" stroke="black"/>
<path d="M70.7992,156.727h -13.6063" fill="none" stroke="black"/>
<path d="M63.9961,150.114h -6.80315" fill="none" stroke="black"/>
<path d="M63.9961,143.5h -6.80315" fill="none" stroke="black"/>
<path d="M63.9961,136.887h -6.80315" fill="none" stroke="black"/>
<path d="M63.9961,130.273h -6.80315" fill="none" stroke="black"/>
<path d="M70.7992,123.66h -13.6063" fill="none" stroke="black"/>
<path d="M63.9961,117.046h -6.80315" fill="none" stroke="black"/>
<path d="M63.9961,110.433h -6.80315" fill="none" stroke="black"/>
<path d="M63.9961,103.819h -6.80315" fill="none" stroke="black"/>
<path d="M63.9961,97.2055h -6.80315" fill="none" stroke="black"/>
<path d="M70.7992,90.5919h -13.6063" fill="none" stroke="black"/>
<path d="M63.9961,83.9784h -6.80315" fill="none" stroke="black"/>
<path d="M63.9961,77.3648h -6.80315" fill="none" stroke="black"/>
<path d="M63.9961,70.7513h -6.80315" fill="none" stroke="black"/>
<path d="M63.9961,64.1377h -6.80315" fill="none" stroke="black"/>
<path d="M70.7992,57.5242h -13.6063" fill="none" stroke="black"/>
<path d="M70.7992,355.134h -13.6063" fill="none" stroke="black"/>
<path d="M63.9961,361.747h -6.80315" fill="none" stroke="black"/>
<path d="M63.9961,368.361h -6.80315" fill="none" stroke="black"/>
<path d="M70.7992,57.5242h -13.6063" fill="none" stroke="black"/>
<path d="M63.9961,50.9107h -6.80315" fill="none" stroke="black"/>
<path d="M63.9961,44.2971h -6.80315" fill="none" stroke="black"/>
<text xml:space="preserve" x="32.2594" y="359.782" fill="black" font-size="13.7726" font-family="Helvetica">136</text>
<text xml:space="preserve" x="32.2594" y="326.6" fill="black" font-size="13.7726" font-family="Helvetica">137</text>
<text xml:space="preserve" x="32.2594" y="293.419" fill="black" font-size="13.7726" font-family="Helvetica">138</text>
<text xml:space="preserve" x="32.2594" y="260.238" fill="black" font-size="13.7726" font-family="Helvetica">139</text>
<text xml:space="preserve" x="32.2594" y="227.53" fill="black" font-size="13.7726" font-family="Helvetica">140</text>
<text xml:space="preserve" x="34.6295" y="194.823" fill="black" font-size="13.7726" font-family="Helvetica">141</text>
<text xml:space="preserve" x="32.2594" y="161.641" fill="black" font-size="13.7726" font-family="Helvetica">142</text>
<text xml:space="preserve" x="32.2594" y="127.986" fill="black" font-size="13.7726" font-family="Helvetica">143</text>
<text xml:space="preserve" x="32.2594" y="95.7522" fill="black" font-size="13.7726" font-family="Helvetica">144</text>
<text xml:space="preserve" x="32.2594" y="62.0968" fill="black" font-size="13.7726" font-family="Helvetica">145</text>
<g transform="rotate(-90,15.1947,45.98)">
<text xml:space="preserve" x="15.1947" y="45.98" fill="black" font-size="9.34839" font-family="Helvetica">2</text>
</g>
<g transform="rotate(-90,19.4608,50.2462)">
<text xml:space="preserve" x="19.4608" y="50.2462" fill="black" font-size="13.7726" font-family="Helvetica"> </text>
</g>
<g transform="rotate(-90,19.4608,57.3565)">
<text xml:space="preserve" x="19.4608" y="57.3565" fill="black" font-size="13.7726" font-family="Times">&#0967;</text>
</g>
<text xml:space="preserve" x="111.421" y="18.9608" fill="black" font-size="15.997" font-family="Helvetica">^2 v.s. calibration factorwith 1st binand with last bin</text>
<text xml:space="preserve" x="102.889" y="18.9608" fill="black" font-size="15.997" font-family="Times">&#0967;</text>
<g stroke="black" stroke-width="1" fill="none">
<line x1="242.715" y1="69.0728" x2="246.507" y2="69.0728"/><line x1="244.611" y1="67.1767" x2="244.611" y2="70.9689"/><line x1="242.715" y1="67.1767" x2="246.507" y2="70.9689"/><line x1="242.715" y1="70.9689" x2="246.507" y2="67.1767"/>
<line x1="247.215" y1="105.955" x2="251.007" y2="105.955"/><line x1="249.111" y1="104.059" x2="249.111" y2="107.851"/><line x1="247.215" y1="104.059" x2="251.007" y2="107.851"/><line x1="247.215" y1="107.851" x2="251.007" y2="104.059"/>
<line x1="251.715" y1="130.526" x2="255.507" y2="130.526"/><line x1="253.611" y1="128.63" x2="253.611" y2="132.422"/><line x1="251.715" y1="128.63" x2="255.507" y2="132.422"/><line x1="251.715" y1="132.422" x2="255.507" y2="128.63"/>
<line x1="256.215" y1="169.122" x2="260.007" y2="169.122"/><line x1="258.111" y1="167.226" x2="258.111" y2="171.018"/><line x1="256.215" y1="167.226" x2="260.007" y2="171.018"/><line x1="256.215" y1="171.018" x2="260.007" y2="167.226"/>
<line x1="260.715" y1="186.548" x2="264.507" y2="186.548"/><line x1="262.611" y1="184.651" x2="262.611" y2="188.444"/><line x1="260.715" y1="184.651" x2="264.507" y2="188.444"/><line x1="260.715" y1="188.444" x2="264.507" y2="184.651"/>
<line x1="265.215" y1="204.341" x2="269.007" y2="204.341"/><line x1="267.111" y1="202.445" x2="267.111" y2="206.237"/><line x1="265.215" y1="202.445" x2="269.007" y2="206.237"/><line x1="265.215" y1="206.237" x2="269.007" y2="202.445"/>
<line x1="269.714" y1="226.003" x2="273.507" y2="226.003"/><line x1="271.611" y1="224.107" x2="271.611" y2="227.899"/><line x1="269.714" y1="224.107" x2="273.507" y2="227.899"/><line x1="269.714" y1="227.899" x2="273.507" y2="224.107"/>
<line x1="274.214" y1="253.57" x2="278.007" y2="253.57"/><line x1="276.11" y1="251.674" x2="276.11" y2="255.466"/><line x1="274.214" y1="251.674" x2="278.007" y2="255.466"/><line x1="274.214" y1="255.466" x2="278.007" y2="251.674"/>
<line x1="278.714" y1="273.674" x2="282.506" y2="273.674"/><line x1="280.61" y1="271.778" x2="280.61" y2="275.57"/><line x1="278.714" y1="271.778" x2="282.506" y2="275.57"/><line x1="278.714" y1="275.57" x2="282.506" y2="271.778"/>
<line x1="283.214" y1="305.876" x2="287.006" y2="305.876"/><line x1="285.11" y1="303.98" x2="285.11" y2="307.772"/><line x1="283.214" y1="303.98" x2="287.006" y2="307.772"/><line x1="283.214" y1="307.772" x2="287.006" y2="303.98"/>
</g>
<path d="M0.5,272.809h 566.929" fill="none" stroke="#0000ff"/>
<text xml:space="preserve" x="111.421" y="18.9608" fill="black" font-size="15.997" font-family="Helvetica">^2 v.s. calibration factorwith 1st binand with last bin</text>
<text xml:space="preserve" x="102.889" y="18.9608" fill="black" font-size="15.997" font-family="Times">&#0967;</text></svg>
