<?xml version="1.0" standalone="no"?>
<svg width="567.429" height="413.846" viewBox="0 0 567.429 413.846" xmlns="http://www.w3.org/2000/svg" shape-rendering="crispEdges">
<title>
figures/chi2zoomin_7PMTnpefilelist20.svg
</title>
<desc>
Creator: ROOT Version 6.18/04
CreationDate: Mon Nov  4 09:26:36 2019</desc>
<defs>
</defs>
<rect x="0.5" y="0" width="566.929" height="413.346" fill="white"/>
<rect x="57.1929" y="41.3346" width="453.543" height="330.677" fill="white"/>
<rect x="57.1929" y="41.3346" width="453.543" height="330.677" fill="none" stroke="black"/>
<path d="M57.1929,372.012h 453.543" fill="none" stroke="black"/>
<path d="M78.1559,41.3346v 330.677" fill="none" stroke="black" stroke-dasharray=" 1, 2"/>
<path d="M123.155,41.3346v 330.677" fill="none" stroke="black" stroke-dasharray=" 1, 2"/>
<path d="M168.154,41.3346v 330.677" fill="none" stroke="black" stroke-dasharray=" 1, 2"/>
<path d="M213.153,41.3346v 330.677" fill="none" stroke="black" stroke-dasharray=" 1, 2"/>
<path d="M258.151,41.3346v 330.677" fill="none" stroke="black" stroke-dasharray=" 1, 2"/>
<path d="M303.15,41.3346v 330.677" fill="none" stroke="black" stroke-dasharray=" 1, 2"/>
<path d="M348.149,41.3346v 330.677" fill="none" stroke="black" stroke-dasharray=" 1, 2"/>
<path d="M393.148,41.3346v 330.677" fill="none" stroke="black" stroke-dasharray=" 1, 2"/>
<path d="M438.147,41.3346v 330.677" fill="none" stroke="black" stroke-dasharray=" 1, 2"/>
<path d="M483.146,41.3346v 330.677" fill="none" stroke="black" stroke-dasharray=" 1, 2"/>
<path d="M78.1559,41.3346v 330.677" fill="none" stroke="black" stroke-dasharray=" 1, 2"/>
<path d="M483.146,41.3346v 330.677" fill="none" stroke="black" stroke-dasharray=" 1, 2"/>
<path d="M57.1929,372.012v -330.677" fill="none" stroke="black"/>
<path d="M57.1929,372.012h 453.543" fill="none" stroke="black"/>
<path d="M78.1559,362.091v 9.92031" fill="none" stroke="black"/>
<path d="M89.4056,367.052v 4.96016" fill="none" stroke="black"/>
<path d="M100.655,367.052v 4.96016" fill="none" stroke="black"/>
<path d="M111.905,367.052v 4.96016" fill="none" stroke="black"/>
<path d="M123.155,362.091v 9.92031" fill="none" stroke="black"/>
<path d="M134.405,367.052v 4.96016" fill="none" stroke="black"/>
<path d="M145.654,367.052v 4.96016" fill="none" stroke="black"/>
<path d="M156.904,367.052v 4.96016" fill="none" stroke="black"/>
<path d="M168.154,362.091v 9.92031" fill="none" stroke="black"/>
<path d="M179.403,367.052v 4.96016" fill="none" stroke="black"/>
<path d="M190.653,367.052v 4.96016" fill="none" stroke="black"/>
<path d="M201.903,367.052v 4.96016" fill="none" stroke="black"/>
<path d="M213.153,362.091v 9.92031" fill="none" stroke="black"/>
<path d="M224.402,367.052v 4.96016" fill="none" stroke="black"/>
<path d="M235.652,367.052v 4.96016" fill="none" stroke="black"/>
<path d="M246.902,367.052v 4.96016" fill="none" stroke="black"/>
<path d="M258.151,362.091v 9.92031" fill="none" stroke="black"/>
<path d="M269.401,367.052v 4.96016" fill="none" stroke="black"/>
<path d="M280.651,367.052v 4.96016" fill="none" stroke="black"/>
<path d="M291.901,367.052v 4.96016" fill="none" stroke="black"/>
<path d="M303.15,362.091v 9.92031" fill="none" stroke="black"/>
<path d="M314.4,367.052v 4.96016" fill="none" stroke="black"/>
<path d="M325.65,367.052v 4.96016" fill="none" stroke="black"/>
<path d="M336.899,367.052v 4.96016" fill="none" stroke="black"/>
<path d="M348.149,362.091v 9.92031" fill="none" stroke="black"/>
<path d="M359.399,367.052v 4.96016" fill="none" stroke="black"/>
<path d="M370.649,367.052v 4.96016" fill="none" stroke="black"/>
<path d="M381.898,367.052v 4.96016" fill="none" stroke="black"/>
<path d="M393.148,362.091v 9.92031" fill="none" stroke="black"/>
<path d="M404.398,367.052v 4.96016" fill="none" stroke="black"/>
<path d="M415.647,367.052v 4.96016" fill="none" stroke="black"/>
<path d="M426.897,367.052v 4.96016" fill="none" stroke="black"/>
<path d="M438.147,362.091v 9.92031" fill="none" stroke="black"/>
<path d="M449.397,367.052v 4.96016" fill="none" stroke="black"/>
<path d="M460.646,367.052v 4.96016" fill="none" stroke="black"/>
<path d="M471.896,367.052v 4.96016" fill="none" stroke="black"/>
<path d="M483.146,362.091v 9.92031" fill="none" stroke="black"/>
<path d="M78.1559,362.091v 9.92031" fill="none" stroke="black"/>
<path d="M66.9062,367.052v 4.96016" fill="none" stroke="black"/>
<path d="M483.146,362.091v 9.92031" fill="none" stroke="black"/>
<path d="M494.396,367.052v 4.96016" fill="none" stroke="black"/>
<path d="M505.645,367.052v 4.96016" fill="none" stroke="black"/>
<text xml:space="preserve" x="61.1747" y="385.379" fill="black" font-size="13.7726" font-family="Helvetica">0.718</text>
<text xml:space="preserve" x="109.999" y="385.379" fill="black" font-size="13.7726" font-family="Helvetica">0.72</text>
<text xml:space="preserve" x="151.239" y="385.379" fill="black" font-size="13.7726" font-family="Helvetica">0.722</text>
<text xml:space="preserve" x="196.271" y="385.379" fill="black" font-size="13.7726" font-family="Helvetica">0.724</text>
<text xml:space="preserve" x="241.303" y="385.379" fill="black" font-size="13.7726" font-family="Helvetica">0.726</text>
<text xml:space="preserve" x="286.335" y="385.379" fill="black" font-size="13.7726" font-family="Helvetica">0.728</text>
<text xml:space="preserve" x="335.159" y="385.379" fill="black" font-size="13.7726" font-family="Helvetica">0.73</text>
<text xml:space="preserve" x="376.399" y="385.379" fill="black" font-size="13.7726" font-family="Helvetica">0.732</text>
<text xml:space="preserve" x="421.431" y="385.379" fill="black" font-size="13.7726" font-family="Helvetica">0.734</text>
<text xml:space="preserve" x="466.463" y="385.379" fill="black" font-size="13.7726" font-family="Helvetica">0.736</text>
<text xml:space="preserve" x="413.372" y="400.074" fill="black" font-size="13.7726" font-family="Helvetica">calibration factor</text>
<path d="M57.1929,372.012v -330.677" fill="none" stroke="black"/>
<path d="M70.7992,371.558h -13.6063" fill="none" stroke="black"/>
<path d="M63.9961,364.944h -6.80315" fill="none" stroke="black"/>
<path d="M63.9961,358.331h -6.80315" fill="none" stroke="black"/>
<path d="M63.9961,351.717h -6.80315" fill="none" stroke="black"/>
<path d="M63.9961,345.104h -6.80315" fill="none" stroke="black"/>
<path d="M70.7992,338.49h -13.6063" fill="none" stroke="black"/>
<path d="M63.9961,331.877h -6.80315" fill="none" stroke="black"/>
<path d="M63.9961,325.263h -6.80315" fill="none" stroke="black"/>
<path d="M63.9961,318.65h -6.80315" fill="none" stroke="black"/>
<path d="M63.9961,312.036h -6.80315" fill="none" stroke="black"/>
<path d="M70.7992,305.422h -13.6063" fill="none" stroke="black"/>
<path d="M63.9961,298.809h -6.80315" fill="none" stroke="black"/>
<path d="M63.9961,292.195h -6.80315" fill="none" stroke="black"/>
<path d="M63.9961,285.582h -6.80315" fill="none" stroke="black"/>
<path d="M63.9961,278.968h -6.80315" fill="none" stroke="black"/>
<path d="M70.7992,272.355h -13.6063" fill="none" stroke="black"/>
<path d="M63.9961,265.741h -6.80315" fill="none" stroke="black"/>
<path d="M63.9961,259.128h -6.80315" fill="none" stroke="black"/>
<path d="M63.9961,252.514h -6.80315" fill="none" stroke="black"/>
<path d="M63.9961,245.901h -6.80315" fill="none" stroke="black"/>
<path d="M70.7992,239.287h -13.6063" fill="none" stroke="black"/>
<path d="M63.9961,232.674h -6.80315" fill="none" stroke="black"/>
<path d="M63.9961,226.06h -6.80315" fill="none" stroke="black"/>
<path d="M63.9961,219.446h -6.80315" fill="none" stroke="black"/>
<path d="M63.9961,212.833h -6.80315" fill="none" stroke="black"/>
<path d="M70.7992,206.219h -13.6063" fill="none" stroke="black"/>
<path d="M63.9961,199.606h -6.80315" fill="none" stroke="black"/>
<path d="M63.9961,192.992h -6.80315" fill="none" stroke="black"/>
<path d="M63.9961,186.379h -6.80315" fill="none" stroke="black"/>
<path d="M63.9961,179.765h -6.80315" fill="none" stroke="black"/>
<path d="M70.7992,173.152h -13.6063" fill="none" stroke="black"/>
<path d="M63.9961,166.538h -6.80315" fill="none" stroke="black"/>
<path d="M63.9961,159.925h -6.80315" fill="none" stroke="black"/>
<path d="M63.9961,153.311h -6.80315" fill="none" stroke="black"/>
<path d="M63.9961,146.697h -6.80315" fill="none" stroke="black"/>
<path d="M70.7992,140.084h -13.6063" fill="none" stroke="black"/>
<path d="M63.9961,133.47h -6.80315" fill="none" stroke="black"/>
<path d="M63.9961,126.857h -6.80315" fill="none" stroke="black"/>
<path d="M63.9961,120.243h -6.80315" fill="none" stroke="black"/>
<path d="M63.9961,113.63h -6.80315" fill="none" stroke="black"/>
<path d="M70.7992,107.016h -13.6063" fill="none" stroke="black"/>
<path d="M63.9961,100.403h -6.80315" fill="none" stroke="black"/>
<path d="M63.9961,93.7892h -6.80315" fill="none" stroke="black"/>
<path d="M63.9961,87.1756h -6.80315" fill="none" stroke="black"/>
<path d="M63.9961,80.5621h -6.80315" fill="none" stroke="black"/>
<path d="M70.7992,73.9485h -13.6063" fill="none" stroke="black"/>
<path d="M70.7992,371.558h -13.6063" fill="none" stroke="black"/>
<path d="M70.7992,73.9485h -13.6063" fill="none" stroke="black"/>
<path d="M63.9961,67.335h -6.80315" fill="none" stroke="black"/>
<path d="M63.9961,60.7214h -6.80315" fill="none" stroke="black"/>
<path d="M63.9961,54.1079h -6.80315" fill="none" stroke="black"/>
<path d="M63.9961,47.4944h -6.80315" fill="none" stroke="black"/>
<text xml:space="preserve" x="39.8437" y="375.899" fill="black" font-size="13.7726" font-family="Helvetica">39</text>
<text xml:space="preserve" x="39.8437" y="343.191" fill="black" font-size="13.7726" font-family="Helvetica">40</text>
<text xml:space="preserve" x="41.7398" y="310.484" fill="black" font-size="13.7726" font-family="Helvetica">41</text>
<text xml:space="preserve" x="39.8437" y="277.302" fill="black" font-size="13.7726" font-family="Helvetica">42</text>
<text xml:space="preserve" x="39.8437" y="243.647" fill="black" font-size="13.7726" font-family="Helvetica">43</text>
<text xml:space="preserve" x="39.3697" y="211.413" fill="black" font-size="13.7726" font-family="Helvetica">44</text>
<text xml:space="preserve" x="39.8437" y="177.758" fill="black" font-size="13.7726" font-family="Helvetica">45</text>
<text xml:space="preserve" x="39.8437" y="144.576" fill="black" font-size="13.7726" font-family="Helvetica">46</text>
<text xml:space="preserve" x="39.3697" y="111.869" fill="black" font-size="13.7726" font-family="Helvetica">47</text>
<text xml:space="preserve" x="39.8437" y="78.6875" fill="black" font-size="13.7726" font-family="Helvetica">48</text>
<g transform="rotate(-90,22.305,45.98)">
<text xml:space="preserve" x="22.305" y="45.98" fill="black" font-size="9.34839" font-family="Helvetica">2</text>
</g>
<g transform="rotate(-90,26.5712,50.2462)">
<text xml:space="preserve" x="26.5712" y="50.2462" fill="black" font-size="13.7726" font-family="Helvetica"> </text>
</g>
<g transform="rotate(-90,26.5712,57.3565)">
<text xml:space="preserve" x="26.5712" y="57.3565" fill="black" font-size="13.7726" font-family="Times">&#0967;</text>
</g>
<text xml:space="preserve" x="111.421" y="18.9608" fill="black" font-size="15.997" font-family="Helvetica">^2 v.s. calibration factorwith 1st binand with last bin</text>
<text xml:space="preserve" x="102.889" y="18.9608" fill="black" font-size="15.997" font-family="Times">&#0967;</text>
<g stroke="black" stroke-width="1" fill="none">
<line x1="121.259" y1="47.7072" x2="125.051" y2="47.7072"/><line x1="123.155" y1="45.8111" x2="123.155" y2="49.6033"/><line x1="121.259" y1="45.8111" x2="125.051" y2="49.6033"/><line x1="121.259" y1="49.6033" x2="125.051" y2="45.8111"/>
<line x1="125.759" y1="53.9587" x2="129.551" y2="53.9587"/><line x1="127.655" y1="52.0626" x2="127.655" y2="55.8547"/><line x1="125.759" y1="52.0626" x2="129.551" y2="55.8547"/><line x1="125.759" y1="55.8547" x2="129.551" y2="52.0626"/>
<line x1="130.258" y1="87.4355" x2="134.051" y2="87.4355"/><line x1="132.155" y1="85.5394" x2="132.155" y2="89.3316"/><line x1="130.258" y1="85.5394" x2="134.051" y2="89.3316"/><line x1="130.258" y1="89.3316" x2="134.051" y2="85.5394"/>
<line x1="134.758" y1="81.986" x2="138.551" y2="81.986"/><line x1="136.654" y1="80.09" x2="136.654" y2="83.8821"/><line x1="134.758" y1="80.09" x2="138.551" y2="83.8821"/><line x1="134.758" y1="83.8821" x2="138.551" y2="80.09"/>
<line x1="139.258" y1="111.348" x2="143.05" y2="111.348"/><line x1="141.154" y1="109.452" x2="141.154" y2="113.245"/><line x1="139.258" y1="109.452" x2="143.05" y2="113.245"/><line x1="139.258" y1="113.245" x2="143.05" y2="109.452"/>
<line x1="143.758" y1="112.661" x2="147.55" y2="112.661"/><line x1="145.654" y1="110.765" x2="145.654" y2="114.557"/><line x1="143.758" y1="110.765" x2="147.55" y2="114.557"/><line x1="143.758" y1="114.557" x2="147.55" y2="110.765"/>
<line x1="148.258" y1="121.497" x2="152.05" y2="121.497"/><line x1="150.154" y1="119.601" x2="150.154" y2="123.393"/><line x1="148.258" y1="119.601" x2="152.05" y2="123.393"/><line x1="148.258" y1="123.393" x2="152.05" y2="119.601"/>
<line x1="152.758" y1="91.1318" x2="156.55" y2="91.1318"/><line x1="154.654" y1="89.2358" x2="154.654" y2="93.0279"/><line x1="152.758" y1="89.2358" x2="156.55" y2="93.0279"/><line x1="152.758" y1="93.0279" x2="156.55" y2="89.2358"/>
<line x1="157.258" y1="83.221" x2="161.05" y2="83.221"/><line x1="159.154" y1="81.325" x2="159.154" y2="85.1171"/><line x1="157.258" y1="81.325" x2="161.05" y2="85.1171"/><line x1="157.258" y1="85.1171" x2="161.05" y2="81.325"/>
<line x1="161.758" y1="108.972" x2="165.55" y2="108.972"/><line x1="163.654" y1="107.076" x2="163.654" y2="110.868"/><line x1="161.758" y1="107.076" x2="165.55" y2="110.868"/><line x1="161.758" y1="110.868" x2="165.55" y2="107.076"/>
<line x1="166.258" y1="151.711" x2="170.05" y2="151.711"/><line x1="168.154" y1="149.815" x2="168.154" y2="153.607"/><line x1="166.258" y1="149.815" x2="170.05" y2="153.607"/><line x1="166.258" y1="153.607" x2="170.05" y2="149.815"/>
<line x1="170.757" y1="162.669" x2="174.55" y2="162.669"/><line x1="172.654" y1="160.773" x2="172.654" y2="164.565"/><line x1="170.757" y1="160.773" x2="174.55" y2="164.565"/><line x1="170.757" y1="164.565" x2="174.55" y2="160.773"/>
<line x1="175.257" y1="195.41" x2="179.05" y2="195.41"/><line x1="177.153" y1="193.514" x2="177.153" y2="197.306"/><line x1="175.257" y1="193.514" x2="179.05" y2="197.306"/><line x1="175.257" y1="197.306" x2="179.05" y2="193.514"/>
<line x1="179.757" y1="228.005" x2="183.549" y2="228.005"/><line x1="181.653" y1="226.109" x2="181.653" y2="229.901"/><line x1="179.757" y1="226.109" x2="183.549" y2="229.901"/><line x1="179.757" y1="229.901" x2="183.549" y2="226.109"/>
<line x1="184.257" y1="188.477" x2="188.049" y2="188.477"/><line x1="186.153" y1="186.581" x2="186.153" y2="190.373"/><line x1="184.257" y1="186.581" x2="188.049" y2="190.373"/><line x1="184.257" y1="190.373" x2="188.049" y2="186.581"/>
<line x1="188.757" y1="197.157" x2="192.549" y2="197.157"/><line x1="190.653" y1="195.261" x2="190.653" y2="199.054"/><line x1="188.757" y1="195.261" x2="192.549" y2="199.054"/><line x1="188.757" y1="199.054" x2="192.549" y2="195.261"/>
<line x1="193.257" y1="209.744" x2="197.049" y2="209.744"/><line x1="195.153" y1="207.848" x2="195.153" y2="211.64"/><line x1="193.257" y1="207.848" x2="197.049" y2="211.64"/><line x1="193.257" y1="211.64" x2="197.049" y2="207.848"/>
<line x1="197.757" y1="209.565" x2="201.549" y2="209.565"/><line x1="199.653" y1="207.669" x2="199.653" y2="211.461"/><line x1="197.757" y1="207.669" x2="201.549" y2="211.461"/><line x1="197.757" y1="211.461" x2="201.549" y2="207.669"/>
<line x1="202.257" y1="215.416" x2="206.049" y2="215.416"/><line x1="204.153" y1="213.52" x2="204.153" y2="217.312"/><line x1="202.257" y1="213.52" x2="206.049" y2="217.312"/><line x1="202.257" y1="217.312" x2="206.049" y2="213.52"/>
<line x1="206.757" y1="246.546" x2="210.549" y2="246.546"/><line x1="208.653" y1="244.649" x2="208.653" y2="248.442"/><line x1="206.757" y1="244.649" x2="210.549" y2="248.442"/><line x1="206.757" y1="248.442" x2="210.549" y2="244.649"/>
<line x1="211.256" y1="238.395" x2="215.049" y2="238.395"/><line x1="213.153" y1="236.499" x2="213.153" y2="240.291"/><line x1="211.256" y1="236.499" x2="215.049" y2="240.291"/><line x1="211.256" y1="240.291" x2="215.049" y2="236.499"/>
<line x1="215.756" y1="211.305" x2="219.549" y2="211.305"/><line x1="217.652" y1="209.409" x2="217.652" y2="213.202"/><line x1="215.756" y1="209.409" x2="219.549" y2="213.202"/><line x1="215.756" y1="213.202" x2="219.549" y2="209.409"/>
<line x1="220.256" y1="224.853" x2="224.048" y2="224.853"/><line x1="222.152" y1="222.957" x2="222.152" y2="226.749"/><line x1="220.256" y1="222.957" x2="224.048" y2="226.749"/><line x1="220.256" y1="226.749" x2="224.048" y2="222.957"/>
<line x1="224.756" y1="200.46" x2="228.548" y2="200.46"/><line x1="226.652" y1="198.564" x2="226.652" y2="202.356"/><line x1="224.756" y1="198.564" x2="228.548" y2="202.356"/><line x1="224.756" y1="202.356" x2="228.548" y2="198.564"/>
<line x1="229.256" y1="191.8" x2="233.048" y2="191.8"/><line x1="231.152" y1="189.904" x2="231.152" y2="193.696"/><line x1="229.256" y1="189.904" x2="233.048" y2="193.696"/><line x1="229.256" y1="193.696" x2="233.048" y2="189.904"/>
<line x1="233.756" y1="196.775" x2="237.548" y2="196.775"/><line x1="235.652" y1="194.879" x2="235.652" y2="198.671"/><line x1="233.756" y1="194.879" x2="237.548" y2="198.671"/><line x1="233.756" y1="198.671" x2="237.548" y2="194.879"/>
<line x1="238.256" y1="187.682" x2="242.048" y2="187.682"/><line x1="240.152" y1="185.786" x2="240.152" y2="189.578"/><line x1="238.256" y1="185.786" x2="242.048" y2="189.578"/><line x1="238.256" y1="189.578" x2="242.048" y2="185.786"/>
<line x1="242.756" y1="218.964" x2="246.548" y2="218.964"/><line x1="244.652" y1="217.068" x2="244.652" y2="220.86"/><line x1="242.756" y1="217.068" x2="246.548" y2="220.86"/><line x1="242.756" y1="220.86" x2="246.548" y2="217.068"/>
<line x1="247.256" y1="212.773" x2="251.048" y2="212.773"/><line x1="249.152" y1="210.876" x2="249.152" y2="214.669"/><line x1="247.256" y1="210.876" x2="251.048" y2="214.669"/><line x1="247.256" y1="214.669" x2="251.048" y2="210.876"/>
<line x1="251.755" y1="209.762" x2="255.548" y2="209.762"/><line x1="253.652" y1="207.866" x2="253.652" y2="211.658"/><line x1="251.755" y1="207.866" x2="255.548" y2="211.658"/><line x1="251.755" y1="211.658" x2="255.548" y2="207.866"/>
<line x1="256.255" y1="222.512" x2="260.047" y2="222.512"/><line x1="258.151" y1="220.616" x2="258.151" y2="224.408"/><line x1="256.255" y1="220.616" x2="260.047" y2="224.408"/><line x1="256.255" y1="224.408" x2="260.047" y2="220.616"/>
<line x1="260.755" y1="247.265" x2="264.547" y2="247.265"/><line x1="262.651" y1="245.369" x2="262.651" y2="249.161"/><line x1="260.755" y1="245.369" x2="264.547" y2="249.161"/><line x1="260.755" y1="249.161" x2="264.547" y2="245.369"/>
<line x1="265.255" y1="267.253" x2="269.047" y2="267.253"/><line x1="267.151" y1="265.357" x2="267.151" y2="269.149"/><line x1="265.255" y1="265.357" x2="269.047" y2="269.149"/><line x1="265.255" y1="269.149" x2="269.047" y2="265.357"/>
<line x1="269.755" y1="235.674" x2="273.547" y2="235.674"/><line x1="271.651" y1="233.778" x2="271.651" y2="237.57"/><line x1="269.755" y1="233.778" x2="273.547" y2="237.57"/><line x1="269.755" y1="237.57" x2="273.547" y2="233.778"/>
<line x1="274.255" y1="267.496" x2="278.047" y2="267.496"/><line x1="276.151" y1="265.6" x2="276.151" y2="269.392"/><line x1="274.255" y1="265.6" x2="278.047" y2="269.392"/><line x1="274.255" y1="269.392" x2="278.047" y2="265.6"/>
<line x1="278.755" y1="287.14" x2="282.547" y2="287.14"/><line x1="280.651" y1="285.243" x2="280.651" y2="289.036"/><line x1="278.755" y1="285.243" x2="282.547" y2="289.036"/><line x1="278.755" y1="289.036" x2="282.547" y2="285.243"/>
<line x1="283.255" y1="305.876" x2="287.047" y2="305.876"/><line x1="285.151" y1="303.98" x2="285.151" y2="307.772"/><line x1="283.255" y1="303.98" x2="287.047" y2="307.772"/><line x1="283.255" y1="307.772" x2="287.047" y2="303.98"/>
<line x1="287.755" y1="304.35" x2="291.547" y2="304.35"/><line x1="289.651" y1="302.454" x2="289.651" y2="306.246"/><line x1="287.755" y1="302.454" x2="291.547" y2="306.246"/><line x1="287.755" y1="306.246" x2="291.547" y2="302.454"/>
<line x1="292.254" y1="293.331" x2="296.047" y2="293.331"/><line x1="294.151" y1="291.435" x2="294.151" y2="295.227"/><line x1="292.254" y1="291.435" x2="296.047" y2="295.227"/><line x1="292.254" y1="295.227" x2="296.047" y2="291.435"/>
<line x1="296.754" y1="268.234" x2="300.546" y2="268.234"/><line x1="298.65" y1="266.338" x2="298.65" y2="270.13"/><line x1="296.754" y1="266.338" x2="300.546" y2="270.13"/><line x1="296.754" y1="270.13" x2="300.546" y2="266.338"/>
<line x1="301.254" y1="247.704" x2="305.046" y2="247.704"/><line x1="303.15" y1="245.808" x2="303.15" y2="249.6"/><line x1="301.254" y1="245.808" x2="305.046" y2="249.6"/><line x1="301.254" y1="249.6" x2="305.046" y2="245.808"/>
<line x1="305.754" y1="239.343" x2="309.546" y2="239.343"/><line x1="307.65" y1="237.447" x2="307.65" y2="241.239"/><line x1="305.754" y1="237.447" x2="309.546" y2="241.239"/><line x1="305.754" y1="241.239" x2="309.546" y2="237.447"/>
<line x1="310.254" y1="247.786" x2="314.046" y2="247.786"/><line x1="312.15" y1="245.889" x2="312.15" y2="249.682"/><line x1="310.254" y1="245.889" x2="314.046" y2="249.682"/><line x1="310.254" y1="249.682" x2="314.046" y2="245.889"/>
<line x1="314.754" y1="266.687" x2="318.546" y2="266.687"/><line x1="316.65" y1="264.791" x2="316.65" y2="268.584"/><line x1="314.754" y1="264.791" x2="318.546" y2="268.584"/><line x1="314.754" y1="268.584" x2="318.546" y2="264.791"/>
<line x1="319.254" y1="272.18" x2="323.046" y2="272.18"/><line x1="321.15" y1="270.284" x2="321.15" y2="274.077"/><line x1="319.254" y1="270.284" x2="323.046" y2="274.077"/><line x1="319.254" y1="274.077" x2="323.046" y2="270.284"/>
<line x1="323.754" y1="246.971" x2="327.546" y2="246.971"/><line x1="325.65" y1="245.075" x2="325.65" y2="248.867"/><line x1="323.754" y1="245.075" x2="327.546" y2="248.867"/><line x1="323.754" y1="248.867" x2="327.546" y2="245.075"/>
<line x1="328.254" y1="230.512" x2="332.046" y2="230.512"/><line x1="330.15" y1="228.615" x2="330.15" y2="232.408"/><line x1="328.254" y1="228.615" x2="332.046" y2="232.408"/><line x1="328.254" y1="232.408" x2="332.046" y2="228.615"/>
<line x1="332.753" y1="247.687" x2="336.546" y2="247.687"/><line x1="334.65" y1="245.791" x2="334.65" y2="249.583"/><line x1="332.753" y1="245.791" x2="336.546" y2="249.583"/><line x1="332.753" y1="249.583" x2="336.546" y2="245.791"/>
<line x1="337.253" y1="254.897" x2="341.045" y2="254.897"/><line x1="339.149" y1="253.001" x2="339.149" y2="256.793"/><line x1="337.253" y1="253.001" x2="341.045" y2="256.793"/><line x1="337.253" y1="256.793" x2="341.045" y2="253.001"/>
<line x1="341.753" y1="253.313" x2="345.545" y2="253.313"/><line x1="343.649" y1="251.416" x2="343.649" y2="255.209"/><line x1="341.753" y1="251.416" x2="345.545" y2="255.209"/><line x1="341.753" y1="255.209" x2="345.545" y2="251.416"/>
<line x1="346.253" y1="241.052" x2="350.045" y2="241.052"/><line x1="348.149" y1="239.156" x2="348.149" y2="242.948"/><line x1="346.253" y1="239.156" x2="350.045" y2="242.948"/><line x1="346.253" y1="242.948" x2="350.045" y2="239.156"/>
<line x1="350.753" y1="246.217" x2="354.545" y2="246.217"/><line x1="352.649" y1="244.321" x2="352.649" y2="248.113"/><line x1="350.753" y1="244.321" x2="354.545" y2="248.113"/><line x1="350.753" y1="248.113" x2="354.545" y2="244.321"/>
<line x1="355.253" y1="229.957" x2="359.045" y2="229.957"/><line x1="357.149" y1="228.061" x2="357.149" y2="231.853"/><line x1="355.253" y1="228.061" x2="359.045" y2="231.853"/><line x1="355.253" y1="231.853" x2="359.045" y2="228.061"/>
<line x1="359.753" y1="192.31" x2="363.545" y2="192.31"/><line x1="361.649" y1="190.414" x2="361.649" y2="194.206"/><line x1="359.753" y1="190.414" x2="363.545" y2="194.206"/><line x1="359.753" y1="194.206" x2="363.545" y2="190.414"/>
<line x1="364.253" y1="161.186" x2="368.045" y2="161.186"/><line x1="366.149" y1="159.29" x2="366.149" y2="163.082"/><line x1="364.253" y1="159.29" x2="368.045" y2="163.082"/><line x1="364.253" y1="163.082" x2="368.045" y2="159.29"/>
<line x1="368.753" y1="117.894" x2="372.545" y2="117.894"/><line x1="370.649" y1="115.998" x2="370.649" y2="119.791"/><line x1="368.753" y1="115.998" x2="372.545" y2="119.791"/><line x1="368.753" y1="119.791" x2="372.545" y2="115.998"/>
<line x1="373.252" y1="110.745" x2="377.045" y2="110.745"/><line x1="375.148" y1="108.849" x2="375.148" y2="112.641"/><line x1="373.252" y1="108.849" x2="377.045" y2="112.641"/><line x1="373.252" y1="112.641" x2="377.045" y2="108.849"/>
<line x1="377.752" y1="102.076" x2="381.544" y2="102.076"/><line x1="379.648" y1="100.18" x2="379.648" y2="103.972"/><line x1="377.752" y1="100.18" x2="381.544" y2="103.972"/><line x1="377.752" y1="103.972" x2="381.544" y2="100.18"/>
<line x1="382.252" y1="127.631" x2="386.044" y2="127.631"/><line x1="384.148" y1="125.735" x2="384.148" y2="129.527"/><line x1="382.252" y1="125.735" x2="386.044" y2="129.527"/><line x1="382.252" y1="129.527" x2="386.044" y2="125.735"/>
<line x1="386.752" y1="140.801" x2="390.544" y2="140.801"/><line x1="388.648" y1="138.905" x2="388.648" y2="142.697"/><line x1="386.752" y1="138.905" x2="390.544" y2="142.697"/><line x1="386.752" y1="142.697" x2="390.544" y2="138.905"/>
<line x1="391.252" y1="143.389" x2="395.044" y2="143.389"/><line x1="393.148" y1="141.493" x2="393.148" y2="145.285"/><line x1="391.252" y1="141.493" x2="395.044" y2="145.285"/><line x1="391.252" y1="145.285" x2="395.044" y2="141.493"/>
<line x1="395.752" y1="101.167" x2="399.544" y2="101.167"/><line x1="397.648" y1="99.2704" x2="397.648" y2="103.063"/><line x1="395.752" y1="99.2704" x2="399.544" y2="103.063"/><line x1="395.752" y1="103.063" x2="399.544" y2="99.2704"/>
<line x1="400.252" y1="136.624" x2="404.044" y2="136.624"/><line x1="402.148" y1="134.727" x2="402.148" y2="138.52"/><line x1="400.252" y1="134.727" x2="404.044" y2="138.52"/><line x1="400.252" y1="138.52" x2="404.044" y2="134.727"/>
<line x1="404.752" y1="142.424" x2="408.544" y2="142.424"/><line x1="406.648" y1="140.528" x2="406.648" y2="144.32"/><line x1="404.752" y1="140.528" x2="408.544" y2="144.32"/><line x1="404.752" y1="144.32" x2="408.544" y2="140.528"/>
<line x1="409.251" y1="152.599" x2="413.044" y2="152.599"/><line x1="411.148" y1="150.703" x2="411.148" y2="154.495"/><line x1="409.251" y1="150.703" x2="413.044" y2="154.495"/><line x1="409.251" y1="154.495" x2="413.044" y2="150.703"/>
<line x1="413.751" y1="153.625" x2="417.544" y2="153.625"/><line x1="415.647" y1="151.729" x2="415.647" y2="155.521"/><line x1="413.751" y1="151.729" x2="417.544" y2="155.521"/><line x1="413.751" y1="155.521" x2="417.544" y2="151.729"/>
<line x1="418.251" y1="148.113" x2="422.043" y2="148.113"/><line x1="420.147" y1="146.217" x2="420.147" y2="150.009"/><line x1="418.251" y1="146.217" x2="422.043" y2="150.009"/><line x1="418.251" y1="150.009" x2="422.043" y2="146.217"/>
<line x1="422.751" y1="158.238" x2="426.543" y2="158.238"/><line x1="424.647" y1="156.342" x2="424.647" y2="160.134"/><line x1="422.751" y1="156.342" x2="426.543" y2="160.134"/><line x1="422.751" y1="160.134" x2="426.543" y2="156.342"/>
<line x1="427.251" y1="163.887" x2="431.043" y2="163.887"/><line x1="429.147" y1="161.991" x2="429.147" y2="165.784"/><line x1="427.251" y1="161.991" x2="431.043" y2="165.784"/><line x1="427.251" y1="165.784" x2="431.043" y2="161.991"/>
<line x1="431.751" y1="164.654" x2="435.543" y2="164.654"/><line x1="433.647" y1="162.758" x2="433.647" y2="166.55"/><line x1="431.751" y1="162.758" x2="435.543" y2="166.55"/><line x1="431.751" y1="166.55" x2="435.543" y2="162.758"/>
<line x1="436.251" y1="140.133" x2="440.043" y2="140.133"/><line x1="438.147" y1="138.237" x2="438.147" y2="142.029"/><line x1="436.251" y1="138.237" x2="440.043" y2="142.029"/><line x1="436.251" y1="142.029" x2="440.043" y2="138.237"/>
<line x1="440.751" y1="124.555" x2="444.543" y2="124.555"/><line x1="442.647" y1="122.659" x2="442.647" y2="126.451"/><line x1="440.751" y1="122.659" x2="444.543" y2="126.451"/><line x1="440.751" y1="126.451" x2="444.543" y2="122.659"/>
<line x1="445.251" y1="128.775" x2="449.043" y2="128.775"/><line x1="447.147" y1="126.879" x2="447.147" y2="130.671"/><line x1="445.251" y1="126.879" x2="449.043" y2="130.671"/><line x1="445.251" y1="130.671" x2="449.043" y2="126.879"/>
<line x1="449.75" y1="129.486" x2="453.543" y2="129.486"/><line x1="451.647" y1="127.59" x2="451.647" y2="131.382"/><line x1="449.75" y1="127.59" x2="453.543" y2="131.382"/><line x1="449.75" y1="131.382" x2="453.543" y2="127.59"/>
<line x1="454.25" y1="146.75" x2="458.043" y2="146.75"/><line x1="456.146" y1="144.854" x2="456.146" y2="148.646"/><line x1="454.25" y1="144.854" x2="458.043" y2="148.646"/><line x1="454.25" y1="148.646" x2="458.043" y2="144.854"/>
<line x1="458.75" y1="128.317" x2="462.542" y2="128.317"/><line x1="460.646" y1="126.421" x2="460.646" y2="130.213"/><line x1="458.75" y1="126.421" x2="462.542" y2="130.213"/><line x1="458.75" y1="130.213" x2="462.542" y2="126.421"/>
<line x1="463.25" y1="64.4235" x2="467.042" y2="64.4235"/><line x1="465.146" y1="62.5274" x2="465.146" y2="66.3196"/><line x1="463.25" y1="62.5274" x2="467.042" y2="66.3196"/><line x1="463.25" y1="66.3196" x2="467.042" y2="62.5274"/>
<line x1="467.75" y1="66.2025" x2="471.542" y2="66.2025"/><line x1="469.646" y1="64.3064" x2="469.646" y2="68.0986"/><line x1="467.75" y1="64.3064" x2="471.542" y2="68.0986"/><line x1="467.75" y1="68.0986" x2="471.542" y2="64.3064"/>
<line x1="472.25" y1="74.1599" x2="476.042" y2="74.1599"/><line x1="474.146" y1="72.2638" x2="474.146" y2="76.056"/><line x1="472.25" y1="72.2638" x2="476.042" y2="76.056"/><line x1="472.25" y1="76.056" x2="476.042" y2="72.2638"/>
<line x1="476.75" y1="78.413" x2="480.542" y2="78.413"/><line x1="478.646" y1="76.5169" x2="478.646" y2="80.3091"/><line x1="476.75" y1="76.5169" x2="480.542" y2="80.3091"/><line x1="476.75" y1="80.3091" x2="480.542" y2="76.5169"/>
<line x1="481.25" y1="66.7258" x2="485.042" y2="66.7258"/><line x1="483.146" y1="64.8298" x2="483.146" y2="68.6219"/><line x1="481.25" y1="64.8298" x2="485.042" y2="68.6219"/><line x1="481.25" y1="68.6219" x2="485.042" y2="64.8298"/>
<line x1="485.75" y1="60.9245" x2="489.542" y2="60.9245"/><line x1="487.646" y1="59.0284" x2="487.646" y2="62.8206"/><line x1="485.75" y1="59.0284" x2="489.542" y2="62.8206"/><line x1="485.75" y1="62.8206" x2="489.542" y2="59.0284"/>
<line x1="490.249" y1="56.7666" x2="494.042" y2="56.7666"/><line x1="492.146" y1="54.8705" x2="492.146" y2="58.6627"/><line x1="490.249" y1="54.8705" x2="494.042" y2="58.6627"/><line x1="490.249" y1="58.6627" x2="494.042" y2="54.8705"/>
<line x1="494.749" y1="67.2165" x2="498.542" y2="67.2165"/><line x1="496.645" y1="65.3204" x2="496.645" y2="69.1126"/><line x1="494.749" y1="65.3204" x2="498.542" y2="69.1126"/><line x1="494.749" y1="69.1126" x2="498.542" y2="65.3204"/>
<line x1="499.249" y1="67.8483" x2="503.041" y2="67.8483"/><line x1="501.145" y1="65.9522" x2="501.145" y2="69.7444"/><line x1="499.249" y1="65.9522" x2="503.041" y2="69.7444"/><line x1="499.249" y1="69.7444" x2="503.041" y2="65.9522"/>
<line x1="503.749" y1="60.693" x2="507.541" y2="60.693"/><line x1="505.645" y1="58.797" x2="505.645" y2="62.5891"/><line x1="503.749" y1="58.797" x2="507.541" y2="62.5891"/><line x1="503.749" y1="62.5891" x2="507.541" y2="58.797"/>
</g>
<path d="M0.5,272.809h 566.929" fill="none" stroke="#0000ff"/>
<text xml:space="preserve" x="111.421" y="18.9608" fill="black" font-size="15.997" font-family="Helvetica">^2 v.s. calibration factorwith 1st binand with last bin</text>
<text xml:space="preserve" x="102.889" y="18.9608" fill="black" font-size="15.997" font-family="Times">&#0967;</text></svg>
