<?xml version="1.0" standalone="no"?>
<svg width="567.429" height="413.846" viewBox="0 0 567.429 413.846" xmlns="http://www.w3.org/2000/svg" shape-rendering="crispEdges">
<title>
figures/chi2zoomin_3PMTnpefilelist20.svg
</title>
<desc>
Creator: ROOT Version 6.18/04
CreationDate: Mon Nov  4 09:25:12 2019</desc>
<defs>
</defs>
<rect x="0.5" y="0" width="566.929" height="413.346" fill="white"/>
<rect x="57.1929" y="41.3346" width="453.543" height="330.677" fill="white"/>
<rect x="57.1929" y="41.3346" width="453.543" height="330.677" fill="none" stroke="black"/>
<path d="M57.1929,372.012h 453.543" fill="none" stroke="black"/>
<path d="M99.7802,41.3346v 330.677" fill="none" stroke="black" stroke-dasharray=" 1, 2"/>
<path d="M144.779,41.3346v 330.677" fill="none" stroke="black" stroke-dasharray=" 1, 2"/>
<path d="M189.778,41.3346v 330.677" fill="none" stroke="black" stroke-dasharray=" 1, 2"/>
<path d="M234.777,41.3346v 330.677" fill="none" stroke="black" stroke-dasharray=" 1, 2"/>
<path d="M279.776,41.3346v 330.677" fill="none" stroke="black" stroke-dasharray=" 1, 2"/>
<path d="M324.775,41.3346v 330.677" fill="none" stroke="black" stroke-dasharray=" 1, 2"/>
<path d="M369.773,41.3346v 330.677" fill="none" stroke="black" stroke-dasharray=" 1, 2"/>
<path d="M414.772,41.3346v 330.677" fill="none" stroke="black" stroke-dasharray=" 1, 2"/>
<path d="M459.771,41.3346v 330.677" fill="none" stroke="black" stroke-dasharray=" 1, 2"/>
<path d="M504.77,41.3346v 330.677" fill="none" stroke="black" stroke-dasharray=" 1, 2"/>
<path d="M99.7802,41.3346v 330.677" fill="none" stroke="black" stroke-dasharray=" 1, 2"/>
<path d="M504.77,41.3346v 330.677" fill="none" stroke="black" stroke-dasharray=" 1, 2"/>
<path d="M57.1929,372.012v -330.677" fill="none" stroke="black"/>
<path d="M57.1929,372.012h 453.543" fill="none" stroke="black"/>
<path d="M99.7802,362.091v 9.92031" fill="none" stroke="black"/>
<path d="M111.03,367.052v 4.96016" fill="none" stroke="black"/>
<path d="M122.28,367.052v 4.96016" fill="none" stroke="black"/>
<path d="M133.529,367.052v 4.96016" fill="none" stroke="black"/>
<path d="M144.779,362.091v 9.92031" fill="none" stroke="black"/>
<path d="M156.029,367.052v 4.96016" fill="none" stroke="black"/>
<path d="M167.279,367.052v 4.96016" fill="none" stroke="black"/>
<path d="M178.528,367.052v 4.96016" fill="none" stroke="black"/>
<path d="M189.778,362.091v 9.92031" fill="none" stroke="black"/>
<path d="M201.028,367.052v 4.96016" fill="none" stroke="black"/>
<path d="M212.277,367.052v 4.96016" fill="none" stroke="black"/>
<path d="M223.527,367.052v 4.96016" fill="none" stroke="black"/>
<path d="M234.777,362.091v 9.92031" fill="none" stroke="black"/>
<path d="M246.027,367.052v 4.96016" fill="none" stroke="black"/>
<path d="M257.276,367.052v 4.96016" fill="none" stroke="black"/>
<path d="M268.526,367.052v 4.96016" fill="none" stroke="black"/>
<path d="M279.776,362.091v 9.92031" fill="none" stroke="black"/>
<path d="M291.025,367.052v 4.96016" fill="none" stroke="black"/>
<path d="M302.275,367.052v 4.96016" fill="none" stroke="black"/>
<path d="M313.525,367.052v 4.96016" fill="none" stroke="black"/>
<path d="M324.775,362.091v 9.92031" fill="none" stroke="black"/>
<path d="M336.024,367.052v 4.96016" fill="none" stroke="black"/>
<path d="M347.274,367.052v 4.96016" fill="none" stroke="black"/>
<path d="M358.524,367.052v 4.96016" fill="none" stroke="black"/>
<path d="M369.773,362.091v 9.92031" fill="none" stroke="black"/>
<path d="M381.023,367.052v 4.96016" fill="none" stroke="black"/>
<path d="M392.273,367.052v 4.96016" fill="none" stroke="black"/>
<path d="M403.523,367.052v 4.96016" fill="none" stroke="black"/>
<path d="M414.772,362.091v 9.92031" fill="none" stroke="black"/>
<path d="M426.022,367.052v 4.96016" fill="none" stroke="black"/>
<path d="M437.272,367.052v 4.96016" fill="none" stroke="black"/>
<path d="M448.521,367.052v 4.96016" fill="none" stroke="black"/>
<path d="M459.771,362.091v 9.92031" fill="none" stroke="black"/>
<path d="M471.021,367.052v 4.96016" fill="none" stroke="black"/>
<path d="M482.271,367.052v 4.96016" fill="none" stroke="black"/>
<path d="M493.52,367.052v 4.96016" fill="none" stroke="black"/>
<path d="M504.77,362.091v 9.92031" fill="none" stroke="black"/>
<path d="M99.7802,362.091v 9.92031" fill="none" stroke="black"/>
<path d="M88.5305,367.052v 4.96016" fill="none" stroke="black"/>
<path d="M77.2808,367.052v 4.96016" fill="none" stroke="black"/>
<path d="M66.0311,367.052v 4.96016" fill="none" stroke="black"/>
<path d="M504.77,362.091v 9.92031" fill="none" stroke="black"/>
<text xml:space="preserve" x="86.7718" y="385.379" fill="black" font-size="13.7726" font-family="Helvetica">0.73</text>
<text xml:space="preserve" x="128.012" y="385.379" fill="black" font-size="13.7726" font-family="Helvetica">0.732</text>
<text xml:space="preserve" x="173.044" y="385.379" fill="black" font-size="13.7726" font-family="Helvetica">0.734</text>
<text xml:space="preserve" x="218.076" y="385.379" fill="black" font-size="13.7726" font-family="Helvetica">0.736</text>
<text xml:space="preserve" x="263.108" y="385.379" fill="black" font-size="13.7726" font-family="Helvetica">0.738</text>
<text xml:space="preserve" x="311.932" y="385.379" fill="black" font-size="13.7726" font-family="Helvetica">0.74</text>
<text xml:space="preserve" x="353.172" y="385.379" fill="black" font-size="13.7726" font-family="Helvetica">0.742</text>
<text xml:space="preserve" x="397.73" y="385.379" fill="black" font-size="13.7726" font-family="Helvetica">0.744</text>
<text xml:space="preserve" x="442.762" y="385.379" fill="black" font-size="13.7726" font-family="Helvetica">0.746</text>
<text xml:space="preserve" x="487.794" y="385.379" fill="black" font-size="13.7726" font-family="Helvetica">0.748</text>
<text xml:space="preserve" x="413.372" y="400.074" fill="black" font-size="13.7726" font-family="Helvetica">calibration factor</text>
<path d="M57.1929,372.012v -330.677" fill="none" stroke="black"/>
<path d="M70.7992,341.531h -13.6063" fill="none" stroke="black"/>
<path d="M63.9961,334.917h -6.80315" fill="none" stroke="black"/>
<path d="M63.9961,328.304h -6.80315" fill="none" stroke="black"/>
<path d="M63.9961,321.69h -6.80315" fill="none" stroke="black"/>
<path d="M63.9961,315.077h -6.80315" fill="none" stroke="black"/>
<path d="M70.7992,308.463h -13.6063" fill="none" stroke="black"/>
<path d="M63.9961,301.85h -6.80315" fill="none" stroke="black"/>
<path d="M63.9961,295.236h -6.80315" fill="none" stroke="black"/>
<path d="M63.9961,288.623h -6.80315" fill="none" stroke="black"/>
<path d="M63.9961,282.009h -6.80315" fill="none" stroke="black"/>
<path d="M70.7992,275.395h -13.6063" fill="none" stroke="black"/>
<path d="M63.9961,268.782h -6.80315" fill="none" stroke="black"/>
<path d="M63.9961,262.168h -6.80315" fill="none" stroke="black"/>
<path d="M63.9961,255.555h -6.80315" fill="none" stroke="black"/>
<path d="M63.9961,248.941h -6.80315" fill="none" stroke="black"/>
<path d="M70.7992,242.328h -13.6063" fill="none" stroke="black"/>
<path d="M63.9961,235.714h -6.80315" fill="none" stroke="black"/>
<path d="M63.9961,229.101h -6.80315" fill="none" stroke="black"/>
<path d="M63.9961,222.487h -6.80315" fill="none" stroke="black"/>
<path d="M63.9961,215.874h -6.80315" fill="none" stroke="black"/>
<path d="M70.7992,209.26h -13.6063" fill="none" stroke="black"/>
<path d="M63.9961,202.647h -6.80315" fill="none" stroke="black"/>
<path d="M63.9961,196.033h -6.80315" fill="none" stroke="black"/>
<path d="M63.9961,189.419h -6.80315" fill="none" stroke="black"/>
<path d="M63.9961,182.806h -6.80315" fill="none" stroke="black"/>
<path d="M70.7992,176.192h -13.6063" fill="none" stroke="black"/>
<path d="M63.9961,169.579h -6.80315" fill="none" stroke="black"/>
<path d="M63.9961,162.965h -6.80315" fill="none" stroke="black"/>
<path d="M63.9961,156.352h -6.80315" fill="none" stroke="black"/>
<path d="M63.9961,149.738h -6.80315" fill="none" stroke="black"/>
<path d="M70.7992,143.125h -13.6063" fill="none" stroke="black"/>
<path d="M63.9961,136.511h -6.80315" fill="none" stroke="black"/>
<path d="M63.9961,129.898h -6.80315" fill="none" stroke="black"/>
<path d="M63.9961,123.284h -6.80315" fill="none" stroke="black"/>
<path d="M63.9961,116.671h -6.80315" fill="none" stroke="black"/>
<path d="M70.7992,110.057h -13.6063" fill="none" stroke="black"/>
<path d="M63.9961,103.443h -6.80315" fill="none" stroke="black"/>
<path d="M63.9961,96.8299h -6.80315" fill="none" stroke="black"/>
<path d="M63.9961,90.2163h -6.80315" fill="none" stroke="black"/>
<path d="M63.9961,83.6028h -6.80315" fill="none" stroke="black"/>
<path d="M70.7992,76.9893h -13.6063" fill="none" stroke="black"/>
<path d="M63.9961,70.3757h -6.80315" fill="none" stroke="black"/>
<path d="M63.9961,63.7622h -6.80315" fill="none" stroke="black"/>
<path d="M63.9961,57.1486h -6.80315" fill="none" stroke="black"/>
<path d="M63.9961,50.5351h -6.80315" fill="none" stroke="black"/>
<path d="M70.7992,43.9216h -13.6063" fill="none" stroke="black"/>
<path d="M70.7992,341.531h -13.6063" fill="none" stroke="black"/>
<path d="M63.9961,348.144h -6.80315" fill="none" stroke="black"/>
<path d="M63.9961,354.758h -6.80315" fill="none" stroke="black"/>
<path d="M63.9961,361.372h -6.80315" fill="none" stroke="black"/>
<path d="M63.9961,367.985h -6.80315" fill="none" stroke="black"/>
<path d="M70.7992,43.9216h -13.6063" fill="none" stroke="black"/>
<text xml:space="preserve" x="34.6295" y="346.035" fill="black" font-size="13.7726" font-family="Helvetica">251</text>
<text xml:space="preserve" x="32.2594" y="312.854" fill="black" font-size="13.7726" font-family="Helvetica">252</text>
<text xml:space="preserve" x="32.2594" y="279.672" fill="black" font-size="13.7726" font-family="Helvetica">253</text>
<text xml:space="preserve" x="32.2594" y="246.965" fill="black" font-size="13.7726" font-family="Helvetica">254</text>
<text xml:space="preserve" x="32.2594" y="213.783" fill="black" font-size="13.7726" font-family="Helvetica">255</text>
<text xml:space="preserve" x="32.2594" y="180.602" fill="black" font-size="13.7726" font-family="Helvetica">256</text>
<text xml:space="preserve" x="32.2594" y="147.421" fill="black" font-size="13.7726" font-family="Helvetica">257</text>
<text xml:space="preserve" x="32.2594" y="114.713" fill="black" font-size="13.7726" font-family="Helvetica">258</text>
<text xml:space="preserve" x="32.2594" y="81.5316" fill="black" font-size="13.7726" font-family="Helvetica">259</text>
<text xml:space="preserve" x="32.2594" y="48.3501" fill="black" font-size="13.7726" font-family="Helvetica">260</text>
<g transform="rotate(-90,15.1947,45.98)">
<text xml:space="preserve" x="15.1947" y="45.98" fill="black" font-size="9.34839" font-family="Helvetica">2</text>
</g>
<g transform="rotate(-90,19.4608,50.2462)">
<text xml:space="preserve" x="19.4608" y="50.2462" fill="black" font-size="13.7726" font-family="Helvetica"> </text>
</g>
<g transform="rotate(-90,19.4608,57.3565)">
<text xml:space="preserve" x="19.4608" y="57.3565" fill="black" font-size="13.7726" font-family="Times">&#0967;</text>
</g>
<text xml:space="preserve" x="111.421" y="18.9608" fill="black" font-size="15.997" font-family="Helvetica">^2 v.s. calibration factorwith 1st binand with last bin</text>
<text xml:space="preserve" x="102.889" y="18.9608" fill="black" font-size="15.997" font-family="Times">&#0967;</text>
<g stroke="black" stroke-width="1" fill="none">
<line x1="282.38" y1="305.876" x2="286.172" y2="305.876"/><line x1="284.276" y1="303.98" x2="284.276" y2="307.772"/><line x1="282.38" y1="303.98" x2="286.172" y2="307.772"/><line x1="282.38" y1="307.772" x2="286.172" y2="303.98"/>
<line x1="286.879" y1="301.107" x2="290.672" y2="301.107"/><line x1="288.775" y1="299.211" x2="288.775" y2="303.003"/><line x1="286.879" y1="299.211" x2="290.672" y2="303.003"/><line x1="286.879" y1="303.003" x2="290.672" y2="299.211"/>
<line x1="291.379" y1="290.245" x2="295.171" y2="290.245"/><line x1="293.275" y1="288.348" x2="293.275" y2="292.141"/><line x1="291.379" y1="288.348" x2="295.171" y2="292.141"/><line x1="291.379" y1="292.141" x2="295.171" y2="288.348"/>
</g>
<path d="M0.5,272.809h 566.929" fill="none" stroke="#0000ff"/>
<text xml:space="preserve" x="111.421" y="18.9608" fill="black" font-size="15.997" font-family="Helvetica">^2 v.s. calibration factorwith 1st binand with last bin</text>
<text xml:space="preserve" x="102.889" y="18.9608" fill="black" font-size="15.997" font-family="Times">&#0967;</text></svg>
