<?xml version="1.0" standalone="no"?>
<svg width="567.429" height="413.846" viewBox="0 0 567.429 413.846" xmlns="http://www.w3.org/2000/svg" shape-rendering="crispEdges">
<title>
figures/chi2_2PMTnpedata190929-03.svg
</title>
<desc>
Creator: ROOT Version 6.18/02
CreationDate: Mon Sep 30 00:48:10 2019</desc>
<defs>
</defs>
<rect x="0.5" y="0" width="566.929" height="413.346" fill="white"/>
<rect x="57.1929" y="41.3346" width="453.543" height="330.677" fill="white"/>
<rect x="57.1929" y="41.3346" width="453.543" height="330.677" fill="none" stroke="black"/>
<path d="M57.1929,372.012h 453.543" fill="none" stroke="black"/>
<path d="M84.3874,41.3346v 330.677" fill="none" stroke="black" stroke-dasharray=" 1, 2"/>
<path d="M129.656,41.3346v 330.677" fill="none" stroke="black" stroke-dasharray=" 1, 2"/>
<path d="M174.924,41.3346v 330.677" fill="none" stroke="black" stroke-dasharray=" 1, 2"/>
<path d="M220.192,41.3346v 330.677" fill="none" stroke="black" stroke-dasharray=" 1, 2"/>
<path d="M265.461,41.3346v 330.677" fill="none" stroke="black" stroke-dasharray=" 1, 2"/>
<path d="M310.729,41.3346v 330.677" fill="none" stroke="black" stroke-dasharray=" 1, 2"/>
<path d="M355.997,41.3346v 330.677" fill="none" stroke="black" stroke-dasharray=" 1, 2"/>
<path d="M401.266,41.3346v 330.677" fill="none" stroke="black" stroke-dasharray=" 1, 2"/>
<path d="M446.534,41.3346v 330.677" fill="none" stroke="black" stroke-dasharray=" 1, 2"/>
<path d="M491.802,41.3346v 330.677" fill="none" stroke="black" stroke-dasharray=" 1, 2"/>
<path d="M84.3874,41.3346v 330.677" fill="none" stroke="black" stroke-dasharray=" 1, 2"/>
<path d="M491.802,41.3346v 330.677" fill="none" stroke="black" stroke-dasharray=" 1, 2"/>
<path d="M57.1929,372.012v -330.677" fill="none" stroke="black"/>
<path d="M510.736,353.788h -453.543" fill="none" stroke="black" stroke-dasharray=" 1, 2"/>
<path d="M510.736,290.802h -453.543" fill="none" stroke="black" stroke-dasharray=" 1, 2"/>
<path d="M510.736,227.816h -453.543" fill="none" stroke="black" stroke-dasharray=" 1, 2"/>
<path d="M510.736,164.83h -453.543" fill="none" stroke="black" stroke-dasharray=" 1, 2"/>
<path d="M510.736,101.843h -453.543" fill="none" stroke="black" stroke-dasharray=" 1, 2"/>
<path d="M510.736,353.788h -453.543" fill="none" stroke="black" stroke-dasharray=" 1, 2"/>
<path d="M510.736,101.843h -453.543" fill="none" stroke="black" stroke-dasharray=" 1, 2"/>
<path d="M57.1929,372.012h 453.543" fill="none" stroke="black"/>
<path d="M84.3874,362.091v 9.92031" fill="none" stroke="black"/>
<path d="M95.7045,367.052v 4.96016" fill="none" stroke="black"/>
<path d="M107.022,367.052v 4.96016" fill="none" stroke="black"/>
<path d="M118.339,367.052v 4.96016" fill="none" stroke="black"/>
<path d="M129.656,362.091v 9.92031" fill="none" stroke="black"/>
<path d="M140.973,367.052v 4.96016" fill="none" stroke="black"/>
<path d="M152.29,367.052v 4.96016" fill="none" stroke="black"/>
<path d="M163.607,367.052v 4.96016" fill="none" stroke="black"/>
<path d="M174.924,362.091v 9.92031" fill="none" stroke="black"/>
<path d="M186.241,367.052v 4.96016" fill="none" stroke="black"/>
<path d="M197.558,367.052v 4.96016" fill="none" stroke="black"/>
<path d="M208.875,367.052v 4.96016" fill="none" stroke="black"/>
<path d="M220.192,362.091v 9.92031" fill="none" stroke="black"/>
<path d="M231.509,367.052v 4.96016" fill="none" stroke="black"/>
<path d="M242.827,367.052v 4.96016" fill="none" stroke="black"/>
<path d="M254.144,367.052v 4.96016" fill="none" stroke="black"/>
<path d="M265.461,362.091v 9.92031" fill="none" stroke="black"/>
<path d="M276.778,367.052v 4.96016" fill="none" stroke="black"/>
<path d="M288.095,367.052v 4.96016" fill="none" stroke="black"/>
<path d="M299.412,367.052v 4.96016" fill="none" stroke="black"/>
<path d="M310.729,362.091v 9.92031" fill="none" stroke="black"/>
<path d="M322.046,367.052v 4.96016" fill="none" stroke="black"/>
<path d="M333.363,367.052v 4.96016" fill="none" stroke="black"/>
<path d="M344.68,367.052v 4.96016" fill="none" stroke="black"/>
<path d="M355.997,362.091v 9.92031" fill="none" stroke="black"/>
<path d="M367.314,367.052v 4.96016" fill="none" stroke="black"/>
<path d="M378.632,367.052v 4.96016" fill="none" stroke="black"/>
<path d="M389.949,367.052v 4.96016" fill="none" stroke="black"/>
<path d="M401.266,362.091v 9.92031" fill="none" stroke="black"/>
<path d="M412.583,367.052v 4.96016" fill="none" stroke="black"/>
<path d="M423.9,367.052v 4.96016" fill="none" stroke="black"/>
<path d="M435.217,367.052v 4.96016" fill="none" stroke="black"/>
<path d="M446.534,362.091v 9.92031" fill="none" stroke="black"/>
<path d="M457.851,367.052v 4.96016" fill="none" stroke="black"/>
<path d="M469.168,367.052v 4.96016" fill="none" stroke="black"/>
<path d="M480.485,367.052v 4.96016" fill="none" stroke="black"/>
<path d="M491.802,362.091v 9.92031" fill="none" stroke="black"/>
<path d="M84.3874,362.091v 9.92031" fill="none" stroke="black"/>
<path d="M73.0703,367.052v 4.96016" fill="none" stroke="black"/>
<path d="M61.7533,367.052v 4.96016" fill="none" stroke="black"/>
<path d="M491.802,362.091v 9.92031" fill="none" stroke="black"/>
<path d="M503.119,367.052v 4.96016" fill="none" stroke="black"/>
<text xml:space="preserve" x="71.1291" y="385.379" fill="black" font-size="13.7726" font-family="Helvetica">0.36</text>
<text xml:space="preserve" x="116.635" y="385.379" fill="black" font-size="13.7726" font-family="Helvetica">0.38</text>
<text xml:space="preserve" x="165.459" y="385.379" fill="black" font-size="13.7726" font-family="Helvetica">0.4</text>
<text xml:space="preserve" x="207.173" y="385.379" fill="black" font-size="13.7726" font-family="Helvetica">0.42</text>
<text xml:space="preserve" x="252.205" y="385.379" fill="black" font-size="13.7726" font-family="Helvetica">0.44</text>
<text xml:space="preserve" x="297.711" y="385.379" fill="black" font-size="13.7726" font-family="Helvetica">0.46</text>
<text xml:space="preserve" x="342.743" y="385.379" fill="black" font-size="13.7726" font-family="Helvetica">0.48</text>
<text xml:space="preserve" x="392.041" y="385.379" fill="black" font-size="13.7726" font-family="Helvetica">0.5</text>
<text xml:space="preserve" x="433.281" y="385.379" fill="black" font-size="13.7726" font-family="Helvetica">0.52</text>
<text xml:space="preserve" x="478.787" y="385.379" fill="black" font-size="13.7726" font-family="Helvetica">0.54</text>
<text xml:space="preserve" x="413.372" y="400.074" fill="black" font-size="13.7726" font-family="Helvetica">calibration factor</text>
<path d="M57.1929,372.012v -330.677" fill="none" stroke="black"/>
<path d="M70.7992,353.788h -13.6063" fill="none" stroke="black"/>
<path d="M63.9961,338.041h -6.80315" fill="none" stroke="black"/>
<path d="M63.9961,322.295h -6.80315" fill="none" stroke="black"/>
<path d="M63.9961,306.548h -6.80315" fill="none" stroke="black"/>
<path d="M70.7992,290.802h -13.6063" fill="none" stroke="black"/>
<path d="M63.9961,275.055h -6.80315" fill="none" stroke="black"/>
<path d="M63.9961,259.309h -6.80315" fill="none" stroke="black"/>
<path d="M63.9961,243.562h -6.80315" fill="none" stroke="black"/>
<path d="M70.7992,227.816h -13.6063" fill="none" stroke="black"/>
<path d="M63.9961,212.069h -6.80315" fill="none" stroke="black"/>
<path d="M63.9961,196.323h -6.80315" fill="none" stroke="black"/>
<path d="M63.9961,180.576h -6.80315" fill="none" stroke="black"/>
<path d="M70.7992,164.83h -13.6063" fill="none" stroke="black"/>
<path d="M63.9961,149.083h -6.80315" fill="none" stroke="black"/>
<path d="M63.9961,133.337h -6.80315" fill="none" stroke="black"/>
<path d="M63.9961,117.59h -6.80315" fill="none" stroke="black"/>
<path d="M70.7992,101.843h -13.6063" fill="none" stroke="black"/>
<path d="M70.7992,353.788h -13.6063" fill="none" stroke="black"/>
<path d="M63.9961,369.534h -6.80315" fill="none" stroke="black"/>
<path d="M70.7992,101.843h -13.6063" fill="none" stroke="black"/>
<path d="M63.9961,86.097h -6.80315" fill="none" stroke="black"/>
<path d="M63.9961,70.3504h -6.80315" fill="none" stroke="black"/>
<path d="M63.9961,54.6039h -6.80315" fill="none" stroke="black"/>
<text xml:space="preserve" x="25.1491" y="358.36" fill="black" font-size="13.7726" font-family="Helvetica">5400</text>
<text xml:space="preserve" x="25.1491" y="295.315" fill="black" font-size="13.7726" font-family="Helvetica">5420</text>
<text xml:space="preserve" x="25.1491" y="232.27" fill="black" font-size="13.7726" font-family="Helvetica">5440</text>
<text xml:space="preserve" x="25.1491" y="169.225" fill="black" font-size="13.7726" font-family="Helvetica">5460</text>
<text xml:space="preserve" x="25.1491" y="106.181" fill="black" font-size="13.7726" font-family="Helvetica">5480</text>
<g transform="rotate(-90,8.08434,45.98)">
<text xml:space="preserve" x="8.08434" y="45.98" fill="black" font-size="9.34839" font-family="Helvetica">2</text>
</g>
<g transform="rotate(-90,12.3505,50.2462)">
<text xml:space="preserve" x="12.3505" y="50.2462" fill="black" font-size="13.7726" font-family="Helvetica"> </text>
</g>
<g transform="rotate(-90,12.3505,57.3565)">
<text xml:space="preserve" x="12.3505" y="57.3565" fill="black" font-size="13.7726" font-family="Times">&#0967;</text>
</g>
<g stroke="black" stroke-width="1" fill="none">
<line x1="207.885" y1="42.7593" x2="211.677" y2="42.7593"/><line x1="209.781" y1="40.8632" x2="209.781" y2="44.6554"/><line x1="207.885" y1="40.8632" x2="211.677" y2="44.6554"/><line x1="207.885" y1="44.6554" x2="211.677" y2="40.8632"/>
<line x1="208.337" y1="52.7227" x2="212.129" y2="52.7227"/><line x1="210.233" y1="50.8266" x2="210.233" y2="54.6188"/><line x1="208.337" y1="50.8266" x2="212.129" y2="54.6188"/><line x1="208.337" y1="54.6188" x2="212.129" y2="50.8266"/>
<line x1="208.79" y1="65.4142" x2="212.582" y2="65.4142"/><line x1="210.686" y1="63.5182" x2="210.686" y2="67.3103"/><line x1="208.79" y1="63.5182" x2="212.582" y2="67.3103"/><line x1="208.79" y1="67.3103" x2="212.582" y2="63.5182"/>
<line x1="209.243" y1="74.3481" x2="213.035" y2="74.3481"/><line x1="211.139" y1="72.452" x2="211.139" y2="76.2442"/><line x1="209.243" y1="72.452" x2="213.035" y2="76.2442"/><line x1="209.243" y1="76.2442" x2="213.035" y2="72.452"/>
<line x1="209.695" y1="90.5743" x2="213.488" y2="90.5743"/><line x1="211.591" y1="88.6782" x2="211.591" y2="92.4704"/><line x1="209.695" y1="88.6782" x2="213.488" y2="92.4704"/><line x1="209.695" y1="92.4704" x2="213.488" y2="88.6782"/>
<line x1="210.148" y1="86.4419" x2="213.94" y2="86.4419"/><line x1="212.044" y1="84.5459" x2="212.044" y2="88.338"/><line x1="210.148" y1="84.5459" x2="213.94" y2="88.338"/><line x1="210.148" y1="88.338" x2="213.94" y2="84.5459"/>
<line x1="210.601" y1="86.5127" x2="214.393" y2="86.5127"/><line x1="212.497" y1="84.6167" x2="212.497" y2="88.4088"/><line x1="210.601" y1="84.6167" x2="214.393" y2="88.4088"/><line x1="210.601" y1="88.4088" x2="214.393" y2="84.6167"/>
<line x1="211.053" y1="98.6694" x2="214.846" y2="98.6694"/><line x1="212.949" y1="96.7733" x2="212.949" y2="100.565"/><line x1="211.053" y1="96.7733" x2="214.846" y2="100.565"/><line x1="211.053" y1="100.565" x2="214.846" y2="96.7733"/>
<line x1="211.506" y1="104.309" x2="215.298" y2="104.309"/><line x1="213.402" y1="102.413" x2="213.402" y2="106.205"/><line x1="211.506" y1="102.413" x2="215.298" y2="106.205"/><line x1="211.506" y1="106.205" x2="215.298" y2="102.413"/>
<line x1="211.959" y1="88.1819" x2="215.751" y2="88.1819"/><line x1="213.855" y1="86.2858" x2="213.855" y2="90.0779"/><line x1="211.959" y1="86.2858" x2="215.751" y2="90.0779"/><line x1="211.959" y1="90.0779" x2="215.751" y2="86.2858"/>
<line x1="212.411" y1="91.0883" x2="216.204" y2="91.0883"/><line x1="214.308" y1="89.1922" x2="214.308" y2="92.9844"/><line x1="212.411" y1="89.1922" x2="216.204" y2="92.9844"/><line x1="212.411" y1="92.9844" x2="216.204" y2="89.1922"/>
<line x1="212.864" y1="97.1902" x2="216.656" y2="97.1902"/><line x1="214.76" y1="95.2942" x2="214.76" y2="99.0863"/><line x1="212.864" y1="95.2942" x2="216.656" y2="99.0863"/><line x1="212.864" y1="99.0863" x2="216.656" y2="95.2942"/>
<line x1="213.317" y1="101.755" x2="217.109" y2="101.755"/><line x1="215.213" y1="99.8586" x2="215.213" y2="103.651"/><line x1="213.317" y1="99.8586" x2="217.109" y2="103.651"/><line x1="213.317" y1="103.651" x2="217.109" y2="99.8586"/>
<line x1="213.769" y1="118.918" x2="217.562" y2="118.918"/><line x1="215.666" y1="117.022" x2="215.666" y2="120.814"/><line x1="213.769" y1="117.022" x2="217.562" y2="120.814"/><line x1="213.769" y1="120.814" x2="217.562" y2="117.022"/>
<line x1="214.222" y1="131.325" x2="218.014" y2="131.325"/><line x1="216.118" y1="129.429" x2="216.118" y2="133.221"/><line x1="214.222" y1="129.429" x2="218.014" y2="133.221"/><line x1="214.222" y1="133.221" x2="218.014" y2="129.429"/>
<line x1="214.675" y1="125.469" x2="218.467" y2="125.469"/><line x1="216.571" y1="123.573" x2="216.571" y2="127.365"/><line x1="214.675" y1="123.573" x2="218.467" y2="127.365"/><line x1="214.675" y1="127.365" x2="218.467" y2="123.573"/>
<line x1="215.128" y1="106.229" x2="218.92" y2="106.229"/><line x1="217.024" y1="104.333" x2="217.024" y2="108.125"/><line x1="215.128" y1="104.333" x2="218.92" y2="108.125"/><line x1="215.128" y1="108.125" x2="218.92" y2="104.333"/>
<line x1="215.58" y1="119.396" x2="219.372" y2="119.396"/><line x1="217.476" y1="117.5" x2="217.476" y2="121.292"/><line x1="215.58" y1="117.5" x2="219.372" y2="121.292"/><line x1="215.58" y1="121.292" x2="219.372" y2="117.5"/>
<line x1="216.033" y1="110.433" x2="219.825" y2="110.433"/><line x1="217.929" y1="108.537" x2="217.929" y2="112.329"/><line x1="216.033" y1="108.537" x2="219.825" y2="112.329"/><line x1="216.033" y1="112.329" x2="219.825" y2="108.537"/>
<line x1="216.486" y1="118.288" x2="220.278" y2="118.288"/><line x1="218.382" y1="116.392" x2="218.382" y2="120.184"/><line x1="216.486" y1="116.392" x2="220.278" y2="120.184"/><line x1="216.486" y1="120.184" x2="220.278" y2="116.392"/>
<line x1="216.938" y1="125.218" x2="220.73" y2="125.218"/><line x1="218.834" y1="123.322" x2="218.834" y2="127.114"/><line x1="216.938" y1="123.322" x2="220.73" y2="127.114"/><line x1="216.938" y1="127.114" x2="220.73" y2="123.322"/>
<line x1="217.391" y1="115.045" x2="221.183" y2="115.045"/><line x1="219.287" y1="113.149" x2="219.287" y2="116.941"/><line x1="217.391" y1="113.149" x2="221.183" y2="116.941"/><line x1="217.391" y1="116.941" x2="221.183" y2="113.149"/>
<line x1="217.844" y1="125.332" x2="221.636" y2="125.332"/><line x1="219.74" y1="123.436" x2="219.74" y2="127.228"/><line x1="217.844" y1="123.436" x2="221.636" y2="127.228"/><line x1="217.844" y1="127.228" x2="221.636" y2="123.436"/>
<line x1="218.296" y1="127.174" x2="222.088" y2="127.174"/><line x1="220.192" y1="125.278" x2="220.192" y2="129.07"/><line x1="218.296" y1="125.278" x2="222.088" y2="129.07"/><line x1="218.296" y1="129.07" x2="222.088" y2="125.278"/>
<line x1="218.749" y1="121.938" x2="222.541" y2="121.938"/><line x1="220.645" y1="120.042" x2="220.645" y2="123.834"/><line x1="218.749" y1="120.042" x2="222.541" y2="123.834"/><line x1="218.749" y1="123.834" x2="222.541" y2="120.042"/>
<line x1="219.202" y1="130.235" x2="222.994" y2="130.235"/><line x1="221.098" y1="128.338" x2="221.098" y2="132.131"/><line x1="219.202" y1="128.338" x2="222.994" y2="132.131"/><line x1="219.202" y1="132.131" x2="222.994" y2="128.338"/>
<line x1="219.654" y1="120.718" x2="223.447" y2="120.718"/><line x1="221.55" y1="118.822" x2="221.55" y2="122.614"/><line x1="219.654" y1="118.822" x2="223.447" y2="122.614"/><line x1="219.654" y1="122.614" x2="223.447" y2="118.822"/>
<line x1="220.107" y1="116.511" x2="223.899" y2="116.511"/><line x1="222.003" y1="114.615" x2="222.003" y2="118.407"/><line x1="220.107" y1="114.615" x2="223.899" y2="118.407"/><line x1="220.107" y1="118.407" x2="223.899" y2="114.615"/>
<line x1="220.56" y1="111.372" x2="224.352" y2="111.372"/><line x1="222.456" y1="109.476" x2="222.456" y2="113.268"/><line x1="220.56" y1="109.476" x2="224.352" y2="113.268"/><line x1="220.56" y1="113.268" x2="224.352" y2="109.476"/>
<line x1="221.012" y1="98.4161" x2="224.805" y2="98.4161"/><line x1="222.908" y1="96.52" x2="222.908" y2="100.312"/><line x1="221.012" y1="96.52" x2="224.805" y2="100.312"/><line x1="221.012" y1="100.312" x2="224.805" y2="96.52"/>
<line x1="221.465" y1="103.607" x2="225.257" y2="103.607"/><line x1="223.361" y1="101.71" x2="223.361" y2="105.503"/><line x1="221.465" y1="101.71" x2="225.257" y2="105.503"/><line x1="221.465" y1="105.503" x2="225.257" y2="101.71"/>
<line x1="221.918" y1="103.048" x2="225.71" y2="103.048"/><line x1="223.814" y1="101.152" x2="223.814" y2="104.944"/><line x1="221.918" y1="101.152" x2="225.71" y2="104.944"/><line x1="221.918" y1="104.944" x2="225.71" y2="101.152"/>
<line x1="222.37" y1="101.556" x2="226.163" y2="101.556"/><line x1="224.267" y1="99.6601" x2="224.267" y2="103.452"/><line x1="222.37" y1="99.6601" x2="226.163" y2="103.452"/><line x1="222.37" y1="103.452" x2="226.163" y2="99.6601"/>
<line x1="222.823" y1="113.46" x2="226.615" y2="113.46"/><line x1="224.719" y1="111.564" x2="224.719" y2="115.356"/><line x1="222.823" y1="111.564" x2="226.615" y2="115.356"/><line x1="222.823" y1="115.356" x2="226.615" y2="111.564"/>
<line x1="223.276" y1="108.23" x2="227.068" y2="108.23"/><line x1="225.172" y1="106.334" x2="225.172" y2="110.126"/><line x1="223.276" y1="106.334" x2="227.068" y2="110.126"/><line x1="223.276" y1="110.126" x2="227.068" y2="106.334"/>
<line x1="223.729" y1="103.711" x2="227.521" y2="103.711"/><line x1="225.625" y1="101.815" x2="225.625" y2="105.607"/><line x1="223.729" y1="101.815" x2="227.521" y2="105.607"/><line x1="223.729" y1="105.607" x2="227.521" y2="101.815"/>
<line x1="224.181" y1="108.802" x2="227.973" y2="108.802"/><line x1="226.077" y1="106.906" x2="226.077" y2="110.698"/><line x1="224.181" y1="106.906" x2="227.973" y2="110.698"/><line x1="224.181" y1="110.698" x2="227.973" y2="106.906"/>
<line x1="224.634" y1="108.535" x2="228.426" y2="108.535"/><line x1="226.53" y1="106.639" x2="226.53" y2="110.431"/><line x1="224.634" y1="106.639" x2="228.426" y2="110.431"/><line x1="224.634" y1="110.431" x2="228.426" y2="106.639"/>
<line x1="225.087" y1="99.2234" x2="228.879" y2="99.2234"/><line x1="226.983" y1="97.3274" x2="226.983" y2="101.12"/><line x1="225.087" y1="97.3274" x2="228.879" y2="101.12"/><line x1="225.087" y1="101.12" x2="228.879" y2="97.3274"/>
<line x1="225.539" y1="114.339" x2="229.331" y2="114.339"/><line x1="227.435" y1="112.443" x2="227.435" y2="116.235"/><line x1="225.539" y1="112.443" x2="229.331" y2="116.235"/><line x1="225.539" y1="116.235" x2="229.331" y2="112.443"/>
<line x1="225.992" y1="123.427" x2="229.784" y2="123.427"/><line x1="227.888" y1="121.531" x2="227.888" y2="125.323"/><line x1="225.992" y1="121.531" x2="229.784" y2="125.323"/><line x1="225.992" y1="125.323" x2="229.784" y2="121.531"/>
<line x1="226.445" y1="118.239" x2="230.237" y2="118.239"/><line x1="228.341" y1="116.343" x2="228.341" y2="120.135"/><line x1="226.445" y1="116.343" x2="230.237" y2="120.135"/><line x1="226.445" y1="120.135" x2="230.237" y2="116.343"/>
<line x1="226.897" y1="125.555" x2="230.689" y2="125.555"/><line x1="228.793" y1="123.659" x2="228.793" y2="127.451"/><line x1="226.897" y1="123.659" x2="230.689" y2="127.451"/><line x1="226.897" y1="127.451" x2="230.689" y2="123.659"/>
<line x1="227.35" y1="125.59" x2="231.142" y2="125.59"/><line x1="229.246" y1="123.693" x2="229.246" y2="127.486"/><line x1="227.35" y1="123.693" x2="231.142" y2="127.486"/><line x1="227.35" y1="127.486" x2="231.142" y2="123.693"/>
<line x1="227.803" y1="130.076" x2="231.595" y2="130.076"/><line x1="229.699" y1="128.18" x2="229.699" y2="131.972"/><line x1="227.803" y1="128.18" x2="231.595" y2="131.972"/><line x1="227.803" y1="131.972" x2="231.595" y2="128.18"/>
<line x1="228.255" y1="143.944" x2="232.048" y2="143.944"/><line x1="230.151" y1="142.048" x2="230.151" y2="145.84"/><line x1="228.255" y1="142.048" x2="232.048" y2="145.84"/><line x1="228.255" y1="145.84" x2="232.048" y2="142.048"/>
<line x1="228.708" y1="154.402" x2="232.5" y2="154.402"/><line x1="230.604" y1="152.506" x2="230.604" y2="156.298"/><line x1="228.708" y1="152.506" x2="232.5" y2="156.298"/><line x1="228.708" y1="156.298" x2="232.5" y2="152.506"/>
<line x1="229.161" y1="159.919" x2="232.953" y2="159.919"/><line x1="231.057" y1="158.023" x2="231.057" y2="161.815"/><line x1="229.161" y1="158.023" x2="232.953" y2="161.815"/><line x1="229.161" y1="161.815" x2="232.953" y2="158.023"/>
<line x1="229.613" y1="175.638" x2="233.406" y2="175.638"/><line x1="231.509" y1="173.742" x2="231.509" y2="177.534"/><line x1="229.613" y1="173.742" x2="233.406" y2="177.534"/><line x1="229.613" y1="177.534" x2="233.406" y2="173.742"/>
<line x1="230.066" y1="186.949" x2="233.858" y2="186.949"/><line x1="231.962" y1="185.053" x2="231.962" y2="188.845"/><line x1="230.066" y1="185.053" x2="233.858" y2="188.845"/><line x1="230.066" y1="188.845" x2="233.858" y2="185.053"/>
<line x1="230.519" y1="192.333" x2="234.311" y2="192.333"/><line x1="232.415" y1="190.437" x2="232.415" y2="194.229"/><line x1="230.519" y1="190.437" x2="234.311" y2="194.229"/><line x1="230.519" y1="194.229" x2="234.311" y2="190.437"/>
<line x1="230.971" y1="212.712" x2="234.764" y2="212.712"/><line x1="232.868" y1="210.816" x2="232.868" y2="214.608"/><line x1="230.971" y1="210.816" x2="234.764" y2="214.608"/><line x1="230.971" y1="214.608" x2="234.764" y2="210.816"/>
<line x1="231.424" y1="192.55" x2="235.216" y2="192.55"/><line x1="233.32" y1="190.654" x2="233.32" y2="194.446"/><line x1="231.424" y1="190.654" x2="235.216" y2="194.446"/><line x1="231.424" y1="194.446" x2="235.216" y2="190.654"/>
<line x1="231.877" y1="175.965" x2="235.669" y2="175.965"/><line x1="233.773" y1="174.068" x2="233.773" y2="177.861"/><line x1="231.877" y1="174.068" x2="235.669" y2="177.861"/><line x1="231.877" y1="177.861" x2="235.669" y2="174.068"/>
<line x1="232.329" y1="164.177" x2="236.122" y2="164.177"/><line x1="234.226" y1="162.281" x2="234.226" y2="166.073"/><line x1="232.329" y1="162.281" x2="236.122" y2="166.073"/><line x1="232.329" y1="166.073" x2="236.122" y2="162.281"/>
<line x1="232.782" y1="163.849" x2="236.574" y2="163.849"/><line x1="234.678" y1="161.953" x2="234.678" y2="165.745"/><line x1="232.782" y1="161.953" x2="236.574" y2="165.745"/><line x1="232.782" y1="165.745" x2="236.574" y2="161.953"/>
<line x1="233.235" y1="171.136" x2="237.027" y2="171.136"/><line x1="235.131" y1="169.24" x2="235.131" y2="173.032"/><line x1="233.235" y1="169.24" x2="237.027" y2="173.032"/><line x1="233.235" y1="173.032" x2="237.027" y2="169.24"/>
<line x1="233.688" y1="163.566" x2="237.48" y2="163.566"/><line x1="235.584" y1="161.67" x2="235.584" y2="165.462"/><line x1="233.688" y1="161.67" x2="237.48" y2="165.462"/><line x1="233.688" y1="165.462" x2="237.48" y2="161.67"/>
<line x1="234.14" y1="146.072" x2="237.932" y2="146.072"/><line x1="236.036" y1="144.176" x2="236.036" y2="147.968"/><line x1="234.14" y1="144.176" x2="237.932" y2="147.968"/><line x1="234.14" y1="147.968" x2="237.932" y2="144.176"/>
<line x1="234.593" y1="145.925" x2="238.385" y2="145.925"/><line x1="236.489" y1="144.029" x2="236.489" y2="147.821"/><line x1="234.593" y1="144.029" x2="238.385" y2="147.821"/><line x1="234.593" y1="147.821" x2="238.385" y2="144.029"/>
<line x1="235.046" y1="166.371" x2="238.838" y2="166.371"/><line x1="236.942" y1="164.475" x2="236.942" y2="168.267"/><line x1="235.046" y1="164.475" x2="238.838" y2="168.267"/><line x1="235.046" y1="168.267" x2="238.838" y2="164.475"/>
<line x1="235.498" y1="172.759" x2="239.29" y2="172.759"/><line x1="237.394" y1="170.863" x2="237.394" y2="174.655"/><line x1="235.498" y1="170.863" x2="239.29" y2="174.655"/><line x1="235.498" y1="174.655" x2="239.29" y2="170.863"/>
<line x1="235.951" y1="197.256" x2="239.743" y2="197.256"/><line x1="237.847" y1="195.36" x2="237.847" y2="199.152"/><line x1="235.951" y1="195.36" x2="239.743" y2="199.152"/><line x1="235.951" y1="199.152" x2="239.743" y2="195.36"/>
<line x1="236.404" y1="193.115" x2="240.196" y2="193.115"/><line x1="238.3" y1="191.219" x2="238.3" y2="195.011"/><line x1="236.404" y1="191.219" x2="240.196" y2="195.011"/><line x1="236.404" y1="195.011" x2="240.196" y2="191.219"/>
<line x1="236.856" y1="206.765" x2="240.648" y2="206.765"/><line x1="238.752" y1="204.869" x2="238.752" y2="208.661"/><line x1="236.856" y1="204.869" x2="240.648" y2="208.661"/><line x1="236.856" y1="208.661" x2="240.648" y2="204.869"/>
<line x1="237.309" y1="206.348" x2="241.101" y2="206.348"/><line x1="239.205" y1="204.452" x2="239.205" y2="208.244"/><line x1="237.309" y1="204.452" x2="241.101" y2="208.244"/><line x1="237.309" y1="208.244" x2="241.101" y2="204.452"/>
<line x1="237.762" y1="201.493" x2="241.554" y2="201.493"/><line x1="239.658" y1="199.597" x2="239.658" y2="203.389"/><line x1="237.762" y1="199.597" x2="241.554" y2="203.389"/><line x1="237.762" y1="203.389" x2="241.554" y2="199.597"/>
<line x1="238.214" y1="192.131" x2="242.007" y2="192.131"/><line x1="240.11" y1="190.235" x2="240.11" y2="194.027"/><line x1="238.214" y1="190.235" x2="242.007" y2="194.027"/><line x1="238.214" y1="194.027" x2="242.007" y2="190.235"/>
<line x1="238.667" y1="191.965" x2="242.459" y2="191.965"/><line x1="240.563" y1="190.069" x2="240.563" y2="193.861"/><line x1="238.667" y1="190.069" x2="242.459" y2="193.861"/><line x1="238.667" y1="193.861" x2="242.459" y2="190.069"/>
<line x1="239.12" y1="193.623" x2="242.912" y2="193.623"/><line x1="241.016" y1="191.727" x2="241.016" y2="195.519"/><line x1="239.12" y1="191.727" x2="242.912" y2="195.519"/><line x1="239.12" y1="195.519" x2="242.912" y2="191.727"/>
<line x1="239.572" y1="191.18" x2="243.365" y2="191.18"/><line x1="241.469" y1="189.284" x2="241.469" y2="193.076"/><line x1="239.572" y1="189.284" x2="243.365" y2="193.076"/><line x1="239.572" y1="193.076" x2="243.365" y2="189.284"/>
<line x1="240.025" y1="174.885" x2="243.817" y2="174.885"/><line x1="241.921" y1="172.989" x2="241.921" y2="176.781"/><line x1="240.025" y1="172.989" x2="243.817" y2="176.781"/><line x1="240.025" y1="176.781" x2="243.817" y2="172.989"/>
<line x1="240.478" y1="159.341" x2="244.27" y2="159.341"/><line x1="242.374" y1="157.445" x2="242.374" y2="161.237"/><line x1="240.478" y1="157.445" x2="244.27" y2="161.237"/><line x1="240.478" y1="161.237" x2="244.27" y2="157.445"/>
<line x1="240.93" y1="156.572" x2="244.723" y2="156.572"/><line x1="242.827" y1="154.676" x2="242.827" y2="158.468"/><line x1="240.93" y1="154.676" x2="244.723" y2="158.468"/><line x1="240.93" y1="158.468" x2="244.723" y2="154.676"/>
<line x1="241.383" y1="159.706" x2="245.175" y2="159.706"/><line x1="243.279" y1="157.81" x2="243.279" y2="161.602"/><line x1="241.383" y1="157.81" x2="245.175" y2="161.602"/><line x1="241.383" y1="161.602" x2="245.175" y2="157.81"/>
<line x1="241.836" y1="165.339" x2="245.628" y2="165.339"/><line x1="243.732" y1="163.443" x2="243.732" y2="167.235"/><line x1="241.836" y1="163.443" x2="245.628" y2="167.235"/><line x1="241.836" y1="167.235" x2="245.628" y2="163.443"/>
<line x1="242.289" y1="152.962" x2="246.081" y2="152.962"/><line x1="244.185" y1="151.066" x2="244.185" y2="154.858"/><line x1="242.289" y1="151.066" x2="246.081" y2="154.858"/><line x1="242.289" y1="154.858" x2="246.081" y2="151.066"/>
<line x1="242.741" y1="159.341" x2="246.533" y2="159.341"/><line x1="244.637" y1="157.445" x2="244.637" y2="161.237"/><line x1="242.741" y1="157.445" x2="246.533" y2="161.237"/><line x1="242.741" y1="161.237" x2="246.533" y2="157.445"/>
<line x1="243.194" y1="126.579" x2="246.986" y2="126.579"/><line x1="245.09" y1="124.683" x2="245.09" y2="128.475"/><line x1="243.194" y1="124.683" x2="246.986" y2="128.475"/><line x1="243.194" y1="128.475" x2="246.986" y2="124.683"/>
<line x1="243.647" y1="100.209" x2="247.439" y2="100.209"/><line x1="245.543" y1="98.3126" x2="245.543" y2="102.105"/><line x1="243.647" y1="98.3126" x2="247.439" y2="102.105"/><line x1="243.647" y1="102.105" x2="247.439" y2="98.3126"/>
<line x1="244.099" y1="105.208" x2="247.891" y2="105.208"/><line x1="245.995" y1="103.312" x2="245.995" y2="107.104"/><line x1="244.099" y1="103.312" x2="247.891" y2="107.104"/><line x1="244.099" y1="107.104" x2="247.891" y2="103.312"/>
<line x1="244.552" y1="120.829" x2="248.344" y2="120.829"/><line x1="246.448" y1="118.933" x2="246.448" y2="122.725"/><line x1="244.552" y1="118.933" x2="248.344" y2="122.725"/><line x1="244.552" y1="122.725" x2="248.344" y2="118.933"/>
<line x1="245.005" y1="129.029" x2="248.797" y2="129.029"/><line x1="246.901" y1="127.133" x2="246.901" y2="130.925"/><line x1="245.005" y1="127.133" x2="248.797" y2="130.925"/><line x1="245.005" y1="130.925" x2="248.797" y2="127.133"/>
<line x1="245.457" y1="118.386" x2="249.249" y2="118.386"/><line x1="247.353" y1="116.49" x2="247.353" y2="120.282"/><line x1="245.457" y1="116.49" x2="249.249" y2="120.282"/><line x1="245.457" y1="120.282" x2="249.249" y2="116.49"/>
<line x1="245.91" y1="120.228" x2="249.702" y2="120.228"/><line x1="247.806" y1="118.332" x2="247.806" y2="122.124"/><line x1="245.91" y1="118.332" x2="249.702" y2="122.124"/><line x1="245.91" y1="122.124" x2="249.702" y2="118.332"/>
<line x1="246.363" y1="124.163" x2="250.155" y2="124.163"/><line x1="248.259" y1="122.267" x2="248.259" y2="126.059"/><line x1="246.363" y1="122.267" x2="250.155" y2="126.059"/><line x1="246.363" y1="126.059" x2="250.155" y2="122.267"/>
<line x1="246.815" y1="112.185" x2="250.608" y2="112.185"/><line x1="248.711" y1="110.289" x2="248.711" y2="114.081"/><line x1="246.815" y1="110.289" x2="250.608" y2="114.081"/><line x1="246.815" y1="114.081" x2="250.608" y2="110.289"/>
<line x1="247.268" y1="116.641" x2="251.06" y2="116.641"/><line x1="249.164" y1="114.745" x2="249.164" y2="118.537"/><line x1="247.268" y1="114.745" x2="251.06" y2="118.537"/><line x1="247.268" y1="118.537" x2="251.06" y2="114.745"/>
<line x1="247.721" y1="115.425" x2="251.513" y2="115.425"/><line x1="249.617" y1="113.529" x2="249.617" y2="117.321"/><line x1="247.721" y1="113.529" x2="251.513" y2="117.321"/><line x1="247.721" y1="117.321" x2="251.513" y2="113.529"/>
<line x1="248.173" y1="117.258" x2="251.966" y2="117.258"/><line x1="250.07" y1="115.362" x2="250.07" y2="119.154"/><line x1="248.173" y1="115.362" x2="251.966" y2="119.154"/><line x1="248.173" y1="119.154" x2="251.966" y2="115.362"/>
<line x1="248.626" y1="134.849" x2="252.418" y2="134.849"/><line x1="250.522" y1="132.953" x2="250.522" y2="136.745"/><line x1="248.626" y1="132.953" x2="252.418" y2="136.745"/><line x1="248.626" y1="136.745" x2="252.418" y2="132.953"/>
<line x1="249.079" y1="153.178" x2="252.871" y2="153.178"/><line x1="250.975" y1="151.282" x2="250.975" y2="155.074"/><line x1="249.079" y1="151.282" x2="252.871" y2="155.074"/><line x1="249.079" y1="155.074" x2="252.871" y2="151.282"/>
<line x1="249.531" y1="149.186" x2="253.324" y2="149.186"/><line x1="251.428" y1="147.29" x2="251.428" y2="151.082"/><line x1="249.531" y1="147.29" x2="253.324" y2="151.082"/><line x1="249.531" y1="151.082" x2="253.324" y2="147.29"/>
<line x1="249.984" y1="150.177" x2="253.776" y2="150.177"/><line x1="251.88" y1="148.281" x2="251.88" y2="152.073"/><line x1="249.984" y1="148.281" x2="253.776" y2="152.073"/><line x1="249.984" y1="152.073" x2="253.776" y2="148.281"/>
<line x1="250.437" y1="172.703" x2="254.229" y2="172.703"/><line x1="252.333" y1="170.807" x2="252.333" y2="174.599"/><line x1="250.437" y1="170.807" x2="254.229" y2="174.599"/><line x1="250.437" y1="174.599" x2="254.229" y2="170.807"/>
<line x1="250.89" y1="174.545" x2="254.682" y2="174.545"/><line x1="252.786" y1="172.649" x2="252.786" y2="176.441"/><line x1="250.89" y1="172.649" x2="254.682" y2="176.441"/><line x1="250.89" y1="176.441" x2="254.682" y2="172.649"/>
<line x1="251.342" y1="169.572" x2="255.134" y2="169.572"/><line x1="253.238" y1="167.676" x2="253.238" y2="171.468"/><line x1="251.342" y1="167.676" x2="255.134" y2="171.468"/><line x1="251.342" y1="171.468" x2="255.134" y2="167.676"/>
<line x1="251.795" y1="182.677" x2="255.587" y2="182.677"/><line x1="253.691" y1="180.781" x2="253.691" y2="184.574"/><line x1="251.795" y1="180.781" x2="255.587" y2="184.574"/><line x1="251.795" y1="184.574" x2="255.587" y2="180.781"/>
<line x1="252.248" y1="193.894" x2="256.04" y2="193.894"/><line x1="254.144" y1="191.998" x2="254.144" y2="195.79"/><line x1="252.248" y1="191.998" x2="256.04" y2="195.79"/><line x1="252.248" y1="195.79" x2="256.04" y2="191.998"/>
<line x1="252.7" y1="210.914" x2="256.492" y2="210.914"/><line x1="254.596" y1="209.018" x2="254.596" y2="212.81"/><line x1="252.7" y1="209.018" x2="256.492" y2="212.81"/><line x1="252.7" y1="212.81" x2="256.492" y2="209.018"/>
<line x1="253.153" y1="206.134" x2="256.945" y2="206.134"/><line x1="255.049" y1="204.238" x2="255.049" y2="208.03"/><line x1="253.153" y1="204.238" x2="256.945" y2="208.03"/><line x1="253.153" y1="208.03" x2="256.945" y2="204.238"/>
<line x1="253.606" y1="215.533" x2="257.398" y2="215.533"/><line x1="255.502" y1="213.637" x2="255.502" y2="217.43"/><line x1="253.606" y1="213.637" x2="257.398" y2="217.43"/><line x1="253.606" y1="217.43" x2="257.398" y2="213.637"/>
<line x1="254.058" y1="211.735" x2="257.85" y2="211.735"/><line x1="255.954" y1="209.839" x2="255.954" y2="213.631"/><line x1="254.058" y1="209.839" x2="257.85" y2="213.631"/><line x1="254.058" y1="213.631" x2="257.85" y2="209.839"/>
<line x1="254.511" y1="219.183" x2="258.303" y2="219.183"/><line x1="256.407" y1="217.286" x2="256.407" y2="221.079"/><line x1="254.511" y1="217.286" x2="258.303" y2="221.079"/><line x1="254.511" y1="221.079" x2="258.303" y2="217.286"/>
<line x1="254.964" y1="237.802" x2="258.756" y2="237.802"/><line x1="256.86" y1="235.906" x2="256.86" y2="239.698"/><line x1="254.964" y1="235.906" x2="258.756" y2="239.698"/><line x1="254.964" y1="239.698" x2="258.756" y2="235.906"/>
<line x1="255.416" y1="232.033" x2="259.209" y2="232.033"/><line x1="257.312" y1="230.137" x2="257.312" y2="233.929"/><line x1="255.416" y1="230.137" x2="259.209" y2="233.929"/><line x1="255.416" y1="233.929" x2="259.209" y2="230.137"/>
<line x1="255.869" y1="242.355" x2="259.661" y2="242.355"/><line x1="257.765" y1="240.459" x2="257.765" y2="244.251"/><line x1="255.869" y1="240.459" x2="259.661" y2="244.251"/><line x1="255.869" y1="244.251" x2="259.661" y2="240.459"/>
<line x1="256.322" y1="241.282" x2="260.114" y2="241.282"/><line x1="258.218" y1="239.386" x2="258.218" y2="243.178"/><line x1="256.322" y1="239.386" x2="260.114" y2="243.178"/><line x1="256.322" y1="243.178" x2="260.114" y2="239.386"/>
<line x1="256.774" y1="243.547" x2="260.567" y2="243.547"/><line x1="258.67" y1="241.651" x2="258.67" y2="245.443"/><line x1="256.774" y1="241.651" x2="260.567" y2="245.443"/><line x1="256.774" y1="245.443" x2="260.567" y2="241.651"/>
<line x1="257.227" y1="228.843" x2="261.019" y2="228.843"/><line x1="259.123" y1="226.947" x2="259.123" y2="230.739"/><line x1="257.227" y1="226.947" x2="261.019" y2="230.739"/><line x1="257.227" y1="230.739" x2="261.019" y2="226.947"/>
<line x1="257.68" y1="246.286" x2="261.472" y2="246.286"/><line x1="259.576" y1="244.39" x2="259.576" y2="248.182"/><line x1="257.68" y1="244.39" x2="261.472" y2="248.182"/><line x1="257.68" y1="248.182" x2="261.472" y2="244.39"/>
<line x1="258.132" y1="252.703" x2="261.925" y2="252.703"/><line x1="260.029" y1="250.807" x2="260.029" y2="254.599"/><line x1="258.132" y1="250.807" x2="261.925" y2="254.599"/><line x1="258.132" y1="254.599" x2="261.925" y2="250.807"/>
<line x1="258.585" y1="260.578" x2="262.377" y2="260.578"/><line x1="260.481" y1="258.682" x2="260.481" y2="262.474"/><line x1="258.585" y1="258.682" x2="262.377" y2="262.474"/><line x1="258.585" y1="262.474" x2="262.377" y2="258.682"/>
<line x1="259.038" y1="265.434" x2="262.83" y2="265.434"/><line x1="260.934" y1="263.538" x2="260.934" y2="267.33"/><line x1="259.038" y1="263.538" x2="262.83" y2="267.33"/><line x1="259.038" y1="267.33" x2="262.83" y2="263.538"/>
<line x1="259.491" y1="252.109" x2="263.283" y2="252.109"/><line x1="261.387" y1="250.212" x2="261.387" y2="254.005"/><line x1="259.491" y1="250.212" x2="263.283" y2="254.005"/><line x1="259.491" y1="254.005" x2="263.283" y2="250.212"/>
<line x1="259.943" y1="273.327" x2="263.735" y2="273.327"/><line x1="261.839" y1="271.431" x2="261.839" y2="275.223"/><line x1="259.943" y1="271.431" x2="263.735" y2="275.223"/><line x1="259.943" y1="275.223" x2="263.735" y2="271.431"/>
<line x1="260.396" y1="269.845" x2="264.188" y2="269.845"/><line x1="262.292" y1="267.949" x2="262.292" y2="271.741"/><line x1="260.396" y1="267.949" x2="264.188" y2="271.741"/><line x1="260.396" y1="271.741" x2="264.188" y2="267.949"/>
<line x1="260.849" y1="261.635" x2="264.641" y2="261.635"/><line x1="262.745" y1="259.739" x2="262.745" y2="263.531"/><line x1="260.849" y1="259.739" x2="264.641" y2="263.531"/><line x1="260.849" y1="263.531" x2="264.641" y2="259.739"/>
<line x1="261.301" y1="261.144" x2="265.093" y2="261.144"/><line x1="263.197" y1="259.248" x2="263.197" y2="263.04"/><line x1="261.301" y1="259.248" x2="265.093" y2="263.04"/><line x1="261.301" y1="263.04" x2="265.093" y2="259.248"/>
<line x1="261.754" y1="264.056" x2="265.546" y2="264.056"/><line x1="263.65" y1="262.16" x2="263.65" y2="265.952"/><line x1="261.754" y1="262.16" x2="265.546" y2="265.952"/><line x1="261.754" y1="265.952" x2="265.546" y2="262.16"/>
<line x1="262.207" y1="266.372" x2="265.999" y2="266.372"/><line x1="264.103" y1="264.476" x2="264.103" y2="268.268"/><line x1="262.207" y1="264.476" x2="265.999" y2="268.268"/><line x1="262.207" y1="268.268" x2="265.999" y2="264.476"/>
<line x1="262.659" y1="280.314" x2="266.451" y2="280.314"/><line x1="264.555" y1="278.418" x2="264.555" y2="282.21"/><line x1="262.659" y1="278.418" x2="266.451" y2="282.21"/><line x1="262.659" y1="282.21" x2="266.451" y2="278.418"/>
<line x1="263.112" y1="288.806" x2="266.904" y2="288.806"/><line x1="265.008" y1="286.91" x2="265.008" y2="290.702"/><line x1="263.112" y1="286.91" x2="266.904" y2="290.702"/><line x1="263.112" y1="290.702" x2="266.904" y2="286.91"/>
<line x1="263.565" y1="270.459" x2="267.357" y2="270.459"/><line x1="265.461" y1="268.562" x2="265.461" y2="272.355"/><line x1="263.565" y1="268.562" x2="267.357" y2="272.355"/><line x1="263.565" y1="272.355" x2="267.357" y2="268.562"/>
<line x1="264.017" y1="281.572" x2="267.81" y2="281.572"/><line x1="265.913" y1="279.676" x2="265.913" y2="283.468"/><line x1="264.017" y1="279.676" x2="267.81" y2="283.468"/><line x1="264.017" y1="283.468" x2="267.81" y2="279.676"/>
<line x1="264.47" y1="267.04" x2="268.262" y2="267.04"/><line x1="266.366" y1="265.144" x2="266.366" y2="268.936"/><line x1="264.47" y1="265.144" x2="268.262" y2="268.936"/><line x1="264.47" y1="268.936" x2="268.262" y2="265.144"/>
<line x1="264.923" y1="269.809" x2="268.715" y2="269.809"/><line x1="266.819" y1="267.913" x2="266.819" y2="271.705"/><line x1="264.923" y1="267.913" x2="268.715" y2="271.705"/><line x1="264.923" y1="271.705" x2="268.715" y2="267.913"/>
<line x1="265.375" y1="276.757" x2="269.168" y2="276.757"/><line x1="267.271" y1="274.861" x2="267.271" y2="278.653"/><line x1="265.375" y1="274.861" x2="269.168" y2="278.653"/><line x1="265.375" y1="278.653" x2="269.168" y2="274.861"/>
<line x1="265.828" y1="284.897" x2="269.62" y2="284.897"/><line x1="267.724" y1="283.001" x2="267.724" y2="286.794"/><line x1="265.828" y1="283.001" x2="269.62" y2="286.794"/><line x1="265.828" y1="286.794" x2="269.62" y2="283.001"/>
<line x1="266.281" y1="290.673" x2="270.073" y2="290.673"/><line x1="268.177" y1="288.776" x2="268.177" y2="292.569"/><line x1="266.281" y1="288.776" x2="270.073" y2="292.569"/><line x1="266.281" y1="292.569" x2="270.073" y2="288.776"/>
<line x1="266.733" y1="318.65" x2="270.526" y2="318.65"/><line x1="268.63" y1="316.754" x2="268.63" y2="320.546"/><line x1="266.733" y1="316.754" x2="270.526" y2="320.546"/><line x1="266.733" y1="320.546" x2="270.526" y2="316.754"/>
<line x1="267.186" y1="311.584" x2="270.978" y2="311.584"/><line x1="269.082" y1="309.688" x2="269.082" y2="313.48"/><line x1="267.186" y1="309.688" x2="270.978" y2="313.48"/><line x1="267.186" y1="313.48" x2="270.978" y2="309.688"/>
<line x1="267.639" y1="316.728" x2="271.431" y2="316.728"/><line x1="269.535" y1="314.832" x2="269.535" y2="318.625"/><line x1="267.639" y1="314.832" x2="271.431" y2="318.625"/><line x1="267.639" y1="318.625" x2="271.431" y2="314.832"/>
<line x1="268.091" y1="322.824" x2="271.884" y2="322.824"/><line x1="269.988" y1="320.928" x2="269.988" y2="324.72"/><line x1="268.091" y1="320.928" x2="271.884" y2="324.72"/><line x1="268.091" y1="324.72" x2="271.884" y2="320.928"/>
<line x1="268.544" y1="329.524" x2="272.336" y2="329.524"/><line x1="270.44" y1="327.628" x2="270.44" y2="331.42"/><line x1="268.544" y1="327.628" x2="272.336" y2="331.42"/><line x1="268.544" y1="331.42" x2="272.336" y2="327.628"/>
<line x1="268.997" y1="330.716" x2="272.789" y2="330.716"/><line x1="270.893" y1="328.82" x2="270.893" y2="332.612"/><line x1="268.997" y1="328.82" x2="272.789" y2="332.612"/><line x1="268.997" y1="332.612" x2="272.789" y2="328.82"/>
<line x1="269.45" y1="326.119" x2="273.242" y2="326.119"/><line x1="271.346" y1="324.223" x2="271.346" y2="328.015"/><line x1="269.45" y1="324.223" x2="273.242" y2="328.015"/><line x1="269.45" y1="328.015" x2="273.242" y2="324.223"/>
<line x1="269.902" y1="326.582" x2="273.694" y2="326.582"/><line x1="271.798" y1="324.686" x2="271.798" y2="328.478"/><line x1="269.902" y1="324.686" x2="273.694" y2="328.478"/><line x1="269.902" y1="328.478" x2="273.694" y2="324.686"/>
<line x1="270.355" y1="329.914" x2="274.147" y2="329.914"/><line x1="272.251" y1="328.018" x2="272.251" y2="331.81"/><line x1="270.355" y1="328.018" x2="274.147" y2="331.81"/><line x1="270.355" y1="331.81" x2="274.147" y2="328.018"/>
<line x1="270.808" y1="325.55" x2="274.6" y2="325.55"/><line x1="272.704" y1="323.654" x2="272.704" y2="327.446"/><line x1="270.808" y1="323.654" x2="274.6" y2="327.446"/><line x1="270.808" y1="327.446" x2="274.6" y2="323.654"/>
<line x1="271.26" y1="329.933" x2="275.052" y2="329.933"/><line x1="273.156" y1="328.037" x2="273.156" y2="331.829"/><line x1="271.26" y1="328.037" x2="275.052" y2="331.829"/><line x1="271.26" y1="331.829" x2="275.052" y2="328.037"/>
<line x1="271.713" y1="323.76" x2="275.505" y2="323.76"/><line x1="273.609" y1="321.864" x2="273.609" y2="325.656"/><line x1="271.713" y1="321.864" x2="275.505" y2="325.656"/><line x1="271.713" y1="325.656" x2="275.505" y2="321.864"/>
<line x1="272.166" y1="318.231" x2="275.958" y2="318.231"/><line x1="274.062" y1="316.335" x2="274.062" y2="320.127"/><line x1="272.166" y1="316.335" x2="275.958" y2="320.127"/><line x1="272.166" y1="320.127" x2="275.958" y2="316.335"/>
<line x1="272.618" y1="321.738" x2="276.41" y2="321.738"/><line x1="274.514" y1="319.842" x2="274.514" y2="323.634"/><line x1="272.618" y1="319.842" x2="276.41" y2="323.634"/><line x1="272.618" y1="323.634" x2="276.41" y2="319.842"/>
<line x1="273.071" y1="323.969" x2="276.863" y2="323.969"/><line x1="274.967" y1="322.073" x2="274.967" y2="325.865"/><line x1="273.071" y1="322.073" x2="276.863" y2="325.865"/><line x1="273.071" y1="325.865" x2="276.863" y2="322.073"/>
<line x1="273.524" y1="313.983" x2="277.316" y2="313.983"/><line x1="275.42" y1="312.087" x2="275.42" y2="315.879"/><line x1="273.524" y1="312.087" x2="277.316" y2="315.879"/><line x1="273.524" y1="315.879" x2="277.316" y2="312.087"/>
<line x1="273.976" y1="308.013" x2="277.769" y2="308.013"/><line x1="275.872" y1="306.117" x2="275.872" y2="309.909"/><line x1="273.976" y1="306.117" x2="277.769" y2="309.909"/><line x1="273.976" y1="309.909" x2="277.769" y2="306.117"/>
<line x1="274.429" y1="305.532" x2="278.221" y2="305.532"/><line x1="276.325" y1="303.636" x2="276.325" y2="307.428"/><line x1="274.429" y1="303.636" x2="278.221" y2="307.428"/><line x1="274.429" y1="307.428" x2="278.221" y2="303.636"/>
<line x1="274.882" y1="294.717" x2="278.674" y2="294.717"/><line x1="276.778" y1="292.82" x2="276.778" y2="296.613"/><line x1="274.882" y1="292.82" x2="278.674" y2="296.613"/><line x1="274.882" y1="296.613" x2="278.674" y2="292.82"/>
<line x1="275.334" y1="304.301" x2="279.127" y2="304.301"/><line x1="277.23" y1="302.405" x2="277.23" y2="306.197"/><line x1="275.334" y1="302.405" x2="279.127" y2="306.197"/><line x1="275.334" y1="306.197" x2="279.127" y2="302.405"/>
<line x1="275.787" y1="307.342" x2="279.579" y2="307.342"/><line x1="277.683" y1="305.446" x2="277.683" y2="309.238"/><line x1="275.787" y1="305.446" x2="279.579" y2="309.238"/><line x1="275.787" y1="309.238" x2="279.579" y2="305.446"/>
<line x1="276.24" y1="303.915" x2="280.032" y2="303.915"/><line x1="278.136" y1="302.019" x2="278.136" y2="305.811"/><line x1="276.24" y1="302.019" x2="280.032" y2="305.811"/><line x1="276.24" y1="305.811" x2="280.032" y2="302.019"/>
<line x1="276.692" y1="298.892" x2="280.485" y2="298.892"/><line x1="278.589" y1="296.995" x2="278.589" y2="300.788"/><line x1="276.692" y1="296.995" x2="280.485" y2="300.788"/><line x1="276.692" y1="300.788" x2="280.485" y2="296.995"/>
<line x1="277.145" y1="299.103" x2="280.937" y2="299.103"/><line x1="279.041" y1="297.206" x2="279.041" y2="300.999"/><line x1="277.145" y1="297.206" x2="280.937" y2="300.999"/><line x1="277.145" y1="300.999" x2="280.937" y2="297.206"/>
<line x1="277.598" y1="316.839" x2="281.39" y2="316.839"/><line x1="279.494" y1="314.943" x2="279.494" y2="318.735"/><line x1="277.598" y1="314.943" x2="281.39" y2="318.735"/><line x1="277.598" y1="318.735" x2="281.39" y2="314.943"/>
<line x1="278.051" y1="306.568" x2="281.843" y2="306.568"/><line x1="279.947" y1="304.672" x2="279.947" y2="308.464"/><line x1="278.051" y1="304.672" x2="281.843" y2="308.464"/><line x1="278.051" y1="308.464" x2="281.843" y2="304.672"/>
<line x1="278.503" y1="306.97" x2="282.295" y2="306.97"/><line x1="280.399" y1="305.074" x2="280.399" y2="308.866"/><line x1="278.503" y1="305.074" x2="282.295" y2="308.866"/><line x1="278.503" y1="308.866" x2="282.295" y2="305.074"/>
<line x1="278.956" y1="316.959" x2="282.748" y2="316.959"/><line x1="280.852" y1="315.063" x2="280.852" y2="318.855"/><line x1="278.956" y1="315.063" x2="282.748" y2="318.855"/><line x1="278.956" y1="318.855" x2="282.748" y2="315.063"/>
<line x1="279.409" y1="335.885" x2="283.201" y2="335.885"/><line x1="281.305" y1="333.988" x2="281.305" y2="337.781"/><line x1="279.409" y1="333.988" x2="283.201" y2="337.781"/><line x1="279.409" y1="337.781" x2="283.201" y2="333.988"/>
<line x1="279.861" y1="331.522" x2="283.653" y2="331.522"/><line x1="281.757" y1="329.625" x2="281.757" y2="333.418"/><line x1="279.861" y1="329.625" x2="283.653" y2="333.418"/><line x1="279.861" y1="333.418" x2="283.653" y2="329.625"/>
<line x1="280.314" y1="307.256" x2="284.106" y2="307.256"/><line x1="282.21" y1="305.36" x2="282.21" y2="309.152"/><line x1="280.314" y1="305.36" x2="284.106" y2="309.152"/><line x1="280.314" y1="309.152" x2="284.106" y2="305.36"/>
<line x1="280.767" y1="324.092" x2="284.559" y2="324.092"/><line x1="282.663" y1="322.196" x2="282.663" y2="325.988"/><line x1="280.767" y1="322.196" x2="284.559" y2="325.988"/><line x1="280.767" y1="325.988" x2="284.559" y2="322.196"/>
<line x1="281.219" y1="342.824" x2="285.011" y2="342.824"/><line x1="283.115" y1="340.928" x2="283.115" y2="344.72"/><line x1="281.219" y1="340.928" x2="285.011" y2="344.72"/><line x1="281.219" y1="344.72" x2="285.011" y2="340.928"/>
<line x1="281.672" y1="343.849" x2="285.464" y2="343.849"/><line x1="283.568" y1="341.953" x2="283.568" y2="345.745"/><line x1="281.672" y1="341.953" x2="285.464" y2="345.745"/><line x1="281.672" y1="345.745" x2="285.464" y2="341.953"/>
<line x1="282.125" y1="356.265" x2="285.917" y2="356.265"/><line x1="284.021" y1="354.369" x2="284.021" y2="358.161"/><line x1="282.125" y1="354.369" x2="285.917" y2="358.161"/><line x1="282.125" y1="358.161" x2="285.917" y2="354.369"/>
<line x1="282.577" y1="341.001" x2="286.37" y2="341.001"/><line x1="284.473" y1="339.105" x2="284.473" y2="342.897"/><line x1="282.577" y1="339.105" x2="286.37" y2="342.897"/><line x1="282.577" y1="342.897" x2="286.37" y2="339.105"/>
<line x1="283.03" y1="333.326" x2="286.822" y2="333.326"/><line x1="284.926" y1="331.43" x2="284.926" y2="335.222"/><line x1="283.03" y1="331.43" x2="286.822" y2="335.222"/><line x1="283.03" y1="335.222" x2="286.822" y2="331.43"/>
<line x1="283.483" y1="295.823" x2="287.275" y2="295.823"/><line x1="285.379" y1="293.927" x2="285.379" y2="297.719"/><line x1="283.483" y1="293.927" x2="287.275" y2="297.719"/><line x1="283.483" y1="297.719" x2="287.275" y2="293.927"/>
<line x1="283.935" y1="308.425" x2="287.728" y2="308.425"/><line x1="285.831" y1="306.529" x2="285.831" y2="310.321"/><line x1="283.935" y1="306.529" x2="287.728" y2="310.321"/><line x1="283.935" y1="310.321" x2="287.728" y2="306.529"/>
<line x1="284.388" y1="299.322" x2="288.18" y2="299.322"/><line x1="286.284" y1="297.426" x2="286.284" y2="301.218"/><line x1="284.388" y1="297.426" x2="288.18" y2="301.218"/><line x1="284.388" y1="301.218" x2="288.18" y2="297.426"/>
<line x1="284.841" y1="280.612" x2="288.633" y2="280.612"/><line x1="286.737" y1="278.716" x2="286.737" y2="282.508"/><line x1="284.841" y1="278.716" x2="288.633" y2="282.508"/><line x1="284.841" y1="282.508" x2="288.633" y2="278.716"/>
<line x1="285.293" y1="285.996" x2="289.086" y2="285.996"/><line x1="287.19" y1="284.1" x2="287.19" y2="287.892"/><line x1="285.293" y1="284.1" x2="289.086" y2="287.892"/><line x1="285.293" y1="287.892" x2="289.086" y2="284.1"/>
<line x1="285.746" y1="265.556" x2="289.538" y2="265.556"/><line x1="287.642" y1="263.66" x2="287.642" y2="267.453"/><line x1="285.746" y1="263.66" x2="289.538" y2="267.453"/><line x1="285.746" y1="267.453" x2="289.538" y2="263.66"/>
<line x1="286.199" y1="257.471" x2="289.991" y2="257.471"/><line x1="288.095" y1="255.575" x2="288.095" y2="259.368"/><line x1="286.199" y1="255.575" x2="289.991" y2="259.368"/><line x1="286.199" y1="259.368" x2="289.991" y2="255.575"/>
<line x1="286.651" y1="264.725" x2="290.444" y2="264.725"/><line x1="288.548" y1="262.829" x2="288.548" y2="266.621"/><line x1="286.651" y1="262.829" x2="290.444" y2="266.621"/><line x1="286.651" y1="266.621" x2="290.444" y2="262.829"/>
<line x1="287.104" y1="265.65" x2="290.896" y2="265.65"/><line x1="289" y1="263.754" x2="289" y2="267.546"/><line x1="287.104" y1="263.754" x2="290.896" y2="267.546"/><line x1="287.104" y1="267.546" x2="290.896" y2="263.754"/>
<line x1="287.557" y1="257.812" x2="291.349" y2="257.812"/><line x1="289.453" y1="255.916" x2="289.453" y2="259.708"/><line x1="287.557" y1="255.916" x2="291.349" y2="259.708"/><line x1="287.557" y1="259.708" x2="291.349" y2="255.916"/>
<line x1="288.01" y1="265.138" x2="291.802" y2="265.138"/><line x1="289.906" y1="263.242" x2="289.906" y2="267.034"/><line x1="288.01" y1="263.242" x2="291.802" y2="267.034"/><line x1="288.01" y1="267.034" x2="291.802" y2="263.242"/>
<line x1="288.462" y1="272.167" x2="292.254" y2="272.167"/><line x1="290.358" y1="270.271" x2="290.358" y2="274.063"/><line x1="288.462" y1="270.271" x2="292.254" y2="274.063"/><line x1="288.462" y1="274.063" x2="292.254" y2="270.271"/>
<line x1="288.915" y1="280.869" x2="292.707" y2="280.869"/><line x1="290.811" y1="278.973" x2="290.811" y2="282.765"/><line x1="288.915" y1="278.973" x2="292.707" y2="282.765"/><line x1="288.915" y1="282.765" x2="292.707" y2="278.973"/>
<line x1="289.368" y1="278.485" x2="293.16" y2="278.485"/><line x1="291.264" y1="276.589" x2="291.264" y2="280.381"/><line x1="289.368" y1="276.589" x2="293.16" y2="280.381"/><line x1="289.368" y1="280.381" x2="293.16" y2="276.589"/>
<line x1="289.82" y1="264.835" x2="293.612" y2="264.835"/><line x1="291.716" y1="262.939" x2="291.716" y2="266.732"/><line x1="289.82" y1="262.939" x2="293.612" y2="266.732"/><line x1="289.82" y1="266.732" x2="293.612" y2="262.939"/>
<line x1="290.273" y1="271.246" x2="294.065" y2="271.246"/><line x1="292.169" y1="269.35" x2="292.169" y2="273.142"/><line x1="290.273" y1="269.35" x2="294.065" y2="273.142"/><line x1="290.273" y1="273.142" x2="294.065" y2="269.35"/>
<line x1="290.726" y1="260.039" x2="294.518" y2="260.039"/><line x1="292.622" y1="258.143" x2="292.622" y2="261.935"/><line x1="290.726" y1="258.143" x2="294.518" y2="261.935"/><line x1="290.726" y1="261.935" x2="294.518" y2="258.143"/>
<line x1="291.178" y1="263.658" x2="294.97" y2="263.658"/><line x1="293.074" y1="261.761" x2="293.074" y2="265.554"/><line x1="291.178" y1="261.761" x2="294.97" y2="265.554"/><line x1="291.178" y1="265.554" x2="294.97" y2="261.761"/>
<line x1="291.631" y1="259.899" x2="295.423" y2="259.899"/><line x1="293.527" y1="258.003" x2="293.527" y2="261.795"/><line x1="291.631" y1="258.003" x2="295.423" y2="261.795"/><line x1="291.631" y1="261.795" x2="295.423" y2="258.003"/>
<line x1="292.084" y1="258.268" x2="295.876" y2="258.268"/><line x1="293.98" y1="256.372" x2="293.98" y2="260.164"/><line x1="292.084" y1="256.372" x2="295.876" y2="260.164"/><line x1="292.084" y1="260.164" x2="295.876" y2="256.372"/>
<line x1="292.536" y1="255.912" x2="296.329" y2="255.912"/><line x1="294.432" y1="254.016" x2="294.432" y2="257.808"/><line x1="292.536" y1="254.016" x2="296.329" y2="257.808"/><line x1="292.536" y1="257.808" x2="296.329" y2="254.016"/>
<line x1="292.989" y1="243.141" x2="296.781" y2="243.141"/><line x1="294.885" y1="241.245" x2="294.885" y2="245.037"/><line x1="292.989" y1="241.245" x2="296.781" y2="245.037"/><line x1="292.989" y1="245.037" x2="296.781" y2="241.245"/>
<line x1="293.442" y1="248.605" x2="297.234" y2="248.605"/><line x1="295.338" y1="246.709" x2="295.338" y2="250.501"/><line x1="293.442" y1="246.709" x2="297.234" y2="250.501"/><line x1="293.442" y1="250.501" x2="297.234" y2="246.709"/>
<line x1="293.894" y1="227.775" x2="297.687" y2="227.775"/><line x1="295.79" y1="225.879" x2="295.79" y2="229.671"/><line x1="293.894" y1="225.879" x2="297.687" y2="229.671"/><line x1="293.894" y1="229.671" x2="297.687" y2="225.879"/>
<line x1="294.347" y1="231.851" x2="298.139" y2="231.851"/><line x1="296.243" y1="229.954" x2="296.243" y2="233.747"/><line x1="294.347" y1="229.954" x2="298.139" y2="233.747"/><line x1="294.347" y1="233.747" x2="298.139" y2="229.954"/>
<line x1="294.8" y1="232.383" x2="298.592" y2="232.383"/><line x1="296.696" y1="230.487" x2="296.696" y2="234.279"/><line x1="294.8" y1="230.487" x2="298.592" y2="234.279"/><line x1="294.8" y1="234.279" x2="298.592" y2="230.487"/>
<line x1="295.252" y1="235.93" x2="299.045" y2="235.93"/><line x1="297.149" y1="234.034" x2="297.149" y2="237.826"/><line x1="295.252" y1="234.034" x2="299.045" y2="237.826"/><line x1="295.252" y1="237.826" x2="299.045" y2="234.034"/>
<line x1="295.705" y1="231.395" x2="299.497" y2="231.395"/><line x1="297.601" y1="229.499" x2="297.601" y2="233.291"/><line x1="295.705" y1="229.499" x2="299.497" y2="233.291"/><line x1="295.705" y1="233.291" x2="299.497" y2="229.499"/>
<line x1="296.158" y1="230.029" x2="299.95" y2="230.029"/><line x1="298.054" y1="228.133" x2="298.054" y2="231.925"/><line x1="296.158" y1="228.133" x2="299.95" y2="231.925"/><line x1="296.158" y1="231.925" x2="299.95" y2="228.133"/>
<line x1="296.611" y1="238.387" x2="300.403" y2="238.387"/><line x1="298.507" y1="236.491" x2="298.507" y2="240.283"/><line x1="296.611" y1="236.491" x2="300.403" y2="240.283"/><line x1="296.611" y1="240.283" x2="300.403" y2="236.491"/>
<line x1="297.063" y1="221.499" x2="300.855" y2="221.499"/><line x1="298.959" y1="219.603" x2="298.959" y2="223.396"/><line x1="297.063" y1="219.603" x2="300.855" y2="223.396"/><line x1="297.063" y1="223.396" x2="300.855" y2="219.603"/>
<line x1="297.516" y1="222.797" x2="301.308" y2="222.797"/><line x1="299.412" y1="220.901" x2="299.412" y2="224.693"/><line x1="297.516" y1="220.901" x2="301.308" y2="224.693"/><line x1="297.516" y1="224.693" x2="301.308" y2="220.901"/>
<line x1="297.969" y1="228.989" x2="301.761" y2="228.989"/><line x1="299.865" y1="227.093" x2="299.865" y2="230.885"/><line x1="297.969" y1="227.093" x2="301.761" y2="230.885"/><line x1="297.969" y1="230.885" x2="301.761" y2="227.093"/>
<line x1="298.421" y1="236.35" x2="302.213" y2="236.35"/><line x1="300.317" y1="234.454" x2="300.317" y2="238.246"/><line x1="298.421" y1="234.454" x2="302.213" y2="238.246"/><line x1="298.421" y1="238.246" x2="302.213" y2="234.454"/>
<line x1="298.874" y1="234.464" x2="302.666" y2="234.464"/><line x1="300.77" y1="232.568" x2="300.77" y2="236.36"/><line x1="298.874" y1="232.568" x2="302.666" y2="236.36"/><line x1="298.874" y1="236.36" x2="302.666" y2="232.568"/>
<line x1="299.327" y1="235.763" x2="303.119" y2="235.763"/><line x1="301.223" y1="233.867" x2="301.223" y2="237.659"/><line x1="299.327" y1="233.867" x2="303.119" y2="237.659"/><line x1="299.327" y1="237.659" x2="303.119" y2="233.867"/>
<line x1="299.779" y1="238.435" x2="303.571" y2="238.435"/><line x1="301.675" y1="236.539" x2="301.675" y2="240.331"/><line x1="299.779" y1="236.539" x2="303.571" y2="240.331"/><line x1="299.779" y1="240.331" x2="303.571" y2="236.539"/>
<line x1="300.232" y1="219.995" x2="304.024" y2="219.995"/><line x1="302.128" y1="218.099" x2="302.128" y2="221.891"/><line x1="300.232" y1="218.099" x2="304.024" y2="221.891"/><line x1="300.232" y1="221.891" x2="304.024" y2="218.099"/>
<line x1="300.685" y1="216.276" x2="304.477" y2="216.276"/><line x1="302.581" y1="214.38" x2="302.581" y2="218.172"/><line x1="300.685" y1="214.38" x2="304.477" y2="218.172"/><line x1="300.685" y1="218.172" x2="304.477" y2="214.38"/>
<line x1="301.137" y1="214.154" x2="304.93" y2="214.154"/><line x1="303.033" y1="212.258" x2="303.033" y2="216.05"/><line x1="301.137" y1="212.258" x2="304.93" y2="216.05"/><line x1="301.137" y1="216.05" x2="304.93" y2="212.258"/>
<line x1="301.59" y1="211.062" x2="305.382" y2="211.062"/><line x1="303.486" y1="209.166" x2="303.486" y2="212.958"/><line x1="301.59" y1="209.166" x2="305.382" y2="212.958"/><line x1="301.59" y1="212.958" x2="305.382" y2="209.166"/>
<line x1="302.043" y1="209.415" x2="305.835" y2="209.415"/><line x1="303.939" y1="207.519" x2="303.939" y2="211.311"/><line x1="302.043" y1="207.519" x2="305.835" y2="211.311"/><line x1="302.043" y1="211.311" x2="305.835" y2="207.519"/>
<line x1="302.495" y1="214.647" x2="306.288" y2="214.647"/><line x1="304.391" y1="212.751" x2="304.391" y2="216.543"/><line x1="302.495" y1="212.751" x2="306.288" y2="216.543"/><line x1="302.495" y1="216.543" x2="306.288" y2="212.751"/>
<line x1="302.948" y1="220.35" x2="306.74" y2="220.35"/><line x1="304.844" y1="218.454" x2="304.844" y2="222.246"/><line x1="302.948" y1="218.454" x2="306.74" y2="222.246"/><line x1="302.948" y1="222.246" x2="306.74" y2="218.454"/>
<line x1="303.401" y1="226.095" x2="307.193" y2="226.095"/><line x1="305.297" y1="224.199" x2="305.297" y2="227.991"/><line x1="303.401" y1="224.199" x2="307.193" y2="227.991"/><line x1="303.401" y1="227.991" x2="307.193" y2="224.199"/>
<line x1="303.853" y1="237.474" x2="307.646" y2="237.474"/><line x1="305.75" y1="235.578" x2="305.75" y2="239.37"/><line x1="303.853" y1="235.578" x2="307.646" y2="239.37"/><line x1="303.853" y1="239.37" x2="307.646" y2="235.578"/>
<line x1="304.306" y1="235.57" x2="308.098" y2="235.57"/><line x1="306.202" y1="233.674" x2="306.202" y2="237.466"/><line x1="304.306" y1="233.674" x2="308.098" y2="237.466"/><line x1="304.306" y1="237.466" x2="308.098" y2="233.674"/>
<line x1="304.759" y1="226.399" x2="308.551" y2="226.399"/><line x1="306.655" y1="224.503" x2="306.655" y2="228.295"/><line x1="304.759" y1="224.503" x2="308.551" y2="228.295"/><line x1="304.759" y1="228.295" x2="308.551" y2="224.503"/>
<line x1="305.212" y1="226.58" x2="309.004" y2="226.58"/><line x1="307.108" y1="224.684" x2="307.108" y2="228.476"/><line x1="305.212" y1="224.684" x2="309.004" y2="228.476"/><line x1="305.212" y1="228.476" x2="309.004" y2="224.684"/>
<line x1="305.664" y1="214.196" x2="309.456" y2="214.196"/><line x1="307.56" y1="212.3" x2="307.56" y2="216.092"/><line x1="305.664" y1="212.3" x2="309.456" y2="216.092"/><line x1="305.664" y1="216.092" x2="309.456" y2="212.3"/>
<line x1="306.117" y1="198.854" x2="309.909" y2="198.854"/><line x1="308.013" y1="196.958" x2="308.013" y2="200.75"/><line x1="306.117" y1="196.958" x2="309.909" y2="200.75"/><line x1="306.117" y1="200.75" x2="309.909" y2="196.958"/>
<line x1="306.57" y1="202.097" x2="310.362" y2="202.097"/><line x1="308.466" y1="200.201" x2="308.466" y2="203.993"/><line x1="306.57" y1="200.201" x2="310.362" y2="203.993"/><line x1="306.57" y1="203.993" x2="310.362" y2="200.201"/>
<line x1="307.022" y1="203.76" x2="310.814" y2="203.76"/><line x1="308.918" y1="201.864" x2="308.918" y2="205.656"/><line x1="307.022" y1="201.864" x2="310.814" y2="205.656"/><line x1="307.022" y1="205.656" x2="310.814" y2="201.864"/>
<line x1="307.475" y1="199.047" x2="311.267" y2="199.047"/><line x1="309.371" y1="197.151" x2="309.371" y2="200.943"/><line x1="307.475" y1="197.151" x2="311.267" y2="200.943"/><line x1="307.475" y1="200.943" x2="311.267" y2="197.151"/>
<line x1="307.928" y1="189.372" x2="311.72" y2="189.372"/><line x1="309.824" y1="187.476" x2="309.824" y2="191.268"/><line x1="307.928" y1="187.476" x2="311.72" y2="191.268"/><line x1="307.928" y1="191.268" x2="311.72" y2="187.476"/>
<line x1="308.38" y1="171.463" x2="312.172" y2="171.463"/><line x1="310.276" y1="169.567" x2="310.276" y2="173.359"/><line x1="308.38" y1="169.567" x2="312.172" y2="173.359"/><line x1="308.38" y1="173.359" x2="312.172" y2="169.567"/>
<line x1="308.833" y1="169.147" x2="312.625" y2="169.147"/><line x1="310.729" y1="167.251" x2="310.729" y2="171.043"/><line x1="308.833" y1="167.251" x2="312.625" y2="171.043"/><line x1="308.833" y1="171.043" x2="312.625" y2="167.251"/>
<line x1="309.286" y1="171.342" x2="313.078" y2="171.342"/><line x1="311.182" y1="169.446" x2="311.182" y2="173.238"/><line x1="309.286" y1="169.446" x2="313.078" y2="173.238"/><line x1="309.286" y1="173.238" x2="313.078" y2="169.446"/>
<line x1="309.738" y1="176.447" x2="313.531" y2="176.447"/><line x1="311.634" y1="174.551" x2="311.634" y2="178.343"/><line x1="309.738" y1="174.551" x2="313.531" y2="178.343"/><line x1="309.738" y1="178.343" x2="313.531" y2="174.551"/>
<line x1="310.191" y1="176.198" x2="313.983" y2="176.198"/><line x1="312.087" y1="174.301" x2="312.087" y2="178.094"/><line x1="310.191" y1="174.301" x2="313.983" y2="178.094"/><line x1="310.191" y1="178.094" x2="313.983" y2="174.301"/>
<line x1="310.644" y1="179.335" x2="314.436" y2="179.335"/><line x1="312.54" y1="177.439" x2="312.54" y2="181.231"/><line x1="310.644" y1="177.439" x2="314.436" y2="181.231"/><line x1="310.644" y1="181.231" x2="314.436" y2="177.439"/>
<line x1="311.096" y1="178.516" x2="314.889" y2="178.516"/><line x1="312.992" y1="176.62" x2="312.992" y2="180.412"/><line x1="311.096" y1="176.62" x2="314.889" y2="180.412"/><line x1="311.096" y1="180.412" x2="314.889" y2="176.62"/>
<line x1="311.549" y1="178.3" x2="315.341" y2="178.3"/><line x1="313.445" y1="176.404" x2="313.445" y2="180.196"/><line x1="311.549" y1="176.404" x2="315.341" y2="180.196"/><line x1="311.549" y1="180.196" x2="315.341" y2="176.404"/>
<line x1="312.002" y1="173.565" x2="315.794" y2="173.565"/><line x1="313.898" y1="171.669" x2="313.898" y2="175.461"/><line x1="312.002" y1="171.669" x2="315.794" y2="175.461"/><line x1="312.002" y1="175.461" x2="315.794" y2="171.669"/>
<line x1="312.454" y1="192.986" x2="316.247" y2="192.986"/><line x1="314.351" y1="191.09" x2="314.351" y2="194.883"/><line x1="312.454" y1="191.09" x2="316.247" y2="194.883"/><line x1="312.454" y1="194.883" x2="316.247" y2="191.09"/>
<line x1="312.907" y1="199.574" x2="316.699" y2="199.574"/><line x1="314.803" y1="197.678" x2="314.803" y2="201.47"/><line x1="312.907" y1="197.678" x2="316.699" y2="201.47"/><line x1="312.907" y1="201.47" x2="316.699" y2="197.678"/>
<line x1="313.36" y1="203.911" x2="317.152" y2="203.911"/><line x1="315.256" y1="202.015" x2="315.256" y2="205.808"/><line x1="313.36" y1="202.015" x2="317.152" y2="205.808"/><line x1="313.36" y1="205.808" x2="317.152" y2="202.015"/>
<line x1="313.812" y1="192.123" x2="317.605" y2="192.123"/><line x1="315.709" y1="190.227" x2="315.709" y2="194.019"/><line x1="313.812" y1="190.227" x2="317.605" y2="194.019"/><line x1="313.812" y1="194.019" x2="317.605" y2="190.227"/>
<line x1="314.265" y1="202.293" x2="318.057" y2="202.293"/><line x1="316.161" y1="200.397" x2="316.161" y2="204.189"/><line x1="314.265" y1="200.397" x2="318.057" y2="204.189"/><line x1="314.265" y1="204.189" x2="318.057" y2="200.397"/>
<line x1="314.718" y1="194.691" x2="318.51" y2="194.691"/><line x1="316.614" y1="192.795" x2="316.614" y2="196.587"/><line x1="314.718" y1="192.795" x2="318.51" y2="196.587"/><line x1="314.718" y1="196.587" x2="318.51" y2="192.795"/>
<line x1="315.171" y1="202.546" x2="318.963" y2="202.546"/><line x1="317.067" y1="200.65" x2="317.067" y2="204.442"/><line x1="315.171" y1="200.65" x2="318.963" y2="204.442"/><line x1="315.171" y1="204.442" x2="318.963" y2="200.65"/>
<line x1="315.623" y1="215.29" x2="319.415" y2="215.29"/><line x1="317.519" y1="213.394" x2="317.519" y2="217.186"/><line x1="315.623" y1="213.394" x2="319.415" y2="217.186"/><line x1="315.623" y1="217.186" x2="319.415" y2="213.394"/>
<line x1="316.076" y1="208.068" x2="319.868" y2="208.068"/><line x1="317.972" y1="206.172" x2="317.972" y2="209.964"/><line x1="316.076" y1="206.172" x2="319.868" y2="209.964"/><line x1="316.076" y1="209.964" x2="319.868" y2="206.172"/>
<line x1="316.529" y1="200.782" x2="320.321" y2="200.782"/><line x1="318.425" y1="198.886" x2="318.425" y2="202.678"/><line x1="316.529" y1="198.886" x2="320.321" y2="202.678"/><line x1="316.529" y1="202.678" x2="320.321" y2="198.886"/>
<line x1="316.981" y1="198.829" x2="320.773" y2="198.829"/><line x1="318.877" y1="196.933" x2="318.877" y2="200.725"/><line x1="316.981" y1="196.933" x2="320.773" y2="200.725"/><line x1="316.981" y1="200.725" x2="320.773" y2="196.933"/>
<line x1="317.434" y1="200.642" x2="321.226" y2="200.642"/><line x1="319.33" y1="198.745" x2="319.33" y2="202.538"/><line x1="317.434" y1="198.745" x2="321.226" y2="202.538"/><line x1="317.434" y1="202.538" x2="321.226" y2="198.745"/>
<line x1="317.887" y1="203.792" x2="321.679" y2="203.792"/><line x1="319.783" y1="201.896" x2="319.783" y2="205.688"/><line x1="317.887" y1="201.896" x2="321.679" y2="205.688"/><line x1="317.887" y1="205.688" x2="321.679" y2="201.896"/>
<line x1="318.339" y1="197.131" x2="322.132" y2="197.131"/><line x1="320.235" y1="195.235" x2="320.235" y2="199.027"/><line x1="318.339" y1="195.235" x2="322.132" y2="199.027"/><line x1="318.339" y1="199.027" x2="322.132" y2="195.235"/>
<line x1="318.792" y1="197.383" x2="322.584" y2="197.383"/><line x1="320.688" y1="195.487" x2="320.688" y2="199.279"/><line x1="318.792" y1="195.487" x2="322.584" y2="199.279"/><line x1="318.792" y1="199.279" x2="322.584" y2="195.487"/>
<line x1="319.245" y1="190.641" x2="323.037" y2="190.641"/><line x1="321.141" y1="188.745" x2="321.141" y2="192.537"/><line x1="319.245" y1="188.745" x2="323.037" y2="192.537"/><line x1="319.245" y1="192.537" x2="323.037" y2="188.745"/>
<line x1="319.697" y1="186.3" x2="323.49" y2="186.3"/><line x1="321.593" y1="184.404" x2="321.593" y2="188.196"/><line x1="319.697" y1="184.404" x2="323.49" y2="188.196"/><line x1="319.697" y1="188.196" x2="323.49" y2="184.404"/>
<line x1="320.15" y1="191.445" x2="323.942" y2="191.445"/><line x1="322.046" y1="189.549" x2="322.046" y2="193.342"/><line x1="320.15" y1="189.549" x2="323.942" y2="193.342"/><line x1="320.15" y1="193.342" x2="323.942" y2="189.549"/>
<line x1="320.603" y1="171.033" x2="324.395" y2="171.033"/><line x1="322.499" y1="169.137" x2="322.499" y2="172.929"/><line x1="320.603" y1="169.137" x2="324.395" y2="172.929"/><line x1="320.603" y1="172.929" x2="324.395" y2="169.137"/>
<line x1="321.055" y1="157.033" x2="324.848" y2="157.033"/><line x1="322.952" y1="155.137" x2="322.952" y2="158.93"/><line x1="321.055" y1="155.137" x2="324.848" y2="158.93"/><line x1="321.055" y1="158.93" x2="324.848" y2="155.137"/>
<line x1="321.508" y1="150.569" x2="325.3" y2="150.569"/><line x1="323.404" y1="148.673" x2="323.404" y2="152.465"/><line x1="321.508" y1="148.673" x2="325.3" y2="152.465"/><line x1="321.508" y1="152.465" x2="325.3" y2="148.673"/>
<line x1="321.961" y1="152.223" x2="325.753" y2="152.223"/><line x1="323.857" y1="150.327" x2="323.857" y2="154.119"/><line x1="321.961" y1="150.327" x2="325.753" y2="154.119"/><line x1="321.961" y1="154.119" x2="325.753" y2="150.327"/>
<line x1="322.413" y1="139.547" x2="326.206" y2="139.547"/><line x1="324.31" y1="137.651" x2="324.31" y2="141.443"/><line x1="322.413" y1="137.651" x2="326.206" y2="141.443"/><line x1="322.413" y1="141.443" x2="326.206" y2="137.651"/>
<line x1="322.866" y1="131.492" x2="326.658" y2="131.492"/><line x1="324.762" y1="129.596" x2="324.762" y2="133.389"/><line x1="322.866" y1="129.596" x2="326.658" y2="133.389"/><line x1="322.866" y1="133.389" x2="326.658" y2="129.596"/>
<line x1="323.319" y1="121.465" x2="327.111" y2="121.465"/><line x1="325.215" y1="119.569" x2="325.215" y2="123.361"/><line x1="323.319" y1="119.569" x2="327.111" y2="123.361"/><line x1="323.319" y1="123.361" x2="327.111" y2="119.569"/>
<line x1="323.772" y1="110.306" x2="327.564" y2="110.306"/><line x1="325.668" y1="108.409" x2="325.668" y2="112.202"/><line x1="323.772" y1="108.409" x2="327.564" y2="112.202"/><line x1="323.772" y1="112.202" x2="327.564" y2="108.409"/>
<line x1="324.224" y1="112.257" x2="328.016" y2="112.257"/><line x1="326.12" y1="110.361" x2="326.12" y2="114.153"/><line x1="324.224" y1="110.361" x2="328.016" y2="114.153"/><line x1="324.224" y1="114.153" x2="328.016" y2="110.361"/>
<line x1="324.677" y1="103.41" x2="328.469" y2="103.41"/><line x1="326.573" y1="101.514" x2="326.573" y2="105.306"/><line x1="324.677" y1="101.514" x2="328.469" y2="105.306"/><line x1="324.677" y1="105.306" x2="328.469" y2="101.514"/>
<line x1="325.13" y1="105.387" x2="328.922" y2="105.387"/><line x1="327.026" y1="103.491" x2="327.026" y2="107.283"/><line x1="325.13" y1="103.491" x2="328.922" y2="107.283"/><line x1="325.13" y1="107.283" x2="328.922" y2="103.491"/>
<line x1="325.582" y1="102.394" x2="329.374" y2="102.394"/><line x1="327.478" y1="100.497" x2="327.478" y2="104.29"/><line x1="325.582" y1="100.497" x2="329.374" y2="104.29"/><line x1="325.582" y1="104.29" x2="329.374" y2="100.497"/>
<line x1="326.035" y1="87.9753" x2="329.827" y2="87.9753"/><line x1="327.931" y1="86.0792" x2="327.931" y2="89.8714"/><line x1="326.035" y1="86.0792" x2="329.827" y2="89.8714"/><line x1="326.035" y1="89.8714" x2="329.827" y2="86.0792"/>
<line x1="326.488" y1="85.2748" x2="330.28" y2="85.2748"/><line x1="328.384" y1="83.3787" x2="328.384" y2="87.1709"/><line x1="326.488" y1="83.3787" x2="330.28" y2="87.1709"/><line x1="326.488" y1="87.1709" x2="330.28" y2="83.3787"/>
<line x1="326.94" y1="68.434" x2="330.732" y2="68.434"/><line x1="328.836" y1="66.538" x2="328.836" y2="70.3301"/><line x1="326.94" y1="66.538" x2="330.732" y2="70.3301"/><line x1="326.94" y1="70.3301" x2="330.732" y2="66.538"/>
<line x1="327.393" y1="61.9728" x2="331.185" y2="61.9728"/><line x1="329.289" y1="60.0767" x2="329.289" y2="63.8689"/><line x1="327.393" y1="60.0767" x2="331.185" y2="63.8689"/><line x1="327.393" y1="63.8689" x2="331.185" y2="60.0767"/>
<line x1="327.846" y1="65.4649" x2="331.638" y2="65.4649"/><line x1="329.742" y1="63.5688" x2="329.742" y2="67.3609"/><line x1="327.846" y1="63.5688" x2="331.638" y2="67.3609"/><line x1="327.846" y1="67.3609" x2="331.638" y2="63.5688"/>
<line x1="328.298" y1="66.6044" x2="332.091" y2="66.6044"/><line x1="330.194" y1="64.7083" x2="330.194" y2="68.5004"/><line x1="328.298" y1="64.7083" x2="332.091" y2="68.5004"/><line x1="328.298" y1="68.5004" x2="332.091" y2="64.7083"/>
<line x1="328.751" y1="76.333" x2="332.543" y2="76.333"/><line x1="330.647" y1="74.437" x2="330.647" y2="78.2291"/><line x1="328.751" y1="74.437" x2="332.543" y2="78.2291"/><line x1="328.751" y1="78.2291" x2="332.543" y2="74.437"/>
<line x1="329.204" y1="67.9487" x2="332.996" y2="67.9487"/><line x1="331.1" y1="66.0526" x2="331.1" y2="69.8448"/><line x1="329.204" y1="66.0526" x2="332.996" y2="69.8448"/><line x1="329.204" y1="69.8448" x2="332.996" y2="66.0526"/>
<line x1="329.656" y1="82.1151" x2="333.449" y2="82.1151"/><line x1="331.552" y1="80.219" x2="331.552" y2="84.0112"/><line x1="329.656" y1="80.219" x2="333.449" y2="84.0112"/><line x1="329.656" y1="84.0112" x2="333.449" y2="80.219"/>
<line x1="330.109" y1="83.8365" x2="333.901" y2="83.8365"/><line x1="332.005" y1="81.9404" x2="332.005" y2="85.7325"/><line x1="330.109" y1="81.9404" x2="333.901" y2="85.7325"/><line x1="330.109" y1="85.7325" x2="333.901" y2="81.9404"/>
<line x1="330.562" y1="80.2697" x2="334.354" y2="80.2697"/><line x1="332.458" y1="78.3736" x2="332.458" y2="82.1658"/><line x1="330.562" y1="78.3736" x2="334.354" y2="82.1658"/><line x1="330.562" y1="82.1658" x2="334.354" y2="78.3736"/>
<line x1="331.014" y1="82.3804" x2="334.807" y2="82.3804"/><line x1="332.911" y1="80.4843" x2="332.911" y2="84.2765"/><line x1="331.014" y1="80.4843" x2="334.807" y2="84.2765"/><line x1="331.014" y1="84.2765" x2="334.807" y2="80.4843"/>
<line x1="331.467" y1="74.237" x2="335.259" y2="74.237"/><line x1="333.363" y1="72.341" x2="333.363" y2="76.1331"/><line x1="331.467" y1="72.341" x2="335.259" y2="76.1331"/><line x1="331.467" y1="76.1331" x2="335.259" y2="72.341"/>
<line x1="331.92" y1="76.499" x2="335.712" y2="76.499"/><line x1="333.816" y1="74.6029" x2="333.816" y2="78.3951"/><line x1="331.92" y1="74.6029" x2="335.712" y2="78.3951"/><line x1="331.92" y1="78.3951" x2="335.712" y2="74.6029"/>
<line x1="332.372" y1="78.2486" x2="336.165" y2="78.2486"/><line x1="334.269" y1="76.3525" x2="334.269" y2="80.1447"/><line x1="332.372" y1="76.3525" x2="336.165" y2="80.1447"/><line x1="332.372" y1="80.1447" x2="336.165" y2="76.3525"/>
<line x1="332.825" y1="81.154" x2="336.617" y2="81.154"/><line x1="334.721" y1="79.2579" x2="334.721" y2="83.0501"/><line x1="332.825" y1="79.2579" x2="336.617" y2="83.0501"/><line x1="332.825" y1="83.0501" x2="336.617" y2="79.2579"/>
<line x1="333.278" y1="83.3346" x2="337.07" y2="83.3346"/><line x1="335.174" y1="81.4385" x2="335.174" y2="85.2307"/><line x1="333.278" y1="81.4385" x2="337.07" y2="85.2307"/><line x1="333.278" y1="85.2307" x2="337.07" y2="81.4385"/>
<line x1="333.731" y1="87.8198" x2="337.523" y2="87.8198"/><line x1="335.627" y1="85.9238" x2="335.627" y2="89.7159"/><line x1="333.731" y1="85.9238" x2="337.523" y2="89.7159"/><line x1="333.731" y1="89.7159" x2="337.523" y2="85.9238"/>
<line x1="334.183" y1="75.1824" x2="337.975" y2="75.1824"/><line x1="336.079" y1="73.2863" x2="336.079" y2="77.0785"/><line x1="334.183" y1="73.2863" x2="337.975" y2="77.0785"/><line x1="334.183" y1="77.0785" x2="337.975" y2="73.2863"/>
<line x1="334.636" y1="66.4333" x2="338.428" y2="66.4333"/><line x1="336.532" y1="64.5372" x2="336.532" y2="68.3294"/><line x1="334.636" y1="64.5372" x2="338.428" y2="68.3294"/><line x1="334.636" y1="68.3294" x2="338.428" y2="64.5372"/>
<line x1="335.089" y1="57.0452" x2="338.881" y2="57.0452"/><line x1="336.985" y1="55.1491" x2="336.985" y2="58.9412"/><line x1="335.089" y1="55.1491" x2="338.881" y2="58.9412"/><line x1="335.089" y1="58.9412" x2="338.881" y2="55.1491"/>
<line x1="335.541" y1="58.1369" x2="339.333" y2="58.1369"/><line x1="337.437" y1="56.2408" x2="337.437" y2="60.033"/><line x1="335.541" y1="56.2408" x2="339.333" y2="60.033"/><line x1="335.541" y1="60.033" x2="339.333" y2="56.2408"/>
<line x1="335.994" y1="62.7072" x2="339.786" y2="62.7072"/><line x1="337.89" y1="60.8111" x2="337.89" y2="64.6033"/><line x1="335.994" y1="60.8111" x2="339.786" y2="64.6033"/><line x1="335.994" y1="64.6033" x2="339.786" y2="60.8111"/>
<line x1="336.447" y1="74.971" x2="340.239" y2="74.971"/><line x1="338.343" y1="73.0749" x2="338.343" y2="76.8671"/><line x1="336.447" y1="73.0749" x2="340.239" y2="76.8671"/><line x1="336.447" y1="76.8671" x2="340.239" y2="73.0749"/>
<line x1="336.899" y1="67.2355" x2="340.691" y2="67.2355"/><line x1="338.795" y1="65.3394" x2="338.795" y2="69.1316"/><line x1="336.899" y1="65.3394" x2="340.691" y2="69.1316"/><line x1="336.899" y1="69.1316" x2="340.691" y2="65.3394"/>
<line x1="337.352" y1="69.1513" x2="341.144" y2="69.1513"/><line x1="339.248" y1="67.2552" x2="339.248" y2="71.0474"/><line x1="337.352" y1="67.2552" x2="341.144" y2="71.0474"/><line x1="337.352" y1="71.0474" x2="341.144" y2="67.2552"/>
<line x1="337.805" y1="71.4093" x2="341.597" y2="71.4093"/><line x1="339.701" y1="69.5132" x2="339.701" y2="73.3054"/><line x1="337.805" y1="69.5132" x2="341.597" y2="73.3054"/><line x1="337.805" y1="73.3054" x2="341.597" y2="69.5132"/>
<line x1="338.257" y1="75.5491" x2="342.05" y2="75.5491"/><line x1="340.153" y1="73.653" x2="340.153" y2="77.4452"/><line x1="338.257" y1="73.653" x2="342.05" y2="77.4452"/><line x1="338.257" y1="77.4452" x2="342.05" y2="73.653"/>
<line x1="338.71" y1="78.5653" x2="342.502" y2="78.5653"/><line x1="340.606" y1="76.6692" x2="340.606" y2="80.4614"/><line x1="338.71" y1="76.6692" x2="342.502" y2="80.4614"/><line x1="338.71" y1="80.4614" x2="342.502" y2="76.6692"/>
<line x1="339.163" y1="49.3442" x2="342.955" y2="49.3442"/><line x1="341.059" y1="47.4482" x2="341.059" y2="51.2403"/><line x1="339.163" y1="47.4482" x2="342.955" y2="51.2403"/><line x1="339.163" y1="51.2403" x2="342.955" y2="47.4482"/>
<line x1="339.615" y1="44.0633" x2="343.408" y2="44.0633"/><line x1="341.512" y1="42.1672" x2="341.512" y2="45.9594"/><line x1="339.615" y1="42.1672" x2="343.408" y2="45.9594"/><line x1="339.615" y1="45.9594" x2="343.408" y2="42.1672"/>
<line x1="340.068" y1="45.4646" x2="343.86" y2="45.4646"/><line x1="341.964" y1="43.5686" x2="341.964" y2="47.3607"/><line x1="340.068" y1="43.5686" x2="343.86" y2="47.3607"/><line x1="340.068" y1="47.3607" x2="343.86" y2="43.5686"/>
</g>
<path d="M170.85,353.116h 226.342" fill="none" stroke="#0000ff"/>
<path d="M284.021,372.012v -47.2396" fill="none" stroke="#ff0000"/>
<rect x="57.1929" y="330.677" width="113.386" height="41.3346" fill="white"/>
<path d="M57.1929,372.012h 113.386" fill="none" stroke="black"/>
<path d="M170.579,372.012v -41.3346" fill="none" stroke="black"/>
<path d="M170.579,330.677h -113.386" fill="none" stroke="black"/>
<path d="M57.1929,330.677v 41.3346" fill="none" stroke="black"/>
<text xml:space="preserve" x="85.3498" y="354.568" fill="black" font-size="12.0704" font-family="Helvetica">#p.e of PMTs2</text>
<path d="M61.4449,351.344h 19.8425" fill="none" stroke="black"/></svg>
