<?xml version="1.0" standalone="no"?>
<svg width="567.429" height="413.846" viewBox="0 0 567.429 413.846" xmlns="http://www.w3.org/2000/svg" shape-rendering="crispEdges">
<title>
figures/PMTnperes0PMTnpedata190929-03.svg
</title>
<desc>
Creator: ROOT Version 6.18/02
CreationDate: Mon Sep 30 00:47:38 2019</desc>
<defs>
</defs>
<rect x="0.5" y="0" width="566.929" height="413.346" fill="white"/>
<rect x="0.5" y="0" width="566.929" height="276.942" fill="white"/>
<rect x="57.1929" y="27.6942" width="453.543" height="249.245" fill="white"/>
<rect x="57.1929" y="27.6942" width="453.543" height="249.245" fill="none" stroke="black"/>
<rect x="57.1929" y="27.6942" width="453.543" height="249.245" fill="white"/>
<rect x="57.1929" y="27.6942" width="453.543" height="249.245" fill="none" stroke="black"/>
<path d="M57.1929,64.4284h 9.07087v 26.4507h 9.07087v 2.00614h 9.07087v 0.678964h 9.07087v 1.33829h 9.07087v 3.1203h 9.07087v 4.3648h 9.07087v 4.38531h 9.07087v 4.11817h 9.07087v 4.97531h 9.07087v 5.28693h 9.07087v 3.9991h 9.07087v 5.20499h 9.07087v
 2.66503h 9.07087v 3.79601h 9.07087v 6.96547h 9.07087v 1.98046h 9.07087v 4.47966h 9.07087v 3.28545h 9.07087v 1.03817h 9.07087v 4.36124h 9.07087v 0.374886h 9.07087v 4.6192h 9.07087v 3.97052h 9.07087v 1.00712h 9.07087v 2.00456h 9.07087v 6.12063h
 9.07087v 2.73827h 9.07087v 3.13547h 9.07087v -0.279348h 9.07087v 10.0644h 9.07087v -2.10351h 9.07087v -2.99084h 9.07087v 1.07373h 9.07087v 3.58325h 9.07087v -0.42871h 9.07087v 2.70968h 9.07087v 3.66036h 9.07087v -5.50395h 9.07087v 3.85892h 9.07087v
 1.08268h 9.07087v 7.96093h 9.07087v -7.96093h 9.07087v 3.61658h 9.07087v -0.646291h 9.07087v 5.80769h 9.07087v -3.80788h 9.07087v -18.8364h 9.07087v 93.1794h 18.1417" fill="none" stroke="#ff0000" stroke-width="2"/>
<rect x="283.965" y="27.6942" width="113.386" height="55.3884" fill="white"/>
<path d="M283.965,83.0826h 113.386" fill="none" stroke="black"/>
<path d="M397.35,83.0826v -55.3884" fill="none" stroke="black"/>
<path d="M397.35,27.6942h -113.386" fill="none" stroke="black"/>
<path d="M283.965,27.6942v 55.3884" fill="none" stroke="black"/>
<text xml:space="preserve" x="292.023" y="37.9217" fill="#ff0000" font-size="12.1875" font-family="Helvetica">npe_PMT-S0-data</text>
<path d="M283.965,41.5413h 113.386" fill="none" stroke="black"/>
<text xml:space="preserve" x="289.179" y="53.0904" fill="#ff0000" font-size="12.1875" font-family="Helvetica">Entries </text>
<text xml:space="preserve" x="357.438" y="52.6163" fill="#ff0000" font-size="12.1875" font-family="Helvetica"> 60861</text>
<text xml:space="preserve" x="289.179" y="66.837" fill="#ff0000" font-size="12.1875" font-family="Helvetica">Mean  </text>
<text xml:space="preserve" x="355.542" y="66.3629" fill="#ff0000" font-size="12.1875" font-family="Helvetica">  6.302</text>
<text xml:space="preserve" x="289.179" y="80.5836" fill="#ff0000" font-size="12.1875" font-family="Helvetica">Std Dev   </text>
<text xml:space="preserve" x="355.542" y="80.1096" fill="#ff0000" font-size="12.1875" font-family="Helvetica">  7.773</text>
<path d="M57.1929,276.939h 453.543" fill="none" stroke="black"/>
<path d="M57.1929,270.293v 6.64661" fill="none" stroke="black"/>
<path d="M72.311,273.616v 3.3233" fill="none" stroke="black"/>
<path d="M87.4291,273.616v 3.3233" fill="none" stroke="black"/>
<path d="M102.547,273.616v 3.3233" fill="none" stroke="black"/>
<path d="M117.665,273.616v 3.3233" fill="none" stroke="black"/>
<path d="M132.783,270.293v 6.64661" fill="none" stroke="black"/>
<path d="M147.902,273.616v 3.3233" fill="none" stroke="black"/>
<path d="M163.02,273.616v 3.3233" fill="none" stroke="black"/>
<path d="M178.138,273.616v 3.3233" fill="none" stroke="black"/>
<path d="M193.256,273.616v 3.3233" fill="none" stroke="black"/>
<path d="M208.374,270.293v 6.64661" fill="none" stroke="black"/>
<path d="M223.492,273.616v 3.3233" fill="none" stroke="black"/>
<path d="M238.61,273.616v 3.3233" fill="none" stroke="black"/>
<path d="M253.728,273.616v 3.3233" fill="none" stroke="black"/>
<path d="M268.846,273.616v 3.3233" fill="none" stroke="black"/>
<path d="M283.965,270.293v 6.64661" fill="none" stroke="black"/>
<path d="M299.083,273.616v 3.3233" fill="none" stroke="black"/>
<path d="M314.201,273.616v 3.3233" fill="none" stroke="black"/>
<path d="M329.319,273.616v 3.3233" fill="none" stroke="black"/>
<path d="M344.437,273.616v 3.3233" fill="none" stroke="black"/>
<path d="M359.555,270.293v 6.64661" fill="none" stroke="black"/>
<path d="M374.673,273.616v 3.3233" fill="none" stroke="black"/>
<path d="M389.791,273.616v 3.3233" fill="none" stroke="black"/>
<path d="M404.909,273.616v 3.3233" fill="none" stroke="black"/>
<path d="M420.028,273.616v 3.3233" fill="none" stroke="black"/>
<path d="M435.146,270.293v 6.64661" fill="none" stroke="black"/>
<path d="M450.264,273.616v 3.3233" fill="none" stroke="black"/>
<path d="M465.382,273.616v 3.3233" fill="none" stroke="black"/>
<path d="M480.5,273.616v 3.3233" fill="none" stroke="black"/>
<path d="M495.618,273.616v 3.3233" fill="none" stroke="black"/>
<path d="M510.736,270.293v 6.64661" fill="none" stroke="black"/>
<text xml:space="preserve" x="54.5384" y="285.835" fill="black" font-size="9.39263" font-family="Helvetica">0</text>
<text xml:space="preserve" x="127.538" y="285.835" fill="black" font-size="9.39263" font-family="Helvetica">10</text>
<text xml:space="preserve" x="202.907" y="285.835" fill="black" font-size="9.39263" font-family="Helvetica">20</text>
<text xml:space="preserve" x="278.75" y="285.835" fill="black" font-size="9.39263" font-family="Helvetica">30</text>
<text xml:space="preserve" x="354.12" y="285.835" fill="black" font-size="9.39263" font-family="Helvetica">40</text>
<text xml:space="preserve" x="429.489" y="285.835" fill="black" font-size="9.39263" font-family="Helvetica">50</text>
<text xml:space="preserve" x="505.332" y="285.835" fill="black" font-size="9.39263" font-family="Helvetica">60</text>
<text xml:space="preserve" x="490.638" y="293.893" fill="black" font-size="9.39263" font-family="Helvetica">n.p.e</text>
<path d="M57.1929,276.939v -249.245" fill="none" stroke="black"/>
<path d="M72.4998,276.939h -15.3069" fill="none" stroke="black"/>
<text xml:space="preserve" x="49.3242" y="280.62" fill="black" font-size="9.39263" font-family="Helvetica">1</text>
<path d="M64.8464,261.933h -7.65346" fill="none" stroke="black"/>
<path d="M64.8464,253.155h -7.65346" fill="none" stroke="black"/>
<path d="M64.8464,246.927h -7.65346" fill="none" stroke="black"/>
<path d="M64.8464,242.096h -7.65346" fill="none" stroke="black"/>
<path d="M64.8464,238.149h -7.65346" fill="none" stroke="black"/>
<path d="M64.8464,234.812h -7.65346" fill="none" stroke="black"/>
<path d="M64.8464,231.921h -7.65346" fill="none" stroke="black"/>
<path d="M64.8464,229.371h -7.65346" fill="none" stroke="black"/>
<path d="M72.4998,227.09h -15.3069" fill="none" stroke="black"/>
<text xml:space="preserve" x="42.6879" y="230.374" fill="black" font-size="9.39263" font-family="Helvetica">10</text>
<path d="M64.8464,212.084h -7.65346" fill="none" stroke="black"/>
<path d="M64.8464,203.306h -7.65346" fill="none" stroke="black"/>
<path d="M64.8464,197.078h -7.65346" fill="none" stroke="black"/>
<path d="M64.8464,192.247h -7.65346" fill="none" stroke="black"/>
<path d="M64.8464,188.3h -7.65346" fill="none" stroke="black"/>
<path d="M64.8464,184.963h -7.65346" fill="none" stroke="black"/>
<path d="M64.8464,182.072h -7.65346" fill="none" stroke="black"/>
<path d="M64.8464,179.522h -7.65346" fill="none" stroke="black"/>
<path d="M72.4998,177.241h -15.3069" fill="none" stroke="black"/>
<text xml:space="preserve" x="49.3242" y="177.284" fill="black" font-size="6.42842" font-family="Helvetica">2</text>
<text xml:space="preserve" x="39.3697" y="181.076" fill="black" font-size="9.39263" font-family="Helvetica">10</text>
<path d="M64.8464,162.235h -7.65346" fill="none" stroke="black"/>
<path d="M64.8464,153.457h -7.65346" fill="none" stroke="black"/>
<path d="M64.8464,147.229h -7.65346" fill="none" stroke="black"/>
<path d="M64.8464,142.398h -7.65346" fill="none" stroke="black"/>
<path d="M64.8464,138.451h -7.65346" fill="none" stroke="black"/>
<path d="M64.8464,135.114h -7.65346" fill="none" stroke="black"/>
<path d="M64.8464,132.223h -7.65346" fill="none" stroke="black"/>
<path d="M64.8464,129.673h -7.65346" fill="none" stroke="black"/>
<path d="M72.4998,127.392h -15.3069" fill="none" stroke="black"/>
<text xml:space="preserve" x="49.3242" y="127.038" fill="black" font-size="6.42842" font-family="Helvetica">3</text>
<text xml:space="preserve" x="39.3697" y="131.304" fill="black" font-size="9.39263" font-family="Helvetica">10</text>
<path d="M64.8464,112.386h -7.65346" fill="none" stroke="black"/>
<path d="M64.8464,103.608h -7.65346" fill="none" stroke="black"/>
<path d="M64.8464,97.3801h -7.65346" fill="none" stroke="black"/>
<path d="M64.8464,92.5493h -7.65346" fill="none" stroke="black"/>
<path d="M64.8464,88.6021h -7.65346" fill="none" stroke="black"/>
<path d="M64.8464,85.2649h -7.65346" fill="none" stroke="black"/>
<path d="M64.8464,82.3741h -7.65346" fill="none" stroke="black"/>
<path d="M64.8464,79.8242h -7.65346" fill="none" stroke="black"/>
<path d="M72.4998,77.5432h -15.3069" fill="none" stroke="black"/>
<text xml:space="preserve" x="49.3242" y="77.7394" fill="black" font-size="6.42842" font-family="Helvetica">4</text>
<text xml:space="preserve" x="39.3697" y="81.5316" fill="black" font-size="9.39263" font-family="Helvetica">10</text>
<path d="M64.8464,62.5372h -7.65346" fill="none" stroke="black"/>
<path d="M64.8464,53.7592h -7.65346" fill="none" stroke="black"/>
<path d="M64.8464,47.5311h -7.65346" fill="none" stroke="black"/>
<path d="M64.8464,42.7002h -7.65346" fill="none" stroke="black"/>
<path d="M64.8464,38.7531h -7.65346" fill="none" stroke="black"/>
<path d="M64.8464,35.4159h -7.65346" fill="none" stroke="black"/>
<path d="M64.8464,32.5251h -7.65346" fill="none" stroke="black"/>
<path d="M64.8464,29.9752h -7.65346" fill="none" stroke="black"/>
<path d="M72.4998,27.6942h -15.3069" fill="none" stroke="black"/>
<text xml:space="preserve" x="49.3242" y="27.4932" fill="black" font-size="6.42842" font-family="Helvetica">5</text>
<text xml:space="preserve" x="39.3697" y="31.7594" fill="black" font-size="9.39263" font-family="Helvetica">10</text>
<rect x="283.965" y="27.6942" width="113.386" height="55.3884" fill="white"/>
<path d="M283.965,83.0826h 113.386" fill="none" stroke="black"/>
<path d="M397.35,83.0826v -55.3884" fill="none" stroke="black"/>
<path d="M397.35,27.6942h -113.386" fill="none" stroke="black"/>
<path d="M283.965,27.6942v 55.3884" fill="none" stroke="black"/>
<text xml:space="preserve" x="292.023" y="37.9217" fill="#ff0000" font-size="12.1875" font-family="Helvetica">npe_PMT-S0-data</text>
<path d="M283.965,41.5413h 113.386" fill="none" stroke="black"/>
<text xml:space="preserve" x="289.179" y="53.0904" fill="#ff0000" font-size="12.1875" font-family="Helvetica">Entries </text>
<text xml:space="preserve" x="357.438" y="52.6163" fill="#ff0000" font-size="12.1875" font-family="Helvetica"> 60861</text>
<text xml:space="preserve" x="289.179" y="66.837" fill="#ff0000" font-size="12.1875" font-family="Helvetica">Mean  </text>
<text xml:space="preserve" x="355.542" y="66.3629" fill="#ff0000" font-size="12.1875" font-family="Helvetica">  6.302</text>
<text xml:space="preserve" x="289.179" y="80.5836" fill="#ff0000" font-size="12.1875" font-family="Helvetica">Std Dev   </text>
<text xml:space="preserve" x="355.542" y="80.1096" fill="#ff0000" font-size="12.1875" font-family="Helvetica">  7.773</text>
<path d="M57.1929,70.0236h 9.07087v 16.5021h 9.07087v 0.224072h 9.07087v 3.09241h 9.07087v 4.40429h 9.07087v 5.37862h 9.07087v 3.87518h 9.07087v 3.08145h 9.07087v 5.01795h 9.07087v 4.91192h 9.07087v 3.50376h 9.07087v 4.12646h 9.07087v 4.52103h
 9.07087v 3.45233h 9.07087v 5.48695h 9.07087v 3.17019h 9.07087v 3.19711h 9.07087v 1.59363h 9.07087v 3.70789h 9.07087v 1.79738h 9.07087v 1.81919h 9.07087v 2.61149h 9.07087v 4.87056h 9.07087v 1.54335h 9.07087v -0.630602h 9.07087v 3.84377h 9.07087v
 2.07576h 9.07087v 0.832762h 9.07087v 3.52672h 9.07087v 1.55319h 9.07087v 0.179662h 9.07087v 6.22807h 9.07087v 3.66036h 9.07087v 1.4733h 9.07087v 2.24711h 9.07087v 5.34431h 9.07087v 1.80514h 9.07087v 4.71353h 9.07087v -0.577345h 9.07087v 1.17051h
 9.07087v 4.68105h 9.07087v 6.98777h 9.07087v 4.57466h 9.07087v -3.5184h 9.07087v 6.22807h 9.07087v 3.09801h 9.07087v -8.21563h 9.07087v -12.5981h 9.07087v 76.3427h 18.1417" fill="none" stroke="#006633" stroke-width="2"/>
<rect x="397.35" y="27.6942" width="113.386" height="55.3884" fill="white"/>
<path d="M397.35,83.0826h 113.386" fill="none" stroke="black"/>
<path d="M510.736,83.0826v -55.3884" fill="none" stroke="black"/>
<path d="M510.736,27.6942h -113.386" fill="none" stroke="black"/>
<path d="M397.35,27.6942v 55.3884" fill="none" stroke="black"/>
<text xml:space="preserve" x="407.684" y="37.9217" fill="#006633" font-size="12.1875" font-family="Helvetica">npe_PMT-S0-MC</text>
<path d="M397.35,41.5413h 113.386" fill="none" stroke="black"/>
<text xml:space="preserve" x="402.944" y="53.0904" fill="#006633" font-size="12.1875" font-family="Helvetica">Entries </text>
<text xml:space="preserve" x="470.729" y="52.6163" fill="#006633" font-size="12.1875" font-family="Helvetica"> 60861</text>
<text xml:space="preserve" x="402.944" y="66.837" fill="#006633" font-size="12.1875" font-family="Helvetica">Mean  </text>
<text xml:space="preserve" x="468.833" y="66.3629" fill="#006633" font-size="12.1875" font-family="Helvetica">  6.735</text>
<text xml:space="preserve" x="402.944" y="80.5836" fill="#006633" font-size="12.1875" font-family="Helvetica">Std Dev   </text>
<text xml:space="preserve" x="468.833" y="80.1096" fill="#006633" font-size="12.1875" font-family="Helvetica">  7.853</text>
<rect x="397.35" y="27.6942" width="113.386" height="55.3884" fill="white"/>
<path d="M397.35,83.0826h 113.386" fill="none" stroke="black"/>
<path d="M510.736,83.0826v -55.3884" fill="none" stroke="black"/>
<path d="M510.736,27.6942h -113.386" fill="none" stroke="black"/>
<path d="M397.35,27.6942v 55.3884" fill="none" stroke="black"/>
<text xml:space="preserve" x="407.684" y="37.9217" fill="#006633" font-size="12.1875" font-family="Helvetica">npe_PMT-S0-MC</text>
<path d="M397.35,41.5413h 113.386" fill="none" stroke="black"/>
<text xml:space="preserve" x="402.944" y="53.0904" fill="#006633" font-size="12.1875" font-family="Helvetica">Entries </text>
<text xml:space="preserve" x="470.729" y="52.6163" fill="#006633" font-size="12.1875" font-family="Helvetica"> 60861</text>
<text xml:space="preserve" x="402.944" y="66.837" fill="#006633" font-size="12.1875" font-family="Helvetica">Mean  </text>
<text xml:space="preserve" x="468.833" y="66.3629" fill="#006633" font-size="12.1875" font-family="Helvetica">  6.735</text>
<text xml:space="preserve" x="402.944" y="80.5836" fill="#006633" font-size="12.1875" font-family="Helvetica">Std Dev   </text>
<text xml:space="preserve" x="468.833" y="80.1096" fill="#006633" font-size="12.1875" font-family="Helvetica">  7.853</text>
<rect x="397.35" y="83.0826" width="113.386" height="27.6942" fill="white"/>
<path d="M397.35,110.777h 113.386" fill="none" stroke="black"/>
<path d="M510.736,110.777v -27.6942" fill="none" stroke="black"/>
<path d="M510.736,83.0826h -113.386" fill="none" stroke="black"/>
<path d="M397.35,83.0826v 27.6942" fill="none" stroke="black"/>
<text xml:space="preserve" x="425.697" y="92.9081" fill="black" font-size="11.372" font-family="Helvetica">Data</text>
<path d="M401.602,90.0062h 19.8425" fill="none" stroke="#ff0000" stroke-width="2"/>
<text xml:space="preserve" x="425.697" y="106.655" fill="black" font-size="11.372" font-family="Helvetica">MC by rat</text>
<path d="M401.602,103.853h 19.8425" fill="none" stroke="#006633" stroke-width="2"/>
<rect x="0.5" y="276.942" width="566.929" height="136.404" fill="white"/>
<rect x="57.1929" y="276.943" width="453.543" height="95.4816" fill="white"/>
<rect x="57.1929" y="276.943" width="453.543" height="95.4816" fill="none" stroke="black"/>
<rect x="57.1929" y="276.943" width="453.543" height="95.4816" fill="white"/>
<rect x="57.1929" y="276.943" width="453.543" height="95.4816" fill="none" stroke="black"/>
<path d="M57.1929,372.425h 453.543" fill="none" stroke="black"/>
<path d="M57.1929,369.151v 3.2737" fill="none" stroke="black"/>
<path d="M72.311,370.788v 1.63685" fill="none" stroke="black"/>
<path d="M87.4291,370.788v 1.63685" fill="none" stroke="black"/>
<path d="M102.547,370.788v 1.63685" fill="none" stroke="black"/>
<path d="M117.665,370.788v 1.63685" fill="none" stroke="black"/>
<path d="M132.783,369.151v 3.2737" fill="none" stroke="black"/>
<path d="M147.902,370.788v 1.63685" fill="none" stroke="black"/>
<path d="M163.02,370.788v 1.63685" fill="none" stroke="black"/>
<path d="M178.138,370.788v 1.63685" fill="none" stroke="black"/>
<path d="M193.256,370.788v 1.63685" fill="none" stroke="black"/>
<path d="M208.374,369.151v 3.2737" fill="none" stroke="black"/>
<path d="M223.492,370.788v 1.63685" fill="none" stroke="black"/>
<path d="M238.61,370.788v 1.63685" fill="none" stroke="black"/>
<path d="M253.728,370.788v 1.63685" fill="none" stroke="black"/>
<path d="M268.846,370.788v 1.63685" fill="none" stroke="black"/>
<path d="M283.965,369.151v 3.2737" fill="none" stroke="black"/>
<path d="M299.083,370.788v 1.63685" fill="none" stroke="black"/>
<path d="M314.201,370.788v 1.63685" fill="none" stroke="black"/>
<path d="M329.319,370.788v 1.63685" fill="none" stroke="black"/>
<path d="M344.437,370.788v 1.63685" fill="none" stroke="black"/>
<path d="M359.555,369.151v 3.2737" fill="none" stroke="black"/>
<path d="M374.673,370.788v 1.63685" fill="none" stroke="black"/>
<path d="M389.791,370.788v 1.63685" fill="none" stroke="black"/>
<path d="M404.909,370.788v 1.63685" fill="none" stroke="black"/>
<path d="M420.028,370.788v 1.63685" fill="none" stroke="black"/>
<path d="M435.146,369.151v 3.2737" fill="none" stroke="black"/>
<path d="M450.264,370.788v 1.63685" fill="none" stroke="black"/>
<path d="M465.382,370.788v 1.63685" fill="none" stroke="black"/>
<path d="M480.5,370.788v 1.63685" fill="none" stroke="black"/>
<path d="M495.618,370.788v 1.63685" fill="none" stroke="black"/>
<path d="M510.736,369.151v 3.2737" fill="none" stroke="black"/>
<text xml:space="preserve" x="54.5384" y="380.639" fill="black" font-size="9.25991" font-family="Helvetica">0</text>
<text xml:space="preserve" x="127.538" y="380.639" fill="black" font-size="9.25991" font-family="Helvetica">10</text>
<text xml:space="preserve" x="202.907" y="380.639" fill="black" font-size="9.25991" font-family="Helvetica">20</text>
<text xml:space="preserve" x="278.75" y="380.639" fill="black" font-size="9.25991" font-family="Helvetica">30</text>
<text xml:space="preserve" x="354.12" y="380.639" fill="black" font-size="9.25991" font-family="Helvetica">40</text>
<text xml:space="preserve" x="429.489" y="380.639" fill="black" font-size="9.25991" font-family="Helvetica">50</text>
<text xml:space="preserve" x="505.332" y="380.639" fill="black" font-size="9.25991" font-family="Helvetica">60</text>
<text xml:space="preserve" x="443.71" y="393.437" fill="black" font-size="11.137" font-family="Helvetica">number of p.e</text>
<path d="M57.1929,372.425v -95.4816" fill="none" stroke="black"/>
<path d="M69.0983,365.299h -11.9053" fill="none" stroke="black"/>
<path d="M63.1456,363.36h -5.95267" fill="none" stroke="black"/>
<path d="M63.1456,361.422h -5.95267" fill="none" stroke="black"/>
<path d="M63.1456,359.484h -5.95267" fill="none" stroke="black"/>
<path d="M63.1456,357.545h -5.95267" fill="none" stroke="black"/>
<path d="M69.0983,355.607h -11.9053" fill="none" stroke="black"/>
<path d="M63.1456,353.669h -5.95267" fill="none" stroke="black"/>
<path d="M63.1456,351.731h -5.95267" fill="none" stroke="black"/>
<path d="M63.1456,349.792h -5.95267" fill="none" stroke="black"/>
<path d="M63.1456,347.854h -5.95267" fill="none" stroke="black"/>
<path d="M69.0983,345.916h -11.9053" fill="none" stroke="black"/>
<path d="M63.1456,343.977h -5.95267" fill="none" stroke="black"/>
<path d="M63.1456,342.039h -5.95267" fill="none" stroke="black"/>
<path d="M63.1456,340.101h -5.95267" fill="none" stroke="black"/>
<path d="M63.1456,338.162h -5.95267" fill="none" stroke="black"/>
<path d="M69.0983,336.224h -11.9053" fill="none" stroke="black"/>
<path d="M63.1456,334.286h -5.95267" fill="none" stroke="black"/>
<path d="M63.1456,332.348h -5.95267" fill="none" stroke="black"/>
<path d="M63.1456,330.409h -5.95267" fill="none" stroke="black"/>
<path d="M63.1456,328.471h -5.95267" fill="none" stroke="black"/>
<path d="M69.0983,326.533h -11.9053" fill="none" stroke="black"/>
<path d="M63.1456,324.594h -5.95267" fill="none" stroke="black"/>
<path d="M63.1456,322.656h -5.95267" fill="none" stroke="black"/>
<path d="M63.1456,320.718h -5.95267" fill="none" stroke="black"/>
<path d="M63.1456,318.779h -5.95267" fill="none" stroke="black"/>
<path d="M69.0983,316.841h -11.9053" fill="none" stroke="black"/>
<path d="M63.1456,314.903h -5.95267" fill="none" stroke="black"/>
<path d="M63.1456,312.965h -5.95267" fill="none" stroke="black"/>
<path d="M63.1456,311.026h -5.95267" fill="none" stroke="black"/>
<path d="M63.1456,309.088h -5.95267" fill="none" stroke="black"/>
<path d="M69.0983,307.15h -11.9053" fill="none" stroke="black"/>
<path d="M63.1456,305.211h -5.95267" fill="none" stroke="black"/>
<path d="M63.1456,303.273h -5.95267" fill="none" stroke="black"/>
<path d="M63.1456,301.335h -5.95267" fill="none" stroke="black"/>
<path d="M63.1456,299.396h -5.95267" fill="none" stroke="black"/>
<path d="M69.0983,297.458h -11.9053" fill="none" stroke="black"/>
<path d="M63.1456,295.52h -5.95267" fill="none" stroke="black"/>
<path d="M63.1456,293.582h -5.95267" fill="none" stroke="black"/>
<path d="M63.1456,291.643h -5.95267" fill="none" stroke="black"/>
<path d="M63.1456,289.705h -5.95267" fill="none" stroke="black"/>
<path d="M69.0983,287.767h -11.9053" fill="none" stroke="black"/>
<path d="M63.1456,285.828h -5.95267" fill="none" stroke="black"/>
<path d="M63.1456,283.89h -5.95267" fill="none" stroke="black"/>
<path d="M63.1456,281.952h -5.95267" fill="none" stroke="black"/>
<path d="M63.1456,280.014h -5.95267" fill="none" stroke="black"/>
<path d="M69.0983,278.075h -11.9053" fill="none" stroke="black"/>
<path d="M69.0983,365.299h -11.9053" fill="none" stroke="black"/>
<path d="M63.1456,367.237h -5.95267" fill="none" stroke="black"/>
<path d="M63.1456,369.175h -5.95267" fill="none" stroke="black"/>
<path d="M63.1456,371.113h -5.95267" fill="none" stroke="black"/>
<path d="M69.0983,278.075h -11.9053" fill="none" stroke="black"/>
<text xml:space="preserve" x="44.1099" y="368.314" fill="black" font-size="9.25991" font-family="Helvetica">25</text>
<text xml:space="preserve" x="38.8957" y="368.314" fill="black" font-size="9.25991" font-family="Times">&#8722;</text>
<text xml:space="preserve" x="44.1099" y="358.834" fill="black" font-size="9.25991" font-family="Helvetica">20</text>
<text xml:space="preserve" x="38.8957" y="358.834" fill="black" font-size="9.25991" font-family="Times">&#8722;</text>
<text xml:space="preserve" x="44.1099" y="348.879" fill="black" font-size="9.25991" font-family="Helvetica">15</text>
<text xml:space="preserve" x="38.8957" y="348.879" fill="black" font-size="9.25991" font-family="Times">&#8722;</text>
<text xml:space="preserve" x="44.1099" y="339.399" fill="black" font-size="9.25991" font-family="Helvetica">10</text>
<text xml:space="preserve" x="38.8957" y="339.399" fill="black" font-size="9.25991" font-family="Times">&#8722;</text>
<text xml:space="preserve" x="49.3242" y="329.445" fill="black" font-size="9.25991" font-family="Helvetica">5</text>
<text xml:space="preserve" x="44.1099" y="329.445" fill="black" font-size="9.25991" font-family="Times">&#8722;</text>
<text xml:space="preserve" x="49.3242" y="319.964" fill="black" font-size="9.25991" font-family="Helvetica">0</text>
<text xml:space="preserve" x="49.3242" y="310.01" fill="black" font-size="9.25991" font-family="Helvetica">5</text>
<text xml:space="preserve" x="44.1099" y="300.529" fill="black" font-size="9.25991" font-family="Helvetica">10</text>
<text xml:space="preserve" x="44.1099" y="291.049" fill="black" font-size="9.25991" font-family="Helvetica">15</text>
<text xml:space="preserve" x="44.1099" y="281.094" fill="black" font-size="9.25991" font-family="Helvetica">20</text>
<g transform="rotate(-90,35.5776,283.465)">
<text xml:space="preserve" x="35.5776" y="283.465" fill="black" font-size="11.137" font-family="Times">&#0963;</text>
</g>
<g transform="rotate(-90,35.5776,343.665)">
<text xml:space="preserve" x="35.5776" y="343.665" fill="black" font-size="11.137" font-family="Helvetica">(MC-DATA)/</text>
</g>
<g stroke="black" stroke-width="1" fill="none">
<line x1="56.1929" y1="316.841" x2="57.1929" y2="316.841"/>
<line x1="65.2638" y1="361.733" x2="66.2638" y2="361.733"/>
<line x1="74.3346" y1="295.56" x2="75.3346" y2="295.56"/>
<line x1="83.4055" y1="287.635" x2="84.4055" y2="287.635"/>
<line x1="92.4764" y1="299.86" x2="93.4764" y2="299.86"/>
<line x1="101.547" y1="314.038" x2="102.547" y2="314.038"/>
<line x1="110.618" y1="323.045" x2="111.618" y2="323.045"/>
<line x1="119.689" y1="320.759" x2="120.689" y2="320.759"/>
<line x1="128.76" y1="316.223" x2="129.76" y2="316.223"/>
<line x1="137.831" y1="318.901" x2="138.831" y2="318.901"/>
<line x1="146.902" y1="318.514" x2="147.902" y2="318.514"/>
<line x1="155.972" y1="314.175" x2="156.972" y2="314.175"/>
<line x1="165.043" y1="314.685" x2="166.043" y2="314.685"/>
<line x1="174.114" y1="313.611" x2="175.114" y2="313.611"/>
<line x1="183.185" y1="315.229" x2="184.185" y2="315.229"/>
<line x1="192.256" y1="318.092" x2="193.256" y2="318.092"/>
<line x1="201.327" y1="312.568" x2="202.327" y2="312.568"/>
<line x1="210.398" y1="314.441" x2="211.398" y2="314.441"/>
<line x1="219.469" y1="311.011" x2="220.469" y2="311.011"/>
<line x1="228.539" y1="311.948" x2="229.539" y2="311.948"/>
<line x1="237.61" y1="312.949" x2="238.61" y2="312.949"/>
<line x1="246.681" y1="310.591" x2="247.681" y2="310.591"/>
<line x1="255.752" y1="313.035" x2="256.752" y2="313.035"/>
<line x1="264.823" y1="313.655" x2="265.823" y2="313.655"/>
<line x1="273.894" y1="311.814" x2="274.894" y2="311.814"/>
<line x1="282.965" y1="310.472" x2="283.965" y2="310.472"/>
<line x1="292.035" y1="312.32" x2="293.035" y2="312.32"/>
<line x1="301.106" y1="309.869" x2="302.106" y2="309.869"/>
<line x1="310.177" y1="308.867" x2="311.177" y2="308.867"/>
<line x1="319.248" y1="309.701" x2="320.248" y2="309.701"/>
<line x1="328.319" y1="310.933" x2="329.319" y2="310.933"/>
<line x1="337.39" y1="306.255" x2="338.39" y2="306.255"/>
<line x1="346.461" y1="311.026" x2="347.461" y2="311.026"/>
<line x1="355.531" y1="314.531" x2="356.531" y2="314.531"/>
<line x1="364.602" y1="314.801" x2="365.602" y2="314.801"/>
<line x1="373.673" y1="314.3" x2="374.673" y2="314.3"/>
<line x1="382.744" y1="317.034" x2="383.744" y2="317.034"/>
<line x1="391.815" y1="316.638" x2="392.815" y2="316.638"/>
<line x1="400.886" y1="317.065" x2="401.886" y2="317.065"/>
<line x1="409.957" y1="319.127" x2="410.957" y2="319.127"/>
<line x1="419.028" y1="317.946" x2="420.028" y2="317.946"/>
<line x1="428.098" y1="319.192" x2="429.098" y2="319.192"/>
<line x1="437.169" y1="318.52" x2="438.169" y2="318.52"/>
<line x1="446.24" y1="322.54" x2="447.24" y2="322.54"/>
<line x1="455.311" y1="320.302" x2="456.311" y2="320.302"/>
<line x1="464.382" y1="322.102" x2="465.382" y2="322.102"/>
<line x1="473.453" y1="320.876" x2="474.453" y2="320.876"/>
<line x1="482.524" y1="320.131" x2="483.524" y2="320.131"/>
<line x1="491.594" y1="324.302" x2="492.594" y2="324.302"/>
</g>
<path d="M66.2638,361.733v -2.73548" fill="none" stroke="black"/>
<path d="M65.3157,358.997h 1.89608" fill="none" stroke="black"/>
<path d="M66.2638,361.733v 2.73548" fill="none" stroke="black"/>
<path d="M65.3157,364.468h 1.89608" fill="none" stroke="black"/>
<path d="M75.3346,295.56v -2.73772" fill="none" stroke="black"/>
<path d="M74.3866,292.822h 1.89608" fill="none" stroke="black"/>
<path d="M75.3346,295.56v 2.73772" fill="none" stroke="black"/>
<path d="M74.3866,298.297h 1.89608" fill="none" stroke="black"/>
<path d="M84.4055,287.635v -2.73434" fill="none" stroke="black"/>
<path d="M83.4575,284.9h 1.89608" fill="none" stroke="black"/>
<path d="M84.4055,287.635v 2.73434" fill="none" stroke="black"/>
<path d="M83.4575,290.369h 1.89608" fill="none" stroke="black"/>
<path d="M93.4764,299.86v -2.73864" fill="none" stroke="black"/>
<path d="M92.5283,297.122h 1.89608" fill="none" stroke="black"/>
<path d="M93.4764,299.86v 2.73864" fill="none" stroke="black"/>
<path d="M92.5283,302.599h 1.89608" fill="none" stroke="black"/>
<path d="M102.547,314.038v -2.74109" fill="none" stroke="black"/>
<path d="M101.599,311.297h 1.89608" fill="none" stroke="black"/>
<path d="M102.547,314.038v 2.74109" fill="none" stroke="black"/>
<path d="M101.599,316.779h 1.89608" fill="none" stroke="black"/>
<path d="M111.618,323.045v -2.7407" fill="none" stroke="black"/>
<path d="M110.67,320.305h 1.89608" fill="none" stroke="black"/>
<path d="M111.618,323.045v 2.7407" fill="none" stroke="black"/>
<path d="M110.67,325.786h 1.89608" fill="none" stroke="black"/>
<path d="M120.689,320.759v -2.74094" fill="none" stroke="black"/>
<path d="M119.741,318.018h 1.89608" fill="none" stroke="black"/>
<path d="M120.689,320.759v 2.74094" fill="none" stroke="black"/>
<path d="M119.741,323.5h 1.89608" fill="none" stroke="black"/>
<path d="M129.76,316.223v -2.74116" fill="none" stroke="black"/>
<path d="M128.812,313.482h 1.89608" fill="none" stroke="black"/>
<path d="M129.76,316.223v 2.74116" fill="none" stroke="black"/>
<path d="M128.812,318.965h 1.89608" fill="none" stroke="black"/>
<path d="M138.831,318.901v -2.74108" fill="none" stroke="black"/>
<path d="M137.883,316.16h 1.89608" fill="none" stroke="black"/>
<path d="M138.831,318.901v 2.74108" fill="none" stroke="black"/>
<path d="M137.883,321.642h 1.89608" fill="none" stroke="black"/>
<path d="M147.902,318.514v -2.74109" fill="none" stroke="black"/>
<path d="M146.954,315.773h 1.89608" fill="none" stroke="black"/>
<path d="M147.902,318.514v 2.74109" fill="none" stroke="black"/>
<path d="M146.954,321.255h 1.89608" fill="none" stroke="black"/>
<path d="M156.972,314.175v -2.74093" fill="none" stroke="black"/>
<path d="M156.024,311.434h 1.89608" fill="none" stroke="black"/>
<path d="M156.972,314.175v 2.74093" fill="none" stroke="black"/>
<path d="M156.024,316.916h 1.89608" fill="none" stroke="black"/>
<path d="M166.043,314.685v -2.74098" fill="none" stroke="black"/>
<path d="M165.095,311.944h 1.89608" fill="none" stroke="black"/>
<path d="M166.043,314.685v 2.74098" fill="none" stroke="black"/>
<path d="M165.095,317.426h 1.89608" fill="none" stroke="black"/>
<path d="M175.114,313.611v -2.74064" fill="none" stroke="black"/>
<path d="M174.166,310.87h 1.89608" fill="none" stroke="black"/>
<path d="M175.114,313.611v 2.74064" fill="none" stroke="black"/>
<path d="M174.166,316.352h 1.89608" fill="none" stroke="black"/>
<path d="M184.185,315.229v -2.74102" fill="none" stroke="black"/>
<path d="M183.237,312.488h 1.89608" fill="none" stroke="black"/>
<path d="M184.185,315.229v 2.74102" fill="none" stroke="black"/>
<path d="M183.237,317.97h 1.89608" fill="none" stroke="black"/>
<path d="M193.256,318.092v -2.74105" fill="none" stroke="black"/>
<path d="M192.308,315.351h 1.89608" fill="none" stroke="black"/>
<path d="M193.256,318.092v 2.74105" fill="none" stroke="black"/>
<path d="M192.308,320.833h 1.89608" fill="none" stroke="black"/>
<path d="M202.327,312.568v -2.73951" fill="none" stroke="black"/>
<path d="M201.379,309.828h 1.89608" fill="none" stroke="black"/>
<path d="M202.327,312.568v 2.73951" fill="none" stroke="black"/>
<path d="M201.379,315.307h 1.89608" fill="none" stroke="black"/>
<path d="M211.398,314.441v -2.74058" fill="none" stroke="black"/>
<path d="M210.45,311.701h 1.89608" fill="none" stroke="black"/>
<path d="M211.398,314.441v 2.74058" fill="none" stroke="black"/>
<path d="M210.45,317.182h 1.89608" fill="none" stroke="black"/>
<path d="M220.469,311.011v -2.73718" fill="none" stroke="black"/>
<path d="M219.52,308.274h 1.89608" fill="none" stroke="black"/>
<path d="M220.469,311.011v 2.73718" fill="none" stroke="black"/>
<path d="M219.52,313.749h 1.89608" fill="none" stroke="black"/>
<path d="M229.539,311.948v -2.73786" fill="none" stroke="black"/>
<path d="M228.591,309.21h 1.89608" fill="none" stroke="black"/>
<path d="M229.539,311.948v 2.73786" fill="none" stroke="black"/>
<path d="M228.591,314.686h 1.89608" fill="none" stroke="black"/>
<path d="M238.61,312.949v -2.73893" fill="none" stroke="black"/>
<path d="M237.662,310.21h 1.89608" fill="none" stroke="black"/>
<path d="M238.61,312.949v 2.73893" fill="none" stroke="black"/>
<path d="M237.662,315.688h 1.89608" fill="none" stroke="black"/>
<path d="M247.681,310.591v -2.73454" fill="none" stroke="black"/>
<path d="M246.733,307.857h 1.89608" fill="none" stroke="black"/>
<path d="M247.681,310.591v 2.73454" fill="none" stroke="black"/>
<path d="M246.733,313.326h 1.89608" fill="none" stroke="black"/>
<path d="M256.752,313.035v -2.73853" fill="none" stroke="black"/>
<path d="M255.804,310.296h 1.89608" fill="none" stroke="black"/>
<path d="M256.752,313.035v 2.73853" fill="none" stroke="black"/>
<path d="M255.804,315.773h 1.89608" fill="none" stroke="black"/>
<path d="M265.823,313.655v -2.73886" fill="none" stroke="black"/>
<path d="M264.875,310.916h 1.89608" fill="none" stroke="black"/>
<path d="M265.823,313.655v 2.73886" fill="none" stroke="black"/>
<path d="M264.875,316.394h 1.89608" fill="none" stroke="black"/>
<path d="M274.894,311.814v -2.73467" fill="none" stroke="black"/>
<path d="M273.946,309.08h 1.89608" fill="none" stroke="black"/>
<path d="M274.894,311.814v 2.73467" fill="none" stroke="black"/>
<path d="M273.946,314.549h 1.89608" fill="none" stroke="black"/>
<path d="M283.965,310.472v -2.73067" fill="none" stroke="black"/>
<path d="M283.017,307.741h 1.89608" fill="none" stroke="black"/>
<path d="M283.965,310.472v 2.73067" fill="none" stroke="black"/>
<path d="M283.017,313.203h 1.89608" fill="none" stroke="black"/>
<path d="M293.035,312.32v -2.7351" fill="none" stroke="black"/>
<path d="M292.087,309.585h 1.89608" fill="none" stroke="black"/>
<path d="M293.035,312.32v 2.7351" fill="none" stroke="black"/>
<path d="M292.087,315.055h 1.89608" fill="none" stroke="black"/>
<path d="M302.106,309.869v -2.72384" fill="none" stroke="black"/>
<path d="M301.158,307.145h 1.89608" fill="none" stroke="black"/>
<path d="M302.106,309.869v 2.72384" fill="none" stroke="black"/>
<path d="M301.158,312.593h 1.89608" fill="none" stroke="black"/>
<path d="M311.177,308.867v -2.71666" fill="none" stroke="black"/>
<path d="M310.229,306.15h 1.89608" fill="none" stroke="black"/>
<path d="M311.177,308.867v 2.71666" fill="none" stroke="black"/>
<path d="M310.229,311.584h 1.89608" fill="none" stroke="black"/>
<path d="M320.248,309.701v -2.71823" fill="none" stroke="black"/>
<path d="M319.3,306.983h 1.89608" fill="none" stroke="black"/>
<path d="M320.248,309.701v 2.71823" fill="none" stroke="black"/>
<path d="M319.3,312.419h 1.89608" fill="none" stroke="black"/>
<path d="M329.319,310.933v -2.72493" fill="none" stroke="black"/>
<path d="M328.371,308.208h 1.89608" fill="none" stroke="black"/>
<path d="M329.319,310.933v 2.72493" fill="none" stroke="black"/>
<path d="M328.371,313.658h 1.89608" fill="none" stroke="black"/>
<path d="M338.39,306.255v -2.67701" fill="none" stroke="black"/>
<path d="M337.442,303.578h 1.89608" fill="none" stroke="black"/>
<path d="M338.39,306.255v 2.67701" fill="none" stroke="black"/>
<path d="M337.442,308.932h 1.89608" fill="none" stroke="black"/>
<path d="M347.461,311.026v -2.71932" fill="none" stroke="black"/>
<path d="M346.513,308.307h 1.89608" fill="none" stroke="black"/>
<path d="M347.461,311.026v 2.71932" fill="none" stroke="black"/>
<path d="M346.513,313.746h 1.89608" fill="none" stroke="black"/>
<path d="M356.531,314.531v -2.73763" fill="none" stroke="black"/>
<path d="M355.583,311.794h 1.89608" fill="none" stroke="black"/>
<path d="M356.531,314.531v 2.73763" fill="none" stroke="black"/>
<path d="M355.583,317.269h 1.89608" fill="none" stroke="black"/>
<path d="M365.602,314.801v -2.73824" fill="none" stroke="black"/>
<path d="M364.654,312.063h 1.89608" fill="none" stroke="black"/>
<path d="M365.602,314.801v 2.73824" fill="none" stroke="black"/>
<path d="M364.654,317.539h 1.89608" fill="none" stroke="black"/>
<path d="M374.673,314.3v -2.73597" fill="none" stroke="black"/>
<path d="M373.725,311.564h 1.89608" fill="none" stroke="black"/>
<path d="M374.673,314.3v 2.73597" fill="none" stroke="black"/>
<path d="M373.725,317.036h 1.89608" fill="none" stroke="black"/>
<path d="M383.744,317.034v -2.74113" fill="none" stroke="black"/>
<path d="M382.796,314.293h 1.89608" fill="none" stroke="black"/>
<path d="M383.744,317.034v 2.74113" fill="none" stroke="black"/>
<path d="M382.796,319.775h 1.89608" fill="none" stroke="black"/>
<path d="M392.815,316.638v -2.74113" fill="none" stroke="black"/>
<path d="M391.867,313.897h 1.89608" fill="none" stroke="black"/>
<path d="M392.815,316.638v 2.74113" fill="none" stroke="black"/>
<path d="M391.867,319.379h 1.89608" fill="none" stroke="black"/>
<path d="M401.886,317.065v -2.74111" fill="none" stroke="black"/>
<path d="M400.938,314.324h 1.89608" fill="none" stroke="black"/>
<path d="M401.886,317.065v 2.74111" fill="none" stroke="black"/>
<path d="M400.938,319.806h 1.89608" fill="none" stroke="black"/>
<path d="M410.957,319.127v -2.73566" fill="none" stroke="black"/>
<path d="M410.009,316.391h 1.89608" fill="none" stroke="black"/>
<path d="M410.957,319.127v 2.73566" fill="none" stroke="black"/>
<path d="M410.009,321.863h 1.89608" fill="none" stroke="black"/>
<path d="M420.028,317.946v -2.73972" fill="none" stroke="black"/>
<path d="M419.08,315.206h 1.89608" fill="none" stroke="black"/>
<path d="M420.028,317.946v 2.73972" fill="none" stroke="black"/>
<path d="M419.08,320.685h 1.89608" fill="none" stroke="black"/>
<path d="M429.098,319.192v -2.73371" fill="none" stroke="black"/>
<path d="M428.15,316.458h 1.89608" fill="none" stroke="black"/>
<path d="M429.098,319.192v 2.73371" fill="none" stroke="black"/>
<path d="M428.15,321.925h 1.89608" fill="none" stroke="black"/>
<path d="M438.169,318.52v -2.73579" fill="none" stroke="black"/>
<path d="M437.221,315.784h 1.89608" fill="none" stroke="black"/>
<path d="M438.169,318.52v 2.73579" fill="none" stroke="black"/>
<path d="M437.221,321.256h 1.89608" fill="none" stroke="black"/>
<path d="M447.24,322.54v -2.6855" fill="none" stroke="black"/>
<path d="M446.292,319.854h 1.89608" fill="none" stroke="black"/>
<path d="M447.24,322.54v 2.6855" fill="none" stroke="black"/>
<path d="M446.292,325.225h 1.89608" fill="none" stroke="black"/>
<path d="M456.311,320.302v -2.72015" fill="none" stroke="black"/>
<path d="M455.363,317.582h 1.89608" fill="none" stroke="black"/>
<path d="M456.311,320.302v 2.72015" fill="none" stroke="black"/>
<path d="M455.363,323.023h 1.89608" fill="none" stroke="black"/>
<path d="M465.382,322.102v -2.68702" fill="none" stroke="black"/>
<path d="M464.434,319.415h 1.89608" fill="none" stroke="black"/>
<path d="M465.382,322.102v 2.68702" fill="none" stroke="black"/>
<path d="M464.434,324.789h 1.89608" fill="none" stroke="black"/>
<path d="M474.453,320.876v -2.70169" fill="none" stroke="black"/>
<path d="M473.505,318.174h 1.89608" fill="none" stroke="black"/>
<path d="M474.453,320.876v 2.70169" fill="none" stroke="black"/>
<path d="M473.505,323.578h 1.89608" fill="none" stroke="black"/>
<path d="M483.524,320.131v -2.72106" fill="none" stroke="black"/>
<path d="M482.576,317.41h 1.89608" fill="none" stroke="black"/>
<path d="M483.524,320.131v 2.72106" fill="none" stroke="black"/>
<path d="M482.576,322.852h 1.89608" fill="none" stroke="black"/>
<path d="M492.594,324.302v -2.69199" fill="none" stroke="black"/>
<path d="M491.646,321.61h 1.89608" fill="none" stroke="black"/>
<path d="M492.594,324.302v 2.69199" fill="none" stroke="black"/>
<path d="M491.646,326.994h 1.89608" fill="none" stroke="black"/></svg>
